<?xml version="1.0" encoding="UTF-8" standalone="no"?>
<!-- Created with Inkscape (http://www.inkscape.org/) -->

<svg
   version="1.1"
   id="svg1"
   width="330.05334"
   height="124.48"
   viewBox="0 0 330.05334 124.48"
   sodipodi:docname="ANA1.svg"
   inkscape:version="1.3 (0e150ed6c4, 2023-07-21)"
   xmlns:inkscape="http://www.inkscape.org/namespaces/inkscape"
   xmlns:sodipodi="http://sodipodi.sourceforge.net/DTD/sodipodi-0.dtd"
   xmlns="http://www.w3.org/2000/svg"
   xmlns:svg="http://www.w3.org/2000/svg">
  <defs
     id="defs1" />
  <sodipodi:namedview
     id="namedview1"
     pagecolor="#ffffff"
     bordercolor="#000000"
     borderopacity="0.25"
     inkscape:showpageshadow="2"
     inkscape:pageopacity="0.0"
     inkscape:pagecheckerboard="0"
     inkscape:deskcolor="#d1d1d1"
     inkscape:zoom="3.9811746"
     inkscape:cx="165.02667"
     inkscape:cy="90.425575"
     inkscape:window-width="1920"
     inkscape:window-height="974"
     inkscape:window-x="-11"
     inkscape:window-y="-11"
     inkscape:window-maximized="1"
     inkscape:current-layer="g1">
    <inkscape:page
       x="0"
       y="0"
       inkscape:label="1"
       id="page1"
       width="330.05334"
       height="124.48"
       margin="0"
       bleed="0" />
  </sodipodi:namedview>
  <g
     id="g1"
     inkscape:groupmode="layer"
     inkscape:label="1">
    <path
       id="path2"
       d="m 1.25,558.25 h 334"
       style="fill:none;stroke:#231f20;stroke-width:2.5;stroke-linecap:butt;stroke-linejoin:miter;stroke-miterlimit:3.8637;stroke-dasharray:none;stroke-opacity:1"
       transform="matrix(0.13333333,0,0,-0.13333333,0,124.48)" />
    <path
       id="path3"
       d="m 333.25,558.25 v 15 l 37,-15 -37,-15 v 15"
       style="fill:#231f20;fill-opacity:1;fill-rule:evenodd;stroke:none"
       transform="matrix(0.13333333,0,0,-0.13333333,0,124.48)" />
    <path
       id="path4"
       d="m 1256.25,683.25 c 14.4,64.012 46.44,90.871 99,121 40.16,22.063 57.13,28.051 114,28"
       style="fill:none;stroke:#231f20;stroke-width:2.5;stroke-linecap:butt;stroke-linejoin:miter;stroke-miterlimit:3.8637;stroke-dasharray:none;stroke-opacity:1"
       transform="matrix(0.13333333,0,0,-0.13333333,0,124.48)" />
    <path
       id="path5"
       d="m 2099.25,561.25 h 334"
       style="fill:none;stroke:#231f20;stroke-width:2.5;stroke-linecap:butt;stroke-linejoin:miter;stroke-miterlimit:3.8637;stroke-dasharray:none;stroke-opacity:1"
       transform="matrix(0.13333333,0,0,-0.13333333,0,124.48)" />
    <path
       id="path6"
       d="m 2431.25,561.25 v 15 l 37,-15 -37,-15 v 15"
       style="fill:#231f20;fill-opacity:1;fill-rule:evenodd;stroke:none"
       transform="matrix(0.13333333,0,0,-0.13333333,0,124.48)" />
    <path
       id="path8"
       d="m 2085.25,100.25 h 335"
       style="fill:none;stroke:#231f20;stroke-width:2.5;stroke-linecap:butt;stroke-linejoin:miter;stroke-miterlimit:3.8637;stroke-dasharray:none;stroke-opacity:1"
       transform="matrix(0.13333333,0,0,-0.13333333,0,124.48)" />
    <path
       id="path9"
       d="m 2417.25,100.25 v 15 l 38,-15 -38,-15 v 15"
       style="fill:#231f20;fill-opacity:1;fill-rule:evenodd;stroke:none"
       transform="matrix(0.13333333,0,0,-0.13333333,0,124.48)" />
    <path
       id="path10"
       d="m 380.25,100.25 h -334"
       style="fill:none;stroke:#231f20;stroke-width:2.5;stroke-linecap:butt;stroke-linejoin:miter;stroke-miterlimit:3.8637;stroke-dasharray:none;stroke-opacity:1"
       transform="matrix(0.13333333,0,0,-0.13333333,0,124.48)" />
    <path
       id="path11"
       d="m 48.25,100.25 v -15 l -37,15 37,15 v -15"
       style="fill:#231f20;fill-opacity:1;fill-rule:evenodd;stroke:none"
       transform="matrix(0.13333333,0,0,-0.13333333,0,124.48)" />
    <path
       id="path13"
       d="m 441.25,560.25 h 321"
       style="fill:none;stroke:#231f20;stroke-width:3.8;stroke-linecap:butt;stroke-linejoin:miter;stroke-miterlimit:3.8637;stroke-dasharray:none;stroke-opacity:1"
       transform="matrix(0.13333333,0,0,-0.13333333,0,124.48)" />
    <path
       id="path14"
       d="m 763.25,562.25 24,103"
       style="fill:none;stroke:#231f20;stroke-width:3.8;stroke-linecap:butt;stroke-linejoin:miter;stroke-miterlimit:3.8637;stroke-dasharray:none;stroke-opacity:1"
       transform="matrix(0.13333333,0,0,-0.13333333,0,124.48)" />
    <path
       id="path15"
       d="m 787.25,665.25 48,-207"
       style="fill:none;stroke:#231f20;stroke-width:3.8;stroke-linecap:butt;stroke-linejoin:miter;stroke-miterlimit:3.8637;stroke-dasharray:none;stroke-opacity:1"
       transform="matrix(0.13333333,0,0,-0.13333333,0,124.48)" />
    <path
       id="path16"
       d="m 835.25,458.25 48,207"
       style="fill:none;stroke:#231f20;stroke-width:3.8;stroke-linecap:butt;stroke-linejoin:miter;stroke-miterlimit:3.8637;stroke-dasharray:none;stroke-opacity:1"
       transform="matrix(0.13333333,0,0,-0.13333333,0,124.48)" />
    <path
       id="path17"
       d="m 883.25,665.25 48,-207"
       style="fill:none;stroke:#231f20;stroke-width:3.8;stroke-linecap:butt;stroke-linejoin:miter;stroke-miterlimit:3.8637;stroke-dasharray:none;stroke-opacity:1"
       transform="matrix(0.13333333,0,0,-0.13333333,0,124.48)" />
    <path
       id="path18"
       d="m 931.25,458.25 48,207"
       style="fill:none;stroke:#231f20;stroke-width:3.8;stroke-linecap:butt;stroke-linejoin:miter;stroke-miterlimit:3.8637;stroke-dasharray:none;stroke-opacity:1"
       transform="matrix(0.13333333,0,0,-0.13333333,0,124.48)" />
    <path
       id="path19"
       d="m 979.25,665.25 48,-207"
       style="fill:none;stroke:#231f20;stroke-width:3.8;stroke-linecap:butt;stroke-linejoin:miter;stroke-miterlimit:3.8637;stroke-dasharray:none;stroke-opacity:1"
       transform="matrix(0.13333333,0,0,-0.13333333,0,124.48)" />
    <path
       id="path20"
       d="m 1027.25,458.25 48,207"
       style="fill:none;stroke:#231f20;stroke-width:3.8;stroke-linecap:butt;stroke-linejoin:miter;stroke-miterlimit:3.8637;stroke-dasharray:none;stroke-opacity:1"
       transform="matrix(0.13333333,0,0,-0.13333333,0,124.48)" />
    <path
       id="path21"
       d="m 1075.25,665.25 48,-207"
       style="fill:none;stroke:#231f20;stroke-width:3.8;stroke-linecap:butt;stroke-linejoin:miter;stroke-miterlimit:3.8637;stroke-dasharray:none;stroke-opacity:1"
       transform="matrix(0.13333333,0,0,-0.13333333,0,124.48)" />
    <path
       id="path22"
       d="m 1123.25,458.25 48,207"
       style="fill:none;stroke:#231f20;stroke-width:3.8;stroke-linecap:butt;stroke-linejoin:miter;stroke-miterlimit:3.8637;stroke-dasharray:none;stroke-opacity:1"
       transform="matrix(0.13333333,0,0,-0.13333333,0,124.48)" />
    <path
       id="path23"
       d="m 1171.25,665.25 48,-207"
       style="fill:none;stroke:#231f20;stroke-width:3.8;stroke-linecap:butt;stroke-linejoin:miter;stroke-miterlimit:3.8637;stroke-dasharray:none;stroke-opacity:1"
       transform="matrix(0.13333333,0,0,-0.13333333,0,124.48)" />
    <path
       id="path24"
       d="m 1219.25,458.25 48,207"
       style="fill:none;stroke:#231f20;stroke-width:3.8;stroke-linecap:butt;stroke-linejoin:miter;stroke-miterlimit:3.8637;stroke-dasharray:none;stroke-opacity:1"
       transform="matrix(0.13333333,0,0,-0.13333333,0,124.48)" />
    <path
       id="path25"
       d="m 1267.25,665.25 48,-207"
       style="fill:none;stroke:#231f20;stroke-width:3.8;stroke-linecap:butt;stroke-linejoin:miter;stroke-miterlimit:3.8637;stroke-dasharray:none;stroke-opacity:1"
       transform="matrix(0.13333333,0,0,-0.13333333,0,124.48)" />
    <path
       id="path26"
       d="m 1315.25,458.25 48,207"
       style="fill:none;stroke:#231f20;stroke-width:3.8;stroke-linecap:butt;stroke-linejoin:miter;stroke-miterlimit:3.8637;stroke-dasharray:none;stroke-opacity:1"
       transform="matrix(0.13333333,0,0,-0.13333333,0,124.48)" />
    <path
       id="path27"
       d="m 1363.25,665.25 48,-207"
       style="fill:none;stroke:#231f20;stroke-width:3.8;stroke-linecap:butt;stroke-linejoin:miter;stroke-miterlimit:3.8637;stroke-dasharray:none;stroke-opacity:1"
       transform="matrix(0.13333333,0,0,-0.13333333,0,124.48)" />
    <path
       id="path28"
       d="m 1411.25,458.25 48,207"
       style="fill:none;stroke:#231f20;stroke-width:3.8;stroke-linecap:butt;stroke-linejoin:miter;stroke-miterlimit:3.8637;stroke-dasharray:none;stroke-opacity:1"
       transform="matrix(0.13333333,0,0,-0.13333333,0,124.48)" />
    <path
       id="path29"
       d="m 1459.25,665.25 49,-207"
       style="fill:none;stroke:#231f20;stroke-width:3.8;stroke-linecap:butt;stroke-linejoin:miter;stroke-miterlimit:3.8637;stroke-dasharray:none;stroke-opacity:1"
       transform="matrix(0.13333333,0,0,-0.13333333,0,124.48)" />
    <path
       id="path30"
       d="m 1508.25,458.25 48,207"
       style="fill:none;stroke:#231f20;stroke-width:3.8;stroke-linecap:butt;stroke-linejoin:miter;stroke-miterlimit:3.8637;stroke-dasharray:none;stroke-opacity:1"
       transform="matrix(0.13333333,0,0,-0.13333333,0,124.48)" />
    <path
       id="path31"
       d="m 1556.25,665.25 48,-207"
       style="fill:none;stroke:#231f20;stroke-width:3.8;stroke-linecap:butt;stroke-linejoin:miter;stroke-miterlimit:3.8637;stroke-dasharray:none;stroke-opacity:1"
       transform="matrix(0.13333333,0,0,-0.13333333,0,124.48)" />
    <path
       id="path32"
       d="m 1604.25,458.25 48,207"
       style="fill:none;stroke:#231f20;stroke-width:3.8;stroke-linecap:butt;stroke-linejoin:miter;stroke-miterlimit:3.8637;stroke-dasharray:none;stroke-opacity:1"
       transform="matrix(0.13333333,0,0,-0.13333333,0,124.48)" />
    <path
       id="path33"
       d="m 1652.25,665.25 48,-207"
       style="fill:none;stroke:#231f20;stroke-width:3.8;stroke-linecap:butt;stroke-linejoin:miter;stroke-miterlimit:3.8637;stroke-dasharray:none;stroke-opacity:1"
       transform="matrix(0.13333333,0,0,-0.13333333,0,124.48)" />
    <path
       id="path34"
       d="m 1700.25,458.25 24,104"
       style="fill:none;stroke:#231f20;stroke-width:3.8;stroke-linecap:butt;stroke-linejoin:miter;stroke-miterlimit:3.8637;stroke-dasharray:none;stroke-opacity:1"
       transform="matrix(0.13333333,0,0,-0.13333333,0,124.48)" />
    <path
       id="path35"
       d="m 1726.25,559.25 h 321"
       style="fill:none;stroke:#231f20;stroke-width:3.8;stroke-linecap:butt;stroke-linejoin:miter;stroke-miterlimit:3.8637;stroke-dasharray:none;stroke-opacity:1"
       transform="matrix(0.13333333,0,0,-0.13333333,0,124.48)" />
    <path
       id="path37"
       d="m 441.25,103.25 h 321"
       style="fill:none;stroke:#231f20;stroke-width:3.8;stroke-linecap:butt;stroke-linejoin:miter;stroke-miterlimit:3.8637;stroke-dasharray:none;stroke-opacity:1"
       transform="matrix(0.13333333,0,0,-0.13333333,0,124.48)" />
    <path
       id="path38"
       d="m 763.25,105.25 24,103"
       style="fill:none;stroke:#231f20;stroke-width:3.8;stroke-linecap:butt;stroke-linejoin:miter;stroke-miterlimit:3.8637;stroke-dasharray:none;stroke-opacity:1"
       transform="matrix(0.13333333,0,0,-0.13333333,0,124.48)" />
    <path
       id="path39"
       d="m 787.25,208.25 48,-206"
       style="fill:none;stroke:#231f20;stroke-width:3.8;stroke-linecap:butt;stroke-linejoin:miter;stroke-miterlimit:3.8637;stroke-dasharray:none;stroke-opacity:1"
       transform="matrix(0.13333333,0,0,-0.13333333,0,124.48)" />
    <path
       id="path40"
       d="m 835.25,2.25 48,206"
       style="fill:none;stroke:#231f20;stroke-width:3.8;stroke-linecap:butt;stroke-linejoin:miter;stroke-miterlimit:3.8637;stroke-dasharray:none;stroke-opacity:1"
       transform="matrix(0.13333333,0,0,-0.13333333,0,124.48)" />
    <path
       id="path41"
       d="m 883.25,208.25 48,-206"
       style="fill:none;stroke:#231f20;stroke-width:3.8;stroke-linecap:butt;stroke-linejoin:miter;stroke-miterlimit:3.8637;stroke-dasharray:none;stroke-opacity:1"
       transform="matrix(0.13333333,0,0,-0.13333333,0,124.48)" />
    <path
       id="path42"
       d="m 931.25,2.25 48,206"
       style="fill:none;stroke:#231f20;stroke-width:3.8;stroke-linecap:butt;stroke-linejoin:miter;stroke-miterlimit:3.8637;stroke-dasharray:none;stroke-opacity:1"
       transform="matrix(0.13333333,0,0,-0.13333333,0,124.48)" />
    <path
       id="path43"
       d="m 979.25,208.25 48,-206"
       style="fill:none;stroke:#231f20;stroke-width:3.8;stroke-linecap:butt;stroke-linejoin:miter;stroke-miterlimit:3.8637;stroke-dasharray:none;stroke-opacity:1"
       transform="matrix(0.13333333,0,0,-0.13333333,0,124.48)" />
    <path
       id="path44"
       d="m 1027.25,2.25 48,206"
       style="fill:none;stroke:#231f20;stroke-width:3.8;stroke-linecap:butt;stroke-linejoin:miter;stroke-miterlimit:3.8637;stroke-dasharray:none;stroke-opacity:1"
       transform="matrix(0.13333333,0,0,-0.13333333,0,124.48)" />
    <path
       id="path45"
       d="m 1075.25,208.25 48,-206"
       style="fill:none;stroke:#231f20;stroke-width:3.8;stroke-linecap:butt;stroke-linejoin:miter;stroke-miterlimit:3.8637;stroke-dasharray:none;stroke-opacity:1"
       transform="matrix(0.13333333,0,0,-0.13333333,0,124.48)" />
    <path
       id="path46"
       d="m 1123.25,2.25 48,206"
       style="fill:none;stroke:#231f20;stroke-width:3.8;stroke-linecap:butt;stroke-linejoin:miter;stroke-miterlimit:3.8637;stroke-dasharray:none;stroke-opacity:1"
       transform="matrix(0.13333333,0,0,-0.13333333,0,124.48)" />
    <path
       id="path47"
       d="m 1171.25,208.25 48,-206"
       style="fill:none;stroke:#231f20;stroke-width:3.8;stroke-linecap:butt;stroke-linejoin:miter;stroke-miterlimit:3.8637;stroke-dasharray:none;stroke-opacity:1"
       transform="matrix(0.13333333,0,0,-0.13333333,0,124.48)" />
    <path
       id="path48"
       d="m 1219.25,2.25 48,206"
       style="fill:none;stroke:#231f20;stroke-width:3.8;stroke-linecap:butt;stroke-linejoin:miter;stroke-miterlimit:3.8637;stroke-dasharray:none;stroke-opacity:1"
       transform="matrix(0.13333333,0,0,-0.13333333,0,124.48)" />
    <path
       id="path49"
       d="m 1267.25,208.25 48,-206"
       style="fill:none;stroke:#231f20;stroke-width:3.8;stroke-linecap:butt;stroke-linejoin:miter;stroke-miterlimit:3.8637;stroke-dasharray:none;stroke-opacity:1"
       transform="matrix(0.13333333,0,0,-0.13333333,0,124.48)" />
    <path
       id="path50"
       d="m 1315.25,2.25 48,206"
       style="fill:none;stroke:#231f20;stroke-width:3.8;stroke-linecap:butt;stroke-linejoin:miter;stroke-miterlimit:3.8637;stroke-dasharray:none;stroke-opacity:1"
       transform="matrix(0.13333333,0,0,-0.13333333,0,124.48)" />
    <path
       id="path51"
       d="m 1363.25,208.25 48,-206"
       style="fill:none;stroke:#231f20;stroke-width:3.8;stroke-linecap:butt;stroke-linejoin:miter;stroke-miterlimit:3.8637;stroke-dasharray:none;stroke-opacity:1"
       transform="matrix(0.13333333,0,0,-0.13333333,0,124.48)" />
    <path
       id="path52"
       d="m 1411.25,2.25 48,206"
       style="fill:none;stroke:#231f20;stroke-width:3.8;stroke-linecap:butt;stroke-linejoin:miter;stroke-miterlimit:3.8637;stroke-dasharray:none;stroke-opacity:1"
       transform="matrix(0.13333333,0,0,-0.13333333,0,124.48)" />
    <path
       id="path53"
       d="m 1459.25,208.25 49,-206"
       style="fill:none;stroke:#231f20;stroke-width:3.8;stroke-linecap:butt;stroke-linejoin:miter;stroke-miterlimit:3.8637;stroke-dasharray:none;stroke-opacity:1"
       transform="matrix(0.13333333,0,0,-0.13333333,0,124.48)" />
    <path
       id="path54"
       d="m 1508.25,2.25 48,206"
       style="fill:none;stroke:#231f20;stroke-width:3.8;stroke-linecap:butt;stroke-linejoin:miter;stroke-miterlimit:3.8637;stroke-dasharray:none;stroke-opacity:1"
       transform="matrix(0.13333333,0,0,-0.13333333,0,124.48)" />
    <path
       id="path55"
       d="m 1556.25,208.25 48,-206"
       style="fill:none;stroke:#231f20;stroke-width:3.8;stroke-linecap:butt;stroke-linejoin:miter;stroke-miterlimit:3.8637;stroke-dasharray:none;stroke-opacity:1"
       transform="matrix(0.13333333,0,0,-0.13333333,0,124.48)" />
    <path
       id="path56"
       d="m 1604.25,2.25 48,206"
       style="fill:none;stroke:#231f20;stroke-width:3.8;stroke-linecap:butt;stroke-linejoin:miter;stroke-miterlimit:3.8637;stroke-dasharray:none;stroke-opacity:1"
       transform="matrix(0.13333333,0,0,-0.13333333,0,124.48)" />
    <path
       id="path57"
       d="m 1652.25,208.25 48,-206"
       style="fill:none;stroke:#231f20;stroke-width:3.8;stroke-linecap:butt;stroke-linejoin:miter;stroke-miterlimit:3.8637;stroke-dasharray:none;stroke-opacity:1"
       transform="matrix(0.13333333,0,0,-0.13333333,0,124.48)" />
    <path
       id="path58"
       d="m 1700.25,2.25 24,103"
       style="fill:none;stroke:#231f20;stroke-width:3.8;stroke-linecap:butt;stroke-linejoin:miter;stroke-miterlimit:3.8637;stroke-dasharray:none;stroke-opacity:1"
       transform="matrix(0.13333333,0,0,-0.13333333,0,124.48)" />
    <path
       id="path59"
       d="m 1726.25,102.25 h 321"
       style="fill:none;stroke:#231f20;stroke-width:3.8;stroke-linecap:butt;stroke-linejoin:miter;stroke-miterlimit:3.8637;stroke-dasharray:none;stroke-opacity:1"
       transform="matrix(0.13333333,0,0,-0.13333333,0,124.48)" />
    <text
       xml:space="preserve"
       style="font-style:italic;font-variant:normal;font-weight:normal;font-stretch:normal;font-size:12px;font-family:'Times New Roman';-inkscape-font-specification:'Times New Roman, Italic';font-variant-ligatures:normal;font-variant-caps:normal;font-variant-numeric:normal;font-variant-east-asian:normal;fill:#000000"
       x="200.08397"
       y="17.101879"
       id="text2"><tspan
         sodipodi:role="line"
         id="tspan2"
         x="200.08397"
         y="17.101879"
         style="font-style:italic;font-variant:normal;font-weight:normal;font-stretch:normal;font-size:16px;font-family:'Times New Roman';-inkscape-font-specification:'Times New Roman, Italic';font-variant-ligatures:normal;font-variant-caps:normal;font-variant-numeric:normal;font-variant-east-asian:normal">k</tspan></text>
    <text
       xml:space="preserve"
       style="font-style:italic;font-variant:normal;font-weight:normal;font-stretch:normal;font-size:16px;font-family:'Times New Roman';-inkscape-font-specification:'Times New Roman, Italic';font-variant-ligatures:normal;font-variant-caps:normal;font-variant-numeric:normal;font-variant-east-asian:normal;fill:#000000"
       x="6.6707492"
       y="41.092571"
       id="text5-1"><tspan
         sodipodi:role="line"
         id="tspan5-25"
         x="6.6707492"
         y="41.092571">u<tspan
   style="font-style:normal;font-variant:normal;font-weight:normal;font-stretch:normal;font-size:65%;font-family:'Times New Roman';-inkscape-font-specification:'Times New Roman, ';baseline-shift:sub"
   id="tspan1">1</tspan>, P<tspan
   style="font-style:normal;font-variant:normal;font-weight:normal;font-stretch:normal;font-size:10.4px;font-family:'Times New Roman';-inkscape-font-specification:'Times New Roman, Normal';font-variant-ligatures:normal;font-variant-caps:normal;font-variant-numeric:normal;font-variant-east-asian:normal;baseline-shift:sub"
   id="tspan9-1">1</tspan></tspan></text>
    <text
       xml:space="preserve"
       style="font-style:italic;font-variant:normal;font-weight:normal;font-stretch:normal;font-size:16px;font-family:'Times New Roman';-inkscape-font-specification:'Times New Roman, Italic';font-variant-ligatures:normal;font-variant-caps:normal;font-variant-numeric:normal;font-variant-east-asian:normal;fill:#000000"
       x="283.69089"
       y="42.288399"
       id="text5-1-1"><tspan
         sodipodi:role="line"
         id="tspan5-25-01"
         x="283.69089"
         y="42.288399">u<tspan
   style="font-style:normal;font-variant:normal;font-weight:normal;font-stretch:normal;font-size:65%;font-family:'Times New Roman';-inkscape-font-specification:'Times New Roman, ';baseline-shift:sub"
   id="tspan3">2</tspan>, P<tspan
   style="font-style:normal;font-variant:normal;font-weight:normal;font-stretch:normal;font-size:10.4px;font-family:'Times New Roman';-inkscape-font-specification:'Times New Roman, Normal';font-variant-ligatures:normal;font-variant-caps:normal;font-variant-numeric:normal;font-variant-east-asian:normal;baseline-shift:sub"
   id="tspan9-1-99">2</tspan></tspan></text>
    <text
       xml:space="preserve"
       style="font-style:italic;font-variant:normal;font-weight:normal;font-stretch:normal;font-size:16px;font-family:'Times New Roman';-inkscape-font-specification:'Times New Roman, Italic';font-variant-ligatures:normal;font-variant-caps:normal;font-variant-numeric:normal;font-variant-east-asian:normal;fill:#000000"
       x="14.839176"
       y="103.46078"
       id="text5-1-4"><tspan
         sodipodi:role="line"
         id="tspan5-25-8"
         x="14.839176"
         y="103.46078">N</tspan></text>
    <text
       xml:space="preserve"
       style="font-style:italic;font-variant:normal;font-weight:normal;font-stretch:normal;font-size:16px;font-family:'Times New Roman';-inkscape-font-specification:'Times New Roman, Italic';font-variant-ligatures:normal;font-variant-caps:normal;font-variant-numeric:normal;font-variant-east-asian:normal;fill:#000000"
       x="302.35489"
       y="103.88276"
       id="text5-1-4-8"><tspan
         sodipodi:role="line"
         id="tspan5-25-8-6"
         x="302.35489"
         y="103.88276">N</tspan></text>
    <circle
       style="fill:#000000;stroke-width:1.18286"
       id="path7"
       cx="58.757713"
       cy="110.25005"
       r="4" />
    <circle
       style="fill:#000000;stroke-width:1.18286"
       id="path7-2"
       cx="271.38831"
       cy="110.84339"
       r="4" />
    <circle
       style="fill:#000000;stroke-width:1.18286"
       id="path7-22"
       cx="56.97163"
       cy="49.312656"
       r="4" />
    <circle
       style="fill:#000000;stroke-width:1.18286"
       id="path7-9"
       cx="272.0036"
       cy="49.810856"
       r="4" />
  </g>
</svg>
