<?xml version="1.0" encoding="UTF-8" standalone="no"?>
<!-- Created with Inkscape (http://www.inkscape.org/) -->

<svg
   version="1.1"
   id="svg1"
   width="213.33333"
   height="76"
   viewBox="0 0 213.33333 76"
   sodipodi:docname="bar1e_2.svg"
   inkscape:version="1.3 (0e150ed6c4, 2023-07-21)"
   xmlns:inkscape="http://www.inkscape.org/namespaces/inkscape"
   xmlns:sodipodi="http://sodipodi.sourceforge.net/DTD/sodipodi-0.dtd"
   xmlns="http://www.w3.org/2000/svg"
   xmlns:svg="http://www.w3.org/2000/svg">
  <defs
     id="defs1">
    <clipPath
       clipPathUnits="userSpaceOnUse"
       id="clipPath2">
      <path
         d="M 0,561 H 1600 V 0 H 0 Z"
         id="path2" />
    </clipPath>
    <clipPath
       clipPathUnits="userSpaceOnUse"
       id="clipPath4">
      <path
         d="M 0,561 H 1600 V 0 H 0 Z"
         id="path4" />
    </clipPath>
    <clipPath
       clipPathUnits="userSpaceOnUse"
       id="clipPath5">
      <path
         d="M 0,561 H 1600 V 0 H 0 Z"
         transform="matrix(0.1,0,0,-0.1,-34.450801,1.1874998)"
         id="path5" />
    </clipPath>
    <clipPath
       clipPathUnits="userSpaceOnUse"
       id="clipPath7">
      <path
         d="M 0,561 H 1600 V 0 H 0 Z"
         id="path7" />
    </clipPath>
    <clipPath
       clipPathUnits="userSpaceOnUse"
       id="clipPath9">
      <path
         d="M 0,561 H 1600 V 0 H 0 Z"
         id="path9" />
    </clipPath>
    <clipPath
       clipPathUnits="userSpaceOnUse"
       id="clipPath11">
      <path
         d="M 0,561 H 1600 V 0 H 0 Z"
         id="path11" />
    </clipPath>
    <clipPath
       clipPathUnits="userSpaceOnUse"
       id="clipPath12">
      <path
         d="M 0,561 H 1600 V 0 H 0 Z"
         transform="matrix(0.1,0,0,-0.1,-42.083201,27.159001)"
         id="path12" />
    </clipPath>
    <clipPath
       clipPathUnits="userSpaceOnUse"
       id="clipPath14">
      <path
         d="M 0,561 H 1600 V 0 H 0 Z"
         id="path14" />
    </clipPath>
    <clipPath
       clipPathUnits="userSpaceOnUse"
       id="clipPath16">
      <path
         d="M 0,561 H 1600 V 0 H 0 Z"
         id="path16" />
    </clipPath>
    <clipPath
       clipPathUnits="userSpaceOnUse"
       id="clipPath18">
      <path
         d="M 0,561 H 1600 V 0 H 0 Z"
         id="path18" />
    </clipPath>
    <clipPath
       clipPathUnits="userSpaceOnUse"
       id="clipPath20">
      <path
         d="M 0,561 H 1600 V 0 H 0 Z"
         id="path20" />
    </clipPath>
    <clipPath
       clipPathUnits="userSpaceOnUse"
       id="clipPath22">
      <path
         d="M 0,561 H 1600 V 0 H 0 Z"
         id="path22" />
    </clipPath>
    <clipPath
       clipPathUnits="userSpaceOnUse"
       id="clipPath24">
      <path
         d="M 0,561 H 1600 V 0 H 0 Z"
         id="path24" />
    </clipPath>
    <clipPath
       clipPathUnits="userSpaceOnUse"
       id="clipPath26">
      <path
         d="M 0,561 H 1600 V 0 H 0 Z"
         id="path26" />
    </clipPath>
    <clipPath
       clipPathUnits="userSpaceOnUse"
       id="clipPath28">
      <path
         d="M 0,561 H 1600 V 0 H 0 Z"
         id="path28" />
    </clipPath>
    <clipPath
       clipPathUnits="userSpaceOnUse"
       id="clipPath30">
      <path
         d="M 0,561 H 1600 V 0 H 0 Z"
         id="path30" />
    </clipPath>
    <clipPath
       clipPathUnits="userSpaceOnUse"
       id="clipPath32">
      <path
         d="M 0,561 H 1600 V 0 H 0 Z"
         id="path32" />
    </clipPath>
    <clipPath
       clipPathUnits="userSpaceOnUse"
       id="clipPath34">
      <path
         d="M 0,561 H 1600 V 0 H 0 Z"
         id="path34" />
    </clipPath>
    <clipPath
       clipPathUnits="userSpaceOnUse"
       id="clipPath36">
      <path
         d="M 0,561 H 1600 V 0 H 0 Z"
         id="path36" />
    </clipPath>
    <clipPath
       clipPathUnits="userSpaceOnUse"
       id="clipPath38">
      <path
         d="M 0,561 H 1600 V 0 H 0 Z"
         id="path38" />
    </clipPath>
    <clipPath
       clipPathUnits="userSpaceOnUse"
       id="clipPath40">
      <path
         d="M 0,561 H 1600 V 0 H 0 Z"
         id="path40" />
    </clipPath>
    <clipPath
       clipPathUnits="userSpaceOnUse"
       id="clipPath42">
      <path
         d="M 0,561 H 1600 V 0 H 0 Z"
         id="path42" />
    </clipPath>
    <clipPath
       clipPathUnits="userSpaceOnUse"
       id="clipPath44">
      <path
         d="M 0,561 H 1600 V 0 H 0 Z"
         id="path44" />
    </clipPath>
    <clipPath
       clipPathUnits="userSpaceOnUse"
       id="clipPath46">
      <path
         d="M 0,561 H 1600 V 0 H 0 Z"
         id="path46" />
    </clipPath>
    <clipPath
       clipPathUnits="userSpaceOnUse"
       id="clipPath47">
      <path
         d="M 0,561 H 1600 V 0 H 0 Z"
         transform="matrix(0.1,0,0,-0.1,-76.878099,48.970301)"
         id="path47" />
    </clipPath>
    <clipPath
       clipPathUnits="userSpaceOnUse"
       id="clipPath49">
      <path
         d="M 0,561 H 1600 V 0 H 0 Z"
         id="path49" />
    </clipPath>
  </defs>
  <sodipodi:namedview
     id="namedview1"
     pagecolor="#ffffff"
     bordercolor="#000000"
     borderopacity="0.25"
     inkscape:showpageshadow="2"
     inkscape:pageopacity="0.0"
     inkscape:pagecheckerboard="0"
     inkscape:deskcolor="#d1d1d1"
     inkscape:zoom="4.355336"
     inkscape:cx="137.76205"
     inkscape:cy="12.398584"
     inkscape:window-width="1920"
     inkscape:window-height="974"
     inkscape:window-x="-11"
     inkscape:window-y="-11"
     inkscape:window-maximized="1"
     inkscape:current-layer="g1">
    <inkscape:page
       x="0"
       y="0"
       inkscape:label="1"
       id="page1"
       width="213.33333"
       height="76"
       margin="0"
       bleed="0" />
  </sodipodi:namedview>
  <g
     id="g1"
     inkscape:groupmode="layer"
     inkscape:label="1">
    <path
       id="path1"
       d="M 0.0390625,92.7852 H 283.48"
       style="fill:none;stroke:#000000;stroke-width:7.9937;stroke-linecap:butt;stroke-linejoin:miter;stroke-miterlimit:4;stroke-dasharray:none;stroke-opacity:1"
       transform="matrix(0.13333333,0,0,-0.13333333,0,76)"
       clip-path="url(#clipPath2)" />
    <path
       id="path3"
       d="M 241.68,112.16 294.059,92.8711 241.68,73.6094 c 8.359,11.3711 8.32,26.9496 0,38.5506 z"
       style="fill:#000000;fill-opacity:1;fill-rule:evenodd;stroke:none"
       transform="matrix(0.13333333,0,0,-0.13333333,0,76)"
       clip-path="url(#clipPath4)" />
    <path
       id="path6"
       d="m 226.801,376.266 h 1360.63 v 56.6797 H 226.801 Z"
       style="fill:none;stroke:#000000;stroke-width:7.9937;stroke-linecap:butt;stroke-linejoin:miter;stroke-miterlimit:4;stroke-dasharray:none;stroke-opacity:1"
       transform="matrix(0.13333333,0,0,-0.13333333,0,76)"
       clip-path="url(#clipPath7)" />
    <path
       id="path8"
       d="M 218.398,342.277 H 390.23"
       style="fill:none;stroke:#000000;stroke-width:7.9937;stroke-linecap:butt;stroke-linejoin:miter;stroke-miterlimit:4;stroke-dasharray:none;stroke-opacity:1"
       transform="matrix(0.13333333,0,0,-0.13333333,0,76)"
       clip-path="url(#clipPath9)" />
    <path
       id="path10"
       d="m 348.398,361.621 52.422,-19.262 -52.422,-19.257 c 8.364,11.367 8.321,26.918 0,38.519 z"
       style="fill:#000000;fill-opacity:1;fill-rule:evenodd;stroke:none"
       transform="matrix(0.13333333,0,0,-0.13333333,0,76)"
       clip-path="url(#clipPath11)" />
    <path
       id="path13"
       d="m 427.621,354.629 h 67.5"
       style="fill:none;stroke:#000000;stroke-width:2.83465;stroke-linecap:butt;stroke-linejoin:miter;stroke-miterlimit:4;stroke-dasharray:none;stroke-opacity:1"
       transform="matrix(0.10514982,0,0,-0.13333333,10.113459,76.568239)"
       clip-path="url(#clipPath14)" />
    <path
       id="path15"
       d="M 251.02,406.578 H 360.078"
       style="fill:none;stroke:#000000;stroke-width:5.66929;stroke-linecap:butt;stroke-linejoin:miter;stroke-miterlimit:4;stroke-dasharray:none;stroke-opacity:1"
       transform="matrix(0.13333333,0,0,-0.13333333,1.3776205,76.459207)"
       clip-path="url(#clipPath16)" />
    <path
       id="path17"
       d="m 330.43,420.289 37.148,-13.668 -37.148,-13.672 c 5.941,8.082 5.898,19.102 0,27.34 z"
       style="fill:#000000;fill-opacity:1;fill-rule:evenodd;stroke:none"
       transform="matrix(0.13333333,0,0,-0.13333333,1.3776205,76.459207)"
       clip-path="url(#clipPath18)" />
    <path
       id="path19"
       d="M 422.109,404.629 H 531.172"
       style="fill:none;stroke:#000000;stroke-width:5.66929;stroke-linecap:butt;stroke-linejoin:miter;stroke-miterlimit:4;stroke-dasharray:none;stroke-opacity:1"
       transform="matrix(0.13333333,0,0,-0.13333333,1.1480171,76.229603)"
       clip-path="url(#clipPath20)" />
    <path
       id="path21"
       d="m 501.52,418.34 37.152,-13.68 -37.152,-13.672 c 5.941,8.09 5.902,19.141 0,27.352 z"
       style="fill:#000000;fill-opacity:1;fill-rule:evenodd;stroke:none"
       transform="matrix(0.13333333,0,0,-0.13333333,1.1480171,76.229603)"
       clip-path="url(#clipPath22)" />
    <path
       id="path23"
       d="M 572.969,403.926 H 682.621"
       style="fill:none;stroke:#000000;stroke-width:5.04919;stroke-linecap:butt;stroke-linejoin:miter;stroke-miterlimit:4;stroke-dasharray:none;stroke-opacity:1"
       transform="matrix(0.13333333,0,0,-0.13333333,4.1328614,76.229603)"
       clip-path="url(#clipPath24)" />
    <path
       id="path25"
       d="m 656.211,416.148 33.09,-12.187 -33.09,-12.152 c 5.269,7.191 5.238,17 0,24.339 z"
       style="fill:#000000;fill-opacity:1;fill-rule:evenodd;stroke:none"
       transform="matrix(0.13333333,0,0,-0.13333333,4.1328614,76.229603)"
       clip-path="url(#clipPath26)" />
    <path
       id="path27"
       d="m 729.059,401.309 h 109.07"
       style="fill:none;stroke:#000000;stroke-width:5.66929;stroke-linecap:butt;stroke-linejoin:miter;stroke-miterlimit:4;stroke-dasharray:none;stroke-opacity:1"
       transform="matrix(0.13333333,0,0,-0.13333333,6.1992922,76)"
       clip-path="url(#clipPath28)" />
    <path
       id="path29"
       d="m 808.48,415.02 37.149,-13.641 -37.149,-13.668 c 5.93,8.051 5.899,19.098 0,27.309 z"
       style="fill:#000000;fill-opacity:1;fill-rule:evenodd;stroke:none"
       transform="matrix(0.13333333,0,0,-0.13333333,6.1992922,76)"
       clip-path="url(#clipPath30)" />
    <path
       id="path31"
       d="M 890.039,401.309 H 999.102"
       style="fill:none;stroke:#000000;stroke-width:5.66929;stroke-linecap:butt;stroke-linejoin:miter;stroke-miterlimit:4;stroke-dasharray:none;stroke-opacity:1"
       transform="matrix(0.13333333,0,0,-0.13333333,6.8881024,75.770396)"
       clip-path="url(#clipPath32)" />
    <path
       id="path33"
       d="m 969.449,415.02 37.191,-13.641 -37.191,-13.668 c 5.942,8.051 5.903,19.098 0,27.309 z"
       style="fill:#000000;fill-opacity:1;fill-rule:evenodd;stroke:none"
       transform="matrix(0.13333333,0,0,-0.13333333,6.8881024,75.770396)"
       clip-path="url(#clipPath34)" />
    <path
       id="path35"
       d="m 1040.66,401.309 h 109.07"
       style="fill:none;stroke:#000000;stroke-width:5.66929;stroke-linecap:butt;stroke-linejoin:miter;stroke-miterlimit:4;stroke-dasharray:none;stroke-opacity:1"
       transform="matrix(0.13333333,0,0,-0.13333333,9.8729464,76)"
       clip-path="url(#clipPath36)" />
    <path
       id="path37"
       d="m 1120.08,415.02 37.15,-13.641 -37.15,-13.668 c 5.94,8.051 5.9,19.098 0,27.309 z"
       style="fill:#000000;fill-opacity:1;fill-rule:evenodd;stroke:none"
       transform="matrix(0.13333333,0,0,-0.13333333,9.8729464,76)"
       clip-path="url(#clipPath38)" />
    <path
       id="path39"
       d="M 1201.64,401.309 H 1310.7"
       style="fill:none;stroke:#000000;stroke-width:5.66929;stroke-linecap:butt;stroke-linejoin:miter;stroke-miterlimit:4;stroke-dasharray:none;stroke-opacity:1"
       transform="matrix(0.13333333,0,0,-0.13333333,10.10255,76)"
       clip-path="url(#clipPath40)" />
    <path
       id="path41"
       d="m 1281.05,415.02 37.15,-13.641 -37.15,-13.668 c 5.94,8.051 5.9,19.098 0,27.309 z"
       style="fill:#000000;fill-opacity:1;fill-rule:evenodd;stroke:none"
       transform="matrix(0.13333333,0,0,-0.13333333,10.10255,76)"
       clip-path="url(#clipPath42)" />
    <path
       id="path43"
       d="m 1378.2,406.496 h 109.07"
       style="fill:none;stroke:#000000;stroke-width:5.66929;stroke-linecap:butt;stroke-linejoin:miter;stroke-miterlimit:4;stroke-dasharray:none;stroke-opacity:1"
       transform="matrix(0.13333333,0,0,-0.13333333,8.7249297,76.229603)"
       clip-path="url(#clipPath44)" />
    <path
       id="path45"
       d="m 1457.62,420.211 37.18,-13.633 -37.18,-13.668 c 5.93,8.039 5.9,19.102 0,27.301 z"
       style="fill:#000000;fill-opacity:1;fill-rule:evenodd;stroke:none"
       transform="matrix(0.13333333,0,0,-0.13333333,8.7249297,76.229603)"
       clip-path="url(#clipPath46)" />
    <path
       id="path48"
       d="m 858.629,515.605 h 41.57"
       style="fill:none;stroke:#000000;stroke-width:2.83465;stroke-linecap:butt;stroke-linejoin:miter;stroke-miterlimit:4;stroke-dasharray:none;stroke-opacity:1"
       transform="matrix(0.10599441,0,0,-0.13333333,23.47399,76)"
       clip-path="url(#clipPath49)" />
    <text
       xml:space="preserve"
       style="font-style:italic;font-variant:normal;font-weight:normal;font-stretch:normal;font-size:16px;font-family:'Times New Roman';-inkscape-font-specification:'Times New Roman, Italic';font-variant-ligatures:normal;font-variant-caps:normal;font-variant-numeric:normal;font-variant-east-asian:normal;fill:#000000"
       x="33.458492"
       y="74.72683"
       id="text3"><tspan
         sodipodi:role="line"
         id="tspan3"
         x="33.458492"
         y="74.72683">x</tspan></text>
    <text
       xml:space="preserve"
       style="font-style:italic;font-variant:normal;font-weight:normal;font-stretch:normal;font-size:16px;font-family:'Times New Roman';-inkscape-font-specification:'Times New Roman, Italic';font-variant-ligatures:normal;font-variant-caps:normal;font-variant-numeric:normal;font-variant-east-asian:normal;fill:#000000"
       x="55.738556"
       y="37.765392"
       id="text3-4"><tspan
         sodipodi:role="line"
         id="tspan3-2"
         x="55.738556"
         y="37.765392">x</tspan></text>
    <text
       xml:space="preserve"
       style="font-style:italic;font-variant:normal;font-weight:normal;font-stretch:normal;font-size:12px;font-family:'Times New Roman';-inkscape-font-specification:'Times New Roman, Italic';font-variant-ligatures:normal;font-variant-caps:normal;font-variant-numeric:normal;font-variant-east-asian:normal;fill:#000000"
       x="106.44868"
       y="10.103827"
       id="text2"><tspan
         sodipodi:role="line"
         id="tspan2"
         x="106.44868"
         y="10.103827"
         style="font-style:italic;font-variant:normal;font-weight:normal;font-stretch:normal;font-size:16px;font-family:'Times New Roman';-inkscape-font-specification:'Times New Roman, Italic';font-variant-ligatures:normal;font-variant-caps:normal;font-variant-numeric:normal;font-variant-east-asian:normal">q<tspan
   style="font-size:65%;baseline-shift:sub"
   id="tspan1">x</tspan></tspan></text>
  </g>
</svg>
