<?xml version="1.0" encoding="UTF-8" standalone="no"?>
<!-- Created with Inkscape (http://www.inkscape.org/) -->

<svg
   version="1.1"
   id="svg1"
   width="284.74667"
   height="232.53333"
   viewBox="0 0 284.74667 232.53333"
   sodipodi:docname="beam2loa.svg"
   inkscape:version="1.3 (0e150ed6c4, 2023-07-21)"
   xmlns:inkscape="http://www.inkscape.org/namespaces/inkscape"
   xmlns:sodipodi="http://sodipodi.sourceforge.net/DTD/sodipodi-0.dtd"
   xmlns="http://www.w3.org/2000/svg"
   xmlns:svg="http://www.w3.org/2000/svg">
  <defs
     id="defs1" />
  <sodipodi:namedview
     id="namedview1"
     pagecolor="#ffffff"
     bordercolor="#000000"
     borderopacity="0.25"
     inkscape:showpageshadow="2"
     inkscape:pageopacity="0.0"
     inkscape:pagecheckerboard="0"
     inkscape:deskcolor="#d1d1d1"
     inkscape:zoom="2.2624175"
     inkscape:cx="88.84302"
     inkscape:cy="135.69556"
     inkscape:window-width="1920"
     inkscape:window-height="974"
     inkscape:window-x="-11"
     inkscape:window-y="-11"
     inkscape:window-maximized="1"
     inkscape:current-layer="g1">
    <inkscape:page
       x="0"
       y="0"
       inkscape:label="1"
       id="page1"
       width="284.74667"
       height="232.53333"
       margin="0"
       bleed="0" />
  </sodipodi:namedview>
  <g
     id="g1"
     inkscape:groupmode="layer"
     inkscape:label="1">
    <path
       id="path1"
       d="m 607.25,615.25 1414,850 37,-61 -1415,-851 z"
       style="fill:none;stroke:#231f20;stroke-width:5;stroke-linecap:butt;stroke-linejoin:miter;stroke-miterlimit:3.8637;stroke-dasharray:none;stroke-opacity:1"
       transform="matrix(0.13333333,0,0,-0.13333333,0,232.53333)" />
    <path
       id="path3"
       d="m 161.25,889.25 v -714"
       style="fill:none;stroke:#231f20;stroke-width:2.5;stroke-linecap:butt;stroke-linejoin:miter;stroke-miterlimit:3.8637;stroke-dasharray:none;stroke-opacity:1"
       transform="matrix(0.13333333,0,0,-0.13333333,0,232.53333)" />
    <path
       id="path4"
       d="m 161.25,886.25 h -15 l 15,38 15,-38 h -15"
       style="fill:#231f20;fill-opacity:1;fill-rule:evenodd;stroke:none"
       transform="matrix(0.13333333,0,0,-0.13333333,0,232.53333)" />
    <path
       id="path5"
       d="m 161.25,175.25 h 714"
       style="fill:none;stroke:#231f20;stroke-width:2.5;stroke-linecap:butt;stroke-linejoin:miter;stroke-miterlimit:3.8637;stroke-dasharray:none;stroke-opacity:1"
       transform="matrix(0.13333333,0,0,-0.13333333,0,232.53333)" />
    <path
       id="path6"
       d="m 872.25,175.25 v 15 l 38,-15 -38,-15 v 15"
       style="fill:#231f20;fill-opacity:1;fill-rule:evenodd;stroke:none"
       transform="matrix(0.13333333,0,0,-0.13333333,0,232.53333)" />
    <path
       id="path7"
       d="m 1997.25,1487.25 -1393,-844"
       style="fill:none;stroke:#231f20;stroke-width:2.5;stroke-linecap:butt;stroke-linejoin:miter;stroke-miterlimit:3.8637;stroke-dasharray:none;stroke-opacity:1"
       transform="matrix(0.13333333,0,0,-0.13333333,0,232.53333)" />
    <path
       id="path9"
       d="m 2023.25,1648.25 h 41"
       style="fill:none;stroke:#231f20;stroke-width:5;stroke-linecap:butt;stroke-linejoin:miter;stroke-miterlimit:3.8637;stroke-dasharray:none;stroke-opacity:1"
       transform="matrix(0.13333333,0,0,-0.13333333,0,232.53333)" />
    <path
       id="path10"
       d="m 194.3301,102.63333 h 4.66237"
       style="fill:none;stroke:#231f20;stroke-width:0.6083;stroke-linecap:butt;stroke-linejoin:miter;stroke-miterlimit:3.8637;stroke-dasharray:none;stroke-opacity:1" />
    <path
       id="path11"
       d="m 604.25,643.25 -130,215"
       style="fill:none;stroke:#231f20;stroke-width:2.835;stroke-linecap:butt;stroke-linejoin:miter;stroke-miterlimit:3.8637;stroke-dasharray:none;stroke-opacity:1"
       transform="matrix(0.13333333,0,0,-0.13333333,0,232.53333)" />
    <path
       id="path12"
       d="m 474.25,858.25 -8,-18 -9,47 38,-30 -21,1"
       style="fill:#231f20;fill-opacity:1;fill-rule:evenodd;stroke:none"
       transform="matrix(0.13333333,0,0,-0.13333333,0,232.53333)" />
    <path
       id="path13"
       d="m 743.25,727.25 -129,215"
       style="fill:none;stroke:#231f20;stroke-width:2.835;stroke-linecap:butt;stroke-linejoin:miter;stroke-miterlimit:3.8637;stroke-dasharray:none;stroke-opacity:1"
       transform="matrix(0.13333333,0,0,-0.13333333,0,232.53333)" />
    <path
       id="path14"
       d="m 614.25,942.25 -9,-18 -9,48 38,-30 h -20"
       style="fill:#231f20;fill-opacity:1;fill-rule:evenodd;stroke:none"
       transform="matrix(0.13333333,0,0,-0.13333333,0,232.53333)" />
    <path
       id="path15"
       d="m 882.25,812.25 -129,215"
       style="fill:none;stroke:#231f20;stroke-width:2.835;stroke-linecap:butt;stroke-linejoin:miter;stroke-miterlimit:3.8637;stroke-dasharray:none;stroke-opacity:1"
       transform="matrix(0.13333333,0,0,-0.13333333,0,232.53333)" />
    <path
       id="path16"
       d="m 753.25,1027.25 -9,-19 -8,48 38,-30 -21,1"
       style="fill:#231f20;fill-opacity:1;fill-rule:evenodd;stroke:none"
       transform="matrix(0.13333333,0,0,-0.13333333,0,232.53333)" />
    <path
       id="path17"
       d="m 1022.25,896.25 -129,215"
       style="fill:none;stroke:#231f20;stroke-width:2.835;stroke-linecap:butt;stroke-linejoin:miter;stroke-miterlimit:3.8637;stroke-dasharray:none;stroke-opacity:1"
       transform="matrix(0.13333333,0,0,-0.13333333,0,232.53333)" />
    <path
       id="path18"
       d="m 893.25,1111.25 -9,-18 -9,47 38,-30 -20,1"
       style="fill:#231f20;fill-opacity:1;fill-rule:evenodd;stroke:none"
       transform="matrix(0.13333333,0,0,-0.13333333,0,232.53333)" />
    <path
       id="path19"
       d="m 1161.25,980.25 -129,216"
       style="fill:none;stroke:#231f20;stroke-width:2.835;stroke-linecap:butt;stroke-linejoin:miter;stroke-miterlimit:3.8637;stroke-dasharray:none;stroke-opacity:1"
       transform="matrix(0.13333333,0,0,-0.13333333,0,232.53333)" />
    <path
       id="path20"
       d="m 1032.25,1196.25 -9,-19 -9,48 38,-30 -20,1"
       style="fill:#231f20;fill-opacity:1;fill-rule:evenodd;stroke:none"
       transform="matrix(0.13333333,0,0,-0.13333333,0,232.53333)" />
    <path
       id="path21"
       d="m 1301.25,1065.25 -130,215"
       style="fill:none;stroke:#231f20;stroke-width:2.835;stroke-linecap:butt;stroke-linejoin:miter;stroke-miterlimit:3.8637;stroke-dasharray:none;stroke-opacity:1"
       transform="matrix(0.13333333,0,0,-0.13333333,0,232.53333)" />
    <path
       id="path22"
       d="m 1171.25,1280.25 -8,-19 -9,48 38,-30 -21,1"
       style="fill:#231f20;fill-opacity:1;fill-rule:evenodd;stroke:none"
       transform="matrix(0.13333333,0,0,-0.13333333,0,232.53333)" />
    <path
       id="path23"
       d="m 1440.25,1149.25 -129,215"
       style="fill:none;stroke:#231f20;stroke-width:2.835;stroke-linecap:butt;stroke-linejoin:miter;stroke-miterlimit:3.8637;stroke-dasharray:none;stroke-opacity:1"
       transform="matrix(0.13333333,0,0,-0.13333333,0,232.53333)" />
    <path
       id="path24"
       d="m 1311.25,1364.25 -9,-18 -9,47 38,-30 -20,1"
       style="fill:#231f20;fill-opacity:1;fill-rule:evenodd;stroke:none"
       transform="matrix(0.13333333,0,0,-0.13333333,0,232.53333)" />
    <path
       id="path25"
       d="m 1579.25,1233.25 -129,216"
       style="fill:none;stroke:#231f20;stroke-width:2.835;stroke-linecap:butt;stroke-linejoin:miter;stroke-miterlimit:3.8637;stroke-dasharray:none;stroke-opacity:1"
       transform="matrix(0.13333333,0,0,-0.13333333,0,232.53333)" />
    <path
       id="path26"
       d="m 1450.25,1449.25 -9,-19 -8,48 38,-30 -21,1"
       style="fill:#231f20;fill-opacity:1;fill-rule:evenodd;stroke:none"
       transform="matrix(0.13333333,0,0,-0.13333333,0,232.53333)" />
    <path
       id="path27"
       d="m 1719.25,1318.25 -129,215"
       style="fill:none;stroke:#231f20;stroke-width:2.835;stroke-linecap:butt;stroke-linejoin:miter;stroke-miterlimit:3.8637;stroke-dasharray:none;stroke-opacity:1"
       transform="matrix(0.13333333,0,0,-0.13333333,0,232.53333)" />
    <path
       id="path28"
       d="m 1590.25,1533.25 -9,-19 -9,48 38,-30 -20,1"
       style="fill:#231f20;fill-opacity:1;fill-rule:evenodd;stroke:none"
       transform="matrix(0.13333333,0,0,-0.13333333,0,232.53333)" />
    <path
       id="path29"
       d="m 1858.25,1402.25 -129,215"
       style="fill:none;stroke:#231f20;stroke-width:2.835;stroke-linecap:butt;stroke-linejoin:miter;stroke-miterlimit:3.8637;stroke-dasharray:none;stroke-opacity:1"
       transform="matrix(0.13333333,0,0,-0.13333333,0,232.53333)" />
    <path
       id="path30"
       d="m 1729.25,1617.25 -9,-18 -9,47 38,-30 -20,1"
       style="fill:#231f20;fill-opacity:1;fill-rule:evenodd;stroke:none"
       transform="matrix(0.13333333,0,0,-0.13333333,0,232.53333)" />
    <path
       id="path31"
       d="m 1998.25,1487.25 -130,215"
       style="fill:none;stroke:#231f20;stroke-width:2.835;stroke-linecap:butt;stroke-linejoin:miter;stroke-miterlimit:3.8637;stroke-dasharray:none;stroke-opacity:1"
       transform="matrix(0.13333333,0,0,-0.13333333,0,232.53333)" />
    <path
       id="path32"
       d="m 1868.25,1702.25 -8,-19 -9,48 38,-30 -21,1"
       style="fill:#231f20;fill-opacity:1;fill-rule:evenodd;stroke:none"
       transform="matrix(0.13333333,0,0,-0.13333333,0,232.53333)" />
    <path
       id="path33"
       d="m 926.25,765.25 106,64"
       style="fill:none;stroke:#231f20;stroke-width:2.835;stroke-linecap:butt;stroke-linejoin:miter;stroke-miterlimit:3.8637;stroke-dasharray:none;stroke-opacity:1"
       transform="matrix(0.13333333,0,0,-0.13333333,0,232.53333)" />
    <path
       id="path34"
       d="m 1032.25,829.25 -19,9 48,8 -30,-38 1,21"
       style="fill:#231f20;fill-opacity:1;fill-rule:evenodd;stroke:none"
       transform="matrix(0.13333333,0,0,-0.13333333,0,232.53333)" />
    <path
       id="path35"
       d="m 787.25,681.25 105,63"
       style="fill:none;stroke:#231f20;stroke-width:2.835;stroke-linecap:butt;stroke-linejoin:miter;stroke-miterlimit:3.8637;stroke-dasharray:none;stroke-opacity:1"
       transform="matrix(0.13333333,0,0,-0.13333333,0,232.53333)" />
    <path
       id="path36"
       d="m 892.25,744.25 -18,9 48,8 -31,-38 1,21"
       style="fill:#231f20;fill-opacity:1;fill-rule:evenodd;stroke:none"
       transform="matrix(0.13333333,0,0,-0.13333333,0,232.53333)" />
    <path
       id="path37"
       d="m 645.25,596.25 106,64"
       style="fill:none;stroke:#231f20;stroke-width:2.835;stroke-linecap:butt;stroke-linejoin:miter;stroke-miterlimit:3.8637;stroke-dasharray:none;stroke-opacity:1"
       transform="matrix(0.13333333,0,0,-0.13333333,0,232.53333)" />
    <path
       id="path38"
       d="m 751.25,660.25 -19,8 48,9 -30,-38 1,21"
       style="fill:#231f20;fill-opacity:1;fill-rule:evenodd;stroke:none"
       transform="matrix(0.13333333,0,0,-0.13333333,0,232.53333)" />
    <path
       id="path39"
       d="m 1205.25,933.25 105,64"
       style="fill:none;stroke:#231f20;stroke-width:2.835;stroke-linecap:butt;stroke-linejoin:miter;stroke-miterlimit:3.8637;stroke-dasharray:none;stroke-opacity:1"
       transform="matrix(0.13333333,0,0,-0.13333333,0,232.53333)" />
    <path
       id="path40"
       d="m 1310.25,997.25 -19,8 48,9 -30,-38 1,21"
       style="fill:#231f20;fill-opacity:1;fill-rule:evenodd;stroke:none"
       transform="matrix(0.13333333,0,0,-0.13333333,0,232.53333)" />
    <path
       id="path41"
       d="m 1064.25,848.25 106,63"
       style="fill:none;stroke:#231f20;stroke-width:2.835;stroke-linecap:butt;stroke-linejoin:miter;stroke-miterlimit:3.8637;stroke-dasharray:none;stroke-opacity:1"
       transform="matrix(0.13333333,0,0,-0.13333333,0,232.53333)" />
    <path
       id="path42"
       d="m 1170.25,911.25 -19,9 48,9 -30,-38 1,20"
       style="fill:#231f20;fill-opacity:1;fill-rule:evenodd;stroke:none"
       transform="matrix(0.13333333,0,0,-0.13333333,0,232.53333)" />
    <path
       id="path43"
       d="m 1625.25,1185.25 104,62"
       style="fill:none;stroke:#231f20;stroke-width:2.835;stroke-linecap:butt;stroke-linejoin:miter;stroke-miterlimit:3.8637;stroke-dasharray:none;stroke-opacity:1"
       transform="matrix(0.13333333,0,0,-0.13333333,0,232.53333)" />
    <path
       id="path44"
       d="m 1729.25,1247.25 -19,9 48,9 -30,-38 1,20"
       style="fill:#231f20;fill-opacity:1;fill-rule:evenodd;stroke:none"
       transform="matrix(0.13333333,0,0,-0.13333333,0,232.53333)" />
    <path
       id="path45"
       d="m 1487.25,1101.25 104,62"
       style="fill:none;stroke:#231f20;stroke-width:2.835;stroke-linecap:butt;stroke-linejoin:miter;stroke-miterlimit:3.8637;stroke-dasharray:none;stroke-opacity:1"
       transform="matrix(0.13333333,0,0,-0.13333333,0,232.53333)" />
    <path
       id="path46"
       d="m 1591.25,1163.25 -18,9 48,9 -31,-38 1,20"
       style="fill:#231f20;fill-opacity:1;fill-rule:evenodd;stroke:none"
       transform="matrix(0.13333333,0,0,-0.13333333,0,232.53333)" />
    <path
       id="path47"
       d="m 1347.25,1018.25 104,62"
       style="fill:none;stroke:#231f20;stroke-width:2.835;stroke-linecap:butt;stroke-linejoin:miter;stroke-miterlimit:3.8637;stroke-dasharray:none;stroke-opacity:1"
       transform="matrix(0.13333333,0,0,-0.13333333,0,232.53333)" />
    <path
       id="path48"
       d="m 1451.25,1080.25 -18,9 48,9 -31,-38 1,20"
       style="fill:#231f20;fill-opacity:1;fill-rule:evenodd;stroke:none"
       transform="matrix(0.13333333,0,0,-0.13333333,0,232.53333)" />
    <path
       id="path49"
       d="m 1900.25,1350.25 104,63"
       style="fill:none;stroke:#231f20;stroke-width:2.835;stroke-linecap:butt;stroke-linejoin:miter;stroke-miterlimit:3.8637;stroke-dasharray:none;stroke-opacity:1"
       transform="matrix(0.13333333,0,0,-0.13333333,0,232.53333)" />
    <path
       id="path50"
       d="m 2004.25,1413.25 -19,9 48,8 -30,-38 1,21"
       style="fill:#231f20;fill-opacity:1;fill-rule:evenodd;stroke:none"
       transform="matrix(0.13333333,0,0,-0.13333333,0,232.53333)" />
    <path
       id="path51"
       d="m 1761.25,1266.25 104,62"
       style="fill:none;stroke:#231f20;stroke-width:2.835;stroke-linecap:butt;stroke-linejoin:miter;stroke-miterlimit:3.8637;stroke-dasharray:none;stroke-opacity:1"
       transform="matrix(0.13333333,0,0,-0.13333333,0,232.53333)" />
    <path
       id="path52"
       d="m 1865.25,1328.25 -18,9 47,9 -30,-38 1,20"
       style="fill:#231f20;fill-opacity:1;fill-rule:evenodd;stroke:none"
       transform="matrix(0.13333333,0,0,-0.13333333,0,232.53333)" />
    <text
       xml:space="preserve"
       style="font-style:italic;font-variant:normal;font-weight:normal;font-stretch:normal;font-size:16px;font-family:'Times New Roman';-inkscape-font-specification:'Times New Roman, Italic';font-variant-ligatures:normal;font-variant-caps:normal;font-variant-numeric:normal;font-variant-east-asian:normal;fill:#000000"
       x="112.35724"
       y="222.2068"
       id="text3"><tspan
         sodipodi:role="line"
         id="tspan3"
         x="112.35724"
         y="222.2068">x</tspan></text>
    <text
       xml:space="preserve"
       style="font-style:italic;font-variant:normal;font-weight:normal;font-stretch:normal;font-size:16px;font-family:'Times New Roman';-inkscape-font-specification:'Times New Roman, Italic';font-variant-ligatures:normal;font-variant-caps:normal;font-variant-numeric:normal;font-variant-east-asian:normal;fill:#000000"
       x="11.270502"
       y="117.32765"
       id="text4"><tspan
         sodipodi:role="line"
         id="tspan4"
         x="11.270502"
         y="117.32765">y</tspan></text>
    <path
       id="path9-6"
       d="M 116.78834,146.54873 H 123.455"
       style="fill:none;stroke:#231f20;stroke-width:0.333333;stroke-linecap:butt;stroke-linejoin:miter;stroke-miterlimit:3.8637;stroke-dasharray:none;stroke-opacity:1" />
    <path
       id="path10-5"
       d="M 82.893001,164.85412 119.95966,142.58745"
       style="fill:none;stroke:#231f20;stroke-width:0.333333;stroke-linecap:butt;stroke-linejoin:miter;stroke-miterlimit:3.8637;stroke-dasharray:none;stroke-opacity:1" />
    <path
       id="path11-3"
       d="m 119.55966,142.85412 -0.93333,-1.73334 5.33333,-0.93333 -3.33333,4.4 -1.06667,-1.73333"
       style="fill:#231f20;fill-opacity:1;fill-rule:evenodd;stroke:none;stroke-width:0.133333" />
    <text
       xml:space="preserve"
       style="font-style:italic;font-variant:normal;font-weight:normal;font-stretch:normal;font-size:16px;font-family:'Times New Roman';-inkscape-font-specification:'Times New Roman, Italic';font-variant-ligatures:normal;font-variant-caps:normal;font-variant-numeric:normal;font-variant-east-asian:normal;fill:#000000"
       x="116.77113"
       y="156.14687"
       id="text3-8"><tspan
         sodipodi:role="line"
         id="tspan3-0"
         x="116.77113"
         y="156.14687">x</tspan></text>
    <path
       id="path10-5-9"
       d="M 83.265385,164.39912 60.998715,127.33247"
       style="fill:none;stroke:#231f20;stroke-width:0.333333;stroke-linecap:butt;stroke-linejoin:miter;stroke-miterlimit:3.8637;stroke-dasharray:none;stroke-opacity:1" />
    <path
       id="path11-3-9"
       d="m 61.265385,127.73247 -1.73334,0.93333 -0.93333,-5.33333 4.4,3.33333 -1.73333,1.06667"
       style="fill:#231f20;fill-opacity:1;fill-rule:evenodd;stroke:none;stroke-width:0.133333" />
    <path
       id="path9-6-0"
       d="m 50.416272,126.35663 h 6.66666"
       style="fill:none;stroke:#231f20;stroke-width:0.333333;stroke-linecap:butt;stroke-linejoin:miter;stroke-miterlimit:3.8637;stroke-dasharray:none;stroke-opacity:1" />
    <text
       xml:space="preserve"
       style="font-style:italic;font-variant:normal;font-weight:normal;font-stretch:normal;font-size:16px;font-family:'Times New Roman';-inkscape-font-specification:'Times New Roman, Italic';font-variant-ligatures:normal;font-variant-caps:normal;font-variant-numeric:normal;font-variant-east-asian:normal;fill:#000000"
       x="50.399063"
       y="135.95477"
       id="text3-8-2"><tspan
         sodipodi:role="line"
         id="tspan3-0-3"
         x="50.399063"
         y="135.95477">y</tspan></text>
    <text
       xml:space="preserve"
       style="font-style:italic;font-variant:normal;font-weight:normal;font-stretch:normal;font-size:12px;font-family:'Times New Roman';-inkscape-font-specification:'Times New Roman, Italic';font-variant-ligatures:normal;font-variant-caps:normal;font-variant-numeric:normal;font-variant-east-asian:normal;fill:#000000"
       x="261.72873"
       y="17.119064"
       id="text2"><tspan
         sodipodi:role="line"
         id="tspan2"
         x="261.72873"
         y="17.119064"
         style="font-style:italic;font-variant:normal;font-weight:normal;font-stretch:normal;font-size:16px;font-family:'Times New Roman';-inkscape-font-specification:'Times New Roman, Italic';font-variant-ligatures:normal;font-variant-caps:normal;font-variant-numeric:normal;font-variant-east-asian:normal">q<tspan
   style="font-size:65%;baseline-shift:sub"
   id="tspan1">y</tspan></tspan></text>
    <text
       xml:space="preserve"
       style="font-style:italic;font-variant:normal;font-weight:normal;font-stretch:normal;font-size:12px;font-family:'Times New Roman';-inkscape-font-specification:'Times New Roman, Italic';font-variant-ligatures:normal;font-variant-caps:normal;font-variant-numeric:normal;font-variant-east-asian:normal;fill:#000000"
       x="186.09288"
       y="105.56924"
       id="text2-5"><tspan
         sodipodi:role="line"
         id="tspan2-4"
         x="186.09288"
         y="105.56924"
         style="font-style:italic;font-variant:normal;font-weight:normal;font-stretch:normal;font-size:16px;font-family:'Times New Roman';-inkscape-font-specification:'Times New Roman, Italic';font-variant-ligatures:normal;font-variant-caps:normal;font-variant-numeric:normal;font-variant-east-asian:normal">q<tspan
   style="font-size:65%;baseline-shift:sub"
   id="tspan1-3">x</tspan></tspan></text>
  </g>
</svg>
