<?xml version="1.0" encoding="UTF-8" standalone="no"?>
<!-- Created with Inkscape (http://www.inkscape.org/) -->

<svg
   version="1.1"
   id="svg1"
   width="321.33334"
   height="145.33333"
   viewBox="0 0 321.33334 145.33333"
   sodipodi:docname="beam1e_2.svg"
   inkscape:version="1.3 (0e150ed6c4, 2023-07-21)"
   xmlns:inkscape="http://www.inkscape.org/namespaces/inkscape"
   xmlns:sodipodi="http://sodipodi.sourceforge.net/DTD/sodipodi-0.dtd"
   xmlns="http://www.w3.org/2000/svg"
   xmlns:svg="http://www.w3.org/2000/svg">
  <defs
     id="defs1">
    <clipPath
       clipPathUnits="userSpaceOnUse"
       id="clipPath2">
      <path
         d="M 0,15 V 1086 H 2400 V 15 Z"
         transform="translate(0,-2.5000001e-5)"
         id="path2" />
    </clipPath>
    <clipPath
       clipPathUnits="userSpaceOnUse"
       id="clipPath3">
      <path
         d="M 0,15 V 1086 H 2400 V 15 Z"
         transform="matrix(0.1,0,0,-0.1,-80.8609,1.1406325)"
         id="path3" />
    </clipPath>
    <clipPath
       clipPathUnits="userSpaceOnUse"
       id="clipPath5">
      <path
         d="M 0,15 V 1086 H 2400 V 15 Z"
         transform="translate(0,-2.5000001e-5)"
         id="path5" />
    </clipPath>
    <clipPath
       clipPathUnits="userSpaceOnUse"
       id="clipPath7">
      <path
         d="M 0,15 V 1086 H 2400 V 15 Z"
         transform="translate(0,-2.5000001e-5)"
         id="path7" />
    </clipPath>
    <clipPath
       clipPathUnits="userSpaceOnUse"
       id="clipPath9">
      <path
         d="M 0,15 V 1086 H 2400 V 15 Z"
         transform="translate(0,-2.5000001e-5)"
         id="path9" />
    </clipPath>
    <clipPath
       clipPathUnits="userSpaceOnUse"
       id="clipPath11">
      <path
         d="M 0,15 V 1086 H 2400 V 15 Z"
         transform="translate(0,-2.5000001e-5)"
         id="path11" />
    </clipPath>
    <clipPath
       clipPathUnits="userSpaceOnUse"
       id="clipPath13">
      <path
         d="M 0,15 V 1086 H 2400 V 15 Z"
         transform="translate(0,-2.5000001e-5)"
         id="path13" />
    </clipPath>
    <clipPath
       clipPathUnits="userSpaceOnUse"
       id="clipPath15">
      <path
         d="M 0,15 V 1086 H 2400 V 15 Z"
         transform="translate(0,-2.5000001e-5)"
         id="path15" />
    </clipPath>
    <clipPath
       clipPathUnits="userSpaceOnUse"
       id="clipPath17">
      <path
         d="M 0,15 V 1086 H 2400 V 15 Z"
         transform="translate(0,-2.5000001e-5)"
         id="path17" />
    </clipPath>
    <clipPath
       clipPathUnits="userSpaceOnUse"
       id="clipPath18">
      <path
         d="M 0,15 V 1086 H 2400 V 15 Z"
         transform="matrix(0.1,0,0,-0.1,-141.31101,103.231)"
         id="path18" />
    </clipPath>
    <clipPath
       clipPathUnits="userSpaceOnUse"
       id="clipPath20">
      <path
         d="M 0,15 V 1086 H 2400 V 15 Z"
         transform="translate(0,-2.5000001e-5)"
         id="path20" />
    </clipPath>
    <clipPath
       clipPathUnits="userSpaceOnUse"
       id="clipPath22">
      <path
         d="M 0,15 V 1086 H 2400 V 15 Z"
         transform="translate(0,-2.5000001e-5)"
         id="path22" />
    </clipPath>
    <clipPath
       clipPathUnits="userSpaceOnUse"
       id="clipPath24">
      <path
         d="M 0,15 V 1086 H 2400 V 15 Z"
         transform="translate(0,-2.5000001e-5)"
         id="path24" />
    </clipPath>
    <clipPath
       clipPathUnits="userSpaceOnUse"
       id="clipPath26">
      <path
         d="M 0,15 V 1086 H 2400 V 15 Z"
         transform="translate(0,-2.5000001e-5)"
         id="path26" />
    </clipPath>
    <clipPath
       clipPathUnits="userSpaceOnUse"
       id="clipPath27">
      <path
         d="M 0,15 V 1086 H 2400 V 15 Z"
         transform="matrix(0.1,0,0,-0.1,-77.638704,60.161301)"
         id="path27" />
    </clipPath>
    <clipPath
       clipPathUnits="userSpaceOnUse"
       id="clipPath29">
      <path
         d="M 0,15 V 1086 H 2400 V 15 Z"
         transform="translate(0,-2.5000001e-5)"
         id="path29" />
    </clipPath>
    <clipPath
       clipPathUnits="userSpaceOnUse"
       id="clipPath30">
      <path
         d="M 0,15 V 1086 H 2400 V 15 Z"
         transform="matrix(0.1,0,0,-0.1,-32.275401,87.405502)"
         id="path30" />
    </clipPath>
    <clipPath
       clipPathUnits="userSpaceOnUse"
       id="clipPath32">
      <path
         d="M 0,15 V 1086 H 2400 V 15 Z"
         transform="translate(0,-2.5000001e-5)"
         id="path32" />
    </clipPath>
    <clipPath
       clipPathUnits="userSpaceOnUse"
       id="clipPath34">
      <path
         d="M 0,15 V 1086 H 2400 V 15 Z"
         transform="translate(0,-2.5000001e-5)"
         id="path34" />
    </clipPath>
    <clipPath
       clipPathUnits="userSpaceOnUse"
       id="clipPath36">
      <path
         d="M 0,15 V 1086 H 2400 V 15 Z"
         transform="translate(0,-2.5000001e-5)"
         id="path36" />
    </clipPath>
    <clipPath
       clipPathUnits="userSpaceOnUse"
       id="clipPath38">
      <path
         d="M 0,15 V 1086 H 2400 V 15 Z"
         transform="translate(0,-2.5000001e-5)"
         id="path38" />
    </clipPath>
    <clipPath
       clipPathUnits="userSpaceOnUse"
       id="clipPath40">
      <path
         d="M 0,15 V 1086 H 2400 V 15 Z"
         transform="translate(0,-2.5000001e-5)"
         id="path40" />
    </clipPath>
  </defs>
  <sodipodi:namedview
     id="namedview1"
     pagecolor="#ffffff"
     bordercolor="#000000"
     borderopacity="0.25"
     inkscape:showpageshadow="2"
     inkscape:pageopacity="0.0"
     inkscape:pagecheckerboard="0"
     inkscape:deskcolor="#d1d1d1"
     inkscape:zoom="2.8915091"
     inkscape:cx="166.34912"
     inkscape:cy="70.551394"
     inkscape:window-width="1920"
     inkscape:window-height="974"
     inkscape:window-x="-11"
     inkscape:window-y="-11"
     inkscape:window-maximized="1"
     inkscape:current-layer="g1">
    <inkscape:page
       x="0"
       y="0"
       inkscape:label="1"
       id="page1"
       width="321.33334"
       height="145.33333"
       margin="0"
       bleed="0" />
  </sodipodi:namedview>
  <g
     id="g1"
     inkscape:groupmode="layer"
     inkscape:label="1">
    <path
       id="path1"
       d="m 1445.08,970.066 c 1.37,-34.961 -6.95,-100.98 -43.99,-148.992 -27.73,-36.398 -41.09,-48.469 -93,-71.008"
       style="fill:none;stroke:#231f20;stroke-width:2.5;stroke-linecap:butt;stroke-linejoin:miter;stroke-miterlimit:3.8637;stroke-dasharray:none;stroke-opacity:1"
       transform="matrix(0.13333333,0,0,-0.13333333,0,145.33333)"
       clip-path="url(#clipPath2)" />
    <path
       id="path4"
       d="M 86.8398,807.094 V 93.0664"
       style="fill:none;stroke:#231f20;stroke-width:2.5;stroke-linecap:butt;stroke-linejoin:miter;stroke-miterlimit:3.8637;stroke-dasharray:none;stroke-opacity:1"
       transform="matrix(0.13333333,0,0,-0.13333333,0,145.33333)"
       clip-path="url(#clipPath5)" />
    <path
       id="path6"
       d="m 86.8398,804.086 h -15 l 15,38.008 15.0002,-38.008 H 86.8398"
       style="fill:#231f20;fill-opacity:1;fill-rule:evenodd;stroke:none"
       transform="matrix(0.13333333,0,0,-0.13333333,0,145.33333)"
       clip-path="url(#clipPath7)" />
    <path
       id="path8"
       d="M 86.8398,93.0664 H 800.859"
       style="fill:none;stroke:#231f20;stroke-width:2.5;stroke-linecap:butt;stroke-linejoin:miter;stroke-miterlimit:3.8637;stroke-dasharray:none;stroke-opacity:1"
       transform="matrix(0.13333333,0,0,-0.13333333,0,145.33333)"
       clip-path="url(#clipPath9)" />
    <path
       id="path10"
       d="m 797.852,93.0664 v 14.9996 l 38.007,-14.9996 -38.007,-15 v 15"
       style="fill:#231f20;fill-opacity:1;fill-rule:evenodd;stroke:none"
       transform="matrix(0.13333333,0,0,-0.13333333,0,145.33333)"
       clip-path="url(#clipPath11)" />
    <path
       id="path12"
       d="m 743.59,640.375 -322.891,-4.34"
       style="fill:none;stroke:#231f20;stroke-width:2.5;stroke-linecap:butt;stroke-linejoin:miter;stroke-miterlimit:3.8637;stroke-dasharray:none;stroke-opacity:1"
       transform="matrix(0.13333333,0,0,-0.13333333,0,145.33333)"
       clip-path="url(#clipPath13)" />
    <path
       id="path14"
       d="m 718.59,640.023 -10.11,9.883 35.11,-9.531 -34.879,-10.469 z"
       style="fill:#000000;fill-opacity:1;fill-rule:evenodd;stroke:none"
       transform="matrix(0.13333333,0,0,-0.13333333,0,145.33333)"
       clip-path="url(#clipPath15)" />
    <path
       id="path16"
       d="m 718.598,640.02 -10.125,9.886 35.125,-9.535 -34.887,-10.465 z"
       style="fill:none;stroke:#000000;stroke-width:2.5;stroke-linecap:butt;stroke-linejoin:miter;stroke-miterlimit:4;stroke-dasharray:none;stroke-opacity:1"
       transform="matrix(0.13333333,0,0,-0.13333333,0,145.33333)"
       clip-path="url(#clipPath17)" />
    <path
       id="path19"
       d="m 420.16,671.273 1649.8,-2.23 0.2,-71.328 -1651.18,1.879 z"
       style="fill:none;stroke:#231f20;stroke-width:5;stroke-linecap:butt;stroke-linejoin:miter;stroke-miterlimit:3.8637;stroke-dasharray:none;stroke-opacity:1"
       transform="matrix(0.13333333,0,0,-0.13333333,0,145.33333)"
       clip-path="url(#clipPath20)" />
    <path
       id="path21"
       d="M 424.488,894.477 V 635.496"
       style="fill:none;stroke:#231f20;stroke-width:2.504;stroke-linecap:butt;stroke-linejoin:miter;stroke-miterlimit:3.8637;stroke-dasharray:none;stroke-opacity:1"
       transform="matrix(0.13333333,0,0,-0.13333333,0,145.33333)"
       clip-path="url(#clipPath22)" />
    <path
       id="path23"
       d="m 424.488,869.434 -10,-10 10,35.039 10.043,-35.039 z"
       style="fill:#000000;fill-opacity:1;fill-rule:evenodd;stroke:#000000;stroke-width:2.504;stroke-linecap:butt;stroke-linejoin:miter;stroke-miterlimit:4;stroke-dasharray:none;stroke-opacity:1"
       transform="matrix(0.13333333,0,0,-0.13333333,0,145.33333)"
       clip-path="url(#clipPath24)" />
    <path
       id="path25"
       d="m 780.16,662.484 h 48.981"
       style="fill:none;stroke:#231f20;stroke-width:2.5;stroke-linecap:butt;stroke-linejoin:miter;stroke-miterlimit:3.8637;stroke-dasharray:none;stroke-opacity:1"
       transform="matrix(0.13333333,0,0,-0.13333333,0,145.33333)"
       clip-path="url(#clipPath26)" />
    <path
       id="path28"
       d="m 326.48,934.906 h 49.032"
       style="fill:none;stroke:#231f20;stroke-width:2.5;stroke-linecap:butt;stroke-linejoin:miter;stroke-miterlimit:3.8637;stroke-dasharray:none;stroke-opacity:1"
       transform="matrix(0.13333333,0,0,-0.13333333,2.6900052,145.57788)"
       clip-path="url(#clipPath29)" />
    <path
       id="path31"
       d="m 441.719,697.406 h 1627.62 V 823.773 H 441.719 Z"
       style="fill:none;stroke:#000000;stroke-width:2.49263;stroke-linecap:butt;stroke-linejoin:miter;stroke-miterlimit:3.8637;stroke-dasharray:none;stroke-opacity:1"
       transform="matrix(0.13333333,0,0,-0.13333333,0,145.33333)"
       clip-path="url(#clipPath32)" />
    <path
       id="path33"
       d="m 1476.25,1038.57 h 32.3 v 1.93"
       style="fill:none;stroke:#000000;stroke-width:2.504;stroke-linecap:butt;stroke-linejoin:miter;stroke-miterlimit:4;stroke-dasharray:none;stroke-opacity:1"
       transform="matrix(0.13333333,0,0,-0.13333333,0,145.33333)"
       clip-path="url(#clipPath34)" />
    <path
       id="path35"
       d="M 1206.33,824.703 V 701.426"
       style="fill:none;stroke:#231f20;stroke-width:1.72744;stroke-linecap:butt;stroke-linejoin:miter;stroke-miterlimit:3.8637;stroke-dasharray:none;stroke-opacity:1"
       transform="matrix(0.13333333,0,0,-0.13333333,0,145.33333)"
       clip-path="url(#clipPath36)" />
    <path
       id="path37"
       d="m 1206.33,807.406 -6.92,-6.871 6.92,24.18 6.91,-24.18 z"
       style="fill:#000000;fill-opacity:1;fill-rule:evenodd;stroke:none"
       transform="matrix(0.13333333,0,0,-0.13333333,0,145.33333)"
       clip-path="url(#clipPath38)" />
    <path
       id="path39"
       d="m 1206.33,807.406 -6.92,-6.871 6.92,24.168 6.91,-24.168 z"
       style="fill:none;stroke:#000000;stroke-width:1.72744;stroke-linecap:butt;stroke-linejoin:miter;stroke-miterlimit:4;stroke-dasharray:none;stroke-opacity:1"
       transform="matrix(0.13333333,0,0,-0.13333333,0,145.33333)"
       clip-path="url(#clipPath40)" />
    <text
       xml:space="preserve"
       style="font-style:italic;font-variant:normal;font-weight:normal;font-stretch:normal;font-size:16px;font-family:'Times New Roman';-inkscape-font-specification:'Times New Roman, Italic';font-variant-ligatures:normal;font-variant-caps:normal;font-variant-numeric:normal;font-variant-east-asian:normal;fill:#000000"
       x="103.11868"
       y="64.620323"
       id="text3-8"><tspan
         sodipodi:role="line"
         id="tspan3-0"
         x="103.11868"
         y="64.620323">x</tspan></text>
    <text
       xml:space="preserve"
       style="font-style:italic;font-variant:normal;font-weight:normal;font-stretch:normal;font-size:12px;font-family:'Times New Roman';-inkscape-font-specification:'Times New Roman, Italic';font-variant-ligatures:normal;font-variant-caps:normal;font-variant-numeric:normal;font-variant-east-asian:normal;fill:#000000"
       x="188.47908"
       y="9.3440561"
       id="text2"><tspan
         sodipodi:role="line"
         id="tspan2"
         x="188.47908"
         y="9.3440561"
         style="font-style:italic;font-variant:normal;font-weight:normal;font-stretch:normal;font-size:16px;font-family:'Times New Roman';-inkscape-font-specification:'Times New Roman, Italic';font-variant-ligatures:normal;font-variant-caps:normal;font-variant-numeric:normal;font-variant-east-asian:normal">q<tspan
   style="font-size:65%;baseline-shift:sub"
   id="tspan1">y</tspan></tspan></text>
    <text
       xml:space="preserve"
       style="font-style:italic;font-variant:normal;font-weight:normal;font-stretch:normal;font-size:16px;font-family:'Times New Roman';-inkscape-font-specification:'Times New Roman, Italic';font-variant-ligatures:normal;font-variant-caps:normal;font-variant-numeric:normal;font-variant-east-asian:normal;fill:#000000"
       x="102.94457"
       y="143.36711"
       id="text3"><tspan
         sodipodi:role="line"
         id="tspan3"
         x="102.94457"
         y="143.36711">x</tspan></text>
    <text
       xml:space="preserve"
       style="font-style:italic;font-variant:normal;font-weight:normal;font-stretch:normal;font-size:16px;font-family:'Times New Roman';-inkscape-font-specification:'Times New Roman, Italic';font-variant-ligatures:normal;font-variant-caps:normal;font-variant-numeric:normal;font-variant-east-asian:normal;fill:#000000"
       x="2.8347735"
       y="34.031246"
       id="text4"><tspan
         sodipodi:role="line"
         id="tspan4"
         x="2.8347735"
         y="34.031246">y</tspan></text>
    <text
       xml:space="preserve"
       style="font-style:italic;font-variant:normal;font-weight:normal;font-stretch:normal;font-size:16px;font-family:'Times New Roman';-inkscape-font-specification:'Times New Roman, Italic';font-variant-ligatures:normal;font-variant-caps:normal;font-variant-numeric:normal;font-variant-east-asian:normal;fill:#000000"
       x="45.790123"
       y="29.807501"
       id="text4-2"><tspan
         sodipodi:role="line"
         id="tspan4-0"
         x="45.790123"
         y="29.807501">y</tspan></text>
  </g>
</svg>
