<?xml version="1.0" encoding="UTF-8" standalone="no"?>
<!-- Created with Inkscape (http://www.inkscape.org/) -->

<svg
   version="1.1"
   id="svg1"
   width="320.30667"
   height="182.49333"
   viewBox="0 0 320.30667 182.49333"
   sodipodi:docname="EXD4f1.EPS"
   xmlns:inkscape="http://www.inkscape.org/namespaces/inkscape"
   xmlns:sodipodi="http://sodipodi.sourceforge.net/DTD/sodipodi-0.dtd"
   xmlns="http://www.w3.org/2000/svg"
   xmlns:svg="http://www.w3.org/2000/svg">
  <defs
     id="defs1" />
  <sodipodi:namedview
     id="namedview1"
     pagecolor="#ffffff"
     bordercolor="#000000"
     borderopacity="0.25"
     inkscape:showpageshadow="2"
     inkscape:pageopacity="0.0"
     inkscape:pagecheckerboard="0"
     inkscape:deskcolor="#d1d1d1">
    <inkscape:page
       x="0"
       y="0"
       inkscape:label="1"
       id="page1"
       width="320.30667"
       height="182.49333"
       margin="0"
       bleed="0" />
  </sodipodi:namedview>
  <g
     id="g1"
     inkscape:groupmode="layer"
     inkscape:label="1">
    <path
       id="path1"
       d="m 344.25,1158.25 v -961 h 1701"
       style="fill:none;stroke:#231f20;stroke-width:2.5;stroke-linecap:butt;stroke-linejoin:miter;stroke-miterlimit:3.8637;stroke-dasharray:none;stroke-opacity:1"
       transform="matrix(0.13333333,0,0,-0.13333333,0,182.49333)" />
    <path
       id="path2"
       d="m 344.25,1155.25 h -15 l 15,38 15,-38 h -15"
       style="fill:#231f20;fill-opacity:1;fill-rule:evenodd;stroke:none"
       transform="matrix(0.13333333,0,0,-0.13333333,0,182.49333)" />
    <path
       id="path3"
       d="m 2042.25,197.25 v 15 l 38,-15 -38,-15 v 15"
       style="fill:#231f20;fill-opacity:1;fill-rule:evenodd;stroke:none"
       transform="matrix(0.13333333,0,0,-0.13333333,0,182.49333)" />
    <path
       id="path4"
       d="m 315.25,481.25 h 57"
       style="fill:none;stroke:#231f20;stroke-width:2.5;stroke-linecap:butt;stroke-linejoin:miter;stroke-miterlimit:3.8637;stroke-dasharray:none;stroke-opacity:1"
       transform="matrix(0.13333333,0,0,-0.13333333,0,182.49333)" />
    <path
       id="path5"
       d="m 627.25,169.25 v 57"
       style="fill:none;stroke:#231f20;stroke-width:2.5;stroke-linecap:butt;stroke-linejoin:miter;stroke-miterlimit:3.8637;stroke-dasharray:none;stroke-opacity:1"
       transform="matrix(0.13333333,0,0,-0.13333333,0,182.49333)" />
    <path
       id="path6"
       d="m 911.25,169.25 v 57"
       style="fill:none;stroke:#231f20;stroke-width:2.5;stroke-linecap:butt;stroke-linejoin:miter;stroke-miterlimit:3.8637;stroke-dasharray:none;stroke-opacity:1"
       transform="matrix(0.13333333,0,0,-0.13333333,0,182.49333)" />
    <path
       id="path7"
       d="m 1194.25,169.25 v 57"
       style="fill:none;stroke:#231f20;stroke-width:2.5;stroke-linecap:butt;stroke-linejoin:miter;stroke-miterlimit:3.8637;stroke-dasharray:none;stroke-opacity:1"
       transform="matrix(0.13333333,0,0,-0.13333333,0,182.49333)" />
    <path
       id="path8"
       d="m 1478.25,169.25 v 57"
       style="fill:none;stroke:#231f20;stroke-width:2.5;stroke-linecap:butt;stroke-linejoin:miter;stroke-miterlimit:3.8637;stroke-dasharray:none;stroke-opacity:1"
       transform="matrix(0.13333333,0,0,-0.13333333,0,182.49333)" />
    <path
       id="path9"
       d="m 1761.25,169.25 v 57"
       style="fill:none;stroke:#231f20;stroke-width:2.5;stroke-linecap:butt;stroke-linejoin:miter;stroke-miterlimit:3.8637;stroke-dasharray:none;stroke-opacity:1"
       transform="matrix(0.13333333,0,0,-0.13333333,0,182.49333)" />
    <path
       id="path10"
       d="m 315.25,764.25 h 57"
       style="fill:none;stroke:#231f20;stroke-width:2.5;stroke-linecap:butt;stroke-linejoin:miter;stroke-miterlimit:3.8637;stroke-dasharray:none;stroke-opacity:1"
       transform="matrix(0.13333333,0,0,-0.13333333,0,182.49333)" />
    <path
       id="path11"
       d="M 2.8009766,-4.9576953 H 1.6994141 v -1.265625 c 0,-0.1171875 -0.023437,-0.1523438 -0.082031,-0.1523438 -0.63281249,0.9257813 -0.97265624,1.3007813 -1.28906249,1.4882813 -0.1171875,0.082031 -0.1875,0.140625 -0.1875,0.2109375 0,0.035156 0.0117188,0.058594 0.046875,0.070312 h 0.5859375 v 3.3164062 c 0,0.92578129 0.32812499,1.39453129 0.97265629,1.39453129 0.5390625,0 0.9609375,-0.2578125 1.3242187,-0.83203125 l -0.140625,-0.1171875 c -0.2460937,0.28125 -0.421875,0.38671875 -0.6679687,0.38671875 -0.3984375,0 -0.5625,-0.3046875 -0.5625,-0.99609379 V -4.6061328 H 2.8009766 Z M 3.2345703,-6.640625e-4 H 5.8478516 V -0.16472656 C 5.1212891,-0.22332031 5.0392578,-0.31707031 5.0275391,-1.1256641 v -3.9023437 l -0.046875,-0.035156 -1.6992188,0.609375 v 0.1640625 l 0.082031,-0.011719 c 0.140625,-0.023437 0.2695312,-0.035156 0.375,-0.035156 0.2695312,0 0.3632812,0.1757813 0.3632812,0.65625 v 2.5546875 C 4.0783205,-0.30535126 3.98457,-0.19988251 3.23457,-0.16472626 Z M 4.4650391,-7.5123828 c -0.2929688,0 -0.5507813,0.2460937 -0.5507813,0.5625 0,0.3164062 0.2460938,0.5507812 0.5507813,0.5507812 0.328125,0 0.5742187,-0.234375 0.5742187,-0.5507812 0,-0.328125 -0.2578125,-0.5625 -0.5742187,-0.5625 z m 1.828125,7.5117187375 h 2.4375 V -0.16472656 C 8.1798828,-0.17644531 8.0041016,-0.29363281 7.9923828,-0.73894531 V -3.8444141 c 0,-0.023437 0.082031,-0.1289062 0.1640625,-0.2109375 0.2695313,-0.2460937 0.75,-0.4335937 1.125,-0.4335937 0.4921875,0 0.7265627,0.3867187 0.7265627,1.1484375 v 2.39062499 c -0.011719,0.6328125 -0.1289064,0.75 -0.7382814,0.78515625 V -6.640625e-4 H 11.730664 V -0.16472656 c -0.621094,0 -0.773437,-0.17578125 -0.796875,-0.87890624 v -2.7773438 c 0.328125,-0.46875 0.679688,-0.6679687 1.207031,-0.6679687 0.621094,0 0.820313,0.2929687 0.820313,1.2070312 v 2.32031254 c -0.02344,0.65625 -0.08203,0.7265625 -0.726563,0.796875 v 0.1640624975 h 2.414063 V -0.16472656 l -0.292969,-0.0234375 c -0.351562,-0.0585938 -0.46875,-0.22265625 -0.46875,-0.64453125 V -3.1061328 c 0,-1.3007813 -0.433594,-1.9570313 -1.277344,-1.9570313 -0.632812,0 -1.195312,0.28125 -1.792968,0.9257813 -0.199219,-0.6328125 -0.574219,-0.9257813 -1.1718754,-0.9257813 -0.4921875,0 -0.7851563,0.140625 -1.6992188,0.84375 v -0.8203125 l -0.082031,-0.023437 C 7.289258,-4.8522261 6.914258,-4.7350386 6.3283205,-4.5709761 v 0.1875 c 0.1289063,-0.035156 0.234375,-0.035156 0.3515625,-0.035156 0.28125,0 0.3867188,0.1757812 0.3867188,0.703125 v 2.77734374 c -0.023437,0.62109375 -0.1640625,0.7734375 -0.7734375,0.7734375 z M 19.163281,-1.8053516 c -0.527343,0.83203129 -0.996093,1.16015629 -1.699218,1.16015629 -0.632813,0 -1.101563,-0.328125 -1.429688,-0.94921879 -0.1875,-0.421875 -0.269531,-0.7734375 -0.292969,-1.453125 h 3.386719 c -0.08203,-0.7148437 -0.199219,-1.03125 -0.46875,-1.3828125 -0.328125,-0.3984375 -0.832031,-0.6328125 -1.40625,-0.6328125 -0.550781,0 -1.066406,0.1992188 -1.488281,0.5742188 -0.515625,0.4453125 -0.820313,1.2304687 -0.820313,2.1328125 0,1.52343749 0.796875,2.46093749 2.0625,2.46093749 1.042969,0 1.875,-0.64453125 2.332032,-1.82812499 z m -3.398437,-1.59375 c 0.117187,-0.8554687 0.492187,-1.265625 1.160156,-1.265625 0.679688,0 0.9375,0.3046875 1.089844,1.265625 z m 9.788086,-4.0429687 c -0.808594,0.5390625 -1.148438,0.8203125 -1.546875,1.3242187 -0.785157,0.9609375 -1.171875,2.0625 -1.171875,3.3398438 0,1.4179687 0.410156,2.48437499 1.371093,3.59765624 0.457032,0.52734376 0.738282,0.77343746 1.3125,1.12499996 L 25.64668,1.7688672 C 24.767773,1.0774609 24.463086,0.67902344 24.170117,-0.12957031 23.900586,-0.86785156 23.783398,-1.6998828 23.783398,-2.8014453 c 0,-1.1601563 0.140625,-2.0742188 0.433594,-2.7421875 0.316406,-0.6796875 0.644531,-1.078125 1.429688,-1.7226563 z m 3.887695,3.984375 -0.04687,-1.5 h -0.117187 c -0.05859,0.082031 -0.117188,0.1171875 -0.175782,0.1171875 -0.07031,0 -0.175781,-0.023437 -0.304687,-0.082031 -0.246094,-0.082031 -0.503906,-0.140625 -0.761719,-0.140625 -0.878906,0 -1.5,0.5742188 -1.5,1.359375 0,0.6210938 0.351563,1.0664063 1.289063,1.59375 l 0.632812,0.3632813 c 0.386719,0.2109375 0.574219,0.4804687 0.574219,0.82031249 0,0.48046875 -0.351563,0.796875 -0.914063,0.796875 -0.761718,0 -1.148437,-0.421875 -1.394531,-1.54687499 h -0.175781 v 1.72265624 h 0.140625 c 0.08203,-0.1171875 0.117187,-0.140625 0.257812,-0.140625 0.117188,0 0.246094,0.0234375 0.503907,0.0937499975 0.292968,0.0703125025 0.585937,0.1054687525 0.796875,0.1054687525 0.867187,0 1.558593,-0.6328125 1.558593,-1.40624999 0,-0.5507813 -0.269531,-0.9140625 -0.925781,-1.3125 L 27.682818,-3.31707 c -0.304688,-0.1875 -0.46875,-0.4453125 -0.46875,-0.7382813 0,-0.4570312 0.339843,-0.75 0.84375,-0.75 0.632812,0 0.960937,0.3632813 1.21875,1.3476563 z m 5.296875,1.6523437 c -0.527344,0.83203129 -0.996094,1.16015629 -1.699219,1.16015629 -0.632812,0 -1.101562,-0.328125 -1.429687,-0.94921879 -0.1875,-0.421875 -0.269531,-0.7734375 -0.292969,-1.453125 h 3.386719 c -0.08203,-0.7148437 -0.199219,-1.03125 -0.46875,-1.3828125 -0.328125,-0.3984375 -0.832031,-0.6328125 -1.40625,-0.6328125 -0.550781,0 -1.066406,0.1992188 -1.488281,0.5742188 -0.515625,0.4453125 -0.820313,1.2304687 -0.820313,2.1328125 0,1.52343749 0.796875,2.46093749 2.0625,2.46093749 1.042969,0 1.875,-0.64453125 2.332031,-1.82812499 z m -3.398437,-1.59375 c 0.117187,-0.8554687 0.492187,-1.265625 1.160156,-1.265625 0.679687,0 0.9375,0.3046875 1.089844,1.265625 z m 8.176757,1.6875 c -0.527343,0.76171879 -0.925781,1.03125004 -1.558593,1.03125004 -1.007813,0 -1.699219,-0.87890624 -1.699219,-2.14453124 0,-1.1484375 0.597656,-1.921875 1.488281,-1.921875 0.398438,0 0.539063,0.1171875 0.65625,0.5273437 l 0.07031,0.2460938 c 0.08203,0.3164062 0.28125,0.5039062 0.527343,0.5039062 0.28125,0 0.515625,-0.2109375 0.515625,-0.4570312 0,-0.6210938 -0.773437,-1.1367188 -1.699218,-1.1367188 -0.539063,0 -1.101563,0.2226563 -1.546875,0.6210938 -0.550782,0.4804687 -0.867188,1.2304687 -0.867188,2.109375 0,1.41796874 0.878906,2.43749999 2.097656,2.43749999 0.492188,0 0.9375,-0.17578125 1.335938,-0.515625 0.292969,-0.24609375 0.503906,-0.5625 0.832031,-1.20703129 z m 0.922852,3.65625 c 0.808594,-0.5390625 1.136719,-0.8085937 1.546875,-1.31249996 0.785156,-0.9609375 1.171875,-2.06250004 1.171875,-3.35156254 0,-1.40625 -0.410156,-2.4726562 -1.382813,-3.5976562 -0.445312,-0.5273438 -0.738281,-0.7734375 -1.3125,-1.125 l -0.128906,0.1757812 c 0.878906,0.6914063 1.183594,1.078125 1.488281,1.9101563 0.269532,0.7382812 0.386719,1.5585937 0.386719,2.671875 0,1.1484375 -0.140625,2.05078124 -0.445312,2.73046874 -0.292969,0.6796875 -0.632813,1.08984376 -1.429688,1.72265626 z M -135.29863,-7.4420703 c -0.60938,0 -1.07813,0.1757812 -1.47657,0.5742187 -0.64453,0.6210938 -1.05468,1.8867188 -1.05468,3.1640625 0,1.21875 0.36328,2.4960938 0.8789,3.10546879 0.39844,0.4921875 0.96094,0.75 1.60547,0.75 0.5625,0 1.03125,-0.1875 1.42969,-0.57421875 0.63281,-0.59765624 1.05469,-1.87500004 1.05469,-3.21093754 0,-2.25 -0.9961,-3.8085937 -2.4375,-3.8085937 z m -0.0352,0.2929687 c 0.92578,0 1.41797,1.2421875 1.41797,3.5390625 0,2.296875 -0.48047,3.48046879 -1.42969,3.48046879 -0.94922,0 -1.42969,-1.18359379 -1.42969,-3.46874999 0,-2.34375 0.49219,-3.5507813 1.44141,-3.5507813 z m 4.10449,6.046875 c -0.32812,0 -0.59765,0.28125004 -0.59765,0.63281254 0,0.31640625 0.26953,0.5859375 0.58593,0.5859375 0.35157,0 0.63282,-0.2578125 0.63282,-0.5859375 0,-0.33984375 -0.28125,-0.63281254 -0.6211,-0.63281254 z m 6.60645,-0.4101562 -0.14063,-0.046875 c -0.41015,0.63281249 -0.52734,0.71484374 -1.04297,0.72656249 h -2.63671 l 1.85156,-1.94531249 c 0.98437,-1.0195313 1.40625,-1.8515625 1.40625,-2.71875 0,-1.0898438 -0.89063,-1.9453125 -2.03906,-1.9453125 -0.59766,0 -1.17188,0.2460937 -1.58204,0.6796875 -0.35156,0.375 -0.51562,0.7265625 -0.70312,1.5117187 l 0.23437,0.058594 c 0.4336,-1.078125 0.82032,-1.4296875 1.59375,-1.4296875 0.9375,0 1.54688,0.6210937 1.54688,1.546875 0,0.8671875 -0.50391,1.8867187 -1.42969,2.859375 l -1.95703,2.08593749 v 0.1289062475 h 4.28906 z m 17.625,-5.9296875 c -0.60938,0 -1.07813,0.1757812 -1.47656,0.5742187 -0.64454,0.6210938 -1.05469,1.8867188 -1.05469,3.1640625 0,1.21875 0.36328,2.4960938 0.8789,3.10546879 0.39844,0.4921875 0.96094,0.75 1.60547,0.75 0.5625,0 1.03125,-0.1875 1.42969,-0.57421875 0.63281,-0.59765624 1.05469,-1.87500004 1.05469,-3.21093754 0,-2.25 -0.9961,-3.8085937 -2.4375,-3.8085937 z m -0.0352,0.2929687 c 0.92578,0 1.41797,1.2421875 1.41797,3.5390625 0,2.296875 -0.48047,3.48046879 -1.42969,3.48046879 -0.94922,0 -1.42968,-1.18359379 -1.42968,-3.46874999 0,-2.34375 0.49218,-3.5507813 1.4414,-3.5507813 z m 4.10449,6.046875 c -0.32812,0 -0.59765,0.28125004 -0.59765,0.63281254 0,0.31640625 0.26953,0.5859375 0.58594,0.5859375 0.35156,0 0.63281,-0.2578125 0.63281,-0.5859375 0,-0.33984375 -0.28125,-0.63281254 -0.6211,-0.63281254 z m 6.571293,-1.4414062 h -1.125 v -4.8984375 h -0.480468 l -3.457035,4.8984375 v 0.703125 h 3.093753 v 1.8398437375 h 0.84375 V -1.8405078 h 1.125 z m -1.980468,0 h -2.636715 l 2.636715,-3.7734375 z m 19.740234,-4.8984375 c -0.609375,0 -1.078125,0.1757812 -1.476562,0.5742187 -0.644532,0.6210938 -1.054688,1.8867188 -1.054688,3.1640625 0,1.21875 0.363281,2.4960938 0.878906,3.10546879 0.398438,0.4921875 0.960938,0.75 1.605469,0.75 0.5625,0 1.03125,-0.1875 1.429688,-0.57421875 0.632812,-0.59765624 1.054687,-1.87500004 1.054687,-3.21093754 0,-2.25 -0.996094,-3.8085937 -2.4375,-3.8085937 z m -0.03516,0.2929687 c 0.925781,0 1.417969,1.2421875 1.417969,3.5390625 0,2.296875 -0.480469,3.48046879 -1.429688,3.48046879 -0.949219,0 -1.429687,-1.18359379 -1.429687,-3.46874999 0,-2.34375 0.492187,-3.5507813 1.441406,-3.5507813 z m 4.104492,6.046875 c -0.328125,0 -0.597656,0.28125004 -0.597656,0.63281254 0,0.31640625 0.269531,0.5859375 0.585937,0.5859375 0.351563,0 0.632813,-0.2578125 0.632813,-0.5859375 0,-0.33984375 -0.28125,-0.63281254 -0.621094,-0.63281254 z m 6.290039,-6.421875 c -1.253906,0.1054688 -1.898437,0.3164063 -2.695312,0.8789063 -1.195313,0.84375 -1.839844,2.0976562 -1.839844,3.5742187 0,0.9609375 0.292969,1.921875 0.773437,2.47265629 0.410157,0.4921875 1.007813,0.75 1.6875,0.75 1.371094,0 2.308594,-1.04296875 2.308594,-2.56640629 0,-1.4179687 -0.785156,-2.296875 -2.074219,-2.296875 -0.480468,0 -0.703125,0.082031 -1.394531,0.4921875 0.292969,-1.6523437 1.523438,-2.8476562 3.257813,-3.1289062 z m -2.25,3.3164063 c 0.960938,0 1.5,0.796875 1.5,2.1679687 0,1.21875004 -0.433594,1.88671879 -1.195312,1.88671879 -0.972657,0 -1.570313,-1.03124999 -1.570313,-2.74218749 0,-0.5625 0.09375,-0.8671875 0.316406,-1.03125 0.222657,-0.1757813 0.5625,-0.28125 0.949219,-0.28125 z m 20.188477,-3.234375 c -0.609375,0 -1.078125,0.1757812 -1.476563,0.5742187 -0.644531,0.6210938 -1.054687,1.8867188 -1.054687,3.1640625 0,1.21875 0.363281,2.4960938 0.878906,3.10546879 0.398437,0.4921875 0.960937,0.75 1.605469,0.75 0.5625,0 1.03125,-0.1875 1.429687,-0.57421875 0.632813,-0.59765624 1.054688,-1.87500004 1.054688,-3.21093754 0,-2.25 -0.996094,-3.8085937 -2.4375,-3.8085937 z m -0.03516,0.2929687 c 0.925782,0 1.417969,1.2421875 1.417969,3.5390625 0,2.296875 -0.480469,3.48046879 -1.429687,3.48046879 -0.949219,0 -1.429688,-1.18359379 -1.429688,-3.46874999 0,-2.34375 0.492188,-3.5507813 1.441406,-3.5507813 z m 4.107422,6.046875 c -0.328125,0 -0.597656,0.28125004 -0.597656,0.63281254 0,0.31640625 0.269531,0.5859375 0.585938,0.5859375 0.351562,0 0.632812,-0.2578125 0.632812,-0.5859375 0,-0.33984375 -0.28125,-0.63281254 -0.621094,-0.63281254 z m 4.564453,-2.9765625 c 1.101563,-0.5976562 1.476563,-1.0546875 1.476563,-1.7929687 0,-0.9140625 -0.785156,-1.5703125 -1.886719,-1.5703125 -1.207031,0 -2.097656,0.7382812 -2.097656,1.7460937 0,0.7148438 0.210937,1.03125 1.371094,2.0390625 -1.207032,0.9140625 -1.429688,1.2304688 -1.429688,1.9921875 0,1.07812504 0.855469,1.81640629 2.109375,1.81640629 1.324219,0 2.167969,-0.7265625 2.167969,-1.86328129 0,-0.84375 -0.375,-1.3710937 -1.710938,-2.3671875 z m -0.199218,1.125 c 0.808593,0.5742188 1.066406,0.9726563 1.066406,1.59375 0,0.71484379 -0.492188,1.20703129 -1.207031,1.20703129 -0.832032,0 -1.394532,-0.64453125 -1.394532,-1.58203129 0,-0.7148437 0.234375,-1.171875 0.878907,-1.6992187 z m -0.117188,-1.3242187 c -0.972656,-0.6445313 -1.371094,-1.1484375 -1.371094,-1.7695313 0,-0.6328125 0.492188,-1.078125 1.183594,-1.078125 0.75,0 1.21875,0.4804688 1.21875,1.2421875 0,0.6679688 -0.28125,1.1015625 -1.03125,1.6054688 z m 18.580078,4.2773437375 h 3.035157 V -0.16472656 c -0.84375,0 -1.03125,-0.1171875 -1.042969,-0.64453125 V -7.4186328 l -0.09375,-0.023437 -1.980469,1.0078125 v 0.1523437 c 0.433594,-0.1640625 0.691406,-0.2460937 0.796875,-0.2460937 0.234375,0 0.328125,0.1640625 0.328125,0.515625 v 4.9921875 c -0.02344,0.69140624 -0.210937,0.84374999 -1.042969,0.85546874 z M -17.826953,-1.1022266 c -0.328125,0 -0.597656,0.28125004 -0.597656,0.63281254 0,0.31640625 0.269531,0.5859375 0.585937,0.5859375 0.351563,0 0.632813,-0.2578125 0.632813,-0.5859375 0,-0.33984375 -0.28125,-0.63281254 -0.621094,-0.63281254 z m 4.177734,-6.3398437 c -0.609375,0 -1.078125,0.1757812 -1.476562,0.5742187 -0.644531,0.6210938 -1.054688,1.8867188 -1.054688,3.1640625 0,1.21875 0.363282,2.4960938 0.878907,3.10546879 0.398437,0.4921875 0.960937,0.75 1.605468,0.75 0.5625,0 1.03125,-0.1875 1.429688,-0.57421875 0.632812,-0.59765624 1.054687,-1.87500004 1.054687,-3.21093754 0,-2.25 -0.996093,-3.8085937 -2.4375,-3.8085937 z m -0.03516,0.2929687 c 0.925781,0 1.417969,1.2421875 1.417969,3.5390625 0,2.296875 -0.480469,3.48046879 -1.429688,3.48046879 -0.949218,0 -1.429687,-1.18359379 -1.429687,-3.46874999 0,-2.34375 0.492187,-3.5507813 1.441406,-3.5507813 z M -185.39922,-47.341484 c -0.60937,0 -1.07812,0.175781 -1.47656,0.574218 -0.64453,0.621094 -1.05469,1.886719 -1.05469,3.164063 0,1.21875 0.36328,2.496094 0.87891,3.105469 0.39844,0.492187 0.96094,0.75 1.60547,0.75 0.5625,0 1.03125,-0.1875 1.42968,-0.574219 0.63282,-0.597656 1.05469,-1.875 1.05469,-3.210938 0,-2.25 -0.99609,-3.808593 -2.4375,-3.808593 z m -0.0351,0.292968 c 0.92578,0 1.41796,1.242188 1.41796,3.539063 0,2.296875 -0.48046,3.480469 -1.42968,3.480469 -0.94922,0 -1.42969,-1.183594 -1.42969,-3.46875 0,-2.34375 0.49219,-3.550782 1.44141,-3.550782 z m 4.10449,6.046875 c -0.32813,0 -0.59766,0.28125 -0.59766,0.632813 0,0.316406 0.26953,0.585937 0.58594,0.585937 0.35156,0 0.63281,-0.257812 0.63281,-0.585937 0,-0.339844 -0.28125,-0.632813 -0.62109,-0.632813 z m 4.18066,-6.339843 c -0.60937,0 -1.07812,0.175781 -1.47656,0.574218 -0.64453,0.621094 -1.05469,1.886719 -1.05469,3.164063 0,1.21875 0.36328,2.496094 0.87891,3.105469 0.39844,0.492187 0.96094,0.75 1.60547,0.75 0.5625,0 1.03125,-0.1875 1.42968,-0.574219 0.63282,-0.597656 1.05469,-1.875 1.05469,-3.210938 0,-2.25 -0.99609,-3.808593 -2.4375,-3.808593 z m -0.0351,0.292968 c 0.92578,0 1.41796,1.242188 1.41796,3.539063 0,2.296875 -0.48046,3.480469 -1.42968,3.480469 -0.94922,0 -1.42969,-1.183594 -1.42969,-3.46875 0,-2.34375 0.49219,-3.550782 1.44141,-3.550782 z m 5.53417,-0.292968 c -0.60937,0 -1.07812,0.175781 -1.47656,0.574218 -0.64453,0.621094 -1.05469,1.886719 -1.05469,3.164063 0,1.21875 0.36329,2.496094 0.87891,3.105469 0.39844,0.492187 0.96094,0.75 1.60547,0.75 0.5625,0 1.03125,-0.1875 1.42969,-0.574219 0.63281,-0.597656 1.05468,-1.875 1.05468,-3.210938 0,-2.25 -0.99609,-3.808593 -2.4375,-3.808593 z m -0.0351,0.292968 c 0.92578,0 1.41797,1.242188 1.41797,3.539063 0,2.296875 -0.48047,3.480469 -1.42969,3.480469 -0.94922,0 -1.42969,-1.183594 -1.42969,-3.46875 0,-2.34375 0.49219,-3.550782 1.44141,-3.550782 z m -6.71192,-73.983394 c -0.14062,0 -0.21093,0 -0.25781,0 -0.375,0 -0.48047,-0.11719 -0.48047,-0.6211 v -6.23437 l -0.0586,-0.0234 c -0.51563,0.17578 -0.89063,0.29297 -1.61719,0.48047 v 0.17578 c 0.0937,-0.0117 0.15235,-0.0117 0.2461,-0.0117 0.41015,0 0.5039,0.10547 0.5039,0.5625 v 1.71094 c -0.41015,-0.35156 -0.71484,-0.46875 -1.14844,-0.46875 -1.26562,0 -2.29687,1.24219 -2.29687,2.8125 0,1.40625 0.82031,2.35547 2.03906,2.35547 0.6211,0 1.03125,-0.21094 1.40625,-0.73828 v 0.71484 l 0.0469,0.0234 1.61718,-0.5625 z m -1.66406,-0.49219 c 0,0.082 -0.0703,0.21094 -0.1875,0.32812 -0.1875,0.22266 -0.46875,0.33985 -0.78515,0.33985 -0.92579,0 -1.52344,-0.89063 -1.52344,-2.25 0,-1.23047 0.53906,-2.05078 1.37109,-2.05078 0.59766,0 1.125,0.51562 1.125,1.10156 z m 1.93653,1.125 h 2.61328 v -0.16406 c -0.72657,-0.0586 -0.8086,-0.15235 -0.82032,-0.96094 v -3.90235 l -0.0469,-0.0352 -1.69922,0.60937 v 0.16407 l 0.082,-0.0117 c 0.14063,-0.0234 0.26953,-0.0352 0.375,-0.0352 0.26953,0 0.36328,0.17578 0.36328,0.65625 v 2.55469 c -0.0234,0.82031 -0.11718,0.92578 -0.86718,0.96094 z m 1.23046,-7.51172 c -0.29296,0 -0.55078,0.24609 -0.55078,0.5625 0,0.31641 0.2461,0.55078 0.55078,0.55078 0.32813,0 0.57422,-0.23437 0.57422,-0.55078 0,-0.32813 -0.25781,-0.5625 -0.57422,-0.5625 z m 5.1211,4.05469 -0.0469,-1.5 h -0.11718 c -0.0586,0.082 -0.11719,0.11718 -0.17579,0.11718 -0.0703,0 -0.17578,-0.0234 -0.30468,-0.082 -0.2461,-0.082 -0.50391,-0.14062 -0.76172,-0.14062 -0.87891,0 -1.5,0.57422 -1.5,1.35937 0,0.6211 0.35156,1.06641 1.28906,1.59375 l 0.63281,0.36328 c 0.38672,0.21094 0.57422,0.48047 0.57422,0.82032 0,0.48047 -0.35156,0.79687 -0.91406,0.79687 -0.76172,0 -1.14844,-0.42187 -1.39453,-1.54687 h -0.17578 v 1.72265 h 0.14062 c 0.082,-0.11718 0.11719,-0.14062 0.25781,-0.14062 0.11719,0 0.2461,0.0234 0.50391,0.0937 0.29297,0.0703 0.58594,0.10547 0.79688,0.10547 0.86718,0 1.55859,-0.63282 1.55859,-1.40625 0,-0.55078 -0.26953,-0.91407 -0.92578,-1.3125 l -1.19531,-0.70313 c -0.30469,-0.1875 -0.46875,-0.44531 -0.46875,-0.73828 0,-0.45703 0.33984,-0.75 0.84375,-0.75 0.63281,0 0.96093,0.36328 1.21875,1.34766 z m 0.87012,5.84765 h 2.66015 v -0.19922 c -0.82031,-0.0117 -0.96094,-0.11718 -0.97265,-0.83203 v -1.72265 c 0.39843,0.36328 0.65625,0.46875 1.11328,0.46875 1.3125,0 2.30859,-1.23047 2.30859,-2.82422 0,-1.35938 -0.76172,-2.34375 -1.82812,-2.34375 -0.6211,0 -1.10157,0.26953 -1.59375,0.86719 v -0.84375 l -0.0586,-0.0234 c -0.59765,0.23437 -0.98437,0.375 -1.59375,0.5625 v 0.17578 c 0.10547,-0.0117 0.17578,-0.0117 0.28125,-0.0117 0.375,0 0.44531,0.10547 0.44531,0.63281 v 5.14453 c 0,0.58594 -0.11718,0.69141 -0.76171,0.76172 z m 1.6875,-6.07031 c 0,-0.32812 0.62109,-0.72656 1.125,-0.72656 0.82031,0 1.35937,0.84375 1.35937,2.13281 0,1.20703 -0.53906,2.02734 -1.33594,2.02734 -0.51562,0 -1.14843,-0.38671 -1.14843,-0.72656 z m 3.9873,3.67969 h 2.58984 v -0.16406 c -0.6914,-0.0352 -0.80859,-0.14063 -0.82031,-0.76172 v -6.5625 l -0.0469,-0.0234 c -0.5625,0.17578 -0.96094,0.29297 -1.7461,0.48047 v 0.17578 h 0.0586 c 0.1289,-0.0117 0.25781,-0.0234 0.35156,-0.0234 0.35156,0 0.45703,0.15235 0.45703,0.66797 v 5.25 c -0.0117,0.59766 -0.16406,0.75 -0.84375,0.79688 z m 7.6875,-0.72656 c -0.1875,0.15234 -0.31641,0.21093 -0.48047,0.21093 -0.25781,0 -0.32812,-0.15234 -0.32812,-0.64453 v -2.14453 c 0,-0.57422 -0.0586,-0.89062 -0.22266,-1.14844 -0.24609,-0.39843 -0.71484,-0.60937 -1.37109,-0.60937 -1.03125,0 -1.83985,0.53906 -1.83985,1.23047 0,0.25781 0.19922,0.48047 0.46875,0.48047 0.25781,0 0.49219,-0.22266 0.49219,-0.46875 0,-0.0469 -0.0117,-0.0937 -0.0234,-0.17579 -0.0234,-0.0937 -0.0234,-0.1875 -0.0234,-0.25781 0,-0.30469 0.35157,-0.53906 0.78516,-0.53906 0.53906,0 0.83203,0.31641 0.83203,0.91406 v 0.66797 c -1.67578,0.66797 -1.875,0.77344 -2.34375,1.18359 -0.24609,0.22266 -0.39844,0.59766 -0.39844,0.96094 0,0.69141 0.48047,1.17188 1.14844,1.17188 0.49219,0 0.9375,-0.22266 1.60547,-0.79688 0.0586,0.58594 0.25781,0.79688 0.71484,0.79688 0.36329,0 0.59766,-0.12891 0.98438,-0.55078 z m -1.71094,-0.6211 c 0,0.32813 -0.0469,0.44531 -0.28125,0.57422 -0.26953,0.15234 -0.57422,0.24609 -0.79687,0.24609 -0.38672,0 -0.70313,-0.375 -0.70313,-0.84375 v -0.0469 c 0.0117,-0.65625 0.50391,-1.07813 1.78125,-1.53516 z m 6.11426,-0.36328 c -0.52734,0.76172 -0.92578,1.03125 -1.55859,1.03125 -1.00782,0 -1.69922,-0.87891 -1.69922,-2.14453 0,-1.14844 0.59765,-1.92188 1.48828,-1.92188 0.39844,0 0.53906,0.11719 0.65625,0.52735 l 0.0703,0.24609 c 0.082,0.31641 0.28125,0.50391 0.52735,0.50391 0.28125,0 0.51562,-0.21094 0.51562,-0.45703 0,-0.6211 -0.77344,-1.13672 -1.69922,-1.13672 -0.53906,0 -1.10156,0.22265 -1.54687,0.62109 -0.55078,0.48047 -0.86719,1.23047 -0.86719,2.10938 0,1.41797 0.87891,2.4375 2.09766,2.4375 0.49218,0 0.9375,-0.17578 1.33593,-0.51563 0.29297,-0.24609 0.50391,-0.5625 0.83203,-1.20703 z m 4.98926,-0.0937 c -0.52735,0.83203 -0.9961,1.16016 -1.69922,1.16016 -0.63281,0 -1.10156,-0.32813 -1.42969,-0.94922 -0.1875,-0.42188 -0.26953,-0.77344 -0.29297,-1.45313 h 3.38672 c -0.082,-0.71484 -0.19922,-1.03125 -0.46875,-1.38281 -0.32812,-0.39844 -0.83203,-0.63281 -1.40625,-0.63281 -0.55078,0 -1.0664,0.19922 -1.48828,0.57422 -0.51562,0.44531 -0.82031,1.23047 -0.82031,2.13281 0,1.52344 0.79687,2.46094 2.0625,2.46094 1.04297,0 1.875,-0.64453 2.33203,-1.82813 z m -3.39844,-1.59375 c 0.11719,-0.85547 0.49219,-1.26562 1.16016,-1.26562 0.67968,0 0.9375,0.30468 1.08984,1.26562 z m 3.96973,3.39844 h 2.4375 v -0.16406 c -0.55078,-0.0117 -0.72657,-0.12891 -0.73828,-0.57422 v -3.10547 c 0,-0.0234 0.082,-0.12891 0.16406,-0.21094 0.26953,-0.24609 0.75,-0.43359 1.125,-0.43359 0.49219,0 0.72656,0.38672 0.72656,1.14843 v 2.39063 c -0.0117,0.63281 -0.12891,0.75 -0.73828,0.78516 v 0.16406 h 2.46094 v -0.16406 c -0.6211,0 -0.77344,-0.17579 -0.79688,-0.87891 v -2.77734 c 0.32813,-0.46875 0.67969,-0.66797 1.20703,-0.66797 0.6211,0 0.82032,0.29297 0.82032,1.20703 v 2.32031 c -0.0234,0.65625 -0.082,0.72656 -0.72657,0.79688 v 0.16406 h 2.41407 v -0.16406 l -0.29297,-0.0234 c -0.35157,-0.0586 -0.46875,-0.22266 -0.46875,-0.64453 v -2.27344 c 0,-1.30078 -0.4336,-1.95703 -1.27735,-1.95703 -0.63281,0 -1.19531,0.28125 -1.79297,0.92578 -0.19921,-0.63281 -0.57421,-0.92578 -1.17187,-0.92578 -0.49219,0 -0.78516,0.14062 -1.69922,0.84375 v -0.82031 l -0.082,-0.0234 c -0.57422,0.21094 -0.94922,0.32812 -1.53516,0.49219 v 0.1875 c 0.12891,-0.0352 0.23438,-0.0352 0.35157,-0.0352 0.28125,0 0.38671,0.17578 0.38671,0.70312 v 2.77735 c -0.0234,0.62109 -0.16406,0.77344 -0.77343,0.77344 z m 12.87011,-1.80469 c -0.52734,0.83203 -0.99609,1.16016 -1.69921,1.16016 -0.63282,0 -1.10157,-0.32813 -1.42969,-0.94922 -0.1875,-0.42188 -0.26953,-0.77344 -0.29297,-1.45313 h 3.38672 c -0.082,-0.71484 -0.19922,-1.03125 -0.46875,-1.38281 -0.32813,-0.39844 -0.83203,-0.63281 -1.40625,-0.63281 -0.55078,0 -1.06641,0.19922 -1.48828,0.57422 -0.51563,0.44531 -0.82032,1.23047 -0.82032,2.13281 0,1.52344 0.79688,2.46094 2.0625,2.46094 1.04297,0 1.875,-0.64453 2.33204,-1.82813 z m -3.39843,-1.59375 c 0.11718,-0.85547 0.49218,-1.26562 1.16015,-1.26562 0.67969,0 0.9375,0.30468 1.08985,1.26562 z m 3.99316,3.39844 h 2.33203 v -0.16406 c -0.55078,-0.0352 -0.72656,-0.17579 -0.72656,-0.57422 v -3.09375 c 0.52734,-0.49219 0.77344,-0.6211 1.13672,-0.6211 0.53906,0 0.79687,0.33985 0.79687,1.06641 v 2.29687 c -0.0234,0.71485 -0.15234,0.89063 -0.6914,0.92579 v 0.16406 h 2.28515 v -0.16406 c -0.53906,-0.0586 -0.65625,-0.1875 -0.66797,-0.72657 v -2.51953 c 0,-1.03125 -0.48046,-1.65234 -1.30078,-1.65234 -0.5039,0 -0.84375,0.1875 -1.59375,0.89062 v -0.86718 l -0.0703,-0.0234 c -0.57422,0.21094 -0.94922,0.32812 -1.52344,0.49219 v 0.1875 c 0.082,-0.0352 0.17578,-0.0352 0.29297,-0.0352 0.31641,0 0.41016,0.16406 0.41016,0.70312 v 2.71875 c -0.0117,0.65625 -0.12891,0.79688 -0.67969,0.83204 z m 8.10059,-4.95703 h -1.10157 v -1.26563 c 0,-0.11719 -0.0234,-0.15234 -0.082,-0.15234 -0.63281,0.92578 -0.97265,1.30078 -1.28906,1.48828 -0.11719,0.082 -0.1875,0.14062 -0.1875,0.21094 0,0.0351 0.0117,0.0586 0.0469,0.0703 h 0.58593 v 3.31641 c 0,0.92578 0.32813,1.39453 0.97266,1.39453 0.53906,0 0.96094,-0.25782 1.32422,-0.83203 l -0.14063,-0.11719 c -0.24609,0.28125 -0.42187,0.38672 -0.66797,0.38672 -0.39843,0 -0.5625,-0.30469 -0.5625,-0.9961 v -3.15234 h 1.10157 z m 9.00586,-2.48438 c -0.8086,0.53906 -1.14844,0.82031 -1.54688,1.32422 -0.78516,0.96094 -1.17187,2.0625 -1.17187,3.33984 0,1.41797 0.41015,2.48438 1.37109,3.59766 0.45703,0.52734 0.73828,0.77344 1.3125,1.125 l 0.12891,-0.17578 c -0.87891,-0.69141 -1.1836,-1.08984 -1.47657,-1.89844 -0.26953,-0.73828 -0.38672,-1.57031 -0.38672,-2.67187 0,-1.16016 0.14063,-2.07422 0.4336,-2.74219 0.3164,-0.67969 0.64453,-1.07813 1.42969,-1.72266 z m 0.59179,7.44141 h 2.4375 v -0.16406 c -0.55078,-0.0117 -0.72656,-0.12891 -0.73828,-0.57422 v -3.10547 c 0,-0.0234 0.082,-0.12891 0.16406,-0.21094 0.26954,-0.24609 0.75,-0.43359 1.125,-0.43359 0.49219,0 0.72657,0.38672 0.72657,1.14843 v 2.39063 c -0.0117,0.63281 -0.12891,0.75 -0.73828,0.78516 v 0.16406 h 2.46093 v -0.16406 c -0.62109,0 -0.77343,-0.17579 -0.79687,-0.87891 v -2.77734 c 0.32812,-0.46875 0.67969,-0.66797 1.20703,-0.66797 0.62109,0 0.82031,0.29297 0.82031,1.20703 v 2.32031 c -0.0234,0.65625 -0.082,0.72656 -0.72656,0.79688 v 0.16406 h 2.41406 v -0.16406 l -0.29297,-0.0234 c -0.35156,-0.0586 -0.46875,-0.22266 -0.46875,-0.64453 v -2.27344 c 0,-1.30078 -0.43359,-1.95703 -1.27734,-1.95703 -0.63281,0 -1.19531,0.28125 -1.79297,0.92578 -0.19922,-0.63281 -0.57422,-0.92578 -1.17187,-0.92578 -0.49219,0 -0.78516,0.14062 -1.69922,0.84375 v -0.82031 l -0.082,-0.0234 c -0.57422,0.21094 -0.94922,0.32812 -1.53516,0.49219 v 0.1875 c 0.12891,-0.0352 0.23437,-0.0352 0.35156,-0.0352 0.28125,0 0.38672,0.17578 0.38672,0.70312 v 2.77735 c -0.0234,0.62109 -0.16406,0.77344 -0.77344,0.77344 z m 8.80371,1.94531 c 0.8086,-0.53906 1.13672,-0.80859 1.54688,-1.3125 0.78516,-0.96094 1.17187,-2.0625 1.17187,-3.35156 0,-1.40625 -0.41015,-2.47266 -1.38281,-3.59766 -0.44531,-0.52734 -0.73828,-0.77344 -1.3125,-1.125 l -0.1289,0.17578 c 0.8789,0.69141 1.18359,1.07813 1.48828,1.91016 0.26953,0.73828 0.38672,1.55859 0.38672,2.67187 0,1.14844 -0.14063,2.05079 -0.44532,2.73047 -0.29297,0.67969 -0.63281,1.08985 -1.42968,1.72266 z m 0,0"
       style="fill:#231f20;fill-opacity:1;fill-rule:nonzero;stroke:none"
       aria-label="time (sec)0.20.40.60.81.0&#10;0.00&#10;displacement  (m)"
       transform="matrix(1.3333333,0,0,1.3333333,258.43333,175.92667)" />
    <path
       id="path12"
       d="m 344.25,481.25 142,567 141,-851 142,284 h 992"
       style="fill:none;stroke:#231f20;stroke-width:10;stroke-linecap:butt;stroke-linejoin:miter;stroke-miterlimit:3.8637;stroke-dasharray:none;stroke-opacity:1"
       transform="matrix(0.13333333,0,0,-0.13333333,0,182.49333)" />
    <path
       id="path13"
       d="m 3.7507813,-7.4420703 c -1.7226563,0 -3.39843755,2.5078125 -3.39843755,5.0976562 0,1.45312504 0.70312505,2.42578129 1.76953125,2.42578129 0.4804688,0 0.9375,-0.17578125 1.3945313,-0.515625 1.1132812,-0.80859379 1.9570312,-2.63671879 1.9570312,-4.21874999 0,-1.7460938 -0.65625,-2.7890625 -1.7226562,-2.7890625 z m -0.058594,0.3164062 c 0.5742188,0 0.9140625,0.5039063 0.9140625,1.3828125 0,1.4765625 -0.4453125,3.2929688 -1.078125,4.40625 -0.4101562,0.72656254 -0.8671875,1.10156254 -1.3710937,1.10156254 -0.5859375,0 -0.9375,-0.55078125 -0.9375,-1.47656254 0,-1.1835937 0.5625,-3.3515625 1.1367187,-4.3710937 0.4101563,-0.703125 0.8203125,-1.0429688 1.3359375,-1.0429688 z m 2.7099609,6.0234375 c -0.328125,0 -0.609375,0.28125004 -0.609375,0.63281254 0,0.31640625 0.28125,0.5859375 0.5859375,0.5859375 0.3515625,0 0.6445313,-0.2578125 0.6445313,-0.5859375 0,-0.33984375 -0.2929688,-0.63281254 -0.6210938,-0.63281254 z M 8.7898438,-6.640625e-4 H 11.860156 V -0.16472656 h -0.1875 c -0.539062,0 -0.761718,-0.10546875 -0.761718,-0.3515625 0,-0.10546875 0.03516,-0.26953125 0.140625,-0.57421874 0.01172,-0.082031 0.02344,-0.1289063 0.05859,-0.2460938 l 1.570313,-5.7070312 c 0.05859,-0.1992188 0.07031,-0.2578125 0.07031,-0.3164063 0,-0.046875 -0.02344,-0.082031 -0.05859,-0.082031 0,0 -0.304688,0.058594 -0.902344,0.1757812 l -0.984375,0.1992188 c -0.02344,0.011719 -0.105469,0.023437 -0.234375,0.046875 v 0.1640625 l 0.632812,-0.023437 c 0.246094,-0.011719 0.410157,0.1171875 0.410157,0.3398437 0,0.082031 -0.02344,0.1523438 -0.07031,0.375 l -1.523437,5.41406254 c -0.1289067,0.41015625 -0.3632817,0.515625 -1.2304692,0.59765625 z M 16.899219,-1.6061328 16.676563,0.13996094 h 0.175781 c 0.09375,-0.1875 0.140625,-0.234375 0.269531,-0.234375 0.117188,0 0.316406,0.046875 0.539063,0.10546875 0.246093,0.08203125 0.410156,0.10546875 0.597656,0.10546875 0.925781,0 1.582031,-0.5859375 1.582031,-1.42968754 0,-0.421875 -0.222656,-0.9023437 -0.738281,-1.5351562 -0.421875,-0.515625 -0.597656,-0.8554688 -0.597656,-1.171875 0,-0.3632813 0.234375,-0.5859375 0.609375,-0.5859375 0.574218,0 0.902343,0.4101562 1.019531,1.265625 h 0.175781 l 0.222656,-1.5234375 h -0.152343 c -0.105469,0.1523437 -0.175782,0.1992187 -0.339844,0.1992187 -0.08203,0 -0.1875,-0.023437 -0.386719,-0.082031 -0.28125,-0.082031 -0.433594,-0.1054688 -0.621094,-0.1054688 -0.820312,0 -1.335937,0.46875 -1.335937,1.2070313 0,0.3515625 0.234375,0.8320312 0.703125,1.4179687 0.421875,0.5625 0.609375,0.9492188 0.609375,1.26562504 0,0.515625 -0.328125,0.85546875 -0.808594,0.85546875 -0.621094,0 -0.949219,-0.45703125 -1.125,-1.49999999 z m 7.816406,0.4101562 c -0.785156,0.64453129 -1.136719,0.82031254 -1.617187,0.82031254 -0.609375,0 -1.019532,-0.3984375 -1.019532,-0.99609374 0,-0.1640625 0.02344,-0.328125 0.105469,-0.6796875 l 0.304688,-0.035156 c 1.652343,-0.234375 2.824218,-1.0664062 2.824218,-2.015625 0,-0.46875 -0.328125,-0.75 -0.878906,-0.75 -1.582031,0 -3.316406,1.8046875 -3.316406,3.46875 0,0.89062504 0.597656,1.50000004 1.453125,1.50000004 0.785156,0 1.628906,-0.4453125 2.273437,-1.18359374 z m -2.261719,-1.5820312 c 0.375,-0.9726563 1.183594,-1.828125 1.746094,-1.828125 0.234375,0 0.386719,0.1757812 0.386719,0.4335937 0,0.3398438 -0.210938,0.7382813 -0.550781,1.0664063 -0.410157,0.3867187 -0.820313,0.5859375 -1.769532,0.8203125 z m 7.063477,1.6054687 c -0.609375,0.65625004 -1.042969,0.90234379 -1.582031,0.90234379 -0.621094,0 -0.996094,-0.46875 -0.996094,-1.26562499 0,-0.9257813 0.386719,-1.921875 0.996094,-2.5546875 0.328125,-0.328125 0.761718,-0.5273438 1.207031,-0.5273438 0.246094,0 0.398437,0.082031 0.398437,0.2109375 0,0.058594 -0.01172,0.1171875 -0.05859,0.2109375 -0.08203,0.140625 -0.105469,0.2109375 -0.105469,0.3164063 0,0.2695312 0.164062,0.421875 0.433594,0.421875 0.304687,0 0.527343,-0.2109375 0.527343,-0.5039063 0,-0.515625 -0.480468,-0.890625 -1.160156,-0.890625 -1.640625,0 -3.1875,1.6054688 -3.1875,3.3164063 0,1.05468749 0.597656,1.65234374 1.617188,1.65234374 0.832031,0 1.40625,-0.328125 2.085937,-1.17187504 z M 47.950977,27.658516 c -1.722657,0 -3.398438,2.507812 -3.398438,5.097656 0,1.453125 0.703125,2.425781 1.769531,2.425781 0.480469,0 0.9375,-0.175781 1.394532,-0.515625 1.113281,-0.808594 1.957031,-2.636719 1.957031,-4.21875 0,-1.746094 -0.65625,-2.789062 -1.722656,-2.789062 z m -0.05859,0.316406 c 0.574219,0 0.914062,0.503906 0.914062,1.382812 0,1.476563 -0.445312,3.292969 -1.078125,4.40625 -0.410156,0.726563 -0.867187,1.101563 -1.371093,1.101563 -0.585938,0 -0.9375,-0.550781 -0.9375,-1.476563 0,-1.183593 0.5625,-3.351562 1.136718,-4.371093 0.410157,-0.703125 0.820313,-1.042969 1.335938,-1.042969 z m 2.709961,6.023437 c -0.328125,0 -0.609375,0.28125 -0.609375,0.632813 0,0.316406 0.28125,0.585937 0.585937,0.585937 0.351563,0 0.644532,-0.257812 0.644532,-0.585937 0,-0.339844 -0.292969,-0.632813 -0.621094,-0.632813 z m 3.805664,-5.132812 c 0.386719,-0.527344 0.761719,-0.738281 1.21875,-0.738281 0.597656,0 0.984375,0.386718 0.984375,0.996093 0,0.46875 -0.234375,0.855469 -0.703125,1.183594 -0.480469,0.316406 -0.949219,0.480469 -1.921875,0.644531 v 0.175782 c 0.621094,0 0.726562,0.01172 1.019531,0.105468 0.667969,0.257813 1.019531,0.855469 1.019531,1.734375 0,0.386719 -0.08203,0.785157 -0.234375,1.042969 -0.257812,0.445313 -0.75,0.75 -1.207031,0.75 -0.210937,0 -0.445312,-0.105469 -0.785156,-0.351562 -0.316406,-0.234375 -0.492188,-0.304688 -0.703125,-0.304688 -0.304688,0 -0.480469,0.152344 -0.480469,0.421875 0,0.421875 0.445313,0.65625 1.230469,0.65625 0.621094,0 1.195312,-0.152344 1.640625,-0.410156 0.867187,-0.503906 1.417969,-1.429688 1.417969,-2.414063 0,-0.796875 -0.316407,-1.300781 -1.042969,-1.640625 v -0.03516 c 1.324219,-0.515625 1.710937,-0.878906 1.710937,-1.628906 0,-0.796875 -0.65625,-1.394531 -1.546875,-1.394531 -0.761718,0 -1.441406,0.433593 -1.792968,1.148437 z m 6.691406,4.628906 -0.222656,1.746094 h 0.175781 c 0.09375,-0.1875 0.140625,-0.234375 0.269531,-0.234375 0.117188,0 0.316407,0.04687 0.539063,0.105469 0.246094,0.08203 0.410156,0.105468 0.597656,0.105468 0.925781,0 1.582031,-0.585937 1.582031,-1.429687 0,-0.421875 -0.222656,-0.902344 -0.738281,-1.535156 -0.421875,-0.515625 -0.597656,-0.855469 -0.597656,-1.171875 0,-0.363282 0.234375,-0.585938 0.609375,-0.585938 0.574219,0 0.902344,0.410156 1.019531,1.265625 h 0.175781 l 0.222657,-1.523437 h -0.152344 c -0.105469,0.152343 -0.175781,0.199218 -0.339844,0.199218 -0.08203,0 -0.1875,-0.02344 -0.386719,-0.08203 -0.28125,-0.08203 -0.433593,-0.105469 -0.621093,-0.105469 -0.820313,0 -1.335938,0.46875 -1.335938,1.207032 0,0.351562 0.234375,0.832031 0.703125,1.417968 0.421875,0.5625 0.609375,0.949219 0.609375,1.265625 0,0.515625 -0.328125,0.855469 -0.808594,0.855469 -0.621093,0 -0.949218,-0.457031 -1.125,-1.5 z m 7.816406,0.410156 c -0.785156,0.644532 -1.136718,0.820313 -1.617187,0.820313 -0.609375,0 -1.019531,-0.398438 -1.019531,-0.996094 0,-0.164062 0.02344,-0.328125 0.105468,-0.679687 l 0.304688,-0.03516 c 1.652344,-0.234375 2.824219,-1.066406 2.824219,-2.015625 0,-0.46875 -0.328125,-0.75 -0.878907,-0.75 -1.582031,0 -3.316406,1.804688 -3.316406,3.46875 0,0.890625 0.597656,1.5 1.453125,1.5 0.785156,0 1.628906,-0.445312 2.273438,-1.183593 z m -2.261718,-1.582031 c 0.375,-0.972656 1.183593,-1.828125 1.746093,-1.828125 0.234375,0 0.386719,0.175781 0.386719,0.433594 0,0.339844 -0.210937,0.738281 -0.550781,1.066406 -0.410156,0.386719 -0.820313,0.585938 -1.769531,0.820313 z m 7.063476,1.605469 c -0.609375,0.65625 -1.042969,0.902344 -1.582031,0.902344 -0.621094,0 -0.996094,-0.46875 -0.996094,-1.265625 0,-0.925782 0.386719,-1.921875 0.996094,-2.554688 0.328125,-0.328125 0.761719,-0.527344 1.207031,-0.527344 0.246094,0 0.398438,0.08203 0.398438,0.210938 0,0.05859 -0.01172,0.117187 -0.05859,0.210937 -0.08203,0.140625 -0.105469,0.210938 -0.105469,0.316407 0,0.269531 0.164063,0.421875 0.433594,0.421875 0.304687,0 0.527344,-0.210938 0.527344,-0.503907 0,-0.515625 -0.480469,-0.890625 -1.160157,-0.890625 -1.640625,0 -3.1875,1.605469 -3.1875,3.316407 0,1.054687 0.597657,1.652343 1.617188,1.652343 0.832031,0 1.40625,-0.328125 2.085937,-1.171875 z m 0,0"
       style="fill:#231f20;fill-opacity:1;fill-rule:nonzero;stroke:none"
       aria-label="0.1 sec&#10;0.3 sec"
       transform="matrix(1.3333333,0,0,1.3333333,91.233333,33.926667)" />
    <path
       id="path14"
       d="m 656.25,1133.25 c -57.098,-85.28 -75.441,-56.93 -135,-74"
       style="fill:none;stroke:#231f20;stroke-width:2.5;stroke-linecap:butt;stroke-linejoin:miter;stroke-miterlimit:3.8637;stroke-dasharray:none;stroke-opacity:1"
       transform="matrix(0.13333333,0,0,-0.13333333,0,182.49333)" />
    <path
       id="path15"
       d="m 521.25,1059.25 14,-12 -42,4 34,25 -6,-17"
       style="fill:#231f20;fill-opacity:1;fill-rule:evenodd;stroke:none"
       transform="matrix(0.13333333,0,0,-0.13333333,0,182.49333)" />
    <path
       id="path16"
       d="m 1088.25,789.25 c -99.848,-0.129 -121.094,-32.637 -185,-80 -24.844,-18.887 -39.848,-28.883 -60,-45 -46.098,-37.633 -53.594,-65.133 -65,-125"
       style="fill:none;stroke:#231f20;stroke-width:2.5;stroke-linecap:butt;stroke-linejoin:miter;stroke-miterlimit:3.8637;stroke-dasharray:none;stroke-opacity:1"
       transform="matrix(0.13333333,0,0,-0.13333333,0,182.49333)" />
    <path
       id="path17"
       d="m 778.25,539.25 17,7 -23,-37 -7,43 13,-13"
       style="fill:#231f20;fill-opacity:1;fill-rule:evenodd;stroke:none"
       transform="matrix(0.13333333,0,0,-0.13333333,0,182.49333)" />
    <path
       id="path18"
       d="m 315.25,1048.25 h 57"
       style="fill:none;stroke:#231f20;stroke-width:2.5;stroke-linecap:butt;stroke-linejoin:miter;stroke-miterlimit:3.8637;stroke-dasharray:none;stroke-opacity:1"
       transform="matrix(0.13333333,0,0,-0.13333333,0,182.49333)" />
    <path
       id="path19"
       d="m 2.8007813,-7.4422656 c -0.609375,0 -1.078125,0.1757812 -1.4765625,0.5742187 -0.6445313,0.6210938 -1.05468755,1.8867188 -1.05468755,3.1640625 0,1.21875 0.36328125,2.4960938 0.87890625,3.10546877 0.3984375,0.4921875 0.9609375,0.75 1.6054688,0.75 0.5625,0 1.03125,-0.1875 1.4296875,-0.57421875 0.6328125,-0.59765622 1.0546875,-1.87500002 1.0546875,-3.21093752 0,-2.25 -0.9960938,-3.8085937 -2.4375,-3.8085937 z m -0.035156,0.2929687 c 0.9257813,0 1.4179688,1.2421875 1.4179688,3.5390625 0,2.296875 -0.4804688,3.48046877 -1.4296875,3.48046877 -0.9492188,0 -1.4296875,-1.18359377 -1.4296875,-3.46874997 0,-2.34375 0.4921875,-3.5507813 1.4414062,-3.5507813 z m 4.1044922,6.046875 c -0.328125,0 -0.5976563,0.28125002 -0.5976563,0.63281252 0,0.31640625 0.2695313,0.5859375 0.5859375,0.5859375 0.3515625,0 0.6328125,-0.2578125 0.6328125,-0.5859375 0,-0.33984375 -0.28125,-0.63281252 -0.6210937,-0.63281252 z m 4.1806635,-6.3398437 c -0.609375,0 -1.0781244,0.1757812 -1.4765619,0.5742187 -0.6445313,0.6210938 -1.0546875,1.8867188 -1.0546875,3.1640625 0,1.21875 0.3632812,2.4960938 0.8789062,3.10546877 0.3984375,0.4921875 0.9609372,0.75 1.6054682,0.75 0.5625,0 1.03125,-0.1875 1.429688,-0.57421875 0.632812,-0.59765622 1.054687,-1.87500002 1.054687,-3.21093752 0,-2.25 -0.996093,-3.8085937 -2.4375,-3.8085937 z m -0.03516,0.2929687 c 0.925781,0 1.417969,1.2421875 1.417969,3.5390625 0,2.296875 -0.480469,3.48046877 -1.429688,3.48046877 -0.949218,0 -1.4296869,-1.18359377 -1.4296869,-3.46874997 0,-2.34375 0.4921869,-3.5507813 1.4414059,-3.5507813 z m 4.03418,7.148437525 h 3.035156 V -0.16492188 c -0.84375,0 -1.03125,-0.1171875 -1.042969,-0.64453125 V -7.4188281 l -0.09375,-0.023437 -1.980469,1.0078125 v 0.1523437 c 0.433594,-0.1640625 0.691407,-0.2460937 0.796875,-0.2460937 0.234375,0 0.328125,0.1640625 0.328125,0.515625 v 4.9921875 c -0.02344,0.69140622 -0.210937,0.84374997 -1.042968,0.85546872 z M 2.8007813,-35.740117 c -0.609375,0 -1.078125,0.175781 -1.4765625,0.574219 -0.6445313,0.621093 -1.05468755,1.886718 -1.05468755,3.164062 0,1.21875 0.36328125,2.496094 0.87890625,3.105469 0.3984375,0.492187 0.9609375,0.75 1.6054688,0.75 0.5625,0 1.03125,-0.1875 1.4296875,-0.574219 0.6328125,-0.597656 1.0546875,-1.875 1.0546875,-3.210937 0,-2.25 -0.9960938,-3.808594 -2.4375,-3.808594 z m -0.035156,0.292969 c 0.9257813,0 1.4179688,1.242187 1.4179688,3.539062 0,2.296875 -0.4804688,3.480469 -1.4296875,3.480469 -0.9492188,0 -1.4296875,-1.183594 -1.4296875,-3.46875 0,-2.34375 0.4921875,-3.550781 1.4414062,-3.550781 z m 4.1044922,6.046875 c -0.328125,0 -0.5976563,0.28125 -0.5976563,0.632812 0,0.316406 0.2695313,0.585938 0.5859375,0.585938 0.3515625,0 0.6328125,-0.257813 0.6328125,-0.585938 0,-0.339844 -0.28125,-0.632812 -0.6210937,-0.632812 z m 4.1806635,-6.339844 c -0.609375,0 -1.0781244,0.175781 -1.4765619,0.574219 -0.6445313,0.621093 -1.0546875,1.886718 -1.0546875,3.164062 0,1.21875 0.3632812,2.496094 0.8789062,3.105469 0.3984375,0.492187 0.9609372,0.75 1.6054682,0.75 0.5625,0 1.03125,-0.1875 1.429688,-0.574219 0.632812,-0.597656 1.054687,-1.875 1.054687,-3.210937 0,-2.25 -0.996093,-3.808594 -2.4375,-3.808594 z m -0.03516,0.292969 c 0.925781,0 1.417969,1.242187 1.417969,3.539062 0,2.296875 -0.480469,3.480469 -1.429688,3.480469 -0.949218,0 -1.4296869,-1.183594 -1.4296869,-3.46875 0,-2.34375 0.4921869,-3.550781 1.4414059,-3.550781 z m 7.959961,5.636718 -0.140625,-0.04687 c -0.410156,0.632813 -0.527344,0.714844 -1.042969,0.726563 h -2.636719 l 1.851563,-1.945313 c 0.984375,-1.019531 1.40625,-1.851562 1.40625,-2.71875 0,-1.089843 -0.890625,-1.945312 -2.039063,-1.945312 -0.597656,0 -1.171875,0.246094 -1.582031,0.679687 -0.351562,0.375 -0.515625,0.726563 -0.703125,1.511719 l 0.234375,0.05859 c 0.433594,-1.078125 0.820313,-1.429688 1.59375,-1.429688 0.9375,0 1.546875,0.621094 1.546875,1.546875 0,0.867188 -0.503906,1.886719 -1.429687,2.859375 l -1.957032,2.085938 v 0.128906 h 4.289063 z M -2.4667969,53.876094 V 54.5675 H 0.24023438 V 53.876094 Z M 3.5625,49.258906 c -0.609375,0 -1.078125,0.175781 -1.4765625,0.574219 -0.6445312,0.621094 -1.0546875,1.886719 -1.0546875,3.164062 0,1.21875 0.3632813,2.496094 0.8789063,3.105469 0.3984375,0.492188 0.9609375,0.75 1.6054687,0.75 0.5625,0 1.03125,-0.1875 1.4296875,-0.574219 C 5.578125,55.680781 6,54.403437 6,53.0675 6,50.8175 5.0039063,49.258906 3.5625,49.258906 Z m -0.035156,0.292969 c 0.9257812,0 1.4179687,1.242187 1.4179687,3.539062 0,2.296875 -0.4804687,3.480469 -1.4296875,3.480469 -0.9492187,0 -1.4296875,-1.183594 -1.4296875,-3.46875 0,-2.34375 0.4921875,-3.550781 1.4414063,-3.550781 z m 4.1074218,6.046875 c -0.328125,0 -0.5976562,0.28125 -0.5976562,0.632812 0,0.316407 0.2695312,0.585938 0.5859375,0.585938 0.3515625,0 0.6328125,-0.257813 0.6328125,-0.585938 0,-0.339843 -0.28125,-0.632812 -0.6210938,-0.632812 z M 11.8125,49.258906 c -0.609375,0 -1.078125,0.175781 -1.476562,0.574219 -0.6445317,0.621094 -1.054688,1.886719 -1.054688,3.164062 0,1.21875 0.3632813,2.496094 0.878906,3.105469 0.398438,0.492188 0.960938,0.75 1.605469,0.75 0.5625,0 1.03125,-0.1875 1.429688,-0.574219 0.632812,-0.597656 1.054687,-1.875 1.054687,-3.210937 0,-2.25 -0.996094,-3.808594 -2.4375,-3.808594 z m -0.03516,0.292969 c 0.925781,0 1.417969,1.242187 1.417969,3.539062 0,2.296875 -0.480469,3.480469 -1.429688,3.480469 -0.949219,0 -1.429687,-1.183594 -1.429687,-3.46875 0,-2.34375 0.492187,-3.550781 1.441406,-3.550781 z m 4.037109,7.148437 h 3.035156 V 56.53625 c -0.84375,0 -1.03125,-0.117188 -1.042968,-0.644531 v -6.609375 l -0.09375,-0.02344 -1.980469,1.007813 v 0.152343 c 0.433594,-0.164062 0.691406,-0.246093 0.796875,-0.246093 0.234375,0 0.328125,0.164062 0.328125,0.515625 v 4.992187 c -0.02344,0.691406 -0.210938,0.84375 -1.042969,0.855469 z m 0,0"
       style="fill:#231f20;fill-opacity:1;fill-rule:nonzero;stroke:none"
       aria-label="0.01&#10;0.02&#10;-0.01"
       transform="matrix(1.3333333,0,0,1.3333333,7.5,84.993333)" />
  </g>
</svg>
