<?xml version="1.0" encoding="UTF-8" standalone="no"?>
<!-- Created with Inkscape (http://www.inkscape.org/) -->

<svg
   version="1.1"
   id="svg1"
   width="446.66666"
   height="328"
   viewBox="0 0 446.66666 328"
   sodipodi:docname="exn2_3.eps"
   xmlns:inkscape="http://www.inkscape.org/namespaces/inkscape"
   xmlns:sodipodi="http://sodipodi.sourceforge.net/DTD/sodipodi-0.dtd"
   xmlns="http://www.w3.org/2000/svg"
   xmlns:svg="http://www.w3.org/2000/svg">
  <defs
     id="defs1">
    <clipPath
       clipPathUnits="userSpaceOnUse"
       id="clipPath37">
      <path
         d="m 85.832,132.5 h 3260 v 2173.33 h -3260 z"
         id="path37" />
    </clipPath>
    <clipPath
       clipPathUnits="userSpaceOnUse"
       id="clipPath41">
      <path
         d="m 85.832,132.5 h 3260 v 2173.33 h -3260 z"
         id="path41" />
    </clipPath>
    <clipPath
       clipPathUnits="userSpaceOnUse"
       id="clipPath45">
      <path
         d="m 85.832,132.5 h 3260 v 2173.33 h -3260 z"
         id="path45" />
    </clipPath>
    <clipPath
       clipPathUnits="userSpaceOnUse"
       id="clipPath49">
      <path
         d="m 85.832,132.5 h 3260 v 2173.33 h -3260 z"
         id="path49" />
    </clipPath>
    <clipPath
       clipPathUnits="userSpaceOnUse"
       id="clipPath51">
      <path
         d="m 85.832,132.5 h 3260 v 2173.33 h -3260 z"
         id="path51" />
    </clipPath>
    <clipPath
       clipPathUnits="userSpaceOnUse"
       id="clipPath53">
      <path
         d="m 85.832,132.5 h 3260 v 2173.33 h -3260 z"
         id="path53" />
    </clipPath>
    <clipPath
       clipPathUnits="userSpaceOnUse"
       id="clipPath55">
      <path
         d="m 85.832,132.5 h 3260 v 2173.33 h -3260 z"
         id="path55" />
    </clipPath>
    <clipPath
       clipPathUnits="userSpaceOnUse"
       id="clipPath57">
      <path
         d="m 85.832,132.5 h 3260 v 2173.33 h -3260 z"
         id="path57" />
    </clipPath>
    <clipPath
       clipPathUnits="userSpaceOnUse"
       id="clipPath59">
      <path
         d="m 85.832,132.5 h 3260 v 2173.33 h -3260 z"
         id="path59" />
    </clipPath>
    <clipPath
       clipPathUnits="userSpaceOnUse"
       id="clipPath61">
      <path
         d="m 85.832,132.5 h 3260 v 2173.33 h -3260 z"
         id="path61" />
    </clipPath>
    <clipPath
       clipPathUnits="userSpaceOnUse"
       id="clipPath63">
      <path
         d="m 85.832,132.5 h 3260 v 2173.33 h -3260 z"
         id="path63" />
    </clipPath>
    <clipPath
       clipPathUnits="userSpaceOnUse"
       id="clipPath65">
      <path
         d="m 85.832,132.5 h 3260 v 2173.33 h -3260 z"
         id="path65" />
    </clipPath>
  </defs>
  <sodipodi:namedview
     id="namedview1"
     pagecolor="#ffffff"
     bordercolor="#000000"
     borderopacity="0.25"
     inkscape:showpageshadow="2"
     inkscape:pageopacity="0.0"
     inkscape:pagecheckerboard="0"
     inkscape:deskcolor="#d1d1d1">
    <inkscape:page
       x="0"
       y="0"
       inkscape:label="1"
       id="page1"
       width="446.66666"
       height="328"
       margin="0"
       bleed="0" />
  </sodipodi:namedview>
  <g
     id="g1"
     inkscape:groupmode="layer"
     inkscape:label="1">
    <path
       id="path1"
       d="M 0,0 H 3350 V 2460 H 0 Z"
       style="fill:#ffffff;fill-opacity:1;fill-rule:nonzero;stroke:none"
       transform="matrix(0.13333333,0,0,-0.13333333,0,328)" />
    <path
       id="path2"
       d="m 85.832,133.332 h 3259.17 v 2172.5 H 85.832 Z"
       style="fill:#ffffff;fill-opacity:1;fill-rule:evenodd;stroke:none"
       transform="matrix(0.13333333,0,0,-0.13333333,0,328)" />
    <path
       id="path3"
       d="M 85.832,133.332 V 2305.83 H 3345 V 133.332 H 85.832"
       style="fill:none;stroke:#ffffff;stroke-width:5;stroke-linecap:butt;stroke-linejoin:round;stroke-miterlimit:10;stroke-dasharray:none;stroke-opacity:1"
       transform="matrix(0.13333333,0,0,-0.13333333,0,328)" />
    <path
       id="path4"
       d="M 85.832,133.332 H 3345"
       style="fill:none;stroke:#000000;stroke-width:5;stroke-linecap:butt;stroke-linejoin:round;stroke-miterlimit:10;stroke-dasharray:none;stroke-opacity:1"
       transform="matrix(0.13333333,0,0,-0.13333333,0,328)" />
    <path
       id="path5"
       d="M 85.832,133.332 V 2305.83"
       style="fill:none;stroke:#000000;stroke-width:5;stroke-linecap:butt;stroke-linejoin:round;stroke-miterlimit:10;stroke-dasharray:none;stroke-opacity:1"
       transform="matrix(0.13333333,0,0,-0.13333333,0,328)" />
    <path
       id="path6"
       d="m 267.5,133.332 v 32.5"
       style="fill:none;stroke:#000000;stroke-width:5;stroke-linecap:butt;stroke-linejoin:round;stroke-miterlimit:10;stroke-dasharray:none;stroke-opacity:1"
       transform="matrix(0.13333333,0,0,-0.13333333,0,328)" />
    <path
       id="path7"
       d="M 5.4376922,-2.6728516 H 0.39862969 v 0.703125 H 5.4376922 Z M 8.4289031,-5.1455078 V -9.765625e-4 H 9.3078094 V -7.2314453 H 8.7335906 c -0.3164062,1.1132812 -0.515625,1.265625 -1.875,1.4414062 v 0.6445313 z m 0,0"
       style="fill:#000000;fill-opacity:1;fill-rule:nonzero;stroke:none"
       aria-label="−1"
       transform="matrix(1.3333333,0,0,1.3333333,24.2224,326.33333)" />
    <path
       id="path8"
       d="m 629.168,133.332 v 32.5"
       style="fill:none;stroke:#000000;stroke-width:5;stroke-linecap:butt;stroke-linejoin:round;stroke-miterlimit:10;stroke-dasharray:none;stroke-opacity:1"
       transform="matrix(0.13333333,0,0,-0.13333333,0,328)" />
    <path
       id="path9"
       d="m 2.7540984,-7.2314453 c -0.6679687,0 -1.265625,0.3046875 -1.6289062,0.796875 -0.46875001,0.6328125 -0.69140626,1.59375 -0.69140626,2.9296875 0,2.4492187 0.79687496,3.73828124 2.32031246,3.73828124 1.5,0 2.3085938,-1.28906254 2.3085938,-3.66796874 0,-1.40625 -0.2109375,-2.34375 -0.6796875,-3 -0.375,-0.5039063 -0.9609375,-0.796875 -1.6289063,-0.796875 z m 0,0.7851562 c 0.9492188,0 1.4179688,0.9726563 1.4179688,2.9296875 0,2.0507813 -0.46875,3.01171879 -1.4414063,3.01171879 -0.9257812,0 -1.40625,-0.99609379 -1.40625,-2.98828129 0,-1.9804687 0.4804688,-2.953125 1.4296875,-2.953125 z m 0,0"
       style="fill:#000000;fill-opacity:1;fill-rule:nonzero;stroke:none"
       aria-label="0"
       transform="matrix(1.3333333,0,0,1.3333333,80.2224,326.33333)" />
    <path
       id="path10"
       d="m 991.668,133.332 v 32.5"
       style="fill:none;stroke:#000000;stroke-width:5;stroke-linecap:butt;stroke-linejoin:round;stroke-miterlimit:10;stroke-dasharray:none;stroke-opacity:1"
       transform="matrix(0.13333333,0,0,-0.13333333,0,328)" />
    <path
       id="path11"
       d="M 2.5890594,-5.1455078 V -9.765625e-4 H 3.4679656 V -7.2314453 H 2.8937469 c -0.3164063,1.1132812 -0.515625,1.265625 -1.875,1.4414062 v 0.6445313 z m 0,0"
       style="fill:#000000;fill-opacity:1;fill-rule:nonzero;stroke:none"
       aria-label="1"
       transform="matrix(1.3333333,0,0,1.3333333,128.55573,326.33333)" />
    <path
       id="path12"
       d="m 1353.33,133.332 v 32.5"
       style="fill:none;stroke:#000000;stroke-width:5;stroke-linecap:butt;stroke-linejoin:round;stroke-miterlimit:10;stroke-dasharray:none;stroke-opacity:1"
       transform="matrix(0.13333333,0,0,-0.13333333,0,328)" />
    <path
       id="path13"
       d="M 5.0625078,-0.86816406 H 1.3242266 C 1.4179766,-1.4658203 1.7343828,-1.8525391 2.6132891,-2.3798828 l 0.9960937,-0.5625 c 0.984375,-0.5507813 1.5,-1.2890625 1.5,-2.1796875 0,-0.5976563 -0.2460937,-1.1601563 -0.65625,-1.546875 -0.421875,-0.375 -0.9492187,-0.5625 -1.6171875,-0.5625 -0.9023437,0 -1.5703125,0.328125 -1.95703124,0.9375 -0.24609375,0.3867187 -0.36328125,0.8320312 -0.375,1.5703125 H 1.3828203 c 0.023437,-0.4921875 0.082031,-0.7851563 0.2109375,-1.0195313 0.2226563,-0.4453125 0.6796875,-0.7148437 1.21875,-0.7148437 0.796875,0 1.3945313,0.5742187 1.3945313,1.359375 0,0.5742187 -0.328125,1.078125 -0.9609375,1.4414062 l -0.9140625,0.5390625 c -1.47656254,0.84375 -1.91015629,1.5234375 -1.99218754,3.10546879 H 5.0625078 Z m 0,0"
       style="fill:#000000;fill-opacity:1;fill-rule:nonzero;stroke:none"
       aria-label="2"
       transform="matrix(1.3333333,0,0,1.3333333,176.77733,326.33333)" />
    <path
       id="path14"
       d="m 1715.83,133.332 v 32.5"
       style="fill:none;stroke:#000000;stroke-width:5;stroke-linecap:butt;stroke-linejoin:round;stroke-miterlimit:10;stroke-dasharray:none;stroke-opacity:1"
       transform="matrix(0.13333333,0,0,-0.13333333,0,328)" />
    <path
       id="path15"
       d="m 2.213875,-3.3291016 h 0.46875 c 0.9609375,0 1.4765625,0.4453125 1.4765625,1.3242188 0,0.9023437 -0.5507812,1.45312499 -1.4648437,1.45312499 -0.9609375,0 -1.4414063,-0.49218749 -1.5,-1.54687499 H 0.3154375 c 0.046875,0.5742187 0.140625,0.9609375 0.31640625,1.27734374 0.36328125,0.703125 1.05468755,1.0546875 2.02734375,1.0546875 1.453125,0 2.4023438,-0.87890625 2.4023438,-2.25000004 0,-0.9257812 -0.3515625,-1.4179687 -1.2070313,-1.7226562 0.6679688,-0.2695313 0.9960938,-0.7734375 0.9960938,-1.5 0,-1.2421875 -0.8085938,-1.9921875 -2.1679688,-1.9921875 -1.4296875,0 -2.1796875,0.8085937 -2.21484375,2.3320312 H 1.3466875 c 0.011719,-0.4453125 0.046875,-0.6914062 0.1640625,-0.9140625 0.1992188,-0.4101562 0.6328125,-0.6445312 1.1835938,-0.6445312 0.7851562,0 1.2539062,0.46875 1.2539062,1.2539062 0,0.5039063 -0.1757812,0.8203125 -0.5742187,0.984375 -0.234375,0.1054688 -0.5507813,0.140625 -1.1601563,0.1523438 z m 0,0"
       style="fill:#000000;fill-opacity:1;fill-rule:nonzero;stroke:none"
       aria-label="3"
       transform="matrix(1.3333333,0,0,1.3333333,225.11067,326.33333)" />
    <path
       id="path16"
       d="m 2077.5,133.332 v 32.5"
       style="fill:none;stroke:#000000;stroke-width:5;stroke-linecap:butt;stroke-linejoin:round;stroke-miterlimit:10;stroke-dasharray:none;stroke-opacity:1"
       transform="matrix(0.13333333,0,0,-0.13333333,0,328)" />
    <path
       id="path17"
       d="M 3.2685547,-1.7470703 V -9.765625e-4 H 4.1474609 V -1.7470703 h 1.0546875 v -0.796875 H 4.1474609 v -4.6875 H 3.5029297 l -3.22265626,4.546875 v 0.9375 z m 0,-0.796875 H 1.0537109 l 2.2148438,-3.1875 z m 0,0"
       style="fill:#000000;fill-opacity:1;fill-rule:nonzero;stroke:none"
       aria-label="4"
       transform="matrix(1.3333333,0,0,1.3333333,273.33333,326.33333)" />
    <path
       id="path18"
       d="m 2439.17,133.332 v 32.5"
       style="fill:none;stroke:#000000;stroke-width:5;stroke-linecap:butt;stroke-linejoin:round;stroke-miterlimit:10;stroke-dasharray:none;stroke-opacity:1"
       transform="matrix(0.13333333,0,0,-0.13333333,0,328)" />
    <path
       id="path19"
       d="m 4.7568281,-7.0908203 h -3.65625 L 0.57323438,-3.2353516 H 1.3818281 c 0.4101563,-0.4804687 0.75,-0.65625 1.3007813,-0.65625 0.9492187,0 1.546875,0.65625 1.546875,1.6992188 0,1.0195312 -0.5976563,1.64062499 -1.546875,1.64062499 -0.7734375,0 -1.2421875,-0.38671875 -1.453125,-1.18359379 H 0.35057813 c 0.1171875,0.5742188 0.22265625,0.85546879 0.43359375,1.11328129 0.39843752,0.5390625 1.11328122,0.85546875 1.91015622,0.85546875 1.4296875,0 2.4375,-1.04296875 2.4375,-2.54296874 0,-1.3945313 -0.9375,-2.3554688 -2.296875,-2.3554688 -0.4921875,0 -0.9023437,0.1289063 -1.3007812,0.421875 l 0.2695312,-1.9804687 h 2.953125 z m 0,0"
       style="fill:#000000;fill-opacity:1;fill-rule:nonzero;stroke:none"
       aria-label="5"
       transform="matrix(1.3333333,0,0,1.3333333,321.556,326.33333)" />
    <path
       id="path20"
       d="m 2801.67,133.332 v 32.5"
       style="fill:none;stroke:#000000;stroke-width:5;stroke-linecap:butt;stroke-linejoin:round;stroke-miterlimit:10;stroke-dasharray:none;stroke-opacity:1"
       transform="matrix(0.13333333,0,0,-0.13333333,0,328)" />
    <path
       id="path21"
       d="m 4.9814375,-5.3447266 c -0.1757812,-1.1835937 -0.9375,-1.8867187 -2.015625,-1.8867187 -0.7734375,0 -1.4765625,0.3867187 -1.8984375,1.03125 -0.4453125,0.7148437 -0.6328125,1.59375 -0.6328125,2.90625 0,1.21875 0.1640625,1.9804687 0.5976563,2.62499999 0.375,0.5859375 0.9960937,0.90234375 1.78125,0.90234375 1.3476562,0 2.3203125,-1.01953125 2.3203125,-2.42578124 0,-1.3242188 -0.9023438,-2.2617188 -2.1796875,-2.2617188 -0.6914063,0 -1.2421875,0.2578125 -1.6289063,0.7851563 0.011719,-1.7929688 0.5742188,-2.7773438 1.5820313,-2.7773438 0.6210937,0 1.0546875,0.3984375 1.1953125,1.1015625 z M 2.848625,-3.6806641 c 0.8554688,0 1.3828125,0.5976563 1.3828125,1.5585938 0,0.9140625 -0.5976562,1.57031249 -1.40625,1.57031249 -0.8203125,0 -1.4414062,-0.69140629 -1.4414062,-1.60546879 0,-0.9023437 0.5976562,-1.5234375 1.4648437,-1.5234375 z m 0,0"
       style="fill:#000000;fill-opacity:1;fill-rule:nonzero;stroke:none"
       aria-label="6"
       transform="matrix(1.3333333,0,0,1.3333333,369.88933,326.33333)" />
    <path
       id="path22"
       d="m 3163.33,133.332 v 32.5"
       style="fill:none;stroke:#000000;stroke-width:5;stroke-linecap:butt;stroke-linejoin:round;stroke-miterlimit:10;stroke-dasharray:none;stroke-opacity:1"
       transform="matrix(0.13333333,0,0,-0.13333333,0,328)" />
    <path
       id="path23"
       d="M 5.2021563,-7.0908203 H 0.4560625 v 0.8671875 h 3.8320313 c -1.6875,2.4140625 -2.3789063,3.890625 -2.90625,6.2226562375 h 0.9375 C 2.7060625,-2.2744141 3.5966875,-4.2197266 5.2021563,-6.3525391 Z m 0,0"
       style="fill:#000000;fill-opacity:1;fill-rule:nonzero;stroke:none"
       aria-label="7"
       transform="matrix(1.3333333,0,0,1.3333333,418.11067,326.33333)" />
    <path
       id="path24"
       d="m 85.832,314.168 h 33.336"
       style="fill:none;stroke:#000000;stroke-width:5;stroke-linecap:butt;stroke-linejoin:round;stroke-miterlimit:10;stroke-dasharray:none;stroke-opacity:1"
       transform="matrix(0.13333333,0,0,-0.13333333,0,328)" />
    <path
       id="path25"
       d="m 2.7529297,-7.2304687 c -0.6679688,0 -1.265625,0.3046875 -1.6289063,0.796875 -0.46874996,0.6328125 -0.69140621,1.59375 -0.69140621,2.9296874 0,2.4492188 0.79687501,3.7382813 2.32031251,3.7382813 1.5,0 2.3085937,-1.2890625 2.3085937,-3.6679688 0,-1.4062499 -0.2109375,-2.3437499 -0.6796875,-2.9999999 -0.375,-0.5039063 -0.9609375,-0.796875 -1.6289062,-0.796875 z m 0,0.7851562 c 0.9492187,0 1.4179687,0.9726563 1.4179687,2.9296875 0,2.0507813 -0.46875,3.01171875 -1.4414062,3.01171875 -0.9257813,0 -1.40625,-0.99609375 -1.40625,-2.98828125 0,-1.9804687 0.4804687,-2.953125 1.4296875,-2.953125 z m 0,0"
       style="fill:#000000;fill-opacity:1;fill-rule:nonzero;stroke:none"
       aria-label="0"
       transform="matrix(1.3333333,0,0,1.3333333,0.33333333,291)" />
    <path
       id="path26"
       d="m 85.832,676.668 h 33.336"
       style="fill:none;stroke:#000000;stroke-width:5;stroke-linecap:butt;stroke-linejoin:round;stroke-miterlimit:10;stroke-dasharray:none;stroke-opacity:1"
       transform="matrix(0.13333333,0,0,-0.13333333,0,328)" />
    <path
       id="path27"
       d="M 2.5888672,-5.1435547 V 9.765625e-4 H 3.4677734 V -7.2294922 H 2.8935547 c -0.3164063,1.1132813 -0.515625,1.265625 -1.875,1.4414063 v 0.6445312 z m 0,0"
       style="fill:#000000;fill-opacity:1;fill-rule:nonzero;stroke:none"
       aria-label="1"
       transform="matrix(1.3333333,0,0,1.3333333,0.33333333,242.66667)" />
    <path
       id="path28"
       d="m 85.832,1038.33 h 33.336"
       style="fill:none;stroke:#000000;stroke-width:5;stroke-linecap:butt;stroke-linejoin:round;stroke-miterlimit:10;stroke-dasharray:none;stroke-opacity:1"
       transform="matrix(0.13333333,0,0,-0.13333333,0,328)" />
    <path
       id="path29"
       d="M 5.0615234,-0.86620313 H 1.3232422 C 1.4169922,-1.4638594 1.7333984,-1.8505781 2.6123047,-2.3779219 l 0.9960937,-0.5625 c 0.984375,-0.5507812 1.5,-1.2890625 1.5,-2.1796875 0,-0.5976562 -0.2460937,-1.1601562 -0.65625,-1.546875 -0.421875,-0.375 -0.9492187,-0.5625 -1.6171875,-0.5625 -0.9023437,0 -1.5703125,0.328125 -1.95703121,0.9375 -0.24609375,0.3867188 -0.36328125,0.8320313 -0.375,1.5703125 H 1.3818359 c 0.023437,-0.4921875 0.082031,-0.7851562 0.2109375,-1.0195312 0.2226563,-0.4453125 0.6796875,-0.7148438 1.21875,-0.7148438 0.796875,0 1.3945313,0.5742188 1.3945313,1.359375 0,0.5742188 -0.328125,1.078125 -0.9609375,1.4414063 l -0.9140625,0.5390625 c -1.47656251,0.84375 -1.91015626,1.5234375 -1.99218751,3.10546872 H 5.0615234 Z m 0,0"
       style="fill:#000000;fill-opacity:1;fill-rule:nonzero;stroke:none"
       aria-label="2"
       transform="matrix(1.3333333,0,0,1.3333333,0.33333333,194.444)" />
    <path
       id="path30"
       d="m 85.832,1400.83 h 33.336"
       style="fill:none;stroke:#000000;stroke-width:5;stroke-linecap:butt;stroke-linejoin:round;stroke-miterlimit:10;stroke-dasharray:none;stroke-opacity:1"
       transform="matrix(0.13333333,0,0,-0.13333333,0,328)" />
    <path
       id="path31"
       d="m 2.2138672,-3.3290937 h 0.46875 c 0.9609375,0 1.4765625,0.4453125 1.4765625,1.3242187 0,0.9023438 -0.5507813,1.453125 -1.4648438,1.453125 -0.9609375,0 -1.4414062,-0.4921875 -1.5,-1.546875 H 0.31542969 c 0.046875,0.5742188 0.140625,0.9609375 0.31640625,1.27734375 0.36328125,0.703125 1.05468746,1.0546875 2.02734376,1.0546875 1.453125,0 2.4023437,-0.87890625 2.4023437,-2.24999995 0,-0.9257813 -0.3515625,-1.4179688 -1.2070312,-1.7226563 0.6679687,-0.2695312 0.9960937,-0.7734375 0.9960937,-1.5 0,-1.2421875 -0.8085937,-1.9921875 -2.1679687,-1.9921875 -1.4296875,0 -2.17968751,0.8085938 -2.21484376,2.3320313 H 1.3466797 C 1.3583984,-5.3447187 1.3935547,-5.5908125 1.5107422,-5.8134687 1.7099609,-6.223625 2.1435547,-6.458 2.6943359,-6.458 c 0.7851563,0 1.2539063,0.46875 1.2539063,1.2539063 0,0.5039062 -0.1757813,0.8203125 -0.5742188,0.984375 -0.234375,0.1054687 -0.5507812,0.140625 -1.1601562,0.1523437 z m 0,0"
       style="fill:#000000;fill-opacity:1;fill-rule:nonzero;stroke:none"
       aria-label="3"
       transform="matrix(1.3333333,0,0,1.3333333,0.33333333,146.11067)" />
    <path
       id="path32"
       d="m 85.832,1762.5 h 33.336"
       style="fill:none;stroke:#000000;stroke-width:5;stroke-linecap:butt;stroke-linejoin:round;stroke-miterlimit:10;stroke-dasharray:none;stroke-opacity:1"
       transform="matrix(0.13333333,0,0,-0.13333333,0,328)" />
    <path
       id="path33"
       d="M 3.2685547,-1.745125 V 9.6875e-4 H 4.1474609 V -1.745125 H 5.2021484 V -2.542 H 4.1474609 V -7.2295 H 3.5029297 l -3.22265626,4.546875 v 0.9375 z m 0,-0.796875 H 1.0537109 l 2.2148438,-3.1875 z m 0,0"
       style="fill:#000000;fill-opacity:1;fill-rule:nonzero;stroke:none"
       aria-label="4"
       transform="matrix(1.3333333,0,0,1.3333333,0.33333333,97.889333)" />
    <path
       id="path34"
       d="m 85.832,2125 h 33.336"
       style="fill:none;stroke:#000000;stroke-width:5;stroke-linecap:butt;stroke-linejoin:round;stroke-miterlimit:10;stroke-dasharray:none;stroke-opacity:1"
       transform="matrix(0.13333333,0,0,-0.13333333,0,328)" />
    <path
       id="path35"
       d="m 4.7568359,-7.0908281 h -3.65625 L 0.57324219,-3.2353594 H 1.3818359 c 0.4101563,-0.4804687 0.75,-0.65625 1.3007813,-0.65625 0.9492187,0 1.546875,0.65625 1.546875,1.6992188 0,1.0195312 -0.5976563,1.64062497 -1.546875,1.64062497 -0.7734375,0 -1.2421875,-0.38671875 -1.453125,-1.18359377 H 0.35058594 c 0.1171875,0.5742188 0.22265625,0.85546877 0.43359375,1.11328127 0.39843751,0.5390625 1.11328121,0.85546875 1.91015621,0.85546875 1.4296875,0 2.4375,-1.04296875 2.4375,-2.54296872 0,-1.3945313 -0.9375,-2.3554688 -2.296875,-2.3554688 -0.4921875,0 -0.9023437,0.1289063 -1.3007812,0.421875 l 0.2695312,-1.9804687 h 2.953125 z m 0,0"
       style="fill:#000000;fill-opacity:1;fill-rule:nonzero;stroke:none"
       aria-label="5"
       transform="matrix(1.3333333,0,0,1.3333333,0.33333333,49.556)" />
    <path
       id="path36"
       d="M 629.168,1762.5 V 314.168"
       style="fill:none;stroke:#000000;stroke-width:5;stroke-linecap:butt;stroke-linejoin:round;stroke-miterlimit:10;stroke-dasharray:5, 40;stroke-dashoffset:0;stroke-opacity:1"
       transform="matrix(0.13333333,0,0,-0.13333333,0,328)"
       clip-path="url(#clipPath37)" />
    <path
       id="path38"
       d="m 639.168,1762.5 c 0,-5.52 -4.48,-10 -10,-10 -5.52,0 -10,4.48 -10,10 0,5.52 4.48,10 10,10 5.52,0 10,-4.48 10,-10"
       style="fill:#000000;fill-opacity:1;fill-rule:nonzero;stroke:none"
       transform="matrix(0.13333333,0,0,-0.13333333,0,328)" />
    <path
       id="path39"
       d="m 639.168,314.168 c 0,-5.52 -4.48,-10 -10,-10 -5.52,0 -10,4.48 -10,10 0,5.52 4.48,10 10,10 5.52,0 10,-4.48 10,-10"
       style="fill:#000000;fill-opacity:1;fill-rule:nonzero;stroke:none"
       transform="matrix(0.13333333,0,0,-0.13333333,0,328)" />
    <path
       id="path40"
       d="M 2801.67,1762.5 V 314.168"
       style="fill:none;stroke:#000000;stroke-width:5;stroke-linecap:butt;stroke-linejoin:round;stroke-miterlimit:10;stroke-dasharray:5, 40;stroke-dashoffset:0;stroke-opacity:1"
       transform="matrix(0.13333333,0,0,-0.13333333,0,328)"
       clip-path="url(#clipPath41)" />
    <path
       id="path42"
       d="m 2811.67,1762.5 c 0,-5.52 -4.48,-10 -10,-10 -5.52,0 -10,4.48 -10,10 0,5.52 4.48,10 10,10 5.52,0 10,-4.48 10,-10"
       style="fill:#000000;fill-opacity:1;fill-rule:nonzero;stroke:none"
       transform="matrix(0.13333333,0,0,-0.13333333,0,328)" />
    <path
       id="path43"
       d="m 2811.67,314.168 c 0,-5.52 -4.48,-10 -10,-10 -5.52,0 -10,4.48 -10,10 0,5.52 4.48,10 10,10 5.52,0 10,-4.48 10,-10"
       style="fill:#000000;fill-opacity:1;fill-rule:nonzero;stroke:none"
       transform="matrix(0.13333333,0,0,-0.13333333,0,328)" />
    <path
       id="path44"
       d="M 629.168,1762.5 H 2801.67"
       style="fill:none;stroke:#000000;stroke-width:5;stroke-linecap:butt;stroke-linejoin:round;stroke-miterlimit:10;stroke-dasharray:5, 40;stroke-dashoffset:0;stroke-opacity:1"
       transform="matrix(0.13333333,0,0,-0.13333333,0,328)"
       clip-path="url(#clipPath45)" />
    <path
       id="path46"
       d="m 639.168,1762.5 c 0,-5.52 -4.48,-10 -10,-10 -5.52,0 -10,4.48 -10,10 0,5.52 4.48,10 10,10 5.52,0 10,-4.48 10,-10"
       style="fill:#000000;fill-opacity:1;fill-rule:nonzero;stroke:none"
       transform="matrix(0.13333333,0,0,-0.13333333,0,328)" />
    <path
       id="path47"
       d="m 2811.67,1762.5 c 0,-5.52 -4.48,-10 -10,-10 -5.52,0 -10,4.48 -10,10 0,5.52 4.48,10 10,10 5.52,0 10,-4.48 10,-10"
       style="fill:#000000;fill-opacity:1;fill-rule:nonzero;stroke:none"
       transform="matrix(0.13333333,0,0,-0.13333333,0,328)" />
    <path
       id="path48"
       d="M 804.168,1757.5 783.332,1685 764.168,1612.5 745.832,1540.83 730,1468.33 715,1396.67 701.668,1324.17 690,1252.5 679.168,1180 670,1108.33 l -8.332,-72.5 -7.5,-72.498 -5.836,-71.664 -5,-72.5 -4.164,-71.668 -3.336,-72.5 -2.5,-71.668 -1.664,-72.5 -1.668,-71.664 -0.832,-72.5 v -72.5"
       style="fill:none;stroke:#0000ff;stroke-width:5;stroke-linecap:butt;stroke-linejoin:round;stroke-miterlimit:10;stroke-dasharray:none;stroke-opacity:1"
       transform="matrix(0.13333333,0,0,-0.13333333,0,328)"
       clip-path="url(#clipPath49)" />
    <path
       id="path50"
       d="m 2975.83,1756.67 16.67,-72.5 12.5,-71.67 9.17,-72.5 5.83,-71.67 3.33,-72.5 -0.83,-71.66 -3.33,-72.5 -5.84,-71.67 -9.16,-72.5 -10.84,-71.67 -12.5,-72.498 -15,-71.664 -16.66,-72.5 -18.34,-71.668 -20,-72.5 -20,-72.5 -21.66,-71.668 -22.5,-72.5 -22.5,-71.664 -22.5,-72.5"
       style="fill:none;stroke:#0000ff;stroke-width:5;stroke-linecap:butt;stroke-linejoin:round;stroke-miterlimit:10;stroke-dasharray:none;stroke-opacity:1"
       transform="matrix(0.13333333,0,0,-0.13333333,0,328)"
       clip-path="url(#clipPath51)" />
    <path
       id="path52"
       d="m 804.168,1757.5 108.332,-33.33 108.33,-32.5 109.17,-31.67 108.33,-29.17 108.34,-25.83 109.16,-21.67 108.34,-17.5 108.33,-11.66 109.17,-7.5 108.33,-1.67 108.33,4.17 109.17,9.16 108.33,14.17 108.34,19.17 109.16,22.5 108.34,25.83 108.33,28.33 108.33,30 109.17,29.17 108.33,29.17"
       style="fill:none;stroke:#0000ff;stroke-width:5;stroke-linecap:butt;stroke-linejoin:round;stroke-miterlimit:10;stroke-dasharray:none;stroke-opacity:1"
       transform="matrix(0.13333333,0,0,-0.13333333,0,328)"
       clip-path="url(#clipPath53)" />
    <path
       id="path54"
       d="m 775,1756.67 -20,-71.67 -17.5,-72.5 -16.668,-71.67 -14.164,-72.5 -12.5,-71.66 -11.668,-72.5 -10,-71.67 -8.332,-72.5 -7.5,-72.5 -6.668,-71.67 -5,-72.498 -4.168,-71.664 -3.332,-72.5 L 635,747.5 632.5,675 630.832,603.332 630,530.832 v -72.5 l -0.832,-71.664 v -72.5"
       style="fill:none;stroke:#ff0000;stroke-width:5;stroke-linecap:butt;stroke-linejoin:round;stroke-miterlimit:10;stroke-dasharray:60;stroke-dashoffset:0;stroke-opacity:1"
       transform="matrix(0.13333333,0,0,-0.13333333,0,328)"
       clip-path="url(#clipPath55)" />
    <path
       id="path56"
       d="m 2946.67,1756.67 16.66,-72.5 12.5,-71.67 9.17,-72.5 5.83,-71.67 2.5,-72.5 0.84,-71.66 -3.34,-72.5 -5,-71.67 -7.5,-72.5 -9.16,-71.67 -11.67,-72.498 -12.5,-71.664 -15,-72.5 -15.83,-71.668 -16.67,-72.5 -18.33,-72.5 -18.34,-71.668 -20,-72.5 -19.16,-71.664 -20,-72.5"
       style="fill:none;stroke:#ff0000;stroke-width:5;stroke-linecap:butt;stroke-linejoin:round;stroke-miterlimit:10;stroke-dasharray:60;stroke-dashoffset:0;stroke-opacity:1"
       transform="matrix(0.13333333,0,0,-0.13333333,0,328)"
       clip-path="url(#clipPath57)" />
    <path
       id="path58"
       d="m 775,1756.67 108.332,-30.84 109.168,-31.66 108.33,-30.84 108.34,-28.33 109.16,-25 108.34,-21.67 108.33,-16.66 109.17,-12.5 108.33,-6.67 108.33,-1.67 109.17,3.34 108.33,9.16 108.34,13.34 109.16,18.33 108.34,22.5 108.33,25 108.33,27.5 109.17,29.17 108.33,29.16 108.34,28.34"
       style="fill:none;stroke:#ff0000;stroke-width:5;stroke-linecap:butt;stroke-linejoin:round;stroke-miterlimit:10;stroke-dasharray:60;stroke-dashoffset:0;stroke-opacity:1"
       transform="matrix(0.13333333,0,0,-0.13333333,0,328)"
       clip-path="url(#clipPath59)" />
    <path
       id="path60"
       d="m 810,314.168 h 387.5"
       style="fill:none;stroke:#0000ff;stroke-width:5;stroke-linecap:butt;stroke-linejoin:round;stroke-miterlimit:10;stroke-dasharray:none;stroke-opacity:1"
       transform="matrix(0.13333333,0,0,-0.13333333,0,328)"
       clip-path="url(#clipPath61)" />
    <path
       id="path62"
       d="m 810,295 v 39.168"
       style="fill:none;stroke:#0000ff;stroke-width:5;stroke-linecap:butt;stroke-linejoin:round;stroke-miterlimit:10;stroke-dasharray:none;stroke-opacity:1"
       transform="matrix(0.13333333,0,0,-0.13333333,0,328)"
       clip-path="url(#clipPath63)" />
    <path
       id="path64"
       d="m 1197.5,295 v 39.168"
       style="fill:none;stroke:#0000ff;stroke-width:5;stroke-linecap:butt;stroke-linejoin:round;stroke-miterlimit:10;stroke-dasharray:none;stroke-opacity:1"
       transform="matrix(0.13333333,0,0,-0.13333333,0,328)"
       clip-path="url(#clipPath65)" />
    <path
       id="path66"
       d="m 2.7539141,-7.2306609 c -0.6679688,0 -1.265625,0.3046875 -1.6289063,0.796875 -0.46874999,0.6328125 -0.69140624,1.59375 -0.69140624,2.9296875 0,2.4492187 0.79687504,3.73828121 2.32031254,3.73828121 1.5,0 2.3085937,-1.28906251 2.3085937,-3.66796871 0,-1.40625 -0.2109375,-2.34375 -0.6796875,-3 -0.375,-0.5039063 -0.9609375,-0.796875 -1.6289062,-0.796875 z m 0,0.7851562 c 0.9492187,0 1.4179687,0.9726563 1.4179687,2.9296875 0,2.0507813 -0.46875,3.01171876 -1.4414062,3.01171876 -0.9257813,0 -1.40625,-0.99609376 -1.40625,-2.98828126 0,-1.9804687 0.4804687,-2.953125 1.4296875,-2.953125 z m 4.7167968,5.4023438 H 6.4277422 v 1.0429687125 h 1.0429687 z m 3.4599611,-4.1015625 v 5.1445312125 h 0.878906 V -7.2306609 h -0.574219 c -0.316406,1.1132812 -0.515625,1.265625 -1.8749996,1.4414062 v 0.6445313 z M 16.057625,-210.5832 h 2.8125 c 1.839844,0 2.964844,-1.38281 2.964844,-3.64453 0,-2.26172 -1.125,-3.64453 -2.964844,-3.64453 h -2.8125 z m 0.925781,-0.82031 v -5.64844 h 1.722657 c 1.441406,0 2.203125,0.97266 2.203125,2.83594 0,1.83984 -0.761719,2.8125 -2.203125,2.8125 z m 6.902344,-4.41797 h -0.832031 v 5.23828 h 0.832031 z m 0,-2.05078 H 23.042 v 1.05469 h 0.84375 z m 5.103516,3.51562 c -0.01172,-1.03125 -0.691407,-1.61718 -1.898438,-1.61718 -1.230469,0 -2.015625,0.63281 -2.015625,1.60546 0,0.82032 0.421875,1.20704 1.664063,1.51172 l 0.773437,0.1875 c 0.585938,0.14063 0.808594,0.35157 0.808594,0.71485 0,0.5039 -0.480469,0.83203 -1.21875,0.83203 -0.445313,0 -0.832031,-0.12891 -1.03125,-0.35156 -0.140625,-0.15235 -0.199219,-0.30469 -0.246094,-0.66797 h -0.878906 c 0.03516,1.20703 0.714844,1.79297 2.085937,1.79297 1.324219,0 2.167969,-0.65625 2.167969,-1.66407 0,-0.78515 -0.445312,-1.20703 -1.488281,-1.46484 l -0.796875,-0.1875 c -0.679688,-0.15234 -0.972656,-0.375 -0.972656,-0.75 0,-0.48047 0.433593,-0.78516 1.113281,-0.78516 0.667969,0 1.03125,0.29297 1.054687,0.84375 z m 1.157226,5.95313 h 0.84375 v -2.73047 c 0.433594,0.53906 0.925781,0.78516 1.605469,0.78516 1.359375,0 2.238281,-1.08985 2.238281,-2.76563 0,-1.75781 -0.855469,-2.85937 -2.25,-2.85937 -0.703125,0 -1.277344,0.32812 -1.664062,0.9375 v -0.78516 h -0.773438 z m 2.296875,-6.78516 c 0.925781,0 1.523438,0.8086 1.523438,2.05078 0,1.19532 -0.609375,2.00391 -1.523438,2.00391 -0.890625,0 -1.453125,-0.79688 -1.453125,-2.02734 0,-1.23047 0.5625,-2.02735 1.453125,-2.02735 z m 4.248047,-2.68359 h -0.84375 v 7.28906 h 0.84375 z m 6.038086,6.79687 c -0.08203,0.0234 -0.128906,0.0234 -0.175781,0.0234 -0.292969,0 -0.445313,-0.15234 -0.445313,-0.41016 v -3.08203 c 0,-0.92578 -0.679687,-1.42968 -1.96875,-1.42968 -0.773437,0 -1.382812,0.22265 -1.746093,0.60937 -0.234375,0.26953 -0.339844,0.57422 -0.363282,1.08984 h 0.84375 c 0.07031,-0.63281 0.445313,-0.92578 1.230469,-0.92578 0.761719,0 1.171875,0.28125 1.171875,0.77344 v 0.22266 c -0.01172,0.36328 -0.1875,0.49218 -0.867187,0.58593 -1.183594,0.14063 -1.359375,0.1875 -1.6875,0.31641 -0.609375,0.25781 -0.914063,0.71484 -0.914063,1.39453 0,0.94922 0.65625,1.5586 1.722656,1.5586 0.65625,0 1.183594,-0.23438 1.769532,-0.77344 0.05859,0.53906 0.328125,0.77344 0.867187,0.77344 0.175781,0 0.28125,-0.0234 0.5625,-0.0937 z m -1.453125,-1.16015 c 0,0.28125 -0.08203,0.45703 -0.328125,0.67968 -0.339844,0.31641 -0.75,0.46875 -1.242187,0.46875 -0.65625,0 -1.03125,-0.30468 -1.03125,-0.83203 0,-0.55078 0.363281,-0.83203 1.265625,-0.96093 0.878906,-0.11719 1.054687,-0.16407 1.335937,-0.29297 z m 6.380859,-1.82813 c -0.04687,-0.5039 -0.152343,-0.83203 -0.351562,-1.125 -0.363281,-0.49219 -0.996094,-0.78515 -1.722656,-0.78515 -1.417969,0 -2.332032,1.125 -2.332032,2.85937 0,1.6875 0.902344,2.76563 2.320313,2.76563 1.253906,0 2.039062,-0.75 2.144531,-2.03907 h -0.84375 c -0.140625,0.84375 -0.5625,1.26563 -1.277344,1.26563 -0.914062,0 -1.464843,-0.75 -1.464843,-1.99219 0,-1.3125 0.539062,-2.08594 1.441406,-2.08594 0.703125,0 1.148437,0.41016 1.242187,1.13672 z m 5.422852,1.13672 c 0,-0.79687 -0.07031,-1.27734 -0.210938,-1.66406 -0.339843,-0.85547 -1.148437,-1.38281 -2.121093,-1.38281 -1.464844,0 -2.402344,1.11328 -2.402344,2.83593 0,1.73438 0.902344,2.78907 2.378906,2.78907 1.195313,0 2.027344,-0.67969 2.238281,-1.82813 h -0.832031 c -0.234375,0.69141 -0.703125,1.05469 -1.371094,1.05469 -0.539062,0 -0.984375,-0.2461 -1.265625,-0.67969 -0.199218,-0.30469 -0.269531,-0.59766 -0.28125,-1.125 z m -3.84375,-0.67969 c 0.07031,-0.96093 0.65625,-1.59375 1.5,-1.59375 0.84375,0 1.441406,0.65625 1.441406,1.59375 z m 4.974609,-2.21484 v 5.23828 h 0.832032 v -3.29297 c 0,-0.75 0.550781,-1.35937 1.230468,-1.35937 0.621094,0 0.972657,0.375 0.972657,1.04297 v 3.60937 h 0.84375 v -3.29297 c 0,-0.75 0.550781,-1.35937 1.230468,-1.35937 0.609375,0 0.960938,0.38672 0.960938,1.04297 v 3.60937 h 0.84375 v -3.92578 c 0,-0.9375 -0.539063,-1.46484 -1.523438,-1.46484 -0.691406,0 -1.113281,0.21093 -1.605468,0.79687 -0.304688,-0.55078 -0.726563,-0.79687 -1.40625,-0.79687 -0.703125,0 -1.171875,0.25781 -1.617188,0.89062 v -0.73828 z m 12.758789,2.89453 c 0,-0.79687 -0.07031,-1.27734 -0.210937,-1.66406 -0.339844,-0.85547 -1.148438,-1.38281 -2.121094,-1.38281 -1.464844,0 -2.402344,1.11328 -2.402344,2.83593 0,1.73438 0.902344,2.78907 2.378907,2.78907 1.195312,0 2.027343,-0.67969 2.238281,-1.82813 h -0.832031 c -0.234375,0.69141 -0.703125,1.05469 -1.371094,1.05469 -0.539063,0 -0.984375,-0.2461 -1.265625,-0.67969 -0.199219,-0.30469 -0.269531,-0.59766 -0.28125,-1.125 z m -3.84375,-0.67969 c 0.07031,-0.96093 0.65625,-1.59375 1.5,-1.59375 0.84375,0 1.441407,0.65625 1.441407,1.59375 z m 4.97461,-2.21484 v 5.23828 h 0.832031 v -2.89453 c 0,-1.06641 0.5625,-1.75781 1.417969,-1.75781 0.667969,0 1.089844,0.39843 1.089844,1.01953 v 3.63281 h 0.820312 v -3.96094 c 0,-0.86718 -0.644531,-1.42968 -1.652344,-1.42968 -0.785156,0 -1.277343,0.30468 -1.746093,1.03125 v -0.87891 z m 7.40039,0 h -0.867187 v -1.44141 h -0.820313 v 1.44141 h -0.714843 v 0.67969 h 0.714843 v 3.96093 c 0,0.53907 0.351563,0.83204 1.007813,0.83204 0.210937,0 0.398437,-0.0234 0.679687,-0.0703 v -0.70312 c -0.128906,0.0234 -0.234375,0.0352 -0.398437,0.0352 -0.363281,0 -0.46875,-0.0937 -0.46875,-0.46875 v -3.58593 h 0.867187 z m 4.617188,1.46484 c -0.01172,-1.03125 -0.691406,-1.61718 -1.898438,-1.61718 -1.230468,0 -2.015625,0.63281 -2.015625,1.60546 0,0.82032 0.421875,1.20704 1.664063,1.51172 l 0.773437,0.1875 c 0.585938,0.14063 0.808594,0.35157 0.808594,0.71485 0,0.5039 -0.480469,0.83203 -1.21875,0.83203 -0.445312,0 -0.832031,-0.12891 -1.03125,-0.35156 -0.140625,-0.15235 -0.199219,-0.30469 -0.246094,-0.66797 h -0.878906 c 0.03516,1.20703 0.714844,1.79297 2.085938,1.79297 1.324218,0 2.167968,-0.65625 2.167968,-1.66407 0,-0.78515 -0.445312,-1.20703 -1.488281,-1.46484 l -0.796875,-0.1875 c -0.679687,-0.15234 -0.972656,-0.375 -0.972656,-0.75 0,-0.48047 0.433594,-0.78516 1.113281,-0.78516 0.667969,0 1.03125,0.29297 1.054688,0.84375 z m 0,0"
       style="fill:#000000;fill-opacity:1;fill-rule:nonzero;stroke:none"
       aria-label="0.1 &#10;Displacements"
       transform="matrix(1.3333333,0,0,1.3333333,164.77733,290.7776)" />
  </g>
</svg>
