<?xml version="1.0" encoding="UTF-8" standalone="no"?>
<!-- Created with Inkscape (http://www.inkscape.org/) -->

<svg
   version="1.1"
   id="svg1"
   width="293.33334"
   height="170.66667"
   viewBox="0 0 293.33334 170.66667"
   sodipodi:docname="exs4_1.eps"
   xmlns:inkscape="http://www.inkscape.org/namespaces/inkscape"
   xmlns:sodipodi="http://sodipodi.sourceforge.net/DTD/sodipodi-0.dtd"
   xmlns="http://www.w3.org/2000/svg"
   xmlns:svg="http://www.w3.org/2000/svg">
  <defs
     id="defs1">
    <clipPath
       clipPathUnits="userSpaceOnUse"
       id="clipPath2">
      <path
         d="M 0,7 V 1278 H 2200 V 7 Z"
         transform="translate(0,2.5000001e-5)"
         id="path2" />
    </clipPath>
    <clipPath
       clipPathUnits="userSpaceOnUse"
       id="clipPath4">
      <path
         d="M 0,7 V 1278 H 2200 V 7 Z"
         transform="translate(0,2.5000001e-5)"
         id="path4" />
    </clipPath>
    <clipPath
       clipPathUnits="userSpaceOnUse"
       id="clipPath6">
      <path
         d="M 0,7 V 1278 H 2200 V 7 Z"
         transform="translate(0,2.5000001e-5)"
         id="path6" />
    </clipPath>
    <clipPath
       clipPathUnits="userSpaceOnUse"
       id="clipPath8">
      <path
         d="M 0,7 V 1278 H 2200 V 7 Z"
         transform="translate(0,2.5000001e-5)"
         id="path8" />
    </clipPath>
    <clipPath
       clipPathUnits="userSpaceOnUse"
       id="clipPath10">
      <path
         d="M 0,7 V 1278 H 2200 V 7 Z"
         transform="translate(0,2.5000001e-5)"
         id="path10" />
    </clipPath>
    <clipPath
       clipPathUnits="userSpaceOnUse"
       id="clipPath12">
      <path
         d="M 0,7 V 1278 H 2200 V 7 Z"
         transform="translate(0,2.5000001e-5)"
         id="path12" />
    </clipPath>
    <clipPath
       clipPathUnits="userSpaceOnUse"
       id="clipPath14">
      <path
         d="M 0,7 V 1278 H 2200 V 7 Z"
         transform="translate(0,2.5000001e-5)"
         id="path14" />
    </clipPath>
    <clipPath
       clipPathUnits="userSpaceOnUse"
       id="clipPath16">
      <path
         d="M 0,7 V 1278 H 2200 V 7 Z"
         transform="translate(0,2.5000001e-5)"
         id="path16" />
    </clipPath>
    <clipPath
       clipPathUnits="userSpaceOnUse"
       id="clipPath17">
      <path
         d="M 0,7 V 1278 H 2200 V 7 Z"
         transform="matrix(0.1,0,0,-0.1,-180.888,15.667198)"
         id="path17" />
    </clipPath>
    <clipPath
       clipPathUnits="userSpaceOnUse"
       id="clipPath18">
      <path
         d="M 0,7 V 1278 H 2200 V 7 Z"
         transform="matrix(0.1,0,0,-0.1,-39.451601,10.092598)"
         id="path18" />
    </clipPath>
    <clipPath
       clipPathUnits="userSpaceOnUse"
       id="clipPath20">
      <path
         d="M 0,7 V 1278 H 2200 V 7 Z"
         transform="translate(0,2.5000001e-5)"
         id="path20" />
    </clipPath>
    <clipPath
       clipPathUnits="userSpaceOnUse"
       id="clipPath21">
      <path
         d="M 0,7 V 1278 H 2200 V 7 Z"
         transform="matrix(0.1,0,0,-0.1,-155.875,12.665998)"
         id="path21" />
    </clipPath>
    <clipPath
       clipPathUnits="userSpaceOnUse"
       id="clipPath23">
      <path
         d="M 0,7 V 1278 H 2200 V 7 Z"
         transform="translate(0,2.5000001e-5)"
         id="path23" />
    </clipPath>
    <clipPath
       clipPathUnits="userSpaceOnUse"
       id="clipPath25">
      <path
         d="M 0,7 V 1278 H 2200 V 7 Z"
         transform="translate(0,2.5000001e-5)"
         id="path25" />
    </clipPath>
    <clipPath
       clipPathUnits="userSpaceOnUse"
       id="clipPath27">
      <path
         d="M 0,7 V 1278 H 2200 V 7 Z"
         transform="translate(0,2.5000001e-5)"
         id="path27" />
    </clipPath>
    <clipPath
       clipPathUnits="userSpaceOnUse"
       id="clipPath29">
      <path
         d="M 0,7 V 1278 H 2200 V 7 Z"
         transform="translate(0,2.5000001e-5)"
         id="path29" />
    </clipPath>
    <clipPath
       clipPathUnits="userSpaceOnUse"
       id="clipPath31">
      <path
         d="M 0,7 V 1278 H 2200 V 7 Z"
         transform="translate(0,2.5000001e-5)"
         id="path31" />
    </clipPath>
    <clipPath
       clipPathUnits="userSpaceOnUse"
       id="clipPath33">
      <path
         d="M 0,7 V 1278 H 2200 V 7 Z"
         transform="translate(0,2.5000001e-5)"
         id="path33" />
    </clipPath>
    <clipPath
       clipPathUnits="userSpaceOnUse"
       id="clipPath35">
      <path
         d="M 0,7 V 1278 H 2200 V 7 Z"
         transform="translate(0,2.5000001e-5)"
         id="path35" />
    </clipPath>
    <clipPath
       clipPathUnits="userSpaceOnUse"
       id="clipPath37">
      <path
         d="M 0,7 V 1278 H 2200 V 7 Z"
         transform="translate(0,2.5000001e-5)"
         id="path37" />
    </clipPath>
    <clipPath
       clipPathUnits="userSpaceOnUse"
       id="clipPath39">
      <path
         d="M 0,7 V 1278 H 2200 V 7 Z"
         transform="translate(0,2.5000001e-5)"
         id="path39" />
    </clipPath>
    <clipPath
       clipPathUnits="userSpaceOnUse"
       id="clipPath41">
      <path
         d="M 0,7 V 1278 H 2200 V 7 Z"
         transform="translate(0,2.5000001e-5)"
         id="path41" />
    </clipPath>
    <clipPath
       clipPathUnits="userSpaceOnUse"
       id="clipPath43">
      <path
         d="M 0,7 V 1278 H 2200 V 7 Z"
         transform="translate(0,2.5000001e-5)"
         id="path43" />
    </clipPath>
    <clipPath
       clipPathUnits="userSpaceOnUse"
       id="clipPath45">
      <path
         d="M 0,7 V 1278 H 2200 V 7 Z"
         transform="translate(0,2.5000001e-5)"
         id="path45" />
    </clipPath>
    <clipPath
       clipPathUnits="userSpaceOnUse"
       id="clipPath47">
      <path
         d="M 0,7 V 1278 H 2200 V 7 Z"
         transform="translate(0,2.5000001e-5)"
         id="path47" />
    </clipPath>
    <clipPath
       clipPathUnits="userSpaceOnUse"
       id="clipPath48">
      <path
         d="M 0,7 V 1278 H 2200 V 7 Z"
         transform="matrix(0.1,0,0,-0.1,-197.184,69.072702)"
         id="path48" />
    </clipPath>
    <clipPath
       clipPathUnits="userSpaceOnUse"
       id="clipPath50">
      <path
         d="M 0,7 V 1278 H 2200 V 7 Z"
         transform="translate(0,2.5000001e-5)"
         id="path50" />
    </clipPath>
    <clipPath
       clipPathUnits="userSpaceOnUse"
       id="clipPath52">
      <path
         d="M 0,7 V 1278 H 2200 V 7 Z"
         transform="translate(0,2.5000001e-5)"
         id="path52" />
    </clipPath>
    <clipPath
       clipPathUnits="userSpaceOnUse"
       id="clipPath54">
      <path
         d="M 0,7 V 1278 H 2200 V 7 Z"
         transform="translate(0,2.5000001e-5)"
         id="path54" />
    </clipPath>
    <clipPath
       clipPathUnits="userSpaceOnUse"
       id="clipPath56">
      <path
         d="M 0,7 V 1278 H 2200 V 7 Z"
         transform="translate(0,2.5000001e-5)"
         id="path56" />
    </clipPath>
    <clipPath
       clipPathUnits="userSpaceOnUse"
       id="clipPath58">
      <path
         d="M 0,7 V 1278 H 2200 V 7 Z"
         transform="translate(0,2.5000001e-5)"
         id="path58" />
    </clipPath>
    <clipPath
       clipPathUnits="userSpaceOnUse"
       id="clipPath60">
      <path
         d="M 0,7 V 1278 H 2200 V 7 Z"
         transform="translate(0,2.5000001e-5)"
         id="path60" />
    </clipPath>
    <clipPath
       clipPathUnits="userSpaceOnUse"
       id="clipPath62">
      <path
         d="M 0,7 V 1278 H 2200 V 7 Z"
         transform="translate(0,2.5000001e-5)"
         id="path62" />
    </clipPath>
    <clipPath
       clipPathUnits="userSpaceOnUse"
       id="clipPath64">
      <path
         d="M 0,7 V 1278 H 2200 V 7 Z"
         transform="translate(0,2.5000001e-5)"
         id="path64" />
    </clipPath>
    <clipPath
       clipPathUnits="userSpaceOnUse"
       id="clipPath66">
      <path
         d="M 0,7 V 1278 H 2200 V 7 Z"
         transform="translate(0,2.5000001e-5)"
         id="path66" />
    </clipPath>
    <clipPath
       clipPathUnits="userSpaceOnUse"
       id="clipPath68">
      <path
         d="M 0,7 V 1278 H 2200 V 7 Z"
         transform="translate(0,2.5000001e-5)"
         id="path68" />
    </clipPath>
    <clipPath
       clipPathUnits="userSpaceOnUse"
       id="clipPath70">
      <path
         d="M 0,7 V 1278 H 2200 V 7 Z"
         transform="translate(0,2.5000001e-5)"
         id="path70" />
    </clipPath>
    <clipPath
       clipPathUnits="userSpaceOnUse"
       id="clipPath72">
      <path
         d="M 0,7 V 1278 H 2200 V 7 Z"
         transform="translate(0,2.5000001e-5)"
         id="path72" />
    </clipPath>
    <clipPath
       clipPathUnits="userSpaceOnUse"
       id="clipPath74">
      <path
         d="M 0,7 V 1278 H 2200 V 7 Z"
         transform="translate(0,2.5000001e-5)"
         id="path74" />
    </clipPath>
    <clipPath
       clipPathUnits="userSpaceOnUse"
       id="clipPath76">
      <path
         d="M 0,7 V 1278 H 2200 V 7 Z"
         transform="translate(0,2.5000001e-5)"
         id="path76" />
    </clipPath>
    <clipPath
       clipPathUnits="userSpaceOnUse"
       id="clipPath78">
      <path
         d="M 0,7 V 1278 H 2200 V 7 Z"
         transform="translate(0,2.5000001e-5)"
         id="path78" />
    </clipPath>
    <clipPath
       clipPathUnits="userSpaceOnUse"
       id="clipPath80">
      <path
         d="M 0,7 V 1278 H 2200 V 7 Z"
         transform="translate(0,2.5000001e-5)"
         id="path80" />
    </clipPath>
    <clipPath
       clipPathUnits="userSpaceOnUse"
       id="clipPath82">
      <path
         d="M 0,7 V 1278 H 2200 V 7 Z"
         transform="translate(0,2.5000001e-5)"
         id="path82" />
    </clipPath>
    <clipPath
       clipPathUnits="userSpaceOnUse"
       id="clipPath84">
      <path
         d="M 0,7 V 1278 H 2200 V 7 Z"
         transform="translate(0,2.5000001e-5)"
         id="path84" />
    </clipPath>
    <clipPath
       clipPathUnits="userSpaceOnUse"
       id="clipPath86">
      <path
         d="M 0,7 V 1278 H 2200 V 7 Z"
         transform="translate(0,2.5000001e-5)"
         id="path86" />
    </clipPath>
    <clipPath
       clipPathUnits="userSpaceOnUse"
       id="clipPath88">
      <path
         d="M 0,7 V 1278 H 2200 V 7 Z"
         transform="translate(0,2.5000001e-5)"
         id="path88" />
    </clipPath>
    <clipPath
       clipPathUnits="userSpaceOnUse"
       id="clipPath90">
      <path
         d="M 0,7 V 1278 H 2200 V 7 Z"
         transform="translate(0,2.5000001e-5)"
         id="path90" />
    </clipPath>
    <clipPath
       clipPathUnits="userSpaceOnUse"
       id="clipPath92">
      <path
         d="M 0,7 V 1278 H 2200 V 7 Z"
         transform="translate(0,2.5000001e-5)"
         id="path92" />
    </clipPath>
    <clipPath
       clipPathUnits="userSpaceOnUse"
       id="clipPath94">
      <path
         d="M 0,7 V 1278 H 2200 V 7 Z"
         transform="translate(0,2.5000001e-5)"
         id="path94" />
    </clipPath>
    <clipPath
       clipPathUnits="userSpaceOnUse"
       id="clipPath96">
      <path
         d="M 0,7 V 1278 H 2200 V 7 Z"
         transform="translate(0,2.5000001e-5)"
         id="path96" />
    </clipPath>
    <clipPath
       clipPathUnits="userSpaceOnUse"
       id="clipPath98">
      <path
         d="M 0,7 V 1278 H 2200 V 7 Z"
         transform="translate(0,2.5000001e-5)"
         id="path98" />
    </clipPath>
    <clipPath
       clipPathUnits="userSpaceOnUse"
       id="clipPath100">
      <path
         d="M 0,7 V 1278 H 2200 V 7 Z"
         transform="translate(0,2.5000001e-5)"
         id="path100" />
    </clipPath>
    <clipPath
       clipPathUnits="userSpaceOnUse"
       id="clipPath102">
      <path
         d="M 0,7 V 1278 H 2200 V 7 Z"
         transform="translate(0,2.5000001e-5)"
         id="path102" />
    </clipPath>
    <clipPath
       clipPathUnits="userSpaceOnUse"
       id="clipPath104">
      <path
         d="M 0,7 V 1278 H 2200 V 7 Z"
         transform="translate(0,2.5000001e-5)"
         id="path104" />
    </clipPath>
    <clipPath
       clipPathUnits="userSpaceOnUse"
       id="clipPath106">
      <path
         d="M 0,7 V 1278 H 2200 V 7 Z"
         transform="translate(0,2.5000001e-5)"
         id="path106" />
    </clipPath>
    <clipPath
       clipPathUnits="userSpaceOnUse"
       id="clipPath108">
      <path
         d="M 0,7 V 1278 H 2200 V 7 Z"
         transform="translate(0,2.5000001e-5)"
         id="path108" />
    </clipPath>
    <clipPath
       clipPathUnits="userSpaceOnUse"
       id="clipPath110">
      <path
         d="M 0,7 V 1278 H 2200 V 7 Z"
         transform="translate(0,2.5000001e-5)"
         id="path110" />
    </clipPath>
    <clipPath
       clipPathUnits="userSpaceOnUse"
       id="clipPath112">
      <path
         d="M 0,7 V 1278 H 2200 V 7 Z"
         transform="translate(0,2.5000001e-5)"
         id="path112" />
    </clipPath>
  </defs>
  <sodipodi:namedview
     id="namedview1"
     pagecolor="#ffffff"
     bordercolor="#000000"
     borderopacity="0.25"
     inkscape:showpageshadow="2"
     inkscape:pageopacity="0.0"
     inkscape:pagecheckerboard="0"
     inkscape:deskcolor="#d1d1d1">
    <inkscape:page
       x="0"
       y="0"
       inkscape:label="1"
       id="page1"
       width="293.33334"
       height="170.66667"
       margin="0"
       bleed="0" />
  </sodipodi:namedview>
  <g
     id="g1"
     inkscape:groupmode="layer"
     inkscape:label="1">
    <path
       id="path1"
       d="m 872.379,341.84 h 15.9414 v 792.77 H 872.379 Z"
       style="fill:none;stroke:#000000;stroke-width:3.99202;stroke-linecap:butt;stroke-linejoin:miter;stroke-miterlimit:4;stroke-dasharray:none;stroke-opacity:1"
       transform="matrix(0.13333333,0,0,-0.13333333,0,170.66667)"
       clip-path="url(#clipPath2)" />
    <path
       id="path3"
       d="m 67.7305,318.359 h 796.371 v 16.3711 H 67.7305 Z"
       style="fill:none;stroke:#000000;stroke-width:4;stroke-linecap:butt;stroke-linejoin:miter;stroke-miterlimit:4;stroke-dasharray:none;stroke-opacity:1"
       transform="matrix(0.13333333,0,0,-0.13333333,0,170.66667)"
       clip-path="url(#clipPath4)" />
    <path
       id="path5"
       d="M 70.0781,1128.44 865.629,334.059 873.551,346.051 80.4688,1140.16"
       style="fill:none;stroke:#000000;stroke-width:4.03247;stroke-linecap:butt;stroke-linejoin:miter;stroke-miterlimit:4;stroke-dasharray:none;stroke-opacity:1"
       transform="matrix(0.13333333,0,0,-0.13333333,0,170.66667)"
       clip-path="url(#clipPath6)" />
    <path
       id="path7"
       d="M 882.66,108.551 V 10"
       style="fill:none;stroke:#231f20;stroke-width:2.22524;stroke-linecap:butt;stroke-linejoin:miter;stroke-miterlimit:3.86369;stroke-dasharray:none;stroke-opacity:1"
       transform="matrix(0.13333333,0,0,-0.13333333,0,170.66667)"
       clip-path="url(#clipPath8)" />
    <path
       id="path9"
       d="M 47.5391,108.871 V 10.0781"
       style="fill:none;stroke:#231f20;stroke-width:4.5765;stroke-linecap:butt;stroke-linejoin:miter;stroke-miterlimit:3.86369;stroke-dasharray:none;stroke-opacity:1"
       transform="matrix(0.13333333,0,0,-0.13333333,0,170.66667)"
       clip-path="url(#clipPath10)" />
    <path
       id="path11"
       d="M 18.9805,68.75 H 1744.73"
       style="fill:none;stroke:#231f20;stroke-width:2.64;stroke-linecap:butt;stroke-linejoin:miter;stroke-miterlimit:3.86369;stroke-dasharray:none;stroke-opacity:1"
       transform="matrix(0.13333333,0,0,-0.13333333,0,170.66667)"
       clip-path="url(#clipPath12)" />
    <path
       id="path13"
       d="M 1775.47,188.199 1714.34,311.25"
       style="fill:none;stroke:#231f20;stroke-width:5;stroke-linecap:butt;stroke-linejoin:miter;stroke-miterlimit:3.86369;stroke-dasharray:none;stroke-opacity:1"
       transform="matrix(0.13333333,0,0,-0.13333333,0,170.66667)"
       clip-path="url(#clipPath14)" />
    <path
       id="path15"
       d="m 1775.47,188.199 10.47,18.25 5.11,-49.57 -36.44,33.98 20.86,-2.66"
       style="fill:#231f20;fill-opacity:1;fill-rule:evenodd;stroke:none"
       transform="matrix(0.13333333,0,0,-0.13333333,0,170.66667)"
       clip-path="url(#clipPath16)" />
    <text
       id="text16"
       xml:space="preserve"
       transform="matrix(1.3333333,0,0,1.3333333,241.184,149.77707)"
       clip-path="url(#clipPath17)"><tspan
         id="tspan16"
         style="font-style:italic;font-variant:normal;font-weight:normal;font-size:9.6px;font-family:'Times New Roman';writing-mode:lr-tb;fill:#231f20;fill-opacity:1;fill-rule:nonzero;stroke:none"
         x="0"
         y="0">P</tspan></text>
    <text
       id="text17"
       xml:space="preserve"
       transform="matrix(1.3333333,0,0,1.3333333,52.602133,157.20987)"
       clip-path="url(#clipPath18)"><tspan
         id="tspan17"
         style="font-variant:normal;font-weight:normal;font-size:9.6px;font-family:'Times New Roman';writing-mode:lr-tb;fill:#000000;fill-opacity:1;fill-rule:nonzero;stroke:none"
         x="0"
         y="0">2.0 m</tspan><tspan
         id="tspan18"
         style="font-variant:normal;font-weight:normal;font-size:9.6px;font-family:'Times New Roman';writing-mode:lr-tb;fill:#000000;fill-opacity:1;fill-rule:nonzero;stroke:none"
         x="83.810501"
         y="-1">2.0 m</tspan></text>
    <path
       id="path19"
       d="m 1703.75,237.184 11.95,-0.461 11.45,1.558 9.84,2.543 8.09,3.977"
       style="fill:none;stroke:#000000;stroke-width:2.24;stroke-linecap:butt;stroke-linejoin:miter;stroke-miterlimit:4;stroke-dasharray:none;stroke-opacity:1"
       transform="matrix(0.13333333,0,0,-0.13333333,0,170.66667)"
       clip-path="url(#clipPath20)" />
    <text
       id="text20"
       xml:space="preserve"
       transform="matrix(1.3333333,0,0,1.3333333,207.83333,153.77867)"
       clip-path="url(#clipPath21)"><tspan
         id="tspan20"
         style="font-variant:normal;font-weight:normal;font-size:9.6px;font-family:'Times New Roman';writing-mode:lr-tb;fill:#000000;fill-opacity:1;fill-rule:nonzero;stroke:none"
         x="0"
         y="0">30°</tspan></text>
    <path
       id="path22"
       d="m 1641.25,200.98 22.15,8.79 24.1,4.41 24.22,4.449 17.73,11.371"
       style="fill:none;stroke:#000000;stroke-width:2.29845;stroke-linecap:butt;stroke-linejoin:miter;stroke-miterlimit:4;stroke-dasharray:none;stroke-opacity:1"
       transform="matrix(0.13333333,0,0,-0.13333333,0,170.66667)"
       clip-path="url(#clipPath23)" />
    <path
       id="path24"
       d="m 59.5313,209.059 v 245"
       style="fill:none;stroke:#231f20;stroke-width:5;stroke-linecap:butt;stroke-linejoin:miter;stroke-miterlimit:3.86369;stroke-dasharray:none;stroke-opacity:1"
       transform="matrix(0.13333333,0,0,-0.13333333,0,170.66667)"
       clip-path="url(#clipPath25)" />
    <path
       id="path26"
       d="M 60.7813,210.941 3.28125,173.441"
       style="fill:none;stroke:#231f20;stroke-width:5;stroke-linecap:butt;stroke-linejoin:miter;stroke-miterlimit:3.86369;stroke-dasharray:none;stroke-opacity:1"
       transform="matrix(0.13333333,0,0,-0.13333333,0,170.66667)"
       clip-path="url(#clipPath27)" />
    <path
       id="path28"
       d="M 60.5117,245.27 3.01172,207.77"
       style="fill:none;stroke:#231f20;stroke-width:5;stroke-linecap:butt;stroke-linejoin:miter;stroke-miterlimit:3.86369;stroke-dasharray:none;stroke-opacity:1"
       transform="matrix(0.13333333,0,0,-0.13333333,0,170.66667)"
       clip-path="url(#clipPath29)" />
    <path
       id="path30"
       d="M 60.2695,279.609 2.76953,242.109"
       style="fill:none;stroke:#231f20;stroke-width:5;stroke-linecap:butt;stroke-linejoin:miter;stroke-miterlimit:3.86369;stroke-dasharray:none;stroke-opacity:1"
       transform="matrix(0.13333333,0,0,-0.13333333,0,170.66667)"
       clip-path="url(#clipPath31)" />
    <path
       id="path32"
       d="M 60,313.949 2.5,276.449"
       style="fill:none;stroke:#231f20;stroke-width:5;stroke-linecap:butt;stroke-linejoin:miter;stroke-miterlimit:3.86369;stroke-dasharray:none;stroke-opacity:1"
       transform="matrix(0.13333333,0,0,-0.13333333,0,170.66667)"
       clip-path="url(#clipPath33)" />
    <path
       id="path34"
       d="M 59.7305,348.281 2.23047,310.781"
       style="fill:none;stroke:#231f20;stroke-width:5;stroke-linecap:butt;stroke-linejoin:miter;stroke-miterlimit:3.86369;stroke-dasharray:none;stroke-opacity:1"
       transform="matrix(0.13333333,0,0,-0.13333333,0,170.66667)"
       clip-path="url(#clipPath35)" />
    <path
       id="path36"
       d="M 59.4492,382.578 1.94922,345.078"
       style="fill:none;stroke:#231f20;stroke-width:5;stroke-linecap:butt;stroke-linejoin:miter;stroke-miterlimit:3.86369;stroke-dasharray:none;stroke-opacity:1"
       transform="matrix(0.13333333,0,0,-0.13333333,0,170.66667)"
       clip-path="url(#clipPath37)" />
    <path
       id="path38"
       d="M 59.1797,416.91 1.67969,379.41"
       style="fill:none;stroke:#231f20;stroke-width:5;stroke-linecap:butt;stroke-linejoin:miter;stroke-miterlimit:3.86369;stroke-dasharray:none;stroke-opacity:1"
       transform="matrix(0.13333333,0,0,-0.13333333,0,170.66667)"
       clip-path="url(#clipPath39)" />
    <path
       id="path40"
       d="M 58.9102,451.25 1.41016,413.75"
       style="fill:none;stroke:#231f20;stroke-width:5;stroke-linecap:butt;stroke-linejoin:miter;stroke-miterlimit:3.86369;stroke-dasharray:none;stroke-opacity:1"
       transform="matrix(0.13333333,0,0,-0.13333333,0,170.66667)"
       clip-path="url(#clipPath41)" />
    <path
       id="path42"
       d="M 1998.32,321.762 H 1873.91"
       style="fill:none;stroke:#231f20;stroke-width:2.5;stroke-linecap:butt;stroke-linejoin:miter;stroke-miterlimit:3.86369;stroke-dasharray:none;stroke-opacity:1"
       transform="matrix(0.13333333,0,0,-0.13333333,0,170.66667)"
       clip-path="url(#clipPath43)" />
    <path
       id="path44"
       d="M 1998.63,1154.38 H 1874.26"
       style="fill:none;stroke:#231f20;stroke-width:2.5;stroke-linecap:butt;stroke-linejoin:miter;stroke-miterlimit:3.86369;stroke-dasharray:none;stroke-opacity:1"
       transform="matrix(0.13333333,0,0,-0.13333333,0,170.66667)"
       clip-path="url(#clipPath45)" />
    <path
       id="path46"
       d="M 1931.91,1171.76 V 284.141"
       style="fill:none;stroke:#231f20;stroke-width:1.6664;stroke-linecap:butt;stroke-linejoin:miter;stroke-miterlimit:3.86369;stroke-dasharray:none;stroke-opacity:1"
       transform="matrix(0.13333333,0,0,-0.13333333,0,170.66667)"
       clip-path="url(#clipPath47)" />
    <text
       id="text47"
       xml:space="preserve"
       transform="matrix(1.3333333,0,0,1.3333333,262.912,78.569733)"
       clip-path="url(#clipPath48)"><tspan
         id="tspan47"
         style="font-variant:normal;font-weight:normal;font-size:9.6px;font-family:'Times New Roman';writing-mode:lr-tb;fill:#000000;fill-opacity:1;fill-rule:nonzero;stroke:none"
         x="0"
         y="0">2.0 m</tspan></text>
    <path
       id="path49"
       d="m 44.2617,326.559 c 0,10.203 8.2774,18.48 18.4688,18.48 10.1992,0 18.4414,-8.277 18.4414,-18.48 0,-10.188 -8.2422,-18.469 -18.4414,-18.469 -10.1914,0 -18.4688,8.281 -18.4688,18.469"
       style="fill:#ffffff;fill-opacity:1;fill-rule:nonzero;stroke:none"
       transform="matrix(0.13333333,0,0,-0.13333333,0,170.66667)"
       clip-path="url(#clipPath50)" />
    <path
       id="path51"
       d="m 41.1719,325.039 c 0,10.191 8.2773,18.441 18.4765,18.441 10.1914,0 18.4805,-8.25 18.4805,-18.441 0,-10.199 -8.2891,-18.48 -18.4805,-18.48 -10.1992,0 -18.4765,8.281 -18.4765,18.48 z"
       style="fill:none;stroke:#231f20;stroke-width:5;stroke-linecap:butt;stroke-linejoin:miter;stroke-miterlimit:3.86369;stroke-dasharray:none;stroke-opacity:1"
       transform="matrix(0.13333333,0,0,-0.13333333,0,170.66667)"
       clip-path="url(#clipPath52)" />
    <path
       id="path53"
       d="m 468.789,747.07 c 8.242,7.7 16.84,11.168 19.141,7.731 2.3,-3.391 -2.5,-12.379 -10.782,-20.071 -8.238,-7.742 -16.796,-11.179 -19.136,-7.781 -2.313,3.403 2.5,12.43 10.777,20.121"
       style="fill:#ffffff;fill-opacity:1;fill-rule:nonzero;stroke:none"
       transform="matrix(0.13333333,0,0,-0.13333333,0,170.66667)"
       clip-path="url(#clipPath54)" />
    <path
       id="path55"
       d="m 1899.69,1124.49 61.52,55.35 -4.61,-3.08"
       style="fill:none;stroke:#000000;stroke-width:1.6;stroke-linecap:butt;stroke-linejoin:miter;stroke-miterlimit:4;stroke-dasharray:none;stroke-opacity:1"
       transform="matrix(0.13333333,0,0,-0.13333333,0,170.66667)"
       clip-path="url(#clipPath56)" />
    <path
       id="path57"
       d="m 1902.27,294.84 61.52,55.359 -4.61,-3.09"
       style="fill:none;stroke:#000000;stroke-width:1.6;stroke-linecap:butt;stroke-linejoin:miter;stroke-miterlimit:4;stroke-dasharray:none;stroke-opacity:1"
       transform="matrix(0.13333333,0,0,-0.13333333,0,170.66667)"
       clip-path="url(#clipPath58)" />
    <path
       id="path59"
       d="m 851.879,40.3516 61.519,55.3476 -4.609,-3.0781"
       style="fill:none;stroke:#000000;stroke-width:1.6;stroke-linecap:butt;stroke-linejoin:miter;stroke-miterlimit:4;stroke-dasharray:none;stroke-opacity:1"
       transform="matrix(0.13333333,0,0,-0.13333333,0,170.66667)"
       clip-path="url(#clipPath60)" />
    <path
       id="path61"
       d="M 16.6016,41.8789 78.1289,97.2305 73.5195,94.1797"
       style="fill:none;stroke:#000000;stroke-width:1.6;stroke-linecap:butt;stroke-linejoin:miter;stroke-miterlimit:4;stroke-dasharray:none;stroke-opacity:1"
       transform="matrix(0.13333333,0,0,-0.13333333,0,170.66667)"
       clip-path="url(#clipPath62)" />
    <path
       id="path63"
       d="m 863.051,326.172 c 0,10.199 8.277,18.476 18.469,18.476 10.199,0 18.441,-8.277 18.441,-18.476 0,-10.192 -8.242,-18.442 -18.441,-18.442 -10.192,0 -18.469,8.25 -18.469,18.442 z"
       style="fill:none;stroke:#231f20;stroke-width:5;stroke-linecap:butt;stroke-linejoin:miter;stroke-miterlimit:3.86369;stroke-dasharray:none;stroke-opacity:1"
       transform="matrix(0.13333333,0,0,-0.13333333,0,170.66667)"
       clip-path="url(#clipPath64)" />
    <path
       id="path65"
       d="m 66.7188,1141.64 h 796.371 v 16.3711 H 66.7188 Z"
       style="fill:none;stroke:#000000;stroke-width:4;stroke-linecap:butt;stroke-linejoin:miter;stroke-miterlimit:4;stroke-dasharray:none;stroke-opacity:1"
       transform="matrix(0.13333333,0,0,-0.13333333,0,170.66667)"
       clip-path="url(#clipPath66)" />
    <path
       id="path67"
       d="m 61.0195,1032.85 v 245"
       style="fill:none;stroke:#231f20;stroke-width:5;stroke-linecap:butt;stroke-linejoin:miter;stroke-miterlimit:3.86369;stroke-dasharray:none;stroke-opacity:1"
       transform="matrix(0.13333333,0,0,-0.13333333,0,170.66667)"
       clip-path="url(#clipPath68)" />
    <path
       id="path69"
       d="M 62.2695,1034.73 4.76953,997.23"
       style="fill:none;stroke:#231f20;stroke-width:5;stroke-linecap:butt;stroke-linejoin:miter;stroke-miterlimit:3.86369;stroke-dasharray:none;stroke-opacity:1"
       transform="matrix(0.13333333,0,0,-0.13333333,0,170.66667)"
       clip-path="url(#clipPath70)" />
    <path
       id="path71"
       d="M 61.9883,1069.06 4.48828,1031.56"
       style="fill:none;stroke:#231f20;stroke-width:5;stroke-linecap:butt;stroke-linejoin:miter;stroke-miterlimit:3.86369;stroke-dasharray:none;stroke-opacity:1"
       transform="matrix(0.13333333,0,0,-0.13333333,0,170.66667)"
       clip-path="url(#clipPath72)" />
    <path
       id="path73"
       d="M 61.7617,1103.4 4.26172,1065.9"
       style="fill:none;stroke:#231f20;stroke-width:5;stroke-linecap:butt;stroke-linejoin:miter;stroke-miterlimit:3.86369;stroke-dasharray:none;stroke-opacity:1"
       transform="matrix(0.13333333,0,0,-0.13333333,0,170.66667)"
       clip-path="url(#clipPath74)" />
    <path
       id="path75"
       d="M 61.4805,1137.7 3.98047,1100.2"
       style="fill:none;stroke:#231f20;stroke-width:5;stroke-linecap:butt;stroke-linejoin:miter;stroke-miterlimit:3.86369;stroke-dasharray:none;stroke-opacity:1"
       transform="matrix(0.13333333,0,0,-0.13333333,0,170.66667)"
       clip-path="url(#clipPath76)" />
    <path
       id="path77"
       d="M 61.2109,1172.03 3.71094,1134.53"
       style="fill:none;stroke:#231f20;stroke-width:5;stroke-linecap:butt;stroke-linejoin:miter;stroke-miterlimit:3.86369;stroke-dasharray:none;stroke-opacity:1"
       transform="matrix(0.13333333,0,0,-0.13333333,0,170.66667)"
       clip-path="url(#clipPath78)" />
    <path
       id="path79"
       d="M 60.9414,1206.37 3.44141,1168.87"
       style="fill:none;stroke:#231f20;stroke-width:5;stroke-linecap:butt;stroke-linejoin:miter;stroke-miterlimit:3.86369;stroke-dasharray:none;stroke-opacity:1"
       transform="matrix(0.13333333,0,0,-0.13333333,0,170.66667)"
       clip-path="url(#clipPath80)" />
    <path
       id="path81"
       d="M 60.6602,1240.7 3.16016,1203.2"
       style="fill:none;stroke:#231f20;stroke-width:5;stroke-linecap:butt;stroke-linejoin:miter;stroke-miterlimit:3.86369;stroke-dasharray:none;stroke-opacity:1"
       transform="matrix(0.13333333,0,0,-0.13333333,0,170.66667)"
       clip-path="url(#clipPath82)" />
    <path
       id="path83"
       d="M 60.4297,1275.04 2.92969,1237.54"
       style="fill:none;stroke:#231f20;stroke-width:5;stroke-linecap:butt;stroke-linejoin:miter;stroke-miterlimit:3.86369;stroke-dasharray:none;stroke-opacity:1"
       transform="matrix(0.13333333,0,0,-0.13333333,0,170.66667)"
       clip-path="url(#clipPath84)" />
    <path
       id="path85"
       d="m 45.7383,1150.35 c 0,10.2 8.2812,18.44 18.4805,18.44 10.1914,0 18.4414,-8.24 18.4414,-18.44 0,-10.19 -8.25,-18.47 -18.4414,-18.47 -10.1993,0 -18.4805,8.28 -18.4805,18.47"
       style="fill:#ffffff;fill-opacity:1;fill-rule:nonzero;stroke:none"
       transform="matrix(0.13333333,0,0,-0.13333333,0,170.66667)"
       clip-path="url(#clipPath86)" />
    <path
       id="path87"
       d="m 42.6602,1148.79 c 0,10.19 8.2812,18.48 18.4687,18.48 10.1992,0 18.4805,-8.29 18.4805,-18.48 0,-10.2 -8.2813,-18.44 -18.4805,-18.44 -10.1875,0 -18.4687,8.24 -18.4687,18.44 z"
       style="fill:none;stroke:#231f20;stroke-width:5;stroke-linecap:butt;stroke-linejoin:miter;stroke-miterlimit:3.86369;stroke-dasharray:none;stroke-opacity:1"
       transform="matrix(0.13333333,0,0,-0.13333333,0,170.66667)"
       clip-path="url(#clipPath88)" />
    <path
       id="path89"
       d="m 861.719,1151.56 c 0,10.2 8.281,18.44 18.48,18.44 10.192,0 18.43,-8.24 18.43,-18.44 0,-10.19 -8.238,-18.47 -18.43,-18.47 -10.199,0 -18.48,8.28 -18.48,18.47 z"
       style="fill:none;stroke:#231f20;stroke-width:5;stroke-linecap:butt;stroke-linejoin:miter;stroke-miterlimit:3.86369;stroke-dasharray:none;stroke-opacity:1"
       transform="matrix(0.13333333,0,0,-0.13333333,0,170.66667)"
       clip-path="url(#clipPath90)" />
    <path
       id="path91"
       d="M 870.941,1127.54 75.3906,333.199 67.4609,345.16 860.551,1139.26"
       style="fill:none;stroke:#000000;stroke-width:4.03247;stroke-linecap:butt;stroke-linejoin:miter;stroke-miterlimit:4;stroke-dasharray:none;stroke-opacity:1"
       transform="matrix(0.13333333,0,0,-0.13333333,0,170.66667)"
       clip-path="url(#clipPath92)" />
    <path
       id="path93"
       d="m 1693.24,342.27 h 15.9023 v 792.77 H 1693.24 Z"
       style="fill:none;stroke:#000000;stroke-width:3.99202;stroke-linecap:butt;stroke-linejoin:miter;stroke-miterlimit:4;stroke-dasharray:none;stroke-opacity:1"
       transform="matrix(0.13333333,0,0,-0.13333333,0,170.66667)"
       clip-path="url(#clipPath94)" />
    <path
       id="path95"
       d="m 898.871,318.789 h 786.09 v 16.3711 h -786.09 z"
       style="fill:none;stroke:#000000;stroke-width:3.97405;stroke-linecap:butt;stroke-linejoin:miter;stroke-miterlimit:4;stroke-dasharray:none;stroke-opacity:1"
       transform="matrix(0.13333333,0,0,-0.13333333,0,170.66667)"
       clip-path="url(#clipPath96)" />
    <path
       id="path97"
       d="m 890.898,1128.87 795.552,-794.382 7.96,11.992 -793.121,794.11"
       style="fill:none;stroke:#000000;stroke-width:4.03247;stroke-linecap:butt;stroke-linejoin:miter;stroke-miterlimit:4;stroke-dasharray:none;stroke-opacity:1"
       transform="matrix(0.13333333,0,0,-0.13333333,0,170.66667)"
       clip-path="url(#clipPath98)" />
    <path
       id="path99"
       d="m 1289.61,747.5 c 8.28,7.699 16.84,11.172 19.14,7.73 2.3,-3.39 -2.5,-12.421 -10.74,-20.109 -8.28,-7.699 -16.84,-11.172 -19.14,-7.742 -2.31,3.402 2.5,12.422 10.74,20.121"
       style="fill:#ffffff;fill-opacity:1;fill-rule:nonzero;stroke:none"
       transform="matrix(0.13333333,0,0,-0.13333333,0,170.66667)"
       clip-path="url(#clipPath100)" />
    <path
       id="path101"
       d="m 1683.87,326.602 c 0,10.199 8.28,18.476 18.47,18.476 10.2,0 18.48,-8.277 18.48,-18.476 0,-10.192 -8.28,-18.473 -18.48,-18.473 -10.19,0 -18.47,8.281 -18.47,18.473 z"
       style="fill:none;stroke:#231f20;stroke-width:5;stroke-linecap:butt;stroke-linejoin:miter;stroke-miterlimit:3.86369;stroke-dasharray:none;stroke-opacity:1"
       transform="matrix(0.13333333,0,0,-0.13333333,0,170.66667)"
       clip-path="url(#clipPath102)" />
    <path
       id="path103"
       d="m 897.852,1142.07 h 786.09 v 16.3711 h -786.09 z"
       style="fill:none;stroke:#000000;stroke-width:3.97405;stroke-linecap:butt;stroke-linejoin:miter;stroke-miterlimit:4;stroke-dasharray:none;stroke-opacity:1"
       transform="matrix(0.13333333,0,0,-0.13333333,0,170.66667)"
       clip-path="url(#clipPath104)" />
    <path
       id="path105"
       d="m 1682.54,1151.99 c 0,10.2 8.28,18.44 18.48,18.44 10.19,0 18.47,-8.24 18.47,-18.44 0,-10.23 -8.28,-18.47 -18.47,-18.47 -10.2,0 -18.48,8.24 -18.48,18.47 z"
       style="fill:none;stroke:#231f20;stroke-width:5;stroke-linecap:butt;stroke-linejoin:miter;stroke-miterlimit:3.86369;stroke-dasharray:none;stroke-opacity:1"
       transform="matrix(0.13333333,0,0,-0.13333333,0,170.66667)"
       clip-path="url(#clipPath106)" />
    <path
       id="path107"
       d="m 1691.8,1127.97 -795.55,-794.38 -7.969,12 793.129,794.1"
       style="fill:none;stroke:#000000;stroke-width:4.03247;stroke-linecap:butt;stroke-linejoin:miter;stroke-miterlimit:4;stroke-dasharray:none;stroke-opacity:1"
       transform="matrix(0.13333333,0,0,-0.13333333,0,170.66667)"
       clip-path="url(#clipPath108)" />
    <path
       id="path109"
       d="M 1703.67,298.789 V 13.1602"
       style="fill:none;stroke:#231f20;stroke-width:2.224;stroke-linecap:butt;stroke-linejoin:miter;stroke-miterlimit:3.86369;stroke-dasharray:none;stroke-opacity:1"
       transform="matrix(0.13333333,0,0,-0.13333333,0,170.66667)"
       clip-path="url(#clipPath110)" />
    <path
       id="path111"
       d="m 1672.89,43.5195 61.49,55.3516 -4.61,-3.0898"
       style="fill:none;stroke:#000000;stroke-width:1.6;stroke-linecap:butt;stroke-linejoin:miter;stroke-miterlimit:4;stroke-dasharray:none;stroke-opacity:1"
       transform="matrix(0.13333333,0,0,-0.13333333,0,170.66667)"
       clip-path="url(#clipPath112)" />
  </g>
</svg>
