<?xml version="1.0" encoding="UTF-8" standalone="no"?>
<!-- Created with Inkscape (http://www.inkscape.org/) -->

<svg
   version="1.1"
   id="svg1"
   width="440"
   height="94.666664"
   viewBox="0 0 440 94.666664"
   sodipodi:docname="exs5_2.eps"
   xmlns:inkscape="http://www.inkscape.org/namespaces/inkscape"
   xmlns:sodipodi="http://sodipodi.sourceforge.net/DTD/sodipodi-0.dtd"
   xmlns="http://www.w3.org/2000/svg"
   xmlns:svg="http://www.w3.org/2000/svg">
  <defs
     id="defs1">
    <clipPath
       clipPathUnits="userSpaceOnUse"
       id="clipPath2">
      <path
         d="M 0,701 H 3300 V 0 H 0 Z"
         id="path2" />
    </clipPath>
    <clipPath
       clipPathUnits="userSpaceOnUse"
       id="clipPath4">
      <path
         d="M 0,701 H 3300 V 0 H 0 Z"
         id="path4" />
    </clipPath>
    <clipPath
       clipPathUnits="userSpaceOnUse"
       id="clipPath6">
      <path
         d="M 0,701 H 3300 V 0 H 0 Z"
         id="path6" />
    </clipPath>
    <clipPath
       clipPathUnits="userSpaceOnUse"
       id="clipPath8">
      <path
         d="M 0,701 H 3300 V 0 H 0 Z"
         id="path8" />
    </clipPath>
    <clipPath
       clipPathUnits="userSpaceOnUse"
       id="clipPath10">
      <path
         d="M 0,701 H 3300 V 0 H 0 Z"
         id="path10" />
    </clipPath>
    <clipPath
       clipPathUnits="userSpaceOnUse"
       id="clipPath12">
      <path
         d="M 0,701 H 3300 V 0 H 0 Z"
         id="path12" />
    </clipPath>
    <clipPath
       clipPathUnits="userSpaceOnUse"
       id="clipPath14">
      <path
         d="M 0,701 H 3300 V 0 H 0 Z"
         id="path14" />
    </clipPath>
    <clipPath
       clipPathUnits="userSpaceOnUse"
       id="clipPath16">
      <path
         d="M 0,701 H 3300 V 0 H 0 Z"
         id="path16" />
    </clipPath>
    <clipPath
       clipPathUnits="userSpaceOnUse"
       id="clipPath18">
      <path
         d="M 0,701 H 3300 V 0 H 0 Z"
         id="path18" />
    </clipPath>
    <clipPath
       clipPathUnits="userSpaceOnUse"
       id="clipPath20">
      <path
         d="M 0,701 H 3300 V 0 H 0 Z"
         id="path20" />
    </clipPath>
    <clipPath
       clipPathUnits="userSpaceOnUse"
       id="clipPath22">
      <path
         d="M 0,701 H 3300 V 0 H 0 Z"
         id="path22" />
    </clipPath>
    <clipPath
       clipPathUnits="userSpaceOnUse"
       id="clipPath24">
      <path
         d="M 0,701 H 3300 V 0 H 0 Z"
         id="path24" />
    </clipPath>
    <clipPath
       clipPathUnits="userSpaceOnUse"
       id="clipPath26">
      <path
         d="M 0,701 H 3300 V 0 H 0 Z"
         id="path26" />
    </clipPath>
    <clipPath
       clipPathUnits="userSpaceOnUse"
       id="clipPath28">
      <path
         d="M 0,701 H 3300 V 0 H 0 Z"
         id="path28" />
    </clipPath>
    <clipPath
       clipPathUnits="userSpaceOnUse"
       id="clipPath30">
      <path
         d="M 0,701 H 3300 V 0 H 0 Z"
         id="path30" />
    </clipPath>
    <clipPath
       clipPathUnits="userSpaceOnUse"
       id="clipPath32">
      <path
         d="M 0,701 H 3300 V 0 H 0 Z"
         id="path32" />
    </clipPath>
    <clipPath
       clipPathUnits="userSpaceOnUse"
       id="clipPath34">
      <path
         d="M 0,701 H 3300 V 0 H 0 Z"
         transform="matrix(0.96784806,0,0,-1.0343657,0,-2.5859144e-6)"
         id="path34" />
    </clipPath>
    <clipPath
       clipPathUnits="userSpaceOnUse"
       id="clipPath36">
      <path
         d="M 0,701 H 3300 V 0 H 0 Z"
         id="path36" />
    </clipPath>
    <clipPath
       clipPathUnits="userSpaceOnUse"
       id="clipPath38">
      <path
         d="M 0,701 H 3300 V 0 H 0 Z"
         id="path38" />
    </clipPath>
    <clipPath
       clipPathUnits="userSpaceOnUse"
       id="clipPath40">
      <path
         d="M 0,701 H 3300 V 0 H 0 Z"
         id="path40" />
    </clipPath>
    <clipPath
       clipPathUnits="userSpaceOnUse"
       id="clipPath42">
      <path
         d="M 0,701 H 3300 V 0 H 0 Z"
         id="path42" />
    </clipPath>
    <clipPath
       clipPathUnits="userSpaceOnUse"
       id="clipPath44">
      <path
         d="M 0,701 H 3300 V 0 H 0 Z"
         transform="matrix(0.96784806,0,0,-1.0343657,0,-2.5859144e-6)"
         id="path44" />
    </clipPath>
    <clipPath
       clipPathUnits="userSpaceOnUse"
       id="clipPath46">
      <path
         d="M 0,701 H 3300 V 0 H 0 Z"
         id="path46" />
    </clipPath>
    <clipPath
       clipPathUnits="userSpaceOnUse"
       id="clipPath48">
      <path
         d="M 0,701 H 3300 V 0 H 0 Z"
         id="path48" />
    </clipPath>
    <clipPath
       clipPathUnits="userSpaceOnUse"
       id="clipPath50">
      <path
         d="M 0,701 H 3300 V 0 H 0 Z"
         id="path50" />
    </clipPath>
    <clipPath
       clipPathUnits="userSpaceOnUse"
       id="clipPath52">
      <path
         d="M 0,701 H 3300 V 0 H 0 Z"
         id="path52" />
    </clipPath>
    <clipPath
       clipPathUnits="userSpaceOnUse"
       id="clipPath65">
      <path
         d="M 0,701 H 3300 V 0 H 0 Z"
         transform="matrix(0.1,0,0,-0.1,-36.709801,41.985901)"
         id="path65" />
    </clipPath>
  </defs>
  <sodipodi:namedview
     id="namedview1"
     pagecolor="#ffffff"
     bordercolor="#000000"
     borderopacity="0.25"
     inkscape:showpageshadow="2"
     inkscape:pageopacity="0.0"
     inkscape:pagecheckerboard="0"
     inkscape:deskcolor="#d1d1d1">
    <inkscape:page
       x="0"
       y="0"
       inkscape:label="1"
       id="page1"
       width="440"
       height="94.666664"
       margin="0"
       bleed="0" />
  </sodipodi:namedview>
  <g
     id="g1"
     inkscape:groupmode="layer"
     inkscape:label="1">
    <path
       id="path1"
       d="M 195,152.98 H 3000"
       style="fill:none;stroke:#231f20;stroke-width:8;stroke-linecap:butt;stroke-linejoin:miter;stroke-miterlimit:3.8637;stroke-dasharray:none;stroke-opacity:1"
       transform="matrix(0.13333333,0,0,-0.13333333,0,94.666667)"
       clip-path="url(#clipPath2)" />
    <path
       id="path3"
       d="m 3010,178.961 v 0 c 14.88,0.309 27.34,-12.152 26.99,-27.973 0.35,-14.879 -12.11,-27.34 -26.99,-27.027 -15.82,-0.313 -28.28,12.148 -28.01,27.027 -0.27,15.821 12.19,28.282 28.01,27.973"
       style="fill:#231f20;fill-opacity:1;fill-rule:evenodd;stroke:none"
       transform="matrix(0.13333333,0,0,-0.13333333,0,94.666667)"
       clip-path="url(#clipPath4)" />
    <path
       id="path5"
       d="m 2841.99,356.969 c 28.6,66.679 94.65,113.121 171.99,113 102.9,0.121 186.53,-79.84 187.04,-183"
       style="fill:none;stroke:#231f20;stroke-width:2.5;stroke-linecap:butt;stroke-linejoin:miter;stroke-miterlimit:3.8637;stroke-dasharray:none;stroke-opacity:1"
       transform="matrix(0.13333333,0,0,-0.13333333,0,94.666667)"
       clip-path="url(#clipPath6)" />
    <path
       id="path7"
       d="m 2843.01,359.969 13.98,-6.008 -28.98,-28.992 0.97,40 14.03,-5"
       style="fill:#231f20;fill-opacity:1;fill-rule:evenodd;stroke:none"
       transform="matrix(0.13333333,0,0,-0.13333333,0,94.666667)"
       clip-path="url(#clipPath8)" />
    <path
       id="path9"
       d="m 3020,543.961 v -260"
       style="fill:none;stroke:#231f20;stroke-width:2.5;stroke-linecap:butt;stroke-linejoin:miter;stroke-miterlimit:3.8637;stroke-dasharray:none;stroke-opacity:1"
       transform="matrix(0.13333333,0,0,-0.13333333,0,94.666667)"
       clip-path="url(#clipPath10)" />
    <path
       id="path11"
       d="m 3020,540.988 h -15 l 15,37.973 15,-37.973 h -15"
       style="fill:#231f20;fill-opacity:1;fill-rule:evenodd;stroke:none"
       transform="matrix(0.13333333,0,0,-0.13333333,0,94.666667)"
       clip-path="url(#clipPath12)" />
    <path
       id="path13"
       d="m 941.988,356.969 c 28.91,66.172 94.962,112.652 171.992,113 103.25,-0.348 186.84,-80.348 187.04,-183.981"
       style="fill:none;stroke:#231f20;stroke-width:2.5;stroke-linecap:butt;stroke-linejoin:miter;stroke-miterlimit:3.8637;stroke-dasharray:none;stroke-opacity:1"
       transform="matrix(0.13333333,0,0,-0.13333333,0,94.666667)"
       clip-path="url(#clipPath14)" />
    <path
       id="path15"
       d="m 943.012,358.961 13.976,-5.981 -28.976,-28.011 0.968,40 14.032,-6.008"
       style="fill:#231f20;fill-opacity:1;fill-rule:evenodd;stroke:none"
       transform="matrix(0.13333333,0,0,-0.13333333,0,94.666667)"
       clip-path="url(#clipPath16)" />
    <path
       id="path17"
       d="m 1121.02,542.98 v -260"
       style="fill:none;stroke:#231f20;stroke-width:2.5;stroke-linecap:butt;stroke-linejoin:miter;stroke-miterlimit:3.8637;stroke-dasharray:none;stroke-opacity:1"
       transform="matrix(0.13333333,0,0,-0.13333333,0,94.666667)"
       clip-path="url(#clipPath18)" />
    <path
       id="path19"
       d="m 1121.02,540.988 h -15 l 15,36.992 15,-36.992 h -15"
       style="fill:#231f20;fill-opacity:1;fill-rule:evenodd;stroke:none"
       transform="matrix(0.13333333,0,0,-0.13333333,0,94.666667)"
       clip-path="url(#clipPath20)" />
    <path
       id="path21"
       d="M 13.9805,353.961 C 42.2305,420.719 108.32,467.16 185,466.969 288.551,467.16 372.191,387.199 371.988,283.961"
       style="fill:none;stroke:#231f20;stroke-width:2.5;stroke-linecap:butt;stroke-linejoin:miter;stroke-miterlimit:3.8637;stroke-dasharray:none;stroke-opacity:1"
       transform="matrix(0.13333333,0,0,-0.13333333,0,94.666667)"
       clip-path="url(#clipPath22)" />
    <path
       id="path23"
       d="M 13.9805,356.969 28.0117,350.988 0,321.969 l 1.01953,40 12.96097,-5"
       style="fill:#231f20;fill-opacity:1;fill-rule:evenodd;stroke:none"
       transform="matrix(0.13333333,0,0,-0.13333333,0,94.666667)"
       clip-path="url(#clipPath24)" />
    <path
       id="path25"
       d="m 191.988,540.988 v -260"
       style="fill:none;stroke:#231f20;stroke-width:2.5;stroke-linecap:butt;stroke-linejoin:miter;stroke-miterlimit:3.8637;stroke-dasharray:none;stroke-opacity:1"
       transform="matrix(0.13333333,0,0,-0.13333333,0,94.666667)"
       clip-path="url(#clipPath26)" />
    <path
       id="path27"
       d="m 191.988,537.98 h -15 l 15,38.008 15,-38.008 h -15"
       style="fill:#231f20;fill-opacity:1;fill-rule:evenodd;stroke:none"
       transform="matrix(0.13333333,0,0,-0.13333333,0,94.666667)"
       clip-path="url(#clipPath28)" />
    <path
       id="path29"
       d="m 1118.91,184.109 v 0 c 14.92,0.282 27.34,-12.14 26.99,-28 0.35,-14.89 -12.07,-27.347 -26.99,-27 -15.82,-0.347 -28.25,12.11 -28.01,27 -0.24,15.86 12.19,28.282 28.01,28"
       style="fill:#231f20;fill-opacity:1;fill-rule:evenodd;stroke:none"
       transform="matrix(0.13333333,0,0,-0.13333333,0,94.666667)"
       clip-path="url(#clipPath30)" />
    <path
       id="path31"
       d="m 195.23,175.359 v 0 c 14.93,0.282 27.348,-12.179 27,-28 0.348,-14.89 -12.07,-27.347 -27,-27 -15.82,-0.347 -28.281,12.11 -28,27 -0.281,15.821 12.18,28.282 28,28"
       style="fill:#231f20;fill-opacity:1;fill-rule:evenodd;stroke:none"
       transform="matrix(0.13333333,0,0,-0.13333333,0,94.666667)"
       clip-path="url(#clipPath32)" />
    <path
       id="path33"
       d="m 696.923,-74.842 c 0,34.9098 -26.275,63.1892 -58.641,63.1892 -32.393,0 -58.668,-28.2794 -58.668,-63.1892 0,-34.874 26.275,-63.153 58.668,-63.153 32.366,0 58.641,28.279 58.641,63.153 z"
       style="fill:none;stroke:#000000;stroke-width:2.59005;stroke-linecap:butt;stroke-linejoin:miter;stroke-miterlimit:4;stroke-dasharray:none;stroke-opacity:1"
       transform="matrix(0.13776267,0,0,0.12890347,0,94.666667)"
       clip-path="url(#clipPath34)" />
    <path
       id="path35"
       d="M 720.039,72.1602 821.52,72.5117"
       style="fill:none;stroke:#000000;stroke-width:2.87827;stroke-linecap:butt;stroke-linejoin:miter;stroke-miterlimit:4;stroke-dasharray:none;stroke-opacity:1"
       transform="matrix(0.13333333,0,0,-0.13333333,0,94.666667)"
       clip-path="url(#clipPath36)" />
    <path
       id="path37"
       d="M 792.73,72.5117 781.25,84.0391 821.52,72.5117 781.25,60.9883 Z"
       style="fill:#000000;fill-opacity:1;fill-rule:evenodd;stroke:none"
       transform="matrix(0.13333333,0,0,-0.13333333,0,94.666667)"
       clip-path="url(#clipPath38)" />
    <path
       id="path39"
       d="M 792.73,72.5117 781.25,84.0391 821.52,72.5117 781.25,60.9922 Z"
       style="fill:none;stroke:#000000;stroke-width:2.87827;stroke-linecap:butt;stroke-linejoin:miter;stroke-miterlimit:4;stroke-dasharray:none;stroke-opacity:1"
       transform="matrix(0.13333333,0,0,-0.13333333,0,94.666667)"
       clip-path="url(#clipPath40)" />
    <path
       id="path41"
       d="M 498.09,70.1719 H 599.301"
       style="fill:none;stroke:#000000;stroke-width:2.83465;stroke-linecap:butt;stroke-linejoin:miter;stroke-miterlimit:4;stroke-dasharray:none;stroke-opacity:1"
       transform="matrix(0.13333333,0,0,-0.13333333,0,94.666667)"
       clip-path="url(#clipPath42)" />
    <path
       id="path43"
       d="m 2068.65,-85.0241 c 0,34.9099 -26.28,63.1893 -58.67,63.1893 -32.4,0 -58.64,-28.2794 -58.64,-63.1893 0,-34.8739 26.24,-63.1529 58.64,-63.1529 32.39,0 58.67,28.279 58.67,63.1529 z"
       style="fill:none;stroke:#000000;stroke-width:2.59005;stroke-linecap:butt;stroke-linejoin:miter;stroke-miterlimit:4;stroke-dasharray:none;stroke-opacity:1"
       transform="matrix(0.13776267,0,0,0.12890347,0,94.666667)"
       clip-path="url(#clipPath44)" />
    <path
       id="path45"
       d="m 2137.3,82.0117 101.53,0.3477"
       style="fill:none;stroke:#000000;stroke-width:2.87827;stroke-linecap:butt;stroke-linejoin:miter;stroke-miterlimit:4;stroke-dasharray:none;stroke-opacity:1"
       transform="matrix(0.13333333,0,0,-0.13333333,0,94.666667)"
       clip-path="url(#clipPath46)" />
    <path
       id="path47"
       d="m 2210.04,82.3594 -11.52,11.5195 40.31,-11.5195 -40.31,-11.5313 z"
       style="fill:#000000;fill-opacity:1;fill-rule:evenodd;stroke:none"
       transform="matrix(0.13333333,0,0,-0.13333333,0,94.666667)"
       clip-path="url(#clipPath48)" />
    <path
       id="path49"
       d="m 2210.04,82.3594 -11.52,11.5234 40.31,-11.5234 -40.31,-11.5274 z"
       style="fill:none;stroke:#000000;stroke-width:2.87827;stroke-linecap:butt;stroke-linejoin:miter;stroke-miterlimit:4;stroke-dasharray:none;stroke-opacity:1"
       transform="matrix(0.13333333,0,0,-0.13333333,0,94.666667)"
       clip-path="url(#clipPath50)" />
    <path
       id="path51"
       d="m 1915.39,80.0117 h 101.17"
       style="fill:none;stroke:#000000;stroke-width:2.83465;stroke-linecap:butt;stroke-linejoin:miter;stroke-miterlimit:4;stroke-dasharray:none;stroke-opacity:1"
       transform="matrix(0.13333333,0,0,-0.13333333,0,94.666667)"
       clip-path="url(#clipPath52)" />
    <text
       id="text52"
       xml:space="preserve"
       transform="matrix(1.3333333,0,0,1.3333333,48.9464,38.685467)"
       clip-path="url(#clipPath65)"><tspan
         id="tspan52"
         style="font-style:italic;font-variant:normal;font-weight:normal;font-size:12px;font-family:'Times New Roman';writing-mode:lr-tb;fill:#000000;fill-opacity:1;fill-rule:nonzero;stroke:none"
         x="0"
         y="0">a</tspan><tspan
         id="tspan53"
         style="font-variant:normal;font-weight:normal;font-size:8px;font-family:'Times New Roman';writing-mode:lr-tb;fill:#000000;fill-opacity:1;fill-rule:nonzero;stroke:none"
         x="6"
         y="1.92031">2</tspan><tspan
         id="tspan54"
         style="font-style:italic;font-variant:normal;font-weight:normal;font-size:12px;font-family:'Times New Roman';writing-mode:lr-tb;fill:#000000;fill-opacity:1;fill-rule:nonzero;stroke:none"
         x="-17.948"
         y="-21.449989">a</tspan><tspan
         id="tspan55"
         style="font-variant:normal;font-weight:normal;font-size:8px;font-family:'Times New Roman';writing-mode:lr-tb;fill:#000000;fill-opacity:1;fill-rule:nonzero;stroke:none"
         x="-11.948"
         y="-19.530069">1</tspan><tspan
         id="tspan56"
         style="font-style:italic;font-variant:normal;font-weight:normal;font-size:12px;font-family:'Times New Roman';writing-mode:lr-tb;fill:#000000;fill-opacity:1;fill-rule:nonzero;stroke:none"
         x="76.608299"
         y="-22.763269">a</tspan><tspan
         id="tspan57"
         style="font-variant:normal;font-weight:normal;font-size:8px;font-family:'Times New Roman';writing-mode:lr-tb;fill:#000000;fill-opacity:1;fill-rule:nonzero;stroke:none"
         x="82.608299"
         y="-20.843349">3</tspan><tspan
         id="tspan58"
         style="font-style:italic;font-variant:normal;font-weight:normal;font-size:12px;font-family:'Times New Roman';writing-mode:lr-tb;fill:#000000;fill-opacity:1;fill-rule:nonzero;stroke:none"
         x="92.367683"
         y="-0.43744999">a</tspan><tspan
         id="tspan59"
         style="font-variant:normal;font-weight:normal;font-size:8px;font-family:'Times New Roman';writing-mode:lr-tb;fill:#000000;fill-opacity:1;fill-rule:nonzero;stroke:none"
         x="98.367683"
         y="1.48247">4</tspan><tspan
         id="tspan60"
         style="font-style:italic;font-variant:normal;font-weight:normal;font-size:12px;font-family:'Times New Roman';writing-mode:lr-tb;fill:#000000;fill-opacity:1;fill-rule:nonzero;stroke:none"
         x="269.22269"
         y="-20.57453">a</tspan><tspan
         id="tspan61"
         style="font-variant:normal;font-weight:normal;font-size:8px;font-family:'Times New Roman';writing-mode:lr-tb;fill:#000000;fill-opacity:1;fill-rule:nonzero;stroke:none"
         x="275.22269"
         y="-18.65461">5</tspan><tspan
         id="tspan62"
         style="font-style:italic;font-variant:normal;font-weight:normal;font-size:12px;font-family:'Times New Roman';writing-mode:lr-tb;fill:#000000;fill-opacity:1;fill-rule:nonzero;stroke:none"
         x="283.23126"
         y="-0.87531">a</tspan><tspan
         id="tspan63"
         style="font-variant:normal;font-weight:normal;font-size:8px;font-family:'Times New Roman';writing-mode:lr-tb;fill:#000000;fill-opacity:1;fill-rule:nonzero;stroke:none"
         x="289.23126"
         y="1.04461">6</tspan><tspan
         id="tspan64"
         style="font-variant:normal;font-weight:normal;font-size:12px;font-family:'Times New Roman';writing-mode:lr-tb;fill:#000000;fill-opacity:1;fill-rule:nonzero;stroke:none"
         x="26.70327"
         y="38.523109">1</tspan><tspan
         id="tspan65"
         style="font-variant:normal;font-weight:normal;font-size:12px;font-family:'Times New Roman';writing-mode:lr-tb;fill:#000000;fill-opacity:1;fill-rule:nonzero;stroke:none"
         x="168.46828"
         y="37.384441">2</tspan></text>
  </g>
</svg>
