<?xml version="1.0" encoding="UTF-8" standalone="no"?>
<!-- Created with Inkscape (http://www.inkscape.org/) -->

<svg
   version="1.1"
   id="svg1"
   width="560"
   height="190.66667"
   viewBox="0 0 560 190.66667"
   sodipodi:docname="exs5_4.eps"
   xmlns:inkscape="http://www.inkscape.org/namespaces/inkscape"
   xmlns:sodipodi="http://sodipodi.sourceforge.net/DTD/sodipodi-0.dtd"
   xmlns="http://www.w3.org/2000/svg"
   xmlns:svg="http://www.w3.org/2000/svg">
  <defs
     id="defs1">
    <clipPath
       clipPathUnits="userSpaceOnUse"
       id="clipPath2">
      <path
         d="M 0,4 V 1430 H 4200 V 4 Z"
         transform="translate(0,2.5000001e-5)"
         id="path2" />
    </clipPath>
    <clipPath
       clipPathUnits="userSpaceOnUse"
       id="clipPath4">
      <path
         d="M 0,4 V 1430 H 4200 V 4 Z"
         transform="translate(0,2.5000001e-5)"
         id="path4" />
    </clipPath>
    <clipPath
       clipPathUnits="userSpaceOnUse"
       id="clipPath6">
      <path
         d="M 0,4 V 1430 H 4200 V 4 Z"
         transform="translate(0,2.5000001e-5)"
         id="path6" />
    </clipPath>
    <clipPath
       clipPathUnits="userSpaceOnUse"
       id="clipPath8">
      <path
         d="M 0,4 V 1430 H 4200 V 4 Z"
         transform="translate(0,2.5000001e-5)"
         id="path8" />
    </clipPath>
    <clipPath
       clipPathUnits="userSpaceOnUse"
       id="clipPath10">
      <path
         d="M 0,4 V 1430 H 4200 V 4 Z"
         transform="translate(0,2.5000001e-5)"
         id="path10" />
    </clipPath>
    <clipPath
       clipPathUnits="userSpaceOnUse"
       id="clipPath12">
      <path
         d="M 0,4 V 1430 H 4200 V 4 Z"
         transform="translate(0,2.5000001e-5)"
         id="path12" />
    </clipPath>
    <clipPath
       clipPathUnits="userSpaceOnUse"
       id="clipPath14">
      <path
         d="M 0,4 V 1430 H 4200 V 4 Z"
         transform="matrix(0.1,0,0,-0.1,-81.500005,4.0000026)"
         id="path14" />
    </clipPath>
    <clipPath
       clipPathUnits="userSpaceOnUse"
       id="clipPath16">
      <path
         d="M 0,4 V 1430 H 4200 V 4 Z"
         transform="translate(0,2.5000001e-5)"
         id="path16" />
    </clipPath>
    <clipPath
       clipPathUnits="userSpaceOnUse"
       id="clipPath18">
      <path
         d="M 0,4 V 1430 H 4200 V 4 Z"
         transform="matrix(0.1,0,0,-0.1,-140.75001,4.0000026)"
         id="path18" />
    </clipPath>
    <clipPath
       clipPathUnits="userSpaceOnUse"
       id="clipPath20">
      <path
         d="M 0,4 V 1430 H 4200 V 4 Z"
         transform="translate(0,2.5000001e-5)"
         id="path20" />
    </clipPath>
    <clipPath
       clipPathUnits="userSpaceOnUse"
       id="clipPath22">
      <path
         d="M 0,4 V 1430 H 4200 V 4 Z"
         transform="matrix(0.1,0,0,-0.1,-200.00001,4.0000026)"
         id="path22" />
    </clipPath>
    <clipPath
       clipPathUnits="userSpaceOnUse"
       id="clipPath24">
      <path
         d="M 0,4 V 1430 H 4200 V 4 Z"
         transform="translate(0,2.5000001e-5)"
         id="path24" />
    </clipPath>
    <clipPath
       clipPathUnits="userSpaceOnUse"
       id="clipPath26">
      <path
         d="M 0,4 V 1430 H 4200 V 4 Z"
         transform="matrix(0.1,0,0,-0.1,-259.25001,4.0000026)"
         id="path26" />
    </clipPath>
    <clipPath
       clipPathUnits="userSpaceOnUse"
       id="clipPath28">
      <path
         d="M 0,4 V 1430 H 4200 V 4 Z"
         transform="translate(0,2.5000001e-5)"
         id="path28" />
    </clipPath>
    <clipPath
       clipPathUnits="userSpaceOnUse"
       id="clipPath30">
      <path
         d="M 0,4 V 1430 H 4200 V 4 Z"
         transform="matrix(0.1,0,0,-0.1,-318.50001,4.0000026)"
         id="path30" />
    </clipPath>
    <clipPath
       clipPathUnits="userSpaceOnUse"
       id="clipPath32">
      <path
         d="M 0,4 V 1430 H 4200 V 4 Z"
         transform="translate(0,2.5000001e-5)"
         id="path32" />
    </clipPath>
    <clipPath
       clipPathUnits="userSpaceOnUse"
       id="clipPath34">
      <path
         d="M 0,4 V 1430 H 4200 V 4 Z"
         transform="matrix(0.1,0,0,-0.1,-375.00001,4.0000026)"
         id="path34" />
    </clipPath>
    <clipPath
       clipPathUnits="userSpaceOnUse"
       id="clipPath36">
      <path
         d="M 0,4 V 1430 H 4200 V 4 Z"
         transform="translate(0,2.5000001e-5)"
         id="path36" />
    </clipPath>
    <clipPath
       clipPathUnits="userSpaceOnUse"
       id="clipPath38">
      <path
         d="M 0,4 V 1430 H 4200 V 4 Z"
         transform="matrix(0.1,0,0,-0.1,-23.750001,96.916802)"
         id="path38" />
    </clipPath>
    <clipPath
       clipPathUnits="userSpaceOnUse"
       id="clipPath40">
      <path
         d="M 0,4 V 1430 H 4200 V 4 Z"
         transform="translate(0,2.5000001e-5)"
         id="path40" />
    </clipPath>
    <clipPath
       clipPathUnits="userSpaceOnUse"
       id="clipPath42">
      <path
         d="M 0,4 V 1430 H 4200 V 4 Z"
         transform="matrix(0.1,0,0,-0.1,-46.250001,54.666801)"
         id="path42" />
    </clipPath>
    <clipPath
       clipPathUnits="userSpaceOnUse"
       id="clipPath44">
      <path
         d="M 0,4 V 1430 H 4200 V 4 Z"
         transform="translate(0,2.5000001e-5)"
         id="path44" />
    </clipPath>
    <clipPath
       clipPathUnits="userSpaceOnUse"
       id="clipPath46">
      <path
         d="M 0,4 V 1430 H 4200 V 4 Z"
         transform="matrix(0.1,0,0,-0.1,-29.583201,12.416803)"
         id="path46" />
    </clipPath>
    <clipPath
       clipPathUnits="userSpaceOnUse"
       id="clipPath48">
      <path
         d="m 546.668,160 h 3259.16 V 1258.33 H 546.668 Z"
         transform="translate(0,2.5000001e-5)"
         id="path48" />
    </clipPath>
    <clipPath
       clipPathUnits="userSpaceOnUse"
       id="clipPath50">
      <path
         d="m 546.668,160 h 3259.16 V 1258.33 H 546.668 Z"
         transform="translate(0,2.5000001e-5)"
         id="path50" />
    </clipPath>
    <clipPath
       clipPathUnits="userSpaceOnUse"
       id="clipPath52">
      <path
         d="M 0,4 H 4200 V 1430 H 0 Z"
         transform="matrix(0.1,0,0,-0.1,-192.667,133.75)"
         id="path52" />
    </clipPath>
  </defs>
  <sodipodi:namedview
     id="namedview1"
     pagecolor="#ffffff"
     bordercolor="#000000"
     borderopacity="0.25"
     inkscape:showpageshadow="2"
     inkscape:pageopacity="0.0"
     inkscape:pagecheckerboard="0"
     inkscape:deskcolor="#d1d1d1">
    <inkscape:page
       x="0"
       y="0"
       inkscape:label="1"
       id="page1"
       width="560"
       height="190.66667"
       margin="0"
       bleed="0" />
  </sodipodi:namedview>
  <g
     id="g1"
     inkscape:groupmode="layer"
     inkscape:label="1">
    <path
       id="path1"
       d="M 0,4 H 4200 V 1430 H 0 Z"
       style="fill:#ffffff;fill-opacity:1;fill-rule:nonzero;stroke:none"
       transform="matrix(0.13333333,0,0,-0.13333333,0,190.66667)"
       clip-path="url(#clipPath2)" />
    <path
       id="path3"
       d="m 545.832,160.832 h 3259.17 v 1097.5 H 545.832 Z"
       style="fill:#ffffff;fill-opacity:1;fill-rule:evenodd;stroke:none"
       transform="matrix(0.13333333,0,0,-0.13333333,0,190.66667)"
       clip-path="url(#clipPath4)" />
    <path
       id="path5"
       d="M 545.832,1258.33 V 160.832 H 3805 V 1258.33 H 545.832"
       style="fill:none;stroke:#ffffff;stroke-width:5;stroke-linecap:butt;stroke-linejoin:round;stroke-miterlimit:10;stroke-dasharray:none;stroke-opacity:1"
       transform="matrix(0.13333333,0,0,-0.13333333,0,190.66667)"
       clip-path="url(#clipPath6)" />
    <path
       id="path7"
       d="M 545.832,160.832 H 3805"
       style="fill:none;stroke:#000000;stroke-width:5;stroke-linecap:butt;stroke-linejoin:round;stroke-miterlimit:10;stroke-dasharray:none;stroke-opacity:1"
       transform="matrix(0.13333333,0,0,-0.13333333,0,190.66667)"
       clip-path="url(#clipPath8)" />
    <path
       id="path9"
       d="M 545.832,1258.33 V 160.832"
       style="fill:none;stroke:#000000;stroke-width:5;stroke-linecap:butt;stroke-linejoin:round;stroke-miterlimit:10;stroke-dasharray:none;stroke-opacity:1"
       transform="matrix(0.13333333,0,0,-0.13333333,0,190.66667)"
       clip-path="url(#clipPath10)" />
    <path
       id="path11"
       d="m 842.5,160.832 v 33.336"
       style="fill:none;stroke:#000000;stroke-width:5;stroke-linecap:butt;stroke-linejoin:round;stroke-miterlimit:10;stroke-dasharray:none;stroke-opacity:1"
       transform="matrix(0.13333333,0,0,-0.13333333,0,190.66667)"
       clip-path="url(#clipPath12)" />
    <path
       id="path13"
       d="m 2.7548828,-7.2314453 c -0.6679687,0 -1.265625,0.3046875 -1.6289062,0.796875 -0.46875004,0.6328125 -0.69140629,1.59375 -0.69140629,2.9296875 0,2.4492187 0.79687499,3.73828124 2.32031249,3.73828124 1.5,0 2.3085938,-1.28906254 2.3085938,-3.66796874 0,-1.40625 -0.2109375,-2.34375 -0.6796875,-3 -0.375,-0.5039063 -0.9609375,-0.796875 -1.6289063,-0.796875 z m 0,0.7851562 c 0.9492188,0 1.4179688,0.9726563 1.4179688,2.9296875 0,2.0507813 -0.46875,3.01171879 -1.4414063,3.01171879 -0.9257812,0 -1.40625,-0.99609379 -1.40625,-2.98828129 0,-1.9804687 0.4804688,-2.953125 1.4296875,-2.953125 z m 0,0"
       style="fill:#000000;fill-opacity:1;fill-rule:nonzero;stroke:none"
       aria-label="0"
       transform="matrix(1.3333333,0,0,1.3333333,108.66667,185.33333)"
       clip-path="url(#clipPath14)" />
    <path
       id="path15"
       d="m 1435,160.832 v 33.336"
       style="fill:none;stroke:#000000;stroke-width:5;stroke-linecap:butt;stroke-linejoin:round;stroke-miterlimit:10;stroke-dasharray:none;stroke-opacity:1"
       transform="matrix(0.13333333,0,0,-0.13333333,0,190.66667)"
       clip-path="url(#clipPath16)" />
    <path
       id="path17"
       d="M 5.0634766,-0.86816406 H 1.3251953 C 1.4189453,-1.4658203 1.7353516,-1.8525391 2.6142578,-2.3798828 l 0.9960938,-0.5625 c 0.984375,-0.5507813 1.5,-1.2890625 1.5,-2.1796875 0,-0.5976563 -0.2460938,-1.1601563 -0.65625,-1.546875 -0.421875,-0.375 -0.9492188,-0.5625 -1.6171875,-0.5625 -0.9023438,0 -1.5703125,0.328125 -1.95703129,0.9375 -0.24609375,0.3867187 -0.36328125,0.8320312 -0.375,1.5703125 H 1.3837891 c 0.023437,-0.4921875 0.082031,-0.7851563 0.2109375,-1.0195313 0.2226562,-0.4453125 0.6796875,-0.7148437 1.21875,-0.7148437 0.796875,0 1.3945312,0.5742187 1.3945312,1.359375 0,0.5742187 -0.328125,1.078125 -0.9609375,1.4414062 l -0.9140625,0.5390625 c -1.47656249,0.84375 -1.91015624,1.5234375 -1.99218749,3.10546879 H 5.0634766 Z m 0,0"
       style="fill:#000000;fill-opacity:1;fill-rule:nonzero;stroke:none"
       aria-label="2"
       transform="matrix(1.3333333,0,0,1.3333333,187.66667,185.33333)"
       clip-path="url(#clipPath18)" />
    <path
       id="path19"
       d="m 2027.5,160.832 v 33.336"
       style="fill:none;stroke:#000000;stroke-width:5;stroke-linecap:butt;stroke-linejoin:round;stroke-miterlimit:10;stroke-dasharray:none;stroke-opacity:1"
       transform="matrix(0.13333333,0,0,-0.13333333,0,190.66667)"
       clip-path="url(#clipPath20)" />
    <path
       id="path21"
       d="M 3.2705078,-1.7470703 V -9.765625e-4 H 4.1494141 V -1.7470703 h 1.0546875 v -0.796875 H 4.1494141 v -4.6875 H 3.5048828 l -3.22265624,4.546875 v 0.9375 z m 0,-0.796875 H 1.0556641 l 2.2148437,-3.1875 z m 0,0"
       style="fill:#000000;fill-opacity:1;fill-rule:nonzero;stroke:none"
       aria-label="4"
       transform="matrix(1.3333333,0,0,1.3333333,266.66667,185.33333)"
       clip-path="url(#clipPath22)" />
    <path
       id="path23"
       d="m 2620,160.832 v 33.336"
       style="fill:none;stroke:#000000;stroke-width:5;stroke-linecap:butt;stroke-linejoin:round;stroke-miterlimit:10;stroke-dasharray:none;stroke-opacity:1"
       transform="matrix(0.13333333,0,0,-0.13333333,0,190.66667)"
       clip-path="url(#clipPath24)" />
    <path
       id="path25"
       d="m 4.9814453,-5.3447266 c -0.1757812,-1.1835937 -0.9375,-1.8867187 -2.015625,-1.8867187 -0.7734375,0 -1.4765625,0.3867187 -1.8984375,1.03125 -0.44531249,0.7148437 -0.63281249,1.59375 -0.63281249,2.90625 0,1.21875 0.1640625,1.9804687 0.59765629,2.62499999 0.375,0.5859375 0.9960937,0.90234375 1.78125,0.90234375 1.3476562,0 2.3203125,-1.01953125 2.3203125,-2.42578124 0,-1.3242188 -0.9023438,-2.2617188 -2.1796875,-2.2617188 -0.6914063,0 -1.2421875,0.2578125 -1.6289063,0.7851563 0.011719,-1.7929688 0.5742188,-2.7773438 1.5820313,-2.7773438 0.6210937,0 1.0546875,0.3984375 1.1953125,1.1015625 z m -2.1328125,1.6640625 c 0.8554688,0 1.3828125,0.5976563 1.3828125,1.5585938 0,0.9140625 -0.5976562,1.57031249 -1.40625,1.57031249 -0.8203125,0 -1.4414062,-0.69140629 -1.4414062,-1.60546879 0,-0.9023437 0.5976562,-1.5234375 1.4648437,-1.5234375 z m 0,0"
       style="fill:#000000;fill-opacity:1;fill-rule:nonzero;stroke:none"
       aria-label="6"
       transform="matrix(1.3333333,0,0,1.3333333,345.66667,185.33333)"
       clip-path="url(#clipPath26)" />
    <path
       id="path27"
       d="m 3212.5,160.832 v 33.336"
       style="fill:none;stroke:#000000;stroke-width:5;stroke-linecap:butt;stroke-linejoin:round;stroke-miterlimit:10;stroke-dasharray:none;stroke-opacity:1"
       transform="matrix(0.13333333,0,0,-0.13333333,0,190.66667)"
       clip-path="url(#clipPath28)" />
    <path
       id="path29"
       d="m 3.9150391,-3.8095703 c 0.7382812,-0.4453125 0.9609375,-0.8085938 0.9609375,-1.4882813 0,-1.1367187 -0.8671875,-1.9335937 -2.1210938,-1.9335937 -1.2539062,0 -2.13281249,0.796875 -2.13281249,1.921875 0,0.6914062 0.234375,1.0429687 0.96093749,1.5 -0.80859374,0.4101562 -1.20703124,0.9960937 -1.20703124,1.8046875 0,1.31249999 0.96093754,2.23828124 2.37890624,2.23828124 1.3945313,0 2.3789063,-0.92578125 2.3789063,-2.23828124 0,-0.8085938 -0.4101563,-1.3945313 -1.21875,-1.8046875 z M 2.7548828,-6.4462891 c 0.75,0 1.21875,0.4453125 1.21875,1.171875 0,0.6796875 -0.4804687,1.125 -1.21875,1.125 -0.75,0 -1.2304687,-0.4453125 -1.2304687,-1.1484375 0,-0.703125 0.4804687,-1.1484375 1.2304687,-1.1484375 z m 0,3.0351563 c 0.8789063,0 1.4765625,0.5859375 1.4765625,1.4179687 0,0.8671875 -0.5976562,1.44140629 -1.5,1.44140629 -0.8554687,0 -1.4648437,-0.58593749 -1.4648437,-1.42968749 0,-0.8554688 0.5976562,-1.4296875 1.4882812,-1.4296875 z m 0,0"
       style="fill:#000000;fill-opacity:1;fill-rule:nonzero;stroke:none"
       aria-label="8"
       transform="matrix(1.3333333,0,0,1.3333333,424.66667,185.33333)"
       clip-path="url(#clipPath30)" />
    <path
       id="path31"
       d="m 3805,160.832 v 33.336"
       style="fill:none;stroke:#000000;stroke-width:5;stroke-linecap:butt;stroke-linejoin:round;stroke-miterlimit:10;stroke-dasharray:none;stroke-opacity:1"
       transform="matrix(0.13333333,0,0,-0.13333333,0,190.66667)"
       clip-path="url(#clipPath32)" />
    <path
       id="path33"
       d="M 2.5898438,-5.1455078 V -9.765625e-4 H 3.46875 V -7.2314453 H 2.8945313 c -0.3164063,1.1132812 -0.515625,1.265625 -1.8750001,1.4414062 v 0.6445313 z m 5.7246093,-2.0859375 c -0.6679687,0 -1.265625,0.3046875 -1.6289062,0.796875 -0.46875,0.6328125 -0.6914063,1.59375 -0.6914063,2.9296875 0,2.4492187 0.796875,3.73828124 2.3203125,3.73828124 1.5,0 2.3085939,-1.28906254 2.3085939,-3.66796874 0,-1.40625 -0.210938,-2.34375 -0.6796876,-3 -0.375,-0.5039063 -0.9609375,-0.796875 -1.6289063,-0.796875 z m 0,0.7851562 c 0.9492188,0 1.4179688,0.9726563 1.4179688,2.9296875 0,2.0507813 -0.46875,3.01171879 -1.4414063,3.01171879 -0.9257812,0 -1.40625,-0.99609379 -1.40625,-2.98828129 0,-1.9804687 0.4804688,-2.953125 1.4296875,-2.953125 z m 0,0"
       style="fill:#000000;fill-opacity:1;fill-rule:nonzero;stroke:none"
       aria-label="10"
       transform="matrix(1.3333333,0,0,1.3333333,500,185.33333)"
       clip-path="url(#clipPath34)" />
    <path
       id="path35"
       d="m 545.832,1005.83 h 33.336"
       style="fill:none;stroke:#000000;stroke-width:5;stroke-linecap:butt;stroke-linejoin:round;stroke-miterlimit:10;stroke-dasharray:none;stroke-opacity:1"
       transform="matrix(0.13333333,0,0,-0.13333333,0,190.66667)"
       clip-path="url(#clipPath36)" />
    <path
       id="path37"
       d="M 5.4384766,-2.6710906 H 0.39941406 v 0.703125 H 5.4384766 Z M 10.597656,-7.0890594 H 6.9414062 l -0.5273437,3.8554688 h 0.8085937 c 0.4101563,-0.4804688 0.75,-0.65625 1.3007813,-0.65625 0.9492188,0 1.5468755,0.65625 1.5468755,1.6992187 0,1.0195313 -0.5976567,1.64062503 -1.5468755,1.64062503 -0.7734375,0 -1.2421875,-0.38671875 -1.453125,-1.18359373 H 6.1914062 c 0.1171875,0.5742187 0.2226563,0.85546873 0.4335938,1.11328123 0.3984375,0.5390625 1.1132812,0.85546875 1.9101563,0.85546875 1.4296875,0 2.4374997,-1.04296875 2.4374997,-2.54296878 0,-1.3945312 -0.9375,-2.3554687 -2.2968747,-2.3554687 -0.4921875,0 -0.9023438,0.1289062 -1.3007813,0.421875 l 0.2695312,-1.9804688 h 2.9531248 z m 3.556641,-0.140625 c -0.667969,0 -1.265625,0.3046875 -1.628906,0.796875 -0.46875,0.6328125 -0.691407,1.59375 -0.691407,2.9296875 0,2.4492188 0.796875,3.73828128 2.320313,3.73828128 1.5,0 2.308594,-1.28906248 2.308594,-3.66796878 0,-1.40625 -0.210938,-2.34375 -0.679688,-3 -0.375,-0.5039062 -0.960937,-0.796875 -1.628906,-0.796875 z m 0,0.7851563 c 0.949219,0 1.417969,0.9726562 1.417969,2.9296875 0,2.0507812 -0.46875,3.01171873 -1.441407,3.01171873 -0.925781,0 -1.40625,-0.99609373 -1.40625,-2.98828123 0,-1.9804688 0.480469,-2.953125 1.429688,-2.953125 z m 5.560547,-0.7851563 c -0.667969,0 -1.265625,0.3046875 -1.628907,0.796875 -0.46875,0.6328125 -0.691406,1.59375 -0.691406,2.9296875 0,2.4492188 0.796875,3.73828128 2.320313,3.73828128 1.5,0 2.308593,-1.28906248 2.308593,-3.66796878 0,-1.40625 -0.210937,-2.34375 -0.679687,-3 -0.375,-0.5039062 -0.960938,-0.796875 -1.628906,-0.796875 z m 0,0.7851563 c 0.949218,0 1.417968,0.9726562 1.417968,2.9296875 0,2.0507812 -0.46875,3.01171873 -1.441406,3.01171873 -0.925781,0 -1.40625,-0.99609373 -1.40625,-2.98828123 0,-1.9804688 0.480469,-2.953125 1.429688,-2.953125 z m 5.557617,-0.7851563 c -0.667969,0 -1.265625,0.3046875 -1.628906,0.796875 -0.46875,0.6328125 -0.691407,1.59375 -0.691407,2.9296875 0,2.4492188 0.796875,3.73828128 2.320313,3.73828128 1.5,0 2.308594,-1.28906248 2.308594,-3.66796878 0,-1.40625 -0.210938,-2.34375 -0.679688,-3 -0.375,-0.5039062 -0.960937,-0.796875 -1.628906,-0.796875 z m 0,0.7851563 c 0.949219,0 1.417969,0.9726562 1.417969,2.9296875 0,2.0507812 -0.46875,3.01171873 -1.441407,3.01171873 -0.925781,0 -1.40625,-0.99609373 -1.40625,-2.98828123 0,-1.9804688 0.480469,-2.953125 1.429688,-2.953125 z m 0,0"
       style="fill:#000000;fill-opacity:1;fill-rule:nonzero;stroke:none"
       aria-label="−5000"
       transform="matrix(1.3333333,0,0,1.3333333,31.666667,61.444267)"
       clip-path="url(#clipPath38)" />
    <path
       id="path39"
       d="m 545.832,583.332 h 33.336"
       style="fill:none;stroke:#000000;stroke-width:5;stroke-linecap:butt;stroke-linejoin:round;stroke-miterlimit:10;stroke-dasharray:none;stroke-opacity:1"
       transform="matrix(0.13333333,0,0,-0.13333333,0,190.66667)"
       clip-path="url(#clipPath40)" />
    <path
       id="path41"
       d="m 2.7548828,-7.2306609 c -0.6679687,0 -1.265625,0.3046875 -1.6289062,0.796875 -0.46875004,0.6328125 -0.69140629,1.59375 -0.69140629,2.9296875 0,2.4492187 0.79687499,3.73828121 2.32031249,3.73828121 1.5,0 2.3085938,-1.28906251 2.3085938,-3.66796871 0,-1.40625 -0.2109375,-2.34375 -0.6796875,-3 -0.375,-0.5039063 -0.9609375,-0.796875 -1.6289063,-0.796875 z m 0,0.7851562 c 0.9492188,0 1.4179688,0.9726563 1.4179688,2.9296875 0,2.0507813 -0.46875,3.01171876 -1.4414063,3.01171876 -0.9257812,0 -1.40625,-0.99609376 -1.40625,-2.98828126 0,-1.9804687 0.4804688,-2.953125 1.4296875,-2.953125 z m 0,0"
       style="fill:#000000;fill-opacity:1;fill-rule:nonzero;stroke:none"
       aria-label="0"
       transform="matrix(1.3333333,0,0,1.3333333,61.666667,117.7776)"
       clip-path="url(#clipPath42)" />
    <path
       id="path43"
       d="m 545.832,160.832 h 33.336"
       style="fill:none;stroke:#000000;stroke-width:5;stroke-linecap:butt;stroke-linejoin:round;stroke-miterlimit:10;stroke-dasharray:none;stroke-opacity:1"
       transform="matrix(0.13333333,0,0,-0.13333333,0,190.66667)"
       clip-path="url(#clipPath44)" />
    <path
       id="path45"
       d="m 4.7585969,-7.0910125 h -3.65625 L 0.57500313,-3.2355437 H 1.3835969 c 0.4101562,-0.4804688 0.75,-0.65625 1.3007812,-0.65625 0.9492188,0 1.546875,0.65625 1.546875,1.6992187 0,1.0195313 -0.5976562,1.640625 -1.546875,1.640625 -0.7734375,0 -1.2421875,-0.38671875 -1.453125,-1.1835937 H 0.35234688 C 0.46953438,-1.161325 0.57500313,-0.880075 0.78594063,-0.6222625 1.1843781,-0.0832 1.8992219,0.23320625 2.6960969,0.23320625 c 1.4296875,0 2.4375,-1.04296875 2.4375,-2.54296875 0,-1.3945312 -0.9375,-2.3554687 -2.296875,-2.3554687 -0.4921875,0 -0.9023438,0.1289062 -1.3007813,0.421875 L 1.8054719,-6.223825 h 2.953125 z m 3.5566406,-0.140625 c -0.6679687,0 -1.265625,0.3046875 -1.6289062,0.796875 -0.46875,0.6328125 -0.6914063,1.59375 -0.6914063,2.9296875 0,2.4492188 0.796875,3.73828125 2.3203125,3.73828125 1.5,0 2.3085935,-1.28906245 2.3085935,-3.66796875 0,-1.40625 -0.210937,-2.34375 -0.6796872,-3 -0.375,-0.5039062 -0.9609375,-0.796875 -1.6289063,-0.796875 z m 0,0.7851563 c 0.9492188,0 1.4179688,0.9726562 1.4179688,2.9296875 0,2.0507812 -0.46875,3.0117187 -1.4414063,3.0117187 -0.9257812,0 -1.40625,-0.9960937 -1.40625,-2.9882812 0,-1.9804688 0.4804688,-2.953125 1.4296875,-2.953125 z m 5.5576175,-0.7851563 c -0.667969,0 -1.265625,0.3046875 -1.628907,0.796875 -0.46875,0.6328125 -0.691406,1.59375 -0.691406,2.9296875 0,2.4492188 0.796875,3.73828125 2.320313,3.73828125 1.5,0 2.308593,-1.28906245 2.308593,-3.66796875 0,-1.40625 -0.210937,-2.34375 -0.679687,-3 -0.375,-0.5039062 -0.960938,-0.796875 -1.628906,-0.796875 z m 0,0.7851563 c 0.949218,0 1.417968,0.9726562 1.417968,2.9296875 0,2.0507812 -0.46875,3.0117187 -1.441406,3.0117187 -0.925781,0 -1.40625,-0.9960937 -1.40625,-2.9882812 0,-1.9804688 0.480469,-2.953125 1.429688,-2.953125 z m 5.560547,-0.7851563 c -0.667969,0 -1.265625,0.3046875 -1.628907,0.796875 -0.46875,0.6328125 -0.691406,1.59375 -0.691406,2.9296875 0,2.4492188 0.796875,3.73828125 2.320313,3.73828125 1.5,0 2.308593,-1.28906245 2.308593,-3.66796875 0,-1.40625 -0.210937,-2.34375 -0.679687,-3 -0.375,-0.5039062 -0.960938,-0.796875 -1.628906,-0.796875 z m 0,0.7851563 c 0.949218,0 1.417968,0.9726562 1.417968,2.9296875 0,2.0507812 -0.46875,3.0117187 -1.441406,3.0117187 -0.925781,0 -1.40625,-0.9960937 -1.40625,-2.9882812 0,-1.9804688 0.480469,-2.953125 1.429688,-2.953125 z m 0,0"
       style="fill:#000000;fill-opacity:1;fill-rule:nonzero;stroke:none"
       aria-label="5000"
       transform="matrix(1.3333333,0,0,1.3333333,39.444267,174.11093)"
       clip-path="url(#clipPath46)" />
    <path
       id="path47"
       d="M 842.5,583.332 H 3508.33"
       style="fill:none;stroke:#0000ff;stroke-width:5;stroke-linecap:butt;stroke-linejoin:round;stroke-miterlimit:10;stroke-dasharray:none;stroke-opacity:1"
       transform="matrix(0.13333333,0,0,-0.13333333,0,190.66667)"
       clip-path="url(#clipPath48)" />
    <path
       id="path49"
       d="m 842.5,583.332 v 562.498 h 888.33 V 301.668 h 296.67 295.83 296.67 295.83 296.67 295.83 v 281.664"
       style="fill:none;stroke:#0000ff;stroke-width:20;stroke-linecap:butt;stroke-linejoin:round;stroke-miterlimit:10;stroke-dasharray:none;stroke-opacity:1"
       transform="matrix(0.13333333,0,0,-0.13333333,0,190.66667)"
       clip-path="url(#clipPath50)" />
    <path
       id="path51"
       d="m 4.3837813,-3.7744141 c -0.011719,-1.03125 -0.6914063,-1.6171875 -1.8984375,-1.6171875 -1.2304688,0 -2.01562505,0.6328125 -2.01562505,1.6054688 0,0.8203125 0.421875,1.2070312 1.66406255,1.5117187 l 0.7734375,0.1875 c 0.5859375,0.140625 0.8085937,0.3515625 0.8085937,0.7148438 0,0.50390624 -0.4804687,0.83203124 -1.21875,0.83203124 -0.4453125,0 -0.8320312,-0.12890625 -1.03125,-0.3515625 C 1.3251875,-1.0439453 1.2665938,-1.1962891 1.2197188,-1.5595703 H 0.3408125 c 0.0351563,1.20703124 0.7148438,1.79296874 2.0859375,1.79296874 1.3242188,0 2.1679688,-0.65625 2.1679688,-1.66406254 0,-0.7851562 -0.4453125,-1.2070312 -1.4882813,-1.4648437 l -0.796875,-0.1875 c -0.6796875,-0.1523438 -0.9726562,-0.375 -0.9726562,-0.75 0,-0.4804688 0.4335937,-0.7851563 1.1132812,-0.7851563 0.6679688,0 1.03125,0.2929688 1.0546875,0.84375 z m 1.3183593,-3.515625 V -9.765625e-4 H 6.5341719 V -2.8955078 c 0,-1.0664063 0.5507812,-1.7578125 1.4179687,-1.7578125 0.28125,0 0.5390625,0.070312 0.7382813,0.2226562 0.234375,0.1757813 0.3398437,0.4335938 0.3398437,0.796875 V -9.765625e-4 H 9.8622969 V -3.9619141 c 0,-0.8789062 -0.6328125,-1.4296875 -1.6523438,-1.4296875 -0.7382812,0 -1.1953125,0.234375 -1.6757812,0.8671875 v -2.765625 z m 9.9902344,4.9453125 c 0,-0.796875 -0.07031,-1.2773437 -0.210937,-1.6640625 -0.339844,-0.8554687 -1.148438,-1.3828125 -2.121094,-1.3828125 -1.464844,0 -2.402344,1.1132813 -2.402344,2.8359375 0,1.73437504 0.902344,2.78906254 2.378906,2.78906254 1.195313,0 2.027344,-0.6796875 2.238282,-1.82812504 h -0.832032 c -0.234375,0.69140629 -0.703125,1.05468754 -1.371093,1.05468754 -0.539063,0 -0.984375,-0.24609375 -1.265625,-0.67968754 -0.199219,-0.3046875 -0.269532,-0.5976562 -0.28125,-1.125 z m -3.84375,-0.6796875 c 0.07031,-0.9609375 0.65625,-1.59375 1.5,-1.59375 0.84375,0 1.441406,0.65625 1.441406,1.59375 z m 9.615234,2.53125004 c -0.08203,0.0234375 -0.128906,0.0234375 -0.175781,0.0234375 -0.292969,0 -0.445312,-0.15234375 -0.445312,-0.41015625 V -3.9619141 c 0,-0.9257812 -0.679688,-1.4296875 -1.96875,-1.4296875 -0.773438,0 -1.382813,0.2226563 -1.746094,0.609375 -0.234375,0.2695313 -0.339844,0.5742188 -0.363281,1.0898438 h 0.84375 c 0.07031,-0.6328125 0.445312,-0.9257813 1.230468,-0.9257813 0.761719,0 1.171875,0.28125 1.171875,0.7734375 v 0.2226563 c -0.01172,0.3632812 -0.1875,0.4921875 -0.867187,0.5859375 -1.183594,0.140625 -1.359375,0.1875 -1.6875,0.3164062 -0.609375,0.2578125 -0.914063,0.7148438 -0.914063,1.3945313 0,0.94921874 0.65625,1.55859374 1.722657,1.55859374 0.65625,0 1.183593,-0.2343750025 1.769531,-0.7734375 0.05859,0.5390624975 0.328125,0.7734375 0.867187,0.7734375 0.175782,0 0.28125,-0.0234375 0.5625,-0.09375 z M 20.010734,-1.6533203 c 0,0.28125 -0.08203,0.4570312 -0.328125,0.67968749 -0.339843,0.31640625 -0.75,0.46875 -1.242187,0.46875 -0.65625,0 -1.03125,-0.3046875 -1.03125,-0.83203129 0,-0.5507812 0.363281,-0.8320312 1.265625,-0.9609375 0.878906,-0.1171875 1.054687,-0.1640625 1.335937,-0.2929687 z m 2.361329,-3.5859375 v 5.2382812375 h 0.84375 V -2.7197266 c 0,-1.2539062 0.527343,-1.8164062 1.675781,-1.7929687 v -0.84375 c -0.140625,-0.023437 -0.222656,-0.035156 -0.316406,-0.035156 -0.550782,0 -0.960938,0.328125 -1.429688,1.1015625 v -0.9492187 z m 7.995117,0 h -0.867188 v -0.8203125 c 0,-0.3515625 0.1875,-0.5273438 0.574219,-0.5273438 0.07031,0 0.105469,0 0.292969,0.011719 v -0.6914063 c -0.1875,-0.046875 -0.304688,-0.046875 -0.46875,-0.046875 -0.773438,0 -1.230469,0.4335938 -1.230469,1.1835938 v 0.890625 h -0.703125 v 0.6796875 h 0.703125 v 4.5585937375 h 0.832031 V -4.5595703 h 0.867188 z m 2.920898,-0.1523438 c -1.476562,0 -2.355469,1.0546875 -2.355469,2.8125 0,1.76953129 0.878907,2.81250004 2.367188,2.81250004 1.476562,0 2.367187,-1.0546875 2.367187,-2.77734374 0,-1.8164063 -0.855468,-2.8476563 -2.378906,-2.8476563 z m 0.01172,0.7734375 c 0.9375,0 1.5,0.7734375 1.5,2.0625 0,1.2421875 -0.585938,2.01562504 -1.5,2.01562504 -0.925781,0 -1.5,-0.77343754 -1.5,-2.03906254 0,-1.265625 0.574219,-2.0390625 1.5,-2.0390625 z m 3.521484,-0.6210937 v 5.2382812375 h 0.84375 V -2.7197266 c 0,-1.2539062 0.527344,-1.8164062 1.675782,-1.7929687 v -0.84375 c -0.140625,-0.023437 -0.222657,-0.035156 -0.316407,-0.035156 -0.550781,0 -0.960937,0.328125 -1.429687,1.1015625 v -0.9492187 z m 7.350586,1.7578125 c -0.04687,-0.5039063 -0.152344,-0.8320313 -0.351562,-1.125 -0.363282,-0.4921875 -0.996094,-0.7851563 -1.722657,-0.7851563 -1.417968,0 -2.332031,1.125 -2.332031,2.859375 0,1.68750004 0.902344,2.76562504 2.320313,2.76562504 1.253906,0 2.039062,-0.75 2.144531,-2.03906254 h -0.84375 c -0.140625,0.84375004 -0.5625,1.26562504 -1.277344,1.26562504 -0.914062,0 -1.464844,-0.75000004 -1.464844,-1.99218754 0,-1.3125 0.539063,-2.0859375 1.441407,-2.0859375 0.703125,0 1.148437,0.4101563 1.242187,1.1367188 z m 5.419922,1.1367187 c 0,-0.796875 -0.07031,-1.2773437 -0.210937,-1.6640625 -0.339844,-0.8554687 -1.148438,-1.3828125 -2.121094,-1.3828125 -1.464844,0 -2.402344,1.1132813 -2.402344,2.8359375 0,1.73437504 0.902344,2.78906254 2.378906,2.78906254 1.195313,0 2.027344,-0.6796875 2.238282,-1.82812504 H 48.64257 c -0.234375,0.69140629 -0.703125,1.05468754 -1.371093,1.05468754 -0.539063,0 -0.984375,-0.24609375 -1.265625,-0.67968754 -0.199219,-0.3046875 -0.269532,-0.5976562 -0.28125,-1.125 z m -3.84375,-0.6796875 c 0.07031,-0.9609375 0.65625,-1.59375 1.5,-1.59375 0.84375,0 1.441406,0.65625 1.441406,1.59375 z m 0,0"
       style="fill:#000000;fill-opacity:1;fill-rule:nonzero;stroke:none"
       aria-label="shear force"
       transform="matrix(1.3333333,0,0,1.3333333,256.88933,12.333333)"
       clip-path="url(#clipPath52)" />
  </g>
</svg>
