<?xml version="1.0" encoding="UTF-8" standalone="no"?>
<!-- Created with Inkscape (http://www.inkscape.org/) -->

<svg
   version="1.1"
   id="svg1"
   width="630.66669"
   height="502.66666"
   viewBox="0 0 630.66669 502.66666"
   sodipodi:docname="exs8f3.eps"
   xmlns:inkscape="http://www.inkscape.org/namespaces/inkscape"
   xmlns:sodipodi="http://sodipodi.sourceforge.net/DTD/sodipodi-0.dtd"
   xmlns="http://www.w3.org/2000/svg"
   xmlns:svg="http://www.w3.org/2000/svg">
  <defs
     id="defs1">
    <clipPath
       clipPathUnits="userSpaceOnUse"
       id="clipPath2">
      <path
         d="M 6,9 V 3770 H 4730 V 9 Z"
         transform="translate(0,2.5000001e-5)"
         id="path2" />
    </clipPath>
    <clipPath
       clipPathUnits="userSpaceOnUse"
       id="clipPath4">
      <path
         d="M 6,9 V 3770 H 4730 V 9 Z"
         transform="translate(0,2.5000001e-5)"
         id="path4" />
    </clipPath>
    <clipPath
       clipPathUnits="userSpaceOnUse"
       id="clipPath6">
      <path
         d="M 6,9 V 3770 H 4730 V 9 Z"
         transform="translate(0,2.5000001e-5)"
         id="path6" />
    </clipPath>
    <clipPath
       clipPathUnits="userSpaceOnUse"
       id="clipPath8">
      <path
         d="M 6,9 V 3770 H 4730 V 9 Z"
         transform="translate(0,2.5000001e-5)"
         id="path8" />
    </clipPath>
    <clipPath
       clipPathUnits="userSpaceOnUse"
       id="clipPath10">
      <path
         d="M 6,9 V 3770 H 4730 V 9 Z"
         transform="translate(0,2.5000001e-5)"
         id="path10" />
    </clipPath>
    <clipPath
       clipPathUnits="userSpaceOnUse"
       id="clipPath12">
      <path
         d="M 6,9 V 3770 H 4730 V 9 Z"
         transform="translate(0,2.5000001e-5)"
         id="path12" />
    </clipPath>
    <clipPath
       clipPathUnits="userSpaceOnUse"
       id="clipPath14">
      <path
         d="M 6,9 V 3770 H 4730 V 9 Z"
         transform="matrix(0.1,0,0,-0.1,-72.250002,3.2500026)"
         id="path14" />
    </clipPath>
    <clipPath
       clipPathUnits="userSpaceOnUse"
       id="clipPath16">
      <path
         d="M 6,9 V 3770 H 4730 V 9 Z"
         transform="translate(0,2.5000001e-5)"
         id="path16" />
    </clipPath>
    <clipPath
       clipPathUnits="userSpaceOnUse"
       id="clipPath18">
      <path
         d="M 6,9 V 3770 H 4730 V 9 Z"
         transform="matrix(0.1,0,0,-0.1,-155.5,3.2500026)"
         id="path18" />
    </clipPath>
    <clipPath
       clipPathUnits="userSpaceOnUse"
       id="clipPath20">
      <path
         d="M 6,9 V 3770 H 4730 V 9 Z"
         transform="translate(0,2.5000001e-5)"
         id="path20" />
    </clipPath>
    <clipPath
       clipPathUnits="userSpaceOnUse"
       id="clipPath22">
      <path
         d="M 6,9 V 3770 H 4730 V 9 Z"
         transform="matrix(0.1,0,0,-0.1,-219.00001,3.2500026)"
         id="path22" />
    </clipPath>
    <clipPath
       clipPathUnits="userSpaceOnUse"
       id="clipPath24">
      <path
         d="M 6,9 V 3770 H 4730 V 9 Z"
         transform="translate(0,2.5000001e-5)"
         id="path24" />
    </clipPath>
    <clipPath
       clipPathUnits="userSpaceOnUse"
       id="clipPath26">
      <path
         d="M 6,9 V 3770 H 4730 V 9 Z"
         transform="matrix(0.1,0,0,-0.1,-289.50001,3.2500026)"
         id="path26" />
    </clipPath>
    <clipPath
       clipPathUnits="userSpaceOnUse"
       id="clipPath28">
      <path
         d="M 6,9 V 3770 H 4730 V 9 Z"
         transform="translate(0,2.5000001e-5)"
         id="path28" />
    </clipPath>
    <clipPath
       clipPathUnits="userSpaceOnUse"
       id="clipPath30">
      <path
         d="M 6,9 V 3770 H 4730 V 9 Z"
         transform="matrix(0.1,0,0,-0.1,-359.91701,3.2500026)"
         id="path30" />
    </clipPath>
    <clipPath
       clipPathUnits="userSpaceOnUse"
       id="clipPath32">
      <path
         d="M 6,9 V 3770 H 4730 V 9 Z"
         transform="translate(0,2.5000001e-5)"
         id="path32" />
    </clipPath>
    <clipPath
       clipPathUnits="userSpaceOnUse"
       id="clipPath34">
      <path
         d="M 6,9 V 3770 H 4730 V 9 Z"
         transform="matrix(0.1,0,0,-0.1,-430.33301,3.2500026)"
         id="path34" />
    </clipPath>
    <clipPath
       clipPathUnits="userSpaceOnUse"
       id="clipPath36">
      <path
         d="M 6,9 V 3770 H 4730 V 9 Z"
         transform="translate(0,2.5000001e-5)"
         id="path36" />
    </clipPath>
    <clipPath
       clipPathUnits="userSpaceOnUse"
       id="clipPath38">
      <path
         d="M 6,9 V 3770 H 4730 V 9 Z"
         transform="matrix(0.1,0,0,-0.1,-14.583201,11.666803)"
         id="path38" />
    </clipPath>
    <clipPath
       clipPathUnits="userSpaceOnUse"
       id="clipPath40">
      <path
         d="M 6,9 V 3770 H 4730 V 9 Z"
         transform="translate(0,2.5000001e-5)"
         id="path40" />
    </clipPath>
    <clipPath
       clipPathUnits="userSpaceOnUse"
       id="clipPath42">
      <path
         d="M 6,9 V 3770 H 4730 V 9 Z"
         transform="matrix(0.1,0,0,-0.1,-0.66679702,46.916804)"
         id="path42" />
    </clipPath>
    <clipPath
       clipPathUnits="userSpaceOnUse"
       id="clipPath44">
      <path
         d="M 6,9 V 3770 H 4730 V 9 Z"
         transform="translate(0,2.5000001e-5)"
         id="path44" />
    </clipPath>
    <clipPath
       clipPathUnits="userSpaceOnUse"
       id="clipPath46">
      <path
         d="M 6,9 V 3770 H 4730 V 9 Z"
         transform="matrix(0.1,0,0,-0.1,-0.66679702,82.166805)"
         id="path46" />
    </clipPath>
    <clipPath
       clipPathUnits="userSpaceOnUse"
       id="clipPath48">
      <path
         d="M 6,9 V 3770 H 4730 V 9 Z"
         transform="translate(0,2.5000001e-5)"
         id="path48" />
    </clipPath>
    <clipPath
       clipPathUnits="userSpaceOnUse"
       id="clipPath50">
      <path
         d="M 6,9 V 3770 H 4730 V 9 Z"
         transform="matrix(0.1,0,0,-0.1,-0.66679702,117.417)"
         id="path50" />
    </clipPath>
    <clipPath
       clipPathUnits="userSpaceOnUse"
       id="clipPath52">
      <path
         d="M 6,9 V 3770 H 4730 V 9 Z"
         transform="translate(0,2.5000001e-5)"
         id="path52" />
    </clipPath>
    <clipPath
       clipPathUnits="userSpaceOnUse"
       id="clipPath54">
      <path
         d="M 6,9 V 3770 H 4730 V 9 Z"
         transform="matrix(0.1,0,0,-0.1,-0.66679702,152.583)"
         id="path54" />
    </clipPath>
    <clipPath
       clipPathUnits="userSpaceOnUse"
       id="clipPath56">
      <path
         d="M 6,9 V 3770 H 4730 V 9 Z"
         transform="translate(0,2.5000001e-5)"
         id="path56" />
    </clipPath>
    <clipPath
       clipPathUnits="userSpaceOnUse"
       id="clipPath58">
      <path
         d="M 6,9 V 3770 H 4730 V 9 Z"
         transform="matrix(0.1,0,0,-0.1,-0.66679702,187.833)"
         id="path58" />
    </clipPath>
    <clipPath
       clipPathUnits="userSpaceOnUse"
       id="clipPath60">
      <path
         d="M 6,9 V 3770 H 4730 V 9 Z"
         transform="translate(0,2.5000001e-5)"
         id="path60" />
    </clipPath>
    <clipPath
       clipPathUnits="userSpaceOnUse"
       id="clipPath62">
      <path
         d="M 6,9 V 3770 H 4730 V 9 Z"
         transform="matrix(0.1,0,0,-0.1,-0.66679702,223.083)"
         id="path62" />
    </clipPath>
    <clipPath
       clipPathUnits="userSpaceOnUse"
       id="clipPath64">
      <path
         d="M 6,9 V 3770 H 4730 V 9 Z"
         transform="translate(0,2.5000001e-5)"
         id="path64" />
    </clipPath>
    <clipPath
       clipPathUnits="userSpaceOnUse"
       id="clipPath66">
      <path
         d="M 6,9 V 3770 H 4730 V 9 Z"
         transform="matrix(0.1,0,0,-0.1,-0.66679702,258.25001)"
         id="path66" />
    </clipPath>
    <clipPath
       clipPathUnits="userSpaceOnUse"
       id="clipPath68">
      <path
         d="M 6,9 V 3770 H 4730 V 9 Z"
         transform="translate(0,2.5000001e-5)"
         id="path68" />
    </clipPath>
    <clipPath
       clipPathUnits="userSpaceOnUse"
       id="clipPath70">
      <path
         d="M 6,9 V 3770 H 4730 V 9 Z"
         transform="matrix(0.1,0,0,-0.1,-0.66679702,293.50001)"
         id="path70" />
    </clipPath>
    <clipPath
       clipPathUnits="userSpaceOnUse"
       id="clipPath72">
      <path
         d="M 6,9 V 3770 H 4730 V 9 Z"
         transform="translate(0,2.5000001e-5)"
         id="path72" />
    </clipPath>
    <clipPath
       clipPathUnits="userSpaceOnUse"
       id="clipPath74">
      <path
         d="M 6,9 V 3770 H 4730 V 9 Z"
         transform="matrix(0.1,0,0,-0.1,-0.66679702,328.75001)"
         id="path74" />
    </clipPath>
    <clipPath
       clipPathUnits="userSpaceOnUse"
       id="clipPath76">
      <path
         d="M 6,9 V 3770 H 4730 V 9 Z"
         transform="translate(0,2.5000001e-5)"
         id="path76" />
    </clipPath>
    <clipPath
       clipPathUnits="userSpaceOnUse"
       id="clipPath78">
      <path
         d="M 6,9 V 3770 H 4730 V 9 Z"
         transform="matrix(0.1,0,0,-0.1,-6.2500001,363.91701)"
         id="path78" />
    </clipPath>
    <clipPath
       clipPathUnits="userSpaceOnUse"
       id="clipPath80">
      <path
         d="M 230,152.5 H 4696.67 V 3675.83 H 230 Z"
         transform="translate(0,2.5000001e-5)"
         id="path80" />
    </clipPath>
    <clipPath
       clipPathUnits="userSpaceOnUse"
       id="clipPath82">
      <path
         d="M 230,152.5 H 4696.67 V 3675.83 H 230 Z"
         transform="translate(0,2.5000001e-5)"
         id="path82" />
    </clipPath>
    <clipPath
       clipPathUnits="userSpaceOnUse"
       id="clipPath84">
      <path
         d="M 230,152.5 H 4696.67 V 3675.83 H 230 Z"
         transform="translate(0,2.5000001e-5)"
         id="path84" />
    </clipPath>
    <clipPath
       clipPathUnits="userSpaceOnUse"
       id="clipPath86">
      <path
         d="M 230,152.5 H 4696.67 V 3675.83 H 230 Z"
         transform="translate(0,2.5000001e-5)"
         id="path86" />
    </clipPath>
    <clipPath
       clipPathUnits="userSpaceOnUse"
       id="clipPath88">
      <path
         d="M 230,152.5 H 4696.67 V 3675.83 H 230 Z"
         transform="translate(0,2.5000001e-5)"
         id="path88" />
    </clipPath>
    <clipPath
       clipPathUnits="userSpaceOnUse"
       id="clipPath90">
      <path
         d="M 230,152.5 H 4696.67 V 3675.83 H 230 Z"
         transform="translate(0,2.5000001e-5)"
         id="path90" />
    </clipPath>
    <clipPath
       clipPathUnits="userSpaceOnUse"
       id="clipPath92">
      <path
         d="M 230,152.5 H 4696.67 V 3675.83 H 230 Z"
         transform="translate(0,2.5000001e-5)"
         id="path92" />
    </clipPath>
    <clipPath
       clipPathUnits="userSpaceOnUse"
       id="clipPath94">
      <path
         d="M 230,152.5 H 4696.67 V 3675.83 H 230 Z"
         transform="translate(0,2.5000001e-5)"
         id="path94" />
    </clipPath>
    <clipPath
       clipPathUnits="userSpaceOnUse"
       id="clipPath96">
      <path
         d="M 6,9 H 4730 V 3770 H 6 Z"
         transform="translate(0,2.5000001e-5)"
         id="path96" />
    </clipPath>
    <clipPath
       clipPathUnits="userSpaceOnUse"
       id="clipPath98">
      <path
         d="M 6,9 H 4730 V 3770 H 6 Z"
         transform="translate(0,2.5000001e-5)"
         id="path98" />
    </clipPath>
    <clipPath
       clipPathUnits="userSpaceOnUse"
       id="clipPath100">
      <path
         d="M 6,9 H 4730 V 3770 H 6 Z"
         transform="translate(0,2.5000001e-5)"
         id="path100" />
    </clipPath>
    <clipPath
       clipPathUnits="userSpaceOnUse"
       id="clipPath102">
      <path
         d="M 6,9 H 4730 V 3770 H 6 Z"
         transform="translate(0,2.5000001e-5)"
         id="path102" />
    </clipPath>
    <clipPath
       clipPathUnits="userSpaceOnUse"
       id="clipPath104">
      <path
         d="M 6,9 H 4730 V 3770 H 6 Z"
         transform="translate(0,2.5000001e-5)"
         id="path104" />
    </clipPath>
    <clipPath
       clipPathUnits="userSpaceOnUse"
       id="clipPath106">
      <path
         d="M 6,9 H 4730 V 3770 H 6 Z"
         transform="translate(0,2.5000001e-5)"
         id="path106" />
    </clipPath>
    <clipPath
       clipPathUnits="userSpaceOnUse"
       id="clipPath108">
      <path
         d="M 6,9 H 4730 V 3770 H 6 Z"
         transform="translate(0,2.5000001e-5)"
         id="path108" />
    </clipPath>
    <clipPath
       clipPathUnits="userSpaceOnUse"
       id="clipPath110">
      <path
         d="M 6,9 H 4730 V 3770 H 6 Z"
         transform="translate(0,2.5000001e-5)"
         id="path110" />
    </clipPath>
    <clipPath
       clipPathUnits="userSpaceOnUse"
       id="clipPath112">
      <path
         d="M 6,9 H 4730 V 3770 H 6 Z"
         transform="translate(0,2.5000001e-5)"
         id="path112" />
    </clipPath>
    <clipPath
       clipPathUnits="userSpaceOnUse"
       id="clipPath114">
      <path
         d="M 6,9 H 4730 V 3770 H 6 Z"
         transform="translate(0,2.5000001e-5)"
         id="path114" />
    </clipPath>
    <clipPath
       clipPathUnits="userSpaceOnUse"
       id="clipPath116">
      <path
         d="M 6,9 H 4730 V 3770 H 6 Z"
         transform="translate(0,2.5000001e-5)"
         id="path116" />
    </clipPath>
    <clipPath
       clipPathUnits="userSpaceOnUse"
       id="clipPath118">
      <path
         d="M 6,9 H 4730 V 3770 H 6 Z"
         transform="translate(0,2.5000001e-5)"
         id="path118" />
    </clipPath>
    <clipPath
       clipPathUnits="userSpaceOnUse"
       id="clipPath120">
      <path
         d="M 6,9 H 4730 V 3770 H 6 Z"
         transform="translate(0,2.5000001e-5)"
         id="path120" />
    </clipPath>
    <clipPath
       clipPathUnits="userSpaceOnUse"
       id="clipPath122">
      <path
         d="M 6,9 H 4730 V 3770 H 6 Z"
         transform="translate(0,2.5000001e-5)"
         id="path122" />
    </clipPath>
    <clipPath
       clipPathUnits="userSpaceOnUse"
       id="clipPath124">
      <path
         d="M 6,9 H 4730 V 3770 H 6 Z"
         transform="translate(0,2.5000001e-5)"
         id="path124" />
    </clipPath>
    <clipPath
       clipPathUnits="userSpaceOnUse"
       id="clipPath126">
      <path
         d="M 6,9 H 4730 V 3770 H 6 Z"
         transform="translate(0,2.5000001e-5)"
         id="path126" />
    </clipPath>
    <clipPath
       clipPathUnits="userSpaceOnUse"
       id="clipPath128">
      <path
         d="M 6,9 H 4730 V 3770 H 6 Z"
         transform="translate(0,2.5000001e-5)"
         id="path128" />
    </clipPath>
    <clipPath
       clipPathUnits="userSpaceOnUse"
       id="clipPath130">
      <path
         d="M 6,9 H 4730 V 3770 H 6 Z"
         transform="translate(0,2.5000001e-5)"
         id="path130" />
    </clipPath>
    <clipPath
       clipPathUnits="userSpaceOnUse"
       id="clipPath132">
      <path
         d="M 6,9 H 4730 V 3770 H 6 Z"
         transform="translate(0,2.5000001e-5)"
         id="path132" />
    </clipPath>
    <clipPath
       clipPathUnits="userSpaceOnUse"
       id="clipPath134">
      <path
         d="M 6,9 H 4730 V 3770 H 6 Z"
         transform="translate(0,2.5000001e-5)"
         id="path134" />
    </clipPath>
    <clipPath
       clipPathUnits="userSpaceOnUse"
       id="clipPath136">
      <path
         d="M 6,9 H 4730 V 3770 H 6 Z"
         transform="translate(0,2.5000001e-5)"
         id="path136" />
    </clipPath>
    <clipPath
       clipPathUnits="userSpaceOnUse"
       id="clipPath138">
      <path
         d="M 6,9 H 4730 V 3770 H 6 Z"
         transform="translate(0,2.5000001e-5)"
         id="path138" />
    </clipPath>
    <clipPath
       clipPathUnits="userSpaceOnUse"
       id="clipPath140">
      <path
         d="M 6,9 H 4730 V 3770 H 6 Z"
         transform="translate(0,2.5000001e-5)"
         id="path140" />
    </clipPath>
    <clipPath
       clipPathUnits="userSpaceOnUse"
       id="clipPath142">
      <path
         d="M 6,9 H 4730 V 3770 H 6 Z"
         transform="translate(0,2.5000001e-5)"
         id="path142" />
    </clipPath>
    <clipPath
       clipPathUnits="userSpaceOnUse"
       id="clipPath144">
      <path
         d="M 6,9 H 4730 V 3770 H 6 Z"
         transform="translate(0,2.5000001e-5)"
         id="path144" />
    </clipPath>
    <clipPath
       clipPathUnits="userSpaceOnUse"
       id="clipPath146">
      <path
         d="M 6,9 H 4730 V 3770 H 6 Z"
         transform="translate(0,2.5000001e-5)"
         id="path146" />
    </clipPath>
    <clipPath
       clipPathUnits="userSpaceOnUse"
       id="clipPath148">
      <path
         d="M 6,9 H 4730 V 3770 H 6 Z"
         transform="translate(0,2.5000001e-5)"
         id="path148" />
    </clipPath>
    <clipPath
       clipPathUnits="userSpaceOnUse"
       id="clipPath150">
      <path
         d="M 6,9 H 4730 V 3770 H 6 Z"
         transform="translate(0,2.5000001e-5)"
         id="path150" />
    </clipPath>
    <clipPath
       clipPathUnits="userSpaceOnUse"
       id="clipPath152">
      <path
         d="M 6,9 H 4730 V 3770 H 6 Z"
         transform="translate(0,2.5000001e-5)"
         id="path152" />
    </clipPath>
    <clipPath
       clipPathUnits="userSpaceOnUse"
       id="clipPath154">
      <path
         d="M 6,9 H 4730 V 3770 H 6 Z"
         transform="translate(0,2.5000001e-5)"
         id="path154" />
    </clipPath>
    <clipPath
       clipPathUnits="userSpaceOnUse"
       id="clipPath156">
      <path
         d="M 6,9 H 4730 V 3770 H 6 Z"
         transform="translate(0,2.5000001e-5)"
         id="path156" />
    </clipPath>
    <clipPath
       clipPathUnits="userSpaceOnUse"
       id="clipPath158">
      <path
         d="M 6,9 H 4730 V 3770 H 6 Z"
         transform="translate(0,2.5000001e-5)"
         id="path158" />
    </clipPath>
    <clipPath
       clipPathUnits="userSpaceOnUse"
       id="clipPath160">
      <path
         d="M 230,152.5 H 4696.67 V 3675.83 H 230 Z"
         transform="translate(0,2.5000001e-5)"
         id="path160" />
    </clipPath>
    <clipPath
       clipPathUnits="userSpaceOnUse"
       id="clipPath162">
      <path
         d="M 230,152.5 H 4696.67 V 3675.83 H 230 Z"
         transform="translate(0,2.5000001e-5)"
         id="path162" />
    </clipPath>
    <clipPath
       clipPathUnits="userSpaceOnUse"
       id="clipPath164">
      <path
         d="M 230,152.5 H 4696.67 V 3675.83 H 230 Z"
         transform="translate(0,2.5000001e-5)"
         id="path164" />
    </clipPath>
    <clipPath
       clipPathUnits="userSpaceOnUse"
       id="clipPath166">
      <path
         d="M 230,152.5 H 4696.67 V 3675.83 H 230 Z"
         transform="translate(0,2.5000001e-5)"
         id="path166" />
    </clipPath>
    <clipPath
       clipPathUnits="userSpaceOnUse"
       id="clipPath168">
      <path
         d="M 230,152.5 H 4696.67 V 3675.83 H 230 Z"
         transform="translate(0,2.5000001e-5)"
         id="path168" />
    </clipPath>
    <clipPath
       clipPathUnits="userSpaceOnUse"
       id="clipPath170">
      <path
         d="M 230,152.5 H 4696.67 V 3675.83 H 230 Z"
         transform="translate(0,2.5000001e-5)"
         id="path170" />
    </clipPath>
    <clipPath
       clipPathUnits="userSpaceOnUse"
       id="clipPath172">
      <path
         d="M 230,152.5 H 4696.67 V 3675.83 H 230 Z"
         transform="translate(0,2.5000001e-5)"
         id="path172" />
    </clipPath>
    <clipPath
       clipPathUnits="userSpaceOnUse"
       id="clipPath174">
      <path
         d="M 230,152.5 H 4696.67 V 3675.83 H 230 Z"
         transform="translate(0,2.5000001e-5)"
         id="path174" />
    </clipPath>
    <clipPath
       clipPathUnits="userSpaceOnUse"
       id="clipPath176">
      <path
         d="M 230,152.5 H 4696.67 V 3675.83 H 230 Z"
         transform="translate(0,2.5000001e-5)"
         id="path176" />
    </clipPath>
    <clipPath
       clipPathUnits="userSpaceOnUse"
       id="clipPath178">
      <path
         d="M 230,152.5 H 4696.67 V 3675.83 H 230 Z"
         transform="translate(0,2.5000001e-5)"
         id="path178" />
    </clipPath>
    <clipPath
       clipPathUnits="userSpaceOnUse"
       id="clipPath180">
      <path
         d="M 230,152.5 H 4696.67 V 3675.83 H 230 Z"
         transform="translate(0,2.5000001e-5)"
         id="path180" />
    </clipPath>
    <clipPath
       clipPathUnits="userSpaceOnUse"
       id="clipPath182">
      <path
         d="M 230,152.5 H 4696.67 V 3675.83 H 230 Z"
         transform="translate(0,2.5000001e-5)"
         id="path182" />
    </clipPath>
    <clipPath
       clipPathUnits="userSpaceOnUse"
       id="clipPath184">
      <path
         d="M 230,152.5 H 4696.67 V 3675.83 H 230 Z"
         transform="translate(0,2.5000001e-5)"
         id="path184" />
    </clipPath>
    <clipPath
       clipPathUnits="userSpaceOnUse"
       id="clipPath186">
      <path
         d="M 230,152.5 H 4696.67 V 3675.83 H 230 Z"
         transform="translate(0,2.5000001e-5)"
         id="path186" />
    </clipPath>
  </defs>
  <sodipodi:namedview
     id="namedview1"
     pagecolor="#ffffff"
     bordercolor="#000000"
     borderopacity="0.25"
     inkscape:showpageshadow="2"
     inkscape:pageopacity="0.0"
     inkscape:pagecheckerboard="0"
     inkscape:deskcolor="#d1d1d1">
    <inkscape:page
       x="0"
       y="0"
       inkscape:label="1"
       id="page1"
       width="630.66669"
       height="502.66666"
       margin="0"
       bleed="0" />
  </sodipodi:namedview>
  <g
     id="g1"
     inkscape:groupmode="layer"
     inkscape:label="1">
    <path
       id="path1"
       d="M -520,-322.5 H 5245.83 V 4000 H -520 Z"
       style="fill:#ffffff;fill-opacity:1;fill-rule:nonzero;stroke:none"
       transform="matrix(0.13333333,0,0,-0.13333333,0,502.66667)"
       clip-path="url(#clipPath2)" />
    <path
       id="path3"
       d="m 230,153.332 h 4465.83 v 3522.5 H 230 Z"
       style="fill:#ffffff;fill-opacity:1;fill-rule:evenodd;stroke:none"
       transform="matrix(0.13333333,0,0,-0.13333333,0,502.66667)"
       clip-path="url(#clipPath4)" />
    <path
       id="path5"
       d="M 230,153.332 V 3675.83 H 4695.83 V 153.332 H 230"
       style="fill:none;stroke:#ffffff;stroke-width:5;stroke-linecap:butt;stroke-linejoin:round;stroke-miterlimit:10;stroke-dasharray:none;stroke-opacity:1"
       transform="matrix(0.13333333,0,0,-0.13333333,0,502.66667)"
       clip-path="url(#clipPath6)" />
    <path
       id="path7"
       d="M 230,153.332 H 4695.83"
       style="fill:none;stroke:#000000;stroke-width:5;stroke-linecap:butt;stroke-linejoin:round;stroke-miterlimit:10;stroke-dasharray:none;stroke-opacity:1"
       transform="matrix(0.13333333,0,0,-0.13333333,0,502.66667)"
       clip-path="url(#clipPath8)" />
    <path
       id="path9"
       d="M 230,153.332 V 3675.83"
       style="fill:none;stroke:#000000;stroke-width:5;stroke-linecap:butt;stroke-linejoin:round;stroke-miterlimit:10;stroke-dasharray:none;stroke-opacity:1"
       transform="matrix(0.13333333,0,0,-0.13333333,0,502.66667)"
       clip-path="url(#clipPath10)" />
    <path
       id="path11"
       d="m 877.5,153.332 v 45"
       style="fill:none;stroke:#000000;stroke-width:5;stroke-linecap:butt;stroke-linejoin:round;stroke-miterlimit:10;stroke-dasharray:none;stroke-opacity:1"
       transform="matrix(0.13333333,0,0,-0.13333333,0,502.66667)"
       clip-path="url(#clipPath12)" />
    <path
       id="path13"
       d="M 5.4365234,-2.6728516 H 0.39746094 v 0.703125 H 5.4365234 Z m 3.1582032,-4.5585937 c -0.6679688,0 -1.265625,0.3046875 -1.6289063,0.796875 -0.46875,0.6328125 -0.6914062,1.59375 -0.6914062,2.9296875 0,2.4492187 0.796875,3.73828124 2.3203125,3.73828124 1.5000004,0 2.3085934,-1.28906254 2.3085934,-3.66796874 0,-1.40625 -0.210937,-2.34375 -0.679687,-3 -0.3750002,-0.5039063 -0.9609377,-0.796875 -1.6289064,-0.796875 z m 0,0.7851562 c 0.9492187,0 1.4179684,0.9726563 1.4179684,2.9296875 0,2.0507813 -0.4687497,3.01171879 -1.4414059,3.01171879 -0.9257813,0 -1.40625,-0.99609379 -1.40625,-2.98828129 0,-1.9804687 0.4804687,-2.953125 1.4296875,-2.953125 z m 4.7167964,5.4023438 h -1.042968 v 1.0429687375 h 1.042968 z m 3.621094,-6.1875 c -0.667969,0 -1.265625,0.3046875 -1.628906,0.796875 -0.46875,0.6328125 -0.691406,1.59375 -0.691406,2.9296875 0,2.4492187 0.796875,3.73828124 2.320312,3.73828124 1.5,0 2.308594,-1.28906254 2.308594,-3.66796874 0,-1.40625 -0.210938,-2.34375 -0.679688,-3 -0.375,-0.5039063 -0.960937,-0.796875 -1.628906,-0.796875 z m 0,0.7851562 c 0.949219,0 1.417969,0.9726563 1.417969,2.9296875 0,2.0507813 -0.46875,3.01171879 -1.441406,3.01171879 -0.925782,0 -1.40625,-0.99609379 -1.40625,-2.98828129 0,-1.9804687 0.480468,-2.953125 1.429687,-2.953125 z m 7.869141,5.57812504 h -3.738281 c 0.09375,-0.59765624 0.410156,-0.98437504 1.289062,-1.51171874 l 0.996094,-0.5625 c 0.984375,-0.5507813 1.5,-1.2890625 1.5,-2.1796875 0,-0.5976563 -0.246094,-1.1601563 -0.65625,-1.546875 -0.421875,-0.375 -0.949219,-0.5625 -1.617188,-0.5625 -0.902343,0 -1.570312,0.328125 -1.957031,0.9375 -0.246094,0.3867187 -0.363281,0.8320312 -0.375,1.5703125 h 0.878906 c 0.02344,-0.4921875 0.08203,-0.7851563 0.210938,-1.0195313 0.222656,-0.4453125 0.679687,-0.7148437 1.21875,-0.7148437 0.796875,0 1.394531,0.5742187 1.394531,1.359375 0,0.5742187 -0.328125,1.078125 -0.960937,1.4414062 l -0.914063,0.5390625 c -1.476562,0.84375 -1.910156,1.5234375 -1.992187,3.10546879 h 4.722656 z m 0,0"
       style="fill:#000000;fill-opacity:1;fill-rule:nonzero;stroke:none"
       aria-label="−0.02"
       transform="matrix(1.3333333,0,0,1.3333333,96.333333,498.33333)"
       clip-path="url(#clipPath14)" />
    <path
       id="path15"
       d="m 1582.5,153.332 v 45"
       style="fill:none;stroke:#000000;stroke-width:5;stroke-linecap:butt;stroke-linejoin:round;stroke-miterlimit:10;stroke-dasharray:none;stroke-opacity:1"
       transform="matrix(0.13333333,0,0,-0.13333333,0,502.66667)"
       clip-path="url(#clipPath16)" />
    <path
       id="path17"
       d="m 2.7529297,-7.2314453 c -0.6679688,0 -1.265625,0.3046875 -1.6289063,0.796875 -0.46874996,0.6328125 -0.69140621,1.59375 -0.69140621,2.9296875 0,2.4492187 0.79687501,3.73828124 2.32031251,3.73828124 1.5,0 2.3085937,-1.28906254 2.3085937,-3.66796874 0,-1.40625 -0.2109375,-2.34375 -0.6796875,-3 -0.375,-0.5039063 -0.9609375,-0.796875 -1.6289062,-0.796875 z m 0,0.7851562 c 0.9492187,0 1.4179687,0.9726563 1.4179687,2.9296875 0,2.0507813 -0.46875,3.01171879 -1.4414062,3.01171879 -0.9257813,0 -1.40625,-0.99609379 -1.40625,-2.98828129 0,-1.9804687 0.4804687,-2.953125 1.4296875,-2.953125 z m 0,0"
       style="fill:#000000;fill-opacity:1;fill-rule:nonzero;stroke:none"
       aria-label="0"
       transform="matrix(1.3333333,0,0,1.3333333,207.33333,498.33333)"
       clip-path="url(#clipPath18)" />
    <path
       id="path19"
       d="m 2286.67,153.332 v 45"
       style="fill:none;stroke:#000000;stroke-width:5;stroke-linecap:butt;stroke-linejoin:round;stroke-miterlimit:10;stroke-dasharray:none;stroke-opacity:1"
       transform="matrix(0.13333333,0,0,-0.13333333,0,502.66667)"
       clip-path="url(#clipPath20)" />
    <path
       id="path21"
       d="m 2.7539063,-7.2314453 c -0.6679688,0 -1.2656251,0.3046875 -1.6289063,0.796875 -0.46875,0.6328125 -0.69140625,1.59375 -0.69140625,2.9296875 0,2.4492187 0.79687495,3.73828124 2.32031255,3.73828124 1.4999999,0 2.3085937,-1.28906254 2.3085937,-3.66796874 0,-1.40625 -0.2109375,-2.34375 -0.6796875,-3 -0.375,-0.5039063 -0.9609375,-0.796875 -1.6289062,-0.796875 z m 0,0.7851562 c 0.9492187,0 1.4179687,0.9726563 1.4179687,2.9296875 0,2.0507813 -0.46875,3.01171879 -1.4414062,3.01171879 -0.9257813,0 -1.4062501,-0.99609379 -1.4062501,-2.98828129 0,-1.9804687 0.4804688,-2.953125 1.4296876,-2.953125 z m 4.7167968,5.4023438 H 6.4277344 v 1.0429687375 h 1.0429687 z m 3.6240239,-6.1875 c -0.667969,0 -1.2656254,0.3046875 -1.6289067,0.796875 -0.46875,0.6328125 -0.6914062,1.59375 -0.6914062,2.9296875 0,2.4492187 0.796875,3.73828124 2.3203129,3.73828124 1.5,0 2.308593,-1.28906254 2.308593,-3.66796874 0,-1.40625 -0.210937,-2.34375 -0.679687,-3 -0.375,-0.5039063 -0.960938,-0.796875 -1.628906,-0.796875 z m 0,0.7851562 c 0.949218,0 1.417968,0.9726563 1.417968,2.9296875 0,2.0507813 -0.46875,3.01171879 -1.441406,3.01171879 -0.925781,0 -1.4062499,-0.99609379 -1.4062499,-2.98828129 0,-1.9804687 0.4804689,-2.953125 1.4296879,-2.953125 z m 7.86914,5.57812504 h -3.738281 c 0.09375,-0.59765624 0.410156,-0.98437504 1.289062,-1.51171874 l 0.996094,-0.5625 c 0.984375,-0.5507813 1.5,-1.2890625 1.5,-2.1796875 0,-0.5976563 -0.246094,-1.1601563 -0.65625,-1.546875 -0.421875,-0.375 -0.949219,-0.5625 -1.617187,-0.5625 -0.902344,0 -1.570313,0.328125 -1.957032,0.9375 -0.246093,0.3867187 -0.363281,0.8320312 -0.375,1.5703125 h 0.878907 c 0.02344,-0.4921875 0.08203,-0.7851563 0.210937,-1.0195313 0.222656,-0.4453125 0.679688,-0.7148437 1.21875,-0.7148437 0.796875,0 1.394531,0.5742187 1.394531,1.359375 0,0.5742187 -0.328125,1.078125 -0.960937,1.4414062 l -0.914063,0.5390625 c -1.476562,0.84375 -1.910156,1.5234375 -1.992187,3.10546879 h 4.722656 z m 0,0"
       style="fill:#000000;fill-opacity:1;fill-rule:nonzero;stroke:none"
       aria-label="0.02"
       transform="matrix(1.3333333,0,0,1.3333333,292,498.33333)"
       clip-path="url(#clipPath22)" />
    <path
       id="path23"
       d="m 2991.67,153.332 v 45"
       style="fill:none;stroke:#000000;stroke-width:5;stroke-linecap:butt;stroke-linejoin:round;stroke-miterlimit:10;stroke-dasharray:none;stroke-opacity:1"
       transform="matrix(0.13333333,0,0,-0.13333333,0,502.66667)"
       clip-path="url(#clipPath24)" />
    <path
       id="path25"
       d="m 2.7539063,-7.2314453 c -0.6679688,0 -1.2656251,0.3046875 -1.6289063,0.796875 -0.46875,0.6328125 -0.69140625,1.59375 -0.69140625,2.9296875 0,2.4492187 0.79687495,3.73828124 2.32031255,3.73828124 1.4999999,0 2.3085937,-1.28906254 2.3085937,-3.66796874 0,-1.40625 -0.2109375,-2.34375 -0.6796875,-3 -0.375,-0.5039063 -0.9609375,-0.796875 -1.6289062,-0.796875 z m 0,0.7851562 c 0.9492187,0 1.4179687,0.9726563 1.4179687,2.9296875 0,2.0507813 -0.46875,3.01171879 -1.4414062,3.01171879 -0.9257813,0 -1.4062501,-0.99609379 -1.4062501,-2.98828129 0,-1.9804687 0.4804688,-2.953125 1.4296876,-2.953125 z m 4.7167968,5.4023438 H 6.4277344 v 1.0429687375 h 1.0429687 z m 3.6240239,-6.1875 c -0.667969,0 -1.2656254,0.3046875 -1.6289067,0.796875 -0.46875,0.6328125 -0.6914062,1.59375 -0.6914062,2.9296875 0,2.4492187 0.796875,3.73828124 2.3203129,3.73828124 1.5,0 2.308593,-1.28906254 2.308593,-3.66796874 0,-1.40625 -0.210937,-2.34375 -0.679687,-3 -0.375,-0.5039063 -0.960938,-0.796875 -1.628906,-0.796875 z m 0,0.7851562 c 0.949218,0 1.417968,0.9726563 1.417968,2.9296875 0,2.0507813 -0.46875,3.01171879 -1.441406,3.01171879 -0.925781,0 -1.4062499,-0.99609379 -1.4062499,-2.98828129 0,-1.9804687 0.4804689,-2.953125 1.4296879,-2.953125 z m 6.076171,4.6992188 v 1.7460937375 h 0.878907 V -1.7470703 h 1.054687 v -0.796875 h -1.054687 v -4.6875 h -0.644532 l -3.222656,4.546875 v 0.9375 z m 0,-0.796875 h -2.214843 l 2.214843,-3.1875 z m 0,0"
       style="fill:#000000;fill-opacity:1;fill-rule:nonzero;stroke:none"
       aria-label="0.04"
       transform="matrix(1.3333333,0,0,1.3333333,386,498.33333)"
       clip-path="url(#clipPath26)" />
    <path
       id="path27"
       d="m 3695.83,153.332 v 45"
       style="fill:none;stroke:#000000;stroke-width:5;stroke-linecap:butt;stroke-linejoin:round;stroke-miterlimit:10;stroke-dasharray:none;stroke-opacity:1"
       transform="matrix(0.13333333,0,0,-0.13333333,0,502.66667)"
       clip-path="url(#clipPath28)" />
    <path
       id="path29"
       d="m 2.754875,-7.2314453 c -0.6679687,0 -1.265625,0.3046875 -1.6289062,0.796875 -0.46875005,0.6328125 -0.6914063,1.59375 -0.6914063,2.9296875 0,2.4492187 0.796875,3.73828124 2.3203125,3.73828124 1.5,0 2.3085938,-1.28906254 2.3085938,-3.66796874 0,-1.40625 -0.2109375,-2.34375 -0.6796875,-3 -0.375,-0.5039063 -0.9609375,-0.796875 -1.6289063,-0.796875 z m 0,0.7851562 c 0.9492188,0 1.4179688,0.9726563 1.4179688,2.9296875 0,2.0507813 -0.46875,3.01171879 -1.4414063,3.01171879 -0.9257812,0 -1.40625,-0.99609379 -1.40625,-2.98828129 0,-1.9804687 0.4804688,-2.953125 1.4296875,-2.953125 z m 4.7138672,5.4023438 H 6.4257734 v 1.0429687375 h 1.0429688 z m 3.6240238,-6.1875 c -0.667969,0 -1.2656254,0.3046875 -1.6289066,0.796875 -0.46875,0.6328125 -0.6914063,1.59375 -0.6914063,2.9296875 0,2.4492187 0.796875,3.73828124 2.3203129,3.73828124 1.5,0 2.308593,-1.28906254 2.308593,-3.66796874 0,-1.40625 -0.210937,-2.34375 -0.679687,-3 -0.375,-0.5039063 -0.960938,-0.796875 -1.628906,-0.796875 z m 0,0.7851562 c 0.949218,0 1.417968,0.9726563 1.417968,2.9296875 0,2.0507813 -0.46875,3.01171879 -1.441406,3.01171879 -0.925781,0 -1.4062499,-0.99609379 -1.4062499,-2.98828129 0,-1.9804687 0.4804689,-2.953125 1.4296879,-2.953125 z m 7.787109,1.1015625 c -0.175781,-1.1835937 -0.9375,-1.8867187 -2.015625,-1.8867187 -0.773437,0 -1.476562,0.3867187 -1.898437,1.03125 -0.445313,0.7148437 -0.632813,1.59375 -0.632813,2.90625 0,1.21875 0.164063,1.9804687 0.597656,2.62499999 0.375,0.5859375 0.996094,0.90234375 1.78125,0.90234375 1.347657,0 2.320313,-1.01953125 2.320313,-2.42578124 0,-1.3242188 -0.902344,-2.2617188 -2.179688,-2.2617188 -0.691406,0 -1.242187,0.2578125 -1.628906,0.7851563 0.01172,-1.7929688 0.574219,-2.7773438 1.582031,-2.7773438 0.621094,0 1.054688,0.3984375 1.195313,1.1015625 z m -2.132812,1.6640625 c 0.855468,0 1.382812,0.5976563 1.382812,1.5585938 0,0.9140625 -0.597656,1.57031249 -1.40625,1.57031249 -0.820312,0 -1.441406,-0.69140629 -1.441406,-1.60546879 0,-0.9023437 0.597656,-1.5234375 1.464844,-1.5234375 z m 0,0"
       style="fill:#000000;fill-opacity:1;fill-rule:nonzero;stroke:none"
       aria-label="0.06"
       transform="matrix(1.3333333,0,0,1.3333333,479.88933,498.33333)"
       clip-path="url(#clipPath30)" />
    <path
       id="path31"
       d="m 4400,153.332 v 45"
       style="fill:none;stroke:#000000;stroke-width:5;stroke-linecap:butt;stroke-linejoin:round;stroke-miterlimit:10;stroke-dasharray:none;stroke-opacity:1"
       transform="matrix(0.13333333,0,0,-0.13333333,0,502.66667)"
       clip-path="url(#clipPath32)" />
    <path
       id="path33"
       d="m 2.7539141,-7.2314453 c -0.6679688,0 -1.265625,0.3046875 -1.6289063,0.796875 -0.46874999,0.6328125 -0.69140624,1.59375 -0.69140624,2.9296875 0,2.4492187 0.79687504,3.73828124 2.32031254,3.73828124 1.5,0 2.3085937,-1.28906254 2.3085937,-3.66796874 0,-1.40625 -0.2109375,-2.34375 -0.6796875,-3 -0.375,-0.5039063 -0.9609375,-0.796875 -1.6289062,-0.796875 z m 0,0.7851562 c 0.9492187,0 1.4179687,0.9726563 1.4179687,2.9296875 0,2.0507813 -0.46875,3.01171879 -1.4414062,3.01171879 -0.9257813,0 -1.40625,-0.99609379 -1.40625,-2.98828129 0,-1.9804687 0.4804687,-2.953125 1.4296875,-2.953125 z m 4.7167968,5.4023438 H 6.4277422 v 1.0429687375 h 1.0429687 z m 3.6240231,-6.1875 c -0.667968,0 -1.2656246,0.3046875 -1.6289059,0.796875 -0.46875,0.6328125 -0.6914062,1.59375 -0.6914062,2.9296875 0,2.4492187 0.796875,3.73828124 2.3203121,3.73828124 1.5,0 2.308594,-1.28906254 2.308594,-3.66796874 0,-1.40625 -0.210937,-2.34375 -0.679687,-3 -0.375,-0.5039063 -0.960938,-0.796875 -1.628907,-0.796875 z m 0,0.7851562 c 0.949219,0 1.417969,0.9726563 1.417969,2.9296875 0,2.0507813 -0.46875,3.01171879 -1.441406,3.01171879 -0.925781,0 -1.4062501,-0.99609379 -1.4062501,-2.98828129 0,-1.9804687 0.4804691,-2.953125 1.4296871,-2.953125 z m 6.720704,2.6367188 c 0.738281,-0.4453125 0.960937,-0.8085938 0.960937,-1.4882813 0,-1.1367187 -0.867187,-1.9335937 -2.121094,-1.9335937 -1.253906,0 -2.132812,0.796875 -2.132812,1.921875 0,0.6914062 0.234375,1.0429687 0.960937,1.5 -0.808593,0.4101562 -1.207031,0.9960937 -1.207031,1.8046875 0,1.31249999 0.960938,2.23828124 2.378906,2.23828124 1.394532,0 2.378907,-0.92578125 2.378907,-2.23828124 0,-0.8085938 -0.410157,-1.3945313 -1.21875,-1.8046875 z m -1.160157,-2.6367188 c 0.75,0 1.21875,0.4453125 1.21875,1.171875 0,0.6796875 -0.480468,1.125 -1.21875,1.125 -0.75,0 -1.230468,-0.4453125 -1.230468,-1.1484375 0,-0.703125 0.480468,-1.1484375 1.230468,-1.1484375 z m 0,3.0351563 c 0.878907,0 1.476563,0.5859375 1.476563,1.4179687 0,0.8671875 -0.597656,1.44140629 -1.5,1.44140629 -0.855469,0 -1.464844,-0.58593749 -1.464844,-1.42968749 0,-0.8554688 0.597656,-1.4296875 1.488281,-1.4296875 z m 0,0"
       style="fill:#000000;fill-opacity:1;fill-rule:nonzero;stroke:none"
       aria-label="0.08"
       transform="matrix(1.3333333,0,0,1.3333333,573.77733,498.33333)"
       clip-path="url(#clipPath34)" />
    <path
       id="path35"
       d="m 230,153.332 h 44.168"
       style="fill:none;stroke:#000000;stroke-width:5;stroke-linecap:butt;stroke-linejoin:round;stroke-miterlimit:10;stroke-dasharray:none;stroke-opacity:1"
       transform="matrix(0.13333333,0,0,-0.13333333,0,502.66667)"
       clip-path="url(#clipPath36)" />
    <path
       id="path37"
       d="m 2.7546906,-7.2316375 c -0.6679687,0 -1.265625,0.3046875 -1.6289062,0.796875 -0.46875002,0.6328125 -0.69140627,1.59375 -0.69140627,2.9296875 0,2.4492188 0.79687497,3.73828125 2.32031247,3.73828125 1.5,0 2.3085938,-1.28906245 2.3085938,-3.66796875 0,-1.40625 -0.2109375,-2.34375 -0.6796875,-3 -0.375,-0.5039062 -0.9609375,-0.796875 -1.6289063,-0.796875 z m 0,0.7851563 c 0.9492188,0 1.4179688,0.9726562 1.4179688,2.9296875 0,2.0507812 -0.46875,3.0117187 -1.4414063,3.0117187 -0.9257812,0 -1.40625,-0.9960937 -1.40625,-2.9882812 0,-1.9804688 0.4804688,-2.953125 1.4296875,-2.953125 z m 0,0"
       style="fill:#000000;fill-opacity:1;fill-rule:nonzero;stroke:none"
       aria-label="0"
       transform="matrix(1.3333333,0,0,1.3333333,19.444267,487.11093)"
       clip-path="url(#clipPath38)" />
    <path
       id="path39"
       d="m 230,505.832 h 44.168"
       style="fill:none;stroke:#000000;stroke-width:5;stroke-linecap:butt;stroke-linejoin:round;stroke-miterlimit:10;stroke-dasharray:none;stroke-opacity:1"
       transform="matrix(0.13333333,0,0,-0.13333333,0,502.66667)"
       clip-path="url(#clipPath40)" />
    <path
       id="path41"
       d="m 2.755078,-7.2316375 c -0.6679688,0 -1.265625,0.3046875 -1.6289063,0.796875 -0.46874995,0.6328125 -0.6914062,1.59375 -0.6914062,2.9296875 0,2.4492188 0.796875,3.73828125 2.3203125,3.73828125 1.5,0 2.3085937,-1.28906245 2.3085937,-3.66796875 0,-1.40625 -0.2109375,-2.34375 -0.6796875,-3 -0.375,-0.5039062 -0.9609375,-0.796875 -1.6289062,-0.796875 z m 0,0.7851563 c 0.9492187,0 1.4179687,0.9726562 1.4179687,2.9296875 0,2.0507812 -0.46875,3.0117187 -1.4414062,3.0117187 -0.9257813,0 -1.40625,-0.9960937 -1.40625,-2.9882812 0,-1.9804688 0.4804687,-2.953125 1.4296875,-2.953125 z m 4.7138672,5.4023437 H 6.4259764 v 1.04296875 h 1.0429688 z m 3.6240238,-6.1875 c -0.667969,0 -1.2656254,0.3046875 -1.6289066,0.796875 -0.46875,0.6328125 -0.6914063,1.59375 -0.6914063,2.9296875 0,2.4492188 0.796875,3.73828125 2.3203129,3.73828125 1.5,0 2.308593,-1.28906245 2.308593,-3.66796875 0,-1.40625 -0.210937,-2.34375 -0.679687,-3 -0.375,-0.5039062 -0.960938,-0.796875 -1.628906,-0.796875 z m 0,0.7851563 c 0.949218,0 1.417968,0.9726562 1.417968,2.9296875 0,2.0507812 -0.46875,3.0117187 -1.441406,3.0117187 -0.925781,0 -1.4062499,-0.9960937 -1.4062499,-2.9882812 0,-1.9804688 0.4804689,-2.953125 1.4296879,-2.953125 z M 16.489453,-5.1457 v 5.14453125 h 0.878906 V -7.2316375 H 16.79414 c -0.316406,1.1132813 -0.515625,1.265625 -1.875,1.4414063 V -5.1457 Z m 0,0"
       style="fill:#000000;fill-opacity:1;fill-rule:nonzero;stroke:none"
       aria-label="0.01"
       transform="matrix(1.3333333,0,0,1.3333333,0.88906267,440.11093)"
       clip-path="url(#clipPath42)" />
    <path
       id="path43"
       d="m 230,858.332 h 44.168"
       style="fill:none;stroke:#000000;stroke-width:5;stroke-linecap:butt;stroke-linejoin:round;stroke-miterlimit:10;stroke-dasharray:none;stroke-opacity:1"
       transform="matrix(0.13333333,0,0,-0.13333333,0,502.66667)"
       clip-path="url(#clipPath44)" />
    <path
       id="path45"
       d="m 2.755078,-7.2316375 c -0.6679688,0 -1.265625,0.3046875 -1.6289063,0.796875 -0.46874995,0.6328125 -0.6914062,1.59375 -0.6914062,2.9296875 0,2.4492188 0.796875,3.73828125 2.3203125,3.73828125 1.5,0 2.3085937,-1.28906245 2.3085937,-3.66796875 0,-1.40625 -0.2109375,-2.34375 -0.6796875,-3 -0.375,-0.5039062 -0.9609375,-0.796875 -1.6289062,-0.796875 z m 0,0.7851563 c 0.9492187,0 1.4179687,0.9726562 1.4179687,2.9296875 0,2.0507812 -0.46875,3.0117187 -1.4414062,3.0117187 -0.9257813,0 -1.40625,-0.9960937 -1.40625,-2.9882812 0,-1.9804688 0.4804687,-2.953125 1.4296875,-2.953125 z m 4.7138672,5.4023437 H 6.4259764 v 1.04296875 h 1.0429688 z m 3.6240238,-6.1875 c -0.667969,0 -1.2656254,0.3046875 -1.6289066,0.796875 -0.46875,0.6328125 -0.6914063,1.59375 -0.6914063,2.9296875 0,2.4492188 0.796875,3.73828125 2.3203129,3.73828125 1.5,0 2.308593,-1.28906245 2.308593,-3.66796875 0,-1.40625 -0.210937,-2.34375 -0.679687,-3 -0.375,-0.5039062 -0.960938,-0.796875 -1.628906,-0.796875 z m 0,0.7851563 c 0.949218,0 1.417968,0.9726562 1.417968,2.9296875 0,2.0507812 -0.46875,3.0117187 -1.441406,3.0117187 -0.925781,0 -1.4062499,-0.9960937 -1.4062499,-2.9882812 0,-1.9804688 0.4804689,-2.953125 1.4296879,-2.953125 z m 7.86914,5.57812495 H 15.223828 C 15.317578,-1.4660125 15.633984,-1.8527312 16.51289,-2.380075 l 0.996094,-0.5625 c 0.984375,-0.5507812 1.5,-1.2890625 1.5,-2.1796875 0,-0.5976562 -0.246094,-1.1601562 -0.65625,-1.546875 -0.421875,-0.375 -0.949219,-0.5625 -1.617187,-0.5625 -0.902344,0 -1.570313,0.328125 -1.957032,0.9375 -0.246093,0.3867188 -0.363281,0.8320313 -0.375,1.5703125 h 0.878907 c 0.02344,-0.4921875 0.08203,-0.7851562 0.210937,-1.0195312 0.222656,-0.4453125 0.679688,-0.7148438 1.21875,-0.7148438 0.796875,0 1.394531,0.5742188 1.394531,1.359375 0,0.5742188 -0.328125,1.078125 -0.960937,1.4414063 l -0.914063,0.5390625 c -1.476562,0.84375 -1.910156,1.5234375 -1.992187,3.1054687 h 4.722656 z m 0,0"
       style="fill:#000000;fill-opacity:1;fill-rule:nonzero;stroke:none"
       aria-label="0.02"
       transform="matrix(1.3333333,0,0,1.3333333,0.88906267,393.11093)"
       clip-path="url(#clipPath46)" />
    <path
       id="path47"
       d="m 230,1210.83 h 44.168"
       style="fill:none;stroke:#000000;stroke-width:5;stroke-linecap:butt;stroke-linejoin:round;stroke-miterlimit:10;stroke-dasharray:none;stroke-opacity:1"
       transform="matrix(0.13333333,0,0,-0.13333333,0,502.66667)"
       clip-path="url(#clipPath48)" />
    <path
       id="path49"
       d="m 2.755078,-7.2314375 c -0.6679688,0 -1.265625,0.3046875 -1.6289063,0.796875 -0.46874995,0.6328125 -0.6914062,1.59375 -0.6914062,2.9296875 0,2.4492188 0.796875,3.73828125 2.3203125,3.73828125 1.5,0 2.3085937,-1.28906245 2.3085937,-3.66796875 0,-1.40625 -0.2109375,-2.34375 -0.6796875,-3 -0.375,-0.5039062 -0.9609375,-0.796875 -1.6289062,-0.796875 z m 0,0.7851563 c 0.9492187,0 1.4179687,0.9726562 1.4179687,2.9296875 0,2.0507812 -0.46875,3.0117187 -1.4414062,3.0117187 -0.9257813,0 -1.40625,-0.9960937 -1.40625,-2.9882812 0,-1.9804688 0.4804687,-2.953125 1.4296875,-2.953125 z m 4.7138672,5.4023437 H 6.4259764 v 1.04296875 h 1.0429688 z m 3.6240238,-6.1875 c -0.667969,0 -1.2656254,0.3046875 -1.6289066,0.796875 -0.46875,0.6328125 -0.6914063,1.59375 -0.6914063,2.9296875 0,2.4492188 0.796875,3.73828125 2.3203129,3.73828125 1.5,0 2.308593,-1.28906245 2.308593,-3.66796875 0,-1.40625 -0.210937,-2.34375 -0.679687,-3 -0.375,-0.5039062 -0.960938,-0.796875 -1.628906,-0.796875 z m 0,0.7851563 c 0.949218,0 1.417968,0.9726562 1.417968,2.9296875 0,2.0507812 -0.46875,3.0117187 -1.441406,3.0117187 -0.925781,0 -1.4062499,-0.9960937 -1.4062499,-2.9882812 0,-1.9804688 0.4804689,-2.953125 1.4296879,-2.953125 z m 5.021484,3.1171875 h 0.46875 c 0.960937,0 1.476562,0.4453125 1.476562,1.3242187 0,0.9023438 -0.550781,1.453125 -1.464843,1.453125 -0.960938,0 -1.441407,-0.4921875 -1.5,-1.546875 h -0.878907 c 0.04687,0.5742188 0.140625,0.9609375 0.316407,1.27734375 0.363281,0.703125 1.054687,1.0546875 2.027343,1.0546875 1.453125,0 2.402344,-0.87890625 2.402344,-2.24999995 0,-0.9257813 -0.351562,-1.4179688 -1.207031,-1.7226563 0.667969,-0.2695312 0.996094,-0.7734375 0.996094,-1.5 0,-1.2421875 -0.808594,-1.9921875 -2.167969,-1.9921875 -1.429688,0 -2.179688,0.8085938 -2.214844,2.3320313 h 0.878906 c 0.01172,-0.4453125 0.04687,-0.6914063 0.164063,-0.9140625 C 15.610547,-6.223625 16.04414,-6.458 16.594922,-6.458 c 0.785156,0 1.253906,0.46875 1.253906,1.2539063 0,0.5039062 -0.175781,0.8203125 -0.574219,0.984375 -0.234375,0.1054687 -0.550781,0.140625 -1.160156,0.1523437 z m 0,0"
       style="fill:#000000;fill-opacity:1;fill-rule:nonzero;stroke:none"
       aria-label="0.03"
       transform="matrix(1.3333333,0,0,1.3333333,0.88906267,346.11067)"
       clip-path="url(#clipPath50)" />
    <path
       id="path51"
       d="m 230,1562.5 h 44.168"
       style="fill:none;stroke:#000000;stroke-width:5;stroke-linecap:butt;stroke-linejoin:round;stroke-miterlimit:10;stroke-dasharray:none;stroke-opacity:1"
       transform="matrix(0.13333333,0,0,-0.13333333,0,502.66667)"
       clip-path="url(#clipPath52)" />
    <path
       id="path53"
       d="m 2.755078,-7.2304766 c -0.6679688,0 -1.265625,0.3046875 -1.6289063,0.796875 -0.46874995,0.6328125 -0.6914062,1.59375 -0.6914062,2.9296875 0,2.4492188 0.796875,3.73828129 2.3203125,3.73828129 1.5,0 2.3085937,-1.28906249 2.3085937,-3.66796879 0,-1.40625 -0.2109375,-2.34375 -0.6796875,-3 -0.375,-0.5039062 -0.9609375,-0.796875 -1.6289062,-0.796875 z m 0,0.7851563 c 0.9492187,0 1.4179687,0.9726562 1.4179687,2.9296875 0,2.0507812 -0.46875,3.01171874 -1.4414062,3.01171874 -0.9257813,0 -1.40625,-0.99609374 -1.40625,-2.98828124 0,-1.9804688 0.4804687,-2.953125 1.4296875,-2.953125 z m 4.7138672,5.4023437 H 6.4259764 V -7.8125e-6 h 1.0429688 z m 3.6240238,-6.1875 c -0.667969,0 -1.2656254,0.3046875 -1.6289066,0.796875 -0.46875,0.6328125 -0.6914063,1.59375 -0.6914063,2.9296875 0,2.4492188 0.796875,3.73828129 2.3203129,3.73828129 1.5,0 2.308593,-1.28906249 2.308593,-3.66796879 0,-1.40625 -0.210937,-2.34375 -0.679687,-3 -0.375,-0.5039062 -0.960938,-0.796875 -1.628906,-0.796875 z m 0,0.7851563 c 0.949218,0 1.417968,0.9726562 1.417968,2.9296875 0,2.0507812 -0.46875,3.01171874 -1.441406,3.01171874 -0.925781,0 -1.4062499,-0.99609374 -1.4062499,-2.98828124 0,-1.9804688 0.4804689,-2.953125 1.4296879,-2.953125 z m 6.076171,4.6992187 V -7.8125e-6 h 0.878907 V -1.7461016 h 1.054687 v -0.796875 h -1.054687 v -4.6875 h -0.644532 l -3.222656,4.546875 v 0.9375 z m 0,-0.796875 h -2.214843 l 2.214843,-3.1875 z m 0,0"
       style="fill:#000000;fill-opacity:1;fill-rule:nonzero;stroke:none"
       aria-label="0.04"
       transform="matrix(1.3333333,0,0,1.3333333,0.88906267,299.22267)"
       clip-path="url(#clipPath54)" />
    <path
       id="path55"
       d="m 230,1915 h 44.168"
       style="fill:none;stroke:#000000;stroke-width:5;stroke-linecap:butt;stroke-linejoin:round;stroke-miterlimit:10;stroke-dasharray:none;stroke-opacity:1"
       transform="matrix(0.13333333,0,0,-0.13333333,0,502.66667)"
       clip-path="url(#clipPath56)" />
    <path
       id="path57"
       d="m 2.755078,-7.2304766 c -0.6679688,0 -1.265625,0.3046875 -1.6289063,0.796875 -0.46874995,0.6328125 -0.6914062,1.59375 -0.6914062,2.9296875 0,2.4492188 0.796875,3.73828129 2.3203125,3.73828129 1.5,0 2.3085937,-1.28906249 2.3085937,-3.66796879 0,-1.40625 -0.2109375,-2.34375 -0.6796875,-3 -0.375,-0.5039062 -0.9609375,-0.796875 -1.6289062,-0.796875 z m 0,0.7851563 c 0.9492187,0 1.4179687,0.9726562 1.4179687,2.9296875 0,2.0507812 -0.46875,3.01171874 -1.4414062,3.01171874 -0.9257813,0 -1.40625,-0.99609374 -1.40625,-2.98828124 0,-1.9804688 0.4804687,-2.953125 1.4296875,-2.953125 z m 4.7138672,5.4023437 H 6.4259764 V -7.8125e-6 h 1.0429688 z m 3.6240238,-6.1875 c -0.667969,0 -1.2656254,0.3046875 -1.6289066,0.796875 -0.46875,0.6328125 -0.6914063,1.59375 -0.6914063,2.9296875 0,2.4492188 0.796875,3.73828129 2.3203129,3.73828129 1.5,0 2.308593,-1.28906249 2.308593,-3.66796879 0,-1.40625 -0.210937,-2.34375 -0.679687,-3 -0.375,-0.5039062 -0.960938,-0.796875 -1.628906,-0.796875 z m 0,0.7851563 c 0.949218,0 1.417968,0.9726562 1.417968,2.9296875 0,2.0507812 -0.46875,3.01171874 -1.441406,3.01171874 -0.925781,0 -1.4062499,-0.99609374 -1.4062499,-2.98828124 0,-1.9804688 0.4804689,-2.953125 1.4296879,-2.953125 z m 7.564453,-0.6445313 h -3.65625 l -0.527344,3.8554688 h 0.808594 c 0.410156,-0.4804688 0.75,-0.65625 1.300781,-0.65625 0.949219,0 1.546875,0.65625 1.546875,1.6992187 0,1.0195313 -0.597656,1.64062504 -1.546875,1.64062504 -0.773438,0 -1.242188,-0.38671875 -1.453125,-1.18359374 h -0.878906 c 0.117187,0.5742187 0.222656,0.85546874 0.433593,1.11328124 0.398438,0.5390625 1.113282,0.85546875 1.910157,0.85546875 1.429687,0 2.4375,-1.04296875 2.4375,-2.54296879 0,-1.3945312 -0.9375,-2.3554687 -2.296875,-2.3554687 -0.492188,0 -0.902344,0.1289062 -1.300782,0.421875 l 0.269532,-1.9804688 h 2.953125 z m 0,0"
       style="fill:#000000;fill-opacity:1;fill-rule:nonzero;stroke:none"
       aria-label="0.05"
       transform="matrix(1.3333333,0,0,1.3333333,0.88906267,252.22267)"
       clip-path="url(#clipPath58)" />
    <path
       id="path59"
       d="m 230,2267.5 h 44.168"
       style="fill:none;stroke:#000000;stroke-width:5;stroke-linecap:butt;stroke-linejoin:round;stroke-miterlimit:10;stroke-dasharray:none;stroke-opacity:1"
       transform="matrix(0.13333333,0,0,-0.13333333,0,502.66667)"
       clip-path="url(#clipPath60)" />
    <path
       id="path61"
       d="m 2.755078,-7.2304766 c -0.6679688,0 -1.265625,0.3046875 -1.6289063,0.796875 -0.46874995,0.6328125 -0.6914062,1.59375 -0.6914062,2.9296875 0,2.4492188 0.796875,3.73828129 2.3203125,3.73828129 1.5,0 2.3085937,-1.28906249 2.3085937,-3.66796879 0,-1.40625 -0.2109375,-2.34375 -0.6796875,-3 -0.375,-0.5039062 -0.9609375,-0.796875 -1.6289062,-0.796875 z m 0,0.7851563 c 0.9492187,0 1.4179687,0.9726562 1.4179687,2.9296875 0,2.0507812 -0.46875,3.01171874 -1.4414062,3.01171874 -0.9257813,0 -1.40625,-0.99609374 -1.40625,-2.98828124 0,-1.9804688 0.4804687,-2.953125 1.4296875,-2.953125 z m 4.7138672,5.4023437 H 6.4259764 V -7.8125e-6 h 1.0429688 z m 3.6240238,-6.1875 c -0.667969,0 -1.2656254,0.3046875 -1.6289066,0.796875 -0.46875,0.6328125 -0.6914063,1.59375 -0.6914063,2.9296875 0,2.4492188 0.796875,3.73828129 2.3203129,3.73828129 1.5,0 2.308593,-1.28906249 2.308593,-3.66796879 0,-1.40625 -0.210937,-2.34375 -0.679687,-3 -0.375,-0.5039062 -0.960938,-0.796875 -1.628906,-0.796875 z m 0,0.7851563 c 0.949218,0 1.417968,0.9726562 1.417968,2.9296875 0,2.0507812 -0.46875,3.01171874 -1.441406,3.01171874 -0.925781,0 -1.4062499,-0.99609374 -1.4062499,-2.98828124 0,-1.9804688 0.4804689,-2.953125 1.4296879,-2.953125 z m 7.787109,1.1015625 c -0.175781,-1.1835938 -0.9375,-1.8867188 -2.015625,-1.8867188 -0.773438,0 -1.476563,0.3867188 -1.898438,1.03125 -0.445312,0.7148438 -0.632812,1.59375 -0.632812,2.90625 0,1.21875 0.164062,1.9804688 0.597656,2.62500004 0.375,0.5859375 0.996094,0.90234375 1.78125,0.90234375 1.347656,0 2.320313,-1.01953125 2.320313,-2.42578129 0,-1.3242187 -0.902344,-2.2617187 -2.179688,-2.2617187 -0.691406,0 -1.242187,0.2578125 -1.628906,0.7851562 0.01172,-1.7929687 0.574219,-2.7773437 1.582031,-2.7773437 0.621094,0 1.054688,0.3984375 1.195313,1.1015625 z m -2.132813,1.6640625 c 0.855469,0 1.382813,0.5976562 1.382813,1.5585937 0,0.9140625 -0.597656,1.57031254 -1.40625,1.57031254 -0.820313,0 -1.441406,-0.69140624 -1.441406,-1.60546874 0,-0.9023438 0.597656,-1.5234375 1.464843,-1.5234375 z m 0,0"
       style="fill:#000000;fill-opacity:1;fill-rule:nonzero;stroke:none"
       aria-label="0.06"
       transform="matrix(1.3333333,0,0,1.3333333,0.88906267,205.22267)"
       clip-path="url(#clipPath62)" />
    <path
       id="path63"
       d="m 230,2619.17 h 44.168"
       style="fill:none;stroke:#000000;stroke-width:5;stroke-linecap:butt;stroke-linejoin:round;stroke-miterlimit:10;stroke-dasharray:none;stroke-opacity:1"
       transform="matrix(0.13333333,0,0,-0.13333333,0,502.66667)"
       clip-path="url(#clipPath64)" />
    <path
       id="path65"
       d="m 2.755078,-7.2314453 c -0.6679688,0 -1.265625,0.3046875 -1.6289063,0.796875 -0.46874995,0.6328125 -0.6914062,1.59375 -0.6914062,2.9296875 0,2.4492187 0.796875,3.73828124 2.3203125,3.73828124 1.5,0 2.3085937,-1.28906254 2.3085937,-3.66796874 0,-1.40625 -0.2109375,-2.34375 -0.6796875,-3 -0.375,-0.5039063 -0.9609375,-0.796875 -1.6289062,-0.796875 z m 0,0.7851562 c 0.9492187,0 1.4179687,0.9726563 1.4179687,2.9296875 0,2.0507813 -0.46875,3.01171879 -1.4414062,3.01171879 -0.9257813,0 -1.40625,-0.99609379 -1.40625,-2.98828129 0,-1.9804687 0.4804687,-2.953125 1.4296875,-2.953125 z m 4.7138672,5.4023438 H 6.4259764 v 1.0429687375 h 1.0429688 z m 3.6240238,-6.1875 c -0.667969,0 -1.2656254,0.3046875 -1.6289066,0.796875 -0.46875,0.6328125 -0.6914063,1.59375 -0.6914063,2.9296875 0,2.4492187 0.796875,3.73828124 2.3203129,3.73828124 1.5,0 2.308593,-1.28906254 2.308593,-3.66796874 0,-1.40625 -0.210937,-2.34375 -0.679687,-3 -0.375,-0.5039063 -0.960938,-0.796875 -1.628906,-0.796875 z m 0,0.7851562 c 0.949218,0 1.417968,0.9726563 1.417968,2.9296875 0,2.0507813 -0.46875,3.01171879 -1.441406,3.01171879 -0.925781,0 -1.4062499,-0.99609379 -1.4062499,-2.98828129 0,-1.9804687 0.4804689,-2.953125 1.4296879,-2.953125 z m 8.009765,-0.6445312 H 14.35664 v 0.8671875 h 3.832032 c -1.6875,2.4140625 -2.378907,3.890625 -2.90625,6.2226562375 h 0.9375 C 16.60664,-2.2744141 17.497265,-4.2197266 19.102734,-6.3525391 Z m 0,0"
       style="fill:#000000;fill-opacity:1;fill-rule:nonzero;stroke:none"
       aria-label="0.07"
       transform="matrix(1.3333333,0,0,1.3333333,0.88906267,158.33333)"
       clip-path="url(#clipPath66)" />
    <path
       id="path67"
       d="m 230,2971.67 h 44.168"
       style="fill:none;stroke:#000000;stroke-width:5;stroke-linecap:butt;stroke-linejoin:round;stroke-miterlimit:10;stroke-dasharray:none;stroke-opacity:1"
       transform="matrix(0.13333333,0,0,-0.13333333,0,502.66667)"
       clip-path="url(#clipPath68)" />
    <path
       id="path69"
       d="m 2.755078,-7.2314453 c -0.6679688,0 -1.265625,0.3046875 -1.6289063,0.796875 -0.46874995,0.6328125 -0.6914062,1.59375 -0.6914062,2.9296875 0,2.4492187 0.796875,3.73828124 2.3203125,3.73828124 1.5,0 2.3085937,-1.28906254 2.3085937,-3.66796874 0,-1.40625 -0.2109375,-2.34375 -0.6796875,-3 -0.375,-0.5039063 -0.9609375,-0.796875 -1.6289062,-0.796875 z m 0,0.7851562 c 0.9492187,0 1.4179687,0.9726563 1.4179687,2.9296875 0,2.0507813 -0.46875,3.01171879 -1.4414062,3.01171879 -0.9257813,0 -1.40625,-0.99609379 -1.40625,-2.98828129 0,-1.9804687 0.4804687,-2.953125 1.4296875,-2.953125 z m 4.7138672,5.4023438 H 6.4259764 v 1.0429687375 h 1.0429688 z m 3.6240238,-6.1875 c -0.667969,0 -1.2656254,0.3046875 -1.6289066,0.796875 -0.46875,0.6328125 -0.6914063,1.59375 -0.6914063,2.9296875 0,2.4492187 0.796875,3.73828124 2.3203129,3.73828124 1.5,0 2.308593,-1.28906254 2.308593,-3.66796874 0,-1.40625 -0.210937,-2.34375 -0.679687,-3 -0.375,-0.5039063 -0.960938,-0.796875 -1.628906,-0.796875 z m 0,0.7851562 c 0.949218,0 1.417968,0.9726563 1.417968,2.9296875 0,2.0507813 -0.46875,3.01171879 -1.441406,3.01171879 -0.925781,0 -1.4062499,-0.99609379 -1.4062499,-2.98828129 0,-1.9804687 0.4804689,-2.953125 1.4296879,-2.953125 z m 6.720703,2.6367188 c 0.738281,-0.4453125 0.960937,-0.8085938 0.960937,-1.4882813 0,-1.1367187 -0.867187,-1.9335937 -2.121094,-1.9335937 -1.253906,0 -2.132812,0.796875 -2.132812,1.921875 0,0.6914062 0.234375,1.0429687 0.960937,1.5 -0.808593,0.4101562 -1.207031,0.9960937 -1.207031,1.8046875 0,1.31249999 0.960938,2.23828124 2.378906,2.23828124 1.394532,0 2.378907,-0.92578125 2.378907,-2.23828124 0,-0.8085938 -0.410157,-1.3945313 -1.21875,-1.8046875 z m -1.160157,-2.6367188 c 0.75,0 1.21875,0.4453125 1.21875,1.171875 0,0.6796875 -0.480468,1.125 -1.21875,1.125 -0.75,0 -1.230468,-0.4453125 -1.230468,-1.1484375 0,-0.703125 0.480468,-1.1484375 1.230468,-1.1484375 z m 0,3.0351563 c 0.878907,0 1.476563,0.5859375 1.476563,1.4179687 0,0.8671875 -0.597656,1.44140629 -1.5,1.44140629 -0.855469,0 -1.464844,-0.58593749 -1.464844,-1.42968749 0,-0.8554688 0.597656,-1.4296875 1.488281,-1.4296875 z m 0,0"
       style="fill:#000000;fill-opacity:1;fill-rule:nonzero;stroke:none"
       aria-label="0.08"
       transform="matrix(1.3333333,0,0,1.3333333,0.88906267,111.33333)"
       clip-path="url(#clipPath70)" />
    <path
       id="path71"
       d="m 230,3324.17 h 44.168"
       style="fill:none;stroke:#000000;stroke-width:5;stroke-linecap:butt;stroke-linejoin:round;stroke-miterlimit:10;stroke-dasharray:none;stroke-opacity:1"
       transform="matrix(0.13333333,0,0,-0.13333333,0,502.66667)"
       clip-path="url(#clipPath72)" />
    <path
       id="path73"
       d="m 2.755078,-7.2314453 c -0.6679688,0 -1.265625,0.3046875 -1.6289063,0.796875 -0.46874995,0.6328125 -0.6914062,1.59375 -0.6914062,2.9296875 0,2.4492187 0.796875,3.73828124 2.3203125,3.73828124 1.5,0 2.3085937,-1.28906254 2.3085937,-3.66796874 0,-1.40625 -0.2109375,-2.34375 -0.6796875,-3 -0.375,-0.5039063 -0.9609375,-0.796875 -1.6289062,-0.796875 z m 0,0.7851562 c 0.9492187,0 1.4179687,0.9726563 1.4179687,2.9296875 0,2.0507813 -0.46875,3.01171879 -1.4414062,3.01171879 -0.9257813,0 -1.40625,-0.99609379 -1.40625,-2.98828129 0,-1.9804687 0.4804687,-2.953125 1.4296875,-2.953125 z m 4.7138672,5.4023438 H 6.4259764 v 1.0429687375 h 1.0429688 z m 3.6240238,-6.1875 c -0.667969,0 -1.2656254,0.3046875 -1.6289066,0.796875 -0.46875,0.6328125 -0.6914063,1.59375 -0.6914063,2.9296875 0,2.4492187 0.796875,3.73828124 2.3203129,3.73828124 1.5,0 2.308593,-1.28906254 2.308593,-3.66796874 0,-1.40625 -0.210937,-2.34375 -0.679687,-3 -0.375,-0.5039063 -0.960938,-0.796875 -1.628906,-0.796875 z m 0,0.7851562 c 0.949218,0 1.417968,0.9726563 1.417968,2.9296875 0,2.0507813 -0.46875,3.01171879 -1.441406,3.01171879 -0.925781,0 -1.4062499,-0.99609379 -1.4062499,-2.98828129 0,-1.9804687 0.4804689,-2.953125 1.4296879,-2.953125 z m 3.333984,4.7929688 c 0.175781,1.18359374 0.9375,1.88671874 2.015625,1.88671874 0.785156,0 1.488281,-0.38671875 1.910156,-1.03125 0.433594,-0.71484374 0.632813,-1.59375004 0.632813,-2.90625004 0,-1.21875 -0.175782,-1.9804687 -0.597657,-2.625 -0.386718,-0.5859375 -1.007812,-0.9023437 -1.792968,-0.9023437 -1.347657,0 -2.320313,1.0078125 -2.320313,2.4140625 0,1.3242187 0.902344,2.2617187 2.179688,2.2617187 0.679687,0 1.171875,-0.234375 1.628906,-0.7851562 -0.01172,1.8046875 -0.574219,2.78906249 -1.582031,2.78906249 -0.621094,0 -1.054688,-0.3984375 -1.195313,-1.10156249 z m 2.15625,-4.8046875 c 0.820312,0 1.441406,0.6914062 1.441406,1.6171875 0,0.890625 -0.597656,1.5117187 -1.464844,1.5117187 -0.855468,0 -1.382812,-0.5976562 -1.382812,-1.5585937 0,-0.9140625 0.597656,-1.5703125 1.40625,-1.5703125 z m 0,0"
       style="fill:#000000;fill-opacity:1;fill-rule:nonzero;stroke:none"
       aria-label="0.09"
       transform="matrix(1.3333333,0,0,1.3333333,0.88906267,64.333333)"
       clip-path="url(#clipPath74)" />
    <path
       id="path75"
       d="m 230,3675.83 h 44.168"
       style="fill:none;stroke:#000000;stroke-width:5;stroke-linecap:butt;stroke-linejoin:round;stroke-miterlimit:10;stroke-dasharray:none;stroke-opacity:1"
       transform="matrix(0.13333333,0,0,-0.13333333,0,502.66667)"
       clip-path="url(#clipPath76)" />
    <path
       id="path77"
       d="m 2.7529297,-7.2294844 c -0.6679688,0 -1.265625,0.3046875 -1.6289063,0.796875 -0.46874996,0.6328125 -0.69140621,1.59375 -0.69140621,2.9296875 0,2.4492188 0.79687501,3.73828127 2.32031251,3.73828127 1.5,0 2.3085937,-1.28906247 2.3085937,-3.66796877 0,-1.40625 -0.2109375,-2.34375 -0.6796875,-3 -0.375,-0.5039062 -0.9609375,-0.796875 -1.6289062,-0.796875 z m 0,0.7851563 c 0.9492187,0 1.4179687,0.9726562 1.4179687,2.9296875 0,2.0507812 -0.46875,3.01171872 -1.4414062,3.01171872 -0.9257813,0 -1.40625,-0.99609372 -1.40625,-2.98828122 0,-1.9804688 0.4804687,-2.953125 1.4296875,-2.953125 z m 4.7167969,5.4023437 H 6.4267578 V 9.84375e-4 H 7.4697266 Z M 10.929688,-5.1435469 V 9.84375e-4 h 0.878906 V -7.2294844 h -0.574219 c -0.316406,1.1132813 -0.515625,1.265625 -1.875,1.4414063 v 0.6445312 z m 0,0"
       style="fill:#000000;fill-opacity:1;fill-rule:nonzero;stroke:none"
       aria-label="0.1"
       transform="matrix(1.3333333,0,0,1.3333333,8.3333333,17.444)"
       clip-path="url(#clipPath78)" />
    <path
       id="path79"
       d="m 1582.5,153.332 h 880.83 V 1034.17 H 1582.5 V 153.332"
       style="fill:none;stroke:#000000;stroke-width:5;stroke-linecap:butt;stroke-linejoin:round;stroke-miterlimit:10;stroke-dasharray:none;stroke-opacity:1"
       transform="matrix(0.13333333,0,0,-0.13333333,0,502.66667)"
       clip-path="url(#clipPath80)" />
    <path
       id="path81"
       d="m 2463.33,153.332 h 880 v 880.838 h -880 V 153.332"
       style="fill:none;stroke:#000000;stroke-width:5;stroke-linecap:butt;stroke-linejoin:round;stroke-miterlimit:10;stroke-dasharray:none;stroke-opacity:1"
       transform="matrix(0.13333333,0,0,-0.13333333,0,502.66667)"
       clip-path="url(#clipPath82)" />
    <path
       id="path83"
       d="m 1582.5,1034.17 h 880.83 V 1915 H 1582.5 v -880.83"
       style="fill:none;stroke:#000000;stroke-width:5;stroke-linecap:butt;stroke-linejoin:round;stroke-miterlimit:10;stroke-dasharray:none;stroke-opacity:1"
       transform="matrix(0.13333333,0,0,-0.13333333,0,502.66667)"
       clip-path="url(#clipPath84)" />
    <path
       id="path85"
       d="m 2463.33,1034.17 h 880 V 1915 h -880 v -880.83"
       style="fill:none;stroke:#000000;stroke-width:5;stroke-linecap:butt;stroke-linejoin:round;stroke-miterlimit:10;stroke-dasharray:none;stroke-opacity:1"
       transform="matrix(0.13333333,0,0,-0.13333333,0,502.66667)"
       clip-path="url(#clipPath86)" />
    <path
       id="path87"
       d="m 1582.5,1915 h 880.83 v 880.83 H 1582.5 V 1915"
       style="fill:none;stroke:#000000;stroke-width:5;stroke-linecap:butt;stroke-linejoin:round;stroke-miterlimit:10;stroke-dasharray:none;stroke-opacity:1"
       transform="matrix(0.13333333,0,0,-0.13333333,0,502.66667)"
       clip-path="url(#clipPath88)" />
    <path
       id="path89"
       d="m 2463.33,1915 h 880 v 880.83 h -880 V 1915"
       style="fill:none;stroke:#000000;stroke-width:5;stroke-linecap:butt;stroke-linejoin:round;stroke-miterlimit:10;stroke-dasharray:none;stroke-opacity:1"
       transform="matrix(0.13333333,0,0,-0.13333333,0,502.66667)"
       clip-path="url(#clipPath90)" />
    <path
       id="path91"
       d="m 1582.5,2795.83 h 880.83 v 880 H 1582.5 v -880"
       style="fill:none;stroke:#000000;stroke-width:5;stroke-linecap:butt;stroke-linejoin:round;stroke-miterlimit:10;stroke-dasharray:none;stroke-opacity:1"
       transform="matrix(0.13333333,0,0,-0.13333333,0,502.66667)"
       clip-path="url(#clipPath92)" />
    <path
       id="path93"
       d="m 2463.33,2795.83 h 880 v 880 h -880 v -880"
       style="fill:none;stroke:#000000;stroke-width:5;stroke-linecap:butt;stroke-linejoin:round;stroke-miterlimit:10;stroke-dasharray:none;stroke-opacity:1"
       transform="matrix(0.13333333,0,0,-0.13333333,0,502.66667)"
       clip-path="url(#clipPath94)" />
    <path
       id="path95"
       d="m 1592.5,153.332 c 0,-5.519 -4.48,-10 -10,-10 -5.52,0 -10,4.481 -10,10 0,5.52 4.48,10 10,10 5.52,0 10,-4.48 10,-10"
       style="fill:#000000;fill-opacity:1;fill-rule:nonzero;stroke:none"
       transform="matrix(0.13333333,0,0,-0.13333333,0,502.66667)"
       clip-path="url(#clipPath96)" />
    <path
       id="path97"
       d="m 2473.33,153.332 c 0,-5.519 -4.48,-10 -10,-10 -5.52,0 -10,4.481 -10,10 0,5.52 4.48,10 10,10 5.52,0 10,-4.48 10,-10"
       style="fill:#000000;fill-opacity:1;fill-rule:nonzero;stroke:none"
       transform="matrix(0.13333333,0,0,-0.13333333,0,502.66667)"
       clip-path="url(#clipPath98)" />
    <path
       id="path99"
       d="m 2473.33,1034.17 c 0,-5.52 -4.48,-10 -10,-10 -5.52,0 -10,4.48 -10,10 0,5.52 4.48,10 10,10 5.52,0 10,-4.48 10,-10"
       style="fill:#000000;fill-opacity:1;fill-rule:nonzero;stroke:none"
       transform="matrix(0.13333333,0,0,-0.13333333,0,502.66667)"
       clip-path="url(#clipPath100)" />
    <path
       id="path101"
       d="m 1592.5,1034.17 c 0,-5.52 -4.48,-10 -10,-10 -5.52,0 -10,4.48 -10,10 0,5.52 4.48,10 10,10 5.52,0 10,-4.48 10,-10"
       style="fill:#000000;fill-opacity:1;fill-rule:nonzero;stroke:none"
       transform="matrix(0.13333333,0,0,-0.13333333,0,502.66667)"
       clip-path="url(#clipPath102)" />
    <path
       id="path103"
       d="m 2473.33,153.332 c 0,-5.519 -4.48,-10 -10,-10 -5.52,0 -10,4.481 -10,10 0,5.52 4.48,10 10,10 5.52,0 10,-4.48 10,-10"
       style="fill:#000000;fill-opacity:1;fill-rule:nonzero;stroke:none"
       transform="matrix(0.13333333,0,0,-0.13333333,0,502.66667)"
       clip-path="url(#clipPath104)" />
    <path
       id="path105"
       d="m 3353.33,153.332 c 0,-5.519 -4.48,-10 -10,-10 -5.52,0 -10,4.481 -10,10 0,5.52 4.48,10 10,10 5.52,0 10,-4.48 10,-10"
       style="fill:#000000;fill-opacity:1;fill-rule:nonzero;stroke:none"
       transform="matrix(0.13333333,0,0,-0.13333333,0,502.66667)"
       clip-path="url(#clipPath106)" />
    <path
       id="path107"
       d="m 3353.33,1034.17 c 0,-5.52 -4.48,-10 -10,-10 -5.52,0 -10,4.48 -10,10 0,5.52 4.48,10 10,10 5.52,0 10,-4.48 10,-10"
       style="fill:#000000;fill-opacity:1;fill-rule:nonzero;stroke:none"
       transform="matrix(0.13333333,0,0,-0.13333333,0,502.66667)"
       clip-path="url(#clipPath108)" />
    <path
       id="path109"
       d="m 2473.33,1034.17 c 0,-5.52 -4.48,-10 -10,-10 -5.52,0 -10,4.48 -10,10 0,5.52 4.48,10 10,10 5.52,0 10,-4.48 10,-10"
       style="fill:#000000;fill-opacity:1;fill-rule:nonzero;stroke:none"
       transform="matrix(0.13333333,0,0,-0.13333333,0,502.66667)"
       clip-path="url(#clipPath110)" />
    <path
       id="path111"
       d="m 1592.5,1034.17 c 0,-5.52 -4.48,-10 -10,-10 -5.52,0 -10,4.48 -10,10 0,5.52 4.48,10 10,10 5.52,0 10,-4.48 10,-10"
       style="fill:#000000;fill-opacity:1;fill-rule:nonzero;stroke:none"
       transform="matrix(0.13333333,0,0,-0.13333333,0,502.66667)"
       clip-path="url(#clipPath112)" />
    <path
       id="path113"
       d="m 2473.33,1034.17 c 0,-5.52 -4.48,-10 -10,-10 -5.52,0 -10,4.48 -10,10 0,5.52 4.48,10 10,10 5.52,0 10,-4.48 10,-10"
       style="fill:#000000;fill-opacity:1;fill-rule:nonzero;stroke:none"
       transform="matrix(0.13333333,0,0,-0.13333333,0,502.66667)"
       clip-path="url(#clipPath114)" />
    <path
       id="path115"
       d="m 2473.33,1915 c 0,-5.52 -4.48,-10 -10,-10 -5.52,0 -10,4.48 -10,10 0,5.52 4.48,10 10,10 5.52,0 10,-4.48 10,-10"
       style="fill:#000000;fill-opacity:1;fill-rule:nonzero;stroke:none"
       transform="matrix(0.13333333,0,0,-0.13333333,0,502.66667)"
       clip-path="url(#clipPath116)" />
    <path
       id="path117"
       d="m 1592.5,1915 c 0,-5.52 -4.48,-10 -10,-10 -5.52,0 -10,4.48 -10,10 0,5.52 4.48,10 10,10 5.52,0 10,-4.48 10,-10"
       style="fill:#000000;fill-opacity:1;fill-rule:nonzero;stroke:none"
       transform="matrix(0.13333333,0,0,-0.13333333,0,502.66667)"
       clip-path="url(#clipPath118)" />
    <path
       id="path119"
       d="m 2473.33,1034.17 c 0,-5.52 -4.48,-10 -10,-10 -5.52,0 -10,4.48 -10,10 0,5.52 4.48,10 10,10 5.52,0 10,-4.48 10,-10"
       style="fill:#000000;fill-opacity:1;fill-rule:nonzero;stroke:none"
       transform="matrix(0.13333333,0,0,-0.13333333,0,502.66667)"
       clip-path="url(#clipPath120)" />
    <path
       id="path121"
       d="m 3353.33,1034.17 c 0,-5.52 -4.48,-10 -10,-10 -5.52,0 -10,4.48 -10,10 0,5.52 4.48,10 10,10 5.52,0 10,-4.48 10,-10"
       style="fill:#000000;fill-opacity:1;fill-rule:nonzero;stroke:none"
       transform="matrix(0.13333333,0,0,-0.13333333,0,502.66667)"
       clip-path="url(#clipPath122)" />
    <path
       id="path123"
       d="m 3353.33,1915 c 0,-5.52 -4.48,-10 -10,-10 -5.52,0 -10,4.48 -10,10 0,5.52 4.48,10 10,10 5.52,0 10,-4.48 10,-10"
       style="fill:#000000;fill-opacity:1;fill-rule:nonzero;stroke:none"
       transform="matrix(0.13333333,0,0,-0.13333333,0,502.66667)"
       clip-path="url(#clipPath124)" />
    <path
       id="path125"
       d="m 2473.33,1915 c 0,-5.52 -4.48,-10 -10,-10 -5.52,0 -10,4.48 -10,10 0,5.52 4.48,10 10,10 5.52,0 10,-4.48 10,-10"
       style="fill:#000000;fill-opacity:1;fill-rule:nonzero;stroke:none"
       transform="matrix(0.13333333,0,0,-0.13333333,0,502.66667)"
       clip-path="url(#clipPath126)" />
    <path
       id="path127"
       d="m 1592.5,1915 c 0,-5.52 -4.48,-10 -10,-10 -5.52,0 -10,4.48 -10,10 0,5.52 4.48,10 10,10 5.52,0 10,-4.48 10,-10"
       style="fill:#000000;fill-opacity:1;fill-rule:nonzero;stroke:none"
       transform="matrix(0.13333333,0,0,-0.13333333,0,502.66667)"
       clip-path="url(#clipPath128)" />
    <path
       id="path129"
       d="m 2473.33,1915 c 0,-5.52 -4.48,-10 -10,-10 -5.52,0 -10,4.48 -10,10 0,5.52 4.48,10 10,10 5.52,0 10,-4.48 10,-10"
       style="fill:#000000;fill-opacity:1;fill-rule:nonzero;stroke:none"
       transform="matrix(0.13333333,0,0,-0.13333333,0,502.66667)"
       clip-path="url(#clipPath130)" />
    <path
       id="path131"
       d="m 2473.33,2795.83 c 0,-5.52 -4.48,-10 -10,-10 -5.52,0 -10,4.48 -10,10 0,5.52 4.48,10 10,10 5.52,0 10,-4.48 10,-10"
       style="fill:#000000;fill-opacity:1;fill-rule:nonzero;stroke:none"
       transform="matrix(0.13333333,0,0,-0.13333333,0,502.66667)"
       clip-path="url(#clipPath132)" />
    <path
       id="path133"
       d="m 1592.5,2795.83 c 0,-5.52 -4.48,-10 -10,-10 -5.52,0 -10,4.48 -10,10 0,5.52 4.48,10 10,10 5.52,0 10,-4.48 10,-10"
       style="fill:#000000;fill-opacity:1;fill-rule:nonzero;stroke:none"
       transform="matrix(0.13333333,0,0,-0.13333333,0,502.66667)"
       clip-path="url(#clipPath134)" />
    <path
       id="path135"
       d="m 2473.33,1915 c 0,-5.52 -4.48,-10 -10,-10 -5.52,0 -10,4.48 -10,10 0,5.52 4.48,10 10,10 5.52,0 10,-4.48 10,-10"
       style="fill:#000000;fill-opacity:1;fill-rule:nonzero;stroke:none"
       transform="matrix(0.13333333,0,0,-0.13333333,0,502.66667)"
       clip-path="url(#clipPath136)" />
    <path
       id="path137"
       d="m 3353.33,1915 c 0,-5.52 -4.48,-10 -10,-10 -5.52,0 -10,4.48 -10,10 0,5.52 4.48,10 10,10 5.52,0 10,-4.48 10,-10"
       style="fill:#000000;fill-opacity:1;fill-rule:nonzero;stroke:none"
       transform="matrix(0.13333333,0,0,-0.13333333,0,502.66667)"
       clip-path="url(#clipPath138)" />
    <path
       id="path139"
       d="m 3353.33,2795.83 c 0,-5.52 -4.48,-10 -10,-10 -5.52,0 -10,4.48 -10,10 0,5.52 4.48,10 10,10 5.52,0 10,-4.48 10,-10"
       style="fill:#000000;fill-opacity:1;fill-rule:nonzero;stroke:none"
       transform="matrix(0.13333333,0,0,-0.13333333,0,502.66667)"
       clip-path="url(#clipPath140)" />
    <path
       id="path141"
       d="m 2473.33,2795.83 c 0,-5.52 -4.48,-10 -10,-10 -5.52,0 -10,4.48 -10,10 0,5.52 4.48,10 10,10 5.52,0 10,-4.48 10,-10"
       style="fill:#000000;fill-opacity:1;fill-rule:nonzero;stroke:none"
       transform="matrix(0.13333333,0,0,-0.13333333,0,502.66667)"
       clip-path="url(#clipPath142)" />
    <path
       id="path143"
       d="m 1592.5,2795.83 c 0,-5.52 -4.48,-10 -10,-10 -5.52,0 -10,4.48 -10,10 0,5.52 4.48,10 10,10 5.52,0 10,-4.48 10,-10"
       style="fill:#000000;fill-opacity:1;fill-rule:nonzero;stroke:none"
       transform="matrix(0.13333333,0,0,-0.13333333,0,502.66667)"
       clip-path="url(#clipPath144)" />
    <path
       id="path145"
       d="m 2473.33,2795.83 c 0,-5.52 -4.48,-10 -10,-10 -5.52,0 -10,4.48 -10,10 0,5.52 4.48,10 10,10 5.52,0 10,-4.48 10,-10"
       style="fill:#000000;fill-opacity:1;fill-rule:nonzero;stroke:none"
       transform="matrix(0.13333333,0,0,-0.13333333,0,502.66667)"
       clip-path="url(#clipPath146)" />
    <path
       id="path147"
       d="m 2473.33,3675.83 c 0,-5.52 -4.48,-10 -10,-10 -5.52,0 -10,4.48 -10,10 0,5.52 4.48,10 10,10 5.52,0 10,-4.48 10,-10"
       style="fill:#000000;fill-opacity:1;fill-rule:nonzero;stroke:none"
       transform="matrix(0.13333333,0,0,-0.13333333,0,502.66667)"
       clip-path="url(#clipPath148)" />
    <path
       id="path149"
       d="m 1592.5,3675.83 c 0,-5.52 -4.48,-10 -10,-10 -5.52,0 -10,4.48 -10,10 0,5.52 4.48,10 10,10 5.52,0 10,-4.48 10,-10"
       style="fill:#000000;fill-opacity:1;fill-rule:nonzero;stroke:none"
       transform="matrix(0.13333333,0,0,-0.13333333,0,502.66667)"
       clip-path="url(#clipPath150)" />
    <path
       id="path151"
       d="m 2473.33,2795.83 c 0,-5.52 -4.48,-10 -10,-10 -5.52,0 -10,4.48 -10,10 0,5.52 4.48,10 10,10 5.52,0 10,-4.48 10,-10"
       style="fill:#000000;fill-opacity:1;fill-rule:nonzero;stroke:none"
       transform="matrix(0.13333333,0,0,-0.13333333,0,502.66667)"
       clip-path="url(#clipPath152)" />
    <path
       id="path153"
       d="m 3353.33,2795.83 c 0,-5.52 -4.48,-10 -10,-10 -5.52,0 -10,4.48 -10,10 0,5.52 4.48,10 10,10 5.52,0 10,-4.48 10,-10"
       style="fill:#000000;fill-opacity:1;fill-rule:nonzero;stroke:none"
       transform="matrix(0.13333333,0,0,-0.13333333,0,502.66667)"
       clip-path="url(#clipPath154)" />
    <path
       id="path155"
       d="m 3353.33,3675.83 c 0,-5.52 -4.48,-10 -10,-10 -5.52,0 -10,4.48 -10,10 0,5.52 4.48,10 10,10 5.52,0 10,-4.48 10,-10"
       style="fill:#000000;fill-opacity:1;fill-rule:nonzero;stroke:none"
       transform="matrix(0.13333333,0,0,-0.13333333,0,502.66667)"
       clip-path="url(#clipPath156)" />
    <path
       id="path157"
       d="m 2473.33,3675.83 c 0,-5.52 -4.48,-10 -10,-10 -5.52,0 -10,4.48 -10,10 0,5.52 4.48,10 10,10 5.52,0 10,-4.48 10,-10"
       style="fill:#000000;fill-opacity:1;fill-rule:nonzero;stroke:none"
       transform="matrix(0.13333333,0,0,-0.13333333,0,502.66667)"
       clip-path="url(#clipPath158)" />
    <path
       id="path159"
       d="M 2463.33,1821.67 2404.17,1915"
       style="fill:none;stroke:#000000;stroke-width:5;stroke-linecap:butt;stroke-linejoin:round;stroke-miterlimit:10;stroke-dasharray:none;stroke-opacity:1"
       transform="matrix(0.13333333,0,0,-0.13333333,0,502.66667)"
       clip-path="url(#clipPath160)" />
    <path
       id="path161"
       d="m 3343.33,1445.83 -880,375.84"
       style="fill:none;stroke:#000000;stroke-width:5;stroke-linecap:butt;stroke-linejoin:round;stroke-miterlimit:10;stroke-dasharray:none;stroke-opacity:1"
       transform="matrix(0.13333333,0,0,-0.13333333,0,502.66667)"
       clip-path="url(#clipPath162)" />
    <path
       id="path163"
       d="m 2404.17,1915 -483.34,880.83"
       style="fill:none;stroke:#000000;stroke-width:5;stroke-linecap:butt;stroke-linejoin:round;stroke-miterlimit:10;stroke-dasharray:none;stroke-opacity:1"
       transform="matrix(0.13333333,0,0,-0.13333333,0,502.66667)"
       clip-path="url(#clipPath164)" />
    <path
       id="path165"
       d="M 1920.83,2795.83 1582.5,3089.17"
       style="fill:none;stroke:#000000;stroke-width:5;stroke-linecap:butt;stroke-linejoin:round;stroke-miterlimit:10;stroke-dasharray:none;stroke-opacity:1"
       transform="matrix(0.13333333,0,0,-0.13333333,0,502.66667)"
       clip-path="url(#clipPath166)" />
    <path
       id="path167"
       d="m 2463.33,2449.17 -204.16,346.66"
       style="fill:none;stroke:#000000;stroke-width:5;stroke-linecap:butt;stroke-linejoin:round;stroke-miterlimit:10;stroke-dasharray:none;stroke-opacity:1"
       transform="matrix(0.13333333,0,0,-0.13333333,0,502.66667)"
       clip-path="url(#clipPath168)" />
    <path
       id="path169"
       d="m 3343.33,2160 -880,289.17"
       style="fill:none;stroke:#000000;stroke-width:5;stroke-linecap:butt;stroke-linejoin:round;stroke-miterlimit:10;stroke-dasharray:none;stroke-opacity:1"
       transform="matrix(0.13333333,0,0,-0.13333333,0,502.66667)"
       clip-path="url(#clipPath170)" />
    <path
       id="path171"
       d="M 2259.17,2795.83 1582.5,3382.5"
       style="fill:none;stroke:#000000;stroke-width:5;stroke-linecap:butt;stroke-linejoin:round;stroke-miterlimit:10;stroke-dasharray:none;stroke-opacity:1"
       transform="matrix(0.13333333,0,0,-0.13333333,0,502.66667)"
       clip-path="url(#clipPath172)" />
    <path
       id="path173"
       d="M 3343.33,2650 2967.5,2795.83"
       style="fill:none;stroke:#000000;stroke-width:5;stroke-linecap:butt;stroke-linejoin:round;stroke-miterlimit:10;stroke-dasharray:none;stroke-opacity:1"
       transform="matrix(0.13333333,0,0,-0.13333333,0,502.66667)"
       clip-path="url(#clipPath174)" />
    <path
       id="path175"
       d="m 2463.33,2898.33 -880.83,777.5"
       style="fill:none;stroke:#000000;stroke-width:5;stroke-linecap:butt;stroke-linejoin:round;stroke-miterlimit:10;stroke-dasharray:none;stroke-opacity:1"
       transform="matrix(0.13333333,0,0,-0.13333333,0,502.66667)"
       clip-path="url(#clipPath176)" />
    <path
       id="path177"
       d="m 2967.5,2795.83 -504.17,102.5"
       style="fill:none;stroke:#000000;stroke-width:5;stroke-linecap:butt;stroke-linejoin:round;stroke-miterlimit:10;stroke-dasharray:none;stroke-opacity:1"
       transform="matrix(0.13333333,0,0,-0.13333333,0,502.66667)"
       clip-path="url(#clipPath178)" />
    <path
       id="path179"
       d="m 2463.33,3157.5 -587.5,518.33"
       style="fill:none;stroke:#000000;stroke-width:5;stroke-linecap:butt;stroke-linejoin:round;stroke-miterlimit:10;stroke-dasharray:none;stroke-opacity:1"
       transform="matrix(0.13333333,0,0,-0.13333333,0,502.66667)"
       clip-path="url(#clipPath180)" />
    <path
       id="path181"
       d="m 3343.33,3025 -880,132.5"
       style="fill:none;stroke:#000000;stroke-width:5;stroke-linecap:butt;stroke-linejoin:round;stroke-miterlimit:10;stroke-dasharray:none;stroke-opacity:1"
       transform="matrix(0.13333333,0,0,-0.13333333,0,502.66667)"
       clip-path="url(#clipPath182)" />
    <path
       id="path183"
       d="m 2463.33,3416.67 -294.16,259.16"
       style="fill:none;stroke:#000000;stroke-width:5;stroke-linecap:butt;stroke-linejoin:round;stroke-miterlimit:10;stroke-dasharray:none;stroke-opacity:1"
       transform="matrix(0.13333333,0,0,-0.13333333,0,502.66667)"
       clip-path="url(#clipPath184)" />
    <path
       id="path185"
       d="m 3343.33,3350.83 -880,65.84"
       style="fill:none;stroke:#000000;stroke-width:5;stroke-linecap:butt;stroke-linejoin:round;stroke-miterlimit:10;stroke-dasharray:none;stroke-opacity:1"
       transform="matrix(0.13333333,0,0,-0.13333333,0,502.66667)"
       clip-path="url(#clipPath186)" />
  </g>
</svg>
