<?xml version="1.0" encoding="UTF-8" standalone="no"?>
<!-- Created with Inkscape (http://www.inkscape.org/) -->

<svg
   version="1.1"
   id="svg1"
   width="271.17334"
   height="208.65334"
   viewBox="0 0 271.17334 208.65334"
   sodipodi:docname="FLW2I8E.EPS"
   xmlns:inkscape="http://www.inkscape.org/namespaces/inkscape"
   xmlns:sodipodi="http://sodipodi.sourceforge.net/DTD/sodipodi-0.dtd"
   xmlns="http://www.w3.org/2000/svg"
   xmlns:svg="http://www.w3.org/2000/svg">
  <defs
     id="defs1" />
  <sodipodi:namedview
     id="namedview1"
     pagecolor="#ffffff"
     bordercolor="#000000"
     borderopacity="0.25"
     inkscape:showpageshadow="2"
     inkscape:pageopacity="0.0"
     inkscape:pagecheckerboard="0"
     inkscape:deskcolor="#d1d1d1">
    <inkscape:page
       x="0"
       y="0"
       inkscape:label="1"
       id="page1"
       width="271.17334"
       height="208.65334"
       margin="0"
       bleed="0" />
  </sodipodi:namedview>
  <g
     id="g1"
     inkscape:groupmode="layer"
     inkscape:label="1">
    <path
       id="path1"
       d="m 689.25,1172.25 c 0.43,-0.36 305.75,141.09 515,180 152.25,27.98 396.53,28.1 397,28 -0.47,0.1 181.76,-202.45 198,-397 28.3,-339.906 -113.43,-566.676 -113,-567 -0.43,0.324 -255.55,85.363 -567,142 -254.691,46.297 -623.98,0.055 -624,0 0.02,0.055 85.059,170.133 142,312 43.465,109.152 52.43,301.64 52,302"
       style="fill:#e9e9e9;fill-opacity:1;fill-rule:nonzero;stroke:none"
       transform="matrix(0.13333333,0,0,-0.13333333,0,208.65333)" />
    <path
       id="path2"
       d="m 689.25,1172.25 c 0.43,-0.36 305.75,141.09 515,180 152.25,27.98 396.53,28.1 397,28 -0.47,0.1 181.76,-202.45 198,-397 28.3,-339.906 -113.43,-566.676 -113,-567 -0.43,0.324 -255.55,85.363 -567,142 -254.691,46.297 -623.98,0.055 -624,0 0.02,0.055 85.059,170.133 142,312 43.465,109.152 52.43,301.64 52,302 z"
       style="fill:none;stroke:#231f20;stroke-width:5;stroke-linecap:butt;stroke-linejoin:miter;stroke-miterlimit:3.8637;stroke-dasharray:none;stroke-opacity:1"
       transform="matrix(0.13333333,0,0,-0.13333333,0,208.65333)" />
    <path
       id="path3"
       d="m 4.8279297,-1.3349219 c -0.1054688,0.1171875 -0.1640625,0.1875 -0.2695313,0.328125 -0.2695312,0.36328127 -0.421875,0.48046877 -0.5625,0.48046877 -0.1640625,0 -0.28125,-0.15234375 -0.3632812,-0.49218747 -0.035156,-0.1289063 -0.035156,-0.1523438 -0.046875,-0.1875 -0.2929688,-1.2304688 -0.4335938,-1.78125 -0.4335938,-1.9570313 0.5390625,-0.9375 0.9609375,-1.453125 1.1835938,-1.453125 0.070312,0 0.1757812,0.035156 0.28125,0.09375 0.1523437,0.082031 0.234375,0.1054688 0.3398437,0.1054688 0.234375,0 0.4101563,-0.1757813 0.4101563,-0.4335938 0,-0.2578125 -0.2109375,-0.4453125 -0.4921875,-0.4453125 -0.5273438,0 -0.9726563,0.4335938 -1.8164063,1.7226563 l -0.1289062,-0.65625 C 2.7654297,-5.0497656 2.6248047,-5.2958594 2.3083984,-5.2958594 c -0.28125,0 -0.6679687,0.1054688 -1.40624996,0.3515625 -0.0703125,0.023437 -0.0703125,0.023437 -0.12890625,0.046875 l 0.046875,0.1875 c 0.46875001,-0.1289062 0.55078121,-0.140625 0.66796871,-0.140625 0.3046875,0 0.375,0.1171875 0.5390625,0.8320313 l 0.3515625,1.4765625 -0.984375,1.40625 c -0.2578125,0.35156247 -0.48046871,0.57421872 -0.60937496,0.57421872 -0.0820313,0 -0.19921875,-0.0351563 -0.31640625,-0.10546875 -0.15234375,-0.09375 -0.28125,-0.12890625 -0.38671875,-0.12890625 -0.234375,0 -0.41015625,0.1875 -0.41015625,0.421875 0,0.31640625 0.234375,0.50390625 0.609375,0.50390625 0.36328125,0 0.515625,-0.10546875 1.11328121,-0.8203125 0.3164063,-0.39843747 0.5859375,-0.76171877 1.078125,-1.41796877 l 0.3632813,1.44140627 c 0.1523437,0.62109375 0.3046875,0.796875 0.6914062,0.796875 0.4570313,0 0.7734375,-0.28125 1.4648438,-1.35937497 z M -79.722852,-84.804648 c 0.152344,-0.03516 0.246094,-0.04687 0.375,-0.04687 0.492188,0 0.726563,0.199218 0.960938,0.84375 0.328125,0.890625 0.949219,3.457031 0.949219,3.914062 0,0.1875 -0.08203,0.386719 -0.257813,0.609375 -0.328125,0.445313 -0.609375,0.785156 -0.75,0.9375 -0.257812,0.257813 -0.386719,0.363281 -0.539062,0.363281 -0.08203,0 -0.152344,-0.03516 -0.292969,-0.140625 -0.175781,-0.140625 -0.292969,-0.199218 -0.445313,-0.199218 -0.257812,0 -0.46875,0.199218 -0.46875,0.46875 0,0.316406 0.257813,0.527343 0.621094,0.527343 0.761719,0 2.320313,-1.792968 3.632813,-4.171875 0.820312,-1.476562 1.148437,-2.34375 1.148437,-2.929687 0,-0.363281 -0.292969,-0.667969 -0.65625,-0.667969 -0.28125,0 -0.46875,0.1875 -0.46875,0.445313 0,0.199218 0.09375,0.316406 0.339844,0.46875 0.222656,0.140625 0.304687,0.246093 0.304687,0.410156 0,0.480469 -0.433593,1.40625 -1.464843,3.105469 l -0.234375,-1.394532 c -0.1875,-1.066406 -0.855469,-3.035156 -1.03125,-3.035156 h -0.04687 c -0.02344,0.01172 -0.05859,0.01172 -0.117188,0.01172 -0.09375,0.01172 -0.539062,0.09375 -1.171875,0.210937 -0.05859,0.01172 -0.210937,0.04687 -0.386719,0.07031 z m 0,0"
       style="fill:#231f20;fill-opacity:1;fill-rule:nonzero;stroke:none"
       aria-label="x&#10;y"
       transform="matrix(1.3333333,0,0,1.3333333,110.56667,201.55333)" />
    <path
       id="path4"
       d="m 161.25,889.25 v -714"
       style="fill:none;stroke:#231f20;stroke-width:2.5;stroke-linecap:butt;stroke-linejoin:miter;stroke-miterlimit:3.8637;stroke-dasharray:none;stroke-opacity:1"
       transform="matrix(0.13333333,0,0,-0.13333333,0,208.65333)" />
    <path
       id="path5"
       d="m 161.25,886.25 h -15 l 15,38 15,-38 h -15"
       style="fill:#231f20;fill-opacity:1;fill-rule:evenodd;stroke:none"
       transform="matrix(0.13333333,0,0,-0.13333333,0,208.65333)" />
    <path
       id="path6"
       d="m 161.25,175.25 h 714"
       style="fill:none;stroke:#231f20;stroke-width:2.5;stroke-linecap:butt;stroke-linejoin:miter;stroke-miterlimit:3.8637;stroke-dasharray:none;stroke-opacity:1"
       transform="matrix(0.13333333,0,0,-0.13333333,0,208.65333)" />
    <path
       id="path7"
       d="m 872.25,175.25 v 15 l 38,-15 -38,-15 v 15"
       style="fill:#231f20;fill-opacity:1;fill-rule:evenodd;stroke:none"
       transform="matrix(0.13333333,0,0,-0.13333333,0,208.65333)" />
    <g
       id="g7"
       aria-label="●&#10;●&#10;●&#10;●&#10;●&#10;●&#10;●&#10;●&#10;T&#10;4&#10;T&#10;3&#10;T&#10;1&#10;T&#10;2&#10;T&#10;7&#10;T&#10;6&#10;T&#10;8&#10;T&#10;5"
       transform="matrix(1.3333333,0,0,1.3333333,219.76667,156.88667)">
      <path
         id="path8"
         d="M 0.56171875,3.90625e-5 V -6.4921484 H 3.9367187 V 3.90625e-5 Z M 1.1242187,-0.56246094 h 2.25 V -5.9296484 h -2.25 z M -117.73613,-14.100547 v -6.492187 h 3.375 v 6.492187 z m 0.5625,-0.5625 h 2.25 v -5.367187 h -2.25 z m 18.937497,-59.935547 v -6.492187 h 3.375 v 6.492187 z m 0.5625,-0.5625 h 2.25 v -5.367187 h -2.25 z m 88.7373049,-20.4375 v -6.492186 h 3.375 v 6.492186 z m 0.5625,-0.5625 h 2.25 v -5.367186 h -2.25 z M 12.063672,-55.59957 v -6.492188 h 3.375 v 6.492188 z m 0.5625,-0.5625 h 2.25 v -5.367188 h -2.25 z m -67.962891,-34.836914 v -6.492188 h 3.375 v 6.492188 z m 0.5625,-0.5625 h 2.25 v -5.367188 h -2.25 z m 4.335938,78.861328 v -6.492188 h 3.375 v 6.492188 z m 0.5625,-0.5625 h 2.25 v -5.367188 h -2.25 z m -52.860349,-34.637696 v -6.492187 h 3.374997 v 6.492187 z m 0.5625,-0.5625 h 2.249997 v -5.367187 h -2.249997 z m 0,0"
         style="fill:#231f20;fill-opacity:1;fill-rule:nonzero;stroke:none" />
      <path
         id="path9"
         d="m -94.538867,-91.625937 h -4.253906 l -0.339844,1.230468 0.152344,0.03516 c 0.421875,-0.867188 0.679687,-0.996094 1.898437,-0.984375 l -1.148437,4.230468 c -0.128907,0.421875 -0.328125,0.550782 -0.855469,0.585938 v 0.128906 h 2.320312 v -0.128906 c -0.679687,-0.05859 -0.714843,-0.07031 -0.714843,-0.363281 0,-0.105469 0.01172,-0.175782 0.09375,-0.46875 l 1.113281,-3.984375 h 0.445312 c 0.574219,0 0.832032,0.199218 0.832032,0.644531 0,0.105469 -0.01172,0.222656 -0.02344,0.363281 l 0.128906,0.01172 z m 5.258789,6.292968 h -0.75 l 0.960937,-3.480468 h -0.328125 l -3.339843,3.457031 -0.152344,0.527344 h 2.097656 l -0.398437,1.429687 h 0.632812 l 0.375,-1.40625 h 0.796875 z m -1.40625,0 h -1.699219 v -0.02344 l 2.4375,-2.554688 h 0.03516 z m 87.7499999,-24.893551 h -4.2539063 l -0.3398437,1.23047 0.1523437,0.0352 c 0.421875,-0.86719 0.6796875,-0.99609 1.8984375,-0.98437 l -1.1484375,4.23047 c -0.1289062,0.42187 -0.328125,0.55078 -0.8554687,0.58593 v 0.12891 h 2.3203125 v -0.12891 c -0.6796875,-0.0586 -0.7148438,-0.0703 -0.7148438,-0.36328 0,-0.10547 0.011719,-0.17578 0.09375,-0.46875 l 1.1132813,-3.98437 h 0.4453125 c 0.5742187,0 0.8320312,0.19922 0.8320312,0.64453 0,0.10547 -0.011719,0.22265 -0.023437,0.36328 l 0.1289063,0.0117 z m 3.06738279,3.6914 c 0.26953125,-0.375 0.55078125,-0.53906 0.87890621,-0.53906 0.4335938,0 0.7148438,0.29297 0.7148438,0.72656 0,0.33985 -0.1640625,0.6211 -0.515625,0.85547 -0.33984376,0.23438 -0.67968751,0.35156 -1.39453126,0.48047 l 0.0117188,0.11719 c 0.4453125,0 0.52734375,0.0117 0.7265625,0.082 0.49218756,0.1875 0.75000006,0.62109 0.75000006,1.25391 0,0.28125 -0.058594,0.57421 -0.1757813,0.76171 -0.18750001,0.32813 -0.53906251,0.55079 -0.86718751,0.55079 -0.15234375,0 -0.33984375,-0.082 -0.57421875,-0.25782 -0.234375,-0.16406 -0.36328125,-0.22265 -0.515625,-0.22265 -0.22265624,0 -0.35156244,0.10547 -0.35156244,0.30468 0,0.30469 0.32812494,0.48047 0.90234369,0.48047 0.4453125,0 0.8671875,-0.10547 1.1953125,-0.29297 0.62109381,-0.375 1.03125001,-1.04296 1.03125001,-1.75781 0,-0.58594 -0.234375,-0.94922 -0.7617187,-1.19531 v -0.0234 c 0.9609375,-0.375 1.2421875,-0.64453 1.2421875,-1.18359 0,-0.58594 -0.4804688,-1.01953 -1.125,-1.01953 -0.55078131,0 -1.04296881,0.3164 -1.30078131,0.83203 z M -115.73809,-8.5253516 h -4.2539 l -0.33985,1.2304688 0.15235,0.035156 c 0.42187,-0.8671875 0.67969,-0.9960937 1.89844,-0.984375 l -1.14844,4.2304688 c -0.12891,0.421875 -0.32813,0.5507812 -0.85547,0.5859375 v 0.1289062 h 2.32031 v -0.1289062 c -0.67969,-0.058594 -0.71484,-0.070312 -0.71484,-0.3632813 0,-0.1054687 0.0117,-0.1757812 0.0937,-0.46875 l 1.11328,-3.984375 h 0.44531 c 0.57422,0 0.83203,0.1992188 0.83203,0.6445313 0,0.1054687 -0.0117,0.2226562 -0.0234,0.3632812 l 0.1289,0.011719 z m 2.02442,8.22656254 h 2.23828 v -0.1171875 h -0.14063 c -0.38671,0 -0.55078,-0.0703125 -0.55078,-0.2578125 0,-0.0703125 0.0234,-0.1875 0.0937,-0.42187504 0.0234,-0.046875 0.0352,-0.09375 0.0586,-0.1757812 l 1.13672,-4.1484375 c 0.0469,-0.140625 0.0469,-0.1992188 0.0469,-0.234375 0,-0.035156 -0.0117,-0.058594 -0.0352,-0.058594 0,0 -0.22265,0.046875 -0.65625,0.1289063 l -0.72656,0.1523437 c -0.0117,0 -0.0703,0.011719 -0.16406,0.023437 v 0.1171875 l 0.45703,-0.011719 c 0.1875,-0.011719 0.30469,0.09375 0.30469,0.2460937 0,0.058594 -0.0117,0.1171875 -0.0586,0.28125 l -1.10156,3.93750004 c -0.0937,0.29296875 -0.26953,0.375 -0.90234,0.421875 z M 2.0617187,5.9736719 h -4.2539062 l -0.3398438,1.2304687 0.1523438,0.035156 C -1.9578125,6.3721094 -1.7,6.2432031 -0.48125,6.2549219 l -1.1484375,4.2304691 c -0.1289063,0.421875 -0.328125,0.550781 -0.8554688,0.585937 v 0.128906 h 2.32031255 v -0.128906 c -0.6796875,-0.05859 -0.71484375,-0.07031 -0.71484375,-0.363281 0,-0.105469 0.0117188,-0.175781 0.09375,-0.46875 L 0.32734375,6.2549219 h 0.4453125 c 0.57421875,0 0.83203125,0.1992187 0.83203125,0.6445312 0,0.1054688 -0.011719,0.2226563 -0.023437,0.3632813 l 0.1289062,0.011719 z m 4.8369141,7.1132811 c -0.1875,0.398438 -0.3398437,0.492188 -0.7851562,0.503906 H 4.5900391 v -0.03516 l 1.5351562,-1.535156 c 0.9375,-0.9375 1.1953125,-1.347656 1.1953125,-1.875 0,-0.7617189 -0.5742187,-1.3593751 -1.3007812,-1.3593751 -0.2929688,0 -0.5859375,0.070312 -0.8203125,0.2109375 C 4.7892578,9.2197656 4.5666016,9.4892969 4.3439453,10.075234 l 0.1640625,0.04687 c 0.2929688,-0.5156246 0.6445313,-0.7499996 1.125,-0.7499996 0.5742188,0 0.9960938,0.421875 0.9960938,0.9726566 0,0.175781 -0.023437,0.328125 -0.070312,0.433593 -0.1992188,0.433594 -0.5625,0.9375 -1.078125,1.488282 l -1.6875,1.792968 v 0.140625 H 6.6408203 L 7.0392578,13.145547 Z M -51.838672,-108.12594 h -4.253906 l -0.339844,1.23047 0.152344,0.0352 c 0.421875,-0.86719 0.679687,-0.9961 1.898437,-0.98438 l -1.148437,4.23047 c -0.128906,0.42188 -0.328125,0.55078 -0.855469,0.58594 v 0.12891 h 2.320313 v -0.12891 c -0.679688,-0.0586 -0.714844,-0.0703 -0.714844,-0.36328 0,-0.10547 0.01172,-0.17578 0.09375,-0.46875 l 1.113281,-3.98438 h 0.445313 c 0.574218,0 0.832031,0.19922 0.832031,0.64453 0,0.10547 -0.01172,0.22266 -0.02344,0.36329 l 0.128907,0.0117 z m 5.938477,2.97657 -0.04687,-0.082 h -3 l -0.65625,1.08985 0.117187,0.0703 c 0.363281,-0.44531 0.585938,-0.5625 1.066406,-0.57422 h 1.769532 l 0.02344,0.0234 -2.941406,4.781249 h 0.5625 z m 72.46289,44.824214 h -4.253906 l -0.339844,1.230469 0.152344,0.03516 c 0.421875,-0.867188 0.679688,-0.996094 1.898438,-0.984375 l -1.148438,4.230469 c -0.128906,0.421875 -0.328125,0.550781 -0.855469,0.585937 v 0.128906 h 2.320313 v -0.12891 c -0.679688,-0.05859 -0.714844,-0.07031 -0.714844,-0.363281 0,-0.105469 0.01172,-0.175781 0.09375,-0.46875 l 1.113281,-3.984375 h 0.445313 c 0.574219,0 0.832031,0.199219 0.832031,0.644531 0,0.105469 -0.01172,0.222656 -0.02344,0.363281 l 0.128906,0.01172 z m 5.797852,2.730469 c -1.066406,0.128906 -1.605469,0.328125 -2.296875,0.832031 -1.007813,0.75 -1.628906,1.886719 -1.628906,3.035156 0,1.019531 0.585937,1.6875 1.464843,1.6875 1.078125,0 1.992188,-1.019531 1.992188,-2.226562 0,-0.820313 -0.574219,-1.40625 -1.359375,-1.40625 -0.222656,0 -0.492188,0.05859 -0.703125,0.164062 l -0.03516,-0.01172 c 0.550781,-1.019531 1.640625,-1.828125 2.578125,-1.945312 z m -2.085938,2.203125 c 0.550782,0 0.902344,0.398437 0.902344,1.019531 0,0.539062 -0.1875,1.171875 -0.492187,1.59375 -0.234375,0.363281 -0.515625,0.527344 -0.855469,0.527344 -0.492188,0 -0.785156,-0.386719 -0.785156,-1.042969 0,-0.550781 0.164062,-1.21875 0.375,-1.570313 0.210937,-0.363281 0.480468,-0.527343 0.855468,-0.527343 z m -142.212889,-0.03516 h -4.25391 l -0.33984,1.230469 0.15234,0.03516 c 0.42188,-0.867187 0.67969,-0.996093 1.89844,-0.984375 l -1.14844,4.230469 c -0.1289,0.421875 -0.32812,0.550781 -0.85547,0.585938 v 0.128906 h 2.32032 v -0.128906 c -0.67969,-0.05859 -0.71485,-0.07031 -0.71485,-0.363282 0,-0.105468 0.0117,-0.175781 0.0937,-0.46875 l 1.11328,-3.984375 h 0.44532 c 0.57421,0 0.83203,0.199219 0.83203,0.644532 0,0.105468 -0.0117,0.222656 -0.0234,0.363281 l 0.12891,0.01172 z m 4.27441,5.167969 c 0.94922,-0.316406 1.3125,-0.65625 1.3125,-1.21875 0,-0.667969 -0.58593,-1.136719 -1.40625,-1.136719 -0.85547,0 -1.4414,0.492188 -1.4414,1.207032 0,0.433593 0.16406,0.738281 0.70312,1.324218 -1.00781,0.316407 -1.57031,0.890625 -1.57031,1.59375 0,0.210938 0.0703,0.457032 0.1875,0.65625 0.26953,0.457032 0.75,0.691407 1.40625,0.691407 0.99609,0 1.72266,-0.621094 1.72266,-1.441407 0,-0.539062 -0.23438,-0.972656 -0.91407,-1.675781 z m -0.65625,0.304688 c 0.87891,0.914062 0.97266,1.054687 0.97266,1.511718 0,0.644532 -0.45703,1.125 -1.08984,1.125 -0.63282,0 -1.07813,-0.46875 -1.07813,-1.125 0,-0.667968 0.43359,-1.21875 1.19531,-1.511718 z m 0.50391,-0.445313 c -0.62109,-0.585937 -0.75,-0.785156 -0.75,-1.125 0,-0.5625 0.29297,-0.902344 0.80859,-0.902344 0.51563,0 0.85547,0.375 0.85547,0.949219 0,0.503906 -0.21094,0.75 -0.91406,1.078125 z m 57.878905,43.2714844 h -4.253906 l -0.339844,1.2304687 0.152344,0.035156 c 0.421875,-0.8671875 0.679688,-0.9960938 1.898438,-0.984375 l -1.148438,4.2304687 c -0.128906,0.421875 -0.328125,0.5507813 -0.855469,0.5859375 v 0.1289063 h 2.320313 v -0.1289063 c -0.679688,-0.058594 -0.714844,-0.070312 -0.714844,-0.3632812 0,-0.1054688 0.01172,-0.1757813 0.09375,-0.46875 l 1.113281,-3.984375 h 0.445313 c 0.574219,0 0.832031,0.1992187 0.832031,0.6445312 0,0.1054688 -0.01172,0.2226563 -0.02344,0.3632813 l 0.128906,0.011719 z m 3.547852,3.46875 h 1.839844 l 0.175781,-0.5742188 h -2.039063 l -0.84375,1.7460938 v 0.1171875 c 0.785157,0.1757812 1.042969,0.2695312 1.335938,0.5039062 0.257812,0.1992188 0.421875,0.609375 0.421875,1.03125003 0,0.8671875 -0.644531,1.65234375 -1.371094,1.65234375 -0.164062,0 -0.304687,-0.0585938 -0.539062,-0.234375 -0.199219,-0.15234375 -0.328125,-0.19921875 -0.445313,-0.19921875 -0.1875,0 -0.328125,0.12890625 -0.328125,0.31640625 0,0.28125 0.316406,0.45703122 0.855469,0.45703122 1.3125,0 2.378906,-1.03124997 2.378906,-2.296875 0,-0.5039062 -0.1875,-0.9257812 -0.527344,-1.2539062 -0.304687,-0.28125 -0.585937,-0.4101563 -1.230468,-0.5625 z m 0,0"
         style="fill:#231f20;fill-opacity:1;fill-rule:nonzero;stroke:none" />
    </g>
  </g>
</svg>
