<?xml version="1.0" encoding="UTF-8" standalone="no"?>
<!-- Created with Inkscape (http://www.inkscape.org/) -->

<svg
   version="1.1"
   id="svg1"
   width="322.74667"
   height="208.03999"
   viewBox="0 0 322.74667 208.03999"
   sodipodi:docname="FLW2I4E.EPS"
   xmlns:inkscape="http://www.inkscape.org/namespaces/inkscape"
   xmlns:sodipodi="http://sodipodi.sourceforge.net/DTD/sodipodi-0.dtd"
   xmlns="http://www.w3.org/2000/svg"
   xmlns:svg="http://www.w3.org/2000/svg">
  <defs
     id="defs1" />
  <sodipodi:namedview
     id="namedview1"
     pagecolor="#ffffff"
     bordercolor="#000000"
     borderopacity="0.25"
     inkscape:showpageshadow="2"
     inkscape:pageopacity="0.0"
     inkscape:pagecheckerboard="0"
     inkscape:deskcolor="#d1d1d1">
    <inkscape:page
       x="0"
       y="0"
       inkscape:label="1"
       id="page1"
       width="322.74667"
       height="208.03999"
       margin="0"
       bleed="0" />
  </sodipodi:namedview>
  <g
     id="g1"
     inkscape:groupmode="layer"
     inkscape:label="1">
    <path
       id="path1"
       d="m 1948.25,1290.25 -1049,29 -359,-741 1606,-280 -198,992"
       style="fill:#e9e9e9;fill-opacity:1;fill-rule:nonzero;stroke:none"
       transform="matrix(0.13333333,0,0,-0.13333333,0,208.04)" />
    <path
       id="path2"
       d="m 1948.25,1290.25 -1049,29 -359,-741 1606,-280 z"
       style="fill:none;stroke:#231f20;stroke-width:5;stroke-linecap:butt;stroke-linejoin:miter;stroke-miterlimit:3.8637;stroke-dasharray:none;stroke-opacity:1"
       transform="matrix(0.13333333,0,0,-0.13333333,0,208.04)" />
    <g
       id="g2"
       aria-label="T&#10;4&#10;●&#10;●&#10;●&#10;(x&#10;4&#10;,y&#10;4&#10;)&#10;●&#10;x&#10;y"
       transform="matrix(1.3333333,0,0,1.3333333,113.9,16.806667)">
      <path
         id="path3"
         d="M 5.0613281,-5.2251172 H 0.80742188 l -0.33984375,1.2304688 0.15234375,0.035156 C 1.0417969,-4.8266797 1.2996094,-4.9555859 2.5183594,-4.9438672 l -1.1484375,4.23046876 c -0.1289063,0.421875 -0.328125,0.55078125 -0.85546877,0.5859375 V 0.00144531 H 2.8347656 v -0.12890625 c -0.6796875,-0.0585938 -0.7148437,-0.0703125 -0.7148437,-0.36328125 0,-0.10546875 0.011719,-0.17578125 0.09375,-0.46875 L 3.3269531,-4.9438672 h 0.4453125 c 0.5742188,0 0.8320313,0.1992188 0.8320313,0.6445313 0,0.1054687 -0.011719,0.2226562 -0.023437,0.3632812 l 0.1289062,0.011719 z M 10.320117,1.0678516 H 9.5701172 L 10.531055,-2.4126172 H 10.20293 L 6.8630859,1.0444141 6.7107422,1.5717578 H 8.8083984 L 8.4099609,3.0014453 h 0.6328125 l 0.375,-1.40625 h 0.7968746 z m -1.4062498,0 H 7.2146484 v -0.023437 l 2.4375,-2.5546875 h 0.035156 z m 0,0"
         style="fill:#231f20;fill-opacity:1;fill-rule:nonzero;stroke:none" />
      <path
         id="path4"
         d="m -34.337109,88.999492 v -6.492187 h 3.375 v 6.492187 z m 0.5625,-0.5625 h 2.25 v -5.367187 h -2.25 z M 1.5632813,15.001445 V 8.5092578 h 3.375 v 6.4921872 z m 0.5625,-0.5625 h 2.25 V 9.0717578 h -2.25 z M 126.16289,116.69969 v -6.49219 h 3.375 v 6.49219 z m 0.5625,-0.5625 h 2.25 V 110.77 h -2.25 z m 0,0"
         style="fill:#231f20;fill-opacity:1;fill-rule:nonzero;stroke:none" />
      <path
         id="path5"
         d="m -36.39082,22.598125 c -0.445313,-1.21875 -0.574219,-1.957031 -0.574219,-3.117187 0,-1.453125 0.328125,-3.164063 0.890625,-4.5 0.398437,-0.949219 0.773437,-1.511719 1.558594,-2.332032 l -0.164063,-0.175781 c -1.558594,1.417969 -2.167969,2.203125 -2.671875,3.457031 -0.316406,0.75 -0.445312,1.488282 -0.445312,2.414063 0,0.925781 0.140625,1.816406 0.410156,2.648437 0.164062,0.503907 0.351562,0.890625 0.773437,1.675782 z m 6.914062,-3.433594 c -0.105469,0.117188 -0.164062,0.1875 -0.269531,0.328125 -0.269531,0.363282 -0.421875,0.480469 -0.5625,0.480469 -0.164063,0 -0.28125,-0.152344 -0.363281,-0.492187 -0.03516,-0.128907 -0.03516,-0.152344 -0.04687,-0.1875 -0.292969,-1.230469 -0.433594,-1.78125 -0.433594,-1.957032 0.539062,-0.9375 0.960937,-1.453125 1.183594,-1.453125 0.07031,0 0.175781,0.03516 0.28125,0.09375 0.152343,0.08203 0.234375,0.105469 0.339843,0.105469 0.234375,0 0.410157,-0.175781 0.410157,-0.433594 0,-0.257812 -0.210938,-0.445312 -0.492188,-0.445312 -0.527344,0 -0.972656,0.433594 -1.816406,1.722656 L -31.375195,16.27 c -0.164063,-0.820312 -0.304688,-1.066406 -0.621094,-1.066406 -0.28125,0 -0.667969,0.105469 -1.40625,0.351562 -0.07031,0.02344 -0.07031,0.02344 -0.128906,0.04687 l 0.04687,0.1875 c 0.46875,-0.128906 0.550781,-0.140625 0.667968,-0.140625 0.304688,0 0.375,0.117188 0.539063,0.832032 l 0.351562,1.476562 -0.984375,1.40625 c -0.257812,0.351563 -0.480468,0.574219 -0.609375,0.574219 -0.08203,0 -0.199218,-0.03516 -0.316406,-0.105469 -0.152344,-0.09375 -0.28125,-0.128906 -0.386719,-0.128906 -0.234375,0 -0.410156,0.1875 -0.410156,0.421875 0,0.316406 0.234375,0.503906 0.609375,0.503906 0.363281,0 0.515625,-0.105469 1.113281,-0.820312 0.316407,-0.398438 0.585938,-0.761719 1.078125,-1.417969 l 0.363282,1.441406 c 0.152343,0.621094 0.304687,0.796875 0.691406,0.796875 0.457031,0 0.773437,-0.28125 1.464844,-1.359375 z m 5.915039,1.441407 h -1.136718 l 1.441406,-5.214844 H -23.7375 l -5.003906,5.167969 -0.246094,0.808593 h 3.140625 l -0.585937,2.132813 h 0.949218 l 0.550782,-2.109375 h 1.207031 z m -2.109375,0 h -2.542968 v -0.04687 l 3.644531,-3.820313 h 0.04687 z m 0.729492,1.441406 c 1.019532,-0.5625 1.558594,-1.230469 1.558594,-1.910156 0,-0.480469 -0.292969,-0.84375 -0.691406,-0.84375 -0.351563,0 -0.609375,0.234375 -0.609375,0.550781 0,0.222656 0.07031,0.339844 0.292969,0.550781 0.1875,0.164063 0.246093,0.257813 0.246093,0.386719 0,0.316406 -0.269531,0.644531 -0.902343,1.066406 z m 3.117188,-6.351563 c 0.152344,-0.03516 0.246094,-0.04687 0.375,-0.04687 0.492187,0 0.726562,0.199219 0.960937,0.84375 0.328125,0.890625 0.949219,3.457032 0.949219,3.914063 0,0.1875 -0.08203,0.386719 -0.257812,0.609375 -0.328125,0.445312 -0.609375,0.785156 -0.75,0.9375 -0.257813,0.257812 -0.386719,0.363281 -0.539063,0.363281 -0.08203,0 -0.152344,-0.03516 -0.292969,-0.140625 -0.175781,-0.140625 -0.292968,-0.199219 -0.445312,-0.199219 -0.257813,0 -0.46875,0.199219 -0.46875,0.46875 0,0.316407 0.257812,0.527344 0.621094,0.527344 0.761718,0 2.320312,-1.792969 3.632812,-4.171875 0.820313,-1.476562 1.148438,-2.34375 1.148438,-2.929687 0,-0.363282 -0.292969,-0.667969 -0.65625,-0.667969 -0.28125,0 -0.46875,0.1875 -0.46875,0.445312 0,0.199219 0.09375,0.316407 0.339843,0.46875 0.222657,0.140625 0.304688,0.246094 0.304688,0.410157 0,0.480468 -0.433594,1.40625 -1.464844,3.105468 l -0.234375,-1.394531 c -0.1875,-1.066406 -0.855469,-3.035156 -1.03125,-3.035156 h -0.04687 c -0.02344,0.01172 -0.05859,0.01172 -0.117187,0.01172 -0.09375,0.01172 -0.539063,0.09375 -1.171875,0.210937 -0.05859,0.01172 -0.210938,0.04687 -0.386719,0.07031 z m 10.661133,4.910157 H -12.3 l 1.441406,-5.214844 h -0.480468 l -5.003907,5.167969 -0.246093,0.808593 h 3.140625 l -0.585938,2.132813 h 0.949219 l 0.550781,-2.109375 h 1.207031 z m -2.109375,0 h -2.542969 v -0.04687 l 3.644531,-3.820313 h 0.04687 z m 1.02539,2.050781 c 1.488282,-1.289063 2.097657,-2.074219 2.6367191,-3.363281 0.3398438,-0.796875 0.4804688,-1.558594 0.4804688,-2.449219 0,-0.691406 -0.09375,-1.441406 -0.2695313,-2.167969 -0.1992187,-0.808594 -0.375,-1.242187 -0.9140626,-2.203125 l -0.234375,0.05859 c 0.410156,0.972656 0.5859376,1.945312 0.5859376,3.140625 0,1.523437 -0.4101566,3.457031 -1.0078126,4.757812 -0.339844,0.773438 -0.703125,1.277344 -1.441406,2.050782 z m 0,0"
         style="fill:#231f20;fill-opacity:1;fill-rule:nonzero;stroke:none" />
      <path
         id="path6"
         d="m 106.16191,17.30125 v -6.492187 h 3.375 v 6.492187 z m 0.5625,-0.5625 h 2.25 v -5.367187 h -2.25 z m 0,0"
         style="fill:#231f20;fill-opacity:1;fill-rule:nonzero;stroke:none" />
      <path
         id="path7"
         d="m 2.3279297,136.76512 c -0.1054688,0.11718 -0.1640625,0.1875 -0.2695313,0.32812 -0.2695312,0.36328 -0.421875,0.48047 -0.5625,0.48047 -0.1640625,0 -0.28125,-0.15234 -0.3632812,-0.49219 -0.035156,-0.1289 -0.035156,-0.15234 -0.046875,-0.1875 -0.29296876,-1.23047 -0.43359376,-1.78125 -0.43359376,-1.95703 0.53906246,-0.9375 0.96093746,-1.45312 1.18359376,-1.45312 0.070312,0 0.1757812,0.0352 0.28125,0.0937 0.1523437,0.082 0.234375,0.10547 0.3398437,0.10547 0.234375,0 0.4101563,-0.17579 0.4101563,-0.4336 0,-0.25781 -0.2109375,-0.44531 -0.4921875,-0.44531 -0.5273438,0 -0.9726563,0.43359 -1.81640626,1.72266 l -0.12890625,-0.65625 c -0.1640625,-0.82032 -0.3046875,-1.06641 -0.62109375,-1.06641 -0.28125,0 -0.66796875,0.10547 -1.40625004,0.35156 -0.070312,0.0234 -0.070312,0.0234 -0.1289062,0.0469 l 0.046875,0.1875 c 0.46875,-0.12891 0.5507812,-0.14063 0.6679687,-0.14063 0.30468754,0 0.37500004,0.11719 0.53906254,0.83203 l 0.3515625,1.47657 -0.98437504,1.40625 c -0.2578125,0.35156 -0.4804687,0.57421 -0.609375,0.57421 -0.082031,0 -0.1992187,-0.0351 -0.3164062,-0.10546 -0.1523438,-0.0937 -0.28125,-0.12891 -0.3867188,-0.12891 -0.234375,0 -0.4101562,0.1875 -0.4101562,0.42187 0,0.31641 0.234375,0.50391 0.609375,0.50391 0.3632812,0 0.515625,-0.10547 1.1132812,-0.82031 0.31640629,-0.39844 0.58593754,-0.76172 1.07812504,-1.41797 l 0.36328125,1.44141 c 0.15234375,0.62109 0.3046875,0.79687 0.69140621,0.79687 0.4570313,0 0.7734375,-0.28125 1.4648438,-1.35937 z M -82.222852,53.295391 c 0.152344,-0.03516 0.246094,-0.04687 0.375,-0.04687 0.492188,0 0.726563,0.199218 0.960938,0.84375 0.328125,0.890625 0.949219,3.457031 0.949219,3.914062 0,0.1875 -0.08203,0.386719 -0.257813,0.609375 -0.328125,0.445313 -0.609375,0.785156 -0.75,0.9375 -0.257812,0.257813 -0.386719,0.363281 -0.539062,0.363281 -0.08203,0 -0.152344,-0.03516 -0.292969,-0.140625 -0.175781,-0.140625 -0.292969,-0.199218 -0.445313,-0.199218 -0.257812,0 -0.46875,0.199218 -0.46875,0.46875 0,0.316406 0.257813,0.527343 0.621094,0.527343 0.761719,0 2.320313,-1.792968 3.632813,-4.171875 0.820312,-1.476562 1.148437,-2.34375 1.148437,-2.929687 0,-0.363281 -0.292969,-0.667969 -0.65625,-0.667969 -0.28125,0 -0.46875,0.1875 -0.46875,0.445313 0,0.199218 0.09375,0.316406 0.339844,0.46875 0.222656,0.140625 0.304687,0.246093 0.304687,0.410156 0,0.480469 -0.433593,1.40625 -1.464843,3.105469 l -0.234375,-1.394532 c -0.1875,-1.066406 -0.855469,-3.035156 -1.03125,-3.035156 h -0.04687 c -0.02344,0.01172 -0.05859,0.01172 -0.117188,0.01172 -0.09375,0.01172 -0.539062,0.09375 -1.171875,0.210937 -0.05859,0.01172 -0.210937,0.04687 -0.386719,0.07031 z m 0,0"
         style="fill:#231f20;fill-opacity:1;fill-rule:nonzero;stroke:none" />
    </g>
    <path
       id="path8"
       d="m 161.25,889.25 v -714"
       style="fill:none;stroke:#231f20;stroke-width:2.5;stroke-linecap:butt;stroke-linejoin:miter;stroke-miterlimit:3.8637;stroke-dasharray:none;stroke-opacity:1"
       transform="matrix(0.13333333,0,0,-0.13333333,0,208.04)" />
    <path
       id="path9"
       d="m 161.25,886.25 h -15 l 15,38 15,-38 h -15"
       style="fill:#231f20;fill-opacity:1;fill-rule:evenodd;stroke:none"
       transform="matrix(0.13333333,0,0,-0.13333333,0,208.04)" />
    <path
       id="path10"
       d="m 161.25,175.25 h 714"
       style="fill:none;stroke:#231f20;stroke-width:2.5;stroke-linecap:butt;stroke-linejoin:miter;stroke-miterlimit:3.8637;stroke-dasharray:none;stroke-opacity:1"
       transform="matrix(0.13333333,0,0,-0.13333333,0,208.04)" />
    <path
       id="path11"
       d="m 872.25,175.25 v 15 l 38,-15 -38,-15 v 15"
       style="fill:#231f20;fill-opacity:1;fill-rule:evenodd;stroke:none"
       transform="matrix(0.13333333,0,0,-0.13333333,0,208.04)" />
    <path
       id="path12"
       d="M 5.0615234,-5.2251172 H 0.80761719 l -0.33984375,1.2304688 0.15234375,0.035156 C 1.0419922,-4.8266797 1.2998047,-4.9555859 2.5185547,-4.9438672 l -1.1484375,4.23046876 c -0.1289063,0.421875 -0.328125,0.55078125 -0.85546876,0.5859375 V 0.00144531 H 2.8349609 v -0.12890625 c -0.6796875,-0.0585938 -0.7148437,-0.0703125 -0.7148437,-0.36328125 0,-0.10546875 0.011719,-0.17578125 0.09375,-0.46875 L 3.3271484,-4.9438672 h 0.4453125 c 0.5742188,0 0.8320313,0.1992188 0.8320313,0.6445313 0,0.1054687 -0.011719,0.2226562 -0.023437,0.3632812 l 0.1289062,0.011719 z m 3.0673829,3.6914063 c 0.2695312,-0.375 0.5507812,-0.5390625 0.8789062,-0.5390625 0.4335938,0 0.7148438,0.2929687 0.7148438,0.7265625 0,0.3398437 -0.1640625,0.62109371 -0.515625,0.85546871 -0.3398438,0.234375 -0.6796875,0.3515625 -1.3945313,0.48046875 l 0.011719,0.1171875 c 0.4453126,0 0.5273438,0.0117188 0.7265626,0.0820313 0.4921875,0.1875 0.75,0.62109375 0.75,1.25390634 0,0.28125 -0.058594,0.5742187 -0.1757813,0.7617187 -0.1875,0.328125 -0.5390625,0.5507813 -0.8671875,0.5507813 -0.1523437,0 -0.3398438,-0.082031 -0.5742188,-0.2578125 C 7.449219,2.3334767 7.3203128,2.2748829 7.167969,2.2748829 c -0.2226562,0 -0.3515625,0.1054688 -0.3515625,0.3046875 0,0.3046875 0.328125,0.4804688 0.9023438,0.4804688 0.4453125,0 0.8671875,-0.1054688 1.1953125,-0.2929688 0.6210938,-0.375 1.03125,-1.0429687 1.03125,-1.7578125 0,-0.58593754 -0.234375,-0.94921879 -0.7617187,-1.19531254 v -0.0234375 c 0.9609369,-0.375 1.2421869,-0.64453125 1.2421869,-1.18359366 0,-0.5859375 -0.4804682,-1.0195313 -1.1249994,-1.0195313 C 8.75,-2.4126172 8.2578125,-2.0962109 8,-1.5805859 Z M -137.53809,69.074688 h -4.2539 l -0.33985,1.230468 0.15235,0.03516 c 0.42187,-0.867188 0.67969,-0.996094 1.89844,-0.984375 l -1.14844,4.230468 c -0.12891,0.421875 -0.32813,0.550782 -0.85547,0.585938 v 0.128906 h 2.32031 v -0.128906 c -0.67969,-0.05859 -0.71484,-0.07031 -0.71484,-0.363281 0,-0.105469 0.0117,-0.175782 0.0937,-0.46875 l 1.11328,-3.984375 h 0.44531 c 0.57422,0 0.83203,0.199218 0.83203,0.644531 0,0.105469 -0.0117,0.222656 -0.0234,0.363281 l 0.1289,0.01172 z m 2.02442,8.226562 h 2.23828 v -0.117187 h -0.14063 c -0.38671,0 -0.55078,-0.07031 -0.55078,-0.257813 0,-0.07031 0.0234,-0.1875 0.0937,-0.421875 0.0234,-0.04687 0.0352,-0.09375 0.0586,-0.175781 l 1.13672,-4.148438 c 0.0469,-0.140625 0.0469,-0.199218 0.0469,-0.234375 0,-0.03516 -0.0117,-0.05859 -0.0352,-0.05859 0,0 -0.22265,0.04687 -0.65625,0.128906 l -0.72656,0.152344 c -0.0117,0 -0.0703,0.01172 -0.16406,0.02344 v 0.117188 l 0.45703,-0.01172 c 0.1875,-0.01172 0.30469,0.09375 0.30469,0.246094 0,0.05859 -0.0117,0.117187 -0.0586,0.28125 l -1.10156,3.9375 c -0.0937,0.292968 -0.26953,0.375 -0.90234,0.421875 z m 0.49219,25.80469 c -0.30469,-0.82031 -0.38672,-1.3125 -0.38672,-2.08594 0,-0.97266 0.22265,-2.109375 0.59765,-3 0.26953,-0.632812 0.51563,-1.007812 1.03125,-1.558594 l -0.10547,-0.117187 c -1.04296,0.949219 -1.4414,1.476562 -1.78125,2.308594 -0.21093,0.503906 -0.29296,0.984375 -0.29296,1.605467 0,0.6211 0.0937,1.21875 0.26953,1.76953 0.10547,0.33985 0.23437,0.59766 0.51562,1.125 z m 5.9414,-2.29688 c -0.0703,0.0703 -0.10547,0.11719 -0.17578,0.22266 -0.1875,0.23437 -0.28125,0.31641 -0.38672,0.31641 -0.10547,0 -0.17578,-0.10547 -0.23437,-0.32813 -0.0234,-0.0937 -0.0234,-0.10547 -0.0352,-0.12891 -0.19922,-0.82031 -0.28125,-1.18359 -0.28125,-1.300777 0.35156,-0.632813 0.63281,-0.972657 0.78516,-0.972657 0.0469,0 0.11718,0.02344 0.1875,0.07031 0.0937,0.04687 0.15234,0.07031 0.22265,0.07031 0.16407,0 0.26953,-0.128906 0.26953,-0.292968 0,-0.175782 -0.1289,-0.292969 -0.32812,-0.292969 -0.35156,0 -0.64453,0.28125 -1.20703,1.136719 l -0.082,-0.433594 c -0.11719,-0.550781 -0.19922,-0.703125 -0.42188,-0.703125 -0.1875,0 -0.43359,0.05859 -0.9375,0.234375 -0.0469,0.01172 -0.0469,0.01172 -0.082,0.02344 l 0.0234,0.128907 c 0.3164,-0.08203 0.375,-0.09375 0.45703,-0.09375 0.19922,0 0.24609,0.07031 0.35156,0.550781 l 0.23438,0.984378 -0.65625,0.9375 c -0.16407,0.24609 -0.31641,0.38672 -0.41016,0.38672 -0.0469,0 -0.12891,-0.0234 -0.19922,-0.0703 -0.10547,-0.0586 -0.1875,-0.082 -0.25781,-0.082 -0.16406,0 -0.26953,0.11719 -0.26953,0.28125 0,0.21094 0.15234,0.33985 0.39844,0.33985 0.24609,0 0.33984,-0.082 0.73828,-0.5625 0.22265,-0.25781 0.39843,-0.50391 0.72656,-0.9375 l 0.23437,0.96094 c 0.10547,0.41015 0.21094,0.53906 0.46875,0.53906 0.30469,0 0.51563,-0.19922 0.97266,-0.91406 z m 2.4668,3.89063 h 2.23828 v -0.11719 h -0.14063 c -0.38671,0 -0.55078,-0.0703 -0.55078,-0.25781 0,-0.0703 0.0234,-0.1875 0.0937,-0.42188 0.0234,-0.0469 0.0352,-0.0937 0.0586,-0.17578 l 1.13672,-4.148436 c 0.0469,-0.140625 0.0469,-0.199219 0.0469,-0.234375 0,-0.03516 -0.0117,-0.05859 -0.0352,-0.05859 0,0 -0.22265,0.04687 -0.65625,0.128906 l -0.72656,0.152344 c -0.0117,0 -0.0703,0.01172 -0.16406,0.02344 V 99.7075 l 0.45703,-0.01172 c 0.1875,-0.01172 0.30469,0.09375 0.30469,0.246094 0,0.0586 -0.0117,0.117186 -0.0586,0.281256 l -1.10156,3.9375 c -0.0937,0.29296 -0.26953,0.375 -0.90234,0.42187 z m 3.64746,-1.96875 c 0.67969,-0.375 1.04297,-0.82031 1.04297,-1.26563 0,-0.32812 -0.19922,-0.57422 -0.45703,-0.57422 -0.23438,0 -0.41016,0.16407 -0.41016,0.36329 0,0.15234 0.0469,0.23437 0.19922,0.375 0.11719,0.10546 0.15234,0.17578 0.15234,0.25781 0,0.21094 -0.17578,0.43359 -0.59765,0.70312 z m 3.08203,-4.230471 c 0.0937,-0.02344 0.16406,-0.03516 0.24609,-0.03516 0.32813,0 0.48047,0.128906 0.64454,0.5625 0.21093,0.585937 0.63281,2.308601 0.63281,2.613281 0,0.11719 -0.0586,0.2461 -0.16406,0.39844 -0.22266,0.30469 -0.41016,0.52735 -0.50391,0.63281 -0.17578,0.17579 -0.25781,0.23438 -0.36328,0.23438 -0.0586,0 -0.10547,-0.0234 -0.1875,-0.082 -0.12891,-0.10547 -0.21094,-0.14063 -0.30469,-0.14063 -0.17578,0 -0.30469,0.14063 -0.30469,0.31641 0,0.19922 0.16407,0.35156 0.39844,0.35156 0.51563,0 1.55859,-1.19531 2.42578,-2.78906 0.55078,-0.98438 0.77344,-1.558599 0.77344,-1.957036 0,-0.234375 -0.19922,-0.433594 -0.44531,-0.433594 -0.17578,0 -0.30469,0.117187 -0.30469,0.292969 0,0.128906 0.0586,0.210937 0.22266,0.316406 0.15234,0.08203 0.21093,0.152344 0.21093,0.269531 0,0.316406 -0.29297,0.9375 -0.98437,2.074224 l -0.15235,-0.92578 c -0.1289,-0.71485 -0.57421,-2.02735 -0.6914,-2.02735 h -0.0352 c -0.0117,0 -0.0352,0 -0.0703,0 -0.0586,0.01172 -0.36328,0.05859 -0.78516,0.140625 -0.0352,0.01172 -0.14062,0.03516 -0.25781,0.04687 z m 5.56934,6.199221 h 2.23828 v -0.11719 h -0.14063 c -0.38672,0 -0.55078,-0.0703 -0.55078,-0.25781 0,-0.0703 0.0234,-0.1875 0.0937,-0.42188 0.0234,-0.0469 0.0352,-0.0937 0.0586,-0.17578 l 1.13671,-4.148436 c 0.0469,-0.140625 0.0469,-0.199219 0.0469,-0.234375 0,-0.03516 -0.0117,-0.05859 -0.0352,-0.05859 0,0 -0.22265,0.04687 -0.65625,0.128906 l -0.72656,0.152344 c -0.0117,0 -0.0703,0.01172 -0.16406,0.02344 V 99.7075 l 0.45703,-0.01172 c 0.1875,-0.01172 0.30469,0.09375 0.30469,0.246094 0,0.0586 -0.0117,0.117186 -0.0586,0.281256 l -1.10156,3.9375 c -0.0937,0.29296 -0.26953,0.375 -0.90234,0.42187 z m 3.84961,-1.5586 c 0.98437,-0.86718 1.39453,-1.38281 1.75781,-2.25 0.22265,-0.52734 0.3164,-1.031246 0.3164,-1.628902 0,-0.457032 -0.0586,-0.960938 -0.17578,-1.441407 -0.1289,-0.550781 -0.24609,-0.832031 -0.60937,-1.476562 l -0.15235,0.03516 c 0.26954,0.65625 0.38672,1.300781 0.38672,2.097656 0,1.019532 -0.26953,2.308595 -0.66797,3.175775 -0.23437,0.51563 -0.46875,0.85547 -0.96093,1.3711 z M 29.178711,21.505352 c -0.304688,-0.820313 -0.386719,-1.3125 -0.386719,-2.085938 0,-0.972656 0.222656,-2.109375 0.597656,-3 0.269532,-0.632812 0.515625,-1.007812 1.03125,-1.558594 L 30.31543,14.743633 c -1.042969,0.949219 -1.441407,1.476562 -1.78125,2.308594 -0.210938,0.503906 -0.292969,0.984375 -0.292969,1.605468 0,0.621094 0.09375,1.21875 0.269531,1.769532 0.105469,0.339843 0.234375,0.597656 0.515625,1.125 z m 5.941406,-2.296875 c -0.07031,0.07031 -0.105469,0.117187 -0.175781,0.222656 -0.1875,0.234375 -0.28125,0.316406 -0.386719,0.316406 -0.105469,0 -0.175781,-0.105469 -0.234375,-0.328125 -0.02344,-0.09375 -0.02344,-0.105469 -0.03516,-0.128906 -0.199219,-0.820313 -0.28125,-1.183594 -0.28125,-1.300781 0.351562,-0.632813 0.632812,-0.972657 0.785156,-0.972657 0.04687,0 0.117188,0.02344 0.1875,0.07031 0.09375,0.04687 0.152344,0.07031 0.222656,0.07031 0.164063,0 0.269532,-0.128906 0.269532,-0.292968 0,-0.175782 -0.128907,-0.292969 -0.328125,-0.292969 -0.351563,0 -0.644532,0.28125 -1.207032,1.136719 l -0.08203,-0.433594 c -0.117187,-0.550781 -0.199219,-0.703125 -0.421875,-0.703125 -0.1875,0 -0.433594,0.05859 -0.9375,0.234375 -0.04687,0.01172 -0.04687,0.01172 -0.08203,0.02344 l 0.02344,0.128907 c 0.316407,-0.08203 0.375,-0.09375 0.457032,-0.09375 0.199218,0 0.246093,0.07031 0.351562,0.550781 l 0.234375,0.984375 -0.65625,0.9375 c -0.164062,0.246094 -0.316406,0.386719 -0.410156,0.386719 -0.04687,0 -0.128906,-0.02344 -0.199219,-0.07031 -0.105469,-0.05859 -0.1875,-0.08203 -0.257812,-0.08203 -0.164063,0 -0.269532,0.117187 -0.269532,0.28125 0,0.210937 0.152344,0.339844 0.398438,0.339844 0.246094,0 0.339844,-0.08203 0.738281,-0.5625 0.222656,-0.257813 0.398438,-0.503907 0.726563,-0.9375 l 0.234375,0.960937 c 0.105468,0.410156 0.210937,0.539063 0.46875,0.539063 0.304687,0 0.515625,-0.199219 0.972656,-0.914063 z m 3.509766,-0.644532 c 0.269531,-0.375 0.550781,-0.539062 0.878906,-0.539062 0.433594,0 0.714844,0.292969 0.714844,0.726562 0,0.339844 -0.164063,0.621094 -0.515625,0.855469 -0.339844,0.234375 -0.679688,0.351563 -1.394531,0.480469 l 0.01172,0.117187 c 0.445313,0 0.527344,0.01172 0.726563,0.08203 0.492187,0.1875 0.75,0.621093 0.75,1.253906 0,0.28125 -0.05859,0.574219 -0.175781,0.761719 -0.1875,0.328125 -0.539063,0.550781 -0.867188,0.550781 -0.152344,0 -0.339844,-0.08203 -0.574219,-0.257813 -0.234375,-0.164062 -0.363281,-0.222656 -0.515625,-0.222656 -0.222656,0 -0.351562,0.105469 -0.351562,0.304688 0,0.304687 0.328125,0.480468 0.902344,0.480468 0.445312,0 0.867187,-0.105468 1.195312,-0.292968 0.621094,-0.375 1.03125,-1.042969 1.03125,-1.757813 0,-0.585937 -0.234375,-0.949219 -0.761719,-1.195312 v -0.02344 c 0.960938,-0.375 1.242188,-0.644531 1.242188,-1.183594 0,-0.585937 -0.480469,-1.019531 -1.125,-1.019531 -0.550781,0 -1.042969,0.316406 -1.300781,0.832031 z m 2.604492,2.566407 c 0.679687,-0.375 1.042969,-0.820313 1.042969,-1.265625 0,-0.328125 -0.199219,-0.574219 -0.457032,-0.574219 -0.234375,0 -0.410156,0.164062 -0.410156,0.363281 0,0.152344 0.04687,0.234375 0.199219,0.375 0.117187,0.105469 0.152344,0.175781 0.152344,0.257813 0,0.210937 -0.175782,0.433593 -0.597657,0.703125 z m 3.082031,-4.230469 c 0.09375,-0.02344 0.164063,-0.03516 0.246094,-0.03516 0.328125,0 0.480469,0.128906 0.644531,0.5625 0.210938,0.585937 0.632813,2.308593 0.632813,2.613281 0,0.117187 -0.05859,0.246094 -0.164063,0.398437 -0.222656,0.304688 -0.410156,0.527344 -0.503906,0.632813 -0.175781,0.175781 -0.257813,0.234375 -0.363281,0.234375 -0.05859,0 -0.105469,-0.02344 -0.1875,-0.08203 -0.128907,-0.105469 -0.210938,-0.140625 -0.304688,-0.140625 -0.175781,0 -0.304687,0.140625 -0.304687,0.316406 0,0.199219 0.164062,0.351562 0.398437,0.351562 0.515625,0 1.558594,-1.195312 2.425781,-2.789062 0.550782,-0.984375 0.773438,-1.558594 0.773438,-1.957031 0,-0.234375 -0.199219,-0.433594 -0.445313,-0.433594 -0.175781,0 -0.304687,0.117187 -0.304687,0.292969 0,0.128906 0.05859,0.210937 0.222656,0.316406 0.152344,0.08203 0.210938,0.152344 0.210938,0.269531 0,0.316406 -0.292969,0.9375 -0.984375,2.074219 L 46.15625,18.599102 c -0.128906,-0.714844 -0.574219,-2.027344 -0.691406,-2.027344 h -0.03516 c -0.01172,0 -0.03516,0 -0.07031,0 -0.05859,0.01172 -0.363281,0.05859 -0.785156,0.140625 -0.03516,0.01172 -0.140625,0.03516 -0.257813,0.04687 z m 6.612305,1.664062 c 0.269531,-0.375 0.550781,-0.539062 0.878906,-0.539062 0.433594,0 0.714844,0.292969 0.714844,0.726562 0,0.339844 -0.164063,0.621094 -0.515625,0.855469 -0.339844,0.234375 -0.679688,0.351563 -1.394531,0.480469 l 0.01172,0.117187 c 0.445313,0 0.527344,0.01172 0.726563,0.08203 0.492187,0.1875 0.75,0.621093 0.75,1.253906 0,0.28125 -0.05859,0.574219 -0.175781,0.761719 -0.1875,0.328125 -0.539063,0.550781 -0.867188,0.550781 -0.152344,0 -0.339844,-0.08203 -0.574219,-0.257813 -0.234375,-0.164062 -0.363281,-0.222656 -0.515625,-0.222656 -0.222656,0 -0.351562,0.105469 -0.351562,0.304688 0,0.304687 0.328125,0.480468 0.902344,0.480468 0.445312,0 0.867187,-0.105468 1.195312,-0.292968 0.621094,-0.375 1.03125,-1.042969 1.03125,-1.757813 0,-0.585937 -0.234375,-0.949219 -0.761719,-1.195312 v -0.02344 c 0.960938,-0.375 1.242188,-0.644531 1.242188,-1.183594 0,-0.585937 -0.480469,-1.019531 -1.125,-1.019531 -0.550781,0 -1.042969,0.316406 -1.300781,0.832031 z m 2.806641,2.976563 c 0.984375,-0.867188 1.394531,-1.382813 1.757812,-2.25 0.222656,-0.527344 0.316406,-1.03125 0.316406,-1.628906 0,-0.457032 -0.05859,-0.960938 -0.175781,-1.441407 -0.128906,-0.550781 -0.246094,-0.832031 -0.609375,-1.476562 l -0.152344,0.03516 c 0.269532,0.65625 0.386719,1.300781 0.386719,2.097656 0,1.019532 -0.269531,2.308594 -0.667969,3.175782 -0.234375,0.515625 -0.46875,0.855468 -0.960937,1.371093 z M 24.87793,128.40672 c -0.304688,-0.82031 -0.386719,-1.3125 -0.386719,-2.08594 0,-0.97265 0.222656,-2.10937 0.597656,-3 0.269531,-0.63281 0.515625,-1.00781 1.03125,-1.55859 L 26.014648,121.645 c -1.042968,0.94922 -1.441406,1.47656 -1.78125,2.30859 -0.210937,0.50391 -0.292968,0.98438 -0.292968,1.60547 0,0.6211 0.09375,1.21875 0.269531,1.76953 0.105469,0.33985 0.234375,0.59766 0.515625,1.125 z m 5.941406,-2.29688 c -0.07031,0.0703 -0.105469,0.11719 -0.175781,0.22266 -0.1875,0.23438 -0.28125,0.31641 -0.386719,0.31641 -0.105469,0 -0.175781,-0.10547 -0.234375,-0.32813 -0.02344,-0.0937 -0.02344,-0.10547 -0.03516,-0.1289 -0.199219,-0.82032 -0.28125,-1.1836 -0.28125,-1.30079 0.351562,-0.63281 0.632812,-0.97265 0.785156,-0.97265 0.04687,0 0.117187,0.0234 0.1875,0.0703 0.09375,0.0469 0.152344,0.0703 0.222656,0.0703 0.164063,0 0.269531,-0.1289 0.269531,-0.29297 0,-0.17578 -0.128906,-0.29296 -0.328125,-0.29296 -0.351562,0 -0.644531,0.28125 -1.207031,1.13671 l -0.08203,-0.43359 c -0.117188,-0.55078 -0.199219,-0.70312 -0.421875,-0.70312 -0.1875,0 -0.433594,0.0586 -0.9375,0.23437 -0.04687,0.0117 -0.04687,0.0117 -0.08203,0.0234 l 0.02344,0.1289 c 0.316406,-0.082 0.375,-0.0937 0.457031,-0.0937 0.199219,0 0.246094,0.0703 0.351563,0.55079 l 0.234375,0.98437 -0.65625,0.9375 c -0.164063,0.24609 -0.316406,0.38672 -0.410156,0.38672 -0.04687,0 -0.128907,-0.0234 -0.199219,-0.0703 -0.105469,-0.0586 -0.1875,-0.082 -0.257813,-0.082 -0.164062,0 -0.269531,0.11718 -0.269531,0.28125 0,0.21093 0.152344,0.33984 0.398438,0.33984 0.246093,0 0.339843,-0.082 0.738281,-0.5625 0.222656,-0.25781 0.398437,-0.50391 0.726562,-0.9375 l 0.234375,0.96094 c 0.105469,0.41015 0.210938,0.53906 0.46875,0.53906 0.304688,0 0.515625,-0.19922 0.972657,-0.91406 z m 5.378906,2.77735 c -0.1875,0.39843 -0.339844,0.49218 -0.785156,0.5039 h -1.523438 v -0.0351 l 1.535157,-1.53516 c 0.9375,-0.9375 1.195312,-1.34765 1.195312,-1.875 0,-0.76172 -0.574219,-1.35937 -1.300781,-1.35937 -0.292969,0 -0.585938,0.0703 -0.820313,0.21093 -0.410156,0.22266 -0.632812,0.49219 -0.855468,1.07813 l 0.164062,0.0469 c 0.292969,-0.51562 0.644531,-0.75 1.125,-0.75 0.574219,0 0.996094,0.42188 0.996094,0.97266 0,0.17578 -0.02344,0.32813 -0.07031,0.43359 -0.199218,0.4336 -0.5625,0.9375 -1.078125,1.48828 l -1.6875,1.79297 v 0.14063 h 2.847657 l 0.398437,-1.05469 z m 0.837891,-0.85547 c 0.679687,-0.375 1.042969,-0.82031 1.042969,-1.26563 0,-0.32812 -0.199219,-0.57421 -0.457032,-0.57421 -0.234375,0 -0.410156,0.16406 -0.410156,0.36328 0,0.15234 0.04687,0.23437 0.199219,0.375 0.117187,0.10547 0.152344,0.17578 0.152344,0.25781 0,0.21094 -0.175782,0.43359 -0.597657,0.70312 z m 3.082031,-4.23047 c 0.09375,-0.0234 0.164063,-0.0352 0.246094,-0.0352 0.328125,0 0.480469,0.12891 0.644531,0.5625 0.210938,0.58594 0.632813,2.3086 0.632813,2.61329 0,0.11718 -0.05859,0.24609 -0.164063,0.39843 -0.222656,0.30469 -0.410156,0.52735 -0.503906,0.63282 -0.175781,0.17578 -0.257813,0.23437 -0.363281,0.23437 -0.05859,0 -0.105469,-0.0234 -0.1875,-0.082 -0.128907,-0.10547 -0.210938,-0.14063 -0.304688,-0.14063 -0.175781,0 -0.304687,0.14063 -0.304687,0.31641 0,0.19922 0.164062,0.35156 0.398437,0.35156 0.515625,0 1.558594,-1.19531 2.425781,-2.78906 0.550782,-0.98437 0.773438,-1.55859 0.773438,-1.95703 0,-0.23438 -0.199219,-0.43359 -0.445313,-0.43359 -0.175781,0 -0.304687,0.11718 -0.304687,0.29296 0,0.12891 0.05859,0.21094 0.222656,0.31641 0.152344,0.082 0.210938,0.15234 0.210938,0.26953 0,0.31641 -0.292969,0.9375 -0.984375,2.07422 l -0.152344,-0.92578 c -0.128906,-0.71484 -0.574219,-2.02734 -0.691406,-2.02734 h -0.03516 c -0.01172,0 -0.03516,0 -0.07031,0 -0.05859,0.0117 -0.363281,0.0586 -0.785156,0.14062 -0.03516,0.0117 -0.140625,0.0352 -0.257813,0.0469 z M 48.5,128.88719 c -0.1875,0.39843 -0.339844,0.49218 -0.785156,0.5039 h -1.523438 v -0.0351 l 1.535156,-1.53516 c 0.9375,-0.9375 1.195313,-1.34765 1.195313,-1.875 0,-0.76172 -0.574219,-1.35937 -1.300781,-1.35937 -0.292969,0 -0.585938,0.0703 -0.820313,0.21093 -0.410156,0.22266 -0.632812,0.49219 -0.855469,1.07813 l 0.164063,0.0469 c 0.292969,-0.51562 0.644531,-0.75 1.125,-0.75 0.574219,0 0.996094,0.42188 0.996094,0.97266 0,0.17578 -0.02344,0.32813 -0.07031,0.43359 -0.199219,0.4336 -0.5625,0.9375 -1.078125,1.48828 l -1.6875,1.79297 v 0.14063 h 2.847656 l 0.398438,-1.05469 z m 1.03418,-0.44532 c 0.984375,-0.86718 1.394531,-1.38281 1.757812,-2.24999 0.222656,-0.52735 0.316406,-1.03125 0.316406,-1.62891 0,-0.45703 -0.05859,-0.96094 -0.175781,-1.44141 -0.128906,-0.55078 -0.246094,-0.83203 -0.609375,-1.47656 l -0.152344,0.0352 c 0.269532,0.65625 0.386719,1.30078 0.386719,2.09765 0,1.01953 -0.269531,2.3086 -0.667969,3.17578 -0.234375,0.51563 -0.46875,0.85547 -0.960937,1.3711 z m 1.728515,-31.769526 h -4.253906 l -0.339844,1.230469 0.152344,0.03516 c 0.421875,-0.867188 0.679688,-0.996094 1.898438,-0.984375 l -1.148438,4.230462 c -0.128906,0.42188 -0.328125,0.55078 -0.855469,0.58594 v 0.12891 h 2.320313 V 101.77 c -0.679688,-0.0586 -0.714844,-0.0703 -0.714844,-0.36328 0,-0.10547 0.01172,-0.17578 0.09375,-0.46875 l 1.113281,-3.984376 h 0.445313 c 0.574219,0 0.832031,0.199219 0.832031,0.644531 0,0.105469 -0.01172,0.222656 -0.02344,0.363281 l 0.128906,0.01172 z m 4.836914,7.113286 c -0.1875,0.39843 -0.339843,0.49218 -0.785156,0.5039 h -1.523437 v -0.0352 l 1.535156,-1.53516 c 0.9375,-0.9375 1.195312,-1.34766 1.195312,-1.875 0,-0.76172 -0.574218,-1.359376 -1.300781,-1.359376 -0.292969,0 -0.585937,0.07031 -0.820312,0.210937 -0.410157,0.222657 -0.632813,0.492189 -0.855469,1.078129 l 0.164062,0.0469 c 0.292969,-0.51562 0.644532,-0.75 1.125,-0.75 0.574219,0 0.996094,0.42188 0.996094,0.97266 0,0.17578 -0.02344,0.32812 -0.07031,0.43359 -0.199219,0.4336 -0.5625,0.9375 -1.078125,1.48828 l -1.6875,1.79297 v 0.14063 h 2.847656 l 0.398437,-1.05469 z m 0,0"
       style="fill:#231f20;fill-opacity:1;fill-rule:nonzero;stroke:none"
       aria-label="T&#10;3&#10;T&#10;1&#10;(x&#10;1&#10;,y&#10;1&#10;)&#10;(x&#10;3&#10;,y&#10;3&#10;)&#10;(x&#10;2&#10;,y&#10;2&#10;)&#10;T&#10;2"
       transform="matrix(1.3333333,0,0,1.3333333,236.83333,20.806667)" />
  </g>
</svg>
