<?xml version="1.0" encoding="UTF-8" standalone="no"?>
<!-- Created with Inkscape (http://www.inkscape.org/) -->

<svg
   version="1.1"
   id="svg1"
   width="336.77332"
   height="226.93333"
   viewBox="0 0 336.77332 226.93333"
   sodipodi:docname="PLANI4E.EPS"
   xmlns:inkscape="http://www.inkscape.org/namespaces/inkscape"
   xmlns:sodipodi="http://sodipodi.sourceforge.net/DTD/sodipodi-0.dtd"
   xmlns="http://www.w3.org/2000/svg"
   xmlns:svg="http://www.w3.org/2000/svg">
  <defs
     id="defs1" />
  <sodipodi:namedview
     id="namedview1"
     pagecolor="#ffffff"
     bordercolor="#000000"
     borderopacity="0.25"
     inkscape:showpageshadow="2"
     inkscape:pageopacity="0.0"
     inkscape:pagecheckerboard="0"
     inkscape:deskcolor="#d1d1d1">
    <inkscape:page
       x="0"
       y="0"
       inkscape:label="1"
       id="page1"
       width="336.77332"
       height="226.93333"
       margin="0"
       bleed="0" />
  </sodipodi:namedview>
  <g
     id="g1"
     inkscape:groupmode="layer"
     inkscape:label="1">
    <path
       id="path1"
       d="m 4.8279297,-1.3369141 c -0.1054688,0.1171875 -0.1640625,0.1875 -0.2695313,0.328125 -0.2695312,0.36328129 -0.421875,0.48046879 -0.5625,0.48046879 -0.1640625,0 -0.28125,-0.15234375 -0.3632812,-0.49218749 -0.035156,-0.1289063 -0.035156,-0.1523438 -0.046875,-0.1875 -0.2929688,-1.2304688 -0.4335938,-1.78125 -0.4335938,-1.9570313 0.5390625,-0.9375 0.9609375,-1.453125 1.1835938,-1.453125 0.070312,0 0.1757812,0.035156 0.28125,0.09375 0.1523437,0.082031 0.234375,0.1054688 0.3398437,0.1054688 0.234375,0 0.4101563,-0.1757813 0.4101563,-0.4335938 0,-0.2578125 -0.2109375,-0.4453125 -0.4921875,-0.4453125 -0.5273438,0 -0.9726563,0.4335938 -1.8164063,1.7226563 l -0.1289062,-0.65625 C 2.7654297,-5.0517578 2.6248047,-5.2978516 2.3083984,-5.2978516 c -0.28125,0 -0.6679687,0.1054688 -1.40624996,0.3515625 -0.0703125,0.023437 -0.0703125,0.023437 -0.12890625,0.046875 l 0.046875,0.1875 c 0.46875001,-0.1289062 0.55078121,-0.140625 0.66796871,-0.140625 0.3046875,0 0.375,0.1171875 0.5390625,0.8320313 l 0.3515625,1.4765625 -0.984375,1.40625 c -0.2578125,0.35156249 -0.48046871,0.57421874 -0.60937496,0.57421874 -0.0820313,0 -0.19921875,-0.0351563 -0.31640625,-0.10546875 -0.15234375,-0.09375 -0.28125,-0.12890625 -0.38671875,-0.12890625 -0.234375,0 -0.41015625,0.1875 -0.41015625,0.421875 0,0.31640625 0.234375,0.50390625 0.609375,0.50390625 0.36328125,0 0.515625,-0.10546875 1.11328121,-0.8203125 0.3164063,-0.39843749 0.5859375,-0.76171879 1.078125,-1.41796879 l 0.3632813,1.44140629 c 0.1523437,0.62109375 0.3046875,0.796875 0.6914062,0.796875 0.4570313,0 0.7734375,-0.28125 1.4648438,-1.35937499 z M -79.722852,-84.803711 c 0.152344,-0.03516 0.246094,-0.04687 0.375,-0.04687 0.492188,0 0.726563,0.199219 0.960938,0.84375 0.328125,0.890625 0.949219,3.457031 0.949219,3.914063 0,0.1875 -0.08203,0.386718 -0.257813,0.609375 -0.328125,0.445312 -0.609375,0.785156 -0.75,0.9375 -0.257812,0.257812 -0.386719,0.363281 -0.539062,0.363281 -0.08203,0 -0.152344,-0.03516 -0.292969,-0.140625 -0.175781,-0.140625 -0.292969,-0.199219 -0.445313,-0.199219 -0.257812,0 -0.46875,0.199219 -0.46875,0.46875 0,0.316406 0.257813,0.527344 0.621094,0.527344 0.761719,0 2.320313,-1.792969 3.632813,-4.171875 0.820312,-1.476563 1.148437,-2.34375 1.148437,-2.929688 0,-0.363281 -0.292969,-0.667968 -0.65625,-0.667968 -0.28125,0 -0.46875,0.1875 -0.46875,0.445312 0,0.199219 0.09375,0.316406 0.339844,0.46875 0.222656,0.140625 0.304687,0.246094 0.304687,0.410156 0,0.480469 -0.433593,1.40625 -1.464843,3.105469 l -0.234375,-1.394531 c -0.1875,-1.066406 -0.855469,-3.035156 -1.03125,-3.035156 h -0.04687 c -0.02344,0.01172 -0.05859,0.01172 -0.117188,0.01172 -0.09375,0.01172 -0.539062,0.09375 -1.171875,0.210938 -0.05859,0.01172 -0.210937,0.04687 -0.386719,0.07031 z m 0,0"
       style="fill:#231f20;fill-opacity:1;fill-rule:nonzero;stroke:none"
       aria-label="x&#10;y"
       transform="matrix(1.3333333,0,0,1.3333333,110.56667,219.83333)" />
    <path
       id="path2"
       d="m 161.25,889.25 v -714"
       style="fill:none;stroke:#231f20;stroke-width:2.5;stroke-linecap:butt;stroke-linejoin:miter;stroke-miterlimit:3.8637;stroke-dasharray:none;stroke-opacity:1"
       transform="matrix(0.13333333,0,0,-0.13333333,0,226.93333)" />
    <path
       id="path3"
       d="m 161.25,886.25 h -15 l 15,38 15,-38 h -15"
       style="fill:#231f20;fill-opacity:1;fill-rule:evenodd;stroke:none"
       transform="matrix(0.13333333,0,0,-0.13333333,0,226.93333)" />
    <path
       id="path4"
       d="m 161.25,175.25 h 714"
       style="fill:none;stroke:#231f20;stroke-width:2.5;stroke-linecap:butt;stroke-linejoin:miter;stroke-miterlimit:3.8637;stroke-dasharray:none;stroke-opacity:1"
       transform="matrix(0.13333333,0,0,-0.13333333,0,226.93333)" />
    <path
       id="path5"
       d="m 872.25,175.25 v 15 l 38,-15 -38,-15 v 15"
       style="fill:#231f20;fill-opacity:1;fill-rule:evenodd;stroke:none"
       transform="matrix(0.13333333,0,0,-0.13333333,0,226.93333)" />
    <g
       id="g5"
       aria-label="2&#10;3&#10;4&#10;(x&#10;1&#10;,y&#10;1&#10;)"
       transform="matrix(1.3333333,0,0,1.3333333,280.96667,207.83333)">
      <path
         id="path6"
         d="M 6.0689453,-1.0439453 H 1.5923828 c 0.1054688,-0.7265625 0.4921875,-1.171875 1.5351563,-1.8164063 l 1.2070312,-0.6679687 c 1.1835938,-0.65625 1.7929688,-1.546875 1.7929688,-2.6132813 0,-0.7265625 -0.28125,-1.3945312 -0.7851563,-1.8632812 -0.5039062,-0.4570313 -1.1367187,-0.6679688 -1.9335937,-0.6679688 -1.078125,0 -1.8867188,0.375 -2.3554688,1.125 -0.29296874,0.4570313 -0.43359374,0.9960938 -0.45703124,1.875 H 1.6509766 c 0.035156,-0.5976562 0.1171875,-0.9375 0.2578125,-1.2304687 0.2695312,-0.5273438 0.8203125,-0.8554688 1.4648437,-0.8554688 0.9609375,0 1.6757813,0.703125 1.6757813,1.640625 0,0.6914063 -0.3984375,1.2890625 -1.1484375,1.7226563 l -1.1015625,0.65625 c -1.78125,1.0195312 -2.29687504,1.828125 -2.39062504,3.72656249 H 6.0689453 Z M -44.450586,-128.7959 h 0.574219 c 1.160156,0 1.769531,0.53906 1.769531,1.58203 0,1.08985 -0.65625,1.75782 -1.757812,1.75782 -1.160157,0 -1.722657,-0.58594 -1.792969,-1.86329 h -1.054688 c 0.04687,0.69141 0.164063,1.14844 0.375,1.53516 0.433594,0.84375 1.265625,1.26563 2.425782,1.26563 1.757812,0 2.882812,-1.06641 2.882812,-2.70704 0,-1.10156 -0.421875,-1.69921 -1.441406,-2.0625 0.796875,-0.32812 1.195312,-0.92578 1.195312,-1.80468 0,-1.48828 -0.972656,-2.37891 -2.601562,-2.37891 -1.710938,0 -2.625,0.96094 -2.660156,2.78906 h 1.054687 c 0.01172,-0.52734 0.05859,-0.82031 0.199219,-1.08984 0.234375,-0.49219 0.761719,-0.78516 1.417969,-0.78516 0.9375,0 1.5,0.57422 1.5,1.5 0,0.6211 -0.210938,0.98438 -0.679688,1.19532 -0.28125,0.11718 -0.667969,0.16406 -1.40625,0.17578 z m -105.922854,21.49805 v 2.09765 h 1.05469 v -2.09765 h 1.25391 v -0.94922 h -1.25391 v -5.625 h -0.78516 l -3.85546,5.46094 v 1.11328 z m 0,-0.94922 h -2.66015 l 2.66015,-3.83203 z m 0,0"
         style="fill:#231f20;fill-opacity:1;fill-rule:nonzero;stroke:none" />
      <path
         id="path7"
         d="m -183.68984,-20.602539 c -0.44532,-1.21875 -0.57422,-1.957031 -0.57422,-3.117188 0,-1.453125 0.32812,-3.164062 0.89062,-4.5 0.39844,-0.949218 0.77344,-1.511718 1.5586,-2.332031 l -0.16407,-0.175781 c -1.55859,1.417969 -2.16796,2.203125 -2.67187,3.457031 -0.31641,0.75 -0.44531,1.488281 -0.44531,2.414063 0,0.925781 0.14062,1.816406 0.41015,2.648437 0.16407,0.503906 0.35157,0.890625 0.77344,1.675781 z m 6.91406,-3.433594 c -0.10547,0.117188 -0.16406,0.1875 -0.26953,0.328125 -0.26953,0.363281 -0.42188,0.480469 -0.5625,0.480469 -0.16406,0 -0.28125,-0.152344 -0.36328,-0.492188 -0.0352,-0.128906 -0.0352,-0.152343 -0.0469,-0.1875 -0.29297,-1.230468 -0.43359,-1.78125 -0.43359,-1.957031 0.53906,-0.9375 0.96094,-1.453125 1.18359,-1.453125 0.0703,0 0.17578,0.03516 0.28125,0.09375 0.15235,0.08203 0.23438,0.105469 0.33985,0.105469 0.23437,0 0.41015,-0.175781 0.41015,-0.433594 0,-0.257812 -0.21094,-0.445312 -0.49219,-0.445312 -0.52734,0 -0.97265,0.433593 -1.8164,1.722656 l -0.12891,-0.65625 c -0.16406,-0.820313 -0.30469,-1.066406 -0.62109,-1.066406 -0.28125,0 -0.66797,0.105468 -1.40625,0.351562 -0.0703,0.02344 -0.0703,0.02344 -0.12891,0.04687 l 0.0469,0.1875 c 0.46875,-0.128906 0.55078,-0.140625 0.66797,-0.140625 0.30468,0 0.375,0.117188 0.53906,0.832031 l 0.35156,1.476563 -0.98437,1.40625 c -0.25782,0.351562 -0.48047,0.574219 -0.60938,0.574219 -0.082,0 -0.19922,-0.03516 -0.31641,-0.105469 -0.15234,-0.09375 -0.28125,-0.128906 -0.38671,-0.128906 -0.23438,0 -0.41016,0.1875 -0.41016,0.421875 0,0.316406 0.23437,0.503906 0.60937,0.503906 0.36329,0 0.51563,-0.105469 1.11329,-0.820313 0.3164,-0.398437 0.58593,-0.761718 1.07812,-1.417968 l 0.36328,1.441406 c 0.15235,0.621094 0.30469,0.796875 0.69141,0.796875 0.45703,0 0.77344,-0.28125 1.46484,-1.359375 z m 1.16308,4.335938 h 3.35157 v -0.175782 h -0.21094 c -0.58594,0 -0.82031,-0.117187 -0.82031,-0.386718 0,-0.105469 0.0352,-0.292969 0.14062,-0.621094 0.0234,-0.09375 0.0352,-0.152344 0.0703,-0.269531 l 1.72266,-6.222657 c 0.0586,-0.222656 0.0703,-0.292968 0.0703,-0.351562 0,-0.04687 -0.0234,-0.08203 -0.0586,-0.08203 0,0 -0.33984,0.05859 -0.98438,0.1875 l -1.07812,0.222656 c -0.0234,0.01172 -0.11719,0.02344 -0.25781,0.04687 v 0.175781 l 0.67968,-0.02344 c 0.28125,-0.01172 0.45704,0.128906 0.45704,0.375 0,0.08203 -0.0234,0.164062 -0.082,0.410156 l -1.65234,5.894531 c -0.14062,0.445313 -0.39844,0.5625 -1.34766,0.65625 z m 3.47168,-1.453125 c 1.01954,-0.5625 1.5586,-1.230469 1.5586,-1.910157 0,-0.480468 -0.29297,-0.84375 -0.69141,-0.84375 -0.35156,0 -0.60937,0.234375 -0.60937,0.550782 0,0.222656 0.0703,0.339843 0.29297,0.550781 0.1875,0.164062 0.24609,0.257812 0.24609,0.386719 0,0.316406 -0.26953,0.644531 -0.90234,1.066406 z m 3.11719,-6.351563 c 0.15235,-0.03516 0.2461,-0.04687 0.375,-0.04687 0.49219,0 0.72656,0.199219 0.96094,0.84375 0.32812,0.890625 0.94922,3.457031 0.94922,3.914063 0,0.1875 -0.082,0.386718 -0.25781,0.609375 -0.32813,0.445312 -0.60938,0.785156 -0.75,0.9375 -0.25782,0.257812 -0.38672,0.363281 -0.53907,0.363281 -0.082,0 -0.15234,-0.03516 -0.29297,-0.140625 -0.17578,-0.140625 -0.29296,-0.199219 -0.44531,-0.199219 -0.25781,0 -0.46875,0.199219 -0.46875,0.46875 0,0.316406 0.25781,0.527344 0.6211,0.527344 0.76171,0 2.32031,-1.792969 3.63281,-4.171875 0.82031,-1.476563 1.14844,-2.34375 1.14844,-2.929688 0,-0.363281 -0.29297,-0.667968 -0.65625,-0.667968 -0.28125,0 -0.46875,0.1875 -0.46875,0.445312 0,0.199219 0.0937,0.316406 0.33984,0.46875 0.22266,0.140625 0.30469,0.246094 0.30469,0.410156 0,0.480469 -0.4336,1.40625 -1.46485,3.105469 l -0.23437,-1.394531 c -0.1875,-1.066406 -0.85547,-3.035156 -1.03125,-3.035156 h -0.0469 c -0.0234,0.01172 -0.0586,0.01172 -0.11718,0.01172 -0.0937,0.01172 -0.53907,0.09375 -1.17188,0.210938 -0.0586,0.01172 -0.21094,0.04687 -0.38672,0.07031 z m 5.70996,7.804688 h 3.35157 v -0.175782 h -0.21094 c -0.58594,0 -0.82031,-0.117187 -0.82031,-0.386718 0,-0.105469 0.0351,-0.292969 0.14062,-0.621094 0.0234,-0.09375 0.0352,-0.152344 0.0703,-0.269531 l 1.72266,-6.222657 c 0.0586,-0.222656 0.0703,-0.292968 0.0703,-0.351562 0,-0.04687 -0.0234,-0.08203 -0.0586,-0.08203 0,0 -0.33985,0.05859 -0.98438,0.1875 l -1.07812,0.222656 c -0.0234,0.01172 -0.11719,0.02344 -0.25781,0.04687 v 0.175781 l 0.67968,-0.02344 c 0.28125,-0.01172 0.45703,0.128906 0.45703,0.375 0,0.08203 -0.0234,0.164062 -0.082,0.410156 l -1.65234,5.894531 c -0.14063,0.445313 -0.39844,0.5625 -1.34766,0.65625 z m 3.76465,-0.84375 c 1.48828,-1.289063 2.09766,-2.074219 2.63672,-3.363282 0.33984,-0.796875 0.48047,-1.558593 0.48047,-2.449218 0,-0.691407 -0.0937,-1.441407 -0.26953,-2.167969 -0.19922,-0.808594 -0.375,-1.242188 -0.91406,-2.203125 l -0.23438,0.05859 c 0.41016,0.972656 0.58594,1.945312 0.58594,3.140625 0,1.523437 -0.41016,3.457031 -1.00781,4.757812 -0.33985,0.773438 -0.70313,1.277344 -1.44141,2.050781 z m 0,0"
         style="fill:#231f20;fill-opacity:1;fill-rule:nonzero;stroke:none" />
    </g>
    <path
       id="path8"
       d="m 689.25,1172.25 1078,170 396,-1049 -1700,255 226,624"
       style="fill:#e9e9e9;fill-opacity:1;fill-rule:nonzero;stroke:none"
       transform="matrix(0.13333333,0,0,-0.13333333,0,226.93333)" />
    <path
       id="path9"
       d="m 689.25,1172.25 1078,170 396,-1049 -1700,255 z"
       style="fill:none;stroke:#231f20;stroke-width:5;stroke-linecap:butt;stroke-linejoin:miter;stroke-miterlimit:3.8637;stroke-dasharray:none;stroke-opacity:1"
       transform="matrix(0.13333333,0,0,-0.13333333,0,226.93333)" />
    <path
       id="path10"
       d="m 546.25,910.25 h 69 c 15.383,-0.078 28.074,-12.77 28,-28 v -74 c 0.074,-15.387 -12.617,-28.078 -28,-28 h -69 c -15.238,-0.078 -27.926,12.613 -28,28 v 74 c 0.074,15.23 12.762,27.922 28,28"
       style="fill:#ffffff;fill-opacity:1;fill-rule:nonzero;stroke:none"
       transform="matrix(0.13333333,0,0,-0.13333333,0,226.93333)" />
    <path
       id="path11"
       d="m 3.6923828,-0.93652344 c -0.421875,0.52734375 -0.5390625,0.6328125 -0.6679687,0.6328125 -0.058594,0 -0.082031,-0.046875 -0.082031,-0.140625 0,-0.046875 0,-0.046875 0.1523438,-0.62109376 l 0.6328125,-2.390625 H 3.1298828 c -0.4335937,1.1835938 -0.515625,1.3828125 -0.8789062,1.9570313 -0.4804688,0.74999996 -0.8789063,1.16015621 -1.125,1.16015621 -0.1054688,0 -0.17578129,-0.0820313 -0.17578129,-0.19921875 0,-0.0234375 0,-0.046875 0.0117188,-0.0703125 L 1.6884766,-3.5146484 1.6650391,-3.5263672 c -0.46875,0.1054688 -0.76171879,0.1523438 -1.19531254,0.2109375 v 0.1171875 c 0.31640625,0 0.31640625,0 0.3984375,0.046875 0.0351563,0.011719 0.0820313,0.082031 0.0820313,0.140625 0,0.070312 -0.046875,0.2695313 -0.1171875,0.5390625 l -0.29296875,1.1367188 c -0.15234375,0.58593746 -0.19921875,0.84374996 -0.19921875,0.98437496 0,0.29296875 0.140625,0.4453125 0.421875,0.4453125 0.56249994,0 0.99609384,-0.43359375 1.91015634,-1.98046876 -0.234375,0.8671875 -0.3632813,1.39453126 -0.3632813,1.57031251 0,0.2578125 0.1523438,0.38671875 0.3867188,0.38671875 0.375,0 0.5507812,-0.15234375 1.1015625,-0.9375 z m 6.6093752,-1.31249996 -0.04687,-0.082031 H 7.2548828 l -0.65625,1.0898438 0.1171875,0.070312 c 0.3632813,-0.4453125 0.5859375,-0.5625 1.0664063,-0.5742188 h 1.7695312 l 0.023437,0.023437 -2.9414062,4.78125 h 0.5625 z M -10.208984,-16.238281 c -0.421875,0.527344 -0.539063,0.632812 -0.667969,0.632812 -0.05859,0 -0.08203,-0.04687 -0.08203,-0.140625 0,-0.04687 0,-0.04687 0.152343,-0.621093 l 0.632813,-2.390625 h -0.597656 c -0.433594,1.183593 -0.515625,1.382812 -0.878907,1.957031 -0.480468,0.75 -0.878906,1.160156 -1.125,1.160156 -0.105468,0 -0.175781,-0.08203 -0.175781,-0.199219 0,-0.02344 0,-0.04687 0.01172,-0.07031 l 0.726562,-2.90625 -0.02344,-0.01172 c -0.46875,0.105469 -0.761719,0.152344 -1.195313,0.210938 V -18.5 c 0.316407,0 0.316407,0 0.398438,0.04687 0.03516,0.01172 0.08203,0.08203 0.08203,0.140625 0,0.07031 -0.04687,0.269531 -0.117187,0.539063 l -0.292969,1.136718 c -0.152344,0.585938 -0.199219,0.84375 -0.199219,0.984375 0,0.292969 0.140625,0.445313 0.421875,0.445313 0.5625,0 0.996094,-0.433594 1.910156,-1.980469 -0.234375,0.867188 -0.363281,1.394531 -0.363281,1.570313 0,0.257812 0.152344,0.386718 0.386719,0.386718 0.375,0 0.550781,-0.152343 1.101562,-0.9375 z m 4.9453121,0.878906 c 0.9492188,-0.316406 1.3125,-0.65625 1.3125,-1.21875 0,-0.667969 -0.5859375,-1.136719 -1.40625,-1.136719 -0.8554687,0 -1.4414062,0.492188 -1.4414062,1.207032 0,0.433593 0.1640625,0.738281 0.703125,1.324218 -1.0078125,0.316407 -1.5703125,0.890625 -1.5703125,1.59375 0,0.210938 0.070312,0.457032 0.1875,0.65625 0.2695312,0.457032 0.75,0.691407 1.40625,0.691407 0.9960937,0 1.7226562,-0.621094 1.7226562,-1.441407 0,-0.539062 -0.234375,-0.972656 -0.9140625,-1.675781 z m -0.65625,0.304688 c 0.8789063,0.914062 0.9726563,1.054687 0.9726563,1.511718 0,0.644532 -0.4570313,1.125 -1.0898438,1.125 -0.6328125,0 -1.078125,-0.46875 -1.078125,-1.125 0,-0.667968 0.4335938,-1.21875 1.1953125,-1.511718 z M -5.4160156,-15.5 c -0.6210938,-0.585937 -0.75,-0.785156 -0.75,-1.125 0,-0.5625 0.2929687,-0.902344 0.8085937,-0.902344 0.515625,0 0.8554688,0.375 0.8554688,0.949219 0,0.503906 -0.2109375,0.75 -0.9140625,1.078125 z M -34.607422,41.362305 c -0.421875,0.527343 -0.539062,0.632812 -0.667969,0.632812 -0.05859,0 -0.08203,-0.04687 -0.08203,-0.140625 0,-0.04687 0,-0.04687 0.152344,-0.621094 l 0.632812,-2.390625 h -0.597656 c -0.433594,1.183594 -0.515625,1.382813 -0.878906,1.957032 -0.480469,0.75 -0.878906,1.160156 -1.125,1.160156 -0.105469,0 -0.175781,-0.08203 -0.175781,-0.199219 0,-0.02344 0,-0.04687 0.01172,-0.07031 l 0.726563,-2.90625 -0.02344,-0.01172 c -0.46875,0.105469 -0.761718,0.152344 -1.195312,0.210937 v 0.117188 c 0.316406,0 0.316406,0 0.398437,0.04687 0.03516,0.01172 0.08203,0.08203 0.08203,0.140625 0,0.07031 -0.04687,0.269531 -0.117188,0.539062 l -0.292969,1.136719 c -0.152343,0.585938 -0.199218,0.84375 -0.199218,0.984375 0,0.292969 0.140625,0.445313 0.421875,0.445313 0.5625,0 0.996093,-0.433594 1.910156,-1.980469 -0.234375,0.867187 -0.363281,1.394531 -0.363281,1.570312 0,0.257813 0.152343,0.386719 0.386718,0.386719 0.375,0 0.550782,-0.152344 1.101563,-0.9375 z m 5.507813,2.824218 c -0.1875,0.398438 -0.339844,0.492188 -0.785157,0.503907 h -1.523437 v -0.03516 l 1.535156,-1.535156 c 0.9375,-0.9375 1.195313,-1.347656 1.195313,-1.875 0,-0.761719 -0.574219,-1.359375 -1.300782,-1.359375 -0.292968,0 -0.585937,0.07031 -0.820312,0.210938 -0.410156,0.222656 -0.632813,0.492187 -0.855469,1.078125 l 0.164063,0.04687 c 0.292968,-0.515625 0.644531,-0.75 1.125,-0.75 0.574218,0 0.996093,0.421875 0.996093,0.972656 0,0.175781 -0.02344,0.328125 -0.07031,0.433594 -0.199219,0.433593 -0.5625,0.9375 -1.078125,1.488281 l -1.6875,1.792969 v 0.140625 h 2.847656 l 0.398438,-1.054688 z m 141.591799,-59.625 c -0.42188,0.527344 -0.53906,0.632813 -0.66797,0.632813 -0.0586,0 -0.082,-0.04687 -0.082,-0.140625 0,-0.04687 0,-0.04687 0.15234,-0.621094 l 0.63281,-2.390625 h -0.59765 c -0.4336,1.183594 -0.51563,1.382813 -0.87891,1.957031 -0.48047,0.75 -0.8789,1.160157 -1.125,1.160157 -0.10547,0 -0.17578,-0.08203 -0.17578,-0.199219 0,-0.02344 0,-0.04687 0.0117,-0.07031 l 0.72656,-2.90625 -0.0234,-0.01172 c -0.46875,0.105468 -0.76171,0.152343 -1.19531,0.210937 v 0.117188 c 0.31641,0 0.31641,0 0.39844,0.04687 0.0352,0.01172 0.082,0.08203 0.082,0.140625 0,0.07031 -0.0469,0.269531 -0.11719,0.539062 l -0.29297,1.136719 c -0.15234,0.585937 -0.19921,0.84375 -0.19921,0.984375 0,0.292969 0.14062,0.445312 0.42187,0.445312 0.5625,0 0.99609,-0.433593 1.91016,-1.980468 -0.23438,0.867187 -0.36328,1.394531 -0.36328,1.570312 0,0.257813 0.15234,0.386719 0.38671,0.386719 0.375,0 0.55079,-0.152344 1.10157,-0.9375 z m 4.21875,-0.820312 h 1.83984 l 0.17578,-0.574219 h -2.03906 l -0.84375,1.746094 v 0.117187 c 0.78516,0.175782 1.04297,0.269532 1.33594,0.503907 0.25781,0.199218 0.42187,0.609375 0.42187,1.03125 0,0.867187 -0.64453,1.652343 -1.37109,1.652343 -0.16406,0 -0.30469,-0.05859 -0.53906,-0.234375 -0.19922,-0.152343 -0.32813,-0.199218 -0.44532,-0.199218 -0.1875,0 -0.32812,0.128906 -0.32812,0.316406 0,0.28125 0.31641,0.457031 0.85547,0.457031 1.3125,0 2.3789,-1.03125 2.3789,-2.296875 0,-0.503906 -0.1875,-0.925781 -0.52734,-1.253906 -0.30469,-0.28125 -0.58594,-0.410156 -1.23047,-0.5625 z M 95.092773,-32.638672 c -0.421875,0.527344 -0.539062,0.632813 -0.667968,0.632813 -0.05859,0 -0.08203,-0.04687 -0.08203,-0.140625 0,-0.04687 0,-0.04687 0.152344,-0.621094 l 0.632813,-2.390625 h -0.597657 c -0.433593,1.183594 -0.515625,1.382812 -0.878906,1.957031 -0.480469,0.75 -0.878906,1.160156 -1.125,1.160156 -0.105469,0 -0.175781,-0.08203 -0.175781,-0.199218 0,-0.02344 0,-0.04687 0.01172,-0.07031 l 0.726562,-2.90625 -0.02344,-0.01172 c -0.46875,0.105469 -0.761719,0.152344 -1.195313,0.210938 v 0.117187 c 0.316406,0 0.316406,0 0.398438,0.04687 0.03516,0.01172 0.08203,0.08203 0.08203,0.140625 0,0.07031 -0.04687,0.269532 -0.117188,0.539063 l -0.292968,1.136719 c -0.152344,0.585937 -0.199219,0.84375 -0.199219,0.984375 0,0.292968 0.140625,0.445312 0.421875,0.445312 0.5625,0 0.996094,-0.433594 1.910156,-1.980469 -0.234375,0.867188 -0.363281,1.394532 -0.363281,1.570313 0,0.257812 0.152344,0.386719 0.386719,0.386719 0.375,0 0.550781,-0.152344 1.101562,-0.9375 z m 6.468747,-1.558594 c -1.0664,0.128907 -1.605465,0.328125 -2.296872,0.832032 -1.007812,0.75 -1.628906,1.886718 -1.628906,3.035156 0,1.019531 0.585938,1.6875 1.464844,1.6875 1.078124,0 1.992184,-1.019531 1.992184,-2.226563 0,-0.820312 -0.57422,-1.40625 -1.359372,-1.40625 -0.222656,0 -0.492187,0.05859 -0.703125,0.164063 l -0.03516,-0.01172 c 0.550781,-1.019531 1.640627,-1.828125 2.578127,-1.945312 z m -2.085934,2.203125 c 0.550784,0 0.902344,0.398438 0.902344,1.019532 0,0.539062 -0.1875,1.171875 -0.492188,1.59375 -0.234375,0.363281 -0.515625,0.527343 -0.855469,0.527343 -0.492187,0 -0.785156,-0.386718 -0.785156,-1.042968 0,-0.550782 0.164063,-1.21875 0.375,-1.570313 0.210938,-0.363281 0.480469,-0.527344 0.855469,-0.527344 z M 149.89258,87.862305 c -0.42188,0.527343 -0.53906,0.632812 -0.66797,0.632812 -0.0586,0 -0.082,-0.04687 -0.082,-0.140625 0,-0.04687 0,-0.04687 0.15234,-0.621094 l 0.63281,-2.390625 h -0.59765 c -0.4336,1.183594 -0.51563,1.382813 -0.87891,1.957032 -0.48047,0.75 -0.8789,1.160156 -1.125,1.160156 -0.10547,0 -0.17578,-0.08203 -0.17578,-0.199219 0,-0.02344 0,-0.04687 0.0117,-0.07031 l 0.72656,-2.90625 -0.0234,-0.01172 c -0.46875,0.105469 -0.76171,0.152344 -1.19531,0.210937 v 0.117188 c 0.31641,0 0.31641,0 0.39844,0.04687 0.0352,0.01172 0.082,0.08203 0.082,0.140625 0,0.07031 -0.0469,0.269531 -0.11719,0.539062 l -0.29297,1.136719 c -0.15234,0.585938 -0.19921,0.84375 -0.19921,0.984375 0,0.292969 0.14062,0.445313 0.42187,0.445313 0.5625,0 0.99609,-0.433594 1.91016,-1.980469 -0.23438,0.867187 -0.36328,1.394531 -0.36328,1.570312 0,0.257813 0.15234,0.386719 0.38671,0.386719 0.375,0 0.55079,-0.152344 1.10157,-0.9375 z m 3.73828,-0.597657 c 0.26953,-0.375 0.55078,-0.539062 0.87891,-0.539062 0.43359,0 0.71484,0.292969 0.71484,0.726562 0,0.339844 -0.16406,0.621094 -0.51563,0.855469 -0.33984,0.234375 -0.67968,0.351563 -1.39453,0.480469 l 0.0117,0.117187 c 0.44531,0 0.52735,0.01172 0.72656,0.08203 0.49219,0.1875 0.75,0.621093 0.75,1.253906 0,0.28125 -0.0586,0.574219 -0.17578,0.761719 -0.1875,0.328125 -0.53906,0.550781 -0.86718,0.550781 -0.15235,0 -0.33985,-0.08203 -0.57422,-0.257813 -0.23438,-0.164062 -0.36328,-0.222656 -0.51563,-0.222656 -0.22265,0 -0.35156,0.105469 -0.35156,0.304688 0,0.304687 0.32812,0.480468 0.90234,0.480468 0.44532,0 0.86719,-0.105468 1.19532,-0.292968 0.62109,-0.375 1.03125,-1.042969 1.03125,-1.757813 0,-0.585937 -0.23438,-0.949219 -0.76172,-1.195312 v -0.02344 c 0.96093,-0.375 1.24218,-0.644531 1.24218,-1.183594 0,-0.585937 -0.48046,-1.019531 -1.125,-1.019531 -0.55078,0 -1.04296,0.316406 -1.30078,0.832031 z M 134.49121,69.563477 c -0.42187,0.527343 -0.53906,0.632812 -0.66797,0.632812 -0.0586,0 -0.082,-0.04687 -0.082,-0.140625 0,-0.04687 0,-0.04687 0.15234,-0.621094 l 0.63282,-2.390625 h -0.59766 c -0.43359,1.183594 -0.51562,1.382813 -0.87891,1.957032 -0.48046,0.75 -0.8789,1.160156 -1.125,1.160156 -0.10546,0 -0.17578,-0.08203 -0.17578,-0.199219 0,-0.02344 0,-0.04687 0.0117,-0.07031 l 0.72656,-2.90625 -0.0234,-0.01172 c -0.46875,0.105469 -0.76172,0.152344 -1.19532,0.210937 v 0.117188 c 0.31641,0 0.31641,0 0.39844,0.04687 0.0352,0.01172 0.082,0.08203 0.082,0.140625 0,0.07031 -0.0469,0.269531 -0.11718,0.539062 l -0.29297,1.136719 c -0.15235,0.585938 -0.19922,0.84375 -0.19922,0.984375 0,0.292969 0.14062,0.445313 0.42187,0.445313 0.5625,0 0.9961,-0.433594 1.91016,-1.980469 -0.23438,0.867187 -0.36328,1.394531 -0.36328,1.570312 0,0.257813 0.15234,0.386719 0.38672,0.386719 0.375,0 0.55078,-0.152344 1.10156,-0.9375 z m 5.92969,2.003906 h -0.75 l 0.96094,-3.480469 h -0.32813 l -3.33984,3.457031 -0.15235,0.527344 h 2.09766 l -0.39844,1.429688 h 0.63281 l 0.375,-1.40625 h 0.79688 z m -1.40625,0 h -1.69922 v -0.02344 l 2.4375,-2.554687 h 0.0352 z m 0,0"
       style="fill:#231f20;fill-opacity:1;fill-rule:nonzero;stroke:none"
       aria-label="u&#10;7&#10;u&#10;8&#10;u&#10;2&#10;u&#10;5&#10;u&#10;6&#10;u&#10;3&#10;u&#10;4"
       transform="matrix(1.3333333,0,0,1.3333333,120.16667,59.166667)" />
    <path
       id="path12"
       d="m 2157.25,563.25 v -260"
       style="fill:none;stroke:#231f20;stroke-width:2.5;stroke-linecap:butt;stroke-linejoin:miter;stroke-miterlimit:3.8637;stroke-dasharray:none;stroke-opacity:1"
       transform="matrix(0.13333333,0,0,-0.13333333,0,226.93333)" />
    <path
       id="path13"
       d="m 2157.25,560.25 h -15 l 15,38 15,-38 h -15"
       style="fill:#231f20;fill-opacity:1;fill-rule:evenodd;stroke:none"
       transform="matrix(0.13333333,0,0,-0.13333333,0,226.93333)" />
    <path
       id="path14"
       d="m 2157.25,303.25 h 260"
       style="fill:none;stroke:#231f20;stroke-width:2.5;stroke-linecap:butt;stroke-linejoin:miter;stroke-miterlimit:3.8637;stroke-dasharray:none;stroke-opacity:1"
       transform="matrix(0.13333333,0,0,-0.13333333,0,226.93333)" />
    <path
       id="path15"
       d="m 2414.25,303.25 v 15 l 38,-15 -38,-15 v 15"
       style="fill:#231f20;fill-opacity:1;fill-rule:evenodd;stroke:none"
       transform="matrix(0.13333333,0,0,-0.13333333,0,226.93333)" />
    <path
       id="path16"
       d="m 744.25,1167.25 h 254"
       style="fill:none;stroke:#ffffff;stroke-width:40;stroke-linecap:round;stroke-linejoin:miter;stroke-miterlimit:3.8637;stroke-dasharray:none;stroke-opacity:1"
       transform="matrix(0.13333333,0,0,-0.13333333,0,226.93333)" />
    <path
       id="path17"
       d="m 1756.25,1594.25 v -259"
       style="fill:none;stroke:#231f20;stroke-width:2.5;stroke-linecap:butt;stroke-linejoin:miter;stroke-miterlimit:3.8637;stroke-dasharray:none;stroke-opacity:1"
       transform="matrix(0.13333333,0,0,-0.13333333,0,226.93333)" />
    <path
       id="path18"
       d="m 1756.25,1592.25 h -15 l 15,37 15,-37 h -15"
       style="fill:#231f20;fill-opacity:1;fill-rule:evenodd;stroke:none"
       transform="matrix(0.13333333,0,0,-0.13333333,0,226.93333)" />
    <path
       id="path19"
       d="m 1756.25,1335.25 h 260"
       style="fill:none;stroke:#231f20;stroke-width:2.5;stroke-linecap:butt;stroke-linejoin:miter;stroke-miterlimit:3.8637;stroke-dasharray:none;stroke-opacity:1"
       transform="matrix(0.13333333,0,0,-0.13333333,0,226.93333)" />
    <path
       id="path20"
       d="m 2013.25,1335.25 v 15 l 38,-15 -38,-15 v 15"
       style="fill:#231f20;fill-opacity:1;fill-rule:evenodd;stroke:none"
       transform="matrix(0.13333333,0,0,-0.13333333,0,226.93333)" />
    <path
       id="path21"
       d="m 512.25,553.25 h 254"
       style="fill:none;stroke:#ffffff;stroke-width:40;stroke-linecap:round;stroke-linejoin:miter;stroke-miterlimit:3.8637;stroke-dasharray:none;stroke-opacity:1"
       transform="matrix(0.13333333,0,0,-0.13333333,0,226.93333)" />
    <path
       id="path22"
       d="m 697.25,1428.25 v -260"
       style="fill:none;stroke:#231f20;stroke-width:2.5;stroke-linecap:butt;stroke-linejoin:miter;stroke-miterlimit:3.8637;stroke-dasharray:none;stroke-opacity:1"
       transform="matrix(0.13333333,0,0,-0.13333333,0,226.93333)" />
    <path
       id="path23"
       d="m 697.25,1425.25 h -15 l 15,38 15,-38 h -15"
       style="fill:#231f20;fill-opacity:1;fill-rule:evenodd;stroke:none"
       transform="matrix(0.13333333,0,0,-0.13333333,0,226.93333)" />
    <path
       id="path24"
       d="m 697.25,1168.25 h 260"
       style="fill:none;stroke:#231f20;stroke-width:2.5;stroke-linecap:butt;stroke-linejoin:miter;stroke-miterlimit:3.8637;stroke-dasharray:none;stroke-opacity:1"
       transform="matrix(0.13333333,0,0,-0.13333333,0,226.93333)" />
    <path
       id="path25"
       d="m 954.25,1168.25 v 15 l 38,-15 -38,-15 v 15"
       style="fill:#231f20;fill-opacity:1;fill-rule:evenodd;stroke:none"
       transform="matrix(0.13333333,0,0,-0.13333333,0,226.93333)" />
    <path
       id="path26"
       d="m 464.25,812.25 v -260"
       style="fill:none;stroke:#231f20;stroke-width:2.5;stroke-linecap:butt;stroke-linejoin:miter;stroke-miterlimit:3.8637;stroke-dasharray:none;stroke-opacity:1"
       transform="matrix(0.13333333,0,0,-0.13333333,0,226.93333)" />
    <path
       id="path27"
       d="m 464.25,809.25 h -15 l 15,38 15,-38 h -15"
       style="fill:#231f20;fill-opacity:1;fill-rule:evenodd;stroke:none"
       transform="matrix(0.13333333,0,0,-0.13333333,0,226.93333)" />
    <path
       id="path28"
       d="m 464.25,552.25 h 259"
       style="fill:none;stroke:#231f20;stroke-width:2.5;stroke-linecap:butt;stroke-linejoin:miter;stroke-miterlimit:3.8637;stroke-dasharray:none;stroke-opacity:1"
       transform="matrix(0.13333333,0,0,-0.13333333,0,226.93333)" />
    <path
       id="path29"
       d="m 721.25,552.25 v 15 l 37,-15 -37,-15 v 15"
       style="fill:#231f20;fill-opacity:1;fill-rule:evenodd;stroke:none"
       transform="matrix(0.13333333,0,0,-0.13333333,0,226.93333)" />
    <path
       id="path30"
       d="m 717.25,729.25 h 69 c 15.258,0.246 27.945,-12.445 28,-28 v -73 c -0.055,-16.066 -12.742,-28.754 -28,-29 h -69 c -15.363,0.246 -28.055,12.934 -28,29 v 73 c -0.055,15.555 12.637,28.246 28,28"
       style="fill:#ffffff;fill-opacity:1;fill-rule:nonzero;stroke:none"
       transform="matrix(0.13333333,0,0,-0.13333333,0,226.93333)" />
    <g
       id="g30"
       aria-label="u&#10;1&#10;●&#10;●&#10;●&#10;●"
       transform="matrix(1.3333333,0,0,1.3333333,93.766667,140.5)">
      <path
         id="path31"
         d="m 3.690625,-0.9375 c -0.421875,0.52734375 -0.5390625,0.6328125 -0.6679687,0.6328125 -0.058594,0 -0.082031,-0.046875 -0.082031,-0.140625 0,-0.046875 0,-0.046875 0.1523438,-0.6210937 L 3.7257813,-3.4570313 H 3.128125 C 2.6945313,-2.2734375 2.6125,-2.0742188 2.2492188,-1.5 c -0.4804688,0.75 -0.8789063,1.16015625 -1.125,1.16015625 -0.1054688,0 -0.1757813,-0.0820313 -0.1757813,-0.19921875 0,-0.0234375 0,-0.046875 0.0117188,-0.0703125 l 0.7265625,-2.90625 -0.023437,-0.011719 C 1.1945313,-3.421875 0.9015625,-3.375 0.46796875,-3.3164063 v 0.1171875 c 0.31640625,0 0.31640625,0 0.3984375,0.046875 0.0351563,0.011719 0.0820313,0.082031 0.0820313,0.140625 0,0.070312 -0.046875,0.2695313 -0.1171875,0.5390625 l -0.2929688,1.1367188 C 0.3859375,-0.75 0.3390625,-0.4921875 0.3390625,-0.3515625 c 0,0.29296875 0.140625,0.4453125 0.421875,0.4453125 0.5625,0 0.9960938,-0.43359375 1.9101563,-1.9804687 -0.234375,0.8671875 -0.3632813,1.3945312 -0.3632813,1.57031245 0,0.2578125 0.1523438,0.38671875 0.3867188,0.38671875 0.375,0 0.5507812,-0.15234375 1.1015625,-0.9375 z M 6.3859375,3 H 8.6242188 V 2.8828125 H 8.4835938 C 8.096875,2.8828125 7.9328125,2.8125 7.9328125,2.625 c 0,-0.070312 0.023437,-0.1875 0.09375,-0.421875 C 8.05,2.15625 8.0617188,2.109375 8.0851563,2.0273438 L 9.221875,-2.1210938 c 0.046875,-0.140625 0.046875,-0.1992187 0.046875,-0.234375 0,-0.035156 -0.011719,-0.058594 -0.035156,-0.058594 0,0 -0.2226563,0.046875 -0.65625,0.1289062 l -0.7265625,0.1523438 c -0.011719,0 -0.070312,0.011719 -0.1640625,0.023437 v 0.1171875 l 0.457031,-0.011718 c 0.1875,-0.011719 0.3046875,0.09375 0.3046875,0.2460938 0,0.058594 -0.011719,0.1171875 -0.058594,0.28125 l -1.1015625,3.9375 c -0.09375,0.2929688 -0.2695313,0.375 -0.9023438,0.421875 z m 0,0"
         style="fill:#231f20;fill-opacity:1;fill-rule:nonzero;stroke:none" />
      <path
         id="path32"
         d="M -26.936328,12.899414 V 6.4072266 h 3.375 v 6.4921874 z m 0.5625,-0.5625 h 2.25 V 6.9697266 h -2.25 z m 22.6376952,-60.9375 v -6.492187 h 3.37499999 v 6.492187 z m 0.5625,-0.5625 h 2.24999999 v -5.367187 H -3.1736328 Z M 102.3625,-65.399414 v -6.492188 h 3.375 v 6.492188 z m 0.5625,-0.5625 h 2.25 v -5.367188 h -2.25 z m 39.33691,103.760742 v -6.492187 h 3.375 v 6.492187 z m 0.5625,-0.5625 h 2.25 v -5.367187 h -2.25 z m 0,0"
         style="fill:#231f20;fill-opacity:1;fill-rule:nonzero;stroke:none" />
    </g>
  </g>
</svg>
