<?xml version="1.0" encoding="UTF-8" standalone="no"?>
<!-- Created with Inkscape (http://www.inkscape.org/) -->

<svg
   version="1.1"
   id="svg1"
   width="564.50665"
   height="230.08"
   viewBox="0 0 564.50665 230.08"
   sodipodi:docname="PLANI4S.EPS"
   xmlns:inkscape="http://www.inkscape.org/namespaces/inkscape"
   xmlns:sodipodi="http://sodipodi.sourceforge.net/DTD/sodipodi-0.dtd"
   xmlns="http://www.w3.org/2000/svg"
   xmlns:svg="http://www.w3.org/2000/svg">
  <defs
     id="defs1" />
  <sodipodi:namedview
     id="namedview1"
     pagecolor="#ffffff"
     bordercolor="#000000"
     borderopacity="0.25"
     inkscape:showpageshadow="2"
     inkscape:pageopacity="0.0"
     inkscape:pagecheckerboard="0"
     inkscape:deskcolor="#d1d1d1">
    <inkscape:page
       x="0"
       y="0"
       inkscape:label="1"
       id="page1"
       width="564.50665"
       height="230.08"
       margin="0"
       bleed="0" />
  </sodipodi:namedview>
  <g
     id="g1"
     inkscape:groupmode="layer"
     inkscape:label="1">
    <path
       id="path1"
       d="m 689.25,1195.25 1078,170 396,-1048 -1700,255 z"
       style="fill:none;stroke:#231f20;stroke-width:5;stroke-linecap:butt;stroke-linejoin:miter;stroke-miterlimit:3.8637;stroke-dasharray:none;stroke-opacity:1"
       transform="matrix(0.13333333,0,0,-0.13333333,0,230.08)" />
    <path
       id="path2"
       d="m 546.25,934.25 h 69 c 15.383,-0.41 28.074,-13.102 28,-29 v -73 c 0.074,-15.719 -12.617,-28.41 -28,-28 h -69 c -15.238,-0.41 -27.926,12.281 -28,28 v 73 c 0.074,15.898 12.762,28.59 28,29"
       style="fill:#ffffff;fill-opacity:1;fill-rule:nonzero;stroke:none"
       transform="matrix(0.13333333,0,0,-0.13333333,0,230.08)" />
    <path
       id="path3"
       d="m 3.6923828,-0.93753906 c -0.421875,0.52734375 -0.5390625,0.6328125 -0.6679687,0.6328125 -0.058594,0 -0.082031,-0.046875 -0.082031,-0.140625 0,-0.046875 0,-0.046875 0.1523438,-0.62109374 l 0.6328125,-2.390625 H 3.1298828 c -0.4335937,1.1835937 -0.515625,1.3828125 -0.8789062,1.9570312 -0.4804688,0.75000004 -0.8789063,1.16015629 -1.125,1.16015629 -0.1054688,0 -0.17578129,-0.0820313 -0.17578129,-0.19921875 0,-0.0234375 0,-0.046875 0.0117188,-0.0703125 L 1.6884766,-3.5156641 1.6650391,-3.5273828 c -0.46875,0.1054687 -0.76171879,0.1523437 -1.19531254,0.2109375 v 0.1171875 c 0.31640625,0 0.31640625,0 0.3984375,0.046875 0.0351563,0.011719 0.0820313,0.082031 0.0820313,0.140625 0,0.070312 -0.046875,0.2695312 -0.1171875,0.5390625 l -0.29296875,1.1367187 c -0.15234375,0.58593754 -0.19921875,0.84375004 -0.19921875,0.98437504 0,0.29296875 0.140625,0.4453125 0.421875,0.4453125 0.56249994,0 0.99609384,-0.43359375 1.91015634,-1.98046874 -0.234375,0.8671875 -0.3632813,1.39453124 -0.3632813,1.57031249 0,0.2578125 0.1523438,0.38671875 0.3867188,0.38671875 0.375,0 0.5507812,-0.15234375 1.1015625,-0.9375 z m 6.6093752,-1.31250004 -0.04687,-0.082031 H 7.2548828 l -0.65625,1.0898437 0.1171875,0.070312 c 0.3632813,-0.4453125 0.5859375,-0.5625 1.0664063,-0.5742187 h 1.7695312 l 0.023437,0.023437 -2.9414062,4.78125 h 0.5625 z M -10.208984,-16.236367 c -0.421875,0.527344 -0.539063,0.632812 -0.667969,0.632812 -0.05859,0 -0.08203,-0.04687 -0.08203,-0.140625 0,-0.04687 0,-0.04687 0.152343,-0.621093 l 0.632813,-2.390625 h -0.597656 c -0.433594,1.183593 -0.515625,1.382812 -0.878907,1.957031 -0.480468,0.75 -0.878906,1.160156 -1.125,1.160156 -0.105468,0 -0.175781,-0.08203 -0.175781,-0.199219 0,-0.02344 0,-0.04687 0.01172,-0.07031 l 0.726562,-2.90625 -0.02344,-0.01172 c -0.46875,0.105469 -0.761719,0.152344 -1.195313,0.210938 v 0.117187 c 0.316407,0 0.316407,0 0.398438,0.04687 0.03516,0.01172 0.08203,0.08203 0.08203,0.140625 0,0.07031 -0.04687,0.269531 -0.117187,0.539063 l -0.292969,1.136718 c -0.152344,0.585938 -0.199219,0.84375 -0.199219,0.984375 0,0.292969 0.140625,0.445313 0.421875,0.445313 0.5625,0 0.996094,-0.433594 1.910156,-1.980469 -0.234375,0.867188 -0.363281,1.394531 -0.363281,1.570313 0,0.257812 0.152344,0.386718 0.386719,0.386718 0.375,0 0.550781,-0.152343 1.101562,-0.9375 z m 4.9453121,0.878906 c 0.9492188,-0.316406 1.3125,-0.65625 1.3125,-1.21875 0,-0.667969 -0.5859375,-1.136719 -1.40625,-1.136719 -0.8554687,0 -1.4414062,0.492188 -1.4414062,1.207032 0,0.433593 0.1640625,0.738281 0.703125,1.324218 -1.0078125,0.316407 -1.5703125,0.890625 -1.5703125,1.59375 0,0.210938 0.070312,0.457032 0.1875,0.65625 0.2695312,0.457032 0.75,0.691407 1.40625,0.691407 0.9960937,0 1.7226562,-0.621094 1.7226562,-1.441407 0,-0.539062 -0.234375,-0.972656 -0.9140625,-1.675781 z m -0.65625,0.304688 c 0.8789063,0.914062 0.9726563,1.054687 0.9726563,1.511718 0,0.644532 -0.4570313,1.125 -1.0898438,1.125 -0.6328125,0 -1.078125,-0.46875 -1.078125,-1.125 0,-0.667968 0.4335938,-1.21875 1.1953125,-1.511718 z m 0.5039063,-0.445313 c -0.6210938,-0.585937 -0.75,-0.785156 -0.75,-1.125 0,-0.5625 0.2929687,-0.902344 0.8085937,-0.902344 0.515625,0 0.8554688,0.375 0.8554688,0.949219 0,0.503906 -0.2109375,0.75 -0.9140625,1.078125 z M -34.607422,41.463828 c -0.421875,0.527344 -0.539062,0.632813 -0.667969,0.632813 -0.05859,0 -0.08203,-0.04687 -0.08203,-0.140625 0,-0.04687 0,-0.04687 0.152344,-0.621094 l 0.632812,-2.390625 h -0.597656 c -0.433594,1.183594 -0.515625,1.382812 -0.878906,1.957031 -0.480469,0.75 -0.878906,1.160156 -1.125,1.160156 -0.105469,0 -0.175781,-0.08203 -0.175781,-0.199218 0,-0.02344 0,-0.04687 0.01172,-0.07031 l 0.726563,-2.90625 -0.02344,-0.01172 c -0.46875,0.105469 -0.761718,0.152344 -1.195312,0.210938 v 0.117187 c 0.316406,0 0.316406,0 0.398437,0.04687 0.03516,0.01172 0.08203,0.08203 0.08203,0.140625 0,0.07031 -0.04687,0.269532 -0.117188,0.539063 l -0.292969,1.136719 c -0.152343,0.585937 -0.199218,0.84375 -0.199218,0.984375 0,0.292968 0.140625,0.445312 0.421875,0.445312 0.5625,0 0.996093,-0.433594 1.910156,-1.980469 -0.234375,0.867188 -0.363281,1.394532 -0.363281,1.570313 0,0.257812 0.152343,0.386719 0.386718,0.386719 0.375,0 0.550782,-0.152344 1.101563,-0.9375 z m 5.507813,2.824219 c -0.1875,0.398437 -0.339844,0.492187 -0.785157,0.503906 h -1.523437 v -0.03516 l 1.535156,-1.535156 c 0.9375,-0.9375 1.195313,-1.347657 1.195313,-1.875 0,-0.761719 -0.574219,-1.359375 -1.300782,-1.359375 -0.292968,0 -0.585937,0.07031 -0.820312,0.210937 -0.410156,0.222656 -0.632813,0.492188 -0.855469,1.078125 l 0.164063,0.04687 c 0.292968,-0.515625 0.644531,-0.75 1.125,-0.75 0.574218,0 0.996093,0.421875 0.996093,0.972656 0,0.175782 -0.02344,0.328125 -0.07031,0.433594 -0.199219,0.433594 -0.5625,0.9375 -1.078125,1.488281 l -1.6875,1.792969 v 0.140625 h 2.847656 l 0.398438,-1.054687 z m 141.591799,-59.72461 c -0.42188,0.527344 -0.53906,0.632813 -0.66797,0.632813 -0.0586,0 -0.082,-0.04687 -0.082,-0.140625 0,-0.04687 0,-0.04687 0.15234,-0.621094 l 0.63281,-2.390625 h -0.59765 c -0.4336,1.183594 -0.51563,1.382813 -0.87891,1.957031 -0.48047,0.75 -0.8789,1.160157 -1.125,1.160157 -0.10547,0 -0.17578,-0.08203 -0.17578,-0.199219 0,-0.02344 0,-0.04687 0.0117,-0.07031 l 0.72656,-2.90625 -0.0234,-0.01172 c -0.46875,0.105468 -0.76171,0.152343 -1.19531,0.210937 v 0.117188 c 0.31641,0 0.31641,0 0.39844,0.04687 0.0352,0.01172 0.082,0.08203 0.082,0.140625 0,0.07031 -0.0469,0.269531 -0.11719,0.539062 l -0.29297,1.136719 c -0.15234,0.585937 -0.19921,0.84375 -0.19921,0.984375 0,0.292969 0.14062,0.445312 0.42187,0.445312 0.5625,0 0.99609,-0.433593 1.91016,-1.980468 -0.23438,0.867187 -0.36328,1.394531 -0.36328,1.570312 0,0.257813 0.15234,0.386719 0.38671,0.386719 0.375,0 0.55079,-0.152344 1.10157,-0.9375 z m 4.21875,-0.820312 h 1.83984 l 0.17578,-0.574219 h -2.03906 l -0.84375,1.746094 v 0.117187 c 0.78516,0.175782 1.04297,0.269532 1.33594,0.503907 0.25781,0.199218 0.42187,0.609375 0.42187,1.03125 0,0.867187 -0.64453,1.652343 -1.37109,1.652343 -0.16406,0 -0.30469,-0.05859 -0.53906,-0.234375 -0.19922,-0.152343 -0.32813,-0.199218 -0.44532,-0.199218 -0.1875,0 -0.32812,0.128906 -0.32812,0.316406 0,0.28125 0.31641,0.457031 0.85547,0.457031 1.3125,0 2.3789,-1.03125 2.3789,-2.296875 0,-0.503906 -0.1875,-0.925781 -0.52734,-1.253906 -0.30469,-0.28125 -0.58594,-0.410156 -1.23047,-0.5625 z M 95.092773,-32.636758 c -0.421875,0.527344 -0.539062,0.632813 -0.667968,0.632813 -0.05859,0 -0.08203,-0.04687 -0.08203,-0.140625 0,-0.04687 0,-0.04687 0.152344,-0.621094 l 0.632813,-2.390625 h -0.597657 c -0.433593,1.183594 -0.515625,1.382812 -0.878906,1.957031 -0.480469,0.75 -0.878906,1.160156 -1.125,1.160156 -0.105469,0 -0.175781,-0.08203 -0.175781,-0.199218 0,-0.02344 0,-0.04687 0.01172,-0.07031 l 0.726562,-2.90625 -0.02344,-0.01172 c -0.46875,0.105469 -0.761719,0.152344 -1.195313,0.210938 v 0.117187 c 0.316406,0 0.316406,0 0.398438,0.04687 0.03516,0.01172 0.08203,0.08203 0.08203,0.140625 0,0.07031 -0.04687,0.269532 -0.117188,0.539063 l -0.292968,1.136719 c -0.152344,0.585937 -0.199219,0.84375 -0.199219,0.984375 0,0.292968 0.140625,0.445312 0.421875,0.445312 0.5625,0 0.996094,-0.433594 1.910156,-1.980469 -0.234375,0.867188 -0.363281,1.394532 -0.363281,1.570313 0,0.257812 0.152344,0.386719 0.386719,0.386719 0.375,0 0.550781,-0.152344 1.101562,-0.9375 z m 6.468747,-1.558594 c -1.0664,0.128907 -1.605465,0.328125 -2.296872,0.832032 -1.007812,0.75 -1.628906,1.886718 -1.628906,3.035156 0,1.019531 0.585938,1.6875 1.464844,1.6875 1.078124,0 1.992184,-1.019531 1.992184,-2.226563 0,-0.820312 -0.57422,-1.40625 -1.359372,-1.40625 -0.222656,0 -0.492187,0.05859 -0.703125,0.164063 l -0.03516,-0.01172 c 0.550781,-1.019531 1.640627,-1.828125 2.578127,-1.945312 z m -2.085934,2.203125 c 0.550784,0 0.902344,0.398438 0.902344,1.019532 0,0.539062 -0.1875,1.171875 -0.492188,1.59375 -0.234375,0.363281 -0.515625,0.527343 -0.855469,0.527343 -0.492187,0 -0.785156,-0.386718 -0.785156,-1.042968 0,-0.550782 0.164063,-1.21875 0.375,-1.570313 0.210938,-0.363281 0.480469,-0.527344 0.855469,-0.527344 z M 149.89258,87.861289 c -0.42188,0.527344 -0.53906,0.632813 -0.66797,0.632813 -0.0586,0 -0.082,-0.04687 -0.082,-0.140625 0,-0.04687 0,-0.04687 0.15234,-0.621094 l 0.63281,-2.390625 h -0.59765 c -0.4336,1.183594 -0.51563,1.382812 -0.87891,1.957031 -0.48047,0.75 -0.8789,1.160156 -1.125,1.160156 -0.10547,0 -0.17578,-0.08203 -0.17578,-0.199218 0,-0.02344 0,-0.04687 0.0117,-0.07031 l 0.72656,-2.90625 -0.0234,-0.01172 c -0.46875,0.105469 -0.76171,0.152344 -1.19531,0.210938 v 0.117187 c 0.31641,0 0.31641,0 0.39844,0.04687 0.0352,0.01172 0.082,0.08203 0.082,0.140625 0,0.07031 -0.0469,0.269532 -0.11719,0.539063 l -0.29297,1.136719 c -0.15234,0.585937 -0.19921,0.84375 -0.19921,0.984375 0,0.292968 0.14062,0.445312 0.42187,0.445312 0.5625,0 0.99609,-0.433594 1.91016,-1.980469 -0.23438,0.867188 -0.36328,1.394532 -0.36328,1.570313 0,0.257812 0.15234,0.386719 0.38671,0.386719 0.375,0 0.55079,-0.152344 1.10157,-0.9375 z m 3.73828,-0.597656 c 0.26953,-0.375 0.55078,-0.539063 0.87891,-0.539063 0.43359,0 0.71484,0.292969 0.71484,0.726563 0,0.339844 -0.16406,0.621094 -0.51563,0.855469 -0.33984,0.234375 -0.67968,0.351562 -1.39453,0.480468 l 0.0117,0.117188 c 0.44531,0 0.52735,0.01172 0.72656,0.08203 0.49219,0.1875 0.75,0.621094 0.75,1.253906 0,0.28125 -0.0586,0.574219 -0.17578,0.761719 -0.1875,0.328125 -0.53906,0.550781 -0.86718,0.550781 -0.15235,0 -0.33985,-0.08203 -0.57422,-0.257812 -0.23438,-0.164063 -0.36328,-0.222656 -0.51563,-0.222656 -0.22265,0 -0.35156,0.105468 -0.35156,0.304687 0,0.304688 0.32812,0.480469 0.90234,0.480469 0.44532,0 0.86719,-0.105469 1.19532,-0.292969 0.62109,-0.375 1.03125,-1.042969 1.03125,-1.757812 0,-0.585938 -0.23438,-0.949219 -0.76172,-1.195313 v -0.02344 c 0.96093,-0.375 1.24218,-0.644532 1.24218,-1.183594 0,-0.585938 -0.48046,-1.019531 -1.125,-1.019531 -0.55078,0 -1.04296,0.316406 -1.30078,0.832031 z M 134.49121,69.562461 c -0.42187,0.527344 -0.53906,0.632812 -0.66797,0.632812 -0.0586,0 -0.082,-0.04687 -0.082,-0.140625 0,-0.04687 0,-0.04687 0.15234,-0.621093 l 0.63282,-2.390625 h -0.59766 c -0.43359,1.183593 -0.51562,1.382812 -0.87891,1.957031 -0.48046,0.75 -0.8789,1.160156 -1.125,1.160156 -0.10546,0 -0.17578,-0.08203 -0.17578,-0.199219 0,-0.02344 0,-0.04687 0.0117,-0.07031 l 0.72656,-2.90625 -0.0234,-0.01172 c -0.46875,0.105469 -0.76172,0.152344 -1.19532,0.210938 v 0.117187 c 0.31641,0 0.31641,0 0.39844,0.04687 0.0352,0.01172 0.082,0.08203 0.082,0.140625 0,0.07031 -0.0469,0.269531 -0.11718,0.539063 l -0.29297,1.136718 c -0.15235,0.585938 -0.19922,0.84375 -0.19922,0.984375 0,0.292969 0.14062,0.445313 0.42187,0.445313 0.5625,0 0.9961,-0.433594 1.91016,-1.980469 -0.23438,0.867188 -0.36328,1.394531 -0.36328,1.570313 0,0.257812 0.15234,0.386718 0.38672,0.386718 0.375,0 0.55078,-0.152343 1.10156,-0.9375 z m 5.92969,2.003906 h -0.75 l 0.96094,-3.480469 h -0.32813 l -3.33984,3.457032 -0.15235,0.527343 h 2.09766 l -0.39844,1.429688 h 0.63281 l 0.375,-1.40625 h 0.79688 z m -1.40625,0 h -1.69922 v -0.02344 l 2.4375,-2.554688 h 0.0352 z m 0,0"
       style="fill:#231f20;fill-opacity:1;fill-rule:nonzero;stroke:none"
       aria-label="u&#10;7&#10;u&#10;8&#10;u&#10;2&#10;u&#10;5&#10;u&#10;6&#10;u&#10;3&#10;u&#10;4"
       transform="matrix(1.3333333,0,0,1.3333333,120.16667,59.113333)" />
    <path
       id="path4"
       d="m 2157.25,586.25 v -259"
       style="fill:none;stroke:#231f20;stroke-width:2.5;stroke-linecap:butt;stroke-linejoin:miter;stroke-miterlimit:3.8637;stroke-dasharray:none;stroke-opacity:1"
       transform="matrix(0.13333333,0,0,-0.13333333,0,230.08)" />
    <path
       id="path5"
       d="m 2157.25,584.25 h -15 l 15,37 15,-37 h -15"
       style="fill:#231f20;fill-opacity:1;fill-rule:evenodd;stroke:none"
       transform="matrix(0.13333333,0,0,-0.13333333,0,230.08)" />
    <path
       id="path6"
       d="m 2157.25,327.25 h 260"
       style="fill:none;stroke:#231f20;stroke-width:2.5;stroke-linecap:butt;stroke-linejoin:miter;stroke-miterlimit:3.8637;stroke-dasharray:none;stroke-opacity:1"
       transform="matrix(0.13333333,0,0,-0.13333333,0,230.08)" />
    <path
       id="path7"
       d="m 2414.25,327.25 v 15 l 38,-15 -38,-15 v 15"
       style="fill:#231f20;fill-opacity:1;fill-rule:evenodd;stroke:none"
       transform="matrix(0.13333333,0,0,-0.13333333,0,230.08)" />
    <path
       id="path8"
       d="m 744.25,1190.25 h 254"
       style="fill:none;stroke:#ffffff;stroke-width:40;stroke-linecap:round;stroke-linejoin:miter;stroke-miterlimit:3.8637;stroke-dasharray:none;stroke-opacity:1"
       transform="matrix(0.13333333,0,0,-0.13333333,0,230.08)" />
    <path
       id="path9"
       d="m 1756.25,1618.25 v -260"
       style="fill:none;stroke:#231f20;stroke-width:2.5;stroke-linecap:butt;stroke-linejoin:miter;stroke-miterlimit:3.8637;stroke-dasharray:none;stroke-opacity:1"
       transform="matrix(0.13333333,0,0,-0.13333333,0,230.08)" />
    <path
       id="path10"
       d="m 1756.25,1615.25 h -15 l 15,38 15,-38 h -15"
       style="fill:#231f20;fill-opacity:1;fill-rule:evenodd;stroke:none"
       transform="matrix(0.13333333,0,0,-0.13333333,0,230.08)" />
    <path
       id="path11"
       d="m 1756.25,1358.25 h 260"
       style="fill:none;stroke:#231f20;stroke-width:2.5;stroke-linecap:butt;stroke-linejoin:miter;stroke-miterlimit:3.8637;stroke-dasharray:none;stroke-opacity:1"
       transform="matrix(0.13333333,0,0,-0.13333333,0,230.08)" />
    <path
       id="path12"
       d="m 2013.25,1358.25 v 15 l 38,-15 -38,-15 v 15"
       style="fill:#231f20;fill-opacity:1;fill-rule:evenodd;stroke:none"
       transform="matrix(0.13333333,0,0,-0.13333333,0,230.08)" />
    <path
       id="path13"
       d="m 512.25,576.25 h 254"
       style="fill:none;stroke:#ffffff;stroke-width:40;stroke-linecap:round;stroke-linejoin:miter;stroke-miterlimit:3.8637;stroke-dasharray:none;stroke-opacity:1"
       transform="matrix(0.13333333,0,0,-0.13333333,0,230.08)" />
    <path
       id="path14"
       d="m 697.25,1451.25 v -259"
       style="fill:none;stroke:#231f20;stroke-width:2.5;stroke-linecap:butt;stroke-linejoin:miter;stroke-miterlimit:3.8637;stroke-dasharray:none;stroke-opacity:1"
       transform="matrix(0.13333333,0,0,-0.13333333,0,230.08)" />
    <path
       id="path15"
       d="m 697.25,1449.25 h -15 l 15,37 15,-37 h -15"
       style="fill:#231f20;fill-opacity:1;fill-rule:evenodd;stroke:none"
       transform="matrix(0.13333333,0,0,-0.13333333,0,230.08)" />
    <path
       id="path16"
       d="m 697.25,1192.25 h 260"
       style="fill:none;stroke:#231f20;stroke-width:2.5;stroke-linecap:butt;stroke-linejoin:miter;stroke-miterlimit:3.8637;stroke-dasharray:none;stroke-opacity:1"
       transform="matrix(0.13333333,0,0,-0.13333333,0,230.08)" />
    <path
       id="path17"
       d="m 954.25,1192.25 v 15 l 38,-15 -38,-15 v 15"
       style="fill:#231f20;fill-opacity:1;fill-rule:evenodd;stroke:none"
       transform="matrix(0.13333333,0,0,-0.13333333,0,230.08)" />
    <path
       id="path18"
       d="m 464.25,836.25 v -260"
       style="fill:none;stroke:#231f20;stroke-width:2.5;stroke-linecap:butt;stroke-linejoin:miter;stroke-miterlimit:3.8637;stroke-dasharray:none;stroke-opacity:1"
       transform="matrix(0.13333333,0,0,-0.13333333,0,230.08)" />
    <path
       id="path19"
       d="m 464.25,833.25 h -15 l 15,38 15,-38 h -15"
       style="fill:#231f20;fill-opacity:1;fill-rule:evenodd;stroke:none"
       transform="matrix(0.13333333,0,0,-0.13333333,0,230.08)" />
    <path
       id="path20"
       d="m 464.25,576.25 h 259"
       style="fill:none;stroke:#231f20;stroke-width:2.5;stroke-linecap:butt;stroke-linejoin:miter;stroke-miterlimit:3.8637;stroke-dasharray:none;stroke-opacity:1"
       transform="matrix(0.13333333,0,0,-0.13333333,0,230.08)" />
    <path
       id="path21"
       d="m 721.25,576.25 v 15 l 37,-15 -37,-15 v 15"
       style="fill:#231f20;fill-opacity:1;fill-rule:evenodd;stroke:none"
       transform="matrix(0.13333333,0,0,-0.13333333,0,230.08)" />
    <path
       id="path22"
       d="m 717.25,753.25 h 69 c 15.258,-0.09 27.945,-12.781 28,-28 v -74 c -0.055,-15.398 -12.742,-28.09 -28,-28 h -69 c -15.363,-0.09 -28.055,12.602 -28,28 v 74 c -0.055,15.219 12.637,27.91 28,28"
       style="fill:#ffffff;fill-opacity:1;fill-rule:nonzero;stroke:none"
       transform="matrix(0.13333333,0,0,-0.13333333,0,230.08)" />
    <g
       id="g22"
       aria-label="u&#10;1&#10;●&#10;●&#10;●&#10;●&#10;σ&#10;xx&#10;σ&#10;xy&#10;σ&#10;yy&#10;σ&#10;xx&#10;σ&#10;xy&#10;σ&#10;yy"
       transform="matrix(1.3333333,0,0,1.3333333,93.766667,140.44667)">
      <path
         id="path23"
         d="m 3.690625,-0.93851562 c -0.421875,0.52734375 -0.5390625,0.6328125 -0.6679687,0.6328125 -0.058594,0 -0.082031,-0.046875 -0.082031,-0.140625 0,-0.046875 0,-0.046875 0.1523438,-0.62109378 l 0.6328125,-2.390625 H 3.128125 c -0.4335937,1.1835938 -0.515625,1.3828125 -0.8789062,1.9570313 -0.4804688,0.74999998 -0.8789063,1.16015623 -1.125,1.16015623 -0.1054688,0 -0.1757813,-0.0820313 -0.1757813,-0.19921875 0,-0.0234375 0,-0.046875 0.0117188,-0.0703125 l 0.7265625,-2.90624998 -0.023437,-0.011719 c -0.46875,0.1054688 -0.7617188,0.1523438 -1.19531255,0.2109375 v 0.1171875 c 0.31640625,0 0.31640625,0 0.3984375,0.046875 0.0351563,0.011719 0.0820313,0.082031 0.0820313,0.140625 0,0.070312 -0.046875,0.2695313 -0.1171875,0.5390625 l -0.2929688,1.1367188 C 0.3859375,-0.75101562 0.3390625,-0.49320312 0.3390625,-0.35257812 c 0,0.29296875 0.140625,0.4453125 0.421875,0.4453125 0.5625,0 0.9960938,-0.43359375 1.9101563,-1.98046878 -0.234375,0.8671875 -0.3632813,1.39453128 -0.3632813,1.57031253 0,0.2578125 0.1523438,0.38671875 0.3867188,0.38671875 0.375,0 0.5507812,-0.15234375 1.1015625,-0.9375 z M 6.3859375,2.9989844 H 8.6242188 V 2.8817969 h -0.140625 c -0.3867188,0 -0.5507813,-0.070312 -0.5507813,-0.2578125 0,-0.070312 0.023437,-0.1875 0.09375,-0.421875 C 8.05,2.1552344 8.0617188,2.1083594 8.0851563,2.0263281 L 9.221875,-2.1221094 c 0.046875,-0.140625 0.046875,-0.1992187 0.046875,-0.234375 0,-0.035156 -0.011719,-0.058594 -0.035156,-0.058594 0,0 -0.2226563,0.046875 -0.65625,0.1289062 l -0.7265625,0.1523438 c -0.011719,0 -0.070312,0.011719 -0.1640625,0.023437 v 0.1171875 l 0.457031,-0.011718 c 0.1875,-0.011719 0.3046875,0.09375 0.3046875,0.2460938 0,0.058594 -0.011719,0.1171875 -0.058594,0.28125 l -1.1015625,3.9375 c -0.09375,0.2929687 -0.2695313,0.375 -0.9023438,0.421875 z m 0,0"
         style="fill:#231f20;fill-opacity:1;fill-rule:nonzero;stroke:none" />
      <path
         id="path24"
         d="M -26.936328,12.901328 V 6.4091406 h 3.375 v 6.4921874 z m 0.5625,-0.5625 h 2.25 V 6.9716406 h -2.25 z m 22.6376952,-60.9375 v -6.492187 h 3.37499999 v 6.492187 z m 0.5625,-0.5625 h 2.24999999 v -5.367187 H -3.1736328 Z M 102.3625,-65.30082 v -6.492188 h 3.375 v 6.492188 z m 0.5625,-0.5625 h 2.25 v -5.367188 h -2.25 z m 39.33691,103.763672 v -6.492188 h 3.375 v 6.492188 z m 0.5625,-0.5625 h 2.25 v -5.367188 h -2.25 z m 0,0"
         style="fill:#231f20;fill-opacity:1;fill-rule:nonzero;stroke:none" />
      <path
         id="path25"
         d="m 334.50801,1.7011328 v -7.5 h 6 v 7.5 z m 0.1875,-0.1875 h 5.625 v -7.125 h -5.625 z m 0,0"
         style="fill:#231f20;fill-opacity:1;fill-rule:nonzero;stroke:none" />
      <path
         id="path26"
         d="m 345.21895,3.5878516 c -0.082,0.09375 -0.12891,0.1523437 -0.22266,0.2695312 -0.22266,0.3046875 -0.35156,0.3984375 -0.46875,0.3984375 -0.14063,0 -0.23438,-0.1289062 -0.30469,-0.4101562 -0.0234,-0.1054688 -0.0234,-0.1289063 -0.0351,-0.1523438 -0.2461,-1.0195312 -0.36329,-1.4765625 -0.36329,-1.6289062 0.45704,-0.7851563 0.8086,-1.20703129 0.98438,-1.20703129 0.0586,0 0.15234,0.0234375 0.23437,0.0703125 0.12891,0.0703125 0.19922,0.09375 0.28125,0.09375 0.19922,0 0.33985,-0.15234373 0.33985,-0.36328123 0,-0.2109375 -0.16406,-0.36328125 -0.41016,-0.36328125 -0.43359,0 -0.80859,0.36328125 -1.5,1.42968748 l -0.11719,-0.5507812 c -0.14062,-0.67968753 -0.24609,-0.87890628 -0.51562,-0.87890628 -0.23438,0 -0.55078,0.0820313 -1.17188,0.29296875 -0.0586,0.0117188 -0.0586,0.0117188 -0.10546,0.0351563 l 0.0351,0.15234375 c 0.38672,-0.10546875 0.45703,-0.1171875 0.5625,-0.1171875 0.2461,0 0.30469,0.09375 0.44531,0.69140628 l 0.29297,1.2304688 -0.82031,1.171875 c -0.21094,0.3046875 -0.39844,0.4804687 -0.51562,0.4804687 -0.0586,0 -0.15235,-0.035156 -0.25782,-0.09375 -0.1289,-0.070312 -0.22265,-0.09375 -0.3164,-0.09375 -0.19922,0 -0.33985,0.140625 -0.33985,0.3515625 0,0.2578125 0.1875,0.4101563 0.50391,0.4101563 0.30469,0 0.42187,-0.082031 0.92578,-0.6796875 0.26953,-0.3398438 0.49219,-0.6328125 0.90234,-1.1835938 l 0.29297,1.1953125 c 0.12891,0.5273438 0.25782,0.6679688 0.58594,0.6679688 0.375,0 0.63281,-0.234375 1.21875,-1.1367188 z m 4.4414,0 c -0.082,0.09375 -0.1289,0.1523437 -0.22265,0.2695312 -0.22266,0.3046875 -0.35157,0.3984375 -0.46875,0.3984375 -0.14063,0 -0.23438,-0.1289062 -0.30469,-0.4101562 -0.0234,-0.1054688 -0.0234,-0.1289063 -0.0352,-0.1523438 -0.24609,-1.0195312 -0.36328,-1.4765625 -0.36328,-1.6289062 0.45703,-0.7851563 0.80859,-1.20703129 0.98438,-1.20703129 0.0586,0 0.15234,0.0234375 0.23437,0.0703125 0.12891,0.0703125 0.19922,0.09375 0.28125,0.09375 0.19922,0 0.33984,-0.15234373 0.33984,-0.36328123 0,-0.2109375 -0.16406,-0.36328125 -0.41015,-0.36328125 -0.4336,0 -0.8086,0.36328125 -1.5,1.42968748 l -0.11719,-0.5507812 c -0.14062,-0.67968753 -0.24609,-0.87890628 -0.51562,-0.87890628 -0.23438,0 -0.55079,0.0820313 -1.17188,0.29296875 -0.0586,0.0117188 -0.0586,0.0117188 -0.10547,0.0351563 l 0.0352,0.15234375 c 0.38672,-0.10546875 0.45703,-0.1171875 0.5625,-0.1171875 0.24609,0 0.30469,0.09375 0.44531,0.69140628 l 0.29297,1.2304688 -0.82031,1.171875 c -0.21094,0.3046875 -0.39844,0.4804687 -0.51563,0.4804687 -0.0586,0 -0.15234,-0.035156 -0.25781,-0.09375 -0.12891,-0.070312 -0.22266,-0.09375 -0.31641,-0.09375 -0.19922,0 -0.33984,0.140625 -0.33984,0.3515625 0,0.2578125 0.1875,0.4101563 0.50391,0.4101563 0.30468,0 0.42187,-0.082031 0.92578,-0.6796875 0.26953,-0.3398438 0.49218,-0.6328125 0.90234,-1.1835938 l 0.29297,1.1953125 c 0.12891,0.5273438 0.25781,0.6679688 0.58594,0.6679688 0.375,0 0.63281,-0.234375 1.21875,-1.1367188 z m 0,0"
         style="fill:#231f20;fill-opacity:1;fill-rule:nonzero;stroke:none" />
      <path
         id="path27"
         d="m 306.30977,-39.90043 v -7.5 h 6 v 7.5 z m 0.1875,-0.1875 h 5.625 v -7.125 h -5.625 z m 0,0"
         style="fill:#231f20;fill-opacity:1;fill-rule:nonzero;stroke:none" />
      <path
         id="path28"
         d="m 316.91816,-38.013711 c -0.082,0.09375 -0.1289,0.152344 -0.22265,0.269531 -0.22266,0.304688 -0.35156,0.398438 -0.46875,0.398438 -0.14063,0 -0.23438,-0.128906 -0.30469,-0.410156 -0.0234,-0.105469 -0.0234,-0.128907 -0.0352,-0.152344 -0.24609,-1.019531 -0.36328,-1.476563 -0.36328,-1.628906 0.45703,-0.785157 0.8086,-1.207032 0.98438,-1.207032 0.0586,0 0.15234,0.02344 0.23437,0.07031 0.12891,0.07031 0.19922,0.09375 0.28125,0.09375 0.19922,0 0.33985,-0.152344 0.33985,-0.363281 0,-0.210938 -0.16407,-0.363282 -0.41016,-0.363282 -0.43359,0 -0.80859,0.363282 -1.5,1.429688 l -0.11719,-0.550781 c -0.14062,-0.679688 -0.24609,-0.878907 -0.51562,-0.878907 -0.23438,0 -0.55078,0.08203 -1.17188,0.292969 -0.0586,0.01172 -0.0586,0.01172 -0.10547,0.03516 l 0.0352,0.152344 c 0.38672,-0.105469 0.45703,-0.117187 0.5625,-0.117187 0.24609,0 0.30469,0.09375 0.44531,0.691406 l 0.29297,1.230469 -0.82031,1.171875 c -0.21094,0.304687 -0.39844,0.480468 -0.51563,0.480468 -0.0586,0 -0.15234,-0.03516 -0.25781,-0.09375 -0.1289,-0.07031 -0.22265,-0.09375 -0.3164,-0.09375 -0.19922,0 -0.33985,0.140625 -0.33985,0.351563 0,0.257812 0.1875,0.410156 0.50391,0.410156 0.30469,0 0.42187,-0.08203 0.92578,-0.679687 0.26953,-0.339844 0.49219,-0.632813 0.90234,-1.183594 l 0.29297,1.195312 c 0.12891,0.527344 0.25781,0.667969 0.58594,0.667969 0.375,0 0.63281,-0.234375 1.21875,-1.136719 z m 0.57422,-2.882812 c 0.11719,-0.03516 0.19922,-0.04687 0.30469,-0.04687 0.41016,0 0.59766,0.164062 0.79688,0.703125 0.28125,0.738281 0.79687,2.882812 0.79687,3.257812 0,0.164063 -0.0703,0.316406 -0.21094,0.515625 -0.28125,0.363281 -0.51562,0.644531 -0.63281,0.773438 -0.21094,0.222656 -0.31641,0.304687 -0.44531,0.304687 -0.0703,0 -0.12891,-0.03516 -0.2461,-0.117187 -0.14062,-0.117188 -0.24609,-0.164063 -0.36328,-0.164063 -0.22265,0 -0.38672,0.164063 -0.38672,0.386719 0,0.257812 0.19922,0.445312 0.50391,0.445312 0.64453,0 1.94531,-1.488281 3.02344,-3.480468 0.67969,-1.230469 0.96094,-1.945313 0.96094,-2.4375 0,-0.304688 -0.2461,-0.550782 -0.55079,-0.550782 -0.22265,0 -0.38671,0.152344 -0.38671,0.363282 0,0.164062 0.082,0.269531 0.28125,0.398437 0.1875,0.105469 0.25781,0.199219 0.25781,0.339844 0,0.398437 -0.35156,1.160156 -1.21875,2.589844 l -0.19922,-1.160157 c -0.15234,-0.890625 -0.70313,-2.53125 -0.85547,-2.53125 h -0.0469 c -0.0117,0.01172 -0.0469,0.01172 -0.082,0.01172 -0.082,0.01172 -0.45703,0.07031 -0.98437,0.164063 -0.0469,0.01172 -0.17578,0.04687 -0.31641,0.05859 z m 0,0"
         style="fill:#231f20;fill-opacity:1;fill-rule:nonzero;stroke:none" />
      <path
         id="path29"
         d="m 283.61055,59.298789 v -7.5 h 6 v 7.5 z m 0.1875,-0.1875 h 5.625 v -7.125 h -5.625 z m 0,0"
         style="fill:#231f20;fill-opacity:1;fill-rule:nonzero;stroke:none" />
      <path
         id="path30"
         d="m 290.45137,58.302695 c 0.11718,-0.03516 0.19922,-0.04687 0.30468,-0.04687 0.41016,0 0.59766,0.164063 0.79688,0.703125 0.28125,0.738282 0.79687,2.882813 0.79687,3.257813 0,0.164062 -0.0703,0.316406 -0.21093,0.515625 -0.28125,0.363281 -0.51563,0.644531 -0.63282,0.773437 -0.21093,0.222657 -0.3164,0.304688 -0.44531,0.304688 -0.0703,0 -0.1289,-0.03516 -0.24609,-0.117188 -0.14063,-0.117187 -0.2461,-0.164062 -0.36328,-0.164062 -0.22266,0 -0.38672,0.164062 -0.38672,0.386719 0,0.257812 0.19922,0.445312 0.5039,0.445312 0.64454,0 1.94532,-1.488281 3.02344,-3.480469 0.67969,-1.230468 0.96094,-1.945312 0.96094,-2.4375 0,-0.304687 -0.24609,-0.550781 -0.55078,-0.550781 -0.22266,0 -0.38672,0.152344 -0.38672,0.363281 0,0.164063 0.082,0.269532 0.28125,0.398438 0.1875,0.105469 0.25781,0.199219 0.25781,0.339844 0,0.398437 -0.35156,1.160156 -1.21875,2.589843 l -0.19922,-1.160156 c -0.15234,-0.890625 -0.70312,-2.53125 -0.85547,-2.53125 h -0.0469 c -0.0117,0.01172 -0.0469,0.01172 -0.082,0.01172 -0.082,0.01172 -0.45703,0.07031 -0.98438,0.164062 -0.0469,0.01172 -0.17578,0.04687 -0.3164,0.05859 z m 4.4414,0 c 0.11719,-0.03516 0.19922,-0.04687 0.30469,-0.04687 0.41016,0 0.59766,0.164063 0.79688,0.703125 0.28125,0.738282 0.79687,2.882813 0.79687,3.257813 0,0.164062 -0.0703,0.316406 -0.21094,0.515625 -0.28125,0.363281 -0.51562,0.644531 -0.63281,0.773437 -0.21094,0.222657 -0.31641,0.304688 -0.44531,0.304688 -0.0703,0 -0.12891,-0.03516 -0.2461,-0.117188 -0.14062,-0.117187 -0.24609,-0.164062 -0.36328,-0.164062 -0.22265,0 -0.38672,0.164062 -0.38672,0.386719 0,0.257812 0.19922,0.445312 0.50391,0.445312 0.64453,0 1.94531,-1.488281 3.02344,-3.480469 0.67969,-1.230468 0.96094,-1.945312 0.96094,-2.4375 0,-0.304687 -0.2461,-0.550781 -0.55079,-0.550781 -0.22265,0 -0.38671,0.152344 -0.38671,0.363281 0,0.164063 0.082,0.269532 0.28125,0.398438 0.1875,0.105469 0.25781,0.199219 0.25781,0.339844 0,0.398437 -0.35156,1.160156 -1.21875,2.589843 l -0.19922,-1.160156 c -0.15234,-0.890625 -0.70313,-2.53125 -0.85547,-2.53125 h -0.0469 c -0.0117,0.01172 -0.0469,0.01172 -0.082,0.01172 -0.082,0.01172 -0.45703,0.07031 -0.98437,0.164062 -0.0469,0.01172 -0.17578,0.04687 -0.31641,0.05859 z m 0,0"
         style="fill:#231f20;fill-opacity:1;fill-rule:nonzero;stroke:none" />
      <path
         id="path31"
         d="m 207.40937,2.0995703 v -7.5 h 6 v 7.5 z m 0.1875,-0.1875 h 5.625 v -7.125 h -5.625 z m 0,0"
         style="fill:#231f20;fill-opacity:1;fill-rule:nonzero;stroke:none" />
      <path
         id="path32"
         d="m 218.12031,3.9862891 c -0.082,0.09375 -0.1289,0.1523437 -0.22265,0.2695312 -0.22266,0.3046875 -0.35157,0.3984375 -0.46875,0.3984375 -0.14063,0 -0.23438,-0.1289062 -0.30469,-0.4101562 -0.0234,-0.1054688 -0.0234,-0.1289063 -0.0352,-0.1523438 -0.24609,-1.0195312 -0.36328,-1.4765625 -0.36328,-1.6289062 0.45703,-0.7851563 0.80859,-1.2070313 0.98438,-1.2070313 0.0586,0 0.15234,0.023437 0.23437,0.070312 0.12891,0.070312 0.19922,0.09375 0.28125,0.09375 0.19922,0 0.33984,-0.1523437 0.33984,-0.3632812 0,-0.21093754 -0.16406,-0.36328129 -0.41015,-0.36328129 -0.4336,0 -0.8086,0.36328129 -1.5,1.42968749 l -0.11719,-0.5507812 c -0.14062,-0.67968754 -0.24609,-0.87890629 -0.51562,-0.87890629 -0.23438,0 -0.55079,0.0820313 -1.17188,0.29296875 -0.0586,0.0117188 -0.0586,0.0117188 -0.10547,0.0351562 l 0.0352,0.1523438 c 0.38672,-0.1054688 0.45703,-0.1171875 0.5625,-0.1171875 0.24609,0 0.30469,0.09375 0.44531,0.6914062 l 0.29297,1.2304688 -0.82031,1.171875 c -0.21094,0.3046875 -0.39844,0.4804687 -0.51563,0.4804687 -0.0586,0 -0.15234,-0.035156 -0.25781,-0.09375 -0.12891,-0.070312 -0.22266,-0.09375 -0.31641,-0.09375 -0.19922,0 -0.33984,0.140625 -0.33984,0.3515625 0,0.2578125 0.1875,0.4101563 0.50391,0.4101563 0.30468,0 0.42187,-0.082031 0.92578,-0.6796875 0.26953,-0.3398438 0.49218,-0.6328125 0.90234,-1.1835938 l 0.29297,1.1953125 c 0.12891,0.5273438 0.25781,0.6679688 0.58594,0.6679688 0.375,0 0.63281,-0.234375 1.21875,-1.1367188 z m 4.43848,0 c -0.082,0.09375 -0.12891,0.1523437 -0.22266,0.2695312 -0.22265,0.3046875 -0.35156,0.3984375 -0.46875,0.3984375 -0.14062,0 -0.23437,-0.1289062 -0.30468,-0.4101562 -0.0234,-0.1054688 -0.0234,-0.1289063 -0.0352,-0.1523438 -0.24609,-1.0195312 -0.36328,-1.4765625 -0.36328,-1.6289062 0.45703,-0.7851563 0.80859,-1.2070313 0.98437,-1.2070313 0.0586,0 0.15235,0.023437 0.23438,0.070312 0.1289,0.070312 0.19922,0.09375 0.28125,0.09375 0.19922,0 0.33984,-0.1523437 0.33984,-0.3632812 0,-0.21093754 -0.16406,-0.36328129 -0.41015,-0.36328129 -0.4336,0 -0.8086,0.36328129 -1.5,1.42968749 l -0.11719,-0.5507812 c -0.14063,-0.67968754 -0.2461,-0.87890629 -0.51563,-0.87890629 -0.23437,0 -0.55078,0.0820313 -1.17187,0.29296875 -0.0586,0.0117188 -0.0586,0.0117188 -0.10547,0.0351562 l 0.0352,0.1523438 c 0.38671,-0.1054688 0.45703,-0.1171875 0.5625,-0.1171875 0.24609,0 0.30468,0.09375 0.44531,0.6914062 l 0.29297,1.2304688 -0.82032,1.171875 c -0.21093,0.3046875 -0.39843,0.4804687 -0.51562,0.4804687 -0.0586,0 -0.15234,-0.035156 -0.25781,-0.09375 -0.12891,-0.070312 -0.22266,-0.09375 -0.31641,-0.09375 -0.19922,0 -0.33984,0.140625 -0.33984,0.3515625 0,0.2578125 0.1875,0.4101563 0.5039,0.4101563 0.30469,0 0.42188,-0.082031 0.92578,-0.6796875 0.26954,-0.3398438 0.49219,-0.6328125 0.90235,-1.1835938 l 0.29297,1.1953125 c 0.1289,0.5273438 0.25781,0.6679688 0.58593,0.6679688 0.375,0 0.63282,-0.234375 1.21875,-1.1367188 z m 0,0"
         style="fill:#231f20;fill-opacity:1;fill-rule:nonzero;stroke:none" />
      <path
         id="path33"
         d="m 233.60957,24.201133 v -7.5 h 6 v 7.5 z m 0.1875,-0.1875 h 5.625 v -7.125 h -5.625 z m 0,0"
         style="fill:#231f20;fill-opacity:1;fill-rule:nonzero;stroke:none" />
      <path
         id="path34"
         d="m 244.32051,26.087852 c -0.082,0.09375 -0.12891,0.152343 -0.22266,0.269531 -0.22265,0.304687 -0.35156,0.398437 -0.46875,0.398437 -0.14062,0 -0.23437,-0.128906 -0.30469,-0.410156 -0.0234,-0.105469 -0.0234,-0.128906 -0.0351,-0.152344 -0.2461,-1.019531 -0.36328,-1.476562 -0.36328,-1.628906 0.45703,-0.785156 0.80859,-1.207031 0.98437,-1.207031 0.0586,0 0.15235,0.02344 0.23438,0.07031 0.1289,0.07031 0.19922,0.09375 0.28125,0.09375 0.19922,0 0.33984,-0.152343 0.33984,-0.363281 0,-0.210937 -0.16406,-0.363281 -0.41016,-0.363281 -0.43359,0 -0.80859,0.363281 -1.5,1.429687 l -0.11718,-0.550781 c -0.14063,-0.679687 -0.2461,-0.878906 -0.51563,-0.878906 -0.23437,0 -0.55078,0.08203 -1.17187,0.292969 -0.0586,0.01172 -0.0586,0.01172 -0.10547,0.03516 l 0.0351,0.152344 c 0.38672,-0.105469 0.45704,-0.117188 0.5625,-0.117188 0.2461,0 0.30469,0.09375 0.44532,0.691406 l 0.29297,1.230469 -0.82032,1.171875 c -0.21093,0.304688 -0.39843,0.480469 -0.51562,0.480469 -0.0586,0 -0.15235,-0.03516 -0.25781,-0.09375 -0.12891,-0.07031 -0.22266,-0.09375 -0.31641,-0.09375 -0.19922,0 -0.33984,0.140625 -0.33984,0.351562 0,0.257813 0.1875,0.410157 0.5039,0.410157 0.30469,0 0.42188,-0.08203 0.92578,-0.679688 0.26953,-0.339844 0.49219,-0.632812 0.90235,-1.183594 l 0.29297,1.195313 c 0.1289,0.527344 0.25781,0.667969 0.58593,0.667969 0.375,0 0.63282,-0.234375 1.21875,-1.136719 z m 0.57129,-2.882813 c 0.11718,-0.03516 0.19922,-0.04687 0.30468,-0.04687 0.41016,0 0.59766,0.164063 0.79688,0.703125 0.28125,0.738281 0.79687,2.882813 0.79687,3.257813 0,0.164062 -0.0703,0.316406 -0.21093,0.515625 -0.28125,0.363281 -0.51563,0.644531 -0.63282,0.773437 -0.21093,0.222656 -0.3164,0.304688 -0.44531,0.304688 -0.0703,0 -0.1289,-0.03516 -0.24609,-0.117188 -0.14063,-0.117187 -0.2461,-0.164062 -0.36328,-0.164062 -0.22266,0 -0.38672,0.164062 -0.38672,0.386718 0,0.257813 0.19922,0.445313 0.5039,0.445313 0.64454,0 1.94532,-1.488281 3.02344,-3.480469 0.67969,-1.230469 0.96094,-1.945312 0.96094,-2.4375 0,-0.304687 -0.24609,-0.550781 -0.55078,-0.550781 -0.22266,0 -0.38672,0.152344 -0.38672,0.363281 0,0.164063 0.082,0.269531 0.28125,0.398438 0.1875,0.105468 0.25781,0.199218 0.25781,0.339843 0,0.398438 -0.35156,1.160157 -1.21875,2.589844 l -0.19922,-1.160156 c -0.15234,-0.890625 -0.70312,-2.53125 -0.85547,-2.53125 h -0.0469 c -0.0117,0.01172 -0.0469,0.01172 -0.082,0.01172 -0.082,0.01172 -0.45703,0.07031 -0.98438,0.164062 -0.0469,0.01172 -0.17578,0.04687 -0.3164,0.05859 z m 0,0"
         style="fill:#231f20;fill-opacity:1;fill-rule:nonzero;stroke:none" />
      <path
         id="path35"
         d="m 284.60957,-69.001016 v -7.5 h 6 v 7.5 z m 0.1875,-0.1875 h 5.625 v -7.125 h -5.625 z m 0,0"
         style="fill:#231f20;fill-opacity:1;fill-rule:nonzero;stroke:none" />
      <path
         id="path36"
         d="m 291.35371,-69.997109 c 0.11719,-0.03516 0.19922,-0.04687 0.30469,-0.04687 0.41015,0 0.59765,0.164062 0.79687,0.703125 0.28125,0.738281 0.79688,2.882812 0.79688,3.257812 0,0.164063 -0.0703,0.316406 -0.21094,0.515625 -0.28125,0.363281 -0.51562,0.644531 -0.63281,0.773438 -0.21094,0.222656 -0.31641,0.304687 -0.44531,0.304687 -0.0703,0 -0.12891,-0.03516 -0.2461,-0.117187 -0.14062,-0.117188 -0.24609,-0.164063 -0.36328,-0.164063 -0.22266,0 -0.38672,0.164063 -0.38672,0.386719 0,0.257812 0.19922,0.445312 0.50391,0.445312 0.64453,0 1.94531,-1.488281 3.02344,-3.480468 0.67968,-1.230469 0.96093,-1.945313 0.96093,-2.4375 0,-0.304688 -0.24609,-0.550782 -0.55078,-0.550782 -0.22265,0 -0.38672,0.152344 -0.38672,0.363282 0,0.164062 0.082,0.269531 0.28125,0.398437 0.1875,0.105469 0.25782,0.199219 0.25782,0.339844 0,0.398437 -0.35157,1.160156 -1.21875,2.589844 l -0.19922,-1.160157 c -0.15235,-0.890625 -0.70313,-2.53125 -0.85547,-2.53125 h -0.0469 c -0.0117,0.01172 -0.0469,0.01172 -0.082,0.01172 -0.082,0.01172 -0.45703,0.07031 -0.98437,0.164063 -0.0469,0.01172 -0.17578,0.04687 -0.31641,0.05859 z m 4.43848,0 c 0.11718,-0.03516 0.19922,-0.04687 0.30468,-0.04687 0.41016,0 0.59766,0.164062 0.79688,0.703125 0.28125,0.738281 0.79687,2.882812 0.79687,3.257812 0,0.164063 -0.0703,0.316406 -0.21093,0.515625 -0.28125,0.363281 -0.51563,0.644531 -0.63282,0.773438 -0.21093,0.222656 -0.3164,0.304687 -0.44531,0.304687 -0.0703,0 -0.1289,-0.03516 -0.24609,-0.117187 -0.14063,-0.117188 -0.2461,-0.164063 -0.36328,-0.164063 -0.22266,0 -0.38672,0.164063 -0.38672,0.386719 0,0.257812 0.19922,0.445312 0.5039,0.445312 0.64454,0 1.94532,-1.488281 3.02344,-3.480468 0.67969,-1.230469 0.96094,-1.945313 0.96094,-2.4375 0,-0.304688 -0.24609,-0.550782 -0.55078,-0.550782 -0.22266,0 -0.38672,0.152344 -0.38672,0.363282 0,0.164062 0.082,0.269531 0.28125,0.398437 0.1875,0.105469 0.25781,0.199219 0.25781,0.339844 0,0.398437 -0.35156,1.160156 -1.21875,2.589844 l -0.19922,-1.160157 c -0.15234,-0.890625 -0.70312,-2.53125 -0.85547,-2.53125 h -0.0469 c -0.0117,0.01172 -0.0469,0.01172 -0.082,0.01172 -0.082,0.01172 -0.45703,0.07031 -0.98438,0.164063 -0.0469,0.01172 -0.17578,0.04687 -0.3164,0.05859 z m 0,0"
         style="fill:#231f20;fill-opacity:1;fill-rule:nonzero;stroke:none" />
    </g>
    <path
       id="path37"
       d="m 3485.25,1427.25 v -351"
       style="fill:none;stroke:#231f20;stroke-width:2.5;stroke-linecap:butt;stroke-linejoin:miter;stroke-miterlimit:3.8637;stroke-dasharray:none;stroke-opacity:1"
       transform="matrix(0.13333333,0,0,-0.13333333,0,230.08)" />
    <path
       id="path38"
       d="m 3485.25,1424.25 h -15 l 15,38 15,-38 h -15"
       style="fill:#231f20;fill-opacity:1;fill-rule:evenodd;stroke:none"
       transform="matrix(0.13333333,0,0,-0.13333333,0,230.08)" />
    <path
       id="path39"
       d="m 3159.25,756.25 h -352"
       style="fill:none;stroke:#231f20;stroke-width:2.5;stroke-linecap:butt;stroke-linejoin:miter;stroke-miterlimit:3.8637;stroke-dasharray:none;stroke-opacity:1"
       transform="matrix(0.13333333,0,0,-0.13333333,0,230.08)" />
    <path
       id="path40"
       d="m 2810.25,756.25 v -15 l -38,15 38,15 v -15"
       style="fill:#231f20;fill-opacity:1;fill-rule:evenodd;stroke:none"
       transform="matrix(0.13333333,0,0,-0.13333333,0,230.08)" />
    <path
       id="path41"
       d="m 3485.25,76.25 v 351"
       style="fill:none;stroke:#231f20;stroke-width:2.5;stroke-linecap:butt;stroke-linejoin:miter;stroke-miterlimit:3.8637;stroke-dasharray:none;stroke-opacity:1"
       transform="matrix(0.13333333,0,0,-0.13333333,0,230.08)" />
    <path
       id="path42"
       d="m 3485.25,78.25 h 15 l -15,-37 -15,37 h 15"
       style="fill:#231f20;fill-opacity:1;fill-rule:evenodd;stroke:none"
       transform="matrix(0.13333333,0,0,-0.13333333,0,230.08)" />
    <path
       id="path43"
       d="m 3823.25,757.25 h 351"
       style="fill:none;stroke:#231f20;stroke-width:2.5;stroke-linecap:butt;stroke-linejoin:miter;stroke-miterlimit:3.8637;stroke-dasharray:none;stroke-opacity:1"
       transform="matrix(0.13333333,0,0,-0.13333333,0,230.08)" />
    <path
       id="path44"
       d="m 4171.25,757.25 v 15 l 38,-15 -38,-15 v 15"
       style="fill:#231f20;fill-opacity:1;fill-rule:evenodd;stroke:none"
       transform="matrix(0.13333333,0,0,-0.13333333,0,230.08)" />
    <path
       id="path45"
       d="m 3792.25,930.25 v -351"
       style="fill:none;stroke:#231f20;stroke-width:2.5;stroke-linecap:butt;stroke-linejoin:miter;stroke-miterlimit:3.8637;stroke-dasharray:none;stroke-opacity:1"
       transform="matrix(0.13333333,0,0,-0.13333333,0,230.08)" />
    <path
       id="path46"
       d="m 3792.25,927.25 h -15 l 15,38 15,-38 h -15"
       style="fill:#231f20;fill-opacity:1;fill-rule:evenodd;stroke:none"
       transform="matrix(0.13333333,0,0,-0.13333333,0,230.08)" />
    <path
       id="path47"
       d="m 3672.25,456.25 h -351"
       style="fill:none;stroke:#231f20;stroke-width:2.5;stroke-linecap:butt;stroke-linejoin:miter;stroke-miterlimit:3.8637;stroke-dasharray:none;stroke-opacity:1"
       transform="matrix(0.13333333,0,0,-0.13333333,0,230.08)" />
    <path
       id="path48"
       d="m 3323.25,456.25 v -15 l -37,15 37,15 v -15"
       style="fill:#231f20;fill-opacity:1;fill-rule:evenodd;stroke:none"
       transform="matrix(0.13333333,0,0,-0.13333333,0,230.08)" />
    <path
       id="path49"
       d="m 3179.25,589.25 v 351"
       style="fill:none;stroke:#231f20;stroke-width:2.5;stroke-linecap:butt;stroke-linejoin:miter;stroke-miterlimit:3.8637;stroke-dasharray:none;stroke-opacity:1"
       transform="matrix(0.13333333,0,0,-0.13333333,0,230.08)" />
    <path
       id="path50"
       d="m 3179.25,591.25 h 15 l -15,-37 -15,37 h 15"
       style="fill:#231f20;fill-opacity:1;fill-rule:evenodd;stroke:none"
       transform="matrix(0.13333333,0,0,-0.13333333,0,230.08)" />
    <path
       id="path51"
       d="m 3308.25,1057.25 h 352"
       style="fill:none;stroke:#231f20;stroke-width:2.5;stroke-linecap:butt;stroke-linejoin:miter;stroke-miterlimit:3.8637;stroke-dasharray:none;stroke-opacity:1"
       transform="matrix(0.13333333,0,0,-0.13333333,0,230.08)" />
    <path
       id="path52"
       d="m 3657.25,1057.25 v 15 l 38,-15 -38,-15 v 15"
       style="fill:#231f20;fill-opacity:1;fill-rule:evenodd;stroke:none"
       transform="matrix(0.13333333,0,0,-0.13333333,0,230.08)" />
    <path
       id="path53"
       d="m 3217.25,1027.25 h 538 v -538 h -538 v 538"
       style="fill:#e9e9e9;fill-opacity:1;fill-rule:nonzero;stroke:none"
       transform="matrix(0.13333333,0,0,-0.13333333,0,230.08)" />
    <path
       id="path54"
       d="m 3217.25,1027.25 h 538 v -538 h -538 z"
       style="fill:none;stroke:#231f20;stroke-width:5;stroke-linecap:butt;stroke-linejoin:miter;stroke-miterlimit:3.8637;stroke-dasharray:none;stroke-opacity:1"
       transform="matrix(0.13333333,0,0,-0.13333333,0,230.08)" />
    <path
       id="path55"
       d="m 1229.25,962.25 h 161 v -161 h -161 v 161"
       style="fill:#e9e9e9;fill-opacity:1;fill-rule:nonzero;stroke:none"
       transform="matrix(0.13333333,0,0,-0.13333333,0,230.08)" />
    <path
       id="path56"
       d="m 1229.25,962.25 h 161 v -161 h -161 z"
       style="fill:none;stroke:#231f20;stroke-width:5;stroke-linecap:butt;stroke-linejoin:miter;stroke-miterlimit:3.8637;stroke-dasharray:none;stroke-opacity:1"
       transform="matrix(0.13333333,0,0,-0.13333333,0,230.08)" />
    <path
       id="path57"
       d="m 1456.25,1011.25 c 235.06,114.33 502.35,181.88 788,189 268.72,6.69 526.49,-41.06 760,-132"
       style="fill:none;stroke:#231f20;stroke-width:2.5;stroke-linecap:butt;stroke-linejoin:miter;stroke-miterlimit:3.8637;stroke-dasharray:none;stroke-opacity:1"
       transform="matrix(0.13333333,0,0,-0.13333333,0,230.08)" />
    <path
       id="path58"
       d="m 3002.25,1068.25 6,14 29,-27 -40,-1 5,14"
       style="fill:#231f20;fill-opacity:1;fill-rule:evenodd;stroke:none"
       transform="matrix(0.13333333,0,0,-0.13333333,0,230.08)" />
    <path
       id="path59"
       d="m 4.8279297,-1.335 c -0.1054688,0.1171875 -0.1640625,0.1875 -0.2695313,0.328125 -0.2695312,0.36328125 -0.421875,0.48046875 -0.5625,0.48046875 -0.1640625,0 -0.28125,-0.15234375 -0.3632812,-0.49218745 -0.035156,-0.1289063 -0.035156,-0.1523438 -0.046875,-0.1875 -0.2929688,-1.2304688 -0.4335938,-1.78125 -0.4335938,-1.9570313 0.5390625,-0.9375 0.9609375,-1.453125 1.1835938,-1.453125 0.070312,0 0.1757812,0.035156 0.28125,0.09375 0.1523437,0.082031 0.234375,0.1054688 0.3398437,0.1054688 0.234375,0 0.4101563,-0.1757813 0.4101563,-0.4335938 0,-0.2578125 -0.2109375,-0.4453125 -0.4921875,-0.4453125 -0.5273438,0 -0.9726563,0.4335938 -1.8164063,1.7226563 l -0.1289062,-0.65625 C 2.7654297,-5.0498437 2.6248047,-5.2959375 2.3083984,-5.2959375 c -0.28125,0 -0.6679687,0.1054688 -1.40624996,0.3515625 -0.0703125,0.023437 -0.0703125,0.023437 -0.12890625,0.046875 l 0.046875,0.1875 C 1.2888672,-4.8389062 1.3708984,-4.850625 1.4880859,-4.850625 c 0.3046875,0 0.375,0.1171875 0.5390625,0.8320313 l 0.3515625,1.4765625 -0.984375,1.40625 c -0.2578125,0.35156245 -0.48046871,0.5742187 -0.60937496,0.5742187 -0.0820313,0 -0.19921875,-0.0351563 -0.31640625,-0.10546875 -0.15234375,-0.09375 -0.28125,-0.12890625 -0.38671875,-0.12890625 -0.234375,0 -0.41015625,0.1875 -0.41015625,0.421875 0,0.31640625 0.234375,0.50390625 0.609375,0.50390625 0.36328125,0 0.515625,-0.10546875 1.11328121,-0.8203125 0.3164063,-0.39843745 0.5859375,-0.76171875 1.078125,-1.41796875 l 0.3632813,1.44140625 c 0.1523437,0.62109375 0.3046875,0.796875 0.6914062,0.796875 0.4570313,0 0.7734375,-0.28125 1.4648438,-1.35937495 z M -79.722852,-84.705117 c 0.152344,-0.03516 0.246094,-0.04687 0.375,-0.04687 0.492188,0 0.726563,0.199219 0.960938,0.84375 0.328125,0.890625 0.949219,3.457031 0.949219,3.914062 0,0.1875 -0.08203,0.386719 -0.257813,0.609375 -0.328125,0.445313 -0.609375,0.785157 -0.75,0.9375 -0.257812,0.257813 -0.386719,0.363282 -0.539062,0.363282 -0.08203,0 -0.152344,-0.03516 -0.292969,-0.140625 -0.175781,-0.140625 -0.292969,-0.199219 -0.445313,-0.199219 -0.257812,0 -0.46875,0.199219 -0.46875,0.46875 0,0.316406 0.257813,0.527344 0.621094,0.527344 0.761719,0 2.320313,-1.792969 3.632813,-4.171875 0.820312,-1.476563 1.148437,-2.34375 1.148437,-2.929688 0,-0.363281 -0.292969,-0.667969 -0.65625,-0.667969 -0.28125,0 -0.46875,0.1875 -0.46875,0.445313 0,0.199219 0.09375,0.316406 0.339844,0.46875 0.222656,0.140625 0.304687,0.246094 0.304687,0.410156 0,0.480469 -0.433593,1.40625 -1.464843,3.105469 l -0.234375,-1.394531 c -0.1875,-1.066407 -0.855469,-3.035157 -1.03125,-3.035157 h -0.04687 c -0.02344,0.01172 -0.05859,0.01172 -0.117188,0.01172 -0.09375,0.01172 -0.539062,0.09375 -1.171875,0.210938 -0.05859,0.01172 -0.210937,0.04687 -0.386719,0.07031 z m 0,0"
       style="fill:#231f20;fill-opacity:1;fill-rule:nonzero;stroke:none"
       aria-label="x&#10;y"
       transform="matrix(1.3333333,0,0,1.3333333,110.56667,219.78)" />
    <path
       id="path60"
       d="m 161.25,913.25 v -714"
       style="fill:none;stroke:#231f20;stroke-width:2.5;stroke-linecap:butt;stroke-linejoin:miter;stroke-miterlimit:3.8637;stroke-dasharray:none;stroke-opacity:1"
       transform="matrix(0.13333333,0,0,-0.13333333,0,230.08)" />
    <path
       id="path61"
       d="m 161.25,910.25 h -15 l 15,38 15,-38 h -15"
       style="fill:#231f20;fill-opacity:1;fill-rule:evenodd;stroke:none"
       transform="matrix(0.13333333,0,0,-0.13333333,0,230.08)" />
    <path
       id="path62"
       d="m 161.25,199.25 h 714"
       style="fill:none;stroke:#231f20;stroke-width:2.5;stroke-linecap:butt;stroke-linejoin:miter;stroke-miterlimit:3.8637;stroke-dasharray:none;stroke-opacity:1"
       transform="matrix(0.13333333,0,0,-0.13333333,0,230.08)" />
    <path
       id="path63"
       d="m 872.25,199.25 v 15 l 38,-15 -38,-15 v 15"
       style="fill:#231f20;fill-opacity:1;fill-rule:evenodd;stroke:none"
       transform="matrix(0.13333333,0,0,-0.13333333,0,230.08)" />
  </g>
</svg>
