<?xml version="1.0" encoding="UTF-8" standalone="no"?>
<!-- Created with Inkscape (http://www.inkscape.org/) -->

<svg
   version="1.1"
   id="svg1"
   width="370.05334"
   height="264.76001"
   viewBox="0 0 370.05334 264.76001"
   sodipodi:docname="PLANTRE.EPS"
   xmlns:inkscape="http://www.inkscape.org/namespaces/inkscape"
   xmlns:sodipodi="http://sodipodi.sourceforge.net/DTD/sodipodi-0.dtd"
   xmlns="http://www.w3.org/2000/svg"
   xmlns:svg="http://www.w3.org/2000/svg">
  <defs
     id="defs1" />
  <sodipodi:namedview
     id="namedview1"
     pagecolor="#ffffff"
     bordercolor="#000000"
     borderopacity="0.25"
     inkscape:showpageshadow="2"
     inkscape:pageopacity="0.0"
     inkscape:pagecheckerboard="0"
     inkscape:deskcolor="#d1d1d1">
    <inkscape:page
       x="0"
       y="0"
       inkscape:label="1"
       id="page1"
       width="370.05334"
       height="264.76001"
       margin="0"
       bleed="0" />
  </sodipodi:namedview>
  <g
     id="g1"
     inkscape:groupmode="layer"
     inkscape:label="1">
    <path
       id="path1"
       d="m 4.8279297,-1.3358203 c -0.1054688,0.1171875 -0.1640625,0.1875 -0.2695313,0.328125 -0.2695312,0.36328124 -0.421875,0.48046874 -0.5625,0.48046874 -0.1640625,0 -0.28125,-0.15234375 -0.3632812,-0.49218754 -0.035156,-0.1289062 -0.035156,-0.1523437 -0.046875,-0.1875 -0.2929688,-1.2304687 -0.4335938,-1.78125 -0.4335938,-1.9570312 0.5390625,-0.9375 0.9609375,-1.453125 1.1835938,-1.453125 0.070312,0 0.1757812,0.035156 0.28125,0.09375 0.1523437,0.082031 0.234375,0.1054687 0.3398437,0.1054687 0.234375,0 0.4101563,-0.1757812 0.4101563,-0.4335937 0,-0.2578125 -0.2109375,-0.4453125 -0.4921875,-0.4453125 -0.5273438,0 -0.9726563,0.4335937 -1.8164063,1.7226562 l -0.1289062,-0.65625 C 2.7654297,-5.0506641 2.6248047,-5.2967578 2.3083984,-5.2967578 c -0.28125,0 -0.6679687,0.1054687 -1.40624996,0.3515625 -0.0703125,0.023437 -0.0703125,0.023437 -0.12890625,0.046875 l 0.046875,0.1875 c 0.46875001,-0.1289063 0.55078121,-0.140625 0.66796871,-0.140625 0.3046875,0 0.375,0.1171875 0.5390625,0.8320312 l 0.3515625,1.4765625 -0.984375,1.40625 c -0.2578125,0.35156254 -0.48046871,0.57421879 -0.60937496,0.57421879 -0.0820313,0 -0.19921875,-0.0351563 -0.31640625,-0.10546875 -0.15234375,-0.09375 -0.28125,-0.12890625 -0.38671875,-0.12890625 -0.234375,0 -0.41015625,0.1875 -0.41015625,0.421875 0,0.31640625 0.234375,0.50390625 0.609375,0.50390625 0.36328125,0 0.515625,-0.10546875 1.11328121,-0.8203125 0.3164063,-0.39843754 0.5859375,-0.76171874 1.078125,-1.41796874 l 0.3632813,1.44140624 c 0.1523437,0.62109375 0.3046875,0.796875 0.6914062,0.796875 0.4570313,0 0.7734375,-0.28125 1.4648438,-1.35937504 z M -79.722852,-84.805547 c 0.152344,-0.03516 0.246094,-0.04687 0.375,-0.04687 0.492188,0 0.726563,0.199219 0.960938,0.84375 0.328125,0.890625 0.949219,3.457031 0.949219,3.914063 0,0.1875 -0.08203,0.386718 -0.257813,0.609375 -0.328125,0.445312 -0.609375,0.785156 -0.75,0.9375 -0.257812,0.257812 -0.386719,0.363281 -0.539062,0.363281 -0.08203,0 -0.152344,-0.03516 -0.292969,-0.140625 -0.175781,-0.140625 -0.292969,-0.199219 -0.445313,-0.199219 -0.257812,0 -0.46875,0.199219 -0.46875,0.46875 0,0.316406 0.257813,0.527344 0.621094,0.527344 0.761719,0 2.320313,-1.792969 3.632813,-4.171875 0.820312,-1.476563 1.148437,-2.34375 1.148437,-2.929688 0,-0.363281 -0.292969,-0.667968 -0.65625,-0.667968 -0.28125,0 -0.46875,0.1875 -0.46875,0.445312 0,0.199219 0.09375,0.316406 0.339844,0.46875 0.222656,0.140625 0.304687,0.246094 0.304687,0.410156 0,0.480469 -0.433593,1.40625 -1.464843,3.105469 l -0.234375,-1.394531 c -0.1875,-1.066406 -0.855469,-3.035156 -1.03125,-3.035156 h -0.04687 c -0.02344,0.01172 -0.05859,0.01172 -0.117188,0.01172 -0.09375,0.01172 -0.539062,0.09375 -1.171875,0.210938 -0.05859,0.01172 -0.210937,0.04687 -0.386719,0.07031 z m 0,0"
       style="fill:#231f20;fill-opacity:1;fill-rule:nonzero;stroke:none"
       aria-label="x&#10;y"
       transform="matrix(1.3333333,0,0,1.3333333,110.56667,257.66)" />
    <path
       id="path2"
       d="m 161.25,889.25 v -714"
       style="fill:none;stroke:#231f20;stroke-width:2.5;stroke-linecap:butt;stroke-linejoin:miter;stroke-miterlimit:3.8637;stroke-dasharray:none;stroke-opacity:1"
       transform="matrix(0.13333333,0,0,-0.13333333,0,264.76)" />
    <path
       id="path3"
       d="m 161.25,886.25 h -15 l 15,38 15,-38 h -15"
       style="fill:#231f20;fill-opacity:1;fill-rule:evenodd;stroke:none"
       transform="matrix(0.13333333,0,0,-0.13333333,0,264.76)" />
    <path
       id="path4"
       d="m 161.25,175.25 h 714"
       style="fill:none;stroke:#231f20;stroke-width:2.5;stroke-linecap:butt;stroke-linejoin:miter;stroke-miterlimit:3.8637;stroke-dasharray:none;stroke-opacity:1"
       transform="matrix(0.13333333,0,0,-0.13333333,0,264.76)" />
    <path
       id="path5"
       d="m 872.25,175.25 v 15 l 38,-15 -38,-15 v 15"
       style="fill:#231f20;fill-opacity:1;fill-rule:evenodd;stroke:none"
       transform="matrix(0.13333333,0,0,-0.13333333,0,264.76)" />
    <path
       id="path6"
       d="M 1.9087891,2.0977734 C 1.4634766,0.87902344 1.3345703,0.14074219 1.3345703,-1.0194141 c 0,-1.453125 0.328125,-3.1640625 0.890625,-4.5 0.3984375,-0.9492187 0.7734375,-1.5117187 1.5585938,-2.3320312 L 3.6197266,-8.0272266 c -1.5585938,1.4179688 -2.1679688,2.203125 -2.67187504,3.4570313 -0.31640625,0.75 -0.4453125,1.4882812 -0.4453125,2.4140625 0,0.9257812 0.140625,1.81640624 0.41015625,2.64843749 C 1.0767578,0.99621094 1.2642578,1.3829297 1.6861328,2.1680859 Z m 6.9140625,-3.4335937 c -0.1054688,0.1171875 -0.1640625,0.1875 -0.2695313,0.328125 -0.2695312,0.36328124 -0.421875,0.48046874 -0.5625,0.48046874 -0.1640625,0 -0.28125,-0.15234375 -0.3632812,-0.49218754 -0.035156,-0.1289062 -0.035156,-0.1523437 -0.046875,-0.1875 -0.2929688,-1.2304687 -0.4335938,-1.78125 -0.4335938,-1.9570312 0.5390625,-0.9375 0.9609375,-1.453125 1.1835938,-1.453125 0.070312,0 0.1757812,0.035156 0.28125,0.09375 0.1523437,0.082031 0.234375,0.1054687 0.3398437,0.1054687 0.234375,0 0.4101563,-0.1757812 0.4101563,-0.4335937 0,-0.2578125 -0.2109375,-0.4453125 -0.4921875,-0.4453125 -0.5273438,0 -0.9726563,0.4335937 -1.8164063,1.7226562 l -0.1289062,-0.65625 C 6.7603516,-5.0506641 6.6197266,-5.2967578 6.3033203,-5.2967578 c -0.28125,0 -0.6679687,0.1054687 -1.40625,0.3515625 -0.070312,0.023437 -0.070312,0.023437 -0.1289062,0.046875 l 0.046875,0.1875 c 0.46875,-0.1289063 0.5507812,-0.140625 0.6679687,-0.140625 0.3046875,0 0.375,0.1171875 0.5390625,0.8320312 l 0.3515625,1.4765625 -0.984375,1.40625 c -0.2578125,0.35156254 -0.4804687,0.57421879 -0.609375,0.57421879 -0.082031,0 -0.1992187,-0.0351563 -0.3164062,-0.10546875 -0.1523438,-0.09375 -0.28125,-0.12890625 -0.3867188,-0.12890625 -0.234375,0 -0.4101562,0.1875 -0.4101562,0.421875 0,0.31640625 0.234375,0.50390625 0.609375,0.50390625 0.3632812,0 0.515625,-0.10546875 1.1132812,-0.8203125 0.3164063,-0.39843754 0.5859375,-0.76171874 1.078125,-1.41796874 l 0.3632813,1.44140624 c 0.1523437,0.62109375 0.3046875,0.796875 0.6914062,0.796875 0.4570313,0 0.7734375,-0.28125 1.4648438,-1.35937504 z M 9.8863281,3.0001172 H 13.237891 V 2.8243359 h -0.210938 c -0.585937,0 -0.820312,-0.1171875 -0.820312,-0.3867187 0,-0.1054688 0.03516,-0.2929688 0.140625,-0.6210938 0.02344,-0.09375 0.03516,-0.1523437 0.07031,-0.2695312 l 1.722656,-6.2226563 c 0.05859,-0.2226562 0.07031,-0.2929687 0.07031,-0.3515625 0,-0.046875 -0.02344,-0.082031 -0.05859,-0.082031 0,0 -0.339844,0.058594 -0.984375,0.1875 l -1.078125,0.2226562 c -0.02344,0.011719 -0.117187,0.023437 -0.257812,0.046875 v 0.1757813 l 0.679687,-0.023437 c 0.28125,-0.011719 0.457031,0.1289062 0.457031,0.375 0,0.082031 -0.02344,0.1640625 -0.08203,0.4101562 l -1.652344,5.8945313 c -0.140625,0.4453125 -0.398437,0.5625 -1.3476559,0.65625 z m 3.4716799,-1.453125 c 1.019531,-0.56250001 1.558594,-1.23046876 1.558594,-1.91015626 0,-0.48046875 -0.292969,-0.84375004 -0.691407,-0.84375004 -0.351562,0 -0.609375,0.23437504 -0.609375,0.55078129 0,0.22265625 0.07031,0.33984375 0.292969,0.55078125 0.1875,0.1640625 0.246094,0.2578125 0.246094,0.38671875 0,0.31640625 -0.269531,0.64453125 -0.902344,1.06640621 z m 3.117187,-6.3515625 c 0.152344,-0.035156 0.246094,-0.046875 0.375,-0.046875 0.492188,0 0.726563,0.1992187 0.960938,0.84375 0.328125,0.890625 0.949219,3.45703124 0.949219,3.91406249 0,0.1875 -0.08203,0.38671875 -0.257813,0.609375 -0.328125,0.4453125 -0.609375,0.78515621 -0.75,0.93750001 -0.257812,0.2578125 -0.386719,0.3632812 -0.539062,0.3632812 -0.08203,0 -0.152344,-0.035156 -0.292969,-0.140625 -0.175781,-0.140625 -0.292969,-0.1992187 -0.445313,-0.1992187 -0.257812,0 -0.46875,0.1992187 -0.46875,0.46875 0,0.3164062 0.257813,0.5273437 0.621094,0.5273437 0.761719,0 2.320313,-1.79296871 3.632813,-4.171875 0.820312,-1.4765625 1.148437,-2.34375 1.148437,-2.9296875 0,-0.3632812 -0.292969,-0.6679687 -0.65625,-0.6679687 -0.28125,0 -0.46875,0.1875 -0.46875,0.4453125 0,0.1992187 0.09375,0.3164062 0.339844,0.46875 0.222656,0.140625 0.304687,0.2460937 0.304687,0.4101562 0,0.4804688 -0.433593,1.40625 -1.464843,3.10546879 L 19.229102,-2.2616016 c -0.1875,-1.0664062 -0.855469,-3.0351562 -1.03125,-3.0351562 h -0.04687 c -0.02344,0.011719 -0.05859,0.011719 -0.117188,0.011719 -0.09375,0.011719 -0.539062,0.09375 -1.171875,0.2109375 -0.05859,0.011719 -0.210937,0.046875 -0.386719,0.070312 z m 5.709961,7.8046875 h 3.351563 V 2.8243359 h -0.210938 c -0.585937,0 -0.820312,-0.1171875 -0.820312,-0.3867187 0,-0.1054688 0.03516,-0.2929688 0.140625,-0.6210938 0.02344,-0.09375 0.03516,-0.1523437 0.07031,-0.2695312 l 1.722656,-6.2226563 c 0.05859,-0.2226562 0.07031,-0.2929687 0.07031,-0.3515625 0,-0.046875 -0.02344,-0.082031 -0.05859,-0.082031 0,0 -0.339844,0.058594 -0.984375,0.1875 l -1.078125,0.2226562 c -0.02344,0.011719 -0.117187,0.023437 -0.257812,0.046875 v 0.1757813 l 0.679687,-0.023437 c 0.28125,-0.011719 0.457031,0.1289062 0.457031,0.375 0,0.082031 -0.02344,0.1640625 -0.08203,0.4101562 l -1.652344,5.8945313 c -0.140625,0.4453125 -0.398437,0.5625 -1.347656,0.65625 z m 3.767578,-0.84375 c 1.488282,-1.28906251 2.097657,-2.07421876 2.636719,-3.3632813 0.339844,-0.796875 0.480469,-1.5585937 0.480469,-2.4492187 0,-0.6914063 -0.09375,-1.4414063 -0.269531,-2.1679688 -0.199219,-0.8085937 -0.375,-1.2421875 -0.914063,-2.203125 l -0.234375,0.058594 c 0.410156,0.9726562 0.585938,1.9453125 0.585938,3.140625 0,1.5234375 -0.410157,3.4570312 -1.007813,4.75781249 -0.339844,0.7734375 -0.703125,1.27734371 -1.441406,2.05078121 z M 2.1109375,-103.70203 c -0.4453125,-1.21875 -0.5742188,-1.95703 -0.5742188,-3.11719 0,-1.45312 0.328125,-3.16406 0.890625,-4.5 0.3984375,-0.94922 0.7734375,-1.51172 1.5585938,-2.33203 l -0.1640625,-0.17578 c -1.5585938,1.41797 -2.1679688,2.20312 -2.671875,3.45703 -0.31640625,0.75 -0.4453125,1.48828 -0.4453125,2.41406 0,0.92578 0.140625,1.81641 0.4101562,2.64844 0.1640625,0.50391 0.3515625,0.89062 0.7734375,1.67578 z M 9.025,-107.13563 c -0.1054688,0.11719 -0.1640625,0.1875 -0.2695313,0.32813 -0.2695312,0.36328 -0.421875,0.48047 -0.5625,0.48047 -0.1640625,0 -0.28125,-0.15235 -0.3632812,-0.49219 -0.035156,-0.12891 -0.035156,-0.15234 -0.046875,-0.1875 -0.2929688,-1.23047 -0.4335938,-1.78125 -0.4335938,-1.95703 0.5390625,-0.9375 0.9609375,-1.45313 1.1835938,-1.45313 0.070312,0 0.1757812,0.0352 0.28125,0.0937 0.1523437,0.082 0.234375,0.10547 0.3398437,0.10547 0.234375,0 0.4101563,-0.17578 0.4101563,-0.43359 0,-0.25781 -0.2109375,-0.44531 -0.4921875,-0.44531 -0.5273438,0 -0.9726563,0.43359 -1.8164063,1.72265 l -0.1289062,-0.65625 c -0.1640625,-0.82031 -0.3046875,-1.0664 -0.6210938,-1.0664 -0.28125,0 -0.6679687,0.10547 -1.40625,0.35156 -0.070312,0.0234 -0.070312,0.0234 -0.1289062,0.0469 l 0.046875,0.1875 c 0.46875,-0.1289 0.5507812,-0.14062 0.6679687,-0.14062 0.3046875,0 0.375,0.11719 0.5390625,0.83203 l 0.3515625,1.47656 -0.984375,1.40625 c -0.2578125,0.35157 -0.4804687,0.57422 -0.609375,0.57422 -0.082031,0 -0.1992187,-0.0352 -0.3164062,-0.10547 -0.1523438,-0.0937 -0.28125,-0.1289 -0.3867188,-0.1289 -0.234375,0 -0.4101562,0.1875 -0.4101562,0.42187 0,0.31641 0.234375,0.50391 0.609375,0.50391 0.3632812,0 0.515625,-0.10547 1.1132812,-0.82031 0.3164063,-0.39844 0.5859375,-0.76172 1.078125,-1.41797 l 0.3632813,1.4414 c 0.1523437,0.6211 0.3046875,0.79688 0.6914062,0.79688 0.4570313,0 0.7734375,-0.28125 1.4648438,-1.35938 z m 5.912109,1.44141 h -1.136718 l 1.441406,-5.21484 h -0.480469 l -5.0039061,5.16797 -0.2460938,0.80859 h 3.1406249 l -0.585937,2.13281 h 0.949218 l 0.550782,-2.10937 h 1.207031 z m -2.109375,0 h -2.542968 v -0.0469 l 3.644531,-3.82032 h 0.04687 z m 0.729493,1.44141 c 1.019531,-0.5625 1.558593,-1.23047 1.558593,-1.91016 0,-0.48047 -0.292968,-0.84375 -0.691406,-0.84375 -0.351562,0 -0.609375,0.23438 -0.609375,0.55078 0,0.22266 0.07031,0.33985 0.292969,0.55078 0.1875,0.16407 0.246094,0.25782 0.246094,0.38672 0,0.31641 -0.269532,0.64453 -0.902344,1.06641 z m 3.117187,-6.35157 c 0.152344,-0.0351 0.246094,-0.0469 0.375,-0.0469 0.492188,0 0.726563,0.19922 0.960938,0.84375 0.328125,0.89062 0.949218,3.45703 0.949218,3.91406 0,0.1875 -0.08203,0.38672 -0.257812,0.60938 -0.328125,0.44531 -0.609375,0.78515 -0.75,0.9375 -0.257813,0.25781 -0.386719,0.36328 -0.539063,0.36328 -0.08203,0 -0.152343,-0.0352 -0.292968,-0.14063 -0.175782,-0.14062 -0.292969,-0.19922 -0.445313,-0.19922 -0.257812,0 -0.46875,0.19922 -0.46875,0.46875 0,0.31641 0.257813,0.52735 0.621094,0.52735 0.761719,0 2.320312,-1.79297 3.632812,-4.17188 0.820313,-1.47656 1.148438,-2.34375 1.148438,-2.92968 0,-0.36329 -0.292969,-0.66797 -0.65625,-0.66797 -0.28125,0 -0.46875,0.1875 -0.46875,0.44531 0,0.19922 0.09375,0.31641 0.339844,0.46875 0.222656,0.14062 0.304687,0.24609 0.304687,0.41016 0,0.48046 -0.433594,1.40625 -1.464844,3.10546 l -0.234375,-1.39453 c -0.1875,-1.0664 -0.855468,-3.03515 -1.03125,-3.03515 H 18.3502 c -0.02344,0.0117 -0.05859,0.0117 -0.117187,0.0117 -0.09375,0.0117 -0.539063,0.0937 -1.171875,0.21093 -0.05859,0.0117 -0.210938,0.0469 -0.386719,0.0703 z m 10.564453,4.91016 h -1.136719 l 1.441407,-5.21484 h -0.480469 l -5.003906,5.16797 -0.246094,0.80859 h 3.140625 l -0.585938,2.13281 h 0.949219 l 0.550781,-2.10937 h 1.207032 z m -2.109375,0 h -2.542969 v -0.0469 l 3.644532,-3.82032 h 0.04687 z m 1.12207,2.05078 c 1.488282,-1.28906 2.097657,-2.07422 2.636719,-3.36328 0.339844,-0.79687 0.480469,-1.55859 0.480469,-2.44922 0,-0.6914 -0.09375,-1.4414 -0.269531,-2.16797 -0.199219,-0.80859 -0.375,-1.24218 -0.914063,-2.20312 l -0.234375,0.0586 c 0.410156,0.97266 0.585938,1.94531 0.585938,3.14063 0,1.52343 -0.410157,3.45703 -1.007813,4.75781 -0.339844,0.77344 -0.703125,1.27734 -1.441406,2.05078 z M 208.31113,2.1973828 c -0.44531,-1.21874999 -0.57422,-1.95703124 -0.57422,-3.11718749 0,-1.45312501 0.32813,-3.16406251 0.89063,-4.50000001 0.39844,-0.9492187 0.77344,-1.5117187 1.55859,-2.3320312 l -0.16406,-0.1757813 c -1.55859,1.4179688 -2.16797,2.203125 -2.67187,3.4570313 -0.31641,0.75 -0.44532,1.4882812 -0.44532,2.4140625 0,0.9257812 0.14063,1.81640621 0.41016,2.64843746 0.16406,0.50390624 0.35156,0.89062504 0.77344,1.67578124 z m 6.91407,-3.4335937 c -0.10547,0.1171875 -0.16407,0.1875 -0.26954,0.32812496 -0.26953,0.36328125 -0.42187,0.48046875 -0.5625,0.48046875 -0.16406,0 -0.28125,-0.15234375 -0.36328,-0.4921875 -0.0351,-0.12890621 -0.0351,-0.15234371 -0.0469,-0.18750001 -0.29297,-1.2304687 -0.4336,-1.78125 -0.4336,-1.9570312 0.53907,-0.9375 0.96094,-1.453125 1.1836,-1.453125 0.0703,0 0.17578,0.035156 0.28125,0.09375 0.15234,0.082031 0.23437,0.1054687 0.33984,0.1054687 0.23438,0 0.41016,-0.1757812 0.41016,-0.4335937 0,-0.2578125 -0.21094,-0.4453125 -0.49219,-0.4453125 -0.52734,0 -0.97266,0.4335937 -1.81641,1.7226562 l -0.1289,-0.65625 c -0.16406,-0.8203125 -0.30469,-1.0664062 -0.6211,-1.0664062 -0.28125,0 -0.66796,0.1054687 -1.40625,0.3515625 -0.0703,0.023437 -0.0703,0.023437 -0.1289,0.046875 l 0.0469,0.1875 c 0.46875,-0.1289063 0.55078,-0.140625 0.66797,-0.140625 0.30469,0 0.375,0.1171875 0.53906,0.8320312 l 0.35157,1.4765625 -0.98438,1.40625 c -0.25781,0.35156251 -0.48047,0.57421876 -0.60937,0.57421876 -0.082,0 -0.19922,-0.0351563 -0.31641,-0.10546875 -0.15234,-0.09375 -0.28125,-0.12890625 -0.38672,-0.12890625 -0.23437,0 -0.41015,0.1875 -0.41015,0.421875 0,0.31640625 0.23437,0.50390625 0.60937,0.50390625 0.36328,0 0.51563,-0.10546875 1.11328,-0.8203125 0.31641,-0.3984375 0.58594,-0.76171871 1.07813,-1.41796871 l 0.36328,1.44140621 c 0.15234,0.62109375 0.30469,0.796875 0.6914,0.796875 0.45704,0 0.77344,-0.28125 1.46485,-1.35937501 z m 5.27929,2.671875 c -0.28125,0.5859375 -0.51562,0.7265625 -1.19531,0.75 h -2.27344 v -0.058594 l 2.29688,-2.30859374 c 1.40625,-1.39453126 1.79297,-2.00390626 1.79297,-2.80078126 0,-1.1367187 -0.85547,-2.0273437 -1.94532,-2.0273437 -0.43359,0 -0.8789,0.1054687 -1.24218,0.3046875 -0.60938,0.3398437 -0.92579,0.75 -1.27735,1.6171875 l 0.2461,0.082031 c 0.44531,-0.7851562 0.96093,-1.125 1.6875,-1.125 0.86718,0 1.5,0.6210938 1.5,1.453125 0,0.2578125 -0.0352,0.4804688 -0.10547,0.6445313 -0.29297,0.6445312 -0.84375,1.40624996 -1.62891,2.23828121 l -2.51953,2.69531249 v 0.1992188 h 4.26562 l 0.59766,-1.5820313 z m -0.74707,0.2109375 c 1.01953,-0.5625 1.5586,-1.23046879 1.5586,-1.91015629 0,-0.48046875 -0.29297,-0.84375001 -0.69141,-0.84375001 -0.35156,0 -0.60938,0.23437501 -0.60938,0.55078126 0,0.22265625 0.0703,0.33984375 0.29297,0.55078125 0.1875,0.1640625 0.2461,0.2578125 0.2461,0.38671875 0,0.31640625 -0.26953,0.64453124 -0.90235,1.06640624 z m 3.11719,-6.3515625 c 0.15234,-0.035156 0.24609,-0.046875 0.375,-0.046875 0.49219,0 0.72656,0.1992187 0.96094,0.84375 0.32812,0.890625 0.94922,3.45703121 0.94922,3.91406246 0,0.1875 -0.082,0.38671875 -0.25782,0.609375 -0.32812,0.44531254 -0.60937,0.78515624 -0.75,0.93750004 -0.25781,0.2578125 -0.38672,0.3632812 -0.53906,0.3632812 -0.082,0 -0.15234,-0.035156 -0.29297,-0.140625 -0.17578,-0.140625 -0.29297,-0.1992187 -0.44531,-0.1992187 -0.25781,0 -0.46875,0.1992187 -0.46875,0.46875 0,0.3164062 0.25781,0.5273437 0.62109,0.5273437 0.76172,0 2.32032,-1.79296874 3.63282,-4.171875 0.82031,-1.4765625 1.14843,-2.34375 1.14843,-2.9296875 0,-0.3632812 -0.29297,-0.6679687 -0.65625,-0.6679687 -0.28125,0 -0.46875,0.1875 -0.46875,0.4453125 0,0.1992187 0.0937,0.3164062 0.33985,0.46875 0.22265,0.140625 0.30468,0.2460937 0.30468,0.4101562 0,0.4804688 -0.43359,1.40625 -1.46484,3.10546876 l -0.23437,-1.39453126 c -0.1875,-1.0664062 -0.85547,-3.0351562 -1.03125,-3.0351562 h -0.0469 c -0.0234,0.011719 -0.0586,0.011719 -0.11719,0.011719 -0.0937,0.011719 -0.53906,0.09375 -1.17187,0.2109375 -0.0586,0.011719 -0.21094,0.046875 -0.38672,0.070312 z m 10.03125,6.140625 c -0.28125,0.5859375 -0.51563,0.7265625 -1.19531,0.75 h -2.27344 v -0.058594 l 2.29687,-2.30859374 c 1.40625,-1.39453126 1.79297,-2.00390626 1.79297,-2.80078126 0,-1.1367187 -0.85547,-2.0273437 -1.94531,-2.0273437 -0.43359,0 -0.87891,0.1054687 -1.24219,0.3046875 -0.60937,0.3398437 -0.92578,0.75 -1.27734,1.6171875 l 0.24609,0.082031 c 0.44532,-0.7851562 0.96094,-1.125 1.6875,-1.125 0.86719,0 1.5,0.6210938 1.5,1.453125 0,0.2578125 -0.0351,0.4804688 -0.10547,0.6445313 -0.29296,0.6445312 -0.84375,1.40624996 -1.6289,2.23828121 L 228.2418,2.9005078 v 0.1992188 h 4.26562 l 0.59766,-1.5820313 z m -0.4541,0.8203125 c 1.48828,-1.28906254 2.09765,-2.07421879 2.63672,-3.3632813 0.33984,-0.796875 0.48047,-1.5585937 0.48047,-2.4492187 0,-0.6914063 -0.0937,-1.4414063 -0.26954,-2.1679688 -0.19921,-0.8085937 -0.375,-1.2421875 -0.91406,-2.203125 l -0.23437,0.058594 c 0.41015,0.9726562 0.58593,1.9453125 0.58593,3.140625 0,1.5234375 -0.41015,3.4570312 -1.00781,4.75781246 -0.33984,0.7734375 -0.70312,1.27734374 -1.4414,2.05078124 z M 207.81016,-103.60242 c -0.44532,-1.21875 -0.57422,-1.95703 -0.57422,-3.11719 0,-1.45312 0.32812,-3.16406 0.89062,-4.5 0.39844,-0.94922 0.77344,-1.51172 1.5586,-2.33203 l -0.16407,-0.17578 c -1.55859,1.41797 -2.16797,2.20312 -2.67187,3.45703 -0.31641,0.75 -0.44531,1.48828 -0.44531,2.41406 0,0.92578 0.14062,1.81641 0.41015,2.64844 0.16406,0.50391 0.35156,0.89062 0.77344,1.67578 z m 6.91406,-3.4336 c -0.10547,0.11719 -0.16406,0.1875 -0.26953,0.32813 -0.26953,0.36328 -0.42188,0.48047 -0.5625,0.48047 -0.16407,0 -0.28125,-0.15235 -0.36328,-0.49219 -0.0352,-0.12891 -0.0352,-0.15234 -0.0469,-0.1875 -0.29297,-1.23047 -0.43359,-1.78125 -0.43359,-1.95703 0.53906,-0.9375 0.96093,-1.45313 1.18359,-1.45313 0.0703,0 0.17578,0.0352 0.28125,0.0937 0.15234,0.082 0.23438,0.10547 0.33984,0.10547 0.23438,0 0.41016,-0.17578 0.41016,-0.43359 0,-0.25781 -0.21094,-0.44531 -0.49219,-0.44531 -0.52734,0 -0.97265,0.43359 -1.8164,1.72265 l -0.12891,-0.65625 c -0.16406,-0.82031 -0.30469,-1.0664 -0.62109,-1.0664 -0.28125,0 -0.66797,0.10547 -1.40625,0.35156 -0.0703,0.0234 -0.0703,0.0234 -0.12891,0.0469 l 0.0469,0.1875 c 0.46875,-0.1289 0.55078,-0.14062 0.66796,-0.14062 0.30469,0 0.375,0.11719 0.53907,0.83203 l 0.35156,1.47656 -0.98438,1.40625 c -0.25781,0.35157 -0.48046,0.57422 -0.60937,0.57422 -0.082,0 -0.19922,-0.0352 -0.31641,-0.10547 -0.15234,-0.0937 -0.28125,-0.1289 -0.38672,-0.1289 -0.23437,0 -0.41015,0.1875 -0.41015,0.42187 0,0.31641 0.23437,0.50391 0.60937,0.50391 0.36328,0 0.51563,-0.10547 1.11328,-0.82031 0.31641,-0.39844 0.58594,-0.76172 1.07813,-1.41797 l 0.36328,1.4414 c 0.15234,0.6211 0.30469,0.79688 0.69141,0.79688 0.45703,0 0.77343,-0.28125 1.46484,-1.35938 z m 2.60742,-2.47265 c 0.42188,-0.5625 0.83203,-0.79688 1.33594,-0.79688 0.64453,0 1.0664,0.4336 1.0664,1.08985 0,0.5039 -0.24609,0.9375 -0.76171,1.28906 -0.51563,0.33984 -1.04297,0.52734 -2.10938,0.70312 l 0.0117,0.1875 c 0.67969,0 0.79687,0.0117 1.11328,0.12891 0.72656,0.26953 1.11328,0.91406 1.11328,1.875 0,0.42188 -0.0937,0.85547 -0.26953,1.14844 -0.26953,0.48047 -0.80859,0.80859 -1.30078,0.80859 -0.23438,0 -0.49219,-0.11719 -0.85547,-0.38672 -0.35156,-0.24609 -0.53906,-0.32812 -0.77344,-0.32812 -0.32812,0 -0.52734,0.16406 -0.52734,0.46875 0,0.45703 0.48047,0.70312 1.34766,0.70312 0.66796,0 1.30078,-0.15234 1.79296,-0.44531 0.94922,-0.55078 1.54688,-1.55859 1.54688,-2.625 0,-0.87891 -0.35156,-1.41797 -1.14844,-1.79297 v -0.0352 c 1.44141,-0.5625 1.86328,-0.96094 1.86328,-1.76954 0,-0.8789 -0.70312,-1.52343 -1.67578,-1.52343 -0.83203,0 -1.57031,0.46875 -1.95703,1.24218 z m 1.92773,5.35547 c 1.01954,-0.5625 1.5586,-1.23047 1.5586,-1.91016 0,-0.48047 -0.29297,-0.84375 -0.69141,-0.84375 -0.35156,0 -0.60937,0.23438 -0.60937,0.55078 0,0.22266 0.0703,0.33985 0.29297,0.55078 0.1875,0.16407 0.24609,0.25782 0.24609,0.38672 0,0.31641 -0.26953,0.64453 -0.90234,1.06641 z m 3.11719,-6.35157 c 0.15235,-0.0352 0.2461,-0.0469 0.375,-0.0469 0.49219,0 0.72656,0.19922 0.96094,0.84375 0.32812,0.89062 0.94922,3.45703 0.94922,3.91406 0,0.1875 -0.082,0.38672 -0.25781,0.60938 -0.32813,0.44531 -0.60938,0.78515 -0.75,0.9375 -0.25782,0.25781 -0.38672,0.36328 -0.53907,0.36328 -0.082,0 -0.15234,-0.0352 -0.29297,-0.14063 -0.17578,-0.14062 -0.29296,-0.19922 -0.44531,-0.19922 -0.25781,0 -0.46875,0.19922 -0.46875,0.46875 0,0.31641 0.25781,0.52735 0.6211,0.52735 0.76171,0 2.32031,-1.79297 3.63281,-4.17188 0.82031,-1.47656 1.14844,-2.34375 1.14844,-2.92968 0,-0.36329 -0.29297,-0.66797 -0.65625,-0.66797 -0.28125,0 -0.46875,0.1875 -0.46875,0.44531 0,0.19922 0.0937,0.31641 0.33984,0.46875 0.22266,0.14062 0.30469,0.24609 0.30469,0.41016 0,0.48046 -0.4336,1.40625 -1.46485,3.10546 l -0.23437,-1.39453 c -0.1875,-1.0664 -0.85547,-3.03515 -1.03125,-3.03515 h -0.0469 c -0.0234,0.0117 -0.0586,0.0117 -0.11718,0.0117 -0.0937,0.0117 -0.53907,0.0937 -1.17188,0.21093 -0.0586,0.0117 -0.21094,0.0469 -0.38672,0.0703 z m 7.25684,0.9961 c 0.42187,-0.5625 0.83203,-0.79688 1.33594,-0.79688 0.64453,0 1.0664,0.4336 1.0664,1.08985 0,0.5039 -0.24609,0.9375 -0.76172,1.28906 -0.51562,0.33984 -1.04297,0.52734 -2.10937,0.70312 l 0.0117,0.1875 c 0.67968,0 0.79687,0.0117 1.11328,0.12891 0.72656,0.26953 1.11328,0.91406 1.11328,1.875 0,0.42188 -0.0937,0.85547 -0.26953,1.14844 -0.26953,0.48047 -0.8086,0.80859 -1.30078,0.80859 -0.23438,0 -0.49219,-0.11719 -0.85547,-0.38672 -0.35156,-0.24609 -0.53906,-0.32812 -0.77344,-0.32812 -0.32812,0 -0.52734,0.16406 -0.52734,0.46875 0,0.45703 0.48047,0.70312 1.34765,0.70312 0.66797,0 1.30078,-0.15234 1.79297,-0.44531 0.94922,-0.55078 1.54688,-1.55859 1.54688,-2.625 0,-0.87891 -0.35157,-1.41797 -1.14844,-1.79297 v -0.0352 c 1.44141,-0.5625 1.86328,-0.96094 1.86328,-1.76954 0,-0.8789 -0.70312,-1.52343 -1.67578,-1.52343 -0.83203,0 -1.57031,0.46875 -1.95703,1.24218 z m 2.21777,5.96484 c 1.48828,-1.28906 2.09766,-2.07422 2.63672,-3.36328 0.33984,-0.79687 0.48047,-1.55859 0.48047,-2.44922 0,-0.6914 -0.0937,-1.4414 -0.26953,-2.16797 -0.19922,-0.80859 -0.375,-1.24218 -0.91406,-2.20312 l -0.23438,0.0586 c 0.41016,0.97266 0.58594,1.94531 0.58594,3.14063 0,1.52343 -0.41016,3.45703 -1.00781,4.75781 -0.33985,0.77344 -0.70313,1.27734 -1.44141,2.05078 z m 0,0"
       style="fill:#231f20;fill-opacity:1;fill-rule:nonzero;stroke:none"
       aria-label="(x&#10;1&#10;,y&#10;1&#10;)&#10;(x&#10;4&#10;,y&#10;4&#10;)&#10;(x&#10;2&#10;,y&#10;2&#10;)&#10;(x&#10;3&#10;,y&#10;3&#10;)"
       transform="matrix(1.3333333,0,0,1.3333333,44.966667,215.66)" />
    <path
       id="path7"
       d="m 732.25,1582.25 h 1601 v -1034 h -1601 v 1034"
       style="fill:#e9e9e9;fill-opacity:1;fill-rule:nonzero;stroke:none"
       transform="matrix(0.13333333,0,0,-0.13333333,0,264.76)" />
    <path
       id="path8"
       d="m 925.25,704.25 h 68 c 16.05,-0.223 28.74,-12.91 29,-29 v -73 c -0.26,-15.531 -12.95,-28.223 -29,-28 h -68 c -15.57,-0.223 -28.262,12.469 -28,28 v 73 c -0.262,16.09 12.43,28.777 28,29"
       style="fill:#ffffff;fill-opacity:1;fill-rule:nonzero;stroke:none"
       transform="matrix(0.13333333,0,0,-0.13333333,0,264.76)" />
    <path
       id="path9"
       d="m 818.25,884.25 h 68 c 16.023,-0.059 28.715,-12.746 29,-28 v -74 c -0.285,-15.367 -12.977,-28.059 -29,-28 h -68 c -15.598,-0.059 -28.285,12.633 -28,28 v 74 c -0.285,15.254 12.402,27.941 28,28"
       style="fill:#ffffff;fill-opacity:1;fill-rule:nonzero;stroke:none"
       transform="matrix(0.13333333,0,0,-0.13333333,0,264.76)" />
    <path
       id="path10"
       d="m 732.25,1582.25 h 1601 v -1034 h -1601 z"
       style="fill:none;stroke:#231f20;stroke-width:5;stroke-linecap:butt;stroke-linejoin:miter;stroke-miterlimit:3.8637;stroke-dasharray:none;stroke-opacity:1"
       transform="matrix(0.13333333,0,0,-0.13333333,0,264.76)" />
    <path
       id="path11"
       d="m 2379.25,1584.25 h 254"
       style="fill:none;stroke:#ffffff;stroke-width:40;stroke-linecap:round;stroke-linejoin:miter;stroke-miterlimit:3.8637;stroke-dasharray:none;stroke-opacity:1"
       transform="matrix(0.13333333,0,0,-0.13333333,0,264.76)" />
    <path
       id="path12"
       d="m 2331.25,1628.25 v 254"
       style="fill:none;stroke:#ffffff;stroke-width:40;stroke-linecap:round;stroke-linejoin:miter;stroke-miterlimit:3.8637;stroke-dasharray:none;stroke-opacity:1"
       transform="matrix(0.13333333,0,0,-0.13333333,0,264.76)" />
    <path
       id="path13"
       d="m 2331.25,1842.25 v -259"
       style="fill:none;stroke:#231f20;stroke-width:2.5;stroke-linecap:butt;stroke-linejoin:miter;stroke-miterlimit:3.8637;stroke-dasharray:none;stroke-opacity:1"
       transform="matrix(0.13333333,0,0,-0.13333333,0,264.76)" />
    <path
       id="path14"
       d="m 2331.25,1840.25 h -15 l 15,37 15,-37 h -15"
       style="fill:#231f20;fill-opacity:1;fill-rule:evenodd;stroke:none"
       transform="matrix(0.13333333,0,0,-0.13333333,0,264.76)" />
    <path
       id="path15"
       d="m 2331.25,1583.25 h 260"
       style="fill:none;stroke:#231f20;stroke-width:2.5;stroke-linecap:butt;stroke-linejoin:miter;stroke-miterlimit:3.8637;stroke-dasharray:none;stroke-opacity:1"
       transform="matrix(0.13333333,0,0,-0.13333333,0,264.76)" />
    <path
       id="path16"
       d="m 2588.25,1583.25 v 15 l 38,-15 -38,-15 v 15"
       style="fill:#231f20;fill-opacity:1;fill-rule:evenodd;stroke:none"
       transform="matrix(0.13333333,0,0,-0.13333333,0,264.76)" />
    <path
       id="path17"
       d="m 2379.25,552.25 h 253"
       style="fill:none;stroke:#ffffff;stroke-width:40;stroke-linecap:round;stroke-linejoin:miter;stroke-miterlimit:3.8637;stroke-dasharray:none;stroke-opacity:1"
       transform="matrix(0.13333333,0,0,-0.13333333,0,264.76)" />
    <path
       id="path18"
       d="m 2331.25,596.25 v 254"
       style="fill:none;stroke:#ffffff;stroke-width:40;stroke-linecap:round;stroke-linejoin:miter;stroke-miterlimit:3.8637;stroke-dasharray:none;stroke-opacity:1"
       transform="matrix(0.13333333,0,0,-0.13333333,0,264.76)" />
    <path
       id="path19"
       d="m 2331.25,810.25 v -259"
       style="fill:none;stroke:#231f20;stroke-width:2.5;stroke-linecap:butt;stroke-linejoin:miter;stroke-miterlimit:3.8637;stroke-dasharray:none;stroke-opacity:1"
       transform="matrix(0.13333333,0,0,-0.13333333,0,264.76)" />
    <path
       id="path20"
       d="m 2331.25,808.25 h -15 l 15,37 15,-37 h -15"
       style="fill:#231f20;fill-opacity:1;fill-rule:evenodd;stroke:none"
       transform="matrix(0.13333333,0,0,-0.13333333,0,264.76)" />
    <path
       id="path21"
       d="m 2331.25,551.25 h 259"
       style="fill:none;stroke:#231f20;stroke-width:2.5;stroke-linecap:butt;stroke-linejoin:miter;stroke-miterlimit:3.8637;stroke-dasharray:none;stroke-opacity:1"
       transform="matrix(0.13333333,0,0,-0.13333333,0,264.76)" />
    <path
       id="path22"
       d="m 2588.25,551.25 v 15 l 37,-15 -37,-15 v 15"
       style="fill:#231f20;fill-opacity:1;fill-rule:evenodd;stroke:none"
       transform="matrix(0.13333333,0,0,-0.13333333,0,264.76)" />
    <path
       id="path23"
       d="m 777.25,546.25 h 254"
       style="fill:none;stroke:#ffffff;stroke-width:40;stroke-linecap:round;stroke-linejoin:miter;stroke-miterlimit:3.8637;stroke-dasharray:none;stroke-opacity:1"
       transform="matrix(0.13333333,0,0,-0.13333333,0,264.76)" />
    <path
       id="path24"
       d="m 729.25,590.25 v 254"
       style="fill:none;stroke:#ffffff;stroke-width:40;stroke-linecap:round;stroke-linejoin:miter;stroke-miterlimit:3.8637;stroke-dasharray:none;stroke-opacity:1"
       transform="matrix(0.13333333,0,0,-0.13333333,0,264.76)" />
    <path
       id="path25"
       d="m 729.25,805.25 v -260"
       style="fill:none;stroke:#231f20;stroke-width:2.5;stroke-linecap:butt;stroke-linejoin:miter;stroke-miterlimit:3.8637;stroke-dasharray:none;stroke-opacity:1"
       transform="matrix(0.13333333,0,0,-0.13333333,0,264.76)" />
    <path
       id="path26"
       d="m 729.25,802.25 h -15 l 15,38 15,-38 h -15"
       style="fill:#231f20;fill-opacity:1;fill-rule:evenodd;stroke:none"
       transform="matrix(0.13333333,0,0,-0.13333333,0,264.76)" />
    <path
       id="path27"
       d="m 729.25,545.25 h 260"
       style="fill:none;stroke:#231f20;stroke-width:2.5;stroke-linecap:butt;stroke-linejoin:miter;stroke-miterlimit:3.8637;stroke-dasharray:none;stroke-opacity:1"
       transform="matrix(0.13333333,0,0,-0.13333333,0,264.76)" />
    <path
       id="path28"
       d="m 986.25,545.25 v 15 l 38,-15 -38,-15 v 15"
       style="fill:#231f20;fill-opacity:1;fill-rule:evenodd;stroke:none"
       transform="matrix(0.13333333,0,0,-0.13333333,0,264.76)" />
    <path
       id="path29"
       d="m 777.25,1581.25 h 254"
       style="fill:none;stroke:#ffffff;stroke-width:40;stroke-linecap:round;stroke-linejoin:miter;stroke-miterlimit:3.8637;stroke-dasharray:none;stroke-opacity:1"
       transform="matrix(0.13333333,0,0,-0.13333333,0,264.76)" />
    <path
       id="path30"
       d="m 729.25,1625.25 v 254"
       style="fill:none;stroke:#ffffff;stroke-width:40;stroke-linecap:round;stroke-linejoin:miter;stroke-miterlimit:3.8637;stroke-dasharray:none;stroke-opacity:1"
       transform="matrix(0.13333333,0,0,-0.13333333,0,264.76)" />
    <path
       id="path31"
       d="m 729.25,1839.25 v -259"
       style="fill:none;stroke:#231f20;stroke-width:2.5;stroke-linecap:butt;stroke-linejoin:miter;stroke-miterlimit:3.8637;stroke-dasharray:none;stroke-opacity:1"
       transform="matrix(0.13333333,0,0,-0.13333333,0,264.76)" />
    <path
       id="path32"
       d="m 729.25,1837.25 h -15 l 15,37 15,-37 h -15"
       style="fill:#231f20;fill-opacity:1;fill-rule:evenodd;stroke:none"
       transform="matrix(0.13333333,0,0,-0.13333333,0,264.76)" />
    <path
       id="path33"
       d="m 729.25,1580.25 h 260"
       style="fill:none;stroke:#231f20;stroke-width:2.5;stroke-linecap:butt;stroke-linejoin:miter;stroke-miterlimit:3.8637;stroke-dasharray:none;stroke-opacity:1"
       transform="matrix(0.13333333,0,0,-0.13333333,0,264.76)" />
    <path
       id="path34"
       d="m 986.25,1580.25 v 15 l 38,-15 -38,-15 v 15"
       style="fill:#231f20;fill-opacity:1;fill-rule:evenodd;stroke:none"
       transform="matrix(0.13333333,0,0,-0.13333333,0,264.76)" />
    <g
       id="g34"
       aria-label="●&#10;●&#10;●&#10;●&#10;u&#10;7&#10;u&#10;8&#10;u&#10;1&#10;u&#10;2&#10;u&#10;5&#10;u&#10;6&#10;u&#10;3&#10;u&#10;4"
       transform="matrix(1.3333333,0,0,1.3333333,92.966667,58.46)">
      <path
         id="path35"
         d="M 0.56113281,7.03125e-4 V -6.4914844 H 3.9361328 V 7.03125e-4 Z M 1.1236328,-0.56179688 h 2.25 V -5.9289844 h -2.25 z M 0.26230469,103.19895 V 96.706758 H 3.6373047 v 6.492192 z m 0.5625,-0.5625 H 3.0748047 V 97.269258 H 0.82480469 Z M 160.56309,-0.30105469 V -6.7932422 h 3.375 v 6.49218751 z m 0.5625,-0.5625 h 2.25 V -6.2307422 h -2.25 z M 160.56309,103.19895 v -6.492192 h 3.375 v 6.492192 z m 0.5625,-0.5625 h 2.25 v -5.367192 h -2.25 z m 0,0"
         style="fill:#231f20;fill-opacity:1;fill-rule:nonzero;stroke:none" />
      <path
         id="path36"
         d="m 30.991797,-14.536406 c -0.421875,0.527343 -0.539063,0.632812 -0.667969,0.632812 -0.05859,0 -0.08203,-0.04687 -0.08203,-0.140625 0,-0.04687 0,-0.04687 0.152344,-0.621094 l 0.632812,-2.390625 h -0.597656 c -0.433594,1.183594 -0.515625,1.382813 -0.878906,1.957032 -0.480469,0.75 -0.878907,1.160156 -1.125,1.160156 -0.105469,0 -0.175782,-0.08203 -0.175782,-0.199219 0,-0.02344 0,-0.04687 0.01172,-0.07031 l 0.726563,-2.90625 -0.02344,-0.01172 c -0.46875,0.105469 -0.761719,0.152344 -1.195312,0.210937 v 0.117188 c 0.316406,0 0.316406,0 0.398437,0.04687 0.03516,0.01172 0.08203,0.08203 0.08203,0.140625 0,0.07031 -0.04687,0.269531 -0.117187,0.539062 l -0.292969,1.136719 c -0.152344,0.585938 -0.199219,0.84375 -0.199219,0.984375 0,0.292969 0.140625,0.445313 0.421875,0.445313 0.5625,0 0.996094,-0.433594 1.910157,-1.980469 -0.234375,0.867187 -0.363282,1.394531 -0.363282,1.570312 0,0.257813 0.152344,0.386719 0.386719,0.386719 0.375,0 0.550781,-0.152344 1.101563,-0.9375 z m 6.708984,-1.3125 -0.04687,-0.08203 h -3 l -0.65625,1.089844 0.117188,0.07031 c 0.363281,-0.445313 0.585937,-0.5625 1.066406,-0.574219 h 1.769531 l 0.02344,0.02344 -2.941406,4.78125 h 0.5625 z M 14.691016,-32.137969 c -0.421875,0.527344 -0.539063,0.632813 -0.667969,0.632813 -0.05859,0 -0.08203,-0.04687 -0.08203,-0.140625 0,-0.04687 0,-0.04687 0.152343,-0.621094 l 0.632813,-2.390625 h -0.597656 c -0.433594,1.183594 -0.515625,1.382812 -0.878907,1.957031 -0.480468,0.75 -0.878906,1.160156 -1.125,1.160156 -0.105468,0 -0.175781,-0.08203 -0.175781,-0.199218 0,-0.02344 0,-0.04687 0.01172,-0.07031 l 0.726562,-2.90625 -0.02344,-0.01172 c -0.46875,0.105469 -0.761719,0.152344 -1.195313,0.210938 v 0.117187 c 0.316407,0 0.316407,0 0.398438,0.04687 0.03516,0.01172 0.08203,0.08203 0.08203,0.140625 0,0.07031 -0.04687,0.269532 -0.117187,0.539063 l -0.292969,1.136719 c -0.152344,0.585937 -0.199219,0.84375 -0.199219,0.984375 0,0.292968 0.140625,0.445312 0.421875,0.445312 0.5625,0 0.996094,-0.433594 1.910156,-1.980469 -0.234375,0.867188 -0.363281,1.394532 -0.363281,1.570313 0,0.257812 0.152344,0.386719 0.386719,0.386719 0.375,0 0.550781,-0.152344 1.101562,-0.9375 z m 5.044922,0.878906 c 0.949218,-0.316406 1.3125,-0.65625 1.3125,-1.21875 0,-0.667968 -0.585938,-1.136718 -1.40625,-1.136718 -0.855469,0 -1.441407,0.492187 -1.441407,1.207031 0,0.433594 0.164063,0.738281 0.703125,1.324219 -1.007812,0.316406 -1.570312,0.890625 -1.570312,1.59375 0,0.210937 0.07031,0.457031 0.1875,0.65625 0.269531,0.457031 0.75,0.691406 1.40625,0.691406 0.996094,0 1.722656,-0.621094 1.722656,-1.441406 0,-0.539063 -0.234375,-0.972657 -0.914062,-1.675782 z m -0.65625,0.304688 c 0.878906,0.914062 0.972656,1.054687 0.972656,1.511719 0,0.644531 -0.457031,1.125 -1.089844,1.125 -0.632812,0 -1.078125,-0.46875 -1.078125,-1.125 0,-0.667969 0.433594,-1.21875 1.195313,-1.511719 z m 0.503906,-0.445313 c -0.621094,-0.585937 -0.75,-0.785156 -0.75,-1.125 0,-0.5625 0.292969,-0.902343 0.808594,-0.902343 0.515625,0 0.855468,0.375 0.855468,0.949218 0,0.503907 -0.210937,0.75 -0.914062,1.078125 z m 5.408203,123.260743 c -0.421875,0.527343 -0.539063,0.632812 -0.667969,0.632812 -0.05859,0 -0.08203,-0.04687 -0.08203,-0.140625 0,-0.04687 0,-0.04687 0.152344,-0.621094 l 0.632812,-2.390625 h -0.597656 c -0.433594,1.183594 -0.515625,1.382813 -0.878906,1.957032 -0.480469,0.75 -0.878907,1.160156 -1.125,1.160156 -0.105469,0 -0.175782,-0.08203 -0.175782,-0.199219 0,-0.02344 0,-0.04687 0.01172,-0.07031 l 0.726563,-2.90625 -0.02344,-0.01172 c -0.46875,0.105469 -0.761719,0.152344 -1.195312,0.210937 v 0.117188 c 0.316406,0 0.316406,0 0.398437,0.04687 0.03516,0.01172 0.08203,0.08203 0.08203,0.140625 0,0.07031 -0.04687,0.269531 -0.117187,0.539062 l -0.292969,1.136719 c -0.152344,0.585938 -0.199219,0.84375 -0.199219,0.984375 0,0.292969 0.140625,0.445313 0.421875,0.445313 0.5625,0 0.996094,-0.433594 1.910157,-1.980469 -0.234375,0.867187 -0.363282,1.394531 -0.363282,1.570312 0,0.257813 0.152344,0.386719 0.386719,0.386719 0.375,0 0.550781,-0.152344 1.101563,-0.9375 z m 2.695312,3.9375 h 2.238282 v -0.117188 h -0.140625 c -0.386719,0 -0.550782,-0.07031 -0.550782,-0.257812 0,-0.07031 0.02344,-0.1875 0.09375,-0.421875 0.02344,-0.04687 0.03516,-0.09375 0.05859,-0.175782 l 1.136719,-4.148437 c 0.04687,-0.140625 0.04687,-0.199219 0.04687,-0.234375 0,-0.03516 -0.01172,-0.05859 -0.03516,-0.05859 0,0 -0.222657,0.04687 -0.65625,0.128906 l -0.726563,0.152344 c -0.01172,0 -0.07031,0.01172 -0.164062,0.02344 v 0.117187 l 0.457031,-0.01172 c 0.1875,-0.01172 0.304687,0.09375 0.304687,0.246094 0,0.05859 -0.01172,0.117188 -0.05859,0.28125 l -1.101563,3.9375 c -0.09375,0.292969 -0.269531,0.375 -0.902344,0.421875 z M 14.09043,73.761445 c -0.421875,0.527344 -0.539063,0.632813 -0.667969,0.632813 -0.05859,0 -0.08203,-0.04687 -0.08203,-0.140625 0,-0.04687 0,-0.04687 0.152343,-0.621094 l 0.632813,-2.390625 H 13.52793 c -0.433594,1.183594 -0.515625,1.382813 -0.878907,1.957031 -0.480468,0.75 -0.878906,1.160157 -1.125,1.160157 -0.105468,0 -0.175781,-0.08203 -0.175781,-0.199219 0,-0.02344 0,-0.04687 0.01172,-0.07031 l 0.726562,-2.90625 -0.02344,-0.01172 c -0.46875,0.105468 -0.761719,0.152343 -1.195313,0.210937 v 0.117188 c 0.316407,0 0.316407,0 0.398438,0.04687 0.03516,0.01172 0.08203,0.08203 0.08203,0.140625 0,0.07031 -0.04687,0.269531 -0.117187,0.539062 l -0.292969,1.136719 c -0.152344,0.585937 -0.199219,0.84375 -0.199219,0.984375 0,0.292969 0.140625,0.445312 0.421875,0.445312 0.5625,0 0.996094,-0.433593 1.910156,-1.980468 -0.234375,0.867187 -0.363281,1.394531 -0.363281,1.570312 0,0.257813 0.152344,0.386719 0.386719,0.386719 0.375,0 0.550781,-0.152344 1.101562,-0.9375 z m 5.507812,2.824219 c -0.1875,0.398438 -0.339844,0.492188 -0.785156,0.503906 h -1.523438 v -0.03516 l 1.535157,-1.535156 c 0.9375,-0.9375 1.195312,-1.347656 1.195312,-1.875 0,-0.761719 -0.574219,-1.359375 -1.300781,-1.359375 -0.292969,0 -0.585938,0.07031 -0.820313,0.210937 -0.410156,0.222657 -0.632812,0.492188 -0.855468,1.078125 l 0.164062,0.04687 c 0.292969,-0.515625 0.644531,-0.75 1.125,-0.75 0.574219,0 0.996094,0.421875 0.996094,0.972657 0,0.175781 -0.02344,0.328125 -0.07031,0.433593 -0.199218,0.433594 -0.5625,0.9375 -1.078125,1.488282 l -1.6875,1.792968 v 0.140625 h 2.847657 L 19.73887,76.644249 Z M 189.69004,-11.237578 c -0.42188,0.527344 -0.53906,0.632812 -0.66797,0.632812 -0.0586,0 -0.082,-0.04687 -0.082,-0.140625 0,-0.04687 0,-0.04687 0.15234,-0.621093 l 0.63282,-2.390625 h -0.59766 c -0.43359,1.183593 -0.51563,1.382812 -0.87891,1.957031 -0.48047,0.75 -0.8789,1.160156 -1.125,1.160156 -0.10547,0 -0.17578,-0.08203 -0.17578,-0.199219 0,-0.02344 0,-0.04687 0.0117,-0.07031 l 0.72656,-2.90625 -0.0234,-0.01172 c -0.46875,0.105469 -0.76172,0.152344 -1.19532,0.210938 v 0.117187 c 0.31641,0 0.31641,0 0.39844,0.04687 0.0352,0.01172 0.082,0.08203 0.082,0.140625 0,0.07031 -0.0469,0.269531 -0.11719,0.539063 l -0.29296,1.136718 c -0.15235,0.585938 -0.19922,0.84375 -0.19922,0.984375 0,0.292969 0.14062,0.445313 0.42187,0.445313 0.5625,0 0.9961,-0.433594 1.91016,-1.980469 -0.23438,0.867188 -0.36328,1.394531 -0.36328,1.570313 0,0.257812 0.15234,0.386718 0.38672,0.386718 0.375,0 0.55078,-0.152343 1.10156,-0.9375 z m 4.21875,-0.820313 h 1.83984 l 0.17578,-0.574218 h -2.03906 l -0.84375,1.746093 v 0.117188 c 0.78516,0.175781 1.04297,0.269531 1.33594,0.503906 0.25781,0.199219 0.42187,0.6093751 0.42187,1.0312501 0,0.8671875 -0.64453,1.6523438 -1.37109,1.6523438 -0.16406,0 -0.30469,-0.058594 -0.53906,-0.234375 -0.19922,-0.1523438 -0.32813,-0.1992188 -0.44531,-0.1992188 -0.1875,0 -0.32813,0.1289063 -0.32813,0.3164063 0,0.28125 0.31641,0.4570312 0.85547,0.4570312 1.3125,0 2.37891,-1.03125 2.37891,-2.296875 0,-0.5039066 -0.1875,-0.9257816 -0.52735,-1.2539066 -0.30469,-0.28125 -0.58594,-0.410156 -1.23047,-0.5625 z m -21.01758,-16.379882 c -0.42187,0.527343 -0.53906,0.632812 -0.66797,0.632812 -0.0586,0 -0.082,-0.04687 -0.082,-0.140625 0,-0.04687 0,-0.04687 0.15234,-0.621094 l 0.63282,-2.390625 h -0.59766 c -0.43359,1.183594 -0.51562,1.382813 -0.87891,1.957032 -0.48046,0.75 -0.8789,1.160156 -1.125,1.160156 -0.10546,0 -0.17578,-0.08203 -0.17578,-0.199219 0,-0.02344 0,-0.04687 0.0117,-0.07031 l 0.72656,-2.90625 -0.0234,-0.01172 c -0.46875,0.105469 -0.76172,0.152344 -1.19532,0.210937 v 0.117188 c 0.31641,0 0.31641,0 0.39844,0.04687 0.0352,0.01172 0.082,0.08203 0.082,0.140625 0,0.07031 -0.0469,0.269531 -0.11718,0.539062 l -0.29297,1.136719 c -0.15235,0.585938 -0.19922,0.84375 -0.19922,0.984375 0,0.292969 0.14062,0.445313 0.42187,0.445313 0.5625,0 0.9961,-0.433594 1.91016,-1.980469 -0.23438,0.867187 -0.36328,1.394531 -0.36328,1.570312 0,0.257813 0.15234,0.386719 0.38672,0.386719 0.375,0 0.55078,-0.152344 1.10156,-0.9375 z m 6.46875,-1.558594 c -1.06641,0.128906 -1.60547,0.328125 -2.29687,0.832031 -1.00782,0.75 -1.62891,1.886719 -1.62891,3.035156 0,1.019532 0.58594,1.6875 1.46484,1.6875 1.07813,0 1.99219,-1.019531 1.99219,-2.226562 0,-0.820313 -0.57422,-1.40625 -1.35937,-1.40625 -0.22266,0 -0.49219,0.05859 -0.70313,0.164062 l -0.0352,-0.01172 c 0.55079,-1.019532 1.64063,-1.828125 2.57813,-1.945313 z m -2.08594,2.203125 c 0.55078,0 0.90235,0.398437 0.90235,1.019531 0,0.539063 -0.1875,1.171875 -0.49219,1.59375 -0.23438,0.363281 -0.51563,0.527344 -0.85547,0.527344 -0.49219,0 -0.78516,-0.386719 -0.78516,-1.042969 0,-0.550781 0.16407,-1.21875 0.375,-1.570312 0.21094,-0.363282 0.48047,-0.527344 0.85547,-0.527344 z M 189.9918,91.661836 c -0.42188,0.527344 -0.53907,0.632812 -0.66797,0.632812 -0.0586,0 -0.082,-0.04687 -0.082,-0.140625 0,-0.04687 0,-0.04687 0.15234,-0.621093 l 0.63281,-2.390625 h -0.59765 c -0.4336,1.183593 -0.51563,1.382812 -0.87891,1.957031 -0.48047,0.75 -0.87891,1.160156 -1.125,1.160156 -0.10547,0 -0.17578,-0.08203 -0.17578,-0.199219 0,-0.02344 0,-0.04687 0.0117,-0.07031 l 0.72656,-2.90625 -0.0234,-0.01172 c -0.46875,0.105469 -0.76172,0.152344 -1.19531,0.210938 v 0.117187 c 0.31641,0 0.31641,0 0.39844,0.04687 0.0352,0.01172 0.082,0.08203 0.082,0.140625 0,0.07031 -0.0469,0.269531 -0.11719,0.539063 l -0.29297,1.136718 c -0.15234,0.585938 -0.19922,0.84375 -0.19922,0.984375 0,0.292969 0.14063,0.445313 0.42188,0.445313 0.5625,0 0.99609,-0.433594 1.91016,-1.980469 -0.23438,0.867188 -0.36329,1.394531 -0.36329,1.570313 0,0.257812 0.15235,0.386718 0.38672,0.386718 0.375,0 0.55078,-0.152343 1.10157,-0.9375 z m 3.73828,-0.597656 c 0.26953,-0.375 0.55078,-0.539063 0.8789,-0.539063 0.4336,0 0.71485,0.292969 0.71485,0.726563 0,0.339843 -0.16406,0.621093 -0.51563,0.855468 -0.33984,0.234375 -0.67968,0.351563 -1.39453,0.480469 l 0.0117,0.117188 c 0.44531,0 0.52734,0.01172 0.72656,0.08203 0.49219,0.1875 0.75,0.621094 0.75,1.253906 0,0.28125 -0.0586,0.574219 -0.17578,0.761719 -0.1875,0.328125 -0.53906,0.550781 -0.86719,0.550781 -0.15234,0 -0.33984,-0.08203 -0.57421,-0.257812 -0.23438,-0.164063 -0.36329,-0.222657 -0.51563,-0.222657 -0.22266,0 -0.35156,0.105469 -0.35156,0.304688 0,0.304687 0.32812,0.480469 0.90234,0.480469 0.44531,0 0.86719,-0.105469 1.19531,-0.292969 0.6211,-0.375 1.03125,-1.042969 1.03125,-1.757813 0,-0.585937 -0.23437,-0.949218 -0.76171,-1.195312 v -0.02344 c 0.96093,-0.375 1.24218,-0.644531 1.24218,-1.183593 0,-0.585938 -0.48047,-1.019532 -1.125,-1.019532 -0.55078,0 -1.04297,0.316407 -1.30078,0.832032 z M 176.69102,74.461641 c -0.42188,0.527343 -0.53907,0.632812 -0.66797,0.632812 -0.0586,0 -0.082,-0.04687 -0.082,-0.140625 0,-0.04687 0,-0.04687 0.15234,-0.621094 l 0.63281,-2.390625 h -0.59765 c -0.4336,1.183594 -0.51563,1.382813 -0.87891,1.957032 -0.48047,0.75 -0.87891,1.160156 -1.125,1.160156 -0.10547,0 -0.17578,-0.08203 -0.17578,-0.199219 0,-0.02344 0,-0.04687 0.0117,-0.07031 l 0.72656,-2.90625 -0.0234,-0.01172 c -0.46875,0.105469 -0.76172,0.152344 -1.19531,0.210937 v 0.117188 c 0.31641,0 0.31641,0 0.39844,0.04687 0.0351,0.01172 0.082,0.08203 0.082,0.140625 0,0.07031 -0.0469,0.269531 -0.11719,0.539062 l -0.29297,1.136719 c -0.15234,0.585938 -0.19922,0.84375 -0.19922,0.984375 0,0.292969 0.14063,0.445313 0.42188,0.445313 0.5625,0 0.99609,-0.433594 1.91015,-1.980469 -0.23437,0.867187 -0.36328,1.394531 -0.36328,1.570312 0,0.257813 0.15235,0.386719 0.38672,0.386719 0.375,0 0.55078,-0.152344 1.10156,-0.9375 z m 5.92968,2.003906 h -0.75 l 0.96094,-3.480469 h -0.32812 l -3.33985,3.457031 -0.15234,0.527344 h 2.09765 l -0.39843,1.429688 h 0.63281 l 0.375,-1.40625 h 0.79687 z m -1.40625,0 h -1.69922 v -0.02344 l 2.4375,-2.554687 h 0.0352 z m 0,0"
         style="fill:#231f20;fill-opacity:1;fill-rule:nonzero;stroke:none" />
    </g>
  </g>
</svg>
