<?xml version="1.0" encoding="UTF-8" standalone="no"?>
<!-- Created with Inkscape (http://www.inkscape.org/) -->

<svg
   version="1.1"
   id="svg1"
   width="329.12"
   height="217.38667"
   viewBox="0 0 329.12 217.38667"
   sodipodi:docname="SOLI8E.EPS"
   xmlns:inkscape="http://www.inkscape.org/namespaces/inkscape"
   xmlns:sodipodi="http://sodipodi.sourceforge.net/DTD/sodipodi-0.dtd"
   xmlns="http://www.w3.org/2000/svg"
   xmlns:svg="http://www.w3.org/2000/svg">
  <defs
     id="defs1" />
  <sodipodi:namedview
     id="namedview1"
     pagecolor="#ffffff"
     bordercolor="#000000"
     borderopacity="0.25"
     inkscape:showpageshadow="2"
     inkscape:pageopacity="0.0"
     inkscape:pagecheckerboard="0"
     inkscape:deskcolor="#d1d1d1">
    <inkscape:page
       x="0"
       y="0"
       inkscape:label="1"
       id="page1"
       width="329.12"
       height="217.38667"
       margin="0"
       bleed="0" />
  </sodipodi:namedview>
  <g
     id="g1"
     inkscape:groupmode="layer"
     inkscape:label="1">
    <path
       id="path1"
       d="M 0.97402344,-3.7034766 C 1.2083984,-4.3011328 1.3958984,-4.4300391 1.9466797,-4.4183203 h 1.7460937 l -3.71484371,4.46484374 0.10546875,0.10546875 c 0.19921875,-0.1523437525 0.3515625,-0.2109375 0.5390625,-0.2109375 0.31640625,0 0.70312496,0.15234375 1.26562496,0.50390625 0.5976563,0.375 0.9960938,0.52734375 1.3359375,0.52734375 0.609375,0 1.1367188,-0.43359375 1.1367188,-0.9140625 0,-0.2578125 -0.1757813,-0.43359375 -0.421875,-0.43359375 -0.2460938,0 -0.4101563,0.1640625 -0.4101563,0.38671875 0,0.09375 0.035156,0.19921875 0.1054688,0.3515625 0.035156,0.0703125 0.058594,0.140625 0.058594,0.17578125 0,0.10546875 -0.1289062,0.17578125 -0.3164062,0.17578125 -0.3046875,0 -0.4453125,-0.10546875 -0.84375,-0.59765625 -0.5273438,-0.6796875 -0.75,-0.83203125 -1.453125,-0.99609375 L 4.5599609,-5.0042578 V -5.1331641 H 1.1498047 L 0.78652344,-3.7620703 Z M 117.22695,-13.13707 c -0.10547,0.117187 -0.16406,0.1875 -0.26953,0.328125 -0.26953,0.363281 -0.42187,0.480468 -0.5625,0.480468 -0.16406,0 -0.28125,-0.152343 -0.36328,-0.492187 -0.0352,-0.128906 -0.0352,-0.152344 -0.0469,-0.1875 -0.29297,-1.230469 -0.4336,-1.78125 -0.4336,-1.957031 0.53906,-0.9375 0.96094,-1.453125 1.1836,-1.453125 0.0703,0 0.17578,0.03516 0.28125,0.09375 0.15234,0.08203 0.23437,0.105468 0.33984,0.105468 0.23437,0 0.41016,-0.175781 0.41016,-0.433593 0,-0.257813 -0.21094,-0.445313 -0.49219,-0.445313 -0.52735,0 -0.97266,0.433594 -1.81641,1.722656 l -0.1289,-0.65625 c -0.16407,-0.820312 -0.30469,-1.066406 -0.6211,-1.066406 -0.28125,0 -0.66797,0.105469 -1.40625,0.351563 -0.0703,0.02344 -0.0703,0.02344 -0.1289,0.04687 l 0.0469,0.1875 c 0.46875,-0.128907 0.55078,-0.140625 0.66797,-0.140625 0.30469,0 0.375,0.117187 0.53906,0.832031 l 0.35156,1.476562 -0.98437,1.40625 c -0.25781,0.351563 -0.48047,0.574219 -0.60938,0.574219 -0.082,0 -0.19921,-0.03516 -0.3164,-0.105469 -0.15235,-0.09375 -0.28125,-0.128906 -0.38672,-0.128906 -0.23438,0 -0.41016,0.1875 -0.41016,0.421875 0,0.316406 0.23438,0.503906 0.60938,0.503906 0.36328,0 0.51562,-0.105468 1.11328,-0.820312 0.31641,-0.398438 0.58594,-0.761719 1.07812,-1.417969 l 0.36329,1.441406 c 0.15234,0.621094 0.30468,0.796875 0.6914,0.796875 0.45703,0 0.77344,-0.28125 1.46485,-1.359375 z M 32.274805,-96.905625 c 0.152343,-0.03516 0.246093,-0.04687 0.375,-0.04687 0.492187,0 0.726562,0.199219 0.960937,0.84375 0.328125,0.890625 0.949219,3.457031 0.949219,3.914063 0,0.1875 -0.08203,0.386718 -0.257813,0.609375 -0.328125,0.445312 -0.609375,0.785156 -0.75,0.9375 -0.257812,0.257812 -0.386718,0.363281 -0.539062,0.363281 -0.08203,0 -0.152344,-0.03516 -0.292969,-0.140625 -0.175781,-0.140625 -0.292969,-0.199219 -0.445312,-0.199219 -0.257813,0 -0.46875,0.199219 -0.46875,0.46875 0,0.316406 0.257812,0.527344 0.621093,0.527344 0.761719,0 2.320313,-1.792969 3.632813,-4.171875 0.820312,-1.476563 1.148437,-2.34375 1.148437,-2.929688 0,-0.363281 -0.292968,-0.667968 -0.65625,-0.667968 -0.28125,0 -0.46875,0.1875 -0.46875,0.445312 0,0.199219 0.09375,0.316406 0.339844,0.46875 0.222656,0.140625 0.304688,0.246094 0.304688,0.410156 0,0.480469 -0.433594,1.40625 -1.464844,3.105469 l -0.234375,-1.394531 c -0.1875,-1.066406 -0.855469,-3.035156 -1.03125,-3.035156 h -0.04687 c -0.02344,0.01172 -0.05859,0.01172 -0.117188,0.01172 -0.09375,0.01172 -0.539062,0.09375 -1.171875,0.210938 -0.05859,0.01172 -0.210937,0.04687 -0.386718,0.07031 z m 0,0"
       style="fill:#231f20;fill-opacity:1;fill-rule:nonzero;stroke:none"
       aria-label="z&#10;x&#10;y"
       transform="matrix(1.3333333,0,0,1.3333333,4.0333333,208.02)" />
    <path
       id="path2"
       d="m 485.25,310.25 -372,-289"
       style="fill:none;stroke:#231f20;stroke-width:2.5;stroke-linecap:butt;stroke-linejoin:miter;stroke-miterlimit:3.8637;stroke-dasharray:none;stroke-opacity:1"
       transform="matrix(0.13333333,0,0,-0.13333333,0,217.38667)" />
    <path
       id="path3"
       d="m 115.25,23.25 10,-12 -39,-11 20,35 9,-12"
       style="fill:#231f20;fill-opacity:1;fill-rule:evenodd;stroke:none"
       transform="matrix(0.13333333,0,0,-0.13333333,0,217.38667)" />
    <path
       id="path4"
       d="m 485.25,1024.25 v -714"
       style="fill:none;stroke:#231f20;stroke-width:2.5;stroke-linecap:butt;stroke-linejoin:miter;stroke-miterlimit:3.8637;stroke-dasharray:none;stroke-opacity:1"
       transform="matrix(0.13333333,0,0,-0.13333333,0,217.38667)" />
    <path
       id="path5"
       d="m 485.25,1022.25 h -15 l 15,37 15,-37 h -15"
       style="fill:#231f20;fill-opacity:1;fill-rule:evenodd;stroke:none"
       transform="matrix(0.13333333,0,0,-0.13333333,0,217.38667)" />
    <path
       id="path6"
       d="m 485.25,310.25 h 714"
       style="fill:none;stroke:#231f20;stroke-width:2.5;stroke-linecap:butt;stroke-linejoin:miter;stroke-miterlimit:3.8637;stroke-dasharray:none;stroke-opacity:1"
       transform="matrix(0.13333333,0,0,-0.13333333,0,217.38667)" />
    <path
       id="path7"
       d="m 1197.25,310.25 v 15 l 37,-15 -37,-15 v 15"
       style="fill:#231f20;fill-opacity:1;fill-rule:evenodd;stroke:none"
       transform="matrix(0.13333333,0,0,-0.13333333,0,217.38667)" />
    <g
       id="g7"
       aria-label="2&#10;3&#10;4&#10;6&#10;7&#10;8&#10;5&#10;(x&#10;1&#10;,y&#10;1&#10;,z&#10;1&#10;)&#10;●&#10;●&#10;●&#10;●"
       transform="matrix(1.3333333,0,0,1.3333333,285.1,140.82)">
      <path
         id="path8"
         d="M 6.0714844,-1.0427344 H 1.5949219 c 0.1054687,-0.7265625 0.4921875,-1.171875 1.5351562,-1.8164062 l 1.2070313,-0.6679688 c 1.1835937,-0.65625 1.7929687,-1.546875 1.7929687,-2.6132812 0,-0.7265625 -0.28125,-1.3945313 -0.7851562,-1.8632813 -0.5039063,-0.4570312 -1.1367188,-0.6679687 -1.9335938,-0.6679687 -1.078125,0 -1.8867187,0.375 -2.3554687,1.125 -0.29296878,0.4570312 -0.43359378,0.9960937 -0.45703128,1.875 H 1.6535156 c 0.035156,-0.5976563 0.1171875,-0.9375 0.2578125,-1.2304688 0.2695313,-0.5273437 0.8203125,-0.8554687 1.4648438,-0.8554687 0.9609375,0 1.6757812,0.703125 1.6757812,1.640625 0,0.6914062 -0.3984375,1.2890625 -1.1484375,1.7226562 l -1.1015625,0.65625 c -1.78125,1.0195313 -2.29687498,1.828125 -2.39062498,3.72656253 H 6.0714844 Z M -31.750781,-77.695078 h 0.574218 c 1.160157,0 1.769532,0.539062 1.769532,1.582031 0,1.089844 -0.65625,1.757813 -1.757813,1.757813 -1.160156,0 -1.722656,-0.585938 -1.792969,-1.863282 H -34.0125 c 0.04687,0.691407 0.164062,1.148438 0.375,1.535157 0.433594,0.84375 1.265625,1.265625 2.425781,1.265625 1.757813,0 2.882813,-1.066407 2.882813,-2.707032 0,-1.101562 -0.421875,-1.699218 -1.441407,-2.0625 0.796875,-0.328125 1.195313,-0.925781 1.195313,-1.804687 0,-1.488281 -0.972656,-2.378906 -2.601563,-2.378906 -1.710937,0 -2.625,0.960937 -2.660156,2.789062 h 1.054688 c 0.01172,-0.527344 0.05859,-0.820312 0.199218,-1.089844 0.234375,-0.492187 0.761719,-0.785156 1.417969,-0.785156 0.9375,0 1.5,0.574219 1.5,1.5 0,0.621094 -0.210937,0.984375 -0.679687,1.195313 -0.28125,0.117187 -0.667969,0.164062 -1.40625,0.175781 z m -90.922849,-5.103516 v 2.097657 h 1.05468 v -2.097657 h 1.25391 v -0.949218 h -1.25391 v -5.625 h -0.78515 l -3.85547,5.460937 v 1.113281 z m 0,-0.949218 h -2.66016 l 2.66016,-3.832032 z m 103.649411,104.625 c -0.199219,-1.417969 -1.113281,-2.25 -2.414062,-2.25 -0.9375,0 -1.769532,0.457031 -2.273438,1.230468 -0.550781,0.855469 -0.773437,1.910157 -0.773437,3.480469 0,1.464844 0.199218,2.390625 0.714843,3.152344 0.457032,0.714844 1.207032,1.089844 2.144532,1.089844 1.617187,0 2.777343,-1.21875 2.777343,-2.90625 0,-1.59375 -1.078125,-2.730469 -2.601562,-2.730469 -0.84375,0 -1.5,0.316406 -1.957031,0.949219 0.01172,-2.144532 0.691406,-3.328125 1.898437,-3.328125 0.738281,0 1.265625,0.46875 1.429688,1.3125 z m -2.554687,2.003906 c 1.019531,0 1.652343,0.726562 1.652343,1.875 0,1.089844 -0.714843,1.886719 -1.6875,1.886719 -0.984375,0 -1.734375,-0.832032 -1.734375,-1.933594 0,-1.078125 0.726563,-1.828125 1.769532,-1.828125 z M -40.366992,-63.70875 h -5.683594 v 1.042969 h 4.59375 c -2.027344,2.894531 -2.847656,4.664062 -3.492187,7.464844 h 1.136718 c 0.46875,-2.71875 1.535157,-5.0625 3.445313,-7.617188 z m -99.046878,-10.060547 c 0.89063,-0.539062 1.17188,-0.972656 1.17188,-1.792969 0,-1.359375 -1.04297,-2.308593 -2.55469,-2.308593 -1.5,0 -2.56641,0.949218 -2.56641,2.296875 0,0.832031 0.28125,1.253906 1.16016,1.804687 -0.97266,0.492188 -1.45312,1.195313 -1.45312,2.15625 0,1.582031 1.16015,2.695313 2.85937,2.695313 1.67578,0 2.84766,-1.113282 2.84766,-2.695313 0,-0.960937 -0.48047,-1.664062 -1.46485,-2.15625 z m -1.38281,-3.164062 c 0.89063,0 1.47656,0.539062 1.47656,1.394531 0,0.820312 -0.59765,1.359375 -1.47656,1.359375 -0.90234,0 -1.47656,-0.539063 -1.47656,-1.382813 0,-0.832031 0.57422,-1.371093 1.47656,-1.371093 z m 0,3.644531 c 1.05469,0 1.76953,0.691406 1.76953,1.699219 0,1.042968 -0.70312,1.734375 -1.79297,1.734375 -1.04297,0 -1.75781,-0.714844 -1.75781,-1.722657 0,-1.03125 0.70313,-1.710937 1.78125,-1.710937 z m 0.003,78.0820311 h -4.38281 l -0.64453,4.6289063 h 0.97265 c 0.49219,-0.5859375 0.90235,-0.7851563 1.57031,-0.7851563 1.14844,0 1.85157,0.7734375 1.85157,2.0390629 0,1.21875 -0.70313,1.96875 -1.86328,1.96875 -0.91407,0 -1.48829,-0.46875 -1.73438,-1.429688 h -1.05469 c 0.14063,0.691406 0.25782,1.03125 0.51563,1.347656 0.48047,0.644532 1.34765,1.019532 2.29687,1.019532 1.72266,0 2.91797,-1.253907 2.91797,-3.058594 0,-1.6757814 -1.11328,-2.8242189 -2.74219,-2.8242189 -0.59765,0 -1.07812,0.1523438 -1.57031,0.515625 l 0.32813,-2.3789062 h 3.53906 z m 0,0"
         style="fill:#231f20;fill-opacity:1;fill-rule:nonzero;stroke:none" />
      <path
         id="path9"
         d="m -112.58965,-6.1023047 c -0.44531,-1.21875 -0.57422,-1.9570312 -0.57422,-3.1171875 0,-1.4531248 0.32813,-3.1640628 0.89063,-4.4999998 0.39844,-0.949219 0.77344,-1.511719 1.55859,-2.332031 l -0.16406,-0.175782 c -1.55859,1.417969 -2.16797,2.203125 -2.67188,3.457032 -0.3164,0.75 -0.44531,1.488281 -0.44531,2.414062 0,0.9257813 0.14063,1.8164063 0.41016,2.6484376 0.16406,0.5039062 0.35156,0.890625 0.77344,1.6757812 z m 6.91406,-3.4335937 c -0.10546,0.1171875 -0.16406,0.1875 -0.26953,0.328125 -0.26953,0.3632812 -0.42187,0.4804687 -0.5625,0.4804687 -0.16406,0 -0.28125,-0.1523437 -0.36328,-0.4921875 -0.0351,-0.1289062 -0.0351,-0.1523437 -0.0469,-0.1875 -0.29297,-1.2304688 -0.4336,-1.7812498 -0.4336,-1.9570308 0.53907,-0.9375 0.96094,-1.453125 1.1836,-1.453125 0.0703,0 0.17578,0.03516 0.28125,0.09375 0.15234,0.08203 0.23437,0.105468 0.33984,0.105468 0.23438,0 0.41016,-0.175781 0.41016,-0.433593 0,-0.257813 -0.21094,-0.445313 -0.49219,-0.445313 -0.52734,0 -0.97266,0.433594 -1.81641,1.722656 l -0.1289,-0.65625 c -0.16407,-0.820312 -0.30469,-1.066406 -0.6211,-1.066406 -0.28125,0 -0.66797,0.105469 -1.40625,0.351563 -0.0703,0.02344 -0.0703,0.02344 -0.1289,0.04687 l 0.0469,0.1875 c 0.46875,-0.128907 0.55078,-0.140625 0.66797,-0.140625 0.30469,0 0.375,0.117187 0.53906,0.832031 l 0.35157,1.476562 -0.98438,1.4062503 c -0.25781,0.3515625 -0.48047,0.5742188 -0.60937,0.5742188 -0.082,0 -0.19922,-0.035156 -0.31641,-0.1054688 -0.15234,-0.09375 -0.28125,-0.1289062 -0.38672,-0.1289062 -0.23437,0 -0.41016,0.1875 -0.41016,0.421875 0,0.3164062 0.23438,0.5039062 0.60938,0.5039062 0.36328,0 0.51562,-0.1054687 1.11328,-0.8203125 0.31641,-0.3984375 0.58594,-0.7617187 1.07813,-1.4179688 l 0.36328,1.4414063 c 0.15234,0.6210938 0.30468,0.796875 0.6914,0.796875 0.45703,0 0.77344,-0.28125 1.46485,-1.359375 z m 1.06055,4.3359375 h 3.35156 v -0.1757813 h -0.21093 c -0.58594,0 -0.82032,-0.1171875 -0.82032,-0.3867187 0,-0.1054688 0.0352,-0.2929688 0.14063,-0.6210938 0.0234,-0.09375 0.0352,-0.1523437 0.0703,-0.2695312 l 1.72266,-6.2226561 c 0.0586,-0.222656 0.0703,-0.292969 0.0703,-0.351563 0,-0.04687 -0.0234,-0.08203 -0.0586,-0.08203 0,0 -0.33985,0.05859 -0.98438,0.1875 l -1.07812,0.222656 c -0.0234,0.01172 -0.11719,0.02344 -0.25782,0.04687 v 0.175782 l 0.67969,-0.02344 c 0.28125,-0.01172 0.45703,0.128906 0.45703,0.375 0,0.08203 -0.0234,0.164063 -0.082,0.410156 l -1.65234,5.8945316 c -0.14063,0.4453125 -0.39844,0.5625 -1.34766,0.65625 z m 3.47461,-1.453125 c 1.01953,-0.5625 1.558594,-1.2304688 1.558594,-1.9101563 0,-0.4804687 -0.292969,-0.84375 -0.691404,-0.84375 -0.35156,0 -0.60938,0.234375 -0.60938,0.5507813 0,0.2226562 0.0703,0.3398437 0.29297,0.5507812 0.1875,0.1640625 0.2461,0.2578125 0.2461,0.3867188 0,0.3164062 -0.26954,0.6445312 -0.90235,1.0664062 z m 3.117188,-6.3515621 c 0.152344,-0.03516 0.246094,-0.04687 0.375,-0.04687 0.492187,0 0.726562,0.199218 0.960937,0.84375 0.328125,0.890625 0.949219,3.4570308 0.949219,3.9140621 0,0.1875 -0.08203,0.3867187 -0.257812,0.609375 -0.328125,0.4453125 -0.609375,0.7851562 -0.75,0.9375 -0.257813,0.2578125 -0.386719,0.3632812 -0.539063,0.3632812 -0.08203,0 -0.152344,-0.035156 -0.292969,-0.140625 -0.175781,-0.140625 -0.292968,-0.1992187 -0.445312,-0.1992187 -0.257813,0 -0.46875,0.1992187 -0.46875,0.46875 0,0.3164062 0.257812,0.5273437 0.621094,0.5273437 0.761718,0 2.320312,-1.7929687 3.632812,-4.171875 0.820313,-1.4765623 1.148438,-2.3437503 1.148438,-2.9296873 0,-0.363281 -0.292969,-0.667969 -0.65625,-0.667969 -0.28125,0 -0.46875,0.1875 -0.46875,0.445313 0,0.199218 0.09375,0.316406 0.339843,0.46875 0.222657,0.140625 0.304688,0.246093 0.304688,0.410156 0,0.480469 -0.433594,1.40625 -1.464844,3.1054686 l -0.234375,-1.3945316 c -0.1875,-1.066406 -0.855469,-3.035156 -1.03125,-3.035156 h -0.04687 c -0.02344,0.01172 -0.05859,0.01172 -0.117187,0.01172 -0.09375,0.01172 -0.539063,0.09375 -1.171875,0.210937 -0.05859,0.01172 -0.210938,0.04687 -0.386719,0.07031 z m 5.709961,7.8046871 h 3.351562 v -0.1757813 h -0.210937 c -0.585938,0 -0.820313,-0.1171875 -0.820313,-0.3867187 0,-0.1054688 0.03516,-0.2929688 0.140625,-0.6210938 0.02344,-0.09375 0.03516,-0.1523437 0.07031,-0.2695312 l 1.722656,-6.2226561 c 0.05859,-0.222656 0.07031,-0.292969 0.07031,-0.351563 0,-0.04687 -0.02344,-0.08203 -0.05859,-0.08203 0,0 -0.339844,0.05859 -0.984375,0.1875 l -1.078125,0.222656 c -0.02344,0.01172 -0.117188,0.02344 -0.257813,0.04687 v 0.175782 l 0.679688,-0.02344 c 0.28125,-0.01172 0.457031,0.128906 0.457031,0.375 0,0.08203 -0.02344,0.164063 -0.08203,0.410156 l -1.652344,5.8945316 c -0.140625,0.4453125 -0.398438,0.5625 -1.347656,0.65625 z m 3.471679,-1.453125 c 1.019532,-0.5625 1.558594,-1.2304688 1.558594,-1.9101563 0,-0.4804687 -0.292969,-0.84375 -0.691406,-0.84375 -0.351563,0 -0.609375,0.234375 -0.609375,0.5507813 0,0.2226562 0.07031,0.3398437 0.292969,0.5507812 0.1875,0.1640625 0.246093,0.2578125 0.246093,0.3867188 0,0.3164062 -0.269531,0.6445312 -0.902343,1.0664062 z m 3.914063,-5.2500001 c 0.234375,-0.597656 0.421875,-0.726562 0.972656,-0.714844 h 1.746094 l -3.714844,4.4648441 0.105469,0.1054687 c 0.199219,-0.1523437 0.351562,-0.2109375 0.539062,-0.2109375 0.316407,0 0.703125,0.1523438 1.265625,0.5039063 0.597657,0.375 0.996094,0.5273437 1.335938,0.5273437 0.609375,0 1.136719,-0.4335937 1.136719,-0.9140625 0,-0.2578125 -0.175782,-0.4335937 -0.421875,-0.4335937 -0.246094,0 -0.410157,0.1640625 -0.410157,0.3867187 0,0.09375 0.03516,0.1992188 0.105469,0.3515625 0.03516,0.070312 0.05859,0.140625 0.05859,0.1757813 0,0.1054687 -0.128906,0.1757812 -0.316406,0.1757812 -0.304688,0 -0.445313,-0.1054687 -0.84375,-0.5976562 -0.527344,-0.6796875 -0.75,-0.8320313 -1.453125,-0.9960938 l 3.480468,-4.1249998 v -0.128906 h -3.410156 l -0.363281,1.371093 z m 4.3125,6.7031251 h 3.351562 v -0.1757813 h -0.210937 c -0.585938,0 -0.820313,-0.1171875 -0.820313,-0.3867187 0,-0.1054688 0.03516,-0.2929688 0.140625,-0.6210938 0.02344,-0.09375 0.03516,-0.1523437 0.07031,-0.2695312 l 1.722656,-6.2226561 c 0.05859,-0.222656 0.07031,-0.292969 0.07031,-0.351563 0,-0.04687 -0.02344,-0.08203 -0.05859,-0.08203 0,0 -0.339844,0.05859 -0.984375,0.1875 l -1.078125,0.222656 c -0.02344,0.01172 -0.117188,0.02344 -0.257813,0.04687 v 0.175782 l 0.679688,-0.02344 c 0.28125,-0.01172 0.457031,0.128906 0.457031,0.375 0,0.08203 -0.02344,0.164063 -0.08203,0.410156 l -1.652344,5.8945316 c -0.140625,0.4453125 -0.398437,0.5625 -1.347656,0.65625 z m 3.767578,-0.84375 c 1.488281,-1.2890625 2.097656,-2.0742188 2.636719,-3.3632813 0.339844,-0.7968748 0.480469,-1.5585938 0.480469,-2.4492188 0,-0.691406 -0.09375,-1.441406 -0.269532,-2.167969 -0.199218,-0.808593 -0.375,-1.242187 -0.914062,-2.203125 l -0.234375,0.05859 c 0.410156,0.972656 0.585937,1.945313 0.585937,3.140625 0,1.523438 -0.410156,3.4570313 -1.007812,4.7578126 -0.339844,0.7734375 -0.703125,1.2773437 -1.441406,2.0507812 z m 0,0"
         style="fill:#231f20;fill-opacity:1;fill-rule:nonzero;stroke:none" />
      <path
         id="path10"
         d="m 0.46113281,-11.39918 v -6.492187 H 3.8361328 v 6.492187 z m 0.56249999,-0.5625 h 2.25 v -5.367187 h -2.25 z M -147.53789,1.5002344 v -6.4921875 h 3.375 v 6.4921875 z m 0.5625,-0.56250002 h 2.25 V -4.4294531 h -2.25 z m 27.2373,-73.63769538 v -6.492187 h 3.375 v 6.492187 z m 0.5625,-0.5625 h 2.25 v -5.367187 h -2.25 z m 91.53809,8.361328 v -6.492187 h 3.375 v 6.492187 z m 0.5625,-0.5625 h 2.25 v -5.367187 h -2.25 z m 0,0"
         style="fill:#231f20;fill-opacity:1;fill-rule:nonzero;stroke:none" />
    </g>
    <path
       id="path11"
       d="m 793.25,1234.25 961,-153 170,-636 -1235,144 z"
       style="fill:none;stroke:#231f20;stroke-width:5;stroke-linecap:butt;stroke-linejoin:miter;stroke-miterlimit:3.8637;stroke-dasharray:none;stroke-opacity:1"
       transform="matrix(0.13333333,0,0,-0.13333333,0,217.38667)" />
    <path
       id="path12"
       d="m 2187.25,720.25 -1181,47 -39,573"
       style="fill:none;stroke:#231f20;stroke-width:5;stroke-linecap:butt;stroke-linejoin:miter;stroke-miterlimit:3.8637;stroke-dasharray:20, 20;stroke-dashoffset:0;stroke-opacity:1"
       transform="matrix(0.13333333,0,0,-0.13333333,0,217.38667)" />
    <path
       id="path13"
       d="m 967.25,1340.25 929,-79 291,-541"
       style="fill:none;stroke:#231f20;stroke-width:5;stroke-linecap:butt;stroke-linejoin:miter;stroke-miterlimit:3.8637;stroke-dasharray:none;stroke-opacity:1"
       transform="matrix(0.13333333,0,0,-0.13333333,0,217.38667)" />
    <path
       id="path14"
       d="m 793.25,1234.25 174,106"
       style="fill:none;stroke:#231f20;stroke-width:5;stroke-linecap:butt;stroke-linejoin:miter;stroke-miterlimit:3.8637;stroke-dasharray:none;stroke-opacity:1"
       transform="matrix(0.13333333,0,0,-0.13333333,0,217.38667)" />
    <path
       id="path15"
       d="m 1754.25,1081.25 142,180"
       style="fill:none;stroke:#231f20;stroke-width:5;stroke-linecap:butt;stroke-linejoin:miter;stroke-miterlimit:3.8637;stroke-dasharray:none;stroke-opacity:1"
       transform="matrix(0.13333333,0,0,-0.13333333,0,217.38667)" />
    <path
       id="path16"
       d="m 689.25,589.25 317,178"
       style="fill:none;stroke:#231f20;stroke-width:5;stroke-linecap:butt;stroke-linejoin:miter;stroke-miterlimit:3.8637;stroke-dasharray:20, 20;stroke-dashoffset:0;stroke-opacity:1"
       transform="matrix(0.13333333,0,0,-0.13333333,0,217.38667)" />
    <path
       id="path17"
       d="m 1924.25,445.25 263,275"
       style="fill:none;stroke:#231f20;stroke-width:5;stroke-linecap:butt;stroke-linejoin:miter;stroke-miterlimit:3.8637;stroke-dasharray:none;stroke-opacity:1"
       transform="matrix(0.13333333,0,0,-0.13333333,0,217.38667)" />
    <path
       id="path18"
       d="M 0.56210938,0.00121094 V -6.4909766 H 3.9371094 v 6.49218754 z m 0.56250002,-0.5625 h 2.25 V -5.9284766 h -2.25 z M 16.862891,62.699453 v -6.492187 h 3.375 v 6.492187 z m 0.5625,-0.5625 h 2.25 v -5.367187 h -2.25 z m 0,0"
       style="fill:#231f20;fill-opacity:1;fill-rule:nonzero;stroke:none"
       aria-label="●&#10;●"
       transform="matrix(1.3333333,0,0,1.3333333,229.63333,77.486667)" />
    <path
       id="path19"
       d="M 0.56132813,-0.00132835 V -6.4946195 H 3.9363281 v 6.49329115 z M 1.1238281,-0.56392398 h 2.25 V -5.9320239 h -2.25 z m 0,0"
       style="fill:#7b7979;fill-opacity:1;fill-rule:nonzero;stroke:none"
       aria-label="●"
       transform="matrix(1.3333333,0,0,1.3331067,129.9,119.35333)" />
    <path
       id="path20"
       d="M 0.56347656,-5.46875e-4 V -6.4927344 H 3.9384766 V -5.46875e-4 Z M 1.1259766,-0.56304688 h 2.25 V -5.9302344 h -2.25 z m 0,0"
       style="fill:#231f20;fill-opacity:1;fill-rule:nonzero;stroke:none"
       aria-label="●"
       transform="matrix(1.3333333,0,0,1.3333333,102.16667,57.086667)" />
    <path
       id="path21"
       d="m 1599.25,957.25 122,95"
       style="fill:none;stroke:#ffffff;stroke-width:40;stroke-linecap:round;stroke-linejoin:miter;stroke-miterlimit:3.8637;stroke-dasharray:none;stroke-opacity:1"
       transform="matrix(0.13333333,0,0,-0.13333333,0,217.38667)" />
    <path
       id="path22"
       d="m 1808.25,1084.25 h 253"
       style="fill:none;stroke:#ffffff;stroke-width:40;stroke-linecap:round;stroke-linejoin:miter;stroke-miterlimit:3.8637;stroke-dasharray:none;stroke-opacity:1"
       transform="matrix(0.13333333,0,0,-0.13333333,0,217.38667)" />
    <path
       id="path23"
       d="m 1760.25,1128.25 v 254"
       style="fill:none;stroke:#ffffff;stroke-width:40;stroke-linecap:round;stroke-linejoin:miter;stroke-miterlimit:3.8637;stroke-dasharray:none;stroke-opacity:1"
       transform="matrix(0.13333333,0,0,-0.13333333,0,217.38667)" />
    <path
       id="path24"
       d="m 1760.25,1342.25 v -260"
       style="fill:none;stroke:#231f20;stroke-width:2.5;stroke-linecap:butt;stroke-linejoin:miter;stroke-miterlimit:3.8637;stroke-dasharray:none;stroke-opacity:1"
       transform="matrix(0.13333333,0,0,-0.13333333,0,217.38667)" />
    <path
       id="path25"
       d="m 1760.25,1340.25 h -15 l 15,37 15,-37 h -15"
       style="fill:#231f20;fill-opacity:1;fill-rule:evenodd;stroke:none"
       transform="matrix(0.13333333,0,0,-0.13333333,0,217.38667)" />
    <path
       id="path26"
       d="m 1760.25,1082.25 h 260"
       style="fill:none;stroke:#231f20;stroke-width:2.5;stroke-linecap:butt;stroke-linejoin:miter;stroke-miterlimit:3.8637;stroke-dasharray:none;stroke-opacity:1"
       transform="matrix(0.13333333,0,0,-0.13333333,0,217.38667)" />
    <path
       id="path27"
       d="m 2017.25,1082.25 v 15 l 38,-15 -38,-15 v 15"
       style="fill:#231f20;fill-opacity:1;fill-rule:evenodd;stroke:none"
       transform="matrix(0.13333333,0,0,-0.13333333,0,217.38667)" />
    <path
       id="path28"
       d="m 1759.25,1083.25 -135,-105"
       style="fill:none;stroke:#231f20;stroke-width:2.5;stroke-linecap:butt;stroke-linejoin:miter;stroke-miterlimit:3.8637;stroke-dasharray:none;stroke-opacity:1"
       transform="matrix(0.13333333,0,0,-0.13333333,0,217.38667)" />
    <path
       id="path29"
       d="m 1626.25,979.25 9,-11 -39,-12 21,35 9,-12"
       style="fill:#231f20;fill-opacity:1;fill-rule:evenodd;stroke:none"
       transform="matrix(0.13333333,0,0,-0.13333333,0,217.38667)" />
    <path
       id="path30"
       d="m 1731.25,1131.25 122,95"
       style="fill:none;stroke:#ffffff;stroke-width:40;stroke-linecap:round;stroke-linejoin:miter;stroke-miterlimit:3.8637;stroke-dasharray:none;stroke-opacity:1"
       transform="matrix(0.13333333,0,0,-0.13333333,0,217.38667)" />
    <path
       id="path31"
       d="m 1940.25,1257.25 h 253"
       style="fill:none;stroke:#ffffff;stroke-width:40;stroke-linecap:round;stroke-linejoin:miter;stroke-miterlimit:3.8637;stroke-dasharray:none;stroke-opacity:1"
       transform="matrix(0.13333333,0,0,-0.13333333,0,217.38667)" />
    <path
       id="path32"
       d="m 1892.25,1302.25 v 253"
       style="fill:none;stroke:#ffffff;stroke-width:40;stroke-linecap:round;stroke-linejoin:miter;stroke-miterlimit:3.8637;stroke-dasharray:none;stroke-opacity:1"
       transform="matrix(0.13333333,0,0,-0.13333333,0,217.38667)" />
    <path
       id="path33"
       d="m 1892.25,1516.25 v -260"
       style="fill:none;stroke:#231f20;stroke-width:2.5;stroke-linecap:butt;stroke-linejoin:miter;stroke-miterlimit:3.8637;stroke-dasharray:none;stroke-opacity:1"
       transform="matrix(0.13333333,0,0,-0.13333333,0,217.38667)" />
    <path
       id="path34"
       d="m 1892.25,1513.25 h -15 l 15,38 15,-38 h -15"
       style="fill:#231f20;fill-opacity:1;fill-rule:evenodd;stroke:none"
       transform="matrix(0.13333333,0,0,-0.13333333,0,217.38667)" />
    <path
       id="path35"
       d="m 1892.25,1256.25 h 260"
       style="fill:none;stroke:#231f20;stroke-width:2.5;stroke-linecap:butt;stroke-linejoin:miter;stroke-miterlimit:3.8637;stroke-dasharray:none;stroke-opacity:1"
       transform="matrix(0.13333333,0,0,-0.13333333,0,217.38667)" />
    <path
       id="path36"
       d="m 2149.25,1256.25 v 15 l 38,-15 -38,-15 v 15"
       style="fill:#231f20;fill-opacity:1;fill-rule:evenodd;stroke:none"
       transform="matrix(0.13333333,0,0,-0.13333333,0,217.38667)" />
    <path
       id="path37"
       d="m 1891.25,1256.25 -135,-104"
       style="fill:none;stroke:#231f20;stroke-width:2.5;stroke-linecap:butt;stroke-linejoin:miter;stroke-miterlimit:3.8637;stroke-dasharray:none;stroke-opacity:1"
       transform="matrix(0.13333333,0,0,-0.13333333,0,217.38667)" />
    <path
       id="path38"
       d="m 1758.25,1153.25 9,-12 -39,-11 21,35 9,-12"
       style="fill:#231f20;fill-opacity:1;fill-rule:evenodd;stroke:none"
       transform="matrix(0.13333333,0,0,-0.13333333,0,217.38667)" />
    <path
       id="path39"
       d="m 970.25,1595.25 v -260"
       style="fill:none;stroke:#231f20;stroke-width:2.5;stroke-linecap:butt;stroke-linejoin:miter;stroke-miterlimit:3.8637;stroke-dasharray:none;stroke-opacity:1"
       transform="matrix(0.13333333,0,0,-0.13333333,0,217.38667)" />
    <path
       id="path40"
       d="m 970.25,1593.25 h -15 l 15,37 15,-37 h -15"
       style="fill:#231f20;fill-opacity:1;fill-rule:evenodd;stroke:none"
       transform="matrix(0.13333333,0,0,-0.13333333,0,217.38667)" />
    <path
       id="path41"
       d="m 970.25,1335.25 h 260"
       style="fill:none;stroke:#231f20;stroke-width:2.5;stroke-linecap:butt;stroke-linejoin:miter;stroke-miterlimit:3.8637;stroke-dasharray:none;stroke-opacity:1"
       transform="matrix(0.13333333,0,0,-0.13333333,0,217.38667)" />
    <path
       id="path42"
       d="m 1228.25,1335.25 v 15 l 37,-15 -37,-15 v 15"
       style="fill:#231f20;fill-opacity:1;fill-rule:evenodd;stroke:none"
       transform="matrix(0.13333333,0,0,-0.13333333,0,217.38667)" />
    <path
       id="path43"
       d="m 969.25,1336.25 -134,-105"
       style="fill:none;stroke:#231f20;stroke-width:2.5;stroke-linecap:butt;stroke-linejoin:miter;stroke-miterlimit:3.8637;stroke-dasharray:none;stroke-opacity:1"
       transform="matrix(0.13333333,0,0,-0.13333333,0,217.38667)" />
    <path
       id="path44"
       d="m 837.25,1233.25 9,-12 -39,-12 20,35 10,-11"
       style="fill:#231f20;fill-opacity:1;fill-rule:evenodd;stroke:none"
       transform="matrix(0.13333333,0,0,-0.13333333,0,217.38667)" />
    <path
       id="path45"
       d="m 802.25,1494.25 v -260"
       style="fill:none;stroke:#231f20;stroke-width:2.5;stroke-linecap:butt;stroke-linejoin:miter;stroke-miterlimit:3.8637;stroke-dasharray:none;stroke-opacity:1"
       transform="matrix(0.13333333,0,0,-0.13333333,0,217.38667)" />
    <path
       id="path46"
       d="m 802.25,1491.25 h -15 l 15,38 15,-38 h -15"
       style="fill:#231f20;fill-opacity:1;fill-rule:evenodd;stroke:none"
       transform="matrix(0.13333333,0,0,-0.13333333,0,217.38667)" />
    <path
       id="path47"
       d="m 802.25,1234.25 h 259"
       style="fill:none;stroke:#231f20;stroke-width:2.5;stroke-linecap:butt;stroke-linejoin:miter;stroke-miterlimit:3.8637;stroke-dasharray:none;stroke-opacity:1"
       transform="matrix(0.13333333,0,0,-0.13333333,0,217.38667)" />
    <path
       id="path48"
       d="m 1059.25,1234.25 v 15 l 37,-15 -37,-15 v 15"
       style="fill:#231f20;fill-opacity:1;fill-rule:evenodd;stroke:none"
       transform="matrix(0.13333333,0,0,-0.13333333,0,217.38667)" />
    <path
       id="path49"
       d="m 800.25,1234.25 -134,-104"
       style="fill:none;stroke:#231f20;stroke-width:2.5;stroke-linecap:butt;stroke-linejoin:miter;stroke-miterlimit:3.8637;stroke-dasharray:none;stroke-opacity:1"
       transform="matrix(0.13333333,0,0,-0.13333333,0,217.38667)" />
    <path
       id="path50"
       d="m 668.25,1131.25 9,-12 -39,-11 20,35 10,-12"
       style="fill:#231f20;fill-opacity:1;fill-rule:evenodd;stroke:none"
       transform="matrix(0.13333333,0,0,-0.13333333,0,217.38667)" />
    <path
       id="path51"
       d="m 1009.25,1027.25 v -260"
       style="fill:none;stroke:#231f20;stroke-width:2.5;stroke-linecap:butt;stroke-linejoin:miter;stroke-miterlimit:3.8637;stroke-dasharray:none;stroke-opacity:1"
       transform="matrix(0.13333333,0,0,-0.13333333,0,217.38667)" />
    <path
       id="path52"
       d="m 1009.25,1024.25 h -15 l 15,38 15,-38 h -15"
       style="fill:#231f20;fill-opacity:1;fill-rule:evenodd;stroke:none"
       transform="matrix(0.13333333,0,0,-0.13333333,0,217.38667)" />
    <path
       id="path53"
       d="m 1009.25,767.25 h 260"
       style="fill:none;stroke:#231f20;stroke-width:2.5;stroke-linecap:butt;stroke-linejoin:miter;stroke-miterlimit:3.8637;stroke-dasharray:none;stroke-opacity:1"
       transform="matrix(0.13333333,0,0,-0.13333333,0,217.38667)" />
    <path
       id="path54"
       d="m 1266.25,767.25 v 15 l 38,-15 -38,-15 v 15"
       style="fill:#231f20;fill-opacity:1;fill-rule:evenodd;stroke:none"
       transform="matrix(0.13333333,0,0,-0.13333333,0,217.38667)" />
    <path
       id="path55"
       d="m 1008.25,767.25 -135,-104"
       style="fill:none;stroke:#231f20;stroke-width:2.5;stroke-linecap:butt;stroke-linejoin:miter;stroke-miterlimit:3.8637;stroke-dasharray:none;stroke-opacity:1"
       transform="matrix(0.13333333,0,0,-0.13333333,0,217.38667)" />
    <path
       id="path56"
       d="m 875.25,664.25 9,-12 -38,-11 20,35 9,-12"
       style="fill:#231f20;fill-opacity:1;fill-rule:evenodd;stroke:none"
       transform="matrix(0.13333333,0,0,-0.13333333,0,217.38667)" />
    <path
       id="path57"
       d="m 2174.25,980.25 v -260"
       style="fill:none;stroke:#231f20;stroke-width:2.5;stroke-linecap:butt;stroke-linejoin:miter;stroke-miterlimit:3.8637;stroke-dasharray:none;stroke-opacity:1"
       transform="matrix(0.13333333,0,0,-0.13333333,0,217.38667)" />
    <path
       id="path58"
       d="m 2174.25,977.25 h -15 l 15,38 15,-38 h -15"
       style="fill:#231f20;fill-opacity:1;fill-rule:evenodd;stroke:none"
       transform="matrix(0.13333333,0,0,-0.13333333,0,217.38667)" />
    <path
       id="path59"
       d="m 2174.25,720.25 h 259"
       style="fill:none;stroke:#231f20;stroke-width:2.5;stroke-linecap:butt;stroke-linejoin:miter;stroke-miterlimit:3.8637;stroke-dasharray:none;stroke-opacity:1"
       transform="matrix(0.13333333,0,0,-0.13333333,0,217.38667)" />
    <path
       id="path60"
       d="m 2431.25,720.25 v 15 l 37,-15 -37,-15 v 15"
       style="fill:#231f20;fill-opacity:1;fill-rule:evenodd;stroke:none"
       transform="matrix(0.13333333,0,0,-0.13333333,0,217.38667)" />
    <path
       id="path61"
       d="m 2172.25,720.25 -134,-104"
       style="fill:none;stroke:#231f20;stroke-width:2.5;stroke-linecap:butt;stroke-linejoin:miter;stroke-miterlimit:3.8637;stroke-dasharray:none;stroke-opacity:1"
       transform="matrix(0.13333333,0,0,-0.13333333,0,217.38667)" />
    <path
       id="path62"
       d="m 2040.25,617.25 9,-12 -39,-11 20,35 10,-12"
       style="fill:#231f20;fill-opacity:1;fill-rule:evenodd;stroke:none"
       transform="matrix(0.13333333,0,0,-0.13333333,0,217.38667)" />
    <path
       id="path63"
       d="m 695.25,852.25 v -259"
       style="fill:none;stroke:#231f20;stroke-width:2.5;stroke-linecap:butt;stroke-linejoin:miter;stroke-miterlimit:3.8637;stroke-dasharray:none;stroke-opacity:1"
       transform="matrix(0.13333333,0,0,-0.13333333,0,217.38667)" />
    <path
       id="path64"
       d="m 695.25,850.25 h -15 l 15,37 15,-37 h -15"
       style="fill:#231f20;fill-opacity:1;fill-rule:evenodd;stroke:none"
       transform="matrix(0.13333333,0,0,-0.13333333,0,217.38667)" />
    <path
       id="path65"
       d="m 695.25,593.25 h 260"
       style="fill:none;stroke:#231f20;stroke-width:2.5;stroke-linecap:butt;stroke-linejoin:miter;stroke-miterlimit:3.8637;stroke-dasharray:none;stroke-opacity:1"
       transform="matrix(0.13333333,0,0,-0.13333333,0,217.38667)" />
    <path
       id="path66"
       d="m 952.25,593.25 v 15 l 38,-15 -38,-15 v 15"
       style="fill:#231f20;fill-opacity:1;fill-rule:evenodd;stroke:none"
       transform="matrix(0.13333333,0,0,-0.13333333,0,217.38667)" />
    <path
       id="path67"
       d="m 694.25,593.25 -135,-105"
       style="fill:none;stroke:#231f20;stroke-width:2.5;stroke-linecap:butt;stroke-linejoin:miter;stroke-miterlimit:3.8637;stroke-dasharray:none;stroke-opacity:1"
       transform="matrix(0.13333333,0,0,-0.13333333,0,217.38667)" />
    <path
       id="path68"
       d="m 561.25,490.25 10,-12 -39,-11 20,35 9,-12"
       style="fill:#231f20;fill-opacity:1;fill-rule:evenodd;stroke:none"
       transform="matrix(0.13333333,0,0,-0.13333333,0,217.38667)" />
    <path
       id="path69"
       d="m 1921.25,715.25 v -260"
       style="fill:none;stroke:#231f20;stroke-width:2.5;stroke-linecap:butt;stroke-linejoin:miter;stroke-miterlimit:3.8637;stroke-dasharray:none;stroke-opacity:1"
       transform="matrix(0.13333333,0,0,-0.13333333,0,217.38667)" />
    <path
       id="path70"
       d="m 1921.25,712.25 h -15 l 15,38 15,-38 h -15"
       style="fill:#231f20;fill-opacity:1;fill-rule:evenodd;stroke:none"
       transform="matrix(0.13333333,0,0,-0.13333333,0,217.38667)" />
    <path
       id="path71"
       d="m 1921.25,455.25 h 259"
       style="fill:none;stroke:#231f20;stroke-width:2.5;stroke-linecap:butt;stroke-linejoin:miter;stroke-miterlimit:3.8637;stroke-dasharray:none;stroke-opacity:1"
       transform="matrix(0.13333333,0,0,-0.13333333,0,217.38667)" />
    <path
       id="path72"
       d="m 2178.25,455.25 v 15 l 37,-15 -37,-15 v 15"
       style="fill:#231f20;fill-opacity:1;fill-rule:evenodd;stroke:none"
       transform="matrix(0.13333333,0,0,-0.13333333,0,217.38667)" />
    <path
       id="path73"
       d="m 1919.25,455.25 -134,-105"
       style="fill:none;stroke:#231f20;stroke-width:2.5;stroke-linecap:butt;stroke-linejoin:miter;stroke-miterlimit:3.8637;stroke-dasharray:none;stroke-opacity:1"
       transform="matrix(0.13333333,0,0,-0.13333333,0,217.38667)" />
    <path
       id="path74"
       d="m 1787.25,352.25 9,-12 -39,-11 21,35 9,-12"
       style="fill:#231f20;fill-opacity:1;fill-rule:evenodd;stroke:none"
       transform="matrix(0.13333333,0,0,-0.13333333,0,217.38667)" />
    <path
       id="path75"
       d="m 3.6914063,-0.93707031 c -0.421875,0.52734375 -0.5390625,0.6328125 -0.6679688,0.6328125 -0.058594,0 -0.082031,-0.046875 -0.082031,-0.140625 0,-0.046875 0,-0.046875 0.1523437,-0.62109379 l 0.6328125,-2.390625 H 3.1289063 C 2.6953125,-2.2730078 2.6132813,-2.0737891 2.25,-1.4995703 c -0.4804687,0.74999999 -0.8789062,1.16015624 -1.125,1.16015624 -0.1054687,0 -0.17578125,-0.0820313 -0.17578125,-0.19921875 0,-0.0234375 0,-0.046875 0.0117188,-0.0703125 L 1.6875,-3.5151953 1.6640625,-3.5269141 c -0.46875,0.1054688 -0.76171875,0.1523438 -1.1953125,0.2109375 v 0.1171875 c 0.31640625,0 0.31640625,0 0.3984375,0.046875 0.0351563,0.011719 0.0820313,0.082031 0.0820313,0.140625 0,0.070312 -0.046875,0.2695313 -0.1171875,0.5390625 l -0.2929688,1.1367188 c -0.15234375,0.58593749 -0.19921875,0.84374999 -0.19921875,0.98437499 0,0.29296875 0.140625,0.4453125 0.421875,0.4453125 0.56250005,0 0.99609375,-0.43359375 1.91015625,-1.98046879 -0.234375,0.8671875 -0.3632812,1.39453129 -0.3632812,1.57031254 0,0.2578125 0.1523437,0.38671875 0.3867187,0.38671875 0.375,0 0.5507813,-0.15234375 1.1015625,-0.9375 z M 7.5292969,-1.5347266 c 0.2695312,-0.375 0.5507812,-0.5390625 0.8789062,-0.5390625 0.4335938,0 0.7148438,0.2929688 0.7148438,0.7265625 0,0.3398438 -0.1640625,0.62109379 -0.515625,0.85546879 -0.3398438,0.234375 -0.6796875,0.3515625 -1.3945313,0.48046875 l 0.011719,0.1171875 c 0.4453125,0 0.5273437,0.0117188 0.7265625,0.0820313 0.4921875,0.1875 0.75,0.62109375 0.75,1.25390616 0,0.28125 -0.058594,0.5742189 -0.1757813,0.7617189 -0.1875,0.328125 -0.5390625,0.5507811 -0.8671875,0.5507811 -0.1523437,0 -0.3398437,-0.082031 -0.5742187,-0.2578125 -0.234375,-0.1640625 -0.3632813,-0.2226561 -0.515625,-0.2226561 -0.2226563,0 -0.3515625,0.1054686 -0.3515625,0.3046875 0,0.3046875 0.328125,0.4804686 0.9023437,0.4804686 0.4453125,0 0.8671875,-0.1054686 1.1953125,-0.2929686 0.6210938,-0.375 1.03125,-1.0429689 1.03125,-1.7578126 0,-0.58593746 -0.234375,-0.94921871 -0.7617187,-1.19531246 v -0.0234375 c 0.9609375,-0.375 1.2421875,-0.64453125 1.2421875,-1.18359374 0,-0.5859375 -0.4804688,-1.0195313 -1.125,-1.0195313 -0.5507813,0 -1.0429688,0.3164062 -1.3007813,0.8320312 z M 44.692383,-10.438047 c -0.421875,0.5273439 -0.539063,0.6328126 -0.667969,0.6328126 -0.05859,0 -0.08203,-0.046875 -0.08203,-0.140625 0,-0.046875 0,-0.046875 0.152344,-0.6210936 l 0.632812,-2.390625 h -0.597656 c -0.433594,1.183594 -0.515625,1.382812 -0.878906,1.957031 -0.480469,0.75 -0.878907,1.1601564 -1.125,1.1601564 -0.105469,0 -0.175782,-0.082031 -0.175782,-0.1992184 0,-0.02344 0,-0.04687 0.01172,-0.07031 l 0.726563,-2.90625 -0.02344,-0.01172 c -0.46875,0.105469 -0.761719,0.152344 -1.195312,0.210938 v 0.117187 c 0.316406,0 0.316406,0 0.398437,0.04687 0.03516,0.01172 0.08203,0.08203 0.08203,0.140625 0,0.07031 -0.04687,0.269532 -0.117187,0.539063 l -0.292969,1.136719 c -0.152344,0.585937 -0.199219,0.8437496 -0.199219,0.9843746 0,0.2929688 0.140625,0.4453125 0.421875,0.4453125 0.5625,0 0.996094,-0.4335937 1.910157,-1.9804691 -0.234375,0.867188 -0.363282,1.3945316 -0.363282,1.5703129 0,0.2578125 0.152344,0.3867187 0.386719,0.3867187 0.375,0 0.550781,-0.1523437 1.101563,-0.9374996 z m 2.695312,3.9375001 h 2.238282 v -0.1171875 h -0.140625 c -0.386719,0 -0.550782,-0.070312 -0.550782,-0.2578125 0,-0.070312 0.02344,-0.1875 0.09375,-0.421875 0.02344,-0.046875 0.03516,-0.09375 0.05859,-0.1757812 l 1.136719,-4.1484379 c 0.04687,-0.140625 0.04687,-0.199218 0.04687,-0.234375 0,-0.03516 -0.01172,-0.05859 -0.03516,-0.05859 0,0 -0.222657,0.04687 -0.65625,0.128906 l -0.726563,0.152344 c -0.01172,0 -0.07031,0.01172 -0.164062,0.02344 v 0.117188 l 0.457031,-0.01172 c 0.1875,-0.01172 0.304687,0.09375 0.304687,0.246094 0,0.05859 -0.01172,0.117187 -0.05859,0.28125 l -1.101563,3.9374996 c -0.09375,0.2929688 -0.269531,0.375 -0.902344,0.421875 z M 31.391602,-27.737852 c -0.421875,0.527344 -0.539063,0.632813 -0.667969,0.632813 -0.05859,0 -0.08203,-0.04687 -0.08203,-0.140625 0,-0.04687 0,-0.04687 0.152343,-0.621094 l 0.632813,-2.390625 h -0.597656 c -0.433594,1.183594 -0.515625,1.382813 -0.878907,1.957031 -0.480468,0.75 -0.878906,1.160157 -1.125,1.160157 -0.105468,0 -0.175781,-0.08203 -0.175781,-0.199219 0,-0.02344 0,-0.04687 0.01172,-0.07031 l 0.726562,-2.90625 -0.02344,-0.01172 c -0.46875,0.105468 -0.761719,0.152343 -1.195313,0.210937 v 0.117188 c 0.316407,0 0.316407,0 0.398438,0.04687 0.03516,0.01172 0.08203,0.08203 0.08203,0.140625 0,0.07031 -0.04687,0.269531 -0.117187,0.539062 l -0.292969,1.136719 c -0.152344,0.585937 -0.199219,0.84375 -0.199219,0.984375 0,0.292969 0.140625,0.445312 0.421875,0.445312 0.5625,0 0.996094,-0.433593 1.910156,-1.980468 -0.234375,0.867187 -0.363281,1.394531 -0.363281,1.570312 0,0.257813 0.152344,0.386719 0.386719,0.386719 0.375,0 0.550781,-0.152344 1.101562,-0.9375 z m 5.507812,2.824219 c -0.1875,0.398438 -0.339844,0.492188 -0.785156,0.503906 H 34.59082 v -0.03516 l 1.535157,-1.535156 c 0.9375,-0.9375 1.195312,-1.347656 1.195312,-1.875 0,-0.761719 -0.574219,-1.359375 -1.300781,-1.359375 -0.292969,0 -0.585938,0.07031 -0.820313,0.210937 -0.410156,0.222657 -0.632812,0.492188 -0.855468,1.078125 l 0.164062,0.04687 c 0.292969,-0.515625 0.644531,-0.75 1.125,-0.75 0.574219,0 0.996094,0.421875 0.996094,0.972657 0,0.175781 -0.02344,0.328125 -0.07031,0.433593 -0.199218,0.433594 -0.5625,0.9375 -1.078125,1.488282 l -1.6875,1.792968 v 0.140625 h 2.847657 l 0.398437,-1.054687 z m 0,0"
       style="fill:#231f20;fill-opacity:1;fill-rule:nonzero;stroke:none"
       aria-label="u&#10;3&#10;u&#10;1&#10;u&#10;2"
       transform="matrix(1.3333333,0,0,1.3333333,105.5,117.75333)" />
  </g>
</svg>
