<?xml version="1.0" encoding="UTF-8" standalone="no"?>
<!-- Created with Inkscape (http://www.inkscape.org/) -->

<svg
   version="1.1"
   id="svg1"
   width="330.05334"
   height="124.48"
   viewBox="0 0 330.05334 124.48"
   sodipodi:docname="ANA1.EPS"
   xmlns:inkscape="http://www.inkscape.org/namespaces/inkscape"
   xmlns:sodipodi="http://sodipodi.sourceforge.net/DTD/sodipodi-0.dtd"
   xmlns="http://www.w3.org/2000/svg"
   xmlns:svg="http://www.w3.org/2000/svg">
  <defs
     id="defs1" />
  <sodipodi:namedview
     id="namedview1"
     pagecolor="#ffffff"
     bordercolor="#000000"
     borderopacity="0.25"
     inkscape:showpageshadow="2"
     inkscape:pageopacity="0.0"
     inkscape:pagecheckerboard="0"
     inkscape:deskcolor="#d1d1d1">
    <inkscape:page
       x="0"
       y="0"
       inkscape:label="1"
       id="page1"
       width="330.05334"
       height="124.48"
       margin="0"
       bleed="0" />
  </sodipodi:namedview>
  <g
     id="g1"
     inkscape:groupmode="layer"
     inkscape:label="1">
    <path
       id="path1"
       d="m 4.9681641,-1.3117578 c -0.4335938,0.74999999 -0.5039063,0.82031249 -0.7265625,0.82031249 -0.2460938,0 -0.5039063,-0.3984375 -0.9609375,-1.54687499 -0.070312,-0.1523438 -0.2460938,-0.5859375 -0.4453125,-1.0546875 1.7695312,-1.5703125 2.1210937,-1.8164063 2.6953125,-1.8515625 v -0.1875 H 3.3392578 v 0.1875 c 0.515625,0.011719 0.65625,0.058594 0.65625,0.2226562 0,0.234375 -0.5976562,0.8085938 -1.7109375,1.6757813 -0.1875,0.1289062 -0.3515625,0.2578125 -0.515625,0.3984375 l 1.4296875,-5.484375 -0.058594,-0.058594 C 2.4134763,-8.0266018 1.956445,-7.9562893 1.2767575,-7.874258 v 0.1992187 c 0.5859375,-0.011719 0.796875,0.070312 0.8085938,0.2929688 -0.023437,0.2109375 -0.1054688,0.5273437 -0.2578125,1.078125 -0.046875,0.1757812 -0.09375,0.3046875 -0.1171875,0.3984375 L 1.6869141,-5.8000391 0.16347656,7.421875e-4 H 1.0658203 L 1.6400391,-2.1555078 2.1439453,-2.5422266 c 0.1992188,0.5273438 0.5039063,1.265625 0.7265625,1.68750004 0.3867188,0.76171875 0.5976563,0.984375 0.9492188,0.984375 0.4804687,0 0.7734375,-0.29296875 1.3242187,-1.30078124 z m 0,0"
       style="fill:#231f20;fill-opacity:1;fill-rule:nonzero;stroke:none"
       aria-label="k"
       transform="matrix(1.3333333,0,0,1.3333333,198.7,16.846667)" />
    <path
       id="path2"
       d="m 1.25,558.25 h 334"
       style="fill:none;stroke:#231f20;stroke-width:2.5;stroke-linecap:butt;stroke-linejoin:miter;stroke-miterlimit:3.8637;stroke-dasharray:none;stroke-opacity:1"
       transform="matrix(0.13333333,0,0,-0.13333333,0,124.48)" />
    <path
       id="path3"
       d="m 333.25,558.25 v 15 l 37,-15 -37,-15 v 15"
       style="fill:#231f20;fill-opacity:1;fill-rule:evenodd;stroke:none"
       transform="matrix(0.13333333,0,0,-0.13333333,0,124.48)" />
    <path
       id="path4"
       d="m 1256.25,683.25 c 14.4,64.012 46.44,90.871 99,121 40.16,22.063 57.13,28.051 114,28"
       style="fill:none;stroke:#231f20;stroke-width:2.5;stroke-linecap:butt;stroke-linejoin:miter;stroke-miterlimit:3.8637;stroke-dasharray:none;stroke-opacity:1"
       transform="matrix(0.13333333,0,0,-0.13333333,0,124.48)" />
    <path
       id="path5"
       d="m 2099.25,561.25 h 334"
       style="fill:none;stroke:#231f20;stroke-width:2.5;stroke-linecap:butt;stroke-linejoin:miter;stroke-miterlimit:3.8637;stroke-dasharray:none;stroke-opacity:1"
       transform="matrix(0.13333333,0,0,-0.13333333,0,124.48)" />
    <path
       id="path6"
       d="m 2431.25,561.25 v 15 l 37,-15 -37,-15 v 15"
       style="fill:#231f20;fill-opacity:1;fill-rule:evenodd;stroke:none"
       transform="matrix(0.13333333,0,0,-0.13333333,0,124.48)" />
    <path
       id="path7"
       d="m 3.6914063,-0.93675781 c -0.421875,0.52734375 -0.5390625,0.6328125 -0.6679688,0.6328125 -0.058594,0 -0.082031,-0.046875 -0.082031,-0.140625 0,-0.046875 0,-0.046875 0.1523437,-0.62109379 l 0.6328125,-2.390625 H 3.1289063 C 2.6953125,-2.2726953 2.6132813,-2.0734766 2.25,-1.4992578 c -0.4804688,0.74999999 -0.8789063,1.16015624 -1.125,1.16015624 -0.1054688,0 -0.17578125,-0.0820313 -0.17578125,-0.19921875 0,-0.0234375 0,-0.046875 0.0117188,-0.0703125 L 1.6875,-3.5148828 1.6640625,-3.5266016 c -0.46875,0.1054688 -0.76171875,0.1523438 -1.1953125,0.2109375 v 0.1171875 c 0.31640625,0 0.31640625,0 0.3984375,0.046875 0.0351563,0.011719 0.0820313,0.082031 0.0820313,0.140625 0,0.070312 -0.046875,0.2695313 -0.1171875,0.5390625 l -0.2929688,1.1367188 c -0.15234375,0.58593749 -0.19921875,0.84374999 -0.19921875,0.98437499 0,0.29296875 0.140625,0.4453125 0.421875,0.4453125 0.56249995,0 0.99609375,-0.43359375 1.91015625,-1.98046879 -0.234375,0.8671875 -0.3632812,1.39453129 -0.3632812,1.57031254 0,0.2578125 0.1523437,0.38671875 0.3867187,0.38671875 0.375,0 0.5507813,-0.15234375 1.1015625,-0.9375 z M 9.1992188,1.8874609 C 9.0117188,2.2858984 8.859375,2.3796484 8.4140625,2.3913672 H 6.890625 V 2.3562109 L 8.4257813,0.82105469 c 0.9375,-0.9375 1.1953125,-1.34765625 1.1953125,-1.87499999 0,-0.7617188 -0.5742188,-1.359375 -1.3007813,-1.359375 -0.2929687,0 -0.5859375,0.070312 -0.8203125,0.2109375 -0.4101563,0.2226562 -0.6328125,0.4921875 -0.8554688,1.078125 l 0.1640625,0.046875 c 0.2929688,-0.515625 0.6445313,-0.75 1.125,-0.75 0.5742188,0 0.9960938,0.421875 0.9960938,0.97265624 0,0.17578125 -0.023437,0.328125 -0.070312,0.43359375 -0.1992187,0.43359375 -0.5625,0.9375 -1.078125,1.48828121 l -1.6875,1.7929688 v 0.140625 H 8.9414063 L 9.3398438,1.9460547 Z M 10.03418,1.0319922 c 0.679687,-0.37500001 1.042968,-0.82031251 1.042968,-1.26562501 0,-0.328125 -0.199218,-0.57421875 -0.457031,-0.57421875 -0.234375,0 -0.410156,0.1640625 -0.410156,0.36328125 0,0.15234375 0.04687,0.234375 0.199219,0.375 0.117187,0.10546875 0.152343,0.17578125 0.152343,0.2578125 0,0.2109375 -0.175781,0.43359375 -0.5976558,0.703125 z m 7.136718,-6.1289063 c 0.457032,0.058594 0.5625,0.1289063 0.5625,0.3398438 0,0.1171875 -0.03516,0.2578125 -0.128906,0.6328125 l -0.949219,3.41015624 c -0.140625,0.48046875 -0.199218,0.52734375 -0.65625,0.5859375 V 7.421875e-4 h 1.957032 V -0.12816406 c -0.503907,-0.0703125 -0.539063,-0.09375 -0.539063,-0.375 0,-0.09375 0.01172,-0.15234375 0.09375,-0.45703125 l 0.421875,-1.54687499 c 0.210938,0.046875 0.398438,0.070312 0.738281,0.070312 0.65625,0 1.207032,-0.140625 1.535157,-0.3867188 0.398437,-0.2929687 0.632812,-0.7382812 0.632812,-1.2070312 0,-0.7734375 -0.597656,-1.1953125 -1.6875,-1.1953125 h -1.980469 z m 1.40625,0.3398438 c 0.04687,-0.1757813 0.140625,-0.234375 0.363282,-0.234375 0.316406,0 0.621093,0.082031 0.785156,0.1992187 0.199219,0.140625 0.292969,0.3867188 0.292969,0.7617188 0,0.515625 -0.1875,0.890625 -0.539063,1.0898437 -0.246094,0.140625 -0.5625,0.1992188 -1.054687,0.1992188 -0.140625,0 -0.1875,0 -0.421875,-0.035156 z m 7.921875,6.6445312 c -0.1875,0.3984375 -0.339843,0.4921875 -0.785156,0.5039063 H 24.19043 v -0.035156 l 1.535156,-1.53515621 c 0.9375,-0.9375 1.195312,-1.34765625 1.195312,-1.87499999 0,-0.7617188 -0.574218,-1.359375 -1.300781,-1.359375 -0.292969,0 -0.585937,0.070312 -0.820312,0.2109375 -0.410157,0.2226562 -0.632813,0.4921875 -0.855469,1.078125 l 0.164062,0.046875 c 0.292969,-0.515625 0.644532,-0.75 1.125,-0.75 0.574219,0 0.996094,0.421875 0.996094,0.97265624 0,0.17578125 -0.02344,0.328125 -0.07031,0.43359375 -0.199219,0.43359375 -0.5625,0.9375 -1.078125,1.48828121 l -1.6875,1.7929688 v 0.140625 h 2.847656 L 26.63965,1.946055 Z m 0,0"
       style="fill:#231f20;fill-opacity:1;fill-rule:nonzero;stroke:none"
       aria-label="u&#10;2&#10;, P&#10;2"
       transform="matrix(1.3333333,0,0,1.3333333,281.5,36.846667)" />
    <path
       id="path8"
       d="m 2085.25,100.25 h 335"
       style="fill:none;stroke:#231f20;stroke-width:2.5;stroke-linecap:butt;stroke-linejoin:miter;stroke-miterlimit:3.8637;stroke-dasharray:none;stroke-opacity:1"
       transform="matrix(0.13333333,0,0,-0.13333333,0,124.48)" />
    <path
       id="path9"
       d="m 2417.25,100.25 v 15 l 38,-15 -38,-15 v 15"
       style="fill:#231f20;fill-opacity:1;fill-rule:evenodd;stroke:none"
       transform="matrix(0.13333333,0,0,-0.13333333,0,124.48)" />
    <path
       id="path10"
       d="m 380.25,100.25 h -334"
       style="fill:none;stroke:#231f20;stroke-width:2.5;stroke-linecap:butt;stroke-linejoin:miter;stroke-miterlimit:3.8637;stroke-dasharray:none;stroke-opacity:1"
       transform="matrix(0.13333333,0,0,-0.13333333,0,124.48)" />
    <path
       id="path11"
       d="m 48.25,100.25 v -15 l -37,15 37,15 v -15"
       style="fill:#231f20;fill-opacity:1;fill-rule:evenodd;stroke:none"
       transform="matrix(0.13333333,0,0,-0.13333333,0,124.48)" />
    <path
       id="path12"
       d="M 8.7181641,-7.8394922 H 6.3392578 v 0.1992188 c 0.6796875,0.058594 0.8320313,0.1757812 0.8320313,0.609375 0,0.140625 -0.023437,0.2695312 -0.1054688,0.5273437 -0.011719,0.035156 -0.023437,0.082031 -0.023437,0.09375 l -1.21875,4.5585938 -2.4960937,-5.9882813 H 1.3939453 v 0.1992188 c 0.5625,0.046875 0.796875,0.1992187 1.03125,0.6679687 l -1.42968749,5.0039063 c -0.45703125,1.53515621 -0.55078125,1.67578121 -1.23046875,1.78124996 V 3.515625e-4 H 2.1322266 V -0.18714844 c -0.6210938,-0.046875 -0.8320313,-0.1875 -0.8320313,-0.515625 0,-0.1640625 0.035156,-0.39843746 0.1054688,-0.65624996 l 1.3710937,-5.0625 2.7539063,6.59765621 h 0.2109375 l 1.734375,-6.03515621 c 0.4453125,-1.5585938 0.4921875,-1.6171875 1.2421875,-1.78125 z M 226.11855,-7.9391016 h -2.3789 v 0.1992188 c 0.67969,0.058594 0.83203,0.1757812 0.83203,0.609375 0,0.140625 -0.0234,0.2695312 -0.10547,0.5273437 -0.0117,0.035156 -0.0234,0.082031 -0.0234,0.09375 l -1.21875,4.5585938 -2.49609,-5.9882813 h -1.93359 v 0.1992188 c 0.5625,0.046875 0.79687,0.1992187 1.03125,0.6679687 l -1.42969,5.0039063 c -0.45703,1.53515624 -0.55078,1.67578124 -1.23047,1.78124999 v 0.1875 h 2.36719 v -0.1875 c -0.6211,-0.046875 -0.83203,-0.1875 -0.83203,-0.515625 0,-0.1640625 0.0351,-0.39843749 0.10546,-0.65624999 l 1.3711,-5.0625 2.7539,6.59765624 h 0.21094 l 1.73438,-6.03515624 c 0.44531,-1.5585938 0.49218,-1.6171875 1.24218,-1.78125 z m 0,0"
       style="fill:#231f20;fill-opacity:1;fill-rule:nonzero;stroke:none"
       aria-label="N&#10;N"
       transform="matrix(1.3333333,0,0,1.3333333,12.7,100.98)" />
    <path
       id="path13"
       d="m 441.25,560.25 h 321"
       style="fill:none;stroke:#231f20;stroke-width:3.8;stroke-linecap:butt;stroke-linejoin:miter;stroke-miterlimit:3.8637;stroke-dasharray:none;stroke-opacity:1"
       transform="matrix(0.13333333,0,0,-0.13333333,0,124.48)" />
    <path
       id="path14"
       d="m 763.25,562.25 24,103"
       style="fill:none;stroke:#231f20;stroke-width:3.8;stroke-linecap:butt;stroke-linejoin:miter;stroke-miterlimit:3.8637;stroke-dasharray:none;stroke-opacity:1"
       transform="matrix(0.13333333,0,0,-0.13333333,0,124.48)" />
    <path
       id="path15"
       d="m 787.25,665.25 48,-207"
       style="fill:none;stroke:#231f20;stroke-width:3.8;stroke-linecap:butt;stroke-linejoin:miter;stroke-miterlimit:3.8637;stroke-dasharray:none;stroke-opacity:1"
       transform="matrix(0.13333333,0,0,-0.13333333,0,124.48)" />
    <path
       id="path16"
       d="m 835.25,458.25 48,207"
       style="fill:none;stroke:#231f20;stroke-width:3.8;stroke-linecap:butt;stroke-linejoin:miter;stroke-miterlimit:3.8637;stroke-dasharray:none;stroke-opacity:1"
       transform="matrix(0.13333333,0,0,-0.13333333,0,124.48)" />
    <path
       id="path17"
       d="m 883.25,665.25 48,-207"
       style="fill:none;stroke:#231f20;stroke-width:3.8;stroke-linecap:butt;stroke-linejoin:miter;stroke-miterlimit:3.8637;stroke-dasharray:none;stroke-opacity:1"
       transform="matrix(0.13333333,0,0,-0.13333333,0,124.48)" />
    <path
       id="path18"
       d="m 931.25,458.25 48,207"
       style="fill:none;stroke:#231f20;stroke-width:3.8;stroke-linecap:butt;stroke-linejoin:miter;stroke-miterlimit:3.8637;stroke-dasharray:none;stroke-opacity:1"
       transform="matrix(0.13333333,0,0,-0.13333333,0,124.48)" />
    <path
       id="path19"
       d="m 979.25,665.25 48,-207"
       style="fill:none;stroke:#231f20;stroke-width:3.8;stroke-linecap:butt;stroke-linejoin:miter;stroke-miterlimit:3.8637;stroke-dasharray:none;stroke-opacity:1"
       transform="matrix(0.13333333,0,0,-0.13333333,0,124.48)" />
    <path
       id="path20"
       d="m 1027.25,458.25 48,207"
       style="fill:none;stroke:#231f20;stroke-width:3.8;stroke-linecap:butt;stroke-linejoin:miter;stroke-miterlimit:3.8637;stroke-dasharray:none;stroke-opacity:1"
       transform="matrix(0.13333333,0,0,-0.13333333,0,124.48)" />
    <path
       id="path21"
       d="m 1075.25,665.25 48,-207"
       style="fill:none;stroke:#231f20;stroke-width:3.8;stroke-linecap:butt;stroke-linejoin:miter;stroke-miterlimit:3.8637;stroke-dasharray:none;stroke-opacity:1"
       transform="matrix(0.13333333,0,0,-0.13333333,0,124.48)" />
    <path
       id="path22"
       d="m 1123.25,458.25 48,207"
       style="fill:none;stroke:#231f20;stroke-width:3.8;stroke-linecap:butt;stroke-linejoin:miter;stroke-miterlimit:3.8637;stroke-dasharray:none;stroke-opacity:1"
       transform="matrix(0.13333333,0,0,-0.13333333,0,124.48)" />
    <path
       id="path23"
       d="m 1171.25,665.25 48,-207"
       style="fill:none;stroke:#231f20;stroke-width:3.8;stroke-linecap:butt;stroke-linejoin:miter;stroke-miterlimit:3.8637;stroke-dasharray:none;stroke-opacity:1"
       transform="matrix(0.13333333,0,0,-0.13333333,0,124.48)" />
    <path
       id="path24"
       d="m 1219.25,458.25 48,207"
       style="fill:none;stroke:#231f20;stroke-width:3.8;stroke-linecap:butt;stroke-linejoin:miter;stroke-miterlimit:3.8637;stroke-dasharray:none;stroke-opacity:1"
       transform="matrix(0.13333333,0,0,-0.13333333,0,124.48)" />
    <path
       id="path25"
       d="m 1267.25,665.25 48,-207"
       style="fill:none;stroke:#231f20;stroke-width:3.8;stroke-linecap:butt;stroke-linejoin:miter;stroke-miterlimit:3.8637;stroke-dasharray:none;stroke-opacity:1"
       transform="matrix(0.13333333,0,0,-0.13333333,0,124.48)" />
    <path
       id="path26"
       d="m 1315.25,458.25 48,207"
       style="fill:none;stroke:#231f20;stroke-width:3.8;stroke-linecap:butt;stroke-linejoin:miter;stroke-miterlimit:3.8637;stroke-dasharray:none;stroke-opacity:1"
       transform="matrix(0.13333333,0,0,-0.13333333,0,124.48)" />
    <path
       id="path27"
       d="m 1363.25,665.25 48,-207"
       style="fill:none;stroke:#231f20;stroke-width:3.8;stroke-linecap:butt;stroke-linejoin:miter;stroke-miterlimit:3.8637;stroke-dasharray:none;stroke-opacity:1"
       transform="matrix(0.13333333,0,0,-0.13333333,0,124.48)" />
    <path
       id="path28"
       d="m 1411.25,458.25 48,207"
       style="fill:none;stroke:#231f20;stroke-width:3.8;stroke-linecap:butt;stroke-linejoin:miter;stroke-miterlimit:3.8637;stroke-dasharray:none;stroke-opacity:1"
       transform="matrix(0.13333333,0,0,-0.13333333,0,124.48)" />
    <path
       id="path29"
       d="m 1459.25,665.25 49,-207"
       style="fill:none;stroke:#231f20;stroke-width:3.8;stroke-linecap:butt;stroke-linejoin:miter;stroke-miterlimit:3.8637;stroke-dasharray:none;stroke-opacity:1"
       transform="matrix(0.13333333,0,0,-0.13333333,0,124.48)" />
    <path
       id="path30"
       d="m 1508.25,458.25 48,207"
       style="fill:none;stroke:#231f20;stroke-width:3.8;stroke-linecap:butt;stroke-linejoin:miter;stroke-miterlimit:3.8637;stroke-dasharray:none;stroke-opacity:1"
       transform="matrix(0.13333333,0,0,-0.13333333,0,124.48)" />
    <path
       id="path31"
       d="m 1556.25,665.25 48,-207"
       style="fill:none;stroke:#231f20;stroke-width:3.8;stroke-linecap:butt;stroke-linejoin:miter;stroke-miterlimit:3.8637;stroke-dasharray:none;stroke-opacity:1"
       transform="matrix(0.13333333,0,0,-0.13333333,0,124.48)" />
    <path
       id="path32"
       d="m 1604.25,458.25 48,207"
       style="fill:none;stroke:#231f20;stroke-width:3.8;stroke-linecap:butt;stroke-linejoin:miter;stroke-miterlimit:3.8637;stroke-dasharray:none;stroke-opacity:1"
       transform="matrix(0.13333333,0,0,-0.13333333,0,124.48)" />
    <path
       id="path33"
       d="m 1652.25,665.25 48,-207"
       style="fill:none;stroke:#231f20;stroke-width:3.8;stroke-linecap:butt;stroke-linejoin:miter;stroke-miterlimit:3.8637;stroke-dasharray:none;stroke-opacity:1"
       transform="matrix(0.13333333,0,0,-0.13333333,0,124.48)" />
    <path
       id="path34"
       d="m 1700.25,458.25 24,104"
       style="fill:none;stroke:#231f20;stroke-width:3.8;stroke-linecap:butt;stroke-linejoin:miter;stroke-miterlimit:3.8637;stroke-dasharray:none;stroke-opacity:1"
       transform="matrix(0.13333333,0,0,-0.13333333,0,124.48)" />
    <path
       id="path35"
       d="m 1726.25,559.25 h 321"
       style="fill:none;stroke:#231f20;stroke-width:3.8;stroke-linecap:butt;stroke-linejoin:miter;stroke-miterlimit:3.8637;stroke-dasharray:none;stroke-opacity:1"
       transform="matrix(0.13333333,0,0,-0.13333333,0,124.48)" />
    <path
       id="path36"
       d="M 0.56328125,-0.00140625 V -6.4935937 H 3.9382812 v 6.49218745 z m 0.56249995,-0.5625 h 2.25 V -5.9310937 h -2.25 z M -159.33613,0.10113281 V -6.3910547 h 3.375 v 6.49218751 z m 0.5625,-0.5625 h 2.25 V -5.8285547 h -2.25 z m 0,0"
       style="fill:#231f20;fill-opacity:1;fill-rule:nonzero;stroke:none"
       aria-label="●&#10;●"
       transform="matrix(1.3333333,0,0,1.3333333,267.23333,54.58)" />
    <path
       id="path37"
       d="m 441.25,103.25 h 321"
       style="fill:none;stroke:#231f20;stroke-width:3.8;stroke-linecap:butt;stroke-linejoin:miter;stroke-miterlimit:3.8637;stroke-dasharray:none;stroke-opacity:1"
       transform="matrix(0.13333333,0,0,-0.13333333,0,124.48)" />
    <path
       id="path38"
       d="m 763.25,105.25 24,103"
       style="fill:none;stroke:#231f20;stroke-width:3.8;stroke-linecap:butt;stroke-linejoin:miter;stroke-miterlimit:3.8637;stroke-dasharray:none;stroke-opacity:1"
       transform="matrix(0.13333333,0,0,-0.13333333,0,124.48)" />
    <path
       id="path39"
       d="m 787.25,208.25 48,-206"
       style="fill:none;stroke:#231f20;stroke-width:3.8;stroke-linecap:butt;stroke-linejoin:miter;stroke-miterlimit:3.8637;stroke-dasharray:none;stroke-opacity:1"
       transform="matrix(0.13333333,0,0,-0.13333333,0,124.48)" />
    <path
       id="path40"
       d="m 835.25,2.25 48,206"
       style="fill:none;stroke:#231f20;stroke-width:3.8;stroke-linecap:butt;stroke-linejoin:miter;stroke-miterlimit:3.8637;stroke-dasharray:none;stroke-opacity:1"
       transform="matrix(0.13333333,0,0,-0.13333333,0,124.48)" />
    <path
       id="path41"
       d="m 883.25,208.25 48,-206"
       style="fill:none;stroke:#231f20;stroke-width:3.8;stroke-linecap:butt;stroke-linejoin:miter;stroke-miterlimit:3.8637;stroke-dasharray:none;stroke-opacity:1"
       transform="matrix(0.13333333,0,0,-0.13333333,0,124.48)" />
    <path
       id="path42"
       d="m 931.25,2.25 48,206"
       style="fill:none;stroke:#231f20;stroke-width:3.8;stroke-linecap:butt;stroke-linejoin:miter;stroke-miterlimit:3.8637;stroke-dasharray:none;stroke-opacity:1"
       transform="matrix(0.13333333,0,0,-0.13333333,0,124.48)" />
    <path
       id="path43"
       d="m 979.25,208.25 48,-206"
       style="fill:none;stroke:#231f20;stroke-width:3.8;stroke-linecap:butt;stroke-linejoin:miter;stroke-miterlimit:3.8637;stroke-dasharray:none;stroke-opacity:1"
       transform="matrix(0.13333333,0,0,-0.13333333,0,124.48)" />
    <path
       id="path44"
       d="m 1027.25,2.25 48,206"
       style="fill:none;stroke:#231f20;stroke-width:3.8;stroke-linecap:butt;stroke-linejoin:miter;stroke-miterlimit:3.8637;stroke-dasharray:none;stroke-opacity:1"
       transform="matrix(0.13333333,0,0,-0.13333333,0,124.48)" />
    <path
       id="path45"
       d="m 1075.25,208.25 48,-206"
       style="fill:none;stroke:#231f20;stroke-width:3.8;stroke-linecap:butt;stroke-linejoin:miter;stroke-miterlimit:3.8637;stroke-dasharray:none;stroke-opacity:1"
       transform="matrix(0.13333333,0,0,-0.13333333,0,124.48)" />
    <path
       id="path46"
       d="m 1123.25,2.25 48,206"
       style="fill:none;stroke:#231f20;stroke-width:3.8;stroke-linecap:butt;stroke-linejoin:miter;stroke-miterlimit:3.8637;stroke-dasharray:none;stroke-opacity:1"
       transform="matrix(0.13333333,0,0,-0.13333333,0,124.48)" />
    <path
       id="path47"
       d="m 1171.25,208.25 48,-206"
       style="fill:none;stroke:#231f20;stroke-width:3.8;stroke-linecap:butt;stroke-linejoin:miter;stroke-miterlimit:3.8637;stroke-dasharray:none;stroke-opacity:1"
       transform="matrix(0.13333333,0,0,-0.13333333,0,124.48)" />
    <path
       id="path48"
       d="m 1219.25,2.25 48,206"
       style="fill:none;stroke:#231f20;stroke-width:3.8;stroke-linecap:butt;stroke-linejoin:miter;stroke-miterlimit:3.8637;stroke-dasharray:none;stroke-opacity:1"
       transform="matrix(0.13333333,0,0,-0.13333333,0,124.48)" />
    <path
       id="path49"
       d="m 1267.25,208.25 48,-206"
       style="fill:none;stroke:#231f20;stroke-width:3.8;stroke-linecap:butt;stroke-linejoin:miter;stroke-miterlimit:3.8637;stroke-dasharray:none;stroke-opacity:1"
       transform="matrix(0.13333333,0,0,-0.13333333,0,124.48)" />
    <path
       id="path50"
       d="m 1315.25,2.25 48,206"
       style="fill:none;stroke:#231f20;stroke-width:3.8;stroke-linecap:butt;stroke-linejoin:miter;stroke-miterlimit:3.8637;stroke-dasharray:none;stroke-opacity:1"
       transform="matrix(0.13333333,0,0,-0.13333333,0,124.48)" />
    <path
       id="path51"
       d="m 1363.25,208.25 48,-206"
       style="fill:none;stroke:#231f20;stroke-width:3.8;stroke-linecap:butt;stroke-linejoin:miter;stroke-miterlimit:3.8637;stroke-dasharray:none;stroke-opacity:1"
       transform="matrix(0.13333333,0,0,-0.13333333,0,124.48)" />
    <path
       id="path52"
       d="m 1411.25,2.25 48,206"
       style="fill:none;stroke:#231f20;stroke-width:3.8;stroke-linecap:butt;stroke-linejoin:miter;stroke-miterlimit:3.8637;stroke-dasharray:none;stroke-opacity:1"
       transform="matrix(0.13333333,0,0,-0.13333333,0,124.48)" />
    <path
       id="path53"
       d="m 1459.25,208.25 49,-206"
       style="fill:none;stroke:#231f20;stroke-width:3.8;stroke-linecap:butt;stroke-linejoin:miter;stroke-miterlimit:3.8637;stroke-dasharray:none;stroke-opacity:1"
       transform="matrix(0.13333333,0,0,-0.13333333,0,124.48)" />
    <path
       id="path54"
       d="m 1508.25,2.25 48,206"
       style="fill:none;stroke:#231f20;stroke-width:3.8;stroke-linecap:butt;stroke-linejoin:miter;stroke-miterlimit:3.8637;stroke-dasharray:none;stroke-opacity:1"
       transform="matrix(0.13333333,0,0,-0.13333333,0,124.48)" />
    <path
       id="path55"
       d="m 1556.25,208.25 48,-206"
       style="fill:none;stroke:#231f20;stroke-width:3.8;stroke-linecap:butt;stroke-linejoin:miter;stroke-miterlimit:3.8637;stroke-dasharray:none;stroke-opacity:1"
       transform="matrix(0.13333333,0,0,-0.13333333,0,124.48)" />
    <path
       id="path56"
       d="m 1604.25,2.25 48,206"
       style="fill:none;stroke:#231f20;stroke-width:3.8;stroke-linecap:butt;stroke-linejoin:miter;stroke-miterlimit:3.8637;stroke-dasharray:none;stroke-opacity:1"
       transform="matrix(0.13333333,0,0,-0.13333333,0,124.48)" />
    <path
       id="path57"
       d="m 1652.25,208.25 48,-206"
       style="fill:none;stroke:#231f20;stroke-width:3.8;stroke-linecap:butt;stroke-linejoin:miter;stroke-miterlimit:3.8637;stroke-dasharray:none;stroke-opacity:1"
       transform="matrix(0.13333333,0,0,-0.13333333,0,124.48)" />
    <path
       id="path58"
       d="m 1700.25,2.25 24,103"
       style="fill:none;stroke:#231f20;stroke-width:3.8;stroke-linecap:butt;stroke-linejoin:miter;stroke-miterlimit:3.8637;stroke-dasharray:none;stroke-opacity:1"
       transform="matrix(0.13333333,0,0,-0.13333333,0,124.48)" />
    <path
       id="path59"
       d="m 1726.25,102.25 h 321"
       style="fill:none;stroke:#231f20;stroke-width:3.8;stroke-linecap:butt;stroke-linejoin:miter;stroke-miterlimit:3.8637;stroke-dasharray:none;stroke-opacity:1"
       transform="matrix(0.13333333,0,0,-0.13333333,0,124.48)" />
    <g
       id="g59"
       aria-label="●&#10;●&#10;u&#10;1&#10;, P&#10;1"
       transform="matrix(1.3333333,0,0,1.3333333,268.03333,115.38)">
      <path
         id="path60"
         d="M 0.56386719,-8.203125e-4 V -6.4930078 H 3.9388672 V -8.203125e-4 Z M 1.1263672,-0.56332031 h 2.25 V -5.9305078 h -2.25 z M -159.93613,0.20132813 V -6.2908594 h 3.375 v 6.49218753 z m 0.5625,-0.5625 h 2.25 V -5.7283594 h -2.25 z m 0,0"
         style="fill:#231f20;fill-opacity:1;fill-rule:nonzero;stroke:none" />
      <path
         id="path61"
         d="m -192.70762,-59.53793 c -0.42187,0.527344 -0.53906,0.632813 -0.66797,0.632813 -0.0586,0 -0.082,-0.04687 -0.082,-0.140625 0,-0.04687 0,-0.04687 0.15235,-0.621094 l 0.63281,-2.390625 h -0.59766 c -0.43359,1.183594 -0.51562,1.382813 -0.8789,1.957031 -0.48047,0.75 -0.87891,1.160157 -1.125,1.160157 -0.10547,0 -0.17578,-0.08203 -0.17578,-0.199219 0,-0.02344 0,-0.04687 0.0117,-0.07031 l 0.72657,-2.90625 -0.0234,-0.01172 c -0.46875,0.105468 -0.76172,0.152343 -1.19531,0.210937 v 0.117188 c 0.3164,0 0.3164,0 0.39843,0.04687 0.0352,0.01172 0.082,0.08203 0.082,0.140625 0,0.07031 -0.0469,0.269531 -0.11719,0.539062 l -0.29297,1.136719 c -0.15234,0.585937 -0.19922,0.84375 -0.19922,0.984375 0,0.292969 0.14063,0.445312 0.42188,0.445312 0.5625,0 0.99609,-0.433593 1.91015,-1.980468 -0.23437,0.867187 -0.36328,1.394531 -0.36328,1.570312 0,0.257813 0.15234,0.386719 0.38672,0.386719 0.375,0 0.55078,-0.152344 1.10156,-0.9375 z m 2.79492,3.9375 h 2.23829 v -0.117187 h -0.14063 c -0.38672,0 -0.55078,-0.07031 -0.55078,-0.257813 0,-0.07031 0.0234,-0.1875 0.0937,-0.421875 0.0234,-0.04687 0.0352,-0.09375 0.0586,-0.175781 l 1.13672,-4.148437 c 0.0469,-0.140625 0.0469,-0.199219 0.0469,-0.234375 0,-0.03516 -0.0117,-0.05859 -0.0352,-0.05859 0,0 -0.22266,0.04687 -0.65625,0.128906 l -0.72656,0.152344 c -0.0117,0 -0.0703,0.01172 -0.16406,0.02344 v 0.117188 l 0.45703,-0.01172 c 0.1875,-0.01172 0.30468,0.09375 0.30468,0.246094 0,0.05859 -0.0117,0.117187 -0.0586,0.28125 l -1.10156,3.9375 c -0.0937,0.292969 -0.26953,0.375 -0.90235,0.421875 z m 3.64747,-1.96875 c 0.67968,-0.375 1.04296,-0.820312 1.04296,-1.265625 0,-0.328125 -0.19921,-0.574218 -0.45703,-0.574218 -0.23437,0 -0.41015,0.164062 -0.41015,0.363281 0,0.152344 0.0469,0.234375 0.19922,0.375 0.11718,0.105469 0.15234,0.175781 0.15234,0.257812 0,0.210938 -0.17578,0.433594 -0.59766,0.703125 z m 7.13671,-6.128906 c 0.45704,0.05859 0.5625,0.128906 0.5625,0.339844 0,0.117187 -0.0351,0.257812 -0.1289,0.632812 l -0.94922,3.410157 c -0.14063,0.480468 -0.19922,0.527343 -0.65625,0.585937 v 0.128906 h 1.95703 v -0.128906 c -0.50391,-0.07031 -0.53906,-0.09375 -0.53906,-0.375 0,-0.09375 0.0117,-0.152344 0.0937,-0.457031 l 0.42187,-1.546875 c 0.21094,0.04687 0.39844,0.07031 0.73828,0.07031 0.65625,0 1.20704,-0.140625 1.53516,-0.386718 0.39844,-0.292969 0.63281,-0.738282 0.63281,-1.207032 0,-0.773437 -0.59765,-1.195312 -1.6875,-1.195312 h -1.98047 z m 1.40625,0.339844 c 0.0469,-0.175781 0.14063,-0.234375 0.36329,-0.234375 0.3164,0 0.62109,0.08203 0.78515,0.199219 0.19922,0.140625 0.29297,0.386718 0.29297,0.761718 0,0.515625 -0.1875,0.890625 -0.53906,1.089844 -0.2461,0.140625 -0.5625,0.199219 -1.05469,0.199219 -0.14062,0 -0.1875,0 -0.42187,-0.03516 z m 5.10938,7.757812 h 2.23828 v -0.117187 h -0.14062 c -0.38672,0 -0.55079,-0.07031 -0.55079,-0.257813 0,-0.07031 0.0234,-0.1875 0.0937,-0.421875 0.0234,-0.04687 0.0352,-0.09375 0.0586,-0.175781 l 1.13672,-4.148437 c 0.0469,-0.140625 0.0469,-0.199219 0.0469,-0.234375 0,-0.03516 -0.0117,-0.05859 -0.0352,-0.05859 0,0 -0.22266,0.04687 -0.65625,0.128906 l -0.72657,0.152344 c -0.0117,0 -0.0703,0.01172 -0.16406,0.02344 v 0.117188 l 0.45703,-0.01172 c 0.1875,-0.01172 0.30469,0.09375 0.30469,0.246094 0,0.05859 -0.0117,0.117187 -0.0586,0.28125 l -1.10157,3.9375 c -0.0937,0.292969 -0.26953,0.375 -0.90234,0.421875 z m 0,0"
         style="fill:#231f20;fill-opacity:1;fill-rule:nonzero;stroke:none" />
    </g>
  </g>
</svg>
