<?xml version="1.0" encoding="UTF-8" standalone="no"?>
<!-- Created with Inkscape (http://www.inkscape.org/) -->

<svg
   version="1.1"
   id="svg1"
   width="317.02667"
   height="112.57333"
   viewBox="0 0 317.02667 112.57333"
   sodipodi:docname="ANA2.EPS"
   xmlns:inkscape="http://www.inkscape.org/namespaces/inkscape"
   xmlns:sodipodi="http://sodipodi.sourceforge.net/DTD/sodipodi-0.dtd"
   xmlns="http://www.w3.org/2000/svg"
   xmlns:svg="http://www.w3.org/2000/svg">
  <defs
     id="defs1" />
  <sodipodi:namedview
     id="namedview1"
     pagecolor="#ffffff"
     bordercolor="#000000"
     borderopacity="0.25"
     inkscape:showpageshadow="2"
     inkscape:pageopacity="0.0"
     inkscape:pagecheckerboard="0"
     inkscape:deskcolor="#d1d1d1">
    <inkscape:page
       x="0"
       y="0"
       inkscape:label="1"
       id="page1"
       width="317.02667"
       height="112.57333"
       margin="0"
       bleed="0" />
  </sodipodi:namedview>
  <g
     id="g1"
     inkscape:groupmode="layer"
     inkscape:label="1">
    <path
       id="path1"
       d="m 371.25,635.25 h 1601 v -56 h -1601 z"
       style="fill:none;stroke:#231f20;stroke-width:4.359;stroke-linecap:butt;stroke-linejoin:miter;stroke-miterlimit:3.8637;stroke-dasharray:none;stroke-opacity:1"
       transform="matrix(0.13333333,0,0,-0.13333333,0,112.57333)" />
    <path
       id="path2"
       d="m 1.25,609.25 h 334"
       style="fill:none;stroke:#231f20;stroke-width:2.5;stroke-linecap:butt;stroke-linejoin:miter;stroke-miterlimit:3.8637;stroke-dasharray:none;stroke-opacity:1"
       transform="matrix(0.13333333,0,0,-0.13333333,0,112.57333)" />
    <path
       id="path3"
       d="m 333.25,609.25 v 15 l 37,-15 -37,-15 v 15"
       style="fill:#231f20;fill-opacity:1;fill-rule:evenodd;stroke:none"
       transform="matrix(0.13333333,0,0,-0.13333333,0,112.57333)" />
    <path
       id="path4"
       d="m 1976.25,609.25 h 334"
       style="fill:none;stroke:#231f20;stroke-width:2.5;stroke-linecap:butt;stroke-linejoin:miter;stroke-miterlimit:3.8637;stroke-dasharray:none;stroke-opacity:1"
       transform="matrix(0.13333333,0,0,-0.13333333,0,112.57333)" />
    <path
       id="path5"
       d="m 2308.25,609.25 v 15 l 37,-15 -37,-15 v 15"
       style="fill:#231f20;fill-opacity:1;fill-rule:evenodd;stroke:none"
       transform="matrix(0.13333333,0,0,-0.13333333,0,112.57333)" />
    <path
       id="path6"
       d="M 7.6056641,-7.8409375 H 1.6408203 v 0.1992188 c 0.75,0.070312 0.9257813,0.1640625 0.9257813,0.4921875 0,0.140625 -0.070312,0.5390625 -0.1289063,0.7617187 L 0.96113281,-1.0792187 C 0.76191406,-0.39953125 0.65644531,-0.3175 -0.01152344,-0.18859375 v 0.1875 H 6.0705078 l 0.75,-1.94531245 -0.1992187,-0.09375 c -0.5625,0.7734375 -0.8789063,1.07812495 -1.3945313,1.3242187 -0.4335937,0.19921875 -1.2539062,0.31640625 -2.1679687,0.31640625 -0.6679688,0 -0.9492188,-0.1171875 -0.9492188,-0.41015625 0,-0.140625 0.1523438,-0.703125 0.4335938,-1.7460937 l 0.3867187,-1.3828125 c 0.1875,0.011719 0.375,0.023437 0.5625,0.023437 l 0.5507813,0.011719 c 0.3398437,0.011719 0.6210937,0.070312 0.7148437,0.140625 0.1054688,0.09375 0.1289063,0.1757813 0.1289063,0.4101563 0,0.2226562 -0.023437,0.3632812 -0.082031,0.6328125 l 0.234375,0.058594 0.8203125,-2.7890625 -0.2226562,-0.046875 c -0.4570313,1.0195313 -0.5742188,1.1015625 -1.6523438,1.1367188 -0.140625,0 -0.5273437,0.011719 -0.9492187,0.023437 l 0.796875,-2.7890625 c 0.070312,-0.28125 0.1875,-0.3164063 0.8789062,-0.3164063 1.875,0 2.296875,0.1523438 2.296875,0.8789063 0,0.1523437 -0.011719,0.3398437 -0.023437,0.5390625 l 0.2460938,0.023437 z M 7.3917969,1.5457813 C 8.4113281,0.98328125 8.9503906,0.3153125 8.9503906,-0.364375 c 0,-0.48046875 -0.2929687,-0.84375 -0.6914062,-0.84375 -0.3515625,0 -0.609375,0.234375 -0.609375,0.55078125 0,0.22265625 0.070312,0.33984375 0.2929687,0.55078125 0.1875,0.1640625 0.2460938,0.2578125 0.2460938,0.38671875 0,0.31640625 -0.2695313,0.64453125 -0.9023438,1.06640625 z M 20.106641,-0.18859375 c -0.691407,-0.0703125 -0.761719,-0.1640625 -0.914063,-1.03124995 l -1.136719,-6.796875 h -0.304687 l -3.480469,6 c -0.949219,1.59374995 -1.066406,1.7226562 -1.546875,1.82812495 v 0.1875 h 2.238281 v -0.1875 c -0.609375,-0.0703125 -0.703125,-0.12890625 -0.703125,-0.421875 0,-0.234375 0.03516,-0.33984375 0.234375,-0.74999995 l 0.691407,-1.3476563 h 2.636718 l 0.234375,1.5703125 c 0.01172,0.1054688 0.03516,0.2109375 0.03516,0.3046875 0,0.45703125 -0.175782,0.5625 -0.9375,0.64453125 v 0.1875 h 2.953125 z m -4.675782,-2.95312495 1.804688,-3.1289063 0.527344,3.1289063 z m 0,0"
       style="fill:#231f20;fill-opacity:1;fill-rule:nonzero;stroke:none"
       aria-label="E, A"
       transform="matrix(1.3333333,0,0,1.3333333,212.43333,52.673333)" />
    <path
       id="path7"
       d="m 1564.25,476.25 c -35.45,-1.055 -101.43,7.301 -150,44 -35.93,27.977 -47.97,41.379 -70,94"
       style="fill:none;stroke:#231f20;stroke-width:2.5;stroke-linecap:butt;stroke-linejoin:miter;stroke-miterlimit:3.8637;stroke-dasharray:none;stroke-opacity:1"
       transform="matrix(0.13333333,0,0,-0.13333333,0,112.57333)" />
    <path
       id="path8"
       d="m 1972.25,34.25 h 334"
       style="fill:none;stroke:#231f20;stroke-width:2.5;stroke-linecap:butt;stroke-linejoin:miter;stroke-miterlimit:3.8637;stroke-dasharray:none;stroke-opacity:1"
       transform="matrix(0.13333333,0,0,-0.13333333,0,112.57333)" />
    <path
       id="path9"
       d="m 2304.25,34.25 v 15 l 37,-15 -37,-15 v 15"
       style="fill:#231f20;fill-opacity:1;fill-rule:evenodd;stroke:none"
       transform="matrix(0.13333333,0,0,-0.13333333,0,112.57333)" />
    <path
       id="path10"
       d="m 374.25,34.25 h -335"
       style="fill:none;stroke:#231f20;stroke-width:2.5;stroke-linecap:butt;stroke-linejoin:miter;stroke-miterlimit:3.8637;stroke-dasharray:none;stroke-opacity:1"
       transform="matrix(0.13333333,0,0,-0.13333333,0,112.57333)" />
    <path
       id="path11"
       d="m 42.25,34.25 v -15 l -38,15 38,15 v -15"
       style="fill:#231f20;fill-opacity:1;fill-rule:evenodd;stroke:none"
       transform="matrix(0.13333333,0,0,-0.13333333,0,112.57333)" />
    <path
       id="path12"
       d="M 8.7181641,-7.8411328 H 6.3392578 v 0.1992187 c 0.6796875,0.058594 0.8320313,0.1757813 0.8320313,0.609375 0,0.140625 -0.023437,0.2695313 -0.1054688,0.5273438 -0.011719,0.035156 -0.023437,0.082031 -0.023437,0.09375 l -1.21875,4.5585937 -2.4960937,-5.9882812 H 1.3939453 v 0.1992187 c 0.5625,0.046875 0.796875,0.1992188 1.03125,0.6679688 l -1.42968749,5.0039062 c -0.45703125,1.53515629 -0.55078125,1.67578129 -1.23046875,1.78125004 v 0.1875 H 2.1322266 v -0.1875 c -0.6210938,-0.046875 -0.8320313,-0.1875 -0.8320313,-0.515625 0,-0.1640625 0.035156,-0.39843754 0.1054688,-0.65625004 l 1.3710937,-5.0625 2.7539063,6.59765629 h 0.2109375 l 1.734375,-6.03515629 c 0.4453125,-1.5585937 0.4921875,-1.6171875 1.2421875,-1.78125 z M 207.21914,-8.2395703 h -2.37891 v 0.1992187 c 0.67969,0.058594 0.83204,0.1757813 0.83204,0.609375 0,0.140625 -0.0234,0.2695313 -0.10547,0.5273438 -0.0117,0.035156 -0.0234,0.082031 -0.0234,0.09375 l -1.21875,4.5585937 -2.49609,-5.9882812 h -1.9336 v 0.1992187 c 0.5625,0.046875 0.79688,0.1992188 1.03125,0.6679688 l -1.42969,5.0039062 c -0.45703,1.53515629 -0.55078,1.67578129 -1.23046,1.78125004 v 0.1875 h 2.36718 v -0.1875 c -0.62109,-0.046875 -0.83203,-0.1875 -0.83203,-0.51562504 0,-0.1640625 0.0352,-0.3984375 0.10547,-0.65625 l 1.37109,-5.0625 2.75391,6.59765629 h 0.21094 l 1.73437,-6.03515629 c 0.44532,-1.5585937 0.49219,-1.6171875 1.24219,-1.78125 z m 0,0"
       style="fill:#231f20;fill-opacity:1;fill-rule:nonzero;stroke:none"
       aria-label="N&#10;N"
       transform="matrix(1.3333333,0,0,1.3333333,16.7,99.74)" />
    <path
       id="path13"
       d="m 372.25,59.25 h 1601 v -57 h -1601 z"
       style="fill:none;stroke:#231f20;stroke-width:4.359;stroke-linecap:butt;stroke-linejoin:miter;stroke-miterlimit:3.8637;stroke-dasharray:none;stroke-opacity:1"
       transform="matrix(0.13333333,0,0,-0.13333333,0,112.57333)" />
    <path
       id="path14"
       d="m 409.25,295.25 h 1529"
       style="fill:none;stroke:#231f20;stroke-width:2.5;stroke-linecap:butt;stroke-linejoin:miter;stroke-miterlimit:3.8637;stroke-dasharray:none;stroke-opacity:1"
       transform="matrix(0.13333333,0,0,-0.13333333,0,112.57333)" />
    <path
       id="path15"
       d="m 411.25,295.25 v -15 l -37,15 37,15 v -15"
       style="fill:#231f20;fill-opacity:1;fill-rule:evenodd;stroke:none"
       transform="matrix(0.13333333,0,0,-0.13333333,0,112.57333)" />
    <path
       id="path16"
       d="m 1935.25,295.25 v 15 l 38,-15 -38,-15 v 15"
       style="fill:#231f20;fill-opacity:1;fill-rule:evenodd;stroke:none"
       transform="matrix(0.13333333,0,0,-0.13333333,0,112.57333)" />
    <path
       id="path17"
       d="m 374.25,376.25 v -168"
       style="fill:none;stroke:#231f20;stroke-width:2.5;stroke-linecap:butt;stroke-linejoin:miter;stroke-miterlimit:3.8637;stroke-dasharray:none;stroke-opacity:1"
       transform="matrix(0.13333333,0,0,-0.13333333,0,112.57333)" />
    <path
       id="path18"
       d="m 4.8402344,-7.8387891 h -3.28125 v 0.1992188 c 0.7617187,0.070312 0.9257812,0.1640625 0.9257812,0.515625 0,0.1757812 -0.035156,0.421875 -0.1289062,0.7382812 l -1.47656252,5.3085938 c -0.22265625,0.69140624 -0.3046875,0.76171874 -0.97265625,0.89062499 v 0.1875 H 6.0121094 l 0.6914062,-2.14453129 -0.234375,-0.070312 c -0.421875,0.8554688 -0.75,1.24218754 -1.2773437,1.51171879 -0.4101563,0.19921875 -0.9023438,0.26953125 -1.96875,0.26953125 -0.890625,0 -1.1953125,-0.09375 -1.1953125,-0.41015625 0,-0.09375 0.046875,-0.33984379 0.1171875,-0.59765629 l 1.4765625,-5.3203125 c 0.1875,-0.609375 0.4921875,-0.8320312 1.21875,-0.8789062 z m 0,0"
       style="fill:#231f20;fill-opacity:1;fill-rule:nonzero;stroke:none"
       aria-label="L"
       transform="matrix(1.3333333,0,0,1.3333333,155.36667,62.94)" />
    <path
       id="path19"
       d="m 1972.25,376.25 v -168"
       style="fill:none;stroke:#231f20;stroke-width:2.5;stroke-linecap:butt;stroke-linejoin:miter;stroke-miterlimit:3.8637;stroke-dasharray:none;stroke-opacity:1"
       transform="matrix(0.13333333,0,0,-0.13333333,0,112.57333)" />
    <path
       id="path20"
       d="m 3.6916016,-0.93683594 c -0.421875,0.52734375 -0.5390625,0.6328125 -0.6679688,0.6328125 -0.058594,0 -0.082031,-0.046875 -0.082031,-0.140625 0,-0.046875 0,-0.046875 0.1523437,-0.62109376 L 3.726758,-3.4563672 H 3.1291016 c -0.4335938,1.1835938 -0.515625,1.3828125 -0.8789063,1.9570313 -0.4804687,0.74999996 -0.8789062,1.16015621 -1.125,1.16015621 -0.1054687,0 -0.17578124,-0.0820313 -0.17578124,-0.19921875 0,-0.0234375 0,-0.046875 0.0117188,-0.0703125 L 1.6876953,-3.5149609 1.6642578,-3.5266797 c -0.46875,0.1054688 -0.76171874,0.1523438 -1.19531249,0.2109375 v 0.1171875 c 0.31640625,0 0.31640625,0 0.3984375,0.046875 0.0351563,0.011719 0.0820313,0.082031 0.0820313,0.140625 0,0.070312 -0.046875,0.2695313 -0.1171875,0.5390625 l -0.29296875,1.1367188 c -0.15234375,0.58593746 -0.19921875,0.84374996 -0.19921875,0.98437496 0,0.29296875 0.140625,0.4453125 0.421875,0.4453125 0.56249999,0 0.99609369,-0.43359375 1.91015619,-1.98046876 -0.234375,0.8671875 -0.3632811,1.39453126 -0.3632811,1.57031251 0,0.2578125 0.1523436,0.38671875 0.3867186,0.38671875 0.375,0 0.5507814,-0.15234375 1.1015625,-0.9375 z M 9.1994141,1.8873828 C 9.0119141,2.2858203 8.8595703,2.3795703 8.4142578,2.3912891 H 6.8908203 V 2.3561328 L 8.4259766,0.82097656 c 0.9375,-0.9375 1.1953125,-1.34765625 1.1953125,-1.87499996 0,-0.7617188 -0.5742188,-1.359375 -1.3007813,-1.359375 -0.2929687,0 -0.5859375,0.070312 -0.8203125,0.2109375 -0.4101562,0.2226562 -0.6328125,0.4921875 -0.8554687,1.078125 l 0.1640625,0.046875 c 0.2929687,-0.515625 0.6445312,-0.75 1.125,-0.75 0.5742187,0 0.9960937,0.421875 0.9960937,0.97265621 0,0.17578125 -0.023437,0.328125 -0.070312,0.43359375 -0.1992187,0.43359375 -0.5625,0.9375 -1.078125,1.48828124 l -1.6875,1.7929688 v 0.140625 H 8.9416016 L 9.3400391,1.9459766 Z M 10.034375,1.0319141 c 0.679688,-0.37500004 1.042969,-0.82031254 1.042969,-1.26562504 0,-0.328125 -0.199219,-0.57421875 -0.457031,-0.57421875 -0.234375,0 -0.410157,0.1640625 -0.410157,0.36328125 0,0.15234375 0.04687,0.234375 0.199219,0.375 0.117188,0.10546875 0.152344,0.17578125 0.152344,0.2578125 0,0.2109375 -0.175781,0.43359375 -0.5976565,0.703125 z m 7.136719,-6.1289063 c 0.457031,0.058594 0.5625,0.1289063 0.5625,0.3398438 0,0.1171875 -0.03516,0.2578125 -0.128906,0.6328125 l -0.949219,3.41015621 c -0.140625,0.48046875 -0.199219,0.52734375 -0.65625,0.5859375 V 6.640625e-4 H 17.95625 V -0.12824219 c -0.503906,-0.0703125 -0.539062,-0.09375 -0.539062,-0.375 0,-0.09375 0.01172,-0.15234375 0.09375,-0.45703125 l 0.421875,-1.54687496 c 0.210937,0.046875 0.398437,0.070312 0.738281,0.070312 0.65625,0 1.207031,-0.140625 1.535156,-0.3867188 0.398438,-0.2929687 0.632813,-0.7382812 0.632813,-1.2070312 0,-0.7734375 -0.597657,-1.1953125 -1.6875,-1.1953125 h -1.980469 z m 1.40625,0.3398438 c 0.04687,-0.1757813 0.140625,-0.234375 0.363281,-0.234375 0.316406,0 0.621094,0.082031 0.785156,0.1992187 0.199219,0.140625 0.292969,0.3867188 0.292969,0.7617188 0,0.515625 -0.1875,0.890625 -0.539062,1.0898437 -0.246094,0.140625 -0.5625,0.1992188 -1.054688,0.1992188 -0.140625,0 -0.1875,0 -0.421875,-0.035156 z m 8.021484,6.6445312 c -0.1875,0.3984375 -0.339844,0.4921875 -0.785156,0.5039063 h -1.523438 v -0.035156 l 1.535157,-1.53515624 c 0.9375,-0.9375 1.195312,-1.34765625 1.195312,-1.87499996 0,-0.7617188 -0.574219,-1.359375 -1.300781,-1.359375 -0.292969,0 -0.585938,0.070312 -0.820313,0.2109375 -0.410156,0.2226562 -0.632812,0.4921875 -0.855468,1.078125 l 0.164062,0.046875 c 0.292969,-0.515625 0.644531,-0.75 1.125,-0.75 0.574219,0 0.996094,0.421875 0.996094,0.97265621 0,0.17578125 -0.02344,0.328125 -0.07031,0.43359375 -0.199218,0.43359375 -0.5625,0.9375 -1.078125,1.48828124 l -1.6875,1.7929688 v 0.140625 h 2.847657 L 26.739453,1.9459766 Z M -192.40996,-1.1360547 c -0.42188,0.52734376 -0.53906,0.63281251 -0.66797,0.63281251 -0.0586,0 -0.082,-0.046875 -0.082,-0.140625 0,-0.046875 0,-0.046875 0.15234,-0.62109371 l 0.63282,-2.390625 h -0.59766 c -0.43359,1.1835937 -0.51563,1.3828125 -0.87891,1.9570312 -0.48047,0.75000001 -0.8789,1.16015626 -1.125,1.16015626 -0.10547,0 -0.17578,-0.0820313 -0.17578,-0.19921875 0,-0.0234375 0,-0.046875 0.0117,-0.0703125 l 0.72656,-2.90625001 -0.0234,-0.011719 c -0.46875,0.1054687 -0.76172,0.1523437 -1.19532,0.2109375 v 0.1171875 c 0.31641,0 0.31641,0 0.39844,0.046875 0.0352,0.011719 0.082,0.082031 0.082,0.140625 0,0.070312 -0.0469,0.2695312 -0.11719,0.5390625 l -0.29296,1.1367187 c -0.15235,0.58593751 -0.19922,0.84375001 -0.19922,0.98437501 0,0.29296875 0.14062,0.4453125 0.42187,0.4453125 0.5625,0 0.9961,-0.43359375 1.91016,-1.98046871 -0.23438,0.8671875 -0.36328,1.39453121 -0.36328,1.57031246 0,0.2578125 0.15234,0.38671875 0.38672,0.38671875 0.375,0 0.55078,-0.15234375 1.10156,-0.93750001 z m 2.69531,3.9375 h 2.23828 V 2.6842578 h -0.14062 c -0.38672,0 -0.55078,-0.070312 -0.55078,-0.2578125 0,-0.070312 0.0234,-0.1875 0.0937,-0.421875 0.0234,-0.046875 0.0351,-0.09375 0.0586,-0.1757812 l 1.13672,-4.1484375 c 0.0469,-0.140625 0.0469,-0.1992188 0.0469,-0.234375 0,-0.035156 -0.0117,-0.058594 -0.0351,-0.058594 0,0 -0.22266,0.046875 -0.65625,0.1289063 l -0.72656,0.1523437 c -0.0117,0 -0.0703,0.011719 -0.16407,0.023437 v 0.1171875 l 0.45703,-0.011719 c 0.1875,-0.011719 0.30469,0.09375 0.30469,0.2460937 0,0.058594 -0.0117,0.1171875 -0.0586,0.28125 l -1.10156,3.9375 c -0.0937,0.2929688 -0.26954,0.375 -0.90235,0.421875 z m 3.65039,-1.96874999 c 0.67969,-0.375 1.04297,-0.8203125 1.04297,-1.265625 0,-0.328125 -0.19922,-0.57421871 -0.45703,-0.57421871 -0.23438,0 -0.41016,0.16406246 -0.41016,0.36328121 0,0.15234375 0.0469,0.234375 0.19922,0.375 0.11719,0.10546875 0.15235,0.17578125 0.15235,0.2578125 0,0.2109375 -0.17579,0.43359375 -0.59766,0.703125 z m 7.13672,-6.12890621 c 0.45703,0.058594 0.5625,0.1289062 0.5625,0.3398437 0,0.1171875 -0.0352,0.2578125 -0.12891,0.6328125 l -0.94921,3.41015626 c -0.14063,0.48046875 -0.19922,0.52734375 -0.65625,0.5859375 v 0.12890625 h 1.95703 v -0.12890625 c -0.50391,-0.0703125 -0.53907,-0.09375 -0.53907,-0.375 0,-0.09375 0.0117,-0.15234375 0.0937,-0.45703126 l 0.42188,-1.546875 c 0.21094,0.046875 0.39844,0.070312 0.73828,0.070312 0.65625,0 1.20703,-0.140625 1.53516,-0.3867187 0.39843,-0.2929688 0.63281,-0.7382813 0.63281,-1.2070313 0,-0.7734375 -0.59766,-1.1953125 -1.6875,-1.1953125 h -1.98047 z m 1.40625,0.3398437 c 0.0469,-0.1757812 0.14063,-0.234375 0.36328,-0.234375 0.31641,0 0.6211,0.082031 0.78516,0.1992188 0.19922,0.140625 0.29297,0.3867187 0.29297,0.7617187 0,0.515625 -0.1875,0.890625 -0.53907,1.0898438 -0.24609,0.140625 -0.5625,0.1992187 -1.05468,0.1992187 -0.14063,0 -0.1875,0 -0.42188,-0.035156 z m 5.10938,7.7578125 h 2.23828 V 2.6842578 h -0.14063 c -0.38672,0 -0.55078,-0.070312 -0.55078,-0.2578125 0,-0.070312 0.0234,-0.1875 0.0937,-0.421875 0.0234,-0.046875 0.0352,-0.09375 0.0586,-0.1757812 l 1.13672,-4.1484375 c 0.0469,-0.140625 0.0469,-0.1992188 0.0469,-0.234375 0,-0.035156 -0.0117,-0.058594 -0.0352,-0.058594 0,0 -0.22265,0.046875 -0.65625,0.1289063 l -0.72656,0.1523437 c -0.0117,0 -0.0703,0.011719 -0.16406,0.023437 v 0.1171875 l 0.45703,-0.011719 c 0.1875,-0.011719 0.30469,0.09375 0.30469,0.2460937 0,0.058594 -0.0117,0.1171875 -0.0586,0.28125 l -1.10156,3.9375 c -0.0937,0.2929688 -0.26953,0.375 -0.90234,0.421875 z m 0,0"
       style="fill:#231f20;fill-opacity:1;fill-rule:nonzero;stroke:none"
       aria-label="u&#10;2&#10;, P&#10;2&#10;u&#10;1&#10;, P&#10;1"
       transform="matrix(1.3333333,0,0,1.3333333,268.43333,17.073333)" />
  </g>
</svg>
