<?xml version="1.0" encoding="UTF-8" standalone="no"?>
<!-- Created with Inkscape (http://www.inkscape.org/) -->

<svg
   version="1.1"
   id="svg1"
   width="321.33334"
   height="136"
   viewBox="0 0 321.33334 136"
   sodipodi:docname="ANA3.eps"
   xmlns:inkscape="http://www.inkscape.org/namespaces/inkscape"
   xmlns:sodipodi="http://sodipodi.sourceforge.net/DTD/sodipodi-0.dtd"
   xmlns="http://www.w3.org/2000/svg"
   xmlns:svg="http://www.w3.org/2000/svg">
  <defs
     id="defs1" />
  <sodipodi:namedview
     id="namedview1"
     pagecolor="#ffffff"
     bordercolor="#000000"
     borderopacity="0.25"
     inkscape:showpageshadow="2"
     inkscape:pageopacity="0.0"
     inkscape:pagecheckerboard="0"
     inkscape:deskcolor="#d1d1d1">
    <inkscape:page
       x="0"
       y="0"
       inkscape:label="1"
       id="page1"
       width="321.33334"
       height="136"
       margin="0"
       bleed="0" />
  </sodipodi:namedview>
  <g
     id="g1"
     inkscape:groupmode="layer"
     inkscape:label="1">
    <path
       id="path1"
       d="M 405,1012.17 H 2005 V 289.668 H 405 v 722.502"
       style="fill:#e9e9e9;fill-opacity:1;fill-rule:nonzero;stroke:none"
       transform="matrix(0.13333333,0,0,-0.13333333,0,136)" />
    <path
       id="path2"
       d="m 1793.81,837.5 h 142.5 V 650 h -142.5 v 187.5"
       style="fill:#ffffff;fill-opacity:1;fill-rule:nonzero;stroke:none"
       transform="matrix(0.13333333,0,0,-0.13333333,0,136)" />
    <path
       id="path3"
       d="m 1136.31,878.84 h 142.5 v -187.5 h -142.5 v 187.5"
       style="fill:#ffffff;fill-opacity:1;fill-rule:nonzero;stroke:none"
       transform="matrix(0.13333333,0,0,-0.13333333,0,136)" />
    <path
       id="path4"
       d="m 793.809,571.34 h 142.5 v -187.5 h -142.5 v 187.5"
       style="fill:#ffffff;fill-opacity:1;fill-rule:nonzero;stroke:none"
       transform="matrix(0.13333333,0,0,-0.13333333,0,136)" />
    <path
       id="path5"
       d="M 455,837.5 H 597.5 V 650 H 455 v 187.5"
       style="fill:#ffffff;fill-opacity:1;fill-rule:nonzero;stroke:none"
       transform="matrix(0.13333333,0,0,-0.13333333,0,136)" />
    <path
       id="path6"
       d="M 2005,133.227 V 8.85156"
       style="fill:none;stroke:#231f20;stroke-width:2.5;stroke-linecap:butt;stroke-linejoin:miter;stroke-miterlimit:3.86369;stroke-dasharray:none;stroke-opacity:1"
       transform="matrix(0.13333333,0,0,-0.13333333,0,136)" />
    <path
       id="path7"
       d="M 401.336,133.551 V 9.17578"
       style="fill:none;stroke:#231f20;stroke-width:2.5;stroke-linecap:butt;stroke-linejoin:miter;stroke-miterlimit:3.86369;stroke-dasharray:none;stroke-opacity:1"
       transform="matrix(0.13333333,0,0,-0.13333333,0,136)" />
    <path
       id="path8"
       d="M 435,67.6016 H 1980"
       style="fill:none;stroke:#231f20;stroke-width:2.5;stroke-linecap:butt;stroke-linejoin:miter;stroke-miterlimit:3.86369;stroke-dasharray:none;stroke-opacity:1"
       transform="matrix(0.13333333,0,0,-0.13333333,0,136)" />
    <path
       id="path9"
       d="m 435.688,60.7266 -22,7.5664 22,7.5586 z"
       style="fill:#231f20;fill-opacity:1;fill-rule:nonzero;stroke:#231f20;stroke-width:2.5;stroke-linecap:butt;stroke-linejoin:miter;stroke-miterlimit:3.86369;stroke-dasharray:none;stroke-opacity:1"
       transform="matrix(0.13333333,0,0,-0.13333333,0,136)" />
    <path
       id="path10"
       d="m 1979.31,74.4766 22,-7.5625 -22,-7.5586 z"
       style="fill:#231f20;fill-opacity:1;fill-rule:nonzero;stroke:#231f20;stroke-width:2.5;stroke-linecap:butt;stroke-linejoin:miter;stroke-miterlimit:3.86369;stroke-dasharray:none;stroke-opacity:1"
       transform="matrix(0.13333333,0,0,-0.13333333,0,136)" />
    <path
       id="path11"
       d="m 2.6947641,-4.0419703 h 3.3984375 l 0.515625,-1.8046875 c 0.1054687,-0.3515625 0.1523437,-0.6210938 0.1523437,-0.8085938 0,-0.1054687 -0.011719,-0.1757812 -0.070312,-0.2460937 -0.046875,-0.058594 -0.1054687,-0.1171875 -0.1992187,-0.1523438 -0.09375,-0.035156 -0.2695313,-0.046875 -0.5507813,-0.046875 l 0.058594,-0.1992187 H 8.917421 l -0.070312,0.1992187 c -0.2578125,0 -0.4335937,0.023437 -0.5507812,0.082031 -0.1757813,0.070312 -0.3046875,0.1757812 -0.3867188,0.28125 -0.1171875,0.1757812 -0.2460937,0.4804687 -0.3632812,0.890625 l -1.3007813,4.5234375 c -0.1054687,0.32812499 -0.1640625,0.57421874 -0.1640625,0.71484374 0,0.12890625 0.058594,0.2109375 0.140625,0.28125 0.1054688,0.0585938 0.3398438,0.10546875 0.6914063,0.12890625 L 6.8549203,9.984375e-4 H 4.0541391 L 4.1244516,-0.19822031 c 0.2929687,-0.0117188 0.4804687,-0.0351563 0.5625,-0.0703125 0.140625,-0.0703125 0.2578125,-0.15234375 0.3046875,-0.24609375 0.1054687,-0.140625 0.2109375,-0.45703125 0.3515625,-0.91406254 L 5.9877328,-3.6669703 H 2.5892953 l -0.6796875,2.34375 c -0.09375,0.32812499 -0.1523437,0.56249999 -0.1523437,0.71484374 0,0.12890625 0.046875,0.2109375 0.140625,0.28125 0.09375,0.0585938 0.328125,0.10546875 0.6796875,0.12890625 L 2.5307016,9.984375e-4 h -2.81250004 l 0.0585937,-0.1992187475 c 0.29296875,-0.0117188 0.48046875,-0.0351563 0.57421875,-0.0703125 0.140625,-0.0703125 0.24609375,-0.15234375 0.3046875,-0.24609375 0.10546875,-0.15234375 0.2109375,-0.45703125 0.35156249,-0.91406254 l 1.265625,-4.4179687 c 0.1054687,-0.3632813 0.1640625,-0.6210938 0.1640625,-0.8085938 0,-0.1054687 -0.023437,-0.1757812 -0.070312,-0.2460937 -0.046875,-0.058594 -0.1171875,-0.1171875 -0.2109375,-0.1523438 -0.09375,-0.035156 -0.2812501,-0.046875 -0.5625001,-0.046875 l 0.070312,-0.1992187 h 2.8710937 l -0.058594,0.1992187 c -0.234375,0 -0.421875,0.023437 -0.5390625,0.082031 -0.1640625,0.070312 -0.28125,0.1640625 -0.3632813,0.28125 -0.1054687,0.1523437 -0.234375,0.4570312 -0.3632812,0.890625 z M 13.259217,-5.1728297 11.524842,0.86232656 c -0.09375,0.35156254 -0.152344,0.59765624 -0.152344,0.76171874 0,0.1289063 0.04687,0.234375 0.128907,0.3046875 0.105468,0.070312 0.316406,0.1171875 0.65625,0.140625 l -0.05859,0.1992188 H 9.3334359 l 0.082031,-0.1992188 c 0.28125,-0.011719 0.4804687,-0.035156 0.5742187,-0.070313 0.1523444,-0.058594 0.2578124,-0.1523437 0.3398444,-0.2578125 0.117187,-0.1640625 0.234375,-0.46875 0.363281,-0.87890624 l 1.242187,-4.33593746 c 0.07031,-0.2695313 0.117188,-0.4101563 0.117188,-0.4570313 0.01172,-0.058594 0.02344,-0.1289062 0.02344,-0.1992187 0,-0.1289063 -0.03516,-0.2226563 -0.09375,-0.2929688 -0.08203,-0.070312 -0.164062,-0.1054687 -0.292968,-0.1054687 -0.08203,0 -0.234375,0.023437 -0.433594,0.058594 l -0.07031,-0.1992187 1.816407,-0.5039063 z M 113.52484,57.888694 h -5.40234 l 0.082,-0.199219 c 0.28125,-0.01172 0.48047,-0.03516 0.57422,-0.07031 0.15234,-0.05859 0.25781,-0.152344 0.33984,-0.246094 0.10547,-0.164063 0.22266,-0.46875 0.35156,-0.890625 l 1.26563,-4.453125 c 0.11719,-0.363281 0.17578,-0.632813 0.17578,-0.796875 0,-0.140625 -0.0586,-0.246094 -0.16406,-0.316406 -0.0937,-0.08203 -0.26953,-0.128907 -0.55078,-0.128907 -0.0586,0 -0.10547,0 -0.14063,0 l 0.0586,-0.199218 h 2.96484 l -0.0352,0.199218 c -0.33984,0 -0.57422,0.03516 -0.71484,0.105469 -0.14063,0.05859 -0.25781,0.164063 -0.35156,0.316406 -0.0703,0.09375 -0.16407,0.398438 -0.31641,0.902344 l -1.27734,4.464844 c -0.10547,0.304687 -0.16407,0.503906 -0.16407,0.621094 0,0.07031 0.0586,0.152343 0.16407,0.222656 0.0469,0.04687 0.1875,0.07031 0.41015,0.07031 h 0.71485 c 0.51562,0 0.9375,-0.05859 1.24218,-0.199218 0.22266,-0.08203 0.4336,-0.234375 0.6211,-0.421875 0.0937,-0.117188 0.26953,-0.375 0.52734,-0.808594 l 0.14063,-0.246094 h 0.19922 z m 0,0"
       style="fill:#231f20;fill-opacity:1;fill-rule:nonzero;stroke:none"
       aria-label="H&#10;1&#10;L"
       transform="matrix(1.3333333,0,0,1.3333333,15.4812,39.6432)" />
    <path
       id="path12"
       d="M 300,1012.5 H 2110"
       style="fill:none;stroke:#231f20;stroke-width:5;stroke-linecap:butt;stroke-linejoin:miter;stroke-miterlimit:3.86369;stroke-dasharray:120, 20, 20, 20;stroke-dashoffset:0;stroke-opacity:1"
       transform="matrix(0.13333333,0,0,-0.13333333,0,136)" />
    <path
       id="path13"
       d="M 300,291.34 H 2110"
       style="fill:none;stroke:#231f20;stroke-width:5;stroke-linecap:butt;stroke-linejoin:miter;stroke-miterlimit:3.86369;stroke-dasharray:120, 20, 20, 20;stroke-dashoffset:0;stroke-opacity:1"
       transform="matrix(0.13333333,0,0,-0.13333333,0,136)" />
    <path
       id="path14"
       d="m 1975,646.25 c 0,18.641 15.11,33.75 33.75,33.75 18.64,0 33.75,-15.109 33.75,-33.75 0,-18.641 -15.11,-33.75 -33.75,-33.75 -18.64,0 -33.75,15.109 -33.75,33.75"
       style="fill:#231f20;fill-opacity:1;fill-rule:nonzero;stroke:none"
       transform="matrix(0.13333333,0,0,-0.13333333,0,136)" />
    <path
       id="path15"
       d="m 1975,646.25 c 0,18.641 15.11,33.75 33.75,33.75 18.64,0 33.75,-15.109 33.75,-33.75 0,-18.641 -15.11,-33.75 -33.75,-33.75 -18.64,0 -33.75,15.109 -33.75,33.75 z"
       style="fill:none;stroke:#231f20;stroke-width:2.5;stroke-linecap:butt;stroke-linejoin:miter;stroke-miterlimit:3.86369;stroke-dasharray:none;stroke-opacity:1"
       transform="matrix(0.13333333,0,0,-0.13333333,0,136)" />
    <path
       id="path16"
       d="m 371.309,646.34 c 0,18.64 15.109,33.75 33.75,33.75 18.636,0 33.75,-15.11 33.75,-33.75 0,-18.641 -15.114,-33.75 -33.75,-33.75 -18.641,0 -33.75,15.109 -33.75,33.75"
       style="fill:#231f20;fill-opacity:1;fill-rule:nonzero;stroke:none"
       transform="matrix(0.13333333,0,0,-0.13333333,0,136)" />
    <path
       id="path17"
       d="m 371.309,646.34 c 0,18.64 15.109,33.75 33.75,33.75 18.636,0 33.75,-15.11 33.75,-33.75 0,-18.641 -15.114,-33.75 -33.75,-33.75 -18.641,0 -33.75,15.109 -33.75,33.75 z"
       style="fill:none;stroke:#231f20;stroke-width:2.5;stroke-linecap:butt;stroke-linejoin:miter;stroke-miterlimit:3.86369;stroke-dasharray:none;stroke-opacity:1"
       transform="matrix(0.13333333,0,0,-0.13333333,0,136)" />
    <path
       id="path18"
       d="M 402.5,1015 V 292.5"
       style="fill:none;stroke:#231f20;stroke-width:5;stroke-linecap:butt;stroke-linejoin:miter;stroke-miterlimit:3.86369;stroke-dasharray:none;stroke-opacity:1"
       transform="matrix(0.13333333,0,0,-0.13333333,0,136)" />
    <path
       id="path19"
       d="M 2007.5,1015 V 292.5"
       style="fill:none;stroke:#231f20;stroke-width:5;stroke-linecap:butt;stroke-linejoin:miter;stroke-miterlimit:3.86369;stroke-dasharray:none;stroke-opacity:1"
       transform="matrix(0.13333333,0,0,-0.13333333,0,136)" />
    <path
       id="path20"
       d="m 1072.66,655.102 h 4.84"
       style="fill:none;stroke:#231f20;stroke-width:10.001;stroke-linecap:butt;stroke-linejoin:miter;stroke-miterlimit:3.86369;stroke-dasharray:none;stroke-opacity:1"
       transform="matrix(0.13333333,0,0,-0.13333333,0,136)" />
    <path
       id="path21"
       d="m 1073.91,636.352 -50,13.75 49.97,22.503 z"
       style="fill:#231f20;fill-opacity:1;fill-rule:nonzero;stroke:#231f20;stroke-width:10.001;stroke-linecap:butt;stroke-linejoin:miter;stroke-miterlimit:3.86369;stroke-dasharray:none;stroke-opacity:1"
       transform="matrix(0.13333333,0,0,-0.13333333,0,136)" />
    <path
       id="path22"
       d="M 1072.5,651.418 1394.85,650"
       style="fill:none;stroke:#231f20;stroke-width:5;stroke-linecap:butt;stroke-linejoin:miter;stroke-miterlimit:3.86369;stroke-dasharray:none;stroke-opacity:1"
       transform="matrix(0.13333333,0,0,-0.13333333,0,136)" />
    <path
       id="path23"
       d="m 2081.38,650 322.35,-1.418"
       style="fill:none;stroke:#231f20;stroke-width:5;stroke-linecap:butt;stroke-linejoin:miter;stroke-miterlimit:3.86369;stroke-dasharray:none;stroke-opacity:1"
       transform="matrix(0.13333333,0,0,-0.13333333,0,136)" />
    <path
       id="path24"
       d="m 2084.3,650 v -17.5 l -43.75,17.5 43.75,17.5 V 650"
       style="fill:#231f20;fill-opacity:1;fill-rule:evenodd;stroke:none"
       transform="matrix(0.13333333,0,0,-0.13333333,0,136)" />
    <path
       id="path25"
       d="M 328.73,648.582 6.38281,650"
       style="fill:none;stroke:#231f20;stroke-width:5;stroke-linecap:butt;stroke-linejoin:miter;stroke-miterlimit:3.86369;stroke-dasharray:none;stroke-opacity:1"
       transform="matrix(0.13333333,0,0,-0.13333333,0,136)" />
    <path
       id="path26"
       d="m 325.813,648.582 v 17.5 l 43.75,-17.5 -43.75,-17.5 v 17.5"
       style="fill:#231f20;fill-opacity:1;fill-rule:evenodd;stroke:none"
       transform="matrix(0.13333333,0,0,-0.13333333,0,136)" />
    <path
       id="path27"
       d="m 140,829.668 h 62.5"
       style="fill:none;stroke:#231f20;stroke-width:5;stroke-linecap:butt;stroke-linejoin:miter;stroke-miterlimit:3.86369;stroke-dasharray:none;stroke-opacity:1"
       transform="matrix(0.13333333,0,0,-0.13333333,0,136)" />
    <path
       id="path28"
       d="m 1.1146953,-5.3077969 h 4.078125 l -0.4335937,1.40625 H 4.6068828 c 0.058594,-0.1992187 0.082031,-0.3867187 0.082031,-0.5507812 0,-0.1757813 -0.058594,-0.328125 -0.1757813,-0.421875 -0.09375,-0.070312 -0.3164062,-0.1171875 -0.6796875,-0.1171875 H 3.3998516 l -1.0664063,3.75 c -0.1289062,0.42187498 -0.1992187,0.69140623 -0.1992187,0.78515623 0,0.09375 0.046875,0.1640625 0.1289062,0.22265625 0.082031,0.0585938 0.2226563,0.09375 0.4453125,0.09375 H 2.8842266 L 2.8373516,7.96875e-4 H 0.56391406 l 0.0351563,-0.140624995 h 0.10546875 c 0.19921875,0 0.36328129,-0.0351563 0.46874999,-0.09375 0.082031,-0.0585938 0.1523438,-0.12890625 0.1992188,-0.24609375 0.070312,-0.1171875 0.1523437,-0.36328125 0.2578125,-0.73828123 L 2.7201641,-4.9913906 H 2.4154766 c -0.3164063,0 -0.5742188,0.046875 -0.7617188,0.1289062 -0.1992187,0.070312 -0.3515625,0.1875 -0.4804687,0.328125 -0.1171875,0.1523438 -0.21093754,0.3632813 -0.29296879,0.6328125 h -0.140625 z M 10.012156,-3.1456875 8.75825,1.2488438 C 8.6762188,1.4949375 8.6410625,1.6824375 8.6410625,1.799625 c 0,0.09375 0.035156,0.1757813 0.09375,0.2226563 0.070312,0.046875 0.2226563,0.082031 0.4804688,0.1054687 L 9.1684063,2.268375 H 7.1645 L 7.211375,2.12775 C 7.4223125,2.1160313 7.5629375,2.1043125 7.63325,2.080875 7.7504375,2.034 7.82075,1.9636875 7.8793438,1.8816563 7.9730938,1.7644688 8.055125,1.5535313 8.148875,1.2488438 l 0.9023438,-3.1640625 c 0.058594,-0.1875 0.082031,-0.2929688 0.082031,-0.328125 0.011719,-0.046875 0.023437,-0.09375 0.023437,-0.1523438 0,-0.082031 -0.023437,-0.1523437 -0.070312,-0.1992187 -0.058594,-0.058594 -0.1289062,-0.082031 -0.2109375,-0.082031 -0.070312,0 -0.1757812,0.011719 -0.3164062,0.046875 l -0.058594,-0.140625 1.3242188,-0.375 z M 134.73774,-5.6827969 h 4.07813 l -0.4336,1.40625 h -0.15234 c 0.0586,-0.1992187 0.082,-0.3867187 0.082,-0.5507812 0,-0.1757813 -0.0586,-0.328125 -0.17578,-0.421875 -0.0937,-0.070312 -0.31641,-0.1171875 -0.67969,-0.1171875 h -0.43359 l -1.06641,3.75 c -0.1289,0.421875 -0.19922,0.69140623 -0.19922,0.78515623 0,0.09375 0.0469,0.1640625 0.12891,0.22265625 0.082,0.0585938 0.22266,0.09375 0.44531,0.09375 h 0.17578 l -0.0469,0.140625 h -2.27344 l 0.0352,-0.140625 h 0.10547 c 0.19921,0 0.36328,-0.0351563 0.46875,-0.09375 0.082,-0.0585938 0.15234,-0.12890625 0.19921,-0.24609375 0.0703,-0.1171875 0.15235,-0.36328123 0.25782,-0.73828123 l 1.08984,-3.7734375 h -0.30469 c -0.3164,0 -0.57422,0.046875 -0.76172,0.1289062 -0.19921,0.070312 -0.35156,0.1875 -0.48046,0.328125 -0.11719,0.1523438 -0.21094,0.3632813 -0.29297,0.6328125 h -0.14063 z m 8.33496,7.5761719 h -2.64843 V 1.75275 c 1.34765,-1.18359375 2.22656,-2.109375 2.66015,-2.7773437 0.19922,-0.3046875 0.30469,-0.6328125 0.30469,-0.9726563 0,-0.2695312 -0.082,-0.4921875 -0.25781,-0.6679687 -0.16407,-0.1640625 -0.375,-0.2460938 -0.64453,-0.2460938 -0.36329,0 -0.66797,0.1757813 -0.90235,0.5273438 l -0.14062,-0.070312 c 0.14062,-0.3398438 0.32812,-0.5976563 0.58593,-0.7851563 0.25782,-0.1875 0.52735,-0.28125 0.83204,-0.28125 0.32812,0 0.60937,0.1171875 0.84375,0.3515625 0.23437,0.2226563 0.33984,0.5039063 0.33984,0.8320313 0,0.234375 -0.0352,0.4453125 -0.11719,0.6445312 -0.1289,0.3046875 -0.36328,0.6445313 -0.6914,1.01953125 -0.51563,0.5859375 -1.19532,1.2421875 -2.05079,2.00390625 h 1.34766 c 0.21094,0 0.38672,-0.058594 0.52734,-0.140625 0.12891,-0.09375 0.23438,-0.19921875 0.29297,-0.3515625 h 0.16407 z m 25.38575,-4.9101562 h 2.47265 l 0.375,-1.3125 c 0.082,-0.2578125 0.11719,-0.4570313 0.11719,-0.5859375 0,-0.070312 -0.0117,-0.1289063 -0.0586,-0.1757813 -0.0234,-0.046875 -0.082,-0.09375 -0.14063,-0.1171875 -0.0703,-0.023437 -0.19922,-0.035156 -0.39844,-0.035156 l 0.0352,-0.140625 h 2.12109 l -0.0469,0.140625 c -0.1875,0 -0.31641,0.023437 -0.39844,0.058594 -0.12891,0.058594 -0.22266,0.1289063 -0.28125,0.2109375 -0.082,0.1289063 -0.17578,0.3398438 -0.25781,0.6445313 l -0.94922,3.2929687 c -0.082,0.24609375 -0.11719,0.421875 -0.11719,0.515625 0,0.09375 0.0352,0.15234375 0.10547,0.2109375 0.0703,0.046875 0.23438,0.0703125 0.49219,0.09375 l -0.0352,0.140625 h -2.05078 l 0.0586,-0.140625 c 0.21094,-0.0117188 0.33985,-0.0234375 0.41016,-0.0585938 0.10547,-0.046875 0.1875,-0.10546875 0.22266,-0.17578125 0.0703,-0.10546875 0.15234,-0.328125 0.25781,-0.66796865 l 0.46875,-1.6171875 h -2.47266 l -0.49218,1.6992187 c -0.0703,0.23437495 -0.11719,0.4101562 -0.11719,0.51562495 0,0.09375 0.0351,0.15234375 0.10547,0.2109375 0.0703,0.046875 0.23437,0.0703125 0.49218,0.09375 l -0.0351,0.140625 h -2.05078 l 0.0469,-0.140625 c 0.21094,-0.0117188 0.35156,-0.0234375 0.42188,-0.0585938 0.10547,-0.046875 0.17578,-0.10546875 0.22265,-0.17578125 0.0703,-0.1171875 0.15235,-0.328125 0.25782,-0.6679687 l 0.91406,-3.2109375 c 0.082,-0.2578125 0.11719,-0.4570313 0.11719,-0.5859375 0,-0.070312 -0.0117,-0.1289063 -0.0469,-0.1757813 -0.0352,-0.046875 -0.082,-0.09375 -0.15234,-0.1171875 -0.0703,-0.023437 -0.21094,-0.035156 -0.41016,-0.035156 l 0.0469,-0.140625 h 2.08593 l -0.0351,0.140625 c -0.17578,0 -0.30469,0.023437 -0.38672,0.058594 -0.12891,0.046875 -0.21094,0.1171875 -0.26953,0.2109375 -0.082,0.1171875 -0.16407,0.328125 -0.26953,0.6445313 z m 9.48339,5.2089843 h -2.64843 v -0.140625 c 1.34765,-1.18359372 2.22656,-2.10937497 2.66015,-2.77734372 0.19922,-0.30468748 0.30469,-0.63281248 0.30469,-0.97265628 0,-0.2695312 -0.082,-0.4921875 -0.25781,-0.6679687 -0.16407,-0.1640625 -0.375,-0.2460938 -0.64453,-0.2460938 -0.36329,0 -0.66797,0.1757813 -0.90235,0.5273438 l -0.14062,-0.070312 c 0.14062,-0.3398438 0.32812,-0.5976563 0.58593,-0.7851563 0.25782,-0.1875 0.52735,-0.28125 0.83204,-0.28125 0.32812,0 0.60937,0.1171875 0.84375,0.3515625 0.23437,0.2226563 0.33984,0.5039063 0.33984,0.8320313 0,0.234375 -0.0352,0.4453125 -0.11719,0.6445312 -0.1289,0.3046875 -0.36328,0.64453128 -0.6914,1.01953128 -0.51563,0.5859375 -1.19532,1.2421875 -2.05079,2.00390622 h 1.34766 c 0.21094,0 0.38672,-0.058594 0.52734,-0.140625 0.12891,-0.09375 0.23438,-0.1992187 0.29297,-0.3515625 h 0.16407 z m 0,0"
       style="fill:#231f20;fill-opacity:1;fill-rule:nonzero;stroke:none"
       aria-label="T&#10;1&#10;T&#10;2&#10;H&#10;2"
       transform="matrix(1.3333333,0,0,1.3333333,63.197333,39.538)" />
    <path
       id="path29"
       d="m 2162.87,831.211 h 62.5"
       style="fill:none;stroke:#231f20;stroke-width:5;stroke-linecap:butt;stroke-linejoin:miter;stroke-miterlimit:3.86369;stroke-dasharray:none;stroke-opacity:1"
       transform="matrix(0.13333333,0,0,-0.13333333,0,136)" />
    <g
       id="g29"
       aria-label="H&#10;l"
       transform="matrix(1.3333333,0,0,1.3333333,155.19733,37.604133)">
      <path
         id="path30"
         d="m 2.9428203,-4.4052484 h 3.703125 l 0.5625,-1.96875 c 0.1171875,-0.3867188 0.1757813,-0.6796875 0.1757813,-0.890625 0,-0.1054688 -0.023437,-0.1875 -0.082031,-0.2578125 -0.058594,-0.070312 -0.1289062,-0.1289063 -0.2226562,-0.1640625 -0.1054688,-0.035156 -0.2929688,-0.046875 -0.5976563,-0.046875 l 0.058594,-0.2226563 h 3.1757812 l -0.070312,0.2226563 c -0.2695312,0 -0.46875,0.023437 -0.5976562,0.082031 -0.1875,0.082031 -0.3398438,0.1875 -0.421875,0.3046875 -0.1289063,0.1992188 -0.2578125,0.515625 -0.3984375,0.9726563 l -1.40625,4.9335937 c -0.1289063,0.3632813 -0.1875,0.62109376 -0.1875,0.78515626 0,0.12890625 0.058594,0.22265625 0.1640625,0.29296875 0.1054687,0.0703125 0.3515625,0.12890625 0.7382812,0.15234375 l -0.058594,0.2109375 H 4.4193828 l 0.082031,-0.2109375 c 0.3164062,-0.0117188 0.515625,-0.046875 0.609375,-0.09375 0.1640625,-0.0703125 0.28125,-0.15234375 0.3398437,-0.2578125 0.1054688,-0.15234375 0.2226563,-0.49218746 0.3867188,-0.99609376 l 0.6914062,-2.4375 h -3.703125 l -0.7382812,2.5546875 c -0.1054688,0.3515625 -0.1640625,0.60937501 -0.1640625,0.78515626 0,0.12890625 0.046875,0.22265625 0.1523437,0.29296875 0.09375,0.0703125 0.3515625,0.12890625 0.7382813,0.15234375 l -0.046875,0.2109375 h -3.08203129 l 0.0820313,-0.2109375 c 0.3046875,-0.0117188 0.515625,-0.046875 0.62109375,-0.09375 0.15234375,-0.0703125 0.2578125,-0.15234375 0.328125,-0.2578125 0.1171875,-0.1640625 0.234375,-0.49218746 0.38671874,-0.99609376 l 1.3828126,-4.8164062 c 0.1054687,-0.3984375 0.1640625,-0.6796875 0.1640625,-0.890625 0,-0.1054688 -0.023437,-0.1875 -0.070312,-0.2578125 -0.046875,-0.070312 -0.1171875,-0.1289063 -0.2226563,-0.1640625 -0.1171875,-0.035156 -0.3164062,-0.046875 -0.6210938,-0.046875 l 0.082031,-0.2226563 h 3.1289063 l -0.058594,0.2226563 c -0.2695312,0 -0.4570312,0.023437 -0.5859375,0.082031 -0.1875,0.070312 -0.3164061,0.1757813 -0.3984374,0.3046875 -0.1171875,0.1757813 -0.2578125,0.4921875 -0.3984375,0.9726563 z m 0,0"
         style="fill:#231f20;fill-opacity:1;fill-rule:nonzero;stroke:none" />
      <path
         id="path31"
         d="m -29.808156,25.360377 -1.980469,4.089843 h -1.042969 l 2.683594,-5.542968 -0.105469,-0.503907 c -0.105468,-0.5625 -0.28125,-0.9375 -0.46875,-1.136718 -0.199218,-0.210938 -0.421875,-0.304688 -0.667968,-0.304688 -0.210938,0 -0.398438,0.08203 -0.574219,0.246094 -0.152344,0.152344 -0.257813,0.398437 -0.316406,0.761719 h -0.222657 c 0.01172,-0.609375 0.175782,-1.089844 0.457032,-1.464844 0.210937,-0.257813 0.457031,-0.398438 0.761718,-0.398438 0.257813,0 0.492188,0.117188 0.679688,0.316407 0.28125,0.316406 0.503906,0.878906 0.679687,1.664062 l 0.949219,4.148438 c 0.140625,0.621093 0.304688,1.019531 0.46875,1.207031 0.1875,0.175781 0.386719,0.28125 0.621094,0.28125 0.234375,0 0.421875,-0.08203 0.574219,-0.234375 0.140625,-0.152344 0.222656,-0.398438 0.246093,-0.726563 h 0.234375 c 0.01172,0.09375 0.01172,0.175782 0.01172,0.222657 0,0.515625 -0.128906,0.925781 -0.375,1.242187 -0.199219,0.222656 -0.445312,0.339844 -0.761719,0.339844 -0.269531,0 -0.515625,-0.117188 -0.726562,-0.339844 -0.222656,-0.234375 -0.421875,-0.761719 -0.609375,-1.59375 z m 0,0"
         style="fill:#231f20;fill-opacity:1;fill-rule:nonzero;stroke:none" />
    </g>
  </g>
</svg>
