<?xml version="1.0" encoding="UTF-8" standalone="no"?>
<!-- Created with Inkscape (http://www.inkscape.org/) -->

<svg
   version="1.1"
   id="svg1"
   width="326.82666"
   height="101.48"
   viewBox="0 0 326.82666 101.48"
   sodipodi:docname="ANA4.EPS"
   xmlns:inkscape="http://www.inkscape.org/namespaces/inkscape"
   xmlns:sodipodi="http://sodipodi.sourceforge.net/DTD/sodipodi-0.dtd"
   xmlns="http://www.w3.org/2000/svg"
   xmlns:svg="http://www.w3.org/2000/svg">
  <defs
     id="defs1" />
  <sodipodi:namedview
     id="namedview1"
     pagecolor="#ffffff"
     bordercolor="#000000"
     borderopacity="0.25"
     inkscape:showpageshadow="2"
     inkscape:pageopacity="0.0"
     inkscape:pagecheckerboard="0"
     inkscape:deskcolor="#d1d1d1">
    <inkscape:page
       x="0"
       y="0"
       inkscape:label="1"
       id="page1"
       width="326.82666"
       height="101.48"
       margin="0"
       bleed="0" />
  </sodipodi:namedview>
  <g
     id="g1"
     inkscape:groupmode="layer"
     inkscape:label="1">
    <path
       id="path1"
       d="m 4.5359375,-0.12835937 c -0.3515625,-0.0234375 -0.5039063,-0.1640625 -0.65625,-0.57421875 l -0.75,-1.95703128 c 0.6210937,-0.140625 0.8789062,-0.2578125 1.171875,-0.5039062 0.2578125,-0.234375 0.4101562,-0.5507813 0.4101562,-0.9140625 0,-0.7382813 -0.5976562,-1.1484375 -1.6640625,-1.1484375 H 1.0554687 v 0.1289062 c 0.3398438,0.046875 0.375,0.058594 0.4570313,0.1054688 0.070312,0.046875 0.1171875,0.140625 0.1171875,0.234375 0,0.09375 -0.046875,0.28125 -0.1054688,0.5039062 l -0.98437495,3.53906253 c -0.140625,0.46875 -0.19921875,0.515625 -0.64453125,0.5859375 V 5.46875e-4 H 1.8523437 V -0.12835937 c -0.5039062,-0.0585938 -0.5507812,-0.09375 -0.5507812,-0.375 0,-0.0820313 0.023437,-0.1640625 0.1054687,-0.45703125 l 0.4453125,-1.67578128 0.515625,0.046875 0.984375,2.589843775 H 4.5359375 Z M 2.4617187,-4.7572656 c 0.046875,-0.1757813 0.1523438,-0.234375 0.4101563,-0.234375 0.6679687,0 0.9960937,0.3046875 0.9960937,0.9140625 0,0.7851562 -0.515625,1.1835937 -1.5117187,1.1835937 -0.140625,0 -0.2109375,0 -0.4101563,-0.035156 z M 54.117969,9.0737891 h -1.582032 v 0.1289062 c 0.421875,0.035156 0.5625,0.1289063 0.5625,0.3632813 0,0.1289062 -0.210937,0.9375004 -0.585937,2.2968754 l -0.105469,0.398437 c -0.351562,1.3125 -0.867187,1.851563 -1.746094,1.851563 -0.667968,0 -1.125,-0.375 -1.125,-0.9375 0,-0.28125 0.222657,-1.148438 0.820313,-3.2460942 C 50.520312,9.3784766 50.649219,9.2612891 51.2,9.2026953 V 9.0737891 h -2.179688 v 0.1289062 c 0.539063,0.046875 0.621094,0.09375 0.621094,0.328125 0,0.09375 -0.02344,0.2226563 -0.05859,0.3632813 l -0.421875,1.5351564 c -0.234375,0.867187 -0.339843,1.371094 -0.339843,1.699219 0,0.761718 0.726562,1.3125 1.746093,1.3125 1.042969,0 1.710938,-0.5625 2.0625,-1.769532 l 0.65625,-2.273437 c 0.304688,-1.0429689 0.339844,-1.0898439 0.832032,-1.1953127 z m 5.780273,7.1132809 c -0.1875,0.398438 -0.339844,0.492188 -0.785156,0.503907 h -1.523438 v -0.03516 l 1.535157,-1.535156 c 0.9375,-0.9375 1.195312,-1.347656 1.195312,-1.875 0,-0.761719 -0.574219,-1.359375 -1.300781,-1.359375 -0.292969,0 -0.585938,0.07031 -0.820313,0.210938 -0.410156,0.222656 -0.632812,0.492187 -0.855468,1.078125 l 0.164062,0.04687 c 0.292969,-0.515625 0.644531,-0.75 1.125,-0.75 0.574219,0 0.996094,0.421875 0.996094,0.972656 0,0.175781 -0.02344,0.328125 -0.07031,0.433594 -0.199218,0.433593 -0.5625,0.9375 -1.078125,1.488281 l -1.6875,1.792969 v 0.140625 h 2.847657 l 0.398437,-1.054688 z m 0,0"
       style="fill:#231f20;fill-opacity:1;fill-rule:nonzero;stroke:none"
       aria-label="R&#10;U&#10;2"
       transform="matrix(1.3333333,0,0,1.3333333,197.23333,16.913333)" />
    <path
       id="path2"
       d="m 1246.25,511.25 c 14.05,63.516 46.2,90.168 99,120 39.72,22.723 56.79,28.555 113,29"
       style="fill:none;stroke:#231f20;stroke-width:2.5;stroke-linecap:butt;stroke-linejoin:miter;stroke-miterlimit:3.8637;stroke-dasharray:none;stroke-opacity:1"
       transform="matrix(0.13333333,0,0,-0.13333333,0,101.48)" />
    <path
       id="path3"
       d="m 2115.25,400.25 h 335"
       style="fill:none;stroke:#231f20;stroke-width:2.5;stroke-linecap:butt;stroke-linejoin:miter;stroke-miterlimit:3.8637;stroke-dasharray:none;stroke-opacity:1"
       transform="matrix(0.13333333,0,0,-0.13333333,0,101.48)" />
    <path
       id="path4"
       d="m 2118.25,400.25 v -15 l -38,15 38,15 v -15"
       style="fill:#231f20;fill-opacity:1;fill-rule:evenodd;stroke:none"
       transform="matrix(0.13333333,0,0,-0.13333333,0,101.48)" />
    <path
       id="path5"
       d="M 6.1173828,-5.2266016 H 4.5353516 v 0.1289063 c 0.421875,0.035156 0.5625,0.1289062 0.5625,0.3632812 0,0.1289063 -0.2109375,0.9375 -0.5859375,2.296875 l -0.1054688,0.3984375 c -0.3515625,1.31250004 -0.8671875,1.85156254 -1.7460937,1.85156254 -0.6679688,0 -1.125,-0.375 -1.125,-0.93750004 0,-0.28125 0.2226562,-1.1484375 0.8203125,-3.2460937 0.1640625,-0.5507813 0.2929687,-0.6679688 0.84375,-0.7265625 V -5.2266016 H 1.0197266 v 0.1289063 c 0.5390625,0.046875 0.6210937,0.09375 0.6210937,0.328125 0,0.09375 -0.023437,0.2226562 -0.058594,0.3632812 l -0.421875,1.5351563 c -0.23437504,0.8671875 -0.33984379,1.3710937 -0.33984379,1.6992187 0,0.76171879 0.72656249,1.31250004 1.74609379,1.31250004 1.0429687,0 1.7109375,-0.5625 2.0625,-1.76953124 l 0.65625,-2.2734375 c 0.3046878,-1.0429688 0.339844,-1.0898438 0.8320315,-1.1953125 z M 9.0880859,2.9999609 H 11.326367 V 2.8827734 h -0.140625 c -0.386719,0 -0.550781,-0.070312 -0.550781,-0.2578125 0,-0.070312 0.02344,-0.1875 0.09375,-0.421875 0.02344,-0.046875 0.03516,-0.09375 0.05859,-0.1757812 l 1.136718,-4.1484375 c 0.04687,-0.140625 0.04687,-0.1992188 0.04687,-0.234375 0,-0.035156 -0.01172,-0.058594 -0.03516,-0.058594 0,0 -0.222656,0.046875 -0.65625,0.1289063 l -0.726562,0.1523437 c -0.01172,0 -0.07031,0.011719 -0.164063,0.023437 v 0.1171875 l 0.457031,-0.011719 c 0.1875,-0.011719 0.304688,0.09375 0.304688,0.2460937 0,0.058594 -0.01172,0.1171875 -0.05859,0.28125 l -1.1015623,3.9375 c -0.09375,0.2929688 -0.2695313,0.375 -0.9023438,0.421875 z m 0,0"
       style="fill:#231f20;fill-opacity:1;fill-rule:nonzero;stroke:none"
       aria-label="U&#10;1"
       transform="matrix(1.3333333,0,0,1.3333333,42.433333,36.113333)" />
    <path
       id="path6"
       d="m 1.25,399.25 h 334"
       style="fill:none;stroke:#231f20;stroke-width:2.5;stroke-linecap:butt;stroke-linejoin:miter;stroke-miterlimit:3.8637;stroke-dasharray:none;stroke-opacity:1"
       transform="matrix(0.13333333,0,0,-0.13333333,0,101.48)" />
    <path
       id="path7"
       d="m 333.25,399.25 v 15 l 37,-15 -37,-15 v 15"
       style="fill:#231f20;fill-opacity:1;fill-rule:evenodd;stroke:none"
       transform="matrix(0.13333333,0,0,-0.13333333,0,101.48)" />
    <path
       id="path8"
       d="M -0.08164063,-6.25e-4 H 2.3558594 V -0.1646875 C 1.7933594,-0.235 1.6761719,-0.29359375 1.6761719,-0.57484375 c 0,-0.19921875 0.023437,-0.29296875 0.1171875,-0.62109375 L 3.0238281,-5.625625 C 3.1996094,-6.2115625 3.2699219,-6.2701562 3.8441406,-6.3639062 V -6.5279687 H 1.3714844 v 0.1640625 c 0.5859375,0.070312 0.703125,0.140625 0.703125,0.421875 0,0.1523437 -0.035156,0.3515625 -0.1171875,0.6210937 l -1.23046878,4.41796875 c -0.17578125,0.5859375 -0.24609375,0.64453125 -0.80859375,0.73828125 z m 4.57324223,3 H 7.2806641 V 2.8470313 H 7.1048828 c -0.4921875,0 -0.6914062,-0.082031 -0.6914062,-0.3164063 0,-0.09375 0.035156,-0.2460937 0.1289062,-0.515625 0.011719,-0.070313 0.023437,-0.1289062 0.058594,-0.2226562 l 1.4296875,-5.1914063 c 0.046875,-0.1757812 0.058594,-0.234375 0.058594,-0.2929687 0,-0.035156 -0.023437,-0.070312 -0.046875,-0.070312 0,0 -0.28125,0.058594 -0.8203125,0.1640625 L 6.3197266,-3.4225 c -0.023437,0.011719 -0.09375,0.023437 -0.2109375,0.046875 v 0.1523438 l 0.5742187,-0.023437 c 0.2226563,-0.011719 0.375,0.1054687 0.375,0.3046875 0,0.070312 -0.023437,0.140625 -0.070312,0.3398437 L 5.6048833,2.319688 c -0.1171875,0.375 -0.328125,0.46875 -1.1132812,0.5390625 z m 0,0"
       style="fill:#231f20;fill-opacity:1;fill-rule:nonzero;stroke:none"
       aria-label="I&#10;1"
       transform="matrix(1.3333333,0,0,1.3333333,13.366667,67.313333)" />
    <path
       id="path9"
       d="m 1105.25,190.25 h 334"
       style="fill:none;stroke:#231f20;stroke-width:5;stroke-linecap:butt;stroke-linejoin:miter;stroke-miterlimit:3.8637;stroke-dasharray:none;stroke-opacity:1"
       transform="matrix(0.13333333,0,0,-0.13333333,0,101.48)" />
    <path
       id="path10"
       d="m 1110.25,190.25 v -30 l -75,30 75,30 v -30"
       style="fill:#231f20;fill-opacity:1;fill-rule:evenodd;stroke:none"
       transform="matrix(0.13333333,0,0,-0.13333333,0,101.48)" />
    <path
       id="path11"
       d="M -0.09472656,-8.203125e-4 H 2.8349609 V -0.18832031 c -0.6914062,-0.09375 -0.8203125,-0.1640625 -0.8203125,-0.4921875 0,-0.24609375 0.023437,-0.36328129 0.1289063,-0.76171879 l 1.4765625,-5.3203125 c 0.2226562,-0.6914062 0.3046875,-0.7617187 0.984375,-0.8789062 V -7.8406641 H 1.6396484 v 0.1992188 c 0.7148438,0.09375 0.84375,0.1757812 0.84375,0.515625 0,0.1757812 -0.035156,0.421875 -0.1289062,0.7382812 l -1.47656251,5.3085938 c -0.22265625,0.69140624 -0.3046875,0.76171874 -0.97265625,0.89062499 z m 0,0"
       style="fill:#231f20;fill-opacity:1;fill-rule:nonzero;stroke:none"
       aria-label="I"
       transform="matrix(1.3333333,0,0,1.3333333,160.83333,94.38)" />
    <path
       id="path12"
       d="m 437.25,400.25 h 322"
       style="fill:none;stroke:#231f20;stroke-width:3.8;stroke-linecap:butt;stroke-linejoin:miter;stroke-miterlimit:3.8637;stroke-dasharray:none;stroke-opacity:1"
       transform="matrix(0.13333333,0,0,-0.13333333,0,101.48)" />
    <path
       id="path13"
       d="m 760.25,402.25 24,103"
       style="fill:none;stroke:#231f20;stroke-width:3.8;stroke-linecap:butt;stroke-linejoin:miter;stroke-miterlimit:3.8637;stroke-dasharray:none;stroke-opacity:1"
       transform="matrix(0.13333333,0,0,-0.13333333,0,101.48)" />
    <path
       id="path14"
       d="m 784.25,505.25 48,-206"
       style="fill:none;stroke:#231f20;stroke-width:3.8;stroke-linecap:butt;stroke-linejoin:miter;stroke-miterlimit:3.8637;stroke-dasharray:none;stroke-opacity:1"
       transform="matrix(0.13333333,0,0,-0.13333333,0,101.48)" />
    <path
       id="path15"
       d="m 832.25,299.25 48,206"
       style="fill:none;stroke:#231f20;stroke-width:3.8;stroke-linecap:butt;stroke-linejoin:miter;stroke-miterlimit:3.8637;stroke-dasharray:none;stroke-opacity:1"
       transform="matrix(0.13333333,0,0,-0.13333333,0,101.48)" />
    <path
       id="path16"
       d="m 880.25,505.25 48,-206"
       style="fill:none;stroke:#231f20;stroke-width:3.8;stroke-linecap:butt;stroke-linejoin:miter;stroke-miterlimit:3.8637;stroke-dasharray:none;stroke-opacity:1"
       transform="matrix(0.13333333,0,0,-0.13333333,0,101.48)" />
    <path
       id="path17"
       d="m 928.25,299.25 48,206"
       style="fill:none;stroke:#231f20;stroke-width:3.8;stroke-linecap:butt;stroke-linejoin:miter;stroke-miterlimit:3.8637;stroke-dasharray:none;stroke-opacity:1"
       transform="matrix(0.13333333,0,0,-0.13333333,0,101.48)" />
    <path
       id="path18"
       d="m 976.25,505.25 48,-206"
       style="fill:none;stroke:#231f20;stroke-width:3.8;stroke-linecap:butt;stroke-linejoin:miter;stroke-miterlimit:3.8637;stroke-dasharray:none;stroke-opacity:1"
       transform="matrix(0.13333333,0,0,-0.13333333,0,101.48)" />
    <path
       id="path19"
       d="m 1024.25,299.25 48,206"
       style="fill:none;stroke:#231f20;stroke-width:3.8;stroke-linecap:butt;stroke-linejoin:miter;stroke-miterlimit:3.8637;stroke-dasharray:none;stroke-opacity:1"
       transform="matrix(0.13333333,0,0,-0.13333333,0,101.48)" />
    <path
       id="path20"
       d="m 1072.25,505.25 48,-206"
       style="fill:none;stroke:#231f20;stroke-width:3.8;stroke-linecap:butt;stroke-linejoin:miter;stroke-miterlimit:3.8637;stroke-dasharray:none;stroke-opacity:1"
       transform="matrix(0.13333333,0,0,-0.13333333,0,101.48)" />
    <path
       id="path21"
       d="m 1120.25,299.25 48,206"
       style="fill:none;stroke:#231f20;stroke-width:3.8;stroke-linecap:butt;stroke-linejoin:miter;stroke-miterlimit:3.8637;stroke-dasharray:none;stroke-opacity:1"
       transform="matrix(0.13333333,0,0,-0.13333333,0,101.48)" />
    <path
       id="path22"
       d="m 1168.25,505.25 48,-206"
       style="fill:none;stroke:#231f20;stroke-width:3.8;stroke-linecap:butt;stroke-linejoin:miter;stroke-miterlimit:3.8637;stroke-dasharray:none;stroke-opacity:1"
       transform="matrix(0.13333333,0,0,-0.13333333,0,101.48)" />
    <path
       id="path23"
       d="m 1216.25,299.25 48,206"
       style="fill:none;stroke:#231f20;stroke-width:3.8;stroke-linecap:butt;stroke-linejoin:miter;stroke-miterlimit:3.8637;stroke-dasharray:none;stroke-opacity:1"
       transform="matrix(0.13333333,0,0,-0.13333333,0,101.48)" />
    <path
       id="path24"
       d="m 1264.25,505.25 48,-206"
       style="fill:none;stroke:#231f20;stroke-width:3.8;stroke-linecap:butt;stroke-linejoin:miter;stroke-miterlimit:3.8637;stroke-dasharray:none;stroke-opacity:1"
       transform="matrix(0.13333333,0,0,-0.13333333,0,101.48)" />
    <path
       id="path25"
       d="m 1312.25,299.25 48,206"
       style="fill:none;stroke:#231f20;stroke-width:3.8;stroke-linecap:butt;stroke-linejoin:miter;stroke-miterlimit:3.8637;stroke-dasharray:none;stroke-opacity:1"
       transform="matrix(0.13333333,0,0,-0.13333333,0,101.48)" />
    <path
       id="path26"
       d="m 1360.25,505.25 48,-206"
       style="fill:none;stroke:#231f20;stroke-width:3.8;stroke-linecap:butt;stroke-linejoin:miter;stroke-miterlimit:3.8637;stroke-dasharray:none;stroke-opacity:1"
       transform="matrix(0.13333333,0,0,-0.13333333,0,101.48)" />
    <path
       id="path27"
       d="m 1408.25,299.25 48,206"
       style="fill:none;stroke:#231f20;stroke-width:3.8;stroke-linecap:butt;stroke-linejoin:miter;stroke-miterlimit:3.8637;stroke-dasharray:none;stroke-opacity:1"
       transform="matrix(0.13333333,0,0,-0.13333333,0,101.48)" />
    <path
       id="path28"
       d="m 1456.25,505.25 48,-206"
       style="fill:none;stroke:#231f20;stroke-width:3.8;stroke-linecap:butt;stroke-linejoin:miter;stroke-miterlimit:3.8637;stroke-dasharray:none;stroke-opacity:1"
       transform="matrix(0.13333333,0,0,-0.13333333,0,101.48)" />
    <path
       id="path29"
       d="m 1504.25,299.25 48,206"
       style="fill:none;stroke:#231f20;stroke-width:3.8;stroke-linecap:butt;stroke-linejoin:miter;stroke-miterlimit:3.8637;stroke-dasharray:none;stroke-opacity:1"
       transform="matrix(0.13333333,0,0,-0.13333333,0,101.48)" />
    <path
       id="path30"
       d="m 1552.25,505.25 48,-206"
       style="fill:none;stroke:#231f20;stroke-width:3.8;stroke-linecap:butt;stroke-linejoin:miter;stroke-miterlimit:3.8637;stroke-dasharray:none;stroke-opacity:1"
       transform="matrix(0.13333333,0,0,-0.13333333,0,101.48)" />
    <path
       id="path31"
       d="m 1600.25,299.25 48,206"
       style="fill:none;stroke:#231f20;stroke-width:3.8;stroke-linecap:butt;stroke-linejoin:miter;stroke-miterlimit:3.8637;stroke-dasharray:none;stroke-opacity:1"
       transform="matrix(0.13333333,0,0,-0.13333333,0,101.48)" />
    <path
       id="path32"
       d="m 1648.25,505.25 48,-206"
       style="fill:none;stroke:#231f20;stroke-width:3.8;stroke-linecap:butt;stroke-linejoin:miter;stroke-miterlimit:3.8637;stroke-dasharray:none;stroke-opacity:1"
       transform="matrix(0.13333333,0,0,-0.13333333,0,101.48)" />
    <path
       id="path33"
       d="m 1696.25,299.25 24,103"
       style="fill:none;stroke:#231f20;stroke-width:3.8;stroke-linecap:butt;stroke-linejoin:miter;stroke-miterlimit:3.8637;stroke-dasharray:none;stroke-opacity:1"
       transform="matrix(0.13333333,0,0,-0.13333333,0,101.48)" />
    <path
       id="path34"
       d="m 1723.25,400.25 h 321"
       style="fill:none;stroke:#231f20;stroke-width:3.8;stroke-linecap:butt;stroke-linejoin:miter;stroke-miterlimit:3.8637;stroke-dasharray:none;stroke-opacity:1"
       transform="matrix(0.13333333,0,0,-0.13333333,0,101.48)" />
    <path
       id="path35"
       d="M 0.56367187,5.46875e-4 V -6.4916406 H 3.9386719 V 5.46875e-4 Z M 1.1261719,-0.56195312 h 2.25 V -5.9291406 h -2.25 z M -159.53789,-0.19867187 V -6.6908594 h 3.375 v 6.49218753 z m 0.5625,-0.5625 h 2.25 V -6.1283594 h -2.25 z m 0,0"
       style="fill:#231f20;fill-opacity:1;fill-rule:nonzero;stroke:none"
       aria-label="●&#10;●"
       transform="matrix(1.3333333,0,0,1.3333333,267.1,52.913333)" />
    <path
       id="path36"
       d="m 102.25,360.25 h 51"
       style="fill:none;stroke:#231f20;stroke-width:5;stroke-linecap:butt;stroke-linejoin:miter;stroke-miterlimit:3.8637;stroke-dasharray:none;stroke-opacity:1"
       transform="matrix(0.13333333,0,0,-0.13333333,0,101.48)" />
    <path
       id="path37"
       d="M -0.08085938,1.5625e-4 H 2.3566406 v -0.1640625 c -0.5625,-0.0703125 -0.6796875,-0.12890625 -0.6796875,-0.41015625 0,-0.19921875 0.023437,-0.29296875 0.1171875,-0.6210937 L 3.0246094,-5.6248437 C 3.2003906,-6.2107812 3.2707031,-6.269375 3.8449219,-6.363125 V -6.5271875 H 1.3722656 v 0.1640625 c 0.5859375,0.070312 0.703125,0.140625 0.703125,0.421875 0,0.1523438 -0.035156,0.3515625 -0.1171875,0.6210938 L 0.72773437,-0.9021875 C 0.55195312,-0.31625 0.48164062,-0.25765625 -0.08085938,-0.16390625 Z M 7.9962891,1.605625 C 7.7736328,2.0978125 7.5744141,2.215 7.0119141,2.2384375 H 5.1134766 v -0.046875 l 1.9101562,-1.921875 c 1.171875,-1.171875 1.5,-1.6640625 1.5,-2.3320312 0,-0.9609375 -0.7148437,-1.6992188 -1.6289062,-1.6992188 -0.3515625,0 -0.7265625,0.09375 -1.0195313,0.2695313 -0.515625,0.2695312 -0.7851562,0.609375 -1.078125,1.3359375 l 0.2109375,0.070312 c 0.375,-0.65625 0.796875,-0.9375 1.40625,-0.9375 0.7148438,0 1.2421875,0.515625 1.2421875,1.21875 0,0.2109375 -0.023437,0.3984375 -0.082031,0.5273437 -0.2460938,0.5390625 -0.703125,1.171875 -1.359375,1.86328125 L 4.1173828,2.824375 V 3.0001563 H 7.6681641 L 8.1720703,1.6759375 Z m 0,0"
       style="fill:#231f20;fill-opacity:1;fill-rule:nonzero;stroke:none"
       aria-label="I&#10;2"
       transform="matrix(1.3333333,0,0,1.3333333,289.1,67.046667)" />
    <path
       id="path38"
       d="m 2171.25,362.25 h 51"
       style="fill:none;stroke:#231f20;stroke-width:5;stroke-linecap:butt;stroke-linejoin:miter;stroke-miterlimit:3.8637;stroke-dasharray:none;stroke-opacity:1"
       transform="matrix(0.13333333,0,0,-0.13333333,0,101.48)" />
  </g>
</svg>
