<?xml version="1.0" encoding="UTF-8" standalone="no"?>
<!-- Created with Inkscape (http://www.inkscape.org/) -->

<svg
   version="1.1"
   id="svg1"
   width="321.33334"
   height="136"
   viewBox="0 0 321.33334 136"
   sodipodi:docname="ANA5.eps"
   xmlns:inkscape="http://www.inkscape.org/namespaces/inkscape"
   xmlns:sodipodi="http://sodipodi.sourceforge.net/DTD/sodipodi-0.dtd"
   xmlns="http://www.w3.org/2000/svg"
   xmlns:svg="http://www.w3.org/2000/svg">
  <defs
     id="defs1" />
  <sodipodi:namedview
     id="namedview1"
     pagecolor="#ffffff"
     bordercolor="#000000"
     borderopacity="0.25"
     inkscape:showpageshadow="2"
     inkscape:pageopacity="0.0"
     inkscape:pagecheckerboard="0"
     inkscape:deskcolor="#d1d1d1">
    <inkscape:page
       x="0"
       y="0"
       inkscape:label="1"
       id="page1"
       width="321.33334"
       height="136"
       margin="0"
       bleed="0" />
  </sodipodi:namedview>
  <g
     id="g1"
     inkscape:groupmode="layer"
     inkscape:label="1">
    <path
       id="path1"
       d="M 405,1012.17 H 2005 V 289.668 H 405 v 722.502"
       style="fill:#e9e9e9;fill-opacity:1;fill-rule:nonzero;stroke:none"
       transform="matrix(0.13333333,0,0,-0.13333333,0,136)" />
    <path
       id="path2"
       d="m 1793.81,837.5 h 142.5 V 650 h -142.5 v 187.5"
       style="fill:#ffffff;fill-opacity:1;fill-rule:nonzero;stroke:none"
       transform="matrix(0.13333333,0,0,-0.13333333,0,136)" />
    <path
       id="path3"
       d="m 1136.31,878.84 h 142.5 v -187.5 h -142.5 v 187.5"
       style="fill:#ffffff;fill-opacity:1;fill-rule:nonzero;stroke:none"
       transform="matrix(0.13333333,0,0,-0.13333333,0,136)" />
    <path
       id="path4"
       d="m 793.809,571.34 h 142.5 v -187.5 h -142.5 v 187.5"
       style="fill:#ffffff;fill-opacity:1;fill-rule:nonzero;stroke:none"
       transform="matrix(0.13333333,0,0,-0.13333333,0,136)" />
    <path
       id="path5"
       d="M 455,837.5 H 597.5 V 650 H 455 v 187.5"
       style="fill:#ffffff;fill-opacity:1;fill-rule:nonzero;stroke:none"
       transform="matrix(0.13333333,0,0,-0.13333333,0,136)" />
    <path
       id="path6"
       d="M 2005,133.227 V 8.85156"
       style="fill:none;stroke:#231f20;stroke-width:2.5;stroke-linecap:butt;stroke-linejoin:miter;stroke-miterlimit:3.86369;stroke-dasharray:none;stroke-opacity:1"
       transform="matrix(0.13333333,0,0,-0.13333333,0,136)" />
    <path
       id="path7"
       d="M 401.336,133.551 V 9.17578"
       style="fill:none;stroke:#231f20;stroke-width:2.5;stroke-linecap:butt;stroke-linejoin:miter;stroke-miterlimit:3.86369;stroke-dasharray:none;stroke-opacity:1"
       transform="matrix(0.13333333,0,0,-0.13333333,0,136)" />
    <path
       id="path8"
       d="M 435,67.6016 H 1980"
       style="fill:none;stroke:#231f20;stroke-width:2.5;stroke-linecap:butt;stroke-linejoin:miter;stroke-miterlimit:3.86369;stroke-dasharray:none;stroke-opacity:1"
       transform="matrix(0.13333333,0,0,-0.13333333,0,136)" />
    <path
       id="path9"
       d="m 435.688,60.7266 -22,7.5664 22,7.5586 z"
       style="fill:#231f20;fill-opacity:1;fill-rule:nonzero;stroke:#231f20;stroke-width:2.5;stroke-linecap:butt;stroke-linejoin:miter;stroke-miterlimit:3.86369;stroke-dasharray:none;stroke-opacity:1"
       transform="matrix(0.13333333,0,0,-0.13333333,0,136)" />
    <path
       id="path10"
       d="m 1979.31,74.4766 22,-7.5625 -22,-7.5586 z"
       style="fill:#231f20;fill-opacity:1;fill-rule:nonzero;stroke:#231f20;stroke-width:2.5;stroke-linecap:butt;stroke-linejoin:miter;stroke-miterlimit:3.86369;stroke-dasharray:none;stroke-opacity:1"
       transform="matrix(0.13333333,0,0,-0.13333333,0,136)" />
    <path
       id="path11"
       d="m 2.6947641,-4.0419703 h 3.3984375 l 0.515625,-1.8046875 c 0.1054687,-0.3515625 0.1523437,-0.6210938 0.1523437,-0.8085938 0,-0.1054687 -0.011719,-0.1757812 -0.070312,-0.2460937 -0.046875,-0.058594 -0.1054687,-0.1171875 -0.1992187,-0.1523438 -0.09375,-0.035156 -0.2695313,-0.046875 -0.5507813,-0.046875 l 0.058594,-0.1992187 H 8.917421 l -0.070312,0.1992187 c -0.2578125,0 -0.4335937,0.023437 -0.5507812,0.082031 -0.1757813,0.070312 -0.3046875,0.1757812 -0.3867188,0.28125 -0.1171875,0.1757812 -0.2460937,0.4804687 -0.3632812,0.890625 l -1.3007813,4.5234375 c -0.1054687,0.32812499 -0.1640625,0.57421874 -0.1640625,0.71484374 0,0.12890625 0.058594,0.2109375 0.140625,0.28125 0.1054688,0.0585938 0.3398438,0.10546875 0.6914063,0.12890625 L 6.8549203,9.984375e-4 H 4.0541391 L 4.1244516,-0.19822031 c 0.2929687,-0.0117188 0.4804687,-0.0351563 0.5625,-0.0703125 0.140625,-0.0703125 0.2578125,-0.15234375 0.3046875,-0.24609375 0.1054687,-0.140625 0.2109375,-0.45703125 0.3515625,-0.91406254 L 5.9877328,-3.6669703 H 2.5892953 l -0.6796875,2.34375 c -0.09375,0.32812499 -0.1523437,0.56249999 -0.1523437,0.71484374 0,0.12890625 0.046875,0.2109375 0.140625,0.28125 0.09375,0.0585938 0.328125,0.10546875 0.6796875,0.12890625 L 2.5307016,9.984375e-4 h -2.81250004 l 0.0585937,-0.1992187475 c 0.29296875,-0.0117188 0.48046875,-0.0351563 0.57421875,-0.0703125 0.140625,-0.0703125 0.24609375,-0.15234375 0.3046875,-0.24609375 0.10546875,-0.15234375 0.2109375,-0.45703125 0.35156249,-0.91406254 l 1.265625,-4.4179687 c 0.1054687,-0.3632813 0.1640625,-0.6210938 0.1640625,-0.8085938 0,-0.1054687 -0.023437,-0.1757812 -0.070312,-0.2460937 -0.046875,-0.058594 -0.1171875,-0.1171875 -0.2109375,-0.1523438 -0.09375,-0.035156 -0.2812501,-0.046875 -0.5625001,-0.046875 l 0.070312,-0.1992187 h 2.8710937 l -0.058594,0.1992187 c -0.234375,0 -0.421875,0.023437 -0.5390625,0.082031 -0.1640625,0.070312 -0.28125,0.1640625 -0.3632813,0.28125 -0.1054687,0.1523437 -0.234375,0.4570312 -0.3632812,0.890625 z M 13.259217,-5.1728297 11.524842,0.86232656 c -0.09375,0.35156254 -0.152344,0.59765624 -0.152344,0.76171874 0,0.1289063 0.04687,0.234375 0.128907,0.3046875 0.105468,0.070312 0.316406,0.1171875 0.65625,0.140625 l -0.05859,0.1992188 H 9.3334359 l 0.082031,-0.1992188 c 0.28125,-0.011719 0.4804687,-0.035156 0.5742187,-0.070313 0.1523444,-0.058594 0.2578124,-0.1523437 0.3398444,-0.2578125 0.117187,-0.1640625 0.234375,-0.46875 0.363281,-0.87890624 l 1.242187,-4.33593746 c 0.07031,-0.2695313 0.117188,-0.4101563 0.117188,-0.4570313 0.01172,-0.058594 0.02344,-0.1289062 0.02344,-0.1992187 0,-0.1289063 -0.03516,-0.2226563 -0.09375,-0.2929688 -0.08203,-0.070312 -0.164062,-0.1054687 -0.292968,-0.1054687 -0.08203,0 -0.234375,0.023437 -0.433594,0.058594 l -0.07031,-0.1992187 1.816407,-0.5039063 z M 113.52484,57.888694 h -5.40234 l 0.082,-0.199219 c 0.28125,-0.01172 0.48047,-0.03516 0.57422,-0.07031 0.15234,-0.05859 0.25781,-0.152344 0.33984,-0.246094 0.10547,-0.164063 0.22266,-0.46875 0.35156,-0.890625 l 1.26563,-4.453125 c 0.11719,-0.363281 0.17578,-0.632813 0.17578,-0.796875 0,-0.140625 -0.0586,-0.246094 -0.16406,-0.316406 -0.0937,-0.08203 -0.26953,-0.128907 -0.55078,-0.128907 -0.0586,0 -0.10547,0 -0.14063,0 l 0.0586,-0.199218 h 2.96484 l -0.0352,0.199218 c -0.33984,0 -0.57422,0.03516 -0.71484,0.105469 -0.14063,0.05859 -0.25781,0.164063 -0.35156,0.316406 -0.0703,0.09375 -0.16407,0.398438 -0.31641,0.902344 l -1.27734,4.464844 c -0.10547,0.304687 -0.16407,0.503906 -0.16407,0.621094 0,0.07031 0.0586,0.152343 0.16407,0.222656 0.0469,0.04687 0.1875,0.07031 0.41015,0.07031 h 0.71485 c 0.51562,0 0.9375,-0.05859 1.24218,-0.199218 0.22266,-0.08203 0.4336,-0.234375 0.6211,-0.421875 0.0937,-0.117188 0.26953,-0.375 0.52734,-0.808594 l 0.14063,-0.246094 h 0.19922 z m 0,0"
       style="fill:#231f20;fill-opacity:1;fill-rule:nonzero;stroke:none"
       aria-label="H&#10;1&#10;L"
       transform="matrix(1.3333333,0,0,1.3333333,15.4812,39.6432)" />
    <path
       id="path12"
       d="M 300,1012.5 H 2110"
       style="fill:none;stroke:#231f20;stroke-width:5;stroke-linecap:butt;stroke-linejoin:miter;stroke-miterlimit:3.86369;stroke-dasharray:120, 20, 20, 20;stroke-dashoffset:0;stroke-opacity:1"
       transform="matrix(0.13333333,0,0,-0.13333333,0,136)" />
    <path
       id="path13"
       d="M 300,291.34 H 2110"
       style="fill:none;stroke:#231f20;stroke-width:5;stroke-linecap:butt;stroke-linejoin:miter;stroke-miterlimit:3.86369;stroke-dasharray:120, 20, 20, 20;stroke-dashoffset:0;stroke-opacity:1"
       transform="matrix(0.13333333,0,0,-0.13333333,0,136)" />
    <path
       id="path14"
       d="m 1975,646.25 c 0,18.641 15.11,33.75 33.75,33.75 18.64,0 33.75,-15.109 33.75,-33.75 0,-18.641 -15.11,-33.75 -33.75,-33.75 -18.64,0 -33.75,15.109 -33.75,33.75"
       style="fill:#231f20;fill-opacity:1;fill-rule:nonzero;stroke:none"
       transform="matrix(0.13333333,0,0,-0.13333333,0,136)" />
    <path
       id="path15"
       d="m 1975,646.25 c 0,18.641 15.11,33.75 33.75,33.75 18.64,0 33.75,-15.109 33.75,-33.75 0,-18.641 -15.11,-33.75 -33.75,-33.75 -18.64,0 -33.75,15.109 -33.75,33.75 z"
       style="fill:none;stroke:#231f20;stroke-width:2.5;stroke-linecap:butt;stroke-linejoin:miter;stroke-miterlimit:3.86369;stroke-dasharray:none;stroke-opacity:1"
       transform="matrix(0.13333333,0,0,-0.13333333,0,136)" />
    <path
       id="path16"
       d="m 371.309,646.34 c 0,18.64 15.109,33.75 33.75,33.75 18.636,0 33.75,-15.11 33.75,-33.75 0,-18.641 -15.114,-33.75 -33.75,-33.75 -18.641,0 -33.75,15.109 -33.75,33.75"
       style="fill:#231f20;fill-opacity:1;fill-rule:nonzero;stroke:none"
       transform="matrix(0.13333333,0,0,-0.13333333,0,136)" />
    <path
       id="path17"
       d="m 371.309,646.34 c 0,18.64 15.109,33.75 33.75,33.75 18.636,0 33.75,-15.11 33.75,-33.75 0,-18.641 -15.114,-33.75 -33.75,-33.75 -18.641,0 -33.75,15.109 -33.75,33.75 z"
       style="fill:none;stroke:#231f20;stroke-width:2.5;stroke-linecap:butt;stroke-linejoin:miter;stroke-miterlimit:3.86369;stroke-dasharray:none;stroke-opacity:1"
       transform="matrix(0.13333333,0,0,-0.13333333,0,136)" />
    <path
       id="path18"
       d="M 402.5,1015 V 292.5"
       style="fill:none;stroke:#231f20;stroke-width:5;stroke-linecap:butt;stroke-linejoin:miter;stroke-miterlimit:3.86369;stroke-dasharray:none;stroke-opacity:1"
       transform="matrix(0.13333333,0,0,-0.13333333,0,136)" />
    <path
       id="path19"
       d="M 2007.5,1015 V 292.5"
       style="fill:none;stroke:#231f20;stroke-width:5;stroke-linecap:butt;stroke-linejoin:miter;stroke-miterlimit:3.86369;stroke-dasharray:none;stroke-opacity:1"
       transform="matrix(0.13333333,0,0,-0.13333333,0,136)" />
    <path
       id="path20"
       d="m 1072.66,655.102 h 4.84"
       style="fill:none;stroke:#231f20;stroke-width:10.001;stroke-linecap:butt;stroke-linejoin:miter;stroke-miterlimit:3.86369;stroke-dasharray:none;stroke-opacity:1"
       transform="matrix(0.13333333,0,0,-0.13333333,0,136)" />
    <path
       id="path21"
       d="m 1073.91,636.352 -50,13.75 49.97,22.503 z"
       style="fill:#231f20;fill-opacity:1;fill-rule:nonzero;stroke:#231f20;stroke-width:10.001;stroke-linecap:butt;stroke-linejoin:miter;stroke-miterlimit:3.86369;stroke-dasharray:none;stroke-opacity:1"
       transform="matrix(0.13333333,0,0,-0.13333333,0,136)" />
    <path
       id="path22"
       d="M 1072.5,651.418 1394.85,650"
       style="fill:none;stroke:#231f20;stroke-width:5;stroke-linecap:butt;stroke-linejoin:miter;stroke-miterlimit:3.86369;stroke-dasharray:none;stroke-opacity:1"
       transform="matrix(0.13333333,0,0,-0.13333333,0,136)" />
    <path
       id="path23"
       d="m 2081.38,650 322.35,-1.418"
       style="fill:none;stroke:#231f20;stroke-width:5;stroke-linecap:butt;stroke-linejoin:miter;stroke-miterlimit:3.86369;stroke-dasharray:none;stroke-opacity:1"
       transform="matrix(0.13333333,0,0,-0.13333333,0,136)" />
    <path
       id="path24"
       d="m 2084.3,650 v -17.5 l -43.75,17.5 43.75,17.5 V 650"
       style="fill:#231f20;fill-opacity:1;fill-rule:evenodd;stroke:none"
       transform="matrix(0.13333333,0,0,-0.13333333,0,136)" />
    <path
       id="path25"
       d="M 328.73,648.582 6.38281,650"
       style="fill:none;stroke:#231f20;stroke-width:5;stroke-linecap:butt;stroke-linejoin:miter;stroke-miterlimit:3.86369;stroke-dasharray:none;stroke-opacity:1"
       transform="matrix(0.13333333,0,0,-0.13333333,0,136)" />
    <path
       id="path26"
       d="m 325.813,648.582 v 17.5 l 43.75,-17.5 -43.75,-17.5 v 17.5"
       style="fill:#231f20;fill-opacity:1;fill-rule:evenodd;stroke:none"
       transform="matrix(0.13333333,0,0,-0.13333333,0,136)" />
    <path
       id="path27"
       d="m 140,829.668 h 62.5"
       style="fill:none;stroke:#231f20;stroke-width:5;stroke-linecap:butt;stroke-linejoin:miter;stroke-miterlimit:3.86369;stroke-dasharray:none;stroke-opacity:1"
       transform="matrix(0.13333333,0,0,-0.13333333,0,136)" />
    <g
       id="g27"
       aria-label="f&#10;1&#10;f&#10;2&#10;H&#10;2"
       transform="matrix(1.3333333,0,0,1.3333333,63.197333,39.538)">
      <path
         id="path28"
         d="m 3.4701641,-5.5304531 c 0.7734375,0.082031 1.3710937,0.3984375 1.7695312,0.9257812 0.4101563,0.5273438 0.6210938,1.1601563 0.6210938,1.8984375 0,0.328125 -0.046875,0.6679688 -0.1523438,0.984375 -0.09375,0.3046875 -0.2226562,0.5859375 -0.375,0.82031253 -0.1640625,0.24609375 -0.3398437,0.43359375 -0.5273437,0.5859375 -0.2109375,0.1640625 -0.4101563,0.28125 -0.65625,0.36328125 -0.1640625,0.046875 -0.3867188,0.09375 -0.6796875,0.12890625 V 2.5906406 h -0.65625 V 0.17657813 c -0.5976563,-0.0585938 -1.078125,-0.234375 -1.4296875,-0.5625 -0.64453129,-0.5390625 -0.96093754,-1.28906253 -0.96093754,-2.26171873 0,-0.3867188 0.046875,-0.7382813 0.140625,-1.0429688 0.09375,-0.3046875 0.234375,-0.5742187 0.3984375,-0.8085937 0.16406254,-0.2226563 0.35156254,-0.421875 0.55078124,-0.5625 0.1875,-0.140625 0.4101563,-0.2695313 0.6210938,-0.3398438 0.1757812,-0.046875 0.3867187,-0.09375 0.6796875,-0.1289062 v -2.8125 h 0.65625 z m -0.65625,0.3632812 c -0.2695313,0.058594 -0.4570313,0.140625 -0.5976563,0.2460938 -0.2226562,0.1875 -0.3984375,0.4335937 -0.5390625,0.7617187 -0.1289062,0.328125 -0.1992187,0.7734375 -0.1992187,1.3242188 0,0.6328125 0.082031,1.1367187 0.234375,1.5234375 0.1640625,0.39843748 0.3515625,0.70312498 0.5976562,0.89062498 0.1054688,0.10546875 0.2695313,0.19921875 0.5039063,0.2578125 z m 0.65625,5.00390628 c 0.234375,-0.046875 0.421875,-0.140625 0.5507812,-0.24609375 0.2578125,-0.17578125 0.4335938,-0.4453125 0.5625,-0.77343753 0.1289063,-0.3398437 0.2109375,-0.796875 0.2109375,-1.3945312 0,-0.5390625 -0.070312,-1.0078125 -0.1875,-1.3828125 -0.1171875,-0.3867188 -0.28125,-0.6679688 -0.5039062,-0.8789063 -0.140625,-0.1289062 -0.3632813,-0.2460937 -0.6328125,-0.328125 z m 0,0"
         style="fill:#231f20;fill-opacity:1;fill-rule:nonzero;stroke:none" />
      <path
         id="path29"
         d="M 9.5932109,-3.1456875 8.3393047,1.2488438 C 8.2572734,1.4949375 8.2221172,1.6824375 8.2221172,1.799625 c 0,0.09375 0.035156,0.1757813 0.09375,0.2226563 0.070312,0.046875 0.2226562,0.082031 0.4804687,0.1054687 L 8.7494609,2.268375 H 6.7455547 L 6.7924297,2.12775 C 7.0033672,2.1160313 7.1439922,2.1043125 7.2143047,2.080875 7.3314922,2.034 7.4018047,1.9636875 7.4603984,1.8816563 7.5541484,1.7644688 7.6361797,1.5535313 7.7299297,1.2488438 l 0.9023437,-3.1640625 c 0.058594,-0.1875 0.082031,-0.2929688 0.082031,-0.328125 0.011719,-0.046875 0.023437,-0.09375 0.023437,-0.1523438 0,-0.082031 -0.023437,-0.1523437 -0.070312,-0.1992187 -0.058594,-0.058594 -0.1289063,-0.082031 -0.2109375,-0.082031 -0.070312,0 -0.1757813,0.011719 -0.3164063,0.046875 l -0.058594,-0.140625 1.3242187,-0.375 z m 0,0"
         style="fill:#231f20;fill-opacity:1;fill-rule:nonzero;stroke:none" />
      <path
         id="path30"
         d="m 137.09321,-5.9054531 c 0.77344,0.082031 1.37109,0.3984375 1.76953,0.9257812 0.41016,0.5273438 0.6211,1.1601563 0.6211,1.8984375 0,0.328125 -0.0469,0.6679688 -0.15235,0.984375 -0.0937,0.3046875 -0.22265,0.5859375 -0.375,0.8203125 -0.16406,0.2460938 -0.33984,0.43359378 -0.52734,0.58593753 -0.21094,0.1640625 -0.41016,0.28125 -0.65625,0.36328125 -0.16406,0.046875 -0.38672,0.09375 -0.67969,0.12890625 V 2.2156406 h -0.65625 v -2.41406247 c -0.59766,-0.0585938 -1.07812,-0.234375 -1.42969,-0.5625 -0.64453,-0.53906253 -0.96093,-1.28906253 -0.96093,-2.26171873 0,-0.3867188 0.0469,-0.7382813 0.14062,-1.0429688 0.0937,-0.3046875 0.23438,-0.5742187 0.39844,-0.8085937 0.16406,-0.2226563 0.35156,-0.421875 0.55078,-0.5625 0.1875,-0.140625 0.41016,-0.2695313 0.62109,-0.3398438 0.17578,-0.046875 0.38672,-0.09375 0.67969,-0.1289062 v -2.8125 h 0.65625 z m -0.65625,0.3632812 c -0.26953,0.058594 -0.45703,0.140625 -0.59766,0.2460938 -0.22265,0.1875 -0.39843,0.4335937 -0.53906,0.7617187 -0.1289,0.328125 -0.19922,0.7734375 -0.19922,1.3242188 0,0.6328125 0.082,1.1367187 0.23438,1.5234375 0.16406,0.3984375 0.35156,0.70312498 0.59765,0.89062498 0.10547,0.10546875 0.26954,0.19921875 0.50391,0.2578125 z m 0.65625,5.00390628 c 0.23438,-0.046875 0.42188,-0.140625 0.55078,-0.24609375 0.25781,-0.17578125 0.4336,-0.44531253 0.5625,-0.77343753 0.12891,-0.3398437 0.21094,-0.796875 0.21094,-1.3945312 0,-0.5390625 -0.0703,-1.0078125 -0.1875,-1.3828125 -0.11719,-0.3867188 -0.28125,-0.6679688 -0.50391,-0.8789063 -0.14062,-0.1289062 -0.36328,-0.2460937 -0.63281,-0.328125 z m 0,0"
         style="fill:#231f20;fill-opacity:1;fill-rule:nonzero;stroke:none" />
      <path
         id="path31"
         d="m 142.65376,1.893375 h -2.64844 V 1.75275 c 1.34766,-1.18359375 2.22656,-2.109375 2.66016,-2.7773437 0.19922,-0.3046875 0.30468,-0.6328125 0.30468,-0.9726563 0,-0.2695312 -0.082,-0.4921875 -0.25781,-0.6679687 -0.16406,-0.1640625 -0.375,-0.2460938 -0.64453,-0.2460938 -0.36328,0 -0.66797,0.1757813 -0.90234,0.5273438 l -0.14063,-0.070312 c 0.14063,-0.3398438 0.32813,-0.5976563 0.58594,-0.7851563 0.25781,-0.1875 0.52734,-0.28125 0.83203,-0.28125 0.32813,0 0.60938,0.1171875 0.84375,0.3515625 0.23438,0.2226563 0.33984,0.5039063 0.33984,0.8320313 0,0.234375 -0.0351,0.4453125 -0.11718,0.6445312 -0.12891,0.3046875 -0.36328,0.6445313 -0.69141,1.01953125 -0.51562,0.5859375 -1.19531,1.2421875 -2.05078,2.00390625 h 1.34766 c 0.21093,0 0.38671,-0.058594 0.52734,-0.140625 0.12891,-0.09375 0.23437,-0.19921875 0.29297,-0.3515625 h 0.16406 z m 25.80469,-4.9101562 h 2.47265 l 0.375,-1.3125 c 0.082,-0.2578125 0.11719,-0.4570313 0.11719,-0.5859375 0,-0.070312 -0.0117,-0.1289063 -0.0586,-0.1757813 -0.0234,-0.046875 -0.082,-0.09375 -0.14063,-0.1171875 -0.0703,-0.023437 -0.19922,-0.035156 -0.39844,-0.035156 l 0.0352,-0.140625 h 2.12109 l -0.0469,0.140625 c -0.1875,0 -0.31641,0.023437 -0.39844,0.058594 -0.12891,0.058594 -0.22266,0.1289063 -0.28125,0.2109375 -0.082,0.1289063 -0.17578,0.3398438 -0.25781,0.6445313 l -0.94922,3.2929687 c -0.082,0.24609375 -0.11719,0.421875 -0.11719,0.515625 0,0.09375 0.0352,0.15234375 0.10547,0.2109375 0.0703,0.046875 0.23438,0.0703125 0.49219,0.09375 l -0.0352,0.140625 h -2.05078 l 0.0586,-0.140625 c 0.21094,-0.0117188 0.33985,-0.0234375 0.41016,-0.0585938 0.10547,-0.046875 0.1875,-0.10546875 0.22266,-0.17578125 0.0703,-0.10546875 0.15234,-0.328125 0.25781,-0.66796875 l 0.46875,-1.6171875 h -2.47266 l -0.49218,1.6992188 c -0.0703,0.23437495 -0.11719,0.4101562 -0.11719,0.51562495 0,0.09375 0.0351,0.15234375 0.10547,0.2109375 0.0703,0.046875 0.23437,0.0703125 0.49218,0.09375 l -0.0351,0.140625 h -2.05078 l 0.0469,-0.140625 c 0.21094,-0.0117188 0.35156,-0.0234375 0.42188,-0.0585938 0.10547,-0.046875 0.17578,-0.10546875 0.22265,-0.17578125 0.0703,-0.1171875 0.15235,-0.328125 0.25782,-0.6679687 l 0.91406,-3.2109375 c 0.082,-0.2578125 0.11719,-0.4570313 0.11719,-0.5859375 0,-0.070312 -0.0117,-0.1289063 -0.0469,-0.1757813 -0.0352,-0.046875 -0.082,-0.09375 -0.15234,-0.1171875 -0.0703,-0.023437 -0.21094,-0.035156 -0.41016,-0.035156 l 0.0469,-0.140625 h 2.08593 l -0.0351,0.140625 c -0.17578,0 -0.30469,0.023437 -0.38672,0.058594 -0.12891,0.046875 -0.21094,0.1171875 -0.26953,0.2109375 -0.082,0.1171875 -0.16407,0.328125 -0.26953,0.6445313 z m 9.48339,5.2089843 h -2.64843 v -0.140625 c 1.34765,-1.18359372 2.22656,-2.10937497 2.66015,-2.77734372 0.19922,-0.30468748 0.30469,-0.63281248 0.30469,-0.97265628 0,-0.2695312 -0.082,-0.4921875 -0.25781,-0.6679687 -0.16407,-0.1640625 -0.375,-0.2460938 -0.64453,-0.2460938 -0.36329,0 -0.66797,0.1757813 -0.90235,0.5273438 l -0.14062,-0.070312 c 0.14062,-0.3398438 0.32812,-0.5976563 0.58593,-0.7851563 0.25782,-0.1875 0.52735,-0.28125 0.83204,-0.28125 0.32812,0 0.60937,0.1171875 0.84375,0.3515625 0.23437,0.2226563 0.33984,0.5039063 0.33984,0.8320313 0,0.234375 -0.0352,0.4453125 -0.11719,0.6445312 -0.1289,0.3046875 -0.36328,0.64453128 -0.6914,1.01953128 -0.51563,0.5859375 -1.19532,1.2421875 -2.05079,2.00390622 h 1.34766 c 0.21094,0 0.38672,-0.058594 0.52734,-0.140625 0.12891,-0.09375 0.23438,-0.1992187 0.29297,-0.3515625 h 0.16407 z m 0,0"
         style="fill:#231f20;fill-opacity:1;fill-rule:nonzero;stroke:none" />
    </g>
    <path
       id="path32"
       d="m 2162.87,831.211 h 62.5"
       style="fill:none;stroke:#231f20;stroke-width:5;stroke-linecap:butt;stroke-linejoin:miter;stroke-miterlimit:3.86369;stroke-dasharray:none;stroke-opacity:1"
       transform="matrix(0.13333333,0,0,-0.13333333,0,136)" />
    <path
       id="path33"
       d="m 2.9428203,-4.4052484 h 3.703125 l 0.5625,-1.96875 c 0.1171875,-0.3867188 0.1757813,-0.6796875 0.1757813,-0.890625 0,-0.1054688 -0.023437,-0.1875 -0.082031,-0.2578125 -0.058594,-0.070312 -0.1289062,-0.1289063 -0.2226562,-0.1640625 -0.1054688,-0.035156 -0.2929688,-0.046875 -0.5976563,-0.046875 l 0.058594,-0.2226563 h 3.1757812 l -0.070312,0.2226563 c -0.2695312,0 -0.46875,0.023437 -0.5976562,0.082031 -0.1875,0.082031 -0.3398438,0.1875 -0.421875,0.3046875 -0.1289063,0.1992188 -0.2578125,0.515625 -0.3984375,0.9726563 l -1.40625,4.9335937 c -0.1289063,0.3632813 -0.1875,0.62109376 -0.1875,0.78515626 0,0.12890625 0.058594,0.22265625 0.1640625,0.29296875 0.1054687,0.0703125 0.3515625,0.12890625 0.7382812,0.15234375 l -0.058594,0.2109375 H 4.4193828 l 0.082031,-0.2109375 c 0.3164062,-0.0117188 0.515625,-0.046875 0.609375,-0.09375 0.1640625,-0.0703125 0.28125,-0.15234375 0.3398437,-0.2578125 0.1054688,-0.15234375 0.2226563,-0.49218746 0.3867188,-0.99609376 l 0.6914062,-2.4375 h -3.703125 l -0.7382812,2.5546875 c -0.1054688,0.3515625 -0.1640625,0.60937501 -0.1640625,0.78515626 0,0.12890625 0.046875,0.22265625 0.1523437,0.29296875 0.09375,0.0703125 0.3515625,0.12890625 0.7382813,0.15234375 l -0.046875,0.2109375 h -3.08203129 l 0.0820313,-0.2109375 c 0.3046875,-0.0117188 0.515625,-0.046875 0.62109375,-0.09375 0.15234375,-0.0703125 0.2578125,-0.15234375 0.328125,-0.2578125 0.1171875,-0.1640625 0.234375,-0.49218746 0.38671874,-0.99609376 l 1.3828126,-4.8164062 c 0.1054687,-0.3984375 0.1640625,-0.6796875 0.1640625,-0.890625 0,-0.1054688 -0.023437,-0.1875 -0.070312,-0.2578125 -0.046875,-0.070312 -0.1171875,-0.1289063 -0.2226563,-0.1640625 -0.1171875,-0.035156 -0.3164062,-0.046875 -0.6210938,-0.046875 l 0.082031,-0.2226563 h 3.1289063 l -0.058594,0.2226563 c -0.2695312,0 -0.4570312,0.023437 -0.5859375,0.082031 -0.1875,0.070312 -0.3164061,0.1757813 -0.3984374,0.3046875 -0.1171875,0.1757813 -0.2578125,0.4921875 -0.3984375,0.9726563 z M -29.702687,21.10647 l -1.640625,5.765625 0.65625,-0.5625 c 0.726562,-0.632812 1.195312,-1.078125 1.429687,-1.371093 0.07031,-0.09375 0.105469,-0.175782 0.105469,-0.222657 0,-0.04687 -0.01172,-0.08203 -0.03516,-0.117187 -0.02344,-0.03516 -0.07031,-0.05859 -0.140625,-0.07031 -0.08203,-0.02344 -0.199219,-0.03516 -0.363282,-0.03516 h -0.210937 l 0.07031,-0.210937 h 2.566407 l -0.05859,0.210937 c -0.292969,0.01172 -0.5625,0.05859 -0.761719,0.140625 -0.210937,0.08203 -0.421875,0.199219 -0.621094,0.351563 -0.398437,0.304687 -0.644531,0.503906 -0.773437,0.609375 l -0.515625,0.457031 c 0.08203,0.28125 0.199219,0.679687 0.328125,1.171875 0.199219,0.832031 0.351562,1.324219 0.421875,1.488281 0.07031,0.152344 0.152344,0.222656 0.222656,0.222656 0.07031,0 0.140625,-0.03516 0.246094,-0.09375 0.199219,-0.164062 0.421875,-0.386718 0.644531,-0.714843 l 0.199219,0.152343 c -0.410156,0.539063 -0.75,0.878907 -0.984375,1.054688 -0.210938,0.164062 -0.421875,0.246094 -0.609375,0.246094 -0.164063,0 -0.292969,-0.05859 -0.386719,-0.175782 -0.152344,-0.246093 -0.410156,-1.136718 -0.773437,-2.730468 l -0.808594,0.703125 -0.597656,2.074218 h -0.914063 l 1.933594,-6.691406 0.152344,-0.574219 c 0.02344,-0.09375 0.03516,-0.175781 0.03516,-0.246093 0,-0.09375 -0.03516,-0.164063 -0.105469,-0.222657 -0.07031,-0.07031 -0.175781,-0.105468 -0.304687,-0.105468 -0.09375,0 -0.234375,0.02344 -0.421875,0.05859 l -0.01172,-0.210937 z m 0,0"
       style="fill:#231f20;fill-opacity:1;fill-rule:nonzero;stroke:none"
       aria-label="H&#10;k"
       transform="matrix(1.3333333,0,0,1.3333333,155.19733,37.604133)" />
  </g>
</svg>
