<?xml version="1.0" encoding="UTF-8" standalone="no"?>
<!-- Created with Inkscape (http://www.inkscape.org/) -->

<svg
   version="1.1"
   id="svg1"
   width="290.66666"
   height="90.666664"
   viewBox="0 0 290.66666 90.666664"
   sodipodi:docname="ANA6.eps"
   xmlns:inkscape="http://www.inkscape.org/namespaces/inkscape"
   xmlns:sodipodi="http://sodipodi.sourceforge.net/DTD/sodipodi-0.dtd"
   xmlns="http://www.w3.org/2000/svg"
   xmlns:svg="http://www.w3.org/2000/svg">
  <defs
     id="defs1" />
  <sodipodi:namedview
     id="namedview1"
     pagecolor="#ffffff"
     bordercolor="#000000"
     borderopacity="0.25"
     inkscape:showpageshadow="2"
     inkscape:pageopacity="0.0"
     inkscape:pagecheckerboard="0"
     inkscape:deskcolor="#d1d1d1">
    <inkscape:page
       x="0"
       y="0"
       inkscape:label="1"
       id="page1"
       width="290.66666"
       height="90.666664"
       margin="0"
       bleed="0" />
  </sodipodi:namedview>
  <g
     id="g1"
     inkscape:groupmode="layer"
     inkscape:label="1">
    <path
       id="path1"
       d="M 1888.78,127.164 V 2.78906"
       style="fill:none;stroke:#231f20;stroke-width:2.5;stroke-linecap:butt;stroke-linejoin:miter;stroke-miterlimit:3.86369;stroke-dasharray:none;stroke-opacity:1"
       transform="matrix(0.13333333,0,0,-0.13333333,0,90.666667)" />
    <path
       id="path2"
       d="M 293.621,127.484 V 3.10938"
       style="fill:none;stroke:#231f20;stroke-width:2.5;stroke-linecap:butt;stroke-linejoin:miter;stroke-miterlimit:3.86369;stroke-dasharray:none;stroke-opacity:1"
       transform="matrix(0.13333333,0,0,-0.13333333,0,90.666667)" />
    <path
       id="path3"
       d="M 318.781,61.5391 H 1863.78"
       style="fill:none;stroke:#231f20;stroke-width:2.5;stroke-linecap:butt;stroke-linejoin:miter;stroke-miterlimit:3.86369;stroke-dasharray:none;stroke-opacity:1"
       transform="matrix(0.13333333,0,0,-0.13333333,0,90.666667)" />
    <path
       id="path4"
       d="m 319.469,54.6641 -22,7.5625 22,7.5625 z"
       style="fill:#231f20;fill-opacity:1;fill-rule:nonzero;stroke:#231f20;stroke-width:2.5;stroke-linecap:butt;stroke-linejoin:miter;stroke-miterlimit:3.86369;stroke-dasharray:none;stroke-opacity:1"
       transform="matrix(0.13333333,0,0,-0.13333333,0,90.666667)" />
    <path
       id="path5"
       d="m 1863.09,68.4141 22,-7.5625 -22,-7.5625 z"
       style="fill:#231f20;fill-opacity:1;fill-rule:nonzero;stroke:#231f20;stroke-width:2.5;stroke-linecap:butt;stroke-linejoin:miter;stroke-miterlimit:3.86369;stroke-dasharray:none;stroke-opacity:1"
       transform="matrix(0.13333333,0,0,-0.13333333,0,90.666667)" />
    <path
       id="path6"
       d="m 2.6947641,-4.0427953 h 3.3984375 l 0.515625,-1.8046875 c 0.1054687,-0.3515625 0.1523437,-0.6210938 0.1523437,-0.8085938 0,-0.1054687 -0.011719,-0.1757812 -0.070312,-0.2460937 -0.046875,-0.058594 -0.1054687,-0.1171875 -0.1992187,-0.1523438 -0.09375,-0.035156 -0.2695313,-0.046875 -0.5507813,-0.046875 l 0.058594,-0.1992187 H 8.917421 l -0.070312,0.1992187 c -0.2578125,0 -0.4335937,0.023437 -0.5507812,0.082031 -0.1757813,0.070312 -0.3046875,0.1757812 -0.3867188,0.28125 -0.1171875,0.1757812 -0.2460937,0.4804687 -0.3632812,0.890625 l -1.3007813,4.5234375 c -0.1054687,0.32812499 -0.1640625,0.57421874 -0.1640625,0.71484374 0,0.12890625 0.058594,0.2109375 0.140625,0.28125 0.1054688,0.0585938 0.3398438,0.10546875 0.6914063,0.12890625 L 6.8549203,1.734375e-4 H 4.0541391 L 4.1244516,-0.19904531 c 0.2929687,-0.0117188 0.4804687,-0.0351563 0.5625,-0.0703125 0.140625,-0.0703125 0.2578125,-0.15234375 0.3046875,-0.24609375 0.1054687,-0.140625 0.2109375,-0.45703125 0.3515625,-0.91406254 L 5.9877328,-3.6677953 H 2.5892953 l -0.6796875,2.34375 c -0.09375,0.32812499 -0.1523437,0.56249999 -0.1523437,0.71484374 0,0.12890625 0.046875,0.2109375 0.140625,0.28125 0.09375,0.0585938 0.328125,0.10546875 0.6796875,0.12890625 L 2.5307016,1.734375e-4 h -2.81250004 l 0.0585937,-0.1992187475 c 0.29296875,-0.0117188 0.48046875,-0.0351563 0.57421875,-0.0703125 0.140625,-0.0703125 0.24609375,-0.15234375 0.3046875,-0.24609375 0.10546875,-0.15234375 0.2109375,-0.45703125 0.35156249,-0.91406254 l 1.265625,-4.4179687 c 0.1054687,-0.3632813 0.1640625,-0.6210938 0.1640625,-0.8085938 0,-0.1054687 -0.023437,-0.1757812 -0.070312,-0.2460937 -0.046875,-0.058594 -0.1171875,-0.1171875 -0.2109375,-0.1523438 -0.09375,-0.035156 -0.2812501,-0.046875 -0.5625001,-0.046875 l 0.070312,-0.1992187 h 2.8710937 l -0.058594,0.1992187 c -0.234375,0 -0.421875,0.023437 -0.5390625,0.082031 -0.1640625,0.070312 -0.28125,0.1640625 -0.3632813,0.28125 -0.1054687,0.1523437 -0.234375,0.4570312 -0.3632812,0.890625 z M 13.259217,-5.1736547 11.524842,0.86150156 c -0.09375,0.35156254 -0.152344,0.59765624 -0.152344,0.76171874 0,0.1289063 0.04687,0.234375 0.128907,0.3046875 0.105468,0.070312 0.316406,0.1171875 0.65625,0.140625 l -0.05859,0.1992188 H 9.3334359 l 0.082031,-0.1992188 c 0.28125,-0.011719 0.4804687,-0.035156 0.5742187,-0.070312 0.1523444,-0.058594 0.2578124,-0.1523437 0.3398444,-0.2578125 0.117187,-0.1640625 0.234375,-0.46875 0.363281,-0.87890624 l 1.242187,-4.33593746 c 0.07031,-0.2695313 0.117188,-0.4101563 0.117188,-0.4570313 0.01172,-0.058594 0.02344,-0.1289062 0.02344,-0.1992187 0,-0.1289063 -0.03516,-0.2226563 -0.09375,-0.2929688 -0.08203,-0.070312 -0.164062,-0.1054687 -0.292968,-0.1054687 -0.08203,0 -0.234375,0.023437 -0.433594,0.058594 l -0.07031,-0.1992187 1.816407,-0.5039063 z M 101.27582,13.277517 h -5.402345 l 0.08203,-0.199219 c 0.28125,-0.01172 0.480469,-0.03516 0.574219,-0.07031 0.152344,-0.05859 0.257812,-0.152344 0.339844,-0.246094 0.105468,-0.164062 0.222656,-0.46875 0.351562,-0.890625 l 1.265625,-4.4531248 c 0.117188,-0.3632813 0.175781,-0.6328125 0.175781,-0.796875 0,-0.140625 -0.05859,-0.2460938 -0.164062,-0.3164063 -0.09375,-0.082031 -0.269531,-0.1289062 -0.550781,-0.1289062 -0.05859,0 -0.105469,0 -0.140625,0 l 0.05859,-0.1992188 h 2.964852 l -0.0352,0.1992188 c -0.33984,0 -0.57422,0.035156 -0.71484,0.1054687 -0.140633,0.058594 -0.25782,0.1640625 -0.35157,0.3164063 -0.07031,0.09375 -0.164063,0.3984375 -0.316407,0.9023437 L 98.13515,11.965019 c -0.105469,0.304688 -0.164063,0.503906 -0.164063,0.621094 0,0.07031 0.05859,0.152344 0.164063,0.222656 0.04687,0.04687 0.1875,0.07031 0.410156,0.07031 h 0.714844 c 0.515625,0 0.9375,-0.05859 1.24219,-0.199219 0.22266,-0.08203 0.4336,-0.234375 0.6211,-0.421875 0.0937,-0.117188 0.26953,-0.375 0.52734,-0.808594 l 0.14062,-0.246094 h 0.19922 z m 0,0"
       style="fill:#231f20;fill-opacity:1;fill-rule:nonzero;stroke:none"
       aria-label="H&#10;1&#10;L"
       transform="matrix(1.3333333,0,0,1.3333333,15.4812,54.4568)" />
    <path
       id="path7"
       d="m 1010.3,425.102 h 4.84"
       style="fill:none;stroke:#231f20;stroke-width:10.001;stroke-linecap:butt;stroke-linejoin:miter;stroke-miterlimit:3.86369;stroke-dasharray:none;stroke-opacity:1"
       transform="matrix(0.13333333,0,0,-0.13333333,0,90.666667)" />
    <path
       id="path8"
       d="m 1011.55,406.352 -50.007,13.75 49.977,22.503 z"
       style="fill:#231f20;fill-opacity:1;fill-rule:nonzero;stroke:#231f20;stroke-width:10.001;stroke-linecap:butt;stroke-linejoin:miter;stroke-miterlimit:3.86369;stroke-dasharray:none;stroke-opacity:1"
       transform="matrix(0.13333333,0,0,-0.13333333,0,90.666667)" />
    <path
       id="path9"
       d="M 1010.14,421.418 1332.48,420"
       style="fill:none;stroke:#231f20;stroke-width:5;stroke-linecap:butt;stroke-linejoin:miter;stroke-miterlimit:3.86369;stroke-dasharray:none;stroke-opacity:1"
       transform="matrix(0.13333333,0,0,-0.13333333,0,90.666667)" />
    <path
       id="path10"
       d="m 1851.78,420 322.35,-1.418"
       style="fill:none;stroke:#231f20;stroke-width:5;stroke-linecap:butt;stroke-linejoin:miter;stroke-miterlimit:3.86369;stroke-dasharray:none;stroke-opacity:1"
       transform="matrix(0.13333333,0,0,-0.13333333,0,90.666667)" />
    <path
       id="path11"
       d="m 1854.7,420 v -17.5 l -43.75,17.5 43.75,17.5 V 420"
       style="fill:#231f20;fill-opacity:1;fill-rule:evenodd;stroke:none"
       transform="matrix(0.13333333,0,0,-0.13333333,0,90.666667)" />
    <path
       id="path12"
       d="M 328.73,418.582 6.38281,420"
       style="fill:none;stroke:#231f20;stroke-width:5;stroke-linecap:butt;stroke-linejoin:miter;stroke-miterlimit:3.86369;stroke-dasharray:none;stroke-opacity:1"
       transform="matrix(0.13333333,0,0,-0.13333333,0,90.666667)" />
    <path
       id="path13"
       d="m 325.813,418.582 v 17.5 l 43.75,-17.5 -43.75,-17.5 v 17.5"
       style="fill:#231f20;fill-opacity:1;fill-rule:evenodd;stroke:none"
       transform="matrix(0.13333333,0,0,-0.13333333,0,90.666667)" />
    <path
       id="path14"
       d="m 140,378.566 h 62.5"
       style="fill:none;stroke:#231f20;stroke-width:5;stroke-linecap:butt;stroke-linejoin:miter;stroke-miterlimit:3.86369;stroke-dasharray:none;stroke-opacity:1"
       transform="matrix(0.13333333,0,0,-0.13333333,0,90.666667)" />
    <g
       id="g14"
       aria-label="D, m&#10;p&#10;1&#10;H&#10;2"
       transform="matrix(1.3333333,0,0,1.3333333,113.864,15.204667)">
      <path
         id="path15"
         d="m 1.7221172,-7.7355312 0.082031,-0.2226563 H 4.347117 c 1.078125,0 1.8632812,0.1171875 2.390625,0.375 0.5273437,0.234375 0.9375,0.6328125 1.2421875,1.1601563 0.3164062,0.5273437 0.46875,1.0898437 0.46875,1.7109375 0,0.515625 -0.082031,1.0195312 -0.2695313,1.5117187 -0.1757812,0.4921875 -0.375,0.8789063 -0.5976562,1.1835938 -0.2226563,0.2929687 -0.5742188,0.609375 -1.0429688,0.9726562 -0.4570312,0.36328125 -0.9609375,0.62109375 -1.5117187,0.78515625 -0.5390625,0.17578125 -1.2070313,0.2578125 -2.0273438,0.2578125 h -3.36328121 l 0.0703125,-0.2109375 c 0.31640625,-0.0117188 0.515625,-0.046875 0.6328125,-0.09375 0.15234375,-0.0585938 0.2578125,-0.15234375 0.33984375,-0.2578125 C 0.79633594,-0.72771875 0.92524219,-1.0675625 1.0541484,-1.55975 l 1.3945313,-4.8164062 c 0.1054687,-0.3867188 0.1523437,-0.6679688 0.1523437,-0.890625 0,-0.1523438 -0.046875,-0.2695313 -0.140625,-0.3515625 C 2.3549297,-7.700375 2.1557109,-7.7355312 1.8627422,-7.7355312 Z m 2.0859375,0.2109375 -1.734375,6.0820312 c -0.1289063,0.3984375 -0.1875,0.64453125 -0.1875,0.75 0,0.046875 0.011719,0.10546875 0.058594,0.15234375 0.035156,0.0585937 0.09375,0.09375 0.1640625,0.10546875 0.09375,0.0351563 0.2695313,0.046875 0.5039063,0.046875 0.6210937,0 1.2070312,-0.0585938 1.734375,-0.1875 0.5390625,-0.12890625 0.9726562,-0.31640625 1.3125,-0.5625 0.4804687,-0.3632812 0.8789062,-0.8671875 1.171875,-1.5 0.28125,-0.65625 0.4335937,-1.3710937 0.4335937,-2.1914062 0,-0.9140625 -0.234375,-1.6054688 -0.6796875,-2.0507813 -0.4453125,-0.4453125 -1.1015625,-0.6679687 -1.9570312,-0.6679687 -0.2109375,0 -0.4921875,0.011719 -0.8203128,0.023437 z m 0,0"
         style="fill:#231f20;fill-opacity:1;fill-rule:nonzero;stroke:none" />
      <path
         id="path16"
         d="M 9.3100078,2.0144688 V 1.7566563 C 9.7201641,1.6160313 10.03657,1.4168125 10.247508,1.1355625 c 0.234375,-0.28125 0.339844,-0.57421875 0.339844,-0.87890625 0,-0.10546875 -0.01172,-0.1640625 -0.04687,-0.19921875 -0.03516,-0.03515625 -0.07031,-0.05859375 -0.117188,-0.05859375 -0.03516,0 -0.117187,0.03515625 -0.257812,0.1171875 -0.07031,0.0351563 -0.140625,0.0585938 -0.2226567,0.0585938 -0.1992187,0 -0.3398437,-0.0585938 -0.4570312,-0.1640625 -0.1171875,-0.1171875 -0.1757813,-0.28125 -0.1757813,-0.46875 0,-0.1875 0.070312,-0.36328125 0.2226563,-0.4921875 0.1523437,-0.12890615 0.328125,-0.19921865 0.5390629,-0.19921865 0.257812,0 0.492187,0.1054687 0.691406,0.3281249 0.210937,0.234375 0.304687,0.52734375 0.304687,0.890625 0,0.41015625 -0.140625,0.78515625 -0.421875,1.125 C 10.364695,1.5457188 9.9311016,1.81525 9.3100078,2.0144688 Z M 20.220164,-5.3800625 v 3.5273438 c 0,0.46875 0.02344,0.8085937 0.05859,0.9960937 0.03516,0.140625 0.09375,0.234375 0.164062,0.29296875 0.07031,0.0585938 0.140625,0.0820312 0.222657,0.0820312 0.09375,0 0.1875,-0.046875 0.28125,-0.140625 0.08203,-0.09375 0.140625,-0.3046875 0.175781,-0.58593755 h 0.234375 c -0.07031,0.5273438 -0.1875,0.8789063 -0.375,1.0898438 -0.199215,0.1992188 -0.43359,0.2929688 -0.738277,0.2929688 -0.28125,0 -0.515625,-0.08203125 -0.679688,-0.2578125 -0.1875,-0.1875 -0.28125,-0.48046875 -0.316406,-0.9257812 -0.398438,0.44531245 -0.773438,0.74999995 -1.125,0.9257812 -0.363281,0.17578125 -0.667969,0.2578125 -0.925781,0.2578125 -0.175782,0 -0.351563,-0.0351563 -0.515625,-0.10546875 -0.164063,-0.05859375 -0.339844,-0.1640625 -0.492188,-0.29296875 -0.01172,0.57421875 0.03516,1.06640625 0.140625,1.4882813 0.09375,0.2929687 0.128906,0.515625 0.128906,0.6328125 0,0.2109375 -0.07031,0.3867187 -0.175781,0.5039062 -0.105469,0.1289063 -0.222656,0.1875 -0.351562,0.1875 -0.152344,0 -0.257813,-0.058594 -0.351563,-0.1640625 -0.117187,-0.140625 -0.1875,-0.3398437 -0.1875,-0.5507812 0,-0.1054688 0.03516,-0.2578125 0.08203,-0.4101563 0.09375,-0.375 0.164063,-0.69140625 0.1875,-0.97265625 0.04687,-0.46875 0.07031,-0.8671875 0.07031,-1.18359375 v -4.6875 h 0.984375 v 3.3867188 c 0,0.3984375 0.03516,0.6796875 0.09375,0.8554687 0.07031,0.17578125 0.199219,0.31640625 0.363281,0.421875 0.164063,0.10546875 0.339844,0.15234375 0.515625,0.15234375 0.199219,0 0.445313,-0.0585938 0.714844,-0.17578125 0.28125,-0.12890625 0.5625,-0.328125 0.84375,-0.5976562 v -4.0429688 z m 0,0"
         style="fill:#231f20;fill-opacity:1;fill-rule:nonzero;stroke:none" />
      <path
         id="path17"
         d="m -60.117727,-4.4132656 -0.257812,0.9023437 c 0.28125,-0.328125 0.539062,-0.5742187 0.761719,-0.703125 0.222656,-0.1289062 0.457031,-0.1992187 0.679687,-0.1992187 0.234375,0 0.433594,0.09375 0.597656,0.2695312 0.164063,0.1875 0.246094,0.4335938 0.246094,0.7265625 0,0.5625 -0.234375,1.1484375 -0.691406,1.7460938 -0.480469,0.5859375 -1.019531,0.89062498 -1.640625,0.89062498 -0.128906,0 -0.246094,-0.0234375 -0.339844,-0.046875 -0.105469,-0.0351563 -0.222656,-0.0820313 -0.339844,-0.15234375 l -0.292968,1.0078125 c -0.05859,0.19921875 -0.09375,0.328125 -0.09375,0.3984375 0,0.046875 0.02344,0.10546875 0.05859,0.140625 0.02344,0.0351563 0.07031,0.0703125 0.140625,0.09375 0.07031,0.0234375 0.210938,0.0351563 0.410157,0.0351563 l -0.04687,0.140625 h -1.839844 l 0.04687,-0.140625 c 0.234375,-0.0117188 0.398437,-0.0585938 0.480469,-0.12890625 0.09375,-0.0703125 0.175781,-0.26953125 0.269531,-0.609375 l 0.984375,-3.42187498 c 0.07031,-0.2109375 0.09375,-0.3515625 0.09375,-0.3984375 0,-0.070312 -0.01172,-0.1289062 -0.05859,-0.1640625 -0.03516,-0.046875 -0.105469,-0.058594 -0.175781,-0.058594 -0.08203,0 -0.1875,0.011719 -0.328125,0.023437 v -0.1523438 z m -0.890625,3.1171875 c 0.152344,0.1992187 0.386719,0.2929687 0.65625,0.2929687 0.128907,0 0.28125,-0.035156 0.421875,-0.1054687 0.140625,-0.082031 0.28125,-0.1992188 0.410157,-0.3398438 0.140625,-0.1523437 0.257812,-0.3164062 0.375,-0.515625 0.105468,-0.1992187 0.199218,-0.421875 0.28125,-0.6914062 0.09375,-0.2578125 0.128906,-0.515625 0.128906,-0.7734375 0,-0.2109375 -0.04687,-0.3632813 -0.140625,-0.4804688 -0.09375,-0.1054687 -0.210938,-0.1640625 -0.339844,-0.1640625 -0.292969,0 -0.574219,0.1523438 -0.855469,0.4804688 -0.28125,0.328125 -0.480468,0.7148437 -0.609375,1.1367187 z m 8.472657,-2.7246094 -1.253907,4.39453125 c -0.08203,0.24609375 -0.117187,0.43359375 -0.117187,0.55078125 0,0.09375 0.03516,0.1757813 0.09375,0.2226563 0.07031,0.046875 0.222656,0.082031 0.480469,0.1054687 l -0.04687,0.140625 h -2.003907 l 0.04687,-0.140625 c 0.210938,-0.011719 0.351563,-0.023437 0.421875,-0.046875 0.117188,-0.046875 0.1875,-0.1171875 0.246094,-0.1992187 0.09375,-0.11718755 0.175781,-0.32812505 0.269531,-0.63281255 l 0.902344,-3.16406245 c 0.05859,-0.1875 0.08203,-0.2929688 0.08203,-0.328125 0.01172,-0.046875 0.02344,-0.09375 0.02344,-0.1523438 0,-0.082031 -0.02344,-0.1523437 -0.07031,-0.1992187 -0.05859,-0.058594 -0.128906,-0.082031 -0.210937,-0.082031 -0.07031,0 -0.175781,0.011719 -0.316406,0.046875 l -0.05859,-0.140625 1.324219,-0.375 z M 119.20845,26.650211 h 2.47265 l 0.375,-1.3125 c 0.082,-0.257813 0.11719,-0.457031 0.11719,-0.585938 0,-0.07031 -0.0117,-0.128906 -0.0586,-0.175781 -0.0234,-0.04687 -0.082,-0.09375 -0.14063,-0.117187 -0.0703,-0.02344 -0.19922,-0.03516 -0.39844,-0.03516 l 0.0352,-0.140625 h 2.12109 l -0.0469,0.140625 c -0.1875,0 -0.31641,0.02344 -0.39844,0.05859 -0.12891,0.05859 -0.22266,0.128906 -0.28125,0.210938 -0.082,0.128906 -0.17578,0.339843 -0.25781,0.644531 l -0.94922,3.292969 c -0.082,0.246093 -0.11719,0.421875 -0.11719,0.515625 0,0.09375 0.0352,0.152343 0.10547,0.210937 0.0703,0.04687 0.23438,0.07031 0.49219,0.09375 l -0.0352,0.140625 h -2.05078 l 0.0586,-0.140625 c 0.21094,-0.01172 0.33985,-0.02344 0.41016,-0.05859 0.10547,-0.04687 0.1875,-0.105468 0.22266,-0.175781 0.0703,-0.105469 0.15234,-0.328125 0.25781,-0.667969 l 0.46875,-1.617187 h -2.47266 l -0.49218,1.699219 c -0.0703,0.234375 -0.11719,0.410156 -0.11719,0.515625 0,0.09375 0.0352,0.152343 0.10547,0.210937 0.0703,0.04687 0.23437,0.07031 0.49218,0.09375 l -0.0352,0.140625 h -2.05078 l 0.0469,-0.140625 c 0.21094,-0.01172 0.35156,-0.02344 0.42188,-0.05859 0.10547,-0.04687 0.17578,-0.105468 0.22265,-0.175781 0.0703,-0.117187 0.15235,-0.328125 0.25782,-0.667969 l 0.91406,-3.210937 c 0.082,-0.257813 0.11719,-0.457031 0.11719,-0.585938 0,-0.07031 -0.0117,-0.128906 -0.0469,-0.175781 -0.0352,-0.04687 -0.082,-0.09375 -0.15234,-0.117187 -0.0703,-0.02344 -0.21094,-0.03516 -0.41016,-0.03516 l 0.0469,-0.140625 h 2.08593 l -0.0352,0.140625 c -0.17578,0 -0.30469,0.02344 -0.38672,0.05859 -0.12891,0.04687 -0.21094,0.117188 -0.26953,0.210938 -0.082,0.117187 -0.16407,0.328125 -0.26953,0.644531 z m 9.48339,5.208984 h -2.64843 V 31.71857 c 1.34765,-1.183593 2.22656,-2.109375 2.66015,-2.777343 0.19922,-0.304688 0.30469,-0.632813 0.30469,-0.972657 0,-0.269531 -0.082,-0.492187 -0.25781,-0.667968 -0.16407,-0.164063 -0.375,-0.246094 -0.64453,-0.246094 -0.36328,0 -0.66797,0.175781 -0.90235,0.527344 l -0.14062,-0.07031 c 0.14062,-0.339844 0.32812,-0.597656 0.58594,-0.785156 0.25781,-0.1875 0.52734,-0.28125 0.83203,-0.28125 0.32812,0 0.60937,0.117187 0.84375,0.351562 0.23437,0.222657 0.33984,0.503907 0.33984,0.832032 0,0.234375 -0.0352,0.445312 -0.11719,0.644531 -0.1289,0.304687 -0.36328,0.644531 -0.6914,1.019531 -0.51563,0.585938 -1.19532,1.242188 -2.05078,2.003906 h 1.34765 c 0.21094,0 0.38672,-0.05859 0.52734,-0.140625 0.12891,-0.09375 0.23438,-0.199218 0.29297,-0.351562 h 0.16407 z m 0,0"
         style="fill:#231f20;fill-opacity:1;fill-rule:nonzero;stroke:none" />
    </g>
    <path
       id="path18"
       d="m 2050.37,377.035 h 62.5"
       style="fill:none;stroke:#231f20;stroke-width:5;stroke-linecap:butt;stroke-linejoin:miter;stroke-miterlimit:3.86369;stroke-dasharray:none;stroke-opacity:1"
       transform="matrix(0.13333333,0,0,-0.13333333,0,90.666667)" />
    <path
       id="path19"
       d="m 2.9418438,-4.4052484 h 3.703125 l 0.5625,-1.96875 C 7.3246563,-6.7607172 7.38325,-7.0536859 7.38325,-7.2646234 c 0,-0.1054688 -0.023437,-0.1875 -0.082031,-0.2578125 C 7.242625,-7.5927484 7.1723125,-7.6513422 7.0785625,-7.6864984 6.9730938,-7.7216547 6.7855938,-7.7333734 6.4809063,-7.7333734 L 6.5395,-7.9560297 h 3.1757813 l -0.070312,0.2226563 c -0.2695313,0 -0.46875,0.023437 -0.5976563,0.082031 -0.1875,0.082031 -0.3398437,0.1875 -0.421875,0.3046875 -0.1289067,0.199219 -0.257813,0.5156252 -0.398438,0.9726565 l -1.40625,4.9335937 c -0.1289062,0.3632813 -0.1875,0.62109376 -0.1875,0.78515626 0,0.12890625 0.058594,0.22265625 0.1640625,0.29296875 0.1054688,0.0703125 0.3515625,0.12890625 0.7382813,0.15234375 L 7.477,0.00100156 H 4.4184063 l 0.082031,-0.2109375 c 0.3164063,-0.0117188 0.515625,-0.046875 0.609375,-0.09375 0.1640625,-0.0703125 0.28125,-0.15234375 0.3398438,-0.2578125 C 5.555125,-0.71384219 5.6723125,-1.0536859 5.836375,-1.5575922 l 0.6914063,-2.4375 H 2.8246563 L 2.086375,-1.4404047 c -0.1054687,0.3515625 -0.1640625,0.60937501 -0.1640625,0.78515626 0,0.12890625 0.046875,0.22265625 0.1523438,0.29296875 0.09375,0.0703125 0.3515625,0.12890625 0.7382812,0.15234375 l -0.046875,0.2109375 h -3.08203125 l 0.0820313,-0.2109375 c 0.3046875,-0.0117188 0.515625,-0.046875 0.62109375,-0.09375 0.15234375,-0.0703125 0.2578125,-0.15234375 0.328125,-0.2578125 C 0.83246875,-0.72556094 0.94965625,-1.0536859 1.102,-1.5575922 l 1.3828125,-4.8164062 c 0.1054688,-0.3984375 0.1640625,-0.6796875 0.1640625,-0.890625 0,-0.1054688 -0.023437,-0.1875 -0.070312,-0.2578125 C 2.5316875,-7.5927484 2.461375,-7.6513422 2.3559063,-7.6864984 2.2387188,-7.7216547 2.0395,-7.7333734 1.7348125,-7.7333734 l 0.082031,-0.2226563 H 4.94575 l -0.058594,0.2226563 c -0.2695313,0 -0.4570313,0.023437 -0.5859375,0.082031 -0.1875,0.070312 -0.3164063,0.1757813 -0.3984375,0.3046875 -0.1171875,0.1757813 -0.2578125,0.4921875 -0.3984375,0.9726563 z m 0,0"
       style="fill:#231f20;fill-opacity:1;fill-rule:nonzero;stroke:none"
       aria-label="H"
       transform="matrix(1.3333333,0,0,1.3333333,183.53067,40.604133)" />
    <path
       id="path20"
       d="M 295,332.5 H 1890"
       style="fill:none;stroke:#231f20;stroke-width:5;stroke-linecap:butt;stroke-linejoin:miter;stroke-miterlimit:3.86369;stroke-dasharray:none;stroke-opacity:1"
       transform="matrix(0.13333333,0,0,-0.13333333,0,90.666667)" />
    <path
       id="path21"
       d="M 295,500.188 H 1890"
       style="fill:none;stroke:#231f20;stroke-width:5;stroke-linecap:butt;stroke-linejoin:miter;stroke-miterlimit:3.86369;stroke-dasharray:none;stroke-opacity:1"
       transform="matrix(0.13333333,0,0,-0.13333333,0,90.666667)" />
    <path
       id="path22"
       d="m 1.7567031,-3.5379344 -0.2578125,0.9023438 c 0.28125,-0.328125 0.5390625,-0.5742188 0.7617188,-0.703125 0.2226562,-0.1289063 0.4570312,-0.1992188 0.6796875,-0.1992188 0.234375,0 0.4335937,0.09375 0.5976562,0.2695313 0.1640625,0.1875 0.2460938,0.4335937 0.2460938,0.7265625 0,0.5625 -0.234375,1.1484375 -0.6914063,1.74609373 -0.4804687,0.5859375 -1.0195312,0.890625 -1.640625,0.890625 -0.1289062,0 -0.2460937,-0.0234375 -0.3398437,-0.046875 C 1.0067031,0.01284688 0.88951563,-0.03402812 0.77232813,-0.10434062 l -0.29296875,1.0078125 c -0.0585938,0.19921872 -0.09375,0.32812502 -0.09375,0.39843752 0,0.046875 0.0234375,0.1054687 0.0585938,0.140625 0.0234375,0.035156 0.0703125,0.070312 0.140625,0.09375 0.0703125,0.023437 0.2109375,0.035156 0.41015625,0.035156 l -0.046875,0.140625 h -1.83984375 l 0.046875,-0.140625 c 0.234375,-0.011719 0.3984375,-0.058594 0.48046875,-0.1289062 0.09375,-0.070312 0.17578125,-0.2695313 0.26953125,-0.60937502 l 0.984375,-3.42187498 c 0.0703125,-0.2109375 0.09375,-0.3515625 0.09375,-0.3984375 0,-0.070312 -0.0117188,-0.1289063 -0.0585938,-0.1640625 -0.0351563,-0.046875 -0.10546875,-0.058594 -0.17578125,-0.058594 -0.0820313,0 -0.1875,0.011719 -0.328125,0.023437 v -0.1523437 z m -0.89062497,3.11718753 c 0.15234377,0.19921875 0.38671877,0.29296875 0.65624997,0.29296875 0.1289063,0 0.28125,-0.0351563 0.421875,-0.10546875 0.140625,-0.0820313 0.28125,-0.19921875 0.4101563,-0.33984375 0.140625,-0.15234375 0.2578125,-0.31640625 0.375,-0.51562498 0.1054687,-0.1992188 0.1992187,-0.421875 0.28125,-0.6914063 0.09375,-0.2578125 0.1289062,-0.515625 0.1289062,-0.7734375 0,-0.2109375 -0.046875,-0.3632812 -0.140625,-0.4804687 -0.09375,-0.1054688 -0.2109375,-0.1640625 -0.3398437,-0.1640625 -0.2929688,0 -0.5742188,0.1523437 -0.8554688,0.4804687 -0.28125,0.328125 -0.4804687,0.7148438 -0.609375,1.1367188 z M 8.7762344,2.2687063 H 6.1277969 V 2.1280813 C 7.4754531,0.9444875 8.3543594,0.01870625 8.7879531,-0.6492625 8.9871719,-0.95395 9.0926406,-1.282075 9.0926406,-1.6219187 c 0,-0.2695313 -0.082031,-0.4921875 -0.2578125,-0.6679688 -0.1640625,-0.1640625 -0.375,-0.2460937 -0.6445312,-0.2460937 -0.3632813,0 -0.6679688,0.1757812 -0.9023438,0.5273437 L 7.1473281,-2.07895 c 0.140625,-0.3398437 0.328125,-0.5976562 0.5859375,-0.7851562 0.2578125,-0.1875 0.5273438,-0.28125 0.8320313,-0.28125 0.328125,0 0.609375,0.1171875 0.84375,0.3515625 0.234375,0.2226562 0.3398437,0.5039062 0.3398437,0.8320312 0,0.234375 -0.035156,0.4453125 -0.1171875,0.6445313 C 9.5027969,-1.0125437 9.2684219,-0.6727 8.9402969,-0.2977 8.4246719,0.2882375 7.7449844,0.9444875 6.8895156,1.7062063 h 1.3476563 c 0.2109375,0 0.3867187,-0.058594 0.5273437,-0.140625 0.1289063,-0.09375 0.234375,-0.1992188 0.2929688,-0.3515625 h 0.1640625 z m 0,0"
       style="fill:#231f20;fill-opacity:1;fill-rule:nonzero;stroke:none"
       aria-label="p&#10;2"
       transform="matrix(1.3333333,0,0,1.3333333,246.11867,14.396933)" />
    <path
       id="path23"
       d="M 619.652,425.121 C 639.156,510.785 719.68,575 816.25,575 c 5.523,0 10.992,-0.211 16.402,-0.621"
       style="fill:none;stroke:#231f20;stroke-width:2.5;stroke-linecap:butt;stroke-linejoin:miter;stroke-miterlimit:3.86369;stroke-dasharray:none;stroke-opacity:1"
       transform="matrix(0.13333333,0,0,-0.13333333,0,90.666667)" />
  </g>
</svg>
