<?xml version="1.0" encoding="UTF-8" standalone="no"?>
<!-- Created with Inkscape (http://www.inkscape.org/) -->

<svg
   version="1.1"
   id="svg1"
   width="237.33333"
   height="94.666664"
   viewBox="0 0 237.33333 94.666664"
   sodipodi:docname="bar1w_1.eps"
   xmlns:inkscape="http://www.inkscape.org/namespaces/inkscape"
   xmlns:sodipodi="http://sodipodi.sourceforge.net/DTD/sodipodi-0.dtd"
   xmlns="http://www.w3.org/2000/svg"
   xmlns:svg="http://www.w3.org/2000/svg">
  <defs
     id="defs1">
    <clipPath
       clipPathUnits="userSpaceOnUse"
       id="clipPath2">
      <path
         d="M 0,701 H 1780 V 0 H 0 Z"
         id="path2" />
    </clipPath>
    <clipPath
       clipPathUnits="userSpaceOnUse"
       id="clipPath4">
      <path
         d="M 0,701 H 1780 V 0 H 0 Z"
         id="path4" />
    </clipPath>
    <clipPath
       clipPathUnits="userSpaceOnUse"
       id="clipPath5">
      <path
         d="M 0,701 H 1780 V 0 H 0 Z"
         transform="matrix(0.1,0,0,-0.1,-34.450801,1.1875003)"
         id="path5" />
    </clipPath>
    <clipPath
       clipPathUnits="userSpaceOnUse"
       id="clipPath7">
      <path
         d="M 0,701 H 1780 V 0 H 0 Z"
         id="path7" />
    </clipPath>
    <clipPath
       clipPathUnits="userSpaceOnUse"
       id="clipPath14">
      <path
         d="M 0,701 H 1780 V 0 H 0 Z"
         transform="matrix(0.1,0,0,-0.1,-22.506301,23.518401)"
         id="path14" />
    </clipPath>
    <clipPath
       clipPathUnits="userSpaceOnUse"
       id="clipPath16">
      <path
         d="M 0,701 H 1780 V 0 H 0 Z"
         id="path16" />
    </clipPath>
    <clipPath
       clipPathUnits="userSpaceOnUse"
       id="clipPath18">
      <path
         d="M 0,701 H 1780 V 0 H 0 Z"
         id="path18" />
    </clipPath>
    <clipPath
       clipPathUnits="userSpaceOnUse"
       id="clipPath20">
      <path
         d="M 0,701 H 1780 V 0 H 0 Z"
         id="path20" />
    </clipPath>
    <clipPath
       clipPathUnits="userSpaceOnUse"
       id="clipPath22">
      <path
         d="M 0,701 H 1780 V 0 H 0 Z"
         id="path22" />
    </clipPath>
    <clipPath
       clipPathUnits="userSpaceOnUse"
       id="clipPath25">
      <path
         d="M 0,701 H 1780 V 0 H 0 Z"
         transform="matrix(0.1,0,0,-0.1,-34.018001,54.634801)"
         id="path25" />
    </clipPath>
    <clipPath
       clipPathUnits="userSpaceOnUse"
       id="clipPath27">
      <path
         d="M 0,701 H 1780 V 0 H 0 Z"
         id="path27" />
    </clipPath>
    <clipPath
       clipPathUnits="userSpaceOnUse"
       id="clipPath28">
      <path
         d="M 0,701 H 1780 V 0 H 0 Z"
         transform="matrix(0.1,0,0,-0.1,-88.4605,63.506302)"
         id="path28" />
    </clipPath>
    <clipPath
       clipPathUnits="userSpaceOnUse"
       id="clipPath30">
      <path
         d="M 0,701 H 1780 V 0 H 0 Z"
         id="path30" />
    </clipPath>
    <clipPath
       clipPathUnits="userSpaceOnUse"
       id="clipPath32">
      <path
         d="M 0,701 H 1780 V 0 H 0 Z"
         id="path32" />
    </clipPath>
    <clipPath
       clipPathUnits="userSpaceOnUse"
       id="clipPath34">
      <path
         d="M 0,701 H 1780 V 0 H 0 Z"
         id="path34" />
    </clipPath>
    <clipPath
       clipPathUnits="userSpaceOnUse"
       id="clipPath36">
      <path
         d="M 0,701 H 1780 V 0 H 0 Z"
         id="path36" />
    </clipPath>
    <clipPath
       clipPathUnits="userSpaceOnUse"
       id="clipPath37">
      <path
         d="M 0,701 H 1780 V 0 H 0 Z"
         transform="matrix(0.1,0,0,-0.1,-42.083201,27.159)"
         id="path37" />
    </clipPath>
    <clipPath
       clipPathUnits="userSpaceOnUse"
       id="clipPath39">
      <path
         d="M 0,701 H 1780 V 0 H 0 Z"
         id="path39" />
    </clipPath>
    <clipPath
       clipPathUnits="userSpaceOnUse"
       id="clipPath41">
      <path
         d="M 0,701 H 1780 V 0 H 0 Z"
         id="path41" />
    </clipPath>
    <clipPath
       clipPathUnits="userSpaceOnUse"
       id="clipPath43">
      <path
         d="M 0,701 H 1780 V 0 H 0 Z"
         id="path43" />
    </clipPath>
    <clipPath
       clipPathUnits="userSpaceOnUse"
       id="clipPath45">
      <path
         d="M 0,701 H 1780 V 0 H 0 Z"
         id="path45" />
    </clipPath>
    <clipPath
       clipPathUnits="userSpaceOnUse"
       id="clipPath47">
      <path
         d="M 0,701 H 1780 V 0 H 0 Z"
         id="path47" />
    </clipPath>
    <clipPath
       clipPathUnits="userSpaceOnUse"
       id="clipPath49">
      <path
         d="M 0,701 H 1780 V 0 H 0 Z"
         id="path49" />
    </clipPath>
    <clipPath
       clipPathUnits="userSpaceOnUse"
       id="clipPath51">
      <path
         d="M 0,701 H 1780 V 0 H 0 Z"
         id="path51" />
    </clipPath>
    <clipPath
       clipPathUnits="userSpaceOnUse"
       id="clipPath53">
      <path
         d="M 0,701 H 1780 V 0 H 0 Z"
         id="path53" />
    </clipPath>
    <clipPath
       clipPathUnits="userSpaceOnUse"
       id="clipPath55">
      <path
         d="M 0,701 H 1780 V 0 H 0 Z"
         id="path55" />
    </clipPath>
    <clipPath
       clipPathUnits="userSpaceOnUse"
       id="clipPath57">
      <path
         d="M 0,701 H 1780 V 0 H 0 Z"
         id="path57" />
    </clipPath>
    <clipPath
       clipPathUnits="userSpaceOnUse"
       id="clipPath59">
      <path
         d="M 0,701 H 1780 V 0 H 0 Z"
         id="path59" />
    </clipPath>
    <clipPath
       clipPathUnits="userSpaceOnUse"
       id="clipPath61">
      <path
         d="M 0,701 H 1780 V 0 H 0 Z"
         id="path61" />
    </clipPath>
    <clipPath
       clipPathUnits="userSpaceOnUse"
       id="clipPath63">
      <path
         d="M 0,701 H 1780 V 0 H 0 Z"
         id="path63" />
    </clipPath>
    <clipPath
       clipPathUnits="userSpaceOnUse"
       id="clipPath65">
      <path
         d="M 0,701 H 1780 V 0 H 0 Z"
         id="path65" />
    </clipPath>
    <clipPath
       clipPathUnits="userSpaceOnUse"
       id="clipPath67">
      <path
         d="M 0,701 H 1780 V 0 H 0 Z"
         id="path67" />
    </clipPath>
    <clipPath
       clipPathUnits="userSpaceOnUse"
       id="clipPath69">
      <path
         d="M 0,701 H 1780 V 0 H 0 Z"
         id="path69" />
    </clipPath>
    <clipPath
       clipPathUnits="userSpaceOnUse"
       id="clipPath71">
      <path
         d="M 0,701 H 1780 V 0 H 0 Z"
         id="path71" />
    </clipPath>
    <clipPath
       clipPathUnits="userSpaceOnUse"
       id="clipPath73">
      <path
         d="M 0,701 H 1780 V 0 H 0 Z"
         id="path73" />
    </clipPath>
    <clipPath
       clipPathUnits="userSpaceOnUse"
       id="clipPath75">
      <path
         d="M 0,701 H 1780 V 0 H 0 Z"
         id="path75" />
    </clipPath>
    <clipPath
       clipPathUnits="userSpaceOnUse"
       id="clipPath77">
      <path
         d="M 0,701 H 1780 V 0 H 0 Z"
         id="path77" />
    </clipPath>
    <clipPath
       clipPathUnits="userSpaceOnUse"
       id="clipPath79">
      <path
         d="M 0,701 H 1780 V 0 H 0 Z"
         id="path79" />
    </clipPath>
    <clipPath
       clipPathUnits="userSpaceOnUse"
       id="clipPath81">
      <path
         d="M 0,701 H 1780 V 0 H 0 Z"
         id="path81" />
    </clipPath>
    <clipPath
       clipPathUnits="userSpaceOnUse"
       id="clipPath83">
      <path
         d="M 0,701 H 1780 V 0 H 0 Z"
         id="path83" />
    </clipPath>
    <clipPath
       clipPathUnits="userSpaceOnUse"
       id="clipPath85">
      <path
         d="M 0,701 H 1780 V 0 H 0 Z"
         id="path85" />
    </clipPath>
    <clipPath
       clipPathUnits="userSpaceOnUse"
       id="clipPath87">
      <path
         d="M 0,701 H 1780 V 0 H 0 Z"
         id="path87" />
    </clipPath>
    <clipPath
       clipPathUnits="userSpaceOnUse"
       id="clipPath89">
      <path
         d="M 0,701 H 1780 V 0 H 0 Z"
         id="path89" />
    </clipPath>
    <clipPath
       clipPathUnits="userSpaceOnUse"
       id="clipPath91">
      <path
         d="M 0,701 H 1780 V 0 H 0 Z"
         id="path91" />
    </clipPath>
    <clipPath
       clipPathUnits="userSpaceOnUse"
       id="clipPath93">
      <path
         d="M 0,701 H 1780 V 0 H 0 Z"
         id="path93" />
    </clipPath>
    <clipPath
       clipPathUnits="userSpaceOnUse"
       id="clipPath95">
      <path
         d="M 0,701 H 1780 V 0 H 0 Z"
         id="path95" />
    </clipPath>
    <clipPath
       clipPathUnits="userSpaceOnUse"
       id="clipPath97">
      <path
         d="M 0,701 H 1780 V 0 H 0 Z"
         id="path97" />
    </clipPath>
    <clipPath
       clipPathUnits="userSpaceOnUse"
       id="clipPath99">
      <path
         d="M 0,701 H 1780 V 0 H 0 Z"
         id="path99" />
    </clipPath>
    <clipPath
       clipPathUnits="userSpaceOnUse"
       id="clipPath101">
      <path
         d="M 0,701 H 1780 V 0 H 0 Z"
         id="path101" />
    </clipPath>
    <clipPath
       clipPathUnits="userSpaceOnUse"
       id="clipPath103">
      <path
         d="M 0,701 H 1780 V 0 H 0 Z"
         id="path103" />
    </clipPath>
    <clipPath
       clipPathUnits="userSpaceOnUse"
       id="clipPath105">
      <path
         d="M 0,701 H 1780 V 0 H 0 Z"
         id="path105" />
    </clipPath>
    <clipPath
       clipPathUnits="userSpaceOnUse"
       id="clipPath106">
      <path
         d="M 0,701 H 1780 V 0 H 0 Z"
         transform="matrix(0.1,0,0,-0.1,-133.383,62.852302)"
         id="path106" />
    </clipPath>
    <clipPath
       clipPathUnits="userSpaceOnUse"
       id="clipPath108">
      <path
         d="M 0,701 H 1780 V 0 H 0 Z"
         id="path108" />
    </clipPath>
  </defs>
  <sodipodi:namedview
     id="namedview1"
     pagecolor="#ffffff"
     bordercolor="#000000"
     borderopacity="0.25"
     inkscape:showpageshadow="2"
     inkscape:pageopacity="0.0"
     inkscape:pagecheckerboard="0"
     inkscape:deskcolor="#d1d1d1">
    <inkscape:page
       x="0"
       y="0"
       inkscape:label="1"
       id="page1"
       width="237.33333"
       height="94.666664"
       margin="0"
       bleed="0" />
  </sodipodi:namedview>
  <g
     id="g1"
     inkscape:groupmode="layer"
     inkscape:label="1">
    <path
       id="path1"
       d="M 0.0390625,92.8086 H 283.48"
       style="fill:none;stroke:#000000;stroke-width:7.9937;stroke-linecap:butt;stroke-linejoin:miter;stroke-miterlimit:4;stroke-dasharray:none;stroke-opacity:1"
       transform="matrix(0.13333333,0,0,-0.13333333,0,94.666667)"
       clip-path="url(#clipPath2)" />
    <path
       id="path3"
       d="M 241.68,112.148 294.059,92.8906 241.68,73.6016 c 8.359,11.3984 8.32,26.9494 0,38.5464 z"
       style="fill:#000000;fill-opacity:1;fill-rule:evenodd;stroke:none"
       transform="matrix(0.13333333,0,0,-0.13333333,0,94.666667)"
       clip-path="url(#clipPath4)" />
    <text
       id="text4"
       xml:space="preserve"
       transform="matrix(1.3333333,0,0,1.3333333,45.9344,93.083333)"
       clip-path="url(#clipPath5)"><tspan
         id="tspan4"
         style="font-style:italic;font-variant:normal;font-weight:normal;font-size:16px;font-family:'Times New Roman';writing-mode:lr-tb;fill:#000000;fill-opacity:1;fill-rule:nonzero;stroke:none"
         x="0"
         y="0">x</tspan></text>
    <path
       id="path6"
       d="m 226.801,376.25 h 1360.63 v 56.7188 H 226.801 Z"
       style="fill:none;stroke:#000000;stroke-width:7.9937;stroke-linecap:butt;stroke-linejoin:miter;stroke-miterlimit:4;stroke-dasharray:none;stroke-opacity:1"
       transform="matrix(0.13333333,0,0,-0.13333333,0,94.666667)"
       clip-path="url(#clipPath7)" />
    <text
       id="text7"
       xml:space="preserve"
       transform="matrix(1.3333333,0,0,1.3333333,30.0084,63.3088)"
       clip-path="url(#clipPath14)"><tspan
         id="tspan7"
         style="font-variant:normal;font-weight:normal;font-size:9.6px;font-family:'Times New Roman';writing-mode:lr-tb;fill:#000000;fill-opacity:1;fill-rule:nonzero;stroke:none"
         x="0"
         y="0">(</tspan><tspan
         id="tspan8"
         style="font-style:italic;font-variant:normal;font-weight:normal;font-size:9.6px;font-family:'Times New Roman';writing-mode:lr-tb;fill:#000000;fill-opacity:1;fill-rule:nonzero;stroke:none"
         x="3.20625"
         y="0">x</tspan><tspan
         id="tspan9"
         style="font-style:italic;font-variant:normal;font-weight:normal;font-size:6.24009px;font-family:'Times New Roman';writing-mode:lr-tb;fill:#000000;fill-opacity:1;fill-rule:nonzero;stroke:none"
         x="7.4625001"
         y="1.91992">1</tspan><tspan
         id="tspan10"
         style="font-variant:normal;font-weight:normal;font-size:9.6px;font-family:'Times New Roman';writing-mode:lr-tb;fill:#000000;fill-opacity:1;fill-rule:nonzero;stroke:none"
         x="10.58242"
         y="0">)</tspan><tspan
         id="tspan11"
         style="font-variant:normal;font-weight:normal;font-size:9.6px;font-family:'Times New Roman';writing-mode:lr-tb;fill:#000000;fill-opacity:1;fill-rule:nonzero;stroke:none"
         x="131.38942"
         y="-3.11602">(</tspan><tspan
         id="tspan12"
         style="font-style:italic;font-variant:normal;font-weight:normal;font-size:9.6px;font-family:'Times New Roman';writing-mode:lr-tb;fill:#000000;fill-opacity:1;fill-rule:nonzero;stroke:none"
         x="134.59567"
         y="-3.11602">x</tspan><tspan
         id="tspan13"
         style="font-style:italic;font-variant:normal;font-weight:normal;font-size:6.24009px;font-family:'Times New Roman';writing-mode:lr-tb;fill:#000000;fill-opacity:1;fill-rule:nonzero;stroke:none"
         x="138.85191"
         y="-1.1961">2</tspan><tspan
         id="tspan14"
         style="font-variant:normal;font-weight:normal;font-size:9.6px;font-family:'Times New Roman';writing-mode:lr-tb;fill:#000000;fill-opacity:1;fill-rule:nonzero;stroke:none"
         x="141.97185"
         y="-3.11602">)</tspan></text>
    <path
       id="path15"
       d="M 225.078,489.648 H 396.879"
       style="fill:none;stroke:#000000;stroke-width:7.9937;stroke-linecap:butt;stroke-linejoin:miter;stroke-miterlimit:4;stroke-dasharray:none;stroke-opacity:1"
       transform="matrix(0.13333333,0,0,-0.13333333,0,94.666667)"
       clip-path="url(#clipPath16)" />
    <path
       id="path17"
       d="m 355.039,508.988 52.422,-19.258 -52.422,-19.261 c 8.402,11.371 8.359,26.91 0,38.519 z"
       style="fill:#000000;fill-opacity:1;fill-rule:evenodd;stroke:none"
       transform="matrix(0.13333333,0,0,-0.13333333,0,94.666667)"
       clip-path="url(#clipPath18)" />
    <path
       id="path19"
       d="m 1585.7,489.648 h 171.8"
       style="fill:none;stroke:#000000;stroke-width:7.9937;stroke-linecap:butt;stroke-linejoin:miter;stroke-miterlimit:4;stroke-dasharray:none;stroke-opacity:1"
       transform="matrix(0.13333333,0,0,-0.13333333,0,94.666667)"
       clip-path="url(#clipPath20)" />
    <path
       id="path21"
       d="m 1715.7,508.988 52.39,-19.258 -52.39,-19.261 c 8.36,11.371 8.32,26.91 0,38.519 z"
       style="fill:#000000;fill-opacity:1;fill-rule:evenodd;stroke:none"
       transform="matrix(0.13333333,0,0,-0.13333333,0,94.666667)"
       clip-path="url(#clipPath22)" />
    <text
       id="text22"
       xml:space="preserve"
       transform="matrix(1.3333333,0,0,1.3333333,45.357333,21.820267)"
       clip-path="url(#clipPath25)"><tspan
         id="tspan22"
         style="font-style:italic;font-variant:normal;font-weight:normal;font-size:9.6px;font-family:'Times New Roman';writing-mode:lr-tb;fill:#000000;fill-opacity:1;fill-rule:nonzero;stroke:none"
         x="0"
         y="0">u</tspan><tspan
         id="tspan23"
         style="font-style:italic;font-variant:normal;font-weight:normal;font-size:6.24009px;font-family:'Times New Roman';writing-mode:lr-tb;fill:#000000;fill-opacity:1;fill-rule:nonzero;stroke:none"
         x="4.8000002"
         y="1.91992">1</tspan><tspan
         id="tspan24"
         style="font-style:italic;font-variant:normal;font-weight:normal;font-size:9.6px;font-family:'Times New Roman';writing-mode:lr-tb;fill:#000000;fill-opacity:1;fill-rule:nonzero;stroke:none"
         x="136.063"
         y="0">u</tspan><tspan
         id="tspan25"
         style="font-style:italic;font-variant:normal;font-weight:normal;font-size:6.24009px;font-family:'Times New Roman';writing-mode:lr-tb;fill:#000000;fill-opacity:1;fill-rule:nonzero;stroke:none"
         x="140.86301"
         y="1.91992">2</tspan></text>
    <path
       id="path26"
       d="M 744.379,406.559 910.59,614.301"
       style="fill:none;stroke:#000000;stroke-width:2.83465;stroke-linecap:butt;stroke-linejoin:miter;stroke-miterlimit:4;stroke-dasharray:none;stroke-opacity:1"
       transform="matrix(0.13333333,0,0,-0.13333333,0,94.666667)"
       clip-path="url(#clipPath27)" />
    <text
       id="text27"
       xml:space="preserve"
       transform="matrix(1.3333333,0,0,1.3333333,117.94733,9.9916)"
       clip-path="url(#clipPath28)"><tspan
         id="tspan27"
         style="font-style:italic;font-variant:normal;font-weight:normal;font-size:9.6px;font-family:'Times New Roman';writing-mode:lr-tb;fill:#000000;fill-opacity:1;fill-rule:nonzero;stroke:none"
         x="0"
         y="0">EA</tspan></text>
    <path
       id="path29"
       d="M 344.488,614.301 H 375.66"
       style="fill:none;stroke:#000000;stroke-width:2.83465;stroke-linecap:butt;stroke-linejoin:miter;stroke-miterlimit:4;stroke-dasharray:none;stroke-opacity:1"
       transform="matrix(0.13333333,0,0,-0.13333333,0,94.666667)"
       clip-path="url(#clipPath30)" />
    <path
       id="path31"
       d="m 1699.96,609.102 h 41.52"
       style="fill:none;stroke:#000000;stroke-width:2.83465;stroke-linecap:butt;stroke-linejoin:miter;stroke-miterlimit:4;stroke-dasharray:none;stroke-opacity:1"
       transform="matrix(0.13333333,0,0,-0.13333333,0,94.666667)"
       clip-path="url(#clipPath32)" />
    <path
       id="path33"
       d="M 218.398,342.27 H 390.23"
       style="fill:none;stroke:#000000;stroke-width:7.9937;stroke-linecap:butt;stroke-linejoin:miter;stroke-miterlimit:4;stroke-dasharray:none;stroke-opacity:1"
       transform="matrix(0.13333333,0,0,-0.13333333,0,94.666667)"
       clip-path="url(#clipPath34)" />
    <path
       id="path35"
       d="M 348.398,361.641 400.82,342.352 348.398,323.09 c 8.364,11.359 8.321,26.949 0,38.551 z"
       style="fill:#000000;fill-opacity:1;fill-rule:evenodd;stroke:none"
       transform="matrix(0.13333333,0,0,-0.13333333,0,94.666667)"
       clip-path="url(#clipPath36)" />
    <text
       id="text36"
       xml:space="preserve"
       transform="matrix(1.3333333,0,0,1.3333333,56.110933,58.454667)"
       clip-path="url(#clipPath37)"><tspan
         id="tspan36"
         style="font-style:italic;font-variant:normal;font-weight:normal;font-size:16px;font-family:'Times New Roman';writing-mode:lr-tb;fill:#000000;fill-opacity:1;fill-rule:nonzero;stroke:none"
         x="0"
         y="0">x</tspan></text>
    <path
       id="path38"
       d="m 427.621,354.609 h 67.5"
       style="fill:none;stroke:#000000;stroke-width:2.83465;stroke-linecap:butt;stroke-linejoin:miter;stroke-miterlimit:4;stroke-dasharray:none;stroke-opacity:1"
       transform="matrix(0.13333333,0,0,-0.13333333,0,94.666667)"
       clip-path="url(#clipPath39)" />
    <path
       id="path40"
       d="m 258.828,403.949 33.75,2.61 10.391,15.589 10.39,-31.168 20.743,31.168 10.386,-31.168 18.211,31.168 7.77,-18.199 h 44.14"
       style="fill:none;stroke:#000000;stroke-width:2.83465;stroke-linecap:butt;stroke-linejoin:miter;stroke-miterlimit:4;stroke-dasharray:none;stroke-opacity:1"
       transform="matrix(0.13333333,0,0,-0.13333333,0,94.666667)"
       clip-path="url(#clipPath41)" />
    <path
       id="path42"
       d="M 258.828,422.148 261.41,390.98"
       style="fill:none;stroke:#000000;stroke-width:2.83465;stroke-linecap:butt;stroke-linejoin:miter;stroke-miterlimit:4;stroke-dasharray:none;stroke-opacity:1"
       transform="matrix(0.13333333,0,0,-0.13333333,0,94.666667)"
       clip-path="url(#clipPath43)" />
    <path
       id="path44"
       d="m 238.051,422.148 18.16,-7.808 z"
       style="fill:none;stroke:#000000;stroke-width:2.83465;stroke-linecap:butt;stroke-linejoin:miter;stroke-miterlimit:4;stroke-dasharray:none;stroke-opacity:1"
       transform="matrix(0.13333333,0,0,-0.13333333,0,94.666667)"
       clip-path="url(#clipPath45)" />
    <path
       id="path46"
       d="m 238.051,409.141 18.16,-7.77"
       style="fill:none;stroke:#000000;stroke-width:2.83465;stroke-linecap:butt;stroke-linejoin:miter;stroke-miterlimit:4;stroke-dasharray:none;stroke-opacity:1"
       transform="matrix(0.13333333,0,0,-0.13333333,0,94.666667)"
       clip-path="url(#clipPath47)" />
    <path
       id="path48"
       d="m 238.051,398.789 18.16,-7.809"
       style="fill:none;stroke:#000000;stroke-width:2.83465;stroke-linecap:butt;stroke-linejoin:miter;stroke-miterlimit:4;stroke-dasharray:none;stroke-opacity:1"
       transform="matrix(0.13333333,0,0,-0.13333333,0,94.666667)"
       clip-path="url(#clipPath49)" />
    <path
       id="path50"
       d="m 419.801,405.281 c 0,-5.043 -2.891,-9.109 -6.481,-9.109 -3.59,0 -6.48,4.066 -6.48,9.109 0,5 2.89,9.059 6.48,9.059 3.59,0 6.481,-4.059 6.481,-9.059 z"
       style="fill:#000000;fill-opacity:1;fill-rule:nonzero;stroke:none"
       transform="matrix(0.13333333,0,0,-0.13333333,0,94.666667)"
       clip-path="url(#clipPath51)" />
    <path
       id="path52"
       d="m 419.801,405.281 c 0,-5.043 -2.891,-9.113 -6.481,-9.113 -3.59,0 -6.48,4.07 -6.48,9.113 0,5 2.89,9.059 6.48,9.059 3.59,0 6.481,-4.059 6.481,-9.059 z"
       style="fill:none;stroke:#000000;stroke-width:2.83465;stroke-linecap:butt;stroke-linejoin:miter;stroke-miterlimit:4;stroke-dasharray:none;stroke-opacity:1"
       transform="matrix(0.13333333,0,0,-0.13333333,0,94.666667)"
       clip-path="url(#clipPath53)" />
    <path
       id="path54"
       d="m 819.691,401.371 33.75,2.578 10.387,15.582 10.391,-31.133 20.781,31.133 10.391,-31.133 18.16,31.133 7.777,-18.16 h 44.141"
       style="fill:none;stroke:#000000;stroke-width:2.83465;stroke-linecap:butt;stroke-linejoin:miter;stroke-miterlimit:4;stroke-dasharray:none;stroke-opacity:1"
       transform="matrix(0.13333333,0,0,-0.13333333,0,94.666667)"
       clip-path="url(#clipPath55)" />
    <path
       id="path56"
       d="m 819.691,419.531 2.61,-31.133"
       style="fill:none;stroke:#000000;stroke-width:2.83465;stroke-linecap:butt;stroke-linejoin:miter;stroke-miterlimit:4;stroke-dasharray:none;stroke-opacity:1"
       transform="matrix(0.13333333,0,0,-0.13333333,0,94.666667)"
       clip-path="url(#clipPath57)" />
    <path
       id="path58"
       d="m 798.91,419.531 18.199,-7.769 z"
       style="fill:none;stroke:#000000;stroke-width:2.83465;stroke-linecap:butt;stroke-linejoin:miter;stroke-miterlimit:4;stroke-dasharray:none;stroke-opacity:1"
       transform="matrix(0.13333333,0,0,-0.13333333,0,94.666667)"
       clip-path="url(#clipPath59)" />
    <path
       id="path60"
       d="m 798.91,406.559 18.199,-7.77"
       style="fill:none;stroke:#000000;stroke-width:2.83465;stroke-linecap:butt;stroke-linejoin:miter;stroke-miterlimit:4;stroke-dasharray:none;stroke-opacity:1"
       transform="matrix(0.13333333,0,0,-0.13333333,0,94.666667)"
       clip-path="url(#clipPath61)" />
    <path
       id="path62"
       d="m 798.91,396.168 18.199,-7.77"
       style="fill:none;stroke:#000000;stroke-width:2.83465;stroke-linecap:butt;stroke-linejoin:miter;stroke-miterlimit:4;stroke-dasharray:none;stroke-opacity:1"
       transform="matrix(0.13333333,0,0,-0.13333333,0,94.666667)"
       clip-path="url(#clipPath63)" />
    <path
       id="path64"
       d="m 980.66,402.66 c 0,-5 -2.89,-9.058 -6.48,-9.058 -3.59,0 -6.481,4.058 -6.481,9.058 0,5.039 2.891,9.102 6.481,9.102 3.59,0 6.48,-4.063 6.48,-9.102 z"
       style="fill:#000000;fill-opacity:1;fill-rule:nonzero;stroke:#000000;stroke-width:2.83465;stroke-linecap:butt;stroke-linejoin:miter;stroke-miterlimit:4;stroke-dasharray:none;stroke-opacity:1"
       transform="matrix(0.13333333,0,0,-0.13333333,0,94.666667)"
       clip-path="url(#clipPath65)" />
    <path
       id="path66"
       d="m 1396.13,401.371 33.75,2.578 10.39,15.582 10.39,-31.133 20.79,31.133 10.39,-31.133 18.16,31.133 7.81,-18.16 h 44.14"
       style="fill:none;stroke:#000000;stroke-width:2.83465;stroke-linecap:butt;stroke-linejoin:miter;stroke-miterlimit:4;stroke-dasharray:none;stroke-opacity:1"
       transform="matrix(0.13333333,0,0,-0.13333333,0,94.666667)"
       clip-path="url(#clipPath67)" />
    <path
       id="path68"
       d="m 1396.13,419.531 2.62,-31.133"
       style="fill:none;stroke:#000000;stroke-width:2.83465;stroke-linecap:butt;stroke-linejoin:miter;stroke-miterlimit:4;stroke-dasharray:none;stroke-opacity:1"
       transform="matrix(0.13333333,0,0,-0.13333333,0,94.666667)"
       clip-path="url(#clipPath69)" />
    <path
       id="path70"
       d="m 1375.35,419.531 18.2,-7.769 z"
       style="fill:none;stroke:#000000;stroke-width:2.83465;stroke-linecap:butt;stroke-linejoin:miter;stroke-miterlimit:4;stroke-dasharray:none;stroke-opacity:1"
       transform="matrix(0.13333333,0,0,-0.13333333,0,94.666667)"
       clip-path="url(#clipPath71)" />
    <path
       id="path72"
       d="m 1375.35,406.559 18.2,-7.77"
       style="fill:none;stroke:#000000;stroke-width:2.83465;stroke-linecap:butt;stroke-linejoin:miter;stroke-miterlimit:4;stroke-dasharray:none;stroke-opacity:1"
       transform="matrix(0.13333333,0,0,-0.13333333,0,94.666667)"
       clip-path="url(#clipPath73)" />
    <path
       id="path74"
       d="m 1375.35,396.168 18.2,-7.77"
       style="fill:none;stroke:#000000;stroke-width:2.83465;stroke-linecap:butt;stroke-linejoin:miter;stroke-miterlimit:4;stroke-dasharray:none;stroke-opacity:1"
       transform="matrix(0.13333333,0,0,-0.13333333,0,94.666667)"
       clip-path="url(#clipPath75)" />
    <path
       id="path76"
       d="m 1557.15,402.66 c 0,-5 -2.93,-9.058 -6.52,-9.058 -3.56,0 -6.49,4.058 -6.49,9.058 0,5.039 2.93,9.102 6.49,9.102 3.59,0 6.52,-4.063 6.52,-9.102 z"
       style="fill:#000000;fill-opacity:1;fill-rule:nonzero;stroke:#000000;stroke-width:2.83465;stroke-linecap:butt;stroke-linejoin:miter;stroke-miterlimit:4;stroke-dasharray:none;stroke-opacity:1"
       transform="matrix(0.13333333,0,0,-0.13333333,0,94.666667)"
       clip-path="url(#clipPath77)" />
    <path
       id="path78"
       d="m 1128.67,403.949 33.79,2.61 10.35,15.589 10.39,-31.168 20.78,31.168 10.4,-31.168 18.16,31.168 7.81,-18.199 h 44.14"
       style="fill:none;stroke:#000000;stroke-width:2.83465;stroke-linecap:butt;stroke-linejoin:miter;stroke-miterlimit:4;stroke-dasharray:none;stroke-opacity:1"
       transform="matrix(0.13333333,0,0,-0.13333333,0,94.666667)"
       clip-path="url(#clipPath79)" />
    <path
       id="path80"
       d="m 1128.67,422.148 2.62,-31.168"
       style="fill:none;stroke:#000000;stroke-width:2.83465;stroke-linecap:butt;stroke-linejoin:miter;stroke-miterlimit:4;stroke-dasharray:none;stroke-opacity:1"
       transform="matrix(0.13333333,0,0,-0.13333333,0,94.666667)"
       clip-path="url(#clipPath81)" />
    <path
       id="path82"
       d="m 1107.93,422.148 18.16,-7.808 z"
       style="fill:none;stroke:#000000;stroke-width:2.83465;stroke-linecap:butt;stroke-linejoin:miter;stroke-miterlimit:4;stroke-dasharray:none;stroke-opacity:1"
       transform="matrix(0.13333333,0,0,-0.13333333,0,94.666667)"
       clip-path="url(#clipPath83)" />
    <path
       id="path84"
       d="m 1107.93,409.141 18.16,-7.77"
       style="fill:none;stroke:#000000;stroke-width:2.83465;stroke-linecap:butt;stroke-linejoin:miter;stroke-miterlimit:4;stroke-dasharray:none;stroke-opacity:1"
       transform="matrix(0.13333333,0,0,-0.13333333,0,94.666667)"
       clip-path="url(#clipPath85)" />
    <path
       id="path86"
       d="m 1107.93,398.789 18.16,-7.809"
       style="fill:none;stroke:#000000;stroke-width:2.83465;stroke-linecap:butt;stroke-linejoin:miter;stroke-miterlimit:4;stroke-dasharray:none;stroke-opacity:1"
       transform="matrix(0.13333333,0,0,-0.13333333,0,94.666667)"
       clip-path="url(#clipPath87)" />
    <path
       id="path88"
       d="m 1289.69,405.281 c 0,-5.043 -2.93,-9.109 -6.49,-9.109 -3.59,0 -6.52,4.066 -6.52,9.109 0,5 2.93,9.059 6.52,9.059 3.56,0 6.49,-4.059 6.49,-9.059 z"
       style="fill:#000000;fill-opacity:1;fill-rule:nonzero;stroke:none"
       transform="matrix(0.13333333,0,0,-0.13333333,0,94.666667)"
       clip-path="url(#clipPath89)" />
    <path
       id="path90"
       d="m 1289.69,405.281 c 0,-5.043 -2.93,-9.113 -6.49,-9.113 -3.59,0 -6.52,4.07 -6.52,9.113 0,5 2.93,9.059 6.52,9.059 3.56,0 6.49,-4.059 6.49,-9.059 z"
       style="fill:none;stroke:#000000;stroke-width:2.83465;stroke-linecap:butt;stroke-linejoin:miter;stroke-miterlimit:4;stroke-dasharray:none;stroke-opacity:1"
       transform="matrix(0.13333333,0,0,-0.13333333,0,94.666667)"
       clip-path="url(#clipPath91)" />
    <path
       id="path92"
       d="m 531.449,401.371 33.781,2.578 10.399,15.582 10.351,-31.133 20.782,31.133 10.386,-31.133 18.161,31.133 7.82,-18.16 h 44.141"
       style="fill:none;stroke:#000000;stroke-width:2.83465;stroke-linecap:butt;stroke-linejoin:miter;stroke-miterlimit:4;stroke-dasharray:none;stroke-opacity:1"
       transform="matrix(0.13333333,0,0,-0.13333333,0,94.666667)"
       clip-path="url(#clipPath93)" />
    <path
       id="path94"
       d="m 531.449,419.531 2.61,-31.133"
       style="fill:none;stroke:#000000;stroke-width:2.83465;stroke-linecap:butt;stroke-linejoin:miter;stroke-miterlimit:4;stroke-dasharray:none;stroke-opacity:1"
       transform="matrix(0.13333333,0,0,-0.13333333,0,94.666667)"
       clip-path="url(#clipPath95)" />
    <path
       id="path96"
       d="m 510.699,419.531 18.172,-7.769 z"
       style="fill:none;stroke:#000000;stroke-width:2.83465;stroke-linecap:butt;stroke-linejoin:miter;stroke-miterlimit:4;stroke-dasharray:none;stroke-opacity:1"
       transform="matrix(0.13333333,0,0,-0.13333333,0,94.666667)"
       clip-path="url(#clipPath97)" />
    <path
       id="path98"
       d="m 510.699,406.559 18.172,-7.77"
       style="fill:none;stroke:#000000;stroke-width:2.83465;stroke-linecap:butt;stroke-linejoin:miter;stroke-miterlimit:4;stroke-dasharray:none;stroke-opacity:1"
       transform="matrix(0.13333333,0,0,-0.13333333,0,94.666667)"
       clip-path="url(#clipPath99)" />
    <path
       id="path100"
       d="m 510.699,396.168 18.172,-7.77"
       style="fill:none;stroke:#000000;stroke-width:2.83465;stroke-linecap:butt;stroke-linejoin:miter;stroke-miterlimit:4;stroke-dasharray:none;stroke-opacity:1"
       transform="matrix(0.13333333,0,0,-0.13333333,0,94.666667)"
       clip-path="url(#clipPath101)" />
    <path
       id="path102"
       d="m 692.461,402.66 c 0,-5 -2.93,-9.058 -6.481,-9.058 -3.601,0 -6.531,4.058 -6.531,9.058 0,5.039 2.93,9.102 6.531,9.102 3.551,0 6.481,-4.063 6.481,-9.102 z"
       style="fill:#000000;fill-opacity:1;fill-rule:nonzero;stroke:#000000;stroke-width:2.83465;stroke-linecap:butt;stroke-linejoin:miter;stroke-miterlimit:4;stroke-dasharray:none;stroke-opacity:1"
       transform="matrix(0.13333333,0,0,-0.13333333,0,94.666667)"
       clip-path="url(#clipPath103)" />
    <path
       id="path104"
       d="M 1209.18,403.949 1375.35,611.68"
       style="fill:none;stroke:#000000;stroke-width:2.83465;stroke-linecap:butt;stroke-linejoin:miter;stroke-miterlimit:4;stroke-dasharray:none;stroke-opacity:1"
       transform="matrix(0.13333333,0,0,-0.13333333,0,94.666667)"
       clip-path="url(#clipPath105)" />
    <text
       id="text105"
       xml:space="preserve"
       transform="matrix(1.3333333,0,0,1.3333333,177.844,10.8636)"
       clip-path="url(#clipPath106)"><tspan
         id="tspan105"
         style="font-style:italic;font-variant:normal;font-weight:normal;font-size:9.6px;font-family:'Times New Roman';writing-mode:lr-tb;fill:#000000;fill-opacity:1;fill-rule:nonzero;stroke:none"
         x="0"
         y="0">k</tspan><tspan
         id="tspan106"
         style="font-style:italic;font-variant:normal;font-weight:normal;font-size:6.24009px;font-family:'Times New Roman';writing-mode:lr-tb;fill:#000000;fill-opacity:1;fill-rule:nonzero;stroke:none"
         x="4.2562499"
         y="1.91992">x</tspan></text>
    <path
       id="path107"
       d="m 1380.55,645.43 h 20.78"
       style="fill:none;stroke:#000000;stroke-width:2.83465;stroke-linecap:butt;stroke-linejoin:miter;stroke-miterlimit:4;stroke-dasharray:none;stroke-opacity:1"
       transform="matrix(0.13333333,0,0,-0.13333333,0,94.666667)"
       clip-path="url(#clipPath108)" />
  </g>
</svg>
