<?xml version="1.0" encoding="UTF-8" standalone="no"?>
<!-- Created with Inkscape (http://www.inkscape.org/) -->

<svg
   version="1.1"
   id="svg1"
   width="323.97333"
   height="195.93333"
   viewBox="0 0 323.97333 195.93333"
   sodipodi:docname="BAR2S.EPS"
   xmlns:inkscape="http://www.inkscape.org/namespaces/inkscape"
   xmlns:sodipodi="http://sodipodi.sourceforge.net/DTD/sodipodi-0.dtd"
   xmlns="http://www.w3.org/2000/svg"
   xmlns:svg="http://www.w3.org/2000/svg">
  <defs
     id="defs1" />
  <sodipodi:namedview
     id="namedview1"
     pagecolor="#ffffff"
     bordercolor="#000000"
     borderopacity="0.25"
     inkscape:showpageshadow="2"
     inkscape:pageopacity="0.0"
     inkscape:pagecheckerboard="0"
     inkscape:deskcolor="#d1d1d1">
    <inkscape:page
       x="0"
       y="0"
       inkscape:label="1"
       id="page1"
       width="323.97333"
       height="195.93333"
       margin="0"
       bleed="0" />
  </sodipodi:namedview>
  <g
     id="g1"
     inkscape:groupmode="layer"
     inkscape:label="1">
    <path
       id="path1"
       d="m 1208.25,976.25 81,49 36,-60 -81,-49 -36,60"
       style="fill:#d3d2d2;fill-opacity:1;fill-rule:nonzero;stroke:none"
       transform="matrix(0.13333333,0,0,-0.13333333,0,195.93333)" />
    <path
       id="path2"
       d="m 1208.25,976.25 81,49 36,-60 -81,-49 z"
       style="fill:none;stroke:#231f20;stroke-width:2.5;stroke-linecap:butt;stroke-linejoin:miter;stroke-miterlimit:3.8637;stroke-dasharray:none;stroke-opacity:1"
       transform="matrix(0.13333333,0,0,-0.13333333,0,195.93333)" />
    <path
       id="path3"
       d="m 607.25,615.25 1414,850 37,-61 -1415,-851 z"
       style="fill:none;stroke:#231f20;stroke-width:5;stroke-linecap:butt;stroke-linejoin:miter;stroke-miterlimit:3.8637;stroke-dasharray:none;stroke-opacity:1"
       transform="matrix(0.13333333,0,0,-0.13333333,0,195.93333)" />
    <path
       id="path4"
       d="m 4.8279297,-1.3369141 c -0.1054688,0.1171875 -0.1640625,0.1875 -0.2695313,0.328125 -0.2695312,0.36328129 -0.421875,0.48046879 -0.5625,0.48046879 -0.1640625,0 -0.28125,-0.15234375 -0.3632812,-0.49218749 -0.035156,-0.1289063 -0.035156,-0.1523438 -0.046875,-0.1875 -0.2929688,-1.2304688 -0.4335938,-1.78125 -0.4335938,-1.9570313 0.5390625,-0.9375 0.9609375,-1.453125 1.1835938,-1.453125 0.070312,0 0.1757812,0.035156 0.28125,0.09375 0.1523437,0.082031 0.234375,0.1054688 0.3398437,0.1054688 0.234375,0 0.4101563,-0.1757813 0.4101563,-0.4335938 0,-0.2578125 -0.2109375,-0.4453125 -0.4921875,-0.4453125 -0.5273438,0 -0.9726563,0.4335938 -1.8164063,1.7226563 l -0.1289062,-0.65625 C 2.7654297,-5.0517578 2.6248047,-5.2978516 2.3083984,-5.2978516 c -0.28125,0 -0.6679687,0.1054688 -1.40624996,0.3515625 -0.0703125,0.023437 -0.0703125,0.023437 -0.12890625,0.046875 l 0.046875,0.1875 c 0.46875001,-0.1289062 0.55078121,-0.140625 0.66796871,-0.140625 0.3046875,0 0.375,0.1171875 0.5390625,0.8320313 l 0.3515625,1.4765625 -0.984375,1.40625 c -0.2578125,0.35156249 -0.48046871,0.57421874 -0.60937496,0.57421874 -0.0820313,0 -0.19921875,-0.0351563 -0.31640625,-0.10546875 -0.15234375,-0.09375 -0.28125,-0.12890625 -0.38671875,-0.12890625 -0.234375,0 -0.41015625,0.1875 -0.41015625,0.421875 0,0.31640625 0.234375,0.50390625 0.609375,0.50390625 0.36328125,0 0.515625,-0.10546875 1.11328121,-0.8203125 0.3164063,-0.39843749 0.5859375,-0.76171879 1.078125,-1.41796879 l 0.3632813,1.44140629 c 0.1523437,0.62109375 0.3046875,0.796875 0.6914062,0.796875 0.4570313,0 0.7734375,-0.28125 1.4648438,-1.35937499 z M -79.722852,-84.803711 c 0.152344,-0.03516 0.246094,-0.04687 0.375,-0.04687 0.492188,0 0.726563,0.199219 0.960938,0.84375 0.328125,0.890625 0.949219,3.457031 0.949219,3.914063 0,0.1875 -0.08203,0.386718 -0.257813,0.609375 -0.328125,0.445312 -0.609375,0.785156 -0.75,0.9375 -0.257812,0.257812 -0.386719,0.363281 -0.539062,0.363281 -0.08203,0 -0.152344,-0.03516 -0.292969,-0.140625 -0.175781,-0.140625 -0.292969,-0.199219 -0.445313,-0.199219 -0.257812,0 -0.46875,0.199219 -0.46875,0.46875 0,0.316406 0.257813,0.527344 0.621094,0.527344 0.761719,0 2.320313,-1.792969 3.632813,-4.171875 0.820312,-1.476563 1.148437,-2.34375 1.148437,-2.929688 0,-0.363281 -0.292969,-0.667968 -0.65625,-0.667968 -0.28125,0 -0.46875,0.1875 -0.46875,0.445312 0,0.199219 0.09375,0.316406 0.339844,0.46875 0.222656,0.140625 0.304687,0.246094 0.304687,0.410156 0,0.480469 -0.433593,1.40625 -1.464843,3.105469 l -0.234375,-1.394531 c -0.1875,-1.066406 -0.855469,-3.035156 -1.03125,-3.035156 h -0.04687 c -0.02344,0.01172 -0.05859,0.01172 -0.117188,0.01172 -0.09375,0.01172 -0.539062,0.09375 -1.171875,0.210938 -0.05859,0.01172 -0.210937,0.04687 -0.386719,0.07031 z m 0,0"
       style="fill:#231f20;fill-opacity:1;fill-rule:nonzero;stroke:none"
       aria-label="x&#10;y"
       transform="matrix(1.3333333,0,0,1.3333333,110.56667,188.83333)" />
    <path
       id="path5"
       d="m 161.25,889.25 v -714"
       style="fill:none;stroke:#231f20;stroke-width:2.5;stroke-linecap:butt;stroke-linejoin:miter;stroke-miterlimit:3.8637;stroke-dasharray:none;stroke-opacity:1"
       transform="matrix(0.13333333,0,0,-0.13333333,0,195.93333)" />
    <path
       id="path6"
       d="m 161.25,886.25 h -15 l 15,38 15,-38 h -15"
       style="fill:#231f20;fill-opacity:1;fill-rule:evenodd;stroke:none"
       transform="matrix(0.13333333,0,0,-0.13333333,0,195.93333)" />
    <path
       id="path7"
       d="m 161.25,175.25 h 714"
       style="fill:none;stroke:#231f20;stroke-width:2.5;stroke-linecap:butt;stroke-linejoin:miter;stroke-miterlimit:3.8637;stroke-dasharray:none;stroke-opacity:1"
       transform="matrix(0.13333333,0,0,-0.13333333,0,195.93333)" />
    <path
       id="path8"
       d="m 872.25,175.25 v 15 l 38,-15 -38,-15 v 15"
       style="fill:#231f20;fill-opacity:1;fill-rule:evenodd;stroke:none"
       transform="matrix(0.13333333,0,0,-0.13333333,0,195.93333)" />
    <path
       id="path9"
       d="m 2129.25,730.25 275,164"
       style="fill:none;stroke:#231f20;stroke-width:2.5;stroke-linecap:butt;stroke-linejoin:miter;stroke-miterlimit:3.8637;stroke-dasharray:none;stroke-opacity:1"
       transform="matrix(0.13333333,0,0,-0.13333333,0,195.93333)" />
    <path
       id="path10"
       d="m 2404.25,894.25 -16,7 42,8 -27,-33 1,18"
       style="fill:#231f20;fill-opacity:1;fill-rule:evenodd;stroke:none"
       transform="matrix(0.13333333,0,0,-0.13333333,0,195.93333)" />
    <path
       id="path11"
       d="m 1774.25,521.25 274,163"
       style="fill:none;stroke:#231f20;stroke-width:2.5;stroke-linecap:butt;stroke-linejoin:miter;stroke-miterlimit:3.8637;stroke-dasharray:none;stroke-opacity:1"
       transform="matrix(0.13333333,0,0,-0.13333333,0,195.93333)" />
    <path
       id="path12"
       d="m 1774.25,521.25 16,-8 -42,-8 27,34 -1,-18"
       style="fill:#231f20;fill-opacity:1;fill-rule:evenodd;stroke:none"
       transform="matrix(0.13333333,0,0,-0.13333333,0,195.93333)" />
    <path
       id="path13"
       d="M 8.7201172,-7.8404297 H 6.3412109 v 0.1992188 c 0.6796875,0.058594 0.8320313,0.1757812 0.8320313,0.609375 0,0.140625 -0.023437,0.2695312 -0.1054688,0.5273437 -0.011719,0.035156 -0.023437,0.082031 -0.023437,0.09375 l -1.21875,4.5585938 -2.4960937,-5.9882813 H 1.3958984 v 0.1992188 c 0.5625,0.046875 0.796875,0.1992187 1.03125,0.6679687 l -1.42968746,5.0039063 c -0.45703125,1.53515621 -0.55078125,1.67578121 -1.23046875,1.78124996 V -5.859375e-4 H 2.1341797 V -0.18808594 c -0.6210938,-0.046875 -0.8320313,-0.1875 -0.8320313,-0.515625 0,-0.1640625 0.035156,-0.39843746 0.1054688,-0.65624996 l 1.3710937,-5.0625 2.7539063,6.59765621 h 0.2109375 l 1.734375,-6.03515621 c 0.4453125,-1.5585938 0.4921875,-1.6171875 1.2421875,-1.78125 z M -33.080664,14.961328 h -2.378906 v 0.199219 c 0.679687,0.05859 0.832031,0.175781 0.832031,0.609375 0,0.140625 -0.02344,0.269531 -0.105469,0.527344 -0.01172,0.03516 -0.02344,0.08203 -0.02344,0.09375 l -1.21875,4.558593 -2.496094,-5.988281 h -1.933594 v 0.199219 c 0.5625,0.04687 0.796875,0.199219 1.03125,0.667969 l -1.429687,5.003906 c -0.457032,1.535156 -0.550782,1.675781 -1.230469,1.78125 v 0.1875 h 2.367187 v -0.1875 c -0.621093,-0.04687 -0.832031,-0.1875 -0.832031,-0.515625 0,-0.164063 0.03516,-0.398438 0.105469,-0.65625 l 1.371094,-5.0625 2.753906,6.597656 h 0.210937 l 1.734375,-6.035156 c 0.445313,-1.558594 0.492188,-1.617188 1.242188,-1.78125 z m 0,0"
       style="fill:#231f20;fill-opacity:1;fill-rule:nonzero;stroke:none"
       aria-label="N&#10;N"
       transform="matrix(1.3333333,0,0,1.3333333,296.03333,78.7)" />
    <path
       id="path14"
       d="m 2029.25,713.25 81,49 36,-60 -81,-49 -36,60"
       style="fill:#d3d2d2;fill-opacity:1;fill-rule:nonzero;stroke:none"
       transform="matrix(0.13333333,0,0,-0.13333333,0,195.93333)" />
    <path
       id="path15"
       d="m 2029.25,713.25 81,49 36,-60 -81,-49 z"
       style="fill:none;stroke:#231f20;stroke-width:2.5;stroke-linecap:butt;stroke-linejoin:miter;stroke-miterlimit:3.8637;stroke-dasharray:none;stroke-opacity:1"
       transform="matrix(0.13333333,0,0,-0.13333333,0,195.93333)" />
    <path
       id="path16"
       d="m 1406.25,898.25 c 112.77,54.211 196.57,78.801 326,60 125.11,-17.816 177.61,-45.305 235,-95"
       style="fill:none;stroke:#231f20;stroke-width:2.5;stroke-linecap:butt;stroke-linejoin:miter;stroke-miterlimit:3.8637;stroke-dasharray:none;stroke-opacity:1"
       transform="matrix(0.13333333,0,0,-0.13333333,0,195.93333)" />
    <path
       id="path17"
       d="m 1966.25,864.25 9,12 19,-36 -38,13 10,11"
       style="fill:#231f20;fill-opacity:1;fill-rule:evenodd;stroke:none"
       transform="matrix(0.13333333,0,0,-0.13333333,0,195.93333)" />
  </g>
</svg>
