<?xml version="1.0" encoding="UTF-8" standalone="no"?>
<!-- Created with Inkscape (http://www.inkscape.org/) -->

<svg
   version="1.1"
   id="svg1"
   width="251.25333"
   height="192.97333"
   viewBox="0 0 251.25333 192.97333"
   sodipodi:docname="BAR2.EPS"
   xmlns:inkscape="http://www.inkscape.org/namespaces/inkscape"
   xmlns:sodipodi="http://sodipodi.sourceforge.net/DTD/sodipodi-0.dtd"
   xmlns="http://www.w3.org/2000/svg"
   xmlns:svg="http://www.w3.org/2000/svg">
  <defs
     id="defs1" />
  <sodipodi:namedview
     id="namedview1"
     pagecolor="#ffffff"
     bordercolor="#000000"
     borderopacity="0.25"
     inkscape:showpageshadow="2"
     inkscape:pageopacity="0.0"
     inkscape:pagecheckerboard="0"
     inkscape:deskcolor="#d1d1d1">
    <inkscape:page
       x="0"
       y="0"
       inkscape:label="1"
       id="page1"
       width="251.25333"
       height="192.97333"
       margin="0"
       bleed="0" />
  </sodipodi:namedview>
  <g
     id="g1"
     inkscape:groupmode="layer"
     inkscape:label="1">
    <path
       id="path1"
       d="m 3.6900391,-0.93644531 c -0.421875,0.52734375 -0.5390625,0.6328125 -0.6679688,0.6328125 -0.058594,0 -0.082031,-0.046875 -0.082031,-0.140625 0,-0.046875 0,-0.046875 0.1523437,-0.62109379 l 0.6328125,-2.390625 H 3.1275391 c -0.4335938,1.1835938 -0.515625,1.3828125 -0.8789063,1.9570313 -0.4804687,0.74999999 -0.8789062,1.16015624 -1.125,1.16015624 -0.1054687,0 -0.17578124,-0.0820313 -0.17578124,-0.19921875 0,-0.0234375 0,-0.046875 0.0117188,-0.0703125 L 1.6861328,-3.5145703 1.6626953,-3.5262891 c -0.46875,0.1054688 -0.76171874,0.1523438 -1.19531249,0.2109375 v 0.1171875 c 0.31640625,0 0.31640625,0 0.3984375,0.046875 0.0351563,0.011719 0.0820313,0.082031 0.0820313,0.140625 0,0.070312 -0.046875,0.2695313 -0.1171875,0.5390625 l -0.29296875,1.1367188 c -0.15234375,0.58593749 -0.19921875,0.84374999 -0.19921875,0.98437499 0,0.29296875 0.140625,0.4453125 0.421875,0.4453125 0.56249999,0 0.99609369,-0.43359375 1.91015629,-1.98046879 -0.234375,0.8671875 -0.3632812,1.39453129 -0.3632812,1.57031254 0,0.2578125 0.1523437,0.38671875 0.3867187,0.38671875 0.375,0 0.5507813,-0.15234375 1.1015625,-0.9375 z M 6.3853516,3.0010547 H 8.6236328 V 2.8838672 h -0.140625 c -0.3867187,0 -0.5507812,-0.070312 -0.5507812,-0.2578125 0,-0.070312 0.023437,-0.1875 0.09375,-0.421875 0.023437,-0.046875 0.035156,-0.09375 0.058594,-0.1757813 l 1.1367188,-4.1484375 c 0.046875,-0.140625 0.046875,-0.1992187 0.046875,-0.234375 0,-0.035156 -0.011719,-0.058594 -0.035156,-0.058594 0,0 -0.2226562,0.046875 -0.65625,0.1289062 l -0.7265625,0.1523438 c -0.011719,0 -0.070312,0.011719 -0.1640625,0.023437 v 0.1171875 l 0.4570313,-0.011719 c 0.1875,-0.011719 0.3046875,0.09375 0.3046875,0.2460938 0,0.058594 -0.011719,0.1171875 -0.058594,0.28125 l -1.1015625,3.9375 c -0.09375,0.2929687 -0.2695312,0.375 -0.9023437,0.421875 z M -13.208398,-37.337812 c -0.421875,0.527343 -0.539063,0.632812 -0.667969,0.632812 -0.05859,0 -0.08203,-0.04687 -0.08203,-0.140625 0,-0.04687 0,-0.04687 0.152343,-0.621094 l 0.632813,-2.390625 h -0.597656 c -0.433594,1.183594 -0.515625,1.382813 -0.878907,1.957032 -0.480468,0.75 -0.878906,1.160156 -1.125,1.160156 -0.105468,0 -0.175781,-0.08203 -0.175781,-0.199219 0,-0.02344 0,-0.04687 0.01172,-0.07031 l 0.726562,-2.90625 -0.02344,-0.01172 c -0.46875,0.105469 -0.761719,0.152344 -1.195313,0.210937 v 0.117188 c 0.316407,0 0.316407,0 0.398438,0.04687 0.03516,0.01172 0.08203,0.08203 0.08203,0.140625 0,0.07031 -0.04687,0.269531 -0.117187,0.539062 l -0.292969,1.136719 c -0.152344,0.585938 -0.199219,0.84375 -0.199219,0.984375 0,0.292969 0.140625,0.445313 0.421875,0.445313 0.5625,0 0.996094,-0.433594 1.910156,-1.980469 -0.234375,0.867187 -0.363281,1.394531 -0.363281,1.570312 0,0.257813 0.152344,0.386719 0.386719,0.386719 0.375,0 0.550781,-0.152344 1.101562,-0.9375 z m 5.5078121,2.824218 c -0.1875,0.398438 -0.3398438,0.492188 -0.7851563,0.503907 H -10.00918 v -0.03516 L -8.4740234,-35.58 c 0.9375,-0.9375 1.1953125,-1.347656 1.1953125,-1.875 0,-0.761719 -0.5742188,-1.359375 -1.3007813,-1.359375 -0.2929687,0 -0.5859375,0.07031 -0.8203125,0.210938 -0.4101562,0.222656 -0.6328123,0.492187 -0.8554683,1.078125 l 0.164062,0.04687 c 0.2929688,-0.515625 0.6445313,-0.75 1.1250001,-0.75 0.5742187,0 0.9960937,0.421875 0.9960937,0.972656 0,0.175781 -0.023437,0.328125 -0.070313,0.433594 -0.1992187,0.433593 -0.5625,0.9375 -1.078125,1.488281 l -1.6875008,1.792969 v 0.140625 h 2.8476571 L -7.5599609,-34.455 Z M 150.39121,-101.63859 c -0.42187,0.52734 -0.53906,0.63281 -0.66797,0.63281 -0.0586,0 -0.082,-0.0469 -0.082,-0.14063 0,-0.0469 0,-0.0469 0.15234,-0.62109 l 0.63282,-2.39062 h -0.59766 c -0.43359,1.18359 -0.51562,1.38281 -0.87891,1.95703 -0.48046,0.75 -0.8789,1.16015 -1.125,1.16015 -0.10546,0 -0.17578,-0.082 -0.17578,-0.19922 0,-0.0234 0,-0.0469 0.0117,-0.0703 l 0.72656,-2.90625 -0.0234,-0.0117 c -0.46875,0.10547 -0.76172,0.15235 -1.19532,0.21094 v 0.11719 c 0.31641,0 0.31641,0 0.39844,0.0469 0.0352,0.0117 0.082,0.082 0.082,0.14063 0,0.0703 -0.0469,0.26953 -0.11718,0.53906 l -0.29297,1.13672 c -0.15235,0.58594 -0.19922,0.84375 -0.19922,0.98437 0,0.29297 0.14062,0.44532 0.42187,0.44532 0.5625,0 0.9961,-0.4336 1.91016,-1.98047 -0.23438,0.86719 -0.36328,1.39453 -0.36328,1.57031 0,0.25781 0.15234,0.38672 0.38672,0.38672 0.375,0 0.55078,-0.15234 1.10156,-0.9375 z m 3.73828,-0.59766 c 0.26953,-0.375 0.55078,-0.53906 0.87891,-0.53906 0.43359,0 0.71484,0.29297 0.71484,0.72656 0,0.33984 -0.16406,0.62109 -0.51562,0.85547 -0.33985,0.23437 -0.67969,0.35156 -1.39453,0.48047 l 0.0117,0.11719 c 0.44532,0 0.52735,0.0117 0.72657,0.082 0.49218,0.1875 0.75,0.62109 0.75,1.253903 0,0.28125 -0.0586,0.574218 -0.17578,0.761718 -0.1875,0.328125 -0.53907,0.550782 -0.86719,0.550782 -0.15235,0 -0.33985,-0.08203 -0.57422,-0.257813 -0.23438,-0.164062 -0.36328,-0.222656 -0.51563,-0.222656 -0.22265,0 -0.35156,0.105469 -0.35156,0.304687 0,0.304688 0.32813,0.480469 0.90235,0.480469 0.44531,0 0.86718,-0.105469 1.19531,-0.292969 0.62109,-0.375 1.03125,-1.042968 1.03125,-1.757812 0,-0.585939 -0.23438,-0.949219 -0.76172,-1.195309 v -0.0234 c 0.96094,-0.375 1.24219,-0.64453 1.24219,-1.18359 0,-0.58594 -0.48047,-1.01954 -1.125,-1.01954 -0.55078,0 -1.04297,0.31641 -1.30078,0.83204 z m -22.33887,-23.2998 c -0.42187,0.52734 -0.53906,0.63281 -0.66796,0.63281 -0.0586,0 -0.082,-0.0469 -0.082,-0.14063 0,-0.0469 0,-0.0469 0.15235,-0.62109 l 0.63281,-2.39063 h -0.59766 c -0.43359,1.1836 -0.51562,1.38282 -0.8789,1.95704 -0.48047,0.75 -0.87891,1.16015 -1.125,1.16015 -0.10547,0 -0.17578,-0.082 -0.17578,-0.19922 0,-0.0234 0,-0.0469 0.0117,-0.0703 l 0.72656,-2.90625 -0.0234,-0.0117 c -0.46875,0.10547 -0.76172,0.15235 -1.19531,0.21094 v 0.11719 c 0.3164,0 0.3164,0 0.39844,0.0469 0.0352,0.0117 0.082,0.082 0.082,0.14063 0,0.0703 -0.0469,0.26953 -0.11719,0.53906 l -0.29297,1.13672 c -0.15234,0.58594 -0.19922,0.84375 -0.19922,0.98437 0,0.29297 0.14063,0.44532 0.42188,0.44532 0.5625,0 0.99609,-0.4336 1.91015,-1.98047 -0.23437,0.86718 -0.36328,1.39453 -0.36328,1.57031 0,0.25781 0.15235,0.38672 0.38672,0.38672 0.375,0 0.55078,-0.15235 1.10156,-0.9375 z m 5.92969,2.0039 h -0.75 l 0.96094,-3.48047 h -0.32813 l -3.33984,3.45703 -0.15234,0.52735 h 2.09765 l -0.39843,1.42969 h 0.63281 l 0.375,-1.40625 h 0.79687 z m -1.40625,0 h -1.69922 v -0.0234 l 2.4375,-2.55468 h 0.0352 z m 0,0"
       style="fill:#231f20;fill-opacity:1;fill-rule:nonzero;stroke:none"
       aria-label="u&#10;1&#10;u&#10;2&#10;u&#10;3&#10;u&#10;4"
       transform="matrix(1.3333333,0,0,1.3333333,28.966667,182.94)" />
    <path
       id="path2"
       d="m 4.25,201.25 1415,850 37,-61 -1415,-850 z"
       style="fill:none;stroke:#231f20;stroke-width:5;stroke-linecap:butt;stroke-linejoin:miter;stroke-miterlimit:3.8637;stroke-dasharray:none;stroke-opacity:1"
       transform="matrix(0.13333333,0,0,-0.13333333,0,192.97333)" />
    <path
       id="path3"
       d="m 22.25,424.25 v -260"
       style="fill:none;stroke:#231f20;stroke-width:2.5;stroke-linecap:butt;stroke-linejoin:miter;stroke-miterlimit:3.8637;stroke-dasharray:none;stroke-opacity:1"
       transform="matrix(0.13333333,0,0,-0.13333333,0,192.97333)" />
    <path
       id="path4"
       d="m 22.25,422.25 h -15 l 15,37 15,-37 h -15"
       style="fill:#231f20;fill-opacity:1;fill-rule:evenodd;stroke:none"
       transform="matrix(0.13333333,0,0,-0.13333333,0,192.97333)" />
    <path
       id="path5"
       d="m 22.25,164.25 h 259"
       style="fill:none;stroke:#231f20;stroke-width:2.5;stroke-linecap:butt;stroke-linejoin:miter;stroke-miterlimit:3.8637;stroke-dasharray:none;stroke-opacity:1"
       transform="matrix(0.13333333,0,0,-0.13333333,0,192.97333)" />
    <path
       id="path6"
       d="m 279.25,164.25 v 15 l 37,-15 -37,-15 v 15"
       style="fill:#231f20;fill-opacity:1;fill-rule:evenodd;stroke:none"
       transform="matrix(0.13333333,0,0,-0.13333333,0,192.97333)" />
    <path
       id="path7"
       d="m 1438.25,1281.25 v -260"
       style="fill:none;stroke:#231f20;stroke-width:2.5;stroke-linecap:butt;stroke-linejoin:miter;stroke-miterlimit:3.8637;stroke-dasharray:none;stroke-opacity:1"
       transform="matrix(0.13333333,0,0,-0.13333333,0,192.97333)" />
    <path
       id="path8"
       d="m 1438.25,1278.25 h -15 l 15,38 15,-38 h -15"
       style="fill:#231f20;fill-opacity:1;fill-rule:evenodd;stroke:none"
       transform="matrix(0.13333333,0,0,-0.13333333,0,192.97333)" />
    <path
       id="path9"
       d="m 1438.25,1021.25 h 259"
       style="fill:none;stroke:#231f20;stroke-width:2.5;stroke-linecap:butt;stroke-linejoin:miter;stroke-miterlimit:3.8637;stroke-dasharray:none;stroke-opacity:1"
       transform="matrix(0.13333333,0,0,-0.13333333,0,192.97333)" />
    <path
       id="path10"
       d="m 1695.25,1021.25 v 15 l 37,-15 -37,-15 v 15"
       style="fill:#231f20;fill-opacity:1;fill-rule:evenodd;stroke:none"
       transform="matrix(0.13333333,0,0,-0.13333333,0,192.97333)" />
  </g>
</svg>
