<?xml version="1.0" encoding="UTF-8" standalone="no"?>
<!-- Created with Inkscape (http://www.inkscape.org/) -->

<svg
   version="1.1"
   id="svg1"
   width="336.85333"
   height="248.10667"
   viewBox="0 0 336.85333 248.10667"
   sodipodi:docname="BAR2G.EPS"
   xmlns:inkscape="http://www.inkscape.org/namespaces/inkscape"
   xmlns:sodipodi="http://sodipodi.sourceforge.net/DTD/sodipodi-0.dtd"
   xmlns="http://www.w3.org/2000/svg"
   xmlns:svg="http://www.w3.org/2000/svg">
  <defs
     id="defs1" />
  <sodipodi:namedview
     id="namedview1"
     pagecolor="#ffffff"
     bordercolor="#000000"
     borderopacity="0.25"
     inkscape:showpageshadow="2"
     inkscape:pageopacity="0.0"
     inkscape:pagecheckerboard="0"
     inkscape:deskcolor="#d1d1d1">
    <inkscape:page
       x="0"
       y="0"
       inkscape:label="1"
       id="page1"
       width="336.85333"
       height="248.10667"
       margin="0"
       bleed="0" />
  </sodipodi:namedview>
  <g
     id="g1"
     inkscape:groupmode="layer"
     inkscape:label="1">
    <path
       id="path1"
       d="M 7.6058594,-7.8411328 H 1.6410156 v 0.1992187 c 0.75,0.070312 0.9257813,0.1640625 0.9257813,0.4921875 0,0.140625 -0.070312,0.5390625 -0.1289063,0.7617188 l -1.47656248,5.3085937 c -0.19921875,0.67968754 -0.3046875,0.76171879 -0.97265625,0.89062504 v 0.1875 H 6.0707031 l 0.75,-1.94531254 -0.1992187,-0.09375 c -0.5625,0.7734375 -0.8789063,1.07812504 -1.3945313,1.32421879 -0.4335937,0.19921875 -1.2539062,0.31640625 -2.1679687,0.31640625 -0.6679688,0 -0.9492188,-0.1171875 -0.9492188,-0.41015625 0,-0.140625 0.1523438,-0.70312499 0.4335938,-1.74609379 l 0.3867187,-1.3828125 c 0.1875,0.011719 0.375,0.023437 0.5625,0.023437 l 0.5507813,0.011719 c 0.3398437,0.011719 0.6210937,0.070312 0.7148437,0.140625 0.1054688,0.09375 0.1289063,0.1757812 0.1289063,0.4101562 0,0.2226563 -0.023437,0.3632813 -0.082031,0.6328125 l 0.234375,0.058594 0.8203125,-2.7890625 -0.2226562,-0.046875 c -0.4570313,1.0195312 -0.5742188,1.1015625 -1.6523438,1.1367187 -0.140625,0 -0.5273437,0.011719 -0.9492187,0.023437 l 0.796875,-2.7890625 c 0.070312,-0.28125 0.1875,-0.3164062 0.8789062,-0.3164062 1.875,0 2.296875,0.1523437 2.296875,0.8789062 0,0.1523438 -0.011719,0.3398438 -0.023437,0.5390625 l 0.2460938,0.023437 z M 7.3919922,1.5455859 c 1.0195312,-0.56249996 1.5585937,-1.23046871 1.5585937,-1.91015621 0,-0.48046875 -0.2929687,-0.84374999 -0.6914062,-0.84374999 -0.3515625,0 -0.609375,0.23437499 -0.609375,0.55078124 0,0.22265625 0.070312,0.33984375 0.2929687,0.55078125 0.1875,0.1640625 0.2460938,0.2578125 0.2460938,0.38671875 0,0.31640625 -0.2695313,0.64453125 -0.9023438,1.06640626 z M 20.106836,-0.18878906 c -0.691406,-0.0703125 -0.761719,-0.1640625 -0.914063,-1.03125004 l -1.136718,-6.796875 h -0.304688 l -3.480469,6 c -0.949218,1.59375004 -1.066406,1.72265629 -1.546875,1.82812504 v 0.1875 h 2.238282 v -0.1875 c -0.609375,-0.0703125 -0.703125,-0.12890625 -0.703125,-0.421875 0,-0.234375 0.03516,-0.33984375 0.234375,-0.75000004 l 0.691406,-1.3476562 h 2.636719 l 0.234375,1.5703125 c 0.01172,0.1054687 0.03516,0.21093749 0.03516,0.30468749 0,0.45703125 -0.175781,0.5625 -0.9375,0.64453125 v 0.1875 h 2.953125 z m -4.675781,-2.95312504 1.804687,-3.1289062 0.527344,3.1289062 z m 0,0"
       style="fill:#231f20;fill-opacity:1;fill-rule:nonzero;stroke:none"
       aria-label="E, A"
       transform="matrix(1.3333333,0,0,1.3333333,199.36667,142.74)" />
    <path
       id="path2"
       d="m 1477.25,831.25 c -34.86,-1.426 -100.89,6.867 -149,44 -36.29,27.652 -48.38,41.008 -71,93"
       style="fill:none;stroke:#231f20;stroke-width:2.5;stroke-linecap:butt;stroke-linejoin:miter;stroke-miterlimit:3.8637;stroke-dasharray:none;stroke-opacity:1"
       transform="matrix(0.13333333,0,0,-0.13333333,0,248.10667)" />
    <path
       id="path3"
       d="m 4.8279297,-1.3350781 c -0.1054688,0.1171875 -0.1640625,0.1875 -0.2695313,0.328125 -0.2695312,0.36328122 -0.421875,0.48046872 -0.5625,0.48046872 -0.1640625,0 -0.28125,-0.15234375 -0.3632812,-0.49218752 -0.035156,-0.1289062 -0.035156,-0.1523437 -0.046875,-0.1875 -0.2929688,-1.2304687 -0.4335938,-1.78125 -0.4335938,-1.9570312 0.5390625,-0.9375 0.9609375,-1.453125 1.1835938,-1.453125 0.070312,0 0.1757812,0.035156 0.28125,0.09375 0.1523437,0.082031 0.234375,0.1054687 0.3398437,0.1054687 0.234375,0 0.4101563,-0.1757812 0.4101563,-0.4335937 0,-0.2578125 -0.2109375,-0.4453125 -0.4921875,-0.4453125 -0.5273438,0 -0.9726563,0.4335937 -1.8164063,1.7226562 l -0.1289062,-0.65625 C 2.7654297,-5.0499219 2.6248047,-5.2960156 2.3083984,-5.2960156 c -0.28125,0 -0.6679687,0.1054687 -1.40624996,0.3515625 -0.0703125,0.023437 -0.0703125,0.023437 -0.12890625,0.046875 l 0.046875,0.1875 c 0.46875001,-0.1289063 0.55078121,-0.140625 0.66796871,-0.140625 0.3046875,0 0.375,0.1171875 0.5390625,0.8320312 l 0.3515625,1.4765625 -0.984375,1.40625 c -0.2578125,0.35156252 -0.48046871,0.57421877 -0.60937496,0.57421877 -0.0820313,0 -0.19921875,-0.0351563 -0.31640625,-0.10546875 -0.15234375,-0.09375 -0.28125,-0.12890625 -0.38671875,-0.12890625 -0.234375,0 -0.41015625,0.1875 -0.41015625,0.421875 0,0.31640625 0.234375,0.50390625 0.609375,0.50390625 0.36328125,0 0.515625,-0.10546875 1.11328121,-0.8203125 0.3164063,-0.39843752 0.5859375,-0.76171872 1.078125,-1.41796872 l 0.3632813,1.44140622 c 0.1523437,0.62109375 0.3046875,0.796875 0.6914062,0.796875 0.4570313,0 0.7734375,-0.28125 1.4648438,-1.35937502 z M -79.722852,-84.804805 c 0.152344,-0.03516 0.246094,-0.04687 0.375,-0.04687 0.492188,0 0.726563,0.199219 0.960938,0.84375 0.328125,0.890625 0.949219,3.457032 0.949219,3.914063 0,0.1875 -0.08203,0.386719 -0.257813,0.609375 -0.328125,0.445312 -0.609375,0.785156 -0.75,0.9375 -0.257812,0.257812 -0.386719,0.363281 -0.539062,0.363281 -0.08203,0 -0.152344,-0.03516 -0.292969,-0.140625 -0.175781,-0.140625 -0.292969,-0.199219 -0.445313,-0.199219 -0.257812,0 -0.46875,0.199219 -0.46875,0.46875 0,0.316407 0.257813,0.527344 0.621094,0.527344 0.761719,0 2.320313,-1.792969 3.632813,-4.171875 0.820312,-1.476562 1.148437,-2.34375 1.148437,-2.929687 0,-0.363282 -0.292969,-0.667969 -0.65625,-0.667969 -0.28125,0 -0.46875,0.1875 -0.46875,0.445312 0,0.199219 0.09375,0.316407 0.339844,0.46875 0.222656,0.140625 0.304687,0.246094 0.304687,0.410157 0,0.480468 -0.433593,1.40625 -1.464843,3.105468 l -0.234375,-1.394531 c -0.1875,-1.066406 -0.855469,-3.035156 -1.03125,-3.035156 h -0.04687 c -0.02344,0.01172 -0.05859,0.01172 -0.117188,0.01172 -0.09375,0.01172 -0.539062,0.09375 -1.171875,0.210937 -0.05859,0.01172 -0.210937,0.04687 -0.386719,0.07031 z m 0,0"
       style="fill:#231f20;fill-opacity:1;fill-rule:nonzero;stroke:none"
       aria-label="x&#10;y"
       transform="matrix(1.3333333,0,0,1.3333333,110.56667,241.00667)" />
    <path
       id="path4"
       d="m 161.25,889.25 v -714"
       style="fill:none;stroke:#231f20;stroke-width:2.5;stroke-linecap:butt;stroke-linejoin:miter;stroke-miterlimit:3.8637;stroke-dasharray:none;stroke-opacity:1"
       transform="matrix(0.13333333,0,0,-0.13333333,0,248.10667)" />
    <path
       id="path5"
       d="m 161.25,886.25 h -15 l 15,38 15,-38 h -15"
       style="fill:#231f20;fill-opacity:1;fill-rule:evenodd;stroke:none"
       transform="matrix(0.13333333,0,0,-0.13333333,0,248.10667)" />
    <path
       id="path6"
       d="m 161.25,175.25 h 714"
       style="fill:none;stroke:#231f20;stroke-width:2.5;stroke-linecap:butt;stroke-linejoin:miter;stroke-miterlimit:3.8637;stroke-dasharray:none;stroke-opacity:1"
       transform="matrix(0.13333333,0,0,-0.13333333,0,248.10667)" />
    <path
       id="path7"
       d="m 872.25,175.25 v 15 l 38,-15 -38,-15 v 15"
       style="fill:#231f20;fill-opacity:1;fill-rule:evenodd;stroke:none"
       transform="matrix(0.13333333,0,0,-0.13333333,0,248.10667)" />
    <path
       id="path8"
       d="M 1.9095703,2.0973437 C 1.4642578,0.87859375 1.3353516,0.1403125 1.3353516,-1.0198438 c 0,-1.453125 0.328125,-3.1640625 0.890625,-4.5 0.3984375,-0.9492187 0.7734375,-1.5117187 1.5585937,-2.3320312 L 3.6205078,-8.0276563 c -1.5585937,1.4179688 -2.1679687,2.203125 -2.67187499,3.4570313 -0.31640625,0.75 -0.4453125,1.4882812 -0.4453125,2.4140625 0,0.9257812 0.140625,1.81640625 0.41015625,2.6484375 C 1.0775391,0.99578125 1.2650391,1.3825 1.6869141,2.1676562 Z M 8.8236328,-1.33625 c -0.1054687,0.1171875 -0.1640625,0.1875 -0.2695312,0.328125 -0.2695313,0.36328125 -0.421875,0.48046875 -0.5625,0.48046875 -0.1640625,0 -0.28125,-0.15234375 -0.3632813,-0.49218755 -0.035156,-0.1289062 -0.035156,-0.1523437 -0.046875,-0.1875 -0.2929687,-1.2304687 -0.4335937,-1.78125 -0.4335937,-1.9570312 0.5390625,-0.9375 0.9609375,-1.453125 1.1835937,-1.453125 0.070312,0 0.1757813,0.035156 0.28125,0.09375 0.1523438,0.082031 0.234375,0.1054687 0.3398438,0.1054687 0.234375,0 0.4101562,-0.1757812 0.4101562,-0.4335937 0,-0.2578125 -0.2109375,-0.4453125 -0.4921875,-0.4453125 -0.5273437,0 -0.9726562,0.4335937 -1.8164062,1.7226562 l -0.1289063,-0.65625 C 6.7611328,-5.0510938 6.6205078,-5.2971875 6.3041016,-5.2971875 c -0.28125,0 -0.6679688,0.1054687 -1.40625,0.3515625 -0.070312,0.023437 -0.070312,0.023437 -0.1289063,0.046875 l 0.046875,0.1875 c 0.46875,-0.1289063 0.5507813,-0.140625 0.6679688,-0.140625 0.3046875,0 0.375,0.1171875 0.5390625,0.8320312 l 0.3515625,1.4765625 -0.984375,1.40625 c -0.2578125,0.35156255 -0.4804688,0.5742188 -0.609375,0.5742188 -0.082031,0 -0.1992188,-0.0351563 -0.3164063,-0.10546875 -0.1523437,-0.09375 -0.28125,-0.12890625 -0.3867187,-0.12890625 -0.234375,0 -0.4101563,0.1875 -0.4101563,0.421875 0,0.31640625 0.234375,0.50390625 0.609375,0.50390625 0.3632813,0 0.515625,-0.10546875 1.1132813,-0.8203125 0.3164062,-0.39843755 0.5859375,-0.76171875 1.078125,-1.41796875 l 0.3632812,1.44140625 c 0.1523438,0.62109375 0.3046875,0.796875 0.6914063,0.796875 0.4570312,0 0.7734375,-0.28125 1.4648437,-1.35937505 z m 5.2822262,2.671875 c -0.28125,0.5859375 -0.515625,0.7265625 -1.195312,0.75 H 10.637109 V 2.027031 l 2.296875,-2.3085937 c 1.40625,-1.3945313 1.792969,-2.0039063 1.792969,-2.8007813 0,-1.1367187 -0.855469,-2.0273437 -1.945312,-2.0273437 -0.433594,0 -0.878907,0.1054687 -1.242188,0.3046875 -0.609375,0.3398437 -0.925781,0.75 -1.277344,1.6171875 l 0.246094,0.082031 c 0.445313,-0.7851562 0.960938,-1.125 1.6875,-1.125 0.867188,0 1.5,0.6210938 1.5,1.453125 0,0.2578125 -0.03516,0.4804688 -0.105469,0.6445313 -0.292968,0.6445312 -0.84375,1.40625 -1.628906,2.23828125 L 9.4417969,2.8004687 v 0.1992188 h 4.2656251 l 0.597656,-1.5820313 z m -0.74707,0.2109375 c 1.019531,-0.5625 1.558594,-1.23046875 1.558594,-1.91015625 0,-0.48046875 -0.292969,-0.84375005 -0.691406,-0.84375005 -0.351563,0 -0.609375,0.23437505 -0.609375,0.5507813 0,0.22265625 0.07031,0.33984375 0.292968,0.55078125 0.1875,0.1640625 0.246094,0.2578125 0.246094,0.38671875 0,0.31640625 -0.269531,0.64453125 -0.902344,1.0664062 z M 16.475977,-4.805 c 0.152343,-0.035156 0.246093,-0.046875 0.375,-0.046875 0.492187,0 0.726562,0.1992187 0.960937,0.84375 0.328125,0.890625 0.949219,3.45703125 0.949219,3.9140625 0,0.1875 -0.08203,0.38671875 -0.257813,0.609375 -0.328125,0.4453125 -0.609375,0.7851562 -0.75,0.9375 -0.257812,0.2578125 -0.386718,0.3632812 -0.539062,0.3632812 -0.08203,0 -0.152344,-0.035156 -0.292969,-0.140625 C 16.745508,1.5348437 16.62832,1.47625 16.475977,1.47625 c -0.257813,0 -0.46875,0.1992187 -0.46875,0.46875 0,0.3164062 0.257812,0.5273437 0.621093,0.5273437 0.761719,0 2.320313,-1.7929687 3.632813,-4.171875 0.820312,-1.4765625 1.148437,-2.34375 1.148437,-2.9296875 0,-0.3632812 -0.292968,-0.6679687 -0.65625,-0.6679687 -0.28125,0 -0.46875,0.1875 -0.46875,0.4453125 0,0.1992187 0.09375,0.3164062 0.339844,0.46875 0.222656,0.140625 0.304688,0.2460937 0.304688,0.4101562 0,0.4804688 -0.433594,1.40625 -1.464844,3.1054688 l -0.234375,-1.3945313 c -0.1875,-1.0664062 -0.855469,-3.0351562 -1.03125,-3.0351562 h -0.04687 c -0.02344,0.011719 -0.05859,0.011719 -0.117188,0.011719 -0.09375,0.011719 -0.539062,0.09375 -1.171875,0.2109375 -0.05859,0.011719 -0.210937,0.046875 -0.386718,0.070312 z m 10.02832,6.140625 c -0.28125,0.5859375 -0.515625,0.7265625 -1.195313,0.75 H 23.035547 V 2.027031 l 2.296875,-2.3085937 c 1.40625,-1.3945313 1.792969,-2.0039063 1.792969,-2.8007813 0,-1.1367187 -0.855469,-2.0273437 -1.945313,-2.0273437 -0.433594,0 -0.878906,0.1054687 -1.242187,0.3046875 -0.609375,0.3398437 -0.925782,0.75 -1.277344,1.6171875 l 0.246094,0.082031 c 0.445312,-0.7851562 0.960937,-1.125 1.6875,-1.125 0.867187,0 1.5,0.6210938 1.5,1.453125 0,0.2578125 -0.03516,0.4804688 -0.105469,0.6445313 -0.292969,0.6445312 -0.84375,1.40625 -1.628906,2.23828125 L 21.840234,2.8004687 v 0.1992188 h 4.265625 l 0.597657,-1.5820313 z m -0.454102,0.8203125 c 1.488282,-1.2890625 2.097657,-2.07421875 2.636719,-3.3632813 0.339844,-0.796875 0.480469,-1.5585937 0.480469,-2.4492187 0,-0.6914063 -0.09375,-1.4414063 -0.269531,-2.1679688 -0.199219,-0.8085937 -0.375,-1.2421875 -0.914063,-2.203125 l -0.234375,0.058594 c 0.410156,0.9726562 0.585938,1.9453125 0.585938,3.140625 0,1.5234375 -0.410157,3.4570312 -1.007813,4.7578125 -0.339844,0.7734375 -0.703125,1.2773437 -1.441406,2.0507812 z M -139.09043,87.497734 c -0.44531,-1.21875 -0.57422,-1.957031 -0.57422,-3.117187 0,-1.453125 0.32813,-3.164063 0.89063,-4.5 0.39843,-0.949219 0.77343,-1.511719 1.55859,-2.332031 l -0.16406,-0.175782 c -1.5586,1.417969 -2.16797,2.203125 -2.67188,3.457032 -0.3164,0.75 -0.44531,1.488281 -0.44531,2.414062 0,0.925781 0.14063,1.816406 0.41016,2.648438 0.16406,0.503906 0.35156,0.890625 0.77343,1.675781 z m 6.91406,-3.433593 c -0.10547,0.117187 -0.16406,0.1875 -0.26953,0.328125 -0.26953,0.363281 -0.42187,0.480468 -0.5625,0.480468 -0.16406,0 -0.28125,-0.152343 -0.36328,-0.492187 -0.0352,-0.128906 -0.0352,-0.152344 -0.0469,-0.1875 -0.29297,-1.230469 -0.4336,-1.78125 -0.4336,-1.957031 0.53906,-0.9375 0.96094,-1.453125 1.1836,-1.453125 0.0703,0 0.17578,0.03516 0.28125,0.09375 0.15234,0.08203 0.23437,0.105468 0.33984,0.105468 0.23437,0 0.41016,-0.175781 0.41016,-0.433593 0,-0.257813 -0.21094,-0.445313 -0.49219,-0.445313 -0.52735,0 -0.97266,0.433594 -1.81641,1.722656 l -0.1289,-0.65625 c -0.16407,-0.820312 -0.30469,-1.066406 -0.6211,-1.066406 -0.28125,0 -0.66797,0.105469 -1.40625,0.351563 -0.0703,0.02344 -0.0703,0.02344 -0.1289,0.04687 l 0.0469,0.1875 c 0.46875,-0.128907 0.55078,-0.140625 0.66797,-0.140625 0.30469,0 0.375,0.117187 0.53906,0.832031 l 0.35156,1.476562 -0.98437,1.40625 c -0.25781,0.351563 -0.48047,0.574219 -0.60938,0.574219 -0.082,0 -0.19921,-0.03516 -0.3164,-0.105469 -0.15235,-0.09375 -0.28125,-0.128906 -0.38672,-0.128906 -0.23438,0 -0.41016,0.1875 -0.41016,0.421875 0,0.316406 0.23438,0.503906 0.60938,0.503906 0.36328,0 0.51562,-0.105468 1.11328,-0.820312 0.31641,-0.398438 0.58594,-0.761719 1.07812,-1.417969 l 0.36329,1.441406 c 0.15234,0.621094 0.30468,0.796875 0.6914,0.796875 0.45703,0 0.77344,-0.28125 1.46485,-1.359375 z m 1.06348,4.335937 h 3.35156 v -0.175781 h -0.21094 c -0.58593,0 -0.82031,-0.117188 -0.82031,-0.386719 0,-0.105469 0.0352,-0.292969 0.14063,-0.621094 0.0234,-0.09375 0.0351,-0.152343 0.0703,-0.269531 l 1.72266,-6.222656 c 0.0586,-0.222656 0.0703,-0.292969 0.0703,-0.351563 0,-0.04687 -0.0234,-0.08203 -0.0586,-0.08203 0,0 -0.33984,0.05859 -0.98437,0.1875 l -1.07813,0.222656 c -0.0234,0.01172 -0.11718,0.02344 -0.25781,0.04687 v 0.175782 l 0.67969,-0.02344 c 0.28125,-0.01172 0.45703,0.128906 0.45703,0.375 0,0.08203 -0.0234,0.164063 -0.082,0.410156 l -1.65234,5.894532 c -0.14063,0.445312 -0.39844,0.5625 -1.34766,0.65625 z m 3.47168,-1.453125 c 1.01953,-0.5625 1.55859,-1.230469 1.55859,-1.910156 0,-0.480469 -0.29297,-0.84375 -0.6914,-0.84375 -0.35157,0 -0.60938,0.234375 -0.60938,0.550781 0,0.222656 0.0703,0.339844 0.29297,0.550781 0.1875,0.164063 0.24609,0.257813 0.24609,0.386719 0,0.316406 -0.26953,0.644531 -0.90234,1.066406 z m 3.11719,-6.351562 c 0.15234,-0.03516 0.24609,-0.04687 0.375,-0.04687 0.49218,0 0.72656,0.199218 0.96093,0.84375 0.32813,0.890625 0.94922,3.457031 0.94922,3.914062 0,0.1875 -0.082,0.386719 -0.25781,0.609375 -0.32812,0.445313 -0.60937,0.785156 -0.75,0.9375 -0.25781,0.257813 -0.38672,0.363281 -0.53906,0.363281 -0.082,0 -0.15235,-0.03516 -0.29297,-0.140625 -0.17578,-0.140625 -0.29297,-0.199218 -0.44531,-0.199218 -0.25782,0 -0.46875,0.199218 -0.46875,0.46875 0,0.316406 0.25781,0.527343 0.62109,0.527343 0.76172,0 2.32031,-1.792968 3.63281,-4.171875 0.82032,-1.476562 1.14844,-2.34375 1.14844,-2.929687 0,-0.363281 -0.29297,-0.667969 -0.65625,-0.667969 -0.28125,0 -0.46875,0.1875 -0.46875,0.445313 0,0.199218 0.0937,0.316406 0.33984,0.46875 0.22266,0.140625 0.30469,0.246093 0.30469,0.410156 0,0.480469 -0.43359,1.40625 -1.46484,3.105469 l -0.23438,-1.394532 c -0.1875,-1.066406 -0.85547,-3.035156 -1.03125,-3.035156 h -0.0469 c -0.0234,0.01172 -0.0586,0.01172 -0.11719,0.01172 -0.0937,0.01172 -0.53906,0.09375 -1.17187,0.210937 -0.0586,0.01172 -0.21094,0.04687 -0.38672,0.07031 z m 5.70996,7.804687 h 3.35156 v -0.175781 h -0.21094 c -0.58593,0 -0.82031,-0.117188 -0.82031,-0.386719 0,-0.105469 0.0352,-0.292969 0.14063,-0.621094 0.0234,-0.09375 0.0352,-0.152343 0.0703,-0.269531 l 1.72265,-6.222656 c 0.0586,-0.222656 0.0703,-0.292969 0.0703,-0.351563 0,-0.04687 -0.0234,-0.08203 -0.0586,-0.08203 0,0 -0.33984,0.05859 -0.98437,0.1875 l -1.07813,0.222656 c -0.0234,0.01172 -0.11718,0.02344 -0.25781,0.04687 v 0.175782 l 0.67969,-0.02344 c 0.28125,-0.01172 0.45703,0.128906 0.45703,0.375 0,0.08203 -0.0234,0.164063 -0.082,0.410156 l -1.65235,5.894532 c -0.14062,0.445312 -0.39843,0.5625 -1.34765,0.65625 z m 3.76465,-0.84375 c 1.48828,-1.289062 2.09765,-2.074219 2.63671,-3.363281 0.33985,-0.796875 0.48047,-1.558594 0.48047,-2.449219 0,-0.691406 -0.0937,-1.441406 -0.26953,-2.167969 -0.19922,-0.808593 -0.375,-1.242187 -0.91406,-2.203125 l -0.23438,0.05859 c 0.41016,0.972656 0.58594,1.945313 0.58594,3.140625 0,1.523438 -0.41015,3.457031 -1.00781,4.757813 -0.33984,0.773437 -0.70313,1.277343 -1.44141,2.050781 z m -4.52344,-55.892578 c -0.10547,0.117187 -0.16406,0.1875 -0.26953,0.328125 -0.26953,0.363281 -0.42188,0.480469 -0.5625,0.480469 -0.16407,0 -0.28125,-0.152344 -0.36328,-0.492188 -0.0352,-0.128906 -0.0352,-0.152344 -0.0469,-0.1875 -0.29297,-1.230469 -0.43359,-1.78125 -0.43359,-1.957031 0.53906,-0.9375 0.96093,-1.453125 1.18359,-1.453125 0.0703,0 0.17578,0.03516 0.28125,0.09375 0.15234,0.08203 0.23438,0.105469 0.33984,0.105469 0.23438,0 0.41016,-0.175782 0.41016,-0.433594 0,-0.257813 -0.21094,-0.445313 -0.49219,-0.445313 -0.52734,0 -0.97265,0.433594 -1.8164,1.722657 l -0.12891,-0.65625 c -0.16406,-0.820313 -0.30469,-1.066407 -0.62109,-1.066407 -0.28125,0 -0.66797,0.105469 -1.40625,0.351563 -0.0703,0.02344 -0.0703,0.02344 -0.12891,0.04687 l 0.0469,0.1875 c 0.46875,-0.128906 0.55078,-0.140625 0.66796,-0.140625 0.30469,0 0.375,0.117187 0.53907,0.832031 l 0.35156,1.476563 -0.98438,1.40625 c -0.25781,0.351562 -0.48046,0.574218 -0.60937,0.574218 -0.082,0 -0.19922,-0.03516 -0.31641,-0.105468 -0.15234,-0.09375 -0.28125,-0.128907 -0.38672,-0.128907 -0.23437,0 -0.41015,0.1875 -0.41015,0.421875 0,0.316407 0.23437,0.503907 0.60937,0.503907 0.36328,0 0.51563,-0.105469 1.11328,-0.820313 0.31641,-0.398437 0.58594,-0.761719 1.07813,-1.417969 l 0.36328,1.441407 c 0.15234,0.621093 0.30469,0.796875 0.69141,0.796875 0.45703,0 0.77343,-0.28125 1.46484,-1.359375 z m 0,0"
       style="fill:#231f20;fill-opacity:1;fill-rule:nonzero;stroke:none"
       aria-label="(x&#10;2&#10;,y&#10;2&#10;)&#10;(x&#10;1&#10;,y&#10;1&#10;)&#10;x"
       transform="matrix(1.3333333,0,0,1.3333333,280.7,85.406667)" />
    <path
       id="path9"
       d="m 864.25,962.25 h 50"
       style="fill:none;stroke:#231f20;stroke-width:2.5;stroke-linecap:butt;stroke-linejoin:miter;stroke-miterlimit:3.8637;stroke-dasharray:none;stroke-opacity:1"
       transform="matrix(0.13333333,0,0,-0.13333333,0,248.10667)" />
    <path
       id="path10"
       d="m 584.25,670.25 278,167"
       style="fill:none;stroke:#231f20;stroke-width:2.5;stroke-linecap:butt;stroke-linejoin:miter;stroke-miterlimit:3.8637;stroke-dasharray:none;stroke-opacity:1"
       transform="matrix(0.13333333,0,0,-0.13333333,0,248.10667)" />
    <path
       id="path11"
       d="m 859.25,835.25 -7,13 40,7 -25,-33 -8,13"
       style="fill:#231f20;fill-opacity:1;fill-rule:evenodd;stroke:none"
       transform="matrix(0.13333333,0,0,-0.13333333,0,248.10667)" />
    <path
       id="path12"
       d="m 615.25,706.25 h 21 v -30 h -21 v 30"
       style="fill:#ffffff;fill-opacity:1;fill-rule:nonzero;stroke:none"
       transform="matrix(0.13333333,0,0,-0.13333333,0,248.10667)" />
    <path
       id="path13"
       d="m 1474.25,886.25 h 390 v -126 h -390 v 126"
       style="fill:#ffffff;fill-opacity:1;fill-rule:nonzero;stroke:none"
       transform="matrix(0.13333333,0,0,-0.13333333,0,248.10667)" />
    <path
       id="path14"
       d="M 5.0753906,-5.2253125 H 1.1027344 v 0.1289062 c 0.4921875,0.046875 0.609375,0.1054688 0.609375,0.328125 0,0.09375 -0.046875,0.3632813 -0.082031,0.515625 l -0.98437498,3.53906255 c -0.140625,0.4453125 -0.19921875,0.50390625 -0.65625,0.5859375 V 0.00125 H 4.0558594 L 4.5480469,-1.2995313 4.4191406,-1.358125 c -0.375,0.515625 -0.5859375,0.71484375 -0.9257812,0.87890625 -0.2929688,0.140625 -0.84375,0.2109375 -1.453125,0.2109375 -0.4453125,0 -0.6328125,-0.0703125 -0.6328125,-0.26953125 0,-0.09375 0.09375,-0.46875 0.2929687,-1.1601563 L 1.9582031,-2.62375 c 0.1289063,0.011719 0.2460938,0.011719 0.375,0.011719 l 0.3632813,0.011719 c 0.2226562,0.011719 0.421875,0.046875 0.46875,0.09375 0.082031,0.058594 0.09375,0.1171875 0.09375,0.2695312 0,0.1523438 -0.011719,0.2460938 -0.058594,0.421875 L 3.3644531,-1.78 3.9035156,-3.6315625 3.7628906,-3.6667188 C 3.4582031,-2.9870313 3.3761719,-2.9284375 2.6613281,-2.905 c -0.09375,0 -0.3515625,0.011719 -0.6328125,0.011719 l 0.5273438,-1.8632812 c 0.046875,-0.1757813 0.1289062,-0.1992188 0.5859375,-0.1992188 1.2539062,0 1.5351562,0.09375 1.5351562,0.5742188 0,0.1054687 -0.011719,0.234375 -0.011719,0.3632812 l 0.1640625,0.023437 z M 7.3664062,1.0325 C 8.0460937,0.6575 8.409375,0.2121875 8.409375,-0.233125 c 0,-0.328125 -0.1992188,-0.57421875 -0.4570313,-0.57421875 -0.234375,0 -0.4101562,0.1640625 -0.4101562,0.36328125 0,0.15234375 0.046875,0.234375 0.1992187,0.375 C 7.8585937,0.03640625 7.89375,0.10671875 7.89375,0.18875 c 0,0.2109375 -0.1757813,0.43359375 -0.5976563,0.703125 z M 17.842969,-0.12765625 C 17.385937,-0.1628125 17.339062,-0.233125 17.233594,-0.8190625 l -0.75,-4.5234375 h -0.210938 l -2.320312,3.9960937 C 13.319531,-0.28 13.2375,-0.18625 12.921094,-0.12765625 V 0.00125 h 1.5 v -0.12890625 c -0.410157,-0.0351563 -0.46875,-0.0820313 -0.46875,-0.28125 0,-0.15234375 0.02344,-0.22265625 0.152343,-0.4921875 l 0.457032,-0.90234375 h 1.757812 l 0.164063,1.04296875 c 0.01172,0.0703125 0.01172,0.140625 0.01172,0.2109375 0,0.3046875 -0.105468,0.375 -0.621093,0.421875 V 0.00125 h 1.96875 z M 14.7375,-2.0964063 l 1.195312,-2.0859375 0.351563,2.0859375 z M 20.699414,1.0325 c 0.679688,-0.375 1.042969,-0.8203125 1.042969,-1.265625 0,-0.328125 -0.199219,-0.57421875 -0.457031,-0.57421875 -0.234375,0 -0.410157,0.1640625 -0.410157,0.36328125 0,0.15234375 0.04687,0.234375 0.199219,0.375 0.117188,0.10546875 0.152344,0.17578125 0.152344,0.2578125 0,0.2109375 -0.175781,0.43359375 -0.597656,0.703125 z m 11.789063,-6.2578125 h -1.59375 v 0.1289062 c 0.457031,0.035156 0.550781,0.1171875 0.550781,0.4101563 0,0.09375 -0.01172,0.1757812 -0.07031,0.3515625 0,0.023437 -0.01172,0.058594 -0.01172,0.058594 l -0.820313,3.046875 -1.664062,-3.9960937 H 27.59004 v 0.1289062 c 0.375,0.035156 0.539063,0.140625 0.691406,0.4453125 L 27.332227,-1.31125 c -0.304688,1.01953125 -0.375,1.125 -0.832032,1.18359375 V 0.00125 h 1.59375 v -0.12890625 c -0.421875,-0.0351563 -0.5625,-0.1171875 -0.5625,-0.33984375 0,-0.10546875 0.02344,-0.26953125 0.07031,-0.43359375 l 0.914062,-3.37500005 1.839844,4.3945313 h 0.140625 l 1.160156,-4.0195313 c 0.292969,-1.0429687 0.328125,-1.0898437 0.832032,-1.1953125 z M -52.507617,16.061797 c -0.421875,0.527344 -0.539063,0.632812 -0.667969,0.632812 -0.05859,0 -0.08203,-0.04687 -0.08203,-0.140625 0,-0.04687 0,-0.04687 0.152344,-0.621093 l 0.632812,-2.390625 h -0.597656 c -0.433594,1.183593 -0.515625,1.382812 -0.878906,1.957031 -0.480469,0.75 -0.878907,1.160156 -1.125,1.160156 -0.105469,0 -0.175782,-0.08203 -0.175782,-0.199219 0,-0.02344 0,-0.04687 0.01172,-0.07031 l 0.726563,-2.90625 -0.02344,-0.01172 c -0.46875,0.105469 -0.761719,0.152344 -1.195312,0.210938 v 0.117187 c 0.316406,0 0.316406,0 0.398437,0.04687 0.03516,0.01172 0.08203,0.08203 0.08203,0.140625 0,0.07031 -0.04687,0.269531 -0.117187,0.539063 l -0.292969,1.136718 c -0.152344,0.585938 -0.199219,0.84375 -0.199219,0.984375 0,0.292969 0.140625,0.445313 0.421875,0.445313 0.5625,0 0.996094,-0.433594 1.910157,-1.980469 -0.234375,0.867188 -0.363282,1.394531 -0.363282,1.570313 0,0.257812 0.152344,0.386718 0.386719,0.386718 0.375,0 0.550781,-0.152343 1.101563,-0.9375 z m 2.695312,3.9375 h 2.238282 v -0.117188 h -0.140625 c -0.386719,0 -0.550782,-0.07031 -0.550782,-0.257812 0,-0.07031 0.02344,-0.1875 0.09375,-0.421875 0.02344,-0.04687 0.03516,-0.09375 0.05859,-0.175781 l 1.136719,-4.148438 c 0.04687,-0.140625 0.04687,-0.199219 0.04687,-0.234375 0,-0.03516 -0.01172,-0.05859 -0.03516,-0.05859 0,0 -0.222657,0.04687 -0.65625,0.128907 l -0.726563,0.152343 c -0.01172,0 -0.07031,0.01172 -0.164062,0.02344 v 0.117187 l 0.457031,-0.01172 c 0.1875,-0.01172 0.304687,0.09375 0.304687,0.246093 0,0.05859 -0.01172,0.117188 -0.05859,0.28125 l -1.101563,3.9375 c -0.09375,0.292969 -0.269531,0.375 -0.902344,0.421875 z M -80.50957,-7.2380078 c -0.421875,0.5273437 -0.539063,0.6328125 -0.667969,0.6328125 -0.05859,0 -0.08203,-0.046875 -0.08203,-0.140625 0,-0.046875 0,-0.046875 0.152343,-0.6210938 l 0.632813,-2.390625 h -0.597656 c -0.433594,1.1835938 -0.515625,1.3828125 -0.878907,1.9570313 -0.480468,0.75 -0.878906,1.1601562 -1.125,1.1601562 -0.105468,0 -0.175781,-0.082031 -0.175781,-0.1992187 0,-0.023437 0,-0.046875 0.01172,-0.070312 l 0.726562,-2.90625 -0.02344,-0.011719 c -0.46875,0.1054688 -0.761719,0.1523438 -1.195313,0.2109375 v 0.1171875 c 0.316407,0 0.316407,0 0.398438,0.046875 0.03516,0.011719 0.08203,0.082031 0.08203,0.140625 0,0.070312 -0.04687,0.2695313 -0.117187,0.5390625 l -0.292969,1.1367188 c -0.152344,0.5859375 -0.199219,0.84375 -0.199219,0.984375 0,0.2929687 0.140625,0.4453125 0.421875,0.4453125 0.5625,0 0.996094,-0.4335938 1.910156,-1.9804688 -0.234375,0.8671875 -0.363281,1.3945313 -0.363281,1.5703125 0,0.2578125 0.152344,0.3867188 0.386719,0.3867188 0.375,0 0.550781,-0.1523438 1.101562,-0.9375 z m 5.507812,2.8242187 c -0.1875,0.3984375 -0.339844,0.4921875 -0.785156,0.5039063 h -1.523438 v -0.035156 l 1.535157,-1.5351562 c 0.9375,-0.9375 1.195312,-1.3476563 1.195312,-1.875 0,-0.7617188 -0.574219,-1.359375 -1.300781,-1.359375 -0.292969,0 -0.585938,0.070312 -0.820313,0.2109375 -0.410156,0.2226562 -0.632812,0.4921875 -0.855468,1.078125 l 0.164062,0.046875 c 0.292969,-0.515625 0.644531,-0.75 1.125,-0.75 0.574219,0 0.996094,0.421875 0.996094,0.9726562 0,0.1757813 -0.02344,0.328125 -0.07031,0.4335938 -0.199218,0.4335937 -0.5625,0.9375 -1.078125,1.4882812 l -1.6875,1.7929688 v 0.140625 h 2.847657 L -74.86113,-4.355195 Z M 86.992383,-71.538789 c -0.421875,0.527344 -0.539063,0.632812 -0.667969,0.632812 -0.05859,0 -0.08203,-0.04687 -0.08203,-0.140625 0,-0.04687 0,-0.04687 0.152344,-0.621093 l 0.632812,-2.390625 h -0.597656 c -0.433594,1.183593 -0.515625,1.382812 -0.878906,1.957031 -0.480469,0.75 -0.878907,1.160156 -1.125,1.160156 -0.105469,0 -0.175782,-0.08203 -0.175782,-0.199219 0,-0.02344 0,-0.04687 0.01172,-0.07031 l 0.726563,-2.90625 -0.02344,-0.01172 c -0.46875,0.105469 -0.761719,0.152344 -1.195312,0.210938 v 0.117187 c 0.316406,0 0.316406,0 0.398437,0.04687 0.03516,0.01172 0.08203,0.08203 0.08203,0.140625 0,0.07031 -0.04687,0.269531 -0.117187,0.539063 l -0.292969,1.136718 c -0.152344,0.585938 -0.199219,0.84375 -0.199219,0.984375 0,0.292969 0.140625,0.445313 0.421875,0.445313 0.5625,0 0.996094,-0.433594 1.910157,-1.980469 -0.234375,0.867188 -0.363282,1.394531 -0.363282,1.570313 0,0.257812 0.152344,0.386718 0.386719,0.386718 0.375,0 0.550781,-0.152343 1.101563,-0.9375 z m 3.738281,-0.597656 c 0.269531,-0.375 0.550781,-0.539063 0.878906,-0.539063 0.433594,0 0.714844,0.292969 0.714844,0.726563 0,0.339843 -0.164062,0.621093 -0.515625,0.855468 -0.339844,0.234375 -0.679687,0.351563 -1.394531,0.480469 l 0.01172,0.117188 c 0.445312,0 0.527343,0.01172 0.726562,0.08203 0.492188,0.1875 0.75,0.621094 0.75,1.253906 0,0.28125 -0.05859,0.574219 -0.175781,0.761719 -0.1875,0.328125 -0.539063,0.550781 -0.867188,0.550781 -0.152343,0 -0.339843,-0.08203 -0.574218,-0.257812 -0.234375,-0.164063 -0.363282,-0.222657 -0.515625,-0.222657 -0.222657,0 -0.351563,0.105469 -0.351563,0.304688 0,0.304687 0.328125,0.480469 0.902344,0.480469 0.445312,0 0.867187,-0.105469 1.195312,-0.292969 0.621094,-0.375 1.03125,-1.042969 1.03125,-1.757813 0,-0.585937 -0.234375,-0.949218 -0.761718,-1.195312 v -0.02344 c 0.960937,-0.375 1.242187,-0.644531 1.242187,-1.183593 0,-0.585938 -0.480469,-1.019532 -1.125,-1.019532 -0.550781,0 -1.042969,0.316407 -1.300781,0.832032 z M 64.392773,-95.43625 c -0.421875,0.527344 -0.539062,0.632812 -0.667968,0.632812 -0.05859,0 -0.08203,-0.04687 -0.08203,-0.140625 0,-0.04687 0,-0.04687 0.152344,-0.621093 l 0.632813,-2.390625 h -0.597657 c -0.433593,1.183593 -0.515625,1.382812 -0.878906,1.957031 -0.480469,0.75 -0.878906,1.160156 -1.125,1.160156 -0.105469,0 -0.175781,-0.08203 -0.175781,-0.199219 0,-0.02344 0,-0.04687 0.01172,-0.07031 l 0.726562,-2.90625 -0.02344,-0.01172 c -0.46875,0.105469 -0.761719,0.152344 -1.195313,0.210938 v 0.117187 c 0.316406,0 0.316406,0 0.398438,0.04687 0.03516,0.01172 0.08203,0.08203 0.08203,0.140625 0,0.07031 -0.04687,0.269531 -0.117188,0.539063 l -0.292968,1.136718 c -0.152344,0.585938 -0.199219,0.84375 -0.199219,0.984375 0,0.292969 0.140625,0.445313 0.421875,0.445313 0.5625,0 0.996094,-0.433594 1.910156,-1.980469 -0.234375,0.867188 -0.363281,1.394531 -0.363281,1.570313 0,0.257812 0.152344,0.386718 0.386719,0.386718 0.375,0 0.550781,-0.152343 1.101562,-0.9375 z m 5.929688,2.003906 h -0.75 l 0.960937,-3.480469 h -0.328125 l -3.339843,3.457032 -0.152344,0.527343 h 2.097656 l -0.398437,1.429688 h 0.632812 l 0.375,-1.40625 h 0.796875 z m -1.40625,0 h -1.699219 v -0.02344 l 2.4375,-2.554688 h 0.03516 z m 0,0"
       style="fill:#231f20;fill-opacity:1;fill-rule:nonzero;stroke:none"
       aria-label="E, A, N&#10;u&#10;1&#10;u&#10;2&#10;u&#10;3&#10;u&#10;4"
       transform="matrix(1.3333333,0,0,1.3333333,199.1,142.87333)" />
    <path
       id="path15"
       d="m 607.25,615.25 1414,850 37,-61 -1415,-851 z"
       style="fill:none;stroke:#231f20;stroke-width:5;stroke-linecap:butt;stroke-linejoin:miter;stroke-miterlimit:3.8637;stroke-dasharray:none;stroke-opacity:1"
       transform="matrix(0.13333333,0,0,-0.13333333,0,248.10667)" />
    <path
       id="path16"
       d="m 624.25,838.25 v -260"
       style="fill:none;stroke:#231f20;stroke-width:2.5;stroke-linecap:butt;stroke-linejoin:miter;stroke-miterlimit:3.8637;stroke-dasharray:none;stroke-opacity:1"
       transform="matrix(0.13333333,0,0,-0.13333333,0,248.10667)" />
    <path
       id="path17"
       d="m 624.25,835.25 h -15 l 15,38 15,-38 h -15"
       style="fill:#231f20;fill-opacity:1;fill-rule:evenodd;stroke:none"
       transform="matrix(0.13333333,0,0,-0.13333333,0,248.10667)" />
    <path
       id="path18"
       d="m 624.25,578.25 h 259"
       style="fill:none;stroke:#231f20;stroke-width:2.5;stroke-linecap:butt;stroke-linejoin:miter;stroke-miterlimit:3.8637;stroke-dasharray:none;stroke-opacity:1"
       transform="matrix(0.13333333,0,0,-0.13333333,0,248.10667)" />
    <path
       id="path19"
       d="m 881.25,578.25 v 15 l 37,-15 -37,-15 v 15"
       style="fill:#231f20;fill-opacity:1;fill-rule:evenodd;stroke:none"
       transform="matrix(0.13333333,0,0,-0.13333333,0,248.10667)" />
    <path
       id="path20"
       d="m 2040.25,1694.25 v -259"
       style="fill:none;stroke:#231f20;stroke-width:2.5;stroke-linecap:butt;stroke-linejoin:miter;stroke-miterlimit:3.8637;stroke-dasharray:none;stroke-opacity:1"
       transform="matrix(0.13333333,0,0,-0.13333333,0,248.10667)" />
    <path
       id="path21"
       d="m 2040.25,1692.25 h -15 l 15,37 15,-37 h -15"
       style="fill:#231f20;fill-opacity:1;fill-rule:evenodd;stroke:none"
       transform="matrix(0.13333333,0,0,-0.13333333,0,248.10667)" />
    <path
       id="path22"
       d="m 2040.25,1435.25 h 260"
       style="fill:none;stroke:#231f20;stroke-width:2.5;stroke-linecap:butt;stroke-linejoin:miter;stroke-miterlimit:3.8637;stroke-dasharray:none;stroke-opacity:1"
       transform="matrix(0.13333333,0,0,-0.13333333,0,248.10667)" />
    <path
       id="path23"
       d="m 2297.25,1435.25 v 15 l 38,-15 -38,-15 v 15"
       style="fill:#231f20;fill-opacity:1;fill-rule:evenodd;stroke:none"
       transform="matrix(0.13333333,0,0,-0.13333333,0,248.10667)" />
  </g>
</svg>
