<?xml version="1.0" encoding="UTF-8" standalone="no"?>
<!-- Created with Inkscape (http://www.inkscape.org/) -->

<svg
   version="1.1"
   id="svg1"
   width="382.12"
   height="265.17334"
   viewBox="0 0 382.12 265.17334"
   sodipodi:docname="bar3e.svg"
   inkscape:version="1.3 (0e150ed6c4, 2023-07-21)"
   xmlns:inkscape="http://www.inkscape.org/namespaces/inkscape"
   xmlns:sodipodi="http://sodipodi.sourceforge.net/DTD/sodipodi-0.dtd"
   xmlns="http://www.w3.org/2000/svg"
   xmlns:svg="http://www.w3.org/2000/svg">
  <defs
     id="defs1">
    <clipPath
       clipPathUnits="userSpaceOnUse"
       id="clipPath22">
      <path
         d="m 972.25,786.25 1415,850 37,-61 -1415,-850 c -11.973,-7.211 -25.801,1.98 -33,14 -11.215,18.668 -19.223,37.855 -4,47 z"
         transform="translate(0,-2.5000001e-5)"
         id="path22" />
    </clipPath>
    <clipPath
       clipPathUnits="userSpaceOnUse"
       id="clipPath24">
      <path
         d="m 972.25,786.25 1415,850 37,-61 -1415,-850 c -11.973,-7.211 -25.801,1.98 -33,14 -11.215,18.668 -19.223,37.855 -4,47 z"
         transform="translate(0,-2.5000001e-5)"
         id="path24" />
    </clipPath>
    <clipPath
       clipPathUnits="userSpaceOnUse"
       id="clipPath26">
      <path
         d="m 972.25,786.25 1415,850 37,-61 -1415,-850 c -11.973,-7.211 -25.801,1.98 -33,14 -11.215,18.668 -19.223,37.855 -4,47 z"
         transform="translate(0,-2.5000001e-5)"
         id="path26" />
    </clipPath>
    <clipPath
       clipPathUnits="userSpaceOnUse"
       id="clipPath28">
      <path
         d="m 972.25,786.25 1415,850 37,-61 -1415,-850 c -11.973,-7.211 -25.801,1.98 -33,14 -11.215,18.668 -19.223,37.855 -4,47 z"
         transform="translate(0,-2.5000001e-5)"
         id="path28" />
    </clipPath>
    <clipPath
       clipPathUnits="userSpaceOnUse"
       id="clipPath30">
      <path
         d="m 972.25,786.25 1415,850 37,-61 -1415,-850 c -11.973,-7.211 -25.801,1.98 -33,14 -11.215,18.668 -19.223,37.855 -4,47 z"
         transform="translate(0,-2.5000001e-5)"
         id="path30" />
    </clipPath>
    <clipPath
       clipPathUnits="userSpaceOnUse"
       id="clipPath32">
      <path
         d="m 972.25,786.25 1415,850 37,-61 -1415,-850 c -11.973,-7.211 -25.801,1.98 -33,14 -11.215,18.668 -19.223,37.855 -4,47 z"
         transform="translate(0,-2.5000001e-5)"
         id="path32" />
    </clipPath>
    <clipPath
       clipPathUnits="userSpaceOnUse"
       id="clipPath34">
      <path
         d="m 972.25,786.25 1415,850 37,-61 -1415,-850 c -11.973,-7.211 -25.801,1.98 -33,14 -11.215,18.668 -19.223,37.855 -4,47 z"
         transform="translate(0,-2.5000001e-5)"
         id="path34" />
    </clipPath>
    <clipPath
       clipPathUnits="userSpaceOnUse"
       id="clipPath36">
      <path
         d="m 972.25,786.25 1415,850 37,-61 -1415,-850 c -11.973,-7.211 -25.801,1.98 -33,14 -11.215,18.668 -19.223,37.855 -4,47 z"
         transform="translate(0,-2.5000001e-5)"
         id="path36" />
    </clipPath>
    <clipPath
       clipPathUnits="userSpaceOnUse"
       id="clipPath38">
      <path
         d="m 972.25,786.25 1415,850 37,-61 -1415,-850 c -11.973,-7.211 -25.801,1.98 -33,14 -11.215,18.668 -19.223,37.855 -4,47 z"
         transform="translate(0,-2.5000001e-5)"
         id="path38" />
    </clipPath>
    <clipPath
       clipPathUnits="userSpaceOnUse"
       id="clipPath40">
      <path
         d="m 972.25,786.25 1415,850 37,-61 -1415,-850 c -11.973,-7.211 -25.801,1.98 -33,14 -11.215,18.668 -19.223,37.855 -4,47 z"
         transform="translate(0,-2.5000001e-5)"
         id="path40" />
    </clipPath>
    <clipPath
       clipPathUnits="userSpaceOnUse"
       id="clipPath42">
      <path
         d="m 972.25,786.25 1415,850 37,-61 -1415,-850 c -11.973,-7.211 -25.801,1.98 -33,14 -11.215,18.668 -19.223,37.855 -4,47 z"
         transform="translate(0,-2.5000001e-5)"
         id="path42" />
    </clipPath>
    <clipPath
       clipPathUnits="userSpaceOnUse"
       id="clipPath44">
      <path
         d="m 972.25,786.25 1415,850 37,-61 -1415,-850 c -11.973,-7.211 -25.801,1.98 -33,14 -11.215,18.668 -19.223,37.855 -4,47 z"
         transform="translate(0,-2.5000001e-5)"
         id="path44" />
    </clipPath>
    <clipPath
       clipPathUnits="userSpaceOnUse"
       id="clipPath46">
      <path
         d="m 972.25,786.25 1415,850 37,-61 -1415,-850 c -11.973,-7.211 -25.801,1.98 -33,14 -11.215,18.668 -19.223,37.855 -4,47 z"
         transform="translate(0,-2.5000001e-5)"
         id="path46" />
    </clipPath>
    <clipPath
       clipPathUnits="userSpaceOnUse"
       id="clipPath48">
      <path
         d="m 972.25,786.25 1415,850 37,-61 -1415,-850 c -11.973,-7.211 -25.801,1.98 -33,14 -11.215,18.668 -19.223,37.855 -4,47 z"
         transform="translate(0,-2.5000001e-5)"
         id="path48" />
    </clipPath>
    <clipPath
       clipPathUnits="userSpaceOnUse"
       id="clipPath50">
      <path
         d="m 972.25,786.25 1415,850 37,-61 -1415,-850 c -11.973,-7.211 -25.801,1.98 -33,14 -11.215,18.668 -19.223,37.855 -4,47 z"
         transform="translate(0,-2.5000001e-5)"
         id="path50" />
    </clipPath>
    <clipPath
       clipPathUnits="userSpaceOnUse"
       id="clipPath52">
      <path
         d="m 972.25,786.25 1415,850 37,-61 -1415,-850 c -11.973,-7.211 -25.801,1.98 -33,14 -11.215,18.668 -19.223,37.855 -4,47 z"
         transform="translate(0,-2.5000001e-5)"
         id="path52" />
    </clipPath>
    <clipPath
       clipPathUnits="userSpaceOnUse"
       id="clipPath54">
      <path
         d="m 972.25,786.25 1415,850 37,-61 -1415,-850 c -11.973,-7.211 -25.801,1.98 -33,14 -11.215,18.668 -19.223,37.855 -4,47 z"
         transform="translate(0,-2.5000001e-5)"
         id="path54" />
    </clipPath>
    <clipPath
       clipPathUnits="userSpaceOnUse"
       id="clipPath56">
      <path
         d="m 972.25,786.25 1415,850 37,-61 -1415,-850 c -11.973,-7.211 -25.801,1.98 -33,14 -11.215,18.668 -19.223,37.855 -4,47 z"
         transform="translate(0,-2.5000001e-5)"
         id="path56" />
    </clipPath>
    <clipPath
       clipPathUnits="userSpaceOnUse"
       id="clipPath58">
      <path
         d="m 972.25,786.25 1415,850 37,-61 -1415,-850 c -11.973,-7.211 -25.801,1.98 -33,14 -11.215,18.668 -19.223,37.855 -4,47 z"
         transform="translate(0,-2.5000001e-5)"
         id="path58" />
    </clipPath>
    <clipPath
       clipPathUnits="userSpaceOnUse"
       id="clipPath60">
      <path
         d="m 972.25,786.25 1415,850 37,-61 -1415,-850 c -11.973,-7.211 -25.801,1.98 -33,14 -11.215,18.668 -19.223,37.855 -4,47 z"
         transform="translate(0,-2.5000001e-5)"
         id="path60" />
    </clipPath>
  </defs>
  <sodipodi:namedview
     id="namedview1"
     pagecolor="#ffffff"
     bordercolor="#000000"
     borderopacity="0.25"
     inkscape:showpageshadow="2"
     inkscape:pageopacity="0.0"
     inkscape:pagecheckerboard="0"
     inkscape:deskcolor="#d1d1d1"
     inkscape:zoom="2.8057119"
     inkscape:cx="191.03886"
     inkscape:cy="104.07341"
     inkscape:window-width="1920"
     inkscape:window-height="974"
     inkscape:window-x="-11"
     inkscape:window-y="-11"
     inkscape:window-maximized="1"
     inkscape:current-layer="g1">
    <inkscape:page
       x="0"
       y="0"
       inkscape:label="1"
       id="page1"
       width="382.12"
       height="265.17334"
       margin="0"
       bleed="0" />
  </sodipodi:namedview>
  <g
     id="g1"
     inkscape:groupmode="layer"
     inkscape:label="1">
    <path
       id="path2"
       d="m 1982.25,1080.25 c -34.92,-1.13 -100.96,7.14 -149,44 -36.34,27.96 -48.44,41.3 -71,93"
       style="fill:none;stroke:#231f20;stroke-width:2.5;stroke-linecap:butt;stroke-linejoin:miter;stroke-miterlimit:3.8637;stroke-dasharray:none;stroke-opacity:1"
       transform="matrix(0.13333333,0,0,-0.13333333,0,265.17333)" />
    <path
       id="path4"
       d="m 485.25,310.25 -372,-289"
       style="fill:none;stroke:#231f20;stroke-width:2.5;stroke-linecap:butt;stroke-linejoin:miter;stroke-miterlimit:3.8637;stroke-dasharray:none;stroke-opacity:1"
       transform="matrix(0.13333333,0,0,-0.13333333,0,265.17333)" />
    <path
       id="path5"
       d="m 115.25,23.25 10,-12 -39,-11 20,35 9,-12"
       style="fill:#231f20;fill-opacity:1;fill-rule:evenodd;stroke:none"
       transform="matrix(0.13333333,0,0,-0.13333333,0,265.17333)" />
    <path
       id="path6"
       d="m 485.25,1024.25 v -714"
       style="fill:none;stroke:#231f20;stroke-width:2.5;stroke-linecap:butt;stroke-linejoin:miter;stroke-miterlimit:3.8637;stroke-dasharray:none;stroke-opacity:1"
       transform="matrix(0.13333333,0,0,-0.13333333,0,265.17333)" />
    <path
       id="path7"
       d="m 485.25,1022.25 h -15 l 15,37 15,-37 h -15"
       style="fill:#231f20;fill-opacity:1;fill-rule:evenodd;stroke:none"
       transform="matrix(0.13333333,0,0,-0.13333333,0,265.17333)" />
    <path
       id="path8"
       d="m 485.25,310.25 h 714"
       style="fill:none;stroke:#231f20;stroke-width:2.5;stroke-linecap:butt;stroke-linejoin:miter;stroke-miterlimit:3.8637;stroke-dasharray:none;stroke-opacity:1"
       transform="matrix(0.13333333,0,0,-0.13333333,0,265.17333)" />
    <path
       id="path9"
       d="m 1197.25,310.25 v 15 l 37,-15 -37,-15 v 15"
       style="fill:#231f20;fill-opacity:1;fill-rule:evenodd;stroke:none"
       transform="matrix(0.13333333,0,0,-0.13333333,0,265.17333)" />
    <path
       id="path11"
       d="m 1232.25,1114.25 h 49"
       style="fill:none;stroke:#231f20;stroke-width:2.5;stroke-linecap:butt;stroke-linejoin:miter;stroke-miterlimit:3.8637;stroke-dasharray:none;stroke-opacity:1"
       transform="matrix(0.13333333,0,0,-0.13333333,0,265.17333)" />
    <path
       id="path12"
       d="m 952.25,822.25 277,166"
       style="fill:none;stroke:#231f20;stroke-width:2.5;stroke-linecap:butt;stroke-linejoin:miter;stroke-miterlimit:3.8637;stroke-dasharray:none;stroke-opacity:1"
       transform="matrix(0.13333333,0,0,-0.13333333,0,265.17333)" />
    <path
       id="path13"
       d="m 1227.25,987.25 -7,13 39,6 -24,-32 -8,13"
       style="fill:#231f20;fill-opacity:1;fill-rule:evenodd;stroke:none"
       transform="matrix(0.13333333,0,0,-0.13333333,0,265.17333)" />
    <path
       id="path14"
       d="m 975.25,864.25 h 22 v -39 h -22 v 39"
       style="fill:#ffffff;fill-opacity:1;fill-rule:nonzero;stroke:none"
       transform="matrix(0.13333333,0,0,-0.13333333,0,265.17333)" />
    <path
       id="path15"
       d="m 984.25,754.25 -134,-105"
       style="fill:none;stroke:#231f20;stroke-width:2.5;stroke-linecap:butt;stroke-linejoin:miter;stroke-miterlimit:3.8637;stroke-dasharray:none;stroke-opacity:1"
       transform="matrix(0.13333333,0,0,-0.13333333,0,265.17333)" />
    <path
       id="path16"
       d="m 852.25,651.25 9,-12 -39,-11 20,35 10,-12"
       style="fill:#231f20;fill-opacity:1;fill-rule:evenodd;stroke:none"
       transform="matrix(0.13333333,0,0,-0.13333333,0,265.17333)" />
    <path
       id="path17"
       d="m 984.25,1013.25 v -259"
       style="fill:none;stroke:#231f20;stroke-width:2.5;stroke-linecap:butt;stroke-linejoin:miter;stroke-miterlimit:3.8637;stroke-dasharray:none;stroke-opacity:1"
       transform="matrix(0.13333333,0,0,-0.13333333,0,265.17333)" />
    <path
       id="path18"
       d="m 984.25,1010.25 h -15 l 15,38 15,-38 h -15"
       style="fill:#231f20;fill-opacity:1;fill-rule:evenodd;stroke:none"
       transform="matrix(0.13333333,0,0,-0.13333333,0,265.17333)" />
    <path
       id="path19"
       d="m 984.25,754.25 h 259"
       style="fill:none;stroke:#231f20;stroke-width:2.5;stroke-linecap:butt;stroke-linejoin:miter;stroke-miterlimit:3.8637;stroke-dasharray:none;stroke-opacity:1"
       transform="matrix(0.13333333,0,0,-0.13333333,0,265.17333)" />
    <path
       id="path20"
       d="m 1240.25,754.25 v 15 l 38,-15 -38,-15 v 15"
       style="fill:#231f20;fill-opacity:1;fill-rule:evenodd;stroke:none"
       transform="matrix(0.13333333,0,0,-0.13333333,0,265.17333)" />
    <path
       id="path21"
       d="m 956.25,772.25 -2,3 1433,861 2,-3 z"
       style="fill:#ffffff;fill-opacity:1;fill-rule:nonzero;stroke:none"
       transform="matrix(0.13333333,0,0,-0.13333333,0,265.17333)"
       clip-path="url(#clipPath22)" />
    <path
       id="path23"
       d="m 958.25,769.25 -2,3 1433,861 2,-3 z"
       style="fill:#fafafa;fill-opacity:1;fill-rule:nonzero;stroke:none"
       transform="matrix(0.13333333,0,0,-0.13333333,0,265.17333)"
       clip-path="url(#clipPath24)" />
    <path
       id="path25"
       d="m 960.25,766.25 -2,3 1433,861 2,-3 z"
       style="fill:#f6f6f6;fill-opacity:1;fill-rule:nonzero;stroke:none"
       transform="matrix(0.13333333,0,0,-0.13333333,0,265.17333)"
       clip-path="url(#clipPath26)" />
    <path
       id="path27"
       d="m 962.25,763.25 -2,3 1433,861 2,-3 z"
       style="fill:#f1f1f1;fill-opacity:1;fill-rule:nonzero;stroke:none"
       transform="matrix(0.13333333,0,0,-0.13333333,0,265.17333)"
       clip-path="url(#clipPath28)" />
    <path
       id="path29"
       d="m 963.25,760.25 -1,3 1433,861 1,-3 z"
       style="fill:#ececec;fill-opacity:1;fill-rule:nonzero;stroke:none"
       transform="matrix(0.13333333,0,0,-0.13333333,0,265.17333)"
       clip-path="url(#clipPath30)" />
    <path
       id="path31"
       d="m 965.25,757.25 -2,3 1433,861 2,-3 z"
       style="fill:#e8e7e8;fill-opacity:1;fill-rule:nonzero;stroke:none"
       transform="matrix(0.13333333,0,0,-0.13333333,0,265.17333)"
       clip-path="url(#clipPath32)" />
    <path
       id="path33"
       d="m 967.25,754.25 -2,3 1433,861 2,-3 z"
       style="fill:#e3e3e3;fill-opacity:1;fill-rule:nonzero;stroke:none"
       transform="matrix(0.13333333,0,0,-0.13333333,0,265.17333)"
       clip-path="url(#clipPath34)" />
    <path
       id="path35"
       d="m 969.25,751.25 -2,3 1433,861 2,-3 z"
       style="fill:#dfdede;fill-opacity:1;fill-rule:nonzero;stroke:none"
       transform="matrix(0.13333333,0,0,-0.13333333,0,265.17333)"
       clip-path="url(#clipPath36)" />
    <path
       id="path37"
       d="m 971.25,748.25 -2,3 1433,861 2,-3 z"
       style="fill:#dad9d9;fill-opacity:1;fill-rule:nonzero;stroke:none"
       transform="matrix(0.13333333,0,0,-0.13333333,0,265.17333)"
       clip-path="url(#clipPath38)" />
    <path
       id="path39"
       d="m 973.25,745.25 -2,3 1433,861 2,-3 z"
       style="fill:#d5d5d5;fill-opacity:1;fill-rule:nonzero;stroke:none"
       transform="matrix(0.13333333,0,0,-0.13333333,0,265.17333)"
       clip-path="url(#clipPath40)" />
    <path
       id="path41"
       d="m 974.25,742.25 -1,3 1433,861 1,-3 z"
       style="fill:#d1d0d0;fill-opacity:1;fill-rule:nonzero;stroke:none"
       transform="matrix(0.13333333,0,0,-0.13333333,0,265.17333)"
       clip-path="url(#clipPath42)" />
    <path
       id="path43"
       d="m 976.25,739.25 -2,3 1433,861 2,-3 z"
       style="fill:#cccbcb;fill-opacity:1;fill-rule:nonzero;stroke:none"
       transform="matrix(0.13333333,0,0,-0.13333333,0,265.17333)"
       clip-path="url(#clipPath44)" />
    <path
       id="path45"
       d="m 978.25,736.25 -2,3 1433,861 2,-3 z"
       style="fill:#c7c6c7;fill-opacity:1;fill-rule:nonzero;stroke:none"
       transform="matrix(0.13333333,0,0,-0.13333333,0,265.17333)"
       clip-path="url(#clipPath46)" />
    <path
       id="path47"
       d="m 980.25,732.25 -2,4 1433,861 2,-3 z"
       style="fill:#c3c2c2;fill-opacity:1;fill-rule:nonzero;stroke:none"
       transform="matrix(0.13333333,0,0,-0.13333333,0,265.17333)"
       clip-path="url(#clipPath48)" />
    <path
       id="path49"
       d="m 982.25,729.25 -2,3 1433,862 2,-4 z"
       style="fill:#bebdbd;fill-opacity:1;fill-rule:nonzero;stroke:none"
       transform="matrix(0.13333333,0,0,-0.13333333,0,265.17333)"
       clip-path="url(#clipPath50)" />
    <path
       id="path51"
       d="m 984.25,726.25 -2,3 1433,861 2,-3 z"
       style="fill:#bab8b9;fill-opacity:1;fill-rule:nonzero;stroke:none"
       transform="matrix(0.13333333,0,0,-0.13333333,0,265.17333)"
       clip-path="url(#clipPath52)" />
    <path
       id="path53"
       d="m 985.25,723.25 -1,3 1433,861 1,-3 z"
       style="fill:#b5b4b4;fill-opacity:1;fill-rule:nonzero;stroke:none"
       transform="matrix(0.13333333,0,0,-0.13333333,0,265.17333)"
       clip-path="url(#clipPath54)" />
    <path
       id="path55"
       d="m 987.25,720.25 -2,3 1433,861 2,-3 z"
       style="fill:#b0afaf;fill-opacity:1;fill-rule:nonzero;stroke:none"
       transform="matrix(0.13333333,0,0,-0.13333333,0,265.17333)"
       clip-path="url(#clipPath56)" />
    <path
       id="path57"
       d="m 989.25,717.25 -2,3 1433,861 2,-3 z"
       style="fill:#acaaab;fill-opacity:1;fill-rule:nonzero;stroke:none"
       transform="matrix(0.13333333,0,0,-0.13333333,0,265.17333)"
       clip-path="url(#clipPath58)" />
    <path
       id="path59"
       d="m 991.25,714.25 -2,3 1433,861 2,-3 z"
       style="fill:#a7a5a6;fill-opacity:1;fill-rule:nonzero;stroke:none"
       transform="matrix(0.13333333,0,0,-0.13333333,0,265.17333)"
       clip-path="url(#clipPath60)" />
    <path
       id="path61"
       d="m 972.25,786.25 1415,850 37,-61 -1415,-850 c -11.973,-7.211 -25.801,1.98 -33,14 -11.215,18.668 -19.223,37.855 -4,47 z"
       style="fill:none;stroke:#231f20;stroke-width:5;stroke-linecap:butt;stroke-linejoin:miter;stroke-miterlimit:3.8637;stroke-dasharray:none;stroke-opacity:1"
       transform="matrix(0.13333333,0,0,-0.13333333,0,265.17333)" />
    <path
       id="path62"
       d="m 2425.25,1618.25 c 9.49,-16.95 8.47,-35.83 -3,-43 -10.96,-6.31 -28.12,1.66 -38,18 -10.02,16.78 -9,35.67 2,42 11.43,7.14 28.59,-0.82 39,-17"
       style="fill:#d3d2d2;fill-opacity:1;fill-rule:nonzero;stroke:none"
       transform="matrix(0.13333333,0,0,-0.13333333,0,265.17333)" />
    <path
       id="path63"
       d="m 2425.25,1618.25 c 9.49,-16.95 8.47,-35.83 -3,-43 -10.96,-6.31 -28.12,1.66 -38,18 -10.02,16.78 -9,35.67 2,42 11.43,7.14 28.59,-0.82 39,-17 z"
       style="fill:none;stroke:#231f20;stroke-width:5;stroke-linecap:butt;stroke-linejoin:miter;stroke-miterlimit:3.8637;stroke-dasharray:none;stroke-opacity:1"
       transform="matrix(0.13333333,0,0,-0.13333333,0,265.17333)" />
    <path
       id="path65"
       d="m 2367.25,1576.25 -151,-115"
       style="fill:none;stroke:#ffffff;stroke-width:40;stroke-linecap:round;stroke-linejoin:miter;stroke-miterlimit:3.8637;stroke-dasharray:none;stroke-opacity:1"
       transform="matrix(0.13333333,0,0,-0.13333333,0,265.17333)" />
    <path
       id="path66"
       d="m 2404.25,1605.25 -134,-104"
       style="fill:none;stroke:#231f20;stroke-width:2.5;stroke-linecap:butt;stroke-linejoin:miter;stroke-miterlimit:3.8637;stroke-dasharray:none;stroke-opacity:1"
       transform="matrix(0.13333333,0,0,-0.13333333,0,265.17333)" />
    <path
       id="path67"
       d="m 2272.25,1502.25 9,-12 -39,-11 20,35 10,-12"
       style="fill:#231f20;fill-opacity:1;fill-rule:evenodd;stroke:none"
       transform="matrix(0.13333333,0,0,-0.13333333,0,265.17333)" />
    <path
       id="path68"
       d="m 2404.25,1864.25 v -259"
       style="fill:none;stroke:#231f20;stroke-width:2.5;stroke-linecap:butt;stroke-linejoin:miter;stroke-miterlimit:3.8637;stroke-dasharray:none;stroke-opacity:1"
       transform="matrix(0.13333333,0,0,-0.13333333,0,265.17333)" />
    <path
       id="path69"
       d="m 2404.25,1861.25 h -15 l 15,38 15,-38 h -15"
       style="fill:#231f20;fill-opacity:1;fill-rule:evenodd;stroke:none"
       transform="matrix(0.13333333,0,0,-0.13333333,0,265.17333)" />
    <path
       id="path70"
       d="m 2404.25,1605.25 h 259"
       style="fill:none;stroke:#231f20;stroke-width:2.5;stroke-linecap:butt;stroke-linejoin:miter;stroke-miterlimit:3.8637;stroke-dasharray:none;stroke-opacity:1"
       transform="matrix(0.13333333,0,0,-0.13333333,0,265.17333)" />
    <path
       id="path71"
       d="m 2661.25,1605.25 v 15 l 37,-15 -37,-15 v 15"
       style="fill:#231f20;fill-opacity:1;fill-rule:evenodd;stroke:none"
       transform="matrix(0.13333333,0,0,-0.13333333,0,265.17333)" />
    <text
       xml:space="preserve"
       style="font-style:italic;font-variant:normal;font-weight:normal;font-stretch:normal;font-size:16px;font-family:'Times New Roman';-inkscape-font-specification:'Times New Roman, Italic';font-variant-ligatures:normal;font-variant-caps:normal;font-variant-numeric:normal;font-variant-east-asian:normal;fill:#000000"
       x="153.95909"
       y="239.34802"
       id="text3"><tspan
         sodipodi:role="line"
         id="tspan3"
         x="153.95909"
         y="239.34802">x</tspan></text>
    <text
       xml:space="preserve"
       style="font-style:italic;font-variant:normal;font-weight:normal;font-stretch:normal;font-size:16px;font-family:'Times New Roman';-inkscape-font-specification:'Times New Roman, Italic';font-variant-ligatures:normal;font-variant-caps:normal;font-variant-numeric:normal;font-variant-east-asian:normal;fill:#000000"
       x="47.246552"
       y="131.96852"
       id="text4"><tspan
         sodipodi:role="line"
         id="tspan4"
         x="47.246552"
         y="131.96852">y</tspan></text>
    <text
       xml:space="preserve"
       style="font-style:italic;font-variant:normal;font-weight:normal;font-stretch:normal;font-size:16px;font-family:'Times New Roman';-inkscape-font-specification:'Times New Roman, Italic';font-variant-ligatures:normal;font-variant-caps:normal;font-variant-numeric:normal;font-variant-east-asian:normal;fill:#000000"
       x="5.6478438"
       y="257.46542"
       id="text4-7"><tspan
         sodipodi:role="line"
         id="tspan4-7"
         x="5.6478438"
         y="257.46542">z</tspan></text>
    <text
       xml:space="preserve"
       style="font-family:'Times New Roman';-inkscape-font-specification:'Times New Roman, ';fill:#000000"
       x="11.761721"
       y="255.55011"
       id="text1"><tspan
         sodipodi:role="line"
         id="tspan1"></tspan></text>
    <text
       xml:space="preserve"
       style="font-style:italic;font-variant:normal;font-weight:normal;font-stretch:normal;font-size:16px;font-family:'Times New Roman';-inkscape-font-specification:'Times New Roman, Italic';font-variant-ligatures:normal;font-variant-caps:normal;font-variant-numeric:normal;font-variant-east-asian:normal;fill:#000000"
       x="121.38046"
       y="194.8102"
       id="text5"><tspan
         sodipodi:role="line"
         id="tspan5"
         x="121.38046"
         y="194.8102"><tspan
   style="font-style:normal;font-variant:normal;font-weight:normal;font-stretch:normal;font-size:16px;font-family:'Times New Roman';-inkscape-font-specification:'Times New Roman, Normal';font-variant-ligatures:normal;font-variant-caps:normal;font-variant-numeric:normal;font-variant-east-asian:normal"
   id="tspan6">(</tspan>x<tspan
   style="font-style:normal;font-variant:normal;font-weight:normal;font-stretch:normal;font-size:10.4px;font-family:'Times New Roman';-inkscape-font-specification:'Times New Roman, Normal';font-variant-ligatures:normal;font-variant-caps:normal;font-variant-numeric:normal;font-variant-east-asian:normal;baseline-shift:sub"
   id="tspan8">1 </tspan>, y<tspan
   style="font-style:normal;font-variant:normal;font-weight:normal;font-stretch:normal;font-size:65%;font-family:'Times New Roman';-inkscape-font-specification:'Times New Roman, ';baseline-shift:sub"
   id="tspan2">1 </tspan>, z<tspan
   style="font-style:normal;font-variant:normal;font-weight:normal;font-stretch:normal;font-size:10.4px;font-family:'Times New Roman';-inkscape-font-specification:'Times New Roman, Normal';font-variant-ligatures:normal;font-variant-caps:normal;font-variant-numeric:normal;font-variant-east-asian:normal;baseline-shift:sub"
   id="tspan9">1</tspan><tspan
   style="font-style:normal;font-variant:normal;font-weight:normal;font-stretch:normal;font-size:16px;font-family:'Times New Roman';-inkscape-font-specification:'Times New Roman, Normal';font-variant-ligatures:normal;font-variant-caps:normal;font-variant-numeric:normal;font-variant-east-asian:normal"
   id="tspan7">)</tspan></tspan></text>
    <text
       xml:space="preserve"
       style="font-style:italic;font-variant:normal;font-weight:normal;font-stretch:normal;font-size:16px;font-family:'Times New Roman';-inkscape-font-specification:'Times New Roman, Italic';font-variant-ligatures:normal;font-variant-caps:normal;font-variant-numeric:normal;font-variant-east-asian:normal;fill:#000000"
       x="320.11316"
       y="77.31913"
       id="text5-8"><tspan
         sodipodi:role="line"
         id="tspan5-2"
         x="320.11316"
         y="77.31913"><tspan
   style="font-style:normal;font-variant:normal;font-weight:normal;font-stretch:normal;font-size:16px;font-family:'Times New Roman';-inkscape-font-specification:'Times New Roman, Normal';font-variant-ligatures:normal;font-variant-caps:normal;font-variant-numeric:normal;font-variant-east-asian:normal"
   id="tspan6-5">(</tspan>x<tspan
   style="font-style:normal;font-variant:normal;font-weight:normal;font-stretch:normal;font-size:10.4px;font-family:'Times New Roman';-inkscape-font-specification:'Times New Roman, Normal';font-variant-ligatures:normal;font-variant-caps:normal;font-variant-numeric:normal;font-variant-east-asian:normal;baseline-shift:sub"
   id="tspan8-0">2 </tspan>, y<tspan
   style="font-style:normal;font-variant:normal;font-weight:normal;font-stretch:normal;font-size:65%;font-family:'Times New Roman';-inkscape-font-specification:'Times New Roman, ';baseline-shift:sub"
   id="tspan10">2</tspan> , z<tspan
   style="font-style:normal;font-variant:normal;font-weight:normal;font-stretch:normal;font-size:10.4px;font-family:'Times New Roman';-inkscape-font-specification:'Times New Roman, Normal';font-variant-ligatures:normal;font-variant-caps:normal;font-variant-numeric:normal;font-variant-east-asian:normal;baseline-shift:sub"
   id="tspan9-5">2</tspan><tspan
   style="font-style:normal;font-variant:normal;font-weight:normal;font-stretch:normal;font-size:16px;font-family:'Times New Roman';-inkscape-font-specification:'Times New Roman, Normal';font-variant-ligatures:normal;font-variant-caps:normal;font-variant-numeric:normal;font-variant-east-asian:normal"
   id="tspan7-2">)</tspan></tspan></text>
    <text
       xml:space="preserve"
       style="font-style:italic;font-variant:normal;font-weight:normal;font-stretch:normal;font-size:12px;font-family:'Times New Roman';-inkscape-font-specification:'Times New Roman, Italic';font-variant-ligatures:normal;font-variant-caps:normal;font-variant-numeric:normal;font-variant-east-asian:normal;fill:#000000"
       x="268.17615"
       y="126.6302"
       id="text2"><tspan
         sodipodi:role="line"
         id="tspan2-6"
         x="268.17615"
         y="126.6302"
         style="font-style:italic;font-variant:normal;font-weight:normal;font-stretch:normal;font-size:16px;font-family:'Times New Roman';-inkscape-font-specification:'Times New Roman, Italic';font-variant-ligatures:normal;font-variant-caps:normal;font-variant-numeric:normal;font-variant-east-asian:normal">E, A</tspan></text>
    <text
       xml:space="preserve"
       style="font-style:italic;font-variant:normal;font-weight:normal;font-stretch:normal;font-size:16px;font-family:'Times New Roman';-inkscape-font-specification:'Times New Roman, Italic';font-variant-ligatures:normal;font-variant-caps:normal;font-variant-numeric:normal;font-variant-east-asian:normal;fill:#000000"
       x="164.03906"
       y="127.00307"
       id="text3-1"><tspan
         sodipodi:role="line"
         id="tspan3-3"
         x="164.03906"
         y="127.00307">x</tspan></text>
    <text
       xml:space="preserve"
       style="font-style:italic;font-variant:normal;font-weight:normal;font-stretch:normal;font-size:16px;font-family:'Times New Roman';-inkscape-font-specification:'Times New Roman, Italic';font-variant-ligatures:normal;font-variant-caps:normal;font-variant-numeric:normal;font-variant-east-asian:normal;fill:#000000"
       x="154.5406"
       y="177.08043"
       id="text5-1"><tspan
         sodipodi:role="line"
         id="tspan5-25"
         x="154.5406"
         y="177.08043">u<tspan
   style="font-style:normal;font-variant:normal;font-weight:normal;font-stretch:normal;font-size:10.4px;font-family:'Times New Roman';-inkscape-font-specification:'Times New Roman, Normal';font-variant-ligatures:normal;font-variant-caps:normal;font-variant-numeric:normal;font-variant-east-asian:normal;baseline-shift:sub"
   id="tspan9-1">1</tspan><tspan
   style="font-style:normal;font-variant:normal;font-weight:normal;font-stretch:normal;font-size:16px;font-family:'Times New Roman';-inkscape-font-specification:'Times New Roman, Normal';font-variant-ligatures:normal;font-variant-caps:normal;font-variant-numeric:normal;font-variant-east-asian:normal"
   id="tspan7-9" /></tspan></text>
    <text
       xml:space="preserve"
       style="font-style:italic;font-variant:normal;font-weight:normal;font-stretch:normal;font-size:16px;font-family:'Times New Roman';-inkscape-font-specification:'Times New Roman, Italic';font-variant-ligatures:normal;font-variant-caps:normal;font-variant-numeric:normal;font-variant-east-asian:normal;fill:#000000"
       x="99.299706"
       y="172.5258"
       id="text5-1-6"><tspan
         sodipodi:role="line"
         id="tspan5-25-0"
         x="99.299706"
         y="172.5258">u<tspan
   style="font-style:normal;font-variant:normal;font-weight:normal;font-stretch:normal;font-size:10.4px;font-family:'Times New Roman';-inkscape-font-specification:'Times New Roman, Normal';font-variant-ligatures:normal;font-variant-caps:normal;font-variant-numeric:normal;font-variant-east-asian:normal;baseline-shift:sub"
   id="tspan9-1-9">3</tspan><tspan
   style="font-style:normal;font-variant:normal;font-weight:normal;font-stretch:normal;font-size:16px;font-family:'Times New Roman';-inkscape-font-specification:'Times New Roman, Normal';font-variant-ligatures:normal;font-variant-caps:normal;font-variant-numeric:normal;font-variant-east-asian:normal"
   id="tspan7-9-8" /></tspan></text>
    <text
       xml:space="preserve"
       style="font-style:italic;font-variant:normal;font-weight:normal;font-stretch:normal;font-size:16px;font-family:'Times New Roman';-inkscape-font-specification:'Times New Roman, Italic';font-variant-ligatures:normal;font-variant-caps:normal;font-variant-numeric:normal;font-variant-east-asian:normal;fill:#000000"
       x="343.75693"
       y="42.954182"
       id="text5-1-5"><tspan
         sodipodi:role="line"
         id="tspan5-25-3"
         x="343.75693"
         y="42.954182">u<tspan
   style="font-style:normal;font-variant:normal;font-weight:normal;font-stretch:normal;font-size:10.4px;font-family:'Times New Roman';-inkscape-font-specification:'Times New Roman, Normal';font-variant-ligatures:normal;font-variant-caps:normal;font-variant-numeric:normal;font-variant-east-asian:normal;baseline-shift:sub"
   id="tspan9-1-2">4</tspan><tspan
   style="font-style:normal;font-variant:normal;font-weight:normal;font-stretch:normal;font-size:16px;font-family:'Times New Roman';-inkscape-font-specification:'Times New Roman, Normal';font-variant-ligatures:normal;font-variant-caps:normal;font-variant-numeric:normal;font-variant-east-asian:normal"
   id="tspan7-9-6" /></tspan></text>
    <text
       xml:space="preserve"
       style="font-style:italic;font-variant:normal;font-weight:normal;font-stretch:normal;font-size:16px;font-family:'Times New Roman';-inkscape-font-specification:'Times New Roman, Italic';font-variant-ligatures:normal;font-variant-caps:normal;font-variant-numeric:normal;font-variant-east-asian:normal;fill:#000000"
       x="135.47835"
       y="130.33742"
       id="text5-1-1"><tspan
         sodipodi:role="line"
         id="tspan5-25-01"
         x="135.47835"
         y="130.33742">u<tspan
   style="font-style:normal;font-variant:normal;font-weight:normal;font-stretch:normal;font-size:10.4px;font-family:'Times New Roman';-inkscape-font-specification:'Times New Roman, Normal';font-variant-ligatures:normal;font-variant-caps:normal;font-variant-numeric:normal;font-variant-east-asian:normal;baseline-shift:sub"
   id="tspan9-1-99">2</tspan><tspan
   style="font-style:normal;font-variant:normal;font-weight:normal;font-stretch:normal;font-size:16px;font-family:'Times New Roman';-inkscape-font-specification:'Times New Roman, Normal';font-variant-ligatures:normal;font-variant-caps:normal;font-variant-numeric:normal;font-variant-east-asian:normal"
   id="tspan7-9-87" /></tspan></text>
    <text
       xml:space="preserve"
       style="font-style:italic;font-variant:normal;font-weight:normal;font-stretch:normal;font-size:16px;font-family:'Times New Roman';-inkscape-font-specification:'Times New Roman, Italic';font-variant-ligatures:normal;font-variant-caps:normal;font-variant-numeric:normal;font-variant-east-asian:normal;fill:#000000"
       x="326.38474"
       y="14.827873"
       id="text5-1-5-7"><tspan
         sodipodi:role="line"
         id="tspan5-25-3-5"
         x="326.38474"
         y="14.827873">u<tspan
   style="font-style:normal;font-variant:normal;font-weight:normal;font-stretch:normal;font-size:10.4px;font-family:'Times New Roman';-inkscape-font-specification:'Times New Roman, Normal';font-variant-ligatures:normal;font-variant-caps:normal;font-variant-numeric:normal;font-variant-east-asian:normal;baseline-shift:sub"
   id="tspan9-1-2-0">5</tspan><tspan
   style="font-style:normal;font-variant:normal;font-weight:normal;font-stretch:normal;font-size:16px;font-family:'Times New Roman';-inkscape-font-specification:'Times New Roman, Normal';font-variant-ligatures:normal;font-variant-caps:normal;font-variant-numeric:normal;font-variant-east-asian:normal"
   id="tspan7-9-6-6" /></tspan></text>
    <text
       xml:space="preserve"
       style="font-style:italic;font-variant:normal;font-weight:normal;font-stretch:normal;font-size:16px;font-family:'Times New Roman';-inkscape-font-specification:'Times New Roman, Italic';font-variant-ligatures:normal;font-variant-caps:normal;font-variant-numeric:normal;font-variant-east-asian:normal;fill:#000000"
       x="298.22787"
       y="79.695541"
       id="text5-1-5-4"><tspan
         sodipodi:role="line"
         id="tspan5-25-3-0"
         x="298.22787"
         y="79.695541">u<tspan
   style="font-style:normal;font-variant:normal;font-weight:normal;font-stretch:normal;font-size:10.4px;font-family:'Times New Roman';-inkscape-font-specification:'Times New Roman, Normal';font-variant-ligatures:normal;font-variant-caps:normal;font-variant-numeric:normal;font-variant-east-asian:normal;baseline-shift:sub"
   id="tspan9-1-2-4">6</tspan><tspan
   style="font-style:normal;font-variant:normal;font-weight:normal;font-stretch:normal;font-size:16px;font-family:'Times New Roman';-inkscape-font-specification:'Times New Roman, Normal';font-variant-ligatures:normal;font-variant-caps:normal;font-variant-numeric:normal;font-variant-east-asian:normal"
   id="tspan7-9-6-3" /></tspan></text>
  </g>
</svg>
