<?xml version="1.0" encoding="UTF-8" standalone="no"?>
<!-- Created with Inkscape (http://www.inkscape.org/) -->

<svg
   version="1.1"
   id="svg1"
   width="382.12"
   height="265.17334"
   viewBox="0 0 382.12 265.17334"
   sodipodi:docname="BAR3E.EPS"
   xmlns:inkscape="http://www.inkscape.org/namespaces/inkscape"
   xmlns:sodipodi="http://sodipodi.sourceforge.net/DTD/sodipodi-0.dtd"
   xmlns="http://www.w3.org/2000/svg"
   xmlns:svg="http://www.w3.org/2000/svg">
  <defs
     id="defs1">
    <clipPath
       clipPathUnits="userSpaceOnUse"
       id="clipPath22">
      <path
         d="m 972.25,786.25 1415,850 37,-61 -1415,-850 c -11.973,-7.211 -25.801,1.98 -33,14 -11.215,18.668 -19.223,37.855 -4,47 z"
         transform="translate(0,-2.5000001e-5)"
         id="path22" />
    </clipPath>
    <clipPath
       clipPathUnits="userSpaceOnUse"
       id="clipPath24">
      <path
         d="m 972.25,786.25 1415,850 37,-61 -1415,-850 c -11.973,-7.211 -25.801,1.98 -33,14 -11.215,18.668 -19.223,37.855 -4,47 z"
         transform="translate(0,-2.5000001e-5)"
         id="path24" />
    </clipPath>
    <clipPath
       clipPathUnits="userSpaceOnUse"
       id="clipPath26">
      <path
         d="m 972.25,786.25 1415,850 37,-61 -1415,-850 c -11.973,-7.211 -25.801,1.98 -33,14 -11.215,18.668 -19.223,37.855 -4,47 z"
         transform="translate(0,-2.5000001e-5)"
         id="path26" />
    </clipPath>
    <clipPath
       clipPathUnits="userSpaceOnUse"
       id="clipPath28">
      <path
         d="m 972.25,786.25 1415,850 37,-61 -1415,-850 c -11.973,-7.211 -25.801,1.98 -33,14 -11.215,18.668 -19.223,37.855 -4,47 z"
         transform="translate(0,-2.5000001e-5)"
         id="path28" />
    </clipPath>
    <clipPath
       clipPathUnits="userSpaceOnUse"
       id="clipPath30">
      <path
         d="m 972.25,786.25 1415,850 37,-61 -1415,-850 c -11.973,-7.211 -25.801,1.98 -33,14 -11.215,18.668 -19.223,37.855 -4,47 z"
         transform="translate(0,-2.5000001e-5)"
         id="path30" />
    </clipPath>
    <clipPath
       clipPathUnits="userSpaceOnUse"
       id="clipPath32">
      <path
         d="m 972.25,786.25 1415,850 37,-61 -1415,-850 c -11.973,-7.211 -25.801,1.98 -33,14 -11.215,18.668 -19.223,37.855 -4,47 z"
         transform="translate(0,-2.5000001e-5)"
         id="path32" />
    </clipPath>
    <clipPath
       clipPathUnits="userSpaceOnUse"
       id="clipPath34">
      <path
         d="m 972.25,786.25 1415,850 37,-61 -1415,-850 c -11.973,-7.211 -25.801,1.98 -33,14 -11.215,18.668 -19.223,37.855 -4,47 z"
         transform="translate(0,-2.5000001e-5)"
         id="path34" />
    </clipPath>
    <clipPath
       clipPathUnits="userSpaceOnUse"
       id="clipPath36">
      <path
         d="m 972.25,786.25 1415,850 37,-61 -1415,-850 c -11.973,-7.211 -25.801,1.98 -33,14 -11.215,18.668 -19.223,37.855 -4,47 z"
         transform="translate(0,-2.5000001e-5)"
         id="path36" />
    </clipPath>
    <clipPath
       clipPathUnits="userSpaceOnUse"
       id="clipPath38">
      <path
         d="m 972.25,786.25 1415,850 37,-61 -1415,-850 c -11.973,-7.211 -25.801,1.98 -33,14 -11.215,18.668 -19.223,37.855 -4,47 z"
         transform="translate(0,-2.5000001e-5)"
         id="path38" />
    </clipPath>
    <clipPath
       clipPathUnits="userSpaceOnUse"
       id="clipPath40">
      <path
         d="m 972.25,786.25 1415,850 37,-61 -1415,-850 c -11.973,-7.211 -25.801,1.98 -33,14 -11.215,18.668 -19.223,37.855 -4,47 z"
         transform="translate(0,-2.5000001e-5)"
         id="path40" />
    </clipPath>
    <clipPath
       clipPathUnits="userSpaceOnUse"
       id="clipPath42">
      <path
         d="m 972.25,786.25 1415,850 37,-61 -1415,-850 c -11.973,-7.211 -25.801,1.98 -33,14 -11.215,18.668 -19.223,37.855 -4,47 z"
         transform="translate(0,-2.5000001e-5)"
         id="path42" />
    </clipPath>
    <clipPath
       clipPathUnits="userSpaceOnUse"
       id="clipPath44">
      <path
         d="m 972.25,786.25 1415,850 37,-61 -1415,-850 c -11.973,-7.211 -25.801,1.98 -33,14 -11.215,18.668 -19.223,37.855 -4,47 z"
         transform="translate(0,-2.5000001e-5)"
         id="path44" />
    </clipPath>
    <clipPath
       clipPathUnits="userSpaceOnUse"
       id="clipPath46">
      <path
         d="m 972.25,786.25 1415,850 37,-61 -1415,-850 c -11.973,-7.211 -25.801,1.98 -33,14 -11.215,18.668 -19.223,37.855 -4,47 z"
         transform="translate(0,-2.5000001e-5)"
         id="path46" />
    </clipPath>
    <clipPath
       clipPathUnits="userSpaceOnUse"
       id="clipPath48">
      <path
         d="m 972.25,786.25 1415,850 37,-61 -1415,-850 c -11.973,-7.211 -25.801,1.98 -33,14 -11.215,18.668 -19.223,37.855 -4,47 z"
         transform="translate(0,-2.5000001e-5)"
         id="path48" />
    </clipPath>
    <clipPath
       clipPathUnits="userSpaceOnUse"
       id="clipPath50">
      <path
         d="m 972.25,786.25 1415,850 37,-61 -1415,-850 c -11.973,-7.211 -25.801,1.98 -33,14 -11.215,18.668 -19.223,37.855 -4,47 z"
         transform="translate(0,-2.5000001e-5)"
         id="path50" />
    </clipPath>
    <clipPath
       clipPathUnits="userSpaceOnUse"
       id="clipPath52">
      <path
         d="m 972.25,786.25 1415,850 37,-61 -1415,-850 c -11.973,-7.211 -25.801,1.98 -33,14 -11.215,18.668 -19.223,37.855 -4,47 z"
         transform="translate(0,-2.5000001e-5)"
         id="path52" />
    </clipPath>
    <clipPath
       clipPathUnits="userSpaceOnUse"
       id="clipPath54">
      <path
         d="m 972.25,786.25 1415,850 37,-61 -1415,-850 c -11.973,-7.211 -25.801,1.98 -33,14 -11.215,18.668 -19.223,37.855 -4,47 z"
         transform="translate(0,-2.5000001e-5)"
         id="path54" />
    </clipPath>
    <clipPath
       clipPathUnits="userSpaceOnUse"
       id="clipPath56">
      <path
         d="m 972.25,786.25 1415,850 37,-61 -1415,-850 c -11.973,-7.211 -25.801,1.98 -33,14 -11.215,18.668 -19.223,37.855 -4,47 z"
         transform="translate(0,-2.5000001e-5)"
         id="path56" />
    </clipPath>
    <clipPath
       clipPathUnits="userSpaceOnUse"
       id="clipPath58">
      <path
         d="m 972.25,786.25 1415,850 37,-61 -1415,-850 c -11.973,-7.211 -25.801,1.98 -33,14 -11.215,18.668 -19.223,37.855 -4,47 z"
         transform="translate(0,-2.5000001e-5)"
         id="path58" />
    </clipPath>
    <clipPath
       clipPathUnits="userSpaceOnUse"
       id="clipPath60">
      <path
         d="m 972.25,786.25 1415,850 37,-61 -1415,-850 c -11.973,-7.211 -25.801,1.98 -33,14 -11.215,18.668 -19.223,37.855 -4,47 z"
         transform="translate(0,-2.5000001e-5)"
         id="path60" />
    </clipPath>
  </defs>
  <sodipodi:namedview
     id="namedview1"
     pagecolor="#ffffff"
     bordercolor="#000000"
     borderopacity="0.25"
     inkscape:showpageshadow="2"
     inkscape:pageopacity="0.0"
     inkscape:pagecheckerboard="0"
     inkscape:deskcolor="#d1d1d1">
    <inkscape:page
       x="0"
       y="0"
       inkscape:label="1"
       id="page1"
       width="382.12"
       height="265.17334"
       margin="0"
       bleed="0" />
  </sodipodi:namedview>
  <g
     id="g1"
     inkscape:groupmode="layer"
     inkscape:label="1">
    <path
       id="path1"
       d="M 7.6064453,-7.8411328 H 1.6416016 v 0.1992187 c 0.75,0.070312 0.9257812,0.1640625 0.9257812,0.4921875 0,0.140625 -0.070312,0.5390625 -0.1289062,0.7617188 l -1.47656254,5.3085937 c -0.19921875,0.67968754 -0.3046875,0.76171879 -0.97265625,0.89062504 v 0.1875 H 6.0712891 l 0.75,-1.94531254 -0.1992188,-0.09375 c -0.5625,0.7734375 -0.8789062,1.07812504 -1.3945312,1.32421879 -0.4335938,0.19921875 -1.2539063,0.31640625 -2.1679688,0.31640625 -0.6679687,0 -0.9492187,-0.1171875 -0.9492187,-0.41015625 0,-0.140625 0.1523437,-0.70312499 0.4335937,-1.74609379 l 0.3867188,-1.3828125 c 0.1875,0.011719 0.375,0.023437 0.5625,0.023437 l 0.5507812,0.011719 c 0.3398438,0.011719 0.6210938,0.070312 0.7148438,0.140625 0.1054687,0.09375 0.1289062,0.1757812 0.1289062,0.4101562 0,0.2226563 -0.023437,0.3632813 -0.082031,0.6328125 l 0.234375,0.058594 0.8203125,-2.7890625 -0.2226563,-0.046875 c -0.4570312,1.0195312 -0.5742187,1.1015625 -1.6523437,1.1367187 -0.140625,0 -0.5273438,0.011719 -0.9492188,0.023437 l 0.796875,-2.7890625 c 0.070312,-0.28125 0.1875,-0.3164062 0.8789063,-0.3164062 1.875,0 2.296875,0.1523437 2.296875,0.8789062 0,0.1523438 -0.011719,0.3398438 -0.023437,0.5390625 l 0.2460937,0.023437 z M 7.3896484,1.5455859 c 1.0195313,-0.56249996 1.5585938,-1.23046871 1.5585938,-1.91015621 0,-0.48046875 -0.2929688,-0.84374999 -0.6914063,-0.84374999 -0.3515625,0 -0.609375,0.23437499 -0.609375,0.55078124 0,0.22265625 0.070312,0.33984375 0.2929688,0.55078125 0.1875,0.1640625 0.2460937,0.2578125 0.2460937,0.38671875 0,0.31640625 -0.2695312,0.64453125 -0.9023437,1.06640626 z M 20.104492,-0.18878906 c -0.691406,-0.0703125 -0.761719,-0.1640625 -0.914062,-1.03125004 l -1.136719,-6.796875 h -0.304688 l -3.480468,6 c -0.949219,1.59375004 -1.066407,1.72265629 -1.546875,1.82812504 v 0.1875 h 2.238281 v -0.1875 c -0.609375,-0.0703125 -0.703125,-0.12890625 -0.703125,-0.421875 0,-0.234375 0.03516,-0.33984375 0.234375,-0.75000004 l 0.691406,-1.3476562 h 2.636719 l 0.234375,1.5703125 c 0.01172,0.1054687 0.03516,0.21093749 0.03516,0.30468749 0,0.45703125 -0.175781,0.5625 -0.9375,0.64453125 v 0.1875 h 2.953125 z m -4.675781,-2.95312504 1.804687,-3.1289062 0.527344,3.1289062 z m 0,0"
       style="fill:#231f20;fill-opacity:1;fill-rule:nonzero;stroke:none"
       aria-label="E, A"
       transform="matrix(1.3333333,0,0,1.3333333,268.16667,124.74)" />
    <path
       id="path2"
       d="m 1982.25,1080.25 c -34.92,-1.13 -100.96,7.14 -149,44 -36.34,27.96 -48.44,41.3 -71,93"
       style="fill:none;stroke:#231f20;stroke-width:2.5;stroke-linecap:butt;stroke-linejoin:miter;stroke-miterlimit:3.8637;stroke-dasharray:none;stroke-opacity:1"
       transform="matrix(0.13333333,0,0,-0.13333333,0,265.17333)" />
    <path
       id="path3"
       d="M 1.9097656,2.0969531 C 1.4644531,0.87820312 1.3355469,0.13992187 1.3355469,-1.0202344 c 0,-1.453125 0.328125,-3.1640625 0.890625,-4.5 0.3984375,-0.9492187 0.7734375,-1.5117187 1.5585937,-2.3320312 L 3.6207031,-8.0280469 c -1.5585937,1.4179688 -2.1679687,2.203125 -2.67187497,3.4570313 -0.31640625,0.75 -0.4453125,1.4882812 -0.4453125,2.4140625 0,0.9257812 0.140625,1.81640622 0.41015625,2.64843747 C 1.0777344,0.99539062 1.2652344,1.3821094 1.6871094,2.1672656 Z m 6.9140625,-3.4335937 c -0.1054687,0.1171875 -0.1640625,0.1875 -0.2695312,0.328125 -0.2695313,0.36328122 -0.421875,0.48046872 -0.5625,0.48046872 -0.1640625,0 -0.28125,-0.15234375 -0.3632813,-0.49218752 -0.035156,-0.1289062 -0.035156,-0.1523437 -0.046875,-0.1875 -0.2929687,-1.2304687 -0.4335937,-1.78125 -0.4335937,-1.9570312 0.5390625,-0.9375 0.9609375,-1.453125 1.1835937,-1.453125 0.070312,0 0.1757813,0.035156 0.28125,0.09375 0.1523438,0.082031 0.234375,0.1054687 0.3398438,0.1054687 0.234375,0 0.4101562,-0.1757812 0.4101562,-0.4335937 0,-0.2578125 -0.2109375,-0.4453125 -0.4921875,-0.4453125 -0.5273437,0 -0.9726562,0.4335937 -1.8164062,1.7226562 l -0.1289063,-0.65625 C 6.7613281,-5.0514844 6.6207031,-5.2975781 6.3042969,-5.2975781 c -0.28125,0 -0.6679688,0.1054687 -1.40625,0.3515625 -0.070312,0.023437 -0.070312,0.023437 -0.1289063,0.046875 l 0.046875,0.1875 c 0.46875,-0.1289063 0.5507813,-0.140625 0.6679688,-0.140625 0.3046875,0 0.375,0.1171875 0.5390625,0.8320312 l 0.3515625,1.4765625 -0.984375,1.40625 c -0.2578125,0.35156252 -0.4804688,0.57421877 -0.609375,0.57421877 -0.082031,0 -0.1992188,-0.0351563 -0.3164063,-0.10546875 -0.1523437,-0.09375 -0.28125,-0.12890625 -0.3867187,-0.12890625 -0.234375,0 -0.4101563,0.1875 -0.4101563,0.421875 0,0.31640625 0.234375,0.50390625 0.609375,0.50390625 0.3632813,0 0.515625,-0.10546875 1.1132813,-0.8203125 0.3164062,-0.39843752 0.5859375,-0.76171872 1.078125,-1.41796872 l 0.3632812,1.44140622 c 0.1523438,0.62109375 0.3046875,0.796875 0.6914063,0.796875 0.4570312,0 0.7734375,-0.28125 1.4648437,-1.35937502 z M 9.8873047,2.9992969 H 13.238867 V 2.8235156 H 13.02793 c -0.585938,0 -0.820313,-0.1171875 -0.820313,-0.3867187 0,-0.1054688 0.03516,-0.2929688 0.140625,-0.6210938 0.02344,-0.09375 0.03516,-0.1523437 0.07031,-0.2695312 l 1.722656,-6.2226563 c 0.05859,-0.2226562 0.07031,-0.2929687 0.07031,-0.3515625 0,-0.046875 -0.02344,-0.082031 -0.05859,-0.082031 0,0 -0.339844,0.058594 -0.984375,0.1875 l -1.078125,0.2226562 c -0.02344,0.011719 -0.117188,0.023437 -0.257813,0.046875 v 0.1757813 l 0.679688,-0.023437 c 0.28125,-0.011719 0.457031,0.1289062 0.457031,0.375 0,0.082031 -0.02344,0.1640625 -0.08203,0.4101562 L 11.23496,2.1789851 c -0.140625,0.4453125 -0.398438,0.5625 -1.3476563,0.65625 z m 3.4716793,-1.453125 c 1.019532,-0.56250003 1.558594,-1.23046878 1.558594,-1.91015628 0,-0.48046875 -0.292969,-0.84375002 -0.691406,-0.84375002 -0.351563,0 -0.609375,0.23437502 -0.609375,0.55078127 0,0.22265625 0.07031,0.33984375 0.292969,0.55078125 0.1875,0.1640625 0.246093,0.2578125 0.246093,0.38671875 0,0.31640625 -0.269531,0.64453125 -0.902343,1.06640623 z m 3.117188,-6.3515625 c 0.152344,-0.035156 0.246094,-0.046875 0.375,-0.046875 0.492187,0 0.726562,0.1992187 0.960937,0.84375 0.328125,0.890625 0.949219,3.45703122 0.949219,3.91406247 0,0.1875 -0.08203,0.38671875 -0.257812,0.609375 -0.328125,0.4453125 -0.609375,0.78515623 -0.75,0.93750003 -0.257813,0.2578125 -0.386719,0.3632812 -0.539063,0.3632812 -0.08203,0 -0.152344,-0.035156 -0.292969,-0.140625 -0.175781,-0.140625 -0.292968,-0.1992187 -0.445312,-0.1992187 -0.257813,0 -0.46875,0.1992187 -0.46875,0.46875 0,0.3164062 0.257812,0.5273437 0.621094,0.5273437 0.761718,0 2.320312,-1.79296873 3.632812,-4.171875 0.820313,-1.4765625 1.148438,-2.34375 1.148438,-2.9296875 0,-0.3632812 -0.292969,-0.6679687 -0.65625,-0.6679687 -0.28125,0 -0.46875,0.1875 -0.46875,0.4453125 0,0.1992187 0.09375,0.3164062 0.339843,0.46875 0.222657,0.140625 0.304688,0.2460937 0.304688,0.4101562 0,0.4804688 -0.433594,1.40625 -1.464844,3.10546877 L 19.230078,-2.2624219 c -0.1875,-1.0664062 -0.855469,-3.0351562 -1.03125,-3.0351562 h -0.04687 c -0.02344,0.011719 -0.05859,0.011719 -0.117187,0.011719 -0.09375,0.011719 -0.539063,0.09375 -1.171875,0.2109375 -0.05859,0.011719 -0.210938,0.046875 -0.386719,0.070312 z m 5.80957,7.8046875 h 3.351563 V 2.8235156 h -0.210938 c -0.585937,0 -0.820312,-0.1171875 -0.820312,-0.3867187 0,-0.1054688 0.03516,-0.2929688 0.140625,-0.6210938 0.02344,-0.09375 0.03516,-0.1523437 0.07031,-0.2695312 l 1.722656,-6.2226563 c 0.05859,-0.2226562 0.07031,-0.2929687 0.07031,-0.3515625 0,-0.046875 -0.02344,-0.082031 -0.05859,-0.082031 0,0 -0.339844,0.058594 -0.984375,0.1875 l -1.078125,0.2226562 c -0.02344,0.011719 -0.117187,0.023437 -0.257812,0.046875 v 0.1757813 l 0.679687,-0.023437 c 0.28125,-0.011719 0.457031,0.1289062 0.457031,0.375 0,0.082031 -0.02344,0.1640625 -0.08203,0.4101562 l -1.652344,5.8945313 c -0.140625,0.4453125 -0.398437,0.5625 -1.347656,0.65625 z m 3.47168,-1.453125 c 1.019531,-0.56250003 1.558594,-1.23046878 1.558594,-1.91015628 0,-0.48046875 -0.292969,-0.84375002 -0.691407,-0.84375002 -0.351562,0 -0.609375,0.23437502 -0.609375,0.55078127 0,0.22265625 0.07031,0.33984375 0.292969,0.55078125 0.1875,0.1640625 0.246094,0.2578125 0.246094,0.38671875 0,0.31640625 -0.269531,0.64453125 -0.902344,1.06640623 z m 3.914062,-5.25 c 0.234375,-0.5976563 0.421875,-0.7265625 0.972657,-0.7148438 h 1.746093 l -3.714843,4.46484377 0.105468,0.10546875 c 0.199219,-0.152343745 0.351563,-0.2109375 0.539063,-0.2109375 0.316406,0 0.703125,0.15234375 1.265625,0.50390625 0.597656,0.375 0.996094,0.52734375 1.335937,0.52734375 0.609375,0 1.136719,-0.43359375 1.136719,-0.9140625 0,-0.2578125 -0.175781,-0.43359375 -0.421875,-0.43359375 -0.246094,0 -0.410156,0.1640625 -0.410156,0.38671875 0,0.09375 0.03516,0.19921875 0.105469,0.3515625 0.03516,0.0703125 0.05859,0.140625 0.05859,0.17578125 0,0.10546875 -0.128906,0.17578125 -0.316406,0.17578125 -0.304687,0 -0.445312,-0.10546875 -0.84375,-0.59765625 -0.527344,-0.6796875 -0.75,-0.83203125 -1.453125,-0.99609375 l 3.480469,-4.12500002 v -0.1289062 h -3.410156 l -0.363282,1.3710937 z m 4.31543,6.703125 h 3.351563 V 2.8235156 h -0.210938 c -0.585937,0 -0.820312,-0.1171875 -0.820312,-0.3867187 0,-0.1054688 0.03516,-0.2929688 0.140625,-0.6210938 0.02344,-0.09375 0.03516,-0.1523437 0.07031,-0.2695312 l 1.722656,-6.2226563 c 0.05859,-0.2226562 0.07031,-0.2929687 0.07031,-0.3515625 0,-0.046875 -0.02344,-0.082031 -0.05859,-0.082031 0,0 -0.339844,0.058594 -0.984375,0.1875 l -1.078125,0.2226562 c -0.02344,0.011719 -0.117187,0.023437 -0.257812,0.046875 v 0.1757813 l 0.679687,-0.023437 c 0.28125,-0.011719 0.457031,0.1289062 0.457031,0.375 0,0.082031 -0.02344,0.1640625 -0.08203,0.4101562 L 35.33457,2.1789844 c -0.140625,0.4453125 -0.398437,0.5625 -1.347656,0.65625 z m 3.764649,-0.84375 c 1.488281,-1.28906253 2.097656,-2.07421878 2.636718,-3.3632813 0.339844,-0.796875 0.480469,-1.5585937 0.480469,-2.4492187 0,-0.6914063 -0.09375,-1.4414063 -0.269531,-2.1679688 -0.199219,-0.8085937 -0.375,-1.2421875 -0.914063,-2.203125 l -0.234375,0.058594 c 0.410157,0.9726562 0.585938,1.9453125 0.585938,3.140625 0,1.5234375 -0.410156,3.4570312 -1.007813,4.75781247 C 38.689063,0.70242187 38.325781,1.2063281 37.5875,1.9797656 Z M 150.50937,-92.801484 c -0.44531,-1.21875 -0.57421,-1.957032 -0.57421,-3.117188 0,-1.453125 0.32812,-3.164062 0.89062,-4.499998 0.39844,-0.94922 0.77344,-1.51172 1.55859,-2.33203 l -0.16406,-0.17578 c -1.55859,1.41796 -2.16797,2.20312 -2.67187,3.457027 -0.31641,0.75 -0.44532,1.488281 -0.44532,2.414062 0,0.925782 0.14063,1.816407 0.41016,2.648438 0.16406,0.503906 0.35156,0.890625 0.77344,1.675781 z m 6.91407,-3.433594 c -0.10547,0.117187 -0.16407,0.1875 -0.26953,0.328125 -0.26954,0.363281 -0.42188,0.480469 -0.5625,0.480469 -0.16407,0 -0.28125,-0.152344 -0.36329,-0.492188 -0.0351,-0.128906 -0.0351,-0.152344 -0.0469,-0.1875 -0.29297,-1.230469 -0.43359,-1.78125 -0.43359,-1.957031 0.53906,-0.9375 0.96093,-1.453125 1.18359,-1.453125 0.0703,0 0.17578,0.03516 0.28125,0.09375 0.15234,0.08203 0.23437,0.105469 0.33984,0.105469 0.23438,0 0.41016,-0.175782 0.41016,-0.433594 0,-0.257817 -0.21094,-0.445317 -0.49219,-0.445317 -0.52734,0 -0.97265,0.433598 -1.8164,1.722661 l -0.12891,-0.65625 c -0.16406,-0.820313 -0.30469,-1.066411 -0.62109,-1.066411 -0.28125,0 -0.66797,0.10547 -1.40625,0.351567 -0.0703,0.02344 -0.0703,0.02344 -0.12891,0.04687 l 0.0469,0.1875 c 0.46875,-0.128906 0.55079,-0.140625 0.66797,-0.140625 0.30469,0 0.375,0.117187 0.53907,0.832031 l 0.35156,1.476563 -0.98438,1.40625 c -0.25781,0.351562 -0.48047,0.574218 -0.60937,0.574218 -0.082,0 -0.19922,-0.03516 -0.31641,-0.105468 -0.15234,-0.09375 -0.28125,-0.128907 -0.38672,-0.128907 -0.23437,0 -0.41015,0.1875 -0.41015,0.421875 0,0.316407 0.23437,0.503907 0.60937,0.503907 0.36328,0 0.51563,-0.105469 1.11328,-0.820313 0.31641,-0.398437 0.58594,-0.761719 1.07813,-1.417969 l 0.36328,1.441407 c 0.15234,0.621093 0.30469,0.796875 0.69141,0.796875 0.45703,0 0.77343,-0.28125 1.46484,-1.359375 z m 5.28222,2.671875 c -0.28125,0.585937 -0.51562,0.726562 -1.19531,0.75 h -2.27344 v -0.05859 l 2.29688,-2.308594 c 1.40625,-1.394531 1.79297,-2.003906 1.79297,-2.800781 0,-1.136719 -0.85547,-2.027352 -1.94531,-2.027352 -0.4336,0 -0.87891,0.105477 -1.24219,0.304696 -0.60938,0.339844 -0.92578,0.75 -1.27735,1.617187 l 0.2461,0.08203 c 0.44531,-0.785157 0.96094,-1.125 1.6875,-1.125 0.86719,0 1.5,0.621093 1.5,1.453125 0,0.257812 -0.0352,0.480468 -0.10547,0.644531 -0.29297,0.644531 -0.84375,1.40625 -1.62891,2.238281 l -2.51953,2.695313 v 0.199218 h 4.26563 l 0.59765,-1.582031 z m -0.74707,0.210937 c 1.01953,-0.5625 1.5586,-1.230468 1.5586,-1.910156 0,-0.480469 -0.29297,-0.84375 -0.69141,-0.84375 -0.35156,0 -0.60937,0.234375 -0.60937,0.550781 0,0.222657 0.0703,0.339844 0.29296,0.550782 0.1875,0.164062 0.2461,0.257812 0.2461,0.386718 0,0.316407 -0.26953,0.644532 -0.90235,1.066407 z m 3.11719,-6.351562 c 0.15234,-0.03516 0.24609,-0.04687 0.375,-0.04687 0.49219,0 0.72656,0.199219 0.96094,0.84375 0.32812,0.890625 0.94922,3.457031 0.94922,3.914062 0,0.1875 -0.082,0.386719 -0.25782,0.609375 -0.32812,0.445313 -0.60937,0.785157 -0.75,0.9375 -0.25781,0.257813 -0.38671,0.363282 -0.53906,0.363282 -0.082,0 -0.15234,-0.03516 -0.29297,-0.140625 -0.17578,-0.140625 -0.29297,-0.199219 -0.44531,-0.199219 -0.25781,0 -0.46875,0.199219 -0.46875,0.46875 0,0.316406 0.25781,0.527344 0.62109,0.527344 0.76172,0 2.32032,-1.792969 3.63282,-4.171875 0.82031,-1.476563 1.14843,-2.34375 1.14843,-2.929688 0,-0.363281 -0.29296,-0.667978 -0.65625,-0.667978 -0.28125,0 -0.46875,0.1875 -0.46875,0.445322 0,0.199219 0.0937,0.316406 0.33985,0.46875 0.22265,0.140625 0.30469,0.246094 0.30469,0.410156 0,0.480469 -0.4336,1.40625 -1.46485,3.105469 l -0.23437,-1.394531 c -0.1875,-1.066407 -0.85547,-3.035166 -1.03125,-3.035166 h -0.0469 c -0.0234,0.0117 -0.0586,0.0117 -0.11719,0.0117 -0.0937,0.0117 -0.53906,0.0937 -1.17187,0.210936 -0.0586,0.01172 -0.21094,0.04687 -0.38672,0.07031 z m 9.92871,6.140625 c -0.28125,0.585937 -0.51562,0.726562 -1.19531,0.75 h -2.27344 v -0.05859 l 2.29688,-2.308594 c 1.40625,-1.394531 1.79297,-2.003906 1.79297,-2.800781 0,-1.136719 -0.85547,-2.027352 -1.94532,-2.027352 -0.43359,0 -0.8789,0.105477 -1.24218,0.304696 -0.60938,0.339844 -0.92579,0.75 -1.27735,1.617187 l 0.2461,0.08203 c 0.44531,-0.785157 0.96093,-1.125 1.6875,-1.125 0.86718,0 1.5,0.621093 1.5,1.453125 0,0.257812 -0.0352,0.480468 -0.10547,0.644531 -0.29297,0.644531 -0.84375,1.40625 -1.62891,2.238281 l -2.51953,2.695313 v 0.199218 h 4.26562 l 0.59766,-1.582031 z m -0.74707,0.210937 c 1.01953,-0.5625 1.5586,-1.230468 1.5586,-1.910156 0,-0.480469 -0.29297,-0.84375 -0.69141,-0.84375 -0.35156,0 -0.60938,0.234375 -0.60938,0.550781 0,0.222657 0.0703,0.339844 0.29297,0.550782 0.1875,0.164062 0.2461,0.257812 0.2461,0.386718 0,0.316407 -0.26953,0.644532 -0.90235,1.066407 z m 3.91406,-5.25 c 0.23438,-0.597656 0.42188,-0.726562 0.97266,-0.714843 h 1.74609 l -3.71484,4.464843 0.10547,0.105469 c 0.19922,-0.152344 0.35156,-0.210937 0.53906,-0.210937 0.31641,0 0.70313,0.152343 1.26563,0.503906 0.59765,0.375 0.99609,0.527344 1.33593,0.527344 0.60938,0 1.13672,-0.433594 1.13672,-0.914063 0,-0.257812 -0.17578,-0.433594 -0.42187,-0.433594 -0.2461,0 -0.41016,0.164063 -0.41016,0.386719 0,0.09375 0.0352,0.199219 0.10547,0.351563 0.0352,0.07031 0.0586,0.140625 0.0586,0.175781 0,0.105469 -0.1289,0.175781 -0.3164,0.175781 -0.30469,0 -0.44531,-0.105469 -0.84375,-0.597656 -0.52735,-0.679688 -0.75,-0.832031 -1.45313,-0.996094 l 3.48047,-4.125 v -0.128903 h -3.41015 l -0.36329,1.371091 z m 8.53418,5.039063 c -0.28125,0.585937 -0.51562,0.726562 -1.19531,0.75 h -2.27344 v -0.05859 l 2.29688,-2.308594 c 1.40625,-1.394531 1.79297,-2.003906 1.79297,-2.800781 0,-1.136719 -0.85547,-2.027352 -1.94531,-2.027352 -0.4336,0 -0.87891,0.105477 -1.24219,0.304696 -0.60938,0.339844 -0.92578,0.75 -1.27735,1.617187 l 0.2461,0.08203 c 0.44531,-0.785157 0.96094,-1.125 1.6875,-1.125 0.86719,0 1.5,0.621093 1.5,1.453125 0,0.257812 -0.0352,0.480468 -0.10547,0.644531 -0.29297,0.644531 -0.84375,1.40625 -1.62891,2.238281 l -2.51953,2.695313 v 0.199218 h 4.26563 l 0.59765,-1.582031 z m -0.4541,0.820312 c 1.48828,-1.289062 2.09766,-2.074218 2.63672,-3.363281 0.33984,-0.796875 0.48047,-1.558594 0.48047,-2.449219 0,-0.691406 -0.0937,-1.441406 -0.26953,-2.167969 -0.19922,-0.80859 -0.375,-1.24219 -0.91406,-2.20312 l -0.23438,0.0586 c 0.41016,0.97266 0.58594,1.94531 0.58594,3.140624 0,1.523438 -0.41016,3.457032 -1.00781,4.757813 -0.33985,0.773437 -0.70313,1.277344 -1.44141,2.050781 z M -88.725977,38.49832 c 0.234375,-0.597656 0.421875,-0.726562 0.972657,-0.714843 h 1.746093 l -3.714843,4.464843 0.105468,0.105469 c 0.199219,-0.152344 0.351563,-0.210937 0.539063,-0.210937 0.316406,0 0.703125,0.152343 1.265625,0.503906 0.597656,0.375 0.996094,0.527344 1.335937,0.527344 0.609375,0 1.136719,-0.433594 1.136719,-0.914063 0,-0.257812 -0.175781,-0.433594 -0.421875,-0.433594 -0.246094,0 -0.410156,0.164063 -0.410156,0.386719 0,0.09375 0.03516,0.199219 0.105469,0.351563 0.03516,0.07031 0.05859,0.140625 0.05859,0.175781 0,0.105469 -0.128906,0.175781 -0.316406,0.175781 -0.304687,0 -0.445312,-0.105469 -0.84375,-0.597656 -0.527344,-0.679688 -0.75,-0.832031 -1.453125,-0.996094 l 3.480469,-4.125 v -0.128906 h -3.410156 l -0.363282,1.371094 z m 116.25293,-9.433593 c -0.105469,0.117187 -0.164062,0.1875 -0.269531,0.328125 -0.269531,0.363281 -0.421875,0.480468 -0.5625,0.480468 -0.164063,0 -0.28125,-0.152343 -0.363281,-0.492187 -0.03516,-0.128906 -0.03516,-0.152344 -0.04687,-0.1875 -0.292969,-1.230469 -0.433594,-1.78125 -0.433594,-1.957031 0.539062,-0.9375 0.960937,-1.453125 1.183594,-1.453125 0.07031,0 0.175781,0.03516 0.28125,0.09375 0.152343,0.08203 0.234375,0.105468 0.339843,0.105468 0.234375,0 0.410157,-0.175781 0.410157,-0.433593 0,-0.257813 -0.210938,-0.445313 -0.492188,-0.445313 -0.527344,0 -0.972656,0.433594 -1.816406,1.722656 l -0.128906,-0.65625 c -0.164063,-0.820312 -0.304688,-1.066406 -0.621094,-1.066406 -0.28125,0 -0.667969,0.105469 -1.40625,0.351563 -0.07031,0.02344 -0.07031,0.02344 -0.128906,0.04687 l 0.04687,0.1875 c 0.46875,-0.128907 0.550781,-0.140625 0.667968,-0.140625 0.304688,0 0.375,0.117187 0.539063,0.832031 l 0.351562,1.476562 -0.984375,1.40625 c -0.257812,0.351563 -0.480468,0.574219 -0.609375,0.574219 -0.08203,0 -0.199218,-0.03516 -0.316406,-0.105469 -0.152344,-0.09375 -0.28125,-0.128906 -0.386719,-0.128906 -0.234375,0 -0.410156,0.1875 -0.410156,0.421875 0,0.316406 0.234375,0.503906 0.609375,0.503906 0.363281,0 0.515625,-0.105468 1.113281,-0.820312 0.316407,-0.398438 0.585938,-0.761719 1.078125,-1.417969 l 0.363282,1.441406 c 0.152343,0.621094 0.304687,0.796875 0.691406,0.796875 0.457031,0 0.773437,-0.28125 1.464844,-1.359375 z m -84.952148,-83.768555 c 0.152343,-0.03516 0.246093,-0.04687 0.375,-0.04687 0.492187,0 0.726562,0.199219 0.960937,0.84375 0.328125,0.890625 0.949219,3.457031 0.949219,3.914062 0,0.1875 -0.08203,0.386719 -0.257813,0.609375 -0.328125,0.445313 -0.609375,0.785157 -0.75,0.9375 -0.257812,0.257813 -0.386718,0.363282 -0.539062,0.363282 -0.08203,0 -0.152344,-0.03516 -0.292969,-0.140625 -0.175781,-0.140625 -0.292969,-0.199219 -0.445312,-0.199219 -0.257813,0 -0.46875,0.199219 -0.46875,0.46875 0,0.316406 0.257812,0.527344 0.621093,0.527344 0.761719,0 2.320313,-1.792969 3.632813,-4.171875 0.820312,-1.476563 1.148437,-2.34375 1.148437,-2.929688 0,-0.363281 -0.292968,-0.667969 -0.65625,-0.667969 -0.28125,0 -0.46875,0.1875 -0.46875,0.445313 0,0.199219 0.09375,0.316406 0.339844,0.46875 0.222656,0.140625 0.304688,0.246094 0.304688,0.410156 0,0.480469 -0.433594,1.40625 -1.464844,3.105469 l -0.234375,-1.394531 c -0.1875,-1.066407 -0.855469,-3.035157 -1.03125,-3.035157 h -0.04687 c -0.02344,0.01172 -0.05859,0.01172 -0.117188,0.01172 -0.09375,0.01172 -0.539062,0.09375 -1.171875,0.210938 -0.05859,0.01172 -0.210937,0.04687 -0.386718,0.07031 z m 0,0"
       style="fill:#231f20;fill-opacity:1;fill-rule:nonzero;stroke:none"
       aria-label="(x&#10;1&#10;,y&#10;1&#10;,z&#10;1&#10;)&#10;(x&#10;2&#10;,y&#10;2&#10;,z&#10;2&#10;)&#10;z&#10;x&#10;y"
       transform="matrix(1.3333333,0,0,1.3333333,123.63333,199.54)" />
    <path
       id="path4"
       d="m 485.25,310.25 -372,-289"
       style="fill:none;stroke:#231f20;stroke-width:2.5;stroke-linecap:butt;stroke-linejoin:miter;stroke-miterlimit:3.8637;stroke-dasharray:none;stroke-opacity:1"
       transform="matrix(0.13333333,0,0,-0.13333333,0,265.17333)" />
    <path
       id="path5"
       d="m 115.25,23.25 10,-12 -39,-11 20,35 9,-12"
       style="fill:#231f20;fill-opacity:1;fill-rule:evenodd;stroke:none"
       transform="matrix(0.13333333,0,0,-0.13333333,0,265.17333)" />
    <path
       id="path6"
       d="m 485.25,1024.25 v -714"
       style="fill:none;stroke:#231f20;stroke-width:2.5;stroke-linecap:butt;stroke-linejoin:miter;stroke-miterlimit:3.8637;stroke-dasharray:none;stroke-opacity:1"
       transform="matrix(0.13333333,0,0,-0.13333333,0,265.17333)" />
    <path
       id="path7"
       d="m 485.25,1022.25 h -15 l 15,37 15,-37 h -15"
       style="fill:#231f20;fill-opacity:1;fill-rule:evenodd;stroke:none"
       transform="matrix(0.13333333,0,0,-0.13333333,0,265.17333)" />
    <path
       id="path8"
       d="m 485.25,310.25 h 714"
       style="fill:none;stroke:#231f20;stroke-width:2.5;stroke-linecap:butt;stroke-linejoin:miter;stroke-miterlimit:3.8637;stroke-dasharray:none;stroke-opacity:1"
       transform="matrix(0.13333333,0,0,-0.13333333,0,265.17333)" />
    <path
       id="path9"
       d="m 1197.25,310.25 v 15 l 37,-15 -37,-15 v 15"
       style="fill:#231f20;fill-opacity:1;fill-rule:evenodd;stroke:none"
       transform="matrix(0.13333333,0,0,-0.13333333,0,265.17333)" />
    <path
       id="path10"
       d="m 4.8269531,-1.3356641 c -0.1054687,0.1171875 -0.1640625,0.1875 -0.2695312,0.328125 -0.2695313,0.36328129 -0.421875,0.48046879 -0.5625,0.48046879 -0.1640625,0 -0.28125,-0.15234375 -0.3632813,-0.49218749 -0.035156,-0.1289063 -0.035156,-0.1523438 -0.046875,-0.1875 -0.2929687,-1.2304688 -0.4335937,-1.78125 -0.4335937,-1.9570313 0.5390625,-0.9375 0.9609375,-1.453125 1.1835937,-1.453125 0.070312,0 0.1757813,0.035156 0.28125,0.09375 0.1523438,0.082031 0.234375,0.1054688 0.3398438,0.1054688 0.234375,0 0.4101562,-0.1757813 0.4101562,-0.4335938 0,-0.2578125 -0.2109375,-0.4453125 -0.4921875,-0.4453125 -0.5273437,0 -0.9726562,0.4335938 -1.8164062,1.7226563 l -0.1289063,-0.65625 C 2.7644531,-5.0505078 2.6238281,-5.2966016 2.3074219,-5.2966016 c -0.28125,0 -0.6679688,0.1054688 -1.40625002,0.3515625 -0.0703125,0.023437 -0.0703125,0.023437 -0.12890625,0.046875 l 0.046875,0.1875 c 0.46874997,-0.1289062 0.55078127,-0.140625 0.66796877,-0.140625 0.3046875,0 0.375,0.1171875 0.5390625,0.8320313 l 0.3515625,1.4765625 -0.984375,1.40625 c -0.2578125,0.35156249 -0.48046877,0.57421874 -0.60937502,0.57421874 -0.0820313,0 -0.19921875,-0.0351563 -0.31640625,-0.10546875 -0.15234375,-0.09375 -0.28125,-0.12890625 -0.38671875,-0.12890625 -0.234375,0 -0.41015625,0.1875 -0.41015625,0.421875 0,0.31640625 0.234375,0.50390625 0.609375,0.50390625 0.36328125,0 0.515625,-0.10546875 1.11328127,-0.8203125 0.3164062,-0.39843749 0.5859375,-0.76171879 1.078125,-1.41796879 l 0.3632812,1.44140629 c 0.1523438,0.62109375 0.3046875,0.796875 0.6914063,0.796875 0.4570312,0 0.7734375,-0.28125 1.4648437,-1.35937499 z m 0,0"
       style="fill:#231f20;fill-opacity:1;fill-rule:nonzero;stroke:none"
       aria-label="x"
       transform="matrix(1.3333333,0,0,1.3333333,163.9,126.20667)" />
    <path
       id="path11"
       d="m 1232.25,1114.25 h 49"
       style="fill:none;stroke:#231f20;stroke-width:2.5;stroke-linecap:butt;stroke-linejoin:miter;stroke-miterlimit:3.8637;stroke-dasharray:none;stroke-opacity:1"
       transform="matrix(0.13333333,0,0,-0.13333333,0,265.17333)" />
    <path
       id="path12"
       d="m 952.25,822.25 277,166"
       style="fill:none;stroke:#231f20;stroke-width:2.5;stroke-linecap:butt;stroke-linejoin:miter;stroke-miterlimit:3.8637;stroke-dasharray:none;stroke-opacity:1"
       transform="matrix(0.13333333,0,0,-0.13333333,0,265.17333)" />
    <path
       id="path13"
       d="m 1227.25,987.25 -7,13 39,6 -24,-32 -8,13"
       style="fill:#231f20;fill-opacity:1;fill-rule:evenodd;stroke:none"
       transform="matrix(0.13333333,0,0,-0.13333333,0,265.17333)" />
    <path
       id="path14"
       d="m 975.25,864.25 h 22 v -39 h -22 v 39"
       style="fill:#ffffff;fill-opacity:1;fill-rule:nonzero;stroke:none"
       transform="matrix(0.13333333,0,0,-0.13333333,0,265.17333)" />
    <path
       id="path15"
       d="m 984.25,754.25 -134,-105"
       style="fill:none;stroke:#231f20;stroke-width:2.5;stroke-linecap:butt;stroke-linejoin:miter;stroke-miterlimit:3.8637;stroke-dasharray:none;stroke-opacity:1"
       transform="matrix(0.13333333,0,0,-0.13333333,0,265.17333)" />
    <path
       id="path16"
       d="m 852.25,651.25 9,-12 -39,-11 20,35 10,-12"
       style="fill:#231f20;fill-opacity:1;fill-rule:evenodd;stroke:none"
       transform="matrix(0.13333333,0,0,-0.13333333,0,265.17333)" />
    <path
       id="path17"
       d="m 984.25,1013.25 v -259"
       style="fill:none;stroke:#231f20;stroke-width:2.5;stroke-linecap:butt;stroke-linejoin:miter;stroke-miterlimit:3.8637;stroke-dasharray:none;stroke-opacity:1"
       transform="matrix(0.13333333,0,0,-0.13333333,0,265.17333)" />
    <path
       id="path18"
       d="m 984.25,1010.25 h -15 l 15,38 15,-38 h -15"
       style="fill:#231f20;fill-opacity:1;fill-rule:evenodd;stroke:none"
       transform="matrix(0.13333333,0,0,-0.13333333,0,265.17333)" />
    <path
       id="path19"
       d="m 984.25,754.25 h 259"
       style="fill:none;stroke:#231f20;stroke-width:2.5;stroke-linecap:butt;stroke-linejoin:miter;stroke-miterlimit:3.8637;stroke-dasharray:none;stroke-opacity:1"
       transform="matrix(0.13333333,0,0,-0.13333333,0,265.17333)" />
    <path
       id="path20"
       d="m 1240.25,754.25 v 15 l 38,-15 -38,-15 v 15"
       style="fill:#231f20;fill-opacity:1;fill-rule:evenodd;stroke:none"
       transform="matrix(0.13333333,0,0,-0.13333333,0,265.17333)" />
    <path
       id="path21"
       d="m 956.25,772.25 -2,3 1433,861 2,-3 z"
       style="fill:#ffffff;fill-opacity:1;fill-rule:nonzero;stroke:none"
       transform="matrix(0.13333333,0,0,-0.13333333,0,265.17333)"
       clip-path="url(#clipPath22)" />
    <path
       id="path23"
       d="m 958.25,769.25 -2,3 1433,861 2,-3 z"
       style="fill:#fafafa;fill-opacity:1;fill-rule:nonzero;stroke:none"
       transform="matrix(0.13333333,0,0,-0.13333333,0,265.17333)"
       clip-path="url(#clipPath24)" />
    <path
       id="path25"
       d="m 960.25,766.25 -2,3 1433,861 2,-3 z"
       style="fill:#f6f6f6;fill-opacity:1;fill-rule:nonzero;stroke:none"
       transform="matrix(0.13333333,0,0,-0.13333333,0,265.17333)"
       clip-path="url(#clipPath26)" />
    <path
       id="path27"
       d="m 962.25,763.25 -2,3 1433,861 2,-3 z"
       style="fill:#f1f1f1;fill-opacity:1;fill-rule:nonzero;stroke:none"
       transform="matrix(0.13333333,0,0,-0.13333333,0,265.17333)"
       clip-path="url(#clipPath28)" />
    <path
       id="path29"
       d="m 963.25,760.25 -1,3 1433,861 1,-3 z"
       style="fill:#ececec;fill-opacity:1;fill-rule:nonzero;stroke:none"
       transform="matrix(0.13333333,0,0,-0.13333333,0,265.17333)"
       clip-path="url(#clipPath30)" />
    <path
       id="path31"
       d="m 965.25,757.25 -2,3 1433,861 2,-3 z"
       style="fill:#e8e7e8;fill-opacity:1;fill-rule:nonzero;stroke:none"
       transform="matrix(0.13333333,0,0,-0.13333333,0,265.17333)"
       clip-path="url(#clipPath32)" />
    <path
       id="path33"
       d="m 967.25,754.25 -2,3 1433,861 2,-3 z"
       style="fill:#e3e3e3;fill-opacity:1;fill-rule:nonzero;stroke:none"
       transform="matrix(0.13333333,0,0,-0.13333333,0,265.17333)"
       clip-path="url(#clipPath34)" />
    <path
       id="path35"
       d="m 969.25,751.25 -2,3 1433,861 2,-3 z"
       style="fill:#dfdede;fill-opacity:1;fill-rule:nonzero;stroke:none"
       transform="matrix(0.13333333,0,0,-0.13333333,0,265.17333)"
       clip-path="url(#clipPath36)" />
    <path
       id="path37"
       d="m 971.25,748.25 -2,3 1433,861 2,-3 z"
       style="fill:#dad9d9;fill-opacity:1;fill-rule:nonzero;stroke:none"
       transform="matrix(0.13333333,0,0,-0.13333333,0,265.17333)"
       clip-path="url(#clipPath38)" />
    <path
       id="path39"
       d="m 973.25,745.25 -2,3 1433,861 2,-3 z"
       style="fill:#d5d5d5;fill-opacity:1;fill-rule:nonzero;stroke:none"
       transform="matrix(0.13333333,0,0,-0.13333333,0,265.17333)"
       clip-path="url(#clipPath40)" />
    <path
       id="path41"
       d="m 974.25,742.25 -1,3 1433,861 1,-3 z"
       style="fill:#d1d0d0;fill-opacity:1;fill-rule:nonzero;stroke:none"
       transform="matrix(0.13333333,0,0,-0.13333333,0,265.17333)"
       clip-path="url(#clipPath42)" />
    <path
       id="path43"
       d="m 976.25,739.25 -2,3 1433,861 2,-3 z"
       style="fill:#cccbcb;fill-opacity:1;fill-rule:nonzero;stroke:none"
       transform="matrix(0.13333333,0,0,-0.13333333,0,265.17333)"
       clip-path="url(#clipPath44)" />
    <path
       id="path45"
       d="m 978.25,736.25 -2,3 1433,861 2,-3 z"
       style="fill:#c7c6c7;fill-opacity:1;fill-rule:nonzero;stroke:none"
       transform="matrix(0.13333333,0,0,-0.13333333,0,265.17333)"
       clip-path="url(#clipPath46)" />
    <path
       id="path47"
       d="m 980.25,732.25 -2,4 1433,861 2,-3 z"
       style="fill:#c3c2c2;fill-opacity:1;fill-rule:nonzero;stroke:none"
       transform="matrix(0.13333333,0,0,-0.13333333,0,265.17333)"
       clip-path="url(#clipPath48)" />
    <path
       id="path49"
       d="m 982.25,729.25 -2,3 1433,862 2,-4 z"
       style="fill:#bebdbd;fill-opacity:1;fill-rule:nonzero;stroke:none"
       transform="matrix(0.13333333,0,0,-0.13333333,0,265.17333)"
       clip-path="url(#clipPath50)" />
    <path
       id="path51"
       d="m 984.25,726.25 -2,3 1433,861 2,-3 z"
       style="fill:#bab8b9;fill-opacity:1;fill-rule:nonzero;stroke:none"
       transform="matrix(0.13333333,0,0,-0.13333333,0,265.17333)"
       clip-path="url(#clipPath52)" />
    <path
       id="path53"
       d="m 985.25,723.25 -1,3 1433,861 1,-3 z"
       style="fill:#b5b4b4;fill-opacity:1;fill-rule:nonzero;stroke:none"
       transform="matrix(0.13333333,0,0,-0.13333333,0,265.17333)"
       clip-path="url(#clipPath54)" />
    <path
       id="path55"
       d="m 987.25,720.25 -2,3 1433,861 2,-3 z"
       style="fill:#b0afaf;fill-opacity:1;fill-rule:nonzero;stroke:none"
       transform="matrix(0.13333333,0,0,-0.13333333,0,265.17333)"
       clip-path="url(#clipPath56)" />
    <path
       id="path57"
       d="m 989.25,717.25 -2,3 1433,861 2,-3 z"
       style="fill:#acaaab;fill-opacity:1;fill-rule:nonzero;stroke:none"
       transform="matrix(0.13333333,0,0,-0.13333333,0,265.17333)"
       clip-path="url(#clipPath58)" />
    <path
       id="path59"
       d="m 991.25,714.25 -2,3 1433,861 2,-3 z"
       style="fill:#a7a5a6;fill-opacity:1;fill-rule:nonzero;stroke:none"
       transform="matrix(0.13333333,0,0,-0.13333333,0,265.17333)"
       clip-path="url(#clipPath60)" />
    <path
       id="path61"
       d="m 972.25,786.25 1415,850 37,-61 -1415,-850 c -11.973,-7.211 -25.801,1.98 -33,14 -11.215,18.668 -19.223,37.855 -4,47 z"
       style="fill:none;stroke:#231f20;stroke-width:5;stroke-linecap:butt;stroke-linejoin:miter;stroke-miterlimit:3.8637;stroke-dasharray:none;stroke-opacity:1"
       transform="matrix(0.13333333,0,0,-0.13333333,0,265.17333)" />
    <path
       id="path62"
       d="m 2425.25,1618.25 c 9.49,-16.95 8.47,-35.83 -3,-43 -10.96,-6.31 -28.12,1.66 -38,18 -10.02,16.78 -9,35.67 2,42 11.43,7.14 28.59,-0.82 39,-17"
       style="fill:#d3d2d2;fill-opacity:1;fill-rule:nonzero;stroke:none"
       transform="matrix(0.13333333,0,0,-0.13333333,0,265.17333)" />
    <path
       id="path63"
       d="m 2425.25,1618.25 c 9.49,-16.95 8.47,-35.83 -3,-43 -10.96,-6.31 -28.12,1.66 -38,18 -10.02,16.78 -9,35.67 2,42 11.43,7.14 28.59,-0.82 39,-17 z"
       style="fill:none;stroke:#231f20;stroke-width:5;stroke-linecap:butt;stroke-linejoin:miter;stroke-miterlimit:3.8637;stroke-dasharray:none;stroke-opacity:1"
       transform="matrix(0.13333333,0,0,-0.13333333,0,265.17333)" />
    <path
       id="path64"
       d="M 3.690625,-0.9378125 C 3.26875,-0.41046875 3.1515625,-0.305 3.0226563,-0.305 c -0.058594,0 -0.082031,-0.046875 -0.082031,-0.140625 0,-0.046875 0,-0.046875 0.1523438,-0.6210938 l 0.6328125,-2.390625 H 3.128125 C 2.6945313,-2.27375 2.6125,-2.0745313 2.2492188,-1.5003125 c -0.4804688,0.75 -0.8789063,1.16015625 -1.125,1.16015625 -0.1054688,0 -0.1757813,-0.0820313 -0.1757813,-0.19921875 0,-0.0234375 0,-0.046875 0.0117188,-0.0703125 l 0.7265625,-2.90625 -0.023437,-0.011719 c -0.46875,0.1054688 -0.76171885,0.1523438 -1.1953126,0.2109375 v 0.1171875 c 0.31640625,0 0.31640625,0 0.3984375,0.046875 0.0351563,0.011719 0.0820313,0.082031 0.0820313,0.140625 0,0.070312 -0.046875,0.2695313 -0.1171875,0.5390625 L 0.53828125,-1.33625 C 0.3859375,-0.7503125 0.3390625,-0.4925 0.3390625,-0.351875 c 0,0.29296875 0.140625,0.4453125 0.421875,0.4453125 0.5625,0 0.9960938,-0.43359375 1.9101563,-1.9804688 -0.234375,0.8671875 -0.3632813,1.3945313 -0.3632813,1.57031255 0,0.2578125 0.1523438,0.38671875 0.3867188,0.38671875 0.375,0 0.5507812,-0.15234375 1.1015625,-0.9375 z m 2.6953125,3.9375 H 8.6242188 V 2.8825 h -0.140625 c -0.3867188,0 -0.5507813,-0.070312 -0.5507813,-0.2578125 0,-0.070312 0.023437,-0.1875 0.09375,-0.421875 C 8.05,2.1559375 8.0617188,2.1090625 8.0851563,2.0270312 L 9.221875,-2.1214063 c 0.046875,-0.140625 0.046875,-0.1992187 0.046875,-0.234375 0,-0.035156 -0.011719,-0.058594 -0.035156,-0.058594 0,0 -0.2226563,0.046875 -0.65625,0.1289062 L 7.8507813,-2.133125 c -0.011719,0 -0.070312,0.011719 -0.1640625,0.023437 V -1.9925 L 8.14375,-2.0042188 c 0.1875,-0.011719 0.3046875,0.09375 0.3046875,0.2460938 0,0.058594 -0.011719,0.1171875 -0.058594,0.28125 L 7.288281,2.460625 C 7.1945313,2.7535937 7.01875,2.835625 6.3859375,2.8825 Z M -11.707812,-37.137031 c -0.421875,0.527343 -0.539063,0.632812 -0.667969,0.632812 -0.05859,0 -0.08203,-0.04687 -0.08203,-0.140625 0,-0.04687 0,-0.04687 0.152343,-0.621094 l 0.632813,-2.390625 h -0.597656 c -0.433594,1.183594 -0.515625,1.382813 -0.878907,1.957032 -0.480468,0.75 -0.878906,1.160156 -1.125,1.160156 -0.105468,0 -0.175781,-0.08203 -0.175781,-0.199219 0,-0.02344 0,-0.04687 0.01172,-0.07031 l 0.726562,-2.90625 -0.02344,-0.01172 c -0.46875,0.105469 -0.761719,0.152344 -1.195313,0.210937 v 0.117188 c 0.316407,0 0.316407,0 0.398438,0.04687 0.03516,0.01172 0.08203,0.08203 0.08203,0.140625 0,0.07031 -0.04687,0.269531 -0.117187,0.539062 l -0.292969,1.136719 c -0.152344,0.585938 -0.199219,0.84375 -0.199219,0.984375 0,0.292969 0.140625,0.445313 0.421875,0.445313 0.5625,0 0.996094,-0.433594 1.910156,-1.980469 -0.234375,0.867187 -0.363281,1.394531 -0.363281,1.570312 0,0.257813 0.152344,0.386719 0.386719,0.386719 0.375,0 0.550781,-0.152344 1.101562,-0.9375 z M -6.2,-34.312813 c -0.1875,0.398438 -0.3398437,0.492188 -0.7851562,0.503907 h -1.5234375 v -0.03516 l 1.5351562,-1.535156 c 0.9375,-0.9375 1.1953125,-1.347656 1.1953125,-1.875 0,-0.761719 -0.5742187,-1.359375 -1.3007812,-1.359375 -0.2929688,0 -0.5859375,0.07031 -0.8203125,0.210938 -0.4101563,0.222656 -0.6328125,0.492187 -0.8554688,1.078125 l 0.1640625,0.04687 c 0.2929688,-0.515625 0.6445313,-0.75 1.125,-0.75 0.5742188,0 0.9960938,0.421875 0.9960938,0.972656 0,0.175781 -0.023437,0.328125 -0.070312,0.433594 -0.1992188,0.433593 -0.5625,0.9375 -1.078125,1.488281 l -1.6875,1.792969 v 0.140625 h 2.8476562 l 0.3984375,-1.054688 z m -35.90918,29.3759771 c -0.421875,0.5273437 -0.539062,0.6328125 -0.667968,0.6328125 -0.05859,0 -0.08203,-0.046875 -0.08203,-0.140625 0,-0.046875 0,-0.046875 0.152344,-0.6210938 l 0.632813,-2.390625 h -0.597657 c -0.433593,1.1835938 -0.515625,1.3828125 -0.878906,1.9570313 -0.480469,0.75 -0.878906,1.1601562 -1.125,1.1601562 -0.105469,0 -0.175781,-0.082031 -0.175781,-0.1992187 0,-0.023437 0,-0.046875 0.01172,-0.070312 l 0.726562,-2.90625 -0.02344,-0.011719 c -0.46875,0.1054688 -0.761719,0.1523438 -1.195313,0.2109375 v 0.1171875 c 0.316406,0 0.316406,0 0.398438,0.046875 0.03516,0.011719 0.08203,0.082031 0.08203,0.140625 0,0.070312 -0.04687,0.2695313 -0.117188,0.5390625 l -0.292968,1.1367188 c -0.152344,0.5859375 -0.199219,0.84375 -0.199219,0.984375 0,0.2929687 0.140625,0.4453125 0.421875,0.4453125 0.5625,0 0.996094,-0.4335938 1.910156,-1.9804688 -0.234375,0.8671875 -0.363281,1.3945313 -0.363281,1.5703125 0,0.2578125 0.152344,0.3867188 0.386719,0.3867188 0.375,0 0.550781,-0.1523438 1.101562,-0.9375 z m 3.738282,-0.5976563 c 0.269531,-0.375 0.550781,-0.5390625 0.878906,-0.5390625 0.433594,0 0.714844,0.2929688 0.714844,0.7265625 0,0.3398438 -0.164063,0.6210938 -0.515625,0.8554688 -0.339844,0.234375 -0.679688,0.3515625 -1.394532,0.4804687 l 0.01172,0.1171875 c 0.445313,0 0.527344,0.011719 0.726563,0.082031 0.492187,0.1875 0.75,0.6210937 0.75,1.2539062 0,0.28125 -0.05859,0.5742188 -0.175782,0.7617188 -0.1875,0.328125 -0.539062,0.5507812 -0.867187,0.5507812 -0.152344,0 -0.339844,-0.082031 -0.574219,-0.2578125 -0.234375,-0.1640625 -0.363281,-0.2226562 -0.515625,-0.2226562 -0.222656,0 -0.351562,0.1054687 -0.351562,0.3046875 0,0.3046875 0.328125,0.48046871 0.902343,0.48046871 0.445313,0 0.867188,-0.10546871 1.195313,-0.29296871 0.621094,-0.375 1.03125,-1.0429688 1.03125,-1.7578125 0,-0.5859375 -0.234375,-0.9492188 -0.761719,-1.1953125 v -0.023437 c 0.960938,-0.375 1.242188,-0.6445313 1.242188,-1.1835938 0,-0.5859375 -0.480469,-1.0195312 -1.125,-1.0195312 -0.550782,0 -1.042969,0.3164062 -1.300782,0.8320312 z M 145.99141,-101.23859 c -0.42188,0.52734 -0.53907,0.63281 -0.66797,0.63281 -0.0586,0 -0.082,-0.0469 -0.082,-0.14063 0,-0.0469 0,-0.0469 0.15234,-0.62109 l 0.63281,-2.39063 h -0.59765 c -0.4336,1.1836 -0.51563,1.38282 -0.87891,1.95704 -0.48047,0.75 -0.87891,1.16015 -1.125,1.16015 -0.10547,0 -0.17578,-0.082 -0.17578,-0.19922 0,-0.0234 0,-0.0469 0.0117,-0.0703 l 0.72656,-2.90625 -0.0234,-0.0117 c -0.46875,0.10547 -0.76172,0.15235 -1.19531,0.21094 v 0.11719 c 0.31641,0 0.31641,0 0.39844,0.0469 0.0351,0.0117 0.082,0.082 0.082,0.14063 0,0.0703 -0.0469,0.26953 -0.11719,0.53906 l -0.29297,1.13672 c -0.15234,0.58594 -0.19922,0.84375 -0.19922,0.98437 0,0.29297 0.14063,0.44532 0.42188,0.44532 0.5625,0 0.99609,-0.4336 1.91015,-1.98047 -0.23437,0.86718 -0.36328,1.39453 -0.36328,1.57031 0,0.25781 0.15235,0.38672 0.38672,0.38672 0.375,0 0.55078,-0.15235 1.10156,-0.9375 z m 5.92968,2.003902 h -0.75 l 0.96094,-3.480472 h -0.32812 l -3.33985,3.457035 -0.15234,0.527344 h 2.09765 l -0.39843,1.429687 h 0.63281 l 0.375,-1.40625 h 0.79687 z m -1.40625,0 h -1.69922 v -0.02344 l 2.4375,-2.554682 h 0.0352 z m -20.82422,-22.101562 c -0.42187,0.52734 -0.53906,0.63281 -0.66796,0.63281 -0.0586,0 -0.082,-0.0469 -0.082,-0.14062 0,-0.0469 0,-0.0469 0.15235,-0.6211 l 0.63281,-2.39062 h -0.59766 c -0.43359,1.18359 -0.51562,1.38281 -0.8789,1.95703 -0.48047,0.75 -0.87891,1.16016 -1.125,1.16016 -0.10547,0 -0.17578,-0.082 -0.17578,-0.19922 0,-0.0234 0,-0.0469 0.0117,-0.0703 l 0.72656,-2.90625 -0.0234,-0.0117 c -0.46875,0.10546 -0.76172,0.15234 -1.19531,0.21093 v 0.11719 c 0.31641,0 0.31641,0 0.39844,0.0469 0.0352,0.0117 0.082,0.082 0.082,0.14062 0,0.0703 -0.0469,0.26953 -0.11719,0.53906 l -0.29297,1.13672 c -0.15234,0.58594 -0.19922,0.84375 -0.19922,0.98438 0,0.29297 0.14063,0.44531 0.42188,0.44531 0.5625,0 0.99609,-0.43359 1.91015,-1.98047 -0.23437,0.86719 -0.36328,1.39453 -0.36328,1.57031 0,0.25782 0.15235,0.38672 0.38672,0.38672 0.375,0 0.55078,-0.15234 1.10156,-0.9375 z m 4.21875,-0.82031 h 1.83985 l 0.17578,-0.57422 h -2.03906 l -0.84375,1.74609 v 0.11719 c 0.78515,0.17578 1.04297,0.26953 1.33593,0.50391 0.25782,0.19921 0.42188,0.60937 0.42188,1.03125 0,0.86718 -0.64453,1.65234 -1.37109,1.65234 -0.16407,0 -0.30469,-0.0586 -0.53907,-0.23438 -0.19922,-0.15234 -0.32812,-0.19921 -0.44531,-0.19921 -0.1875,0 -0.32812,0.1289 -0.32812,0.3164 0,0.28125 0.3164,0.45703 0.85546,0.45703 1.3125,0 2.37891,-1.03125 2.37891,-2.29687 0,-0.50391 -0.1875,-0.92578 -0.52734,-1.25391 -0.30469,-0.28125 -0.58594,-0.41015 -1.23047,-0.5625 z m -25.41796,47.118162 c -0.42188,0.527343 -0.53907,0.632812 -0.66797,0.632812 -0.0586,0 -0.082,-0.04687 -0.082,-0.140625 0,-0.04687 0,-0.04687 0.15234,-0.621094 l 0.63281,-2.390625 h -0.59765 c -0.4336,1.183594 -0.51563,1.382813 -0.87891,1.957032 -0.48047,0.75 -0.87891,1.160156 -1.125,1.160156 -0.10547,0 -0.17578,-0.08203 -0.17578,-0.199219 0,-0.02344 0,-0.04687 0.0117,-0.07031 l 0.72656,-2.90625 -0.0234,-0.01172 c -0.46875,0.105469 -0.76172,0.152344 -1.19531,0.210937 v 0.117188 c 0.31641,0 0.31641,0 0.39844,0.04687 0.0352,0.01172 0.082,0.08203 0.082,0.140625 0,0.07031 -0.0469,0.269531 -0.11719,0.539062 l -0.29297,1.136719 c -0.15234,0.585938 -0.19922,0.84375 -0.19922,0.984375 0,0.292969 0.14063,0.445313 0.42188,0.445313 0.5625,0 0.99609,-0.433594 1.91016,-1.980469 -0.23438,0.867187 -0.36329,1.394531 -0.36329,1.570312 0,0.257813 0.15235,0.386719 0.38672,0.386719 0.375,0 0.55078,-0.152344 1.10157,-0.9375 z m 6.46875,-1.558594 c -1.06641,0.128906 -1.60547,0.328125 -2.29688,0.832031 -1.00781,0.75 -1.6289,1.886719 -1.6289,3.035156 0,1.019532 0.58593,1.6875 1.46484,1.6875 1.07812,0 1.99219,-1.019531 1.99219,-2.226562 0,-0.820313 -0.57422,-1.40625 -1.35938,-1.40625 -0.22265,0 -0.49219,0.05859 -0.70312,0.164062 l -0.0352,-0.01172 c 0.55078,-1.019532 1.64063,-1.828125 2.57813,-1.945313 z m -2.08594,2.203125 c 0.55078,0 0.90234,0.398437 0.90234,1.019531 0,0.539063 -0.1875,1.171875 -0.49218,1.59375 -0.23438,0.363281 -0.51563,0.527344 -0.85547,0.527344 -0.49219,0 -0.78516,-0.386719 -0.78516,-1.042969 0,-0.550781 0.16406,-1.21875 0.375,-1.570312 0.21094,-0.363282 0.48047,-0.527344 0.85547,-0.527344 z m 0,0"
       style="fill:#231f20;fill-opacity:1;fill-rule:nonzero;stroke:none"
       aria-label="u&#10;1&#10;u&#10;2&#10;u&#10;3&#10;u&#10;4&#10;u&#10;5&#10;u&#10;6"
       transform="matrix(1.3333333,0,0,1.3333333,157.76667,177.40667)" />
    <path
       id="path65"
       d="m 2367.25,1576.25 -151,-115"
       style="fill:none;stroke:#ffffff;stroke-width:40;stroke-linecap:round;stroke-linejoin:miter;stroke-miterlimit:3.8637;stroke-dasharray:none;stroke-opacity:1"
       transform="matrix(0.13333333,0,0,-0.13333333,0,265.17333)" />
    <path
       id="path66"
       d="m 2404.25,1605.25 -134,-104"
       style="fill:none;stroke:#231f20;stroke-width:2.5;stroke-linecap:butt;stroke-linejoin:miter;stroke-miterlimit:3.8637;stroke-dasharray:none;stroke-opacity:1"
       transform="matrix(0.13333333,0,0,-0.13333333,0,265.17333)" />
    <path
       id="path67"
       d="m 2272.25,1502.25 9,-12 -39,-11 20,35 10,-12"
       style="fill:#231f20;fill-opacity:1;fill-rule:evenodd;stroke:none"
       transform="matrix(0.13333333,0,0,-0.13333333,0,265.17333)" />
    <path
       id="path68"
       d="m 2404.25,1864.25 v -259"
       style="fill:none;stroke:#231f20;stroke-width:2.5;stroke-linecap:butt;stroke-linejoin:miter;stroke-miterlimit:3.8637;stroke-dasharray:none;stroke-opacity:1"
       transform="matrix(0.13333333,0,0,-0.13333333,0,265.17333)" />
    <path
       id="path69"
       d="m 2404.25,1861.25 h -15 l 15,38 15,-38 h -15"
       style="fill:#231f20;fill-opacity:1;fill-rule:evenodd;stroke:none"
       transform="matrix(0.13333333,0,0,-0.13333333,0,265.17333)" />
    <path
       id="path70"
       d="m 2404.25,1605.25 h 259"
       style="fill:none;stroke:#231f20;stroke-width:2.5;stroke-linecap:butt;stroke-linejoin:miter;stroke-miterlimit:3.8637;stroke-dasharray:none;stroke-opacity:1"
       transform="matrix(0.13333333,0,0,-0.13333333,0,265.17333)" />
    <path
       id="path71"
       d="m 2661.25,1605.25 v 15 l 37,-15 -37,-15 v 15"
       style="fill:#231f20;fill-opacity:1;fill-rule:evenodd;stroke:none"
       transform="matrix(0.13333333,0,0,-0.13333333,0,265.17333)" />
  </g>
</svg>
