<?xml version="1.0" encoding="UTF-8" standalone="no"?>
<!-- Created with Inkscape (http://www.inkscape.org/) -->

<svg
   version="1.1"
   id="svg1"
   width="439.89334"
   height="322.38666"
   viewBox="0 0 439.89334 322.38666"
   sodipodi:docname="BEAM3E.EPS"
   xmlns:inkscape="http://www.inkscape.org/namespaces/inkscape"
   xmlns:sodipodi="http://sodipodi.sourceforge.net/DTD/sodipodi-0.dtd"
   xmlns="http://www.w3.org/2000/svg"
   xmlns:svg="http://www.w3.org/2000/svg">
  <defs
     id="defs1" />
  <sodipodi:namedview
     id="namedview1"
     pagecolor="#ffffff"
     bordercolor="#000000"
     borderopacity="0.25"
     inkscape:showpageshadow="2"
     inkscape:pageopacity="0.0"
     inkscape:pagecheckerboard="0"
     inkscape:deskcolor="#d1d1d1">
    <inkscape:page
       x="0"
       y="0"
       inkscape:label="1"
       id="page1"
       width="439.89334"
       height="322.38666"
       margin="0"
       bleed="0" />
  </sodipodi:namedview>
  <g
     id="g1"
     inkscape:groupmode="layer"
     inkscape:label="1">
    <path
       id="path1"
       d="m 1147.25,1142.25 v -259"
       style="fill:none;stroke:#231f20;stroke-width:2.5;stroke-linecap:butt;stroke-linejoin:miter;stroke-miterlimit:3.8637;stroke-dasharray:none;stroke-opacity:1"
       transform="matrix(0.13333333,0,0,-0.13333333,0,322.38667)" />
    <path
       id="path2"
       d="m 1147.25,1140.25 h -15 l 15,37 15,-37 h -15"
       style="fill:#231f20;fill-opacity:1;fill-rule:evenodd;stroke:none"
       transform="matrix(0.13333333,0,0,-0.13333333,0,322.38667)" />
    <path
       id="path3"
       d="m 1147.25,883.25 h 259"
       style="fill:none;stroke:#231f20;stroke-width:2.5;stroke-linecap:butt;stroke-linejoin:miter;stroke-miterlimit:3.8637;stroke-dasharray:none;stroke-opacity:1"
       transform="matrix(0.13333333,0,0,-0.13333333,0,322.38667)" />
    <path
       id="path4"
       d="m 1404.25,883.25 v 15 l 37,-15 -37,-15 v 15"
       style="fill:#231f20;fill-opacity:1;fill-rule:evenodd;stroke:none"
       transform="matrix(0.13333333,0,0,-0.13333333,0,322.38667)" />
    <path
       id="path5"
       d="m 1145.25,883.25 -134,-105"
       style="fill:none;stroke:#231f20;stroke-width:2.5;stroke-linecap:butt;stroke-linejoin:miter;stroke-miterlimit:3.8637;stroke-dasharray:none;stroke-opacity:1"
       transform="matrix(0.13333333,0,0,-0.13333333,0,322.38667)" />
    <path
       id="path6"
       d="m 1013.25,780.25 9,-12 -39,-11 21,34 9,-11"
       style="fill:#231f20;fill-opacity:1;fill-rule:evenodd;stroke:none"
       transform="matrix(0.13333333,0,0,-0.13333333,0,322.38667)" />
    <path
       id="path7"
       d="m 1148.25,1462.25 -1,-47"
       style="fill:none;stroke:#231f20;stroke-width:2.251;stroke-linecap:butt;stroke-linejoin:miter;stroke-miterlimit:3.8637;stroke-dasharray:20, 20;stroke-dashoffset:0;stroke-opacity:1"
       transform="matrix(0.13333333,0,0,-0.13333333,0,322.38667)" />
    <path
       id="path8"
       d="m 1148.25,1459.25 -14,1 14,33 13,-34 h -13"
       style="fill:#231f20;fill-opacity:1;fill-rule:evenodd;stroke:none"
       transform="matrix(0.13333333,0,0,-0.13333333,0,322.38667)" />
    <path
       id="path9"
       d="m 1147.25,1430.25 v -227"
       style="fill:none;stroke:#231f20;stroke-width:2.5;stroke-linecap:butt;stroke-linejoin:miter;stroke-miterlimit:3.8637;stroke-dasharray:20, 20;stroke-dashoffset:0;stroke-opacity:1"
       transform="matrix(0.13333333,0,0,-0.13333333,0,322.38667)" />
    <path
       id="path10"
       d="m 1147.25,1428.25 h -15 l 15,37 15,-37 h -15"
       style="fill:#231f20;fill-opacity:1;fill-rule:evenodd;stroke:none"
       transform="matrix(0.13333333,0,0,-0.13333333,0,322.38667)" />
    <path
       id="path11"
       d="m 1665.25,882.25 54,1"
       style="fill:none;stroke:#231f20;stroke-width:2.251;stroke-linecap:butt;stroke-linejoin:miter;stroke-miterlimit:3.8637;stroke-dasharray:20, 20;stroke-dashoffset:0;stroke-opacity:1"
       transform="matrix(0.13333333,0,0,-0.13333333,0,322.38667)" />
    <path
       id="path12"
       d="m 1717.25,883.25 v 14 l 34,-13 -34,-14 v 13"
       style="fill:#231f20;fill-opacity:1;fill-rule:evenodd;stroke:none"
       transform="matrix(0.13333333,0,0,-0.13333333,0,322.38667)" />
    <path
       id="path13"
       d="m 1479.25,882.25 h 211"
       style="fill:none;stroke:#231f20;stroke-width:2.5;stroke-linecap:butt;stroke-linejoin:miter;stroke-miterlimit:3.8637;stroke-dasharray:20, 20;stroke-dashoffset:0;stroke-opacity:1"
       transform="matrix(0.13333333,0,0,-0.13333333,0,322.38667)" />
    <path
       id="path14"
       d="m 1687.25,882.25 v 15 l 38,-15 -38,-15 v 15"
       style="fill:#231f20;fill-opacity:1;fill-rule:evenodd;stroke:none"
       transform="matrix(0.13333333,0,0,-0.13333333,0,322.38667)" />
    <path
       id="path15"
       d="m 820.25,632.25 50,37"
       style="fill:none;stroke:#231f20;stroke-width:2.251;stroke-linecap:butt;stroke-linejoin:miter;stroke-miterlimit:3.8637;stroke-dasharray:20, 20;stroke-dashoffset:0;stroke-opacity:1"
       transform="matrix(0.13333333,0,0,-0.13333333,0,322.38667)" />
    <path
       id="path16"
       d="m 822.25,633.25 8,-10 -35,-10 19,31 8,-11"
       style="fill:#231f20;fill-opacity:1;fill-rule:evenodd;stroke:none"
       transform="matrix(0.13333333,0,0,-0.13333333,0,322.38667)" />
    <path
       id="path17"
       d="m 844.25,651.25 114,88"
       style="fill:none;stroke:#231f20;stroke-width:2.5;stroke-linecap:butt;stroke-linejoin:miter;stroke-miterlimit:3.8637;stroke-dasharray:20, 20;stroke-dashoffset:0;stroke-opacity:1"
       transform="matrix(0.13333333,0,0,-0.13333333,0,322.38667)" />
    <path
       id="path18"
       d="m 846.25,653.25 9,-12 -39,-12 21,35 9,-11"
       style="fill:#231f20;fill-opacity:1;fill-rule:evenodd;stroke:none"
       transform="matrix(0.13333333,0,0,-0.13333333,0,322.38667)" />
    <path
       id="path19"
       d="M 0.97402344,-3.7034766 C 1.2083984,-4.3011328 1.3958984,-4.4300391 1.9466797,-4.4183203 h 1.7460937 l -3.71484371,4.46484374 0.10546875,0.10546875 c 0.19921875,-0.1523437525 0.3515625,-0.2109375 0.5390625,-0.2109375 0.31640625,0 0.70312496,0.15234375 1.26562496,0.50390625 0.5976563,0.375 0.9960938,0.52734375 1.3359375,0.52734375 0.609375,0 1.1367188,-0.43359375 1.1367188,-0.9140625 0,-0.2578125 -0.1757813,-0.43359375 -0.421875,-0.43359375 -0.2460938,0 -0.4101563,0.1640625 -0.4101563,0.38671875 0,0.09375 0.035156,0.19921875 0.1054688,0.3515625 0.035156,0.0703125 0.058594,0.140625 0.058594,0.17578125 0,0.10546875 -0.1289062,0.17578125 -0.3164062,0.17578125 -0.3046875,0 -0.4453125,-0.10546875 -0.84375,-0.59765625 -0.5273438,-0.6796875 -0.75,-0.83203125 -1.453125,-0.99609375 L 4.5599609,-5.0042578 V -5.1331641 H 1.1498047 L 0.78652344,-3.7620703 Z M 117.22695,-13.13707 c -0.10547,0.117187 -0.16406,0.1875 -0.26953,0.328125 -0.26953,0.363281 -0.42187,0.480468 -0.5625,0.480468 -0.16406,0 -0.28125,-0.152343 -0.36328,-0.492187 -0.0352,-0.128906 -0.0352,-0.152344 -0.0469,-0.1875 -0.29297,-1.230469 -0.4336,-1.78125 -0.4336,-1.957031 0.53906,-0.9375 0.96094,-1.453125 1.1836,-1.453125 0.0703,0 0.17578,0.03516 0.28125,0.09375 0.15234,0.08203 0.23437,0.105468 0.33984,0.105468 0.23437,0 0.41016,-0.175781 0.41016,-0.433593 0,-0.257813 -0.21094,-0.445313 -0.49219,-0.445313 -0.52735,0 -0.97266,0.433594 -1.81641,1.722656 l -0.1289,-0.65625 c -0.16407,-0.820312 -0.30469,-1.066406 -0.6211,-1.066406 -0.28125,0 -0.66797,0.105469 -1.40625,0.351563 -0.0703,0.02344 -0.0703,0.02344 -0.1289,0.04687 l 0.0469,0.1875 c 0.46875,-0.128907 0.55078,-0.140625 0.66797,-0.140625 0.30469,0 0.375,0.117187 0.53906,0.832031 l 0.35156,1.476562 -0.98437,1.40625 c -0.25781,0.351563 -0.48047,0.574219 -0.60938,0.574219 -0.082,0 -0.19921,-0.03516 -0.3164,-0.105469 -0.15235,-0.09375 -0.28125,-0.128906 -0.38672,-0.128906 -0.23438,0 -0.41016,0.1875 -0.41016,0.421875 0,0.316406 0.23438,0.503906 0.60938,0.503906 0.36328,0 0.51562,-0.105468 1.11328,-0.820312 0.31641,-0.398438 0.58594,-0.761719 1.07812,-1.417969 l 0.36329,1.441406 c 0.15234,0.621094 0.30468,0.796875 0.6914,0.796875 0.45703,0 0.77344,-0.28125 1.46485,-1.359375 z M 32.274805,-96.905625 c 0.152343,-0.03516 0.246093,-0.04687 0.375,-0.04687 0.492187,0 0.726562,0.199219 0.960937,0.84375 0.328125,0.890625 0.949219,3.457031 0.949219,3.914063 0,0.1875 -0.08203,0.386718 -0.257813,0.609375 -0.328125,0.445312 -0.609375,0.785156 -0.75,0.9375 -0.257812,0.257812 -0.386718,0.363281 -0.539062,0.363281 -0.08203,0 -0.152344,-0.03516 -0.292969,-0.140625 -0.175781,-0.140625 -0.292969,-0.199219 -0.445312,-0.199219 -0.257813,0 -0.46875,0.199219 -0.46875,0.46875 0,0.316406 0.257812,0.527344 0.621093,0.527344 0.761719,0 2.320313,-1.792969 3.632813,-4.171875 0.820312,-1.476563 1.148437,-2.34375 1.148437,-2.929688 0,-0.363281 -0.292968,-0.667968 -0.65625,-0.667968 -0.28125,0 -0.46875,0.1875 -0.46875,0.445312 0,0.199219 0.09375,0.316406 0.339844,0.46875 0.222656,0.140625 0.304688,0.246094 0.304688,0.410156 0,0.480469 -0.433594,1.40625 -1.464844,3.105469 l -0.234375,-1.394531 c -0.1875,-1.066406 -0.855469,-3.035156 -1.03125,-3.035156 h -0.04687 c -0.02344,0.01172 -0.05859,0.01172 -0.117188,0.01172 -0.09375,0.01172 -0.539062,0.09375 -1.171875,0.210938 -0.05859,0.01172 -0.210937,0.04687 -0.386718,0.07031 z m 0,0"
       style="fill:#231f20;fill-opacity:1;fill-rule:nonzero;stroke:none"
       aria-label="z&#10;x&#10;y"
       transform="matrix(1.3333333,0,0,1.3333333,4.0333333,313.02)" />
    <path
       id="path20"
       d="m 485.25,310.25 -372,-289"
       style="fill:none;stroke:#231f20;stroke-width:2.5;stroke-linecap:butt;stroke-linejoin:miter;stroke-miterlimit:3.8637;stroke-dasharray:none;stroke-opacity:1"
       transform="matrix(0.13333333,0,0,-0.13333333,0,322.38667)" />
    <path
       id="path21"
       d="m 115.25,23.25 10,-12 -39,-11 20,35 9,-12"
       style="fill:#231f20;fill-opacity:1;fill-rule:evenodd;stroke:none"
       transform="matrix(0.13333333,0,0,-0.13333333,0,322.38667)" />
    <path
       id="path22"
       d="m 485.25,1024.25 v -714"
       style="fill:none;stroke:#231f20;stroke-width:2.5;stroke-linecap:butt;stroke-linejoin:miter;stroke-miterlimit:3.8637;stroke-dasharray:none;stroke-opacity:1"
       transform="matrix(0.13333333,0,0,-0.13333333,0,322.38667)" />
    <path
       id="path23"
       d="m 485.25,1022.25 h -15 l 15,37 15,-37 h -15"
       style="fill:#231f20;fill-opacity:1;fill-rule:evenodd;stroke:none"
       transform="matrix(0.13333333,0,0,-0.13333333,0,322.38667)" />
    <path
       id="path24"
       d="m 485.25,310.25 h 714"
       style="fill:none;stroke:#231f20;stroke-width:2.5;stroke-linecap:butt;stroke-linejoin:miter;stroke-miterlimit:3.8637;stroke-dasharray:none;stroke-opacity:1"
       transform="matrix(0.13333333,0,0,-0.13333333,0,322.38667)" />
    <path
       id="path25"
       d="m 1197.25,310.25 v 15 l 37,-15 -37,-15 v 15"
       style="fill:#231f20;fill-opacity:1;fill-rule:evenodd;stroke:none"
       transform="matrix(0.13333333,0,0,-0.13333333,0,322.38667)" />
    <path
       id="path26"
       d="m 1069.25,932.25 196,113 70,-123 -195,-113 -71,123"
       style="fill:#ffffff;fill-opacity:1;fill-rule:nonzero;stroke:none"
       transform="matrix(0.13333333,0,0,-0.13333333,0,322.38667)" />
    <path
       id="path27"
       d="m 1114.25,890.25 1414,850 37,-61 -1415,-850 z"
       style="fill:none;stroke:#231f20;stroke-width:5;stroke-linecap:butt;stroke-linejoin:miter;stroke-miterlimit:3.8637;stroke-dasharray:none;stroke-opacity:1"
       transform="matrix(0.13333333,0,0,-0.13333333,0,322.38667)" />
    <path
       id="path28"
       d="m 1114.25,890.25 46,81 1415,850"
       style="fill:none;stroke:#231f20;stroke-width:5;stroke-linecap:butt;stroke-linejoin:miter;stroke-miterlimit:3.8637;stroke-dasharray:none;stroke-opacity:1"
       transform="matrix(0.13333333,0,0,-0.13333333,0,322.38667)" />
    <path
       id="path29"
       d="m 2530.25,1743.25 45,76 c 0.55,1.26 1.95,1.48 3,0 l 33,-57 c 1.21,-0.91 1.09,-3.28 0,-5 l -44,-76 c -0.99,-1.2 -2.38,-1.43 -3,0 l -34,57 c -0.64,0.96 -0.53,3.33 0,5 z"
       style="fill:none;stroke:#231f20;stroke-width:5.424;stroke-linecap:butt;stroke-linejoin:miter;stroke-miterlimit:3.8637;stroke-dasharray:none;stroke-opacity:1"
       transform="matrix(0.13333333,0,0,-0.13333333,0,322.38667)" />
    <path
       id="path30"
       d="m 5.5326172,-1.4066016 c -0.6328125,0.79687504 -0.8085938,0.94921879 -0.9960938,0.94921879 -0.082031,0 -0.1289062,-0.0703125 -0.1289062,-0.19921875 0,-0.0703125 0,-0.0703125 0.2226562,-0.93750004 l 0.9492188,-3.5859375 h -0.890625 c -0.6445313,1.7695313 -0.7734375,2.0742188 -1.3125,2.9179688 -0.7265625,1.1484375 -1.3125,1.75781249 -1.6992188,1.75781249 -0.1523437,0 -0.2460937,-0.1171875 -0.2460937,-0.3046875 0,-0.0351563 0,-0.0703125 0.011719,-0.10546875 l 1.0898438,-4.35937504 -0.035156,-0.023437 c -0.6914062,0.1757813 -1.1367187,0.2460938 -1.80468746,0.328125 v 0.1640625 c 0.48046876,0.011719 0.48046876,0.011719 0.60937496,0.082031 0.058594,0.023437 0.1171875,0.1289062 0.1171875,0.2109375 0,0.1054687 -0.058594,0.3984375 -0.1757812,0.8085937 l -0.43359376,1.6992188 c -0.234375,0.890625 -0.3046875,1.26562499 -0.3046875,1.47656249 0,0.4453125 0.2109375,0.65625 0.63281246,0.65625 0.8554688,0 1.4882813,-0.64453125 2.8710938,-2.96484379 -0.3632813,1.3007813 -0.5390625,2.10937504 -0.5390625,2.36718754 0,0.375 0.2109375,0.57421875 0.5742187,0.57421875 0.5625,0 0.8320313,-0.22265625 1.6523438,-1.40624999 z m 1.0546875,4.40625 H 9.9388672 V 2.8238672 H 9.7279297 c -0.5859375,0 -0.8203125,-0.1171875 -0.8203125,-0.3867188 0,-0.1054687 0.035156,-0.2929687 0.140625,-0.6210937 0.023437,-0.09375 0.035156,-0.1523438 0.070312,-0.2695313 l 1.7226568,-6.2226562 c 0.05859,-0.2226563 0.07031,-0.2929688 0.07031,-0.3515625 0,-0.046875 -0.02344,-0.082031 -0.05859,-0.082031 0,0 -0.339843,0.058594 -0.9843748,0.1875 L 8.7904302,-4.69957 c -0.023437,0.011719 -0.1171875,0.023437 -0.2578125,0.046875 v 0.1757812 l 0.6796875,-0.023437 c 0.28125,-0.011719 0.4570312,0.1289063 0.4570312,0.375 0,0.082031 -0.023437,0.1640625 -0.082031,0.4101563 L 7.9349609,2.1793359 c -0.140625,0.4453125 -0.3984375,0.5625 -1.3476562,0.65625 z M -11.770117,-40.60582 c -0.632813,0.796875 -0.808594,0.949218 -0.996094,0.949218 -0.08203,0 -0.128906,-0.07031 -0.128906,-0.199218 0,-0.07031 0,-0.07031 0.222656,-0.9375 l 0.949219,-3.585938 h -0.890625 c -0.644531,1.769531 -0.773438,2.074219 -1.3125,2.917969 -0.726563,1.148437 -1.3125,1.757812 -1.699219,1.757812 -0.152344,0 -0.246094,-0.117187 -0.246094,-0.304687 0,-0.03516 0,-0.07031 0.01172,-0.105469 l 1.089844,-4.359375 -0.03516,-0.02344 c -0.691407,0.175781 -1.136719,0.246093 -1.804688,0.328125 v 0.164062 c 0.480469,0.01172 0.480469,0.01172 0.609375,0.08203 0.05859,0.02344 0.117188,0.128907 0.117188,0.210938 0,0.105469 -0.05859,0.398437 -0.175782,0.808594 l -0.433593,1.699218 c -0.234375,0.890625 -0.304688,1.265625 -0.304688,1.476563 0,0.445312 0.210938,0.65625 0.632813,0.65625 0.855468,0 1.488281,-0.644531 2.871093,-2.964844 -0.363281,1.300781 -0.539062,2.109375 -0.539062,2.367188 0,0.375 0.210937,0.574218 0.574219,0.574218 0.5625,0 0.832031,-0.222656 1.652343,-1.40625 z m 5.2734373,2.742187 c -0.28125,0.585938 -0.515625,0.726563 -1.1953125,0.75 h -2.2734375 v -0.05859 l 2.296875,-2.308593 c 1.40625,-1.394532 1.7929688,-2.003907 1.7929688,-2.800782 0,-1.136718 -0.8554688,-2.027343 -1.9453125,-2.027343 -0.4335938,0 -0.8789063,0.105468 -1.2421875,0.304687 -0.609375,0.339844 -0.9257813,0.75 -1.2773441,1.617188 l 0.246094,0.08203 c 0.4453126,-0.785156 0.9609376,-1.125 1.6875001,-1.125 0.8671875,0 1.5,0.621094 1.5,1.453125 0,0.257812 -0.035156,0.480469 -0.1054688,0.644531 -0.2929687,0.644531 -0.84375,1.40625 -1.6289062,2.238281 l -2.5195311,2.695313 v 0.199219 h 4.2656248 l 0.5976563,-1.582032 z M 34.832422,-1.4066016 c -0.632813,0.79687504 -0.808594,0.94921879 -0.996094,0.94921879 -0.08203,0 -0.128906,-0.0703125 -0.128906,-0.19921875 0,-0.0703125 0,-0.0703125 0.222656,-0.93750004 l 0.949219,-3.5859375 h -0.890625 c -0.644531,1.7695313 -0.773438,2.0742188 -1.3125,2.9179688 -0.726563,1.1484375 -1.3125,1.75781249 -1.699219,1.75781249 -0.152344,0 -0.246094,-0.1171875 -0.246094,-0.3046875 0,-0.0351563 0,-0.0703125 0.01172,-0.10546875 l 1.089844,-4.35937504 -0.03516,-0.023437 c -0.691407,0.1757813 -1.136719,0.2460938 -1.804688,0.328125 v 0.1640625 c 0.480469,0.011719 0.480469,0.011719 0.609375,0.082031 0.05859,0.023437 0.117188,0.1289062 0.117188,0.2109375 0,0.1054687 -0.05859,0.3984375 -0.175782,0.8085937 l -0.433593,1.6992188 c -0.234375,0.890625 -0.304688,1.26562499 -0.304688,1.47656249 0,0.4453125 0.210938,0.65625 0.632813,0.65625 0.855468,0 1.488281,-0.64453125 2.871093,-2.96484379 -0.363281,1.3007813 -0.539062,2.10937504 -0.539062,2.36718754 0,0.375 0.210937,0.57421875 0.574219,0.57421875 0.5625,0 0.832031,-0.22265625 1.652343,-1.40624999 z m 5.90625,1.51171879 h -1.136719 l 1.441406,-5.21484379 h -0.480468 l -5.003907,5.16796879 -0.246093,0.80859375 h 3.140625 L 37.867578,2.9996484 h 0.949219 l 0.550781,-2.10937496 h 1.207031 z m -2.109375,0 h -2.542969 v -0.046875 l 3.644531,-3.82031249 h 0.04687 z M -11.869727,-67.005234 c -0.632812,0.796875 -0.808593,0.949218 -0.996093,0.949218 -0.08203,0 -0.128907,-0.07031 -0.128907,-0.199218 0,-0.07031 0,-0.07031 0.222657,-0.9375 l 0.949218,-3.585938 h -0.890625 c -0.644531,1.769531 -0.773437,2.074219 -1.3125,2.917969 -0.726562,1.148437 -1.3125,1.757812 -1.699218,1.757812 -0.152344,0 -0.246094,-0.117187 -0.246094,-0.304687 0,-0.03516 0,-0.07031 0.01172,-0.105469 l 1.089843,-4.359375 -0.03516,-0.02344 c -0.691406,0.175781 -1.136719,0.246093 -1.804687,0.328125 v 0.164062 c 0.480468,0.01172 0.480468,0.01172 0.609375,0.08203 0.05859,0.02344 0.117187,0.128907 0.117187,0.210938 0,0.105469 -0.05859,0.398437 -0.175781,0.808594 l -0.433594,1.699218 c -0.234375,0.890625 -0.304687,1.265625 -0.304687,1.476563 0,0.445312 0.210937,0.65625 0.632812,0.65625 0.855469,0 1.488281,-0.644531 2.871094,-2.964844 -0.363281,1.300781 -0.539063,2.109375 -0.539063,2.367188 0,0.375 0.210938,0.574218 0.574219,0.574218 0.5625,0 0.832031,-0.222656 1.652344,-1.40625 z m 3.4277348,-2.730469 h 2.7539063 l 0.28125,-0.855469 h -3.0703125 l -1.2539063,2.613281 v 0.1875 c 1.1601563,0.246094 1.5585938,0.386719 1.9921875,0.738282 0.3867188,0.316406 0.6328125,0.914062 0.6328125,1.546875 0,1.3125 -0.9726562,2.484375 -2.0507812,2.484375 -0.2460938,0 -0.46875,-0.09375 -0.8085938,-0.351563 -0.3046873,-0.222656 -0.4804683,-0.304687 -0.6796873,-0.304687 -0.269531,0 -0.480469,0.199218 -0.480469,0.480468 0,0.433594 0.46875,0.679688 1.2773438,0.679688 1.9804688,0 3.5742188,-1.535156 3.5742188,-3.445313 0,-0.738281 -0.2695313,-1.371093 -0.796875,-1.863281 -0.4453125,-0.421875 -0.8671875,-0.621094 -1.8398438,-0.855469 z M -52.469336,22.493789 c -0.632812,0.796875 -0.808594,0.949219 -0.996094,0.949219 -0.08203,0 -0.128906,-0.07031 -0.128906,-0.199219 0,-0.07031 0,-0.07031 0.222656,-0.9375 l 0.949219,-3.585937 h -0.890625 c -0.644531,1.769531 -0.773437,2.074218 -1.3125,2.917968 -0.726562,1.148438 -1.3125,1.757813 -1.699219,1.757813 -0.152343,0 -0.246093,-0.117188 -0.246093,-0.304688 0,-0.03516 0,-0.07031 0.01172,-0.105468 l 1.089844,-4.359375 -0.03516,-0.02344 c -0.691406,0.175781 -1.136719,0.246094 -1.804688,0.328125 v 0.164063 c 0.480469,0.01172 0.480469,0.01172 0.609375,0.08203 0.05859,0.02344 0.117188,0.128906 0.117188,0.210937 0,0.105469 -0.05859,0.398438 -0.175781,0.808594 l -0.433594,1.699219 c -0.234375,0.890625 -0.304688,1.265625 -0.304688,1.476562 0,0.445313 0.210938,0.65625 0.632813,0.65625 0.855469,0 1.488281,-0.644531 2.871094,-2.964843 -0.363282,1.300781 -0.539063,2.109375 -0.539063,2.367187 0,0.375 0.210938,0.574219 0.574219,0.574219 0.5625,0 0.832031,-0.222656 1.652344,-1.40625 z m 6.802734,-3.820312 c -1.605468,0.1875 -2.402343,0.46875 -3.433593,1.230468 -1.511719,1.125 -2.4375,2.835938 -2.4375,4.546875 0,1.535157 0.855468,2.53125 2.191406,2.53125 1.605469,0 2.976562,-1.523437 2.976562,-3.339843 0,-1.21875 -0.855468,-2.109375 -2.039062,-2.109375 -0.339844,0 -0.726563,0.09375 -1.054688,0.257812 l -0.04687,-0.02344 c 0.820313,-1.523438 2.460938,-2.742188 3.867188,-2.90625 z m -3.128906,3.292968 c 0.832031,0 1.359375,0.597657 1.359375,1.523438 0,0.820312 -0.292969,1.769531 -0.738281,2.390625 -0.351563,0.539062 -0.773438,0.796875 -1.289063,0.796875 -0.738281,0 -1.160156,-0.597656 -1.160156,-1.582031 0,-0.808594 0.234375,-1.804688 0.550781,-2.332032 0.316407,-0.550781 0.714844,-0.796875 1.277344,-0.796875 z m 11.226563,-10.87207 c -0.632813,0.796875 -0.808594,0.949219 -0.996094,0.949219 -0.08203,0 -0.128906,-0.07031 -0.128906,-0.199219 0,-0.07031 0,-0.07031 0.222656,-0.9375 l 0.949219,-3.5859375 h -0.890625 c -0.644532,1.7695312 -0.773438,2.0742187 -1.3125,2.9179685 -0.726563,1.148438 -1.3125,1.757813 -1.699219,1.757813 -0.152344,0 -0.246094,-0.117188 -0.246094,-0.304688 0,-0.03516 0,-0.07031 0.01172,-0.105469 l 1.089844,-4.3593745 -0.03516,-0.023437 c -0.691406,0.1757812 -1.136718,0.2460937 -1.804687,0.328125 V 7.695938 c 0.480469,0.011719 0.480469,0.011719 0.609375,0.082031 0.05859,0.023437 0.117187,0.1289063 0.117187,0.2109375 0,0.1054688 -0.05859,0.3984375 -0.175781,0.8085938 l -0.433594,1.6992187 c -0.234375,0.890625 -0.304687,1.265625 -0.304687,1.476562 0,0.445313 0.210937,0.65625 0.632812,0.65625 0.855469,0 1.488282,-0.644531 2.871094,-2.9648432 -0.363281,1.3007812 -0.539062,2.1093742 -0.539062,2.3671872 0,0.375 0.210937,0.574219 0.574218,0.574219 0.5625,0 0.832032,-0.222657 1.652344,-1.40625 z m 2.701172,-2.4023438 c 0.421875,-0.5625 0.832031,-0.796875 1.335937,-0.796875 0.644531,0 1.066406,0.4335938 1.066406,1.0898438 0,0.5039062 -0.246093,0.9375 -0.761718,1.289062 -0.515625,0.339844 -1.042969,0.527344 -2.109375,0.703125 l 0.01172,0.1875 c 0.679688,0 0.796875,0.01172 1.113282,0.128907 0.726562,0.269531 1.113281,0.914062 1.113281,1.875 0,0.421875 -0.09375,0.855468 -0.269531,1.148437 -0.269532,0.480469 -0.808594,0.808594 -1.300782,0.808594 -0.234375,0 -0.492187,-0.117188 -0.855468,-0.386719 -0.351563,-0.246094 -0.539063,-0.328125 -0.773438,-0.328125 -0.328125,0 -0.527344,0.164063 -0.527344,0.46875 0,0.457031 0.480469,0.703125 1.347657,0.703125 0.667968,0 1.300781,-0.152344 1.792968,-0.445312 0.949219,-0.550782 1.546875,-1.558594 1.546875,-2.625 0,-0.878907 -0.351562,-1.417969 -1.148437,-1.792969 v -0.03516 c 1.441406,-0.5625 1.863281,-0.9609378 1.863281,-1.7695315 0,-0.8789063 -0.703125,-1.5234375 -1.675781,-1.5234375 -0.832031,0 -1.570313,0.46875 -1.957031,1.2421875 z M 148.33145,-87.507188 c -0.63282,0.796875 -0.8086,0.949219 -0.9961,0.949219 -0.082,0 -0.1289,-0.07031 -0.1289,-0.199219 0,-0.07031 0,-0.07031 0.22265,-0.9375 l 0.94922,-3.585937 h -0.89062 c -0.64454,1.769531 -0.77344,2.074219 -1.3125,2.917969 -0.72657,1.148437 -1.3125,1.757812 -1.69922,1.757812 -0.15235,0 -0.2461,-0.117187 -0.2461,-0.304687 0,-0.03516 0,-0.07031 0.0117,-0.105469 l 1.08985,-4.359375 -0.0352,-0.02344 c -0.69141,0.175782 -1.13672,0.246094 -1.80469,0.328125 v 0.164063 c 0.48047,0.01172 0.48047,0.01172 0.60938,0.08203 0.0586,0.02344 0.11718,0.128906 0.11718,0.210938 0,0.105468 -0.0586,0.398437 -0.17578,0.808593 l -0.43359,1.699219 c -0.23438,0.890625 -0.30469,1.265625 -0.30469,1.476563 0,0.445312 0.21094,0.65625 0.63281,0.65625 0.85547,0 1.48829,-0.644532 2.8711,-2.964844 -0.36328,1.300781 -0.53906,2.109375 -0.53906,2.367187 0,0.375 0.21093,0.574219 0.57421,0.574219 0.5625,0 0.83204,-0.222656 1.65235,-1.40625 z m 6.91406,-3.46875 -0.0703,-0.117187 h -4.5 l -0.97266,1.628906 0.16406,0.105469 c 0.55078,-0.667969 0.89063,-0.84375 1.59375,-0.855469 h 2.67188 l 0.0234,0.03516 -4.40625,7.171875 h 0.84375 z m -24.21387,-30.331052 c -0.63281,0.79687 -0.80859,0.94922 -0.99609,0.94922 -0.082,0 -0.12891,-0.0703 -0.12891,-0.19922 0,-0.0703 0,-0.0703 0.22266,-0.9375 l 0.94922,-3.58594 h -0.89063 c -0.64453,1.76953 -0.77344,2.07422 -1.3125,2.91797 -0.72656,1.14844 -1.3125,1.75781 -1.69922,1.75781 -0.15234,0 -0.24609,-0.11719 -0.24609,-0.30469 0,-0.0352 0,-0.0703 0.0117,-0.10546 l 1.08984,-4.35938 -0.0352,-0.0234 c -0.6914,0.17578 -1.13671,0.2461 -1.80468,0.32813 v 0.16406 c 0.48047,0.0117 0.48047,0.0117 0.60937,0.082 0.0586,0.0234 0.11719,0.12891 0.11719,0.21094 0,0.10547 -0.0586,0.39844 -0.17578,0.80859 l -0.4336,1.69922 c -0.23437,0.89063 -0.30468,1.26563 -0.30468,1.47656 0,0.44532 0.21093,0.65625 0.63281,0.65625 0.85547,0 1.48828,-0.64453 2.87109,-2.96484 -0.36328,1.30078 -0.53906,2.10938 -0.53906,2.36719 0,0.375 0.21094,0.57422 0.57422,0.57422 0.5625,0 0.83203,-0.22266 1.65234,-1.40625 z m 4.41797,-0.17578 c 1.42969,-0.46875 1.96875,-0.98438 1.96875,-1.83985 0,-0.99609 -0.87891,-1.6875 -2.09766,-1.6875 -1.28906,0 -2.16797,0.72657 -2.16797,1.79297 0,0.65625 0.2461,1.125 1.04297,1.99219 -1.51172,0.48047 -2.33203,1.33594 -2.33203,2.39062 0,0.32813 0.0937,0.69141 0.26953,0.98438 0.39844,0.67969 1.125,1.03125 2.10938,1.03125 1.48828,0 2.58984,-0.92578 2.58984,-2.15625 0,-0.80859 -0.36328,-1.45313 -1.38281,-2.50781 z m -0.98438,0.45703 c 1.32422,1.35937 1.46485,1.58203 1.46485,2.26172 0,0.97265 -0.69141,1.6875 -1.62891,1.6875 -0.94922,0 -1.6289,-0.70313 -1.6289,-1.6875 0,-0.9961 0.65625,-1.81641 1.79296,-2.26172 z m 0.76172,-0.66797 c -0.92578,-0.87891 -1.13672,-1.18359 -1.13672,-1.6875 0,-0.84375 0.45704,-1.35938 1.23047,-1.35938 0.76172,0 1.27735,0.5625 1.27735,1.41797 0,0.76172 -0.31641,1.13672 -1.3711,1.62891 z m 42.4043,34.186522 c -0.63281,0.796875 -0.80859,0.949219 -0.99609,0.949219 -0.082,0 -0.12891,-0.07031 -0.12891,-0.199219 0,-0.07031 0,-0.07031 0.22266,-0.9375 l 0.94921,-3.585937 h -0.89062 c -0.64453,1.769531 -0.77344,2.074219 -1.3125,2.917969 -0.72656,1.148437 -1.3125,1.757812 -1.69922,1.757812 -0.15234,0 -0.24609,-0.117187 -0.24609,-0.304687 0,-0.03516 0,-0.07031 0.0117,-0.105469 l 1.08984,-4.359375 -0.0352,-0.02344 c -0.6914,0.175782 -1.13672,0.246094 -1.80468,0.328125 v 0.164063 c 0.48046,0.01172 0.48046,0.01172 0.60937,0.08203 0.0586,0.02344 0.11719,0.128906 0.11719,0.210938 0,0.105468 -0.0586,0.398437 -0.17578,0.808593 l -0.4336,1.699219 c -0.23437,0.890625 -0.30468,1.265625 -0.30468,1.476563 0,0.445312 0.21093,0.65625 0.63281,0.65625 0.85547,0 1.48828,-0.644532 2.87109,-2.964844 -0.36328,1.300781 -0.53906,2.109375 -0.53906,2.367187 0,0.375 0.21094,0.574219 0.57422,0.574219 0.5625,0 0.83203,-0.222656 1.65234,-1.40625 z m 1.05469,4.40625 h 3.35156 v -0.175781 h -0.21094 c -0.58594,0 -0.82031,-0.117187 -0.82031,-0.386719 0,-0.105468 0.0352,-0.292968 0.14062,-0.621093 0.0234,-0.09375 0.0352,-0.152344 0.0703,-0.269532 l 1.72265,-6.222656 c 0.0586,-0.222656 0.0703,-0.292969 0.0703,-0.351562 0,-0.04687 -0.0234,-0.08203 -0.0586,-0.08203 0,0 -0.33984,0.05859 -0.98437,0.1875 l -1.07813,0.222657 c -0.0234,0.01172 -0.11719,0.02344 -0.25781,0.04687 v 0.175781 l 0.67969,-0.02344 c 0.28125,-0.01172 0.45703,0.128907 0.45703,0.375 0,0.08203 -0.0234,0.164063 -0.082,0.410157 l -1.65235,5.894531 c -0.14062,0.445312 -0.39843,0.5625 -1.34765,0.65625 z m 7.50293,-8.109375 c -1.88672,0 -3.70313,2.730469 -3.70313,5.554688 0,1.582031 0.76172,2.636719 1.9336,2.636719 0.51562,0 1.01953,-0.175782 1.52343,-0.550782 1.20703,-0.890625 2.1211,-2.882812 2.1211,-4.605468 0,-1.898438 -0.70313,-3.035157 -1.875,-3.035157 z m -0.0703,0.328125 c 0.63282,0 0.9961,0.5625 0.9961,1.511719 0,1.617188 -0.48047,3.597656 -1.16016,4.816406 -0.45703,0.796875 -0.94922,1.195313 -1.5,1.195313 -0.64453,0 -1.01953,-0.597656 -1.01953,-1.617188 0,-1.277343 0.60938,-3.644531 1.23047,-4.757812 0.44531,-0.773438 0.90234,-1.148438 1.45312,-1.148438 z m -55.08691,-62.124022 c -0.63281,0.79687 -0.80859,0.94922 -0.99609,0.94922 -0.082,0 -0.12891,-0.0703 -0.12891,-0.19922 0,-0.0703 0,-0.0703 0.22266,-0.9375 l 0.94922,-3.58594 h -0.89063 c -0.64453,1.76953 -0.77344,2.07422 -1.3125,2.91797 -0.72656,1.14844 -1.3125,1.75781 -1.69922,1.75781 -0.15234,0 -0.24609,-0.11718 -0.24609,-0.30468 0,-0.0352 0,-0.0703 0.0117,-0.10547 l 1.08984,-4.35938 -0.0352,-0.0234 c -0.6914,0.17579 -1.13671,0.2461 -1.80468,0.32813 v 0.16406 c 0.48047,0.0117 0.48047,0.0117 0.60937,0.082 0.0586,0.0234 0.11719,0.12891 0.11719,0.21094 0,0.10547 -0.0586,0.39844 -0.17578,0.80859 l -0.4336,1.69922 c -0.23437,0.89063 -0.30468,1.26563 -0.30468,1.47657 0,0.44531 0.21093,0.65625 0.63281,0.65625 0.85547,0 1.48828,-0.64454 2.87109,-2.96485 -0.36328,1.30078 -0.53906,2.10938 -0.53906,2.36719 0,0.375 0.21094,0.57422 0.57422,0.57422 0.5625,0 0.83203,-0.22266 1.65234,-1.40625 z m 1.05469,4.40625 h 3.35156 v -0.17578 h -0.21094 c -0.58593,0 -0.82031,-0.11719 -0.82031,-0.38672 0,-0.10547 0.0352,-0.29297 0.14063,-0.62109 0.0234,-0.0937 0.0352,-0.15235 0.0703,-0.26954 l 1.72265,-6.22265 c 0.0586,-0.22266 0.0703,-0.29297 0.0703,-0.35156 0,-0.0469 -0.0234,-0.082 -0.0586,-0.082 0,0 -0.33984,0.0586 -0.98437,0.1875 l -1.07813,0.22266 c -0.0234,0.0117 -0.11718,0.0234 -0.25781,0.0469 v 0.17578 l 0.67969,-0.0234 c 0.28125,-0.0117 0.45703,0.12891 0.45703,0.375 0,0.082 -0.0234,0.16406 -0.082,0.41016 l -1.65235,5.89453 c -0.14062,0.44531 -0.39843,0.5625 -1.34765,0.65625 z m 3.50097,0 h 3.35157 v -0.17578 h -0.21094 c -0.58594,0 -0.82031,-0.11719 -0.82031,-0.38672 0,-0.10547 0.0351,-0.29297 0.14062,-0.62109 0.0234,-0.0937 0.0352,-0.15235 0.0703,-0.26954 l 1.72266,-6.22265 c 0.0586,-0.22266 0.0703,-0.29297 0.0703,-0.35156 0,-0.0469 -0.0234,-0.082 -0.0586,-0.082 0,0 -0.33984,0.0586 -0.98438,0.1875 l -1.07812,0.22266 c -0.0234,0.0117 -0.11719,0.0234 -0.25781,0.0469 v 0.17578 l 0.67968,-0.0234 c 0.28125,-0.0117 0.45704,0.12891 0.45704,0.375 0,0.082 -0.0234,0.16406 -0.082,0.41016 l -1.65234,5.89453 c -0.14062,0.44531 -0.39844,0.5625 -1.34766,0.65625 z m -41.355464,86.393554 c -0.632813,0.796875 -0.808594,0.949218 -0.996094,0.949218 -0.08203,0 -0.128906,-0.07031 -0.128906,-0.199218 0,-0.07031 0,-0.07031 0.222656,-0.9375 l 0.949219,-3.585938 h -0.890625 c -0.644531,1.769531 -0.773438,2.074219 -1.3125,2.917969 -0.726563,1.148437 -1.3125,1.757812 -1.699219,1.757812 -0.152344,0 -0.246094,-0.117187 -0.246094,-0.304687 0,-0.03516 0,-0.07031 0.01172,-0.105469 l 1.089844,-4.359375 -0.03516,-0.02344 c -0.691407,0.175781 -1.136719,0.246093 -1.804688,0.328125 v 0.164062 c 0.480469,0.01172 0.480469,0.01172 0.609375,0.08203 0.05859,0.02344 0.117188,0.128907 0.117188,0.210938 0,0.105469 -0.05859,0.398437 -0.175782,0.808594 l -0.433593,1.699218 c -0.234375,0.890625 -0.304688,1.265625 -0.304688,1.476563 0,0.445312 0.210938,0.65625 0.632813,0.65625 0.855468,0 1.488281,-0.644531 2.871093,-2.964844 -0.363281,1.300781 -0.539062,2.109375 -0.539062,2.367188 0,0.375 0.210937,0.574218 0.574219,0.574218 0.5625,0 0.832031,-0.222656 1.652343,-1.40625 z m 1.054687,4.40625 h 3.351563 v -0.175782 h -0.210938 c -0.585937,0 -0.820312,-0.117187 -0.820312,-0.386718 0,-0.105469 0.03516,-0.292969 0.140625,-0.621094 0.02344,-0.09375 0.03516,-0.152344 0.07031,-0.269531 l 1.722657,-6.222657 c 0.05859,-0.222656 0.07031,-0.292968 0.07031,-0.351562 0,-0.04687 -0.02344,-0.08203 -0.05859,-0.08203 0,0 -0.339843,0.05859 -0.984375,0.1875 l -1.078125,0.222656 c -0.02344,0.01172 -0.117187,0.02344 -0.257812,0.04687 v 0.175781 l 0.679687,-0.02344 c 0.28125,-0.01172 0.457032,0.128906 0.457032,0.375 0,0.08203 -0.02344,0.164062 -0.08203,0.410156 l -1.652343,5.894531 c -0.140625,0.445313 -0.398438,0.5625 -1.347657,0.65625 z m 8.217777,-1.664063 c -0.28125,0.585938 -0.51563,0.726563 -1.19532,0.75 h -2.27343 v -0.05859 l 2.29687,-2.308593 c 1.40625,-1.394532 1.79297,-2.003907 1.79297,-2.800782 0,-1.136718 -0.85547,-2.027343 -1.94531,-2.027343 -0.4336,0 -0.87891,0.105468 -1.24219,0.304687 -0.60937,0.339844 -0.92578,0.75 -1.277343,1.617188 l 0.246094,0.08203 c 0.445309,-0.785156 0.960939,-1.125 1.687499,-1.125 0.86719,0 1.5,0.621094 1.5,1.453125 0,0.257812 -0.0352,0.480469 -0.10547,0.644531 -0.29297,0.644531 -0.84375,1.40625 -1.6289,2.238281 l -2.519536,2.695313 v 0.199219 h 4.265626 l 0.59766,-1.582032 z m 11.62793,-15.541992 c -0.63282,0.796875 -0.8086,0.949219 -0.9961,0.949219 -0.082,0 -0.1289,-0.07031 -0.1289,-0.199219 0,-0.07031 0,-0.07031 0.22265,-0.9375 l 0.94922,-3.585937 h -0.89062 c -0.64453,1.769531 -0.77344,2.074218 -1.3125,2.917968 -0.72657,1.148438 -1.3125,1.757813 -1.69922,1.757813 -0.15235,0 -0.2461,-0.117188 -0.2461,-0.304688 0,-0.03516 0,-0.07031 0.0117,-0.105468 l 1.08985,-4.359375 -0.0352,-0.02344 c -0.69141,0.175781 -1.13672,0.246094 -1.80469,0.328125 v 0.164063 c 0.48047,0.01172 0.48047,0.01172 0.60938,0.08203 0.0586,0.02344 0.11719,0.128906 0.11719,0.210937 0,0.105469 -0.0586,0.398438 -0.17579,0.808594 l -0.43359,1.699219 c -0.23437,0.890625 -0.30469,1.265625 -0.30469,1.476562 0,0.445313 0.21094,0.65625 0.63282,0.65625 0.85546,0 1.48828,-0.644531 2.87109,-2.964843 -0.36328,1.300781 -0.53906,2.109375 -0.53906,2.367187 0,0.375 0.21093,0.574219 0.57422,0.574219 0.5625,0 0.83203,-0.222656 1.65234,-1.40625 z m 0.75,4.605469 c 1.61718,-0.269531 2.41406,-0.597656 3.41015,-1.371094 1.39453,-1.113281 2.21485,-2.707031 2.21485,-4.324219 0,-1.582031 -0.86719,-2.613281 -2.17969,-2.613281 -1.51172,0 -2.89453,1.535156 -2.89453,3.210938 0,1.265625 0.73828,2.15625 1.79297,2.15625 0.49218,0 0.91406,-0.152344 1.54687,-0.550782 l 0.0469,0.02344 c -0.19922,0.5625 -0.79688,1.335937 -1.53516,2.003906 -0.86719,0.738281 -1.46484,1.054688 -2.40234,1.253906 z m 3.53906,-8.003906 c 0.73828,0 1.18359,0.597656 1.18359,1.59375 0,0.925781 -0.30468,2.050781 -0.65625,2.390625 -0.3164,0.316406 -0.80859,0.515625 -1.26562,0.515625 -0.76172,0 -1.19531,-0.597657 -1.19531,-1.664063 0,-0.890625 0.33984,-1.851562 0.85546,-2.378906 0.29297,-0.292969 0.66797,-0.457031 1.07813,-0.457031 z M -79.891211,-4.6028906 c -0.445312,-1.21875 -0.574219,-1.9570313 -0.574219,-3.1171875 0,-1.453125 0.328125,-3.1640629 0.890625,-4.4999999 0.398438,-0.949219 0.773438,-1.511719 1.558594,-2.332031 l -0.164062,-0.175782 c -1.558594,1.417969 -2.167969,2.203125 -2.671875,3.457032 -0.316407,0.75 -0.445313,1.4882809 -0.445313,2.4140621 0,0.9257813 0.140625,1.8164063 0.410156,2.6484375 0.164063,0.5039063 0.351563,0.890625 0.773438,1.6757813 z m 6.914063,-3.4335938 c -0.105469,0.1171875 -0.164063,0.1875 -0.269532,0.328125 -0.269531,0.3632813 -0.421875,0.4804688 -0.5625,0.4804688 -0.164062,0 -0.28125,-0.1523438 -0.363281,-0.4921875 -0.03516,-0.1289063 -0.03516,-0.1523438 -0.04687,-0.1875 -0.292969,-1.2304688 -0.433594,-1.78125 -0.433594,-1.9570313 0.539063,-0.9374996 0.960938,-1.4531246 1.183594,-1.4531246 0.07031,0 0.175781,0.03516 0.28125,0.09375 0.152344,0.08203 0.234375,0.105468 0.339844,0.105468 0.234375,0 0.410156,-0.175781 0.410156,-0.433593 0,-0.257813 -0.210937,-0.445313 -0.492187,-0.445313 -0.527344,0 -0.972657,0.433594 -1.816407,1.722656 l -0.128906,-0.65625 c -0.164062,-0.820312 -0.304687,-1.066406 -0.621094,-1.066406 -0.28125,0 -0.667968,0.105469 -1.40625,0.351563 -0.07031,0.02344 -0.07031,0.02344 -0.128906,0.04687 l 0.04687,0.1875 c 0.46875,-0.128907 0.550781,-0.140625 0.667969,-0.140625 0.304687,0 0.375,0.117187 0.539062,0.832031 l 0.351563,1.4765624 -0.984375,1.40625 c -0.257813,0.3515625 -0.480469,0.5742187 -0.609375,0.5742187 -0.08203,0 -0.199219,-0.035156 -0.316406,-0.1054687 -0.152344,-0.09375 -0.28125,-0.1289063 -0.386719,-0.1289063 -0.234375,0 -0.410156,0.1875 -0.410156,0.421875 0,0.3164063 0.234375,0.5039063 0.609375,0.5039063 0.363281,0 0.515625,-0.1054688 1.113281,-0.8203125 0.316406,-0.3984375 0.585937,-0.7617188 1.078125,-1.4179688 l 0.363281,1.4414063 c 0.152344,0.6210937 0.304688,0.796875 0.691406,0.796875 0.457032,0 0.773438,-0.28125 1.464844,-1.359375 z m 1.063476,4.3359375 h 3.351563 v -0.1757812 h -0.210938 c -0.585937,0 -0.820312,-0.1171875 -0.820312,-0.3867188 0,-0.1054687 0.03516,-0.2929687 0.140625,-0.6210937 0.02344,-0.09375 0.03516,-0.1523438 0.07031,-0.2695313 l 1.722656,-6.2226561 c 0.05859,-0.222656 0.07031,-0.292969 0.07031,-0.351563 0,-0.04687 -0.02344,-0.08203 -0.05859,-0.08203 0,0 -0.339844,0.05859 -0.984375,0.1875 l -1.078125,0.222656 c -0.02344,0.01172 -0.117187,0.02344 -0.257812,0.04687 v 0.175782 l 0.679687,-0.02344 c 0.28125,-0.01172 0.457031,0.128906 0.457031,0.375 0,0.08203 -0.02344,0.164063 -0.08203,0.410156 l -1.652344,5.8945316 c -0.140625,0.4453125 -0.398437,0.5625 -1.347656,0.65625 z m 3.47168,-1.453125 c 1.019531,-0.5625 1.558594,-1.2304687 1.558594,-1.9101562 0,-0.4804688 -0.292969,-0.84375 -0.691407,-0.84375 -0.351562,0 -0.609375,0.234375 -0.609375,0.5507812 0,0.2226563 0.07031,0.3398438 0.292969,0.5507813 0.1875,0.1640625 0.246094,0.2578125 0.246094,0.3867187 0,0.3164063 -0.269531,0.6445313 -0.902344,1.0664063 z m 3.117187,-6.3515621 c 0.152344,-0.03516 0.246094,-0.04687 0.375,-0.04687 0.492188,0 0.726563,0.199218 0.960938,0.84375 0.328125,0.8906246 0.949219,3.4570309 0.949219,3.9140621 0,0.1875 -0.08203,0.3867188 -0.257813,0.609375 -0.328125,0.4453125 -0.609375,0.7851563 -0.75,0.9375 -0.257812,0.2578125 -0.386719,0.3632813 -0.539062,0.3632813 -0.08203,0 -0.152344,-0.035156 -0.292969,-0.140625 -0.175781,-0.140625 -0.292969,-0.1992188 -0.445313,-0.1992188 -0.257812,0 -0.46875,0.1992188 -0.46875,0.46875 0,0.3164063 0.257813,0.5273438 0.621094,0.5273438 0.761719,0 2.320313,-1.7929688 3.632813,-4.171875 0.820312,-1.4765625 1.148437,-2.3437504 1.148437,-2.9296874 0,-0.363281 -0.292969,-0.667969 -0.65625,-0.667969 -0.28125,0 -0.46875,0.1875 -0.46875,0.445313 0,0.199218 0.09375,0.316406 0.339844,0.46875 0.222656,0.140625 0.304687,0.246093 0.304687,0.410156 0,0.480469 -0.433593,1.4062499 -1.464843,3.1054686 l -0.234375,-1.3945312 c -0.1875,-1.0664064 -0.855469,-3.0351564 -1.03125,-3.0351564 h -0.04687 c -0.02344,0.01172 -0.05859,0.01172 -0.117188,0.01172 -0.09375,0.01172 -0.539062,0.09375 -1.171875,0.210937 -0.05859,0.01172 -0.210937,0.04687 -0.386719,0.07031 z m 5.709961,7.8046871 h 3.351563 v -0.1757812 h -0.210938 c -0.585937,0 -0.820312,-0.1171875 -0.820312,-0.3867188 0,-0.1054687 0.03516,-0.2929687 0.140625,-0.6210937 0.02344,-0.09375 0.03516,-0.1523438 0.07031,-0.2695313 l 1.722656,-6.2226561 c 0.05859,-0.222656 0.07031,-0.292969 0.07031,-0.351563 0,-0.04687 -0.02344,-0.08203 -0.05859,-0.08203 0,0 -0.339844,0.05859 -0.984375,0.1875 l -1.078125,0.222656 c -0.02344,0.01172 -0.117187,0.02344 -0.257812,0.04687 v 0.175782 l 0.679687,-0.02344 c 0.28125,-0.01172 0.457031,0.128906 0.457031,0.375 0,0.08203 -0.02344,0.164063 -0.08203,0.410156 l -1.652344,5.8945316 c -0.140625,0.4453125 -0.398437,0.5625 -1.347656,0.65625 z m 3.47461,-1.453125 c 1.019531,-0.5625 1.558593,-1.2304687 1.558593,-1.9101562 0,-0.4804688 -0.292968,-0.84375 -0.691406,-0.84375 -0.351562,0 -0.609375,0.234375 -0.609375,0.5507812 0,0.2226563 0.07031,0.3398438 0.292969,0.5507813 0.1875,0.1640625 0.246094,0.2578125 0.246094,0.3867187 0,0.3164063 -0.269532,0.6445313 -0.902344,1.0664063 z m 3.914062,-5.2500001 c 0.234375,-0.597656 0.421875,-0.726562 0.972656,-0.714844 h 1.746094 l -3.714844,4.4648441 0.105469,0.1054688 c 0.199219,-0.1523438 0.351563,-0.2109375 0.539063,-0.2109375 0.316406,0 0.703125,0.1523437 1.265625,0.5039062 0.597656,0.375 0.996093,0.5273438 1.335937,0.5273438 0.609375,0 1.136719,-0.4335938 1.136719,-0.9140625 0,-0.2578125 -0.175781,-0.4335938 -0.421875,-0.4335938 -0.246094,0 -0.410156,0.1640625 -0.410156,0.3867188 0,0.09375 0.03516,0.1992187 0.105468,0.3515625 0.03516,0.070312 0.05859,0.140625 0.05859,0.1757812 0,0.1054688 -0.128906,0.1757813 -0.316406,0.1757813 -0.304688,0 -0.445313,-0.1054688 -0.84375,-0.5976563 -0.527344,-0.6796875 -0.75,-0.8320312 -1.453125,-0.9960937 l 3.480469,-4.1249999 v -0.128906 h -3.410157 l -0.363281,1.371093 z m 4.3125,6.7031251 h 3.351563 v -0.1757812 h -0.210938 c -0.585937,0 -0.820312,-0.1171875 -0.820312,-0.3867188 0,-0.1054687 0.03516,-0.2929687 0.140625,-0.6210937 0.02344,-0.09375 0.03516,-0.1523438 0.07031,-0.2695313 l 1.722656,-6.2226561 c 0.05859,-0.222656 0.07031,-0.292969 0.07031,-0.351563 0,-0.04687 -0.02344,-0.08203 -0.05859,-0.08203 0,0 -0.339844,0.05859 -0.984375,0.1875 l -1.078125,0.222656 c -0.02344,0.01172 -0.117187,0.02344 -0.257812,0.04687 v 0.175782 l 0.679687,-0.02344 c 0.28125,-0.01172 0.457031,0.128906 0.457031,0.375 0,0.08203 -0.02344,0.164063 -0.08203,0.410156 l -1.652344,5.8945316 c -0.140625,0.4453125 -0.398437,0.5625 -1.347656,0.65625 z m 3.764649,-0.84375 c 1.488281,-1.2890625 2.097656,-2.0742187 2.636718,-3.3632812 0.339844,-0.796875 0.480469,-1.5585938 0.480469,-2.4492189 0,-0.691406 -0.09375,-1.441406 -0.269531,-2.167969 -0.199219,-0.808593 -0.375,-1.242187 -0.914063,-2.203125 l -0.234375,0.05859 c 0.410157,0.972656 0.585938,1.945313 0.585938,3.140625 0,1.523438 -0.410156,3.4570314 -1.007813,4.7578126 -0.339843,0.7734375 -0.703125,1.2773438 -1.441406,2.0507813 z M 68.50918,-104.10094 c -0.445313,-1.21875 -0.574219,-1.95703 -0.574219,-3.11719 0,-1.45312 0.328125,-3.16406 0.890625,-4.5 0.398437,-0.94921 0.773437,-1.51171 1.558594,-2.33203 l -0.164063,-0.17578 c -1.558594,1.41797 -2.167969,2.20313 -2.671875,3.45703 -0.316406,0.75 -0.445312,1.48828 -0.445312,2.41407 0,0.92578 0.140625,1.8164 0.410156,2.64843 0.164062,0.50391 0.351562,0.89063 0.773437,1.67578 z m 6.914062,-3.43359 c -0.105469,0.11719 -0.164062,0.1875 -0.269531,0.32812 -0.269531,0.36328 -0.421875,0.48047 -0.5625,0.48047 -0.164063,0 -0.28125,-0.15234 -0.363281,-0.49219 -0.03516,-0.1289 -0.03516,-0.15234 -0.04687,-0.1875 -0.292969,-1.23046 -0.433594,-1.78125 -0.433594,-1.95703 0.539062,-0.9375 0.960937,-1.45312 1.183594,-1.45312 0.07031,0 0.175781,0.0352 0.28125,0.0937 0.152343,0.082 0.234375,0.10547 0.339843,0.10547 0.234375,0 0.410157,-0.17578 0.410157,-0.4336 0,-0.25781 -0.210938,-0.44531 -0.492188,-0.44531 -0.527344,0 -0.972656,0.43359 -1.816406,1.72266 l -0.128906,-0.65625 c -0.164063,-0.82032 -0.304688,-1.06641 -0.621094,-1.06641 -0.28125,0 -0.667969,0.10547 -1.40625,0.35156 -0.07031,0.0234 -0.07031,0.0234 -0.128906,0.0469 l 0.04687,0.1875 c 0.46875,-0.12891 0.550781,-0.14063 0.667968,-0.14063 0.304688,0 0.375,0.11719 0.539063,0.83203 l 0.351562,1.47657 -0.984375,1.40625 c -0.257812,0.35156 -0.480468,0.57422 -0.609375,0.57422 -0.08203,0 -0.199218,-0.0352 -0.316406,-0.10547 -0.152344,-0.0937 -0.28125,-0.12891 -0.386719,-0.12891 -0.234375,0 -0.410156,0.1875 -0.410156,0.42188 0,0.3164 0.234375,0.5039 0.609375,0.5039 0.363281,0 0.515625,-0.10547 1.113281,-0.82031 0.316407,-0.39844 0.585938,-0.76172 1.078125,-1.41797 l 0.363282,1.44141 c 0.152343,0.62109 0.304687,0.79687 0.691406,0.79687 0.457031,0 0.773437,-0.28125 1.464844,-1.35937 z m 5.381836,2.67187 c -0.28125,0.58594 -0.515625,0.72657 -1.195312,0.75 h -2.273438 v -0.0586 l 2.296875,-2.30859 c 1.40625,-1.39454 1.792969,-2.00391 1.792969,-2.80079 0,-1.13671 -0.855469,-2.02734 -1.945313,-2.02734 -0.433593,0 -0.878906,0.10547 -1.242187,0.30469 -0.609375,0.33984 -0.925781,0.75 -1.277344,1.61719 l 0.246094,0.082 c 0.445312,-0.78516 0.960937,-1.125 1.6875,-1.125 0.867187,0 1.5,0.62109 1.5,1.45312 0,0.25781 -0.03516,0.48047 -0.105469,0.64453 -0.292969,0.64453 -0.84375,1.40625 -1.628906,2.23828 l -2.519531,2.69532 v 0.19922 h 4.265625 l 0.597656,-1.58204 z m -0.74707,0.21094 c 1.019531,-0.5625 1.558594,-1.23047 1.558594,-1.91016 0,-0.48046 -0.292969,-0.84375 -0.691407,-0.84375 -0.351562,0 -0.609375,0.23438 -0.609375,0.55079 0,0.22265 0.07031,0.33984 0.292969,0.55078 0.1875,0.16406 0.246094,0.25781 0.246094,0.38672 0,0.3164 -0.269531,0.64453 -0.902344,1.0664 z m 3.117187,-6.35156 c 0.152344,-0.0352 0.246094,-0.0469 0.375,-0.0469 0.492188,0 0.726563,0.19922 0.960938,0.84375 0.328125,0.89063 0.949219,3.45703 0.949219,3.91407 0,0.1875 -0.08203,0.38671 -0.257813,0.60937 -0.328125,0.44531 -0.609375,0.78516 -0.75,0.9375 -0.257812,0.25781 -0.386719,0.36328 -0.539062,0.36328 -0.08203,0 -0.152344,-0.0352 -0.292969,-0.14062 -0.175781,-0.14063 -0.292969,-0.19922 -0.445313,-0.19922 -0.257812,0 -0.46875,0.19922 -0.46875,0.46875 0,0.3164 0.257813,0.52734 0.621094,0.52734 0.761719,0 2.320313,-1.79297 3.632813,-4.17187 0.820312,-1.47657 1.148437,-2.34375 1.148437,-2.92969 0,-0.36328 -0.292969,-0.66797 -0.65625,-0.66797 -0.28125,0 -0.46875,0.1875 -0.46875,0.44531 0,0.19922 0.09375,0.31641 0.339844,0.46875 0.222656,0.14063 0.304687,0.2461 0.304687,0.41016 0,0.48047 -0.433593,1.40625 -1.464843,3.10547 l -0.234375,-1.39453 c -0.1875,-1.06641 -0.855469,-3.03516 -1.03125,-3.03516 h -0.04687 c -0.02344,0.0117 -0.05859,0.0117 -0.117188,0.0117 -0.09375,0.0117 -0.539062,0.0937 -1.171875,0.21094 -0.05859,0.0117 -0.210937,0.0469 -0.386719,0.0703 z m 9.928711,6.14062 c -0.28125,0.58594 -0.515625,0.72657 -1.195312,0.75 h -2.273438 v -0.0586 l 2.296875,-2.30859 c 1.40625,-1.39454 1.792969,-2.00391 1.792969,-2.80079 0,-1.13671 -0.855469,-2.02734 -1.945313,-2.02734 -0.433593,0 -0.878906,0.10547 -1.242187,0.30469 -0.609375,0.33984 -0.925781,0.75 -1.277344,1.61719 l 0.246094,0.082 c 0.445312,-0.78516 0.960937,-1.125 1.6875,-1.125 0.867187,0 1.5,0.62109 1.5,1.45312 0,0.25781 -0.03516,0.48047 -0.105469,0.64453 -0.292969,0.64453 -0.84375,1.40625 -1.628906,2.23828 l -2.519531,2.69532 v 0.19922 h 4.265625 l 0.597656,-1.58204 z m -0.74414,0.21094 c 1.019531,-0.5625 1.558593,-1.23047 1.558593,-1.91016 0,-0.48046 -0.292968,-0.84375 -0.691406,-0.84375 -0.351562,0 -0.609375,0.23438 -0.609375,0.55079 0,0.22265 0.07031,0.33984 0.292969,0.55078 0.1875,0.16406 0.246094,0.25781 0.246094,0.38672 0,0.3164 -0.269532,0.64453 -0.902344,1.0664 z m 3.914062,-5.25 c 0.234375,-0.59766 0.421875,-0.72656 0.972656,-0.71484 h 1.746094 l -3.714844,4.46484 0.105469,0.10547 c 0.199219,-0.15234 0.351563,-0.21094 0.539063,-0.21094 0.316406,0 0.703125,0.15235 1.265625,0.50391 0.597656,0.375 0.996093,0.52734 1.335937,0.52734 0.609375,0 1.136719,-0.43359 1.136719,-0.91406 0,-0.25781 -0.175781,-0.43359 -0.421875,-0.43359 -0.246094,0 -0.410156,0.16406 -0.410156,0.38671 0,0.0937 0.03516,0.19922 0.105468,0.35157 0.03516,0.0703 0.05859,0.14062 0.05859,0.17578 0,0.10547 -0.128906,0.17578 -0.316406,0.17578 -0.304688,0 -0.445313,-0.10547 -0.84375,-0.59766 -0.527344,-0.67968 -0.75,-0.83203 -1.453125,-0.99609 l 3.480469,-4.125 v -0.12891 h -3.410157 l -0.363281,1.3711 z m 8.531252,5.03906 c -0.28125,0.58594 -0.51563,0.72657 -1.19531,0.75 h -2.27344 v -0.0586 l 2.29687,-2.30859 c 1.40625,-1.39454 1.79297,-2.00391 1.79297,-2.80079 0,-1.13671 -0.85547,-2.02734 -1.94531,-2.02734 -0.43359,0 -0.87891,0.10547 -1.24219,0.30469 -0.60937,0.33984 -0.92578,0.75 -1.27734,1.61719 l 0.24609,0.082 c 0.44531,-0.78516 0.96094,-1.125 1.6875,-1.125 0.86719,0 1.5,0.62109 1.5,1.45312 0,0.25781 -0.0352,0.48047 -0.10547,0.64453 -0.29297,0.64453 -0.84375,1.40625 -1.6289,2.23828 l -2.51953,2.69532 v 0.19922 h 4.26562 l 0.59766,-1.58204 z m -0.4541,0.82032 c 1.48828,-1.28907 2.09765,-2.07422 2.63672,-3.36329 0.33984,-0.79687 0.48046,-1.55859 0.48046,-2.44921 0,-0.69141 -0.0937,-1.44141 -0.26953,-2.16797 -0.19922,-0.8086 -0.375,-1.24219 -0.91406,-2.20313 l -0.23437,0.0586 c 0.41015,0.97265 0.58593,1.94531 0.58593,3.14062 0,1.52344 -0.41015,3.45703 -1.00781,4.75781 -0.33984,0.77344 -0.70312,1.27735 -1.44141,2.05078 z m 0,0"
       style="fill:#231f20;fill-opacity:1;fill-rule:nonzero;stroke:none"
       aria-label="u&#10;1&#10;u&#10;2&#10;u&#10;4&#10;u&#10;5&#10;u&#10;6&#10;u&#10;3&#10;u&#10;7&#10;u&#10;8&#10;u&#10;10&#10;u&#10;11&#10;u&#10;12&#10;u&#10;9&#10;(x&#10;1&#10;,y&#10;1&#10;,z&#10;1&#10;)&#10;(x&#10;2&#10;,y&#10;2&#10;,z&#10;2&#10;)"
       transform="matrix(1.3333333,0,0,1.3333333,184.03333,219.02)" />
    <path
       id="path31"
       d="m 2572.25,1743.25 -384,-300"
       style="fill:none;stroke:#ffffff;stroke-width:28.346;stroke-linecap:round;stroke-linejoin:miter;stroke-miterlimit:3.8637;stroke-dasharray:none;stroke-opacity:1"
       transform="matrix(0.13333333,0,0,-0.13333333,0,322.38667)" />
    <path
       id="path32"
       d="m 2589.25,1750.25 h 25 v -20 h -25 v 20"
       style="fill:#ffffff;fill-opacity:1;fill-rule:nonzero;stroke:none"
       transform="matrix(0.13333333,0,0,-0.13333333,0,322.38667)" />
    <path
       id="path33"
       d="m 2561.25,1823.25 h 20 v -37 h -20 v 37"
       style="fill:#ffffff;fill-opacity:1;fill-rule:nonzero;stroke:none"
       transform="matrix(0.13333333,0,0,-0.13333333,0,322.38667)" />
    <path
       id="path34"
       d="m 2572.25,2002.25 v -259"
       style="fill:none;stroke:#231f20;stroke-width:2.5;stroke-linecap:butt;stroke-linejoin:miter;stroke-miterlimit:3.8637;stroke-dasharray:none;stroke-opacity:1"
       transform="matrix(0.13333333,0,0,-0.13333333,0,322.38667)" />
    <path
       id="path35"
       d="m 2572.25,2000.25 h -15 l 15,37 15,-37 h -15"
       style="fill:#231f20;fill-opacity:1;fill-rule:evenodd;stroke:none"
       transform="matrix(0.13333333,0,0,-0.13333333,0,322.38667)" />
    <path
       id="path36"
       d="m 2572.25,1743.25 h 259"
       style="fill:none;stroke:#231f20;stroke-width:2.5;stroke-linecap:butt;stroke-linejoin:miter;stroke-miterlimit:3.8637;stroke-dasharray:none;stroke-opacity:1"
       transform="matrix(0.13333333,0,0,-0.13333333,0,322.38667)" />
    <path
       id="path37"
       d="m 2829.25,1743.25 v 15 l 37,-15 -37,-15 v 15"
       style="fill:#231f20;fill-opacity:1;fill-rule:evenodd;stroke:none"
       transform="matrix(0.13333333,0,0,-0.13333333,0,322.38667)" />
    <path
       id="path38"
       d="m 2570.25,1743.25 -134,-105"
       style="fill:none;stroke:#231f20;stroke-width:2.5;stroke-linecap:butt;stroke-linejoin:miter;stroke-miterlimit:3.8637;stroke-dasharray:none;stroke-opacity:1"
       transform="matrix(0.13333333,0,0,-0.13333333,0,322.38667)" />
    <path
       id="path39"
       d="m 2438.25,1640.25 9,-12 -39,-11 21,34 9,-11"
       style="fill:#231f20;fill-opacity:1;fill-rule:evenodd;stroke:none"
       transform="matrix(0.13333333,0,0,-0.13333333,0,322.38667)" />
    <path
       id="path40"
       d="m 2573.25,2322.25 -1,-47"
       style="fill:none;stroke:#231f20;stroke-width:2.251;stroke-linecap:butt;stroke-linejoin:miter;stroke-miterlimit:3.8637;stroke-dasharray:20, 20;stroke-dashoffset:0;stroke-opacity:1"
       transform="matrix(0.13333333,0,0,-0.13333333,0,322.38667)" />
    <path
       id="path41"
       d="m 2573.25,2319.25 -14,1 14,33 13,-34 h -13"
       style="fill:#231f20;fill-opacity:1;fill-rule:evenodd;stroke:none"
       transform="matrix(0.13333333,0,0,-0.13333333,0,322.38667)" />
    <path
       id="path42"
       d="m 2572.25,2290.25 v -227"
       style="fill:none;stroke:#231f20;stroke-width:2.5;stroke-linecap:butt;stroke-linejoin:miter;stroke-miterlimit:3.8637;stroke-dasharray:20, 20;stroke-dashoffset:0;stroke-opacity:1"
       transform="matrix(0.13333333,0,0,-0.13333333,0,322.38667)" />
    <path
       id="path43"
       d="m 2572.25,2288.25 h -15 l 15,37 15,-37 h -15"
       style="fill:#231f20;fill-opacity:1;fill-rule:evenodd;stroke:none"
       transform="matrix(0.13333333,0,0,-0.13333333,0,322.38667)" />
    <path
       id="path44"
       d="m 3090.25,1742.25 54,1"
       style="fill:none;stroke:#231f20;stroke-width:2.251;stroke-linecap:butt;stroke-linejoin:miter;stroke-miterlimit:3.8637;stroke-dasharray:20, 20;stroke-dashoffset:0;stroke-opacity:1"
       transform="matrix(0.13333333,0,0,-0.13333333,0,322.38667)" />
    <path
       id="path45"
       d="m 3142.25,1743.25 v 14 l 34,-13 -34,-14 v 13"
       style="fill:#231f20;fill-opacity:1;fill-rule:evenodd;stroke:none"
       transform="matrix(0.13333333,0,0,-0.13333333,0,322.38667)" />
    <path
       id="path46"
       d="m 2904.25,1742.25 h 211"
       style="fill:none;stroke:#231f20;stroke-width:2.5;stroke-linecap:butt;stroke-linejoin:miter;stroke-miterlimit:3.8637;stroke-dasharray:20, 20;stroke-dashoffset:0;stroke-opacity:1"
       transform="matrix(0.13333333,0,0,-0.13333333,0,322.38667)" />
    <path
       id="path47"
       d="m 3112.25,1742.25 v 15 l 38,-15 -38,-15 v 15"
       style="fill:#231f20;fill-opacity:1;fill-rule:evenodd;stroke:none"
       transform="matrix(0.13333333,0,0,-0.13333333,0,322.38667)" />
    <path
       id="path48"
       d="m 2245.25,1492.25 50,37"
       style="fill:none;stroke:#231f20;stroke-width:2.251;stroke-linecap:butt;stroke-linejoin:miter;stroke-miterlimit:3.8637;stroke-dasharray:20, 20;stroke-dashoffset:0;stroke-opacity:1"
       transform="matrix(0.13333333,0,0,-0.13333333,0,322.38667)" />
    <path
       id="path49"
       d="m 2247.25,1493.25 8,-10 -35,-10 19,31 8,-11"
       style="fill:#231f20;fill-opacity:1;fill-rule:evenodd;stroke:none"
       transform="matrix(0.13333333,0,0,-0.13333333,0,322.38667)" />
    <path
       id="path50"
       d="m 2269.25,1511.25 114,88"
       style="fill:none;stroke:#231f20;stroke-width:2.5;stroke-linecap:butt;stroke-linejoin:miter;stroke-miterlimit:3.8637;stroke-dasharray:20, 20;stroke-dashoffset:0;stroke-opacity:1"
       transform="matrix(0.13333333,0,0,-0.13333333,0,322.38667)" />
    <path
       id="path51"
       d="m 2271.25,1513.25 9,-12 -39,-12 21,35 9,-11"
       style="fill:#231f20;fill-opacity:1;fill-rule:evenodd;stroke:none"
       transform="matrix(0.13333333,0,0,-0.13333333,0,322.38667)" />
    <path
       id="path52"
       d="m 1134.25,1039.25 h 26 v -40 h -26 v 40"
       style="fill:#ffffff;fill-opacity:1;fill-rule:nonzero;stroke:none"
       transform="matrix(0.13333333,0,0,-0.13333333,0,322.38667)" />
    <path
       id="path53"
       d="m 1078.25,686.25 57,143"
       style="fill:none;stroke:#ffffff;stroke-width:40;stroke-linecap:round;stroke-linejoin:miter;stroke-miterlimit:3.8637;stroke-dasharray:none;stroke-opacity:1"
       transform="matrix(0.13333333,0,0,-0.13333333,0,322.38667)" />
    <path
       id="path54"
       d="m 1195.25,900.25 219,127"
       style="fill:none;stroke:#ffffff;stroke-width:40;stroke-linecap:round;stroke-linejoin:miter;stroke-miterlimit:3.8637;stroke-dasharray:none;stroke-opacity:1"
       transform="matrix(0.13333333,0,0,-0.13333333,0,322.38667)" />
    <path
       id="path55"
       d="m 1131.25,914.25 -126,220"
       style="fill:none;stroke:#ffffff;stroke-width:40;stroke-linecap:round;stroke-linejoin:miter;stroke-miterlimit:3.8637;stroke-dasharray:none;stroke-opacity:1"
       transform="matrix(0.13333333,0,0,-0.13333333,0,322.38667)" />
    <path
       id="path56"
       d="m 1024.25,1100.25 130,-225"
       style="fill:none;stroke:#231f20;stroke-width:2.5;stroke-linecap:butt;stroke-linejoin:miter;stroke-miterlimit:3.8637;stroke-dasharray:none;stroke-opacity:1"
       transform="matrix(0.13333333,0,0,-0.13333333,0,322.38667)" />
    <path
       id="path57"
       d="m 1025.25,1097.25 -13,-7 -5,40 31,-25 -13,-8"
       style="fill:#231f20;fill-opacity:1;fill-rule:evenodd;stroke:none"
       transform="matrix(0.13333333,0,0,-0.13333333,0,322.38667)" />
    <path
       id="path58"
       d="m 1154.25,875.25 225,130"
       style="fill:none;stroke:#231f20;stroke-width:2.5;stroke-linecap:butt;stroke-linejoin:miter;stroke-miterlimit:3.8637;stroke-dasharray:none;stroke-opacity:1"
       transform="matrix(0.13333333,0,0,-0.13333333,0,322.38667)" />
    <path
       id="path59"
       d="m 1377.25,1003.25 -8,13 40,6 -25,-32 -7,13"
       style="fill:#231f20;fill-opacity:1;fill-rule:evenodd;stroke:none"
       transform="matrix(0.13333333,0,0,-0.13333333,0,322.38667)" />
    <path
       id="path60"
       d="m 1153.25,874.25 -64,-158"
       style="fill:none;stroke:#231f20;stroke-width:2.5;stroke-linecap:butt;stroke-linejoin:miter;stroke-miterlimit:3.8637;stroke-dasharray:none;stroke-opacity:1"
       transform="matrix(0.13333333,0,0,-0.13333333,0,322.38667)" />
    <path
       id="path61"
       d="m 1090.25,719.25 13,-6 -28,-29 1,40 14,-5"
       style="fill:#231f20;fill-opacity:1;fill-rule:evenodd;stroke:none"
       transform="matrix(0.13333333,0,0,-0.13333333,0,322.38667)" />
    <path
       id="path62"
       d="m 0.17441406,-4.8032812 c 0.15234375,-0.035156 0.24609375,-0.046875 0.375,-0.046875 0.49218754,0 0.72656254,0.1992187 0.96093754,0.84375 0.328125,0.890625 0.9492187,3.4570312 0.9492187,3.91406245 0,0.1875 -0.082031,0.38671875 -0.2578125,0.609375 -0.328125,0.4453125 -0.609375,0.78515625 -0.75,0.93750005 -0.2578125,0.2578125 -0.3867187,0.3632812 -0.53906249,0.3632812 -0.0820313,0 -0.15234375,-0.035156 -0.29296875,-0.140625 -0.17578125,-0.140625 -0.29296875,-0.1992187 -0.4453125,-0.1992187 -0.2578125,0 -0.46875,0.1992187 -0.46875,0.46875 0,0.3164062 0.2578125,0.5273437 0.62109375,0.5273437 0.76171879,0 2.32031249,-1.79296875 3.63281249,-4.171875 0.8203125,-1.4765625 1.1484375,-2.34375 1.1484375,-2.9296875 0,-0.3632812 -0.2929687,-0.6679687 -0.65625,-0.6679687 -0.28125,0 -0.46875,0.1875 -0.46875,0.4453125 0,0.1992187 0.09375,0.3164062 0.3398438,0.46875 0.2226562,0.140625 0.3046875,0.2460937 0.3046875,0.4101562 0,0.4804688 -0.4335938,1.40625 -1.4648438,3.10546875 L 2.9283203,-2.2603125 c -0.1875,-1.0664062 -0.8554687,-3.0351562 -1.03125,-3.0351562 h -0.046875 c -0.023437,0.011719 -0.058594,0.011719 -0.1171875,0.011719 -0.09375,0.011719 -0.5390625,0.09375 -1.17187499,0.2109375 -0.0585938,0.011719 -0.2109375,0.046875 -0.38671875,0.070312 z m 0,0"
       style="fill:#231f20;fill-opacity:1;fill-rule:nonzero;stroke:none"
       aria-label="y"
       transform="matrix(1.3333333,0,0,1.3333333,124.96667,189.42)" />
    <path
       id="path63"
       d="m 946.25,1071.25 h 42"
       style="fill:none;stroke:#231f20;stroke-width:5;stroke-linecap:butt;stroke-linejoin:miter;stroke-miterlimit:3.8637;stroke-dasharray:none;stroke-opacity:1"
       transform="matrix(0.13333333,0,0,-0.13333333,0,322.38667)" />
    <path
       id="path64"
       d="m 4.8273437,-1.3349219 c -0.1054687,0.1171875 -0.1640625,0.1875 -0.2695312,0.328125 -0.2695313,0.36328127 -0.421875,0.48046877 -0.5625,0.48046877 -0.1640625,0 -0.28125,-0.15234375 -0.3632813,-0.49218747 -0.035156,-0.1289063 -0.035156,-0.1523438 -0.046875,-0.1875 -0.2929687,-1.2304688 -0.4335937,-1.78125 -0.4335937,-1.9570313 0.5390625,-0.9375 0.9609375,-1.453125 1.1835937,-1.453125 0.070312,0 0.1757813,0.035156 0.28125,0.09375 0.1523438,0.082031 0.234375,0.1054688 0.3398438,0.1054688 0.234375,0 0.4101562,-0.1757813 0.4101562,-0.4335938 0,-0.2578125 -0.2109375,-0.4453125 -0.4921875,-0.4453125 -0.5273437,0 -0.9726562,0.4335938 -1.8164062,1.7226563 l -0.1289063,-0.65625 C 2.7648437,-5.0497656 2.6242187,-5.2958594 2.3078125,-5.2958594 c -0.28125,0 -0.6679688,0.1054688 -1.40625,0.3515625 -0.0703125,0.023437 -0.0703125,0.023437 -0.12890625,0.046875 l 0.046875,0.1875 C 1.2882812,-4.8388281 1.3703125,-4.8505469 1.4875,-4.8505469 c 0.3046875,0 0.375,0.1171875 0.5390625,0.8320313 l 0.3515625,1.4765625 -0.984375,1.40625 c -0.2578125,0.35156247 -0.48046875,0.57421872 -0.609375,0.57421872 -0.0820313,0 -0.19921875,-0.0351563 -0.31640625,-0.10546875 -0.15234375,-0.09375 -0.28125,-0.12890625 -0.38671875,-0.12890625 -0.234375,0 -0.41015625,0.1875 -0.41015625,0.421875 0,0.31640625 0.234375,0.50390625 0.609375,0.50390625 0.36328125,0 0.515625,-0.10546875 1.11328125,-0.8203125 C 1.7101562,-1.0888281 1.9796875,-1.4521094 2.471875,-2.1083594 l 0.3632812,1.44140627 c 0.1523438,0.62109375 0.3046875,0.796875 0.6914063,0.796875 0.4570312,0 0.7734375,-0.28125 1.4648437,-1.35937497 z m 0,0"
       style="fill:#231f20;fill-opacity:1;fill-rule:nonzero;stroke:none"
       aria-label="x"
       transform="matrix(1.3333333,0,0,1.3333333,189.76667,201.55333)" />
    <path
       id="path65"
       d="m 1432.25,980.25 h 42"
       style="fill:none;stroke:#231f20;stroke-width:5;stroke-linecap:butt;stroke-linejoin:miter;stroke-miterlimit:3.8637;stroke-dasharray:none;stroke-opacity:1"
       transform="matrix(0.13333333,0,0,-0.13333333,0,322.38667)" />
    <path
       id="path66"
       d="M 0.97324219,-3.7036719 C 1.2076172,-4.3013281 1.3951172,-4.4302344 1.9458984,-4.4185156 h 1.7460938 l -3.71484376,4.46484373 0.10546875,0.10546875 c 0.19921875,-0.152343755 0.3515625,-0.2109375 0.5390625,-0.2109375 0.31640625,0 0.70312501,0.15234375 1.26562501,0.50390625 0.5976562,0.375 0.9960937,0.52734375 1.3359375,0.52734375 0.609375,0 1.1367187,-0.43359375 1.1367187,-0.9140625 0,-0.2578125 -0.1757812,-0.43359375 -0.421875,-0.43359375 -0.2460937,0 -0.4101562,0.1640625 -0.4101562,0.38671875 0,0.09375 0.035156,0.19921875 0.1054687,0.3515625 0.035156,0.0703125 0.058594,0.140625 0.058594,0.17578125 0,0.10546875 -0.1289063,0.17578125 -0.3164063,0.17578125 -0.3046875,0 -0.4453125,-0.10546875 -0.84375,-0.59765625 -0.5273437,-0.6796875 -0.75,-0.83203125 -1.453125,-0.99609375 L 4.5591797,-5.0044531 V -5.1333594 H 1.1490234 l -0.36328121,1.3710938 z m 0,0"
       style="fill:#231f20;fill-opacity:1;fill-rule:nonzero;stroke:none"
       aria-label="z"
       transform="matrix(1.3333333,0,0,1.3333333,150.3,236.08667)" />
    <path
       id="path67"
       d="m 1136.25,721.25 h 42"
       style="fill:none;stroke:#231f20;stroke-width:5;stroke-linecap:butt;stroke-linejoin:miter;stroke-miterlimit:3.8637;stroke-dasharray:none;stroke-opacity:1"
       transform="matrix(0.13333333,0,0,-0.13333333,0,322.38667)" />
  </g>
</svg>
