<?xml version="1.0" encoding="UTF-8" standalone="no"?>
<!-- Created with Inkscape (http://www.inkscape.org/) -->

<svg
   version="1.1"
   id="svg1"
   width="321.33334"
   height="170.66667"
   viewBox="0 0 321.33334 170.66667"
   sodipodi:docname="beam1e.eps"
   xmlns:inkscape="http://www.inkscape.org/namespaces/inkscape"
   xmlns:sodipodi="http://sodipodi.sourceforge.net/DTD/sodipodi-0.dtd"
   xmlns="http://www.w3.org/2000/svg"
   xmlns:svg="http://www.w3.org/2000/svg">
  <defs
     id="defs1">
    <clipPath
       clipPathUnits="userSpaceOnUse"
       id="clipPath1">
      <path
         d="M 0,14 V 1275 H 2400 V 14 Z"
         transform="matrix(0.1,0,0,-0.1,-137.09301,66.851602)"
         id="path1" />
    </clipPath>
    <clipPath
       clipPathUnits="userSpaceOnUse"
       id="clipPath3">
      <path
         d="M 0,14 V 1275 H 2400 V 14 Z"
         transform="translate(0,2.5000001e-5)"
         id="path3" />
    </clipPath>
    <clipPath
       clipPathUnits="userSpaceOnUse"
       id="clipPath4">
      <path
         d="M 0,14 V 1275 H 2400 V 14 Z"
         transform="matrix(0.1,0,0,-0.1,-80.8609,21.622701)"
         id="path4" />
    </clipPath>
    <clipPath
       clipPathUnits="userSpaceOnUse"
       id="clipPath6">
      <path
         d="M 0,14 V 1275 H 2400 V 14 Z"
         transform="translate(0,2.5000001e-5)"
         id="path6" />
    </clipPath>
    <clipPath
       clipPathUnits="userSpaceOnUse"
       id="clipPath8">
      <path
         d="M 0,14 V 1275 H 2400 V 14 Z"
         transform="translate(0,2.5000001e-5)"
         id="path8" />
    </clipPath>
    <clipPath
       clipPathUnits="userSpaceOnUse"
       id="clipPath10">
      <path
         d="M 0,14 V 1275 H 2400 V 14 Z"
         transform="translate(0,2.5000001e-5)"
         id="path10" />
    </clipPath>
    <clipPath
       clipPathUnits="userSpaceOnUse"
       id="clipPath12">
      <path
         d="M 0,14 V 1275 H 2400 V 14 Z"
         transform="translate(0,2.5000001e-5)"
         id="path12" />
    </clipPath>
    <clipPath
       clipPathUnits="userSpaceOnUse"
       id="clipPath13">
      <path
         d="M 0,14 V 1275 H 2400 V 14 Z"
         transform="matrix(0.1,0,0,-0.1,-204.74601,67.298401)"
         id="path13" />
    </clipPath>
    <clipPath
       clipPathUnits="userSpaceOnUse"
       id="clipPath14">
      <path
         d="M 0,14 V 1275 H 2400 V 14 Z"
         transform="matrix(0.1,0,0,-0.1,-195.03801,69.813301)"
         id="path14" />
    </clipPath>
    <clipPath
       clipPathUnits="userSpaceOnUse"
       id="clipPath16">
      <path
         d="M 0,14 V 1275 H 2400 V 14 Z"
         transform="translate(0,2.5000001e-5)"
         id="path16" />
    </clipPath>
    <clipPath
       clipPathUnits="userSpaceOnUse"
       id="clipPath18">
      <path
         d="M 0,14 V 1275 H 2400 V 14 Z"
         transform="translate(0,2.5000001e-5)"
         id="path18" />
    </clipPath>
    <clipPath
       clipPathUnits="userSpaceOnUse"
       id="clipPath20">
      <path
         d="M 0,14 V 1275 H 2400 V 14 Z"
         transform="translate(0,2.5000001e-5)"
         id="path20" />
    </clipPath>
    <clipPath
       clipPathUnits="userSpaceOnUse"
       id="clipPath21">
      <path
         d="M 0,14 V 1275 H 2400 V 14 Z"
         transform="matrix(0.1,0,0,-0.1,-42.086301,121.622)"
         id="path21" />
    </clipPath>
    <clipPath
       clipPathUnits="userSpaceOnUse"
       id="clipPath22">
      <path
         d="M 0,14 V 1275 H 2400 V 14 Z"
         transform="matrix(0.1,0,0,-0.1,-48.086301,117.816)"
         id="path22" />
    </clipPath>
    <clipPath
       clipPathUnits="userSpaceOnUse"
       id="clipPath24">
      <path
         d="M 0,14 V 1275 H 2400 V 14 Z"
         transform="translate(0,2.5000001e-5)"
         id="path24" />
    </clipPath>
    <clipPath
       clipPathUnits="userSpaceOnUse"
       id="clipPath25">
      <path
         d="M 0,14 V 1275 H 2400 V 14 Z"
         transform="matrix(0.1,0,0,-0.1,-186.348,109.808)"
         id="path25" />
    </clipPath>
    <clipPath
       clipPathUnits="userSpaceOnUse"
       id="clipPath26">
      <path
         d="M 0,14 V 1275 H 2400 V 14 Z"
         transform="matrix(0.1,0,0,-0.1,-192.079,104.927)"
         id="path26" />
    </clipPath>
    <clipPath
       clipPathUnits="userSpaceOnUse"
       id="clipPath27">
      <path
         d="M 0,14 V 1275 H 2400 V 14 Z"
         transform="matrix(0.1,0,0,-0.1,-23.055501,108.413)"
         id="path27" />
    </clipPath>
    <clipPath
       clipPathUnits="userSpaceOnUse"
       id="clipPath28">
      <path
         d="M 0,14 V 1275 H 2400 V 14 Z"
         transform="matrix(0.1,0,0,-0.1,-29.3242,104.068)"
         id="path28" />
    </clipPath>
    <clipPath
       clipPathUnits="userSpaceOnUse"
       id="clipPath30">
      <path
         d="M 0,14 V 1275 H 2400 V 14 Z"
         transform="translate(0,2.5000001e-5)"
         id="path30" />
    </clipPath>
    <clipPath
       clipPathUnits="userSpaceOnUse"
       id="clipPath32">
      <path
         d="M 0,14 V 1275 H 2400 V 14 Z"
         transform="translate(0,2.5000001e-5)"
         id="path32" />
    </clipPath>
    <clipPath
       clipPathUnits="userSpaceOnUse"
       id="clipPath34">
      <path
         d="M 0,14 V 1275 H 2400 V 14 Z"
         transform="translate(0,2.5000001e-5)"
         id="path34" />
    </clipPath>
    <clipPath
       clipPathUnits="userSpaceOnUse"
       id="clipPath36">
      <path
         d="M 0,14 V 1275 H 2400 V 14 Z"
         transform="translate(0,2.5000001e-5)"
         id="path36" />
    </clipPath>
    <clipPath
       clipPathUnits="userSpaceOnUse"
       id="clipPath38">
      <path
         d="M 0,14 V 1275 H 2400 V 14 Z"
         transform="translate(0,2.5000001e-5)"
         id="path38" />
    </clipPath>
    <clipPath
       clipPathUnits="userSpaceOnUse"
       id="clipPath40">
      <path
         d="M 0,14 V 1275 H 2400 V 14 Z"
         transform="translate(0,2.5000001e-5)"
         id="path40" />
    </clipPath>
    <clipPath
       clipPathUnits="userSpaceOnUse"
       id="clipPath42">
      <path
         d="M 0,14 V 1275 H 2400 V 14 Z"
         transform="translate(0,2.5000001e-5)"
         id="path42" />
    </clipPath>
    <clipPath
       clipPathUnits="userSpaceOnUse"
       id="clipPath44">
      <path
         d="M 0,14 V 1275 H 2400 V 14 Z"
         transform="translate(0,2.5000001e-5)"
         id="path44" />
    </clipPath>
    <clipPath
       clipPathUnits="userSpaceOnUse"
       id="clipPath46">
      <path
         d="M 0,14 V 1275 H 2400 V 14 Z"
         transform="translate(0,2.5000001e-5)"
         id="path46" />
    </clipPath>
    <clipPath
       clipPathUnits="userSpaceOnUse"
       id="clipPath48">
      <path
         d="M 0,14 V 1275 H 2400 V 14 Z"
         transform="translate(0,2.5000001e-5)"
         id="path48" />
    </clipPath>
    <clipPath
       clipPathUnits="userSpaceOnUse"
       id="clipPath49">
      <path
         d="M 0,14 V 1275 H 2400 V 14 Z"
         transform="matrix(0.1,0,0,-0.1,-206.45001,122.107)"
         id="path49" />
    </clipPath>
    <clipPath
       clipPathUnits="userSpaceOnUse"
       id="clipPath50">
      <path
         d="M 0,14 V 1275 H 2400 V 14 Z"
         transform="matrix(0.1,0,0,-0.1,-212.55001,119.376)"
         id="path50" />
    </clipPath>
    <clipPath
       clipPathUnits="userSpaceOnUse"
       id="clipPath52">
      <path
         d="M 0,14 V 1275 H 2400 V 14 Z"
         transform="translate(0,2.5000001e-5)"
         id="path52" />
    </clipPath>
    <clipPath
       clipPathUnits="userSpaceOnUse"
       id="clipPath53">
      <path
         d="M 0,14 V 1275 H 2400 V 14 Z"
         transform="matrix(0.1,0,0,-0.1,-32.912501,68.612101)"
         id="path53" />
    </clipPath>
    <clipPath
       clipPathUnits="userSpaceOnUse"
       id="clipPath55">
      <path
         d="M 0,14 V 1275 H 2400 V 14 Z"
         transform="matrix(0.1,0,0,-0.1,-48.028501,68.880901)"
         id="path55" />
    </clipPath>
  </defs>
  <sodipodi:namedview
     id="namedview1"
     pagecolor="#ffffff"
     bordercolor="#000000"
     borderopacity="0.25"
     inkscape:showpageshadow="2"
     inkscape:pageopacity="0.0"
     inkscape:pagecheckerboard="0"
     inkscape:deskcolor="#d1d1d1">
    <inkscape:page
       x="0"
       y="0"
       inkscape:label="1"
       id="page1"
       width="321.33334"
       height="170.66667"
       margin="0"
       bleed="0" />
  </sodipodi:namedview>
  <g
     id="g1"
     inkscape:groupmode="layer"
     inkscape:label="1">
    <text
       id="text1"
       xml:space="preserve"
       transform="matrix(1.3333333,0,0,1.3333333,182.79067,81.5312)"
       clip-path="url(#clipPath1)"><tspan
         id="tspan1"
         style="font-style:italic;font-variant:normal;font-weight:normal;font-size:12px;font-family:'Times New Roman';writing-mode:lr-tb;fill:#000000;fill-opacity:1;fill-rule:nonzero;stroke:none"
         x="0"
         y="0">E, I</tspan></text>
    <path
       id="path2"
       d="m 1328.75,698.75 c -34.96,-1.328 -101.02,6.953 -149.02,44.02 -36.41,27.703 -48.48,41.062 -70.98,92.972"
       style="fill:none;stroke:#231f20;stroke-width:2.5;stroke-linecap:butt;stroke-linejoin:miter;stroke-miterlimit:3.8637;stroke-dasharray:none;stroke-opacity:1"
       transform="matrix(0.13333333,0,0,-0.13333333,0,170.66667)"
       clip-path="url(#clipPath3)" />
    <text
       id="text3"
       xml:space="preserve"
       transform="matrix(1.3333333,0,0,1.3333333,107.81453,141.8364)"
       clip-path="url(#clipPath4)"><tspan
         id="tspan3"
         style="font-style:italic;font-variant:normal;font-weight:normal;font-size:12px;font-family:'Times New Roman';writing-mode:lr-tb;fill:#231f20;fill-opacity:1;fill-rule:nonzero;stroke:none"
         x="0"
         y="0">x</tspan><tspan
         id="tspan4"
         style="font-style:italic;font-variant:normal;font-weight:normal;font-size:12px;font-family:'Times New Roman';writing-mode:lr-tb;fill:#231f20;fill-opacity:1;fill-rule:nonzero;stroke:none"
         x="-79.900002"
         y="-80">y</tspan></text>
    <path
       id="path5"
       d="M 86.8398,1011.91 V 297.891"
       style="fill:none;stroke:#231f20;stroke-width:2.5;stroke-linecap:butt;stroke-linejoin:miter;stroke-miterlimit:3.8637;stroke-dasharray:none;stroke-opacity:1"
       transform="matrix(0.13333333,0,0,-0.13333333,0,170.66667)"
       clip-path="url(#clipPath6)" />
    <path
       id="path7"
       d="m 86.8398,1008.9 h -15 l 15,38.01 15.0002,-38.01 H 86.8398"
       style="fill:#231f20;fill-opacity:1;fill-rule:evenodd;stroke:none"
       transform="matrix(0.13333333,0,0,-0.13333333,0,170.66667)"
       clip-path="url(#clipPath8)" />
    <path
       id="path9"
       d="M 86.8398,297.891 H 800.859"
       style="fill:none;stroke:#231f20;stroke-width:2.5;stroke-linecap:butt;stroke-linejoin:miter;stroke-miterlimit:3.8637;stroke-dasharray:none;stroke-opacity:1"
       transform="matrix(0.13333333,0,0,-0.13333333,0,170.66667)"
       clip-path="url(#clipPath10)" />
    <path
       id="path11"
       d="m 797.852,297.891 v 15 l 38.007,-15 -38.007,-15 v 15"
       style="fill:#231f20;fill-opacity:1;fill-rule:evenodd;stroke:none"
       transform="matrix(0.13333333,0,0,-0.13333333,0,170.66667)"
       clip-path="url(#clipPath12)" />
    <text
       id="text12"
       xml:space="preserve"
       transform="matrix(1.3333333,0,0,1.3333333,272.99467,80.935467)"
       clip-path="url(#clipPath13)"><tspan
         id="tspan12"
         style="font-style:italic;font-variant:normal;font-weight:normal;font-size:8px;font-family:'Times New Roman';writing-mode:lr-tb;fill:#231f20;fill-opacity:1;fill-rule:nonzero;stroke:none"
         x="0"
         y="0">2</tspan></text>
    <text
       id="text13"
       xml:space="preserve"
       transform="matrix(1.3333333,0,0,1.3333333,260.05067,77.582267)"
       clip-path="url(#clipPath14)"><tspan
         id="tspan13"
         style="font-style:italic;font-variant:normal;font-weight:normal;font-size:12px;font-family:'Times New Roman';writing-mode:lr-tb;fill:#000000;fill-opacity:1;fill-rule:nonzero;stroke:none"
         x="0"
         y="0">(x</tspan><tspan
         id="tspan14"
         style="font-style:italic;font-variant:normal;font-weight:normal;font-size:12px;font-family:'Times New Roman';writing-mode:lr-tb;fill:#000000;fill-opacity:1;fill-rule:nonzero;stroke:none"
         x="16.198799"
         y="0.49453101">)</tspan></text>
    <path
       id="path15"
       d="M 754.34,839.801 431.449,835.512"
       style="fill:none;stroke:#231f20;stroke-width:2.5;stroke-linecap:butt;stroke-linejoin:miter;stroke-miterlimit:3.8637;stroke-dasharray:none;stroke-opacity:1"
       transform="matrix(0.13333333,0,0,-0.13333333,0,170.66667)"
       clip-path="url(#clipPath16)" />
    <path
       id="path17"
       d="m 729.34,839.453 -10.121,9.879 35.121,-9.531 -34.852,-10.469 z"
       style="fill:#000000;fill-opacity:1;fill-rule:evenodd;stroke:none"
       transform="matrix(0.13333333,0,0,-0.13333333,0,170.66667)"
       clip-path="url(#clipPath18)" />
    <path
       id="path19"
       d="m 729.336,839.453 -10.113,9.887 35.113,-9.535 -34.848,-10.465 z"
       style="fill:none;stroke:#000000;stroke-width:2.5;stroke-linecap:butt;stroke-linejoin:miter;stroke-miterlimit:4;stroke-dasharray:none;stroke-opacity:1"
       transform="matrix(0.13333333,0,0,-0.13333333,0,170.66667)"
       clip-path="url(#clipPath20)" />
    <text
       id="text20"
       xml:space="preserve"
       transform="matrix(1.3333333,0,0,1.3333333,56.115067,8.504)"
       clip-path="url(#clipPath21)"><tspan
         id="tspan20"
         style="font-style:italic;font-variant:normal;font-weight:normal;font-size:12px;font-family:'Times New Roman';writing-mode:lr-tb;fill:#231f20;fill-opacity:1;fill-rule:nonzero;stroke:none"
         x="0"
         y="0">u</tspan></text>
    <text
       id="text21"
       xml:space="preserve"
       transform="matrix(1.3333333,0,0,1.3333333,64.115067,13.578667)"
       clip-path="url(#clipPath22)"><tspan
         id="tspan21"
         style="font-variant:normal;font-weight:normal;font-size:8px;font-family:'Times New Roman';writing-mode:lr-tb;fill:#000000;fill-opacity:1;fill-rule:nonzero;stroke:none"
         x="0"
         y="0">1</tspan></text>
    <path
       id="path23"
       d="m 420.16,876.09 1649.8,-2.219 0.2,-71.328 -1651.18,1.867 z"
       style="fill:none;stroke:#231f20;stroke-width:5;stroke-linecap:butt;stroke-linejoin:miter;stroke-miterlimit:3.8637;stroke-dasharray:none;stroke-opacity:1"
       transform="matrix(0.13333333,0,0,-0.13333333,0,170.66667)"
       clip-path="url(#clipPath24)" />
    <text
       id="text24"
       xml:space="preserve"
       transform="matrix(1.3333333,0,0,1.3333333,248.464,24.256)"
       clip-path="url(#clipPath25)"><tspan
         id="tspan24"
         style="font-style:italic;font-variant:normal;font-weight:normal;font-size:12px;font-family:'Times New Roman';writing-mode:lr-tb;fill:#231f20;fill-opacity:1;fill-rule:nonzero;stroke:none"
         x="0"
         y="0">u</tspan></text>
    <text
       id="text25"
       xml:space="preserve"
       transform="matrix(1.3333333,0,0,1.3333333,256.10533,30.764)"
       clip-path="url(#clipPath26)"><tspan
         id="tspan25"
         style="font-variant:normal;font-weight:normal;font-size:8px;font-family:'Times New Roman';writing-mode:lr-tb;fill:#000000;fill-opacity:1;fill-rule:nonzero;stroke:none"
         x="0"
         y="0">4</tspan></text>
    <text
       id="text26"
       xml:space="preserve"
       transform="matrix(1.3333333,0,0,1.3333333,30.740667,26.116)"
       clip-path="url(#clipPath27)"><tspan
         id="tspan26"
         style="font-style:italic;font-variant:normal;font-weight:normal;font-size:12px;font-family:'Times New Roman';writing-mode:lr-tb;fill:#231f20;fill-opacity:1;fill-rule:nonzero;stroke:none"
         x="0"
         y="0">u</tspan></text>
    <text
       id="text27"
       xml:space="preserve"
       transform="matrix(1.3333333,0,0,1.3333333,39.098933,31.909333)"
       clip-path="url(#clipPath28)"><tspan
         id="tspan27"
         style="font-variant:normal;font-weight:normal;font-size:8px;font-family:'Times New Roman';writing-mode:lr-tb;fill:#000000;fill-opacity:1;fill-rule:nonzero;stroke:none"
         x="0"
         y="0">2</tspan></text>
    <path
       id="path29"
       d="M 2065.98,1152.22 V 892.223"
       style="fill:none;stroke:#231f20;stroke-width:3.60146;stroke-linecap:butt;stroke-linejoin:miter;stroke-miterlimit:3.8637;stroke-dasharray:none;stroke-opacity:1"
       transform="matrix(0.13333333,0,0,-0.13333333,0,170.66667)"
       clip-path="url(#clipPath30)" />
    <path
       id="path31"
       d="m 2064.61,1138.48 h -15 l 15,38 15,-38 h -15"
       style="fill:#231f20;fill-opacity:1;fill-rule:evenodd;stroke:none"
       transform="matrix(0.13333333,0,0,-0.13333333,0,170.66667)"
       clip-path="url(#clipPath32)" />
    <path
       id="path33"
       d="M 424.488,1150.39 V 891.402"
       style="fill:none;stroke:#231f20;stroke-width:2.5;stroke-linecap:butt;stroke-linejoin:miter;stroke-miterlimit:3.8637;stroke-dasharray:none;stroke-opacity:1"
       transform="matrix(0.13333333,0,0,-0.13333333,0,170.66667)"
       clip-path="url(#clipPath34)" />
    <path
       id="path35"
       d="m 424.488,1140.31 h -15 l 15,37.03 15,-37.03 h -15"
       style="fill:#231f20;fill-opacity:1;fill-rule:evenodd;stroke:none"
       transform="matrix(0.13333333,0,0,-0.13333333,0,170.66667)"
       clip-path="url(#clipPath36)" />
    <path
       id="path37"
       d="M 248.789,924.723 C 300,1079.37 551.25,1087.5 599.73,923.633"
       style="fill:none;stroke:#231f20;stroke-width:2.5;stroke-linecap:butt;stroke-linejoin:miter;stroke-miterlimit:3.8637;stroke-dasharray:none;stroke-opacity:1"
       transform="matrix(0.13333333,0,0,-0.13333333,0,170.66667)"
       clip-path="url(#clipPath38)" />
    <path
       id="path39"
       d="m 256.641,948.48 12.66,6.36 -20.512,-30.11 1.52,36.36 z"
       style="fill:#000000;fill-opacity:1;fill-rule:evenodd;stroke:none"
       transform="matrix(0.13333333,0,0,-0.13333333,0,170.66667)"
       clip-path="url(#clipPath40)" />
    <path
       id="path41"
       d="m 256.637,948.48 12.66,6.364 -20.504,-30.117 1.523,36.367 z"
       style="fill:none;stroke:#000000;stroke-width:2.5;stroke-linecap:butt;stroke-linejoin:miter;stroke-miterlimit:4;stroke-dasharray:none;stroke-opacity:1"
       transform="matrix(0.13333333,0,0,-0.13333333,0,170.66667)"
       clip-path="url(#clipPath42)" />
    <path
       id="path43"
       d="m 1873.83,910.551 c 51.17,154.599 302.46,162.729 350.9,-1.098"
       style="fill:none;stroke:#231f20;stroke-width:2.5;stroke-linecap:butt;stroke-linejoin:miter;stroke-miterlimit:3.8637;stroke-dasharray:none;stroke-opacity:1"
       transform="matrix(0.13333333,0,0,-0.13333333,0,170.66667)"
       clip-path="url(#clipPath44)" />
    <path
       id="path45"
       d="m 1881.68,934.301 12.62,6.32 -20.47,-30.07 1.48,36.359 z"
       style="fill:#000000;fill-opacity:1;fill-rule:evenodd;stroke:none"
       transform="matrix(0.13333333,0,0,-0.13333333,0,170.66667)"
       clip-path="url(#clipPath46)" />
    <path
       id="path47"
       d="m 1881.68,934.297 12.62,6.328 -20.47,-30.082 1.48,36.371 z"
       style="fill:none;stroke:#000000;stroke-width:2.5;stroke-linecap:butt;stroke-linejoin:miter;stroke-miterlimit:4;stroke-dasharray:none;stroke-opacity:1"
       transform="matrix(0.13333333,0,0,-0.13333333,0,170.66667)"
       clip-path="url(#clipPath48)" />
    <text
       id="text48"
       xml:space="preserve"
       transform="matrix(1.3333333,0,0,1.3333333,275.26667,7.8573333)"
       clip-path="url(#clipPath49)"><tspan
         id="tspan48"
         style="font-style:italic;font-variant:normal;font-weight:normal;font-size:12px;font-family:'Times New Roman';writing-mode:lr-tb;fill:#231f20;fill-opacity:1;fill-rule:nonzero;stroke:none"
         x="0"
         y="0">u</tspan></text>
    <text
       id="text49"
       xml:space="preserve"
       transform="matrix(1.3333333,0,0,1.3333333,283.4,11.498667)"
       clip-path="url(#clipPath50)"><tspan
         id="tspan49"
         style="font-variant:normal;font-weight:normal;font-size:8px;font-family:'Times New Roman';writing-mode:lr-tb;fill:#000000;fill-opacity:1;fill-rule:nonzero;stroke:none"
         x="0"
         y="0">3</tspan></text>
    <path
       id="path51"
       d="m 780.16,867.301 h 48.981"
       style="fill:none;stroke:#231f20;stroke-width:2.5;stroke-linecap:butt;stroke-linejoin:miter;stroke-miterlimit:3.8637;stroke-dasharray:none;stroke-opacity:1"
       transform="matrix(0.13333333,0,0,-0.13333333,0,170.66667)"
       clip-path="url(#clipPath52)" />
    <text
       id="text52"
       xml:space="preserve"
       transform="matrix(1.3333333,0,0,1.3333333,43.883333,79.183867)"
       clip-path="url(#clipPath53)"><tspan
         id="tspan52"
         style="font-style:italic;font-variant:normal;font-weight:normal;font-size:12px;font-family:'Times New Roman';writing-mode:lr-tb;fill:#231f20;fill-opacity:1;fill-rule:nonzero;stroke:none"
         x="0"
         y="0">(x</tspan><tspan
         id="tspan53"
         style="font-style:italic;font-variant:normal;font-weight:normal;font-size:8px;font-family:'Times New Roman';writing-mode:lr-tb;fill:#231f20;fill-opacity:1;fill-rule:nonzero;stroke:none"
         x="9.3000002"
         y="3.53789">1</tspan></text>
    <text
       id="text53"
       xml:space="preserve"
       transform="matrix(1.3333333,0,0,1.3333333,64.038,78.825467)"
       clip-path="url(#clipPath55)"><tspan
         id="tspan54"
         style="font-style:italic;font-variant:normal;font-weight:normal;font-size:12px;font-family:'Times New Roman';writing-mode:lr-tb;fill:#000000;fill-opacity:1;fill-rule:nonzero;stroke:none"
         x="0"
         y="0">)</tspan><tspan
         id="tspan55"
         style="font-style:italic;font-variant:normal;font-weight:normal;font-size:12px;font-family:'Times New Roman';writing-mode:lr-tb;fill:#000000;fill-opacity:1;fill-rule:nonzero;stroke:none"
         x="29.610201"
         y="-11.7625">x</tspan></text>
  </g>
</svg>
