<?xml version="1.0" encoding="UTF-8" standalone="no"?>
<!-- Created with Inkscape (http://www.inkscape.org/) -->

<svg
   version="1.1"
   id="svg1"
   width="321.32001"
   height="239.25333"
   viewBox="0 0 321.32001 239.25333"
   sodipodi:docname="BEAM2D.EPS"
   xmlns:inkscape="http://www.inkscape.org/namespaces/inkscape"
   xmlns:sodipodi="http://sodipodi.sourceforge.net/DTD/sodipodi-0.dtd"
   xmlns="http://www.w3.org/2000/svg"
   xmlns:svg="http://www.w3.org/2000/svg">
  <defs
     id="defs1" />
  <sodipodi:namedview
     id="namedview1"
     pagecolor="#ffffff"
     bordercolor="#000000"
     borderopacity="0.25"
     inkscape:showpageshadow="2"
     inkscape:pageopacity="0.0"
     inkscape:pagecheckerboard="0"
     inkscape:deskcolor="#d1d1d1">
    <inkscape:page
       x="0"
       y="0"
       inkscape:label="1"
       id="page1"
       width="321.32001"
       height="239.25333"
       margin="0"
       bleed="0" />
  </sodipodi:namedview>
  <g
     id="g1"
     inkscape:groupmode="layer"
     inkscape:label="1">
    <path
       id="path1"
       d="m 3.6917969,-0.93882812 c -0.421875,0.52734375 -0.5390625,0.6328125 -0.6679688,0.6328125 -0.058594,0 -0.082031,-0.046875 -0.082031,-0.140625 0,-0.046875 0,-0.046875 0.1523437,-0.62109378 l 0.6328125,-2.390625 H 3.1292969 c -0.4335938,1.1835938 -0.515625,1.3828125 -0.8789063,1.9570313 -0.4804687,0.74999998 -0.8789062,1.16015623 -1.125,1.16015623 -0.1054687,0 -0.17578122,-0.0820313 -0.17578122,-0.19921875 0,-0.0234375 0,-0.046875 0.0117188,-0.0703125 L 1.6878906,-3.5169531 1.6644531,-3.5286719 c -0.46875,0.1054688 -0.76171872,0.1523438 -1.19531247,0.2109375 v 0.1171875 c 0.31640625,0 0.31640625,0 0.3984375,0.046875 0.0351563,0.011719 0.0820313,0.082031 0.0820313,0.140625 0,0.070312 -0.046875,0.2695313 -0.1171875,0.5390625 l -0.29296875,1.1367188 c -0.15234375,0.58593748 -0.19921875,0.84374998 -0.19921875,0.98437498 0,0.29296875 0.140625,0.4453125 0.421875,0.4453125 0.56249997,0 0.99609367,-0.43359375 1.91015627,-1.98046878 -0.234375,0.8671875 -0.3632812,1.39453128 -0.3632812,1.57031253 0,0.2578125 0.1523437,0.38671875 0.3867187,0.38671875 0.375,0 0.5507813,-0.15234375 1.1015625,-0.9375 z M 6.3871094,2.9986719 H 8.6253906 V 2.8814844 h -0.140625 c -0.3867187,0 -0.5507812,-0.070312 -0.5507812,-0.2578125 0,-0.070312 0.023437,-0.1875 0.09375,-0.421875 0.023437,-0.046875 0.035156,-0.09375 0.058594,-0.1757813 l 1.1367188,-4.1484375 c 0.046875,-0.140625 0.046875,-0.1992187 0.046875,-0.234375 0,-0.035156 -0.011719,-0.058594 -0.035156,-0.058594 0,0 -0.2226562,0.046875 -0.65625,0.1289062 l -0.7265625,0.1523438 c -0.011719,0 -0.070312,0.011719 -0.1640625,0.023437 v 0.1171875 l 0.4570313,-0.011719 c 0.1875,-0.011719 0.3046875,0.09375 0.3046875,0.2460938 0,0.058594 -0.011719,0.1171875 -0.058594,0.28125 l -1.1015625,3.9375 c -0.09375,0.2929687 -0.2695312,0.375 -0.9023437,0.421875 z M -19.909766,-24.136094 c -0.421875,0.527344 -0.539062,0.632813 -0.667968,0.632813 -0.05859,0 -0.08203,-0.04687 -0.08203,-0.140625 0,-0.04687 0,-0.04687 0.152344,-0.621094 l 0.632813,-2.390625 h -0.597657 c -0.433593,1.183594 -0.515625,1.382813 -0.878906,1.957031 -0.480469,0.75 -0.878906,1.160157 -1.125,1.160157 -0.105469,0 -0.175781,-0.08203 -0.175781,-0.199219 0,-0.02344 0,-0.04687 0.01172,-0.07031 l 0.726562,-2.90625 -0.02344,-0.01172 c -0.46875,0.105468 -0.761719,0.152343 -1.195313,0.210937 v 0.117188 c 0.316406,0 0.316406,0 0.398438,0.04687 0.03516,0.01172 0.08203,0.08203 0.08203,0.140625 0,0.07031 -0.04687,0.269531 -0.117188,0.539062 l -0.292968,1.136719 c -0.152344,0.585937 -0.199219,0.84375 -0.199219,0.984375 0,0.292969 0.140625,0.445312 0.421875,0.445312 0.5625,0 0.996094,-0.433593 1.910156,-1.980468 -0.234375,0.867187 -0.363281,1.394531 -0.363281,1.570312 0,0.257813 0.152344,0.386719 0.386719,0.386719 0.375,0 0.550781,-0.152344 1.101562,-0.9375 z m 5.507813,2.824219 c -0.1875,0.398438 -0.339844,0.492188 -0.785156,0.503906 h -1.523438 v -0.03516 l 1.535156,-1.535156 c 0.9375,-0.9375 1.195313,-1.347656 1.195313,-1.875 0,-0.761719 -0.574219,-1.359375 -1.300781,-1.359375 -0.292969,0 -0.585938,0.07031 -0.820313,0.210937 -0.410156,0.222657 -0.632812,0.492188 -0.855469,1.078125 l 0.164063,0.04687 c 0.292969,-0.515625 0.644531,-0.75 1.125,-0.75 0.574219,0 0.996094,0.421875 0.996094,0.972657 0,0.175781 -0.02344,0.328125 -0.07031,0.433593 -0.199219,0.433594 -0.5625,0.9375 -1.078125,1.488282 l -1.6875,1.792968 v 0.140625 h 2.847656 l 0.398438,-1.054687 z M 138.19082,-89.837266 c -0.42187,0.527344 -0.53906,0.632813 -0.66797,0.632813 -0.0586,0 -0.082,-0.04687 -0.082,-0.140625 0,-0.04687 0,-0.04687 0.15234,-0.621094 l 0.63282,-2.390625 h -0.59766 c -0.43359,1.183594 -0.51562,1.382813 -0.87891,1.957031 -0.48046,0.75 -0.8789,1.160157 -1.125,1.160157 -0.10546,0 -0.17578,-0.08203 -0.17578,-0.199219 0,-0.02344 0,-0.04687 0.0117,-0.07031 l 0.72656,-2.90625 -0.0234,-0.01172 c -0.46875,0.105468 -0.76172,0.152343 -1.19532,0.210937 v 0.117188 c 0.31641,0 0.31641,0 0.39844,0.04687 0.0352,0.01172 0.082,0.08203 0.082,0.140625 0,0.07031 -0.0469,0.269531 -0.11718,0.539062 l -0.29297,1.136719 c -0.15235,0.585937 -0.19922,0.84375 -0.19922,0.984375 0,0.292969 0.14062,0.445312 0.42187,0.445312 0.5625,0 0.9961,-0.433593 1.91016,-1.980468 -0.23438,0.867187 -0.36328,1.394531 -0.36328,1.570312 0,0.257813 0.15234,0.386719 0.38672,0.386719 0.375,0 0.55078,-0.152344 1.10156,-0.9375 z m 5.92969,2.003907 h -0.75 l 0.96094,-3.480469 h -0.32813 l -3.33984,3.457031 -0.15235,0.527344 h 2.09766 l -0.39844,1.429687 h 0.63281 l 0.375,-1.40625 h 0.79688 z m -1.40625,0 h -1.69922 v -0.02344 l 2.4375,-2.554687 h 0.0352 z M 122.9916,-106.33727 c -0.42187,0.52735 -0.53906,0.63282 -0.66797,0.63282 -0.0586,0 -0.082,-0.0469 -0.082,-0.14063 0,-0.0469 0,-0.0469 0.15235,-0.62109 l 0.63281,-2.39063 h -0.59766 c -0.43359,1.1836 -0.51562,1.38282 -0.8789,1.95703 -0.48047,0.75 -0.87891,1.16016 -1.125,1.16016 -0.10547,0 -0.17579,-0.082 -0.17579,-0.19922 0,-0.0234 0,-0.0469 0.0117,-0.0703 l 0.72657,-2.90625 -0.0234,-0.0117 c -0.46875,0.10547 -0.76172,0.15234 -1.19531,0.21094 v 0.11719 c 0.3164,0 0.3164,0 0.39843,0.0469 0.0352,0.0117 0.082,0.082 0.082,0.14063 0,0.0703 -0.0469,0.26953 -0.11718,0.53906 l -0.29297,1.13672 c -0.15235,0.58593 -0.19922,0.84375 -0.19922,0.98437 0,0.29297 0.14062,0.44531 0.42187,0.44531 0.5625,0 0.9961,-0.43359 1.91016,-1.98046 -0.23437,0.86718 -0.36328,1.39453 -0.36328,1.57031 0,0.25781 0.15234,0.38672 0.38672,0.38672 0.375,0 0.55078,-0.15235 1.10156,-0.9375 z m 4.31836,-0.82031 h 1.83984 l 0.17579,-0.57422 h -2.03907 l -0.84375,1.7461 v 0.11718 c 0.78516,0.17579 1.04297,0.26954 1.33594,0.50391 0.25781,0.19922 0.42188,0.60938 0.42188,1.03125 0,0.86719 -0.64454,1.65234 -1.3711,1.65234 -0.16406,0 -0.30469,-0.0586 -0.53906,-0.23437 -0.19922,-0.15234 -0.32813,-0.19922 -0.44531,-0.19922 -0.1875,0 -0.32813,0.12891 -0.32813,0.31641 0,0.28125 0.31641,0.45703 0.85547,0.45703 1.3125,0 2.37891,-1.03125 2.37891,-2.29688 0,-0.5039 -0.1875,-0.92578 -0.52735,-1.2539 -0.30468,-0.28125 -0.58593,-0.41016 -1.23047,-0.5625 z m 0,0"
       style="fill:#231f20;fill-opacity:1;fill-rule:nonzero;stroke:none"
       aria-label="u&#10;1&#10;u&#10;2&#10;u&#10;4&#10;u&#10;5"
       transform="matrix(1.3333333,0,0,1.3333333,119.36667,157.35333)" />
    <path
       id="path2"
       d="m 607.25,615.25 1414,850 37,-61 -1415,-851 z"
       style="fill:none;stroke:#231f20;stroke-width:5;stroke-linecap:butt;stroke-linejoin:miter;stroke-miterlimit:3.8637;stroke-dasharray:none;stroke-opacity:1"
       transform="matrix(0.13333333,0,0,-0.13333333,0,239.25333)" />
    <path
       id="path3"
       d="M 7.6054687,-7.8392188 H 1.640625 V -7.64 c 0.75,0.070312 0.9257813,0.1640625 0.9257813,0.4921875 0,0.140625 -0.070312,0.5390625 -0.1289063,0.7617187 L 0.9609375,-1.0775 C 0.76171875,-0.3978125 0.65625,-0.31578125 -0.01171875,-0.186875 v 0.1875 H 6.0703125 l 0.75,-1.9453125 -0.1992188,-0.09375 C 6.0585937,-1.265 5.7421875,-0.9603125 5.2265625,-0.71421875 4.7929687,-0.515 3.9726563,-0.3978125 3.0585938,-0.3978125 2.390625,-0.3978125 2.109375,-0.515 2.109375,-0.80796875 c 0,-0.140625 0.1523438,-0.70312505 0.4335938,-1.74609375 L 2.9296875,-3.936875 c 0.1875,0.011719 0.375,0.023437 0.5625,0.023437 l 0.5507812,0.011719 c 0.3398438,0.011719 0.6210938,0.070312 0.7148438,0.140625 0.1054687,0.09375 0.1289062,0.1757813 0.1289062,0.4101563 0,0.2226562 -0.023437,0.3632812 -0.082031,0.6328125 l 0.234375,0.058594 0.8203125,-2.7890625 -0.2226563,-0.046875 C 5.1796875,-4.4759375 5.0625,-4.3939063 3.984375,-4.35875 c -0.140625,0 -0.5273437,0.011719 -0.9492187,0.023437 l 0.796875,-2.7890625 c 0.070312,-0.28125 0.1874999,-0.3164063 0.8789062,-0.3164063 1.875,0 2.296875,0.1523438 2.296875,0.8789063 0,0.1523437 -0.011719,0.3398437 -0.023437,0.5390625 l 0.2460937,0.023437 z M 7.3916016,1.5475 C 8.4111328,0.985 8.9501953,0.31703125 8.9501953,-0.36265625 c 0,-0.48046875 -0.2929687,-0.84375005 -0.6914062,-0.84375005 -0.3515625,0 -0.609375,0.23437505 -0.609375,0.5507813 0,0.22265625 0.070312,0.33984375 0.2929687,0.55078125 0.1875,0.1640625 0.2460938,0.2578125 0.2460938,0.38671875 0,0.31640625 -0.2695313,0.64453125 -0.9023438,1.0664062 z M 20.106445,-0.186875 c -0.691406,-0.0703125 -0.761718,-0.1640625 -0.914062,-1.03125 L 18.055664,-8.015 h -0.304687 l -3.480469,6 c -0.949219,1.59375 -1.066406,1.72265625 -1.546875,1.828125 v 0.1875 h 2.238281 v -0.1875 c -0.609375,-0.0703125 -0.703125,-0.12890625 -0.703125,-0.421875 0,-0.234375 0.03516,-0.33984375 0.234375,-0.75 l 0.691406,-1.3476563 h 2.636719 l 0.234375,1.5703125 c 0.01172,0.1054688 0.03516,0.21093755 0.03516,0.30468755 0,0.45703125 -0.175781,0.5625 -0.9375,0.64453125 v 0.1875 h 2.953125 z M 15.430664,-3.14 17.235352,-6.2689063 17.762695,-3.14 Z m 5.291016,4.6875 c 1.019531,-0.5625 1.558593,-1.23046875 1.558593,-1.91015625 0,-0.48046875 -0.292968,-0.84375005 -0.691406,-0.84375005 -0.351562,0 -0.609375,0.23437505 -0.609375,0.5507813 0,0.22265625 0.07031,0.33984375 0.292969,0.55078125 0.1875,0.1640625 0.246094,0.2578125 0.246094,0.38671875 0,0.31640625 -0.269532,0.64453125 -0.902344,1.0664062 z M 26.569336,6.25e-4 h 2.929687 v -0.1875 c -0.691406,-0.09375 -0.820312,-0.1640625 -0.820312,-0.4921875 0,-0.24609375 0.02344,-0.3632813 0.128906,-0.7617188 L 30.28418,-6.7610938 C 30.506836,-7.4525 30.588867,-7.5228125 31.268555,-7.64 V -7.8392188 H 28.303711 V -7.64 c 0.714844,0.09375 0.84375,0.1757812 0.84375,0.515625 0,0.1757812 -0.03516,0.421875 -0.128906,0.7382812 L 27.541992,-1.0775 c -0.222656,0.69140625 -0.304687,0.76171875 -0.972656,0.890625 z M 30.717773,1.5475 c 1.019532,-0.5625 1.558594,-1.23046875 1.558594,-1.91015625 0,-0.48046875 -0.292969,-0.84375005 -0.691406,-0.84375005 -0.351563,0 -0.609375,0.23437505 -0.609375,0.5507813 0,0.22265625 0.07031,0.33984375 0.292969,0.55078125 0.1875,0.1640625 0.246093,0.2578125 0.246093,0.38671875 0,0.31640625 -0.269531,0.64453125 -0.902343,1.0664062 z m 14.214844,-2.953125 c -0.05859,0.058594 -0.117187,0.1171875 -0.164062,0.1992187 -0.199219,0.23437505 -0.304688,0.3632813 -0.316407,0.37500005 -0.269531,0.29296875 -0.386718,0.375 -0.5625,0.375 -0.09375,0 -0.140625,-0.0585938 -0.140625,-0.1875 0,-0.046875 0.04687,-0.2578125 0.117188,-0.53906255 l 0.820312,-3.0117187 c 0.01172,-0.070312 0.03516,-0.2578125 0.03516,-0.3398438 0,-0.4335937 -0.292969,-0.7617187 -0.691407,-0.7617187 -0.246093,0 -0.480468,0.09375 -0.773437,0.2695312 -0.585938,0.3867188 -1.078125,0.9609375 -1.910156,2.2851563 0.316406,-0.9375 0.480468,-1.6054688 0.480468,-1.828125 0,-0.4335938 -0.269531,-0.7265625 -0.679687,-0.7265625 -0.726563,0 -1.570313,0.796875 -2.671875,2.53125 l 0.691406,-2.5078125 -0.03516,-0.023437 c -0.644531,0.140625 -0.902344,0.1875 -1.921875,0.375 v 0.1992187 c 0.550781,0.011719 0.550781,0.011719 0.65625,0.070312 0.07031,0.023437 0.117187,0.1054688 0.117187,0.1875 0,0.140625 -0.292968,1.2539063 -0.714843,2.7539063 -0.257813,0.90234375 -0.304688,1.1015625 -0.46875,1.7109375 h 0.902343 c 0.574219,-1.8984375 0.761719,-2.3554688 1.160157,-2.9765625 0.691406,-1.03125 1.394531,-1.6875 1.804687,-1.6875 0.152344,0 0.234375,0.1054687 0.234375,0.2929687 0,0.1640625 -0.351562,1.5703125 -0.832031,3.2695313 -0.09375,0.33984375 -0.140625,0.515625 -0.304688,1.1015625 h 0.902344 c 0.480469,-1.875 0.714844,-2.484375 1.335938,-3.328125 0.585937,-0.8085938 1.183593,-1.3359375 1.535156,-1.3359375 0.128906,0 0.234375,0.1054687 0.234375,0.2460937 0,0.058594 -0.02344,0.1875 -0.08203,0.421875 l -0.691407,2.765625 c -0.128906,0.4570313 -0.164062,0.6679688 -0.164062,0.7851563 0,0.36328125 0.175781,0.55078125 0.480469,0.55078125 0.5625,0 1.101562,-0.3984375 1.734375,-1.27734375 l 0.05859,-0.09375 z m 0,0"
       style="fill:#231f20;fill-opacity:1;fill-rule:nonzero;stroke:none"
       aria-label="E, A, I, m"
       transform="matrix(1.3333333,0,0,1.3333333,213.5,126.68667)" />
    <path
       id="path4"
       d="m 1583.25,885.25 c -34.96,-1.348 -100.97,6.973 -149,44 -36.41,27.707 -48.48,41.086 -71,93"
       style="fill:none;stroke:#231f20;stroke-width:2.5;stroke-linecap:butt;stroke-linejoin:miter;stroke-miterlimit:3.8637;stroke-dasharray:none;stroke-opacity:1"
       transform="matrix(0.13333333,0,0,-0.13333333,0,239.25333)" />
    <path
       id="path5"
       d="m 4.8279297,-1.3366797 c -0.1054688,0.1171875 -0.1640625,0.1875 -0.2695313,0.328125 -0.2695312,0.36328126 -0.421875,0.48046876 -0.5625,0.48046876 -0.1640625,0 -0.28125,-0.15234375 -0.3632812,-0.49218746 -0.035156,-0.1289063 -0.035156,-0.1523438 -0.046875,-0.1875 -0.2929688,-1.2304688 -0.4335938,-1.78125 -0.4335938,-1.9570313 0.5390625,-0.9375 0.9609375,-1.453125 1.1835938,-1.453125 0.070312,0 0.1757812,0.035156 0.28125,0.09375 0.1523437,0.082031 0.234375,0.1054688 0.3398437,0.1054688 0.234375,0 0.4101563,-0.1757813 0.4101563,-0.4335938 0,-0.2578125 -0.2109375,-0.4453125 -0.4921875,-0.4453125 -0.5273438,0 -0.9726563,0.4335938 -1.8164063,1.7226563 l -0.1289062,-0.65625 C 2.7654297,-5.0515234 2.6248047,-5.2976172 2.3083984,-5.2976172 c -0.28125,0 -0.6679687,0.1054688 -1.40624996,0.3515625 -0.0703125,0.023437 -0.0703125,0.023437 -0.12890625,0.046875 l 0.046875,0.1875 c 0.46875001,-0.1289062 0.55078121,-0.140625 0.66796871,-0.140625 0.3046875,0 0.375,0.1171875 0.5390625,0.8320313 l 0.3515625,1.4765625 -0.984375,1.40625 c -0.2578125,0.35156246 -0.48046871,0.57421871 -0.60937496,0.57421871 -0.0820313,0 -0.19921875,-0.0351563 -0.31640625,-0.10546875 -0.15234375,-0.09375 -0.28125,-0.12890625 -0.38671875,-0.12890625 -0.234375,0 -0.41015625,0.1875 -0.41015625,0.421875 0,0.31640625 0.234375,0.50390625 0.609375,0.50390625 0.36328125,0 0.515625,-0.10546875 1.11328121,-0.8203125 0.3164063,-0.39843746 0.5859375,-0.76171876 1.078125,-1.41796876 l 0.3632813,1.44140626 c 0.1523437,0.62109375 0.3046875,0.796875 0.6914062,0.796875 0.4570313,0 0.7734375,-0.28125 1.4648438,-1.35937496 z M -79.722852,-84.803477 c 0.152344,-0.03516 0.246094,-0.04687 0.375,-0.04687 0.492188,0 0.726563,0.199219 0.960938,0.84375 0.328125,0.890625 0.949219,3.457032 0.949219,3.914063 0,0.1875 -0.08203,0.386719 -0.257813,0.609375 -0.328125,0.445312 -0.609375,0.785156 -0.75,0.9375 -0.257812,0.257812 -0.386719,0.363281 -0.539062,0.363281 -0.08203,0 -0.152344,-0.03516 -0.292969,-0.140625 -0.175781,-0.140625 -0.292969,-0.199219 -0.445313,-0.199219 -0.257812,0 -0.46875,0.199219 -0.46875,0.46875 0,0.316407 0.257813,0.527344 0.621094,0.527344 0.761719,0 2.320313,-1.792969 3.632813,-4.171875 0.820312,-1.476562 1.148437,-2.34375 1.148437,-2.929687 0,-0.363282 -0.292969,-0.667969 -0.65625,-0.667969 -0.28125,0 -0.46875,0.1875 -0.46875,0.445312 0,0.199219 0.09375,0.316407 0.339844,0.46875 0.222656,0.140625 0.304687,0.246094 0.304687,0.410157 0,0.480468 -0.433593,1.40625 -1.464843,3.105468 l -0.234375,-1.394531 c -0.1875,-1.066406 -0.855469,-3.035156 -1.03125,-3.035156 h -0.04687 c -0.02344,0.01172 -0.05859,0.01172 -0.117188,0.01172 -0.09375,0.01172 -0.539062,0.09375 -1.171875,0.210937 -0.05859,0.01172 -0.210937,0.04687 -0.386719,0.07031 z m 0,0"
       style="fill:#231f20;fill-opacity:1;fill-rule:nonzero;stroke:none"
       aria-label="x&#10;y"
       transform="matrix(1.3333333,0,0,1.3333333,110.56667,232.15333)" />
    <path
       id="path6"
       d="m 161.25,889.25 v -714"
       style="fill:none;stroke:#231f20;stroke-width:2.5;stroke-linecap:butt;stroke-linejoin:miter;stroke-miterlimit:3.8637;stroke-dasharray:none;stroke-opacity:1"
       transform="matrix(0.13333333,0,0,-0.13333333,0,239.25333)" />
    <path
       id="path7"
       d="m 161.25,886.25 h -15 l 15,38 15,-38 h -15"
       style="fill:#231f20;fill-opacity:1;fill-rule:evenodd;stroke:none"
       transform="matrix(0.13333333,0,0,-0.13333333,0,239.25333)" />
    <path
       id="path8"
       d="m 161.25,175.25 h 714"
       style="fill:none;stroke:#231f20;stroke-width:2.5;stroke-linecap:butt;stroke-linejoin:miter;stroke-miterlimit:3.8637;stroke-dasharray:none;stroke-opacity:1"
       transform="matrix(0.13333333,0,0,-0.13333333,0,239.25333)" />
    <path
       id="path9"
       d="m 872.25,175.25 v 15 l 38,-15 -38,-15 v 15"
       style="fill:#231f20;fill-opacity:1;fill-rule:evenodd;stroke:none"
       transform="matrix(0.13333333,0,0,-0.13333333,0,239.25333)" />
    <path
       id="path10"
       d="m 5.5316406,-1.4066016 c -0.6328125,0.79687504 -0.8085937,0.94921879 -0.9960937,0.94921879 -0.082031,0 -0.1289063,-0.0703125 -0.1289063,-0.19921875 0,-0.0703125 0,-0.0703125 0.2226563,-0.93750004 l 0.9492187,-3.5859375 h -0.890625 c -0.6445312,1.7695313 -0.7734375,2.0742188 -1.3125,2.9179688 -0.7265625,1.1484375 -1.3125,1.75781249 -1.6992187,1.75781249 -0.1523438,0 -0.2460938,-0.1171875 -0.2460938,-0.3046875 0,-0.0351563 0,-0.0703125 0.011719,-0.10546875 l 1.0898437,-4.35937504 -0.035156,-0.023437 c -0.6914063,0.1757813 -1.1367188,0.2460938 -1.80468753,0.328125 v 0.1640625 c 0.48046873,0.011719 0.48046873,0.011719 0.60937503,0.082031 0.058594,0.023437 0.1171875,0.1289062 0.1171875,0.2109375 0,0.1054687 -0.058594,0.3984375 -0.1757813,0.8085937 l -0.43359373,1.6992188 c -0.234375,0.890625 -0.3046875,1.26562499 -0.3046875,1.47656249 0,0.4453125 0.2109375,0.65625 0.63281253,0.65625 0.8554687,0 1.4882812,-0.64453125 2.8710937,-2.96484379 -0.3632812,1.3007813 -0.5390625,2.10937504 -0.5390625,2.36718754 0,0.375 0.2109375,0.57421875 0.5742188,0.57421875 0.5625,0 0.8320312,-0.22265625 1.6523437,-1.40624999 z m 6.7031254,-3.8203125 c -1.605469,0.1875 -2.4023441,0.46875 -3.4335941,1.2304688 -1.5117188,1.125 -2.4375,2.8359375 -2.4375,4.54687499 0,1.53515621 0.8554687,2.53125001 2.1914062,2.53125001 1.6054689,0 2.9765629,-1.5234375 2.9765629,-3.33984376 0,-1.21875004 -0.855469,-2.10937504 -2.0390629,-2.10937504 -0.3398437,0 -0.7265625,0.09375 -1.0546875,0.2578125 l -0.046875,-0.023437 c 0.8203125,-1.5234375 2.4609374,-2.7421875 3.8671874,-2.90625 z m -3.1289066,3.2929688 c 0.8320312,0 1.3593746,0.5976562 1.3593746,1.52343749 0,0.8203125 -0.292968,1.76953121 -0.7382809,2.39062501 -0.3515625,0.5390625 -0.7734375,0.796875 -1.2890625,0.796875 -0.7382812,0 -1.1601562,-0.5976563 -1.1601562,-1.5820313 0,-0.80859371 0.234375,-1.80468746 0.5507812,-2.3320312 0.3164063,-0.5507813 0.7148438,-0.796875 1.2773438,-0.796875 z M -137.86777,87.893203 c -0.63282,0.796875 -0.8086,0.949219 -0.9961,0.949219 -0.082,0 -0.1289,-0.07031 -0.1289,-0.199219 0,-0.07031 0,-0.07031 0.22265,-0.9375 l 0.94922,-3.585937 h -0.89062 c -0.64453,1.769531 -0.77344,2.074218 -1.3125,2.917968 -0.72657,1.148438 -1.3125,1.757813 -1.69922,1.757813 -0.15235,0 -0.2461,-0.117188 -0.2461,-0.304688 0,-0.03516 0,-0.07031 0.0117,-0.105468 l 1.08985,-4.359375 -0.0352,-0.02344 c -0.69141,0.175781 -1.13672,0.246094 -1.80469,0.328125 v 0.164063 c 0.48047,0.01172 0.48047,0.01172 0.60938,0.08203 0.0586,0.02344 0.11719,0.128906 0.11719,0.210937 0,0.105469 -0.0586,0.398438 -0.17579,0.808594 l -0.43359,1.699219 c -0.23437,0.890625 -0.30469,1.265625 -0.30469,1.476562 0,0.445313 0.21094,0.65625 0.63282,0.65625 0.85546,0 1.48828,-0.644531 2.87109,-2.964843 -0.36328,1.300781 -0.53906,2.109375 -0.53906,2.367187 0,0.375 0.21093,0.574219 0.57422,0.574219 0.5625,0 0.83203,-0.222656 1.65234,-1.40625 z m 2.60156,-2.402344 c 0.42187,-0.5625 0.83203,-0.796875 1.33594,-0.796875 0.64453,0 1.0664,0.433594 1.0664,1.089844 0,0.503906 -0.24609,0.9375 -0.76172,1.289063 -0.51562,0.339843 -1.04296,0.527343 -2.10937,0.703125 l 0.0117,0.1875 c 0.67969,0 0.79687,0.01172 1.11328,0.128906 0.72656,0.269531 1.11328,0.914062 1.11328,1.875 0,0.421875 -0.0937,0.855469 -0.26953,1.148437 -0.26953,0.480469 -0.80859,0.808594 -1.30078,0.808594 -0.23438,0 -0.49219,-0.117187 -0.85547,-0.386719 -0.35156,-0.246093 -0.53906,-0.328125 -0.77344,-0.328125 -0.32812,0 -0.52734,0.164063 -0.52734,0.46875 0,0.457032 0.48047,0.703125 1.34765,0.703125 0.66797,0 1.30079,-0.152343 1.79297,-0.445312 0.94922,-0.550781 1.54688,-1.558594 1.54688,-2.625 0,-0.878906 -0.35156,-1.417969 -1.14844,-1.792969 v -0.03516 c 1.44141,-0.5625 1.86328,-0.960938 1.86328,-1.769531 0,-0.878907 -0.70312,-1.523438 -1.67578,-1.523438 -0.83203,0 -1.57031,0.46875 -1.95703,1.242188 z m -2.42285,25.406251 c -0.44531,-1.21875 -0.57422,-1.95703 -0.57422,-3.11719 0,-1.45312 0.32812,-3.16406 0.89062,-4.5 0.39844,-0.94922 0.77344,-1.51172 1.5586,-2.33203 l -0.16406,-0.17578 c -1.5586,1.41797 -2.16797,2.20312 -2.67188,3.45703 -0.31641,0.75 -0.44531,1.48828 -0.44531,2.41406 0,0.92578 0.14062,1.81641 0.41015,2.64844 0.16407,0.50391 0.35157,0.89063 0.77344,1.67578 z m 6.91406,-3.43359 c -0.10547,0.11718 -0.16406,0.1875 -0.26953,0.32812 -0.26953,0.36328 -0.42188,0.48047 -0.5625,0.48047 -0.16406,0 -0.28125,-0.15234 -0.36328,-0.49219 -0.0352,-0.1289 -0.0352,-0.15234 -0.0469,-0.1875 -0.29297,-1.23047 -0.43359,-1.78125 -0.43359,-1.95703 0.53906,-0.9375 0.96094,-1.45312 1.18359,-1.45312 0.0703,0 0.17578,0.0352 0.28125,0.0937 0.15235,0.082 0.23438,0.10546 0.33985,0.10546 0.23437,0 0.41015,-0.17578 0.41015,-0.43359 0,-0.25781 -0.21093,-0.44531 -0.49218,-0.44531 -0.52735,0 -0.97266,0.43359 -1.81641,1.72265 l -0.12891,-0.65625 c -0.16406,-0.82031 -0.30468,-1.0664 -0.62109,-1.0664 -0.28125,0 -0.66797,0.10547 -1.40625,0.35156 -0.0703,0.0234 -0.0703,0.0234 -0.12891,0.0469 l 0.0469,0.1875 c 0.46875,-0.12891 0.55078,-0.14063 0.66797,-0.14063 0.30468,0 0.375,0.11719 0.53906,0.83203 l 0.35156,1.47656 -0.98437,1.40625 c -0.25782,0.35157 -0.48047,0.57422 -0.60938,0.57422 -0.082,0 -0.19922,-0.0351 -0.3164,-0.10547 -0.15235,-0.0937 -0.28125,-0.1289 -0.38672,-0.1289 -0.23438,0 -0.41016,0.1875 -0.41016,0.42187 0,0.31641 0.23438,0.50391 0.60938,0.50391 0.36328,0 0.51562,-0.10547 1.11328,-0.82031 0.3164,-0.39844 0.58593,-0.76172 1.07812,-1.41797 l 0.36328,1.4414 c 0.15235,0.6211 0.30469,0.79688 0.69141,0.79688 0.45703,0 0.77344,-0.28125 1.46484,-1.35938 z m 1.06055,4.33593 h 3.35156 v -0.17578 h -0.21094 c -0.58594,0 -0.82031,-0.11719 -0.82031,-0.38672 0,-0.10547 0.0352,-0.29297 0.14062,-0.62109 0.0234,-0.0937 0.0352,-0.15234 0.0703,-0.26953 l 1.72265,-6.22266 c 0.0586,-0.22265 0.0703,-0.29297 0.0703,-0.35156 0,-0.0469 -0.0234,-0.082 -0.0586,-0.082 0,0 -0.33984,0.0586 -0.98437,0.1875 l -1.07813,0.22265 c -0.0234,0.0117 -0.11719,0.0234 -0.25781,0.0469 v 0.17578 l 0.67969,-0.0234 c 0.28125,-0.0117 0.45703,0.12891 0.45703,0.375 0,0.082 -0.0234,0.16407 -0.082,0.41016 l -1.65235,5.89453 c -0.14062,0.44531 -0.39843,0.5625 -1.34765,0.65625 z m 3.47168,-1.45312 c 1.01953,-0.5625 1.55859,-1.23047 1.55859,-1.91016 0,-0.48047 -0.29297,-0.84375 -0.69141,-0.84375 -0.35156,0 -0.60937,0.23438 -0.60937,0.55078 0,0.22266 0.0703,0.33985 0.29297,0.55078 0.1875,0.16407 0.24609,0.25782 0.24609,0.38672 0,0.31641 -0.26953,0.64453 -0.90234,1.06641 z m 3.11718,-6.35156 c 0.15235,-0.0352 0.2461,-0.0469 0.375,-0.0469 0.49219,0 0.72657,0.19922 0.96094,0.84375 0.32813,0.89063 0.94922,3.45703 0.94922,3.91406 0,0.1875 -0.082,0.38672 -0.25781,0.60938 -0.32813,0.44531 -0.60938,0.78515 -0.75,0.9375 -0.25781,0.25781 -0.38672,0.36328 -0.53906,0.36328 -0.082,0 -0.15235,-0.0352 -0.29297,-0.14063 -0.17578,-0.14062 -0.29297,-0.19921 -0.44532,-0.19921 -0.25781,0 -0.46875,0.19921 -0.46875,0.46875 0,0.3164 0.25782,0.52734 0.6211,0.52734 0.76172,0 2.32031,-1.79297 3.63281,-4.17188 0.82031,-1.47656 1.14844,-2.34375 1.14844,-2.92968 0,-0.36328 -0.29297,-0.66797 -0.65625,-0.66797 -0.28125,0 -0.46875,0.1875 -0.46875,0.44531 0,0.19922 0.0937,0.31641 0.33984,0.46875 0.22266,0.14063 0.30469,0.24609 0.30469,0.41016 0,0.48047 -0.43359,1.40625 -1.46484,3.10547 l -0.23438,-1.39454 c -0.1875,-1.0664 -0.85547,-3.03515 -1.03125,-3.03515 h -0.0469 c -0.0234,0.0117 -0.0586,0.0117 -0.11719,0.0117 -0.0937,0.0117 -0.53906,0.0937 -1.17188,0.21093 -0.0586,0.0117 -0.21093,0.0469 -0.38672,0.0703 z m 5.71289,7.80468 h 3.35157 v -0.17578 h -0.21094 c -0.58594,0 -0.82031,-0.11719 -0.82031,-0.38672 0,-0.10547 0.0352,-0.29297 0.14062,-0.62109 0.0234,-0.0937 0.0352,-0.15234 0.0703,-0.26953 l 1.72266,-6.22266 c 0.0586,-0.22265 0.0703,-0.29297 0.0703,-0.35156 0,-0.0469 -0.0234,-0.082 -0.0586,-0.082 0,0 -0.33984,0.0586 -0.98438,0.1875 l -1.07812,0.22265 c -0.0234,0.0117 -0.11719,0.0234 -0.25781,0.0469 v 0.17578 l 0.67968,-0.0234 c 0.28125,-0.0117 0.45704,0.12891 0.45704,0.375 0,0.082 -0.0234,0.16407 -0.082,0.41016 l -1.65234,5.89453 c -0.14062,0.44531 -0.39844,0.5625 -1.34766,0.65625 z m 3.76465,-0.84375 c 1.48828,-1.28906 2.09766,-2.07422 2.63672,-3.36328 0.33985,-0.79687 0.48047,-1.55859 0.48047,-2.44922 0,-0.6914 -0.0937,-1.4414 -0.26953,-2.16797 -0.19922,-0.80859 -0.375,-1.24218 -0.91406,-2.20312 l -0.23438,0.0586 c 0.41016,0.97266 0.58594,1.94532 0.58594,3.14063 0,1.52344 -0.41016,3.45703 -1.00781,4.75781 -0.33985,0.77344 -0.70313,1.27734 -1.44141,2.05078 z M 19.608789,27.899063 c -0.445312,-1.21875 -0.574219,-1.957032 -0.574219,-3.117188 0,-1.453125 0.328125,-3.164062 0.890625,-4.5 0.398438,-0.949219 0.773438,-1.511719 1.558594,-2.332031 l -0.164062,-0.175781 c -1.558594,1.417968 -2.167969,2.203125 -2.671875,3.457031 -0.316407,0.75 -0.445313,1.488281 -0.445313,2.414062 0,0.925782 0.140625,1.816407 0.410156,2.648438 0.164063,0.503906 0.351563,0.890625 0.773438,1.675781 z m 6.914063,-3.433594 c -0.105469,0.117187 -0.164063,0.1875 -0.269532,0.328125 -0.269531,0.363281 -0.421875,0.480469 -0.5625,0.480469 -0.164062,0 -0.28125,-0.152344 -0.363281,-0.492188 -0.03516,-0.128906 -0.03516,-0.152344 -0.04687,-0.1875 -0.292969,-1.230469 -0.433594,-1.78125 -0.433594,-1.957031 0.539063,-0.9375 0.960938,-1.453125 1.183594,-1.453125 0.07031,0 0.175781,0.03516 0.28125,0.09375 0.152344,0.08203 0.234375,0.105469 0.339844,0.105469 0.234375,0 0.410156,-0.175782 0.410156,-0.433594 0,-0.257813 -0.210937,-0.445313 -0.492187,-0.445313 -0.527344,0 -0.972657,0.433594 -1.816407,1.722657 l -0.128906,-0.65625 c -0.164062,-0.820313 -0.304687,-1.066407 -0.621094,-1.066407 -0.28125,0 -0.667968,0.105469 -1.40625,0.351563 -0.07031,0.02344 -0.07031,0.02344 -0.128906,0.04687 l 0.04687,0.1875 c 0.46875,-0.128906 0.550781,-0.140625 0.667969,-0.140625 0.304687,0 0.375,0.117187 0.539062,0.832031 l 0.351563,1.476563 -0.984375,1.40625 c -0.257813,0.351562 -0.480469,0.574218 -0.609375,0.574218 -0.08203,0 -0.199219,-0.03516 -0.316406,-0.105468 -0.152344,-0.09375 -0.28125,-0.128907 -0.386719,-0.128907 -0.234375,0 -0.410156,0.1875 -0.410156,0.421875 0,0.316407 0.234375,0.503907 0.609375,0.503907 0.363281,0 0.515625,-0.105469 1.113281,-0.820313 0.316406,-0.398437 0.585937,-0.761719 1.078125,-1.417969 l 0.363281,1.441407 c 0.152344,0.621093 0.304688,0.796875 0.691406,0.796875 0.457032,0 0.773438,-0.28125 1.464844,-1.359375 z m 5.282226,2.671875 c -0.28125,0.585937 -0.515625,0.726562 -1.195312,0.75 h -2.273438 v -0.05859 l 2.296875,-2.308594 c 1.40625,-1.394531 1.792969,-2.003906 1.792969,-2.800781 0,-1.136719 -0.855469,-2.027344 -1.945313,-2.027344 -0.433593,0 -0.878906,0.105469 -1.242187,0.304688 -0.609375,0.339844 -0.925781,0.75 -1.277344,1.617187 l 0.246094,0.08203 c 0.445312,-0.785157 0.960937,-1.125 1.6875,-1.125 0.867187,0 1.5,0.621093 1.5,1.453125 0,0.257812 -0.03516,0.480468 -0.105469,0.644531 -0.292969,0.644531 -0.84375,1.40625 -1.628906,2.238281 l -2.519531,2.695313 v 0.199218 h 4.265625 l 0.597656,-1.582031 z m -0.74707,0.210937 c 1.019531,-0.5625 1.558594,-1.230468 1.558594,-1.910156 0,-0.480469 -0.292969,-0.84375 -0.691407,-0.84375 -0.351562,0 -0.609375,0.234375 -0.609375,0.550781 0,0.222657 0.07031,0.339844 0.292969,0.550782 0.1875,0.164062 0.246094,0.257812 0.246094,0.386718 0,0.316407 -0.269531,0.644532 -0.902344,1.066407 z m 3.117187,-6.351562 c 0.152344,-0.03516 0.246094,-0.04687 0.375,-0.04687 0.492188,0 0.726563,0.199219 0.960938,0.84375 0.328125,0.890625 0.949219,3.457031 0.949219,3.914062 0,0.1875 -0.08203,0.386719 -0.257813,0.609375 -0.328125,0.445313 -0.609375,0.785157 -0.75,0.9375 -0.257812,0.257813 -0.386719,0.363282 -0.539062,0.363282 -0.08203,0 -0.152344,-0.03516 -0.292969,-0.140625 -0.175781,-0.140625 -0.292969,-0.199219 -0.445313,-0.199219 -0.257812,0 -0.46875,0.199219 -0.46875,0.46875 0,0.316406 0.257813,0.527344 0.621094,0.527344 0.761719,0 2.320313,-1.792969 3.632813,-4.171875 0.820312,-1.476563 1.148437,-2.34375 1.148437,-2.929688 0,-0.363281 -0.292969,-0.667969 -0.65625,-0.667969 -0.28125,0 -0.46875,0.1875 -0.46875,0.445313 0,0.199219 0.09375,0.316406 0.339844,0.46875 0.222656,0.140625 0.304687,0.246094 0.304687,0.410156 0,0.480469 -0.433593,1.40625 -1.464843,3.105469 l -0.234375,-1.394531 c -0.1875,-1.066407 -0.855469,-3.035157 -1.03125,-3.035157 h -0.04687 c -0.02344,0.01172 -0.05859,0.01172 -0.117188,0.01172 -0.09375,0.01172 -0.539062,0.09375 -1.171875,0.210938 -0.05859,0.01172 -0.210937,0.04687 -0.386719,0.07031 z m 9.928711,6.140625 c -0.28125,0.585937 -0.515625,0.726562 -1.195312,0.75 h -2.273438 v -0.05859 l 2.296875,-2.308594 c 1.40625,-1.394535 1.792969,-2.00391 1.792969,-2.800785 0,-1.136719 -0.855469,-2.027344 -1.945313,-2.027344 -0.433593,0 -0.878906,0.105469 -1.242187,0.304688 -0.609375,0.339844 -0.925781,0.75 -1.277344,1.617187 l 0.246094,0.08203 c 0.445312,-0.785157 0.960937,-1.125 1.6875,-1.125 0.867187,0 1.5,0.621093 1.5,1.453125 0,0.257812 -0.03516,0.480468 -0.105469,0.644531 -0.292969,0.644531 -0.84375,1.40625 -1.628906,2.238281 l -2.519531,2.695313 v 0.199218 h 4.265625 l 0.597656,-1.582031 z m -0.451172,0.820312 c 1.488282,-1.289062 2.097657,-2.074218 2.636719,-3.363281 0.339844,-0.796875 0.480469,-1.558594 0.480469,-2.449219 0,-0.691406 -0.09375,-1.441406 -0.269531,-2.167968 -0.199219,-0.808594 -0.375,-1.242188 -0.914063,-2.203125 l -0.234375,0.05859 c 0.410156,0.972657 0.585938,1.945313 0.585938,3.140625 0,1.523438 -0.410157,3.457032 -1.007813,4.757813 -0.339844,0.773437 -0.703125,1.277344 -1.441406,2.050781 z m 0,0"
       style="fill:#231f20;fill-opacity:1;fill-rule:nonzero;stroke:none"
       aria-label="u&#10;6&#10;u&#10;3&#10;(x&#10;1&#10;,y&#10;1&#10;)&#10;(x&#10;2&#10;,y&#10;2&#10;)"
       transform="matrix(1.3333333,0,0,1.3333333,253.36667,40.02)" />
    <path
       id="path11"
       d="m 1863.25,1510.25 c 29.01,65.98 95.1,112.44 172,112 103.34,0.44 186.96,-79.53 187,-183"
       style="fill:none;stroke:#231f20;stroke-width:2.5;stroke-linecap:butt;stroke-linejoin:miter;stroke-miterlimit:3.8637;stroke-dasharray:none;stroke-opacity:1"
       transform="matrix(0.13333333,0,0,-0.13333333,0,239.25333)" />
    <path
       id="path12"
       d="m 1864.25,1512.25 14,-6 -28,-29 v 41 l 14,-6"
       style="fill:#231f20;fill-opacity:1;fill-rule:evenodd;stroke:none"
       transform="matrix(0.13333333,0,0,-0.13333333,0,239.25333)" />
    <path
       id="path13"
       d="m 2090.25,1438.25 h 253"
       style="fill:none;stroke:#ffffff;stroke-width:40;stroke-linecap:round;stroke-linejoin:miter;stroke-miterlimit:3.8637;stroke-dasharray:none;stroke-opacity:1"
       transform="matrix(0.13333333,0,0,-0.13333333,0,239.25333)" />
    <path
       id="path14"
       d="m 2042.25,1482.25 v 253"
       style="fill:none;stroke:#ffffff;stroke-width:40;stroke-linecap:round;stroke-linejoin:miter;stroke-miterlimit:3.8637;stroke-dasharray:none;stroke-opacity:1"
       transform="matrix(0.13333333,0,0,-0.13333333,0,239.25333)" />
    <path
       id="path15"
       d="m 2042.25,1696.25 v -260"
       style="fill:none;stroke:#231f20;stroke-width:2.5;stroke-linecap:butt;stroke-linejoin:miter;stroke-miterlimit:3.8637;stroke-dasharray:none;stroke-opacity:1"
       transform="matrix(0.13333333,0,0,-0.13333333,0,239.25333)" />
    <path
       id="path16"
       d="m 2042.25,1693.25 h -15 l 15,38 15,-38 h -15"
       style="fill:#231f20;fill-opacity:1;fill-rule:evenodd;stroke:none"
       transform="matrix(0.13333333,0,0,-0.13333333,0,239.25333)" />
    <path
       id="path17"
       d="m 2042.25,1436.25 h 259"
       style="fill:none;stroke:#231f20;stroke-width:2.5;stroke-linecap:butt;stroke-linejoin:miter;stroke-miterlimit:3.8637;stroke-dasharray:none;stroke-opacity:1"
       transform="matrix(0.13333333,0,0,-0.13333333,0,239.25333)" />
    <path
       id="path18"
       d="m 2299.25,1436.25 v 15 l 37,-15 -37,-15 v 15"
       style="fill:#231f20;fill-opacity:1;fill-rule:evenodd;stroke:none"
       transform="matrix(0.13333333,0,0,-0.13333333,0,239.25333)" />
    <path
       id="path19"
       d="m 446.25,656.25 c 29.133,66.328 95.223,112.789 172,113 103.465,-0.211 187.082,-80.18 187,-183"
       style="fill:none;stroke:#231f20;stroke-width:2.5;stroke-linecap:butt;stroke-linejoin:miter;stroke-miterlimit:3.8637;stroke-dasharray:none;stroke-opacity:1"
       transform="matrix(0.13333333,0,0,-0.13333333,0,239.25333)" />
    <path
       id="path20"
       d="m 447.25,658.25 14,-6 -28,-28 1,40 13,-6"
       style="fill:#231f20;fill-opacity:1;fill-rule:evenodd;stroke:none"
       transform="matrix(0.13333333,0,0,-0.13333333,0,239.25333)" />
    <path
       id="path21"
       d="m 673.25,584.25 h 254"
       style="fill:none;stroke:#ffffff;stroke-width:40;stroke-linecap:round;stroke-linejoin:miter;stroke-miterlimit:3.8637;stroke-dasharray:none;stroke-opacity:1"
       transform="matrix(0.13333333,0,0,-0.13333333,0,239.25333)" />
    <path
       id="path22"
       d="m 625.25,628.25 v 254"
       style="fill:none;stroke:#ffffff;stroke-width:40;stroke-linecap:round;stroke-linejoin:miter;stroke-miterlimit:3.8637;stroke-dasharray:none;stroke-opacity:1"
       transform="matrix(0.13333333,0,0,-0.13333333,0,239.25333)" />
    <path
       id="path23"
       d="m 625.25,842.25 v -259"
       style="fill:none;stroke:#231f20;stroke-width:2.5;stroke-linecap:butt;stroke-linejoin:miter;stroke-miterlimit:3.8637;stroke-dasharray:none;stroke-opacity:1"
       transform="matrix(0.13333333,0,0,-0.13333333,0,239.25333)" />
    <path
       id="path24"
       d="m 625.25,840.25 h -15 l 15,37 15,-37 h -15"
       style="fill:#231f20;fill-opacity:1;fill-rule:evenodd;stroke:none"
       transform="matrix(0.13333333,0,0,-0.13333333,0,239.25333)" />
    <path
       id="path25"
       d="m 625.25,583.25 h 260"
       style="fill:none;stroke:#231f20;stroke-width:2.5;stroke-linecap:butt;stroke-linejoin:miter;stroke-miterlimit:3.8637;stroke-dasharray:none;stroke-opacity:1"
       transform="matrix(0.13333333,0,0,-0.13333333,0,239.25333)" />
    <path
       id="path26"
       d="m 882.25,583.25 v 15 l 38,-15 -38,-15 v 15"
       style="fill:#231f20;fill-opacity:1;fill-rule:evenodd;stroke:none"
       transform="matrix(0.13333333,0,0,-0.13333333,0,239.25333)" />
    <path
       id="path27"
       d="m 4.8267578,-1.3372656 c -0.1054687,0.1171875 -0.1640625,0.1875 -0.2695312,0.328125 -0.2695313,0.36328122 -0.421875,0.48046872 -0.5625,0.48046872 -0.1640625,0 -0.28125,-0.15234375 -0.3632813,-0.49218752 -0.035156,-0.1289062 -0.035156,-0.1523437 -0.046875,-0.1875 -0.2929687,-1.2304687 -0.4335937,-1.78125 -0.4335937,-1.9570312 0.5390625,-0.9375 0.9609375,-1.453125 1.1835937,-1.453125 0.070312,0 0.1757813,0.035156 0.28125,0.09375 0.1523438,0.082031 0.234375,0.1054687 0.3398438,0.1054687 0.234375,0 0.4101562,-0.1757812 0.4101562,-0.4335937 0,-0.2578125 -0.2109375,-0.4453125 -0.4921875,-0.4453125 -0.5273437,0 -0.9726562,0.4335937 -1.8164062,1.7226562 l -0.1289063,-0.65625 C 2.7642578,-5.0521094 2.6236328,-5.2982031 2.3072266,-5.2982031 c -0.28125,0 -0.6679688,0.1054687 -1.40625004,0.3515625 -0.0703125,0.023437 -0.0703125,0.023437 -0.12890625,0.046875 l 0.046875,0.1875 c 0.46874999,-0.1289063 0.55078129,-0.140625 0.66796879,-0.140625 0.3046875,0 0.375,0.1171875 0.5390625,0.8320312 l 0.3515625,1.4765625 -0.984375,1.40625 c -0.2578125,0.35156252 -0.48046879,0.57421877 -0.60937504,0.57421877 -0.0820313,0 -0.19921875,-0.0351563 -0.31640625,-0.10546875 -0.15234375,-0.09375 -0.28125,-0.12890625 -0.38671875,-0.12890625 -0.234375,0 -0.41015625,0.1875 -0.41015625,0.421875 0,0.31640625 0.234375,0.50390625 0.609375,0.50390625 0.36328125,0 0.515625,-0.10546875 1.11328129,-0.8203125 0.3164062,-0.39843752 0.5859375,-0.76171872 1.078125,-1.41796872 l 0.3632812,1.44140622 c 0.1523438,0.62109375 0.3046875,0.796875 0.6914063,0.796875 0.4570312,0 0.7734375,-0.28125 1.4648437,-1.35937502 z m 0,0"
       style="fill:#231f20;fill-opacity:1;fill-rule:nonzero;stroke:none"
       aria-label="x"
       transform="matrix(1.3333333,0,0,1.3333333,114.96667,121.35333)" />
    <path
       id="path28"
       d="m 865.25,956.25 h 49"
       style="fill:none;stroke:#231f20;stroke-width:2.5;stroke-linecap:butt;stroke-linejoin:miter;stroke-miterlimit:3.8637;stroke-dasharray:none;stroke-opacity:1"
       transform="matrix(0.13333333,0,0,-0.13333333,0,239.25333)" />
    <path
       id="path29"
       d="m 604.25,710.25 h 36 v -60 h -36 v 60"
       style="fill:#ffffff;fill-opacity:1;fill-rule:nonzero;stroke:none"
       transform="matrix(0.13333333,0,0,-0.13333333,0,239.25333)" />
    <path
       id="path30"
       d="m 694.25,758.25 h 42 v -44 h -42 v 44"
       style="fill:#ffffff;fill-opacity:1;fill-rule:nonzero;stroke:none"
       transform="matrix(0.13333333,0,0,-0.13333333,0,239.25333)" />
    <path
       id="path31"
       d="m 585.25,664.25 277,166"
       style="fill:none;stroke:#231f20;stroke-width:2.5;stroke-linecap:butt;stroke-linejoin:miter;stroke-miterlimit:3.8637;stroke-dasharray:none;stroke-opacity:1"
       transform="matrix(0.13333333,0,0,-0.13333333,0,239.25333)" />
    <path
       id="path32"
       d="m 860.25,829.25 -8,13 40,6 -24,-32 -8,13"
       style="fill:#231f20;fill-opacity:1;fill-rule:evenodd;stroke:none"
       transform="matrix(0.13333333,0,0,-0.13333333,0,239.25333)" />
  </g>
</svg>
