<?xml version="1.0" encoding="UTF-8" standalone="no"?>
<!-- Created with Inkscape (http://www.inkscape.org/) -->

<svg
   version="1.1"
   id="svg1"
   width="334.14667"
   height="262.92001"
   viewBox="0 0 334.14667 262.92001"
   sodipodi:docname="BEAM3.EPS"
   xmlns:inkscape="http://www.inkscape.org/namespaces/inkscape"
   xmlns:sodipodi="http://sodipodi.sourceforge.net/DTD/sodipodi-0.dtd"
   xmlns="http://www.w3.org/2000/svg"
   xmlns:svg="http://www.w3.org/2000/svg">
  <defs
     id="defs1" />
  <sodipodi:namedview
     id="namedview1"
     pagecolor="#ffffff"
     bordercolor="#000000"
     borderopacity="0.25"
     inkscape:showpageshadow="2"
     inkscape:pageopacity="0.0"
     inkscape:pagecheckerboard="0"
     inkscape:deskcolor="#d1d1d1">
    <inkscape:page
       x="0"
       y="0"
       inkscape:label="1"
       id="page1"
       width="334.14667"
       height="262.92001"
       margin="0"
       bleed="0" />
  </sodipodi:namedview>
  <g
     id="g1"
     inkscape:groupmode="layer"
     inkscape:label="1">
    <path
       id="path1"
       d="m 354.25,696.25 v -259"
       style="fill:none;stroke:#231f20;stroke-width:2.5;stroke-linecap:butt;stroke-linejoin:miter;stroke-miterlimit:3.8637;stroke-dasharray:none;stroke-opacity:1"
       transform="matrix(0.13333333,0,0,-0.13333333,0,262.92)" />
    <path
       id="path2"
       d="m 354.25,694.25 h -15 l 15,37 15,-37 h -15"
       style="fill:#231f20;fill-opacity:1;fill-rule:evenodd;stroke:none"
       transform="matrix(0.13333333,0,0,-0.13333333,0,262.92)" />
    <path
       id="path3"
       d="m 354.25,437.25 h 259"
       style="fill:none;stroke:#231f20;stroke-width:2.5;stroke-linecap:butt;stroke-linejoin:miter;stroke-miterlimit:3.8637;stroke-dasharray:none;stroke-opacity:1"
       transform="matrix(0.13333333,0,0,-0.13333333,0,262.92)" />
    <path
       id="path4"
       d="m 611.25,437.25 v 15 l 37,-15 -37,-15 v 15"
       style="fill:#231f20;fill-opacity:1;fill-rule:evenodd;stroke:none"
       transform="matrix(0.13333333,0,0,-0.13333333,0,262.92)" />
    <path
       id="path5"
       d="m 352.25,437.25 -134,-105"
       style="fill:none;stroke:#231f20;stroke-width:2.5;stroke-linecap:butt;stroke-linejoin:miter;stroke-miterlimit:3.8637;stroke-dasharray:none;stroke-opacity:1"
       transform="matrix(0.13333333,0,0,-0.13333333,0,262.92)" />
    <path
       id="path6"
       d="m 220.25,334.25 9,-12 -39,-12 21,35 9,-11"
       style="fill:#231f20;fill-opacity:1;fill-rule:evenodd;stroke:none"
       transform="matrix(0.13333333,0,0,-0.13333333,0,262.92)" />
    <path
       id="path7"
       d="m 354.25,1015.25 -1,-46"
       style="fill:none;stroke:#231f20;stroke-width:2.251;stroke-linecap:butt;stroke-linejoin:miter;stroke-miterlimit:3.8637;stroke-dasharray:20, 20;stroke-dashoffset:0;stroke-opacity:1"
       transform="matrix(0.13333333,0,0,-0.13333333,0,262.92)" />
    <path
       id="path8"
       d="m 354.25,1013.25 h -13 l 14,34 13,-34 h -14"
       style="fill:#231f20;fill-opacity:1;fill-rule:evenodd;stroke:none"
       transform="matrix(0.13333333,0,0,-0.13333333,0,262.92)" />
    <path
       id="path9"
       d="m 354.25,984.25 v -227"
       style="fill:none;stroke:#231f20;stroke-width:2.5;stroke-linecap:butt;stroke-linejoin:miter;stroke-miterlimit:3.8637;stroke-dasharray:20, 20;stroke-dashoffset:0;stroke-opacity:1"
       transform="matrix(0.13333333,0,0,-0.13333333,0,262.92)" />
    <path
       id="path10"
       d="m 354.25,982.25 h -15 l 15,37 15,-37 h -15"
       style="fill:#231f20;fill-opacity:1;fill-rule:evenodd;stroke:none"
       transform="matrix(0.13333333,0,0,-0.13333333,0,262.92)" />
    <path
       id="path11"
       d="m 871.25,436.25 55,1"
       style="fill:none;stroke:#231f20;stroke-width:2.251;stroke-linecap:butt;stroke-linejoin:miter;stroke-miterlimit:3.8637;stroke-dasharray:20, 20;stroke-dashoffset:0;stroke-opacity:1"
       transform="matrix(0.13333333,0,0,-0.13333333,0,262.92)" />
    <path
       id="path12"
       d="m 924.25,437.25 -1,13 34,-12 -33,-15 v 14"
       style="fill:#231f20;fill-opacity:1;fill-rule:evenodd;stroke:none"
       transform="matrix(0.13333333,0,0,-0.13333333,0,262.92)" />
    <path
       id="path13"
       d="m 686.25,436.25 h 211"
       style="fill:none;stroke:#231f20;stroke-width:2.5;stroke-linecap:butt;stroke-linejoin:miter;stroke-miterlimit:3.8637;stroke-dasharray:20, 20;stroke-dashoffset:0;stroke-opacity:1"
       transform="matrix(0.13333333,0,0,-0.13333333,0,262.92)" />
    <path
       id="path14"
       d="m 894.25,436.25 v 15 l 38,-15 -38,-15 v 15"
       style="fill:#231f20;fill-opacity:1;fill-rule:evenodd;stroke:none"
       transform="matrix(0.13333333,0,0,-0.13333333,0,262.92)" />
    <path
       id="path15"
       d="m 27.25,186.25 49,37"
       style="fill:none;stroke:#231f20;stroke-width:2.251;stroke-linecap:butt;stroke-linejoin:miter;stroke-miterlimit:3.8637;stroke-dasharray:20, 20;stroke-dashoffset:0;stroke-opacity:1"
       transform="matrix(0.13333333,0,0,-0.13333333,0,262.92)" />
    <path
       id="path16"
       d="m 29.25,187.25 8,-10 -35,-10 19,31 8,-11"
       style="fill:#231f20;fill-opacity:1;fill-rule:evenodd;stroke:none"
       transform="matrix(0.13333333,0,0,-0.13333333,0,262.92)" />
    <path
       id="path17"
       d="m 51.25,205.25 114,88"
       style="fill:none;stroke:#231f20;stroke-width:2.5;stroke-linecap:butt;stroke-linejoin:miter;stroke-miterlimit:3.8637;stroke-dasharray:20, 20;stroke-dashoffset:0;stroke-opacity:1"
       transform="matrix(0.13333333,0,0,-0.13333333,0,262.92)" />
    <path
       id="path18"
       d="m 53.25,207.25 9,-12 -39,-12 21,35 9,-11"
       style="fill:#231f20;fill-opacity:1;fill-rule:evenodd;stroke:none"
       transform="matrix(0.13333333,0,0,-0.13333333,0,262.92)" />
    <path
       id="path19"
       d="m 276.25,486.25 195,113 71,-123 -196,-113 -70,123"
       style="fill:#ffffff;fill-opacity:1;fill-rule:nonzero;stroke:none"
       transform="matrix(0.13333333,0,0,-0.13333333,0,262.92)" />
    <path
       id="path20"
       d="m 321.25,444.25 1414,850 37,-61 -1415,-850 z"
       style="fill:none;stroke:#231f20;stroke-width:5;stroke-linecap:butt;stroke-linejoin:miter;stroke-miterlimit:3.8637;stroke-dasharray:none;stroke-opacity:1"
       transform="matrix(0.13333333,0,0,-0.13333333,0,262.92)" />
    <path
       id="path21"
       d="m 321.25,444.25 46,81 1415,850"
       style="fill:none;stroke:#231f20;stroke-width:5;stroke-linecap:butt;stroke-linejoin:miter;stroke-miterlimit:3.8637;stroke-dasharray:none;stroke-opacity:1"
       transform="matrix(0.13333333,0,0,-0.13333333,0,262.92)" />
    <path
       id="path22"
       d="m 1737.25,1297.25 44,76 c 1.41,1.22 2.8,1.44 4,0 l 33,-57 c 1.06,-0.95 0.95,-3.32 0,-5 l -44,-76 c -1.13,-1.25 -2.53,-1.47 -3,0 l -34,57 c -0.79,0.93 -0.67,3.29 0,5 z"
       style="fill:none;stroke:#231f20;stroke-width:5.424;stroke-linecap:butt;stroke-linejoin:miter;stroke-miterlimit:3.8637;stroke-dasharray:none;stroke-opacity:1"
       transform="matrix(0.13333333,0,0,-0.13333333,0,262.92)" />
    <path
       id="path23"
       d="m 3.6919922,-0.93785156 c -0.421875,0.52734375 -0.5390625,0.6328125 -0.6679688,0.6328125 -0.058594,0 -0.082031,-0.046875 -0.082031,-0.140625 0,-0.046875 0,-0.046875 0.1523437,-0.62109374 l 0.6328125,-2.390625 H 3.1294922 c -0.4335938,1.1835937 -0.515625,1.3828125 -0.8789063,1.9570312 -0.4804687,0.75000004 -0.8789062,1.16015629 -1.125,1.16015629 -0.1054687,0 -0.17578121,-0.0820313 -0.17578121,-0.19921875 0,-0.0234375 0,-0.046875 0.0117188,-0.0703125 L 1.6880859,-3.5159766 1.6646484,-3.5276953 c -0.46875,0.1054687 -0.76171871,0.1523437 -1.19531246,0.2109375 v 0.1171875 c 0.31640625,0 0.31640625,0 0.3984375,0.046875 0.0351563,0.011719 0.0820313,0.082031 0.0820313,0.140625 0,0.070312 -0.046875,0.2695312 -0.1171875,0.5390625 l -0.29296875,1.1367187 c -0.15234375,0.58593754 -0.19921875,0.84375004 -0.19921875,0.98437504 0,0.29296875 0.140625,0.4453125 0.421875,0.4453125 0.56249996,0 0.99609376,-0.43359375 1.91015626,-1.98046874 -0.234375,0.8671875 -0.3632812,1.39453124 -0.3632812,1.57031249 0,0.2578125 0.1523437,0.38671875 0.3867187,0.38671875 0.375,0 0.5507813,-0.15234375 1.1015625,-0.9375 z M 6.3873047,2.9996484 H 8.6255859 V 2.8824609 h -0.140625 c -0.3867187,0 -0.5507812,-0.070312 -0.5507812,-0.2578125 0,-0.070312 0.023437,-0.1875 0.09375,-0.421875 0.023437,-0.046875 0.035156,-0.09375 0.058594,-0.1757812 l 1.1367188,-4.1484375 c 0.046875,-0.140625 0.046875,-0.1992188 0.046875,-0.234375 0,-0.035156 -0.011719,-0.058594 -0.035156,-0.058594 0,0 -0.2226562,0.046875 -0.65625,0.1289063 L 7.852149,-2.1331643 c -0.011719,0 -0.070312,0.011719 -0.1640625,0.023437 v 0.1171875 l 0.4570313,-0.011719 c 0.1875,-0.011719 0.3046875,0.09375 0.3046875,0.2460937 0,0.058594 -0.011719,0.1171875 -0.058594,0.28125 l -1.1015625,3.9375 c -0.09375,0.2929688 -0.2695312,0.375 -0.9023437,0.421875 z M -13.607813,-34.737656 c -0.421875,0.527344 -0.539062,0.632812 -0.667968,0.632812 -0.05859,0 -0.08203,-0.04687 -0.08203,-0.140625 0,-0.04687 0,-0.04687 0.152344,-0.621093 l 0.632813,-2.390625 h -0.597657 c -0.433593,1.183593 -0.515625,1.382812 -0.878906,1.957031 -0.480469,0.75 -0.878906,1.160156 -1.125,1.160156 -0.105469,0 -0.175781,-0.08203 -0.175781,-0.199219 0,-0.02344 0,-0.04687 0.01172,-0.07031 l 0.726562,-2.90625 -0.02344,-0.01172 c -0.46875,0.105469 -0.761719,0.152344 -1.195313,0.210938 v 0.117187 c 0.316406,0 0.316406,0 0.398438,0.04687 0.03516,0.01172 0.08203,0.08203 0.08203,0.140625 0,0.07031 -0.04687,0.269531 -0.117188,0.539063 l -0.292968,1.136718 c -0.152344,0.585938 -0.199219,0.84375 -0.199219,0.984375 0,0.292969 0.140625,0.445313 0.421875,0.445313 0.5625,0 0.996094,-0.433594 1.910156,-1.980469 -0.234375,0.867188 -0.363281,1.394531 -0.363281,1.570313 0,0.257812 0.152344,0.386718 0.386719,0.386718 0.375,0 0.550781,-0.152343 1.101562,-0.9375 z M -8.1,-31.913437 c -0.1875,0.398437 -0.3398438,0.492187 -0.7851563,0.503906 h -1.5234377 v -0.03516 l 1.5351565,-1.535157 c 0.9375,-0.9375 1.1953125,-1.347656 1.1953125,-1.875 0,-0.761718 -0.5742188,-1.359375 -1.3007813,-1.359375 -0.2929687,0 -0.5859375,0.07031 -0.8203125,0.210938 -0.4101562,0.222656 -0.6328122,0.492187 -0.8554692,1.078125 l 0.164063,0.04687 c 0.292969,-0.515625 0.6445312,-0.75 1.125,-0.75 0.5742187,0 0.9960937,0.421875 0.9960937,0.972656 0,0.175781 -0.023437,0.328125 -0.070312,0.433594 -0.1992187,0.433594 -0.5625,0.9375 -1.078125,1.488281 l -1.6875007,1.792969 v 0.140625 h 2.847657 l 0.3984375,-1.054688 z m 40.992187,30.97558544 c -0.421875,0.52734375 -0.539062,0.6328125 -0.667968,0.6328125 -0.05859,0 -0.08203,-0.046875 -0.08203,-0.140625 0,-0.046875 0,-0.046875 0.152344,-0.62109374 l 0.632813,-2.390625 h -0.597657 c -0.433593,1.1835937 -0.515625,1.3828125 -0.878906,1.9570312 -0.480469,0.75000004 -0.878906,1.16015629 -1.125,1.16015629 -0.105469,0 -0.175781,-0.0820313 -0.175781,-0.19921875 0,-0.0234375 0,-0.046875 0.01172,-0.0703125 l 0.726562,-2.90625004 -0.02344,-0.011719 c -0.46875,0.1054687 -0.761719,0.1523437 -1.195313,0.2109375 v 0.1171875 c 0.316406,0 0.316406,0 0.398438,0.046875 0.03516,0.011719 0.08203,0.082031 0.08203,0.140625 0,0.070312 -0.04687,0.2695312 -0.117188,0.5390625 l -0.292968,1.1367187 c -0.152344,0.58593754 -0.199219,0.84375004 -0.199219,0.98437504 0,0.29296875 0.140625,0.4453125 0.421875,0.4453125 0.5625,0 0.996094,-0.43359375 1.910156,-1.98046874 -0.234375,0.8671875 -0.363281,1.39453124 -0.363281,1.57031249 0,0.2578125 0.152344,0.38671875 0.386719,0.38671875 0.375,0 0.550781,-0.15234375 1.101562,-0.9375 z m 6.029297,2.00390626 h -0.75 l 0.960938,-3.4804688 h -0.328125 l -3.339844,3.4570313 -0.152344,0.5273437 h 2.097657 l -0.398438,1.4296875 h 0.632813 l 0.375,-1.40625 h 0.796875 z m -1.40625,0 h -1.699218 v -0.023437 l 2.4375,-2.5546875 h 0.03516 z M -13.707422,-66.536484 c -0.421875,0.527343 -0.539062,0.632812 -0.667969,0.632812 -0.05859,0 -0.08203,-0.04687 -0.08203,-0.140625 0,-0.04687 0,-0.04687 0.152344,-0.621094 l 0.632812,-2.390625 h -0.597656 c -0.433594,1.183594 -0.515625,1.382813 -0.878906,1.957032 -0.480469,0.75 -0.878906,1.160156 -1.125,1.160156 -0.105469,0 -0.175781,-0.08203 -0.175781,-0.199219 0,-0.02344 0,-0.04687 0.01172,-0.07031 l 0.726563,-2.90625 -0.02344,-0.01172 c -0.46875,0.105469 -0.761718,0.152344 -1.195312,0.210937 v 0.117188 c 0.316406,0 0.316406,0 0.398437,0.04687 0.03516,0.01172 0.08203,0.08203 0.08203,0.140625 0,0.07031 -0.04687,0.269531 -0.117188,0.539062 l -0.292969,1.136719 c -0.152343,0.585938 -0.199218,0.84375 -0.199218,0.984375 0,0.292969 0.140625,0.445313 0.421875,0.445313 0.5625,0 0.996093,-0.433594 1.910156,-1.980469 -0.234375,0.867187 -0.363281,1.394531 -0.363281,1.570312 0,0.257813 0.152343,0.386719 0.386718,0.386719 0.375,0 0.550782,-0.152344 1.101563,-0.9375 z m 4.2187501,-0.820313 h 1.8398438 l 0.1757812,-0.574219 h -2.0390625 l -0.8437496,1.746094 v 0.117188 c 0.7851559,0.175781 1.0429684,0.269531 1.3359371,0.503906 0.2578125,0.199219 0.421875,0.609375 0.421875,1.03125 0,0.867187 -0.6445312,1.652344 -1.3710937,1.652344 -0.1640624,0 -0.3046874,-0.05859 -0.5390624,-0.234375 -0.199219,-0.152344 -0.328125,-0.199219 -0.445313,-0.199219 -0.1875,0 -0.328125,0.128906 -0.328125,0.316406 0,0.28125 0.316407,0.457031 0.855469,0.457031 1.3125001,0 2.3789064,-1.03125 2.3789064,-2.296875 0,-0.503906 -0.1875,-0.925781 -0.5273438,-1.253906 -0.3046875,-0.28125 -0.5859375,-0.410156 -1.2304687,-0.5625 z M -52.007227,24.462539 c -0.421875,0.527344 -0.539062,0.632813 -0.667968,0.632813 -0.05859,0 -0.08203,-0.04687 -0.08203,-0.140625 0,-0.04687 0,-0.04687 0.152344,-0.621094 l 0.632813,-2.390625 h -0.597657 c -0.433593,1.183594 -0.515625,1.382812 -0.878906,1.957031 -0.480469,0.75 -0.878906,1.160156 -1.125,1.160156 -0.105469,0 -0.175781,-0.08203 -0.175781,-0.199218 0,-0.02344 0,-0.04687 0.01172,-0.07031 l 0.726562,-2.90625 -0.02344,-0.01172 c -0.46875,0.105469 -0.761719,0.152344 -1.195313,0.210938 v 0.117187 c 0.316406,0 0.316406,0 0.398438,0.04687 0.03516,0.01172 0.08203,0.08203 0.08203,0.140625 0,0.07031 -0.04687,0.269532 -0.117188,0.539063 l -0.292968,1.136719 c -0.152344,0.585937 -0.199219,0.84375 -0.199219,0.984375 0,0.292968 0.140625,0.445312 0.421875,0.445312 0.5625,0 0.996094,-0.433594 1.910156,-1.980469 -0.234375,0.867188 -0.363281,1.394532 -0.363281,1.570313 0,0.257812 0.152344,0.386719 0.386719,0.386719 0.375,0 0.550781,-0.152344 1.101562,-0.9375 z m 6.46875,-1.558594 c -1.066406,0.128907 -1.605468,0.328125 -2.296875,0.832032 -1.007812,0.75 -1.628906,1.886718 -1.628906,3.035156 0,1.019531 0.585938,1.6875 1.464844,1.6875 1.078125,0 1.992187,-1.019531 1.992187,-2.226563 0,-0.820312 -0.574218,-1.40625 -1.359375,-1.40625 -0.222656,0 -0.492187,0.05859 -0.703125,0.164063 l -0.03516,-0.01172 c 0.550781,-1.019531 1.640625,-1.828125 2.578125,-1.945312 z m -2.085937,2.203125 c 0.550781,0 0.902344,0.398438 0.902344,1.019532 0,0.539062 -0.1875,1.171875 -0.492188,1.59375 -0.234375,0.363281 -0.515625,0.527343 -0.855469,0.527343 -0.492187,0 -0.785156,-0.386718 -0.785156,-1.042968 0,-0.550782 0.164063,-1.21875 0.375,-1.570313 0.210938,-0.363281 0.480469,-0.527344 0.855469,-0.527344 z m 16.514648,-13.743164 c -0.421875,0.527344 -0.539062,0.632813 -0.667968,0.632813 -0.05859,0 -0.08203,-0.04687 -0.08203,-0.140625 0,-0.04687 0,-0.04687 0.152344,-0.621094 l 0.632813,-2.390625 h -0.597657 c -0.433593,1.183594 -0.515625,1.382813 -0.878906,1.957031 -0.480469,0.75 -0.878906,1.160157 -1.125,1.160157 -0.105469,0 -0.175781,-0.08203 -0.175781,-0.199219 0,-0.02344 0,-0.04687 0.01172,-0.07031 l 0.726562,-2.9062497 -0.02344,-0.011719 c -0.46875,0.1054688 -0.761719,0.1523438 -1.195313,0.2109375 v 0.1171875 c 0.316406,0 0.316406,0 0.398438,0.046875 0.03516,0.011719 0.08203,0.082031 0.08203,0.140625 0,0.070312 -0.04687,0.2695313 -0.117188,0.5390625 l -0.292968,1.1367192 c -0.152344,0.585937 -0.199219,0.84375 -0.199219,0.984375 0,0.292969 0.140625,0.445312 0.421875,0.445312 0.5625,0 0.996094,-0.433593 1.910156,-1.980468 -0.234375,0.867187 -0.363281,1.394531 -0.363281,1.570312 0,0.257813 0.152344,0.386719 0.386719,0.386719 0.375,0 0.550781,-0.152344 1.101562,-0.9375 z m 3.738282,-0.597656 c 0.269531,-0.375 0.550781,-0.539062 0.878906,-0.539062 0.433594,0 0.714844,0.292968 0.714844,0.726562 0,0.339844 -0.164063,0.621094 -0.515625,0.855469 -0.339844,0.234375 -0.679688,0.351562 -1.394532,0.480469 l 0.01172,0.117187 c 0.445313,0 0.527344,0.01172 0.726563,0.08203 0.492187,0.1875 0.75,0.621094 0.75,1.253907 0,0.28125 -0.05859,0.574218 -0.175782,0.761718 -0.1875,0.328125 -0.539062,0.550782 -0.867187,0.550782 -0.152344,0 -0.339844,-0.08203 -0.574219,-0.257813 -0.234375,-0.164062 -0.363281,-0.222656 -0.515625,-0.222656 -0.222656,0 -0.351562,0.105469 -0.351562,0.304687 0,0.304688 0.328125,0.480469 0.902343,0.480469 0.445313,0 0.867188,-0.105469 1.195313,-0.292969 0.621094,-0.375 1.03125,-1.042968 1.03125,-1.757812 0,-0.585938 -0.234375,-0.949219 -0.761719,-1.195313 v -0.02344 c 0.960938,-0.375 1.242188,-0.644531 1.242188,-1.183594 0,-0.585937 -0.480469,-1.0195312 -1.125,-1.0195312 -0.550782,0 -1.042969,0.3164062 -1.300782,0.8320312 z M 146.49082,-87.038437 c -0.42187,0.527343 -0.53906,0.632812 -0.66797,0.632812 -0.0586,0 -0.082,-0.04687 -0.082,-0.140625 0,-0.04687 0,-0.04687 0.15234,-0.621094 l 0.63282,-2.390625 h -0.59766 c -0.43359,1.183594 -0.51562,1.382813 -0.87891,1.957032 -0.48046,0.75 -0.8789,1.160156 -1.125,1.160156 -0.10546,0 -0.17578,-0.08203 -0.17578,-0.199219 0,-0.02344 0,-0.04687 0.0117,-0.07031 l 0.72656,-2.90625 -0.0234,-0.01172 c -0.46875,0.105469 -0.76172,0.152344 -1.19532,0.210937 v 0.117188 c 0.31641,0 0.31641,0 0.39844,0.04687 0.0352,0.01172 0.082,0.08203 0.082,0.140625 0,0.07031 -0.0469,0.269531 -0.11718,0.539062 l -0.29297,1.136719 c -0.15235,0.585938 -0.19922,0.84375 -0.19922,0.984375 0,0.292969 0.14062,0.445313 0.42187,0.445313 0.5625,0 0.9961,-0.433594 1.91016,-1.980469 -0.23438,0.867187 -0.36328,1.394531 -0.36328,1.570312 0,0.257813 0.15234,0.386719 0.38672,0.386719 0.375,0 0.55078,-0.152344 1.10156,-0.9375 z m 6.60938,-1.3125 -0.0469,-0.08203 h -3 l -0.65625,1.089844 0.11719,0.07031 c 0.36328,-0.445313 0.58594,-0.5625 1.0664,-0.574219 h 1.76954 l 0.0234,0.02344 -2.9414,4.78125 h 0.5625 z m -23.90918,-32.387693 c -0.42188,0.52734 -0.53907,0.63281 -0.66797,0.63281 -0.0586,0 -0.082,-0.0469 -0.082,-0.14063 0,-0.0469 0,-0.0469 0.15234,-0.62109 l 0.63281,-2.39062 h -0.59765 c -0.4336,1.18359 -0.51563,1.38281 -0.87891,1.95703 -0.48047,0.75 -0.87891,1.16015 -1.125,1.16015 -0.10547,0 -0.17578,-0.082 -0.17578,-0.19922 0,-0.0234 0,-0.0469 0.0117,-0.0703 l 0.72656,-2.90625 -0.0234,-0.0117 c -0.46875,0.10547 -0.76172,0.15235 -1.19531,0.21094 v 0.11719 c 0.31641,0 0.31641,0 0.39844,0.0469 0.0352,0.0117 0.082,0.082 0.082,0.14063 0,0.0703 -0.0469,0.26953 -0.11719,0.53906 l -0.29297,1.13672 c -0.15234,0.58594 -0.19922,0.84375 -0.19922,0.98437 0,0.29297 0.14063,0.44532 0.42188,0.44532 0.5625,0 0.99609,-0.4336 1.91015,-1.98047 -0.23437,0.86719 -0.36328,1.39453 -0.36328,1.57031 0,0.25781 0.15235,0.38672 0.38672,0.38672 0.375,0 0.55078,-0.15234 1.10156,-0.9375 z m 4.94531,0.8789 c 0.94922,-0.3164 1.3125,-0.65625 1.3125,-1.21875 0,-0.66797 -0.58594,-1.13672 -1.40625,-1.13672 -0.85547,0 -1.44141,0.49219 -1.44141,1.20704 0,0.43359 0.16406,0.73828 0.70313,1.32421 -1.00782,0.31641 -1.57032,0.89063 -1.57032,1.59375 0,0.21094 0.0703,0.45704 0.1875,0.65625 0.26954,0.45704 0.75,0.69141 1.40625,0.69141 0.9961,0 1.72266,-0.62109 1.72266,-1.44141 0,-0.53906 -0.23437,-0.97265 -0.91406,-1.67578 z m -0.65625,0.30469 c 0.8789,0.91406 0.97265,1.05469 0.97265,1.51172 0,0.64453 -0.45703,1.125 -1.08984,1.125 -0.63281,0 -1.07812,-0.46875 -1.07812,-1.125 0,-0.66797 0.43359,-1.21875 1.19531,-1.51172 z m 0.5039,-0.44531 c -0.62109,-0.58594 -0.75,-0.78516 -0.75,-1.125 0,-0.5625 0.29297,-0.90235 0.8086,-0.90235 0.51562,0 0.85547,0.375 0.85547,0.94922 0,0.50391 -0.21094,0.75 -0.91407,1.07813 z m 41.80664,32.961913 c -0.42187,0.527343 -0.53906,0.632812 -0.66796,0.632812 -0.0586,0 -0.082,-0.04687 -0.082,-0.140625 0,-0.04687 0,-0.04687 0.15235,-0.621094 l 0.63281,-2.390625 h -0.59766 c -0.43359,1.183594 -0.51562,1.382813 -0.8789,1.957032 -0.48047,0.75 -0.87891,1.160156 -1.125,1.160156 -0.10547,0 -0.17578,-0.08203 -0.17578,-0.199219 0,-0.02344 0,-0.04687 0.0117,-0.07031 l 0.72656,-2.90625 -0.0234,-0.01172 c -0.46875,0.105469 -0.76172,0.152344 -1.19531,0.210937 v 0.117188 c 0.3164,0 0.3164,0 0.39844,0.04687 0.0352,0.01172 0.082,0.08203 0.082,0.140625 0,0.07031 -0.0469,0.269531 -0.11719,0.539062 l -0.29297,1.136719 c -0.15234,0.585938 -0.19922,0.84375 -0.19922,0.984375 0,0.292969 0.14063,0.445313 0.42188,0.445313 0.5625,0 0.99609,-0.433594 1.91015,-1.980469 -0.23437,0.867187 -0.36328,1.394531 -0.36328,1.570312 0,0.257813 0.15235,0.386719 0.38672,0.386719 0.375,0 0.55078,-0.152344 1.10156,-0.9375 z m 2.69532,3.9375 h 2.23828 v -0.117188 h -0.14063 c -0.38672,0 -0.55078,-0.07031 -0.55078,-0.257812 0,-0.07031 0.0234,-0.1875 0.0937,-0.421875 0.0234,-0.04687 0.0352,-0.09375 0.0586,-0.175782 l 1.13671,-4.148437 c 0.0469,-0.140625 0.0469,-0.199219 0.0469,-0.234375 0,-0.03516 -0.0117,-0.05859 -0.0352,-0.05859 0,0 -0.22265,0.04687 -0.65625,0.128906 l -0.72656,0.152344 c -0.0117,0 -0.0703,0.01172 -0.16406,0.02344 v 0.117187 l 0.45703,-0.01172 c 0.1875,-0.01172 0.30469,0.09375 0.30469,0.246094 0,0.05859 -0.0117,0.117188 -0.0586,0.28125 l -1.10156,3.9375 c -0.0937,0.292969 -0.26953,0.375 -0.90234,0.421875 z m 6.3457,-5.414063 c -1.25391,0 -2.47266,1.828125 -2.47266,3.714844 0,1.054687 0.51563,1.757812 1.28907,1.757812 0.33984,0 0.67968,-0.117187 1.01953,-0.375 0.80859,-0.585937 1.40625,-1.921875 1.40625,-3.070312 0,-1.265625 -0.46875,-2.027344 -1.24219,-2.027344 z m -0.0469,0.222656 c 0.42187,0 0.65625,0.375 0.65625,1.007813 0,1.078125 -0.31641,2.402344 -0.77344,3.210937 -0.30469,0.527344 -0.63281,0.808594 -0.9961,0.808594 -0.42187,0 -0.67968,-0.398437 -0.67968,-1.089844 0,-0.855468 0.41015,-2.425781 0.82031,-3.175781 0.29297,-0.503906 0.59766,-0.761719 0.97266,-0.761719 z m -55.69336,-64.245116 c -0.42188,0.52734 -0.53907,0.63281 -0.66797,0.63281 -0.0586,0 -0.082,-0.0469 -0.082,-0.14062 0,-0.0469 0,-0.0469 0.15234,-0.6211 l 0.63281,-2.39062 h -0.59765 c -0.4336,1.18359 -0.51563,1.38281 -0.87891,1.95703 -0.48047,0.75 -0.87891,1.16016 -1.125,1.16016 -0.10547,0 -0.17578,-0.082 -0.17578,-0.19922 0,-0.0234 0,-0.0469 0.0117,-0.0703 l 0.72656,-2.90625 -0.0234,-0.0117 c -0.46875,0.10546 -0.76172,0.15234 -1.19531,0.21093 v 0.11719 c 0.31641,0 0.31641,0 0.39844,0.0469 0.0352,0.0117 0.082,0.082 0.082,0.14062 0,0.0703 -0.0469,0.26953 -0.11719,0.53906 l -0.29297,1.13672 c -0.15234,0.58594 -0.19922,0.84375 -0.19922,0.98438 0,0.29297 0.14063,0.44531 0.42188,0.44531 0.5625,0 0.99609,-0.43359 1.91015,-1.98047 -0.23437,0.86719 -0.36328,1.39453 -0.36328,1.57031 0,0.25782 0.15235,0.38672 0.38672,0.38672 0.375,0 0.55078,-0.15234 1.10156,-0.9375 z m 2.79492,3.9375 h 2.23828 v -0.11719 h -0.14063 c -0.38671,0 -0.55078,-0.0703 -0.55078,-0.25781 0,-0.0703 0.0234,-0.1875 0.0937,-0.42188 0.0234,-0.0469 0.0352,-0.0937 0.0586,-0.17578 l 1.13672,-4.14843 c 0.0469,-0.14063 0.0469,-0.19922 0.0469,-0.23438 0,-0.0352 -0.0117,-0.0586 -0.0352,-0.0586 0,0 -0.22265,0.0469 -0.65625,0.1289 l -0.72656,0.15235 c -0.0117,0 -0.0703,0.0117 -0.16406,0.0234 v 0.11719 l 0.45703,-0.0117 c 0.1875,-0.0117 0.30469,0.0937 0.30469,0.2461 0,0.0586 -0.0117,0.11718 -0.0586,0.28125 l -1.10156,3.9375 c -0.0937,0.29297 -0.26953,0.375 -0.90234,0.42187 z m 3.40137,0 h 2.23828 v -0.11719 h -0.14063 c -0.38672,0 -0.55078,-0.0703 -0.55078,-0.25781 0,-0.0703 0.0234,-0.1875 0.0937,-0.42188 0.0234,-0.0469 0.0352,-0.0937 0.0586,-0.17578 l 1.13672,-4.14843 c 0.0469,-0.14063 0.0469,-0.19922 0.0469,-0.23438 0,-0.0352 -0.0117,-0.0586 -0.0352,-0.0586 0,0 -0.22265,0.0469 -0.65625,0.1289 l -0.72656,0.15235 c -0.0117,0 -0.0703,0.0117 -0.16406,0.0234 v 0.11719 l 0.45703,-0.0117 c 0.1875,-0.0117 0.30469,0.0937 0.30469,0.2461 0,0.0586 -0.0117,0.11718 -0.0586,0.28125 l -1.10156,3.9375 c -0.0937,0.29297 -0.26953,0.375 -0.90234,0.42187 z m -42.896489,86.862304 c -0.421875,0.527344 -0.539063,0.632812 -0.667969,0.632812 -0.05859,0 -0.08203,-0.04687 -0.08203,-0.140625 0,-0.04687 0,-0.04687 0.152344,-0.621093 l 0.632812,-2.390625 h -0.597656 c -0.433594,1.183593 -0.515625,1.382812 -0.878906,1.957031 -0.480469,0.75 -0.878907,1.160156 -1.125,1.160156 -0.105469,0 -0.175782,-0.08203 -0.175782,-0.199219 0,-0.02344 0,-0.04687 0.01172,-0.07031 l 0.726563,-2.90625 -0.02344,-0.01172 c -0.46875,0.105469 -0.761719,0.152344 -1.195312,0.210938 v 0.117187 c 0.316406,0 0.316406,0 0.398437,0.04687 0.03516,0.01172 0.08203,0.08203 0.08203,0.140625 0,0.07031 -0.04687,0.269531 -0.117187,0.539063 l -0.292969,1.136718 c -0.152344,0.585938 -0.199219,0.84375 -0.199219,0.984375 0,0.292969 0.140625,0.445313 0.421875,0.445313 0.5625,0 0.996094,-0.433594 1.910157,-1.980469 -0.234375,0.867188 -0.363282,1.394531 -0.363282,1.570313 0,0.257812 0.152344,0.386718 0.386719,0.386718 0.375,0 0.550781,-0.152343 1.101563,-0.9375 z m 2.695312,3.9375 h 2.238282 v -0.117188 H 97.18418 c -0.386719,0 -0.550782,-0.07031 -0.550782,-0.257812 0,-0.07031 0.02344,-0.1875 0.09375,-0.421875 0.02344,-0.04687 0.03516,-0.09375 0.05859,-0.175781 l 1.136719,-4.148438 c 0.04687,-0.140625 0.04687,-0.199219 0.04687,-0.234375 0,-0.03516 -0.01172,-0.05859 -0.03516,-0.05859 0,0 -0.222657,0.04687 -0.65625,0.128907 l -0.726563,0.152343 c -0.01172,0 -0.07031,0.01172 -0.164062,0.02344 v 0.117187 l 0.457031,-0.01172 c 0.1875,-0.01172 0.304687,0.09375 0.304687,0.246093 0,0.05859 -0.01172,0.117188 -0.05859,0.28125 l -1.101563,3.9375 c -0.09375,0.292969 -0.269531,0.375 -0.902344,0.421875 z m 6.811527,-1.113281 c -0.1875,0.398437 -0.33985,0.492187 -0.78516,0.503906 h -1.523437 v -0.03516 l 1.535157,-1.535157 c 0.9375,-0.9375 1.19531,-1.347656 1.19531,-1.875 0,-0.761718 -0.57422,-1.359375 -1.30078,-1.359375 -0.29297,0 -0.58594,0.07031 -0.82031,0.210938 -0.410158,0.222656 -0.632814,0.492187 -0.855471,1.078125 l 0.164063,0.04687 c 0.292969,-0.515625 0.644528,-0.75 1.124998,-0.75 0.57422,0 0.9961,0.421875 0.9961,0.972656 0,0.175781 -0.0234,0.328125 -0.0703,0.433594 -0.19922,0.433594 -0.5625,0.9375 -1.07812,1.488281 l -1.687502,1.792969 v 0.140625 h 2.847652 l 0.39844,-1.054688 z m 11.39355,-15.624024 c -0.42187,0.527344 -0.53906,0.632813 -0.66797,0.632813 -0.0586,0 -0.082,-0.04687 -0.082,-0.140625 0,-0.04687 0,-0.04687 0.15235,-0.621094 l 0.63281,-2.390625 h -0.59766 c -0.43359,1.183594 -0.51562,1.382812 -0.8789,1.957031 -0.48047,0.75 -0.87891,1.160156 -1.125,1.160156 -0.10547,0 -0.17579,-0.08203 -0.17579,-0.199218 0,-0.02344 0,-0.04687 0.0117,-0.07031 l 0.72657,-2.90625 -0.0234,-0.01172 c -0.46875,0.105469 -0.76172,0.152344 -1.19531,0.210938 v 0.117187 c 0.3164,0 0.3164,0 0.39843,0.04687 0.0352,0.01172 0.082,0.08203 0.082,0.140625 0,0.07031 -0.0469,0.269532 -0.11718,0.539063 l -0.29297,1.136719 c -0.15235,0.585937 -0.19922,0.84375 -0.19922,0.984375 0,0.292968 0.14062,0.445312 0.42187,0.445312 0.5625,0 0.9961,-0.433594 1.91016,-1.980469 -0.23437,0.867188 -0.36328,1.394532 -0.36328,1.570313 0,0.257812 0.15234,0.386719 0.38672,0.386719 0.375,0 0.55078,-0.152344 1.10156,-0.9375 z m 2.4961,4.078125 c 1.07812,-0.1875 1.61718,-0.410156 2.27343,-0.925781 0.9375,-0.738281 1.47657,-1.804688 1.47657,-2.882813 0,-1.054687 -0.57422,-1.746093 -1.45313,-1.746093 -1.00781,0 -1.93359,1.03125 -1.93359,2.144531 0,0.84375 0.49218,1.441406 1.20703,1.441406 0.32812,0 0.59765,-0.105469 1.03125,-0.363281 l 0.0234,0.01172 c -0.12891,0.375 -0.52735,0.890625 -1.01954,1.335937 -0.58593,0.492188 -0.97265,0.703125 -1.60546,0.832031 z m 2.35546,-5.34375 c 0.50391,0 0.79688,0.398438 0.79688,1.054688 0,0.621093 -0.19922,1.371093 -0.44531,1.605468 -0.21094,0.210938 -0.53907,0.339844 -0.83203,0.339844 -0.51563,0 -0.8086,-0.398437 -0.8086,-1.113281 0,-0.585938 0.23438,-1.230469 0.57422,-1.582031 0.19922,-0.199219 0.44531,-0.304688 0.71484,-0.304688 z m 0,0"
       style="fill:#231f20;fill-opacity:1;fill-rule:nonzero;stroke:none"
       aria-label="u&#10;1&#10;u&#10;2&#10;u&#10;4&#10;u&#10;5&#10;u&#10;6&#10;u&#10;3&#10;u&#10;7&#10;u&#10;8&#10;u&#10;10&#10;u&#10;11&#10;u&#10;12&#10;u&#10;9"
       transform="matrix(1.3333333,0,0,1.3333333,78.3,219.02)" />
    <path
       id="path24"
       d="m 1779.25,1297.25 -384,-300"
       style="fill:none;stroke:#ffffff;stroke-width:28.346;stroke-linecap:round;stroke-linejoin:miter;stroke-miterlimit:3.8637;stroke-dasharray:none;stroke-opacity:1"
       transform="matrix(0.13333333,0,0,-0.13333333,0,262.92)" />
    <path
       id="path25"
       d="m 1796.25,1304.25 h 25 v -20 h -25 v 20"
       style="fill:#ffffff;fill-opacity:1;fill-rule:nonzero;stroke:none"
       transform="matrix(0.13333333,0,0,-0.13333333,0,262.92)" />
    <path
       id="path26"
       d="m 1768.25,1377.25 h 20 v -37 h -20 v 37"
       style="fill:#ffffff;fill-opacity:1;fill-rule:nonzero;stroke:none"
       transform="matrix(0.13333333,0,0,-0.13333333,0,262.92)" />
    <path
       id="path27"
       d="m 1779.25,1556.25 v -259"
       style="fill:none;stroke:#231f20;stroke-width:2.5;stroke-linecap:butt;stroke-linejoin:miter;stroke-miterlimit:3.8637;stroke-dasharray:none;stroke-opacity:1"
       transform="matrix(0.13333333,0,0,-0.13333333,0,262.92)" />
    <path
       id="path28"
       d="m 1779.25,1554.25 h -15 l 15,37 15,-37 h -15"
       style="fill:#231f20;fill-opacity:1;fill-rule:evenodd;stroke:none"
       transform="matrix(0.13333333,0,0,-0.13333333,0,262.92)" />
    <path
       id="path29"
       d="m 1779.25,1297.25 h 259"
       style="fill:none;stroke:#231f20;stroke-width:2.5;stroke-linecap:butt;stroke-linejoin:miter;stroke-miterlimit:3.8637;stroke-dasharray:none;stroke-opacity:1"
       transform="matrix(0.13333333,0,0,-0.13333333,0,262.92)" />
    <path
       id="path30"
       d="m 2036.25,1297.25 v 15 l 37,-15 -37,-15 v 15"
       style="fill:#231f20;fill-opacity:1;fill-rule:evenodd;stroke:none"
       transform="matrix(0.13333333,0,0,-0.13333333,0,262.92)" />
    <path
       id="path31"
       d="m 1777.25,1297.25 -134,-105"
       style="fill:none;stroke:#231f20;stroke-width:2.5;stroke-linecap:butt;stroke-linejoin:miter;stroke-miterlimit:3.8637;stroke-dasharray:none;stroke-opacity:1"
       transform="matrix(0.13333333,0,0,-0.13333333,0,262.92)" />
    <path
       id="path32"
       d="m 1645.25,1194.25 9,-12 -39,-12 21,35 9,-11"
       style="fill:#231f20;fill-opacity:1;fill-rule:evenodd;stroke:none"
       transform="matrix(0.13333333,0,0,-0.13333333,0,262.92)" />
    <path
       id="path33"
       d="m 1779.25,1875.25 -1,-46"
       style="fill:none;stroke:#231f20;stroke-width:2.251;stroke-linecap:butt;stroke-linejoin:miter;stroke-miterlimit:3.8637;stroke-dasharray:20, 20;stroke-dashoffset:0;stroke-opacity:1"
       transform="matrix(0.13333333,0,0,-0.13333333,0,262.92)" />
    <path
       id="path34"
       d="m 1779.25,1873.25 h -13 l 14,34 13,-34 h -14"
       style="fill:#231f20;fill-opacity:1;fill-rule:evenodd;stroke:none"
       transform="matrix(0.13333333,0,0,-0.13333333,0,262.92)" />
    <path
       id="path35"
       d="m 1779.25,1844.25 v -227"
       style="fill:none;stroke:#231f20;stroke-width:2.5;stroke-linecap:butt;stroke-linejoin:miter;stroke-miterlimit:3.8637;stroke-dasharray:20, 20;stroke-dashoffset:0;stroke-opacity:1"
       transform="matrix(0.13333333,0,0,-0.13333333,0,262.92)" />
    <path
       id="path36"
       d="m 1779.25,1842.25 h -15 l 15,37 15,-37 h -15"
       style="fill:#231f20;fill-opacity:1;fill-rule:evenodd;stroke:none"
       transform="matrix(0.13333333,0,0,-0.13333333,0,262.92)" />
    <path
       id="path37"
       d="m 2296.25,1296.25 55,1"
       style="fill:none;stroke:#231f20;stroke-width:2.251;stroke-linecap:butt;stroke-linejoin:miter;stroke-miterlimit:3.8637;stroke-dasharray:20, 20;stroke-dashoffset:0;stroke-opacity:1"
       transform="matrix(0.13333333,0,0,-0.13333333,0,262.92)" />
    <path
       id="path38"
       d="m 2349.25,1297.25 -1,13 34,-12 -33,-15 v 14"
       style="fill:#231f20;fill-opacity:1;fill-rule:evenodd;stroke:none"
       transform="matrix(0.13333333,0,0,-0.13333333,0,262.92)" />
    <path
       id="path39"
       d="m 2111.25,1296.25 h 211"
       style="fill:none;stroke:#231f20;stroke-width:2.5;stroke-linecap:butt;stroke-linejoin:miter;stroke-miterlimit:3.8637;stroke-dasharray:20, 20;stroke-dashoffset:0;stroke-opacity:1"
       transform="matrix(0.13333333,0,0,-0.13333333,0,262.92)" />
    <path
       id="path40"
       d="m 2319.25,1296.25 v 15 l 38,-15 -38,-15 v 15"
       style="fill:#231f20;fill-opacity:1;fill-rule:evenodd;stroke:none"
       transform="matrix(0.13333333,0,0,-0.13333333,0,262.92)" />
    <path
       id="path41"
       d="m 1452.25,1046.25 49,37"
       style="fill:none;stroke:#231f20;stroke-width:2.251;stroke-linecap:butt;stroke-linejoin:miter;stroke-miterlimit:3.8637;stroke-dasharray:20, 20;stroke-dashoffset:0;stroke-opacity:1"
       transform="matrix(0.13333333,0,0,-0.13333333,0,262.92)" />
    <path
       id="path42"
       d="m 1454.25,1047.25 8,-10 -35,-10 19,31 8,-11"
       style="fill:#231f20;fill-opacity:1;fill-rule:evenodd;stroke:none"
       transform="matrix(0.13333333,0,0,-0.13333333,0,262.92)" />
    <path
       id="path43"
       d="m 1476.25,1065.25 114,88"
       style="fill:none;stroke:#231f20;stroke-width:2.5;stroke-linecap:butt;stroke-linejoin:miter;stroke-miterlimit:3.8637;stroke-dasharray:20, 20;stroke-dashoffset:0;stroke-opacity:1"
       transform="matrix(0.13333333,0,0,-0.13333333,0,262.92)" />
    <path
       id="path44"
       d="m 1478.25,1067.25 9,-12 -39,-12 21,35 9,-11"
       style="fill:#231f20;fill-opacity:1;fill-rule:evenodd;stroke:none"
       transform="matrix(0.13333333,0,0,-0.13333333,0,262.92)" />
  </g>
</svg>
