<?xml version="1.0" encoding="UTF-8" standalone="no"?>
<!-- Created with Inkscape (http://www.inkscape.org/) -->

<svg
   version="1.1"
   id="svg1"
   width="321.32001"
   height="239.25333"
   viewBox="0 0 321.32001 239.25333"
   sodipodi:docname="beam2t.svg"
   inkscape:version="1.3 (0e150ed6c4, 2023-07-21)"
   xmlns:inkscape="http://www.inkscape.org/namespaces/inkscape"
   xmlns:sodipodi="http://sodipodi.sourceforge.net/DTD/sodipodi-0.dtd"
   xmlns="http://www.w3.org/2000/svg"
   xmlns:svg="http://www.w3.org/2000/svg">
  <defs
     id="defs1" />
  <sodipodi:namedview
     id="namedview1"
     pagecolor="#ffffff"
     bordercolor="#000000"
     borderopacity="0.25"
     inkscape:showpageshadow="2"
     inkscape:pageopacity="0.0"
     inkscape:pagecheckerboard="0"
     inkscape:deskcolor="#d1d1d1"
     inkscape:zoom="3.1096747"
     inkscape:cx="160.78852"
     inkscape:cy="119.62666"
     inkscape:window-width="1920"
     inkscape:window-height="974"
     inkscape:window-x="-11"
     inkscape:window-y="-11"
     inkscape:window-maximized="1"
     inkscape:current-layer="g1">
    <inkscape:page
       x="0"
       y="0"
       inkscape:label="1"
       id="page1"
       width="321.32001"
       height="239.25333"
       margin="0"
       bleed="0" />
  </sodipodi:namedview>
  <g
     id="g1"
     inkscape:groupmode="layer"
     inkscape:label="1">
    <path
       id="path1"
       d="M 7.6054687,-7.8392188 H 1.640625 V -7.64 c 0.75,0.070312 0.9257813,0.1640625 0.9257813,0.4921875 0,0.140625 -0.070312,0.5390625 -0.1289063,0.7617187 L 0.9609375,-1.0775 C 0.76171875,-0.3978125 0.65625,-0.31578125 -0.01171875,-0.186875 v 0.1875 H 6.0703125 l 0.75,-1.9453125 -0.1992188,-0.09375 C 6.0585937,-1.265 5.7421875,-0.9603125 5.2265625,-0.71421875 4.7929687,-0.515 3.9726563,-0.3978125 3.0585938,-0.3978125 2.390625,-0.3978125 2.109375,-0.515 2.109375,-0.80796875 c 0,-0.140625 0.1523438,-0.70312505 0.4335938,-1.74609375 L 2.9296875,-3.936875 c 0.1875,0.011719 0.375,0.023437 0.5625,0.023437 l 0.5507812,0.011719 c 0.3398438,0.011719 0.6210938,0.070312 0.7148438,0.140625 0.1054687,0.09375 0.1289062,0.1757813 0.1289062,0.4101563 0,0.2226562 -0.023437,0.3632812 -0.082031,0.6328125 l 0.234375,0.058594 0.8203125,-2.7890625 -0.2226563,-0.046875 C 5.1796875,-4.4759375 5.0625,-4.3939063 3.984375,-4.35875 c -0.140625,0 -0.5273437,0.011719 -0.9492187,0.023437 l 0.796875,-2.7890625 c 0.070312,-0.28125 0.1874999,-0.3164063 0.8789062,-0.3164063 1.875,0 2.296875,0.1523438 2.296875,0.8789063 0,0.1523437 -0.011719,0.3398437 -0.023437,0.5390625 l 0.2460937,0.023437 z M 7.3916016,1.5475 C 8.4111328,0.985 8.9501953,0.31703125 8.9501953,-0.36265625 c 0,-0.48046875 -0.2929687,-0.84375005 -0.6914062,-0.84375005 -0.3515625,0 -0.609375,0.23437505 -0.609375,0.5507813 0,0.22265625 0.070312,0.33984375 0.2929687,0.55078125 0.1875,0.1640625 0.2460938,0.2578125 0.2460938,0.38671875 0,0.31640625 -0.2695313,0.64453125 -0.9023438,1.0664062 z M 20.106445,-0.186875 c -0.691406,-0.0703125 -0.761718,-0.1640625 -0.914062,-1.03125 L 18.055664,-8.015 h -0.304687 l -3.480469,6 c -0.949219,1.59375 -1.066406,1.72265625 -1.546875,1.828125 v 0.1875 h 2.238281 v -0.1875 c -0.609375,-0.0703125 -0.703125,-0.12890625 -0.703125,-0.421875 0,-0.234375 0.03516,-0.33984375 0.234375,-0.75 l 0.691406,-1.3476563 h 2.636719 l 0.234375,1.5703125 c 0.01172,0.1054688 0.03516,0.21093755 0.03516,0.30468755 0,0.45703125 -0.175781,0.5625 -0.9375,0.64453125 v 0.1875 h 2.953125 z M 15.430664,-3.14 17.235352,-6.2689063 17.762695,-3.14 Z m 5.291016,4.6875 c 1.019531,-0.5625 1.558593,-1.23046875 1.558593,-1.91015625 0,-0.48046875 -0.292968,-0.84375005 -0.691406,-0.84375005 -0.351562,0 -0.609375,0.23437505 -0.609375,0.5507813 0,0.22265625 0.07031,0.33984375 0.292969,0.55078125 0.1875,0.1640625 0.246094,0.2578125 0.246094,0.38671875 0,0.31640625 -0.269532,0.64453125 -0.902344,1.0664062 z M 26.569336,6.25e-4 h 2.929687 v -0.1875 c -0.691406,-0.09375 -0.820312,-0.1640625 -0.820312,-0.4921875 0,-0.24609375 0.02344,-0.3632813 0.128906,-0.7617188 L 30.28418,-6.7610938 C 30.506836,-7.4525 30.588867,-7.5228125 31.268555,-7.64 V -7.8392188 H 28.303711 V -7.64 c 0.714844,0.09375 0.84375,0.1757812 0.84375,0.515625 0,0.1757812 -0.03516,0.421875 -0.128906,0.7382812 L 27.541992,-1.0775 c -0.222656,0.69140625 -0.304687,0.76171875 -0.972656,0.890625 z m 0,0"
       style="fill:#231f20;fill-opacity:1;fill-rule:nonzero;stroke:none"
       aria-label="E, A, I"
       transform="matrix(1.3333333,0,0,1.3333333,213.5,126.68667)" />
    <path
       id="path2"
       d="m 1583.25,885.25 c -34.96,-1.348 -100.99,6.949 -149,44 -36.4,27.723 -48.48,41.082 -71,93"
       style="fill:none;stroke:#231f20;stroke-width:2.5;stroke-linecap:butt;stroke-linejoin:miter;stroke-miterlimit:3.8637;stroke-dasharray:none;stroke-opacity:1"
       transform="matrix(0.13333333,0,0,-0.13333333,0,239.25333)" />
    <path
       id="path4"
       d="m 161.25,889.25 v -714"
       style="fill:none;stroke:#231f20;stroke-width:2.5;stroke-linecap:butt;stroke-linejoin:miter;stroke-miterlimit:3.8637;stroke-dasharray:none;stroke-opacity:1"
       transform="matrix(0.13333333,0,0,-0.13333333,0,239.25333)" />
    <path
       id="path5"
       d="m 161.25,886.25 h -15 l 15,38 15,-38 h -15"
       style="fill:#231f20;fill-opacity:1;fill-rule:evenodd;stroke:none"
       transform="matrix(0.13333333,0,0,-0.13333333,0,239.25333)" />
    <path
       id="path6"
       d="m 161.25,175.25 h 714"
       style="fill:none;stroke:#231f20;stroke-width:2.5;stroke-linecap:butt;stroke-linejoin:miter;stroke-miterlimit:3.8637;stroke-dasharray:none;stroke-opacity:1"
       transform="matrix(0.13333333,0,0,-0.13333333,0,239.25333)" />
    <path
       id="path7"
       d="m 872.25,175.25 v 15 l 38,-15 -38,-15 v 15"
       style="fill:#231f20;fill-opacity:1;fill-rule:evenodd;stroke:none"
       transform="matrix(0.13333333,0,0,-0.13333333,0,239.25333)" />
    <path
       id="path9"
       d="m 865.25,956.25 h 49"
       style="fill:none;stroke:#231f20;stroke-width:2.5;stroke-linecap:butt;stroke-linejoin:miter;stroke-miterlimit:3.8637;stroke-dasharray:none;stroke-opacity:1"
       transform="matrix(0.13333333,0,0,-0.13333333,0,239.25333)" />
    <path
       id="path10"
       d="m 585.25,664.25 277,166"
       style="fill:none;stroke:#231f20;stroke-width:2.5;stroke-linecap:butt;stroke-linejoin:miter;stroke-miterlimit:3.8637;stroke-dasharray:none;stroke-opacity:1"
       transform="matrix(0.13333333,0,0,-0.13333333,0,239.25333)" />
    <path
       id="path11"
       d="m 860.25,829.25 -8,13 40,6 -24,-32 -8,13"
       style="fill:#231f20;fill-opacity:1;fill-rule:evenodd;stroke:none"
       transform="matrix(0.13333333,0,0,-0.13333333,0,239.25333)" />
    <path
       id="path12"
       d="m 604.25,710.25 h 36 v -60 h -36 v 60"
       style="fill:#ffffff;fill-opacity:1;fill-rule:nonzero;stroke:none"
       transform="matrix(0.13333333,0,0,-0.13333333,0,239.25333)" />
    <path
       id="path13"
       d="m 694.25,758.25 h 42 v -44 h -42 v 44"
       style="fill:#ffffff;fill-opacity:1;fill-rule:nonzero;stroke:none"
       transform="matrix(0.13333333,0,0,-0.13333333,0,239.25333)" />
    <path
       id="path14"
       d="m 1596.25,976.25 h 659 v -199 h -659 v 199"
       style="fill:#ffffff;fill-opacity:1;fill-rule:nonzero;stroke:none"
       transform="matrix(0.13333333,0,0,-0.13333333,0,239.25333)" />
    <path
       id="path16"
       d="m 607.25,615.25 1414,850 37,-61 -1415,-851 z"
       style="fill:none;stroke:#231f20;stroke-width:5;stroke-linecap:butt;stroke-linejoin:miter;stroke-miterlimit:3.8637;stroke-dasharray:none;stroke-opacity:1"
       transform="matrix(0.13333333,0,0,-0.13333333,0,239.25333)" />
    <path
       id="path18"
       d="m 1863.25,1510.25 c 29.01,65.98 95.1,112.44 172,112 103.34,0.44 186.95,-79.54 187,-183"
       style="fill:none;stroke:#231f20;stroke-width:2.5;stroke-linecap:butt;stroke-linejoin:miter;stroke-miterlimit:3.8637;stroke-dasharray:none;stroke-opacity:1"
       transform="matrix(0.13333333,0,0,-0.13333333,0,239.25333)" />
    <path
       id="path19"
       d="m 1864.25,1512.25 14,-6 -28,-29 v 41 l 14,-6"
       style="fill:#231f20;fill-opacity:1;fill-rule:evenodd;stroke:none"
       transform="matrix(0.13333333,0,0,-0.13333333,0,239.25333)" />
    <path
       id="path20"
       d="m 2090.25,1438.25 h 253"
       style="fill:none;stroke:#ffffff;stroke-width:40;stroke-linecap:round;stroke-linejoin:miter;stroke-miterlimit:3.8637;stroke-dasharray:none;stroke-opacity:1"
       transform="matrix(0.13333333,0,0,-0.13333333,0,239.25333)" />
    <path
       id="path21"
       d="m 2042.25,1482.25 v 253"
       style="fill:none;stroke:#ffffff;stroke-width:40;stroke-linecap:round;stroke-linejoin:miter;stroke-miterlimit:3.8637;stroke-dasharray:none;stroke-opacity:1"
       transform="matrix(0.13333333,0,0,-0.13333333,0,239.25333)" />
    <path
       id="path22"
       d="m 2042.25,1696.25 v -260"
       style="fill:none;stroke:#231f20;stroke-width:2.5;stroke-linecap:butt;stroke-linejoin:miter;stroke-miterlimit:3.8637;stroke-dasharray:none;stroke-opacity:1"
       transform="matrix(0.13333333,0,0,-0.13333333,0,239.25333)" />
    <path
       id="path23"
       d="m 2042.25,1693.25 h -15 l 15,38 15,-38 h -15"
       style="fill:#231f20;fill-opacity:1;fill-rule:evenodd;stroke:none"
       transform="matrix(0.13333333,0,0,-0.13333333,0,239.25333)" />
    <path
       id="path24"
       d="m 2042.25,1436.25 h 259"
       style="fill:none;stroke:#231f20;stroke-width:2.5;stroke-linecap:butt;stroke-linejoin:miter;stroke-miterlimit:3.8637;stroke-dasharray:none;stroke-opacity:1"
       transform="matrix(0.13333333,0,0,-0.13333333,0,239.25333)" />
    <path
       id="path25"
       d="m 2299.25,1436.25 v 15 l 37,-15 -37,-15 v 15"
       style="fill:#231f20;fill-opacity:1;fill-rule:evenodd;stroke:none"
       transform="matrix(0.13333333,0,0,-0.13333333,0,239.25333)" />
    <path
       id="path26"
       d="m 446.25,656.25 c 29.133,66.328 95.223,112.789 172,113 103.465,-0.211 187.078,-80.184 187,-183"
       style="fill:none;stroke:#231f20;stroke-width:2.5;stroke-linecap:butt;stroke-linejoin:miter;stroke-miterlimit:3.8637;stroke-dasharray:none;stroke-opacity:1"
       transform="matrix(0.13333333,0,0,-0.13333333,0,239.25333)" />
    <path
       id="path27"
       d="m 447.25,658.25 14,-6 -28,-28 1,40 13,-6"
       style="fill:#231f20;fill-opacity:1;fill-rule:evenodd;stroke:none"
       transform="matrix(0.13333333,0,0,-0.13333333,0,239.25333)" />
    <path
       id="path28"
       d="m 673.25,584.25 h 254"
       style="fill:none;stroke:#ffffff;stroke-width:40;stroke-linecap:round;stroke-linejoin:miter;stroke-miterlimit:3.8637;stroke-dasharray:none;stroke-opacity:1"
       transform="matrix(0.13333333,0,0,-0.13333333,0,239.25333)" />
    <path
       id="path29"
       d="m 625.25,628.25 v 254"
       style="fill:none;stroke:#ffffff;stroke-width:40;stroke-linecap:round;stroke-linejoin:miter;stroke-miterlimit:3.8637;stroke-dasharray:none;stroke-opacity:1"
       transform="matrix(0.13333333,0,0,-0.13333333,0,239.25333)" />
    <path
       id="path30"
       d="m 625.25,842.25 v -259"
       style="fill:none;stroke:#231f20;stroke-width:2.5;stroke-linecap:butt;stroke-linejoin:miter;stroke-miterlimit:3.8637;stroke-dasharray:none;stroke-opacity:1"
       transform="matrix(0.13333333,0,0,-0.13333333,0,239.25333)" />
    <path
       id="path31"
       d="m 625.25,840.25 h -15 l 15,37 15,-37 h -15"
       style="fill:#231f20;fill-opacity:1;fill-rule:evenodd;stroke:none"
       transform="matrix(0.13333333,0,0,-0.13333333,0,239.25333)" />
    <path
       id="path32"
       d="m 625.25,583.25 h 260"
       style="fill:none;stroke:#231f20;stroke-width:2.5;stroke-linecap:butt;stroke-linejoin:miter;stroke-miterlimit:3.8637;stroke-dasharray:none;stroke-opacity:1"
       transform="matrix(0.13333333,0,0,-0.13333333,0,239.25333)" />
    <path
       id="path33"
       d="m 882.25,583.25 v 15 l 38,-15 -38,-15 v 15"
       style="fill:#231f20;fill-opacity:1;fill-rule:evenodd;stroke:none"
       transform="matrix(0.13333333,0,0,-0.13333333,0,239.25333)" />
    <text
       xml:space="preserve"
       style="font-style:italic;font-variant:normal;font-weight:normal;font-stretch:normal;font-size:16px;font-family:'Times New Roman';-inkscape-font-specification:'Times New Roman, Italic';font-variant-ligatures:normal;font-variant-caps:normal;font-variant-numeric:normal;font-variant-east-asian:normal;fill:#000000"
       x="74.692413"
       y="180.34813"
       id="text5"><tspan
         sodipodi:role="line"
         id="tspan5"
         x="74.692413"
         y="180.34813"><tspan
   style="font-style:normal;font-variant:normal;font-weight:normal;font-stretch:normal;font-size:16px;font-family:'Times New Roman';-inkscape-font-specification:'Times New Roman, Normal';font-variant-ligatures:normal;font-variant-caps:normal;font-variant-numeric:normal;font-variant-east-asian:normal"
   id="tspan6">(</tspan>x<tspan
   style="font-style:normal;font-variant:normal;font-weight:normal;font-stretch:normal;font-size:10.4px;font-family:'Times New Roman';-inkscape-font-specification:'Times New Roman, Normal';font-variant-ligatures:normal;font-variant-caps:normal;font-variant-numeric:normal;font-variant-east-asian:normal;baseline-shift:sub"
   id="tspan8">1 </tspan>, y<tspan
   style="font-style:normal;font-variant:normal;font-weight:normal;font-stretch:normal;font-size:10.4px;font-family:'Times New Roman';-inkscape-font-specification:'Times New Roman, Normal';font-variant-ligatures:normal;font-variant-caps:normal;font-variant-numeric:normal;font-variant-east-asian:normal;baseline-shift:sub"
   id="tspan9">1</tspan><tspan
   style="font-style:normal;font-variant:normal;font-weight:normal;font-stretch:normal;font-size:16px;font-family:'Times New Roman';-inkscape-font-specification:'Times New Roman, Normal';font-variant-ligatures:normal;font-variant-caps:normal;font-variant-numeric:normal;font-variant-east-asian:normal"
   id="tspan7">)</tspan></tspan></text>
    <text
       xml:space="preserve"
       style="font-style:italic;font-variant:normal;font-weight:normal;font-stretch:normal;font-size:16px;font-family:'Times New Roman';-inkscape-font-specification:'Times New Roman, Italic';font-variant-ligatures:normal;font-variant-caps:normal;font-variant-numeric:normal;font-variant-east-asian:normal;fill:#000000"
       x="270.42642"
       y="70.020203"
       id="text5-8"><tspan
         sodipodi:role="line"
         id="tspan5-2"
         x="270.42642"
         y="70.020203"><tspan
   style="font-style:normal;font-variant:normal;font-weight:normal;font-stretch:normal;font-size:16px;font-family:'Times New Roman';-inkscape-font-specification:'Times New Roman, Normal';font-variant-ligatures:normal;font-variant-caps:normal;font-variant-numeric:normal;font-variant-east-asian:normal"
   id="tspan6-5">(</tspan>x<tspan
   style="font-style:normal;font-variant:normal;font-weight:normal;font-stretch:normal;font-size:10.4px;font-family:'Times New Roman';-inkscape-font-specification:'Times New Roman, Normal';font-variant-ligatures:normal;font-variant-caps:normal;font-variant-numeric:normal;font-variant-east-asian:normal;baseline-shift:sub"
   id="tspan8-0">2 </tspan>, y<tspan
   style="font-style:normal;font-variant:normal;font-weight:normal;font-stretch:normal;font-size:10.4px;font-family:'Times New Roman';-inkscape-font-specification:'Times New Roman, Normal';font-variant-ligatures:normal;font-variant-caps:normal;font-variant-numeric:normal;font-variant-east-asian:normal;baseline-shift:sub"
   id="tspan9-5">2</tspan><tspan
   style="font-style:normal;font-variant:normal;font-weight:normal;font-stretch:normal;font-size:16px;font-family:'Times New Roman';-inkscape-font-specification:'Times New Roman, Normal';font-variant-ligatures:normal;font-variant-caps:normal;font-variant-numeric:normal;font-variant-east-asian:normal"
   id="tspan7-2">)</tspan></tspan></text>
    <text
       xml:space="preserve"
       style="font-style:italic;font-variant:normal;font-weight:normal;font-stretch:normal;font-size:16px;font-family:'Times New Roman';-inkscape-font-specification:'Times New Roman, Italic';font-variant-ligatures:normal;font-variant-caps:normal;font-variant-numeric:normal;font-variant-east-asian:normal;fill:#000000"
       x="114.86439"
       y="121.63018"
       id="text3-8"><tspan
         sodipodi:role="line"
         id="tspan3-0"
         x="114.86439"
         y="121.63018">x</tspan></text>
    <text
       xml:space="preserve"
       style="font-style:italic;font-variant:normal;font-weight:normal;font-stretch:normal;font-size:12px;font-family:'Times New Roman';-inkscape-font-specification:'Times New Roman, Italic';font-variant-ligatures:normal;font-variant-caps:normal;font-variant-numeric:normal;font-variant-east-asian:normal;fill:#000000"
       x="215.50891"
       y="127.99783"
       id="text2"><tspan
         sodipodi:role="line"
         id="tspan2"
         x="215.50891"
         y="127.99783"
         style="font-style:italic;font-variant:normal;font-weight:normal;font-stretch:normal;font-size:16px;font-family:'Times New Roman';-inkscape-font-specification:'Times New Roman, Italic';font-variant-ligatures:normal;font-variant-caps:normal;font-variant-numeric:normal;font-variant-east-asian:normal">E, G, A, I, k<tspan
   style="font-size:65%;baseline-shift:sub"
   id="tspan1">s</tspan></tspan></text>
    <text
       xml:space="preserve"
       style="font-style:italic;font-variant:normal;font-weight:normal;font-stretch:normal;font-size:16px;font-family:'Times New Roman';-inkscape-font-specification:'Times New Roman, Italic';font-variant-ligatures:normal;font-variant-caps:normal;font-variant-numeric:normal;font-variant-east-asian:normal;fill:#000000"
       x="112.24483"
       y="232.06401"
       id="text3"><tspan
         sodipodi:role="line"
         id="tspan3"
         x="112.24483"
         y="232.06401">x</tspan></text>
    <text
       xml:space="preserve"
       style="font-style:italic;font-variant:normal;font-weight:normal;font-stretch:normal;font-size:16px;font-family:'Times New Roman';-inkscape-font-specification:'Times New Roman, Italic';font-variant-ligatures:normal;font-variant-caps:normal;font-variant-numeric:normal;font-variant-east-asian:normal;fill:#000000"
       x="5.5322895"
       y="124.68451"
       id="text4"><tspan
         sodipodi:role="line"
         id="tspan4"
         x="5.5322895"
         y="124.68451">y</tspan></text>
    <text
       xml:space="preserve"
       style="font-style:italic;font-variant:normal;font-weight:normal;font-stretch:normal;font-size:16px;font-family:'Times New Roman';-inkscape-font-specification:'Times New Roman, Italic';font-variant-ligatures:normal;font-variant-caps:normal;font-variant-numeric:normal;font-variant-east-asian:normal;fill:#000000"
       x="119.09972"
       y="156.17662"
       id="text5-1"><tspan
         sodipodi:role="line"
         id="tspan5-25"
         x="119.09972"
         y="156.17662">u<tspan
   style="font-style:normal;font-variant:normal;font-weight:normal;font-stretch:normal;font-size:10.4px;font-family:'Times New Roman';-inkscape-font-specification:'Times New Roman, Normal';font-variant-ligatures:normal;font-variant-caps:normal;font-variant-numeric:normal;font-variant-east-asian:normal;baseline-shift:sub"
   id="tspan9-1">1</tspan><tspan
   style="font-style:normal;font-variant:normal;font-weight:normal;font-stretch:normal;font-size:16px;font-family:'Times New Roman';-inkscape-font-specification:'Times New Roman, Normal';font-variant-ligatures:normal;font-variant-caps:normal;font-variant-numeric:normal;font-variant-east-asian:normal"
   id="tspan7-9" /></tspan></text>
    <text
       xml:space="preserve"
       style="font-style:italic;font-variant:normal;font-weight:normal;font-stretch:normal;font-size:16px;font-family:'Times New Roman';-inkscape-font-specification:'Times New Roman, Italic';font-variant-ligatures:normal;font-variant-caps:normal;font-variant-numeric:normal;font-variant-east-asian:normal;fill:#000000"
       x="305.43103"
       y="41.063431"
       id="text5-1-6"><tspan
         sodipodi:role="line"
         id="tspan5-25-0"
         x="305.43103"
         y="41.063431">u<tspan
   style="font-style:normal;font-variant:normal;font-weight:normal;font-stretch:normal;font-size:10.4px;font-family:'Times New Roman';-inkscape-font-specification:'Times New Roman, Normal';font-variant-ligatures:normal;font-variant-caps:normal;font-variant-numeric:normal;font-variant-east-asian:normal;baseline-shift:sub"
   id="tspan9-1-9">4</tspan><tspan
   style="font-style:normal;font-variant:normal;font-weight:normal;font-stretch:normal;font-size:16px;font-family:'Times New Roman';-inkscape-font-specification:'Times New Roman, Normal';font-variant-ligatures:normal;font-variant-caps:normal;font-variant-numeric:normal;font-variant-east-asian:normal"
   id="tspan7-9-8" /></tspan></text>
    <text
       xml:space="preserve"
       style="font-style:italic;font-variant:normal;font-weight:normal;font-stretch:normal;font-size:16px;font-family:'Times New Roman';-inkscape-font-specification:'Times New Roman, Italic';font-variant-ligatures:normal;font-variant-caps:normal;font-variant-numeric:normal;font-variant-east-asian:normal;fill:#000000"
       x="277.30786"
       y="12.427157"
       id="text5-1-5"><tspan
         sodipodi:role="line"
         id="tspan5-25-3"
         x="277.30786"
         y="12.427157">u<tspan
   style="font-style:normal;font-variant:normal;font-weight:normal;font-stretch:normal;font-size:10.4px;font-family:'Times New Roman';-inkscape-font-specification:'Times New Roman, Normal';font-variant-ligatures:normal;font-variant-caps:normal;font-variant-numeric:normal;font-variant-east-asian:normal;baseline-shift:sub"
   id="tspan9-1-2">5</tspan><tspan
   style="font-style:normal;font-variant:normal;font-weight:normal;font-stretch:normal;font-size:16px;font-family:'Times New Roman';-inkscape-font-specification:'Times New Roman, Normal';font-variant-ligatures:normal;font-variant-caps:normal;font-variant-numeric:normal;font-variant-east-asian:normal"
   id="tspan7-9-6" /></tspan></text>
    <text
       xml:space="preserve"
       style="font-style:italic;font-variant:normal;font-weight:normal;font-stretch:normal;font-size:16px;font-family:'Times New Roman';-inkscape-font-specification:'Times New Roman, Italic';font-variant-ligatures:normal;font-variant-caps:normal;font-variant-numeric:normal;font-variant-east-asian:normal;fill:#000000"
       x="87.919342"
       y="125.47233"
       id="text5-1-1"><tspan
         sodipodi:role="line"
         id="tspan5-25-01"
         x="87.919342"
         y="125.47233">u<tspan
   style="font-style:normal;font-variant:normal;font-weight:normal;font-stretch:normal;font-size:10.4px;font-family:'Times New Roman';-inkscape-font-specification:'Times New Roman, Normal';font-variant-ligatures:normal;font-variant-caps:normal;font-variant-numeric:normal;font-variant-east-asian:normal;baseline-shift:sub"
   id="tspan9-1-99">2</tspan><tspan
   style="font-style:normal;font-variant:normal;font-weight:normal;font-stretch:normal;font-size:16px;font-family:'Times New Roman';-inkscape-font-specification:'Times New Roman, Normal';font-variant-ligatures:normal;font-variant-caps:normal;font-variant-numeric:normal;font-variant-east-asian:normal"
   id="tspan7-9-87" /></tspan></text>
    <text
       xml:space="preserve"
       style="font-style:italic;font-variant:normal;font-weight:normal;font-stretch:normal;font-size:16px;font-family:'Times New Roman';-inkscape-font-specification:'Times New Roman, Italic';font-variant-ligatures:normal;font-variant-caps:normal;font-variant-numeric:normal;font-variant-east-asian:normal;fill:#000000"
       x="62.701424"
       y="159.55174"
       id="text5-1-1-1"><tspan
         sodipodi:role="line"
         id="tspan5-25-01-4"
         x="62.701424"
         y="159.55174">u<tspan
   style="font-style:normal;font-variant:normal;font-weight:normal;font-stretch:normal;font-size:10.4px;font-family:'Times New Roman';-inkscape-font-specification:'Times New Roman, Normal';font-variant-ligatures:normal;font-variant-caps:normal;font-variant-numeric:normal;font-variant-east-asian:normal;baseline-shift:sub"
   id="tspan9-1-99-3">3</tspan><tspan
   style="font-style:normal;font-variant:normal;font-weight:normal;font-stretch:normal;font-size:16px;font-family:'Times New Roman';-inkscape-font-specification:'Times New Roman, Normal';font-variant-ligatures:normal;font-variant-caps:normal;font-variant-numeric:normal;font-variant-east-asian:normal"
   id="tspan7-9-87-0" /></tspan></text>
    <text
       xml:space="preserve"
       style="font-style:italic;font-variant:normal;font-weight:normal;font-stretch:normal;font-size:16px;font-family:'Times New Roman';-inkscape-font-specification:'Times New Roman, Italic';font-variant-ligatures:normal;font-variant-caps:normal;font-variant-numeric:normal;font-variant-east-asian:normal;fill:#000000"
       x="252.6144"
       y="42.360779"
       id="text5-1-1-0"><tspan
         sodipodi:role="line"
         id="tspan5-25-01-6"
         x="252.6144"
         y="42.360779">u<tspan
   style="font-style:normal;font-variant:normal;font-weight:normal;font-stretch:normal;font-size:10.4px;font-family:'Times New Roman';-inkscape-font-specification:'Times New Roman, Normal';font-variant-ligatures:normal;font-variant-caps:normal;font-variant-numeric:normal;font-variant-east-asian:normal;baseline-shift:sub"
   id="tspan9-1-99-4">6</tspan><tspan
   style="font-style:normal;font-variant:normal;font-weight:normal;font-stretch:normal;font-size:16px;font-family:'Times New Roman';-inkscape-font-specification:'Times New Roman, Normal';font-variant-ligatures:normal;font-variant-caps:normal;font-variant-numeric:normal;font-variant-east-asian:normal"
   id="tspan7-9-87-3" /></tspan></text>
  </g>
</svg>
