<?xml version="1.0" encoding="UTF-8" standalone="no"?>
<!-- Created with Inkscape (http://www.inkscape.org/) -->

<svg
   version="1.1"
   id="svg1"
   width="340.54666"
   height="237.60001"
   viewBox="0 0 340.54666 237.60001"
   sodipodi:docname="BEAM2S_x.EPS"
   xmlns:inkscape="http://www.inkscape.org/namespaces/inkscape"
   xmlns:sodipodi="http://sodipodi.sourceforge.net/DTD/sodipodi-0.dtd"
   xmlns="http://www.w3.org/2000/svg"
   xmlns:svg="http://www.w3.org/2000/svg">
  <defs
     id="defs1" />
  <sodipodi:namedview
     id="namedview1"
     pagecolor="#ffffff"
     bordercolor="#000000"
     borderopacity="0.25"
     inkscape:showpageshadow="2"
     inkscape:pageopacity="0.0"
     inkscape:pagecheckerboard="0"
     inkscape:deskcolor="#d1d1d1">
    <inkscape:page
       x="0"
       y="0"
       inkscape:label="1"
       id="page1"
       width="340.54666"
       height="237.60001"
       margin="0"
       bleed="0" />
  </sodipodi:namedview>
  <g
     id="g1"
     inkscape:groupmode="layer"
     inkscape:label="1">
    <path
       id="path1"
       d="m 5.8248047,-5.2257812 h -1.59375 v 0.1289062 c 0.4570312,0.035156 0.5507812,0.1171875 0.5507812,0.4101563 0,0.09375 -0.011719,0.1757812 -0.070312,0.3515625 0,0.023437 -0.011719,0.058594 -0.011719,0.058594 L 3.8794922,-1.2296875 2.2154297,-5.2257812 H 0.92636719 V -5.096875 C 1.3013672,-5.061719 1.4654297,-4.95625 1.6177734,-4.6515625 l -0.94921871,3.3398438 c -0.3046875,1.0195312 -0.375,1.12499995 -0.83203125,1.1835937 V 7.8125e-4 H 1.4302734 V -0.128125 c -0.421875,-0.0351563 -0.56249996,-0.1171875 -0.56249996,-0.33984375 0,-0.10546875 0.0234375,-0.26953125 0.0703125,-0.43359375 l 0.91406246,-3.375 1.8398438,4.39453125 h 0.140625 L 4.9927734,-3.9015625 C 5.2857422,-4.9445312 5.3208984,-4.9914062 5.8248047,-5.096875 Z M 8.3853516,3.0007813 H 10.623633 V 2.8835938 h -0.140625 c -0.386719,0 -0.5507814,-0.070312 -0.5507814,-0.2578125 0,-0.070312 0.023437,-0.1875 0.09375,-0.421875 0.02344,-0.046875 0.03516,-0.09375 0.05859,-0.1757813 l 1.136719,-4.1484375 c 0.04687,-0.140625 0.04687,-0.1992187 0.04687,-0.234375 0,-0.035156 -0.01172,-0.058594 -0.03516,-0.058594 0,0 -0.222656,0.046875 -0.65625,0.1289062 l -0.7265631,0.1523438 c -0.011719,0 -0.070312,0.011719 -0.1640625,0.023437 v 0.1171875 l 0.4570316,-0.011719 c 0.1875,-0.011719 0.304688,0.09375 0.304688,0.2460938 0,0.058594 -0.01172,0.1171875 -0.05859,0.28125 l -1.1015631,3.9375 c -0.09375,0.2929687 -0.2695312,0.375 -0.9023437,0.421875 z M 28.483008,-50.325391 H 27.14707 l -2.683593,3.949219 -0.445313,-3.949219 h -1.441406 v 0.128907 c 0.398437,0.02344 0.585937,0.105468 0.585937,0.292968 0,0.07031 -0.03516,0.1875 -0.08203,0.328125 -0.01172,0.03516 -0.03516,0.117188 -0.07031,0.246094 l -0.02344,0.08203 -0.84375,2.976563 c -0.257812,0.832031 -0.375,0.996094 -0.785156,1.042969 v 0.128906 h 1.582031 v -0.128906 c -0.410156,-0.03516 -0.574219,-0.128907 -0.574219,-0.351563 0,-0.08203 0.03516,-0.28125 0.08203,-0.421875 l 0.9375,-3.46875 0.492187,4.371094 h 0.128906 l 3.023438,-4.488281 -1.03125,3.761718 c -0.128906,0.421875 -0.292969,0.539063 -0.808594,0.597657 v 0.128906 h 2.179688 v -0.128906 c -0.539063,-0.04687 -0.609375,-0.09375 -0.609375,-0.339844 0,-0.140625 0.01172,-0.246094 0.08203,-0.492188 l 0.984375,-3.550781 c 0.152344,-0.480469 0.1875,-0.515625 0.65625,-0.585937 z m 3.404297,8.226563 h 2.238281 v -0.117188 h -0.140625 c -0.386719,0 -0.550781,-0.07031 -0.550781,-0.257812 0,-0.07031 0.02344,-0.1875 0.09375,-0.421875 0.02344,-0.04687 0.03516,-0.09375 0.05859,-0.175781 l 1.136719,-4.148438 c 0.04687,-0.140625 0.04687,-0.199219 0.04687,-0.234375 0,-0.03516 -0.01172,-0.05859 -0.03516,-0.05859 0,0 -0.222656,0.04687 -0.65625,0.128907 l -0.726563,0.152343 c -0.01172,0 -0.07031,0.01172 -0.164062,0.02344 v 0.117187 l 0.457031,-0.01172 c 0.1875,-0.01172 0.304688,0.09375 0.304688,0.246093 0,0.05859 -0.01172,0.117188 -0.05859,0.28125 l -1.101563,3.9375 c -0.09375,0.292969 -0.269531,0.375 -0.902343,0.421875 z m 0,0"
       style="fill:#231f20;fill-opacity:1;fill-rule:nonzero;stroke:none"
       aria-label="N&#10;1&#10;M&#10;1"
       transform="matrix(1.3333333,0,0,1.3333333,44.3,200.23333)" />
    <path
       id="path2"
       d="m 607.25,615.25 1414,850 37,-61 -1415,-851 z"
       style="fill:none;stroke:#231f20;stroke-width:5;stroke-linecap:butt;stroke-linejoin:miter;stroke-miterlimit:3.8637;stroke-dasharray:none;stroke-opacity:1"
       transform="matrix(0.13333333,0,0,-0.13333333,0,237.6)" />
    <path
       id="path3"
       d="m 4.8279297,-1.3359375 c -0.1054688,0.1171875 -0.1640625,0.1875 -0.2695313,0.328125 -0.2695312,0.36328125 -0.421875,0.48046875 -0.5625,0.48046875 -0.1640625,0 -0.28125,-0.15234375 -0.3632812,-0.49218745 -0.035156,-0.1289063 -0.035156,-0.1523438 -0.046875,-0.1875 -0.2929688,-1.2304688 -0.4335938,-1.78125 -0.4335938,-1.9570313 0.5390625,-0.9375 0.9609375,-1.453125 1.1835938,-1.453125 0.070312,0 0.1757812,0.035156 0.28125,0.09375 0.1523437,0.082031 0.234375,0.1054688 0.3398437,0.1054688 0.234375,0 0.4101563,-0.1757813 0.4101563,-0.4335938 0,-0.2578125 -0.2109375,-0.4453125 -0.4921875,-0.4453125 -0.5273438,0 -0.9726563,0.4335938 -1.8164063,1.7226563 l -0.1289062,-0.65625 C 2.7654297,-5.0507812 2.6248047,-5.296875 2.3083984,-5.296875 c -0.28125,0 -0.6679687,0.1054688 -1.40624996,0.3515625 -0.0703125,0.023437 -0.0703125,0.023437 -0.12890625,0.046875 l 0.046875,0.1875 c 0.46875001,-0.1289062 0.55078121,-0.140625 0.66796871,-0.140625 0.3046875,0 0.375,0.1171875 0.5390625,0.8320313 l 0.3515625,1.4765625 -0.984375,1.40625 C 1.1365234,-0.78515625 0.91386719,-0.5625 0.78496094,-0.5625 c -0.0820313,0 -0.19921875,-0.0351563 -0.31640625,-0.10546875 -0.15234375,-0.09375 -0.28125,-0.12890625 -0.38671875,-0.12890625 -0.234375,0 -0.41015625,0.1875 -0.41015625,0.421875 0,0.31640625 0.234375,0.50390625 0.609375,0.50390625 0.36328125,0 0.515625,-0.10546875 1.11328121,-0.8203125 C 1.7107422,-1.0898437 1.9802734,-1.453125 2.4724609,-2.109375 l 0.3632813,1.44140625 c 0.1523437,0.62109375 0.3046875,0.796875 0.6914062,0.796875 0.4570313,0 0.7734375,-0.28125 1.4648438,-1.35937495 z M -79.722852,-84.805664 c 0.152344,-0.03516 0.246094,-0.04687 0.375,-0.04687 0.492188,0 0.726563,0.199219 0.960938,0.84375 0.328125,0.890625 0.949219,3.457031 0.949219,3.914062 0,0.1875 -0.08203,0.386719 -0.257813,0.609375 -0.328125,0.445313 -0.609375,0.785157 -0.75,0.9375 -0.257812,0.257813 -0.386719,0.363282 -0.539062,0.363282 -0.08203,0 -0.152344,-0.03516 -0.292969,-0.140625 -0.175781,-0.140625 -0.292969,-0.199219 -0.445313,-0.199219 -0.257812,0 -0.46875,0.199219 -0.46875,0.46875 0,0.316406 0.257813,0.527344 0.621094,0.527344 0.761719,0 2.320313,-1.792969 3.632813,-4.171875 0.820312,-1.476563 1.148437,-2.34375 1.148437,-2.929688 0,-0.363281 -0.292969,-0.667969 -0.65625,-0.667969 -0.28125,0 -0.46875,0.1875 -0.46875,0.445313 0,0.199219 0.09375,0.316406 0.339844,0.46875 0.222656,0.140625 0.304687,0.246094 0.304687,0.410156 0,0.480469 -0.433593,1.40625 -1.464843,3.105469 l -0.234375,-1.394531 c -0.1875,-1.066407 -0.855469,-3.035157 -1.03125,-3.035157 h -0.04687 c -0.02344,0.01172 -0.05859,0.01172 -0.117188,0.01172 -0.09375,0.01172 -0.539062,0.09375 -1.171875,0.210938 -0.05859,0.01172 -0.210937,0.04687 -0.386719,0.07031 z m 0,0"
       style="fill:#231f20;fill-opacity:1;fill-rule:nonzero;stroke:none"
       aria-label="x&#10;y"
       transform="matrix(1.3333333,0,0,1.3333333,110.56667,230.5)" />
    <path
       id="path4"
       d="m 161.25,889.25 v -714"
       style="fill:none;stroke:#231f20;stroke-width:2.5;stroke-linecap:butt;stroke-linejoin:miter;stroke-miterlimit:3.8637;stroke-dasharray:none;stroke-opacity:1"
       transform="matrix(0.13333333,0,0,-0.13333333,0,237.6)" />
    <path
       id="path5"
       d="m 161.25,886.25 h -15 l 15,38 15,-38 h -15"
       style="fill:#231f20;fill-opacity:1;fill-rule:evenodd;stroke:none"
       transform="matrix(0.13333333,0,0,-0.13333333,0,237.6)" />
    <path
       id="path6"
       d="m 161.25,175.25 h 714"
       style="fill:none;stroke:#231f20;stroke-width:2.5;stroke-linecap:butt;stroke-linejoin:miter;stroke-miterlimit:3.8637;stroke-dasharray:none;stroke-opacity:1"
       transform="matrix(0.13333333,0,0,-0.13333333,0,237.6)" />
    <path
       id="path7"
       d="m 872.25,175.25 v 15 l 38,-15 -38,-15 v 15"
       style="fill:#231f20;fill-opacity:1;fill-rule:evenodd;stroke:none"
       transform="matrix(0.13333333,0,0,-0.13333333,0,237.6)" />
    <path
       id="path8"
       d="M 5.5076172,-5.2257812 H 4.0193359 v 0.1289062 c 0.3632813,0.035156 0.5039063,0.1171875 0.5039063,0.2695313 0,0.1523437 -0.1523438,0.4921875 -0.421875,0.9492187 L 2.4607422,-1.01875 1.9333984,-4.5695312 c -0.011719,-0.035156 -0.011719,-0.070312 -0.011719,-0.1171875 0,-0.2695313 0.1054687,-0.3515625 0.6210937,-0.4101563 V -5.2257812 H 0.60917969 V -5.096875 C 1.0544922,-5.038281 1.0779297,-5.026563 1.2419922,-4.01875 L 1.9216797,0.14140625 H 2.0740234 L 5.0623047,-4.7804687 C 5.1912109,-4.9914062 5.3201172,-5.0851562 5.5076172,-5.096875 Z M 7.6873047,3.0007813 H 9.9255859 V 2.8835938 h -0.140625 c -0.3867187,0 -0.5507812,-0.070312 -0.5507812,-0.2578125 0,-0.070312 0.023437,-0.1875 0.09375,-0.421875 0.023437,-0.046875 0.035156,-0.09375 0.058594,-0.1757813 l 1.1367183,-4.1484375 c 0.04687,-0.140625 0.04687,-0.1992187 0.04687,-0.234375 0,-0.035156 -0.01172,-0.058594 -0.03516,-0.058594 0,0 -0.222656,0.046875 -0.6562498,0.1289062 l -0.7265625,0.1523438 c -0.011719,0 -0.070312,0.011719 -0.1640625,0.023437 v 0.1171875 l 0.4570313,-0.011719 c 0.1875,-0.011719 0.3046875,0.09375 0.3046875,0.2460938 0,0.058594 -0.011719,0.1171875 -0.058594,0.28125 l -1.1015625,3.9375 c -0.09375,0.2929687 -0.2695312,0.375 -0.9023437,0.421875 z m 0,0"
       style="fill:#231f20;fill-opacity:1;fill-rule:nonzero;stroke:none"
       aria-label="V&#10;1"
       transform="matrix(1.3333333,0,0,1.3333333,76.566667,194.23333)" />
    <path
       id="path9"
       d="m 484.25,505.25 -151,-90"
       style="fill:none;stroke:#231f20;stroke-width:1.687;stroke-linecap:butt;stroke-linejoin:miter;stroke-miterlimit:3.8637;stroke-dasharray:none;stroke-opacity:1"
       transform="matrix(0.13333333,0,0,-0.13333333,0,237.6)" />
    <path
       id="path10"
       d="m 335.25,415.25 5,-8 -27,-5 17,22 5,-9"
       style="fill:#231f20;fill-opacity:1;fill-rule:evenodd;stroke:none"
       transform="matrix(0.13333333,0,0,-0.13333333,0,237.6)" />
    <path
       id="path11"
       d="m 561.25,454.25 -91,150"
       style="fill:none;stroke:#231f20;stroke-width:1.687;stroke-linecap:butt;stroke-linejoin:miter;stroke-miterlimit:3.8637;stroke-dasharray:none;stroke-opacity:1"
       transform="matrix(0.13333333,0,0,-0.13333333,0,237.6)" />
    <path
       id="path12"
       d="m 560.25,455.25 8,5 5,-27 -22,17 9,5"
       style="fill:#231f20;fill-opacity:1;fill-rule:evenodd;stroke:none"
       transform="matrix(0.13333333,0,0,-0.13333333,0,237.6)" />
    <path
       id="path13"
       d="m 568.25,647.25 c -24.133,-27.703 -30.742,-68.062 -14,-103 22.969,-47.211 77.84,-67.699 125,-45"
       style="fill:none;stroke:#231f20;stroke-width:1.687;stroke-linecap:butt;stroke-linejoin:miter;stroke-miterlimit:3.8637;stroke-dasharray:none;stroke-opacity:1"
       transform="matrix(0.13333333,0,0,-0.13333333,0,237.6)" />
    <path
       id="path14"
       d="m 567.25,646.25 -8,6 24,13 -9,-26 -7,7"
       style="fill:#231f20;fill-opacity:1;fill-rule:evenodd;stroke:none"
       transform="matrix(0.13333333,0,0,-0.13333333,0,237.6)" />
    <path
       id="path15"
       d="m 2188.25,1524.25 151,91"
       style="fill:none;stroke:#231f20;stroke-width:1.687;stroke-linecap:butt;stroke-linejoin:miter;stroke-miterlimit:3.8637;stroke-dasharray:none;stroke-opacity:1"
       transform="matrix(0.13333333,0,0,-0.13333333,0,237.6)" />
    <path
       id="path16"
       d="m 2338.25,1614.25 -6,9 27,4 -16,-22 -5,9"
       style="fill:#231f20;fill-opacity:1;fill-rule:evenodd;stroke:none"
       transform="matrix(0.13333333,0,0,-0.13333333,0,237.6)" />
    <path
       id="path17"
       d="m 2112.25,1576.25 90,-151"
       style="fill:none;stroke:#231f20;stroke-width:1.687;stroke-linecap:butt;stroke-linejoin:miter;stroke-miterlimit:3.8637;stroke-dasharray:none;stroke-opacity:1"
       transform="matrix(0.13333333,0,0,-0.13333333,0,237.6)" />
    <path
       id="path18"
       d="m 2113.25,1575.25 -9,-6 -4,27 21,-16 -8,-5"
       style="fill:#231f20;fill-opacity:1;fill-rule:evenodd;stroke:none"
       transform="matrix(0.13333333,0,0,-0.13333333,0,237.6)" />
    <path
       id="path19"
       d="m 2022.25,1531.25 c 35.83,7.65 74.52,-5.59 97,-37 31.16,-42.41 23.29,-100.45 -19,-131"
       style="fill:none;stroke:#231f20;stroke-width:1.687;stroke-linecap:butt;stroke-linejoin:miter;stroke-miterlimit:3.8637;stroke-dasharray:none;stroke-opacity:1"
       transform="matrix(0.13333333,0,0,-0.13333333,0,237.6)" />
    <path
       id="path20"
       d="m 2024.25,1531.25 2,-10 -27,4 22,16 3,-10"
       style="fill:#231f20;fill-opacity:1;fill-rule:evenodd;stroke:none"
       transform="matrix(0.13333333,0,0,-0.13333333,0,237.6)" />
    <path
       id="path21"
       d="m 5.8246094,-5.2277344 h -1.59375 v 0.1289063 c 0.4570312,0.035156 0.5507812,0.1171875 0.5507812,0.4101562 0,0.09375 -0.011719,0.1757813 -0.070312,0.3515625 0,0.023437 -0.011719,0.058594 -0.011719,0.058594 L 3.8792969,-1.2316406 2.2152344,-5.2277344 H 0.92617187 v 0.1289063 c 0.37500003,0.035156 0.53906253,0.140625 0.69140623,0.4453125 l -0.94921873,3.3398437 c -0.3046875,1.01953128 -0.375,1.12500003 -0.83203125,1.18359378 v 0.12890625 H 1.4300781 v -0.12890625 c -0.421875,-0.0351563 -0.56249998,-0.1171875 -0.56249998,-0.33984375 0,-0.10546875 0.0234375,-0.26953125 0.0703125,-0.43359375 L 1.8519531,-4.2785156 3.6917969,0.11601563 h 0.140625 L 4.9925781,-3.9035156 c 0.2929688,-1.0429688 0.328125,-1.0898438 0.8320313,-1.1953125 z m 5.3759766,7.1132813 c -0.1875,0.3984375 -0.339844,0.4921875 -0.785156,0.5039062 H 8.8919922 V 2.3542969 L 10.427148,0.81914063 c 0.9375,-0.9375 1.195313,-1.34765625 1.195313,-1.87500003 0,-0.7617187 -0.574219,-1.359375 -1.300781,-1.359375 -0.292969,0 -0.5859378,0.070312 -0.8203128,0.2109375 -0.4101563,0.2226563 -0.6328125,0.4921875 -0.8554688,1.078125 l 0.1640625,0.046875 c 0.2929688,-0.515625 0.6445313,-0.75 1.125,-0.75 0.5742191,0 0.9960941,0.421875 0.9960941,0.97265628 0,0.17578125 -0.02344,0.328125 -0.07031,0.43359375 -0.199219,0.43359375 -0.5625,0.9375 -1.0781248,1.48828127 l -1.6875,1.7929687 v 0.140625 h 2.8476558 l 0.398438,-1.0546875 z m -62.015625,-9.6123047 h -1.335938 l -2.683593,3.9492187 -0.445313,-3.9492187 h -1.441406 v 0.1289062 c 0.398437,0.023437 0.585937,0.1054688 0.585937,0.2929688 0,0.070312 -0.03516,0.1875 -0.08203,0.328125 -0.01172,0.035156 -0.03516,0.1171875 -0.07031,0.2460937 l -0.02344,0.082031 -0.84375,2.9765625 c -0.257812,0.8320312 -0.375,0.9960937 -0.785156,1.0429687 v 0.1289063 h 1.582031 v -0.1289063 c -0.410156,-0.035156 -0.574219,-0.1289062 -0.574219,-0.3515625 0,-0.082031 0.03516,-0.28125 0.08203,-0.421875 l 0.9375,-3.46875 0.492187,4.3710938 h 0.128906 l 3.023438,-4.4882813 -1.03125,3.7617188 c -0.128906,0.421875 -0.292969,0.5390625 -0.808594,0.5976562 v 0.1289063 h 2.179688 v -0.1289063 c -0.539063,-0.046875 -0.609375,-0.09375 -0.609375,-0.3398437 0,-0.140625 0.01172,-0.2460938 0.08203,-0.4921875 l 0.984375,-3.5507813 c 0.152344,-0.4804687 0.1875,-0.515625 0.65625,-0.5859375 z m 6.213867,7.11328124 c -0.1875,0.3984375 -0.339844,0.4921875 -0.785156,0.50390625 h -1.523438 v -0.0351563 l 1.535157,-1.53515619 c 0.9375,-0.9375 1.195312,-1.3476563 1.195312,-1.875 0,-0.7617188 -0.574219,-1.359375 -1.300781,-1.359375 -0.292969,0 -0.585938,0.070312 -0.820313,0.2109375 -0.410156,0.2226562 -0.632812,0.4921875 -0.855468,1.078125 l 0.164062,0.046875 c 0.292969,-0.515625 0.644531,-0.75 1.125,-0.75 0.574219,0 0.996094,0.421875 0.996094,0.9726562 0,0.1757813 -0.02344,0.328125 -0.07031,0.4335938 -0.199218,0.4335937 -0.5625,0.9375 -1.078125,1.4882812 l -1.6875,1.79296874 v 0.140625 h 2.847657 l 0.398437,-1.0546875 z M -25.593359,-21.727734 h -1.488282 v 0.128906 c 0.363282,0.03516 0.503907,0.117187 0.503907,0.269531 0,0.152344 -0.152344,0.492188 -0.421875,0.949219 l -1.640625,2.859375 -0.527344,-3.550781 c -0.01172,-0.03516 -0.01172,-0.07031 -0.01172,-0.117188 0,-0.269531 0.105469,-0.351562 0.621094,-0.410156 v -0.128906 h -1.933594 v 0.128906 c 0.445313,0.05859 0.46875,0.07031 0.632813,1.078125 l 0.679687,4.160156 h 0.152344 l 2.988281,-4.921875 c 0.128906,-0.210937 0.257813,-0.304687 0.445313,-0.316406 z m 4.992187,7.113281 c -0.1875,0.398437 -0.339844,0.492187 -0.785156,0.503906 h -1.523438 v -0.03516 l 1.535157,-1.535156 c 0.9375,-0.9375 1.195312,-1.347657 1.195312,-1.875 0,-0.761719 -0.574219,-1.359375 -1.300781,-1.359375 -0.292969,0 -0.585938,0.07031 -0.820313,0.210937 -0.410156,0.222656 -0.632812,0.492188 -0.855468,1.078125 l 0.164062,0.04687 c 0.292969,-0.515625 0.644531,-0.75 1.125,-0.75 0.574219,0 0.996094,0.421875 0.996094,0.972656 0,0.175782 -0.02344,0.328125 -0.07031,0.433594 -0.199218,0.433594 -0.5625,0.9375 -1.078125,1.488281 l -1.6875,1.792969 v 0.140625 h 2.847657 l 0.398437,-1.054687 z m 0,0"
       style="fill:#231f20;fill-opacity:1;fill-rule:nonzero;stroke:none"
       aria-label="N&#10;2&#10;M&#10;2&#10;V&#10;2"
       transform="matrix(1.3333333,0,0,1.3333333,317.36667,38.9)" />
  </g>
</svg>
