<?xml version="1.0" encoding="UTF-8" standalone="no"?>
<!-- Created with Inkscape (http://www.inkscape.org/) -->

<svg
   version="1.1"
   id="svg1"
   width="340.54666"
   height="237.60001"
   viewBox="0 0 340.54666 237.60001"
   sodipodi:docname="BEAM2SN.EPS"
   xmlns:inkscape="http://www.inkscape.org/namespaces/inkscape"
   xmlns:sodipodi="http://sodipodi.sourceforge.net/DTD/sodipodi-0.dtd"
   xmlns="http://www.w3.org/2000/svg"
   xmlns:svg="http://www.w3.org/2000/svg">
  <defs
     id="defs1" />
  <sodipodi:namedview
     id="namedview1"
     pagecolor="#ffffff"
     bordercolor="#000000"
     borderopacity="0.25"
     inkscape:showpageshadow="2"
     inkscape:pageopacity="0.0"
     inkscape:pagecheckerboard="0"
     inkscape:deskcolor="#d1d1d1">
    <inkscape:page
       x="0"
       y="0"
       inkscape:label="1"
       id="page1"
       width="340.54666"
       height="237.60001"
       margin="0"
       bleed="0" />
  </sodipodi:namedview>
  <g
     id="g1"
     inkscape:groupmode="layer"
     inkscape:label="1">
    <path
       id="path1"
       d="m 1191.25,965.25 81,48 36,-60 -81,-48 -36,60"
       style="fill:#d3d2d2;fill-opacity:1;fill-rule:nonzero;stroke:none"
       transform="matrix(0.13333333,0,0,-0.13333333,0,237.6)" />
    <path
       id="path2"
       d="m 1191.25,965.25 81,48 36,-60 -81,-48 z"
       style="fill:none;stroke:#231f20;stroke-width:2.5;stroke-linecap:butt;stroke-linejoin:miter;stroke-miterlimit:3.8637;stroke-dasharray:none;stroke-opacity:1"
       transform="matrix(0.13333333,0,0,-0.13333333,0,237.6)" />
    <path
       id="path3"
       d="m 5.8248047,-5.2257812 h -1.59375 v 0.1289062 c 0.4570312,0.035156 0.5507812,0.1171875 0.5507812,0.4101563 0,0.09375 -0.011719,0.1757812 -0.070312,0.3515625 0,0.023437 -0.011719,0.058594 -0.011719,0.058594 L 3.8794922,-1.2296875 2.2154297,-5.2257812 H 0.92636719 V -5.096875 C 1.3013672,-5.061719 1.4654297,-4.95625 1.6177734,-4.6515625 l -0.94921871,3.3398438 c -0.3046875,1.0195312 -0.375,1.12499995 -0.83203125,1.1835937 V 7.8125e-4 H 1.4302734 V -0.128125 c -0.421875,-0.0351563 -0.56249996,-0.1171875 -0.56249996,-0.33984375 0,-0.10546875 0.0234375,-0.26953125 0.0703125,-0.43359375 l 0.91406246,-3.375 1.8398438,4.39453125 h 0.140625 L 4.9927734,-3.9015625 C 5.2857422,-4.9445312 5.3208984,-4.9914062 5.8248047,-5.096875 Z M 8.3853516,3.0007813 H 10.623633 V 2.8835938 h -0.140625 c -0.386719,0 -0.5507814,-0.070312 -0.5507814,-0.2578125 0,-0.070312 0.023437,-0.1875 0.09375,-0.421875 0.02344,-0.046875 0.03516,-0.09375 0.05859,-0.1757813 l 1.136719,-4.1484375 c 0.04687,-0.140625 0.04687,-0.1992187 0.04687,-0.234375 0,-0.035156 -0.01172,-0.058594 -0.03516,-0.058594 0,0 -0.222656,0.046875 -0.65625,0.1289062 l -0.7265631,0.1523438 c -0.011719,0 -0.070312,0.011719 -0.1640625,0.023437 v 0.1171875 l 0.4570316,-0.011719 c 0.1875,-0.011719 0.304688,0.09375 0.304688,0.2460938 0,0.058594 -0.01172,0.1171875 -0.05859,0.28125 l -1.1015631,3.9375 c -0.09375,0.2929687 -0.2695312,0.375 -0.9023437,0.421875 z M 28.483008,-50.325391 H 27.14707 l -2.683593,3.949219 -0.445313,-3.949219 h -1.441406 v 0.128907 c 0.398437,0.02344 0.585937,0.105468 0.585937,0.292968 0,0.07031 -0.03516,0.1875 -0.08203,0.328125 -0.01172,0.03516 -0.03516,0.117188 -0.07031,0.246094 l -0.02344,0.08203 -0.84375,2.976563 c -0.257812,0.832031 -0.375,0.996094 -0.785156,1.042969 v 0.128906 h 1.582031 v -0.128906 c -0.410156,-0.03516 -0.574219,-0.128907 -0.574219,-0.351563 0,-0.08203 0.03516,-0.28125 0.08203,-0.421875 l 0.9375,-3.46875 0.492187,4.371094 h 0.128906 l 3.023438,-4.488281 -1.03125,3.761718 c -0.128906,0.421875 -0.292969,0.539063 -0.808594,0.597657 v 0.128906 h 2.179688 v -0.128906 c -0.539063,-0.04687 -0.609375,-0.09375 -0.609375,-0.339844 0,-0.140625 0.01172,-0.246094 0.08203,-0.492188 l 0.984375,-3.550781 c 0.152344,-0.480469 0.1875,-0.515625 0.65625,-0.585937 z m 3.404297,8.226563 h 2.238281 v -0.117188 h -0.140625 c -0.386719,0 -0.550781,-0.07031 -0.550781,-0.257812 0,-0.07031 0.02344,-0.1875 0.09375,-0.421875 0.02344,-0.04687 0.03516,-0.09375 0.05859,-0.175781 l 1.136719,-4.148438 c 0.04687,-0.140625 0.04687,-0.199219 0.04687,-0.234375 0,-0.03516 -0.01172,-0.05859 -0.03516,-0.05859 0,0 -0.222656,0.04687 -0.65625,0.128907 l -0.726563,0.152343 c -0.01172,0 -0.07031,0.01172 -0.164062,0.02344 v 0.117187 l 0.457031,-0.01172 c 0.1875,-0.01172 0.304688,0.09375 0.304688,0.246093 0,0.05859 -0.01172,0.117188 -0.05859,0.28125 l -1.101563,3.9375 c -0.09375,0.292969 -0.269531,0.375 -0.902343,0.421875 z m 0,0"
       style="fill:#231f20;fill-opacity:1;fill-rule:nonzero;stroke:none"
       aria-label="N&#10;1&#10;M&#10;1"
       transform="matrix(1.3333333,0,0,1.3333333,44.3,200.23333)" />
    <path
       id="path4"
       d="m 607.25,615.25 1414,850 37,-61 -1415,-851 z"
       style="fill:none;stroke:#231f20;stroke-width:5;stroke-linecap:butt;stroke-linejoin:miter;stroke-miterlimit:3.8637;stroke-dasharray:none;stroke-opacity:1"
       transform="matrix(0.13333333,0,0,-0.13333333,0,237.6)" />
    <path
       id="path5"
       d="m 4.8279297,-1.3359375 c -0.1054688,0.1171875 -0.1640625,0.1875 -0.2695313,0.328125 -0.2695312,0.36328125 -0.421875,0.48046875 -0.5625,0.48046875 -0.1640625,0 -0.28125,-0.15234375 -0.3632812,-0.49218745 -0.035156,-0.1289063 -0.035156,-0.1523438 -0.046875,-0.1875 -0.2929688,-1.2304688 -0.4335938,-1.78125 -0.4335938,-1.9570313 0.5390625,-0.9375 0.9609375,-1.453125 1.1835938,-1.453125 0.070312,0 0.1757812,0.035156 0.28125,0.09375 0.1523437,0.082031 0.234375,0.1054688 0.3398437,0.1054688 0.234375,0 0.4101563,-0.1757813 0.4101563,-0.4335938 0,-0.2578125 -0.2109375,-0.4453125 -0.4921875,-0.4453125 -0.5273438,0 -0.9726563,0.4335938 -1.8164063,1.7226563 l -0.1289062,-0.65625 C 2.7654297,-5.0507812 2.6248047,-5.296875 2.3083984,-5.296875 c -0.28125,0 -0.6679687,0.1054688 -1.40624996,0.3515625 -0.0703125,0.023437 -0.0703125,0.023437 -0.12890625,0.046875 l 0.046875,0.1875 c 0.46875001,-0.1289062 0.55078121,-0.140625 0.66796871,-0.140625 0.3046875,0 0.375,0.1171875 0.5390625,0.8320313 l 0.3515625,1.4765625 -0.984375,1.40625 C 1.1365234,-0.78515625 0.91386719,-0.5625 0.78496094,-0.5625 c -0.0820313,0 -0.19921875,-0.0351563 -0.31640625,-0.10546875 -0.15234375,-0.09375 -0.28125,-0.12890625 -0.38671875,-0.12890625 -0.234375,0 -0.41015625,0.1875 -0.41015625,0.421875 0,0.31640625 0.234375,0.50390625 0.609375,0.50390625 0.36328125,0 0.515625,-0.10546875 1.11328121,-0.8203125 C 1.7107422,-1.0898437 1.9802734,-1.453125 2.4724609,-2.109375 l 0.3632813,1.44140625 c 0.1523437,0.62109375 0.3046875,0.796875 0.6914062,0.796875 0.4570313,0 0.7734375,-0.28125 1.4648438,-1.35937495 z M -79.722852,-84.805664 c 0.152344,-0.03516 0.246094,-0.04687 0.375,-0.04687 0.492188,0 0.726563,0.199219 0.960938,0.84375 0.328125,0.890625 0.949219,3.457031 0.949219,3.914062 0,0.1875 -0.08203,0.386719 -0.257813,0.609375 -0.328125,0.445313 -0.609375,0.785157 -0.75,0.9375 -0.257812,0.257813 -0.386719,0.363282 -0.539062,0.363282 -0.08203,0 -0.152344,-0.03516 -0.292969,-0.140625 -0.175781,-0.140625 -0.292969,-0.199219 -0.445313,-0.199219 -0.257812,0 -0.46875,0.199219 -0.46875,0.46875 0,0.316406 0.257813,0.527344 0.621094,0.527344 0.761719,0 2.320313,-1.792969 3.632813,-4.171875 0.820312,-1.476563 1.148437,-2.34375 1.148437,-2.929688 0,-0.363281 -0.292969,-0.667969 -0.65625,-0.667969 -0.28125,0 -0.46875,0.1875 -0.46875,0.445313 0,0.199219 0.09375,0.316406 0.339844,0.46875 0.222656,0.140625 0.304687,0.246094 0.304687,0.410156 0,0.480469 -0.433593,1.40625 -1.464843,3.105469 l -0.234375,-1.394531 c -0.1875,-1.066407 -0.855469,-3.035157 -1.03125,-3.035157 h -0.04687 c -0.02344,0.01172 -0.05859,0.01172 -0.117188,0.01172 -0.09375,0.01172 -0.539062,0.09375 -1.171875,0.210938 -0.05859,0.01172 -0.210937,0.04687 -0.386719,0.07031 z m 0,0"
       style="fill:#231f20;fill-opacity:1;fill-rule:nonzero;stroke:none"
       aria-label="x&#10;y"
       transform="matrix(1.3333333,0,0,1.3333333,110.56667,230.5)" />
    <path
       id="path6"
       d="m 161.25,889.25 v -714"
       style="fill:none;stroke:#231f20;stroke-width:2.5;stroke-linecap:butt;stroke-linejoin:miter;stroke-miterlimit:3.8637;stroke-dasharray:none;stroke-opacity:1"
       transform="matrix(0.13333333,0,0,-0.13333333,0,237.6)" />
    <path
       id="path7"
       d="m 161.25,886.25 h -15 l 15,38 15,-38 h -15"
       style="fill:#231f20;fill-opacity:1;fill-rule:evenodd;stroke:none"
       transform="matrix(0.13333333,0,0,-0.13333333,0,237.6)" />
    <path
       id="path8"
       d="m 161.25,175.25 h 714"
       style="fill:none;stroke:#231f20;stroke-width:2.5;stroke-linecap:butt;stroke-linejoin:miter;stroke-miterlimit:3.8637;stroke-dasharray:none;stroke-opacity:1"
       transform="matrix(0.13333333,0,0,-0.13333333,0,237.6)" />
    <path
       id="path9"
       d="m 872.25,175.25 v 15 l 38,-15 -38,-15 v 15"
       style="fill:#231f20;fill-opacity:1;fill-rule:evenodd;stroke:none"
       transform="matrix(0.13333333,0,0,-0.13333333,0,237.6)" />
    <path
       id="path10"
       d="M 5.5076172,-5.2257812 H 4.0193359 v 0.1289062 c 0.3632813,0.035156 0.5039063,0.1171875 0.5039063,0.2695313 0,0.1523437 -0.1523438,0.4921875 -0.421875,0.9492187 L 2.4607422,-1.01875 1.9333984,-4.5695312 c -0.011719,-0.035156 -0.011719,-0.070312 -0.011719,-0.1171875 0,-0.2695313 0.1054687,-0.3515625 0.6210937,-0.4101563 V -5.2257812 H 0.60917969 V -5.096875 C 1.0544922,-5.038281 1.0779297,-5.026563 1.2419922,-4.01875 L 1.9216797,0.14140625 H 2.0740234 L 5.0623047,-4.7804687 C 5.1912109,-4.9914062 5.3201172,-5.0851562 5.5076172,-5.096875 Z M 7.6873047,3.0007813 H 9.9255859 V 2.8835938 h -0.140625 c -0.3867187,0 -0.5507812,-0.070312 -0.5507812,-0.2578125 0,-0.070312 0.023437,-0.1875 0.09375,-0.421875 0.023437,-0.046875 0.035156,-0.09375 0.058594,-0.1757813 l 1.1367183,-4.1484375 c 0.04687,-0.140625 0.04687,-0.1992187 0.04687,-0.234375 0,-0.035156 -0.01172,-0.058594 -0.03516,-0.058594 0,0 -0.222656,0.046875 -0.6562498,0.1289062 l -0.7265625,0.1523438 c -0.011719,0 -0.070312,0.011719 -0.1640625,0.023437 v 0.1171875 l 0.4570313,-0.011719 c 0.1875,-0.011719 0.3046875,0.09375 0.3046875,0.2460938 0,0.058594 -0.011719,0.1171875 -0.058594,0.28125 l -1.1015625,3.9375 c -0.09375,0.2929687 -0.2695312,0.375 -0.9023437,0.421875 z m 0,0"
       style="fill:#231f20;fill-opacity:1;fill-rule:nonzero;stroke:none"
       aria-label="V&#10;1"
       transform="matrix(1.3333333,0,0,1.3333333,76.566667,194.23333)" />
    <path
       id="path11"
       d="m 2188.25,1524.25 151,91"
       style="fill:none;stroke:#231f20;stroke-width:1.687;stroke-linecap:butt;stroke-linejoin:miter;stroke-miterlimit:3.8637;stroke-dasharray:none;stroke-opacity:1"
       transform="matrix(0.13333333,0,0,-0.13333333,0,237.6)" />
    <path
       id="path12"
       d="m 2338.25,1614.25 -6,9 27,4 -16,-22 -5,9"
       style="fill:#231f20;fill-opacity:1;fill-rule:evenodd;stroke:none"
       transform="matrix(0.13333333,0,0,-0.13333333,0,237.6)" />
    <path
       id="path13"
       d="m 2112.25,1576.25 90,-151"
       style="fill:none;stroke:#231f20;stroke-width:1.687;stroke-linecap:butt;stroke-linejoin:miter;stroke-miterlimit:3.8637;stroke-dasharray:none;stroke-opacity:1"
       transform="matrix(0.13333333,0,0,-0.13333333,0,237.6)" />
    <path
       id="path14"
       d="m 2113.25,1575.25 -9,-6 -4,27 21,-16 -8,-5"
       style="fill:#231f20;fill-opacity:1;fill-rule:evenodd;stroke:none"
       transform="matrix(0.13333333,0,0,-0.13333333,0,237.6)" />
    <path
       id="path15"
       d="m 2022.25,1531.25 c 35.83,7.65 74.52,-5.59 97,-37 31.16,-42.41 23.29,-100.45 -19,-131"
       style="fill:none;stroke:#231f20;stroke-width:1.687;stroke-linecap:butt;stroke-linejoin:miter;stroke-miterlimit:3.8637;stroke-dasharray:none;stroke-opacity:1"
       transform="matrix(0.13333333,0,0,-0.13333333,0,237.6)" />
    <path
       id="path16"
       d="m 2024.25,1531.25 2,-10 -27,4 22,16 3,-10"
       style="fill:#231f20;fill-opacity:1;fill-rule:evenodd;stroke:none"
       transform="matrix(0.13333333,0,0,-0.13333333,0,237.6)" />
    <path
       id="path17"
       d="m 484.25,505.25 -151,-90"
       style="fill:none;stroke:#231f20;stroke-width:1.687;stroke-linecap:butt;stroke-linejoin:miter;stroke-miterlimit:3.8637;stroke-dasharray:none;stroke-opacity:1"
       transform="matrix(0.13333333,0,0,-0.13333333,0,237.6)" />
    <path
       id="path18"
       d="m 335.25,415.25 5,-8 -27,-5 17,22 5,-9"
       style="fill:#231f20;fill-opacity:1;fill-rule:evenodd;stroke:none"
       transform="matrix(0.13333333,0,0,-0.13333333,0,237.6)" />
    <path
       id="path19"
       d="m 561.25,454.25 -91,150"
       style="fill:none;stroke:#231f20;stroke-width:1.687;stroke-linecap:butt;stroke-linejoin:miter;stroke-miterlimit:3.8637;stroke-dasharray:none;stroke-opacity:1"
       transform="matrix(0.13333333,0,0,-0.13333333,0,237.6)" />
    <path
       id="path20"
       d="m 560.25,455.25 8,5 5,-27 -22,17 9,5"
       style="fill:#231f20;fill-opacity:1;fill-rule:evenodd;stroke:none"
       transform="matrix(0.13333333,0,0,-0.13333333,0,237.6)" />
    <path
       id="path21"
       d="m 568.25,647.25 c -24.133,-27.703 -30.742,-68.062 -14,-103 22.969,-47.211 77.84,-67.699 125,-45"
       style="fill:none;stroke:#231f20;stroke-width:1.687;stroke-linecap:butt;stroke-linejoin:miter;stroke-miterlimit:3.8637;stroke-dasharray:none;stroke-opacity:1"
       transform="matrix(0.13333333,0,0,-0.13333333,0,237.6)" />
    <path
       id="path22"
       d="m 567.25,646.25 -8,6 24,13 -9,-26 -7,7"
       style="fill:#231f20;fill-opacity:1;fill-rule:evenodd;stroke:none"
       transform="matrix(0.13333333,0,0,-0.13333333,0,237.6)" />
    <path
       id="path23"
       d="m 5.8246094,-5.2277344 h -1.59375 v 0.1289063 c 0.4570312,0.035156 0.5507812,0.1171875 0.5507812,0.4101562 0,0.09375 -0.011719,0.1757813 -0.070312,0.3515625 0,0.023437 -0.011719,0.058594 -0.011719,0.058594 L 3.8792969,-1.2316406 2.2152344,-5.2277344 H 0.92617187 v 0.1289063 c 0.37500003,0.035156 0.53906253,0.140625 0.69140623,0.4453125 l -0.94921873,3.3398437 c -0.3046875,1.01953128 -0.375,1.12500003 -0.83203125,1.18359378 v 0.12890625 H 1.4300781 v -0.12890625 c -0.421875,-0.0351563 -0.56249998,-0.1171875 -0.56249998,-0.33984375 0,-0.10546875 0.0234375,-0.26953125 0.0703125,-0.43359375 L 1.8519531,-4.2785156 3.6917969,0.11601563 h 0.140625 L 4.9925781,-3.9035156 c 0.2929688,-1.0429688 0.328125,-1.0898438 0.8320313,-1.1953125 z m 5.8564456,7.2890625 c -0.433594,0.5507813 -0.527344,0.6328125 -0.65625,0.6328125 -0.07031,0 -0.128907,-0.058594 -0.128907,-0.1289062 0,-0.058594 0.03516,-0.2109375 0.117188,-0.5039063 l 0.457031,-1.65234372 c 0.03516,-0.1640625 0.07031,-0.33984375 0.07031,-0.45703125 0,-0.29296875 -0.222657,-0.48046875 -0.527344,-0.48046875 -0.515625,0 -1.0195313,0.48046875 -1.8398438,1.75781252 l 0.5273437,-1.74609377 -0.023437,-0.0117188 c -0.421875,0.0820312 -0.5976562,0.1171875 -1.2890625,0.24609375 v 0.12890625 c 0.4101563,0.0117188 0.5039063,0.05859375 0.5039063,0.2109375 0,0.046875 0,0.10546875 -0.011719,0.140625 L 8.1185547,2.9988281 h 0.5976562 c 0.375,-1.265625 0.4453125,-1.4414062 0.796875,-1.9804687 0.4804688,-0.73828127 0.8906251,-1.13671877 1.1835941,-1.13671877 0.117187,0 0.199218,0.08203125 0.199218,0.22265625 0,0.10546875 -0.05859,0.36328125 -0.117187,0.609375 L 10.427148,2.0378906 c -0.105468,0.421875 -0.128906,0.515625 -0.128906,0.5976563 0,0.3046875 0.117188,0.4335937 0.375,0.4335937 0.363281,0 0.5625,-0.1640625 1.125,-0.9023437 z m -62.496094,-9.7880859 h -1.335938 l -2.683593,3.9492187 -0.445313,-3.9492187 h -1.441406 v 0.1289062 c 0.398437,0.023437 0.585937,0.1054688 0.585937,0.2929688 0,0.070312 -0.03516,0.1875 -0.08203,0.328125 -0.01172,0.035156 -0.03516,0.1171875 -0.07031,0.2460937 l -0.02344,0.082031 -0.84375,2.9765625 c -0.257812,0.8320312 -0.375,0.9960937 -0.785156,1.0429687 v 0.1289063 h 1.582031 v -0.1289063 c -0.410156,-0.035156 -0.574219,-0.1289062 -0.574219,-0.3515625 0,-0.082031 0.03516,-0.28125 0.08203,-0.421875 l 0.9375,-3.46875 0.492187,4.3710938 h 0.128906 l 3.023438,-4.4882813 -1.03125,3.7617188 c -0.128906,0.421875 -0.292969,0.5390625 -0.808594,0.5976562 v 0.1289063 h 2.179688 v -0.1289063 c -0.539063,-0.046875 -0.609375,-0.09375 -0.609375,-0.3398437 0,-0.140625 0.01172,-0.2460938 0.08203,-0.4921875 l 0.984375,-3.5507813 c 0.152344,-0.4804687 0.1875,-0.515625 0.65625,-0.5859375 z m 6.694336,7.28906249 c -0.433594,0.55078125 -0.527344,0.6328125 -0.65625,0.6328125 -0.07031,0 -0.128906,-0.0585938 -0.128906,-0.12890625 0,-0.05859375 0.03516,-0.2109375 0.117187,-0.50390625 l 0.457031,-1.65234379 c 0.03516,-0.1640625 0.07031,-0.3398437 0.07031,-0.4570312 0,-0.2929688 -0.222656,-0.4804688 -0.527344,-0.4804688 -0.515625,0 -1.019531,0.4804688 -1.839844,1.7578125 l 0.527344,-1.7460937 -0.02344,-0.011719 c -0.421875,0.082031 -0.597657,0.1171875 -1.289063,0.2460938 v 0.1289062 c 0.410156,0.011719 0.503906,0.058594 0.503906,0.2109375 0,0.046875 0,0.1054688 -0.01172,0.140625 l -0.761719,2.80078129 h 0.597656 c 0.375,-1.265625 0.445313,-1.44140625 0.796875,-1.98046879 0.480469,-0.7382812 0.890625,-1.1367187 1.183594,-1.1367187 0.117187,0 0.199219,0.082031 0.199219,0.2226562 0,0.1054688 -0.05859,0.3632813 -0.117188,0.609375 l -0.351562,1.32421879 c -0.105469,0.421875 -0.128907,0.515625 -0.128907,0.59765625 0,0.3046875 0.117188,0.43359375 0.375,0.43359375 0.363282,0 0.5625,-0.1640625 1.125,-0.90234375 z M -25.593359,-21.727734 h -1.488282 v 0.128906 c 0.363282,0.03516 0.503907,0.117187 0.503907,0.269531 0,0.152344 -0.152344,0.492188 -0.421875,0.949219 l -1.640625,2.859375 -0.527344,-3.550781 c -0.01172,-0.03516 -0.01172,-0.07031 -0.01172,-0.117188 0,-0.269531 0.105469,-0.351562 0.621094,-0.410156 v -0.128906 h -1.933594 v 0.128906 c 0.445313,0.05859 0.46875,0.07031 0.632813,1.078125 l 0.679687,4.160156 h 0.152344 l 2.988281,-4.921875 c 0.128906,-0.210937 0.257813,-0.304687 0.445313,-0.316406 z m 5.472656,7.289062 c -0.433594,0.550781 -0.527344,0.632813 -0.65625,0.632813 -0.07031,0 -0.128906,-0.05859 -0.128906,-0.128907 0,-0.05859 0.03516,-0.210937 0.117187,-0.503906 l 0.457031,-1.652344 c 0.03516,-0.164062 0.07031,-0.339843 0.07031,-0.457031 0,-0.292969 -0.222656,-0.480469 -0.527344,-0.480469 -0.515625,0 -1.019531,0.480469 -1.839844,1.757813 l 0.527344,-1.746094 -0.02344,-0.01172 c -0.421875,0.08203 -0.597657,0.117188 -1.289063,0.246094 v 0.128906 c 0.410156,0.01172 0.503906,0.05859 0.503906,0.210938 0,0.04687 0,0.105469 -0.01172,0.140625 l -0.761719,2.800781 h 0.597656 c 0.375,-1.265625 0.445313,-1.441406 0.796875,-1.980469 0.480469,-0.738281 0.890625,-1.136718 1.183594,-1.136718 0.117187,0 0.199219,0.08203 0.199219,0.222656 0,0.105469 -0.05859,0.363281 -0.117188,0.609375 l -0.351562,1.324219 c -0.105469,0.421875 -0.128907,0.515625 -0.128907,0.597656 0,0.304687 0.117188,0.433594 0.375,0.433594 0.363282,0 0.5625,-0.164063 1.125,-0.902344 z m 0,0"
       style="fill:#231f20;fill-opacity:1;fill-rule:nonzero;stroke:none"
       aria-label="N&#10;n&#10;M&#10;n&#10;V&#10;n"
       transform="matrix(1.3333333,0,0,1.3333333,317.36667,38.9)" />
    <path
       id="path24"
       d="m 2218.25,738.25 151,91"
       style="fill:none;stroke:#231f20;stroke-width:1.687;stroke-linecap:butt;stroke-linejoin:miter;stroke-miterlimit:3.8637;stroke-dasharray:none;stroke-opacity:1"
       transform="matrix(0.13333333,0,0,-0.13333333,0,237.6)" />
    <path
       id="path25"
       d="m 2368.25,828.25 -6,9 27,4 -16,-22 -5,9"
       style="fill:#231f20;fill-opacity:1;fill-rule:evenodd;stroke:none"
       transform="matrix(0.13333333,0,0,-0.13333333,0,237.6)" />
    <path
       id="path26"
       d="m 2142.25,790.25 90,-151"
       style="fill:none;stroke:#231f20;stroke-width:1.687;stroke-linecap:butt;stroke-linejoin:miter;stroke-miterlimit:3.8637;stroke-dasharray:none;stroke-opacity:1"
       transform="matrix(0.13333333,0,0,-0.13333333,0,237.6)" />
    <path
       id="path27"
       d="m 2142.25,789.25 -8,-6 -5,27 22,-16 -9,-5"
       style="fill:#231f20;fill-opacity:1;fill-rule:evenodd;stroke:none"
       transform="matrix(0.13333333,0,0,-0.13333333,0,237.6)" />
    <path
       id="path28"
       d="m 2052.25,745.25 c 35.74,7.656 74.43,-5.586 97,-37 31.07,-42.406 23.2,-100.449 -19,-131"
       style="fill:none;stroke:#231f20;stroke-width:1.687;stroke-linecap:butt;stroke-linejoin:miter;stroke-miterlimit:3.8637;stroke-dasharray:none;stroke-opacity:1"
       transform="matrix(0.13333333,0,0,-0.13333333,0,237.6)" />
    <path
       id="path29"
       d="m 2054.25,745.25 2,-10 -27,4 22,16 3,-10"
       style="fill:#231f20;fill-opacity:1;fill-rule:evenodd;stroke:none"
       transform="matrix(0.13333333,0,0,-0.13333333,0,237.6)" />
    <path
       id="path30"
       d="M 8.7179688,-7.8392578 H 6.3390625 v 0.1992187 c 0.6796875,0.058594 0.8320313,0.1757813 0.8320313,0.609375 0,0.140625 -0.023437,0.2695313 -0.1054688,0.5273438 -0.011719,0.035156 -0.023437,0.082031 -0.023437,0.09375 L 5.823438,-1.8509766 3.3273443,-7.8392578 H 1.39375 v 0.1992187 c 0.5625,0.046875 0.796875,0.1992188 1.03125,0.6679688 l -1.4296875,5.0039062 c -0.45703125,1.53515629 -0.55078125,1.67578129 -1.23046875,1.78125004 V 5.859375e-4 H 2.1320313 V -0.18691406 C 1.5109375,-0.23378906 1.3,-0.37441406 1.3,-0.70253906 1.3,-0.86660156 1.335156,-1.1009766 1.4054688,-1.3587891 l 1.3710937,-5.0625 2.7539063,6.59765629 h 0.2109375 l 1.734375,-6.03515629 c 0.4453125,-1.5585937 0.4921875,-1.6171875 1.2421875,-1.78125 z M -33.024219,-17.141016 h -2.003906 l -4.03125,5.917969 -0.65625,-5.917969 h -2.179687 v 0.199219 c 0.597656,0.03516 0.890625,0.164063 0.890625,0.445313 0,0.09375 -0.04687,0.269531 -0.117188,0.492187 -0.02344,0.04688 -0.05859,0.164063 -0.105469,0.351563 l -0.04687,0.140625 -1.265625,4.453125 c -0.375,1.2539059 -0.550781,1.4882809 -1.171875,1.5703121 v 0.1875 h 2.367188 v -0.1875 c -0.609375,-0.046875 -0.84375,-0.1992187 -0.84375,-0.5273441 0,-0.140625 0.04687,-0.421875 0.105469,-0.644531 l 1.417968,-5.191406 0.726563,6.5507811 h 0.210937 l 4.523438,-6.7265621 -1.558594,5.636718 c -0.1875,0.6328129 -0.421875,0.8085941 -1.207031,0.9023441 v 0.1875 h 3.28125 v -0.1875 c -0.820313,-0.082031 -0.925781,-0.1523437 -0.925781,-0.5156251 0,-0.210937 0.02344,-0.363281 0.128906,-0.738281 l 1.476562,-5.320313 c 0.210938,-0.714843 0.28125,-0.773437 0.984375,-0.878906 z m 16.385742,-6.899414 h -2.238281 v 0.199219 c 0.539063,0.05859 0.761719,0.175781 0.761719,0.410156 0,0.222657 -0.234375,0.726563 -0.632813,1.417969 l -2.472656,4.277344 -0.785156,-5.320313 c -0.01172,-0.05859 -0.01172,-0.105468 -0.01172,-0.175781 0,-0.410156 0.164063,-0.515625 0.925781,-0.609375 v -0.199219 h -2.894531 v 0.199219 c 0.667969,0.08203 0.691406,0.105469 0.949219,1.617188 l 1.019531,6.234375 h 0.222656 l 4.476563,-7.371094 c 0.210937,-0.328125 0.398437,-0.46875 0.679687,-0.480469 z m -47.24414,59.100586 h -2.378906 v 0.199219 c 0.679687,0.05859 0.832031,0.175781 0.832031,0.609375 0,0.140625 -0.02344,0.269531 -0.105469,0.527344 -0.01172,0.03516 -0.02344,0.08203 -0.02344,0.09375 l -1.21875,4.558594 -2.496094,-5.988282 h -1.933594 v 0.199219 c 0.5625,0.04687 0.796875,0.199219 1.03125,0.667969 l -1.429687,5.003906 c -0.457032,1.535156 -0.550782,1.675781 -1.230469,1.78125 V 42.9 h 2.367187 v -0.1875 c -0.621093,-0.04687 -0.832031,-0.1875 -0.832031,-0.515625 0,-0.164062 0.03516,-0.398437 0.105469,-0.65625 l 1.371094,-5.0625 2.753906,6.597656 h 0.210937 l 1.734375,-6.035156 c 0.445313,-1.558594 0.492188,-1.617187 1.242188,-1.78125 z m 10.959961,-40.4999997 h -2.003906 l -4.03125,5.9179687 -0.65625,-5.9179687 h -2.179688 v 0.1992187 c 0.597656,0.035156 0.890625,0.1640625 0.890625,0.4453125 0,0.09375 -0.04687,0.2695313 -0.117187,0.4921875 -0.02344,0.046875 -0.05859,0.1640625 -0.105469,0.3515625 l -0.04687,0.140625 -1.265625,4.453125 c -0.375,1.2539063 -0.550781,1.4882813 -1.171875,1.5703125 V 2.4 h 2.367187 V 2.2125 c -0.609375,-0.046875 -0.84375,-0.1992187 -0.84375,-0.5273437 0,-0.140625 0.04687,-0.421875 0.105469,-0.6445313 L -60.563281,-4.1507812 -59.836719,2.4 h 0.210938 l 4.523437,-6.7265625 -1.558593,5.6367188 C -56.848437,1.9429688 -57.082812,2.11875 -57.867969,2.2125 V 2.4 h 3.28125 V 2.2125 C -55.407031,2.1304688 -55.5125,2.0601563 -55.5125,1.696875 c 0,-0.2109375 0.02344,-0.3632812 0.128906,-0.73828125 l 1.476563,-5.32031245 c 0.210937,-0.7148438 0.28125,-0.7734375 0.984375,-0.8789063 z M -40.1375,30.560156 h -2.238281 v 0.199219 c 0.539062,0.05859 0.761719,0.175781 0.761719,0.410156 0,0.222657 -0.234375,0.726563 -0.632813,1.417969 l -2.472656,4.277344 -0.785156,-5.320313 c -0.01172,-0.05859 -0.01172,-0.105468 -0.01172,-0.175781 0,-0.410156 0.164062,-0.515625 0.925781,-0.609375 v -0.199219 h -2.894531 v 0.199219 c 0.667969,0.08203 0.691406,0.105469 0.949219,1.617188 l 1.019531,6.234375 h 0.222656 l 4.476563,-7.371094 c 0.210937,-0.328125 0.398437,-0.46875 0.679687,-0.480469 z m 0,0"
       style="fill:#231f20;fill-opacity:1;fill-rule:nonzero;stroke:none"
       aria-label="N&#10;M&#10;V&#10;N&#10;M&#10;V"
       transform="matrix(1.3333333,0,0,1.3333333,315.76667,145.3)" />
    <path
       id="path31"
       d="m 1794.25,488.25 -151,-91"
       style="fill:none;stroke:#231f20;stroke-width:1.687;stroke-linecap:butt;stroke-linejoin:miter;stroke-miterlimit:3.8637;stroke-dasharray:none;stroke-opacity:1"
       transform="matrix(0.13333333,0,0,-0.13333333,0,237.6)" />
    <path
       id="path32"
       d="m 1644.25,398.25 5,-9 -26,-4 16,22 5,-9"
       style="fill:#231f20;fill-opacity:1;fill-rule:evenodd;stroke:none"
       transform="matrix(0.13333333,0,0,-0.13333333,0,237.6)" />
    <path
       id="path33"
       d="m 1870.25,436.25 -90,151"
       style="fill:none;stroke:#231f20;stroke-width:1.687;stroke-linecap:butt;stroke-linejoin:miter;stroke-miterlimit:3.8637;stroke-dasharray:none;stroke-opacity:1"
       transform="matrix(0.13333333,0,0,-0.13333333,0,237.6)" />
    <path
       id="path34"
       d="m 1869.25,437.25 9,6 4,-27 -21,16 8,5"
       style="fill:#231f20;fill-opacity:1;fill-rule:evenodd;stroke:none"
       transform="matrix(0.13333333,0,0,-0.13333333,0,237.6)" />
    <path
       id="path35"
       d="m 1877.25,629.25 c -23.71,-27.258 -30.32,-67.617 -13,-103 22.39,-46.766 77.26,-67.254 124,-44"
       style="fill:none;stroke:#231f20;stroke-width:1.687;stroke-linecap:butt;stroke-linejoin:miter;stroke-miterlimit:3.8637;stroke-dasharray:none;stroke-opacity:1"
       transform="matrix(0.13333333,0,0,-0.13333333,0,237.6)" />
    <path
       id="path36"
       d="m 1876.25,628.25 -8,7 25,12 -9,-25 -8,6"
       style="fill:#231f20;fill-opacity:1;fill-rule:evenodd;stroke:none"
       transform="matrix(0.13333333,0,0,-0.13333333,0,237.6)" />
    <path
       id="path37"
       d="m 1943.25,617.25 81,48 36,-60 -81,-48 -36,60"
       style="fill:#d3d2d2;fill-opacity:1;fill-rule:nonzero;stroke:none"
       transform="matrix(0.13333333,0,0,-0.13333333,0,237.6)" />
    <path
       id="path38"
       d="m 1943.25,617.25 81,48 36,-60 -81,-48 z"
       style="fill:none;stroke:#231f20;stroke-width:2.5;stroke-linecap:butt;stroke-linejoin:miter;stroke-miterlimit:3.8637;stroke-dasharray:none;stroke-opacity:1"
       transform="matrix(0.13333333,0,0,-0.13333333,0,237.6)" />
    <path
       id="path39"
       d="m 1359.25,892.25 c 84.42,41.469 147.26,60.367 244,46 94.12,-13.773 133.48,-34.902 177,-73"
       style="fill:none;stroke:#231f20;stroke-width:2.5;stroke-linecap:butt;stroke-linejoin:miter;stroke-miterlimit:3.8637;stroke-dasharray:none;stroke-opacity:1"
       transform="matrix(0.13333333,0,0,-0.13333333,0,237.6)" />
    <path
       id="path40"
       d="m 1778.25,866.25 10,12 18,-37 -38,14 10,11"
       style="fill:#231f20;fill-opacity:1;fill-rule:evenodd;stroke:none"
       transform="matrix(0.13333333,0,0,-0.13333333,0,237.6)" />
  </g>
</svg>
