<?xml version="1.0" encoding="UTF-8" standalone="no"?>
<!-- Created with Inkscape (http://www.inkscape.org/) -->

<svg
   version="1.1"
   id="svg1"
   width="507.73334"
   height="314.56"
   viewBox="0 0 507.73334 314.56"
   sodipodi:docname="BEAM3S.EPS"
   xmlns:inkscape="http://www.inkscape.org/namespaces/inkscape"
   xmlns:sodipodi="http://sodipodi.sourceforge.net/DTD/sodipodi-0.dtd"
   xmlns="http://www.w3.org/2000/svg"
   xmlns:svg="http://www.w3.org/2000/svg">
  <defs
     id="defs1" />
  <sodipodi:namedview
     id="namedview1"
     pagecolor="#ffffff"
     bordercolor="#000000"
     borderopacity="0.25"
     inkscape:showpageshadow="2"
     inkscape:pageopacity="0.0"
     inkscape:pagecheckerboard="0"
     inkscape:deskcolor="#d1d1d1">
    <inkscape:page
       x="0"
       y="0"
       inkscape:label="1"
       id="page1"
       width="507.73334"
       height="314.56"
       margin="0"
       bleed="0" />
  </sodipodi:namedview>
  <g
     id="g1"
     inkscape:groupmode="layer"
     inkscape:label="1">
    <path
       id="path1"
       d="m 1701.25,1295.25 c 0.16,0.11 -45.11,-79.59 -44,-81 l 37,-60 85,52 -37,60 c -0.77,1.14 44.5,80.84 44,81 l -85,-52"
       style="fill:#d3d2d2;fill-opacity:1;fill-rule:nonzero;stroke:none"
       transform="matrix(0.13333333,0,0,-0.13333333,0,314.56)" />
    <path
       id="path2"
       d="m 1701.25,1295.25 c 0.16,0.11 -45.11,-79.59 -44,-81 l 37,-60 85,52 -37,60 c -0.77,1.14 44.5,80.84 44,81 z"
       style="fill:none;stroke:#231f20;stroke-width:5.424;stroke-linecap:butt;stroke-linejoin:miter;stroke-miterlimit:3.8637;stroke-dasharray:none;stroke-opacity:1"
       transform="matrix(0.13333333,0,0,-0.13333333,0,314.56)" />
    <path
       id="path3"
       d="m 1295.25,665.25 -134,223"
       style="fill:none;stroke:#231f20;stroke-width:2.5;stroke-linecap:butt;stroke-linejoin:miter;stroke-miterlimit:3.8637;stroke-dasharray:none;stroke-opacity:1"
       transform="matrix(0.13333333,0,0,-0.13333333,0,314.56)" />
    <path
       id="path4"
       d="m 1294.25,667.25 13,8 6,-40 -32,24 13,8"
       style="fill:#231f20;fill-opacity:1;fill-rule:evenodd;stroke:none"
       transform="matrix(0.13333333,0,0,-0.13333333,0,314.56)" />
    <path
       id="path5"
       d="m 1160.25,890.25 -223,-134"
       style="fill:none;stroke:#231f20;stroke-width:2.5;stroke-linecap:butt;stroke-linejoin:miter;stroke-miterlimit:3.8637;stroke-dasharray:none;stroke-opacity:1"
       transform="matrix(0.13333333,0,0,-0.13333333,0,314.56)" />
    <path
       id="path6"
       d="m 939.25,758.25 7,-13 -39,-7 24,32 8,-12"
       style="fill:#231f20;fill-opacity:1;fill-rule:evenodd;stroke:none"
       transform="matrix(0.13333333,0,0,-0.13333333,0,314.56)" />
    <path
       id="path7"
       d="m 1250.25,1055.25 -89,-167"
       style="fill:none;stroke:#231f20;stroke-width:2.5;stroke-linecap:butt;stroke-linejoin:miter;stroke-miterlimit:3.8637;stroke-dasharray:none;stroke-opacity:1"
       transform="matrix(0.13333333,0,0,-0.13333333,0,314.56)" />
    <path
       id="path8"
       d="m 1249.25,1053.25 -13,7 31,26 -5,-40 -13,7"
       style="fill:#231f20;fill-opacity:1;fill-rule:evenodd;stroke:none"
       transform="matrix(0.13333333,0,0,-0.13333333,0,314.56)" />
    <path
       id="path9"
       d="m 1456.25,393.25 -23,40"
       style="fill:none;stroke:#231f20;stroke-width:2.251;stroke-linecap:butt;stroke-linejoin:miter;stroke-miterlimit:3.8637;stroke-dasharray:20, 20;stroke-dashoffset:0;stroke-opacity:1"
       transform="matrix(0.13333333,0,0,-0.13333333,0,314.56)" />
    <path
       id="path10"
       d="m 1455.25,395.25 11,7 6,-36 -29,22 12,7"
       style="fill:#231f20;fill-opacity:1;fill-rule:evenodd;stroke:none"
       transform="matrix(0.13333333,0,0,-0.13333333,0,314.56)" />
    <path
       id="path11"
       d="m 714.25,624.25 -47,-28"
       style="fill:none;stroke:#231f20;stroke-width:2.251;stroke-linecap:butt;stroke-linejoin:miter;stroke-miterlimit:3.8637;stroke-dasharray:20, 20;stroke-dashoffset:0;stroke-opacity:1"
       transform="matrix(0.13333333,0,0,-0.13333333,0,314.56)" />
    <path
       id="path12"
       d="m 669.25,597.25 7,-12 -35,-6 21,29 7,-11"
       style="fill:#231f20;fill-opacity:1;fill-rule:evenodd;stroke:none"
       transform="matrix(0.13333333,0,0,-0.13333333,0,314.56)" />
    <path
       id="path13"
       d="m 1360.25,1260.25 -30,-54"
       style="fill:none;stroke:#231f20;stroke-width:2.251;stroke-linecap:butt;stroke-linejoin:miter;stroke-miterlimit:3.8637;stroke-dasharray:20, 20;stroke-dashoffset:0;stroke-opacity:1"
       transform="matrix(0.13333333,0,0,-0.13333333,0,314.56)" />
    <path
       id="path14"
       d="m 1359.25,1258.25 -12,6 28,23 -4,-36 -12,7"
       style="fill:#231f20;fill-opacity:1;fill-rule:evenodd;stroke:none"
       transform="matrix(0.13333333,0,0,-0.13333333,0,314.56)" />
    <path
       id="path15"
       d="m 873.25,719.25 -181,-109"
       style="fill:none;stroke:#231f20;stroke-width:2.5;stroke-linecap:butt;stroke-linejoin:miter;stroke-miterlimit:3.8637;stroke-dasharray:20, 20;stroke-dashoffset:0;stroke-opacity:1"
       transform="matrix(0.13333333,0,0,-0.13333333,0,314.56)" />
    <path
       id="path16"
       d="m 695.25,611.25 7,-13 -40,-6 25,32 8,-13"
       style="fill:#231f20;fill-opacity:1;fill-rule:evenodd;stroke:none"
       transform="matrix(0.13333333,0,0,-0.13333333,0,314.56)" />
    <path
       id="path17"
       d="m 1440.25,420.25 -117,195"
       style="fill:none;stroke:#231f20;stroke-width:2.5;stroke-linecap:butt;stroke-linejoin:miter;stroke-miterlimit:3.8637;stroke-dasharray:20, 20;stroke-dashoffset:0;stroke-opacity:1"
       transform="matrix(0.13333333,0,0,-0.13333333,0,314.56)" />
    <path
       id="path18"
       d="m 1438.25,422.25 13,8 7,-40 -32,24 12,8"
       style="fill:#231f20;fill-opacity:1;fill-rule:evenodd;stroke:none"
       transform="matrix(0.13333333,0,0,-0.13333333,0,314.56)" />
    <path
       id="path19"
       d="m 1346.25,1233.25 -68,-127"
       style="fill:none;stroke:#231f20;stroke-width:2.5;stroke-linecap:butt;stroke-linejoin:miter;stroke-miterlimit:3.8637;stroke-dasharray:20, 20;stroke-dashoffset:0;stroke-opacity:1"
       transform="matrix(0.13333333,0,0,-0.13333333,0,314.56)" />
    <path
       id="path20"
       d="m 1345.25,1231.25 -13,7 31,26 -5,-40 -13,7"
       style="fill:#231f20;fill-opacity:1;fill-rule:evenodd;stroke:none"
       transform="matrix(0.13333333,0,0,-0.13333333,0,314.56)" />
    <path
       id="path21"
       d="M 0.97402344,-3.7045703 C 1.2083984,-4.3022266 1.3958984,-4.4311328 1.9466797,-4.4194141 h 1.7460937 l -3.71484371,4.46484379 0.10546875,0.10546875 c 0.19921875,-0.15234375 0.3515625,-0.2109375 0.5390625,-0.2109375 0.31640625,0 0.70312496,0.15234375 1.26562496,0.50390625 0.5976563,0.375 0.9960938,0.52734375 1.3359375,0.52734375 0.609375,0 1.1367188,-0.43359375 1.1367188,-0.9140625 0,-0.2578125 -0.1757813,-0.43359375 -0.421875,-0.43359375 -0.2460938,0 -0.4101563,0.1640625 -0.4101563,0.38671875 0,0.09375 0.035156,0.19921875 0.1054688,0.3515625 0.035156,0.0703125 0.058594,0.140625 0.058594,0.17578125 0,0.10546875 -0.1289062,0.17578125 -0.3164062,0.17578125 -0.3046875,0 -0.4453125,-0.10546875 -0.84375,-0.59765625 -0.5273438,-0.6796875 -0.75,-0.83203125 -1.453125,-0.99609375 L 4.5599609,-5.0053516 V -5.1342578 H 1.1498047 L 0.78652344,-3.7631641 Z M 117.22695,-13.135234 c -0.10547,0.117187 -0.16406,0.1875 -0.26953,0.328125 -0.26953,0.363281 -0.42187,0.480468 -0.5625,0.480468 -0.16406,0 -0.28125,-0.152343 -0.36328,-0.492187 -0.0352,-0.128906 -0.0352,-0.152344 -0.0469,-0.1875 -0.29297,-1.230469 -0.4336,-1.78125 -0.4336,-1.957031 0.53906,-0.9375 0.96094,-1.453125 1.1836,-1.453125 0.0703,0 0.17578,0.03516 0.28125,0.09375 0.15234,0.08203 0.23437,0.105468 0.33984,0.105468 0.23437,0 0.41016,-0.175781 0.41016,-0.433593 0,-0.257813 -0.21094,-0.445313 -0.49219,-0.445313 -0.52735,0 -0.97266,0.433594 -1.81641,1.722656 l -0.1289,-0.65625 c -0.16407,-0.820312 -0.30469,-1.066406 -0.6211,-1.066406 -0.28125,0 -0.66797,0.105469 -1.40625,0.351563 -0.0703,0.02344 -0.0703,0.02344 -0.1289,0.04687 l 0.0469,0.1875 c 0.46875,-0.128907 0.55078,-0.140625 0.66797,-0.140625 0.30469,0 0.375,0.117187 0.53906,0.832031 l 0.35156,1.476562 -0.98437,1.40625 c -0.25781,0.351563 -0.48047,0.574219 -0.60938,0.574219 -0.082,0 -0.19921,-0.03516 -0.3164,-0.105469 -0.15235,-0.09375 -0.28125,-0.128906 -0.38672,-0.128906 -0.23438,0 -0.41016,0.1875 -0.41016,0.421875 0,0.316406 0.23438,0.503906 0.60938,0.503906 0.36328,0 0.51562,-0.105468 1.11328,-0.820312 0.31641,-0.398438 0.58594,-0.761719 1.07812,-1.417969 l 0.36329,1.441406 c 0.15234,0.621094 0.30468,0.796875 0.6914,0.796875 0.45703,0 0.77344,-0.28125 1.46485,-1.359375 z M 32.274805,-96.903789 c 0.152343,-0.03516 0.246093,-0.04687 0.375,-0.04687 0.492187,0 0.726562,0.199219 0.960937,0.84375 0.328125,0.890625 0.949219,3.457031 0.949219,3.914062 0,0.1875 -0.08203,0.386719 -0.257813,0.609375 -0.328125,0.445313 -0.609375,0.785157 -0.75,0.9375 -0.257812,0.257813 -0.386718,0.363282 -0.539062,0.363282 -0.08203,0 -0.152344,-0.03516 -0.292969,-0.140625 -0.175781,-0.140625 -0.292969,-0.199219 -0.445312,-0.199219 -0.257813,0 -0.46875,0.199219 -0.46875,0.46875 0,0.316406 0.257812,0.527344 0.621093,0.527344 0.761719,0 2.320313,-1.792969 3.632813,-4.171875 0.820312,-1.476563 1.148437,-2.34375 1.148437,-2.929688 0,-0.363281 -0.292968,-0.667969 -0.65625,-0.667969 -0.28125,0 -0.46875,0.1875 -0.46875,0.445313 0,0.199219 0.09375,0.316406 0.339844,0.46875 0.222656,0.140625 0.304688,0.246094 0.304688,0.410156 0,0.480469 -0.433594,1.40625 -1.464844,3.105469 l -0.234375,-1.394531 c -0.1875,-1.066407 -0.855469,-3.035157 -1.03125,-3.035157 h -0.04687 c -0.02344,0.01172 -0.05859,0.01172 -0.117188,0.01172 -0.09375,0.01172 -0.539062,0.09375 -1.171875,0.210938 -0.05859,0.01172 -0.210937,0.04687 -0.386718,0.07031 z m 0,0"
       style="fill:#231f20;fill-opacity:1;fill-rule:nonzero;stroke:none"
       aria-label="z&#10;x&#10;y"
       transform="matrix(1.3333333,0,0,1.3333333,4.0333333,305.19333)" />
    <path
       id="path22"
       d="m 485.25,310.25 -372,-289"
       style="fill:none;stroke:#231f20;stroke-width:2.5;stroke-linecap:butt;stroke-linejoin:miter;stroke-miterlimit:3.8637;stroke-dasharray:none;stroke-opacity:1"
       transform="matrix(0.13333333,0,0,-0.13333333,0,314.56)" />
    <path
       id="path23"
       d="m 115.25,23.25 10,-12 -39,-11 20,35 9,-12"
       style="fill:#231f20;fill-opacity:1;fill-rule:evenodd;stroke:none"
       transform="matrix(0.13333333,0,0,-0.13333333,0,314.56)" />
    <path
       id="path24"
       d="m 485.25,1024.25 v -714"
       style="fill:none;stroke:#231f20;stroke-width:2.5;stroke-linecap:butt;stroke-linejoin:miter;stroke-miterlimit:3.8637;stroke-dasharray:none;stroke-opacity:1"
       transform="matrix(0.13333333,0,0,-0.13333333,0,314.56)" />
    <path
       id="path25"
       d="m 485.25,1022.25 h -15 l 15,37 15,-37 h -15"
       style="fill:#231f20;fill-opacity:1;fill-rule:evenodd;stroke:none"
       transform="matrix(0.13333333,0,0,-0.13333333,0,314.56)" />
    <path
       id="path26"
       d="m 485.25,310.25 h 714"
       style="fill:none;stroke:#231f20;stroke-width:2.5;stroke-linecap:butt;stroke-linejoin:miter;stroke-miterlimit:3.8637;stroke-dasharray:none;stroke-opacity:1"
       transform="matrix(0.13333333,0,0,-0.13333333,0,314.56)" />
    <path
       id="path27"
       d="m 1197.25,310.25 v 15 l 37,-15 -37,-15 v 15"
       style="fill:#231f20;fill-opacity:1;fill-rule:evenodd;stroke:none"
       transform="matrix(0.13333333,0,0,-0.13333333,0,314.56)" />
    <path
       id="path28"
       d="m 2435.25,1975.25 135,-223"
       style="fill:none;stroke:#231f20;stroke-width:2.5;stroke-linecap:butt;stroke-linejoin:miter;stroke-miterlimit:3.8637;stroke-dasharray:none;stroke-opacity:1"
       transform="matrix(0.13333333,0,0,-0.13333333,0,314.56)" />
    <path
       id="path29"
       d="m 2437.25,1973.25 -13,-7 -7,39 33,-24 -13,-8"
       style="fill:#231f20;fill-opacity:1;fill-rule:evenodd;stroke:none"
       transform="matrix(0.13333333,0,0,-0.13333333,0,314.56)" />
    <path
       id="path30"
       d="m 2571.25,1750.25 223,134"
       style="fill:none;stroke:#231f20;stroke-width:2.5;stroke-linecap:butt;stroke-linejoin:miter;stroke-miterlimit:3.8637;stroke-dasharray:none;stroke-opacity:1"
       transform="matrix(0.13333333,0,0,-0.13333333,0,314.56)" />
    <path
       id="path31"
       d="m 2792.25,1883.25 -8,13 40,6 -24,-32 -8,13"
       style="fill:#231f20;fill-opacity:1;fill-rule:evenodd;stroke:none"
       transform="matrix(0.13333333,0,0,-0.13333333,0,314.56)" />
    <path
       id="path32"
       d="m 2480.25,1585.25 90,167"
       style="fill:none;stroke:#231f20;stroke-width:2.5;stroke-linecap:butt;stroke-linejoin:miter;stroke-miterlimit:3.8637;stroke-dasharray:none;stroke-opacity:1"
       transform="matrix(0.13333333,0,0,-0.13333333,0,314.56)" />
    <path
       id="path33"
       d="m 2481.25,1587.25 14,-7 -31,-26 4,40 13,-7"
       style="fill:#231f20;fill-opacity:1;fill-rule:evenodd;stroke:none"
       transform="matrix(0.13333333,0,0,-0.13333333,0,314.56)" />
    <path
       id="path34"
       d="m 2275.25,2248.25 23,-41"
       style="fill:none;stroke:#231f20;stroke-width:2.251;stroke-linecap:butt;stroke-linejoin:miter;stroke-miterlimit:3.8637;stroke-dasharray:20, 20;stroke-dashoffset:0;stroke-opacity:1"
       transform="matrix(0.13333333,0,0,-0.13333333,0,314.56)" />
    <path
       id="path35"
       d="m 2276.25,2246.25 -12,-7 -5,36 29,-23 -12,-6"
       style="fill:#231f20;fill-opacity:1;fill-rule:evenodd;stroke:none"
       transform="matrix(0.13333333,0,0,-0.13333333,0,314.56)" />
    <path
       id="path36"
       d="m 3017.25,2016.25 46,29"
       style="fill:none;stroke:#231f20;stroke-width:2.251;stroke-linecap:butt;stroke-linejoin:miter;stroke-miterlimit:3.8637;stroke-dasharray:20, 20;stroke-dashoffset:0;stroke-opacity:1"
       transform="matrix(0.13333333,0,0,-0.13333333,0,314.56)" />
    <path
       id="path37"
       d="m 3061.25,2044.25 -7,11 36,7 -21,-30 -8,12"
       style="fill:#231f20;fill-opacity:1;fill-rule:evenodd;stroke:none"
       transform="matrix(0.13333333,0,0,-0.13333333,0,314.56)" />
    <path
       id="path38"
       d="m 2370.25,1381.25 31,53"
       style="fill:none;stroke:#231f20;stroke-width:2.251;stroke-linecap:butt;stroke-linejoin:miter;stroke-miterlimit:3.8637;stroke-dasharray:20, 20;stroke-dashoffset:0;stroke-opacity:1"
       transform="matrix(0.13333333,0,0,-0.13333333,0,314.56)" />
    <path
       id="path39"
       d="m 2372.25,1383.25 11,-7 -28,-23 5,36 12,-6"
       style="fill:#231f20;fill-opacity:1;fill-rule:evenodd;stroke:none"
       transform="matrix(0.13333333,0,0,-0.13333333,0,314.56)" />
    <path
       id="path40"
       d="m 2857.25,1922.25 181,108"
       style="fill:none;stroke:#231f20;stroke-width:2.5;stroke-linecap:butt;stroke-linejoin:miter;stroke-miterlimit:3.8637;stroke-dasharray:20, 20;stroke-dashoffset:0;stroke-opacity:1"
       transform="matrix(0.13333333,0,0,-0.13333333,0,314.56)" />
    <path
       id="path41"
       d="m 3036.25,2029.25 -8,13 40,6 -24,-32 -8,13"
       style="fill:#231f20;fill-opacity:1;fill-rule:evenodd;stroke:none"
       transform="matrix(0.13333333,0,0,-0.13333333,0,314.56)" />
    <path
       id="path42"
       d="m 2291.25,2220.25 117,-194"
       style="fill:none;stroke:#231f20;stroke-width:2.5;stroke-linecap:butt;stroke-linejoin:miter;stroke-miterlimit:3.8637;stroke-dasharray:20, 20;stroke-dashoffset:0;stroke-opacity:1"
       transform="matrix(0.13333333,0,0,-0.13333333,0,314.56)" />
    <path
       id="path43"
       d="m 2292.25,2218.25 -13,-7 -6,39 32,-24 -13,-8"
       style="fill:#231f20;fill-opacity:1;fill-rule:evenodd;stroke:none"
       transform="matrix(0.13333333,0,0,-0.13333333,0,314.56)" />
    <path
       id="path44"
       d="m 2384.25,1408.25 68,126"
       style="fill:none;stroke:#231f20;stroke-width:2.5;stroke-linecap:butt;stroke-linejoin:miter;stroke-miterlimit:3.8637;stroke-dasharray:20, 20;stroke-dashoffset:0;stroke-opacity:1"
       transform="matrix(0.13333333,0,0,-0.13333333,0,314.56)" />
    <path
       id="path45"
       d="m 2386.25,1410.25 13,-7 -31,-26 4,40 14,-7"
       style="fill:#231f20;fill-opacity:1;fill-rule:evenodd;stroke:none"
       transform="matrix(0.13333333,0,0,-0.13333333,0,314.56)" />
    <path
       id="path46"
       d="m 1069.25,932.25 196,113 70,-123 -195,-113 -71,123"
       style="fill:#ffffff;fill-opacity:1;fill-rule:nonzero;stroke:none"
       transform="matrix(0.13333333,0,0,-0.13333333,0,314.56)" />
    <path
       id="path47"
       d="m 1114.25,890.25 1414,850 37,-61 -1415,-850 z"
       style="fill:none;stroke:#231f20;stroke-width:5;stroke-linecap:butt;stroke-linejoin:miter;stroke-miterlimit:3.8637;stroke-dasharray:none;stroke-opacity:1"
       transform="matrix(0.13333333,0,0,-0.13333333,0,314.56)" />
    <path
       id="path48"
       d="m 1114.25,890.25 46,81 1415,850"
       style="fill:none;stroke:#231f20;stroke-width:5;stroke-linecap:butt;stroke-linejoin:miter;stroke-miterlimit:3.8637;stroke-dasharray:none;stroke-opacity:1"
       transform="matrix(0.13333333,0,0,-0.13333333,0,314.56)" />
    <path
       id="path49"
       d="m 2530.25,1743.25 45,76 c 0.55,1.26 1.95,1.48 3,0 l 33,-57 c 1.21,-0.91 1.09,-3.28 0,-5 l -44,-76 c -0.99,-1.2 -2.38,-1.43 -3,0 l -34,57 c -0.64,0.96 -0.53,3.33 0,5 z"
       style="fill:none;stroke:#231f20;stroke-width:5.424;stroke-linecap:butt;stroke-linejoin:miter;stroke-miterlimit:3.8637;stroke-dasharray:none;stroke-opacity:1"
       transform="matrix(0.13333333,0,0,-0.13333333,0,314.56)" />
    <path
       id="path50"
       d="M 5.0621094,-5.2264453 H 0.80820313 l -0.33984375,1.2304687 0.15234375,0.035156 C 1.0425781,-4.8280078 1.3003906,-4.9569141 2.5191406,-4.9451953 l -1.1484375,4.23046874 c -0.1289062,0.421875 -0.328125,0.55078125 -0.85546872,0.5859375 V 1.171875e-4 H 2.8355469 V -0.12878906 c -0.6796875,-0.0585938 -0.7148438,-0.0703125 -0.7148438,-0.36328125 0,-0.10546875 0.011719,-0.17578125 0.09375,-0.46875 L 3.3277344,-4.9451953 h 0.4453125 c 0.5742187,0 0.8320312,0.1992187 0.8320312,0.6445312 0,0.1054688 -0.011719,0.2226563 -0.023437,0.3632813 l 0.1289063,0.011719 z m 5.3173826,4.28906249 c -0.4335936,0.55078125 -0.5273436,0.6328125 -0.6562498,0.6328125 -0.070312,0 -0.1289063,-0.0585938 -0.1289063,-0.12890625 0,-0.0585938 0.035156,-0.2109375 0.1171875,-0.50390625 L 10.168555,-2.5897266 c 0.03516,-0.1640625 0.07031,-0.3398437 0.07031,-0.4570312 0,-0.2929688 -0.222656,-0.4804688 -0.5273436,-0.4804688 -0.515625,0 -1.0195312,0.4804688 -1.8398437,1.7578125 l 0.5273437,-1.7460937 -0.023437,-0.011719 c -0.421875,0.082031 -0.5976562,0.1171875 -1.2890625,0.2460938 v 0.1289062 c 0.4101563,0.011719 0.5039063,0.058594 0.5039063,0.2109375 0,0.046875 0,0.1054688 -0.011719,0.140625 L 6.8169922,1.171875e-4 H 7.4146484 C 7.7896484,-1.2655078 7.8599609,-1.4412891 8.2115234,-1.9803516 c 0.4804688,-0.7382812 0.890625,-1.1367187 1.1835938,-1.1367187 0.1171875,0 0.1992187,0.082031 0.1992187,0.2226562 0,0.1054688 -0.058594,0.3632813 -0.1171875,0.609375 l -0.3515625,1.32421879 c -0.1054687,0.421875 -0.1289062,0.515625 -0.1289062,0.59765625 0,0.3046875 0.1171875,0.43359375 0.375,0.43359375 0.3632812,0 0.5625,-0.1640625 1.1250003,-0.90234375 z M -67.816797,-36.527227 h -1.335937 l -2.683594,3.949219 -0.445313,-3.949219 h -1.441406 v 0.128907 c 0.398438,0.02344 0.585938,0.105468 0.585938,0.292968 0,0.07031 -0.03516,0.1875 -0.08203,0.328125 -0.01172,0.03516 -0.03516,0.117188 -0.07031,0.246094 l -0.02344,0.08203 -0.84375,2.976563 c -0.257812,0.832031 -0.375,0.996094 -0.785156,1.042969 v 0.128906 h 1.582031 v -0.128906 c -0.410156,-0.03516 -0.574218,-0.128907 -0.574218,-0.351563 0,-0.08203 0.03516,-0.28125 0.08203,-0.421875 l 0.9375,-3.46875 0.492187,4.371094 h 0.128907 l 3.023437,-4.488281 -1.03125,3.761718 c -0.128906,0.421875 -0.292969,0.539063 -0.808594,0.597657 v 0.128906 h 2.179688 v -0.128906 c -0.539063,-0.04687 -0.609375,-0.09375 -0.609375,-0.339844 0,-0.140625 0.01172,-0.246094 0.08203,-0.492188 l 0.984375,-3.550781 c 0.152344,-0.480469 0.1875,-0.515625 0.65625,-0.585937 z m 3.134766,5.027344 c 0.09375,-0.02344 0.164062,-0.03516 0.246094,-0.03516 0.328125,0 0.480468,0.128906 0.644531,0.5625 0.210937,0.585937 0.632812,2.308594 0.632812,2.613281 0,0.117188 -0.05859,0.246094 -0.164062,0.398438 -0.222656,0.304687 -0.410156,0.527343 -0.503906,0.632812 -0.175782,0.175781 -0.257813,0.234375 -0.363282,0.234375 -0.05859,0 -0.105468,-0.02344 -0.1875,-0.08203 -0.128906,-0.105469 -0.210937,-0.140625 -0.304687,-0.140625 -0.175781,0 -0.304688,0.140625 -0.304688,0.316406 0,0.199219 0.164063,0.351563 0.398438,0.351563 0.515625,0 1.558594,-1.195313 2.425781,-2.789063 0.550781,-0.984375 0.773438,-1.558594 0.773438,-1.957031 0,-0.234375 -0.199219,-0.433594 -0.445313,-0.433594 -0.175781,0 -0.304687,0.117188 -0.304687,0.292969 0,0.128906 0.05859,0.210937 0.222656,0.316406 0.152344,0.08203 0.210937,0.152344 0.210937,0.269531 0,0.316407 -0.292968,0.9375 -0.984375,2.074219 l -0.152343,-0.925781 c -0.128907,-0.714844 -0.574219,-2.027344 -0.691407,-2.027344 h -0.03516 c -0.01172,0 -0.03516,0 -0.07031,0 -0.05859,0.01172 -0.363282,0.05859 -0.785157,0.140625 -0.03516,0.01172 -0.140625,0.03516 -0.257812,0.04687 z m 4.417969,4.230469 c 0.679687,-0.375 1.042968,-0.820313 1.042968,-1.265625 0,-0.328125 -0.199218,-0.574219 -0.457031,-0.574219 -0.234375,0 -0.410156,0.164063 -0.410156,0.363281 0,0.152344 0.04687,0.234375 0.199219,0.375 0.117187,0.105469 0.152343,0.175782 0.152343,0.257813 0,0.210937 -0.175781,0.433594 -0.597656,0.703125 z m 5.642578,-1.96875 c -0.433594,0.550781 -0.527344,0.632812 -0.65625,0.632812 -0.07031,0 -0.128907,-0.05859 -0.128907,-0.128906 0,-0.05859 0.03516,-0.210937 0.117188,-0.503906 l 0.457031,-1.652344 c 0.03516,-0.164062 0.07031,-0.339844 0.07031,-0.457031 0,-0.292969 -0.222657,-0.480469 -0.527344,-0.480469 -0.515625,0 -1.019531,0.480469 -1.839844,1.757813 l 0.527344,-1.746094 -0.02344,-0.01172 c -0.421875,0.08203 -0.597656,0.117188 -1.289062,0.246094 v 0.128906 c 0.410156,0.01172 0.503906,0.05859 0.503906,0.210938 0,0.04687 0,0.105468 -0.01172,0.140625 l -0.761718,2.800781 h 0.597656 c 0.375,-1.265625 0.445312,-1.441406 0.796875,-1.980469 0.480469,-0.738281 0.890625,-1.136719 1.183594,-1.136719 0.117187,0 0.199218,0.08203 0.199218,0.222657 0,0.105468 -0.05859,0.363281 -0.117187,0.609375 l -0.351563,1.324218 c -0.105468,0.421875 -0.128906,0.515625 -0.128906,0.597657 0,0.304687 0.117188,0.433593 0.375,0.433593 0.363281,0 0.5625,-0.164062 1.125,-0.902343 z m -4.69336,85.412109 h -1.335937 l -2.683594,3.949219 -0.445312,-3.949219 h -1.441407 v 0.128907 c 0.398438,0.02344 0.585938,0.105468 0.585938,0.292968 0,0.07031 -0.03516,0.1875 -0.08203,0.328125 -0.01172,0.03516 -0.03516,0.117188 -0.07031,0.246094 l -0.02344,0.08203 -0.84375,2.976563 c -0.257813,0.832031 -0.375,0.996094 -0.785157,1.042969 v 0.128906 h 1.582032 v -0.128906 c -0.410157,-0.03516 -0.574219,-0.128907 -0.574219,-0.351563 0,-0.08203 0.03516,-0.28125 0.08203,-0.421875 l 0.9375,-3.46875 0.492188,4.371094 h 0.128906 l 3.023437,-4.488281 -1.03125,3.761718 c -0.128906,0.421875 -0.292968,0.539063 -0.808593,0.597657 v 0.128906 h 2.179687 v -0.128906 c -0.539062,-0.04687 -0.609375,-0.09375 -0.609375,-0.339844 0,-0.140625 0.01172,-0.246094 0.08203,-0.492188 l 0.984375,-3.550781 c 0.152344,-0.480469 0.1875,-0.515625 0.65625,-0.585937 z m 3.65918,5.753907 c 0.164062,-0.398438 0.28125,-0.480469 0.65625,-0.46875 h 1.160156 l -2.472656,2.976562 0.07031,0.07031 c 0.128907,-0.105469 0.234375,-0.140625 0.363282,-0.140625 0.199218,0 0.457031,0.09375 0.832031,0.328125 0.398437,0.246093 0.667969,0.351562 0.902344,0.351562 0.398437,0 0.75,-0.28125 0.75,-0.609375 0,-0.175781 -0.117188,-0.28125 -0.28125,-0.28125 -0.164063,0 -0.269532,0.105469 -0.269532,0.257813 0,0.05859 0.02344,0.128906 0.07031,0.222656 0.02344,0.05859 0.03516,0.105469 0.03516,0.128906 0,0.07031 -0.08203,0.117188 -0.210937,0.117188 -0.199219,0 -0.292969,-0.07031 -0.5625,-0.398438 -0.351563,-0.457031 -0.503907,-0.5625 -0.972657,-0.667969 l 2.332032,-2.753906 v -0.08203 h -2.273438 l -0.257812,0.914062 z m 3.290039,3.503906 c 0.679688,-0.375 1.042969,-0.820313 1.042969,-1.265625 0,-0.328125 -0.199219,-0.574219 -0.457031,-0.574219 -0.234375,0 -0.410157,0.164063 -0.410157,0.363281 0,0.152344 0.04687,0.234375 0.199219,0.375 0.117188,0.105469 0.152344,0.175782 0.152344,0.257813 0,0.210937 -0.175781,0.433594 -0.597656,0.703125 z m 5.645508,-1.96875 c -0.433594,0.550781 -0.527344,0.632812 -0.65625,0.632812 -0.07031,0 -0.128906,-0.05859 -0.128906,-0.128906 0,-0.05859 0.03516,-0.210937 0.117187,-0.503906 l 0.457031,-1.652344 c 0.03516,-0.164062 0.07031,-0.339844 0.07031,-0.457031 0,-0.292969 -0.222656,-0.480469 -0.527344,-0.480469 -0.515625,0 -1.019531,0.480469 -1.839844,1.757813 l 0.527344,-1.746094 -0.02344,-0.01172 c -0.421875,0.08203 -0.597657,0.117188 -1.289063,0.246094 v 0.128906 c 0.410156,0.01172 0.503906,0.05859 0.503906,0.210938 0,0.04687 0,0.105468 -0.01172,0.140625 l -0.761719,2.800781 h 0.597656 c 0.375,-1.265625 0.445313,-1.441406 0.796875,-1.980469 0.480469,-0.738281 0.890625,-1.136719 1.183594,-1.136719 0.117187,0 0.199219,0.08203 0.199219,0.222657 0,0.105468 -0.05859,0.363281 -0.117188,0.609375 l -0.351562,1.324218 c -0.105469,0.421875 -0.128907,0.515625 -0.128907,0.597657 0,0.304687 0.117188,0.433593 0.375,0.433593 0.363282,0 0.5625,-0.164062 1.125,-0.902343 z M -21.574609,9.5743359 h -1.59375 v 0.1289063 c 0.457031,0.035156 0.550781,0.1171875 0.550781,0.4101558 0,0.09375 -0.01172,0.175782 -0.07031,0.351563 0,0.02344 -0.01172,0.05859 -0.01172,0.05859 l -0.820313,3.046875 -1.664062,-3.9960941 h -1.289063 v 0.1289063 c 0.375,0.035156 0.539063,0.140625 0.691406,0.4453128 l -0.949218,3.339843 c -0.304688,1.019532 -0.375,1.125 -0.832032,1.183594 v 0.128906 h 1.59375 v -0.128906 c -0.421875,-0.03516 -0.5625,-0.117187 -0.5625,-0.339844 0,-0.105468 0.02344,-0.269531 0.07031,-0.433593 l 0.914062,-3.375 1.839844,4.394531 h 0.140625 l 1.160156,-4.019531 c 0.292969,-1.0429691 0.328125,-1.0898441 0.832032,-1.1953128 z m 5.853515,7.2890621 c -0.433593,0.550782 -0.527343,0.632813 -0.65625,0.632813 -0.07031,0 -0.128906,-0.05859 -0.128906,-0.128906 0,-0.05859 0.03516,-0.210938 0.117188,-0.503907 l 0.457031,-1.652343 c 0.03516,-0.164063 0.07031,-0.339844 0.07031,-0.457032 0,-0.292968 -0.222656,-0.480468 -0.527343,-0.480468 -0.515625,0 -1.019532,0.480468 -1.839844,1.757812 l 0.527344,-1.746094 -0.02344,-0.01172 c -0.421875,0.08203 -0.597656,0.117187 -1.289062,0.246093 v 0.128907 c 0.410156,0.01172 0.503906,0.05859 0.503906,0.210937 0,0.04687 0,0.105469 -0.01172,0.140625 l -0.761719,2.800781 h 0.597657 c 0.375,-1.265625 0.445312,-1.441406 0.796875,-1.980468 0.480468,-0.738282 0.890625,-1.136719 1.183593,-1.136719 0.117188,0 0.199219,0.08203 0.199219,0.222656 0,0.105469 -0.05859,0.363281 -0.117187,0.609375 L -16.975,16.839961 c -0.105469,0.421875 -0.128906,0.515625 -0.128906,0.597656 0,0.304688 0.117187,0.433594 0.375,0.433594 0.363281,0 0.5625,-0.164063 1.125,-0.902344 z m -33.870117,20.90918 h -1.488281 v 0.128906 c 0.363281,0.03516 0.503906,0.117188 0.503906,0.269532 0,0.152343 -0.152344,0.492187 -0.421875,0.949218 l -1.640625,2.859375 -0.527344,-3.550781 c -0.01172,-0.03516 -0.01172,-0.07031 -0.01172,-0.117187 0,-0.269532 0.105468,-0.351563 0.621093,-0.410157 v -0.128906 h -1.933593 v 0.128906 c 0.445312,0.05859 0.46875,0.07031 0.632812,1.078125 l 0.679688,4.160157 h 0.152343 l 2.988282,-4.921875 c 0.128906,-0.210938 0.257812,-0.304688 0.445312,-0.316407 z m 2.43457,5.753906 c 0.164063,-0.398437 0.28125,-0.480468 0.65625,-0.46875 h 1.160157 l -2.472657,2.976563 0.07031,0.07031 c 0.128906,-0.105468 0.234375,-0.140625 0.363281,-0.140625 0.199219,0 0.457031,0.09375 0.832031,0.328125 0.398438,0.246094 0.667969,0.351563 0.902344,0.351563 0.398438,0 0.75,-0.28125 0.75,-0.609375 0,-0.175781 -0.117187,-0.28125 -0.28125,-0.28125 -0.164062,0 -0.269531,0.105469 -0.269531,0.257812 0,0.05859 0.02344,0.128907 0.07031,0.222657 0.02344,0.05859 0.03516,0.105468 0.03516,0.128906 0,0.07031 -0.08203,0.117187 -0.210938,0.117187 -0.199219,0 -0.292969,-0.07031 -0.5625,-0.398437 -0.351562,-0.457031 -0.503906,-0.5625 -0.972656,-0.667969 l 2.332031,-2.753906 v -0.08203 h -2.273437 l -0.257813,0.914062 z m 3.292969,3.503907 c 0.679688,-0.375 1.042969,-0.820313 1.042969,-1.265625 0,-0.328125 -0.199219,-0.574219 -0.457031,-0.574219 -0.234375,0 -0.410157,0.164062 -0.410157,0.363281 0,0.152344 0.04687,0.234375 0.199219,0.375 0.117188,0.105469 0.152344,0.175781 0.152344,0.257813 0,0.210937 -0.175781,0.433593 -0.597656,0.703125 z m 5.642578,-1.96875 c -0.433593,0.550781 -0.527343,0.632812 -0.65625,0.632812 -0.07031,0 -0.128906,-0.05859 -0.128906,-0.128906 0,-0.05859 0.03516,-0.210938 0.117188,-0.503906 l 0.457031,-1.652344 c 0.03516,-0.164063 0.07031,-0.339844 0.07031,-0.457031 0,-0.292969 -0.222656,-0.480469 -0.527343,-0.480469 -0.515625,0 -1.019532,0.480469 -1.839844,1.757812 l 0.527344,-1.746093 -0.02344,-0.01172 c -0.421875,0.08203 -0.597656,0.117187 -1.289062,0.246094 v 0.128906 c 0.410156,0.01172 0.503906,0.05859 0.503906,0.210937 0,0.04687 0,0.105469 -0.01172,0.140625 l -0.761719,2.800782 h 0.597657 c 0.375,-1.265625 0.445312,-1.441407 0.796875,-1.980469 0.480468,-0.738281 0.890625,-1.136719 1.183593,-1.136719 0.117188,0 0.199219,0.08203 0.199219,0.222656 0,0.105469 -0.05859,0.363282 -0.117187,0.609375 l -0.351558,1.32422 c -0.105469,0.421875 -0.128906,0.515625 -0.128906,0.597656 0,0.304688 0.117187,0.433594 0.375,0.433594 0.363281,0 0.5625,-0.164062 1.125,-0.902344 z M -148.71426,142.97473 h -1.33594 l -2.68359,3.94922 -0.44531,-3.94922 h -1.44141 v 0.1289 c 0.39844,0.0234 0.58594,0.10547 0.58594,0.29297 0,0.0703 -0.0352,0.1875 -0.082,0.32813 -0.0117,0.0352 -0.0352,0.11718 -0.0703,0.24609 l -0.0234,0.082 -0.84375,2.97656 c -0.25781,0.83204 -0.375,0.9961 -0.78516,1.04297 v 0.12891 h 1.58203 v -0.12891 c -0.41015,-0.0352 -0.57422,-0.1289 -0.57422,-0.35156 0,-0.082 0.0352,-0.28125 0.082,-0.42187 l 0.9375,-3.46875 0.49218,4.37109 h 0.12891 l 3.02344,-4.48828 -1.03125,3.76172 c -0.12891,0.42187 -0.29297,0.53906 -0.8086,0.59765 v 0.12891 h 2.17969 v -0.12891 c -0.53906,-0.0469 -0.60937,-0.0937 -0.60937,-0.33984 0,-0.14063 0.0117,-0.24609 0.082,-0.49219 l 0.98437,-3.55078 c 0.15235,-0.48047 0.1875,-0.51562 0.65625,-0.58594 z m 3.13184,5.02734 c 0.0937,-0.0234 0.16406,-0.0352 0.24609,-0.0352 0.32813,0 0.48047,0.12891 0.64453,0.5625 0.21094,0.58594 0.63282,2.3086 0.63282,2.61329 0,0.11718 -0.0586,0.24609 -0.16407,0.39843 -0.22265,0.30469 -0.41015,0.52735 -0.5039,0.63282 -0.17578,0.17578 -0.25782,0.23437 -0.36328,0.23437 -0.0586,0 -0.10547,-0.0234 -0.1875,-0.082 -0.12891,-0.10547 -0.21094,-0.14063 -0.30469,-0.14063 -0.17578,0 -0.30469,0.14063 -0.30469,0.31641 0,0.19922 0.16406,0.35156 0.39844,0.35156 0.51562,0 1.55859,-1.19531 2.42578,-2.78906 0.55078,-0.98437 0.77344,-1.55859 0.77344,-1.95703 0,-0.23438 -0.19922,-0.43359 -0.44532,-0.43359 -0.17578,0 -0.30468,0.11718 -0.30468,0.29296 0,0.12891 0.0586,0.21094 0.22265,0.31641 0.15235,0.082 0.21094,0.15234 0.21094,0.26953 0,0.31641 -0.29297,0.9375 -0.98437,2.07422 l -0.15235,-0.92578 c -0.1289,-0.71484 -0.57422,-2.02734 -0.6914,-2.02734 h -0.0352 c -0.0117,0 -0.0352,0 -0.0703,0 -0.0586,0.0117 -0.36328,0.0586 -0.78516,0.14062 -0.0352,0.0117 -0.14062,0.0352 -0.25781,0.0469 z m 4.41797,4.23047 c 0.67968,-0.375 1.04297,-0.82031 1.04297,-1.26563 0,-0.32812 -0.19922,-0.57421 -0.45704,-0.57421 -0.23437,0 -0.41015,0.16406 -0.41015,0.36328 0,0.15234 0.0469,0.23437 0.19922,0.375 0.11718,0.10547 0.15234,0.17578 0.15234,0.25781 0,0.21094 -0.17578,0.43359 -0.59766,0.70312 z m 2.35254,-1.03125 h 2.23828 v -0.11719 h -0.14063 c -0.38672,0 -0.55078,-0.0703 -0.55078,-0.25781 0,-0.0703 0.0234,-0.1875 0.0937,-0.42188 0.0234,-0.0469 0.0352,-0.0937 0.0586,-0.17578 l 1.13672,-4.14843 c 0.0469,-0.14063 0.0469,-0.19922 0.0469,-0.23438 0,-0.0352 -0.0117,-0.0586 -0.0352,-0.0586 0,0 -0.22265,0.0469 -0.65625,0.1289 l -0.72656,0.15235 c -0.0117,0 -0.0703,0.0117 -0.16406,0.0234 v 0.11719 l 0.45703,-0.0117 c 0.1875,-0.0117 0.30469,0.0937 0.30469,0.2461 0,0.0586 -0.0117,0.11718 -0.0586,0.28125 l -1.10156,3.9375 c -0.0937,0.29297 -0.26953,0.375 -0.90234,0.42187 z m -105.82618,-30.8291 h -4.2539 l -0.33985,1.23047 0.15235,0.0352 c 0.42187,-0.86719 0.67969,-0.99609 1.89844,-0.98437 l -1.14844,4.23047 c -0.12891,0.42187 -0.32813,0.55078 -0.85547,0.58593 v 0.12891 h 2.32031 v -0.12891 c -0.67969,-0.0586 -0.71484,-0.0703 -0.71484,-0.36328 0,-0.10547 0.0117,-0.17578 0.0937,-0.46875 l 1.11328,-3.98437 h 0.44531 c 0.57422,0 0.83203,0.19922 0.83203,0.64453 0,0.10547 -0.0117,0.22265 -0.0234,0.36328 l 0.1289,0.0117 z m 2.02442,5.22656 h 2.23828 v -0.11719 h -0.14063 c -0.38671,0 -0.55078,-0.0703 -0.55078,-0.25781 0,-0.0703 0.0234,-0.1875 0.0937,-0.42188 0.0234,-0.0469 0.0352,-0.0937 0.0586,-0.17578 l 1.13672,-4.14843 c 0.0469,-0.14063 0.0469,-0.19922 0.0469,-0.23438 0,-0.0352 -0.0117,-0.0586 -0.0352,-0.0586 0,0 -0.22265,0.0469 -0.65625,0.1289 l -0.72656,0.15235 c -0.0117,0 -0.0703,0.0117 -0.16406,0.0234 v 0.11719 l 0.45703,-0.0117 c 0.1875,-0.0117 0.30469,0.0937 0.30469,0.2461 0,0.0586 -0.0117,0.11718 -0.0586,0.28125 l -1.10156,3.9375 c -0.0937,0.29297 -0.26953,0.375 -0.90234,0.42187 z m 55.29785,-69.225586 h -1.33594 l -2.68359,3.949219 -0.44531,-3.949219 h -1.44141 v 0.128906 c 0.39844,0.02344 0.58594,0.105469 0.58594,0.292969 0,0.07031 -0.0352,0.1875 -0.082,0.328125 -0.0117,0.03516 -0.0352,0.117188 -0.0703,0.246094 l -0.0234,0.08203 -0.84375,2.976563 c -0.25782,0.832031 -0.375,0.996093 -0.78516,1.042968 v 0.128907 h 1.58203 V 61.47082 c -0.41016,-0.03516 -0.57422,-0.128906 -0.57422,-0.351562 0,-0.08203 0.0352,-0.28125 0.082,-0.421875 l 0.9375,-3.46875 0.49219,4.371094 h 0.12891 l 3.02343,-4.488282 -1.03125,3.761719 c -0.1289,0.421875 -0.29296,0.539063 -0.80859,0.597656 v 0.128907 h 2.17969 V 61.47082 c -0.53906,-0.04687 -0.60938,-0.09375 -0.60938,-0.339843 0,-0.140625 0.0117,-0.246094 0.082,-0.492188 l 0.98438,-3.550781 c 0.15234,-0.480469 0.1875,-0.515625 0.65625,-0.585938 z m 3.65918,5.753906 c 0.16406,-0.398437 0.28125,-0.480468 0.65625,-0.46875 h 1.16016 l -2.47266,2.976563 0.0703,0.07031 c 0.12891,-0.105468 0.23438,-0.140625 0.36328,-0.140625 0.19922,0 0.45703,0.09375 0.83203,0.328125 0.39844,0.246094 0.66797,0.351563 0.90235,0.351563 0.39844,0 0.75,-0.28125 0.75,-0.609375 0,-0.175781 -0.11719,-0.28125 -0.28125,-0.28125 -0.16406,0 -0.26953,0.105469 -0.26953,0.257812 0,0.05859 0.0234,0.128907 0.0703,0.222657 0.0234,0.05859 0.0352,0.105468 0.0352,0.128906 0,0.07031 -0.082,0.117187 -0.21094,0.117187 -0.19922,0 -0.29297,-0.07031 -0.5625,-0.398437 -0.35156,-0.457031 -0.50391,-0.5625 -0.97266,-0.667969 l 2.33203,-2.753906 v -0.08203 h -2.27343 l -0.25782,0.914062 z m 3.29297,3.503907 c 0.67969,-0.375 1.04297,-0.820313 1.04297,-1.265625 0,-0.328125 -0.19922,-0.574219 -0.45703,-0.574219 -0.23438,0 -0.41016,0.164062 -0.41016,0.363281 0,0.152344 0.0469,0.234375 0.19922,0.375 0.11719,0.105469 0.15234,0.175781 0.15234,0.257813 0,0.210937 -0.17578,0.433593 -0.59765,0.703125 z m 2.34961,-1.03125 h 2.23828 v -0.117188 h -0.14063 c -0.38671,0 -0.55078,-0.07031 -0.55078,-0.257812 0,-0.07031 0.0234,-0.1875 0.0937,-0.421875 0.0234,-0.04687 0.0352,-0.09375 0.0586,-0.175782 l 1.13672,-4.148437 c 0.0469,-0.140625 0.0469,-0.199219 0.0469,-0.234375 0,-0.03516 -0.0117,-0.05859 -0.0352,-0.05859 0,0 -0.22265,0.04687 -0.65625,0.128906 l -0.72656,0.152344 c -0.0117,0 -0.0703,0.01172 -0.16406,0.02344 v 0.117187 l 0.45703,-0.01172 c 0.1875,-0.01172 0.30469,0.09375 0.30469,0.246094 0,0.05859 -0.0117,0.117188 -0.0586,0.28125 l -1.10156,3.9375 c -0.0937,0.292969 -0.26953,0.375 -0.90234,0.421875 z m -40.2627,39.873043 h -1.59375 v 0.12891 c 0.45703,0.0352 0.55078,0.11719 0.55078,0.41016 0,0.0937 -0.0117,0.17578 -0.0703,0.35156 0,0.0234 -0.0117,0.0586 -0.0117,0.0586 l -0.82031,3.04688 -1.66406,-3.9961 h -1.28907 v 0.12891 c 0.375,0.0352 0.53907,0.14062 0.69141,0.44531 l -0.94922,3.33985 c -0.30469,1.01953 -0.375,1.125 -0.83203,1.18359 v 0.12891 h 1.59375 v -0.12891 c -0.42187,-0.0352 -0.5625,-0.11719 -0.5625,-0.33984 0,-0.10547 0.0234,-0.26954 0.0703,-0.4336 l 0.91407,-3.375 1.83984,4.39453 h 0.14062 l 1.16016,-4.01953 c 0.29297,-1.04297 0.32813,-1.08984 0.83203,-1.19531 z m 2.56348,8.22657 h 2.23828 v -0.11719 h -0.14062 c -0.38672,0 -0.55079,-0.0703 -0.55079,-0.25781 0,-0.0703 0.0234,-0.1875 0.0937,-0.42188 0.0234,-0.0469 0.0352,-0.0937 0.0586,-0.17578 l 1.13672,-4.14844 c 0.0469,-0.14062 0.0469,-0.19922 0.0469,-0.23437 0,-0.0352 -0.0117,-0.0586 -0.0352,-0.0586 0,0 -0.22266,0.0469 -0.65625,0.12891 l -0.72657,0.15234 c -0.0117,0 -0.0703,0.0117 -0.16406,0.0234 v 0.11719 l 0.45703,-0.0117 c 0.1875,-0.0117 0.30469,0.0937 0.30469,0.24609 0,0.0586 -0.0117,0.11719 -0.0586,0.28125 l -1.10157,3.9375 c -0.0937,0.29297 -0.26953,0.375 -0.90234,0.42188 z m 50.32031,4.07519 h -1.48828 v 0.12891 c 0.36328,0.0352 0.50391,0.11718 0.50391,0.26953 0,0.15234 -0.15235,0.49219 -0.42188,0.94922 l -1.64062,2.85937 -0.52735,-3.55078 c -0.0117,-0.0352 -0.0117,-0.0703 -0.0117,-0.11719 0,-0.26953 0.10547,-0.35156 0.6211,-0.41015 v -0.12891 h -1.9336 v 0.12891 c 0.44532,0.0586 0.46875,0.0703 0.63282,1.07812 l 0.67968,4.16016 h 0.15235 l 2.98828,-4.92188 c 0.12891,-0.21093 0.25781,-0.30468 0.44531,-0.3164 z m 2.00977,5.02734 c 0.0937,-0.0234 0.16406,-0.0351 0.24609,-0.0351 0.32813,0 0.48047,0.1289 0.64453,0.5625 0.21094,0.58594 0.63281,2.30859 0.63281,2.61328 0,0.11719 -0.0586,0.24609 -0.16406,0.39844 -0.22265,0.30468 -0.41015,0.52734 -0.5039,0.63281 -0.17579,0.17578 -0.25782,0.23437 -0.36329,0.23437 -0.0586,0 -0.10546,-0.0234 -0.1875,-0.082 -0.1289,-0.10547 -0.21093,-0.14062 -0.30468,-0.14062 -0.17578,0 -0.30469,0.14062 -0.30469,0.3164 0,0.19922 0.16406,0.35157 0.39844,0.35157 0.51562,0 1.55859,-1.19532 2.42578,-2.78907 0.55078,-0.98437 0.77344,-1.55859 0.77344,-1.95703 0,-0.23437 -0.19922,-0.43359 -0.44532,-0.43359 -0.17578,0 -0.30468,0.11719 -0.30468,0.29297 0,0.1289 0.0586,0.21094 0.22265,0.3164 0.15235,0.082 0.21094,0.15235 0.21094,0.26954 0,0.3164 -0.29297,0.9375 -0.98438,2.07421 l -0.15234,-0.92578 c -0.12891,-0.71484 -0.57422,-2.02734 -0.69141,-2.02734 h -0.0352 c -0.0117,0 -0.0352,0 -0.0703,0 -0.0586,0.0117 -0.36329,0.0586 -0.78516,0.14062 -0.0352,0.0117 -0.14063,0.0352 -0.25781,0.0469 z m 4.31836,4.23047 c 0.67968,-0.375 1.04297,-0.82031 1.04297,-1.26562 0,-0.32813 -0.19922,-0.57422 -0.45704,-0.57422 -0.23437,0 -0.41015,0.16406 -0.41015,0.36328 0,0.15234 0.0469,0.23438 0.19922,0.375 0.11718,0.10547 0.15234,0.17578 0.15234,0.25781 0,0.21094 -0.17578,0.4336 -0.59766,0.70313 z m 2.35254,-1.03125 h 2.23828 v -0.11718 h -0.14063 c -0.38672,0 -0.55078,-0.0703 -0.55078,-0.25782 0,-0.0703 0.0234,-0.1875 0.0937,-0.42187 0.0234,-0.0469 0.0352,-0.0937 0.0586,-0.17578 l 1.13672,-4.14844 c 0.0469,-0.14063 0.0469,-0.19922 0.0469,-0.23438 0,-0.0351 -0.0117,-0.0586 -0.0352,-0.0586 0,0 -0.22265,0.0469 -0.65625,0.12891 l -0.72656,0.15234 c -0.0117,0 -0.0703,0.0117 -0.16406,0.0234 v 0.11719 l 0.45703,-0.0117 c 0.1875,-0.0117 0.30469,0.0937 0.30469,0.24609 0,0.0586 -0.0117,0.11719 -0.0586,0.28125 l -1.10156,3.9375 c -0.0937,0.29297 -0.26953,0.375 -0.90234,0.42188 z m -38.9795,-48.228512 h -1.48828 v 0.128906 c 0.36328,0.03516 0.50391,0.117188 0.50391,0.269532 0,0.152343 -0.15235,0.492187 -0.42188,0.949218 l -1.64062,2.859375 -0.52735,-3.550781 c -0.0117,-0.03516 -0.0117,-0.07031 -0.0117,-0.117187 0,-0.269532 0.10546,-0.351563 0.62109,-0.410157 v -0.128906 h -1.93359 v 0.128906 c 0.44531,0.05859 0.46875,0.07031 0.63281,1.078125 l 0.67969,4.160157 h 0.15234 l 2.98828,-4.921875 c 0.12891,-0.210938 0.25781,-0.304688 0.44531,-0.316407 z m 2.4375,5.753906 c 0.16407,-0.398437 0.28125,-0.480468 0.65625,-0.46875 h 1.16016 l -2.47266,2.976563 0.0703,0.07031 c 0.1289,-0.105468 0.23437,-0.140625 0.36328,-0.140625 0.19922,0 0.45703,0.09375 0.83203,0.328125 0.39844,0.246094 0.66797,0.351563 0.90234,0.351563 0.39844,0 0.75,-0.28125 0.75,-0.609375 0,-0.175781 -0.11719,-0.28125 -0.28125,-0.28125 -0.16406,0 -0.26953,0.105469 -0.26953,0.257812 0,0.05859 0.0234,0.128907 0.0703,0.222657 0.0234,0.05859 0.0352,0.105468 0.0352,0.128906 0,0.07031 -0.082,0.117187 -0.21094,0.117187 -0.19922,0 -0.29297,-0.07031 -0.5625,-0.398437 -0.35156,-0.457031 -0.5039,-0.5625 -0.97265,-0.667969 l 2.33203,-2.753906 v -0.08203 h -2.27344 l -0.25781,0.914062 z m 3.29004,3.503907 c 0.67969,-0.375 1.04297,-0.820313 1.04297,-1.265625 0,-0.328125 -0.19922,-0.574219 -0.45703,-0.574219 -0.23438,0 -0.41016,0.164062 -0.41016,0.363281 0,0.152344 0.0469,0.234375 0.19922,0.375 0.11719,0.105469 0.15235,0.175781 0.15235,0.257813 0,0.210937 -0.17579,0.433593 -0.59766,0.703125 z m 2.34961,-1.03125 h 2.23828 v -0.117188 h -0.14062 c -0.38672,0 -0.55078,-0.07031 -0.55078,-0.257812 0,-0.07031 0.0234,-0.1875 0.0937,-0.421875 0.0234,-0.04687 0.0351,-0.09375 0.0586,-0.175782 l 1.13672,-4.148437 c 0.0469,-0.140625 0.0469,-0.199219 0.0469,-0.234375 0,-0.03516 -0.0117,-0.05859 -0.0351,-0.05859 0,0 -0.22266,0.04687 -0.65625,0.128906 l -0.72656,0.152344 c -0.0117,0 -0.0703,0.01172 -0.16407,0.02344 v 0.117187 l 0.45703,-0.01172 c 0.1875,-0.01172 0.30469,0.09375 0.30469,0.246094 0,0.05859 -0.0117,0.117188 -0.0586,0.28125 l -1.10156,3.9375 c -0.0937,0.292969 -0.26954,0.375 -0.90235,0.421875 z m 0,0"
       style="fill:#231f20;fill-opacity:1;fill-rule:nonzero;stroke:none"
       aria-label="Tn&#10;M&#10;y,n&#10;M&#10;z,n&#10;N&#10;n&#10;V&#10;z,n&#10;M&#10;y,1&#10;T1&#10;M&#10;z,1&#10;N&#10;1&#10;V&#10;y,1&#10;V&#10;z,1"
       transform="matrix(1.3333333,0,0,1.3333333,409.63333,58.66)" />
    <path
       id="path51"
       d="m 2550.25,2015.25 h 41"
       style="fill:none;stroke:#231f20;stroke-width:5;stroke-linecap:butt;stroke-linejoin:miter;stroke-miterlimit:3.8637;stroke-dasharray:none;stroke-opacity:1"
       transform="matrix(0.13333333,0,0,-0.13333333,0,314.56)" />
    <path
       id="path52"
       d="M 5.5074219,-5.2264453 H 4.0191406 v 0.1289062 c 0.3632813,0.035156 0.5039063,0.1171875 0.5039063,0.2695313 0,0.1523437 -0.1523438,0.4921875 -0.421875,0.9492187 l -1.640625,2.859375 -0.5273438,-3.5507812 c -0.011719,-0.035156 -0.011719,-0.070312 -0.011719,-0.1171875 0,-0.2695313 0.1054687,-0.3515625 0.6210937,-0.4101563 V -5.2264453 H 0.60898438 v 0.1289062 c 0.44531252,0.058594 0.46875002,0.070312 0.63281252,1.078125 L 1.9214844,0.14074219 H 2.0738281 L 5.0621094,-4.7811328 c 0.1289062,-0.2109375 0.2578125,-0.3046875 0.4453125,-0.3164063 z m 1.9101562,5.02734374 c 0.09375,-0.0234375 0.1640625,-0.0351563 0.2460938,-0.0351563 0.328125,0 0.4804687,0.12890625 0.6445312,0.5625 0.2109375,0.5859375 0.6328125,2.30859366 0.6328125,2.61328116 0,0.1171875 -0.058594,0.2460939 -0.1640625,0.3984375 -0.2226562,0.3046875 -0.4101562,0.5273439 -0.5039062,0.6328125 -0.1757813,0.1757813 -0.2578125,0.234375 -0.3632813,0.234375 -0.058594,0 -0.1054687,-0.023437 -0.1875,-0.082031 C 7.5933594,4.0196486 7.5113281,3.9844924 7.4175781,3.9844924 c -0.1757812,0 -0.3046875,0.1406249 -0.3046875,0.3164062 0,0.1992187 0.1640625,0.3515625 0.3984375,0.3515625 0.515625,0 1.5585938,-1.1953125 2.4257813,-2.7890625 0.5507816,-0.98437501 0.7734376,-1.55859376 0.7734376,-1.95703126 0,-0.234375 -0.199219,-0.43359375 -0.445313,-0.43359375 -0.175781,0 -0.3046871,0.1171875 -0.3046871,0.29296875 0,0.12890625 0.058594,0.2109375 0.2226561,0.31640625 0.152344,0.08203125 0.210938,0.15234375 0.210938,0.26953125 0,0.31640625 -0.292969,0.93750006 -0.9843754,2.07421876 L 9.2574219,1.5001172 C 9.1285156,0.78527344 8.6832031,-0.52722656 8.5660156,-0.52722656 h -0.035156 c -0.011719,0 -0.035156,0 -0.070312,0 -0.058594,0.0117188 -0.3632813,0.0585938 -0.7851563,0.140625 -0.035156,0.0117188 -0.140625,0.0351563 -0.2578125,0.046875 z M 11.735938,4.0313672 c 0.679687,-0.375 1.042968,-0.8203125 1.042968,-1.265625 0,-0.328125 -0.199218,-0.5742188 -0.457031,-0.5742188 -0.234375,0 -0.410156,0.1640625 -0.410156,0.3632813 0,0.1523437 0.04687,0.234375 0.199219,0.375 0.117187,0.1054687 0.152343,0.1757812 0.152343,0.2578125 0,0.2109375 -0.175781,0.4335937 -0.597656,0.703125 z m 5.642578,-1.96875 c -0.433594,0.5507812 -0.527344,0.6328125 -0.65625,0.6328125 -0.07031,0 -0.128907,-0.058594 -0.128907,-0.1289063 0,-0.058594 0.03516,-0.2109375 0.117188,-0.5039062 l 0.457031,-1.65234376 c 0.03516,-0.1640625 0.07031,-0.33984375 0.07031,-0.45703125 0,-0.29296875 -0.222657,-0.48046875 -0.527344,-0.48046875 -0.515625,0 -1.019531,0.48046875 -1.839844,1.75781246 l 0.527344,-1.74609371 -0.02344,-0.0117188 c -0.421875,0.0820313 -0.597656,0.1171875 -1.289062,0.24609375 v 0.12890625 c 0.410156,0.0117188 0.503906,0.05859375 0.503906,0.2109375 0,0.046875 0,0.10546875 -0.01172,0.140625 L 13.816016,3.0001172 h 0.597656 c 0.375,-1.265625 0.445312,-1.4414063 0.796875,-1.9804688 0.480469,-0.73828121 0.890625,-1.13671871 1.183594,-1.13671871 0.117187,0 0.199218,0.08203125 0.199218,0.22265625 0,0.10546875 -0.05859,0.36328125 -0.117187,0.609375 L 16.124609,2.0391797 c -0.105468,0.421875 -0.128906,0.515625 -0.128906,0.5976562 0,0.3046875 0.117188,0.4335938 0.375,0.4335938 0.363281,0 0.5625,-0.1640625 1.125,-0.9023438 z m 0,0"
       style="fill:#231f20;fill-opacity:1;fill-rule:nonzero;stroke:none"
       aria-label="V&#10;y,n"
       transform="matrix(1.3333333,0,0,1.3333333,329.63333,50.66)" />
    <path
       id="path53"
       d="m 2431.25,2265.25 h 41"
       style="fill:none;stroke:#231f20;stroke-width:5;stroke-linecap:butt;stroke-linejoin:miter;stroke-miterlimit:3.8637;stroke-dasharray:none;stroke-opacity:1"
       transform="matrix(0.13333333,0,0,-0.13333333,0,314.56)" />
    <path
       id="path54"
       d="m 2595.25,1521.25 h 42"
       style="fill:none;stroke:#231f20;stroke-width:5;stroke-linecap:butt;stroke-linejoin:miter;stroke-miterlimit:3.8637;stroke-dasharray:none;stroke-opacity:1"
       transform="matrix(0.13333333,0,0,-0.13333333,0,314.56)" />
    <path
       id="path55"
       d="m 2513.25,1338.25 h 42"
       style="fill:none;stroke:#231f20;stroke-width:5;stroke-linecap:butt;stroke-linejoin:miter;stroke-miterlimit:3.8637;stroke-dasharray:none;stroke-opacity:1"
       transform="matrix(0.13333333,0,0,-0.13333333,0,314.56)" />
    <path
       id="path56"
       d="m 1134.25,1130.25 h 42"
       style="fill:none;stroke:#231f20;stroke-width:5;stroke-linecap:butt;stroke-linejoin:miter;stroke-miterlimit:3.8637;stroke-dasharray:none;stroke-opacity:1"
       transform="matrix(0.13333333,0,0,-0.13333333,0,314.56)" />
    <path
       id="path57"
       d="m 1232.25,1333.25 h 42"
       style="fill:none;stroke:#231f20;stroke-width:5;stroke-linecap:butt;stroke-linejoin:miter;stroke-miterlimit:3.8637;stroke-dasharray:none;stroke-opacity:1"
       transform="matrix(0.13333333,0,0,-0.13333333,0,314.56)" />
    <path
       id="path58"
       d="m 1442.25,729.25 h 41"
       style="fill:none;stroke:#231f20;stroke-width:5;stroke-linecap:butt;stroke-linejoin:miter;stroke-miterlimit:3.8637;stroke-dasharray:none;stroke-opacity:1"
       transform="matrix(0.13333333,0,0,-0.13333333,0,314.56)" />
    <path
       id="path59"
       d="m 1620.25,468.25 h 42"
       style="fill:none;stroke:#231f20;stroke-width:5;stroke-linecap:butt;stroke-linejoin:miter;stroke-miterlimit:3.8637;stroke-dasharray:none;stroke-opacity:1"
       transform="matrix(0.13333333,0,0,-0.13333333,0,314.56)" />
    <path
       id="path60"
       d="m 1087.25,684.25 57,144"
       style="fill:none;stroke:#ffffff;stroke-width:40;stroke-linecap:round;stroke-linejoin:miter;stroke-miterlimit:3.8637;stroke-dasharray:none;stroke-opacity:1"
       transform="matrix(0.13333333,0,0,-0.13333333,0,314.56)" />
    <path
       id="path61"
       d="m 1204.25,898.25 219,127"
       style="fill:none;stroke:#ffffff;stroke-width:40;stroke-linecap:round;stroke-linejoin:miter;stroke-miterlimit:3.8637;stroke-dasharray:none;stroke-opacity:1"
       transform="matrix(0.13333333,0,0,-0.13333333,0,314.56)" />
    <path
       id="path62"
       d="m 1140.25,913.25 -126,219"
       style="fill:none;stroke:#ffffff;stroke-width:40;stroke-linecap:round;stroke-linejoin:miter;stroke-miterlimit:3.8637;stroke-dasharray:none;stroke-opacity:1"
       transform="matrix(0.13333333,0,0,-0.13333333,0,314.56)" />
    <path
       id="path63"
       d="m 1033.25,1098.25 130,-225"
       style="fill:none;stroke:#231f20;stroke-width:2.5;stroke-linecap:butt;stroke-linejoin:miter;stroke-miterlimit:3.8637;stroke-dasharray:none;stroke-opacity:1"
       transform="matrix(0.13333333,0,0,-0.13333333,0,314.56)" />
    <path
       id="path64"
       d="m 1034.25,1096.25 -13,-8 -5,40 31,-25 -13,-7"
       style="fill:#231f20;fill-opacity:1;fill-rule:evenodd;stroke:none"
       transform="matrix(0.13333333,0,0,-0.13333333,0,314.56)" />
    <path
       id="path65"
       d="m 1163.25,873.25 225,130"
       style="fill:none;stroke:#231f20;stroke-width:2.5;stroke-linecap:butt;stroke-linejoin:miter;stroke-miterlimit:3.8637;stroke-dasharray:none;stroke-opacity:1"
       transform="matrix(0.13333333,0,0,-0.13333333,0,314.56)" />
    <path
       id="path66"
       d="m 1386.25,1002.25 -8,13 40,6 -25,-32 -7,13"
       style="fill:#231f20;fill-opacity:1;fill-rule:evenodd;stroke:none"
       transform="matrix(0.13333333,0,0,-0.13333333,0,314.56)" />
    <path
       id="path67"
       d="m 1162.25,873.25 -64,-158"
       style="fill:none;stroke:#231f20;stroke-width:2.5;stroke-linecap:butt;stroke-linejoin:miter;stroke-miterlimit:3.8637;stroke-dasharray:none;stroke-opacity:1"
       transform="matrix(0.13333333,0,0,-0.13333333,0,314.56)" />
    <path
       id="path68"
       d="m 1099.25,717.25 13,-5 -28,-30 1,41 14,-6"
       style="fill:#231f20;fill-opacity:1;fill-rule:evenodd;stroke:none"
       transform="matrix(0.13333333,0,0,-0.13333333,0,314.56)" />
    <path
       id="path69"
       d="m 0.17460938,-4.8061328 c 0.15234375,-0.035156 0.24609375,-0.046875 0.375,-0.046875 0.49218752,0 0.72656252,0.1992187 0.96093752,0.84375 0.328125,0.890625 0.9492187,3.45703124 0.9492187,3.91406249 0,0.1875 -0.082031,0.38671875 -0.2578125,0.609375 -0.328125,0.4453125 -0.609375,0.78515621 -0.75,0.93750001 -0.2578125,0.2578125 -0.3867187,0.3632812 -0.53906247,0.3632812 -0.0820313,0 -0.15234375,-0.035156 -0.29296875,-0.140625 -0.17578125,-0.140625 -0.29296875,-0.1992187 -0.4453125,-0.1992187 -0.2578125,0 -0.46875,0.1992187 -0.46875,0.46875 0,0.3164062 0.2578125,0.5273437 0.62109375,0.5273437 0.76171877,0 2.32031247,-1.79296871 3.63281247,-4.171875 0.8203125,-1.4765625 1.1484375,-2.34375 1.1484375,-2.9296875 0,-0.3632812 -0.2929687,-0.6679687 -0.65625,-0.6679687 -0.28125,0 -0.46875,0.1875 -0.46875,0.4453125 0,0.1992187 0.09375,0.3164062 0.3398438,0.46875 0.2226562,0.140625 0.3046875,0.2460937 0.3046875,0.4101562 0,0.4804688 -0.4335938,1.40625 -1.4648438,3.10546879 L 2.9285156,-2.2631641 c -0.1875,-1.0664062 -0.8554687,-3.0351562 -1.03125,-3.0351562 h -0.046875 c -0.023437,0.011719 -0.058594,0.011719 -0.1171875,0.011719 -0.09375,0.011719 -0.5390625,0.09375 -1.17187497,0.2109375 -0.0585938,0.011719 -0.2109375,0.046875 -0.38671875,0.070312 z m 0,0"
       style="fill:#231f20;fill-opacity:1;fill-rule:nonzero;stroke:none"
       aria-label="y"
       transform="matrix(1.3333333,0,0,1.3333333,127.9,183.19333)" />
    <path
       id="path70"
       d="m 968.25,1059.25 h 42"
       style="fill:none;stroke:#231f20;stroke-width:5;stroke-linecap:butt;stroke-linejoin:miter;stroke-miterlimit:3.8637;stroke-dasharray:none;stroke-opacity:1"
       transform="matrix(0.13333333,0,0,-0.13333333,0,314.56)" />
    <path
       id="path71"
       d="m 4.8289062,-1.3367969 c -0.1054687,0.1171875 -0.1640625,0.1875 -0.2695312,0.328125 -0.2695313,0.36328127 -0.421875,0.48046877 -0.5625,0.48046877 -0.1640625,0 -0.28125,-0.15234375 -0.3632813,-0.49218747 -0.035156,-0.1289063 -0.035156,-0.1523438 -0.046875,-0.1875 C 3.29375,-2.4383594 3.153125,-2.9891406 3.153125,-3.1649219 c 0.5390625,-0.9375 0.9609375,-1.453125 1.1835937,-1.453125 0.070312,0 0.1757813,0.035156 0.28125,0.09375 0.1523438,0.082031 0.234375,0.1054688 0.3398438,0.1054688 0.234375,0 0.4101562,-0.1757813 0.4101562,-0.4335938 0,-0.2578125 -0.2109375,-0.4453125 -0.4921875,-0.4453125 -0.5273437,0 -0.9726562,0.4335938 -1.8164062,1.7226563 l -0.1289063,-0.65625 C 2.7664062,-5.0516406 2.6257812,-5.2977344 2.309375,-5.2977344 c -0.28125,0 -0.6679688,0.1054688 -1.40625,0.3515625 -0.0703125,0.023437 -0.0703125,0.023437 -0.12890625,0.046875 l 0.046875,0.1875 c 0.46874995,-0.1289062 0.55078125,-0.140625 0.66796875,-0.140625 0.3046875,0 0.375,0.1171875 0.5390625,0.8320313 l 0.3515625,1.4765625 -0.984375,1.40625 c -0.2578125,0.35156247 -0.48046875,0.57421872 -0.609375,0.57421872 -0.0820313,0 -0.19921875,-0.0351563 -0.31640625,-0.10546875 -0.15234375,-0.09375 -0.28125,-0.12890625 -0.38671875,-0.12890625 -0.234375,0 -0.41015625,0.1875 -0.41015625,0.421875 0,0.31640625 0.234375,0.50390625 0.609375,0.50390625 0.36328125,0 0.515625,-0.10546875 1.11328125,-0.8203125 C 1.7117187,-1.0907031 1.98125,-1.4539844 2.4734375,-2.1102344 l 0.3632812,1.44140627 c 0.1523438,0.62109375 0.3046875,0.796875 0.6914063,0.796875 0.4570312,0 0.7734375,-0.28125 1.4648437,-1.35937497 z m 0,0"
       style="fill:#231f20;fill-opacity:1;fill-rule:nonzero;stroke:none"
       aria-label="x"
       transform="matrix(1.3333333,0,0,1.3333333,185.23333,197.99333)" />
    <path
       id="path72"
       d="m 1398.25,948.25 h 42"
       style="fill:none;stroke:#231f20;stroke-width:5;stroke-linecap:butt;stroke-linejoin:miter;stroke-miterlimit:3.8637;stroke-dasharray:none;stroke-opacity:1"
       transform="matrix(0.13333333,0,0,-0.13333333,0,314.56)" />
    <path
       id="path73"
       d="M 0.97167969,-3.7024219 C 1.2060547,-4.3000781 1.3935547,-4.4289844 1.9443359,-4.4172656 h 1.7460938 l -3.71484376,4.46484372 0.10546875,0.10546875 c 0.19921875,-0.152343745 0.3515625,-0.2109375 0.5390625,-0.2109375 0.31640625,0 0.70312501,0.15234375 1.26562501,0.50390625 0.5976562,0.375 0.9960937,0.52734375 1.3359375,0.52734375 0.609375,0 1.1367187,-0.43359375 1.1367187,-0.9140625 0,-0.2578125 -0.1757812,-0.43359375 -0.421875,-0.43359375 -0.2460937,0 -0.4101562,0.1640625 -0.4101562,0.38671875 0,0.09375 0.035156,0.19921875 0.1054687,0.3515625 0.035156,0.0703125 0.058594,0.140625 0.058594,0.17578125 0,0.10546875 -0.1289063,0.17578125 -0.3164063,0.17578125 -0.3046875,0 -0.4453125,-0.10546875 -0.84375,-0.59765625 -0.5273437,-0.6796875 -0.75,-0.83203125 -1.453125,-0.99609375 L 4.5576172,-5.0032031 V -5.1321094 H 1.1474609 l -0.36328121,1.3710938 z m 0,0"
       style="fill:#231f20;fill-opacity:1;fill-rule:nonzero;stroke:none"
       aria-label="z"
       transform="matrix(1.3333333,0,0,1.3333333,134.83333,223.46)" />
    <path
       id="path74"
       d="m 1020.25,756.25 h 42"
       style="fill:none;stroke:#231f20;stroke-width:5;stroke-linecap:butt;stroke-linejoin:miter;stroke-miterlimit:3.8637;stroke-dasharray:none;stroke-opacity:1"
       transform="matrix(0.13333333,0,0,-0.13333333,0,314.56)" />
    <path
       id="path75"
       d="M 6.3294922,-6.5260547 H 1.0091797 l -0.42187501,1.5351563 0.1875,0.046875 C 1.3021484,-6.0221484 1.6302734,-6.1979297 3.1537109,-6.1744922 l -1.4414062,5.27343751 c -0.1640625,0.52734375 -0.3984375,0.69140625 -1.06640626,0.73828125 v 0.1640625 H 3.5521484 v -0.1640625 c -0.8671875,-0.0703125 -0.9023437,-0.0820313 -0.9023437,-0.45703125 0,-0.1171875 0.023437,-0.22265625 0.1171875,-0.57421871 l 1.3945312,-4.9804688 h 0.5507813 c 0.7148437,0 1.03125,0.2460938 1.03125,0.8085938 0,0.1289062 0,0.28125 -0.023437,0.4453125 l 0.1640625,0.023437 z M 27.566797,-18.728203 h -1.992188 v 0.164062 c 0.574219,0.04687 0.703125,0.140625 0.703125,0.503907 0,0.117187 -0.02344,0.234375 -0.09375,0.445312 0,0.02344 -0.01172,0.07031 -0.01172,0.07031 l -1.019532,3.808593 -2.085937,-4.992187 h -1.605469 v 0.164062 c 0.46875,0.03516 0.667969,0.164063 0.855469,0.550782 l -1.183594,4.171875 c -0.386719,1.277343 -0.457031,1.40625 -1.03125,1.476562 v 0.164063 h 1.980469 v -0.164063 c -0.527344,-0.03516 -0.703125,-0.140625 -0.703125,-0.421875 0,-0.128906 0.03516,-0.328125 0.09375,-0.539062 l 1.136719,-4.21875 2.296875,5.496093 h 0.1875 l 1.429687,-5.027343 c 0.375,-1.300782 0.410156,-1.347657 1.042969,-1.488282 z m 53.0625,-40.599609 h -1.675781 l -3.351563,4.933593 -0.550781,-4.933593 h -1.816406 v 0.164062 c 0.503906,0.02344 0.738281,0.140625 0.738281,0.363281 0,0.08203 -0.03516,0.234375 -0.09375,0.410157 -0.02344,0.04687 -0.04687,0.140625 -0.09375,0.304687 l -0.02344,0.105469 -1.066406,3.714844 c -0.304687,1.042968 -0.457031,1.242187 -0.972656,1.300781 v 0.164062 h 1.980469 v -0.164062 c -0.515625,-0.03516 -0.714844,-0.152344 -0.714844,-0.433594 0,-0.117187 0.03516,-0.351562 0.09375,-0.527344 l 1.171875,-4.335937 0.609375,5.460937 h 0.175781 l 3.761719,-5.613281 -1.289063,4.699219 c -0.152343,0.539062 -0.351562,0.679687 -1.007812,0.75 v 0.164062 h 2.730469 v -0.164062 c -0.679688,-0.05859 -0.773438,-0.117188 -0.773438,-0.421875 0,-0.175781 0.02344,-0.304688 0.117188,-0.609375 l 1.230468,-4.429688 c 0.175782,-0.597656 0.222657,-0.65625 0.820313,-0.738281 z m 2.080078,6.433593 c 0.199219,-0.480468 0.351563,-0.597656 0.808594,-0.585937 h 1.464844 l -3.105469,3.714844 0.09375,0.09375 c 0.164062,-0.128907 0.292969,-0.175782 0.445312,-0.175782 0.269532,0 0.585938,0.128907 1.054688,0.421875 0.503906,0.304688 0.832031,0.433594 1.113281,0.433594 0.503906,0 0.949219,-0.363281 0.949219,-0.761719 0,-0.222656 -0.140625,-0.351562 -0.351563,-0.351562 -0.199218,0 -0.339843,0.128906 -0.339843,0.316406 0,0.08203 0.02344,0.164063 0.08203,0.292969 0.03516,0.05859 0.05859,0.117187 0.05859,0.140625 0,0.09375 -0.117188,0.152344 -0.269532,0.152344 -0.257812,0 -0.375,-0.08203 -0.703125,-0.492188 -0.445312,-0.574219 -0.632812,-0.703125 -1.207031,-0.832031 l 2.894531,-3.445313 v -0.105468 h -2.835937 l -0.316406,1.148437 z m 0,0"
       style="fill:#231f20;fill-opacity:1;fill-rule:nonzero;stroke:none"
       aria-label="T&#10;N&#10;M&#10;z"
       transform="matrix(1.3333333,0,0,1.3333333,354.03333,246.26)" />
    <path
       id="path76"
       d="m 3477.25,1070.25 h 42"
       style="fill:none;stroke:#231f20;stroke-width:5;stroke-linecap:butt;stroke-linejoin:miter;stroke-miterlimit:3.8637;stroke-dasharray:none;stroke-opacity:1"
       transform="matrix(0.13333333,0,0,-0.13333333,0,314.56)" />
    <path
       id="path77"
       d="M 6.8787109,-6.52625 H 5.0154297 v 0.1640625 c 0.4570312,0.046875 0.6328125,0.140625 0.6328125,0.3398437 0,0.1875 -0.1875,0.609375 -0.515625,1.1835938 l -2.0625,3.5625 -0.65625,-4.4296875 c -0.011719,-0.046875 -0.011719,-0.09375 -0.011719,-0.1523438 0,-0.3398437 0.140625,-0.4335937 0.7617188,-0.5039062 V -6.52625 H 0.76152344 v 0.1640625 c 0.56249996,0.070312 0.57421876,0.082031 0.78515626,1.3476562 L 2.4021484,0.176875 h 0.1875 L 6.3162109,-5.96375 c 0.1757813,-0.2695313 0.328125,-0.3984375 0.5625,-0.3984375 z m 1.2304688,6.43359375 C 8.3083984,-0.573125 8.4607422,-0.6903125 8.9177734,-0.67859375 H 10.382617 L 7.2771484,3.03625 7.3708984,3.13 C 7.5349609,3.0010937 7.6638672,2.9542187 7.8162109,2.9542187 c 0.2695313,0 0.5859375,0.1289063 1.0546875,0.421875 0.5039063,0.3046875 0.8320313,0.4335938 1.1132813,0.4335938 0.5039063,0 0.9492183,-0.3632813 0.9492183,-0.7617188 0,-0.2226562 -0.140625,-0.3515625 -0.351562,-0.3515625 -0.199219,0 -0.339844,0.1289063 -0.339844,0.3164063 0,0.082031 0.02344,0.1640625 0.08203,0.2929687 0.03516,0.058594 0.05859,0.1171875 0.05859,0.140625 0,0.09375 -0.117187,0.1523438 -0.269531,0.1523438 -0.2578126,0 -0.3750001,-0.082031 -0.7031251,-0.4921875 C 8.9646484,2.5323437 8.7771484,2.4034375 8.2029297,2.2745312 L 11.097461,-1.1707813 V -1.27625 H 8.2615234 l -0.3164062,1.1484375 z m 0,0"
       style="fill:#231f20;fill-opacity:1;fill-rule:nonzero;stroke:none"
       aria-label="V&#10;z"
       transform="matrix(1.3333333,0,0,1.3333333,438.56667,195.32667)" />
    <path
       id="path78"
       d="m 3363.25,925.25 h 42"
       style="fill:none;stroke:#231f20;stroke-width:5;stroke-linecap:butt;stroke-linejoin:miter;stroke-miterlimit:3.8637;stroke-dasharray:none;stroke-opacity:1"
       transform="matrix(0.13333333,0,0,-0.13333333,0,314.56)" />
    <path
       id="path79"
       d="M 6.8787109,-6.5268359 H 5.0154297 v 0.1640625 c 0.4570312,0.046875 0.6328125,0.140625 0.6328125,0.3398437 0,0.1875 -0.1875,0.609375 -0.515625,1.1835938 l -2.0625,3.5625 -0.65625,-4.4296875 c -0.011719,-0.046875 -0.011719,-0.09375 -0.011719,-0.1523438 0,-0.3398437 0.140625,-0.4335937 0.7617188,-0.5039062 V -6.5268359 H 0.76152344 v 0.1640625 c 0.56249996,0.070312 0.57421876,0.082031 0.78515626,1.3476562 l 0.8554687,5.19140626 h 0.1875 L 6.3162109,-5.9643359 c 0.1757813,-0.2695313 0.328125,-0.3984375 0.5625,-0.3984375 z m 0.5742188,5.53124996 c 0.1171875,-0.0351563 0.1992187,-0.046875 0.3046875,-0.046875 0.4101562,0 0.5976562,0.16406242 0.796875,0.70312492 0.28125,0.73828125 0.796875,2.88281258 0.796875,3.25781258 0,0.1640625 -0.070312,0.3164062 -0.2109375,0.515625 -0.28125,0.3632812 -0.515625,0.6445312 -0.6328125,0.7734375 -0.2109375,0.2226562 -0.3164063,0.3046875 -0.4453125,0.3046875 -0.070312,0 -0.1289063,-0.035156 -0.2460938,-0.1171875 C 7.6755859,4.2778516 7.5701172,4.2309766 7.4529297,4.2309766 c -0.2226563,0 -0.3867188,0.1640625 -0.3867188,0.3867187 0,0.2578125 0.1992188,0.4453125 0.5039063,0.4453125 0.6445312,0 1.9453125,-1.4882812 3.0234378,-3.4804687 0.679687,-1.23046879 0.960937,-1.94531254 0.960937,-2.43750004 0,-0.30468746 -0.246094,-0.55078126 -0.550781,-0.55078126 -0.222656,0 -0.386719,0.1523438 -0.386719,0.3632813 0,0.16406246 0.08203,0.26953121 0.28125,0.39843746 0.1875,0.10546875 0.257813,0.19921875 0.257813,0.33984375 0,0.3984375 -0.351563,1.16015625 -1.2187503,2.58984379 L 9.7380859,1.1255078 c -0.1523437,-0.89062499 -0.703125,-2.53125 -0.8554687,-2.53125 h -0.046875 c -0.011719,0.011719 -0.046875,0.011719 -0.082031,0.011719 -0.082031,0.011719 -0.4570312,0.070312 -0.984375,0.1640625 -0.046875,0.011719 -0.1757812,0.046875 -0.3164062,0.058594 z m 0,0"
       style="fill:#231f20;fill-opacity:1;fill-rule:nonzero;stroke:none"
       aria-label="V&#10;y"
       transform="matrix(1.3333333,0,0,1.3333333,442.56667,246.52667)" />
    <path
       id="path80"
       d="m 3397.25,540.25 h 42"
       style="fill:none;stroke:#231f20;stroke-width:5;stroke-linecap:butt;stroke-linejoin:miter;stroke-miterlimit:3.8637;stroke-dasharray:none;stroke-opacity:1"
       transform="matrix(0.13333333,0,0,-0.13333333,0,314.56)" />
    <path
       id="path81"
       d="M 8.7310547,-6.5260547 H 7.0552734 L 3.7037109,-1.5924609 3.1529297,-6.5260547 H 1.3365234 v 0.1640625 c 0.5039063,0.023437 0.7382813,0.140625 0.7382813,0.3632813 0,0.082031 -0.035156,0.234375 -0.09375,0.4101562 -0.023437,0.046875 -0.046875,0.140625 -0.09375,0.3046875 l -0.023437,0.1054688 -1.06640626,3.7148437 c -0.3046875,1.04296876 -0.45703125,1.24218751 -0.97265625,1.30078126 v 0.1640625 H 1.8052734 v -0.1640625 c -0.515625,-0.0351563 -0.7148437,-0.15234375 -0.7148437,-0.43359375 0,-0.1171875 0.035156,-0.3515625 0.09375,-0.52734371 l 1.171875,-4.3359375 0.609375,5.46093746 H 3.1412109 L 6.9029297,-5.6119922 5.6138672,-0.91277344 c -0.1523438,0.5390625 -0.3515625,0.6796875 -1.0078125,0.75 v 0.1640625 h 2.7304687 v -0.1640625 c -0.6796875,-0.0585938 -0.7734375,-0.1171875 -0.7734375,-0.421875 0,-0.17578125 0.023437,-0.3046875 0.1171875,-0.60937496 l 1.2304688,-4.4296875 c 0.1757812,-0.5976563 0.2226562,-0.65625 0.8203125,-0.7382813 z m 1.4208983,5.53125001 c 0.117188,-0.0351562 0.199219,-0.046875 0.304688,-0.046875 0.410156,0 0.597656,0.16406252 0.796875,0.70312502 0.28125,0.73828125 0.796875,2.88281248 0.796875,3.25781248 0,0.1640625 -0.07031,0.3164063 -0.210938,0.515625 -0.28125,0.3632813 -0.515625,0.6445313 -0.632812,0.7734375 -0.210938,0.2226563 -0.316407,0.3046875 -0.445313,0.3046875 -0.07031,0 -0.128906,-0.035156 -0.246094,-0.1171875 -0.140625,-0.1171875 -0.246093,-0.1640625 -0.363281,-0.1640625 -0.2226561,0 -0.3867186,0.1640625 -0.3867186,0.3867188 0,0.2578125 0.1992187,0.4453125 0.5039066,0.4453125 0.644531,0 1.945312,-1.4882813 3.023437,-3.4804688 0.679688,-1.23046873 0.960938,-1.94531248 0.960938,-2.43749998 0,-0.30468752 -0.246094,-0.55078122 -0.550782,-0.55078122 -0.222656,0 -0.386718,0.1523437 -0.386718,0.3632812 0,0.16406252 0.08203,0.26953127 0.28125,0.39843752 0.1875,0.10546875 0.257812,0.19921875 0.257812,0.33984375 0,0.3984375 -0.351562,1.16015625 -1.21875,2.58984373 L 12.437109,1.1262891 c -0.152343,-0.89062504 -0.703125,-2.53125 -0.855468,-2.53125 h -0.04687 c -0.01172,0.011719 -0.04687,0.011719 -0.08203,0.011719 -0.08203,0.011719 -0.457031,0.070312 -0.984375,0.1640625 -0.04687,0.011719 -0.175781,0.046875 -0.316406,0.058594 z m 0,0"
       style="fill:#231f20;fill-opacity:1;fill-rule:nonzero;stroke:none"
       aria-label="M&#10;y"
       transform="matrix(1.3333333,0,0,1.3333333,462.3,276.26)" />
    <path
       id="path82"
       d="m 3572.25,319.25 h 41"
       style="fill:none;stroke:#231f20;stroke-width:5;stroke-linecap:butt;stroke-linejoin:miter;stroke-miterlimit:3.8637;stroke-dasharray:none;stroke-opacity:1"
       transform="matrix(0.13333333,0,0,-0.13333333,0,314.56)" />
    <path
       id="path83"
       d="M 6.3277344,-6.5287891 H 1.0074219 l -0.42187502,1.5351563 0.1875,0.046875 C 1.3003906,-6.0248828 1.6285156,-6.2006641 3.1519531,-6.1772266 l -1.4414062,5.27343754 c -0.1640625,0.52734375 -0.3984375,0.69140625 -1.06640627,0.73828125 v 0.1640625 H 3.5503906 v -0.1640625 c -0.8671875,-0.0703125 -0.9023437,-0.0820313 -0.9023437,-0.45703125 0,-0.1171875 0.023437,-0.22265625 0.1171875,-0.57421874 l 1.3945312,-4.9804688 h 0.5507813 c 0.7148437,0 1.03125,0.2460938 1.03125,0.8085938 0,0.1289062 0,0.28125 -0.023437,0.4453125 l 0.1640625,0.023437 z M -14.335352,6.8716016 h -1.992187 v 0.1640625 c 0.574219,0.046875 0.703125,0.140625 0.703125,0.5039062 0,0.1171875 -0.02344,0.234375 -0.09375,0.4453125 0,0.023437 -0.01172,0.070312 -0.01172,0.070312 l -1.019531,3.8085942 -2.085938,-4.9921879 h -1.605468 v 0.1640625 c 0.46875,0.035156 0.667968,0.1640625 0.855468,0.5507812 l -1.183593,4.1718752 c -0.386719,1.277344 -0.457032,1.40625 -1.03125,1.476563 v 0.164062 h 1.980468 v -0.164062 c -0.527343,-0.03516 -0.703125,-0.140625 -0.703125,-0.421875 0,-0.128906 0.03516,-0.328125 0.09375,-0.539063 l 1.136719,-4.2187502 2.296875,5.4960942 h 0.1875 l 1.429688,-5.0273442 c 0.375,-1.3007812 0.410156,-1.3476562 1.042968,-1.4882812 z M -59.470117,-36.628398 h -1.675781 l -3.351563,4.933593 -0.550781,-4.933593 h -1.816406 v 0.164062 c 0.503906,0.02344 0.738281,0.140625 0.738281,0.363281 0,0.08203 -0.03516,0.234375 -0.09375,0.410157 -0.02344,0.04687 -0.04687,0.140625 -0.09375,0.304687 l -0.02344,0.105469 -1.066406,3.714844 c -0.304687,1.042968 -0.457031,1.242187 -0.972656,1.300781 v 0.164062 h 1.980469 v -0.164062 c -0.515625,-0.03516 -0.714844,-0.152344 -0.714844,-0.433594 0,-0.117187 0.03516,-0.351562 0.09375,-0.527344 l 1.171875,-4.335937 0.609375,5.460937 h 0.175781 l 3.761719,-5.613281 -1.289063,4.699219 c -0.152343,0.539062 -0.351562,0.679687 -1.007812,0.75 v 0.164062 h 2.730469 v -0.164062 c -0.679688,-0.05859 -0.773438,-0.117188 -0.773438,-0.421875 0,-0.175781 0.02344,-0.304688 0.117188,-0.609375 l 1.230468,-4.429688 c 0.175782,-0.597656 0.222657,-0.65625 0.820313,-0.738281 z m 1.423828,5.53125 c 0.117187,-0.03516 0.199219,-0.04687 0.304687,-0.04687 0.410157,0 0.597657,0.164062 0.796875,0.703125 0.28125,0.738281 0.796875,2.882812 0.796875,3.257812 0,0.164063 -0.07031,0.316406 -0.210937,0.515625 -0.28125,0.363281 -0.515625,0.644531 -0.632813,0.773438 -0.210937,0.222656 -0.316406,0.304687 -0.445312,0.304687 -0.07031,0 -0.128906,-0.03516 -0.246094,-0.117187 -0.140625,-0.117188 -0.246094,-0.164063 -0.363281,-0.164063 -0.222656,0 -0.386719,0.164063 -0.386719,0.386719 0,0.257812 0.199219,0.445312 0.503906,0.445312 0.644532,0 1.945313,-1.488281 3.023438,-3.480468 0.679687,-1.230469 0.960937,-1.945313 0.960937,-2.4375 0,-0.304688 -0.246093,-0.550782 -0.550781,-0.550782 -0.222656,0 -0.386719,0.152344 -0.386719,0.363282 0,0.164062 0.08203,0.269531 0.28125,0.398437 0.1875,0.105469 0.257813,0.199219 0.257813,0.339844 0,0.398437 -0.351563,1.160156 -1.21875,2.589844 l -0.199219,-1.160157 c -0.152344,-0.890625 -0.703125,-2.53125 -0.855469,-2.53125 h -0.04687 c -0.01172,0.01172 -0.04687,0.01172 -0.08203,0.01172 -0.08203,0.01172 -0.457031,0.07031 -0.984375,0.164063 -0.04687,0.01172 -0.175781,0.04687 -0.316406,0.05859 z m 0,0"
       style="fill:#231f20;fill-opacity:1;fill-rule:nonzero;stroke:none"
       aria-label="T&#10;N&#10;M&#10;y"
       transform="matrix(1.3333333,0,0,1.3333333,489.63333,193.19333)" />
    <path
       id="path84"
       d="m 3097.25,1243.25 h 41"
       style="fill:none;stroke:#231f20;stroke-width:5;stroke-linecap:butt;stroke-linejoin:miter;stroke-miterlimit:3.8637;stroke-dasharray:none;stroke-opacity:1"
       transform="matrix(0.13333333,0,0,-0.13333333,0,314.56)" />
    <path
       id="path85"
       d="m 3181.25,1031.25 h 42"
       style="fill:none;stroke:#231f20;stroke-width:5;stroke-linecap:butt;stroke-linejoin:miter;stroke-miterlimit:3.8637;stroke-dasharray:none;stroke-opacity:1"
       transform="matrix(0.13333333,0,0,-0.13333333,0,314.56)" />
    <path
       id="path86"
       d="M 6.878125,-6.5278125 H 5.0148438 V -6.36375 c 0.4570312,0.046875 0.6328125,0.140625 0.6328125,0.3398437 0,0.1875 -0.1875,0.609375 -0.515625,1.1835938 l -2.0625,3.5625 -0.65625,-4.4296875 c -0.011719,-0.046875 -0.011719,-0.09375 -0.011719,-0.1523438 0,-0.3398437 0.140625,-0.4335937 0.7617188,-0.5039062 V -6.5278125 H 0.7609375 V -6.36375 c 0.5625,0.070312 0.5742188,0.082031 0.7851563,1.3476562 l 0.8554687,5.1914063 h 0.1875 L 6.315625,-5.9653125 C 6.4914063,-6.2348438 6.64375,-6.36375 6.878125,-6.36375 Z m 0.5742188,5.53125 c 0.1171875,-0.0351563 0.1992187,-0.046875 0.3046875,-0.046875 0.4101562,0 0.5976562,0.1640625 0.796875,0.703125 0.28125,0.73828125 0.796875,2.8828125 0.796875,3.2578125 0,0.1640625 -0.070312,0.3164062 -0.2109375,0.515625 C 8.8585938,3.7964062 8.6242188,4.0776562 8.5070313,4.2065625 8.2960938,4.4292187 8.190625,4.51125 8.0617188,4.51125 7.9914063,4.51125 7.9328125,4.4760937 7.815625,4.3940625 7.675,4.276875 7.5695313,4.23 7.4523438,4.23 7.2296875,4.23 7.065625,4.3940625 7.065625,4.6167187 c 0,0.2578125 0.1992188,0.4453125 0.5039063,0.4453125 0.6445312,0 1.9453125,-1.4882812 3.0234377,-3.4804687 0.679687,-1.23046875 0.960937,-1.9453125 0.960937,-2.4375 0,-0.3046875 -0.246093,-0.5507813 -0.550781,-0.5507813 -0.222656,0 -0.386719,0.1523438 -0.386719,0.3632813 0,0.1640625 0.08203,0.26953125 0.28125,0.3984375 0.1875,0.10546875 0.257813,0.19921875 0.257813,0.33984375 0,0.3984375 -0.351563,1.16015625 -1.2187502,2.58984375 L 9.7375,1.1245312 C 9.5851563,0.23390625 9.034375,-1.4067188 8.8820313,-1.4067188 H 8.8351563 C 8.8234375,-1.395 8.7882813,-1.395 8.753125,-1.395 8.671094,-1.383281 8.2960938,-1.324688 7.76875,-1.2309375 c -0.046875,0.011719 -0.1757812,0.046875 -0.3164062,0.058594 z M 7.2794922,46.672383 H 5.4162109 v 0.164062 c 0.4570313,0.04687 0.6328125,0.140625 0.6328125,0.339844 0,0.1875 -0.1875,0.609375 -0.515625,1.183594 l -2.0625,3.5625 -0.65625,-4.429688 c -0.011719,-0.04687 -0.011719,-0.09375 -0.011719,-0.152343 0,-0.339844 0.140625,-0.433594 0.7617187,-0.503907 V 46.672383 H 1.1623047 v 0.164062 c 0.5625,0.07031 0.5742187,0.08203 0.7851562,1.347657 l 0.8554688,5.191406 h 0.1875 l 3.7265625,-6.140625 c 0.1757812,-0.269531 0.328125,-0.398438 0.5625,-0.398438 z m 1.2304687,6.433594 C 8.7091797,52.625508 8.8615234,52.50832 9.3185547,52.520039 h 1.4648433 l -3.1054683,3.714844 0.09375,0.09375 c 0.1640625,-0.128906 0.2929687,-0.175781 0.4453125,-0.175781 0.2695312,0 0.5859375,0.128906 1.0546875,0.421875 0.5039062,0.304687 0.8320313,0.433593 1.1132813,0.433593 0.503906,0 0.949219,-0.363281 0.949219,-0.761718 0,-0.222657 -0.140625,-0.351563 -0.351563,-0.351563 -0.199219,0 -0.339844,0.128906 -0.339844,0.316406 0,0.08203 0.02344,0.164063 0.08203,0.292969 0.03516,0.05859 0.05859,0.117188 0.05859,0.140625 0,0.09375 -0.117187,0.152344 -0.269531,0.152344 -0.257812,0 -0.375,-0.08203 -0.7031248,-0.492188 C 9.3654297,55.730977 9.1779297,55.60207 8.6037109,55.473164 L 11.498242,52.027852 V 51.922383 H 8.6623047 L 8.3458984,53.07082 Z m 0,0"
       style="fill:#231f20;fill-opacity:1;fill-rule:nonzero;stroke:none"
       aria-label="V&#10;y&#10;V&#10;z"
       transform="matrix(1.3333333,0,0,1.3333333,413.76667,181.86)" />
    <path
       id="path87"
       d="m 3182.25,495.25 h 42"
       style="fill:none;stroke:#231f20;stroke-width:5;stroke-linecap:butt;stroke-linejoin:miter;stroke-miterlimit:3.8637;stroke-dasharray:none;stroke-opacity:1"
       transform="matrix(0.13333333,0,0,-0.13333333,0,314.56)" />
    <path
       id="path88"
       d="M 8.7300781,-6.5266406 H 7.0542969 L 3.7027344,-1.5930469 3.1519531,-6.5266406 H 1.3355469 v 0.1640625 c 0.5039062,0.023437 0.7382812,0.140625 0.7382812,0.3632812 0,0.082031 -0.035156,0.234375 -0.09375,0.4101563 -0.023437,0.046875 -0.046875,0.140625 -0.09375,0.3046875 l -0.023437,0.1054687 -1.06640622,3.7148438 c -0.3046875,1.04296872 -0.45703125,1.24218747 -0.97265625,1.30078122 V 7.03125e-4 H 1.8042969 V -0.16335938 c -0.515625,-0.0351563 -0.7148438,-0.15234375 -0.7148438,-0.43359375 0,-0.1171875 0.035156,-0.3515625 0.09375,-0.52734377 l 1.171875,-4.3359375 0.609375,5.460937525 H 3.1402344 L 6.9019531,-5.6125781 5.6128906,-0.91335938 c -0.1523437,0.5390625 -0.3515625,0.6796875 -1.0078125,0.75 V 7.03125e-4 H 7.3355469 V -0.16335938 c -0.6796875,-0.0585938 -0.7734375,-0.1171875 -0.7734375,-0.421875 0,-0.17578125 0.023437,-0.3046875 0.1171875,-0.60937502 l 1.2304687,-4.4296875 c 0.1757813,-0.5976562 0.2226563,-0.65625 0.8203125,-0.7382812 z m 2.0771489,6.43359372 c 0.199218,-0.48046875 0.351562,-0.59765625 0.808593,-0.5859375 h 1.464844 l -3.1054687,3.71484378 0.09375,0.09375 c 0.164063,-0.1289063 0.292969,-0.1757813 0.445313,-0.1757813 0.269531,0 0.585937,0.1289063 1.054687,0.421875 0.503907,0.3046875 0.832032,0.4335938 1.113282,0.4335938 0.503906,0 0.949218,-0.3632813 0.949218,-0.7617188 0,-0.2226562 -0.140625,-0.3515625 -0.351562,-0.3515625 -0.199219,0 -0.339844,0.1289063 -0.339844,0.3164063 0,0.082031 0.02344,0.1640625 0.08203,0.2929687 0.03516,0.058594 0.05859,0.1171875 0.05859,0.140625 0,0.09375 -0.117187,0.1523438 -0.269531,0.1523438 -0.257813,0 -0.375,-0.082031 -0.703125,-0.4921875 C 11.66269,2.5319531 11.47519,2.4030469 10.900972,2.2741406 l 2.894531,-3.4453125 V -1.2766406 H 10.95957 l -0.316406,1.14843747 z m 0,0"
       style="fill:#231f20;fill-opacity:1;fill-rule:nonzero;stroke:none"
       aria-label="M&#10;z"
       transform="matrix(1.3333333,0,0,1.3333333,405.63333,273.46)" />
    <path
       id="path89"
       d="m 3145.25,340.25 h 42"
       style="fill:none;stroke:#231f20;stroke-width:5;stroke-linecap:butt;stroke-linejoin:miter;stroke-miterlimit:3.8637;stroke-dasharray:none;stroke-opacity:1"
       transform="matrix(0.13333333,0,0,-0.13333333,0,314.56)" />
    <path
       id="path90"
       d="m 3297.25,502.25 -134,224"
       style="fill:none;stroke:#231f20;stroke-width:2.5;stroke-linecap:butt;stroke-linejoin:miter;stroke-miterlimit:3.8637;stroke-dasharray:none;stroke-opacity:1"
       transform="matrix(0.13333333,0,0,-0.13333333,0,314.56)" />
    <path
       id="path91"
       d="m 3296.25,504.25 13,8 6,-40 -32,25 13,7"
       style="fill:#231f20;fill-opacity:1;fill-rule:evenodd;stroke:none"
       transform="matrix(0.13333333,0,0,-0.13333333,0,314.56)" />
    <path
       id="path92"
       d="m 3162.25,728.25 -224,-134"
       style="fill:none;stroke:#231f20;stroke-width:2.5;stroke-linecap:butt;stroke-linejoin:miter;stroke-miterlimit:3.8637;stroke-dasharray:none;stroke-opacity:1"
       transform="matrix(0.13333333,0,0,-0.13333333,0,314.56)" />
    <path
       id="path93"
       d="m 2940.25,595.25 8,-13 -40,-6 25,32 7,-13"
       style="fill:#231f20;fill-opacity:1;fill-rule:evenodd;stroke:none"
       transform="matrix(0.13333333,0,0,-0.13333333,0,314.56)" />
    <path
       id="path94"
       d="m 3252.25,893.25 -89,-167"
       style="fill:none;stroke:#231f20;stroke-width:2.5;stroke-linecap:butt;stroke-linejoin:miter;stroke-miterlimit:3.8637;stroke-dasharray:none;stroke-opacity:1"
       transform="matrix(0.13333333,0,0,-0.13333333,0,314.56)" />
    <path
       id="path95"
       d="m 3251.25,890.25 -13,7 31,27 -5,-41 -13,7"
       style="fill:#231f20;fill-opacity:1;fill-rule:evenodd;stroke:none"
       transform="matrix(0.13333333,0,0,-0.13333333,0,314.56)" />
    <path
       id="path96"
       d="m 3458.25,230.25 -24,41"
       style="fill:none;stroke:#231f20;stroke-width:2.251;stroke-linecap:butt;stroke-linejoin:miter;stroke-miterlimit:3.8637;stroke-dasharray:20, 20;stroke-dashoffset:0;stroke-opacity:1"
       transform="matrix(0.13333333,0,0,-0.13333333,0,314.56)" />
    <path
       id="path97"
       d="m 3456.25,232.25 12,7 5,-36 -28,22 11,7"
       style="fill:#231f20;fill-opacity:1;fill-rule:evenodd;stroke:none"
       transform="matrix(0.13333333,0,0,-0.13333333,0,314.56)" />
    <path
       id="path98"
       d="m 2715.25,462.25 -46,-29"
       style="fill:none;stroke:#231f20;stroke-width:2.251;stroke-linecap:butt;stroke-linejoin:miter;stroke-miterlimit:3.8637;stroke-dasharray:20, 20;stroke-dashoffset:0;stroke-opacity:1"
       transform="matrix(0.13333333,0,0,-0.13333333,0,314.56)" />
    <path
       id="path99"
       d="m 2671.25,434.25 7,-11 -36,-7 22,30 7,-12"
       style="fill:#231f20;fill-opacity:1;fill-rule:evenodd;stroke:none"
       transform="matrix(0.13333333,0,0,-0.13333333,0,314.56)" />
    <path
       id="path100"
       d="m 3362.25,1097.25 -30,-53"
       style="fill:none;stroke:#231f20;stroke-width:2.251;stroke-linecap:butt;stroke-linejoin:miter;stroke-miterlimit:3.8637;stroke-dasharray:20, 20;stroke-dashoffset:0;stroke-opacity:1"
       transform="matrix(0.13333333,0,0,-0.13333333,0,314.56)" />
    <path
       id="path101"
       d="m 3361.25,1095.25 -12,7 28,23 -4,-36 -12,6"
       style="fill:#231f20;fill-opacity:1;fill-rule:evenodd;stroke:none"
       transform="matrix(0.13333333,0,0,-0.13333333,0,314.56)" />
    <path
       id="path102"
       d="m 2875.25,556.25 -181,-109"
       style="fill:none;stroke:#231f20;stroke-width:2.5;stroke-linecap:butt;stroke-linejoin:miter;stroke-miterlimit:3.8637;stroke-dasharray:20, 20;stroke-dashoffset:0;stroke-opacity:1"
       transform="matrix(0.13333333,0,0,-0.13333333,0,314.56)" />
    <path
       id="path103"
       d="m 2696.25,449.25 8,-13 -40,-7 25,33 7,-13"
       style="fill:#231f20;fill-opacity:1;fill-rule:evenodd;stroke:none"
       transform="matrix(0.13333333,0,0,-0.13333333,0,314.56)" />
    <path
       id="path104"
       d="m 3442.25,257.25 -117,195"
       style="fill:none;stroke:#231f20;stroke-width:2.5;stroke-linecap:butt;stroke-linejoin:miter;stroke-miterlimit:3.8637;stroke-dasharray:20, 20;stroke-dashoffset:0;stroke-opacity:1"
       transform="matrix(0.13333333,0,0,-0.13333333,0,314.56)" />
    <path
       id="path105"
       d="m 3440.25,259.25 13,8 7,-40 -33,25 13,7"
       style="fill:#231f20;fill-opacity:1;fill-rule:evenodd;stroke:none"
       transform="matrix(0.13333333,0,0,-0.13333333,0,314.56)" />
    <path
       id="path106"
       d="m 3348.25,1070.25 -68,-127"
       style="fill:none;stroke:#231f20;stroke-width:2.5;stroke-linecap:butt;stroke-linejoin:miter;stroke-miterlimit:3.8637;stroke-dasharray:20, 20;stroke-dashoffset:0;stroke-opacity:1"
       transform="matrix(0.13333333,0,0,-0.13333333,0,314.56)" />
    <path
       id="path107"
       d="m 3347.25,1068.25 -13,7 30,26 -4,-40 -13,7"
       style="fill:#231f20;fill-opacity:1;fill-rule:evenodd;stroke:none"
       transform="matrix(0.13333333,0,0,-0.13333333,0,314.56)" />
    <path
       id="path108"
       d="m 3230.25,832.25 37,-57 c 0.74,-0.832 -46.85,-82.348 -48,-81 l -33,57 c -1.12,1.043 43.64,82.563 44,81"
       style="fill:#d3d2d2;fill-opacity:1;fill-rule:nonzero;stroke:none"
       transform="matrix(0.13333333,0,0,-0.13333333,0,314.56)" />
    <path
       id="path109"
       d="m 3230.25,832.25 37,-57 c 0.74,-0.832 -46.85,-82.348 -48,-81 l -33,57 c -1.12,1.043 43.64,82.563 44,81 z"
       style="fill:none;stroke:#231f20;stroke-width:5.424;stroke-linecap:butt;stroke-linejoin:miter;stroke-miterlimit:3.8637;stroke-dasharray:none;stroke-opacity:1"
       transform="matrix(0.13333333,0,0,-0.13333333,0,314.56)" />
    <path
       id="path110"
       d="m 3144.25,779.25 c -0.17,-0.363 -45.43,-80.059 -45,-81 l 35,-57 85,51 -34,57 c -1.1,1.676 44.17,81.371 44,81 l -85,-51"
       style="fill:#d3d2d2;fill-opacity:1;fill-rule:nonzero;stroke:none"
       transform="matrix(0.13333333,0,0,-0.13333333,0,314.56)" />
    <path
       id="path111"
       d="m 3144.25,779.25 c -0.17,-0.363 -45.43,-80.059 -45,-81 l 35,-57 85,51 -34,57 c -1.1,1.676 44.17,81.371 44,81 z"
       style="fill:none;stroke:#231f20;stroke-width:5.424;stroke-linecap:butt;stroke-linejoin:miter;stroke-miterlimit:3.8637;stroke-dasharray:none;stroke-opacity:1"
       transform="matrix(0.13333333,0,0,-0.13333333,0,314.56)" />
    <path
       id="path112"
       d="m 3100.25,699.25 85,51"
       style="fill:none;stroke:#231f20;stroke-width:5.424;stroke-linecap:butt;stroke-linejoin:miter;stroke-miterlimit:3.8637;stroke-dasharray:none;stroke-opacity:1"
       transform="matrix(0.13333333,0,0,-0.13333333,0,314.56)" />
    <path
       id="path113"
       d="m 2933.25,1253.25 23,-41"
       style="fill:none;stroke:#231f20;stroke-width:2.251;stroke-linecap:butt;stroke-linejoin:miter;stroke-miterlimit:3.8637;stroke-dasharray:20, 20;stroke-dashoffset:0;stroke-opacity:1"
       transform="matrix(0.13333333,0,0,-0.13333333,0,314.56)" />
    <path
       id="path114"
       d="m 2934.25,1251.25 -12,-7 -5,36 29,-22 -12,-7"
       style="fill:#231f20;fill-opacity:1;fill-rule:evenodd;stroke:none"
       transform="matrix(0.13333333,0,0,-0.13333333,0,314.56)" />
    <path
       id="path115"
       d="m 3675.25,1022.25 46,28"
       style="fill:none;stroke:#231f20;stroke-width:2.251;stroke-linecap:butt;stroke-linejoin:miter;stroke-miterlimit:3.8637;stroke-dasharray:20, 20;stroke-dashoffset:0;stroke-opacity:1"
       transform="matrix(0.13333333,0,0,-0.13333333,0,314.56)" />
    <path
       id="path116"
       d="m 3719.25,1049.25 -7,12 36,6 -22,-29 -7,11"
       style="fill:#231f20;fill-opacity:1;fill-rule:evenodd;stroke:none"
       transform="matrix(0.13333333,0,0,-0.13333333,0,314.56)" />
    <path
       id="path117"
       d="m 3028.25,386.25 30,54"
       style="fill:none;stroke:#231f20;stroke-width:2.251;stroke-linecap:butt;stroke-linejoin:miter;stroke-miterlimit:3.8637;stroke-dasharray:20, 20;stroke-dashoffset:0;stroke-opacity:1"
       transform="matrix(0.13333333,0,0,-0.13333333,0,314.56)" />
    <path
       id="path118"
       d="m 3029.25,388.25 12,-6 -28,-23 5,36 11,-7"
       style="fill:#231f20;fill-opacity:1;fill-rule:evenodd;stroke:none"
       transform="matrix(0.13333333,0,0,-0.13333333,0,314.56)" />
    <path
       id="path119"
       d="m 3515.25,927.25 181,109"
       style="fill:none;stroke:#231f20;stroke-width:2.5;stroke-linecap:butt;stroke-linejoin:miter;stroke-miterlimit:3.8637;stroke-dasharray:20, 20;stroke-dashoffset:0;stroke-opacity:1"
       transform="matrix(0.13333333,0,0,-0.13333333,0,314.56)" />
    <path
       id="path120"
       d="m 3694.25,1035.25 -8,12 40,7 -24,-32 -8,13"
       style="fill:#231f20;fill-opacity:1;fill-rule:evenodd;stroke:none"
       transform="matrix(0.13333333,0,0,-0.13333333,0,314.56)" />
    <path
       id="path121"
       d="m 2949.25,1226.25 117,-195"
       style="fill:none;stroke:#231f20;stroke-width:2.5;stroke-linecap:butt;stroke-linejoin:miter;stroke-miterlimit:3.8637;stroke-dasharray:20, 20;stroke-dashoffset:0;stroke-opacity:1"
       transform="matrix(0.13333333,0,0,-0.13333333,0,314.56)" />
    <path
       id="path122"
       d="m 2950.25,1224.25 -13,-8 -6,40 32,-24 -13,-8"
       style="fill:#231f20;fill-opacity:1;fill-rule:evenodd;stroke:none"
       transform="matrix(0.13333333,0,0,-0.13333333,0,314.56)" />
    <path
       id="path123"
       d="m 3042.25,413.25 68,127"
       style="fill:none;stroke:#231f20;stroke-width:2.5;stroke-linecap:butt;stroke-linejoin:miter;stroke-miterlimit:3.8637;stroke-dasharray:20, 20;stroke-dashoffset:0;stroke-opacity:1"
       transform="matrix(0.13333333,0,0,-0.13333333,0,314.56)" />
    <path
       id="path124"
       d="m 3043.25,415.25 14,-7 -31,-26 4,40 13,-7"
       style="fill:#231f20;fill-opacity:1;fill-rule:evenodd;stroke:none"
       transform="matrix(0.13333333,0,0,-0.13333333,0,314.56)" />
    <path
       id="path125"
       d="m 3093.25,981.25 134,-223"
       style="fill:none;stroke:#231f20;stroke-width:2.5;stroke-linecap:butt;stroke-linejoin:miter;stroke-miterlimit:3.8637;stroke-dasharray:none;stroke-opacity:1"
       transform="matrix(0.13333333,0,0,-0.13333333,0,314.56)" />
    <path
       id="path126"
       d="m 3094.25,979.25 -12,-8 -7,40 32,-25 -13,-7"
       style="fill:#231f20;fill-opacity:1;fill-rule:evenodd;stroke:none"
       transform="matrix(0.13333333,0,0,-0.13333333,0,314.56)" />
    <path
       id="path127"
       d="m 3229.25,755.25 223,135"
       style="fill:none;stroke:#231f20;stroke-width:2.5;stroke-linecap:butt;stroke-linejoin:miter;stroke-miterlimit:3.8637;stroke-dasharray:none;stroke-opacity:1"
       transform="matrix(0.13333333,0,0,-0.13333333,0,314.56)" />
    <path
       id="path128"
       d="m 3450.25,888.25 -8,13 40,7 -24,-33 -8,13"
       style="fill:#231f20;fill-opacity:1;fill-rule:evenodd;stroke:none"
       transform="matrix(0.13333333,0,0,-0.13333333,0,314.56)" />
    <path
       id="path129"
       d="m 3138.25,591.25 89,166"
       style="fill:none;stroke:#231f20;stroke-width:2.5;stroke-linecap:butt;stroke-linejoin:miter;stroke-miterlimit:3.8637;stroke-dasharray:none;stroke-opacity:1"
       transform="matrix(0.13333333,0,0,-0.13333333,0,314.56)" />
    <path
       id="path130"
       d="m 3139.25,593.25 14,-7 -31,-26 4,40 13,-7"
       style="fill:#231f20;fill-opacity:1;fill-rule:evenodd;stroke:none"
       transform="matrix(0.13333333,0,0,-0.13333333,0,314.56)" />
    <path
       id="path131"
       d="m 1871.25,1156.25 c 198.83,35.25 408.28,26.8 615,-33 195.35,-55.5 368.43,-151.027 513,-275"
       style="fill:none;stroke:#231f20;stroke-width:2.5;stroke-linecap:butt;stroke-linejoin:miter;stroke-miterlimit:3.8637;stroke-dasharray:none;stroke-opacity:1"
       transform="matrix(0.13333333,0,0,-0.13333333,0,314.56)" />
    <path
       id="path132"
       d="m 2997.25,850.25 10,11 19,-36 -39,13 10,12"
       style="fill:#231f20;fill-opacity:1;fill-rule:evenodd;stroke:none"
       transform="matrix(0.13333333,0,0,-0.13333333,0,314.56)" />
  </g>
</svg>
