<?xml version="1.0" encoding="UTF-8" standalone="no"?>
<!-- Created with Inkscape (http://www.inkscape.org/) -->

<svg
   version="1.1"
   id="svg1"
   width="284.74667"
   height="232.53333"
   viewBox="0 0 284.74667 232.53333"
   sodipodi:docname="BEAM2LOA.EPS"
   xmlns:inkscape="http://www.inkscape.org/namespaces/inkscape"
   xmlns:sodipodi="http://sodipodi.sourceforge.net/DTD/sodipodi-0.dtd"
   xmlns="http://www.w3.org/2000/svg"
   xmlns:svg="http://www.w3.org/2000/svg">
  <defs
     id="defs1" />
  <sodipodi:namedview
     id="namedview1"
     pagecolor="#ffffff"
     bordercolor="#000000"
     borderopacity="0.25"
     inkscape:showpageshadow="2"
     inkscape:pageopacity="0.0"
     inkscape:pagecheckerboard="0"
     inkscape:deskcolor="#d1d1d1">
    <inkscape:page
       x="0"
       y="0"
       inkscape:label="1"
       id="page1"
       width="284.74667"
       height="232.53333"
       margin="0"
       bleed="0" />
  </sodipodi:namedview>
  <g
     id="g1"
     inkscape:groupmode="layer"
     inkscape:label="1">
    <path
       id="path1"
       d="m 607.25,615.25 1414,850 37,-61 -1415,-851 z"
       style="fill:none;stroke:#231f20;stroke-width:5;stroke-linecap:butt;stroke-linejoin:miter;stroke-miterlimit:3.8637;stroke-dasharray:none;stroke-opacity:1"
       transform="matrix(0.13333333,0,0,-0.13333333,0,232.53333)" />
    <path
       id="path2"
       d="m 4.8279297,-1.3357422 c -0.1054688,0.1171875 -0.1640625,0.1875 -0.2695313,0.328125 -0.2695312,0.36328126 -0.421875,0.48046876 -0.5625,0.48046876 -0.1640625,0 -0.28125,-0.15234375 -0.3632812,-0.49218746 -0.035156,-0.1289063 -0.035156,-0.1523438 -0.046875,-0.1875 -0.2929688,-1.2304688 -0.4335938,-1.78125 -0.4335938,-1.9570313 0.5390625,-0.9375 0.9609375,-1.453125 1.1835938,-1.453125 0.070312,0 0.1757812,0.035156 0.28125,0.09375 0.1523437,0.082031 0.234375,0.1054688 0.3398437,0.1054688 0.234375,0 0.4101563,-0.1757813 0.4101563,-0.4335938 0,-0.2578125 -0.2109375,-0.4453125 -0.4921875,-0.4453125 -0.5273438,0 -0.9726563,0.4335938 -1.8164063,1.7226563 l -0.1289062,-0.65625 C 2.7654297,-5.0505859 2.6248047,-5.2966797 2.3083984,-5.2966797 c -0.28125,0 -0.6679687,0.1054688 -1.40624996,0.3515625 -0.0703125,0.023437 -0.0703125,0.023437 -0.12890625,0.046875 l 0.046875,0.1875 c 0.46875001,-0.1289062 0.55078121,-0.140625 0.66796871,-0.140625 0.3046875,0 0.375,0.1171875 0.5390625,0.8320313 l 0.3515625,1.4765625 -0.984375,1.40625 c -0.2578125,0.35156246 -0.48046871,0.57421871 -0.60937496,0.57421871 -0.0820313,0 -0.19921875,-0.0351563 -0.31640625,-0.10546875 -0.15234375,-0.09375 -0.28125,-0.12890625 -0.38671875,-0.12890625 -0.234375,0 -0.41015625,0.1875 -0.41015625,0.421875 0,0.31640625 0.234375,0.50390625 0.609375,0.50390625 0.36328125,0 0.515625,-0.10546875 1.11328121,-0.8203125 0.3164063,-0.39843746 0.5859375,-0.76171876 1.078125,-1.41796876 l 0.3632813,1.44140626 c 0.1523437,0.62109375 0.3046875,0.796875 0.6914062,0.796875 0.4570313,0 0.7734375,-0.28125 1.4648438,-1.35937496 z M -79.722852,-84.805469 c 0.152344,-0.03516 0.246094,-0.04687 0.375,-0.04687 0.492188,0 0.726563,0.199219 0.960938,0.84375 0.328125,0.890625 0.949219,3.457032 0.949219,3.914063 0,0.1875 -0.08203,0.386719 -0.257813,0.609375 -0.328125,0.445312 -0.609375,0.785156 -0.75,0.9375 -0.257812,0.257812 -0.386719,0.363281 -0.539062,0.363281 -0.08203,0 -0.152344,-0.03516 -0.292969,-0.140625 -0.175781,-0.140625 -0.292969,-0.199219 -0.445313,-0.199219 -0.257812,0 -0.46875,0.199219 -0.46875,0.46875 0,0.316407 0.257813,0.527344 0.621094,0.527344 0.761719,0 2.320313,-1.792969 3.632813,-4.171875 0.820312,-1.476562 1.148437,-2.34375 1.148437,-2.929687 0,-0.363282 -0.292969,-0.667969 -0.65625,-0.667969 -0.28125,0 -0.46875,0.1875 -0.46875,0.445312 0,0.199219 0.09375,0.316407 0.339844,0.46875 0.222656,0.140625 0.304687,0.246094 0.304687,0.410157 0,0.480468 -0.433593,1.40625 -1.464843,3.105468 l -0.234375,-1.394531 c -0.1875,-1.066406 -0.855469,-3.035156 -1.03125,-3.035156 h -0.04687 c -0.02344,0.01172 -0.05859,0.01172 -0.117188,0.01172 -0.09375,0.01172 -0.539062,0.09375 -1.171875,0.210937 -0.05859,0.01172 -0.210937,0.04687 -0.386719,0.07031 z m 0,0"
       style="fill:#231f20;fill-opacity:1;fill-rule:nonzero;stroke:none"
       aria-label="x&#10;y"
       transform="matrix(1.3333333,0,0,1.3333333,110.56667,225.43333)" />
    <path
       id="path3"
       d="m 161.25,889.25 v -714"
       style="fill:none;stroke:#231f20;stroke-width:2.5;stroke-linecap:butt;stroke-linejoin:miter;stroke-miterlimit:3.8637;stroke-dasharray:none;stroke-opacity:1"
       transform="matrix(0.13333333,0,0,-0.13333333,0,232.53333)" />
    <path
       id="path4"
       d="m 161.25,886.25 h -15 l 15,38 15,-38 h -15"
       style="fill:#231f20;fill-opacity:1;fill-rule:evenodd;stroke:none"
       transform="matrix(0.13333333,0,0,-0.13333333,0,232.53333)" />
    <path
       id="path5"
       d="m 161.25,175.25 h 714"
       style="fill:none;stroke:#231f20;stroke-width:2.5;stroke-linecap:butt;stroke-linejoin:miter;stroke-miterlimit:3.8637;stroke-dasharray:none;stroke-opacity:1"
       transform="matrix(0.13333333,0,0,-0.13333333,0,232.53333)" />
    <path
       id="path6"
       d="m 872.25,175.25 v 15 l 38,-15 -38,-15 v 15"
       style="fill:#231f20;fill-opacity:1;fill-rule:evenodd;stroke:none"
       transform="matrix(0.13333333,0,0,-0.13333333,0,232.53333)" />
    <path
       id="path7"
       d="m 1997.25,1487.25 -1393,-844"
       style="fill:none;stroke:#231f20;stroke-width:2.5;stroke-linecap:butt;stroke-linejoin:miter;stroke-miterlimit:3.8637;stroke-dasharray:none;stroke-opacity:1"
       transform="matrix(0.13333333,0,0,-0.13333333,0,232.53333)" />
    <path
       id="path8"
       d="M 0.49101563,-5.859375e-4 H 3.2800781 V -0.15292969 H 3.1042969 c -0.4921875,0 -0.6914063,-0.0820313 -0.6914063,-0.31640625 0,-0.09375 0.035156,-0.24609375 0.1289063,-0.515625 0.011719,-0.0703125 0.023437,-0.12890626 0.058594,-0.22265626 l 1.4296875,-5.1914062 c 0.046875,-0.1757813 0.058594,-0.234375 0.058594,-0.2929688 0,-0.035156 -0.023437,-0.070312 -0.046875,-0.070312 0,0 -0.28125,0.058594 -0.8203125,0.1640625 l -0.9023438,0.1757813 c -0.023437,0.011719 -0.09375,0.023437 -0.2109375,0.046875 v 0.1523437 l 0.5742188,-0.023437 c 0.2226562,-0.011719 0.375,0.1054688 0.375,0.3046875 0,0.070312 -0.023437,0.140625 -0.070312,0.3398438 l -1.3828125,4.92187496 c -0.1171875,0.375 -0.328125,0.46875 -1.11328127,0.5390625 z M 140.59746,-85.295508 c -0.22266,0.492188 -0.42187,0.609375 -0.98437,0.632813 h -1.89844 v -0.04687 l 1.91015,-1.921875 c 1.17188,-1.171875 1.5,-1.664063 1.5,-2.332032 0,-0.960937 -0.71484,-1.699218 -1.6289,-1.699218 -0.35156,0 -0.72656,0.09375 -1.01953,0.269531 -0.51563,0.269531 -0.78516,0.609375 -1.07813,1.335937 l 0.21094,0.07031 c 0.375,-0.65625 0.79687,-0.9375 1.40625,-0.9375 0.71484,0 1.24219,0.515625 1.24219,1.21875 0,0.210937 -0.0234,0.398437 -0.082,0.527344 -0.2461,0.539062 -0.70313,1.171875 -1.35938,1.863281 l -2.09766,2.238281 v 0.175781 h 3.55079 l 0.5039,-1.324218 z m -8.68359,-31.895512 h -0.1875 c -0.36328,0 -0.5625,-0.10546 -0.5625,-0.29296 0,-0.0234 0.0117,-0.0703 0.0234,-0.10547 l 1.64063,-5.76563 h -0.72656 l -0.15235,0.46875 c -0.16406,-0.46875 -0.36328,-0.62109 -0.77343,-0.62109 -1.3125,0 -2.92969,1.83984 -2.92969,3.35156 0,0.71484 0.39844,1.16016 1.01953,1.16016 0.71484,0 1.17187,-0.35157 2.0625,-1.64063 l -0.89063,2.92969 c -0.1289,0.41016 -0.29296,0.49219 -0.9375,0.53906 v 0.15235 h 2.41407 z m -0.70313,-6.09375 c 0.32813,0 0.58594,0.26954 0.58594,0.59766 0,0.83203 -0.67969,2.26172 -1.35938,2.82422 -0.25781,0.22266 -0.52734,0.33984 -0.77343,0.33984 -0.33985,0 -0.55078,-0.29297 -0.55078,-0.77343 0,-0.73829 0.51562,-1.82813 1.16015,-2.50782 0.31641,-0.30468 0.64453,-0.48047 0.9375,-0.48047 z m 2.94141,3.1875 c 0.11719,-0.0352 0.19922,-0.0469 0.30469,-0.0469 0.41015,0 0.59765,0.16406 0.79687,0.70312 0.28125,0.73829 0.79688,2.88282 0.79688,3.25782 0,0.16406 -0.0703,0.3164 -0.21094,0.51562 -0.28125,0.36328 -0.51563,0.64453 -0.63281,0.77344 -0.21094,0.22266 -0.31641,0.30469 -0.44532,0.30469 -0.0703,0 -0.1289,-0.0352 -0.24609,-0.11719 -0.14063,-0.11719 -0.24609,-0.16406 -0.36328,-0.16406 -0.22266,0 -0.38672,0.16406 -0.38672,0.38672 0,0.25781 0.19922,0.44531 0.50391,0.44531 0.64453,0 1.94531,-1.48828 3.02343,-3.48047 0.67969,-1.23047 0.96094,-1.94531 0.96094,-2.4375 0,-0.30469 -0.24609,-0.55078 -0.55078,-0.55078 -0.22266,0 -0.38672,0.15234 -0.38672,0.36328 0,0.16406 0.082,0.26953 0.28125,0.39844 0.1875,0.10547 0.25781,0.19922 0.25781,0.33984 0,0.39844 -0.35156,1.16016 -1.21875,2.58984 l -0.19922,-1.16015 c -0.15234,-0.89063 -0.70312,-2.53125 -0.85546,-2.53125 h -0.0469 c -0.0117,0.0117 -0.0469,0.0117 -0.082,0.0117 -0.082,0.0117 -0.45703,0.0703 -0.98438,0.16406 -0.0469,0.0117 -0.17578,0.0469 -0.3164,0.0586 z m -52.438478,70.107426 h -0.1875 c -0.363281,0 -0.5625,-0.105468 -0.5625,-0.292968 0,-0.02344 0.01172,-0.07031 0.02344,-0.105469 l 1.640625,-5.765625 h -0.726562 l -0.152344,0.46875 c -0.164062,-0.46875 -0.363281,-0.621094 -0.773437,-0.621094 -1.3125,0 -2.929688,1.839844 -2.929688,3.351563 0,0.714843 0.398438,1.160156 1.019531,1.160156 0.714844,0 1.171875,-0.351563 2.0625,-1.640625 l -0.890625,2.929687 c -0.128906,0.410157 -0.292968,0.492188 -0.9375,0.539063 v 0.152344 h 2.414063 z m -0.703125,-6.09375 c 0.328125,0 0.585937,0.269532 0.585937,0.597657 0,0.832031 -0.679687,2.261718 -1.359375,2.824218 -0.257812,0.222657 -0.527343,0.339844 -0.773437,0.339844 -0.339844,0 -0.550781,-0.292969 -0.550781,-0.773437 0,-0.738282 0.515625,-1.828125 1.160156,-2.507813 0.316406,-0.304687 0.644531,-0.480469 0.9375,-0.480469 z m 6.808594,6.070313 c -0.08203,0.09375 -0.128907,0.152344 -0.222657,0.269531 -0.222656,0.304688 -0.351562,0.398438 -0.46875,0.398438 -0.140625,0 -0.234375,-0.128907 -0.304687,-0.410157 -0.02344,-0.105468 -0.02344,-0.128906 -0.03516,-0.152343 -0.246094,-1.019532 -0.363282,-1.476563 -0.363282,-1.628907 0.457032,-0.785156 0.808594,-1.207031 0.984375,-1.207031 0.05859,0 0.152344,0.02344 0.234375,0.07031 0.128907,0.07031 0.199219,0.09375 0.28125,0.09375 0.199219,0 0.339844,-0.152344 0.339844,-0.363282 0,-0.210937 -0.164062,-0.363281 -0.410156,-0.363281 -0.433594,0 -0.808594,0.363281 -1.5,1.429688 l -0.117188,-0.550782 c -0.140625,-0.679687 -0.246093,-0.878906 -0.515625,-0.878906 -0.234375,0 -0.550781,0.08203 -1.171875,0.292969 -0.05859,0.01172 -0.05859,0.01172 -0.105468,0.03516 l 0.03516,0.152344 c 0.386719,-0.105469 0.457031,-0.117188 0.5625,-0.117188 0.246094,0 0.304687,0.09375 0.445312,0.691407 l 0.292969,1.230468 -0.820312,1.171875 c -0.210938,0.304688 -0.398438,0.480469 -0.515625,0.480469 -0.05859,0 -0.152344,-0.03516 -0.257813,-0.09375 -0.128906,-0.07031 -0.222656,-0.09375 -0.316406,-0.09375 -0.199219,0 -0.339844,0.140625 -0.339844,0.351563 0,0.257812 0.1875,0.410156 0.503906,0.410156 0.304688,0 0.421875,-0.08203 0.925782,-0.679688 0.269531,-0.339843 0.492187,-0.632812 0.902343,-1.183593 l 0.292969,1.195312 c 0.128906,0.527344 0.257813,0.667969 0.585938,0.667969 0.375,0 0.632812,-0.234375 1.21875,-1.136719 z m 0,0"
       style="fill:#231f20;fill-opacity:1;fill-rule:nonzero;stroke:none"
       aria-label="1&#10;2&#10;q&#10;y&#10;q&#10;x"
       transform="matrix(1.3333333,0,0,1.3333333,89.9,175.7)" />
    <path
       id="path9"
       d="m 2023.25,1648.25 h 41"
       style="fill:none;stroke:#231f20;stroke-width:5;stroke-linecap:butt;stroke-linejoin:miter;stroke-miterlimit:3.8637;stroke-dasharray:none;stroke-opacity:1"
       transform="matrix(0.13333333,0,0,-0.13333333,0,232.53333)" />
    <path
       id="path10"
       d="m 1517.25,974.25 h 42"
       style="fill:none;stroke:#231f20;stroke-width:5;stroke-linecap:butt;stroke-linejoin:miter;stroke-miterlimit:3.8637;stroke-dasharray:none;stroke-opacity:1"
       transform="matrix(0.13333333,0,0,-0.13333333,0,232.53333)" />
    <path
       id="path11"
       d="m 604.25,643.25 -130,215"
       style="fill:none;stroke:#231f20;stroke-width:2.835;stroke-linecap:butt;stroke-linejoin:miter;stroke-miterlimit:3.8637;stroke-dasharray:none;stroke-opacity:1"
       transform="matrix(0.13333333,0,0,-0.13333333,0,232.53333)" />
    <path
       id="path12"
       d="m 474.25,858.25 -8,-18 -9,47 38,-30 -21,1"
       style="fill:#231f20;fill-opacity:1;fill-rule:evenodd;stroke:none"
       transform="matrix(0.13333333,0,0,-0.13333333,0,232.53333)" />
    <path
       id="path13"
       d="m 743.25,727.25 -129,215"
       style="fill:none;stroke:#231f20;stroke-width:2.835;stroke-linecap:butt;stroke-linejoin:miter;stroke-miterlimit:3.8637;stroke-dasharray:none;stroke-opacity:1"
       transform="matrix(0.13333333,0,0,-0.13333333,0,232.53333)" />
    <path
       id="path14"
       d="m 614.25,942.25 -9,-18 -9,48 38,-30 h -20"
       style="fill:#231f20;fill-opacity:1;fill-rule:evenodd;stroke:none"
       transform="matrix(0.13333333,0,0,-0.13333333,0,232.53333)" />
    <path
       id="path15"
       d="m 882.25,812.25 -129,215"
       style="fill:none;stroke:#231f20;stroke-width:2.835;stroke-linecap:butt;stroke-linejoin:miter;stroke-miterlimit:3.8637;stroke-dasharray:none;stroke-opacity:1"
       transform="matrix(0.13333333,0,0,-0.13333333,0,232.53333)" />
    <path
       id="path16"
       d="m 753.25,1027.25 -9,-19 -8,48 38,-30 -21,1"
       style="fill:#231f20;fill-opacity:1;fill-rule:evenodd;stroke:none"
       transform="matrix(0.13333333,0,0,-0.13333333,0,232.53333)" />
    <path
       id="path17"
       d="m 1022.25,896.25 -129,215"
       style="fill:none;stroke:#231f20;stroke-width:2.835;stroke-linecap:butt;stroke-linejoin:miter;stroke-miterlimit:3.8637;stroke-dasharray:none;stroke-opacity:1"
       transform="matrix(0.13333333,0,0,-0.13333333,0,232.53333)" />
    <path
       id="path18"
       d="m 893.25,1111.25 -9,-18 -9,47 38,-30 -20,1"
       style="fill:#231f20;fill-opacity:1;fill-rule:evenodd;stroke:none"
       transform="matrix(0.13333333,0,0,-0.13333333,0,232.53333)" />
    <path
       id="path19"
       d="m 1161.25,980.25 -129,216"
       style="fill:none;stroke:#231f20;stroke-width:2.835;stroke-linecap:butt;stroke-linejoin:miter;stroke-miterlimit:3.8637;stroke-dasharray:none;stroke-opacity:1"
       transform="matrix(0.13333333,0,0,-0.13333333,0,232.53333)" />
    <path
       id="path20"
       d="m 1032.25,1196.25 -9,-19 -9,48 38,-30 -20,1"
       style="fill:#231f20;fill-opacity:1;fill-rule:evenodd;stroke:none"
       transform="matrix(0.13333333,0,0,-0.13333333,0,232.53333)" />
    <path
       id="path21"
       d="m 1301.25,1065.25 -130,215"
       style="fill:none;stroke:#231f20;stroke-width:2.835;stroke-linecap:butt;stroke-linejoin:miter;stroke-miterlimit:3.8637;stroke-dasharray:none;stroke-opacity:1"
       transform="matrix(0.13333333,0,0,-0.13333333,0,232.53333)" />
    <path
       id="path22"
       d="m 1171.25,1280.25 -8,-19 -9,48 38,-30 -21,1"
       style="fill:#231f20;fill-opacity:1;fill-rule:evenodd;stroke:none"
       transform="matrix(0.13333333,0,0,-0.13333333,0,232.53333)" />
    <path
       id="path23"
       d="m 1440.25,1149.25 -129,215"
       style="fill:none;stroke:#231f20;stroke-width:2.835;stroke-linecap:butt;stroke-linejoin:miter;stroke-miterlimit:3.8637;stroke-dasharray:none;stroke-opacity:1"
       transform="matrix(0.13333333,0,0,-0.13333333,0,232.53333)" />
    <path
       id="path24"
       d="m 1311.25,1364.25 -9,-18 -9,47 38,-30 -20,1"
       style="fill:#231f20;fill-opacity:1;fill-rule:evenodd;stroke:none"
       transform="matrix(0.13333333,0,0,-0.13333333,0,232.53333)" />
    <path
       id="path25"
       d="m 1579.25,1233.25 -129,216"
       style="fill:none;stroke:#231f20;stroke-width:2.835;stroke-linecap:butt;stroke-linejoin:miter;stroke-miterlimit:3.8637;stroke-dasharray:none;stroke-opacity:1"
       transform="matrix(0.13333333,0,0,-0.13333333,0,232.53333)" />
    <path
       id="path26"
       d="m 1450.25,1449.25 -9,-19 -8,48 38,-30 -21,1"
       style="fill:#231f20;fill-opacity:1;fill-rule:evenodd;stroke:none"
       transform="matrix(0.13333333,0,0,-0.13333333,0,232.53333)" />
    <path
       id="path27"
       d="m 1719.25,1318.25 -129,215"
       style="fill:none;stroke:#231f20;stroke-width:2.835;stroke-linecap:butt;stroke-linejoin:miter;stroke-miterlimit:3.8637;stroke-dasharray:none;stroke-opacity:1"
       transform="matrix(0.13333333,0,0,-0.13333333,0,232.53333)" />
    <path
       id="path28"
       d="m 1590.25,1533.25 -9,-19 -9,48 38,-30 -20,1"
       style="fill:#231f20;fill-opacity:1;fill-rule:evenodd;stroke:none"
       transform="matrix(0.13333333,0,0,-0.13333333,0,232.53333)" />
    <path
       id="path29"
       d="m 1858.25,1402.25 -129,215"
       style="fill:none;stroke:#231f20;stroke-width:2.835;stroke-linecap:butt;stroke-linejoin:miter;stroke-miterlimit:3.8637;stroke-dasharray:none;stroke-opacity:1"
       transform="matrix(0.13333333,0,0,-0.13333333,0,232.53333)" />
    <path
       id="path30"
       d="m 1729.25,1617.25 -9,-18 -9,47 38,-30 -20,1"
       style="fill:#231f20;fill-opacity:1;fill-rule:evenodd;stroke:none"
       transform="matrix(0.13333333,0,0,-0.13333333,0,232.53333)" />
    <path
       id="path31"
       d="m 1998.25,1487.25 -130,215"
       style="fill:none;stroke:#231f20;stroke-width:2.835;stroke-linecap:butt;stroke-linejoin:miter;stroke-miterlimit:3.8637;stroke-dasharray:none;stroke-opacity:1"
       transform="matrix(0.13333333,0,0,-0.13333333,0,232.53333)" />
    <path
       id="path32"
       d="m 1868.25,1702.25 -8,-19 -9,48 38,-30 -21,1"
       style="fill:#231f20;fill-opacity:1;fill-rule:evenodd;stroke:none"
       transform="matrix(0.13333333,0,0,-0.13333333,0,232.53333)" />
    <path
       id="path33"
       d="m 926.25,765.25 106,64"
       style="fill:none;stroke:#231f20;stroke-width:2.835;stroke-linecap:butt;stroke-linejoin:miter;stroke-miterlimit:3.8637;stroke-dasharray:none;stroke-opacity:1"
       transform="matrix(0.13333333,0,0,-0.13333333,0,232.53333)" />
    <path
       id="path34"
       d="m 1032.25,829.25 -19,9 48,8 -30,-38 1,21"
       style="fill:#231f20;fill-opacity:1;fill-rule:evenodd;stroke:none"
       transform="matrix(0.13333333,0,0,-0.13333333,0,232.53333)" />
    <path
       id="path35"
       d="m 787.25,681.25 105,63"
       style="fill:none;stroke:#231f20;stroke-width:2.835;stroke-linecap:butt;stroke-linejoin:miter;stroke-miterlimit:3.8637;stroke-dasharray:none;stroke-opacity:1"
       transform="matrix(0.13333333,0,0,-0.13333333,0,232.53333)" />
    <path
       id="path36"
       d="m 892.25,744.25 -18,9 48,8 -31,-38 1,21"
       style="fill:#231f20;fill-opacity:1;fill-rule:evenodd;stroke:none"
       transform="matrix(0.13333333,0,0,-0.13333333,0,232.53333)" />
    <path
       id="path37"
       d="m 645.25,596.25 106,64"
       style="fill:none;stroke:#231f20;stroke-width:2.835;stroke-linecap:butt;stroke-linejoin:miter;stroke-miterlimit:3.8637;stroke-dasharray:none;stroke-opacity:1"
       transform="matrix(0.13333333,0,0,-0.13333333,0,232.53333)" />
    <path
       id="path38"
       d="m 751.25,660.25 -19,8 48,9 -30,-38 1,21"
       style="fill:#231f20;fill-opacity:1;fill-rule:evenodd;stroke:none"
       transform="matrix(0.13333333,0,0,-0.13333333,0,232.53333)" />
    <path
       id="path39"
       d="m 1205.25,933.25 105,64"
       style="fill:none;stroke:#231f20;stroke-width:2.835;stroke-linecap:butt;stroke-linejoin:miter;stroke-miterlimit:3.8637;stroke-dasharray:none;stroke-opacity:1"
       transform="matrix(0.13333333,0,0,-0.13333333,0,232.53333)" />
    <path
       id="path40"
       d="m 1310.25,997.25 -19,8 48,9 -30,-38 1,21"
       style="fill:#231f20;fill-opacity:1;fill-rule:evenodd;stroke:none"
       transform="matrix(0.13333333,0,0,-0.13333333,0,232.53333)" />
    <path
       id="path41"
       d="m 1064.25,848.25 106,63"
       style="fill:none;stroke:#231f20;stroke-width:2.835;stroke-linecap:butt;stroke-linejoin:miter;stroke-miterlimit:3.8637;stroke-dasharray:none;stroke-opacity:1"
       transform="matrix(0.13333333,0,0,-0.13333333,0,232.53333)" />
    <path
       id="path42"
       d="m 1170.25,911.25 -19,9 48,9 -30,-38 1,20"
       style="fill:#231f20;fill-opacity:1;fill-rule:evenodd;stroke:none"
       transform="matrix(0.13333333,0,0,-0.13333333,0,232.53333)" />
    <path
       id="path43"
       d="m 1625.25,1185.25 104,62"
       style="fill:none;stroke:#231f20;stroke-width:2.835;stroke-linecap:butt;stroke-linejoin:miter;stroke-miterlimit:3.8637;stroke-dasharray:none;stroke-opacity:1"
       transform="matrix(0.13333333,0,0,-0.13333333,0,232.53333)" />
    <path
       id="path44"
       d="m 1729.25,1247.25 -19,9 48,9 -30,-38 1,20"
       style="fill:#231f20;fill-opacity:1;fill-rule:evenodd;stroke:none"
       transform="matrix(0.13333333,0,0,-0.13333333,0,232.53333)" />
    <path
       id="path45"
       d="m 1487.25,1101.25 104,62"
       style="fill:none;stroke:#231f20;stroke-width:2.835;stroke-linecap:butt;stroke-linejoin:miter;stroke-miterlimit:3.8637;stroke-dasharray:none;stroke-opacity:1"
       transform="matrix(0.13333333,0,0,-0.13333333,0,232.53333)" />
    <path
       id="path46"
       d="m 1591.25,1163.25 -18,9 48,9 -31,-38 1,20"
       style="fill:#231f20;fill-opacity:1;fill-rule:evenodd;stroke:none"
       transform="matrix(0.13333333,0,0,-0.13333333,0,232.53333)" />
    <path
       id="path47"
       d="m 1347.25,1018.25 104,62"
       style="fill:none;stroke:#231f20;stroke-width:2.835;stroke-linecap:butt;stroke-linejoin:miter;stroke-miterlimit:3.8637;stroke-dasharray:none;stroke-opacity:1"
       transform="matrix(0.13333333,0,0,-0.13333333,0,232.53333)" />
    <path
       id="path48"
       d="m 1451.25,1080.25 -18,9 48,9 -31,-38 1,20"
       style="fill:#231f20;fill-opacity:1;fill-rule:evenodd;stroke:none"
       transform="matrix(0.13333333,0,0,-0.13333333,0,232.53333)" />
    <path
       id="path49"
       d="m 1900.25,1350.25 104,63"
       style="fill:none;stroke:#231f20;stroke-width:2.835;stroke-linecap:butt;stroke-linejoin:miter;stroke-miterlimit:3.8637;stroke-dasharray:none;stroke-opacity:1"
       transform="matrix(0.13333333,0,0,-0.13333333,0,232.53333)" />
    <path
       id="path50"
       d="m 2004.25,1413.25 -19,9 48,8 -30,-38 1,21"
       style="fill:#231f20;fill-opacity:1;fill-rule:evenodd;stroke:none"
       transform="matrix(0.13333333,0,0,-0.13333333,0,232.53333)" />
    <path
       id="path51"
       d="m 1761.25,1266.25 104,62"
       style="fill:none;stroke:#231f20;stroke-width:2.835;stroke-linecap:butt;stroke-linejoin:miter;stroke-miterlimit:3.8637;stroke-dasharray:none;stroke-opacity:1"
       transform="matrix(0.13333333,0,0,-0.13333333,0,232.53333)" />
    <path
       id="path52"
       d="m 1865.25,1328.25 -18,9 47,9 -30,-38 1,20"
       style="fill:#231f20;fill-opacity:1;fill-rule:evenodd;stroke:none"
       transform="matrix(0.13333333,0,0,-0.13333333,0,232.53333)" />
  </g>
</svg>
