<?xml version="1.0" encoding="UTF-8" standalone="no"?>
<!-- Created with Inkscape (http://www.inkscape.org/) -->

<svg
   version="1.1"
   id="svg1"
   width="259.58667"
   height="170.62666"
   viewBox="0 0 259.58667 170.62666"
   sodipodi:docname="BEAM2.EPS"
   xmlns:inkscape="http://www.inkscape.org/namespaces/inkscape"
   xmlns:sodipodi="http://sodipodi.sourceforge.net/DTD/sodipodi-0.dtd"
   xmlns="http://www.w3.org/2000/svg"
   xmlns:svg="http://www.w3.org/2000/svg">
  <defs
     id="defs1" />
  <sodipodi:namedview
     id="namedview1"
     pagecolor="#ffffff"
     bordercolor="#000000"
     borderopacity="0.25"
     inkscape:showpageshadow="2"
     inkscape:pageopacity="0.0"
     inkscape:pagecheckerboard="0"
     inkscape:deskcolor="#d1d1d1">
    <inkscape:page
       x="0"
       y="0"
       inkscape:label="1"
       id="page1"
       width="259.58667"
       height="170.62666"
       margin="0"
       bleed="0" />
  </sodipodi:namedview>
  <g
     id="g1"
     inkscape:groupmode="layer"
     inkscape:label="1">
    <path
       id="path1"
       d="m 3.6910156,-0.93855469 c -0.421875,0.52734375 -0.5390625,0.6328125 -0.6679687,0.6328125 -0.058594,0 -0.082031,-0.046875 -0.082031,-0.140625 0,-0.046875 0,-0.046875 0.1523438,-0.62109371 l 0.6328125,-2.390625 H 3.1285156 c -0.4335937,1.1835937 -0.515625,1.3828125 -0.8789062,1.9570312 -0.4804688,0.75000001 -0.8789063,1.16015626 -1.125,1.16015626 -0.1054688,0 -0.17578128,-0.0820313 -0.17578128,-0.19921875 0,-0.0234375 0,-0.046875 0.0117188,-0.0703125 L 1.6871094,-3.5166797 1.6636719,-3.5283984 c -0.46875,0.1054687 -0.76171878,0.1523437 -1.19531253,0.2109375 v 0.1171875 c 0.31640625,0 0.31640625,0 0.3984375,0.046875 0.0351563,0.011719 0.0820313,0.082031 0.0820313,0.140625 0,0.070312 -0.046875,0.2695312 -0.1171875,0.5390625 l -0.29296875,1.1367187 c -0.15234375,0.58593751 -0.19921875,0.84375001 -0.19921875,0.98437501 0,0.29296875 0.140625,0.4453125 0.421875,0.4453125 0.56249993,0 0.99609373,-0.43359375 1.91015633,-1.98046871 -0.234375,0.8671875 -0.3632814,1.39453121 -0.3632814,1.57031246 0,0.2578125 0.1523439,0.38671875 0.3867189,0.38671875 0.375,0 0.5507811,-0.15234375 1.1015625,-0.9375 z M 6.3863281,2.9989453 H 8.6246094 V 2.8817578 h -0.140625 c -0.3867188,0 -0.5507813,-0.070312 -0.5507813,-0.2578125 0,-0.070312 0.023437,-0.1875 0.09375,-0.421875 0.023437,-0.046875 0.035156,-0.09375 0.058594,-0.1757812 l 1.1367187,-4.1484375 c 0.046875,-0.140625 0.046875,-0.1992188 0.046875,-0.234375 0,-0.035156 -0.011719,-0.058594 -0.035156,-0.058594 0,0 -0.2226563,0.046875 -0.65625,0.1289063 l -0.7265625,0.1523437 c -0.011719,0 -0.070312,0.011719 -0.1640625,0.023437 v 0.1171875 l 0.4570312,-0.011719 c 0.1875,-0.011719 0.3046875,0.09375 0.3046875,0.2460937 0,0.058594 -0.011719,0.1171875 -0.058594,0.28125 l -1.1015625,3.9375 c -0.09375,0.2929688 -0.2695313,0.375 -0.9023438,0.421875 z M -19.608789,-21.238359 c -0.421875,0.527343 -0.539063,0.632812 -0.667969,0.632812 -0.05859,0 -0.08203,-0.04687 -0.08203,-0.140625 0,-0.04687 0,-0.04687 0.152344,-0.621094 l 0.632812,-2.390625 h -0.597656 c -0.433594,1.183594 -0.515625,1.382813 -0.878906,1.957032 -0.480469,0.75 -0.878907,1.160156 -1.125,1.160156 -0.105469,0 -0.175782,-0.08203 -0.175782,-0.199219 0,-0.02344 0,-0.04687 0.01172,-0.07031 l 0.726563,-2.90625 -0.02344,-0.01172 c -0.46875,0.105469 -0.761719,0.152344 -1.195312,0.210937 v 0.117188 c 0.316406,0 0.316406,0 0.398437,0.04687 0.03516,0.01172 0.08203,0.08203 0.08203,0.140625 0,0.07031 -0.04687,0.269531 -0.117187,0.539062 l -0.292969,1.136719 c -0.152344,0.585938 -0.199219,0.84375 -0.199219,0.984375 0,0.292969 0.140625,0.445313 0.421875,0.445313 0.5625,0 0.996094,-0.433594 1.910157,-1.980469 -0.234375,0.867187 -0.363282,1.394531 -0.363282,1.570312 0,0.257813 0.152344,0.386719 0.386719,0.386719 0.375,0 0.550781,-0.152344 1.101563,-0.9375 z m 5.507812,2.824218 c -0.1875,0.398438 -0.339843,0.492188 -0.785156,0.503907 h -1.523437 v -0.03516 l 1.535156,-1.535156 c 0.9375,-0.9375 1.195312,-1.347656 1.195312,-1.875 0,-0.761719 -0.574218,-1.359375 -1.300781,-1.359375 -0.292969,0 -0.585937,0.07031 -0.820312,0.210938 -0.410157,0.222656 -0.632813,0.492187 -0.855469,1.078125 l 0.164062,0.04687 c 0.292969,-0.515625 0.644532,-0.75 1.125,-0.75 0.574219,0 0.996094,0.421875 0.996094,0.972656 0,0.175781 -0.02344,0.328125 -0.07031,0.433594 -0.199219,0.433593 -0.5625,0.9375 -1.078125,1.488281 l -1.6875,1.792969 v 0.140625 h 2.847656 l 0.398437,-1.054688 z M 138.19004,-89.737383 c -0.42188,0.527344 -0.53906,0.632813 -0.66797,0.632813 -0.0586,0 -0.082,-0.04687 -0.082,-0.140625 0,-0.04687 0,-0.04687 0.15234,-0.621094 l 0.63282,-2.390625 h -0.59766 c -0.43359,1.183594 -0.51563,1.382812 -0.87891,1.957031 -0.48047,0.75 -0.8789,1.160156 -1.125,1.160156 -0.10547,0 -0.17578,-0.08203 -0.17578,-0.199218 0,-0.02344 0,-0.04687 0.0117,-0.07031 l 0.72656,-2.90625 -0.0234,-0.01172 c -0.46875,0.105469 -0.76172,0.152344 -1.19532,0.210938 v 0.117187 c 0.31641,0 0.31641,0 0.39844,0.04687 0.0352,0.01172 0.082,0.08203 0.082,0.140625 0,0.07031 -0.0469,0.269532 -0.11719,0.539063 l -0.29296,1.136719 c -0.15235,0.585937 -0.19922,0.84375 -0.19922,0.984375 0,0.292968 0.14062,0.445312 0.42187,0.445312 0.5625,0 0.9961,-0.433594 1.91016,-1.980469 -0.23438,0.867188 -0.36328,1.394532 -0.36328,1.570313 0,0.257812 0.15234,0.386719 0.38672,0.386719 0.375,0 0.55078,-0.152344 1.10156,-0.9375 z m 5.92969,2.003906 h -0.75 l 0.96093,-3.480468 h -0.32812 l -3.33984,3.457031 -0.15235,0.527344 h 2.09766 l -0.39844,1.429687 h 0.63281 l 0.375,-1.40625 h 0.79688 z m -1.40625,0 h -1.69922 v -0.02344 l 2.4375,-2.554688 h 0.0351 z m -19.72266,-19.104493 c -0.42187,0.52734 -0.53906,0.63281 -0.66797,0.63281 -0.0586,0 -0.082,-0.0469 -0.082,-0.14062 0,-0.0469 0,-0.0469 0.15234,-0.6211 l 0.63282,-2.39062 h -0.59766 c -0.43359,1.18359 -0.51562,1.38281 -0.87891,1.95703 -0.48046,0.75 -0.8789,1.16016 -1.125,1.16016 -0.10546,0 -0.17578,-0.082 -0.17578,-0.19922 0,-0.0234 0,-0.0469 0.0117,-0.0703 l 0.72656,-2.90625 -0.0234,-0.0117 c -0.46875,0.10547 -0.76172,0.15234 -1.19532,0.21093 v 0.11719 c 0.31641,0 0.31641,0 0.39844,0.0469 0.0352,0.0117 0.082,0.082 0.082,0.14062 0,0.0703 -0.0469,0.26953 -0.11718,0.53906 l -0.29297,1.13672 c -0.15235,0.58594 -0.19922,0.84375 -0.19922,0.98438 0,0.29297 0.14062,0.44531 0.42187,0.44531 0.5625,0 0.9961,-0.43359 1.91016,-1.98047 -0.23438,0.86719 -0.36328,1.39453 -0.36328,1.57031 0,0.25782 0.15234,0.38672 0.38672,0.38672 0.375,0 0.55078,-0.15234 1.10156,-0.9375 z m 4.31836,-0.82031 h 1.83984 l 0.17578,-0.57422 h -2.03906 l -0.84375,1.74609 v 0.11719 c 0.78516,0.17578 1.04297,0.26953 1.33594,0.50391 0.25781,0.19922 0.42187,0.60937 0.42187,1.03125 0,0.86718 -0.64453,1.65234 -1.37109,1.65234 -0.16406,0 -0.30469,-0.0586 -0.53906,-0.23437 -0.19922,-0.15235 -0.32813,-0.19922 -0.44531,-0.19922 -0.1875,0 -0.32813,0.1289 -0.32813,0.3164 0,0.28125 0.31641,0.45703 0.85547,0.45703 1.3125,0 2.37891,-1.03125 2.37891,-2.29687 0,-0.50391 -0.1875,-0.92578 -0.52735,-1.25391 -0.30469,-0.28125 -0.58594,-0.41015 -1.23047,-0.5625 z m 0,0"
       style="fill:#231f20;fill-opacity:1;fill-rule:nonzero;stroke:none"
       aria-label="u&#10;1&#10;u&#10;2&#10;u&#10;4&#10;u&#10;5"
       transform="matrix(1.3333333,0,0,1.3333333,61.633333,158.06)" />
    <path
       id="path2"
       d="m 174.25,94.25 1414,850 37,-61 -1415,-850 z"
       style="fill:none;stroke:#231f20;stroke-width:5;stroke-linecap:butt;stroke-linejoin:miter;stroke-miterlimit:3.8637;stroke-dasharray:none;stroke-opacity:1"
       transform="matrix(0.13333333,0,0,-0.13333333,0,170.62667)" />
    <path
       id="path3"
       d="m 3.6910156,-0.93757813 c -0.421875,0.52734375 -0.5390625,0.6328125 -0.6679687,0.6328125 -0.058594,0 -0.082031,-0.046875 -0.082031,-0.140625 0,-0.046875 0,-0.046875 0.1523438,-0.62109377 l 0.6328125,-2.390625 H 3.1285156 c -0.4335937,1.1835938 -0.515625,1.3828125 -0.8789062,1.9570313 -0.4804688,0.74999997 -0.8789063,1.16015622 -1.125,1.16015622 -0.1054688,0 -0.17578127,-0.0820313 -0.17578127,-0.19921875 0,-0.0234375 0,-0.046875 0.0117188,-0.0703125 L 1.6871094,-3.5157031 1.6636719,-3.5274219 c -0.46875,0.1054688 -0.76171877,0.1523438 -1.19531252,0.2109375 v 0.1171875 c 0.31640625,0 0.31640625,0 0.3984375,0.046875 0.0351563,0.011719 0.0820313,0.082031 0.0820313,0.140625 0,0.070312 -0.046875,0.2695313 -0.1171875,0.5390625 l -0.29296875,1.1367188 c -0.15234375,0.58593747 -0.19921875,0.84374997 -0.19921875,0.98437497 0,0.29296875 0.140625,0.4453125 0.421875,0.4453125 0.56249992,0 0.99609372,-0.43359375 1.91015632,-1.98046877 -0.234375,0.8671875 -0.3632814,1.39453127 -0.3632814,1.57031252 0,0.2578125 0.1523439,0.38671875 0.3867189,0.38671875 0.375,0 0.5507811,-0.15234375 1.1015625,-0.9375 z M 10.159766,-2.4961719 c -1.0664066,0.1289063 -1.6054691,0.328125 -2.2968754,0.8320313 -1.0078125,0.74999997 -1.6289062,1.88671872 -1.6289062,3.0351562 0,1.0195313 0.5859375,1.6875 1.4648437,1.6875 1.078125,0 1.9921875,-1.0195312 1.9921875,-2.22656248 0,-0.8203125 -0.5742187,-1.40625 -1.359375,-1.40625 -0.2226562,0 -0.4921875,0.0585938 -0.703125,0.1640625 l -0.035156,-0.0117188 C 8.1441406,-1.4414844 9.2339844,-2.2500781 10.171484,-2.3672656 Z m -2.0859379,2.20312502 c 0.5507813,0 0.9023438,0.3984375 0.9023438,1.01953125 0,0.53906253 -0.1875,1.17187503 -0.4921875,1.59375003 -0.234375,0.3632812 -0.515625,0.5273437 -0.8554688,0.5273437 -0.4921875,0 -0.7851562,-0.3867187 -0.7851562,-1.0429687 0,-0.5507813 0.1640625,-1.21875003 0.375,-1.57031253 0.2109375,-0.36328125 0.4804687,-0.52734375 0.8554687,-0.52734375 z M -139.60879,88.962812 c -0.42187,0.527344 -0.53906,0.632813 -0.66797,0.632813 -0.0586,0 -0.082,-0.04687 -0.082,-0.140625 0,-0.04687 0,-0.04687 0.15234,-0.621094 l 0.63282,-2.390625 h -0.59766 c -0.43359,1.183594 -0.51562,1.382813 -0.87891,1.957031 -0.48046,0.75 -0.8789,1.160157 -1.125,1.160157 -0.10546,0 -0.17578,-0.08203 -0.17578,-0.199219 0,-0.02344 0,-0.04687 0.0117,-0.07031 l 0.72656,-2.90625 -0.0234,-0.01172 c -0.46875,0.105468 -0.76172,0.152343 -1.19532,0.210937 v 0.117188 c 0.31641,0 0.31641,0 0.39844,0.04687 0.0352,0.01172 0.082,0.08203 0.082,0.140625 0,0.07031 -0.0469,0.269531 -0.11718,0.539062 l -0.29297,1.136719 c -0.15235,0.585937 -0.19922,0.84375 -0.19922,0.984375 0,0.292969 0.14062,0.445312 0.42187,0.445312 0.5625,0 0.9961,-0.433593 1.91016,-1.980468 -0.23438,0.867187 -0.36328,1.394531 -0.36328,1.570312 0,0.257813 0.15234,0.386719 0.38672,0.386719 0.375,0 0.55078,-0.152344 1.10156,-0.9375 z m 3.73828,-0.597656 c 0.26953,-0.375 0.55078,-0.539062 0.87891,-0.539062 0.43359,0 0.71484,0.292968 0.71484,0.726562 0,0.339844 -0.16406,0.621094 -0.51562,0.855469 -0.33985,0.234375 -0.67969,0.351562 -1.39453,0.480469 l 0.0117,0.117187 c 0.44532,0 0.52735,0.01172 0.72657,0.08203 0.49218,0.1875 0.75,0.621094 0.75,1.253907 0,0.28125 -0.0586,0.574218 -0.17578,0.761718 -0.1875,0.328125 -0.53907,0.550782 -0.86719,0.550782 -0.15235,0 -0.33985,-0.08203 -0.57422,-0.257813 -0.23438,-0.164062 -0.36328,-0.222656 -0.51563,-0.222656 -0.22265,0 -0.35156,0.105469 -0.35156,0.304687 0,0.304688 0.32813,0.480469 0.90235,0.480469 0.44531,0 0.86718,-0.105469 1.19531,-0.292969 0.62109,-0.375 1.03125,-1.042968 1.03125,-1.757812 0,-0.585938 -0.23438,-0.949219 -0.76172,-1.195313 v -0.02344 c 0.96094,-0.375 1.24219,-0.644531 1.24219,-1.183594 0,-0.585937 -0.48047,-1.019531 -1.125,-1.019531 -0.55078,0 -1.04297,0.316406 -1.30078,0.832031 z m 0,0"
       style="fill:#231f20;fill-opacity:1;fill-rule:nonzero;stroke:none"
       aria-label="u&#10;6&#10;u&#10;3"
       transform="matrix(1.3333333,0,0,1.3333333,195.63333,40.726667)" />
    <path
       id="path4"
       d="m 1430.25,989.25 c 29.02,66.61 95.11,113.07 172,113 103.34,0.07 186.96,-79.91 187,-183"
       style="fill:none;stroke:#231f20;stroke-width:2.5;stroke-linecap:butt;stroke-linejoin:miter;stroke-miterlimit:3.8637;stroke-dasharray:none;stroke-opacity:1"
       transform="matrix(0.13333333,0,0,-0.13333333,0,170.62667)" />
    <path
       id="path5"
       d="m 1431.25,992.25 14,-6 -28,-29 v 40 l 14,-5"
       style="fill:#231f20;fill-opacity:1;fill-rule:evenodd;stroke:none"
       transform="matrix(0.13333333,0,0,-0.13333333,0,170.62667)" />
    <path
       id="path6"
       d="m 1657.25,917.25 h 253"
       style="fill:none;stroke:#ffffff;stroke-width:40;stroke-linecap:round;stroke-linejoin:miter;stroke-miterlimit:3.8637;stroke-dasharray:none;stroke-opacity:1"
       transform="matrix(0.13333333,0,0,-0.13333333,0,170.62667)" />
    <path
       id="path7"
       d="m 1609.25,961.25 v 254"
       style="fill:none;stroke:#ffffff;stroke-width:40;stroke-linecap:round;stroke-linejoin:miter;stroke-miterlimit:3.8637;stroke-dasharray:none;stroke-opacity:1"
       transform="matrix(0.13333333,0,0,-0.13333333,0,170.62667)" />
    <path
       id="path8"
       d="m 1609.25,1175.25 v -259"
       style="fill:none;stroke:#231f20;stroke-width:2.5;stroke-linecap:butt;stroke-linejoin:miter;stroke-miterlimit:3.8637;stroke-dasharray:none;stroke-opacity:1"
       transform="matrix(0.13333333,0,0,-0.13333333,0,170.62667)" />
    <path
       id="path9"
       d="m 1609.25,1173.25 h -15 l 15,37 15,-37 h -15"
       style="fill:#231f20;fill-opacity:1;fill-rule:evenodd;stroke:none"
       transform="matrix(0.13333333,0,0,-0.13333333,0,170.62667)" />
    <path
       id="path10"
       d="m 1609.25,916.25 h 259"
       style="fill:none;stroke:#231f20;stroke-width:2.5;stroke-linecap:butt;stroke-linejoin:miter;stroke-miterlimit:3.8637;stroke-dasharray:none;stroke-opacity:1"
       transform="matrix(0.13333333,0,0,-0.13333333,0,170.62667)" />
    <path
       id="path11"
       d="m 1866.25,916.25 v 15 l 37,-15 -37,-15 v 15"
       style="fill:#231f20;fill-opacity:1;fill-rule:evenodd;stroke:none"
       transform="matrix(0.13333333,0,0,-0.13333333,0,170.62667)" />
    <path
       id="path12"
       d="m 13.25,136.25 c 29.1406,65.957 95.23,112.418 172,112 103.469,0.418 187.086,-79.555 187,-183"
       style="fill:none;stroke:#231f20;stroke-width:2.5;stroke-linecap:butt;stroke-linejoin:miter;stroke-miterlimit:3.8637;stroke-dasharray:none;stroke-opacity:1"
       transform="matrix(0.13333333,0,0,-0.13333333,0,170.62667)" />
    <path
       id="path13"
       d="m 14.25,138.25 14,-6 -28,-29 1,41 13,-6"
       style="fill:#231f20;fill-opacity:1;fill-rule:evenodd;stroke:none"
       transform="matrix(0.13333333,0,0,-0.13333333,0,170.62667)" />
    <path
       id="path14"
       d="m 240.25,64.25 h 254"
       style="fill:none;stroke:#ffffff;stroke-width:40;stroke-linecap:round;stroke-linejoin:miter;stroke-miterlimit:3.8637;stroke-dasharray:none;stroke-opacity:1"
       transform="matrix(0.13333333,0,0,-0.13333333,0,170.62667)" />
    <path
       id="path15"
       d="m 192.25,108.25 v 253"
       style="fill:none;stroke:#ffffff;stroke-width:40;stroke-linecap:round;stroke-linejoin:miter;stroke-miterlimit:3.8637;stroke-dasharray:none;stroke-opacity:1"
       transform="matrix(0.13333333,0,0,-0.13333333,0,170.62667)" />
    <path
       id="path16"
       d="m 192.25,322.25 v -260"
       style="fill:none;stroke:#231f20;stroke-width:2.5;stroke-linecap:butt;stroke-linejoin:miter;stroke-miterlimit:3.8637;stroke-dasharray:none;stroke-opacity:1"
       transform="matrix(0.13333333,0,0,-0.13333333,0,170.62667)" />
    <path
       id="path17"
       d="m 192.25,319.25 h -15 l 15,38 15,-38 h -15"
       style="fill:#231f20;fill-opacity:1;fill-rule:evenodd;stroke:none"
       transform="matrix(0.13333333,0,0,-0.13333333,0,170.62667)" />
    <path
       id="path18"
       d="m 192.25,62.25 h 260"
       style="fill:none;stroke:#231f20;stroke-width:2.5;stroke-linecap:butt;stroke-linejoin:miter;stroke-miterlimit:3.8637;stroke-dasharray:none;stroke-opacity:1"
       transform="matrix(0.13333333,0,0,-0.13333333,0,170.62667)" />
    <path
       id="path19"
       d="m 449.25,62.25 v 15 l 38,-15 -38,-15 v 15"
       style="fill:#231f20;fill-opacity:1;fill-rule:evenodd;stroke:none"
       transform="matrix(0.13333333,0,0,-0.13333333,0,170.62667)" />
  </g>
</svg>
