<?xml version="1.0" encoding="UTF-8" standalone="no"?>
<!-- Created with Inkscape (http://www.inkscape.org/) -->

<svg
   version="1.1"
   id="svg1"
   width="665.81335"
   height="151.02667"
   viewBox="0 0 665.81335 151.02667"
   sodipodi:docname="calfem-framsida-text.eps"
   xmlns:inkscape="http://www.inkscape.org/namespaces/inkscape"
   xmlns:sodipodi="http://sodipodi.sourceforge.net/DTD/sodipodi-0.dtd"
   xmlns="http://www.w3.org/2000/svg"
   xmlns:svg="http://www.w3.org/2000/svg">
  <defs
     id="defs1" />
  <sodipodi:namedview
     id="namedview1"
     pagecolor="#ffffff"
     bordercolor="#000000"
     borderopacity="0.25"
     inkscape:showpageshadow="2"
     inkscape:pageopacity="0.0"
     inkscape:pagecheckerboard="0"
     inkscape:deskcolor="#d1d1d1">
    <inkscape:page
       x="0"
       y="0"
       inkscape:label="1"
       id="page1"
       width="665.81335"
       height="151.02667"
       margin="0"
       bleed="0" />
  </sodipodi:namedview>
  <g
     id="g1"
     inkscape:groupmode="layer"
     inkscape:label="1">
    <path
       id="path1"
       d="m 45.574609,-48.386016 h -2.378906 l -1.511719,3.023438 c -4.242187,-3.234375 -8.636718,-4.605469 -14.824218,-4.605469 -5.765625,0 -12.527344,3.164063 -16.9218754,7.921875 -4.3945312,4.675781 -6.7734375,11.015625 -6.7734375,17.777344 0,14.4726561 10.8046879,25.20703113 25.4179689,25.20703113 9.363281,0 16.628906,-4.10156253 21.960937,-12.38671913 l -3.09375,-1.722656 c -2.085937,3.09375 -3.527343,4.6757814 -5.90625,6.3984376 -3.457031,2.6015625 -8.132812,4.2539063 -11.882812,4.2539063 -4.535156,0 -9.644531,-2.3789063 -12.738281,-5.8359375 -3.386719,-3.7382814 -5.261719,-9.4335934 -5.261719,-15.9843754 0,-12.808593 7.054687,-22.171875 16.558594,-22.171875 5.332031,0 10.59375,2.953125 14.050781,7.921875 1.359375,2.015625 2.296875,3.527344 4.453125,7.558594 h 2.308594 z m 55.734371,-0.644531 H 94.617578 L 82.230859,-17.284453 C 77.402734,-4.9680469 76.254297,-3.3157031 71.426172,-2.3782031 l -0.785156,0.1523437 V 7.03125e-4 H 89.930078 V -2.2258594 c -2.589844,-0.3632812 -3.808594,-0.65625 -4.605469,-1.1601562 -1.078125,-0.7148438 -1.804687,-2.015625 -1.804687,-3.3046875 0,-1.0898438 0.503906,-3.0234375 1.371094,-5.3320309 l 2.308593,-6.1875 h 18.574221 l 3.59765,9.2812496 c 0.50391,1.3007813 0.79688,2.5195313 0.79688,3.09375 0,2.015625 -1.44141,3.0234375 -5.10938,3.5273438 l -0.58593,0.082031 V 7.03125e-4 h 20.23828 V -2.2258594 c -4.6875,-0.7265625 -5.54297,-1.5117187 -8.13281,-8.2148436 z m -13.031246,27.714844 7.992188,-21.597656 8.203128,21.597656 z m 108.307616,5.90625 -2.01562,-0.9375 c -3.31641,4.6875 -5.1211,6.7031249 -7.92188,8.7890624 -4.11328,3.09375 -8.85937,4.828125 -13.2539,4.828125 -2.37891,0 -4.46485,-0.7265625 -5.32032,-1.8046875 -0.58593,-0.7265625 -0.86718,-2.15625 -0.86718,-4.3242188 V -38.659453 c 0.0703,-6.046875 0.9375,-7.488281 4.67578,-7.921875 l 2.30859,-0.222656 v -2.226563 h -20.67187 v 2.226563 l 1.80468,0.222656 c 3.75,0.433594 4.60547,1.875 4.67578,7.921875 v 28.289062 c -0.0703,6.0468754 -0.92578,7.4882816 -4.67578,7.9218754 l -1.80468,0.2226562 V 7.03125e-4 h 37.30078 z m 68.84766,-33.621094 h -39.67969 v 2.226563 l 1.80469,0.222656 c 3.75,0.433594 4.60547,1.875 4.67578,7.921875 v 28.289062 c -0.0703,6.0468754 -0.92578,7.4882816 -4.67578,7.9218754 l -1.80469,0.2226562 V 7.03125e-4 h 20.74219 V -2.2258594 l -2.37891,-0.2226562 c -3.73828,-0.4335938 -4.60547,-1.875 -4.67578,-7.9218754 v -14.25 h 4.74609 c 6.19922,0.07031 8.56641,2.378907 9.29297,9.210938 h 2.22657 v -21.304688 h -2.22657 c -0.64453,7.125 -2.66015,9.070313 -9.29297,9 h -4.74609 v -11.238281 c 0,-3.164062 0.36328,-4.605469 1.21875,-5.472656 1.00781,-1.007813 3.59766,-1.582031 6.84375,-1.582031 8.70703,0 14.47266,2.882812 20.8125,10.441406 l 2.29688,-1.148438 z m 76.55566,0 h -41.12109 v 2.226563 l 1.80469,0.222656 c 3.75,0.433594 4.60546,1.875 4.67578,7.921875 v 28.289062 c -0.0703,6.0468754 -0.92578,7.4882816 -4.67578,7.9218754 l -1.80469,0.2226562 V 7.03125e-4 h 41.97656 l 6.5625,-15.339844125 -2.23828,-1.007812 c -7.85156,10.0781249 -13.74609,13.2539061 -24.48047,13.2539061 -3.59766,0 -6.04687,-0.6445312 -7.19531,-2.015625 -0.65625,-0.8671875 -0.9375,-2.015625 -0.9375,-4.3242187 V -24.620391 h 5.32031 c 5.55469,-0.07031 8.21484,2.730469 8.85938,9.28125 h 2.44921 v -21.527343 h -2.44921 c -0.78516,7.207031 -2.58985,9.152343 -8.70704,9.152343 h -5.47265 v -12.246093 c 0,-4.605469 1.875,-5.976563 8.20312,-5.976563 9.79688,0 15.26953,2.660156 21.89063,10.804688 l 2.30859,-0.9375 z M 412.12832,7.03125e-4 430.19863,-43.921172 v 33.550781 c -0.0703,6.0468754 -0.92578,7.4882816 -4.67578,7.9218754 l -1.80469,0.2226562 V 7.03125e-4 h 20.16797 V -2.2258594 l -1.80468,-0.2226562 c -3.73829,-0.4335938 -4.60547,-1.875 -4.67579,-7.9218754 v -28.289062 c 0.0703,-6.046875 0.9375,-7.488281 4.67579,-7.921875 l 1.80468,-0.222656 v -2.226563 h -16.41797 l -15.04687,37.078125 -13.82813,-37.078125 h -16.76953 v 2.226563 l 1.79297,0.222656 c 3.75,0.433594 4.60547,1.875 4.6875,7.921875 v 28.289062 c -0.082,6.0468754 -0.9375,7.4882816 -4.6875,7.9218754 l -2.22656,0.2226562 V 7.03125e-4 h 18.21094 V -2.2258594 l -2.51953,-0.2226562 c -3.73829,-0.4335938 -4.60547,-1.9453125 -4.67579,-7.9218754 V -44.788359 L 408.89395,7.03125e-4 Z m 0,0"
       style="fill:#a9b4bf;fill-opacity:1;fill-rule:nonzero;stroke:none"
       aria-label="CALFEM"
       transform="matrix(1.3333333,0,0,1.3333333,33.366667,106.46)" />
    <path
       id="path2"
       d="M 45.575586,-48.38582 H 43.19668 l -1.511719,3.023437 c -4.242188,-3.234375 -8.636719,-4.605469 -14.824219,-4.605469 -5.765625,0 -12.527344,3.164063 -16.9218748,7.921875 -4.3945313,4.675782 -6.7734375,11.015625 -6.7734375,17.777344 0,14.4726564 10.8046873,25.20703144 25.4179683,25.20703144 9.363282,0 16.628907,-4.10156254 21.960938,-12.38671844 l -3.09375,-1.722657 c -2.085938,3.09375 -3.527344,4.6757817 -5.90625,6.3984379 -3.457031,2.6015625 -8.132813,4.2539063 -11.882813,4.2539063 -4.535156,0 -9.644531,-2.3789063 -12.738281,-5.8359375 -3.386719,-3.7382817 -5.261719,-9.4335937 -5.261719,-15.9843747 0,-12.808594 7.054688,-22.171875 16.558594,-22.171875 5.332031,0 10.59375,2.953125 14.050781,7.921875 1.359375,2.015625 2.296875,3.527343 4.453125,7.558593 h 2.308594 z m 55.731444,-0.644532 H 94.615625 L 82.228906,-17.284258 C 77.400781,-4.9678516 76.252344,-3.3155078 71.424219,-2.3780078 l -0.785157,0.1523437 V 8.984375e-4 H 89.928125 V -2.2256641 c -2.589844,-0.3632812 -3.808594,-0.65625 -4.605469,-1.1601562 -1.078125,-0.7148438 -1.804687,-2.015625 -1.804687,-3.3046875 0,-1.0898438 0.503906,-3.0234375 1.371093,-5.3320312 l 2.308594,-6.1875 h 18.574214 l 3.59766,9.2812499 c 0.50391,1.3007813 0.79688,2.5195313 0.79688,3.09375 0,2.015625 -1.44141,3.0234375 -5.10938,3.5273438 l -0.58594,0.082031 V 8.984375e-4 h 20.23828 V -2.2256641 c -4.6875,-0.7265625 -5.54296,-1.5117187 -8.13281,-8.2148439 z m -13.031249,27.714844 7.992188,-21.597656 8.203121,21.597656 z m 108.310549,5.90625 -2.01563,-0.9375 c -3.3164,4.6875 -5.12109,6.7031252 -7.92187,8.7890627 -4.11328,3.09375 -8.85938,4.828125 -13.25391,4.828125 -2.3789,0 -4.46484,-0.7265625 -5.32031,-1.8046875 -0.58594,-0.7265625 -0.86719,-2.15625 -0.86719,-4.3242188 V -38.659258 c 0.0703,-6.046875 0.9375,-7.488281 4.67578,-7.921875 l 2.3086,-0.222656 v -2.226563 h -20.67188 v 2.226563 l 1.80469,0.222656 c 3.75,0.433594 4.60547,1.875 4.67578,7.921875 v 28.289063 c -0.0703,6.0468747 -0.92578,7.4882809 -4.67578,7.9218747 l -1.80469,0.2226562 V 8.984375e-4 h 37.30078 z m 68.84765,-33.621094 H 225.7543 v 2.226563 l 1.80468,0.222656 c 3.75,0.433594 4.60547,1.875 4.67579,7.921875 v 28.289063 c -0.0703,6.0468747 -0.92579,7.4882809 -4.67579,7.9218747 l -1.80468,0.2226562 V 8.984375e-4 h 20.74218 V -2.2256641 l -2.3789,-0.2226562 c -3.73828,-0.4335938 -4.60547,-1.875 -4.67578,-7.9218747 v -14.25 h 4.74609 c 6.19922,0.07031 8.56641,2.378906 9.29297,9.210937 h 2.22656 v -21.304687 h -2.22656 c -0.64453,7.125 -2.66016,9.070312 -9.29297,9 h -4.74609 v -11.238282 c 0,-3.164062 0.36328,-4.605468 1.21875,-5.472656 1.00781,-1.007812 3.59765,-1.582031 6.84375,-1.582031 8.70703,0 14.47265,2.882812 20.8125,10.441406 l 2.29687,-1.148437 z m 76.55274,0 h -41.12109 v 2.226563 l 1.80468,0.222656 c 3.75,0.433594 4.60547,1.875 4.67578,7.921875 v 28.289063 c -0.0703,6.0468747 -0.92578,7.4882809 -4.67578,7.9218747 l -1.80468,0.2226562 V 8.984375e-4 h 41.97656 l 6.5625,-15.3398434375 -2.23828,-1.007813 c -7.85157,10.0781252 -13.7461,13.2539064 -24.48047,13.2539064 -3.59766,0 -6.04688,-0.6445312 -7.19531,-2.015625 -0.65625,-0.8671875 -0.9375,-2.015625 -0.9375,-4.3242187 V -24.620195 h 5.32031 c 5.55469,-0.07031 8.21484,2.730468 8.85937,9.28125 h 2.44922 v -21.527344 h -2.44922 c -0.78515,7.207031 -2.58984,9.152344 -8.70703,9.152344 h -5.47265 v -12.246094 c 0,-4.605469 1.875,-5.976563 8.20312,-5.976563 9.79688,0 15.26953,2.660157 21.89063,10.804688 l 2.30859,-0.9375 z M 412.12637,8.984375e-4 430.19668,-43.920977 v 33.550782 c -0.0703,6.0468747 -0.92578,7.4882809 -4.67578,7.9218747 l -1.80469,0.2226562 V 8.984375e-4 h 20.16797 V -2.2256641 l -1.80469,-0.2226562 c -3.73828,-0.4335938 -4.60547,-1.875 -4.67578,-7.9218747 v -28.289063 c 0.0703,-6.046875 0.9375,-7.488281 4.67578,-7.921875 l 1.80469,-0.222656 v -2.226563 h -16.41797 l -15.04687,37.078125 -13.82813,-37.078125 h -16.76953 v 2.226563 l 1.79297,0.222656 c 3.75,0.433594 4.60547,1.875 4.6875,7.921875 v 28.289063 c -0.082,6.0468747 -0.9375,7.4882809 -4.6875,7.9218747 l -2.22656,0.2226562 V 8.984375e-4 h 18.21093 V -2.2256641 l -2.51953,-0.2226562 c -3.73828,-0.4335938 -4.60547,-1.9453125 -4.67578,-7.9218747 V -44.788164 L 408.89199,8.984375e-4 Z m 0,0"
       style="fill:#231f20;fill-opacity:1;fill-rule:nonzero;stroke:none"
       aria-label="CALFEM"
       transform="matrix(1.3333333,0,0,1.3333333,24.033333,99.393333)" />
  </g>
</svg>
