<?xml version="1.0" encoding="UTF-8" standalone="no"?>
<!-- Created with Inkscape (http://www.inkscape.org/) -->

<svg
   version="1.1"
   id="svg1"
   width="739.74664"
   height="545.08002"
   viewBox="0 0 739.74664 545.08002"
   sodipodi:docname="calfem-framsida-bild.eps"
   xmlns:inkscape="http://www.inkscape.org/namespaces/inkscape"
   xmlns:sodipodi="http://sodipodi.sourceforge.net/DTD/sodipodi-0.dtd"
   xmlns="http://www.w3.org/2000/svg"
   xmlns:svg="http://www.w3.org/2000/svg">
  <defs
     id="defs1">
    <clipPath
       clipPathUnits="userSpaceOnUse"
       id="clipPath2">
      <path
         d="m 15.25,9.25 3815,682 1705,2905 -2792,-499 -2728,-3088 z"
         clip-rule="evenodd"
         id="path2" />
    </clipPath>
    <clipPath
       clipPathUnits="userSpaceOnUse"
       id="clipPath4">
      <path
         d="m 15.25,9.25 3815,682 1705,2905 -2792,-499 -2728,-3088 z"
         clip-rule="evenodd"
         id="path4" />
    </clipPath>
    <clipPath
       clipPathUnits="userSpaceOnUse"
       id="clipPath6">
      <path
         d="m 15.25,9.25 3815,682 1705,2905 -2792,-499 -2728,-3088 z"
         clip-rule="evenodd"
         id="path6" />
    </clipPath>
    <clipPath
       clipPathUnits="userSpaceOnUse"
       id="clipPath8">
      <path
         d="m 15.25,9.25 3815,682 1705,2905 -2792,-499 -2728,-3088 z"
         clip-rule="evenodd"
         id="path8" />
    </clipPath>
    <clipPath
       clipPathUnits="userSpaceOnUse"
       id="clipPath10">
      <path
         d="m 15.25,9.25 3815,682 1705,2905 -2792,-499 -2728,-3088 z"
         clip-rule="evenodd"
         id="path10" />
    </clipPath>
    <clipPath
       clipPathUnits="userSpaceOnUse"
       id="clipPath12">
      <path
         d="m 15.25,9.25 3815,682 1705,2905 -2792,-499 -2728,-3088 z"
         clip-rule="evenodd"
         id="path12" />
    </clipPath>
    <clipPath
       clipPathUnits="userSpaceOnUse"
       id="clipPath14">
      <path
         d="m 15.25,9.25 3815,682 1705,2905 -2792,-499 -2728,-3088 z"
         clip-rule="evenodd"
         id="path14" />
    </clipPath>
    <clipPath
       clipPathUnits="userSpaceOnUse"
       id="clipPath16">
      <path
         d="m 15.25,9.25 3815,682 1705,2905 -2792,-499 -2728,-3088 z"
         clip-rule="evenodd"
         id="path16" />
    </clipPath>
    <clipPath
       clipPathUnits="userSpaceOnUse"
       id="clipPath18">
      <path
         d="m 15.25,9.25 3815,682 1705,2905 -2792,-499 -2728,-3088 z"
         clip-rule="evenodd"
         id="path18" />
    </clipPath>
    <clipPath
       clipPathUnits="userSpaceOnUse"
       id="clipPath20">
      <path
         d="m 15.25,9.25 3815,682 1705,2905 -2792,-499 -2728,-3088 z"
         clip-rule="evenodd"
         id="path20" />
    </clipPath>
    <clipPath
       clipPathUnits="userSpaceOnUse"
       id="clipPath22">
      <path
         d="m 15.25,9.25 3815,682 1705,2905 -2792,-499 -2728,-3088 z"
         clip-rule="evenodd"
         id="path22" />
    </clipPath>
    <clipPath
       clipPathUnits="userSpaceOnUse"
       id="clipPath24">
      <path
         d="m 15.25,9.25 3815,682 1705,2905 -2792,-499 -2728,-3088 z"
         clip-rule="evenodd"
         id="path24" />
    </clipPath>
    <clipPath
       clipPathUnits="userSpaceOnUse"
       id="clipPath26">
      <path
         d="m 15.25,9.25 3815,682 1705,2905 -2792,-499 -2728,-3088 z"
         clip-rule="evenodd"
         id="path26" />
    </clipPath>
    <clipPath
       clipPathUnits="userSpaceOnUse"
       id="clipPath28">
      <path
         d="m 15.25,9.25 3815,682 1705,2905 -2792,-499 -2728,-3088 z"
         clip-rule="evenodd"
         id="path28" />
    </clipPath>
    <clipPath
       clipPathUnits="userSpaceOnUse"
       id="clipPath30">
      <path
         d="m 15.25,9.25 3815,682 1705,2905 -2792,-499 -2728,-3088 z"
         clip-rule="evenodd"
         id="path30" />
    </clipPath>
    <clipPath
       clipPathUnits="userSpaceOnUse"
       id="clipPath32">
      <path
         d="m 15.25,9.25 3815,682 1705,2905 -2792,-499 -2728,-3088 z"
         clip-rule="evenodd"
         id="path32" />
    </clipPath>
    <clipPath
       clipPathUnits="userSpaceOnUse"
       id="clipPath34">
      <path
         d="m 15.25,9.25 3815,682 1705,2905 -2792,-499 -2728,-3088 z"
         clip-rule="evenodd"
         id="path34" />
    </clipPath>
    <clipPath
       clipPathUnits="userSpaceOnUse"
       id="clipPath68">
      <path
         d="m 4487.25,2431.25 h 762 v -762 h -762 z m -824,-519 153,584 611,-153 -153,-584 z m -770,243 305,405 461,-305 -305,-405 z m -799,37 458,228 309,-458 -457,-227 z m -769,595 610,49 158,-610 -610,-49 z m -1092,-168 762,-129 7,-762 -762,129 z"
         clip-rule="evenodd"
         id="path68" />
    </clipPath>
    <clipPath
       clipPathUnits="userSpaceOnUse"
       id="clipPath70">
      <path
         d="m 4487.25,2431.25 h 762 v -762 h -762 z m -824,-519 153,584 611,-153 -153,-584 z m -770,243 305,405 461,-305 -305,-405 z m -799,37 458,228 309,-458 -457,-227 z m -769,595 610,49 158,-610 -610,-49 z m -1092,-168 762,-129 7,-762 -762,129 z"
         clip-rule="evenodd"
         id="path70" />
    </clipPath>
    <clipPath
       clipPathUnits="userSpaceOnUse"
       id="clipPath72">
      <path
         d="m 4487.25,2431.25 h 762 v -762 h -762 z m -824,-519 153,584 611,-153 -153,-584 z m -770,243 305,405 461,-305 -305,-405 z m -799,37 458,228 309,-458 -457,-227 z m -769,595 610,49 158,-610 -610,-49 z m -1092,-168 762,-129 7,-762 -762,129 z"
         clip-rule="evenodd"
         id="path72" />
    </clipPath>
    <clipPath
       clipPathUnits="userSpaceOnUse"
       id="clipPath74">
      <path
         d="m 4487.25,2431.25 h 762 v -762 h -762 z m -824,-519 153,584 611,-153 -153,-584 z m -770,243 305,405 461,-305 -305,-405 z m -799,37 458,228 309,-458 -457,-227 z m -769,595 610,49 158,-610 -610,-49 z m -1092,-168 762,-129 7,-762 -762,129 z"
         clip-rule="evenodd"
         id="path74" />
    </clipPath>
    <clipPath
       clipPathUnits="userSpaceOnUse"
       id="clipPath76">
      <path
         d="m 4487.25,2431.25 h 762 v -762 h -762 z m -824,-519 153,584 611,-153 -153,-584 z m -770,243 305,405 461,-305 -305,-405 z m -799,37 458,228 309,-458 -457,-227 z m -769,595 610,49 158,-610 -610,-49 z m -1092,-168 762,-129 7,-762 -762,129 z"
         clip-rule="evenodd"
         id="path76" />
    </clipPath>
    <clipPath
       clipPathUnits="userSpaceOnUse"
       id="clipPath78">
      <path
         d="m 4487.25,2431.25 h 762 v -762 h -762 z m -824,-519 153,584 611,-153 -153,-584 z m -770,243 305,405 461,-305 -305,-405 z m -799,37 458,228 309,-458 -457,-227 z m -769,595 610,49 158,-610 -610,-49 z m -1092,-168 762,-129 7,-762 -762,129 z"
         clip-rule="evenodd"
         id="path78" />
    </clipPath>
    <clipPath
       clipPathUnits="userSpaceOnUse"
       id="clipPath80">
      <path
         d="m 4487.25,2431.25 h 762 v -762 h -762 z m -824,-519 153,584 611,-153 -153,-584 z m -770,243 305,405 461,-305 -305,-405 z m -799,37 458,228 309,-458 -457,-227 z m -769,595 610,49 158,-610 -610,-49 z m -1092,-168 762,-129 7,-762 -762,129 z"
         clip-rule="evenodd"
         id="path80" />
    </clipPath>
    <clipPath
       clipPathUnits="userSpaceOnUse"
       id="clipPath82">
      <path
         d="m 4487.25,2431.25 h 762 v -762 h -762 z m -824,-519 153,584 611,-153 -153,-584 z m -770,243 305,405 461,-305 -305,-405 z m -799,37 458,228 309,-458 -457,-227 z m -769,595 610,49 158,-610 -610,-49 z m -1092,-168 762,-129 7,-762 -762,129 z"
         clip-rule="evenodd"
         id="path82" />
    </clipPath>
    <clipPath
       clipPathUnits="userSpaceOnUse"
       id="clipPath84">
      <path
         d="m 4487.25,2431.25 h 762 v -762 h -762 z m -824,-519 153,584 611,-153 -153,-584 z m -770,243 305,405 461,-305 -305,-405 z m -799,37 458,228 309,-458 -457,-227 z m -769,595 610,49 158,-610 -610,-49 z m -1092,-168 762,-129 7,-762 -762,129 z"
         clip-rule="evenodd"
         id="path84" />
    </clipPath>
    <clipPath
       clipPathUnits="userSpaceOnUse"
       id="clipPath86">
      <path
         d="m 4487.25,2431.25 h 762 v -762 h -762 z m -824,-519 153,584 611,-153 -153,-584 z m -770,243 305,405 461,-305 -305,-405 z m -799,37 458,228 309,-458 -457,-227 z m -769,595 610,49 158,-610 -610,-49 z m -1092,-168 762,-129 7,-762 -762,129 z"
         clip-rule="evenodd"
         id="path86" />
    </clipPath>
    <clipPath
       clipPathUnits="userSpaceOnUse"
       id="clipPath88">
      <path
         d="m 4487.25,2431.25 h 762 v -762 h -762 z m -824,-519 153,584 611,-153 -153,-584 z m -770,243 305,405 461,-305 -305,-405 z m -799,37 458,228 309,-458 -457,-227 z m -769,595 610,49 158,-610 -610,-49 z m -1092,-168 762,-129 7,-762 -762,129 z"
         clip-rule="evenodd"
         id="path88" />
    </clipPath>
    <clipPath
       clipPathUnits="userSpaceOnUse"
       id="clipPath90">
      <path
         d="m 4487.25,2431.25 h 762 v -762 h -762 z m -824,-519 153,584 611,-153 -153,-584 z m -770,243 305,405 461,-305 -305,-405 z m -799,37 458,228 309,-458 -457,-227 z m -769,595 610,49 158,-610 -610,-49 z m -1092,-168 762,-129 7,-762 -762,129 z"
         clip-rule="evenodd"
         id="path90" />
    </clipPath>
    <clipPath
       clipPathUnits="userSpaceOnUse"
       id="clipPath92">
      <path
         d="m 4487.25,2431.25 h 762 v -762 h -762 z m -824,-519 153,584 611,-153 -153,-584 z m -770,243 305,405 461,-305 -305,-405 z m -799,37 458,228 309,-458 -457,-227 z m -769,595 610,49 158,-610 -610,-49 z m -1092,-168 762,-129 7,-762 -762,129 z"
         clip-rule="evenodd"
         id="path92" />
    </clipPath>
    <clipPath
       clipPathUnits="userSpaceOnUse"
       id="clipPath94">
      <path
         d="m 4487.25,2431.25 h 762 v -762 h -762 z m -824,-519 153,584 611,-153 -153,-584 z m -770,243 305,405 461,-305 -305,-405 z m -799,37 458,228 309,-458 -457,-227 z m -769,595 610,49 158,-610 -610,-49 z m -1092,-168 762,-129 7,-762 -762,129 z"
         clip-rule="evenodd"
         id="path94" />
    </clipPath>
    <clipPath
       clipPathUnits="userSpaceOnUse"
       id="clipPath96">
      <path
         d="m 4487.25,2431.25 h 762 v -762 h -762 z m -824,-519 153,584 611,-153 -153,-584 z m -770,243 305,405 461,-305 -305,-405 z m -799,37 458,228 309,-458 -457,-227 z m -769,595 610,49 158,-610 -610,-49 z m -1092,-168 762,-129 7,-762 -762,129 z"
         clip-rule="evenodd"
         id="path96" />
    </clipPath>
    <clipPath
       clipPathUnits="userSpaceOnUse"
       id="clipPath98">
      <path
         d="m 4487.25,2431.25 h 762 v -762 h -762 z m -824,-519 153,584 611,-153 -153,-584 z m -770,243 305,405 461,-305 -305,-405 z m -799,37 458,228 309,-458 -457,-227 z m -769,595 610,49 158,-610 -610,-49 z m -1092,-168 762,-129 7,-762 -762,129 z"
         clip-rule="evenodd"
         id="path98" />
    </clipPath>
    <clipPath
       clipPathUnits="userSpaceOnUse"
       id="clipPath100">
      <path
         d="m 4487.25,2431.25 h 762 v -762 h -762 z m -824,-519 153,584 611,-153 -153,-584 z m -770,243 305,405 461,-305 -305,-405 z m -799,37 458,228 309,-458 -457,-227 z m -769,595 610,49 158,-610 -610,-49 z m -1092,-168 762,-129 7,-762 -762,129 z"
         clip-rule="evenodd"
         id="path100" />
    </clipPath>
    <clipPath
       clipPathUnits="userSpaceOnUse"
       id="clipPath102">
      <path
         d="m 4487.25,2431.25 h 762 v -762 h -762 z m -824,-519 153,584 611,-153 -153,-584 z m -770,243 305,405 461,-305 -305,-405 z m -799,37 458,228 309,-458 -457,-227 z m -769,595 610,49 158,-610 -610,-49 z m -1092,-168 762,-129 7,-762 -762,129 z"
         clip-rule="evenodd"
         id="path102" />
    </clipPath>
    <clipPath
       clipPathUnits="userSpaceOnUse"
       id="clipPath104">
      <path
         d="m 4487.25,2431.25 h 762 v -762 h -762 z m -824,-519 153,584 611,-153 -153,-584 z m -770,243 305,405 461,-305 -305,-405 z m -799,37 458,228 309,-458 -457,-227 z m -769,595 610,49 158,-610 -610,-49 z m -1092,-168 762,-129 7,-762 -762,129 z"
         clip-rule="evenodd"
         id="path104" />
    </clipPath>
    <clipPath
       clipPathUnits="userSpaceOnUse"
       id="clipPath106">
      <path
         d="m 4487.25,2431.25 h 762 v -762 h -762 z m -824,-519 153,584 611,-153 -153,-584 z m -770,243 305,405 461,-305 -305,-405 z m -799,37 458,228 309,-458 -457,-227 z m -769,595 610,49 158,-610 -610,-49 z m -1092,-168 762,-129 7,-762 -762,129 z"
         clip-rule="evenodd"
         id="path106" />
    </clipPath>
    <clipPath
       clipPathUnits="userSpaceOnUse"
       id="clipPath108">
      <path
         d="m 4487.25,2431.25 h 762 v -762 h -762 z m -824,-519 153,584 611,-153 -153,-584 z m -770,243 305,405 461,-305 -305,-405 z m -799,37 458,228 309,-458 -457,-227 z m -769,595 610,49 158,-610 -610,-49 z m -1092,-168 762,-129 7,-762 -762,129 z"
         clip-rule="evenodd"
         id="path108" />
    </clipPath>
    <clipPath
       clipPathUnits="userSpaceOnUse"
       id="clipPath110">
      <path
         d="m 4487.25,2431.25 h 762 v -762 h -762 z m -824,-519 153,584 611,-153 -153,-584 z m -770,243 305,405 461,-305 -305,-405 z m -799,37 458,228 309,-458 -457,-227 z m -769,595 610,49 158,-610 -610,-49 z m -1092,-168 762,-129 7,-762 -762,129 z"
         clip-rule="evenodd"
         id="path110" />
    </clipPath>
    <clipPath
       clipPathUnits="userSpaceOnUse"
       id="clipPath112">
      <path
         d="m 4487.25,2431.25 h 762 v -762 h -762 z m -824,-519 153,584 611,-153 -153,-584 z m -770,243 305,405 461,-305 -305,-405 z m -799,37 458,228 309,-458 -457,-227 z m -769,595 610,49 158,-610 -610,-49 z m -1092,-168 762,-129 7,-762 -762,129 z"
         clip-rule="evenodd"
         id="path112" />
    </clipPath>
    <clipPath
       clipPathUnits="userSpaceOnUse"
       id="clipPath114">
      <path
         d="m 4487.25,2431.25 h 762 v -762 h -762 z m -824,-519 153,584 611,-153 -153,-584 z m -770,243 305,405 461,-305 -305,-405 z m -799,37 458,228 309,-458 -457,-227 z m -769,595 610,49 158,-610 -610,-49 z m -1092,-168 762,-129 7,-762 -762,129 z"
         clip-rule="evenodd"
         id="path114" />
    </clipPath>
    <clipPath
       clipPathUnits="userSpaceOnUse"
       id="clipPath116">
      <path
         d="m 4487.25,2431.25 h 762 v -762 h -762 z m -824,-519 153,584 611,-153 -153,-584 z m -770,243 305,405 461,-305 -305,-405 z m -799,37 458,228 309,-458 -457,-227 z m -769,595 610,49 158,-610 -610,-49 z m -1092,-168 762,-129 7,-762 -762,129 z"
         clip-rule="evenodd"
         id="path116" />
    </clipPath>
    <clipPath
       clipPathUnits="userSpaceOnUse"
       id="clipPath118">
      <path
         d="m 4487.25,2431.25 h 762 v -762 h -762 z m -824,-519 153,584 611,-153 -153,-584 z m -770,243 305,405 461,-305 -305,-405 z m -799,37 458,228 309,-458 -457,-227 z m -769,595 610,49 158,-610 -610,-49 z m -1092,-168 762,-129 7,-762 -762,129 z"
         clip-rule="evenodd"
         id="path118" />
    </clipPath>
    <clipPath
       clipPathUnits="userSpaceOnUse"
       id="clipPath120">
      <path
         d="m 4487.25,2431.25 h 762 v -762 h -762 z m -824,-519 153,584 611,-153 -153,-584 z m -770,243 305,405 461,-305 -305,-405 z m -799,37 458,228 309,-458 -457,-227 z m -769,595 610,49 158,-610 -610,-49 z m -1092,-168 762,-129 7,-762 -762,129 z"
         clip-rule="evenodd"
         id="path120" />
    </clipPath>
    <clipPath
       clipPathUnits="userSpaceOnUse"
       id="clipPath122">
      <path
         d="m 4487.25,2431.25 h 762 v -762 h -762 z m -824,-519 153,584 611,-153 -153,-584 z m -770,243 305,405 461,-305 -305,-405 z m -799,37 458,228 309,-458 -457,-227 z m -769,595 610,49 158,-610 -610,-49 z m -1092,-168 762,-129 7,-762 -762,129 z"
         clip-rule="evenodd"
         id="path122" />
    </clipPath>
    <clipPath
       clipPathUnits="userSpaceOnUse"
       id="clipPath124">
      <path
         d="m 4487.25,2431.25 h 762 v -762 h -762 z m -824,-519 153,584 611,-153 -153,-584 z m -770,243 305,405 461,-305 -305,-405 z m -799,37 458,228 309,-458 -457,-227 z m -769,595 610,49 158,-610 -610,-49 z m -1092,-168 762,-129 7,-762 -762,129 z"
         clip-rule="evenodd"
         id="path124" />
    </clipPath>
    <clipPath
       clipPathUnits="userSpaceOnUse"
       id="clipPath126">
      <path
         d="m 4487.25,2431.25 h 762 v -762 h -762 z m -824,-519 153,584 611,-153 -153,-584 z m -770,243 305,405 461,-305 -305,-405 z m -799,37 458,228 309,-458 -457,-227 z m -769,595 610,49 158,-610 -610,-49 z m -1092,-168 762,-129 7,-762 -762,129 z"
         clip-rule="evenodd"
         id="path126" />
    </clipPath>
    <clipPath
       clipPathUnits="userSpaceOnUse"
       id="clipPath128">
      <path
         d="m 4487.25,2431.25 h 762 v -762 h -762 z m -824,-519 153,584 611,-153 -153,-584 z m -770,243 305,405 461,-305 -305,-405 z m -799,37 458,228 309,-458 -457,-227 z m -769,595 610,49 158,-610 -610,-49 z m -1092,-168 762,-129 7,-762 -762,129 z"
         clip-rule="evenodd"
         id="path128" />
    </clipPath>
    <clipPath
       clipPathUnits="userSpaceOnUse"
       id="clipPath130">
      <path
         d="m 4487.25,3282.25 h 762 v -763 h -762 z m -132,-464 -544,-152 -152,648 544,152 z m -722,431 -326,-305 -305,534 326,305 z m -854,299 -109,-457 -457,419 108,458 z m -943,167 110,-609 -610,305 -110,609 z m -1836,358 762,-190 328,-763 -762,191 z"
         clip-rule="evenodd"
         id="path130" />
    </clipPath>
    <clipPath
       clipPathUnits="userSpaceOnUse"
       id="clipPath132">
      <path
         d="m 4487.25,3282.25 h 762 v -763 h -762 z m -132,-464 -544,-152 -152,648 544,152 z m -722,431 -326,-305 -305,534 326,305 z m -854,299 -109,-457 -457,419 108,458 z m -943,167 110,-609 -610,305 -110,609 z m -1836,358 762,-190 328,-763 -762,191 z"
         clip-rule="evenodd"
         id="path132" />
    </clipPath>
    <clipPath
       clipPathUnits="userSpaceOnUse"
       id="clipPath134">
      <path
         d="m 4487.25,3282.25 h 762 v -763 h -762 z m -132,-464 -544,-152 -152,648 544,152 z m -722,431 -326,-305 -305,534 326,305 z m -854,299 -109,-457 -457,419 108,458 z m -943,167 110,-609 -610,305 -110,609 z m -1836,358 762,-190 328,-763 -762,191 z"
         clip-rule="evenodd"
         id="path134" />
    </clipPath>
    <clipPath
       clipPathUnits="userSpaceOnUse"
       id="clipPath136">
      <path
         d="m 4487.25,3282.25 h 762 v -763 h -762 z m -132,-464 -544,-152 -152,648 544,152 z m -722,431 -326,-305 -305,534 326,305 z m -854,299 -109,-457 -457,419 108,458 z m -943,167 110,-609 -610,305 -110,609 z m -1836,358 762,-190 328,-763 -762,191 z"
         clip-rule="evenodd"
         id="path136" />
    </clipPath>
    <clipPath
       clipPathUnits="userSpaceOnUse"
       id="clipPath138">
      <path
         d="m 4487.25,3282.25 h 762 v -763 h -762 z m -132,-464 -544,-152 -152,648 544,152 z m -722,431 -326,-305 -305,534 326,305 z m -854,299 -109,-457 -457,419 108,458 z m -943,167 110,-609 -610,305 -110,609 z m -1836,358 762,-190 328,-763 -762,191 z"
         clip-rule="evenodd"
         id="path138" />
    </clipPath>
    <clipPath
       clipPathUnits="userSpaceOnUse"
       id="clipPath140">
      <path
         d="m 4487.25,3282.25 h 762 v -763 h -762 z m -132,-464 -544,-152 -152,648 544,152 z m -722,431 -326,-305 -305,534 326,305 z m -854,299 -109,-457 -457,419 108,458 z m -943,167 110,-609 -610,305 -110,609 z m -1836,358 762,-190 328,-763 -762,191 z"
         clip-rule="evenodd"
         id="path140" />
    </clipPath>
    <clipPath
       clipPathUnits="userSpaceOnUse"
       id="clipPath142">
      <path
         d="m 4487.25,3282.25 h 762 v -763 h -762 z m -132,-464 -544,-152 -152,648 544,152 z m -722,431 -326,-305 -305,534 326,305 z m -854,299 -109,-457 -457,419 108,458 z m -943,167 110,-609 -610,305 -110,609 z m -1836,358 762,-190 328,-763 -762,191 z"
         clip-rule="evenodd"
         id="path142" />
    </clipPath>
    <clipPath
       clipPathUnits="userSpaceOnUse"
       id="clipPath144">
      <path
         d="m 4487.25,3282.25 h 762 v -763 h -762 z m -132,-464 -544,-152 -152,648 544,152 z m -722,431 -326,-305 -305,534 326,305 z m -854,299 -109,-457 -457,419 108,458 z m -943,167 110,-609 -610,305 -110,609 z m -1836,358 762,-190 328,-763 -762,191 z"
         clip-rule="evenodd"
         id="path144" />
    </clipPath>
    <clipPath
       clipPathUnits="userSpaceOnUse"
       id="clipPath146">
      <path
         d="m 4487.25,3282.25 h 762 v -763 h -762 z m -132,-464 -544,-152 -152,648 544,152 z m -722,431 -326,-305 -305,534 326,305 z m -854,299 -109,-457 -457,419 108,458 z m -943,167 110,-609 -610,305 -110,609 z m -1836,358 762,-190 328,-763 -762,191 z"
         clip-rule="evenodd"
         id="path146" />
    </clipPath>
    <clipPath
       clipPathUnits="userSpaceOnUse"
       id="clipPath148">
      <path
         d="m 4487.25,3282.25 h 762 v -763 h -762 z m -132,-464 -544,-152 -152,648 544,152 z m -722,431 -326,-305 -305,534 326,305 z m -854,299 -109,-457 -457,419 108,458 z m -943,167 110,-609 -610,305 -110,609 z m -1836,358 762,-190 328,-763 -762,191 z"
         clip-rule="evenodd"
         id="path148" />
    </clipPath>
    <clipPath
       clipPathUnits="userSpaceOnUse"
       id="clipPath150">
      <path
         d="m 4487.25,3282.25 h 762 v -763 h -762 z m -132,-464 -544,-152 -152,648 544,152 z m -722,431 -326,-305 -305,534 326,305 z m -854,299 -109,-457 -457,419 108,458 z m -943,167 110,-609 -610,305 -110,609 z m -1836,358 762,-190 328,-763 -762,191 z"
         clip-rule="evenodd"
         id="path150" />
    </clipPath>
    <clipPath
       clipPathUnits="userSpaceOnUse"
       id="clipPath152">
      <path
         d="m 4487.25,3282.25 h 762 v -763 h -762 z m -132,-464 -544,-152 -152,648 544,152 z m -722,431 -326,-305 -305,534 326,305 z m -854,299 -109,-457 -457,419 108,458 z m -943,167 110,-609 -610,305 -110,609 z m -1836,358 762,-190 328,-763 -762,191 z"
         clip-rule="evenodd"
         id="path152" />
    </clipPath>
    <clipPath
       clipPathUnits="userSpaceOnUse"
       id="clipPath154">
      <path
         d="m 4487.25,3282.25 h 762 v -763 h -762 z m -132,-464 -544,-152 -152,648 544,152 z m -722,431 -326,-305 -305,534 326,305 z m -854,299 -109,-457 -457,419 108,458 z m -943,167 110,-609 -610,305 -110,609 z m -1836,358 762,-190 328,-763 -762,191 z"
         clip-rule="evenodd"
         id="path154" />
    </clipPath>
    <clipPath
       clipPathUnits="userSpaceOnUse"
       id="clipPath156">
      <path
         d="m 4487.25,3282.25 h 762 v -763 h -762 z m -132,-464 -544,-152 -152,648 544,152 z m -722,431 -326,-305 -305,534 326,305 z m -854,299 -109,-457 -457,419 108,458 z m -943,167 110,-609 -610,305 -110,609 z m -1836,358 762,-190 328,-763 -762,191 z"
         clip-rule="evenodd"
         id="path156" />
    </clipPath>
    <clipPath
       clipPathUnits="userSpaceOnUse"
       id="clipPath158">
      <path
         d="m 4487.25,3282.25 h 762 v -763 h -762 z m -132,-464 -544,-152 -152,648 544,152 z m -722,431 -326,-305 -305,534 326,305 z m -854,299 -109,-457 -457,419 108,458 z m -943,167 110,-609 -610,305 -110,609 z m -1836,358 762,-190 328,-763 -762,191 z"
         clip-rule="evenodd"
         id="path158" />
    </clipPath>
    <clipPath
       clipPathUnits="userSpaceOnUse"
       id="clipPath160">
      <path
         d="m 4487.25,3282.25 h 762 v -763 h -762 z m -132,-464 -544,-152 -152,648 544,152 z m -722,431 -326,-305 -305,534 326,305 z m -854,299 -109,-457 -457,419 108,458 z m -943,167 110,-609 -610,305 -110,609 z m -1836,358 762,-190 328,-763 -762,191 z"
         clip-rule="evenodd"
         id="path160" />
    </clipPath>
    <clipPath
       clipPathUnits="userSpaceOnUse"
       id="clipPath162">
      <path
         d="m 4487.25,3282.25 h 762 v -763 h -762 z m -132,-464 -544,-152 -152,648 544,152 z m -722,431 -326,-305 -305,534 326,305 z m -854,299 -109,-457 -457,419 108,458 z m -943,167 110,-609 -610,305 -110,609 z m -1836,358 762,-190 328,-763 -762,191 z"
         clip-rule="evenodd"
         id="path162" />
    </clipPath>
    <clipPath
       clipPathUnits="userSpaceOnUse"
       id="clipPath164">
      <path
         d="m 4487.25,3282.25 h 762 v -763 h -762 z m -132,-464 -544,-152 -152,648 544,152 z m -722,431 -326,-305 -305,534 326,305 z m -854,299 -109,-457 -457,419 108,458 z m -943,167 110,-609 -610,305 -110,609 z m -1836,358 762,-190 328,-763 -762,191 z"
         clip-rule="evenodd"
         id="path164" />
    </clipPath>
    <clipPath
       clipPathUnits="userSpaceOnUse"
       id="clipPath166">
      <path
         d="m 4487.25,3282.25 h 762 v -763 h -762 z m -132,-464 -544,-152 -152,648 544,152 z m -722,431 -326,-305 -305,534 326,305 z m -854,299 -109,-457 -457,419 108,458 z m -943,167 110,-609 -610,305 -110,609 z m -1836,358 762,-190 328,-763 -762,191 z"
         clip-rule="evenodd"
         id="path166" />
    </clipPath>
    <clipPath
       clipPathUnits="userSpaceOnUse"
       id="clipPath168">
      <path
         d="m 4487.25,3282.25 h 762 v -763 h -762 z m -132,-464 -544,-152 -152,648 544,152 z m -722,431 -326,-305 -305,534 326,305 z m -854,299 -109,-457 -457,419 108,458 z m -943,167 110,-609 -610,305 -110,609 z m -1836,358 762,-190 328,-763 -762,191 z"
         clip-rule="evenodd"
         id="path168" />
    </clipPath>
    <clipPath
       clipPathUnits="userSpaceOnUse"
       id="clipPath170">
      <path
         d="m 4487.25,3282.25 h 762 v -763 h -762 z m -132,-464 -544,-152 -152,648 544,152 z m -722,431 -326,-305 -305,534 326,305 z m -854,299 -109,-457 -457,419 108,458 z m -943,167 110,-609 -610,305 -110,609 z m -1836,358 762,-190 328,-763 -762,191 z"
         clip-rule="evenodd"
         id="path170" />
    </clipPath>
    <clipPath
       clipPathUnits="userSpaceOnUse"
       id="clipPath172">
      <path
         d="m 4487.25,3282.25 h 762 v -763 h -762 z m -132,-464 -544,-152 -152,648 544,152 z m -722,431 -326,-305 -305,534 326,305 z m -854,299 -109,-457 -457,419 108,458 z m -943,167 110,-609 -610,305 -110,609 z m -1836,358 762,-190 328,-763 -762,191 z"
         clip-rule="evenodd"
         id="path172" />
    </clipPath>
    <clipPath
       clipPathUnits="userSpaceOnUse"
       id="clipPath174">
      <path
         d="m 4487.25,3282.25 h 762 v -763 h -762 z m -132,-464 -544,-152 -152,648 544,152 z m -722,431 -326,-305 -305,534 326,305 z m -854,299 -109,-457 -457,419 108,458 z m -943,167 110,-609 -610,305 -110,609 z m -1836,358 762,-190 328,-763 -762,191 z"
         clip-rule="evenodd"
         id="path174" />
    </clipPath>
    <clipPath
       clipPathUnits="userSpaceOnUse"
       id="clipPath176">
      <path
         d="m 4487.25,3282.25 h 762 v -763 h -762 z m -132,-464 -544,-152 -152,648 544,152 z m -722,431 -326,-305 -305,534 326,305 z m -854,299 -109,-457 -457,419 108,458 z m -943,167 110,-609 -610,305 -110,609 z m -1836,358 762,-190 328,-763 -762,191 z"
         clip-rule="evenodd"
         id="path176" />
    </clipPath>
    <clipPath
       clipPathUnits="userSpaceOnUse"
       id="clipPath178">
      <path
         d="m 4487.25,3282.25 h 762 v -763 h -762 z m -132,-464 -544,-152 -152,648 544,152 z m -722,431 -326,-305 -305,534 326,305 z m -854,299 -109,-457 -457,419 108,458 z m -943,167 110,-609 -610,305 -110,609 z m -1836,358 762,-190 328,-763 -762,191 z"
         clip-rule="evenodd"
         id="path178" />
    </clipPath>
    <clipPath
       clipPathUnits="userSpaceOnUse"
       id="clipPath180">
      <path
         d="m 4487.25,3282.25 h 762 v -763 h -762 z m -132,-464 -544,-152 -152,648 544,152 z m -722,431 -326,-305 -305,534 326,305 z m -854,299 -109,-457 -457,419 108,458 z m -943,167 110,-609 -610,305 -110,609 z m -1836,358 762,-190 328,-763 -762,191 z"
         clip-rule="evenodd"
         id="path180" />
    </clipPath>
    <clipPath
       clipPathUnits="userSpaceOnUse"
       id="clipPath182">
      <path
         d="m 4487.25,3282.25 h 762 v -763 h -762 z m -132,-464 -544,-152 -152,648 544,152 z m -722,431 -326,-305 -305,534 326,305 z m -854,299 -109,-457 -457,419 108,458 z m -943,167 110,-609 -610,305 -110,609 z m -1836,358 762,-190 328,-763 -762,191 z"
         clip-rule="evenodd"
         id="path182" />
    </clipPath>
    <clipPath
       clipPathUnits="userSpaceOnUse"
       id="clipPath184">
      <path
         d="m 4487.25,3282.25 h 762 v -763 h -762 z m -132,-464 -544,-152 -152,648 544,152 z m -722,431 -326,-305 -305,534 326,305 z m -854,299 -109,-457 -457,419 108,458 z m -943,167 110,-609 -610,305 -110,609 z m -1836,358 762,-190 328,-763 -762,191 z"
         clip-rule="evenodd"
         id="path184" />
    </clipPath>
    <clipPath
       clipPathUnits="userSpaceOnUse"
       id="clipPath186">
      <path
         d="m 4487.25,3282.25 h 762 v -763 h -762 z m -132,-464 -544,-152 -152,648 544,152 z m -722,431 -326,-305 -305,534 326,305 z m -854,299 -109,-457 -457,419 108,458 z m -943,167 110,-609 -610,305 -110,609 z m -1836,358 762,-190 328,-763 -762,191 z"
         clip-rule="evenodd"
         id="path186" />
    </clipPath>
    <clipPath
       clipPathUnits="userSpaceOnUse"
       id="clipPath188">
      <path
         d="m 4487.25,3282.25 h 762 v -763 h -762 z m -132,-464 -544,-152 -152,648 544,152 z m -722,431 -326,-305 -305,534 326,305 z m -854,299 -109,-457 -457,419 108,458 z m -943,167 110,-609 -610,305 -110,609 z m -1836,358 762,-190 328,-763 -762,191 z"
         clip-rule="evenodd"
         id="path188" />
    </clipPath>
    <clipPath
       clipPathUnits="userSpaceOnUse"
       id="clipPath190">
      <path
         d="m 4487.25,3282.25 h 762 v -763 h -762 z m -132,-464 -544,-152 -152,648 544,152 z m -722,431 -326,-305 -305,534 326,305 z m -854,299 -109,-457 -457,419 108,458 z m -943,167 110,-609 -610,305 -110,609 z m -1836,358 762,-190 328,-763 -762,191 z"
         clip-rule="evenodd"
         id="path190" />
    </clipPath>
    <clipPath
       clipPathUnits="userSpaceOnUse"
       id="clipPath192">
      <path
         d="m 4487.25,3282.25 h 762 v -763 h -762 z m -132,-464 -544,-152 -152,648 544,152 z m -722,431 -326,-305 -305,534 326,305 z m -854,299 -109,-457 -457,419 108,458 z m -943,167 110,-609 -610,305 -110,609 z m -1836,358 762,-190 328,-763 -762,191 z"
         clip-rule="evenodd"
         id="path192" />
    </clipPath>
    <clipPath
       clipPathUnits="userSpaceOnUse"
       id="clipPath194">
      <path
         d="m 4487.25,3282.25 h 762 v -763 h -762 z m -132,-464 -544,-152 -152,648 544,152 z m -722,431 -326,-305 -305,534 326,305 z m -854,299 -109,-457 -457,419 108,458 z m -943,167 110,-609 -610,305 -110,609 z m -1836,358 762,-190 328,-763 -762,191 z"
         clip-rule="evenodd"
         id="path194" />
    </clipPath>
    <clipPath
       clipPathUnits="userSpaceOnUse"
       id="clipPath196">
      <path
         d="m 4487.25,3282.25 h 762 v -763 h -762 z m -132,-464 -544,-152 -152,648 544,152 z m -722,431 -326,-305 -305,534 326,305 z m -854,299 -109,-457 -457,419 108,458 z m -943,167 110,-609 -610,305 -110,609 z m -1836,358 762,-190 328,-763 -762,191 z"
         clip-rule="evenodd"
         id="path196" />
    </clipPath>
    <clipPath
       clipPathUnits="userSpaceOnUse"
       id="clipPath198">
      <path
         d="m 4487.25,3282.25 h 762 v -763 h -762 z m -132,-464 -544,-152 -152,648 544,152 z m -722,431 -326,-305 -305,534 326,305 z m -854,299 -109,-457 -457,419 108,458 z m -943,167 110,-609 -610,305 -110,609 z m -1836,358 762,-190 328,-763 -762,191 z"
         clip-rule="evenodd"
         id="path198" />
    </clipPath>
    <clipPath
       clipPathUnits="userSpaceOnUse"
       id="clipPath200">
      <path
         d="m 4487.25,3282.25 h 762 v -763 h -762 z m -132,-464 -544,-152 -152,648 544,152 z m -722,431 -326,-305 -305,534 326,305 z m -854,299 -109,-457 -457,419 108,458 z m -943,167 110,-609 -610,305 -110,609 z m -1836,358 762,-190 328,-763 -762,191 z"
         clip-rule="evenodd"
         id="path200" />
    </clipPath>
    <clipPath
       clipPathUnits="userSpaceOnUse"
       id="clipPath202">
      <path
         d="m 4487.25,1581.25 h 762 v -762 h -762 z m -828,-675 152,641 514,-153 -152,-640 z m -745,-175 305,518 265,-305 -305,-518 z m -774,117 457,396 17,-457 -457,-397 z m -671,410 609,275 -231,-610 -610,-275 z m -950,-234 762,152 -480,-762 -763,-153 z"
         clip-rule="evenodd"
         id="path202" />
    </clipPath>
    <clipPath
       clipPathUnits="userSpaceOnUse"
       id="clipPath204">
      <path
         d="m 4487.25,1581.25 h 762 v -762 h -762 z m -828,-675 152,641 514,-153 -152,-640 z m -745,-175 305,518 265,-305 -305,-518 z m -774,117 457,396 17,-457 -457,-397 z m -671,410 609,275 -231,-610 -610,-275 z m -950,-234 762,152 -480,-762 -763,-153 z"
         clip-rule="evenodd"
         id="path204" />
    </clipPath>
    <clipPath
       clipPathUnits="userSpaceOnUse"
       id="clipPath206">
      <path
         d="m 4487.25,1581.25 h 762 v -762 h -762 z m -828,-675 152,641 514,-153 -152,-640 z m -745,-175 305,518 265,-305 -305,-518 z m -774,117 457,396 17,-457 -457,-397 z m -671,410 609,275 -231,-610 -610,-275 z m -950,-234 762,152 -480,-762 -763,-153 z"
         clip-rule="evenodd"
         id="path206" />
    </clipPath>
    <clipPath
       clipPathUnits="userSpaceOnUse"
       id="clipPath208">
      <path
         d="m 4487.25,1581.25 h 762 v -762 h -762 z m -828,-675 152,641 514,-153 -152,-640 z m -745,-175 305,518 265,-305 -305,-518 z m -774,117 457,396 17,-457 -457,-397 z m -671,410 609,275 -231,-610 -610,-275 z m -950,-234 762,152 -480,-762 -763,-153 z"
         clip-rule="evenodd"
         id="path208" />
    </clipPath>
    <clipPath
       clipPathUnits="userSpaceOnUse"
       id="clipPath210">
      <path
         d="m 4487.25,1581.25 h 762 v -762 h -762 z m -828,-675 152,641 514,-153 -152,-640 z m -745,-175 305,518 265,-305 -305,-518 z m -774,117 457,396 17,-457 -457,-397 z m -671,410 609,275 -231,-610 -610,-275 z m -950,-234 762,152 -480,-762 -763,-153 z"
         clip-rule="evenodd"
         id="path210" />
    </clipPath>
    <clipPath
       clipPathUnits="userSpaceOnUse"
       id="clipPath212">
      <path
         d="m 4487.25,1581.25 h 762 v -762 h -762 z m -828,-675 152,641 514,-153 -152,-640 z m -745,-175 305,518 265,-305 -305,-518 z m -774,117 457,396 17,-457 -457,-397 z m -671,410 609,275 -231,-610 -610,-275 z m -950,-234 762,152 -480,-762 -763,-153 z"
         clip-rule="evenodd"
         id="path212" />
    </clipPath>
    <clipPath
       clipPathUnits="userSpaceOnUse"
       id="clipPath214">
      <path
         d="m 4487.25,1581.25 h 762 v -762 h -762 z m -828,-675 152,641 514,-153 -152,-640 z m -745,-175 305,518 265,-305 -305,-518 z m -774,117 457,396 17,-457 -457,-397 z m -671,410 609,275 -231,-610 -610,-275 z m -950,-234 762,152 -480,-762 -763,-153 z"
         clip-rule="evenodd"
         id="path214" />
    </clipPath>
    <clipPath
       clipPathUnits="userSpaceOnUse"
       id="clipPath216">
      <path
         d="m 4487.25,1581.25 h 762 v -762 h -762 z m -828,-675 152,641 514,-153 -152,-640 z m -745,-175 305,518 265,-305 -305,-518 z m -774,117 457,396 17,-457 -457,-397 z m -671,410 609,275 -231,-610 -610,-275 z m -950,-234 762,152 -480,-762 -763,-153 z"
         clip-rule="evenodd"
         id="path216" />
    </clipPath>
    <clipPath
       clipPathUnits="userSpaceOnUse"
       id="clipPath218">
      <path
         d="m 4487.25,1581.25 h 762 v -762 h -762 z m -828,-675 152,641 514,-153 -152,-640 z m -745,-175 305,518 265,-305 -305,-518 z m -774,117 457,396 17,-457 -457,-397 z m -671,410 609,275 -231,-610 -610,-275 z m -950,-234 762,152 -480,-762 -763,-153 z"
         clip-rule="evenodd"
         id="path218" />
    </clipPath>
    <clipPath
       clipPathUnits="userSpaceOnUse"
       id="clipPath220">
      <path
         d="m 4487.25,1581.25 h 762 v -762 h -762 z m -828,-675 152,641 514,-153 -152,-640 z m -745,-175 305,518 265,-305 -305,-518 z m -774,117 457,396 17,-457 -457,-397 z m -671,410 609,275 -231,-610 -610,-275 z m -950,-234 762,152 -480,-762 -763,-153 z"
         clip-rule="evenodd"
         id="path220" />
    </clipPath>
    <clipPath
       clipPathUnits="userSpaceOnUse"
       id="clipPath222">
      <path
         d="m 4487.25,1581.25 h 762 v -762 h -762 z m -828,-675 152,641 514,-153 -152,-640 z m -745,-175 305,518 265,-305 -305,-518 z m -774,117 457,396 17,-457 -457,-397 z m -671,410 609,275 -231,-610 -610,-275 z m -950,-234 762,152 -480,-762 -763,-153 z"
         clip-rule="evenodd"
         id="path222" />
    </clipPath>
    <clipPath
       clipPathUnits="userSpaceOnUse"
       id="clipPath224">
      <path
         d="m 4487.25,1581.25 h 762 v -762 h -762 z m -828,-675 152,641 514,-153 -152,-640 z m -745,-175 305,518 265,-305 -305,-518 z m -774,117 457,396 17,-457 -457,-397 z m -671,410 609,275 -231,-610 -610,-275 z m -950,-234 762,152 -480,-762 -763,-153 z"
         clip-rule="evenodd"
         id="path224" />
    </clipPath>
    <clipPath
       clipPathUnits="userSpaceOnUse"
       id="clipPath226">
      <path
         d="m 4487.25,1581.25 h 762 v -762 h -762 z m -828,-675 152,641 514,-153 -152,-640 z m -745,-175 305,518 265,-305 -305,-518 z m -774,117 457,396 17,-457 -457,-397 z m -671,410 609,275 -231,-610 -610,-275 z m -950,-234 762,152 -480,-762 -763,-153 z"
         clip-rule="evenodd"
         id="path226" />
    </clipPath>
    <clipPath
       clipPathUnits="userSpaceOnUse"
       id="clipPath228">
      <path
         d="m 4487.25,1581.25 h 762 v -762 h -762 z m -828,-675 152,641 514,-153 -152,-640 z m -745,-175 305,518 265,-305 -305,-518 z m -774,117 457,396 17,-457 -457,-397 z m -671,410 609,275 -231,-610 -610,-275 z m -950,-234 762,152 -480,-762 -763,-153 z"
         clip-rule="evenodd"
         id="path228" />
    </clipPath>
    <clipPath
       clipPathUnits="userSpaceOnUse"
       id="clipPath230">
      <path
         d="m 4487.25,1581.25 h 762 v -762 h -762 z m -828,-675 152,641 514,-153 -152,-640 z m -745,-175 305,518 265,-305 -305,-518 z m -774,117 457,396 17,-457 -457,-397 z m -671,410 609,275 -231,-610 -610,-275 z m -950,-234 762,152 -480,-762 -763,-153 z"
         clip-rule="evenodd"
         id="path230" />
    </clipPath>
    <clipPath
       clipPathUnits="userSpaceOnUse"
       id="clipPath232">
      <path
         d="m 4487.25,1581.25 h 762 v -762 h -762 z m -828,-675 152,641 514,-153 -152,-640 z m -745,-175 305,518 265,-305 -305,-518 z m -774,117 457,396 17,-457 -457,-397 z m -671,410 609,275 -231,-610 -610,-275 z m -950,-234 762,152 -480,-762 -763,-153 z"
         clip-rule="evenodd"
         id="path232" />
    </clipPath>
    <clipPath
       clipPathUnits="userSpaceOnUse"
       id="clipPath234">
      <path
         d="m 4487.25,1581.25 h 762 v -762 h -762 z m -828,-675 152,641 514,-153 -152,-640 z m -745,-175 305,518 265,-305 -305,-518 z m -774,117 457,396 17,-457 -457,-397 z m -671,410 609,275 -231,-610 -610,-275 z m -950,-234 762,152 -480,-762 -763,-153 z"
         clip-rule="evenodd"
         id="path234" />
    </clipPath>
    <clipPath
       clipPathUnits="userSpaceOnUse"
       id="clipPath236">
      <path
         d="m 4487.25,1581.25 h 762 v -762 h -762 z m -828,-675 152,641 514,-153 -152,-640 z m -745,-175 305,518 265,-305 -305,-518 z m -774,117 457,396 17,-457 -457,-397 z m -671,410 609,275 -231,-610 -610,-275 z m -950,-234 762,152 -480,-762 -763,-153 z"
         clip-rule="evenodd"
         id="path236" />
    </clipPath>
    <clipPath
       clipPathUnits="userSpaceOnUse"
       id="clipPath238">
      <path
         d="m 4487.25,1581.25 h 762 v -762 h -762 z m -828,-675 152,641 514,-153 -152,-640 z m -745,-175 305,518 265,-305 -305,-518 z m -774,117 457,396 17,-457 -457,-397 z m -671,410 609,275 -231,-610 -610,-275 z m -950,-234 762,152 -480,-762 -763,-153 z"
         clip-rule="evenodd"
         id="path238" />
    </clipPath>
    <clipPath
       clipPathUnits="userSpaceOnUse"
       id="clipPath240">
      <path
         d="m 4487.25,1581.25 h 762 v -762 h -762 z m -828,-675 152,641 514,-153 -152,-640 z m -745,-175 305,518 265,-305 -305,-518 z m -774,117 457,396 17,-457 -457,-397 z m -671,410 609,275 -231,-610 -610,-275 z m -950,-234 762,152 -480,-762 -763,-153 z"
         clip-rule="evenodd"
         id="path240" />
    </clipPath>
    <clipPath
       clipPathUnits="userSpaceOnUse"
       id="clipPath242">
      <path
         d="m 4487.25,1581.25 h 762 v -762 h -762 z m -828,-675 152,641 514,-153 -152,-640 z m -745,-175 305,518 265,-305 -305,-518 z m -774,117 457,396 17,-457 -457,-397 z m -671,410 609,275 -231,-610 -610,-275 z m -950,-234 762,152 -480,-762 -763,-153 z"
         clip-rule="evenodd"
         id="path242" />
    </clipPath>
    <clipPath
       clipPathUnits="userSpaceOnUse"
       id="clipPath244">
      <path
         d="m 4487.25,1581.25 h 762 v -762 h -762 z m -828,-675 152,641 514,-153 -152,-640 z m -745,-175 305,518 265,-305 -305,-518 z m -774,117 457,396 17,-457 -457,-397 z m -671,410 609,275 -231,-610 -610,-275 z m -950,-234 762,152 -480,-762 -763,-153 z"
         clip-rule="evenodd"
         id="path244" />
    </clipPath>
    <clipPath
       clipPathUnits="userSpaceOnUse"
       id="clipPath246">
      <path
         d="m 4487.25,1581.25 h 762 v -762 h -762 z m -828,-675 152,641 514,-153 -152,-640 z m -745,-175 305,518 265,-305 -305,-518 z m -774,117 457,396 17,-457 -457,-397 z m -671,410 609,275 -231,-610 -610,-275 z m -950,-234 762,152 -480,-762 -763,-153 z"
         clip-rule="evenodd"
         id="path246" />
    </clipPath>
    <clipPath
       clipPathUnits="userSpaceOnUse"
       id="clipPath248">
      <path
         d="m 4487.25,1581.25 h 762 v -762 h -762 z m -828,-675 152,641 514,-153 -152,-640 z m -745,-175 305,518 265,-305 -305,-518 z m -774,117 457,396 17,-457 -457,-397 z m -671,410 609,275 -231,-610 -610,-275 z m -950,-234 762,152 -480,-762 -763,-153 z"
         clip-rule="evenodd"
         id="path248" />
    </clipPath>
    <clipPath
       clipPathUnits="userSpaceOnUse"
       id="clipPath250">
      <path
         d="m 4487.25,1581.25 h 762 v -762 h -762 z m -828,-675 152,641 514,-153 -152,-640 z m -745,-175 305,518 265,-305 -305,-518 z m -774,117 457,396 17,-457 -457,-397 z m -671,410 609,275 -231,-610 -610,-275 z m -950,-234 762,152 -480,-762 -763,-153 z"
         clip-rule="evenodd"
         id="path250" />
    </clipPath>
    <clipPath
       clipPathUnits="userSpaceOnUse"
       id="clipPath252">
      <path
         d="m 4487.25,1581.25 h 762 v -762 h -762 z m -828,-675 152,641 514,-153 -152,-640 z m -745,-175 305,518 265,-305 -305,-518 z m -774,117 457,396 17,-457 -457,-397 z m -671,410 609,275 -231,-610 -610,-275 z m -950,-234 762,152 -480,-762 -763,-153 z"
         clip-rule="evenodd"
         id="path252" />
    </clipPath>
    <clipPath
       clipPathUnits="userSpaceOnUse"
       id="clipPath254">
      <path
         d="m 4487.25,1581.25 h 762 v -762 h -762 z m -828,-675 152,641 514,-153 -152,-640 z m -745,-175 305,518 265,-305 -305,-518 z m -774,117 457,396 17,-457 -457,-397 z m -671,410 609,275 -231,-610 -610,-275 z m -950,-234 762,152 -480,-762 -763,-153 z"
         clip-rule="evenodd"
         id="path254" />
    </clipPath>
    <clipPath
       clipPathUnits="userSpaceOnUse"
       id="clipPath256">
      <path
         d="m 4487.25,1581.25 h 762 v -762 h -762 z m -828,-675 152,641 514,-153 -152,-640 z m -745,-175 305,518 265,-305 -305,-518 z m -774,117 457,396 17,-457 -457,-397 z m -671,410 609,275 -231,-610 -610,-275 z m -950,-234 762,152 -480,-762 -763,-153 z"
         clip-rule="evenodd"
         id="path256" />
    </clipPath>
    <clipPath
       clipPathUnits="userSpaceOnUse"
       id="clipPath258">
      <path
         d="m 4487.25,1581.25 h 762 v -762 h -762 z m -828,-675 152,641 514,-153 -152,-640 z m -745,-175 305,518 265,-305 -305,-518 z m -774,117 457,396 17,-457 -457,-397 z m -671,410 609,275 -231,-610 -610,-275 z m -950,-234 762,152 -480,-762 -763,-153 z"
         clip-rule="evenodd"
         id="path258" />
    </clipPath>
    <clipPath
       clipPathUnits="userSpaceOnUse"
       id="clipPath260">
      <path
         d="m 4487.25,1581.25 h 762 v -762 h -762 z m -828,-675 152,641 514,-153 -152,-640 z m -745,-175 305,518 265,-305 -305,-518 z m -774,117 457,396 17,-457 -457,-397 z m -671,410 609,275 -231,-610 -610,-275 z m -950,-234 762,152 -480,-762 -763,-153 z"
         clip-rule="evenodd"
         id="path260" />
    </clipPath>
    <clipPath
       clipPathUnits="userSpaceOnUse"
       id="clipPath262">
      <path
         d="m 4487.25,1581.25 h 762 v -762 h -762 z m -828,-675 152,641 514,-153 -152,-640 z m -745,-175 305,518 265,-305 -305,-518 z m -774,117 457,396 17,-457 -457,-397 z m -671,410 609,275 -231,-610 -610,-275 z m -950,-234 762,152 -480,-762 -763,-153 z"
         clip-rule="evenodd"
         id="path262" />
    </clipPath>
    <clipPath
       clipPathUnits="userSpaceOnUse"
       id="clipPath264">
      <path
         d="m 4487.25,1581.25 h 762 v -762 h -762 z m -828,-675 152,641 514,-153 -152,-640 z m -745,-175 305,518 265,-305 -305,-518 z m -774,117 457,396 17,-457 -457,-397 z m -671,410 609,275 -231,-610 -610,-275 z m -950,-234 762,152 -480,-762 -763,-153 z"
         clip-rule="evenodd"
         id="path264" />
    </clipPath>
    <clipPath
       clipPathUnits="userSpaceOnUse"
       id="clipPath266">
      <path
         d="m 4487.25,1581.25 h 762 v -762 h -762 z m -828,-675 152,641 514,-153 -152,-640 z m -745,-175 305,518 265,-305 -305,-518 z m -774,117 457,396 17,-457 -457,-397 z m -671,410 609,275 -231,-610 -610,-275 z m -950,-234 762,152 -480,-762 -763,-153 z"
         clip-rule="evenodd"
         id="path266" />
    </clipPath>
    <clipPath
       clipPathUnits="userSpaceOnUse"
       id="clipPath268">
      <path
         d="m 4487.25,1581.25 h 762 v -762 h -762 z m -828,-675 152,641 514,-153 -152,-640 z m -745,-175 305,518 265,-305 -305,-518 z m -774,117 457,396 17,-457 -457,-397 z m -671,410 609,275 -231,-610 -610,-275 z m -950,-234 762,152 -480,-762 -763,-153 z"
         clip-rule="evenodd"
         id="path268" />
    </clipPath>
    <clipPath
       clipPathUnits="userSpaceOnUse"
       id="clipPath270">
      <path
         d="m 4487.25,1581.25 h 762 v -762 h -762 z m -828,-675 152,641 514,-153 -152,-640 z m -745,-175 305,518 265,-305 -305,-518 z m -774,117 457,396 17,-457 -457,-397 z m -671,410 609,275 -231,-610 -610,-275 z m -950,-234 762,152 -480,-762 -763,-153 z"
         clip-rule="evenodd"
         id="path270" />
    </clipPath>
    <clipPath
       clipPathUnits="userSpaceOnUse"
       id="clipPath272">
      <path
         d="m 4487.25,1581.25 h 762 v -762 h -762 z m -828,-675 152,641 514,-153 -152,-640 z m -745,-175 305,518 265,-305 -305,-518 z m -774,117 457,396 17,-457 -457,-397 z m -671,410 609,275 -231,-610 -610,-275 z m -950,-234 762,152 -480,-762 -763,-153 z"
         clip-rule="evenodd"
         id="path272" />
    </clipPath>
    <clipPath
       clipPathUnits="userSpaceOnUse"
       id="clipPath274">
      <path
         d="m 4487.25,1581.25 h 762 v -762 h -762 z m -828,-675 152,641 514,-153 -152,-640 z m -745,-175 305,518 265,-305 -305,-518 z m -774,117 457,396 17,-457 -457,-397 z m -671,410 609,275 -231,-610 -610,-275 z m -950,-234 762,152 -480,-762 -763,-153 z"
         clip-rule="evenodd"
         id="path274" />
    </clipPath>
    <clipPath
       clipPathUnits="userSpaceOnUse"
       id="clipPath276">
      <path
         d="m 4487.25,1581.25 h 762 v -762 h -762 z m -828,-675 152,641 514,-153 -152,-640 z m -745,-175 305,518 265,-305 -305,-518 z m -774,117 457,396 17,-457 -457,-397 z m -671,410 609,275 -231,-610 -610,-275 z m -950,-234 762,152 -480,-762 -763,-153 z"
         clip-rule="evenodd"
         id="path276" />
    </clipPath>
    <clipPath
       clipPathUnits="userSpaceOnUse"
       id="clipPath278">
      <path
         d="m 4487.25,1581.25 h 762 v -762 h -762 z m -828,-675 152,641 514,-153 -152,-640 z m -745,-175 305,518 265,-305 -305,-518 z m -774,117 457,396 17,-457 -457,-397 z m -671,410 609,275 -231,-610 -610,-275 z m -950,-234 762,152 -480,-762 -763,-153 z"
         clip-rule="evenodd"
         id="path278" />
    </clipPath>
    <clipPath
       clipPathUnits="userSpaceOnUse"
       id="clipPath280">
      <path
         d="m 4487.25,1581.25 h 762 v -762 h -762 z m -828,-675 152,641 514,-153 -152,-640 z m -745,-175 305,518 265,-305 -305,-518 z m -774,117 457,396 17,-457 -457,-397 z m -671,410 609,275 -231,-610 -610,-275 z m -950,-234 762,152 -480,-762 -763,-153 z"
         clip-rule="evenodd"
         id="path280" />
    </clipPath>
    <clipPath
       clipPathUnits="userSpaceOnUse"
       id="clipPath282">
      <path
         d="m 4487.25,1581.25 h 762 v -762 h -762 z m -828,-675 152,641 514,-153 -152,-640 z m -745,-175 305,518 265,-305 -305,-518 z m -774,117 457,396 17,-457 -457,-397 z m -671,410 609,275 -231,-610 -610,-275 z m -950,-234 762,152 -480,-762 -763,-153 z"
         clip-rule="evenodd"
         id="path282" />
    </clipPath>
    <clipPath
       clipPathUnits="userSpaceOnUse"
       id="clipPath284">
      <path
         d="m 4487.25,1581.25 h 762 v -762 h -762 z m -828,-675 152,641 514,-153 -152,-640 z m -745,-175 305,518 265,-305 -305,-518 z m -774,117 457,396 17,-457 -457,-397 z m -671,410 609,275 -231,-610 -610,-275 z m -950,-234 762,152 -480,-762 -763,-153 z"
         clip-rule="evenodd"
         id="path284" />
    </clipPath>
    <clipPath
       clipPathUnits="userSpaceOnUse"
       id="clipPath286">
      <path
         d="m 4487.25,1581.25 h 762 v -762 h -762 z m -828,-675 152,641 514,-153 -152,-640 z m -745,-175 305,518 265,-305 -305,-518 z m -774,117 457,396 17,-457 -457,-397 z m -671,410 609,275 -231,-610 -610,-275 z m -950,-234 762,152 -480,-762 -763,-153 z"
         clip-rule="evenodd"
         id="path286" />
    </clipPath>
  </defs>
  <sodipodi:namedview
     id="namedview1"
     pagecolor="#ffffff"
     bordercolor="#000000"
     borderopacity="0.25"
     inkscape:showpageshadow="2"
     inkscape:pageopacity="0.0"
     inkscape:pagecheckerboard="0"
     inkscape:deskcolor="#d1d1d1">
    <inkscape:page
       x="0"
       y="0"
       inkscape:label="1"
       id="page1"
       width="739.74664"
       height="545.08002"
       margin="0"
       bleed="0" />
  </sodipodi:namedview>
  <g
     id="g1"
     inkscape:groupmode="layer"
     inkscape:label="1">
    <path
       id="path1"
       d="m 5100.25,3773.25 355,102 721,-2511 -356,-102 z"
       style="fill:#a9b4bf;fill-opacity:1;fill-rule:nonzero;stroke:none"
       transform="matrix(0.13333333,0,0,-0.13333333,0,545.08)"
       clip-path="url(#clipPath2)" />
    <path
       id="path3"
       d="m 4744.25,3671.25 356,102 720,-2511 -356,-102 z"
       style="fill:#aeb8c2;fill-opacity:1;fill-rule:nonzero;stroke:none"
       transform="matrix(0.13333333,0,0,-0.13333333,0,545.08)"
       clip-path="url(#clipPath4)" />
    <path
       id="path5"
       d="m 4388.25,3569.25 356,102 720,-2511 -356,-102 z"
       style="fill:#b3bcc6;fill-opacity:1;fill-rule:nonzero;stroke:none"
       transform="matrix(0.13333333,0,0,-0.13333333,0,545.08)"
       clip-path="url(#clipPath6)" />
    <path
       id="path7"
       d="m 4032.25,3467.25 356,102 720,-2511 -356,-102 z"
       style="fill:#b8c0c9;fill-opacity:1;fill-rule:nonzero;stroke:none"
       transform="matrix(0.13333333,0,0,-0.13333333,0,545.08)"
       clip-path="url(#clipPath8)" />
    <path
       id="path9"
       d="m 3676.25,3365.25 356,102 720,-2511 -356,-103 z"
       style="fill:#bec5cd;fill-opacity:1;fill-rule:nonzero;stroke:none"
       transform="matrix(0.13333333,0,0,-0.13333333,0,545.08)"
       clip-path="url(#clipPath10)" />
    <path
       id="path11"
       d="m 3320.25,3263.25 356,102 720,-2512 -356,-102 z"
       style="fill:#c3c9d0;fill-opacity:1;fill-rule:nonzero;stroke:none"
       transform="matrix(0.13333333,0,0,-0.13333333,0,545.08)"
       clip-path="url(#clipPath12)" />
    <path
       id="path13"
       d="m 2964.25,3161.25 356,102 720,-2512 -356,-102 z"
       style="fill:#c8ced4;fill-opacity:1;fill-rule:nonzero;stroke:none"
       transform="matrix(0.13333333,0,0,-0.13333333,0,545.08)"
       clip-path="url(#clipPath14)" />
    <path
       id="path15"
       d="m 2608.25,3058.25 356,103 720,-2512 -356,-102 z"
       style="fill:#cdd2d8;fill-opacity:1;fill-rule:nonzero;stroke:none"
       transform="matrix(0.13333333,0,0,-0.13333333,0,545.08)"
       clip-path="url(#clipPath16)" />
    <path
       id="path17"
       d="m 2252.25,2956.25 356,102 720,-2511 -356,-102 z"
       style="fill:#d3d7dc;fill-opacity:1;fill-rule:nonzero;stroke:none"
       transform="matrix(0.13333333,0,0,-0.13333333,0,545.08)"
       clip-path="url(#clipPath18)" />
    <path
       id="path19"
       d="m 1896.25,2854.25 356,102 720,-2511 -356,-102 z"
       style="fill:#d8dbe0;fill-opacity:1;fill-rule:nonzero;stroke:none"
       transform="matrix(0.13333333,0,0,-0.13333333,0,545.08)"
       clip-path="url(#clipPath20)" />
    <path
       id="path21"
       d="m 1540.25,2752.25 356,102 720,-2511 -356,-102 z"
       style="fill:#dee0e4;fill-opacity:1;fill-rule:nonzero;stroke:none"
       transform="matrix(0.13333333,0,0,-0.13333333,0,545.08)"
       clip-path="url(#clipPath22)" />
    <path
       id="path23"
       d="m 1184.25,2650.25 356,102 720,-2511 -356,-102 z"
       style="fill:#e3e5e8;fill-opacity:1;fill-rule:nonzero;stroke:none"
       transform="matrix(0.13333333,0,0,-0.13333333,0,545.08)"
       clip-path="url(#clipPath24)" />
    <path
       id="path25"
       d="m 828.25,2548.25 356,102 720,-2511 -356,-102 z"
       style="fill:#e9eaed;fill-opacity:1;fill-rule:nonzero;stroke:none"
       transform="matrix(0.13333333,0,0,-0.13333333,0,545.08)"
       clip-path="url(#clipPath26)" />
    <path
       id="path27"
       d="m 472.25,2446.25 356,102 720,-2511 -356,-102 z"
       style="fill:#eeeff1;fill-opacity:1;fill-rule:nonzero;stroke:none"
       transform="matrix(0.13333333,0,0,-0.13333333,0,545.08)"
       clip-path="url(#clipPath28)" />
    <path
       id="path29"
       d="m 116.25,2344.25 356,102 720,-2511 -356,-102 z"
       style="fill:#f4f4f6;fill-opacity:1;fill-rule:nonzero;stroke:none"
       transform="matrix(0.13333333,0,0,-0.13333333,0,545.08)"
       clip-path="url(#clipPath30)" />
    <path
       id="path31"
       d="m -239.75,2242.25 356,102 720,-2511 -356,-102 z"
       style="fill:#f9fafa;fill-opacity:1;fill-rule:nonzero;stroke:none"
       transform="matrix(0.13333333,0,0,-0.13333333,0,545.08)"
       clip-path="url(#clipPath32)" />
    <path
       id="path33"
       d="m -595.75,2140.25 356,102 720,-2511 -355,-102 z"
       style="fill:#ffffff;fill-opacity:1;fill-rule:nonzero;stroke:none"
       transform="matrix(0.13333333,0,0,-0.13333333,0,545.08)"
       clip-path="url(#clipPath34)" />
    <path
       id="path35"
       d="m 15.25,9.25 3815,682 1705,2905 -2792,-499 -2728,-3088 z"
       style="fill:none;stroke:#231f20;stroke-width:10.536;stroke-linecap:butt;stroke-linejoin:miter;stroke-miterlimit:3.8637;stroke-dasharray:none;stroke-opacity:1"
       transform="matrix(0.13333333,0,0,-0.13333333,0,545.08)" />
    <path
       id="path36"
       d="m 492.25,95.25 2600,3065"
       style="fill:none;stroke:#231f20;stroke-width:10.535;stroke-linecap:butt;stroke-linejoin:miter;stroke-miterlimit:3.8637;stroke-dasharray:none;stroke-opacity:1"
       transform="matrix(0.13333333,0,0,-0.13333333,0,545.08)" />
    <path
       id="path37"
       d="m 969.25,180.25 2472,3042"
       style="fill:none;stroke:#231f20;stroke-width:10.535;stroke-linecap:butt;stroke-linejoin:miter;stroke-miterlimit:3.8637;stroke-dasharray:none;stroke-opacity:1"
       transform="matrix(0.13333333,0,0,-0.13333333,0,545.08)" />
    <path
       id="path38"
       d="m 1446.25,265.25 2344,3019"
       style="fill:none;stroke:#231f20;stroke-width:10.535;stroke-linecap:butt;stroke-linejoin:miter;stroke-miterlimit:3.8637;stroke-dasharray:none;stroke-opacity:1"
       transform="matrix(0.13333333,0,0,-0.13333333,0,545.08)" />
    <path
       id="path39"
       d="m 1923.25,350.25 2216,2997"
       style="fill:none;stroke:#231f20;stroke-width:10.535;stroke-linecap:butt;stroke-linejoin:miter;stroke-miterlimit:3.8637;stroke-dasharray:none;stroke-opacity:1"
       transform="matrix(0.13333333,0,0,-0.13333333,0,545.08)" />
    <path
       id="path40"
       d="m 2400.25,436.25 2088,2973"
       style="fill:none;stroke:#231f20;stroke-width:10.535;stroke-linecap:butt;stroke-linejoin:miter;stroke-miterlimit:3.8637;stroke-dasharray:none;stroke-opacity:1"
       transform="matrix(0.13333333,0,0,-0.13333333,0,545.08)" />
    <path
       id="path41"
       d="m 2877.25,521.25 1960,2951"
       style="fill:none;stroke:#231f20;stroke-width:10.535;stroke-linecap:butt;stroke-linejoin:miter;stroke-miterlimit:3.8637;stroke-dasharray:none;stroke-opacity:1"
       transform="matrix(0.13333333,0,0,-0.13333333,0,545.08)" />
    <path
       id="path42"
       d="m 3353.25,606.25 1833,2928"
       style="fill:none;stroke:#231f20;stroke-width:10.535;stroke-linecap:butt;stroke-linejoin:miter;stroke-miterlimit:3.8637;stroke-dasharray:none;stroke-opacity:1"
       transform="matrix(0.13333333,0,0,-0.13333333,0,545.08)" />
    <path
       id="path43"
       d="m 405.25,451.25 3669,655"
       style="fill:none;stroke:#231f20;stroke-width:10.535;stroke-linecap:butt;stroke-linejoin:miter;stroke-miterlimit:3.8637;stroke-dasharray:none;stroke-opacity:1"
       transform="matrix(0.13333333,0,0,-0.13333333,0,545.08)" />
    <path
       id="path44"
       d="m 795.25,892.25 3522,629"
       style="fill:none;stroke:#231f20;stroke-width:10.535;stroke-linecap:butt;stroke-linejoin:miter;stroke-miterlimit:3.8637;stroke-dasharray:none;stroke-opacity:1"
       transform="matrix(0.13333333,0,0,-0.13333333,0,545.08)" />
    <path
       id="path45"
       d="m 1184.25,1333.25 3377,603"
       style="fill:none;stroke:#231f20;stroke-width:10.535;stroke-linecap:butt;stroke-linejoin:miter;stroke-miterlimit:3.8637;stroke-dasharray:none;stroke-opacity:1"
       transform="matrix(0.13333333,0,0,-0.13333333,0,545.08)" />
    <path
       id="path46"
       d="m 1574.25,1774.25 3231,577"
       style="fill:none;stroke:#231f20;stroke-width:10.535;stroke-linecap:butt;stroke-linejoin:miter;stroke-miterlimit:3.8637;stroke-dasharray:none;stroke-opacity:1"
       transform="matrix(0.13333333,0,0,-0.13333333,0,545.08)" />
    <path
       id="path47"
       d="m 1964.25,2215.25 3084,551"
       style="fill:none;stroke:#231f20;stroke-width:10.535;stroke-linecap:butt;stroke-linejoin:miter;stroke-miterlimit:3.8637;stroke-dasharray:none;stroke-opacity:1"
       transform="matrix(0.13333333,0,0,-0.13333333,0,545.08)" />
    <path
       id="path48"
       d="m 2353.25,2656.25 2939,525"
       style="fill:none;stroke:#231f20;stroke-width:10.535;stroke-linecap:butt;stroke-linejoin:miter;stroke-miterlimit:3.8637;stroke-dasharray:none;stroke-opacity:1"
       transform="matrix(0.13333333,0,0,-0.13333333,0,545.08)" />
    <path
       id="path49"
       d="m 4535.25,2452.25 h 705 v -759 h -705 v 759"
       style="fill:#a9b4bf;fill-opacity:1;fill-rule:nonzero;stroke:none"
       transform="matrix(0.13333333,0,0,-0.13333333,0,545.08)" />
    <path
       id="path50"
       d="m 3773.25,1935.25 141,582 566,-152 -141,-582 -566,152"
       style="fill:#a9b4bf;fill-opacity:1;fill-rule:nonzero;stroke:none"
       transform="matrix(0.13333333,0,0,-0.13333333,0,545.08)" />
    <path
       id="path51"
       d="m 3062.25,2177.25 282,404 425,-304 -281,-404 -426,304"
       style="fill:#a9b4bf;fill-opacity:1;fill-rule:nonzero;stroke:none"
       transform="matrix(0.13333333,0,0,-0.13333333,0,545.08)" />
    <path
       id="path52"
       d="m 2323.25,2214.25 423,227 286,-456 -423,-226 -286,455"
       style="fill:#a9b4bf;fill-opacity:1;fill-rule:nonzero;stroke:none"
       transform="matrix(0.13333333,0,0,-0.13333333,0,545.08)" />
    <path
       id="path53"
       d="m 1612.25,2807.25 563,48 147,-607 -564,-49 -146,608"
       style="fill:#a9b4bf;fill-opacity:1;fill-rule:nonzero;stroke:none"
       transform="matrix(0.13333333,0,0,-0.13333333,0,545.08)" />
    <path
       id="path54"
       d="m 602.25,2640.25 705,-129 7,-760 -705,130 -7,759"
       style="fill:#a9b4bf;fill-opacity:1;fill-rule:nonzero;stroke:none"
       transform="matrix(0.13333333,0,0,-0.13333333,0,545.08)" />
    <path
       id="path55"
       d="m 4535.25,3299.25 h 705 v -759 h -705 v 759"
       style="fill:#a9b4bf;fill-opacity:1;fill-rule:nonzero;stroke:none"
       transform="matrix(0.13333333,0,0,-0.13333333,0,545.08)" />
    <path
       id="path56"
       d="m 4413.25,2838.25 -503,-152 -141,646 503,151 141,-645"
       style="fill:#a9b4bf;fill-opacity:1;fill-rule:nonzero;stroke:none"
       transform="matrix(0.13333333,0,0,-0.13333333,0,545.08)" />
    <path
       id="path57"
       d="m 3746.25,3267.25 -302,-303 -282,531 302,304 282,-532"
       style="fill:#a9b4bf;fill-opacity:1;fill-rule:nonzero;stroke:none"
       transform="matrix(0.13333333,0,0,-0.13333333,0,545.08)" />
    <path
       id="path58"
       d="m 2956.25,3565.25 -100,-455 -423,417 100,456 423,-418"
       style="fill:#a9b4bf;fill-opacity:1;fill-rule:nonzero;stroke:none"
       transform="matrix(0.13333333,0,0,-0.13333333,0,545.08)" />
    <path
       id="path59"
       d="m 2085.25,3732.25 101,-608 -564,304 -101,607 564,-303"
       style="fill:#a9b4bf;fill-opacity:1;fill-rule:nonzero;stroke:none"
       transform="matrix(0.13333333,0,0,-0.13333333,0,545.08)" />
    <path
       id="path60"
       d="m 387.25,4088.25 704,-190 304,-759 -705,189 -303,760"
       style="fill:#a9b4bf;fill-opacity:1;fill-rule:nonzero;stroke:none"
       transform="matrix(0.13333333,0,0,-0.13333333,0,545.08)" />
    <path
       id="path61"
       d="m 4535.25,1602.25 h 705 v -759 h -705 v 759"
       style="fill:#a9b4bf;fill-opacity:1;fill-rule:nonzero;stroke:none"
       transform="matrix(0.13333333,0,0,-0.13333333,0,545.08)" />
    <path
       id="path62"
       d="m 3769.25,934.25 141,637 475,-151 -141,-638 -475,152"
       style="fill:#a9b4bf;fill-opacity:1;fill-rule:nonzero;stroke:none"
       transform="matrix(0.13333333,0,0,-0.13333333,0,545.08)" />
    <path
       id="path63"
       d="m 3081.25,758.25 282,517 245,-304 -282,-516 -245,303"
       style="fill:#a9b4bf;fill-opacity:1;fill-rule:nonzero;stroke:none"
       transform="matrix(0.13333333,0,0,-0.13333333,0,545.08)" />
    <path
       id="path64"
       d="m 2365.25,875.25 423,395 16,-456 -423,-395 -16,456"
       style="fill:#a9b4bf;fill-opacity:1;fill-rule:nonzero;stroke:none"
       transform="matrix(0.13333333,0,0,-0.13333333,0,545.08)" />
    <path
       id="path65"
       d="m 1745.25,1284.25 564,273 -215,-607 -564,-274 215,608"
       style="fill:#a9b4bf;fill-opacity:1;fill-rule:nonzero;stroke:none"
       transform="matrix(0.13333333,0,0,-0.13333333,0,545.08)" />
    <path
       id="path66"
       d="m 867.25,1050.25 704,152 -444,-759 -704,-152 444,759"
       style="fill:#a9b4bf;fill-opacity:1;fill-rule:nonzero;stroke:none"
       transform="matrix(0.13333333,0,0,-0.13333333,0,545.08)" />
    <path
       id="path67"
       d="m 233.25,1669.25 h 161 v 1167 h -161 z"
       style="fill:#fffa99;fill-opacity:1;fill-rule:nonzero;stroke:none"
       transform="matrix(0.13333333,0,0,-0.13333333,0,545.08)"
       clip-path="url(#clipPath68)" />
    <path
       id="path69"
       d="m 394.25,1669.25 h 162 v 1167 h -162 z"
       style="fill:#fdf794;fill-opacity:1;fill-rule:nonzero;stroke:none"
       transform="matrix(0.13333333,0,0,-0.13333333,0,545.08)"
       clip-path="url(#clipPath70)" />
    <path
       id="path71"
       d="m 556.25,1669.25 h 162 v 1167 h -162 z"
       style="fill:#fbf58f;fill-opacity:1;fill-rule:nonzero;stroke:none"
       transform="matrix(0.13333333,0,0,-0.13333333,0,545.08)"
       clip-path="url(#clipPath72)" />
    <path
       id="path73"
       d="m 718.25,1669.25 h 162 v 1167 h -162 z"
       style="fill:#faf389;fill-opacity:1;fill-rule:nonzero;stroke:none"
       transform="matrix(0.13333333,0,0,-0.13333333,0,545.08)"
       clip-path="url(#clipPath74)" />
    <path
       id="path75"
       d="m 880.25,1669.25 h 162 v 1167 h -162 z"
       style="fill:#f8f084;fill-opacity:1;fill-rule:nonzero;stroke:none"
       transform="matrix(0.13333333,0,0,-0.13333333,0,545.08)"
       clip-path="url(#clipPath76)" />
    <path
       id="path77"
       d="m 1042.25,1669.25 h 161 v 1167 h -161 z"
       style="fill:#f6ee7f;fill-opacity:1;fill-rule:nonzero;stroke:none"
       transform="matrix(0.13333333,0,0,-0.13333333,0,545.08)"
       clip-path="url(#clipPath78)" />
    <path
       id="path79"
       d="m 1203.25,1669.25 h 162 v 1167 h -162 z"
       style="fill:#f4ec7a;fill-opacity:1;fill-rule:nonzero;stroke:none"
       transform="matrix(0.13333333,0,0,-0.13333333,0,545.08)"
       clip-path="url(#clipPath80)" />
    <path
       id="path81"
       d="m 1365.25,1669.25 h 162 v 1167 h -162 z"
       style="fill:#f2ea76;fill-opacity:1;fill-rule:nonzero;stroke:none"
       transform="matrix(0.13333333,0,0,-0.13333333,0,545.08)"
       clip-path="url(#clipPath82)" />
    <path
       id="path83"
       d="m 1527.25,1669.25 h 162 v 1167 h -162 z"
       style="fill:#f1e770;fill-opacity:1;fill-rule:nonzero;stroke:none"
       transform="matrix(0.13333333,0,0,-0.13333333,0,545.08)"
       clip-path="url(#clipPath84)" />
    <path
       id="path85"
       d="m 1689.25,1669.25 h 162 v 1167 h -162 z"
       style="fill:#efe56c;fill-opacity:1;fill-rule:nonzero;stroke:none"
       transform="matrix(0.13333333,0,0,-0.13333333,0,545.08)"
       clip-path="url(#clipPath86)" />
    <path
       id="path87"
       d="m 1851.25,1669.25 h 162 v 1167 h -162 z"
       style="fill:#ede367;fill-opacity:1;fill-rule:nonzero;stroke:none"
       transform="matrix(0.13333333,0,0,-0.13333333,0,545.08)"
       clip-path="url(#clipPath88)" />
    <path
       id="path89"
       d="m 2013.25,1669.25 h 161 v 1167 h -161 z"
       style="fill:#ebe163;fill-opacity:1;fill-rule:nonzero;stroke:none"
       transform="matrix(0.13333333,0,0,-0.13333333,0,545.08)"
       clip-path="url(#clipPath90)" />
    <path
       id="path91"
       d="m 2174.25,1669.25 h 162 v 1167 h -162 z"
       style="fill:#eadf5e;fill-opacity:1;fill-rule:nonzero;stroke:none"
       transform="matrix(0.13333333,0,0,-0.13333333,0,545.08)"
       clip-path="url(#clipPath92)" />
    <path
       id="path93"
       d="m 2336.25,1669.25 h 162 v 1167 h -162 z"
       style="fill:#e8dd59;fill-opacity:1;fill-rule:nonzero;stroke:none"
       transform="matrix(0.13333333,0,0,-0.13333333,0,545.08)"
       clip-path="url(#clipPath94)" />
    <path
       id="path95"
       d="m 2498.25,1669.25 h 162 v 1167 h -162 z"
       style="fill:#e6db55;fill-opacity:1;fill-rule:nonzero;stroke:none"
       transform="matrix(0.13333333,0,0,-0.13333333,0,545.08)"
       clip-path="url(#clipPath96)" />
    <path
       id="path97"
       d="m 2660.25,1669.25 h 162 v 1167 h -162 z"
       style="fill:#e4d951;fill-opacity:1;fill-rule:nonzero;stroke:none"
       transform="matrix(0.13333333,0,0,-0.13333333,0,545.08)"
       clip-path="url(#clipPath98)" />
    <path
       id="path99"
       d="m 2822.25,1669.25 h 161 v 1167 h -161 z"
       style="fill:#e3d74c;fill-opacity:1;fill-rule:nonzero;stroke:none"
       transform="matrix(0.13333333,0,0,-0.13333333,0,545.08)"
       clip-path="url(#clipPath100)" />
    <path
       id="path101"
       d="m 2983.25,1669.25 h 162 v 1167 h -162 z"
       style="fill:#e1d548;fill-opacity:1;fill-rule:nonzero;stroke:none"
       transform="matrix(0.13333333,0,0,-0.13333333,0,545.08)"
       clip-path="url(#clipPath102)" />
    <path
       id="path103"
       d="m 3145.25,1669.25 h 162 v 1167 h -162 z"
       style="fill:#dfd343;fill-opacity:1;fill-rule:nonzero;stroke:none"
       transform="matrix(0.13333333,0,0,-0.13333333,0,545.08)"
       clip-path="url(#clipPath104)" />
    <path
       id="path105"
       d="m 3307.25,1669.25 h 162 v 1167 h -162 z"
       style="fill:#ded13f;fill-opacity:1;fill-rule:nonzero;stroke:none"
       transform="matrix(0.13333333,0,0,-0.13333333,0,545.08)"
       clip-path="url(#clipPath106)" />
    <path
       id="path107"
       d="m 3469.25,1669.25 h 162 v 1167 h -162 z"
       style="fill:#dccf3b;fill-opacity:1;fill-rule:nonzero;stroke:none"
       transform="matrix(0.13333333,0,0,-0.13333333,0,545.08)"
       clip-path="url(#clipPath108)" />
    <path
       id="path109"
       d="m 3631.25,1669.25 h 162 v 1167 h -162 z"
       style="fill:#dacd37;fill-opacity:1;fill-rule:nonzero;stroke:none"
       transform="matrix(0.13333333,0,0,-0.13333333,0,545.08)"
       clip-path="url(#clipPath110)" />
    <path
       id="path111"
       d="m 3793.25,1669.25 h 161 v 1167 h -161 z"
       style="fill:#d8cb33;fill-opacity:1;fill-rule:nonzero;stroke:none"
       transform="matrix(0.13333333,0,0,-0.13333333,0,545.08)"
       clip-path="url(#clipPath112)" />
    <path
       id="path113"
       d="m 3954.25,1669.25 h 162 v 1167 h -162 z"
       style="fill:#d7c92f;fill-opacity:1;fill-rule:nonzero;stroke:none"
       transform="matrix(0.13333333,0,0,-0.13333333,0,545.08)"
       clip-path="url(#clipPath114)" />
    <path
       id="path115"
       d="m 4116.25,1669.25 h 162 v 1167 h -162 z"
       style="fill:#d5c72b;fill-opacity:1;fill-rule:nonzero;stroke:none"
       transform="matrix(0.13333333,0,0,-0.13333333,0,545.08)"
       clip-path="url(#clipPath116)" />
    <path
       id="path117"
       d="m 4278.25,1669.25 h 162 v 1167 h -162 z"
       style="fill:#d3c527;fill-opacity:1;fill-rule:nonzero;stroke:none"
       transform="matrix(0.13333333,0,0,-0.13333333,0,545.08)"
       clip-path="url(#clipPath118)" />
    <path
       id="path119"
       d="m 4440.25,1669.25 h 162 v 1167 h -162 z"
       style="fill:#d2c324;fill-opacity:1;fill-rule:nonzero;stroke:none"
       transform="matrix(0.13333333,0,0,-0.13333333,0,545.08)"
       clip-path="url(#clipPath120)" />
    <path
       id="path121"
       d="m 4602.25,1669.25 h 162 v 1167 h -162 z"
       style="fill:#d0c120;fill-opacity:1;fill-rule:nonzero;stroke:none"
       transform="matrix(0.13333333,0,0,-0.13333333,0,545.08)"
       clip-path="url(#clipPath122)" />
    <path
       id="path123"
       d="m 4764.25,1669.25 h 161 v 1167 h -161 z"
       style="fill:#cfc01c;fill-opacity:1;fill-rule:nonzero;stroke:none"
       transform="matrix(0.13333333,0,0,-0.13333333,0,545.08)"
       clip-path="url(#clipPath124)" />
    <path
       id="path125"
       d="m 4925.25,1669.25 h 162 v 1167 h -162 z"
       style="fill:#cdbe18;fill-opacity:1;fill-rule:nonzero;stroke:none"
       transform="matrix(0.13333333,0,0,-0.13333333,0,545.08)"
       clip-path="url(#clipPath126)" />
    <path
       id="path127"
       d="m 5087.25,1669.25 h 162 v 1167 h -162 z"
       style="fill:#cbbc15;fill-opacity:1;fill-rule:nonzero;stroke:none"
       transform="matrix(0.13333333,0,0,-0.13333333,0,545.08)"
       clip-path="url(#clipPath128)" />
    <path
       id="path129"
       d="m 0.25,2519.25 h 146 v 1554 h -146 z"
       style="fill:#f9b29e;fill-opacity:1;fill-rule:nonzero;stroke:none"
       transform="matrix(0.13333333,0,0,-0.13333333,0,545.08)"
       clip-path="url(#clipPath130)" />
    <path
       id="path131"
       d="m 146.25,2519.25 h 145 v 1554 h -145 z"
       style="fill:#f8ad98;fill-opacity:1;fill-rule:nonzero;stroke:none"
       transform="matrix(0.13333333,0,0,-0.13333333,0,545.08)"
       clip-path="url(#clipPath132)" />
    <path
       id="path133"
       d="m 291.25,2519.25 h 146 v 1554 h -146 z"
       style="fill:#f6a893;fill-opacity:1;fill-rule:nonzero;stroke:none"
       transform="matrix(0.13333333,0,0,-0.13333333,0,545.08)"
       clip-path="url(#clipPath134)" />
    <path
       id="path135"
       d="m 437.25,2519.25 h 146 v 1554 h -146 z"
       style="fill:#f4a38e;fill-opacity:1;fill-rule:nonzero;stroke:none"
       transform="matrix(0.13333333,0,0,-0.13333333,0,545.08)"
       clip-path="url(#clipPath136)" />
    <path
       id="path137"
       d="m 583.25,2519.25 h 146 v 1554 h -146 z"
       style="fill:#f39e89;fill-opacity:1;fill-rule:nonzero;stroke:none"
       transform="matrix(0.13333333,0,0,-0.13333333,0,545.08)"
       clip-path="url(#clipPath138)" />
    <path
       id="path139"
       d="m 729.25,2519.25 h 146 v 1554 h -146 z"
       style="fill:#f19984;fill-opacity:1;fill-rule:nonzero;stroke:none"
       transform="matrix(0.13333333,0,0,-0.13333333,0,545.08)"
       clip-path="url(#clipPath140)" />
    <path
       id="path141"
       d="m 875.25,2519.25 h 145 v 1554 h -145 z"
       style="fill:#ef957f;fill-opacity:1;fill-rule:nonzero;stroke:none"
       transform="matrix(0.13333333,0,0,-0.13333333,0,545.08)"
       clip-path="url(#clipPath142)" />
    <path
       id="path143"
       d="m 1020.25,2519.25 h 146 v 1554 h -146 z"
       style="fill:#ee907a;fill-opacity:1;fill-rule:nonzero;stroke:none"
       transform="matrix(0.13333333,0,0,-0.13333333,0,545.08)"
       clip-path="url(#clipPath144)" />
    <path
       id="path145"
       d="m 1166.25,2519.25 h 146 v 1554 h -146 z"
       style="fill:#ec8b76;fill-opacity:1;fill-rule:nonzero;stroke:none"
       transform="matrix(0.13333333,0,0,-0.13333333,0,545.08)"
       clip-path="url(#clipPath146)" />
    <path
       id="path147"
       d="m 1312.25,2519.25 h 146 v 1554 h -146 z"
       style="fill:#eb8771;fill-opacity:1;fill-rule:nonzero;stroke:none"
       transform="matrix(0.13333333,0,0,-0.13333333,0,545.08)"
       clip-path="url(#clipPath148)" />
    <path
       id="path149"
       d="m 1458.25,2519.25 h 146 v 1554 h -146 z"
       style="fill:#e9826d;fill-opacity:1;fill-rule:nonzero;stroke:none"
       transform="matrix(0.13333333,0,0,-0.13333333,0,545.08)"
       clip-path="url(#clipPath150)" />
    <path
       id="path151"
       d="m 1604.25,2519.25 h 145 v 1554 h -145 z"
       style="fill:#e87e69;fill-opacity:1;fill-rule:nonzero;stroke:none"
       transform="matrix(0.13333333,0,0,-0.13333333,0,545.08)"
       clip-path="url(#clipPath152)" />
    <path
       id="path153"
       d="m 1749.25,2519.25 h 146 v 1554 h -146 z"
       style="fill:#e67965;fill-opacity:1;fill-rule:nonzero;stroke:none"
       transform="matrix(0.13333333,0,0,-0.13333333,0,545.08)"
       clip-path="url(#clipPath154)" />
    <path
       id="path155"
       d="m 1895.25,2519.25 h 146 v 1554 h -146 z"
       style="fill:#e57561;fill-opacity:1;fill-rule:nonzero;stroke:none"
       transform="matrix(0.13333333,0,0,-0.13333333,0,545.08)"
       clip-path="url(#clipPath156)" />
    <path
       id="path157"
       d="m 2041.25,2519.25 h 146 v 1554 h -146 z"
       style="fill:#e3705d;fill-opacity:1;fill-rule:nonzero;stroke:none"
       transform="matrix(0.13333333,0,0,-0.13333333,0,545.08)"
       clip-path="url(#clipPath158)" />
    <path
       id="path159"
       d="m 2187.25,2519.25 h 146 v 1554 h -146 z"
       style="fill:#e26c5a;fill-opacity:1;fill-rule:nonzero;stroke:none"
       transform="matrix(0.13333333,0,0,-0.13333333,0,545.08)"
       clip-path="url(#clipPath160)" />
    <path
       id="path161"
       d="m 2333.25,2519.25 h 146 v 1554 h -146 z"
       style="fill:#e06856;fill-opacity:1;fill-rule:nonzero;stroke:none"
       transform="matrix(0.13333333,0,0,-0.13333333,0,545.08)"
       clip-path="url(#clipPath162)" />
    <path
       id="path163"
       d="m 2479.25,2519.25 h 145 v 1554 h -145 z"
       style="fill:#df6452;fill-opacity:1;fill-rule:nonzero;stroke:none"
       transform="matrix(0.13333333,0,0,-0.13333333,0,545.08)"
       clip-path="url(#clipPath164)" />
    <path
       id="path165"
       d="m 2624.25,2519.25 h 146 v 1554 h -146 z"
       style="fill:#dd604f;fill-opacity:1;fill-rule:nonzero;stroke:none"
       transform="matrix(0.13333333,0,0,-0.13333333,0,545.08)"
       clip-path="url(#clipPath166)" />
    <path
       id="path167"
       d="m 2770.25,2519.25 h 146 v 1554 h -146 z"
       style="fill:#dc5c4c;fill-opacity:1;fill-rule:nonzero;stroke:none"
       transform="matrix(0.13333333,0,0,-0.13333333,0,545.08)"
       clip-path="url(#clipPath168)" />
    <path
       id="path169"
       d="m 2916.25,2519.25 h 146 v 1554 h -146 z"
       style="fill:#db5849;fill-opacity:1;fill-rule:nonzero;stroke:none"
       transform="matrix(0.13333333,0,0,-0.13333333,0,545.08)"
       clip-path="url(#clipPath170)" />
    <path
       id="path171"
       d="m 3062.25,2519.25 h 146 v 1554 h -146 z"
       style="fill:#d95346;fill-opacity:1;fill-rule:nonzero;stroke:none"
       transform="matrix(0.13333333,0,0,-0.13333333,0,545.08)"
       clip-path="url(#clipPath172)" />
    <path
       id="path173"
       d="m 3208.25,2519.25 h 145 v 1554 h -145 z"
       style="fill:#d85043;fill-opacity:1;fill-rule:nonzero;stroke:none"
       transform="matrix(0.13333333,0,0,-0.13333333,0,545.08)"
       clip-path="url(#clipPath174)" />
    <path
       id="path175"
       d="m 3353.25,2519.25 h 146 v 1554 h -146 z"
       style="fill:#d74c41;fill-opacity:1;fill-rule:nonzero;stroke:none"
       transform="matrix(0.13333333,0,0,-0.13333333,0,545.08)"
       clip-path="url(#clipPath176)" />
    <path
       id="path177"
       d="m 3499.25,2519.25 h 146 v 1554 h -146 z"
       style="fill:#d5483e;fill-opacity:1;fill-rule:nonzero;stroke:none"
       transform="matrix(0.13333333,0,0,-0.13333333,0,545.08)"
       clip-path="url(#clipPath178)" />
    <path
       id="path179"
       d="m 3645.25,2519.25 h 146 v 1554 h -146 z"
       style="fill:#d4443b;fill-opacity:1;fill-rule:nonzero;stroke:none"
       transform="matrix(0.13333333,0,0,-0.13333333,0,545.08)"
       clip-path="url(#clipPath180)" />
    <path
       id="path181"
       d="m 3791.25,2519.25 h 146 v 1554 h -146 z"
       style="fill:#d34039;fill-opacity:1;fill-rule:nonzero;stroke:none"
       transform="matrix(0.13333333,0,0,-0.13333333,0,545.08)"
       clip-path="url(#clipPath182)" />
    <path
       id="path183"
       d="m 3937.25,2519.25 h 145 v 1554 h -145 z"
       style="fill:#d23d37;fill-opacity:1;fill-rule:nonzero;stroke:none"
       transform="matrix(0.13333333,0,0,-0.13333333,0,545.08)"
       clip-path="url(#clipPath184)" />
    <path
       id="path185"
       d="m 4082.25,2519.25 h 146 v 1554 h -146 z"
       style="fill:#d03935;fill-opacity:1;fill-rule:nonzero;stroke:none"
       transform="matrix(0.13333333,0,0,-0.13333333,0,545.08)"
       clip-path="url(#clipPath186)" />
    <path
       id="path187"
       d="m 4228.25,2519.25 h 146 v 1554 h -146 z"
       style="fill:#cf3532;fill-opacity:1;fill-rule:nonzero;stroke:none"
       transform="matrix(0.13333333,0,0,-0.13333333,0,545.08)"
       clip-path="url(#clipPath188)" />
    <path
       id="path189"
       d="m 4374.25,2519.25 h 146 v 1554 h -146 z"
       style="fill:#ce3230;fill-opacity:1;fill-rule:nonzero;stroke:none"
       transform="matrix(0.13333333,0,0,-0.13333333,0,545.08)"
       clip-path="url(#clipPath190)" />
    <path
       id="path191"
       d="m 4520.25,2519.25 h 146 v 1554 h -146 z"
       style="fill:#cd2f2f;fill-opacity:1;fill-rule:nonzero;stroke:none"
       transform="matrix(0.13333333,0,0,-0.13333333,0,545.08)"
       clip-path="url(#clipPath192)" />
    <path
       id="path193"
       d="m 4666.25,2519.25 h 146 v 1554 h -146 z"
       style="fill:#cc2b2d;fill-opacity:1;fill-rule:nonzero;stroke:none"
       transform="matrix(0.13333333,0,0,-0.13333333,0,545.08)"
       clip-path="url(#clipPath194)" />
    <path
       id="path195"
       d="m 4812.25,2519.25 h 145 v 1554 h -145 z"
       style="fill:#cb282b;fill-opacity:1;fill-rule:nonzero;stroke:none"
       transform="matrix(0.13333333,0,0,-0.13333333,0,545.08)"
       clip-path="url(#clipPath196)" />
    <path
       id="path197"
       d="m 4957.25,2519.25 h 146 v 1554 h -146 z"
       style="fill:#c9242a;fill-opacity:1;fill-rule:nonzero;stroke:none"
       transform="matrix(0.13333333,0,0,-0.13333333,0,545.08)"
       clip-path="url(#clipPath198)" />
    <path
       id="path199"
       d="m 5103.25,2519.25 h 146 v 1554 h -146 z"
       style="fill:#c82128;fill-opacity:1;fill-rule:nonzero;stroke:none"
       transform="matrix(0.13333333,0,0,-0.13333333,0,545.08)"
       clip-path="url(#clipPath200)" />
    <path
       id="path201"
       d="m 38.25,261.25 h 122 v 1320 h -122 z"
       style="fill:#d7cfec;fill-opacity:1;fill-rule:nonzero;stroke:none"
       transform="matrix(0.13333333,0,0,-0.13333333,0,545.08)"
       clip-path="url(#clipPath202)" />
    <path
       id="path203"
       d="m 160.25,261.25 h 121 v 1320 h -121 z"
       style="fill:#d2c9e8;fill-opacity:1;fill-rule:nonzero;stroke:none"
       transform="matrix(0.13333333,0,0,-0.13333333,0,545.08)"
       clip-path="url(#clipPath204)" />
    <path
       id="path205"
       d="m 281.25,261.25 h 121 v 1320 h -121 z"
       style="fill:#cdc4e5;fill-opacity:1;fill-rule:nonzero;stroke:none"
       transform="matrix(0.13333333,0,0,-0.13333333,0,545.08)"
       clip-path="url(#clipPath206)" />
    <path
       id="path207"
       d="m 402.25,261.25 h 121 v 1320 h -121 z"
       style="fill:#c8bee1;fill-opacity:1;fill-rule:nonzero;stroke:none"
       transform="matrix(0.13333333,0,0,-0.13333333,0,545.08)"
       clip-path="url(#clipPath208)" />
    <path
       id="path209"
       d="m 523.25,261.25 h 121 v 1320 h -121 z"
       style="fill:#c3b8de;fill-opacity:1;fill-rule:nonzero;stroke:none"
       transform="matrix(0.13333333,0,0,-0.13333333,0,545.08)"
       clip-path="url(#clipPath210)" />
    <path
       id="path211"
       d="m 644.25,261.25 h 121 v 1320 h -121 z"
       style="fill:#beb3db;fill-opacity:1;fill-rule:nonzero;stroke:none"
       transform="matrix(0.13333333,0,0,-0.13333333,0,545.08)"
       clip-path="url(#clipPath212)" />
    <path
       id="path213"
       d="m 765.25,261.25 h 122 v 1320 h -122 z"
       style="fill:#b9add8;fill-opacity:1;fill-rule:nonzero;stroke:none"
       transform="matrix(0.13333333,0,0,-0.13333333,0,545.08)"
       clip-path="url(#clipPath214)" />
    <path
       id="path215"
       d="m 887.25,261.25 h 121 v 1320 h -121 z"
       style="fill:#b5a8d4;fill-opacity:1;fill-rule:nonzero;stroke:none"
       transform="matrix(0.13333333,0,0,-0.13333333,0,545.08)"
       clip-path="url(#clipPath216)" />
    <path
       id="path217"
       d="m 1008.25,261.25 h 121 v 1320 h -121 z"
       style="fill:#b0a3d1;fill-opacity:1;fill-rule:nonzero;stroke:none"
       transform="matrix(0.13333333,0,0,-0.13333333,0,545.08)"
       clip-path="url(#clipPath218)" />
    <path
       id="path219"
       d="m 1129.25,261.25 h 121 v 1320 h -121 z"
       style="fill:#ab9ece;fill-opacity:1;fill-rule:nonzero;stroke:none"
       transform="matrix(0.13333333,0,0,-0.13333333,0,545.08)"
       clip-path="url(#clipPath220)" />
    <path
       id="path221"
       d="m 1250.25,261.25 h 121 v 1320 h -121 z"
       style="fill:#a799cb;fill-opacity:1;fill-rule:nonzero;stroke:none"
       transform="matrix(0.13333333,0,0,-0.13333333,0,545.08)"
       clip-path="url(#clipPath222)" />
    <path
       id="path223"
       d="m 1371.25,261.25 h 122 v 1320 h -122 z"
       style="fill:#a294c8;fill-opacity:1;fill-rule:nonzero;stroke:none"
       transform="matrix(0.13333333,0,0,-0.13333333,0,545.08)"
       clip-path="url(#clipPath224)" />
    <path
       id="path225"
       d="m 1493.25,261.25 h 121 v 1320 h -121 z"
       style="fill:#9d8fc5;fill-opacity:1;fill-rule:nonzero;stroke:none"
       transform="matrix(0.13333333,0,0,-0.13333333,0,545.08)"
       clip-path="url(#clipPath226)" />
    <path
       id="path227"
       d="m 1614.25,261.25 h 121 v 1320 h -121 z"
       style="fill:#998ac2;fill-opacity:1;fill-rule:nonzero;stroke:none"
       transform="matrix(0.13333333,0,0,-0.13333333,0,545.08)"
       clip-path="url(#clipPath228)" />
    <path
       id="path229"
       d="m 1735.25,261.25 h 121 v 1320 h -121 z"
       style="fill:#9586bf;fill-opacity:1;fill-rule:nonzero;stroke:none"
       transform="matrix(0.13333333,0,0,-0.13333333,0,545.08)"
       clip-path="url(#clipPath230)" />
    <path
       id="path231"
       d="m 1856.25,261.25 h 121 v 1320 h -121 z"
       style="fill:#9081bd;fill-opacity:1;fill-rule:nonzero;stroke:none"
       transform="matrix(0.13333333,0,0,-0.13333333,0,545.08)"
       clip-path="url(#clipPath232)" />
    <path
       id="path233"
       d="m 1977.25,261.25 h 121 v 1320 h -121 z"
       style="fill:#8c7dba;fill-opacity:1;fill-rule:nonzero;stroke:none"
       transform="matrix(0.13333333,0,0,-0.13333333,0,545.08)"
       clip-path="url(#clipPath234)" />
    <path
       id="path235"
       d="m 2098.25,261.25 h 122 v 1320 h -122 z"
       style="fill:#8879b7;fill-opacity:1;fill-rule:nonzero;stroke:none"
       transform="matrix(0.13333333,0,0,-0.13333333,0,545.08)"
       clip-path="url(#clipPath236)" />
    <path
       id="path237"
       d="m 2220.25,261.25 h 121 v 1320 h -121 z"
       style="fill:#8475b5;fill-opacity:1;fill-rule:nonzero;stroke:none"
       transform="matrix(0.13333333,0,0,-0.13333333,0,545.08)"
       clip-path="url(#clipPath238)" />
    <path
       id="path239"
       d="m 2341.25,261.25 h 121 v 1320 h -121 z"
       style="fill:#7f71b2;fill-opacity:1;fill-rule:nonzero;stroke:none"
       transform="matrix(0.13333333,0,0,-0.13333333,0,545.08)"
       clip-path="url(#clipPath240)" />
    <path
       id="path241"
       d="m 2462.25,261.25 h 121 v 1320 h -121 z"
       style="fill:#7b6daf;fill-opacity:1;fill-rule:nonzero;stroke:none"
       transform="matrix(0.13333333,0,0,-0.13333333,0,545.08)"
       clip-path="url(#clipPath242)" />
    <path
       id="path243"
       d="m 2583.25,261.25 h 121 v 1320 h -121 z"
       style="fill:#7769ad;fill-opacity:1;fill-rule:nonzero;stroke:none"
       transform="matrix(0.13333333,0,0,-0.13333333,0,545.08)"
       clip-path="url(#clipPath244)" />
    <path
       id="path245"
       d="m 2704.25,261.25 h 121 v 1320 h -121 z"
       style="fill:#7365aa;fill-opacity:1;fill-rule:nonzero;stroke:none"
       transform="matrix(0.13333333,0,0,-0.13333333,0,545.08)"
       clip-path="url(#clipPath246)" />
    <path
       id="path247"
       d="m 2825.25,261.25 h 122 v 1320 h -122 z"
       style="fill:#6f62a8;fill-opacity:1;fill-rule:nonzero;stroke:none"
       transform="matrix(0.13333333,0,0,-0.13333333,0,545.08)"
       clip-path="url(#clipPath248)" />
    <path
       id="path249"
       d="m 2947.25,261.25 h 121 v 1320 h -121 z"
       style="fill:#6c5ea6;fill-opacity:1;fill-rule:nonzero;stroke:none"
       transform="matrix(0.13333333,0,0,-0.13333333,0,545.08)"
       clip-path="url(#clipPath250)" />
    <path
       id="path251"
       d="m 3068.25,261.25 h 121 v 1320 h -121 z"
       style="fill:#685ba3;fill-opacity:1;fill-rule:nonzero;stroke:none"
       transform="matrix(0.13333333,0,0,-0.13333333,0,545.08)"
       clip-path="url(#clipPath252)" />
    <path
       id="path253"
       d="m 3189.25,261.25 h 121 v 1320 h -121 z"
       style="fill:#6458a1;fill-opacity:1;fill-rule:nonzero;stroke:none"
       transform="matrix(0.13333333,0,0,-0.13333333,0,545.08)"
       clip-path="url(#clipPath254)" />
    <path
       id="path255"
       d="m 3310.25,261.25 h 121 v 1320 h -121 z"
       style="fill:#60549f;fill-opacity:1;fill-rule:nonzero;stroke:none"
       transform="matrix(0.13333333,0,0,-0.13333333,0,545.08)"
       clip-path="url(#clipPath256)" />
    <path
       id="path257"
       d="m 3431.25,261.25 h 122 v 1320 h -122 z"
       style="fill:#5d529c;fill-opacity:1;fill-rule:nonzero;stroke:none"
       transform="matrix(0.13333333,0,0,-0.13333333,0,545.08)"
       clip-path="url(#clipPath258)" />
    <path
       id="path259"
       d="m 3553.25,261.25 h 121 v 1320 h -121 z"
       style="fill:#594f9a;fill-opacity:1;fill-rule:nonzero;stroke:none"
       transform="matrix(0.13333333,0,0,-0.13333333,0,545.08)"
       clip-path="url(#clipPath260)" />
    <path
       id="path261"
       d="m 3674.25,261.25 h 121 v 1320 h -121 z"
       style="fill:#554c98;fill-opacity:1;fill-rule:nonzero;stroke:none"
       transform="matrix(0.13333333,0,0,-0.13333333,0,545.08)"
       clip-path="url(#clipPath262)" />
    <path
       id="path263"
       d="m 3795.25,261.25 h 121 v 1320 h -121 z"
       style="fill:#524996;fill-opacity:1;fill-rule:nonzero;stroke:none"
       transform="matrix(0.13333333,0,0,-0.13333333,0,545.08)"
       clip-path="url(#clipPath264)" />
    <path
       id="path265"
       d="m 3916.25,261.25 h 121 v 1320 h -121 z"
       style="fill:#4f4794;fill-opacity:1;fill-rule:nonzero;stroke:none"
       transform="matrix(0.13333333,0,0,-0.13333333,0,545.08)"
       clip-path="url(#clipPath266)" />
    <path
       id="path267"
       d="m 4037.25,261.25 h 121 v 1320 h -121 z"
       style="fill:#4b4492;fill-opacity:1;fill-rule:nonzero;stroke:none"
       transform="matrix(0.13333333,0,0,-0.13333333,0,545.08)"
       clip-path="url(#clipPath268)" />
    <path
       id="path269"
       d="m 4158.25,261.25 h 122 v 1320 h -122 z"
       style="fill:#484290;fill-opacity:1;fill-rule:nonzero;stroke:none"
       transform="matrix(0.13333333,0,0,-0.13333333,0,545.08)"
       clip-path="url(#clipPath270)" />
    <path
       id="path271"
       d="m 4280.25,261.25 h 121 v 1320 h -121 z"
       style="fill:#453f8e;fill-opacity:1;fill-rule:nonzero;stroke:none"
       transform="matrix(0.13333333,0,0,-0.13333333,0,545.08)"
       clip-path="url(#clipPath272)" />
    <path
       id="path273"
       d="m 4401.25,261.25 h 121 v 1320 h -121 z"
       style="fill:#413d8c;fill-opacity:1;fill-rule:nonzero;stroke:none"
       transform="matrix(0.13333333,0,0,-0.13333333,0,545.08)"
       clip-path="url(#clipPath274)" />
    <path
       id="path275"
       d="m 4522.25,261.25 h 121 v 1320 h -121 z"
       style="fill:#3e3b8a;fill-opacity:1;fill-rule:nonzero;stroke:none"
       transform="matrix(0.13333333,0,0,-0.13333333,0,545.08)"
       clip-path="url(#clipPath276)" />
    <path
       id="path277"
       d="m 4643.25,261.25 h 121 v 1320 h -121 z"
       style="fill:#3b3988;fill-opacity:1;fill-rule:nonzero;stroke:none"
       transform="matrix(0.13333333,0,0,-0.13333333,0,545.08)"
       clip-path="url(#clipPath278)" />
    <path
       id="path279"
       d="m 4764.25,261.25 h 121 v 1320 h -121 z"
       style="fill:#383786;fill-opacity:1;fill-rule:nonzero;stroke:none"
       transform="matrix(0.13333333,0,0,-0.13333333,0,545.08)"
       clip-path="url(#clipPath280)" />
    <path
       id="path281"
       d="m 4885.25,261.25 h 122 v 1320 h -122 z"
       style="fill:#353584;fill-opacity:1;fill-rule:nonzero;stroke:none"
       transform="matrix(0.13333333,0,0,-0.13333333,0,545.08)"
       clip-path="url(#clipPath282)" />
    <path
       id="path283"
       d="m 5007.25,261.25 h 121 v 1320 h -121 z"
       style="fill:#323482;fill-opacity:1;fill-rule:nonzero;stroke:none"
       transform="matrix(0.13333333,0,0,-0.13333333,0,545.08)"
       clip-path="url(#clipPath284)" />
    <path
       id="path285"
       d="m 5128.25,261.25 h 121 v 1320 h -121 z"
       style="fill:#303280;fill-opacity:1;fill-rule:nonzero;stroke:none"
       transform="matrix(0.13333333,0,0,-0.13333333,0,545.08)"
       clip-path="url(#clipPath286)" />
  </g>
</svg>
