<?xml version="1.0" encoding="UTF-8" standalone="no"?>
<!-- Created with Inkscape (http://www.inkscape.org/) -->

<svg
   version="1.1"
   id="svg1"
   width="712"
   height="524"
   viewBox="0 0 712 524"
   sodipodi:docname="elflux2.eps"
   xmlns:inkscape="http://www.inkscape.org/namespaces/inkscape"
   xmlns:sodipodi="http://sodipodi.sourceforge.net/DTD/sodipodi-0.dtd"
   xmlns="http://www.w3.org/2000/svg"
   xmlns:svg="http://www.w3.org/2000/svg">
  <defs
     id="defs1">
    <clipPath
       clipPathUnits="userSpaceOnUse"
       id="clipPath2">
      <path
         d="M 9,3 V 3930 H 5340 V 3 Z"
         id="path2" />
    </clipPath>
    <clipPath
       clipPathUnits="userSpaceOnUse"
       id="clipPath4">
      <path
         d="M 9,3 V 3930 H 5340 V 3 Z"
         id="path4" />
    </clipPath>
    <clipPath
       clipPathUnits="userSpaceOnUse"
       id="clipPath6">
      <path
         d="M 9,3 V 3930 H 5340 V 3 Z"
         id="path6" />
    </clipPath>
    <clipPath
       clipPathUnits="userSpaceOnUse"
       id="clipPath8">
      <path
         d="M 9,3 V 3930 H 5340 V 3 Z"
         id="path8" />
    </clipPath>
    <clipPath
       clipPathUnits="userSpaceOnUse"
       id="clipPath10">
      <path
         d="M 9,3 V 3930 H 5340 V 3 Z"
         id="path10" />
    </clipPath>
    <clipPath
       clipPathUnits="userSpaceOnUse"
       id="clipPath12">
      <path
         d="M 9,3 V 3930 H 5340 V 3 Z"
         transform="matrix(0.1,0,0,-0.1,-88.9168,16.3332)"
         id="path12" />
    </clipPath>
    <clipPath
       clipPathUnits="userSpaceOnUse"
       id="clipPath14">
      <path
         d="M 9,3 V 3930 H 5340 V 3 Z"
         id="path14" />
    </clipPath>
    <clipPath
       clipPathUnits="userSpaceOnUse"
       id="clipPath16">
      <path
         d="M 9,3 V 3930 H 5340 V 3 Z"
         transform="matrix(0.1,0,0,-0.1,-174.75,16.3332)"
         id="path16" />
    </clipPath>
    <clipPath
       clipPathUnits="userSpaceOnUse"
       id="clipPath18">
      <path
         d="M 9,3 V 3930 H 5340 V 3 Z"
         id="path18" />
    </clipPath>
    <clipPath
       clipPathUnits="userSpaceOnUse"
       id="clipPath20">
      <path
         d="M 9,3 V 3930 H 5340 V 3 Z"
         transform="matrix(0.1,0,0,-0.1,-236.833,16.3332)"
         id="path20" />
    </clipPath>
    <clipPath
       clipPathUnits="userSpaceOnUse"
       id="clipPath22">
      <path
         d="M 9,3 V 3930 H 5340 V 3 Z"
         id="path22" />
    </clipPath>
    <clipPath
       clipPathUnits="userSpaceOnUse"
       id="clipPath24">
      <path
         d="M 9,3 V 3930 H 5340 V 3 Z"
         transform="matrix(0.1,0,0,-0.1,-307.25001,16.3332)"
         id="path24" />
    </clipPath>
    <clipPath
       clipPathUnits="userSpaceOnUse"
       id="clipPath26">
      <path
         d="M 9,3 V 3930 H 5340 V 3 Z"
         id="path26" />
    </clipPath>
    <clipPath
       clipPathUnits="userSpaceOnUse"
       id="clipPath28">
      <path
         d="M 9,3 V 3930 H 5340 V 3 Z"
         transform="matrix(0.1,0,0,-0.1,-377.66701,16.3332)"
         id="path28" />
    </clipPath>
    <clipPath
       clipPathUnits="userSpaceOnUse"
       id="clipPath30">
      <path
         d="M 9,3 V 3930 H 5340 V 3 Z"
         id="path30" />
    </clipPath>
    <clipPath
       clipPathUnits="userSpaceOnUse"
       id="clipPath32">
      <path
         d="M 9,3 V 3930 H 5340 V 3 Z"
         transform="matrix(0.1,0,0,-0.1,-448.08301,16.3332)"
         id="path32" />
    </clipPath>
    <clipPath
       clipPathUnits="userSpaceOnUse"
       id="clipPath34">
      <path
         d="M 9,3 V 3930 H 5340 V 3 Z"
         id="path34" />
    </clipPath>
    <clipPath
       clipPathUnits="userSpaceOnUse"
       id="clipPath36">
      <path
         d="M 9,3 V 3930 H 5340 V 3 Z"
         transform="matrix(0.1,0,0,-0.1,-33.250001,26.000003)"
         id="path36" />
    </clipPath>
    <clipPath
       clipPathUnits="userSpaceOnUse"
       id="clipPath38">
      <path
         d="M 9,3 V 3930 H 5340 V 3 Z"
         id="path38" />
    </clipPath>
    <clipPath
       clipPathUnits="userSpaceOnUse"
       id="clipPath40">
      <path
         d="M 9,3 V 3930 H 5340 V 3 Z"
         transform="matrix(0.1,0,0,-0.1,-16.5832,61.250004)"
         id="path40" />
    </clipPath>
    <clipPath
       clipPathUnits="userSpaceOnUse"
       id="clipPath42">
      <path
         d="M 9,3 V 3930 H 5340 V 3 Z"
         id="path42" />
    </clipPath>
    <clipPath
       clipPathUnits="userSpaceOnUse"
       id="clipPath44">
      <path
         d="M 9,3 V 3930 H 5340 V 3 Z"
         transform="matrix(0.1,0,0,-0.1,-16.5832,96.4168)"
         id="path44" />
    </clipPath>
    <clipPath
       clipPathUnits="userSpaceOnUse"
       id="clipPath46">
      <path
         d="M 9,3 V 3930 H 5340 V 3 Z"
         id="path46" />
    </clipPath>
    <clipPath
       clipPathUnits="userSpaceOnUse"
       id="clipPath48">
      <path
         d="M 9,3 V 3930 H 5340 V 3 Z"
         transform="matrix(0.1,0,0,-0.1,-16.5832,131.667)"
         id="path48" />
    </clipPath>
    <clipPath
       clipPathUnits="userSpaceOnUse"
       id="clipPath50">
      <path
         d="M 9,3 V 3930 H 5340 V 3 Z"
         id="path50" />
    </clipPath>
    <clipPath
       clipPathUnits="userSpaceOnUse"
       id="clipPath52">
      <path
         d="M 9,3 V 3930 H 5340 V 3 Z"
         transform="matrix(0.1,0,0,-0.1,-16.5832,166.833)"
         id="path52" />
    </clipPath>
    <clipPath
       clipPathUnits="userSpaceOnUse"
       id="clipPath54">
      <path
         d="M 9,3 V 3930 H 5340 V 3 Z"
         id="path54" />
    </clipPath>
    <clipPath
       clipPathUnits="userSpaceOnUse"
       id="clipPath56">
      <path
         d="M 9,3 V 3930 H 5340 V 3 Z"
         transform="matrix(0.1,0,0,-0.1,-16.5832,202.08301)"
         id="path56" />
    </clipPath>
    <clipPath
       clipPathUnits="userSpaceOnUse"
       id="clipPath58">
      <path
         d="M 9,3 V 3930 H 5340 V 3 Z"
         id="path58" />
    </clipPath>
    <clipPath
       clipPathUnits="userSpaceOnUse"
       id="clipPath60">
      <path
         d="M 9,3 V 3930 H 5340 V 3 Z"
         transform="matrix(0.1,0,0,-0.1,-16.5832,237.33301)"
         id="path60" />
    </clipPath>
    <clipPath
       clipPathUnits="userSpaceOnUse"
       id="clipPath62">
      <path
         d="M 9,3 V 3930 H 5340 V 3 Z"
         id="path62" />
    </clipPath>
    <clipPath
       clipPathUnits="userSpaceOnUse"
       id="clipPath64">
      <path
         d="M 9,3 V 3930 H 5340 V 3 Z"
         transform="matrix(0.1,0,0,-0.1,-16.5832,272.5)"
         id="path64" />
    </clipPath>
    <clipPath
       clipPathUnits="userSpaceOnUse"
       id="clipPath66">
      <path
         d="M 9,3 V 3930 H 5340 V 3 Z"
         id="path66" />
    </clipPath>
    <clipPath
       clipPathUnits="userSpaceOnUse"
       id="clipPath68">
      <path
         d="M 9,3 V 3930 H 5340 V 3 Z"
         transform="matrix(0.1,0,0,-0.1,-16.5832,307.75001)"
         id="path68" />
    </clipPath>
    <clipPath
       clipPathUnits="userSpaceOnUse"
       id="clipPath70">
      <path
         d="M 9,3 V 3930 H 5340 V 3 Z"
         id="path70" />
    </clipPath>
    <clipPath
       clipPathUnits="userSpaceOnUse"
       id="clipPath72">
      <path
         d="M 9,3 V 3930 H 5340 V 3 Z"
         transform="matrix(0.1,0,0,-0.1,-16.5832,342.91701)"
         id="path72" />
    </clipPath>
    <clipPath
       clipPathUnits="userSpaceOnUse"
       id="clipPath74">
      <path
         d="M 9,3 V 3930 H 5340 V 3 Z"
         id="path74" />
    </clipPath>
    <clipPath
       clipPathUnits="userSpaceOnUse"
       id="clipPath76">
      <path
         d="M 9,3 V 3930 H 5340 V 3 Z"
         transform="matrix(0.1,0,0,-0.1,-23.250001,378.16701)"
         id="path76" />
    </clipPath>
    <clipPath
       clipPathUnits="userSpaceOnUse"
       id="clipPath78">
      <path
         d="m 428.332,303.332 h 4465.84 v 3522.5 H 428.332 Z"
         id="path78" />
    </clipPath>
    <clipPath
       clipPathUnits="userSpaceOnUse"
       id="clipPath80">
      <path
         d="m 428.332,303.332 h 4465.84 v 3522.5 H 428.332 Z"
         id="path80" />
    </clipPath>
    <clipPath
       clipPathUnits="userSpaceOnUse"
       id="clipPath82">
      <path
         d="m 428.332,303.332 h 4465.84 v 3522.5 H 428.332 Z"
         id="path82" />
    </clipPath>
    <clipPath
       clipPathUnits="userSpaceOnUse"
       id="clipPath84">
      <path
         d="m 428.332,303.332 h 4465.84 v 3522.5 H 428.332 Z"
         id="path84" />
    </clipPath>
    <clipPath
       clipPathUnits="userSpaceOnUse"
       id="clipPath86">
      <path
         d="m 428.332,303.332 h 4465.84 v 3522.5 H 428.332 Z"
         id="path86" />
    </clipPath>
    <clipPath
       clipPathUnits="userSpaceOnUse"
       id="clipPath88">
      <path
         d="m 428.332,303.332 h 4465.84 v 3522.5 H 428.332 Z"
         id="path88" />
    </clipPath>
    <clipPath
       clipPathUnits="userSpaceOnUse"
       id="clipPath90">
      <path
         d="m 428.332,303.332 h 4465.84 v 3522.5 H 428.332 Z"
         id="path90" />
    </clipPath>
    <clipPath
       clipPathUnits="userSpaceOnUse"
       id="clipPath92">
      <path
         d="m 428.332,303.332 h 4465.84 v 3522.5 H 428.332 Z"
         id="path92" />
    </clipPath>
    <clipPath
       clipPathUnits="userSpaceOnUse"
       id="clipPath94">
      <path
         d="M 9,3 H 5340 V 3930 H 9 Z"
         id="path94" />
    </clipPath>
    <clipPath
       clipPathUnits="userSpaceOnUse"
       id="clipPath96">
      <path
         d="M 9,3 H 5340 V 3930 H 9 Z"
         id="path96" />
    </clipPath>
    <clipPath
       clipPathUnits="userSpaceOnUse"
       id="clipPath98">
      <path
         d="M 9,3 H 5340 V 3930 H 9 Z"
         id="path98" />
    </clipPath>
    <clipPath
       clipPathUnits="userSpaceOnUse"
       id="clipPath100">
      <path
         d="M 9,3 H 5340 V 3930 H 9 Z"
         id="path100" />
    </clipPath>
    <clipPath
       clipPathUnits="userSpaceOnUse"
       id="clipPath102">
      <path
         d="M 9,3 H 5340 V 3930 H 9 Z"
         id="path102" />
    </clipPath>
    <clipPath
       clipPathUnits="userSpaceOnUse"
       id="clipPath104">
      <path
         d="M 9,3 H 5340 V 3930 H 9 Z"
         id="path104" />
    </clipPath>
    <clipPath
       clipPathUnits="userSpaceOnUse"
       id="clipPath106">
      <path
         d="M 9,3 H 5340 V 3930 H 9 Z"
         id="path106" />
    </clipPath>
    <clipPath
       clipPathUnits="userSpaceOnUse"
       id="clipPath108">
      <path
         d="M 9,3 H 5340 V 3930 H 9 Z"
         id="path108" />
    </clipPath>
    <clipPath
       clipPathUnits="userSpaceOnUse"
       id="clipPath110">
      <path
         d="M 9,3 H 5340 V 3930 H 9 Z"
         id="path110" />
    </clipPath>
    <clipPath
       clipPathUnits="userSpaceOnUse"
       id="clipPath112">
      <path
         d="M 9,3 H 5340 V 3930 H 9 Z"
         id="path112" />
    </clipPath>
    <clipPath
       clipPathUnits="userSpaceOnUse"
       id="clipPath114">
      <path
         d="M 9,3 H 5340 V 3930 H 9 Z"
         id="path114" />
    </clipPath>
    <clipPath
       clipPathUnits="userSpaceOnUse"
       id="clipPath116">
      <path
         d="M 9,3 H 5340 V 3930 H 9 Z"
         id="path116" />
    </clipPath>
    <clipPath
       clipPathUnits="userSpaceOnUse"
       id="clipPath118">
      <path
         d="M 9,3 H 5340 V 3930 H 9 Z"
         id="path118" />
    </clipPath>
    <clipPath
       clipPathUnits="userSpaceOnUse"
       id="clipPath120">
      <path
         d="M 9,3 H 5340 V 3930 H 9 Z"
         id="path120" />
    </clipPath>
    <clipPath
       clipPathUnits="userSpaceOnUse"
       id="clipPath122">
      <path
         d="M 9,3 H 5340 V 3930 H 9 Z"
         id="path122" />
    </clipPath>
    <clipPath
       clipPathUnits="userSpaceOnUse"
       id="clipPath124">
      <path
         d="M 9,3 H 5340 V 3930 H 9 Z"
         id="path124" />
    </clipPath>
    <clipPath
       clipPathUnits="userSpaceOnUse"
       id="clipPath126">
      <path
         d="M 9,3 H 5340 V 3930 H 9 Z"
         id="path126" />
    </clipPath>
    <clipPath
       clipPathUnits="userSpaceOnUse"
       id="clipPath128">
      <path
         d="M 9,3 H 5340 V 3930 H 9 Z"
         id="path128" />
    </clipPath>
    <clipPath
       clipPathUnits="userSpaceOnUse"
       id="clipPath130">
      <path
         d="M 9,3 H 5340 V 3930 H 9 Z"
         id="path130" />
    </clipPath>
    <clipPath
       clipPathUnits="userSpaceOnUse"
       id="clipPath132">
      <path
         d="M 9,3 H 5340 V 3930 H 9 Z"
         id="path132" />
    </clipPath>
    <clipPath
       clipPathUnits="userSpaceOnUse"
       id="clipPath134">
      <path
         d="M 9,3 H 5340 V 3930 H 9 Z"
         id="path134" />
    </clipPath>
    <clipPath
       clipPathUnits="userSpaceOnUse"
       id="clipPath136">
      <path
         d="M 9,3 H 5340 V 3930 H 9 Z"
         id="path136" />
    </clipPath>
    <clipPath
       clipPathUnits="userSpaceOnUse"
       id="clipPath138">
      <path
         d="M 9,3 H 5340 V 3930 H 9 Z"
         id="path138" />
    </clipPath>
    <clipPath
       clipPathUnits="userSpaceOnUse"
       id="clipPath140">
      <path
         d="M 9,3 H 5340 V 3930 H 9 Z"
         id="path140" />
    </clipPath>
    <clipPath
       clipPathUnits="userSpaceOnUse"
       id="clipPath142">
      <path
         d="M 9,3 H 5340 V 3930 H 9 Z"
         id="path142" />
    </clipPath>
    <clipPath
       clipPathUnits="userSpaceOnUse"
       id="clipPath144">
      <path
         d="M 9,3 H 5340 V 3930 H 9 Z"
         id="path144" />
    </clipPath>
    <clipPath
       clipPathUnits="userSpaceOnUse"
       id="clipPath146">
      <path
         d="M 9,3 H 5340 V 3930 H 9 Z"
         id="path146" />
    </clipPath>
    <clipPath
       clipPathUnits="userSpaceOnUse"
       id="clipPath148">
      <path
         d="M 9,3 H 5340 V 3930 H 9 Z"
         id="path148" />
    </clipPath>
    <clipPath
       clipPathUnits="userSpaceOnUse"
       id="clipPath150">
      <path
         d="M 9,3 H 5340 V 3930 H 9 Z"
         id="path150" />
    </clipPath>
    <clipPath
       clipPathUnits="userSpaceOnUse"
       id="clipPath152">
      <path
         d="M 9,3 H 5340 V 3930 H 9 Z"
         id="path152" />
    </clipPath>
    <clipPath
       clipPathUnits="userSpaceOnUse"
       id="clipPath154">
      <path
         d="M 9,3 H 5340 V 3930 H 9 Z"
         id="path154" />
    </clipPath>
    <clipPath
       clipPathUnits="userSpaceOnUse"
       id="clipPath156">
      <path
         d="M 9,3 H 5340 V 3930 H 9 Z"
         id="path156" />
    </clipPath>
    <clipPath
       clipPathUnits="userSpaceOnUse"
       id="clipPath158">
      <path
         d="M 9,3 H 5340 V 3930 H 9 Z"
         transform="matrix(0.1,0,0,-0.1,-263.083,3.0000001)"
         id="path158" />
    </clipPath>
    <clipPath
       clipPathUnits="userSpaceOnUse"
       id="clipPath160">
      <path
         d="M 9,3 H 5340 V 3930 H 9 Z"
         transform="matrix(0,0.1,0.1,0,-203.5,-12.0832)"
         id="path160" />
    </clipPath>
    <clipPath
       clipPathUnits="userSpaceOnUse"
       id="clipPath162">
      <path
         d="m 428.332,303.332 h 4465.84 v 3522.5 H 428.332 Z"
         id="path162" />
    </clipPath>
    <clipPath
       clipPathUnits="userSpaceOnUse"
       id="clipPath164">
      <path
         d="m 428.332,303.332 h 4465.84 v 3522.5 H 428.332 Z"
         id="path164" />
    </clipPath>
    <clipPath
       clipPathUnits="userSpaceOnUse"
       id="clipPath166">
      <path
         d="m 428.332,303.332 h 4465.84 v 3522.5 H 428.332 Z"
         id="path166" />
    </clipPath>
    <clipPath
       clipPathUnits="userSpaceOnUse"
       id="clipPath168">
      <path
         d="m 428.332,303.332 h 4465.84 v 3522.5 H 428.332 Z"
         id="path168" />
    </clipPath>
    <clipPath
       clipPathUnits="userSpaceOnUse"
       id="clipPath170">
      <path
         d="m 428.332,303.332 h 4465.84 v 3522.5 H 428.332 Z"
         id="path170" />
    </clipPath>
    <clipPath
       clipPathUnits="userSpaceOnUse"
       id="clipPath172">
      <path
         d="m 428.332,303.332 h 4465.84 v 3522.5 H 428.332 Z"
         id="path172" />
    </clipPath>
    <clipPath
       clipPathUnits="userSpaceOnUse"
       id="clipPath174">
      <path
         d="m 428.332,303.332 h 4465.84 v 3522.5 H 428.332 Z"
         id="path174" />
    </clipPath>
    <clipPath
       clipPathUnits="userSpaceOnUse"
       id="clipPath176">
      <path
         d="m 428.332,303.332 h 4465.84 v 3522.5 H 428.332 Z"
         id="path176" />
    </clipPath>
  </defs>
  <sodipodi:namedview
     id="namedview1"
     pagecolor="#ffffff"
     bordercolor="#000000"
     borderopacity="0.25"
     inkscape:showpageshadow="2"
     inkscape:pageopacity="0.0"
     inkscape:pagecheckerboard="0"
     inkscape:deskcolor="#d1d1d1">
    <inkscape:page
       x="0"
       y="0"
       inkscape:label="1"
       id="page1"
       width="712"
       height="524"
       margin="0"
       bleed="0" />
  </sodipodi:namedview>
  <g
     id="g1"
     inkscape:groupmode="layer"
     inkscape:label="1">
    <path
       id="path1"
       d="M -320,-172.5 H 5441.67 V 4150 H -320 Z"
       style="fill:#ffffff;fill-opacity:1;fill-rule:nonzero;stroke:none"
       transform="matrix(0.13333333,0,0,-0.13333333,0,524)"
       clip-path="url(#clipPath2)" />
    <path
       id="path3"
       d="M 428.332,304.168 H 4893.33"
       style="fill:none;stroke:#000000;stroke-width:5;stroke-linecap:butt;stroke-linejoin:miter;stroke-miterlimit:10;stroke-dasharray:none;stroke-opacity:1"
       transform="matrix(0.13333333,0,0,-0.13333333,0,524)"
       clip-path="url(#clipPath4)" />
    <path
       id="path5"
       d="M 428.332,304.168 V 3825.83"
       style="fill:none;stroke:#000000;stroke-width:5;stroke-linecap:butt;stroke-linejoin:miter;stroke-miterlimit:10;stroke-dasharray:none;stroke-opacity:1"
       transform="matrix(0.13333333,0,0,-0.13333333,0,524)"
       clip-path="url(#clipPath6)" />
    <path
       id="path7"
       d="m 428.332,304.168 v 0"
       style="fill:none;stroke:#000000;stroke-width:5;stroke-linecap:butt;stroke-linejoin:miter;stroke-miterlimit:10;stroke-dasharray:none;stroke-opacity:1"
       transform="matrix(0.13333333,0,0,-0.13333333,0,524)"
       clip-path="url(#clipPath8)" />
    <path
       id="path9"
       d="m 1075.83,304.168 v 45"
       style="fill:none;stroke:#000000;stroke-width:5;stroke-linecap:butt;stroke-linejoin:miter;stroke-miterlimit:10;stroke-dasharray:none;stroke-opacity:1"
       transform="matrix(0.13333333,0,0,-0.13333333,0,524)"
       clip-path="url(#clipPath10)" />
    <path
       id="path11"
       d="M 6.5265594,-3.1990266 H 0.47968438 v 0.8320313 H 6.5265594 Z m 3.7851566,-5.4726562 c -0.7968754,0 -1.5117191,0.3515625 -1.9570316,0.9492187 -0.5507813,0.7617188 -0.8320313,1.9101563 -0.8320313,3.5273438 0,2.9179687 0.9609375,4.47656249 2.7890629,4.47656249 1.792968,0 2.777343,-1.55859379 2.777343,-4.40624999 0,-1.6875 -0.257812,-2.8125 -0.820312,-3.5976563 -0.445313,-0.609375 -1.160156,-0.9492187 -1.957031,-0.9492187 z m 0,0.9375 c 1.136718,0 1.699218,1.1601562 1.699218,3.515625 0,2.4609375 -0.550781,3.62109374 -1.722656,3.62109374 -1.1249999,0 -1.6874999,-1.20703124 -1.6874999,-3.58593754 0,-2.390625 0.5625,-3.5507812 1.7109379,-3.5507812 z m 5.666015,6.4921875 H 14.723825 V 1.921875e-4 h 1.253906 z m 4.341797,-7.4296875 c -0.796875,0 -1.511719,0.3515625 -1.957031,0.9492187 -0.550781,0.7617188 -0.832031,1.9101563 -0.832031,3.5273438 0,2.9179687 0.960937,4.47656249 2.789062,4.47656249 1.792969,0 2.777344,-1.55859379 2.777344,-4.40624999 0,-1.6875 -0.257813,-2.8125 -0.820313,-3.5976563 -0.445312,-0.609375 -1.160156,-0.9492187 -1.957031,-0.9492187 z m 0,0.9375 c 1.136719,0 1.699219,1.1601562 1.699219,3.515625 0,2.4609375 -0.550781,3.62109374 -1.722656,3.62109374 -1.125,0 -1.6875,-1.20703124 -1.6875,-3.58593754 0,-2.390625 0.5625,-3.5507812 1.710937,-3.5507812 z m 9.439453,6.6914062 h -4.476562 c 0.105469,-0.7265625 0.492187,-1.171875 1.535156,-1.8164062 l 1.207031,-0.6679688 c 1.183594,-0.65625 1.792969,-1.546875 1.792969,-2.6132812 0,-0.7265625 -0.28125,-1.3945313 -0.785156,-1.8632813 -0.503906,-0.4570312 -1.136719,-0.6679687 -1.933594,-0.6679687 -1.078125,0 -1.886719,0.375 -2.355469,1.125 -0.292968,0.4570312 -0.433593,0.9960937 -0.457031,1.875 h 1.054688 c 0.03516,-0.5976563 0.117187,-0.9375 0.257812,-1.2304688 0.269531,-0.5273437 0.820313,-0.8554687 1.464844,-0.8554687 0.960937,0 1.675781,0.703125 1.675781,1.640625 0,0.6914062 -0.398437,1.2890625 -1.148437,1.7226562 l -1.101563,0.65625 c -1.78125,1.0195313 -2.296875,1.828125 -2.390625,3.72656254 h 5.660156 z m 0,0"
       style="fill:#000000;fill-opacity:1;fill-rule:nonzero;stroke:none"
       aria-label="−0.02"
       transform="matrix(1.3333333,0,0,1.3333333,118.55573,502.2224)"
       clip-path="url(#clipPath12)" />
    <path
       id="path13"
       d="m 1780.83,304.168 v 45"
       style="fill:none;stroke:#000000;stroke-width:5;stroke-linecap:butt;stroke-linejoin:miter;stroke-miterlimit:10;stroke-dasharray:none;stroke-opacity:1"
       transform="matrix(0.13333333,0,0,-0.13333333,0,524)"
       clip-path="url(#clipPath14)" />
    <path
       id="path15"
       d="m 3.3046875,-8.6716828 c -0.796875,0 -1.5117188,0.3515625 -1.9570313,0.9492187 -0.5507812,0.7617188 -0.8320312,1.9101563 -0.8320312,3.5273438 0,2.9179687 0.9609375,4.47656249 2.7890625,4.47656249 1.7929687,0 2.7773437,-1.55859379 2.7773437,-4.40624999 0,-1.6875 -0.2578125,-2.8125 -0.8203125,-3.5976563 -0.4453125,-0.609375 -1.1601562,-0.9492187 -1.9570312,-0.9492187 z m 0,0.9375 c 1.1367187,0 1.6992187,1.1601562 1.6992187,3.515625 0,2.4609375 -0.5507812,3.62109374 -1.7226562,3.62109374 -1.125,0 -1.6875,-1.20703124 -1.6875,-3.58593754 0,-2.390625 0.5625,-3.5507812 1.7109375,-3.5507812 z m 0,0"
       style="fill:#000000;fill-opacity:1;fill-rule:nonzero;stroke:none"
       aria-label="0"
       transform="matrix(1.3333333,0,0,1.3333333,233,502.2224)"
       clip-path="url(#clipPath16)" />
    <path
       id="path17"
       d="m 2485,304.168 v 45"
       style="fill:none;stroke:#000000;stroke-width:5;stroke-linecap:butt;stroke-linejoin:miter;stroke-miterlimit:10;stroke-dasharray:none;stroke-opacity:1"
       transform="matrix(0.13333333,0,0,-0.13333333,0,524)"
       clip-path="url(#clipPath18)" />
    <path
       id="path19"
       d="m 3.3046953,-8.6716828 c -0.796875,0 -1.5117187,0.3515625 -1.9570312,0.9492187 -0.55078129,0.7617188 -0.83203129,1.9101563 -0.83203129,3.5273438 0,2.9179687 0.96093749,4.47656249 2.78906249,4.47656249 1.7929688,0 2.7773438,-1.55859379 2.7773438,-4.40624999 0,-1.6875 -0.2578125,-2.8125 -0.8203125,-3.5976563 -0.4453125,-0.609375 -1.1601563,-0.9492187 -1.9570313,-0.9492187 z m 0,0.9375 c 1.1367188,0 1.6992188,1.1601562 1.6992188,3.515625 0,2.4609375 -0.5507813,3.62109374 -1.7226563,3.62109374 -1.125,0 -1.6875,-1.20703124 -1.6875,-3.58593754 0,-2.390625 0.5625,-3.5507812 1.7109375,-3.5507812 z m 5.663086,6.4921875 H 7.713875 V 1.921875e-4 h 1.2539063 z m 4.3447267,-7.4296875 c -0.796875,0 -1.511719,0.3515625 -1.957031,0.9492187 -0.550782,0.7617188 -0.832032,1.9101563 -0.832032,3.5273438 0,2.9179687 0.960938,4.47656249 2.789063,4.47656249 1.792969,0 2.777344,-1.55859379 2.777344,-4.40624999 0,-1.6875 -0.257813,-2.8125 -0.820313,-3.5976563 -0.445312,-0.609375 -1.160156,-0.9492187 -1.957031,-0.9492187 z m 0,0.9375 c 1.136719,0 1.699219,1.1601562 1.699219,3.515625 0,2.4609375 -0.550782,3.62109374 -1.722657,3.62109374 -1.125,0 -1.6875,-1.20703124 -1.6875,-3.58593754 0,-2.390625 0.5625,-3.5507812 1.710938,-3.5507812 z m 9.436523,6.6914062 h -4.476562 c 0.105469,-0.7265625 0.492187,-1.171875 1.535156,-1.8164062 l 1.207031,-0.6679688 c 1.183594,-0.65625 1.792969,-1.546875 1.792969,-2.6132812 0,-0.7265625 -0.28125,-1.3945313 -0.785156,-1.8632813 -0.503906,-0.4570312 -1.136719,-0.6679687 -1.933594,-0.6679687 -1.078125,0 -1.886719,0.375 -2.355469,1.125 -0.292968,0.4570312 -0.433593,0.9960937 -0.457031,1.875 h 1.054688 c 0.03516,-0.5976563 0.117187,-0.9375 0.257812,-1.2304688 0.269531,-0.5273437 0.820313,-0.8554687 1.464844,-0.8554687 0.960937,0 1.675781,0.703125 1.675781,1.640625 0,0.6914062 -0.398437,1.2890625 -1.148437,1.7226562 l -1.101563,0.65625 c -1.78125,1.0195313 -2.296875,1.828125 -2.390625,3.72656254 h 5.660156 z m 0,0"
       style="fill:#000000;fill-opacity:1;fill-rule:nonzero;stroke:none"
       aria-label="0.02"
       transform="matrix(1.3333333,0,0,1.3333333,315.77733,502.2224)"
       clip-path="url(#clipPath20)" />
    <path
       id="path21"
       d="m 3189.17,304.168 v 45"
       style="fill:none;stroke:#000000;stroke-width:5;stroke-linecap:butt;stroke-linejoin:miter;stroke-miterlimit:10;stroke-dasharray:none;stroke-opacity:1"
       transform="matrix(0.13333333,0,0,-0.13333333,0,524)"
       clip-path="url(#clipPath22)" />
    <path
       id="path23"
       d="m 3.3056641,-8.6716828 c -0.796875,0 -1.5117188,0.3515625 -1.9570313,0.9492187 -0.55078124,0.7617188 -0.83203124,1.9101563 -0.83203124,3.5273438 0,2.9179687 0.96093754,4.47656249 2.78906254,4.47656249 1.7929687,0 2.7773437,-1.55859379 2.7773437,-4.40624999 0,-1.6875 -0.2578125,-2.8125 -0.8203125,-3.5976563 -0.4453125,-0.609375 -1.1601562,-0.9492187 -1.9570312,-0.9492187 z m 0,0.9375 c 1.1367187,0 1.6992187,1.1601562 1.6992187,3.515625 0,2.4609375 -0.5507812,3.62109374 -1.7226562,3.62109374 -1.125,0 -1.6875,-1.20703124 -1.6875,-3.58593754 0,-2.390625 0.5625,-3.5507812 1.7109375,-3.5507812 z M 8.96875,-1.2419953 H 7.7148437 V 1.921875e-4 H 8.96875 Z m 4.344727,-7.4296875 c -0.796875,0 -1.511719,0.3515625 -1.957032,0.9492187 -0.550781,0.7617188 -0.832031,1.9101563 -0.832031,3.5273438 0,2.9179687 0.960938,4.47656249 2.789063,4.47656249 1.792968,0 2.777343,-1.55859379 2.777343,-4.40624999 0,-1.6875 -0.257812,-2.8125 -0.820312,-3.5976563 -0.445313,-0.609375 -1.160156,-0.9492187 -1.957031,-0.9492187 z m 0,0.9375 c 1.136718,0 1.699218,1.1601562 1.699218,3.515625 0,2.4609375 -0.550781,3.62109374 -1.722656,3.62109374 -1.125,0 -1.6875,-1.20703124 -1.6875,-3.58593754 0,-2.390625 0.5625,-3.5507812 1.710938,-3.5507812 z m 7.291992,5.6367187 V 1.921875e-4 h 1.054687 V -2.0974641 h 1.253906 v -0.9492187 h -1.253906 v -5.625 H 20.875 l -3.855469,5.4609375 v 1.1132812 z m 0,-0.9492187 h -2.660157 l 2.660157,-3.8320313 z m 0,0"
       style="fill:#000000;fill-opacity:1;fill-rule:nonzero;stroke:none"
       aria-label="0.04"
       transform="matrix(1.3333333,0,0,1.3333333,409.66667,502.2224)"
       clip-path="url(#clipPath24)" />
    <path
       id="path25"
       d="m 3893.33,304.168 v 45"
       style="fill:none;stroke:#000000;stroke-width:5;stroke-linecap:butt;stroke-linejoin:miter;stroke-miterlimit:10;stroke-dasharray:none;stroke-opacity:1"
       transform="matrix(0.13333333,0,0,-0.13333333,0,524)"
       clip-path="url(#clipPath26)" />
    <path
       id="path27"
       d="m 3.3037031,-8.6716828 c -0.796875,0 -1.5117187,0.3515625 -1.9570312,0.9492187 -0.55078128,0.7617188 -0.83203128,1.9101563 -0.83203128,3.5273438 0,2.9179687 0.96093748,4.47656249 2.78906248,4.47656249 1.7929688,0 2.7773438,-1.55859379 2.7773438,-4.40624999 0,-1.6875 -0.2578125,-2.8125 -0.8203125,-3.5976563 -0.4453125,-0.609375 -1.1601563,-0.9492187 -1.9570313,-0.9492187 z m 0,0.9375 c 1.1367188,0 1.6992188,1.1601562 1.6992188,3.515625 0,2.4609375 -0.5507813,3.62109374 -1.7226563,3.62109374 -1.125,0 -1.6875,-1.20703124 -1.6875,-3.58593754 0,-2.390625 0.5625,-3.5507812 1.7109375,-3.5507812 z m 5.6660156,6.4921875 H 7.7158125 V 1.921875e-4 h 1.2539062 z m 4.3417973,-7.4296875 c -0.796875,0 -1.511719,0.3515625 -1.957032,0.9492187 -0.550781,0.7617188 -0.832031,1.9101563 -0.832031,3.5273438 0,2.9179687 0.960938,4.47656249 2.789063,4.47656249 1.792968,0 2.777343,-1.55859379 2.777343,-4.40624999 0,-1.6875 -0.257812,-2.8125 -0.820312,-3.5976563 -0.445313,-0.609375 -1.160156,-0.9492187 -1.957031,-0.9492187 z m 0,0.9375 c 1.136718,0 1.699218,1.1601562 1.699218,3.515625 0,2.4609375 -0.550781,3.62109374 -1.722656,3.62109374 -1.125,0 -1.6875,-1.20703124 -1.6875,-3.58593754 0,-2.390625 0.5625,-3.5507812 1.710938,-3.5507812 z m 9.345703,1.3125 c -0.199219,-1.4179688 -1.113282,-2.25 -2.414063,-2.25 -0.9375,0 -1.769531,0.4570312 -2.273437,1.2304687 -0.550782,0.8554688 -0.773438,1.9101563 -0.773438,3.4804688 0,1.4648437 0.199219,2.390625 0.714844,3.15234374 0.457031,0.71484375 1.207031,1.08984375 2.144531,1.08984375 1.617188,0 2.777344,-1.21875 2.777344,-2.90624999 0,-1.59375 -1.078125,-2.7304688 -2.601563,-2.7304688 -0.84375,0 -1.5,0.3164063 -1.957031,0.9492188 0.01172,-2.1445313 0.691406,-3.328125 1.898438,-3.328125 0.738281,0 1.265625,0.46875 1.429687,1.3125 z m -2.554688,2.0039062 c 1.019531,0 1.652344,0.7265625 1.652344,1.875 0,1.0898438 -0.714844,1.88671879 -1.6875,1.88671879 -0.984375,0 -1.734375,-0.83203129 -1.734375,-1.93359379 0,-1.078125 0.726562,-1.828125 1.769531,-1.828125 z m 0,0"
       style="fill:#000000;fill-opacity:1;fill-rule:nonzero;stroke:none"
       aria-label="0.06"
       transform="matrix(1.3333333,0,0,1.3333333,503.556,502.2224)"
       clip-path="url(#clipPath28)" />
    <path
       id="path29"
       d="m 4597.5,304.168 v 45"
       style="fill:none;stroke:#000000;stroke-width:5;stroke-linecap:butt;stroke-linejoin:miter;stroke-miterlimit:10;stroke-dasharray:none;stroke-opacity:1"
       transform="matrix(0.13333333,0,0,-0.13333333,0,524)"
       clip-path="url(#clipPath30)" />
    <path
       id="path31"
       d="m 3.3056719,-8.6716828 c -0.796875,0 -1.5117188,0.3515625 -1.9570313,0.9492187 -0.55078122,0.7617188 -0.83203122,1.9101563 -0.83203122,3.5273438 0,2.9179687 0.96093752,4.47656249 2.78906252,4.47656249 1.7929687,0 2.7773437,-1.55859379 2.7773437,-4.40624999 0,-1.6875 -0.2578125,-2.8125 -0.8203125,-3.5976563 -0.4453125,-0.609375 -1.1601562,-0.9492187 -1.9570312,-0.9492187 z m 0,0.9375 c 1.1367187,0 1.6992187,1.1601562 1.6992187,3.515625 0,2.4609375 -0.5507812,3.62109374 -1.7226562,3.62109374 -1.125,0 -1.6875,-1.20703124 -1.6875,-3.58593754 0,-2.390625 0.5625,-3.5507812 1.7109375,-3.5507812 z m 5.6630859,6.4921875 H 7.7148516 V 1.921875e-4 h 1.2539062 z m 4.3447262,-7.4296875 c -0.796875,0 -1.511718,0.3515625 -1.957031,0.9492187 -0.550781,0.7617188 -0.832031,1.9101563 -0.832031,3.5273438 0,2.9179687 0.960937,4.47656249 2.789062,4.47656249 1.792969,0 2.777344,-1.55859379 2.777344,-4.40624999 0,-1.6875 -0.257812,-2.8125 -0.820312,-3.5976563 -0.445313,-0.609375 -1.160157,-0.9492187 -1.957032,-0.9492187 z m 0,0.9375 c 1.136719,0 1.699219,1.1601562 1.699219,3.515625 0,2.4609375 -0.550781,3.62109374 -1.722656,3.62109374 -1.125,0 -1.6875,-1.20703124 -1.6875,-3.58593754 0,-2.390625 0.5625,-3.5507812 1.710937,-3.5507812 z m 8.053711,3.1640625 c 0.890625,-0.5390625 1.171875,-0.9726563 1.171875,-1.7929688 0,-1.359375 -1.042968,-2.3085937 -2.554687,-2.3085937 -1.5,0 -2.566406,0.9492187 -2.566406,2.296875 0,0.8320312 0.28125,1.2539062 1.160156,1.8046875 -0.972656,0.4921875 -1.453125,1.1953125 -1.453125,2.15625 0,1.58203124 1.160156,2.69531249 2.859375,2.69531249 1.675781,0 2.847656,-1.11328125 2.847656,-2.69531249 0,-0.9609375 -0.480469,-1.6640625 -1.464844,-2.15625 z m -1.382812,-3.1640625 c 0.890625,0 1.476562,0.5390625 1.476562,1.3945312 0,0.8203125 -0.597656,1.359375 -1.476562,1.359375 -0.902344,0 -1.476563,-0.5390625 -1.476563,-1.3828125 0,-0.8320312 0.574219,-1.3710937 1.476563,-1.3710937 z m 0,3.6445312 c 1.054687,0 1.769531,0.6914063 1.769531,1.6992188 0,1.0429687 -0.703125,1.73437499 -1.792969,1.73437499 -1.042968,0 -1.757812,-0.71484379 -1.757812,-1.72265629 0,-1.03125 0.703125,-1.7109375 1.78125,-1.7109375 z m 0,0"
       style="fill:#000000;fill-opacity:1;fill-rule:nonzero;stroke:none"
       aria-label="0.08"
       transform="matrix(1.3333333,0,0,1.3333333,597.444,502.2224)"
       clip-path="url(#clipPath32)" />
    <path
       id="path33"
       d="m 428.332,304.168 h 45"
       style="fill:none;stroke:#000000;stroke-width:5;stroke-linecap:butt;stroke-linejoin:miter;stroke-miterlimit:10;stroke-dasharray:none;stroke-opacity:1"
       transform="matrix(0.13333333,0,0,-0.13333333,0,524)"
       clip-path="url(#clipPath34)" />
    <path
       id="path35"
       d="m 3.3037109,-8.6728516 c -0.796875,0 -1.5117187,0.3515625 -1.9570312,0.9492188 -0.55078126,0.7617187 -0.83203126,1.9101562 -0.83203126,3.5273437 0,2.9179688 0.96093746,4.47656254 2.78906246,4.47656254 1.7929688,0 2.7773438,-1.55859374 2.7773438,-4.40625004 0,-1.6875 -0.2578125,-2.8125 -0.8203125,-3.5976562 -0.4453125,-0.609375 -1.1601563,-0.9492188 -1.9570313,-0.9492188 z m 0,0.9375 c 1.1367188,0 1.6992188,1.1601563 1.6992188,3.515625 0,2.4609375 -0.5507813,3.62109379 -1.7226563,3.62109379 -1.125,0 -1.6875,-1.20703129 -1.6875,-3.58593749 0,-2.390625 0.5625,-3.5507813 1.7109375,-3.5507813 z m 0,0"
       style="fill:#000000;fill-opacity:1;fill-rule:nonzero;stroke:none"
       aria-label="0"
       transform="matrix(1.3333333,0,0,1.3333333,44.333333,489.33333)"
       clip-path="url(#clipPath36)" />
    <path
       id="path37"
       d="m 428.332,656.668 h 45"
       style="fill:none;stroke:#000000;stroke-width:5;stroke-linecap:butt;stroke-linejoin:miter;stroke-miterlimit:10;stroke-dasharray:none;stroke-opacity:1"
       transform="matrix(0.13333333,0,0,-0.13333333,0,524)"
       clip-path="url(#clipPath38)" />
    <path
       id="path39"
       d="m 3.3035188,-8.6728516 c -0.796875,0 -1.5117188,0.3515625 -1.9570313,0.9492188 -0.55078125,0.7617187 -0.83203125,1.9101562 -0.83203125,3.5273437 0,2.9179688 0.96093755,4.47656254 2.78906255,4.47656254 1.7929687,0 2.7773437,-1.55859374 2.7773437,-4.40625004 0,-1.6875 -0.2578125,-2.8125 -0.8203125,-3.5976562 -0.4453125,-0.609375 -1.1601562,-0.9492188 -1.9570312,-0.9492188 z m 0,0.9375 c 1.1367187,0 1.6992187,1.1601563 1.6992187,3.515625 0,2.4609375 -0.5507812,3.62109379 -1.7226562,3.62109379 -1.125,0 -1.6875,-1.20703129 -1.6875,-3.58593749 0,-2.390625 0.5625,-3.5507813 1.7109375,-3.5507813 z m 5.6660156,6.4921875 H 7.7156281 v 1.2421875375 h 1.2539063 z m 4.3417966,-7.4296875 c -0.796875,0 -1.511718,0.3515625 -1.957031,0.9492188 -0.550781,0.7617187 -0.832031,1.9101562 -0.832031,3.5273437 0,2.9179688 0.960937,4.47656254 2.789062,4.47656254 1.792969,0 2.777344,-1.55859374 2.777344,-4.40625004 0,-1.6875 -0.257812,-2.8125 -0.820312,-3.5976562 -0.445313,-0.609375 -1.160157,-0.9492188 -1.957032,-0.9492188 z m 0,0.9375 c 1.136719,0 1.699219,1.1601563 1.699219,3.515625 0,2.4609375 -0.550781,3.62109379 -1.722656,3.62109379 -1.125,0 -1.6875,-1.20703129 -1.6875,-3.58593749 0,-2.390625 0.5625,-3.5507813 1.710937,-3.5507813 z m 6.47461,1.5585938 v 6.1757812375 h 1.054687 V -8.6728516 h -0.691406 c -0.375,1.3242188 -0.609375,1.5117188 -2.25,1.7226563 v 0.7734375 z m 0,0"
       style="fill:#000000;fill-opacity:1;fill-rule:nonzero;stroke:none"
       aria-label="0.01"
       transform="matrix(1.3333333,0,0,1.3333333,22.110933,442.33333)"
       clip-path="url(#clipPath40)" />
    <path
       id="path41"
       d="m 428.332,1008.33 h 45"
       style="fill:none;stroke:#000000;stroke-width:5;stroke-linecap:butt;stroke-linejoin:miter;stroke-miterlimit:10;stroke-dasharray:none;stroke-opacity:1"
       transform="matrix(0.13333333,0,0,-0.13333333,0,524)"
       clip-path="url(#clipPath42)" />
    <path
       id="path43"
       d="m 3.3035188,-8.6710906 c -0.796875,0 -1.5117188,0.3515625 -1.9570313,0.9492187 -0.55078125,0.7617188 -0.83203125,1.9101563 -0.83203125,3.5273438 0,2.9179687 0.96093755,4.47656248 2.78906255,4.47656248 1.7929687,0 2.7773437,-1.55859378 2.7773437,-4.40624998 0,-1.6875 -0.2578125,-2.8125 -0.8203125,-3.5976563 -0.4453125,-0.609375 -1.1601562,-0.9492187 -1.9570312,-0.9492187 z m 0,0.9375 c 1.1367187,0 1.6992187,1.1601562 1.6992187,3.515625 0,2.4609375 -0.5507812,3.62109373 -1.7226562,3.62109373 -1.125,0 -1.6875,-1.20703123 -1.6875,-3.58593753 0,-2.390625 0.5625,-3.5507812 1.7109375,-3.5507812 z m 5.6660156,6.4921875 H 7.7156281 V 7.84375e-4 h 1.2539063 z m 4.3417966,-7.4296875 c -0.796875,0 -1.511718,0.3515625 -1.957031,0.9492187 -0.550781,0.7617188 -0.832031,1.9101563 -0.832031,3.5273438 0,2.9179687 0.960937,4.47656248 2.789062,4.47656248 1.792969,0 2.777344,-1.55859378 2.777344,-4.40624998 0,-1.6875 -0.257812,-2.8125 -0.820312,-3.5976563 -0.445313,-0.609375 -1.160157,-0.9492187 -1.957032,-0.9492187 z m 0,0.9375 c 1.136719,0 1.699219,1.1601562 1.699219,3.515625 0,2.4609375 -0.550781,3.62109373 -1.722656,3.62109373 -1.125,0 -1.6875,-1.20703123 -1.6875,-3.58593753 0,-2.390625 0.5625,-3.5507812 1.710937,-3.5507812 z m 9.439453,6.6914062 h -4.476562 c 0.105469,-0.7265625 0.492187,-1.171875 1.535156,-1.8164062 l 1.207031,-0.6679688 c 1.183594,-0.65625 1.792969,-1.546875 1.792969,-2.6132812 0,-0.7265625 -0.28125,-1.3945313 -0.785156,-1.8632813 -0.503906,-0.4570312 -1.136719,-0.6679687 -1.933594,-0.6679687 -1.078125,0 -1.886719,0.375 -2.355469,1.125 -0.292968,0.4570312 -0.433593,0.9960937 -0.457031,1.875 h 1.054688 c 0.03516,-0.5976563 0.117187,-0.9375 0.257812,-1.2304688 0.269531,-0.5273437 0.820313,-0.8554687 1.464844,-0.8554687 0.960937,0 1.675781,0.703125 1.675781,1.640625 0,0.6914062 -0.398437,1.2890625 -1.148437,1.7226562 l -1.101563,0.65625 c -1.78125,1.0195313 -2.296875,1.828125 -2.390625,3.72656253 h 5.660156 z m 0,0"
       style="fill:#000000;fill-opacity:1;fill-rule:nonzero;stroke:none"
       aria-label="0.02"
       transform="matrix(1.3333333,0,0,1.3333333,22.110933,395.44427)"
       clip-path="url(#clipPath44)" />
    <path
       id="path45"
       d="m 428.332,1360.83 h 45"
       style="fill:none;stroke:#000000;stroke-width:5;stroke-linecap:butt;stroke-linejoin:miter;stroke-miterlimit:10;stroke-dasharray:none;stroke-opacity:1"
       transform="matrix(0.13333333,0,0,-0.13333333,0,524)"
       clip-path="url(#clipPath46)" />
    <path
       id="path47"
       d="m 3.3035188,-8.6708906 c -0.796875,0 -1.5117188,0.3515625 -1.9570313,0.9492187 -0.55078125,0.7617188 -0.83203125,1.9101563 -0.83203125,3.5273438 0,2.9179687 0.96093755,4.47656247 2.78906255,4.47656247 1.7929687,0 2.7773437,-1.55859377 2.7773437,-4.40624997 0,-1.6875 -0.2578125,-2.8125 -0.8203125,-3.5976563 -0.4453125,-0.609375 -1.1601562,-0.9492187 -1.9570312,-0.9492187 z m 0,0.9375 c 1.1367187,0 1.6992187,1.1601562 1.6992187,3.515625 0,2.4609375 -0.5507812,3.62109372 -1.7226562,3.62109372 -1.125,0 -1.6875,-1.20703122 -1.6875,-3.58593752 0,-2.390625 0.5625,-3.5507812 1.7109375,-3.5507812 z m 5.6660156,6.4921875 H 7.7156281 V 9.84375e-4 h 1.2539063 z m 4.3417966,-7.4296875 c -0.796875,0 -1.511718,0.3515625 -1.957031,0.9492187 -0.550781,0.7617188 -0.832031,1.9101563 -0.832031,3.5273438 0,2.9179687 0.960937,4.47656247 2.789062,4.47656247 1.792969,0 2.777344,-1.55859377 2.777344,-4.40624997 0,-1.6875 -0.257812,-2.8125 -0.820312,-3.5976563 -0.445313,-0.609375 -1.160157,-0.9492187 -1.957032,-0.9492187 z m 0,0.9375 c 1.136719,0 1.699219,1.1601562 1.699219,3.515625 0,2.4609375 -0.550781,3.62109372 -1.722656,3.62109372 -1.125,0 -1.6875,-1.20703122 -1.6875,-3.58593752 0,-2.390625 0.5625,-3.5507812 1.710937,-3.5507812 z m 6.017578,3.7382812 h 0.574219 c 1.160156,0 1.769531,0.5390625 1.769531,1.5820313 0,1.0898437 -0.65625,1.75781247 -1.757812,1.75781247 -1.160156,0 -1.722656,-0.58593747 -1.792969,-1.86328127 h -1.054687 c 0.04687,0.6914063 0.164062,1.1484375 0.375,1.53515627 0.433593,0.84375 1.265625,1.265625 2.425781,1.265625 1.757812,0 2.882812,-1.06640625 2.882812,-2.70703127 0,-1.1015625 -0.421875,-1.6992187 -1.441406,-2.0625 0.796875,-0.328125 1.195313,-0.9257812 1.195313,-1.8046875 0,-1.4882812 -0.972657,-2.3789062 -2.601563,-2.3789062 -1.710937,0 -2.625,0.9609375 -2.660156,2.7890625 h 1.054687 c 0.01172,-0.5273438 0.05859,-0.8203125 0.199219,-1.0898438 0.234375,-0.4921875 0.761719,-0.7851562 1.417969,-0.7851562 0.9375,0 1.5,0.5742187 1.5,1.5 0,0.6210937 -0.210938,0.984375 -0.679688,1.1953125 -0.28125,0.1171875 -0.667968,0.1640625 -1.40625,0.1757812 z m 0,0"
       style="fill:#000000;fill-opacity:1;fill-rule:nonzero;stroke:none"
       aria-label="0.03"
       transform="matrix(1.3333333,0,0,1.3333333,22.110933,348.444)"
       clip-path="url(#clipPath48)" />
    <path
       id="path49"
       d="m 428.332,1712.5 h 45"
       style="fill:none;stroke:#000000;stroke-width:5;stroke-linecap:butt;stroke-linejoin:miter;stroke-miterlimit:10;stroke-dasharray:none;stroke-opacity:1"
       transform="matrix(0.13333333,0,0,-0.13333333,0,524)"
       clip-path="url(#clipPath50)" />
    <path
       id="path51"
       d="m 3.3035188,-8.6728594 c -0.796875,0 -1.5117188,0.3515625 -1.9570313,0.9492188 -0.55078125,0.7617187 -0.83203125,1.9101562 -0.83203125,3.5273437 0,2.9179688 0.96093755,4.47656252 2.78906255,4.47656252 1.7929687,0 2.7773437,-1.55859372 2.7773437,-4.40625002 0,-1.6875 -0.2578125,-2.8125 -0.8203125,-3.5976562 -0.4453125,-0.609375 -1.1601562,-0.9492188 -1.9570312,-0.9492188 z m 0,0.9375 c 1.1367187,0 1.6992187,1.1601563 1.6992187,3.515625 0,2.4609375 -0.5507812,3.62109377 -1.7226562,3.62109377 -1.125,0 -1.6875,-1.20703127 -1.6875,-3.58593747 0,-2.390625 0.5625,-3.5507813 1.7109375,-3.5507813 z m 5.6660156,6.4921875 H 7.7156281 v 1.242187525 h 1.2539063 z m 4.3417966,-7.4296875 c -0.796875,0 -1.511718,0.3515625 -1.957031,0.9492188 -0.550781,0.7617187 -0.832031,1.9101562 -0.832031,3.5273437 0,2.9179688 0.960937,4.47656252 2.789062,4.47656252 1.792969,0 2.777344,-1.55859372 2.777344,-4.40625002 0,-1.6875 -0.257812,-2.8125 -0.820312,-3.5976562 -0.445313,-0.609375 -1.160157,-0.9492188 -1.957032,-0.9492188 z m 0,0.9375 c 1.136719,0 1.699219,1.1601563 1.699219,3.515625 0,2.4609375 -0.550781,3.62109377 -1.722656,3.62109377 -1.125,0 -1.6875,-1.20703127 -1.6875,-3.58593747 0,-2.390625 0.5625,-3.5507813 1.710937,-3.5507813 z m 7.294922,5.6367188 v 2.097656225 h 1.054688 V -2.0986406 h 1.253906 v -0.9492188 h -1.253906 v -5.625 h -0.785157 l -3.855468,5.4609375 v 1.1132813 z m 0,-0.9492188 h -2.660156 l 2.660156,-3.8320312 z m 0,0"
       style="fill:#000000;fill-opacity:1;fill-rule:nonzero;stroke:none"
       aria-label="0.04"
       transform="matrix(1.3333333,0,0,1.3333333,22.110933,301.556)"
       clip-path="url(#clipPath52)" />
    <path
       id="path53"
       d="m 428.332,2065 h 45"
       style="fill:none;stroke:#000000;stroke-width:5;stroke-linecap:butt;stroke-linejoin:miter;stroke-miterlimit:10;stroke-dasharray:none;stroke-opacity:1"
       transform="matrix(0.13333333,0,0,-0.13333333,0,524)"
       clip-path="url(#clipPath54)" />
    <path
       id="path55"
       d="m 3.3035188,-8.6728594 c -0.796875,0 -1.5117188,0.3515625 -1.9570313,0.9492188 -0.55078125,0.7617187 -0.83203125,1.9101562 -0.83203125,3.5273437 0,2.9179688 0.96093755,4.47656252 2.78906255,4.47656252 1.7929687,0 2.7773437,-1.55859372 2.7773437,-4.40625002 0,-1.6875 -0.2578125,-2.8125 -0.8203125,-3.5976562 -0.4453125,-0.609375 -1.1601562,-0.9492188 -1.9570312,-0.9492188 z m 0,0.9375 c 1.1367187,0 1.6992187,1.1601563 1.6992187,3.515625 0,2.4609375 -0.5507812,3.62109377 -1.7226562,3.62109377 -1.125,0 -1.6875,-1.20703127 -1.6875,-3.58593747 0,-2.390625 0.5625,-3.5507813 1.7109375,-3.5507813 z m 5.6660156,6.4921875 H 7.7156281 v 1.242187525 h 1.2539063 z m 4.3417966,-7.4296875 c -0.796875,0 -1.511718,0.3515625 -1.957031,0.9492188 -0.550781,0.7617187 -0.832031,1.9101562 -0.832031,3.5273437 0,2.9179688 0.960937,4.47656252 2.789062,4.47656252 1.792969,0 2.777344,-1.55859372 2.777344,-4.40625002 0,-1.6875 -0.257812,-2.8125 -0.820312,-3.5976562 -0.445313,-0.609375 -1.160157,-0.9492188 -1.957032,-0.9492188 z m 0,0.9375 c 1.136719,0 1.699219,1.1601563 1.699219,3.515625 0,2.4609375 -0.550781,3.62109377 -1.722656,3.62109377 -1.125,0 -1.6875,-1.20703127 -1.6875,-3.58593747 0,-2.390625 0.5625,-3.5507813 1.710937,-3.5507813 z m 9.076172,-0.7734375 h -4.382812 l -0.644532,4.6289063 h 0.972657 c 0.492187,-0.5859375 0.902343,-0.7851563 1.570312,-0.7851563 1.148438,0 1.851563,0.7734375 1.851563,2.0390625 0,1.21875 -0.703125,1.96875002 -1.863282,1.96875002 -0.914062,0 -1.488281,-0.46875002 -1.734375,-1.42968752 h -1.054687 c 0.140625,0.6914063 0.257812,1.03125 0.515625,1.34765627 0.480469,0.64453125 1.347656,1.01953125 2.296875,1.01953125 1.722656,0 2.917969,-1.25390625 2.917969,-3.05859372 0,-1.6757813 -1.113282,-2.8242188 -2.742188,-2.8242188 -0.597656,0 -1.078125,0.1523438 -1.570312,0.515625 l 0.328125,-2.3789062 h 3.539062 z m 0,0"
       style="fill:#000000;fill-opacity:1;fill-rule:nonzero;stroke:none"
       aria-label="0.05"
       transform="matrix(1.3333333,0,0,1.3333333,22.110933,254.556)"
       clip-path="url(#clipPath56)" />
    <path
       id="path57"
       d="m 428.332,2417.5 h 45"
       style="fill:none;stroke:#000000;stroke-width:5;stroke-linecap:butt;stroke-linejoin:miter;stroke-miterlimit:10;stroke-dasharray:none;stroke-opacity:1"
       transform="matrix(0.13333333,0,0,-0.13333333,0,524)"
       clip-path="url(#clipPath58)" />
    <path
       id="path59"
       d="m 3.3035188,-8.6728594 c -0.796875,0 -1.5117188,0.3515625 -1.9570313,0.9492188 -0.55078125,0.7617187 -0.83203125,1.9101562 -0.83203125,3.5273437 0,2.9179688 0.96093755,4.47656252 2.78906255,4.47656252 1.7929687,0 2.7773437,-1.55859372 2.7773437,-4.40625002 0,-1.6875 -0.2578125,-2.8125 -0.8203125,-3.5976562 -0.4453125,-0.609375 -1.1601562,-0.9492188 -1.9570312,-0.9492188 z m 0,0.9375 c 1.1367187,0 1.6992187,1.1601563 1.6992187,3.515625 0,2.4609375 -0.5507812,3.62109377 -1.7226562,3.62109377 -1.125,0 -1.6875,-1.20703127 -1.6875,-3.58593747 0,-2.390625 0.5625,-3.5507813 1.7109375,-3.5507813 z m 5.6660156,6.4921875 H 7.7156281 v 1.242187525 h 1.2539063 z m 4.3417966,-7.4296875 c -0.796875,0 -1.511718,0.3515625 -1.957031,0.9492188 -0.550781,0.7617187 -0.832031,1.9101562 -0.832031,3.5273437 0,2.9179688 0.960937,4.47656252 2.789062,4.47656252 1.792969,0 2.777344,-1.55859372 2.777344,-4.40625002 0,-1.6875 -0.257812,-2.8125 -0.820312,-3.5976562 -0.445313,-0.609375 -1.160157,-0.9492188 -1.957032,-0.9492188 z m 0,0.9375 c 1.136719,0 1.699219,1.1601563 1.699219,3.515625 0,2.4609375 -0.550781,3.62109377 -1.722656,3.62109377 -1.125,0 -1.6875,-1.20703127 -1.6875,-3.58593747 0,-2.390625 0.5625,-3.5507813 1.710937,-3.5507813 z m 9.345703,1.3125 c -0.199218,-1.4179687 -1.113281,-2.25 -2.414062,-2.25 -0.9375,0 -1.769531,0.4570313 -2.273438,1.2304688 -0.550781,0.8554687 -0.773437,1.9101562 -0.773437,3.4804687 0,1.4648438 0.199219,2.390625 0.714844,3.15234377 0.457031,0.71484375 1.207031,1.08984375 2.144531,1.08984375 1.617187,0 2.777344,-1.21875 2.777344,-2.90625002 0,-1.59375 -1.078125,-2.7304687 -2.601563,-2.7304687 -0.84375,0 -1.5,0.3164062 -1.957031,0.9492187 0.01172,-2.1445312 0.691406,-3.328125 1.898437,-3.328125 0.738282,0 1.265625,0.46875 1.429688,1.3125 z m -2.554687,2.0039063 c 1.019531,0 1.652344,0.7265625 1.652344,1.875 0,1.0898437 -0.714844,1.88671872 -1.6875,1.88671872 -0.984375,0 -1.734375,-0.83203122 -1.734375,-1.93359372 0,-1.078125 0.726562,-1.828125 1.769531,-1.828125 z m 0,0"
       style="fill:#000000;fill-opacity:1;fill-rule:nonzero;stroke:none"
       aria-label="0.06"
       transform="matrix(1.3333333,0,0,1.3333333,22.110933,207.556)"
       clip-path="url(#clipPath60)" />
    <path
       id="path61"
       d="m 428.332,2769.17 h 45"
       style="fill:none;stroke:#000000;stroke-width:5;stroke-linecap:butt;stroke-linejoin:miter;stroke-miterlimit:10;stroke-dasharray:none;stroke-opacity:1"
       transform="matrix(0.13333333,0,0,-0.13333333,0,524)"
       clip-path="url(#clipPath62)" />
    <path
       id="path63"
       d="m 3.3035188,-8.6708984 c -0.796875,0 -1.5117188,0.3515625 -1.9570313,0.9492187 -0.55078125,0.7617188 -0.83203125,1.9101563 -0.83203125,3.5273438 0,2.9179687 0.96093755,4.47656246 2.78906255,4.47656246 1.7929687,0 2.7773437,-1.55859376 2.7773437,-4.40624996 0,-1.6875 -0.2578125,-2.8125 -0.8203125,-3.5976563 -0.4453125,-0.609375 -1.1601562,-0.9492187 -1.9570312,-0.9492187 z m 0,0.9375 c 1.1367187,0 1.6992187,1.1601562 1.6992187,3.515625 0,2.4609375 -0.5507812,3.62109371 -1.7226562,3.62109371 -1.125,0 -1.6875,-1.20703121 -1.6875,-3.58593751 0,-2.390625 0.5625,-3.5507812 1.7109375,-3.5507812 z m 5.6660156,6.4921875 H 7.7156281 V 9.765625e-4 h 1.2539063 z m 4.3417966,-7.4296875 c -0.796875,0 -1.511718,0.3515625 -1.957031,0.9492187 -0.550781,0.7617188 -0.832031,1.9101563 -0.832031,3.5273438 0,2.9179687 0.960937,4.47656246 2.789062,4.47656246 1.792969,0 2.777344,-1.55859376 2.777344,-4.40624996 0,-1.6875 -0.257812,-2.8125 -0.820312,-3.5976563 -0.445313,-0.609375 -1.160157,-0.9492187 -1.957032,-0.9492187 z m 0,0.9375 c 1.136719,0 1.699219,1.1601562 1.699219,3.515625 0,2.4609375 -0.550781,3.62109371 -1.722656,3.62109371 -1.125,0 -1.6875,-1.20703121 -1.6875,-3.58593751 0,-2.390625 0.5625,-3.5507812 1.710937,-3.5507812 z m 9.603516,-0.7734375 h -5.683594 v 1.0429687 h 4.59375 c -2.027344,2.8945313 -2.847656,4.6640625 -3.492187,7.4648437625 h 1.136718 C 19.938284,-2.7177734 21.004691,-5.0615234 22.914847,-7.6162109 Z m 0,0"
       style="fill:#000000;fill-opacity:1;fill-rule:nonzero;stroke:none"
       aria-label="0.07"
       transform="matrix(1.3333333,0,0,1.3333333,22.110933,160.66667)"
       clip-path="url(#clipPath64)" />
    <path
       id="path65"
       d="m 428.332,3121.67 h 45"
       style="fill:none;stroke:#000000;stroke-width:5;stroke-linecap:butt;stroke-linejoin:miter;stroke-miterlimit:10;stroke-dasharray:none;stroke-opacity:1"
       transform="matrix(0.13333333,0,0,-0.13333333,0,524)"
       clip-path="url(#clipPath66)" />
    <path
       id="path67"
       d="m 3.3035188,-8.6708984 c -0.796875,0 -1.5117188,0.3515625 -1.9570313,0.9492187 -0.55078125,0.7617188 -0.83203125,1.9101563 -0.83203125,3.5273438 0,2.9179687 0.96093755,4.47656246 2.78906255,4.47656246 1.7929687,0 2.7773437,-1.55859376 2.7773437,-4.40624996 0,-1.6875 -0.2578125,-2.8125 -0.8203125,-3.5976563 -0.4453125,-0.609375 -1.1601562,-0.9492187 -1.9570312,-0.9492187 z m 0,0.9375 c 1.1367187,0 1.6992187,1.1601562 1.6992187,3.515625 0,2.4609375 -0.5507812,3.62109371 -1.7226562,3.62109371 -1.125,0 -1.6875,-1.20703121 -1.6875,-3.58593751 0,-2.390625 0.5625,-3.5507812 1.7109375,-3.5507812 z m 5.6660156,6.4921875 H 7.7156281 V 9.765625e-4 h 1.2539063 z m 4.3417966,-7.4296875 c -0.796875,0 -1.511718,0.3515625 -1.957031,0.9492187 -0.550781,0.7617188 -0.832031,1.9101563 -0.832031,3.5273438 0,2.9179687 0.960937,4.47656246 2.789062,4.47656246 1.792969,0 2.777344,-1.55859376 2.777344,-4.40624996 0,-1.6875 -0.257812,-2.8125 -0.820312,-3.5976563 -0.445313,-0.609375 -1.160157,-0.9492187 -1.957032,-0.9492187 z m 0,0.9375 c 1.136719,0 1.699219,1.1601562 1.699219,3.515625 0,2.4609375 -0.550781,3.62109371 -1.722656,3.62109371 -1.125,0 -1.6875,-1.20703121 -1.6875,-3.58593751 0,-2.390625 0.5625,-3.5507812 1.710937,-3.5507812 z m 8.056641,3.1640625 c 0.890625,-0.5390625 1.171875,-0.9726563 1.171875,-1.7929688 0,-1.359375 -1.042969,-2.3085937 -2.554688,-2.3085937 -1.5,0 -2.566406,0.9492187 -2.566406,2.296875 0,0.8320312 0.28125,1.2539062 1.160156,1.8046875 -0.972656,0.4921875 -1.453125,1.1953125 -1.453125,2.15625 0,1.58203121 1.160157,2.69531246 2.859375,2.69531246 1.675782,0 2.847657,-1.11328125 2.847657,-2.69531246 0,-0.9609375 -0.480469,-1.6640625 -1.464844,-2.15625 z m -1.382813,-3.1640625 c 0.890625,0 1.476563,0.5390625 1.476563,1.3945312 0,0.8203125 -0.597656,1.359375 -1.476563,1.359375 -0.902343,0 -1.476562,-0.5390625 -1.476562,-1.3828125 0,-0.8320312 0.574219,-1.3710937 1.476562,-1.3710937 z m 0,3.6445312 c 1.054688,0 1.769532,0.6914063 1.769532,1.6992188 0,1.0429687 -0.703125,1.73437496 -1.792969,1.73437496 -1.042969,0 -1.757813,-0.71484376 -1.757813,-1.72265626 0,-1.03125 0.703125,-1.7109375 1.78125,-1.7109375 z m 0,0"
       style="fill:#000000;fill-opacity:1;fill-rule:nonzero;stroke:none"
       aria-label="0.08"
       transform="matrix(1.3333333,0,0,1.3333333,22.110933,113.66667)"
       clip-path="url(#clipPath68)" />
    <path
       id="path69"
       d="m 428.332,3473.33 h 45"
       style="fill:none;stroke:#000000;stroke-width:5;stroke-linecap:butt;stroke-linejoin:miter;stroke-miterlimit:10;stroke-dasharray:none;stroke-opacity:1"
       transform="matrix(0.13333333,0,0,-0.13333333,0,524)"
       clip-path="url(#clipPath70)" />
    <path
       id="path71"
       d="m 3.3035188,-8.6718672 c -0.796875,0 -1.5117188,0.3515625 -1.9570313,0.9492188 -0.55078125,0.7617187 -0.83203125,1.9101562 -0.83203125,3.5273437 0,2.9179688 0.96093755,4.47656251 2.78906255,4.47656251 1.7929687,0 2.7773437,-1.55859371 2.7773437,-4.40625001 0,-1.6875 -0.2578125,-2.8125 -0.8203125,-3.5976562 -0.4453125,-0.609375 -1.1601562,-0.9492188 -1.9570312,-0.9492188 z m 0,0.9375 c 1.1367187,0 1.6992187,1.1601563 1.6992187,3.515625 0,2.4609375 -0.5507812,3.62109376 -1.7226562,3.62109376 -1.125,0 -1.6875,-1.20703126 -1.6875,-3.58593746 0,-2.390625 0.5625,-3.5507813 1.7109375,-3.5507813 z m 5.6660156,6.4921875 H 7.7156281 V 7.8125e-6 h 1.2539063 z m 4.3417966,-7.4296875 c -0.796875,0 -1.511718,0.3515625 -1.957031,0.9492188 -0.550781,0.7617187 -0.832031,1.9101562 -0.832031,3.5273437 0,2.9179688 0.960937,4.47656251 2.789062,4.47656251 1.792969,0 2.777344,-1.55859371 2.777344,-4.40625001 0,-1.6875 -0.257812,-2.8125 -0.820312,-3.5976562 -0.445313,-0.609375 -1.160157,-0.9492188 -1.957032,-0.9492188 z m 0,0.9375 c 1.136719,0 1.699219,1.1601563 1.699219,3.515625 0,2.4609375 -0.550781,3.62109376 -1.722656,3.62109376 -1.125,0 -1.6875,-1.20703126 -1.6875,-3.58593746 0,-2.390625 0.5625,-3.5507813 1.710937,-3.5507813 z m 4.001953,5.7539063 c 0.210938,1.41796871 1.125,2.26171871 2.414063,2.26171871 0.949219,0 1.792969,-0.45703125 2.296875,-1.2421875 0.527344,-0.85546871 0.761719,-1.91015621 0.761719,-3.48046871 0,-1.4648438 -0.210938,-2.390625 -0.714844,-3.1523438 -0.46875,-0.7148437 -1.21875,-1.078125 -2.15625,-1.078125 -1.617188,0 -2.777344,1.2070313 -2.777344,2.8828125 0,1.6054688 1.078125,2.7304688 2.613281,2.7304688 0.808594,0 1.40625,-0.2929688 1.945313,-0.9492188 -0.01172,2.15625 -0.679688,3.35156251 -1.898438,3.35156251 -0.738281,0 -1.253906,-0.48046871 -1.429687,-1.32421871 z m 2.589844,-5.7773438 c 0.984375,0 1.734375,0.8320313 1.734375,1.9453125 0,1.078125 -0.726562,1.8164063 -1.769531,1.8164063 -1.019531,0 -1.652344,-0.7148438 -1.652344,-1.875 0,-1.0898438 0.703125,-1.8867188 1.6875,-1.8867188 z m 0,0"
       style="fill:#000000;fill-opacity:1;fill-rule:nonzero;stroke:none"
       aria-label="0.09"
       transform="matrix(1.3333333,0,0,1.3333333,22.110933,66.777333)"
       clip-path="url(#clipPath72)" />
    <path
       id="path73"
       d="m 428.332,3825.83 h 45"
       style="fill:none;stroke:#000000;stroke-width:5;stroke-linecap:butt;stroke-linejoin:miter;stroke-miterlimit:10;stroke-dasharray:none;stroke-opacity:1"
       transform="matrix(0.13333333,0,0,-0.13333333,0,524)"
       clip-path="url(#clipPath74)" />
    <path
       id="path75"
       d="m 3.3046875,-8.6718672 c -0.796875,0 -1.5117188,0.3515625 -1.9570313,0.9492188 -0.5507812,0.7617187 -0.8320312,1.9101562 -0.8320312,3.5273437 0,2.9179688 0.9609375,4.47656251 2.7890625,4.47656251 1.7929687,0 2.7773437,-1.55859371 2.7773437,-4.40625001 0,-1.6875 -0.2578125,-2.8125 -0.8203125,-3.5976562 -0.4453125,-0.609375 -1.1601562,-0.9492188 -1.9570312,-0.9492188 z m 0,0.9375 c 1.1367187,0 1.6992187,1.1601563 1.6992187,3.515625 0,2.4609375 -0.5507812,3.62109376 -1.7226562,3.62109376 -1.125,0 -1.6875,-1.20703126 -1.6875,-3.58593746 0,-2.390625 0.5625,-3.5507813 1.7109375,-3.5507813 z m 5.6630859,6.4921875 H 7.7138672 V 7.8125e-6 H 8.9677734 Z M 13.113281,-6.1757734 V 7.8125e-6 h 1.054688 V -8.6718672 h -0.691406 c -0.375,1.3242188 -0.609375,1.5117188 -2.25,1.7226563 v 0.7734375 z m 0,0"
       style="fill:#000000;fill-opacity:1;fill-rule:nonzero;stroke:none"
       aria-label="0.1"
       transform="matrix(1.3333333,0,0,1.3333333,31,19.777333)"
       clip-path="url(#clipPath76)" />
    <path
       id="path77"
       d="m 1780.83,304.168 h 880 v 880.002 h -880 V 304.168"
       style="fill:none;stroke:#000000;stroke-width:5;stroke-linecap:butt;stroke-linejoin:miter;stroke-miterlimit:10;stroke-dasharray:none;stroke-opacity:1"
       transform="matrix(0.13333333,0,0,-0.13333333,0,524)"
       clip-path="url(#clipPath78)" />
    <path
       id="path79"
       d="m 2660.83,304.168 h 880.84 V 1184.17 H 2660.83 V 304.168"
       style="fill:none;stroke:#000000;stroke-width:5;stroke-linecap:butt;stroke-linejoin:miter;stroke-miterlimit:10;stroke-dasharray:none;stroke-opacity:1"
       transform="matrix(0.13333333,0,0,-0.13333333,0,524)"
       clip-path="url(#clipPath80)" />
    <path
       id="path81"
       d="m 1780.83,1184.17 h 880 V 2065 h -880 v -880.83"
       style="fill:none;stroke:#000000;stroke-width:5;stroke-linecap:butt;stroke-linejoin:miter;stroke-miterlimit:10;stroke-dasharray:none;stroke-opacity:1"
       transform="matrix(0.13333333,0,0,-0.13333333,0,524)"
       clip-path="url(#clipPath82)" />
    <path
       id="path83"
       d="m 2660.83,1184.17 h 880.84 V 2065 h -880.84 v -880.83"
       style="fill:none;stroke:#000000;stroke-width:5;stroke-linecap:butt;stroke-linejoin:miter;stroke-miterlimit:10;stroke-dasharray:none;stroke-opacity:1"
       transform="matrix(0.13333333,0,0,-0.13333333,0,524)"
       clip-path="url(#clipPath84)" />
    <path
       id="path85"
       d="m 1780.83,2065 h 880 v 880 h -880 v -880"
       style="fill:none;stroke:#000000;stroke-width:5;stroke-linecap:butt;stroke-linejoin:miter;stroke-miterlimit:10;stroke-dasharray:none;stroke-opacity:1"
       transform="matrix(0.13333333,0,0,-0.13333333,0,524)"
       clip-path="url(#clipPath86)" />
    <path
       id="path87"
       d="m 2660.83,2065 h 880.84 v 880.83 L 2660.83,2945 v -880"
       style="fill:none;stroke:#000000;stroke-width:5;stroke-linecap:butt;stroke-linejoin:miter;stroke-miterlimit:10;stroke-dasharray:none;stroke-opacity:1"
       transform="matrix(0.13333333,0,0,-0.13333333,0,524)"
       clip-path="url(#clipPath88)" />
    <path
       id="path89"
       d="m 1780.83,2945 h 880 v 880.83 h -880 V 2945"
       style="fill:none;stroke:#000000;stroke-width:5;stroke-linecap:butt;stroke-linejoin:miter;stroke-miterlimit:10;stroke-dasharray:none;stroke-opacity:1"
       transform="matrix(0.13333333,0,0,-0.13333333,0,524)"
       clip-path="url(#clipPath90)" />
    <path
       id="path91"
       d="m 2660.83,2945 880.84,0.83 v 880 H 2660.83 V 2945"
       style="fill:none;stroke:#000000;stroke-width:5;stroke-linecap:butt;stroke-linejoin:miter;stroke-miterlimit:10;stroke-dasharray:none;stroke-opacity:1"
       transform="matrix(0.13333333,0,0,-0.13333333,0,524)"
       clip-path="url(#clipPath92)" />
    <path
       id="path93"
       d="m 1810.83,304.168 c 0,-16.566 -13.43,-30 -30,-30 -16.56,0 -30,13.434 -30,30 0,16.566 13.44,30 30,30 16.57,0 30,-13.434 30,-30"
       style="fill:none;stroke:#000000;stroke-width:5;stroke-linecap:butt;stroke-linejoin:miter;stroke-miterlimit:10;stroke-dasharray:none;stroke-opacity:1"
       transform="matrix(0.13333333,0,0,-0.13333333,0,524)"
       clip-path="url(#clipPath94)" />
    <path
       id="path95"
       d="m 2690.83,304.168 c 0,-16.566 -13.43,-30 -30,-30 -16.56,0 -30,13.434 -30,30 0,16.566 13.44,30 30,30 16.57,0 30,-13.434 30,-30"
       style="fill:none;stroke:#000000;stroke-width:5;stroke-linecap:butt;stroke-linejoin:miter;stroke-miterlimit:10;stroke-dasharray:none;stroke-opacity:1"
       transform="matrix(0.13333333,0,0,-0.13333333,0,524)"
       clip-path="url(#clipPath96)" />
    <path
       id="path97"
       d="m 2690.83,1184.17 c 0,-16.57 -13.43,-30 -30,-30 -16.56,0 -30,13.43 -30,30 0,16.56 13.44,30 30,30 16.57,0 30,-13.44 30,-30"
       style="fill:none;stroke:#000000;stroke-width:5;stroke-linecap:butt;stroke-linejoin:miter;stroke-miterlimit:10;stroke-dasharray:none;stroke-opacity:1"
       transform="matrix(0.13333333,0,0,-0.13333333,0,524)"
       clip-path="url(#clipPath98)" />
    <path
       id="path99"
       d="m 1810.83,1184.17 c 0,-16.57 -13.43,-30 -30,-30 -16.56,0 -30,13.43 -30,30 0,16.56 13.44,30 30,30 16.57,0 30,-13.44 30,-30"
       style="fill:none;stroke:#000000;stroke-width:5;stroke-linecap:butt;stroke-linejoin:miter;stroke-miterlimit:10;stroke-dasharray:none;stroke-opacity:1"
       transform="matrix(0.13333333,0,0,-0.13333333,0,524)"
       clip-path="url(#clipPath100)" />
    <path
       id="path101"
       d="m 2690.83,304.168 c 0,-16.566 -13.43,-30 -30,-30 -16.56,0 -30,13.434 -30,30 0,16.566 13.44,30 30,30 16.57,0 30,-13.434 30,-30"
       style="fill:none;stroke:#000000;stroke-width:5;stroke-linecap:butt;stroke-linejoin:miter;stroke-miterlimit:10;stroke-dasharray:none;stroke-opacity:1"
       transform="matrix(0.13333333,0,0,-0.13333333,0,524)"
       clip-path="url(#clipPath102)" />
    <path
       id="path103"
       d="m 3571.67,304.168 c 0,-16.566 -13.44,-30 -30,-30 -16.57,0 -30,13.434 -30,30 0,16.566 13.43,30 30,30 16.56,0 30,-13.434 30,-30"
       style="fill:none;stroke:#000000;stroke-width:5;stroke-linecap:butt;stroke-linejoin:miter;stroke-miterlimit:10;stroke-dasharray:none;stroke-opacity:1"
       transform="matrix(0.13333333,0,0,-0.13333333,0,524)"
       clip-path="url(#clipPath104)" />
    <path
       id="path105"
       d="m 3571.67,1184.17 c 0,-16.57 -13.44,-30 -30,-30 -16.57,0 -30,13.43 -30,30 0,16.56 13.43,30 30,30 16.56,0 30,-13.44 30,-30"
       style="fill:none;stroke:#000000;stroke-width:5;stroke-linecap:butt;stroke-linejoin:miter;stroke-miterlimit:10;stroke-dasharray:none;stroke-opacity:1"
       transform="matrix(0.13333333,0,0,-0.13333333,0,524)"
       clip-path="url(#clipPath106)" />
    <path
       id="path107"
       d="m 2690.83,1184.17 c 0,-16.57 -13.43,-30 -30,-30 -16.56,0 -30,13.43 -30,30 0,16.56 13.44,30 30,30 16.57,0 30,-13.44 30,-30"
       style="fill:none;stroke:#000000;stroke-width:5;stroke-linecap:butt;stroke-linejoin:miter;stroke-miterlimit:10;stroke-dasharray:none;stroke-opacity:1"
       transform="matrix(0.13333333,0,0,-0.13333333,0,524)"
       clip-path="url(#clipPath108)" />
    <path
       id="path109"
       d="m 1810.83,1184.17 c 0,-16.57 -13.43,-30 -30,-30 -16.56,0 -30,13.43 -30,30 0,16.56 13.44,30 30,30 16.57,0 30,-13.44 30,-30"
       style="fill:none;stroke:#000000;stroke-width:5;stroke-linecap:butt;stroke-linejoin:miter;stroke-miterlimit:10;stroke-dasharray:none;stroke-opacity:1"
       transform="matrix(0.13333333,0,0,-0.13333333,0,524)"
       clip-path="url(#clipPath110)" />
    <path
       id="path111"
       d="m 2690.83,1184.17 c 0,-16.57 -13.43,-30 -30,-30 -16.56,0 -30,13.43 -30,30 0,16.56 13.44,30 30,30 16.57,0 30,-13.44 30,-30"
       style="fill:none;stroke:#000000;stroke-width:5;stroke-linecap:butt;stroke-linejoin:miter;stroke-miterlimit:10;stroke-dasharray:none;stroke-opacity:1"
       transform="matrix(0.13333333,0,0,-0.13333333,0,524)"
       clip-path="url(#clipPath112)" />
    <path
       id="path113"
       d="m 2690.83,2065 c 0,-16.57 -13.43,-30 -30,-30 -16.56,0 -30,13.43 -30,30 0,16.57 13.44,30 30,30 16.57,0 30,-13.43 30,-30"
       style="fill:none;stroke:#000000;stroke-width:5;stroke-linecap:butt;stroke-linejoin:miter;stroke-miterlimit:10;stroke-dasharray:none;stroke-opacity:1"
       transform="matrix(0.13333333,0,0,-0.13333333,0,524)"
       clip-path="url(#clipPath114)" />
    <path
       id="path115"
       d="m 1810.83,2065 c 0,-16.57 -13.43,-30 -30,-30 -16.56,0 -30,13.43 -30,30 0,16.57 13.44,30 30,30 16.57,0 30,-13.43 30,-30"
       style="fill:none;stroke:#000000;stroke-width:5;stroke-linecap:butt;stroke-linejoin:miter;stroke-miterlimit:10;stroke-dasharray:none;stroke-opacity:1"
       transform="matrix(0.13333333,0,0,-0.13333333,0,524)"
       clip-path="url(#clipPath116)" />
    <path
       id="path117"
       d="m 2690.83,1184.17 c 0,-16.57 -13.43,-30 -30,-30 -16.56,0 -30,13.43 -30,30 0,16.56 13.44,30 30,30 16.57,0 30,-13.44 30,-30"
       style="fill:none;stroke:#000000;stroke-width:5;stroke-linecap:butt;stroke-linejoin:miter;stroke-miterlimit:10;stroke-dasharray:none;stroke-opacity:1"
       transform="matrix(0.13333333,0,0,-0.13333333,0,524)"
       clip-path="url(#clipPath118)" />
    <path
       id="path119"
       d="m 3571.67,1184.17 c 0,-16.57 -13.44,-30 -30,-30 -16.57,0 -30,13.43 -30,30 0,16.56 13.43,30 30,30 16.56,0 30,-13.44 30,-30"
       style="fill:none;stroke:#000000;stroke-width:5;stroke-linecap:butt;stroke-linejoin:miter;stroke-miterlimit:10;stroke-dasharray:none;stroke-opacity:1"
       transform="matrix(0.13333333,0,0,-0.13333333,0,524)"
       clip-path="url(#clipPath120)" />
    <path
       id="path121"
       d="m 3571.67,2065 c 0,-16.57 -13.44,-30 -30,-30 -16.57,0 -30,13.43 -30,30 0,16.57 13.43,30 30,30 16.56,0 30,-13.43 30,-30"
       style="fill:none;stroke:#000000;stroke-width:5;stroke-linecap:butt;stroke-linejoin:miter;stroke-miterlimit:10;stroke-dasharray:none;stroke-opacity:1"
       transform="matrix(0.13333333,0,0,-0.13333333,0,524)"
       clip-path="url(#clipPath122)" />
    <path
       id="path123"
       d="m 2690.83,2065 c 0,-16.57 -13.43,-30 -30,-30 -16.56,0 -30,13.43 -30,30 0,16.57 13.44,30 30,30 16.57,0 30,-13.43 30,-30"
       style="fill:none;stroke:#000000;stroke-width:5;stroke-linecap:butt;stroke-linejoin:miter;stroke-miterlimit:10;stroke-dasharray:none;stroke-opacity:1"
       transform="matrix(0.13333333,0,0,-0.13333333,0,524)"
       clip-path="url(#clipPath124)" />
    <path
       id="path125"
       d="m 1810.83,2065 c 0,-16.57 -13.43,-30 -30,-30 -16.56,0 -30,13.43 -30,30 0,16.57 13.44,30 30,30 16.57,0 30,-13.43 30,-30"
       style="fill:none;stroke:#000000;stroke-width:5;stroke-linecap:butt;stroke-linejoin:miter;stroke-miterlimit:10;stroke-dasharray:none;stroke-opacity:1"
       transform="matrix(0.13333333,0,0,-0.13333333,0,524)"
       clip-path="url(#clipPath126)" />
    <path
       id="path127"
       d="m 2690.83,2065 c 0,-16.57 -13.43,-30 -30,-30 -16.56,0 -30,13.43 -30,30 0,16.57 13.44,30 30,30 16.57,0 30,-13.43 30,-30"
       style="fill:none;stroke:#000000;stroke-width:5;stroke-linecap:butt;stroke-linejoin:miter;stroke-miterlimit:10;stroke-dasharray:none;stroke-opacity:1"
       transform="matrix(0.13333333,0,0,-0.13333333,0,524)"
       clip-path="url(#clipPath128)" />
    <path
       id="path129"
       d="m 2690.83,2945 c 0,-16.57 -13.43,-30 -30,-30 -16.56,0 -30,13.43 -30,30 0,16.57 13.44,30 30,30 16.57,0 30,-13.43 30,-30"
       style="fill:none;stroke:#000000;stroke-width:5;stroke-linecap:butt;stroke-linejoin:miter;stroke-miterlimit:10;stroke-dasharray:none;stroke-opacity:1"
       transform="matrix(0.13333333,0,0,-0.13333333,0,524)"
       clip-path="url(#clipPath130)" />
    <path
       id="path131"
       d="m 1810.83,2945 c 0,-16.57 -13.43,-30 -30,-30 -16.56,0 -30,13.43 -30,30 0,16.57 13.44,30 30,30 16.57,0 30,-13.43 30,-30"
       style="fill:none;stroke:#000000;stroke-width:5;stroke-linecap:butt;stroke-linejoin:miter;stroke-miterlimit:10;stroke-dasharray:none;stroke-opacity:1"
       transform="matrix(0.13333333,0,0,-0.13333333,0,524)"
       clip-path="url(#clipPath132)" />
    <path
       id="path133"
       d="m 2690.83,2065 c 0,-16.57 -13.43,-30 -30,-30 -16.56,0 -30,13.43 -30,30 0,16.57 13.44,30 30,30 16.57,0 30,-13.43 30,-30"
       style="fill:none;stroke:#000000;stroke-width:5;stroke-linecap:butt;stroke-linejoin:miter;stroke-miterlimit:10;stroke-dasharray:none;stroke-opacity:1"
       transform="matrix(0.13333333,0,0,-0.13333333,0,524)"
       clip-path="url(#clipPath134)" />
    <path
       id="path135"
       d="m 3571.67,2065 c 0,-16.57 -13.44,-30 -30,-30 -16.57,0 -30,13.43 -30,30 0,16.57 13.43,30 30,30 16.56,0 30,-13.43 30,-30"
       style="fill:none;stroke:#000000;stroke-width:5;stroke-linecap:butt;stroke-linejoin:miter;stroke-miterlimit:10;stroke-dasharray:none;stroke-opacity:1"
       transform="matrix(0.13333333,0,0,-0.13333333,0,524)"
       clip-path="url(#clipPath136)" />
    <path
       id="path137"
       d="m 3571.67,2945.83 c 0,-16.56 -13.44,-30 -30,-30 -16.57,0 -30,13.44 -30,30 0,16.57 13.43,30 30,30 16.56,0 30,-13.43 30,-30"
       style="fill:none;stroke:#000000;stroke-width:5;stroke-linecap:butt;stroke-linejoin:miter;stroke-miterlimit:10;stroke-dasharray:none;stroke-opacity:1"
       transform="matrix(0.13333333,0,0,-0.13333333,0,524)"
       clip-path="url(#clipPath138)" />
    <path
       id="path139"
       d="m 2690.83,2945 c 0,-16.57 -13.43,-30 -30,-30 -16.56,0 -30,13.43 -30,30 0,16.57 13.44,30 30,30 16.57,0 30,-13.43 30,-30"
       style="fill:none;stroke:#000000;stroke-width:5;stroke-linecap:butt;stroke-linejoin:miter;stroke-miterlimit:10;stroke-dasharray:none;stroke-opacity:1"
       transform="matrix(0.13333333,0,0,-0.13333333,0,524)"
       clip-path="url(#clipPath140)" />
    <path
       id="path141"
       d="m 1810.83,2945 c 0,-16.57 -13.43,-30 -30,-30 -16.56,0 -30,13.43 -30,30 0,16.57 13.44,30 30,30 16.57,0 30,-13.43 30,-30"
       style="fill:none;stroke:#000000;stroke-width:5;stroke-linecap:butt;stroke-linejoin:miter;stroke-miterlimit:10;stroke-dasharray:none;stroke-opacity:1"
       transform="matrix(0.13333333,0,0,-0.13333333,0,524)"
       clip-path="url(#clipPath142)" />
    <path
       id="path143"
       d="m 2690.83,2945 c 0,-16.57 -13.43,-30 -30,-30 -16.56,0 -30,13.43 -30,30 0,16.57 13.44,30 30,30 16.57,0 30,-13.43 30,-30"
       style="fill:none;stroke:#000000;stroke-width:5;stroke-linecap:butt;stroke-linejoin:miter;stroke-miterlimit:10;stroke-dasharray:none;stroke-opacity:1"
       transform="matrix(0.13333333,0,0,-0.13333333,0,524)"
       clip-path="url(#clipPath144)" />
    <path
       id="path145"
       d="m 2690.83,3825.83 c 0,-16.56 -13.43,-30 -30,-30 -16.56,0 -30,13.44 -30,30 0,16.57 13.44,30 30,30 16.57,0 30,-13.43 30,-30"
       style="fill:none;stroke:#000000;stroke-width:5;stroke-linecap:butt;stroke-linejoin:miter;stroke-miterlimit:10;stroke-dasharray:none;stroke-opacity:1"
       transform="matrix(0.13333333,0,0,-0.13333333,0,524)"
       clip-path="url(#clipPath146)" />
    <path
       id="path147"
       d="m 1810.83,3825.83 c 0,-16.56 -13.43,-30 -30,-30 -16.56,0 -30,13.44 -30,30 0,16.57 13.44,30 30,30 16.57,0 30,-13.43 30,-30"
       style="fill:none;stroke:#000000;stroke-width:5;stroke-linecap:butt;stroke-linejoin:miter;stroke-miterlimit:10;stroke-dasharray:none;stroke-opacity:1"
       transform="matrix(0.13333333,0,0,-0.13333333,0,524)"
       clip-path="url(#clipPath148)" />
    <path
       id="path149"
       d="m 2690.83,2945 c 0,-16.57 -13.43,-30 -30,-30 -16.56,0 -30,13.43 -30,30 0,16.57 13.44,30 30,30 16.57,0 30,-13.43 30,-30"
       style="fill:none;stroke:#000000;stroke-width:5;stroke-linecap:butt;stroke-linejoin:miter;stroke-miterlimit:10;stroke-dasharray:none;stroke-opacity:1"
       transform="matrix(0.13333333,0,0,-0.13333333,0,524)"
       clip-path="url(#clipPath150)" />
    <path
       id="path151"
       d="m 3571.67,2945.83 c 0,-16.56 -13.44,-30 -30,-30 -16.57,0 -30,13.44 -30,30 0,16.57 13.43,30 30,30 16.56,0 30,-13.43 30,-30"
       style="fill:none;stroke:#000000;stroke-width:5;stroke-linecap:butt;stroke-linejoin:miter;stroke-miterlimit:10;stroke-dasharray:none;stroke-opacity:1"
       transform="matrix(0.13333333,0,0,-0.13333333,0,524)"
       clip-path="url(#clipPath152)" />
    <path
       id="path153"
       d="m 3571.67,3825.83 c 0,-16.56 -13.44,-30 -30,-30 -16.57,0 -30,13.44 -30,30 0,16.57 13.43,30 30,30 16.56,0 30,-13.43 30,-30"
       style="fill:none;stroke:#000000;stroke-width:5;stroke-linecap:butt;stroke-linejoin:miter;stroke-miterlimit:10;stroke-dasharray:none;stroke-opacity:1"
       transform="matrix(0.13333333,0,0,-0.13333333,0,524)"
       clip-path="url(#clipPath154)" />
    <path
       id="path155"
       d="m 2690.83,3825.83 c 0,-16.56 -13.43,-30 -30,-30 -16.56,0 -30,13.44 -30,30 0,16.57 13.44,30 30,30 16.57,0 30,-13.43 30,-30"
       style="fill:none;stroke:#000000;stroke-width:5;stroke-linecap:butt;stroke-linejoin:miter;stroke-miterlimit:10;stroke-dasharray:none;stroke-opacity:1"
       transform="matrix(0.13333333,0,0,-0.13333333,0,524)"
       clip-path="url(#clipPath156)" />
    <path
       id="path157"
       d="m 3.5039141,-3.2578125 2.109375,-3.0351562 h -1.125 L 2.9765703,-4.0078125 1.4648516,-6.2929687 H 0.32813281 L 2.4257891,-3.1992188 0.19922656,0 H 1.3476641 L 2.9414141,-2.4140625 4.5117266,0 h 1.1601562 z m 0,0"
       style="fill:#000000;fill-opacity:1;fill-rule:nonzero;stroke:none"
       aria-label="x"
       transform="matrix(1.3333333,0,0,1.3333333,350.77733,520)"
       clip-path="url(#clipPath158)" />
    <path
       id="path159"
       d="M 4.6513672,-6.2941375 2.9169922,-1.3957 1.3115234,-6.2941375 H 0.23339844 L 2.3662109,0.02226875 1.9794922,1.0183625 C 1.8154297,1.463675 1.5927734,1.6277375 1.1708984,1.6277375 1.0068359,1.6277375 0.86621094,1.6043 0.64355469,1.557425 v 0.9023438 c 0.2109375,0.1054687 0.41015621,0.1523437 0.67968751,0.1523437 0.3164062,0 0.6679687,-0.1054687 0.9375,-0.2929687 C 2.5654297,2.0847688 2.7412109,1.8269563 2.9404297,1.32305 l 2.7890625,-7.6171875 z m 0,0"
       style="fill:#000000;fill-opacity:1;fill-rule:nonzero;stroke:none"
       aria-label="y"
       transform="matrix(0,-1.3333333,1.3333333,0,16.110933,252.66667)"
       clip-path="url(#clipPath160)" />
    <path
       id="path161"
       d="m 2229.17,752.5 -14.17,-14.168 -0.83,0.836 -1.67,-3.336 3.33,1.668 -0.83,0.832"
       style="fill:none;stroke:#000000;stroke-width:5;stroke-linecap:butt;stroke-linejoin:miter;stroke-miterlimit:10;stroke-dasharray:none;stroke-opacity:1"
       transform="matrix(0.13333333,0,0,-0.13333333,0,524)"
       clip-path="url(#clipPath162)" />
    <path
       id="path163"
       d="m 3104.17,764.168 -5.84,-33.336 h -1.66 l 0.83,-5.832 3.33,5 -2.5,0.832"
       style="fill:none;stroke:#000000;stroke-width:5;stroke-linecap:butt;stroke-linejoin:miter;stroke-miterlimit:10;stroke-dasharray:none;stroke-opacity:1"
       transform="matrix(0.13333333,0,0,-0.13333333,0,524)"
       clip-path="url(#clipPath164)" />
    <path
       id="path165"
       d="m 2250.83,1638.33 -51.66,-23.33 -0.84,3.33 -8.33,-7.5 10.83,0.84 -1.66,3.33"
       style="fill:none;stroke:#000000;stroke-width:5;stroke-linecap:butt;stroke-linejoin:miter;stroke-miterlimit:10;stroke-dasharray:none;stroke-opacity:1"
       transform="matrix(0.13333333,0,0,-0.13333333,0,524)"
       clip-path="url(#clipPath166)" />
    <path
       id="path167"
       d="m 3112.5,1657.5 -20,-55.83 -3.33,0.83 v -10.83 l 6.66,9.16 -3.33,0.84"
       style="fill:none;stroke:#000000;stroke-width:5;stroke-linecap:butt;stroke-linejoin:miter;stroke-miterlimit:10;stroke-dasharray:none;stroke-opacity:1"
       transform="matrix(0.13333333,0,0,-0.13333333,0,524)"
       clip-path="url(#clipPath168)" />
    <path
       id="path169"
       d="m 2299.17,2540 -133.34,-59.17 -4.16,8.34 -20,-18.34 27.5,2.5 -3.34,7.5"
       style="fill:none;stroke:#000000;stroke-width:5;stroke-linecap:butt;stroke-linejoin:miter;stroke-miterlimit:10;stroke-dasharray:none;stroke-opacity:1"
       transform="matrix(0.13333333,0,0,-0.13333333,0,524)"
       clip-path="url(#clipPath170)" />
    <path
       id="path171"
       d="m 3115.83,2572.5 -25,-114.17 -6.66,1.67 1.66,-21.67 11.67,18.34 -6.67,1.66"
       style="fill:none;stroke:#000000;stroke-width:5;stroke-linecap:butt;stroke-linejoin:miter;stroke-miterlimit:10;stroke-dasharray:none;stroke-opacity:1"
       transform="matrix(0.13333333,0,0,-0.13333333,0,524)"
       clip-path="url(#clipPath172)" />
    <path
       id="path173"
       d="m 2330,3488.33 -185.83,-175 -10.84,11.67 -22.5,-42.5 43.34,20 -10,10.83"
       style="fill:none;stroke:#000000;stroke-width:5;stroke-linecap:butt;stroke-linejoin:miter;stroke-miterlimit:10;stroke-dasharray:none;stroke-opacity:1"
       transform="matrix(0.13333333,0,0,-0.13333333,0,524)"
       clip-path="url(#clipPath174)" />
    <path
       id="path175"
       d="m 3107.5,3478.33 -10.83,-157.5 h -9.17 l 6.67,-28.33 11.66,27.5 -9.16,0.83"
       style="fill:none;stroke:#000000;stroke-width:5;stroke-linecap:butt;stroke-linejoin:miter;stroke-miterlimit:10;stroke-dasharray:none;stroke-opacity:1"
       transform="matrix(0.13333333,0,0,-0.13333333,0,524)"
       clip-path="url(#clipPath176)" />
  </g>
</svg>
