<?xml version="1.0" encoding="UTF-8" standalone="no"?>
<!-- Created with Inkscape (http://www.inkscape.org/) -->

<svg
   version="1.1"
   id="svg1"
   width="576"
   height="332"
   viewBox="0 0 576 332"
   sodipodi:docname="EXD1fBIG.EPS"
   xmlns:inkscape="http://www.inkscape.org/namespaces/inkscape"
   xmlns:sodipodi="http://sodipodi.sourceforge.net/DTD/sodipodi-0.dtd"
   xmlns="http://www.w3.org/2000/svg"
   xmlns:svg="http://www.w3.org/2000/svg">
  <defs
     id="defs1" />
  <sodipodi:namedview
     id="namedview1"
     pagecolor="#ffffff"
     bordercolor="#000000"
     borderopacity="0.25"
     inkscape:showpageshadow="2"
     inkscape:pageopacity="0.0"
     inkscape:pagecheckerboard="0"
     inkscape:deskcolor="#d1d1d1">
    <inkscape:page
       x="0"
       y="0"
       inkscape:label="1"
       id="page1"
       width="576"
       height="332"
       margin="0"
       bleed="0" />
  </sodipodi:namedview>
  <g
     id="g1"
     inkscape:groupmode="layer"
     inkscape:label="1">
    <path
       id="path1"
       d="m 3314.71,2069.99 v 0 c 13.91,0 25.18,-11.28 25.18,-25.18 0,-13.91 -11.27,-25.18 -25.18,-25.18 v 0 c -13.9,0 -25.17,11.27 -25.17,25.18 0,13.9 11.27,25.18 25.17,25.18"
       style="fill:#231f20;fill-opacity:1;fill-rule:nonzero;stroke:none"
       transform="matrix(0.13333333,0,0,-0.13333333,0,332)" />
    <path
       id="path2"
       d="m 3314.71,2069.99 v 0 c 13.91,0 25.18,-11.28 25.18,-25.18 0,-13.91 -11.27,-25.18 -25.18,-25.18 v 0 c -13.9,0 -25.17,11.27 -25.17,25.18 0,13.9 11.27,25.18 25.17,25.18 z"
       style="fill:none;stroke:#231f20;stroke-width:15;stroke-linecap:butt;stroke-linejoin:miter;stroke-miterlimit:3.86371;stroke-dasharray:none;stroke-opacity:1"
       transform="matrix(0.13333333,0,0,-0.13333333,0,332)" />
    <path
       id="path3"
       d="m 2634.25,1077.05 v 0 c 13.91,0 25.18,-11.27 25.18,-25.17 0,-13.91 -11.27,-25.18 -25.18,-25.18 v 0 c -13.91,0 -25.18,11.27 -25.18,25.18 0,13.9 11.27,25.17 25.18,25.17"
       style="fill:#231f20;fill-opacity:1;fill-rule:nonzero;stroke:none"
       transform="matrix(0.13333333,0,0,-0.13333333,0,332)" />
    <path
       id="path4"
       d="m 2634.25,1077.05 v 0 c 13.91,0 25.18,-11.27 25.18,-25.17 0,-13.91 -11.27,-25.18 -25.18,-25.18 v 0 c -13.91,0 -25.18,11.27 -25.18,25.18 0,13.9 11.27,25.17 25.18,25.17 z"
       style="fill:none;stroke:#231f20;stroke-width:15;stroke-linecap:butt;stroke-linejoin:miter;stroke-miterlimit:3.86371;stroke-dasharray:none;stroke-opacity:1"
       transform="matrix(0.13333333,0,0,-0.13333333,0,332)" />
    <path
       id="path5"
       d="m 2638,2074.5 v 0 c 13.9,0 25.18,-11.27 25.18,-25.18 0,-13.9 -11.28,-25.18 -25.18,-25.18 v 0 c -13.91,0 -25.18,11.28 -25.18,25.18 0,13.91 11.27,25.18 25.18,25.18"
       style="fill:#231f20;fill-opacity:1;fill-rule:nonzero;stroke:none"
       transform="matrix(0.13333333,0,0,-0.13333333,0,332)" />
    <path
       id="path6"
       d="m 2638,2074.5 v 0 c 13.9,0 25.18,-11.27 25.18,-25.18 0,-13.9 -11.28,-25.18 -25.18,-25.18 v 0 c -13.91,0 -25.18,11.28 -25.18,25.18 0,13.91 11.27,25.18 25.18,25.18 z"
       style="fill:none;stroke:#231f20;stroke-width:15;stroke-linecap:butt;stroke-linejoin:miter;stroke-miterlimit:3.86371;stroke-dasharray:none;stroke-opacity:1"
       transform="matrix(0.13333333,0,0,-0.13333333,0,332)" />
    <path
       id="path7"
       d="m 3992.65,2069.25 v 0 c 13.9,0 25.17,-11.27 25.17,-25.18 0,-13.9 -11.27,-25.18 -25.17,-25.18 v 0 c -13.91,0 -25.19,11.28 -25.19,25.18 0,13.91 11.28,25.18 25.19,25.18"
       style="fill:#231f20;fill-opacity:1;fill-rule:nonzero;stroke:none"
       transform="matrix(0.13333333,0,0,-0.13333333,0,332)" />
    <path
       id="path8"
       d="m 3992.65,2069.25 v 0 c 13.9,0 25.17,-11.27 25.17,-25.18 0,-13.9 -11.27,-25.18 -25.17,-25.18 v 0 c -13.91,0 -25.19,11.28 -25.19,25.18 0,13.91 11.28,25.18 25.19,25.18 z"
       style="fill:none;stroke:#231f20;stroke-width:15;stroke-linecap:butt;stroke-linejoin:miter;stroke-miterlimit:3.86371;stroke-dasharray:none;stroke-opacity:1"
       transform="matrix(0.13333333,0,0,-0.13333333,0,332)" />
    <path
       id="path9"
       d="m 2634.31,91.2305 v 0 c 13.91,0 25.18,-11.2735 25.18,-25.1797 0,-13.9063 -11.27,-25.1797 -25.18,-25.1797 v 0 c -13.91,0 -25.18,11.2734 -25.18,25.1797 0,13.9062 11.27,25.1797 25.18,25.1797"
       style="fill:#231f20;fill-opacity:1;fill-rule:nonzero;stroke:none"
       transform="matrix(0.13333333,0,0,-0.13333333,0,332)" />
    <path
       id="path10"
       d="m 2634.31,91.2305 v 0 c 13.91,0 25.18,-11.2735 25.18,-25.1797 0,-13.9063 -11.27,-25.1797 -25.18,-25.1797 v 0 c -13.91,0 -25.18,11.2734 -25.18,25.1797 0,13.9062 11.27,25.1797 25.18,25.1797 z"
       style="fill:none;stroke:#231f20;stroke-width:15;stroke-linecap:butt;stroke-linejoin:miter;stroke-miterlimit:3.86371;stroke-dasharray:none;stroke-opacity:1"
       transform="matrix(0.13333333,0,0,-0.13333333,0,332)" />
    <path
       id="path11"
       d="m 2640.42,2177.24 h 259.62"
       style="fill:none;stroke:#231f20;stroke-width:2.5;stroke-linecap:butt;stroke-linejoin:miter;stroke-miterlimit:3.86371;stroke-dasharray:none;stroke-opacity:1"
       transform="matrix(0.13333333,0,0,-0.13333333,0,332)" />
    <path
       id="path12"
       d="m 2897.54,2177.24 v 15 l 37.5,-15 -37.5,-15 v 15"
       style="fill:#231f20;fill-opacity:1;fill-rule:evenodd;stroke:none"
       transform="matrix(0.13333333,0,0,-0.13333333,0,332)" />
    <path
       id="path13"
       d="m 2461.89,2250.59 c 28.72,66.39 94.81,112.85 171.75,112.85 103.3,0 186.91,-79.97 186.91,-183.26"
       style="fill:none;stroke:#231f20;stroke-width:2.5;stroke-linecap:butt;stroke-linejoin:miter;stroke-miterlimit:3.86371;stroke-dasharray:none;stroke-opacity:1"
       transform="matrix(0.13333333,0,0,-0.13333333,0,332)" />
    <path
       id="path14"
       d="m 2462.87,2252.89 13.81,-5.87 -28.46,-28.65 0.85,40.38 13.8,-5.86"
       style="fill:#231f20;fill-opacity:1;fill-rule:evenodd;stroke:none"
       transform="matrix(0.13333333,0,0,-0.13333333,0,332)" />
    <path
       id="path15"
       d="M 2640.42,2436.86 V 2177.24"
       style="fill:none;stroke:#231f20;stroke-width:2.5;stroke-linecap:butt;stroke-linejoin:miter;stroke-miterlimit:3.86371;stroke-dasharray:none;stroke-opacity:1"
       transform="matrix(0.13333333,0,0,-0.13333333,0,332)" />
    <path
       id="path16"
       d="m 2640.42,2434.36 h -15 l 15,37.5 15,-37.5 h -15"
       style="fill:#231f20;fill-opacity:1;fill-rule:evenodd;stroke:none"
       transform="matrix(0.13333333,0,0,-0.13333333,0,332)" />
    <path
       id="path17"
       d="m 3315.09,2173.3 h 259.62"
       style="fill:none;stroke:#231f20;stroke-width:2.5;stroke-linecap:butt;stroke-linejoin:miter;stroke-miterlimit:3.86371;stroke-dasharray:none;stroke-opacity:1"
       transform="matrix(0.13333333,0,0,-0.13333333,0,332)" />
    <path
       id="path18"
       d="m 3572.21,2173.3 v 15 l 37.5,-15 -37.5,-15 v 15"
       style="fill:#231f20;fill-opacity:1;fill-rule:evenodd;stroke:none"
       transform="matrix(0.13333333,0,0,-0.13333333,0,332)" />
    <path
       id="path19"
       d="m 3136.56,2246.64 c 28.72,66.4 94.81,112.86 171.75,112.86 103.3,0 186.91,-79.97 186.91,-183.27"
       style="fill:none;stroke:#231f20;stroke-width:2.5;stroke-linecap:butt;stroke-linejoin:miter;stroke-miterlimit:3.86371;stroke-dasharray:none;stroke-opacity:1"
       transform="matrix(0.13333333,0,0,-0.13333333,0,332)" />
    <path
       id="path20"
       d="m 3137.54,2248.95 13.81,-5.86 -28.46,-28.66 0.84,40.38 13.81,-5.86"
       style="fill:#231f20;fill-opacity:1;fill-rule:evenodd;stroke:none"
       transform="matrix(0.13333333,0,0,-0.13333333,0,332)" />
    <path
       id="path21"
       d="M 3315.09,2432.92 V 2173.3"
       style="fill:none;stroke:#231f20;stroke-width:2.5;stroke-linecap:butt;stroke-linejoin:miter;stroke-miterlimit:3.86371;stroke-dasharray:none;stroke-opacity:1"
       transform="matrix(0.13333333,0,0,-0.13333333,0,332)" />
    <path
       id="path22"
       d="m 3315.09,2430.42 h -15 l 15,37.5 15,-37.5 h -15"
       style="fill:#231f20;fill-opacity:1;fill-rule:evenodd;stroke:none"
       transform="matrix(0.13333333,0,0,-0.13333333,0,332)" />
    <path
       id="path23"
       d="m 3998.27,2173.3 h 259.61"
       style="fill:none;stroke:#231f20;stroke-width:2.5;stroke-linecap:butt;stroke-linejoin:miter;stroke-miterlimit:3.86371;stroke-dasharray:none;stroke-opacity:1"
       transform="matrix(0.13333333,0,0,-0.13333333,0,332)" />
    <path
       id="path24"
       d="m 4255.38,2173.3 v 15 l 37.5,-15 -37.5,-15 v 15"
       style="fill:#231f20;fill-opacity:1;fill-rule:evenodd;stroke:none"
       transform="matrix(0.13333333,0,0,-0.13333333,0,332)" />
    <path
       id="path25"
       d="m 3819.74,2246.64 c 28.71,66.4 94.8,112.86 171.74,112.86 103.3,0 186.92,-79.97 186.92,-183.27"
       style="fill:none;stroke:#231f20;stroke-width:2.5;stroke-linecap:butt;stroke-linejoin:miter;stroke-miterlimit:3.86371;stroke-dasharray:none;stroke-opacity:1"
       transform="matrix(0.13333333,0,0,-0.13333333,0,332)" />
    <path
       id="path26"
       d="m 3820.71,2248.95 13.81,-5.86 -28.46,-28.66 0.85,40.38 13.8,-5.86"
       style="fill:#231f20;fill-opacity:1;fill-rule:evenodd;stroke:none"
       transform="matrix(0.13333333,0,0,-0.13333333,0,332)" />
    <path
       id="path27"
       d="M 3998.27,2432.92 V 2173.3"
       style="fill:none;stroke:#231f20;stroke-width:2.5;stroke-linecap:butt;stroke-linejoin:miter;stroke-miterlimit:3.86371;stroke-dasharray:none;stroke-opacity:1"
       transform="matrix(0.13333333,0,0,-0.13333333,0,332)" />
    <path
       id="path28"
       d="m 3998.27,2430.42 h -15 l 15,37.5 15,-37.5 h -15"
       style="fill:#231f20;fill-opacity:1;fill-rule:evenodd;stroke:none"
       transform="matrix(0.13333333,0,0,-0.13333333,0,332)" />
    <path
       id="path29"
       d="m 2701.25,68.4727 h 259.62"
       style="fill:none;stroke:#231f20;stroke-width:2.5;stroke-linecap:butt;stroke-linejoin:miter;stroke-miterlimit:3.86371;stroke-dasharray:none;stroke-opacity:1"
       transform="matrix(0.13333333,0,0,-0.13333333,0,332)" />
    <path
       id="path30"
       d="m 2958.37,68.4727 v 15 l 37.5,-15 -37.5,-15 v 15"
       style="fill:#231f20;fill-opacity:1;fill-rule:evenodd;stroke:none"
       transform="matrix(0.13333333,0,0,-0.13333333,0,332)" />
    <path
       id="path31"
       d="m 2522.73,141.816 c 28.71,66.395 94.8,112.856 171.75,112.856 103.29,0 186.91,-79.969 186.91,-183.2657"
       style="fill:none;stroke:#231f20;stroke-width:2.5;stroke-linecap:butt;stroke-linejoin:miter;stroke-miterlimit:3.86371;stroke-dasharray:none;stroke-opacity:1"
       transform="matrix(0.13333333,0,0,-0.13333333,0,332)" />
    <path
       id="path32"
       d="m 2523.7,144.117 13.81,-5.863 -28.46,-28.656 0.84,40.379 13.81,-5.86"
       style="fill:#231f20;fill-opacity:1;fill-rule:evenodd;stroke:none"
       transform="matrix(0.13333333,0,0,-0.13333333,0,332)" />
    <path
       id="path33"
       d="M 2701.25,328.09 V 68.4727"
       style="fill:none;stroke:#231f20;stroke-width:2.5;stroke-linecap:butt;stroke-linejoin:miter;stroke-miterlimit:3.86371;stroke-dasharray:none;stroke-opacity:1"
       transform="matrix(0.13333333,0,0,-0.13333333,0,332)" />
    <path
       id="path34"
       d="m 2701.25,325.59 h -15 l 15,37.5 15,-37.5 h -15"
       style="fill:#231f20;fill-opacity:1;fill-rule:evenodd;stroke:none"
       transform="matrix(0.13333333,0,0,-0.13333333,0,332)" />
    <path
       id="path35"
       d="m 2702.3,1054.39 h 259.62"
       style="fill:none;stroke:#231f20;stroke-width:2.5;stroke-linecap:butt;stroke-linejoin:miter;stroke-miterlimit:3.86371;stroke-dasharray:none;stroke-opacity:1"
       transform="matrix(0.13333333,0,0,-0.13333333,0,332)" />
    <path
       id="path36"
       d="m 2959.42,1054.39 v 15 l 37.5,-15 -37.5,-15 v 15"
       style="fill:#231f20;fill-opacity:1;fill-rule:evenodd;stroke:none"
       transform="matrix(0.13333333,0,0,-0.13333333,0,332)" />
    <path
       id="path37"
       d="m 2523.77,1127.73 c 28.71,66.4 94.8,112.86 171.75,112.86 103.3,0 186.91,-79.97 186.91,-183.27"
       style="fill:none;stroke:#231f20;stroke-width:2.5;stroke-linecap:butt;stroke-linejoin:miter;stroke-miterlimit:3.86371;stroke-dasharray:none;stroke-opacity:1"
       transform="matrix(0.13333333,0,0,-0.13333333,0,332)" />
    <path
       id="path38"
       d="m 2524.75,1130.03 13.81,-5.86 -28.46,-28.66 0.84,40.38 13.81,-5.86"
       style="fill:#231f20;fill-opacity:1;fill-rule:evenodd;stroke:none"
       transform="matrix(0.13333333,0,0,-0.13333333,0,332)" />
    <path
       id="path39"
       d="M 2702.3,1314.01 V 1054.39"
       style="fill:none;stroke:#231f20;stroke-width:2.5;stroke-linecap:butt;stroke-linejoin:miter;stroke-miterlimit:3.86371;stroke-dasharray:none;stroke-opacity:1"
       transform="matrix(0.13333333,0,0,-0.13333333,0,332)" />
    <path
       id="path40"
       d="m 2702.3,1311.51 h -15 l 15,37.5 15,-37.5 h -15"
       style="fill:#231f20;fill-opacity:1;fill-rule:evenodd;stroke:none"
       transform="matrix(0.13333333,0,0,-0.13333333,0,332)" />
    <path
       id="path41"
       d="m 2618.45,1256.47 h 43.03 v -43.04 h -43.03 v 43.04"
       style="fill:#ffffff;fill-opacity:1;fill-rule:nonzero;stroke:none"
       transform="matrix(0.13333333,0,0,-0.13333333,0,332)" />
    <path
       id="path42"
       d="m 2614.3,270.66 h 45 v -41.25 h -45 v 41.25"
       style="fill:#ffffff;fill-opacity:1;fill-rule:nonzero;stroke:none"
       transform="matrix(0.13333333,0,0,-0.13333333,0,332)" />
    <path
       id="path43"
       d="M 2638.44,61.6445 V 2044.34 h 1338.82"
       style="fill:none;stroke:#231f20;stroke-width:15.001;stroke-linecap:butt;stroke-linejoin:miter;stroke-miterlimit:3.86371;stroke-dasharray:none;stroke-opacity:1"
       transform="matrix(0.13333333,0,0,-0.13333333,0,332)" />
    <g
       id="g43"
       aria-label="7&#10;8&#10;9&#10;10&#10;11&#10;12&#10;13&#10;14&#10;15&#10;1&#10;2&#10;3&#10;4&#10;5&#10;6&#10;1&#10;2&#10;3&#10;4"
       transform="matrix(1.3333333,0,0,1.3334347,379.95067,36.784)">
      <path
         id="path44"
         d="m 2.1317266,-7.2993593 h 3.6210937 v 0.1874858 L 1.6746953,0.11804572 1.2411016,-0.08115789 4.8153203,-6.4322377 H 3.0926641 c -0.4804688,0 -0.8085938,0.035154 -0.984375,0.1171786 -0.1757813,0.093743 -0.375,0.2929465 -0.5976563,0.6210466 H 1.2879766 Z M -11.529406,-20.15678 c 0.351562,0.374971 0.609375,0.714789 0.761719,1.042889 0.164062,0.3281 0.246093,0.644482 0.246093,0.972582 0,0.585893 -0.222656,1.089761 -0.667968,1.53504 -0.445313,0.433561 -0.996094,0.644482 -1.640625,0.644482 -0.585938,0 -1.066407,-0.175768 -1.429688,-0.527303 -0.363281,-0.363254 -0.550781,-0.761661 -0.550781,-1.242094 0,-0.410125 0.152344,-0.796814 0.445312,-1.195221 0.304688,-0.38669 0.855469,-0.761661 1.6875,-1.124915 -0.316406,-0.386689 -0.527343,-0.714789 -0.65625,-0.972582 -0.105468,-0.246075 -0.164062,-0.503868 -0.164062,-0.749943 0,-0.480432 0.175781,-0.890557 0.539062,-1.230375 0.351563,-0.339818 0.808594,-0.515586 1.347657,-0.515586 0.515625,0 0.949218,0.140614 1.265625,0.445279 0.328125,0.292946 0.492187,0.644482 0.492187,1.042889 0,0.398407 -0.1289062,0.749943 -0.398437,1.078043 -0.257813,0.316382 -0.679688,0.585893 -1.277344,0.796815 z m -0.199219,-0.234358 c 0.375,-0.128896 0.691406,-0.351535 0.902344,-0.644482 0.199219,-0.304664 0.316406,-0.6562 0.316406,-1.042889 0,-0.363254 -0.105469,-0.644483 -0.304687,-0.855404 -0.210938,-0.210922 -0.480469,-0.316382 -0.820313,-0.316382 -0.316406,0 -0.574219,0.09374 -0.773437,0.292946 -0.199219,0.210922 -0.292969,0.468715 -0.292969,0.785097 0,0.234357 0.05859,0.456996 0.152344,0.667918 0.152343,0.292946 0.433593,0.667918 0.820312,1.113196 z m -0.738281,0.562458 c -0.539063,0.222639 -0.949219,0.539021 -1.230469,0.960864 -0.269531,0.421843 -0.398437,0.87884 -0.398437,1.359272 0,0.386689 0.117187,0.703071 0.363281,0.949146 0.234375,0.22264 0.5625,0.351536 0.949219,0.351536 0.410156,0 0.75,-0.140614 1.042968,-0.433561 0.269532,-0.281228 0.410157,-0.621046 0.410157,-1.019453 0,-0.316383 -0.07031,-0.621047 -0.234375,-0.949147 -0.164063,-0.339818 -0.480469,-0.738225 -0.902344,-1.218657 z m -21,26.0898135 V 6.0853656 c 0.375,-0.070307 0.691406,-0.1874857 0.972656,-0.3398179 0.480469,-0.2577929 0.914063,-0.5976108 1.300781,-0.9843002 0.386719,-0.3866894 0.726563,-0.8436859 1.03125,-1.3592717 -0.222656,0.1171786 -0.398437,0.1757679 -0.515625,0.2109215 -0.128906,0.035154 -0.257812,0.046871 -0.410156,0.046871 -0.539062,0 -0.960937,-0.1874857 -1.242187,-0.5507394 -0.28125,-0.3749715 -0.433594,-0.8085323 -0.433594,-1.2889645 0,-0.85540374 0.28125,-1.58191103 0.84375,-2.20295757 0.5625,-0.59761083 1.136719,-0.91399303 1.769531,-0.91399303 0.574219,0 1.007813,0.2109215 1.3125,0.64448226 0.304688,0.42184294 0.457031,0.93742875 0.457031,1.499886 0,0.72650724 -0.164062,1.44129674 -0.503906,2.14436824 -0.339844,0.7147894 -0.796875,1.3241181 -1.371094,1.8397039 -0.574218,0.503868 -1.183593,0.8905574 -1.816406,1.1366324 -0.375,0.1406143 -0.84375,0.2460751 -1.394531,0.2929469 z m 3.5625,-3.2927185 c 0.515625,-1.0311716 0.761719,-1.9451646 0.761719,-2.74197909 0,-0.39840721 -0.09375,-0.6913537 -0.28125,-0.91399303 -0.199219,-0.21092147 -0.421875,-0.31638218 -0.667969,-0.31638218 -0.421875,0 -0.820313,0.29294646 -1.160156,0.87883943 -0.351563,0.58589297 -0.527344,1.30068237 -0.527344,2.10921467 0,0.4335608 0.09375,0.749943 0.292969,0.9725823 0.199218,0.2109215 0.457031,0.3281001 0.75,0.3281001 0.140625,0 0.269531,-0.023436 0.386718,-0.070307 0.105469,-0.035154 0.269532,-0.1171786 0.445313,-0.2460752 z M 70.276258,-7.4399736 68.541883,-1.405276 c -0.09375,0.3515358 -0.152344,0.59761082 -0.152344,0.76166086 0,0.12889645 0.04687,0.23435718 0.128906,0.30466434 0.105469,0.0703072 0.316407,0.11717859 0.65625,0.14061431 L 69.116102,8.6712159e-4 H 66.350477 L 66.432508,-0.19833649 c 0.28125,-0.0117179 0.480469,-0.0351536 0.574219,-0.0703072 0.152343,-0.0585893 0.257812,-0.15233218 0.339843,-0.25779291 0.117188,-0.16405003 0.234375,-0.46871438 0.363282,-0.8788394 l 1.242187,-4.335608 c 0.07031,-0.2695107 0.117188,-0.4101251 0.117188,-0.4569965 0.01172,-0.058589 0.02344,-0.1288964 0.02344,-0.1992036 0,-0.1288965 -0.03516,-0.2226393 -0.09375,-0.2929465 -0.08203,-0.070307 -0.164062,-0.1054607 -0.292969,-0.1054607 -0.08203,0 -0.234375,0.023436 -0.433593,0.058589 l -0.07031,-0.1992036 1.816406,-0.503868 z m 4.713867,0 c 0.457031,0 0.84375,0.1874858 1.148438,0.5741751 0.328125,0.3866894 0.480468,0.9960181 0.480468,1.8162682 0,0.7147895 -0.117187,1.4295789 -0.351562,2.167804 -0.234375,0.7382252 -0.5625,1.3709896 -0.984375,1.91001109 -0.339844,0.4335608 -0.691406,0.73822514 -1.054688,0.92571089 -0.222656,0.1171786 -0.457031,0.16405004 -0.75,0.16405004 -0.457031,0 -0.855468,-0.18748575 -1.160156,-0.56245725 -0.328125,-0.38668936 -0.480469,-0.99601807 -0.480469,-1.82798607 0,-0.8202502 0.152344,-1.6405003 0.480469,-2.4724683 0.363281,-0.9608645 0.832031,-1.6990896 1.40625,-2.2029576 0.386719,-0.3281001 0.796875,-0.4921501 1.265625,-0.4921501 z m 0.01172,0.2812286 c -0.210938,0 -0.421875,0.070307 -0.644531,0.2343572 -0.199219,0.1640501 -0.421875,0.5155858 -0.65625,1.0311717 -0.222657,0.5155858 -0.445313,1.1717859 -0.644532,1.992036 -0.28125,1.0663253 -0.410156,1.9686004 -0.410156,2.7185434 0,0.37497152 0.07031,0.64448229 0.246094,0.83196804 0.164062,0.18748575 0.363281,0.26951077 0.574219,0.26951077 0.222656,0 0.410156,-0.07030716 0.5625,-0.21092147 0.421875,-0.38668936 0.773437,-1.05460734 1.066406,-1.98031824 0.480469,-1.5350396 0.714844,-2.7771327 0.714844,-3.7379971 0,-0.3866894 -0.07031,-0.6796359 -0.234375,-0.8671216 C 75.412,-7.0650021 75.2245,-7.158745 75.001845,-7.158745 Z m -20.53418,-16.361061 -1.734375,6.034697 c -0.09375,0.351536 -0.152344,0.597611 -0.152344,0.761661 0,0.128897 0.04687,0.234358 0.128907,0.304665 0.105468,0.07031 0.316406,0.117178 0.65625,0.140614 l -0.05859,0.199204 h -2.765625 l 0.08203,-0.199204 c 0.28125,-0.01172 0.480469,-0.03515 0.574219,-0.07031 0.152344,-0.05859 0.257812,-0.152332 0.339844,-0.257793 0.117187,-0.16405 0.234375,-0.468714 0.363281,-0.87884 l 1.242187,-4.335607 c 0.07031,-0.269511 0.117188,-0.410126 0.117188,-0.456997 0.01172,-0.05859 0.02344,-0.128896 0.02344,-0.199204 0,-0.128896 -0.03516,-0.222639 -0.09375,-0.292946 -0.08203,-0.07031 -0.164062,-0.105461 -0.292968,-0.105461 -0.08203,0 -0.234375,0.02344 -0.433594,0.05859 l -0.07031,-0.199203 1.816407,-0.503868 z m 3.94043,0 -1.734375,6.034697 c -0.09375,0.351536 -0.152344,0.597611 -0.152344,0.761661 0,0.128897 0.04687,0.234358 0.128906,0.304665 0.105469,0.07031 0.316407,0.117178 0.65625,0.140614 l -0.05859,0.199204 h -2.765625 l 0.08203,-0.199204 c 0.28125,-0.01172 0.480469,-0.03515 0.574219,-0.07031 0.152343,-0.05859 0.257812,-0.152332 0.339843,-0.257793 0.117188,-0.16405 0.234375,-0.468714 0.363282,-0.87884 l 1.242187,-4.335607 c 0.07031,-0.269511 0.117188,-0.410126 0.117188,-0.456997 0.01172,-0.05859 0.02344,-0.128896 0.02344,-0.199204 0,-0.128896 -0.03516,-0.222639 -0.09375,-0.292946 -0.08203,-0.07031 -0.164062,-0.105461 -0.292969,-0.105461 -0.08203,0 -0.234375,0.02344 -0.433593,0.05859 l -0.07031,-0.199203 1.816406,-0.503868 z M 34.085828,-0.11631147 32.351453,5.9183861 c -0.09375,0.3515358 -0.152344,0.5976108 -0.152344,0.7616609 0,0.1288964 0.04687,0.2343572 0.128907,0.3046643 0.105468,0.070307 0.316406,0.1171786 0.65625,0.1406143 l -0.05859,0.1992036 h -2.765625 l 0.08203,-0.1992036 c 0.28125,-0.011718 0.480469,-0.035154 0.574219,-0.070307 0.152344,-0.058589 0.257812,-0.1523322 0.339844,-0.2577929 0.117187,-0.1640501 0.234375,-0.4687144 0.363281,-0.8788395 l 1.242187,-4.335608 c 0.07031,-0.2695107 0.117188,-0.410125 0.117188,-0.4569965 0.01172,-0.058589 0.02344,-0.12889643 0.02344,-0.19920359 0,-0.12889645 -0.03516,-0.22263933 -0.09375,-0.29294648 -0.08203,-0.0703072 -0.164062,-0.10546074 -0.292968,-0.10546074 -0.08203,0 -0.234375,0.0234357 -0.433594,0.0585893 l -0.07031,-0.19920361 1.816407,-0.50386795 z M 38.811414,7.3245292 H 35.166883 V 7.1253256 c 1.851562,-1.6170646 3.070312,-2.8943112 3.65625,-3.8083043 0.269531,-0.4218429 0.410156,-0.8788394 0.410156,-1.3358359 0,-0.3749715 -0.105469,-0.6913537 -0.339844,-0.9139931 -0.222656,-0.23435716 -0.527343,-0.35153576 -0.890625,-0.35153576 -0.503906,0 -0.914062,0.23435719 -1.242187,0.72650726 l -0.1875,-0.093743 c 0.1875,-0.45699647 0.457031,-0.82025011 0.808594,-1.07804301 0.351562,-0.24607505 0.726562,-0.38668936 1.125,-0.38668936 0.46875,0 0.855468,0.15233217 1.171875,0.48043223 0.316406,0.31638221 0.46875,0.70307154 0.46875,1.14835024 0,0.3163822 -0.04687,0.6093287 -0.164063,0.8788394 -0.175781,0.421843 -0.492187,0.8788395 -0.949219,1.417861 -0.703125,0.7850966 -1.640625,1.6990896 -2.8125,2.7302613 h 1.839844 c 0.292969,0 0.539063,-0.058589 0.726563,-0.1874858 0.1875,-0.1171786 0.328125,-0.2695108 0.410156,-0.4804322 h 0.210937 z m 99.512696,-14.7645028 -1.73438,6.0346976 c -0.0937,0.3515358 -0.15234,0.59761082 -0.15234,0.76166086 0,0.12889645 0.0469,0.23435718 0.12891,0.30466434 0.10547,0.0703072 0.3164,0.11717859 0.65625,0.14061431 l -0.0586,0.19920361159 h -2.76562 l 0.082,-0.19920361159 c 0.28125,-0.0117179 0.48047,-0.0351536 0.57422,-0.0703072 0.15234,-0.0585893 0.25781,-0.15233218 0.33984,-0.25779291 0.11719,-0.16405003 0.23438,-0.46871438 0.36328,-0.8788395 l 1.24219,-4.3356079 c 0.0703,-0.2695107 0.11719,-0.4101251 0.11719,-0.4569965 0.0117,-0.058589 0.0234,-0.1288964 0.0234,-0.1992036 0,-0.1288965 -0.0352,-0.2226393 -0.0937,-0.2929465 -0.082,-0.070307 -0.16407,-0.1054607 -0.29297,-0.1054607 -0.082,0 -0.23438,0.023436 -0.4336,0.058589 l -0.0703,-0.1992036 1.81641,-0.503868 z m 2.59277,3.4567685 v -0.1523321 c 0.86719,-0.1288965 1.5,-0.3984073 1.9336,-0.7733788 0.30468,-0.2695107 0.45703,-0.5976108 0.45703,-0.9725823 0,-0.2929465 -0.082,-0.5155858 -0.25781,-0.7030715 -0.1875,-0.1874858 -0.39844,-0.2812287 -0.65625,-0.2812287 -0.39844,0 -0.75,0.2460751 -1.06641,0.7382252 l -0.19922,-0.058589 c 0.1875,-0.4101251 0.43359,-0.7265073 0.71484,-0.9374288 0.30469,-0.1992036 0.6211,-0.3163822 0.96094,-0.3163822 0.4336,0 0.77344,0.1288965 1.03125,0.3749715 0.25781,0.2577929 0.38672,0.5741751 0.38672,0.9608645 0,0.3281 -0.11719,0.6444823 -0.36328,0.9608645 -0.24609,0.2929464 -0.66797,0.5624572 -1.27734,0.8085323 0.375,0.1523321 0.66796,0.3749715 0.85546,0.6562001 0.1875,0.2929465 0.28125,0.6444822 0.28125,1.0546073 0,0.4335608 -0.1289,0.8905573 -0.38671,1.335836 -0.25782,0.45699651 -0.60938,0.79681443 -1.06641,1.04288947 -0.44531,0.24607505159 -0.92578,0.36325365 -1.41797,0.36325365 -0.44531,0 -0.79687,-0.07030716 -1.01953,-0.22263933 -0.15234,-0.1171786 -0.23438,-0.24607505 -0.23438,-0.38668936 0,-0.12889646 0.0469,-0.23435719 0.12891,-0.31638221 0.10547,-0.0937429 0.21094,-0.14061431 0.33984,-0.14061431 0.10547,0 0.1875,0.0117179 0.28125,0.0468714 0.0586,0.0234357 0.19922,0.0937429 0.42188,0.22263933 0.22266,0.11717859 0.39844,0.21092147 0.53906,0.23435719 0.11719,0.0468714 0.2461,0.0703071 0.375,0.0703071 0.32813,0 0.58594,-0.18748575 0.79688,-0.56245725 0.21093,-0.37497148 0.3164,-0.77337868 0.3164,-1.19522168 0,-0.3398179 -0.0586,-0.6562001 -0.21093,-0.913993 -0.14063,-0.2695108 -0.36329,-0.4804323 -0.66797,-0.6562001 -0.30469,-0.1757679 -0.63282,-0.2577929 -0.9961,-0.2812289 z m -17.88867,-19.5366009 -1.73437,6.034697 c -0.0937,0.351536 -0.15235,0.597611 -0.15235,0.761661 0,0.128897 0.0469,0.234358 0.12891,0.304665 0.10547,0.07031 0.3164,0.117178 0.65625,0.140614 l -0.0586,0.199204 h -2.76562 l 0.082,-0.199204 c 0.28125,-0.01172 0.48047,-0.03515 0.57422,-0.07031 0.15234,-0.05859 0.25781,-0.152332 0.33984,-0.257793 0.11719,-0.16405 0.23438,-0.468714 0.36328,-0.87884 l 1.24219,-4.335607 c 0.0703,-0.269511 0.11719,-0.410126 0.11719,-0.456997 0.0117,-0.05859 0.0234,-0.128896 0.0234,-0.199204 0,-0.128896 -0.0352,-0.222639 -0.0937,-0.292946 -0.082,-0.07031 -0.16407,-0.105461 -0.29297,-0.105461 -0.082,0 -0.23438,0.02344 -0.4336,0.05859 l -0.0703,-0.199203 1.81641,-0.503868 z m 6.26074,0.140614 -1.38281,4.792605 h 0.85547 l -0.1875,0.667918 h -0.86719 l -0.5625,1.956882 h -0.78515 l 0.5625,-1.956882 h -2.64844 l 0.23437,-0.761661 4.3711,-4.698862 z m -1.19531,1.394425 -3.12891,3.39818 h 2.14454 z M 102.77235,0.27916628 101.03798,6.3138639 c -0.0937,0.3515357 -0.15235,0.5976108 -0.15235,0.7616608 0,0.1288965 0.0469,0.2343572 0.12891,0.3046644 0.10547,0.070307 0.31641,0.1171786 0.65625,0.1406143 l -0.0586,0.1992036 h -2.76563 l 0.08203,-0.1992036 c 0.28125,-0.011718 0.480468,-0.035154 0.574218,-0.070307 0.152344,-0.058589 0.257813,-0.1523322 0.339844,-0.2577929 0.117188,-0.16405 0.234378,-0.4687144 0.363288,-0.8788394 l 1.24218,-4.335608 c 0.0703,-0.2695108 0.11719,-0.4101251 0.11719,-0.4569965 0.0117,-0.058589 0.0234,-0.1288965 0.0234,-0.1992036 0,-0.1288965 -0.0352,-0.2226394 -0.0937,-0.2929465 -0.082,-0.0703072 -0.16406,-0.10546075 -0.29297,-0.10546075 -0.082,0 -0.23438,0.0234357 -0.43359,0.0585893 l -0.0703,-0.19920361 1.81641,-0.50386795 z m 3.74121,0.14061431 h 2.4375 l -0.25781,0.90227521 h -2.20312 l -0.38672,0.8905573 c 0.57422,0.082025 1.03125,0.2695107 1.35937,0.5390215 0.49219,0.4101251 0.75,1.0077359 0.75,1.7576789 0,0.4921501 -0.0937,0.9491466 -0.28125,1.3475538 -0.1875,0.4101251 -0.39844,0.7382252 -0.67969,1.0194538 -0.25781,0.2695108 -0.55078,0.4804322 -0.84375,0.6444823 -0.42187,0.2109214 -0.83203,0.3163822 -1.2539,0.3163822 -0.36328,0 -0.65625,-0.070307 -0.85547,-0.2226393 -0.15234,-0.1171786 -0.22266,-0.2460751 -0.22266,-0.4101251 0,-0.1288965 0.0469,-0.2460751 0.14063,-0.3281001 0.0937,-0.1054607 0.21094,-0.1523322 0.33984,-0.1523322 0.1875,0 0.39844,0.1054608 0.64453,0.2929465 0.14063,0.1171786 0.2461,0.1992036 0.35157,0.2460751 0.0703,0.023436 0.16406,0.035153 0.25781,0.035153 0.41015,0 0.78515,-0.1992036 1.125,-0.5976108 0.33984,-0.4101251 0.5039,-0.9257109 0.5039,-1.581911 0,-0.4452787 -0.082,-0.8202502 -0.26953,-1.1366324 -0.17578,-0.3163822 -0.41015,-0.5390215 -0.6914,-0.6796358 -0.28125,-0.1171786 -0.65625,-0.1992036 -1.11328,-0.2577929 z M 10.15907,202.81944 8.4246953,208.85413 c -0.09375,0.35154 -0.1523437,0.59761 -0.1523437,0.76166 0,0.1289 0.046875,0.23436 0.1289062,0.30467 0.1054688,0.0703 0.3164063,0.11718 0.65625,0.14061 l -0.058594,0.19921 h -2.765625 l 0.082031,-0.19921 c 0.28125,-0.0117 0.4804688,-0.0351 0.5742188,-0.0703 0.1523437,-0.0586 0.2578125,-0.15234 0.3398437,-0.2578 0.1171875,-0.16405 0.234375,-0.46871 0.3632813,-0.87884 l 1.2421875,-4.3356 c 0.070312,-0.26952 0.1171875,-0.41013 0.1171875,-0.457 0.011719,-0.0586 0.023437,-0.1289 0.023437,-0.1992 0,-0.1289 -0.035156,-0.22264 -0.09375,-0.29295 -0.082031,-0.0703 -0.1640625,-0.10546 -0.2929688,-0.10546 -0.082031,0 -0.234375,0.0234 -0.4335937,0.0586 l -0.070312,-0.19921 1.8164062,-0.50386 z m -16.0078122,-8.63607 h -3.6445312 v -0.1992 c 1.8515625,-1.61706 3.0703125,-2.89431 3.65625,-3.8083 0.2695312,-0.42185 0.4101562,-0.87884 0.4101562,-1.33584 0,-0.37497 -0.1054687,-0.69135 -0.3398437,-0.91399 -0.2226563,-0.23436 -0.5273438,-0.35154 -0.890625,-0.35154 -0.5039063,0 -0.9140625,0.23436 -1.2421875,0.72651 l -0.1875,-0.0937 c 0.1875,-0.457 0.4570312,-0.82025 0.8085937,-1.07805 0.3515625,-0.24607 0.7265625,-0.38669 1.125,-0.38669 0.46875,0 0.8554688,0.15234 1.171875,0.48044 0.3164063,0.31638 0.46875,0.70307 0.46875,1.14835 0,0.31638 -0.046875,0.60932 -0.1640625,0.87883 -0.1757812,0.42185 -0.4921875,0.87884 -0.9492187,1.41787 -0.703125,0.78509 -1.640625,1.69909 -2.8125,2.73026 h 1.8398437 c 0.2929688,0 0.5390625,-0.0586 0.7265625,-0.18749 0.1875,-0.11718 0.328125,-0.26951 0.4101563,-0.48043 h 0.2109375 z m -26.0361328,19.19972 v -0.15234 c 0.867188,-0.12889 1.5,-0.3984 1.933594,-0.77337 0.304687,-0.26952 0.457031,-0.59762 0.457031,-0.97259 0,-0.29294 -0.08203,-0.51558 -0.257812,-0.70307 -0.1875,-0.18748 -0.398438,-0.28123 -0.65625,-0.28123 -0.398438,0 -0.75,0.24608 -1.066407,0.73823 l -0.199218,-0.0586 c 0.1875,-0.41013 0.433593,-0.72651 0.714843,-0.93743 0.304688,-0.1992 0.621094,-0.31638 0.960938,-0.31638 0.433594,0 0.773437,0.12889 1.03125,0.37497 0.257812,0.25779 0.386719,0.57417 0.386719,0.96086 0,0.3281 -0.117188,0.64449 -0.363282,0.96087 -0.246093,0.29294 -0.667968,0.56246 -1.277343,0.80853 0.375,0.15233 0.667968,0.37497 0.855468,0.6562 0.1875,0.29295 0.28125,0.64448 0.28125,1.05461 0,0.43356 -0.128906,0.89056 -0.386718,1.33583 -0.257813,0.457 -0.609375,0.79682 -1.066407,1.04289 -0.445312,0.24608 -0.925781,0.36326 -1.417968,0.36326 -0.445313,0 -0.796875,-0.0703 -1.019532,-0.22264 -0.152343,-0.11718 -0.234375,-0.24608 -0.234375,-0.38669 0,-0.1289 0.04687,-0.23436 0.128907,-0.31638 0.105468,-0.0937 0.210937,-0.14062 0.339843,-0.14062 0.105469,0 0.1875,0.0117 0.28125,0.0469 0.05859,0.0234 0.199219,0.0937 0.421875,0.22264 0.222657,0.11718 0.398438,0.21092 0.539063,0.23436 0.117187,0.0469 0.246094,0.0703 0.375,0.0703 0.328125,0 0.585937,-0.18749 0.796875,-0.56246 0.210937,-0.37497 0.316406,-0.77338 0.316406,-1.19522 0,-0.33982 -0.05859,-0.6562 -0.210937,-0.91399 -0.140625,-0.26952 -0.363282,-0.48044 -0.667969,-0.65621 -0.304688,-0.17576 -0.632813,-0.25779 -0.996094,-0.28122 z m 43.50293,-109.74362 -1.382813,4.79261 h 0.855469 l -0.1875,0.66792 h -0.867188 l -0.5624996,1.95688 H 8.6883672 L 9.2508672,109.1 H 6.6024297 l 0.234375,-0.76166 4.3710933,-4.69887 z m -1.195313,1.39443 -3.1289061,3.39818 H 9.4383672 Z M -6.1358516,87.562571 h 2.4375 l -0.2578125,0.902275 h -2.203125 l -0.3867187,0.890558 c 0.5742187,0.08203 1.03125,0.269511 1.359375,0.539021 0.4921875,0.410125 0.75,1.007736 0.75,1.757679 0,0.49215 -0.09375,0.949147 -0.28125,1.347554 -0.1875,0.410125 -0.3984375,0.738225 -0.6796875,1.019454 -0.2578125,0.269511 -0.5507813,0.480432 -0.84375,0.644482 -0.421875,0.210922 -0.8320313,0.316382 -1.2539063,0.316382 -0.3632812,0 -0.65625,-0.07031 -0.8554687,-0.222639 -0.1523438,-0.117179 -0.2226563,-0.246075 -0.2226563,-0.410125 0,-0.128897 0.046875,-0.246075 0.140625,-0.3281 0.09375,-0.105461 0.2109375,-0.152332 0.3398438,-0.152332 0.1875,0 0.3984375,0.10546 0.6445312,0.292946 0.140625,0.117179 0.2460938,0.199204 0.3515625,0.246075 0.070312,0.02344 0.1640625,0.03515 0.2578125,0.03515 0.4101563,0 0.7851563,-0.199204 1.125,-0.597611 0.3398438,-0.410125 0.5039063,-0.925711 0.5039063,-1.581911 0,-0.445279 -0.082031,-0.82025 -0.2695313,-1.136632 -0.1757812,-0.316383 -0.4101562,-0.539022 -0.6914062,-0.679636 -0.28125,-0.117179 -0.65625,-0.199204 -1.1132813,-0.257793 z M -28.27843,111.61348 v 0.21092 c -0.621093,0.14061 -1.207031,0.457 -1.78125,0.90227 -0.574218,0.46872 -1.078125,1.05461 -1.523437,1.7694 0.386719,-0.16405 0.703125,-0.23436 0.949219,-0.23436 0.457031,0 0.84375,0.16405 1.171875,0.49215 0.316406,0.3281 0.480468,0.77338 0.480468,1.32412 0,0.85541 -0.28125,1.59363 -0.832031,2.19124 -0.539062,0.60933 -1.136719,0.90228 -1.78125,0.90228 -0.574219,0 -1.019531,-0.21092 -1.3125,-0.63277 -0.304687,-0.43356 -0.457031,-0.92571 -0.457031,-1.48817 0,-0.73822 0.164062,-1.46473 0.503906,-2.17952 0.339844,-0.70307 0.808594,-1.3124 1.394531,-1.8397 0.574219,-0.50387 1.183594,-0.89056 1.816407,-1.12492 0.363281,-0.15233 0.820312,-0.23435 1.371093,-0.29294 z m -3.550781,3.33959 c -0.515625,1.08976 -0.773437,2.00375 -0.773437,2.74198 0,0.37497 0.09375,0.67963 0.28125,0.90227 0.199218,0.21092 0.421875,0.3281 0.679687,0.3281 0.410156,0 0.796875,-0.30466 1.148438,-0.89056 0.363281,-0.60932 0.539062,-1.30068 0.539062,-2.08577 0,-0.42185 -0.09375,-0.74995 -0.304687,-0.97259 -0.210938,-0.23435 -0.457032,-0.33981 -0.761719,-0.33981 -0.128906,0 -0.234375,0.0117 -0.363281,0.0586 -0.105469,0.0352 -0.257813,0.11718 -0.445313,0.2578 z m 0,0"
         style="fill:#231f20;fill-opacity:1;fill-rule:nonzero;stroke:none" />
      <path
         id="path45"
         d="m -31.794055,166.26557 h -1.511718 v -5.69488 c -0.550782,0.51559 -1.195313,0.89056 -1.945313,1.13664 v -1.37099 c 0.398438,-0.1289 0.832031,-0.37497 1.289063,-0.73823 0.457031,-0.35153 0.773437,-0.77338 0.949218,-1.25381 h 1.21875 z m 0.694336,-100.515794 v 1.394425 h -5.296875 c 0.05859,-0.527303 0.234375,-1.031171 0.527344,-1.511604 0.28125,-0.468714 0.84375,-1.101478 1.6875,-1.886575 0.679688,-0.644482 1.101563,-1.066325 1.253906,-1.300682 0.210938,-0.304665 0.316407,-0.621047 0.316407,-0.925711 0,-0.3281 -0.09375,-0.597611 -0.28125,-0.773379 -0.175782,-0.187486 -0.433594,-0.269511 -0.75,-0.269511 -0.304688,0 -0.5625,0.09374 -0.75,0.281229 -0.1875,0.187486 -0.28125,0.515586 -0.316407,0.949147 l -1.511718,-0.152333 c 0.09375,-0.82025 0.375,-1.429578 0.855468,-1.792832 0.46875,-0.363254 1.054688,-0.539022 1.769532,-0.539022 0.785156,0 1.382812,0.210922 1.828125,0.621047 0.445312,0.421843 0.667968,0.949147 0.667968,1.581911 0,0.351536 -0.07031,0.691354 -0.1875,1.007736 -0.128906,0.316382 -0.328125,0.6562 -0.597656,1.007736 -0.1875,0.234357 -0.527344,0.574175 -0.996094,1.007736 -0.480468,0.445278 -0.785156,0.738225 -0.914062,0.878839 -0.117188,0.140614 -0.234375,0.281229 -0.304688,0.421843 z M 11.231336,28.630527 12.69618,28.454759 c 0.03516,0.363254 0.175781,0.6562 0.363281,0.855404 0.199219,0.199203 0.457031,0.292946 0.738281,0.292946 0.316406,0 0.574219,-0.117178 0.785156,-0.351535 0.210938,-0.246075 0.316407,-0.562458 0.316407,-0.960865 0,-0.374971 -0.09375,-0.679636 -0.304688,-0.913993 -0.199219,-0.210921 -0.445312,-0.3281 -0.738281,-0.3281 -0.199219,0 -0.433594,0.03515 -0.691406,0.117179 l 0.164062,-1.230376 c 0.410156,0.01172 0.714844,-0.07031 0.9375,-0.257793 0.210938,-0.187485 0.316406,-0.445278 0.316406,-0.76166 0,-0.257793 -0.07031,-0.468715 -0.234375,-0.621047 -0.164062,-0.16405 -0.375,-0.246075 -0.632812,-0.246075 -0.257813,0 -0.46875,0.08203 -0.65625,0.269511 -0.175781,0.175768 -0.292969,0.445278 -0.339844,0.785096 l -1.382812,-0.246075 c 0.105468,-0.468714 0.246093,-0.855403 0.445312,-1.136632 0.199219,-0.292947 0.457031,-0.515586 0.808594,-0.679636 0.351562,-0.175768 0.738281,-0.246075 1.183594,-0.246075 0.738281,0 1.324218,0.246075 1.78125,0.714789 0.363281,0.38669 0.550781,0.820251 0.550781,1.312401 0,0.703071 -0.375,1.253811 -1.136719,1.663936 0.445313,0.09374 0.808594,0.316382 1.078125,0.6562 0.269531,0.3281 0.410156,0.738225 0.410156,1.218657 0,0.691354 -0.257812,1.277247 -0.761718,1.769397 -0.503907,0.49215 -1.136719,0.726507 -1.886719,0.726507 -0.714844,0 -1.289063,-0.210921 -1.769531,-0.609328 -0.457032,-0.410125 -0.738282,-0.949147 -0.808594,-1.617065 z m 70.59668,1.948094 V 28.99671 h -3.210938 v -1.324118 l 3.410156,-5.003526 h 1.265625 v 5.003526 h 0.972657 v 1.324118 h -0.972657 v 1.581911 z m 0,-2.906029 v -2.68339 l -1.804688,2.68339 z m 0,0"
         style="fill:#231f20;fill-opacity:1;fill-rule:nonzero;stroke:none" />
    </g>
    <path
       id="path46"
       d="M 459.242,2175.23 H 1671.71"
       style="fill:none;stroke:#231f20;stroke-width:2.5;stroke-linecap:butt;stroke-linejoin:miter;stroke-miterlimit:3.86371;stroke-dasharray:none;stroke-opacity:1"
       transform="matrix(0.13333333,0,0,-0.13333333,0,332)" />
    <path
       id="path47"
       d="m 461.742,2175.23 v -15 l -37.5,15 37.5,15 v -15"
       style="fill:#231f20;fill-opacity:1;fill-rule:evenodd;stroke:none"
       transform="matrix(0.13333333,0,0,-0.13333333,0,332)" />
    <path
       id="path48"
       d="m 1669.21,2175.23 v 15 l 37.5,-15 -37.5,-15 v 15"
       style="fill:#231f20;fill-opacity:1;fill-rule:evenodd;stroke:none"
       transform="matrix(0.13333333,0,0,-0.13333333,0,332)" />
    <path
       id="path49"
       d="M 4.1612844,9.1399212e-4 H 0.18862812 V -0.21000727 C 2.2042531,-1.9794023 3.5401906,-3.3738261 4.1730031,-4.3698432 c 0.3046875,-0.4687139 0.4570313,-0.9608635 0.4570313,-1.4647309 0,-0.3984069 -0.1171875,-0.7382244 -0.3632813,-0.9960171 -0.2578125,-0.2460748 -0.5859375,-0.3749711 -0.9726562,-0.3749711 -0.5625,0 -0.9960938,0.2577926 -1.359375,0.7850958 l -0.2109375,-0.093743 c 0.2109375,-0.5038675 0.4921875,-0.9022743 0.8789062,-1.1717848 0.3867188,-0.2812283 0.796875,-0.4218425 1.2421875,-0.4218425 0.5039063,0 0.9257813,0.1640499 1.265625,0.5155853 0.3515625,0.3515354 0.515625,0.7616601 0.515625,1.2538097 0,0.3515354 -0.058594,0.6679173 -0.1757812,0.9608635 -0.1875,0.4569961 -0.5390625,0.9608635 -1.0429688,1.5350381 -0.7734375,0.8671207 -1.7929687,1.8631377 -3.0585937,2.98805111 h 2.0039062 c 0.3164063,0 0.5859375,-0.0703071 0.7851563,-0.19920341 0.2109375,-0.1288963 0.3632812,-0.304664 0.4453125,-0.5273031 H 4.8292531 Z M 11.599761,-5.307271 l -0.75,2.6482336 c 0.339844,-0.621046 0.644531,-1.078042 0.878906,-1.3944239 0.386719,-0.4921496 0.761719,-0.843685 1.125,-1.0546063 0.210938,-0.1288963 0.433594,-0.1992034 0.667969,-0.1992034 0.1875,0 0.363281,0.070307 0.492187,0.1992034 0.128907,0.1288963 0.199219,0.2929462 0.199219,0.5038675 0,0.1874855 -0.04687,0.4335603 -0.140625,0.7382244 l -0.457031,1.4647309 c 0.679687,-1.1835026 1.324219,-2.0271876 1.921875,-2.5076194 0.339844,-0.2577926 0.65625,-0.3984068 0.984375,-0.3984068 0.1875,0 0.351562,0.082025 0.46875,0.2109213 0.117187,0.1288963 0.175781,0.3280997 0.175781,0.6210459 0,0.2343569 -0.03516,0.456996 -0.117187,0.7030708 l -0.726563,2.2615446 c -0.164062,0.4921496 -0.246094,0.77337799 -0.246094,0.82024938 0,0.0585892 0.02344,0.0937428 0.04687,0.14061417 0.02344,0.0234357 0.04687,0.0351535 0.08203,0.0351535 0.03516,0 0.105468,-0.0351535 0.199218,-0.10546063 0.199219,-0.17576772 0.386719,-0.39840682 0.5625,-0.67963512 l 0.1875,0.1288963 c -0.09375,0.152332 -0.257812,0.35153541 -0.492187,0.6210459 -0.234375,0.2695105 -0.445313,0.45699606 -0.609375,0.53902099 -0.164063,0.09374279 -0.328125,0.14061418 -0.46875,0.14061418 -0.128906,0 -0.234375,-0.04687139 -0.328125,-0.14061418 -0.09375,-0.08202493 -0.140625,-0.19920341 -0.140625,-0.33981758 0,-0.17576771 0.09375,-0.56245669 0.28125,-1.12491331 l 0.621094,-1.8865735 c 0.128906,-0.4335603 0.210937,-0.6679173 0.210937,-0.7147887 0.03516,-0.070307 0.03516,-0.1406142 0.03516,-0.2226391 0,-0.093743 -0.03516,-0.1757677 -0.08203,-0.2226391 -0.04687,-0.058589 -0.105469,-0.082025 -0.164062,-0.082025 -0.175782,0 -0.363282,0.082025 -0.5625,0.2460748 -0.574219,0.4921495 -1.125,1.1952203 -1.628907,2.0857767 -0.339843,0.5976103 -0.65625,1.34755258 -0.9375,2.27326254212 H 11.998198 L 13.064605,-3.537876 c 0.117187,-0.386689 0.175781,-0.6327638 0.175781,-0.7733779 0,-0.1054607 -0.02344,-0.1757678 -0.07031,-0.234357 -0.04687,-0.046871 -0.09375,-0.070307 -0.164062,-0.070307 -0.128906,0 -0.269531,0.046871 -0.421875,0.1406142 -0.234375,0.1406142 -0.550781,0.4804317 -0.925781,0.9725813 -0.375,0.5038675 -0.667969,0.9842992 -0.878907,1.4412953 -0.105468,0.2109213 -0.339843,0.9022743 -0.714843,2.06234119212 H 9.1974172 L 10.29898,-3.7956686 10.439605,-4.2878183 c 0.02344,-0.070307 0.03516,-0.1288963 0.03516,-0.1640498 0,-0.082025 -0.03516,-0.1640499 -0.117188,-0.2226391 -0.07031,-0.082025 -0.175781,-0.1171785 -0.304687,-0.1171785 -0.04687,0 -0.1875001,0.023436 -0.4218751,0.082025 l -0.046875,-0.2226391 z m 0,0"
       style="fill:#231f20;fill-opacity:1;fill-rule:nonzero;stroke:none"
       aria-label="2 m"
       transform="matrix(1.3333333,0,0,1.333436,127.14693,31.448)" />
    <path
       id="path50"
       d="m 1590.36,1841.58 h 243.96"
       style="fill:none;stroke:#a7a5a6;stroke-width:60.001;stroke-linecap:butt;stroke-linejoin:miter;stroke-miterlimit:3.86371;stroke-dasharray:none;stroke-opacity:1"
       transform="matrix(0.13333333,0,0,-0.13333333,0,332)" />
    <path
       id="path51"
       d="m 1661.82,1918.52 c 0,24.82 20.12,44.94 44.94,44.94 24.82,0 44.94,-20.12 44.94,-44.94 0,-24.82 -20.12,-44.94 -44.94,-44.94 -24.82,0 -44.94,20.12 -44.94,44.94"
       style="fill:#ffffff;fill-opacity:1;fill-rule:nonzero;stroke:none"
       transform="matrix(0.13333333,0,0,-0.13333333,0,332)" />
    <path
       id="path52"
       d="m 1661.82,1918.52 c 0,24.82 20.12,44.94 44.94,44.94 24.82,0 44.94,-20.12 44.94,-44.94 0,-24.82 -20.12,-44.94 -44.94,-44.94 -24.82,0 -44.94,20.12 -44.94,44.94 z"
       style="fill:none;stroke:#231f20;stroke-width:10.001;stroke-linecap:butt;stroke-linejoin:miter;stroke-miterlimit:3.86371;stroke-dasharray:none;stroke-opacity:1"
       transform="matrix(0.13333333,0,0,-0.13333333,0,332)" />
    <path
       id="path53"
       d="M 350.258,2100.82 H 1705.63 V 1970.29 H 350.258 v 130.53"
       style="fill:#d3d2d2;fill-opacity:1;fill-rule:nonzero;stroke:none"
       transform="matrix(0.13333333,0,0,-0.13333333,0,332)" />
    <path
       id="path54"
       d="M 350.258,2100.82 H 1705.63 V 1970.29 H 350.258 Z"
       style="fill:none;stroke:#231f20;stroke-width:2.5;stroke-linecap:butt;stroke-linejoin:miter;stroke-miterlimit:3.86371;stroke-dasharray:none;stroke-opacity:1"
       transform="matrix(0.13333333,0,0,-0.13333333,0,332)" />
    <path
       id="path55"
       d="M 350.258,2079.07 H 1705.63 v -87.03 H 350.258 v 87.03"
       style="fill:#e9e9e9;fill-opacity:1;fill-rule:nonzero;stroke:none"
       transform="matrix(0.13333333,0,0,-0.13333333,0,332)" />
    <path
       id="path56"
       d="M 350.258,2079.07 H 1705.63 v -87.03 H 350.258 Z"
       style="fill:none;stroke:#231f20;stroke-width:2.5;stroke-linecap:butt;stroke-linejoin:miter;stroke-miterlimit:3.86371;stroke-dasharray:none;stroke-opacity:1"
       transform="matrix(0.13333333,0,0,-0.13333333,0,332)" />
    <path
       id="path57"
       d="M 340.918,2101.99 H 502.801 V 66.9023 H 340.918 V 2101.99"
       style="fill:#d3d2d2;fill-opacity:1;fill-rule:nonzero;stroke:none"
       transform="matrix(0.13333333,0,0,-0.13333333,0,332)" />
    <path
       id="path58"
       d="M 340.918,2101.99 H 502.801 V 66.9023 H 340.918 Z"
       style="fill:none;stroke:#231f20;stroke-width:2.5;stroke-linecap:butt;stroke-linejoin:miter;stroke-miterlimit:3.86371;stroke-dasharray:none;stroke-opacity:1"
       transform="matrix(0.13333333,0,0,-0.13333333,0,332)" />
    <path
       id="path59"
       d="M 367.898,2101.99 H 475.82 V 66.9023 H 367.898 V 2101.99"
       style="fill:#e9e9e9;fill-opacity:1;fill-rule:nonzero;stroke:none"
       transform="matrix(0.13333333,0,0,-0.13333333,0,332)" />
    <path
       id="path60"
       d="M 367.898,2101.99 H 475.82 V 66.9023 H 367.898 Z"
       style="fill:none;stroke:#231f20;stroke-width:2.5;stroke-linecap:butt;stroke-linejoin:miter;stroke-miterlimit:3.86371;stroke-dasharray:none;stroke-opacity:1"
       transform="matrix(0.13333333,0,0,-0.13333333,0,332)" />
    <path
       id="path61"
       d="M 509.543,2102.08 V 1970.82"
       style="fill:none;stroke:#231f20;stroke-width:10;stroke-linecap:butt;stroke-linejoin:miter;stroke-miterlimit:3.86371;stroke-dasharray:none;stroke-opacity:1"
       transform="matrix(0.13333333,0,0,-0.13333333,0,332)" />
    <path
       id="path62"
       d="m 521.527,2093.49 v -21.98"
       style="fill:none;stroke:#231f20;stroke-width:10;stroke-linecap:butt;stroke-linejoin:miter;stroke-miterlimit:3.86371;stroke-dasharray:none;stroke-opacity:1"
       transform="matrix(0.13333333,0,0,-0.13333333,0,332)" />
    <path
       id="path63"
       d="m 521.527,2004.41 v -21.98"
       style="fill:none;stroke:#231f20;stroke-width:10;stroke-linecap:butt;stroke-linejoin:miter;stroke-miterlimit:3.86371;stroke-dasharray:none;stroke-opacity:1"
       transform="matrix(0.13333333,0,0,-0.13333333,0,332)" />
    <path
       id="path64"
       d="M 112.113,35.1055 H 825.449"
       style="fill:none;stroke:#a7a5a6;stroke-width:60;stroke-linecap:butt;stroke-linejoin:miter;stroke-miterlimit:3.86371;stroke-dasharray:none;stroke-opacity:1"
       transform="matrix(0.13333333,0,0,-0.13333333,0,332)" />
    <path
       id="path65"
       d="m 1.8400828,-4.3482667 v -0.1640499 c 0.9492188,-0.1406142 1.640625,-0.4335604 2.109375,-0.843685 0.3398438,-0.2929462 0.5039063,-0.6561995 0.5039063,-1.0663242 0,-0.304664 -0.09375,-0.5624566 -0.2929688,-0.7616601 -0.1992187,-0.2109212 -0.4335937,-0.304664 -0.703125,-0.304664 -0.4453125,0 -0.8320312,0.2695105 -1.1601562,0.8085315 l -0.2226563,-0.058589 c 0.2109375,-0.4569961 0.46875,-0.7968137 0.7851563,-1.0311706 0.3164062,-0.2226391 0.6679687,-0.3398176 1.0429687,-0.3398176 0.46875,0 0.8320313,0.1288963 1.1132813,0.4101247 0.2929687,0.2695104 0.4335937,0.6210459 0.4335937,1.0428884 0,0.3515354 -0.1289062,0.7030709 -0.3984375,1.0428884 -0.2695312,0.3163819 -0.7265625,0.621046 -1.3945312,0.8905565 0.4101562,0.1640498 0.7265625,0.3984068 0.9257812,0.7147887 0.2109375,0.3163818 0.3164063,0.691353 0.3164063,1.1366312 0,0.4804317 -0.140625,0.9725813 -0.421875,1.4647309 -0.2929688,0.49214964 -0.6679688,0.86712077 -1.1601563,1.13663126 -0.4921875,0.26951050029 -1.0078125,0.39840682 -1.546875,0.39840682 -0.4921875,0 -0.86718749,-0.08202493 -1.12499999,-0.2460748 -0.1640625,-0.11717847 -0.24609375,-0.26951049 -0.24609375,-0.42184251 0,-0.12889633 0.046875,-0.25779265 0.140625,-0.35153543 0.10546875,-0.0937428 0.234375,-0.14061414 0.375,-0.14061414 0.10546874,0 0.19921874,0.011718 0.29296874,0.0468714 0.082031,0.0234357 0.2226563,0.0937428 0.46875,0.2460748 0.2460938,0.12889632 0.4335938,0.2226391 0.5859375,0.25779265 0.1289063,0.0468714 0.2695313,0.0703071 0.4101563,0.0703071 0.3515625,0 0.6445312,-0.19920341 0.8671875,-0.60932805 0.234375,-0.4101247 0.3515625,-0.843685 0.3515625,-1.3123989 0,-0.3632533 -0.070312,-0.7030709 -0.234375,-0.9960171 C 3.5041453,-3.6100423 3.2697703,-3.8561171 2.9299266,-4.0318848 2.5900828,-4.2193704 2.2268016,-4.324831 1.8400828,-4.3482667 Z m 9.7617192,-0.9608635 -0.75,2.6482335 c 0.339843,-0.6210459 0.644531,-1.0780419 0.878906,-1.3944238 0.386719,-0.4921496 0.761719,-0.8436851 1.125,-1.0546063 0.210937,-0.1288963 0.433594,-0.1992034 0.667969,-0.1992034 0.1875,0 0.363281,0.070307 0.492187,0.1992034 0.128906,0.1288963 0.199219,0.2929462 0.199219,0.5038674 0,0.1874856 -0.04687,0.4335604 -0.140625,0.7382244 l -0.457031,1.464731 c 0.679687,-1.1835026 1.324218,-2.0271877 1.921875,-2.5076194 0.339843,-0.2577927 0.65625,-0.3984068 0.984375,-0.3984068 0.1875,0 0.351562,0.082025 0.46875,0.2109212 0.117187,0.1288964 0.175781,0.3280998 0.175781,0.621046 0,0.2343569 -0.03516,0.456996 -0.117188,0.7030708 l -0.726562,2.2615446 c -0.164063,0.4921496 -0.246094,0.77337796 -0.246094,0.82024935 0,0.0585892 0.02344,0.0937428 0.04687,0.14061417 0.02344,0.0234357 0.04687,0.0351535 0.08203,0.0351535 0.03516,0 0.105469,-0.0351535 0.199219,-0.10546063 0.199219,-0.17576771 0.386719,-0.39840679 0.5625,-0.67963509 l 0.1875,0.1288963 c -0.09375,0.152332 -0.257812,0.35153538 -0.492187,0.62104588 -0.234375,0.2695105 -0.445313,0.45699606 -0.609375,0.53902099 -0.164063,0.09374278 -0.328125,0.14061417 -0.46875,0.14061417 -0.128907,0 -0.234375,-0.04687139 -0.328125,-0.14061417 -0.09375,-0.08202493 -0.140625,-0.19920341 -0.140625,-0.33981758 0,-0.17576771 0.09375,-0.56245669 0.28125,-1.12491329 l 0.621093,-1.8865735 c 0.128907,-0.4335604 0.210938,-0.6679173 0.210938,-0.7147887 0.03516,-0.070307 0.03516,-0.1406142 0.03516,-0.2226391 0,-0.093743 -0.03516,-0.1757677 -0.08203,-0.2226391 -0.04687,-0.058589 -0.105469,-0.082025 -0.164063,-0.082025 -0.175781,0 -0.363281,0.082025 -0.5625,0.2460748 -0.574218,0.4921496 -1.125,1.1952205 -1.628906,2.0857769 -0.339844,0.5976102 -0.65625,1.34755246 -0.9375,2.27326242029 H 12.000239 L 13.066645,-3.5397352 c 0.117188,-0.386689 0.175782,-0.6327638 0.175782,-0.773378 0,-0.1054606 -0.02344,-0.1757677 -0.07031,-0.2343569 -0.04687,-0.046871 -0.09375,-0.070307 -0.164062,-0.070307 -0.128907,0 -0.269532,0.046871 -0.421875,0.1406142 -0.234375,0.1406141 -0.550782,0.4804317 -0.925782,0.9725813 -0.375,0.5038675 -0.667968,0.9842992 -0.878906,1.4412953 -0.105469,0.2109212 -0.339844,0.9022742 -0.714844,2.06234116029 H 9.1994578 L 10.30102,-3.7975279 10.441645,-4.2896775 c 0.02344,-0.070307 0.03516,-0.1288963 0.03516,-0.1640498 0,-0.082025 -0.03516,-0.1640499 -0.117188,-0.2226392 -0.07031,-0.082025 -0.175781,-0.1171784 -0.304687,-0.1171784 -0.04687,0 -0.1875004,0.023436 -0.4218754,0.082025 L 9.5861796,-4.934159 Z m 0,0"
       style="fill:#231f20;fill-opacity:1;fill-rule:nonzero;stroke:none"
       aria-label="3 m"
       transform="matrix(0,-1.3333333,1.333436,0,16.692667,202.6136)" />
    <path
       id="path66"
       d="m 246.93,2000.11 -5,-1895.001"
       style="fill:none;stroke:#231f20;stroke-width:2.5;stroke-linecap:butt;stroke-linejoin:miter;stroke-miterlimit:3.86371;stroke-dasharray:none;stroke-opacity:1"
       transform="matrix(0.13333333,0,0,-0.13333333,0,332)" />
    <path
       id="path67"
       d="m 246.93,1997.61 h -15 l 15,37.5 15,-37.5 h -15"
       style="fill:#231f20;fill-opacity:1;fill-rule:evenodd;stroke:none"
       transform="matrix(0.13333333,0,0,-0.13333333,0,332)" />
    <path
       id="path68"
       d="m 241.93,107.609 h 15 l -15,-37.4996 -15,37.4996 h 15"
       style="fill:#231f20;fill-opacity:1;fill-rule:evenodd;stroke:none"
       transform="matrix(0.13333333,0,0,-0.13333333,0,332)" />
  </g>
</svg>
