<?xml version="1.0" encoding="UTF-8" standalone="no"?>
<!-- Created with Inkscape (http://www.inkscape.org/) -->

<svg
   version="1.1"
   id="svg1"
   width="768"
   height="576"
   viewBox="0 0 768 576"
   sodipodi:docname="EXD1f3.EPS"
   xmlns:inkscape="http://www.inkscape.org/namespaces/inkscape"
   xmlns:sodipodi="http://sodipodi.sourceforge.net/DTD/sodipodi-0.dtd"
   xmlns="http://www.w3.org/2000/svg"
   xmlns:svg="http://www.w3.org/2000/svg">
  <defs
     id="defs1">
    <clipPath
       clipPathUnits="userSpaceOnUse"
       id="clipPath69">
      <path
         d="m 748.332,474.168 h 4436.67 v 3500.83 H 748.332 Z"
         id="path69" />
    </clipPath>
    <clipPath
       clipPathUnits="userSpaceOnUse"
       id="clipPath71">
      <path
         d="m 748.332,474.168 h 4436.67 v 3500.83 H 748.332 Z"
         id="path71" />
    </clipPath>
    <clipPath
       clipPathUnits="userSpaceOnUse"
       id="clipPath73">
      <path
         d="m 748.332,474.168 h 4436.67 v 3500.83 H 748.332 Z"
         id="path73" />
    </clipPath>
    <clipPath
       clipPathUnits="userSpaceOnUse"
       id="clipPath75">
      <path
         d="m 748.332,474.168 h 4436.67 v 3500.83 H 748.332 Z"
         id="path75" />
    </clipPath>
    <clipPath
       clipPathUnits="userSpaceOnUse"
       id="clipPath85">
      <path
         d="m 748.332,474.168 h 4436.67 v 3500.83 H 748.332 Z"
         id="path85" />
    </clipPath>
    <clipPath
       clipPathUnits="userSpaceOnUse"
       id="clipPath87">
      <path
         d="m 748.332,474.168 h 4436.67 v 3500.83 H 748.332 Z"
         id="path87" />
    </clipPath>
    <clipPath
       clipPathUnits="userSpaceOnUse"
       id="clipPath89">
      <path
         d="m 748.332,474.168 h 4436.67 v 3500.83 H 748.332 Z"
         id="path89" />
    </clipPath>
    <clipPath
       clipPathUnits="userSpaceOnUse"
       id="clipPath91">
      <path
         d="m 748.332,474.168 h 4436.67 v 3500.83 H 748.332 Z"
         id="path91" />
    </clipPath>
  </defs>
  <sodipodi:namedview
     id="namedview1"
     pagecolor="#ffffff"
     bordercolor="#000000"
     borderopacity="0.25"
     inkscape:showpageshadow="2"
     inkscape:pageopacity="0.0"
     inkscape:pagecheckerboard="0"
     inkscape:deskcolor="#d1d1d1">
    <inkscape:page
       x="0"
       y="0"
       inkscape:label="1"
       id="page1"
       width="768"
       height="576"
       margin="0"
       bleed="0" />
  </sodipodi:namedview>
  <g
     id="g1"
     inkscape:groupmode="layer"
     inkscape:label="1">
    <path
       id="path1"
       d="M 0,0 H 5760 V 4320 H 0 Z"
       style="fill:#ffffff;fill-opacity:1;fill-rule:nonzero;stroke:none"
       transform="matrix(0.13333333,0,0,-0.13333333,0,576)" />
    <path
       id="path2"
       d="M 1129.17,475 V 3975"
       style="fill:none;stroke:#000000;stroke-width:5;stroke-linecap:round;stroke-linejoin:round;stroke-miterlimit:10;stroke-dasharray:5, 40;stroke-dashoffset:0;stroke-opacity:1"
       transform="matrix(0.13333333,0,0,-0.13333333,0,576)" />
    <path
       id="path3"
       d="m 1129.17,3975 v 0"
       style="fill:none;stroke:#000000;stroke-width:5;stroke-linecap:round;stroke-linejoin:round;stroke-miterlimit:10;stroke-dasharray:5, 40;stroke-dashoffset:0;stroke-opacity:1"
       transform="matrix(0.13333333,0,0,-0.13333333,0,576)" />
    <path
       id="path4"
       d="M 1712.5,475 V 3975"
       style="fill:none;stroke:#000000;stroke-width:5;stroke-linecap:round;stroke-linejoin:round;stroke-miterlimit:10;stroke-dasharray:5, 40;stroke-dashoffset:0;stroke-opacity:1"
       transform="matrix(0.13333333,0,0,-0.13333333,0,576)" />
    <path
       id="path5"
       d="m 1712.5,3975 v 0"
       style="fill:none;stroke:#000000;stroke-width:5;stroke-linecap:round;stroke-linejoin:round;stroke-miterlimit:10;stroke-dasharray:5, 40;stroke-dashoffset:0;stroke-opacity:1"
       transform="matrix(0.13333333,0,0,-0.13333333,0,576)" />
    <path
       id="path6"
       d="M 2295.83,475 V 3975"
       style="fill:none;stroke:#000000;stroke-width:5;stroke-linecap:round;stroke-linejoin:round;stroke-miterlimit:10;stroke-dasharray:5, 40;stroke-dashoffset:0;stroke-opacity:1"
       transform="matrix(0.13333333,0,0,-0.13333333,0,576)" />
    <path
       id="path7"
       d="m 2295.83,3975 v 0"
       style="fill:none;stroke:#000000;stroke-width:5;stroke-linecap:round;stroke-linejoin:round;stroke-miterlimit:10;stroke-dasharray:5, 40;stroke-dashoffset:0;stroke-opacity:1"
       transform="matrix(0.13333333,0,0,-0.13333333,0,576)" />
    <path
       id="path8"
       d="M 2879.17,475 V 3975"
       style="fill:none;stroke:#000000;stroke-width:5;stroke-linecap:round;stroke-linejoin:round;stroke-miterlimit:10;stroke-dasharray:5, 40;stroke-dashoffset:0;stroke-opacity:1"
       transform="matrix(0.13333333,0,0,-0.13333333,0,576)" />
    <path
       id="path9"
       d="m 2879.17,3975 v 0"
       style="fill:none;stroke:#000000;stroke-width:5;stroke-linecap:round;stroke-linejoin:round;stroke-miterlimit:10;stroke-dasharray:5, 40;stroke-dashoffset:0;stroke-opacity:1"
       transform="matrix(0.13333333,0,0,-0.13333333,0,576)" />
    <path
       id="path10"
       d="M 3461.67,475 V 3975"
       style="fill:none;stroke:#000000;stroke-width:5;stroke-linecap:round;stroke-linejoin:round;stroke-miterlimit:10;stroke-dasharray:5, 40;stroke-dashoffset:0;stroke-opacity:1"
       transform="matrix(0.13333333,0,0,-0.13333333,0,576)" />
    <path
       id="path11"
       d="m 3461.67,3975 v 0"
       style="fill:none;stroke:#000000;stroke-width:5;stroke-linecap:round;stroke-linejoin:round;stroke-miterlimit:10;stroke-dasharray:5, 40;stroke-dashoffset:0;stroke-opacity:1"
       transform="matrix(0.13333333,0,0,-0.13333333,0,576)" />
    <path
       id="path12"
       d="M 4045,475 V 3975"
       style="fill:none;stroke:#000000;stroke-width:5;stroke-linecap:round;stroke-linejoin:round;stroke-miterlimit:10;stroke-dasharray:5, 40;stroke-dashoffset:0;stroke-opacity:1"
       transform="matrix(0.13333333,0,0,-0.13333333,0,576)" />
    <path
       id="path13"
       d="m 4045,3975 v 0"
       style="fill:none;stroke:#000000;stroke-width:5;stroke-linecap:round;stroke-linejoin:round;stroke-miterlimit:10;stroke-dasharray:5, 40;stroke-dashoffset:0;stroke-opacity:1"
       transform="matrix(0.13333333,0,0,-0.13333333,0,576)" />
    <path
       id="path14"
       d="M 4628.33,475 V 3975"
       style="fill:none;stroke:#000000;stroke-width:5;stroke-linecap:round;stroke-linejoin:round;stroke-miterlimit:10;stroke-dasharray:5, 40;stroke-dashoffset:0;stroke-opacity:1"
       transform="matrix(0.13333333,0,0,-0.13333333,0,576)" />
    <path
       id="path15"
       d="m 4628.33,3975 v 0"
       style="fill:none;stroke:#000000;stroke-width:5;stroke-linecap:round;stroke-linejoin:round;stroke-miterlimit:10;stroke-dasharray:5, 40;stroke-dashoffset:0;stroke-opacity:1"
       transform="matrix(0.13333333,0,0,-0.13333333,0,576)" />
    <path
       id="path16"
       d="M 748.332,475 H 5184.17"
       style="fill:none;stroke:#000000;stroke-width:5;stroke-linecap:round;stroke-linejoin:round;stroke-miterlimit:10;stroke-dasharray:5, 40;stroke-dashoffset:0;stroke-opacity:1"
       transform="matrix(0.13333333,0,0,-0.13333333,0,576)" />
    <path
       id="path17"
       d="m 5184.17,475 v 0"
       style="fill:none;stroke:#000000;stroke-width:5;stroke-linecap:round;stroke-linejoin:round;stroke-miterlimit:10;stroke-dasharray:5, 40;stroke-dashoffset:0;stroke-opacity:1"
       transform="matrix(0.13333333,0,0,-0.13333333,0,576)" />
    <path
       id="path18"
       d="M 748.332,1058.33 H 5184.17"
       style="fill:none;stroke:#000000;stroke-width:5;stroke-linecap:round;stroke-linejoin:round;stroke-miterlimit:10;stroke-dasharray:5, 40;stroke-dashoffset:0;stroke-opacity:1"
       transform="matrix(0.13333333,0,0,-0.13333333,0,576)" />
    <path
       id="path19"
       d="m 5184.17,1058.33 v 0"
       style="fill:none;stroke:#000000;stroke-width:5;stroke-linecap:round;stroke-linejoin:round;stroke-miterlimit:10;stroke-dasharray:5, 40;stroke-dashoffset:0;stroke-opacity:1"
       transform="matrix(0.13333333,0,0,-0.13333333,0,576)" />
    <path
       id="path20"
       d="M 748.332,1641.67 H 5184.17"
       style="fill:none;stroke:#000000;stroke-width:5;stroke-linecap:round;stroke-linejoin:round;stroke-miterlimit:10;stroke-dasharray:5, 40;stroke-dashoffset:0;stroke-opacity:1"
       transform="matrix(0.13333333,0,0,-0.13333333,0,576)" />
    <path
       id="path21"
       d="m 5184.17,1641.67 v 0"
       style="fill:none;stroke:#000000;stroke-width:5;stroke-linecap:round;stroke-linejoin:round;stroke-miterlimit:10;stroke-dasharray:5, 40;stroke-dashoffset:0;stroke-opacity:1"
       transform="matrix(0.13333333,0,0,-0.13333333,0,576)" />
    <path
       id="path22"
       d="M 748.332,2225 H 5184.17"
       style="fill:none;stroke:#000000;stroke-width:5;stroke-linecap:round;stroke-linejoin:round;stroke-miterlimit:10;stroke-dasharray:5, 40;stroke-dashoffset:0;stroke-opacity:1"
       transform="matrix(0.13333333,0,0,-0.13333333,0,576)" />
    <path
       id="path23"
       d="m 5184.17,2225 v 0"
       style="fill:none;stroke:#000000;stroke-width:5;stroke-linecap:round;stroke-linejoin:round;stroke-miterlimit:10;stroke-dasharray:5, 40;stroke-dashoffset:0;stroke-opacity:1"
       transform="matrix(0.13333333,0,0,-0.13333333,0,576)" />
    <path
       id="path24"
       d="M 748.332,2808.33 H 5184.17"
       style="fill:none;stroke:#000000;stroke-width:5;stroke-linecap:round;stroke-linejoin:round;stroke-miterlimit:10;stroke-dasharray:5, 40;stroke-dashoffset:0;stroke-opacity:1"
       transform="matrix(0.13333333,0,0,-0.13333333,0,576)" />
    <path
       id="path25"
       d="m 5184.17,2808.33 v 0"
       style="fill:none;stroke:#000000;stroke-width:5;stroke-linecap:round;stroke-linejoin:round;stroke-miterlimit:10;stroke-dasharray:5, 40;stroke-dashoffset:0;stroke-opacity:1"
       transform="matrix(0.13333333,0,0,-0.13333333,0,576)" />
    <path
       id="path26"
       d="M 748.332,3391.67 H 5184.17"
       style="fill:none;stroke:#000000;stroke-width:5;stroke-linecap:round;stroke-linejoin:round;stroke-miterlimit:10;stroke-dasharray:5, 40;stroke-dashoffset:0;stroke-opacity:1"
       transform="matrix(0.13333333,0,0,-0.13333333,0,576)" />
    <path
       id="path27"
       d="m 5184.17,3391.67 v 0"
       style="fill:none;stroke:#000000;stroke-width:5;stroke-linecap:round;stroke-linejoin:round;stroke-miterlimit:10;stroke-dasharray:5, 40;stroke-dashoffset:0;stroke-opacity:1"
       transform="matrix(0.13333333,0,0,-0.13333333,0,576)" />
    <path
       id="path28"
       d="M 748.332,3975 H 5184.17"
       style="fill:none;stroke:#000000;stroke-width:5;stroke-linecap:round;stroke-linejoin:round;stroke-miterlimit:10;stroke-dasharray:5, 40;stroke-dashoffset:0;stroke-opacity:1"
       transform="matrix(0.13333333,0,0,-0.13333333,0,576)" />
    <path
       id="path29"
       d="m 5184.17,3975 v 0"
       style="fill:none;stroke:#000000;stroke-width:5;stroke-linecap:round;stroke-linejoin:round;stroke-miterlimit:10;stroke-dasharray:5, 40;stroke-dashoffset:0;stroke-opacity:1"
       transform="matrix(0.13333333,0,0,-0.13333333,0,576)" />
    <path
       id="path30"
       d="M 748.332,475 V 3975"
       style="fill:none;stroke:#000000;stroke-width:5;stroke-linecap:round;stroke-linejoin:round;stroke-miterlimit:10;stroke-dasharray:5, 40;stroke-dashoffset:0;stroke-opacity:1"
       transform="matrix(0.13333333,0,0,-0.13333333,0,576)" />
    <path
       id="path31"
       d="M 748.332,3975 H 5184.17"
       style="fill:none;stroke:#000000;stroke-width:5;stroke-linecap:round;stroke-linejoin:round;stroke-miterlimit:10;stroke-dasharray:5, 40;stroke-dashoffset:0;stroke-opacity:1"
       transform="matrix(0.13333333,0,0,-0.13333333,0,576)" />
    <path
       id="path32"
       d="M 748.332,475 V 3975"
       style="fill:none;stroke:#000000;stroke-width:5;stroke-linecap:round;stroke-linejoin:round;stroke-miterlimit:10;stroke-dasharray:5, 40;stroke-dashoffset:0;stroke-opacity:1"
       transform="matrix(0.13333333,0,0,-0.13333333,0,576)" />
    <path
       id="path33"
       d="M 748.332,3975 H 5184.17"
       style="fill:none;stroke:#000000;stroke-width:5;stroke-linecap:round;stroke-linejoin:round;stroke-miterlimit:10;stroke-dasharray:5, 40;stroke-dashoffset:0;stroke-opacity:1"
       transform="matrix(0.13333333,0,0,-0.13333333,0,576)" />
    <path
       id="path34"
       d="M 748.332,475 V 3975"
       style="fill:none;stroke:#000000;stroke-width:5;stroke-linecap:round;stroke-linejoin:round;stroke-miterlimit:10;stroke-dasharray:5, 40;stroke-dashoffset:0;stroke-opacity:1"
       transform="matrix(0.13333333,0,0,-0.13333333,0,576)" />
    <path
       id="path35"
       d="M 748.332,3975 H 5184.17"
       style="fill:none;stroke:#000000;stroke-width:5;stroke-linecap:round;stroke-linejoin:round;stroke-miterlimit:10;stroke-dasharray:5, 40;stroke-dashoffset:0;stroke-opacity:1"
       transform="matrix(0.13333333,0,0,-0.13333333,0,576)" />
    <path
       id="path36"
       d="M 748.332,475 H 5184.17"
       style="fill:none;stroke:#000000;stroke-width:5;stroke-linecap:round;stroke-linejoin:round;stroke-miterlimit:10;stroke-dasharray:none;stroke-opacity:1"
       transform="matrix(0.13333333,0,0,-0.13333333,0,576)" />
    <path
       id="path37"
       d="M 748.332,475 V 3975"
       style="fill:none;stroke:#000000;stroke-width:5;stroke-linecap:round;stroke-linejoin:round;stroke-miterlimit:10;stroke-dasharray:none;stroke-opacity:1"
       transform="matrix(0.13333333,0,0,-0.13333333,0,576)" />
    <path
       id="path38"
       d="m 748.332,475 v 0"
       style="fill:none;stroke:#000000;stroke-width:5;stroke-linecap:round;stroke-linejoin:round;stroke-miterlimit:10;stroke-dasharray:none;stroke-opacity:1"
       transform="matrix(0.13333333,0,0,-0.13333333,0,576)" />
    <path
       id="path39"
       d="m 1129.17,475 v 44.168"
       style="fill:none;stroke:#000000;stroke-width:5;stroke-linecap:round;stroke-linejoin:round;stroke-miterlimit:10;stroke-dasharray:none;stroke-opacity:1"
       transform="matrix(0.13333333,0,0,-0.13333333,0,576)" />
    <path
       id="path40"
       d="M 0.44452813,-3.0117188 V -4.2421875 H 4.2296844 v 1.2304687 z M 5.2492156,-4.9453125 c 0,-1.1865234 0.1201172,-2.1386719 0.3632813,-2.859375 0.2402344,-0.7265625 0.6005859,-1.2832031 1.078125,-1.6757813 0.4833984,-0.3896484 1.0927734,-0.5859372 1.828125,-0.5859372 0.5302734,0 0.9990234,0.1113279 1.40625,0.3281247 0.4042971,0.2197266 0.7412111,0.5332032 1.0078121,0.9375 0.263672,0.4072266 0.47168,0.9023438 0.621094,1.4882813 0.146485,0.5859375 0.222656,1.3769531 0.222656,2.3671875 0,1.1806641 -0.123046,2.1328125 -0.363281,2.859375 -0.234375,0.7207031 -0.594726,1.27734375 -1.078125,1.67578125 -0.486328,0.39257812 -1.0898436,0.5859375 -1.8164061,0.5859375 -0.9697266,0 -1.7314453,-0.34570312 -2.2851563,-1.04296875 -0.65625,-0.8349609 -0.984375,-2.1943359 -0.984375,-4.078125 z m 1.265625,0 c 0,1.6494141 0.1904297,2.7480469 0.5742188,3.2929688 0.3808594,0.5390625 0.8583984,0.8085937 1.4296875,0.8085937 0.5625,0 1.0341797,-0.2724609 1.4179687,-0.8203125 0.3808594,-0.5449219 0.5742184,-1.640625 0.5742184,-3.28125 0,-1.6464844 -0.193359,-2.7421875 -0.5742184,-3.28125 -0.383789,-0.5449219 -0.8642578,-0.8203125 -1.4414062,-0.8203125 -0.5625,0 -1.0136719,0.2402344 -1.3476563,0.7148437 -0.421875,0.6093751 -0.6328125,1.7402344 -0.6328125,3.3867188 z M 13.724802,0 v -1.40625 h 1.394531 V 0 Z m 3.199218,-2.625 1.289063,-0.1054688 c 0.09375,0.6269532 0.310547,1.0986329 0.65625,1.4179688 0.351562,0.31347656 0.773437,0.46875 1.265625,0.46875 0.591797,0 1.092773,-0.2226562 1.5,-0.6679687 0.413086,-0.4453125 0.621094,-1.0371094 0.621094,-1.7812501 0,-0.703125 -0.199219,-1.2539062 -0.597657,-1.6523437 -0.392578,-0.4042969 -0.902343,-0.609375 -1.535156,-0.609375 -0.398437,0 -0.758789,0.09082 -1.078125,0.2695313 -0.322266,0.1816406 -0.571289,0.4101562 -0.75,0.6914062 l -1.160156,-0.140625 0.972656,-5.15625 h 4.980469 v 1.1835937 h -3.996094 l -0.539062,2.6953126 c 0.600586,-0.421875 1.233398,-0.6328125 1.898437,-0.6328125 0.873047,0 1.611328,0.3046875 2.214844,0.9140625 0.600586,0.6035156 0.902344,1.3798828 0.902344,2.3320312 0,0.9082031 -0.266602,1.6933594 -0.796875,2.3554688 -0.641602,0.81445307 -1.520508,1.21874995 -2.636719,1.21874995 -0.908203,0 -1.649414,-0.25195312 -2.226563,-0.76171875 C 17.328317,-1.1015625 17.000192,-1.78125 16.92402,-2.625 Z m 0,0"
       style="fill:#000000;fill-opacity:1;fill-rule:nonzero;stroke:none"
       aria-label="-0.5"
       transform="matrix(1.3333333,0,0,1.3333333,131.55573,533)" />
    <path
       id="path41"
       d="m 1712.5,475 v 44.168"
       style="fill:none;stroke:#000000;stroke-width:5;stroke-linecap:round;stroke-linejoin:round;stroke-miterlimit:10;stroke-dasharray:none;stroke-opacity:1"
       transform="matrix(0.13333333,0,0,-0.13333333,0,576)" />
    <path
       id="path42"
       d="m 0.58592969,-4.9453125 c 0,-1.1865234 0.12011718,-2.1386719 0.36328125,-2.859375 C 1.1894453,-8.53125 1.5497969,-9.0878906 2.0273359,-9.4804688 c 0.4833985,-0.3896484 1.0927735,-0.5859372 1.828125,-0.5859372 0.5302735,0 0.9990235,0.1113279 1.40625,0.3281247 0.4042969,0.2197266 0.741211,0.5332032 1.0078125,0.9375 0.2636719,0.4072266 0.4716797,0.9023438 0.6210938,1.4882813 0.1464844,0.5859375 0.2226562,1.3769531 0.2226562,2.3671875 0,1.1806641 -0.1230468,2.1328125 -0.3632812,2.859375 -0.234375,0.7207031 -0.5947266,1.27734375 -1.078125,1.67578125 -0.4863281,0.39257812 -1.0898438,0.5859375 -1.8164063,0.5859375 -0.9697265,0 -1.7314453,-0.34570312 -2.2851562,-1.04296875 -0.65625001,-0.8349609 -0.98437501,-2.1943359 -0.98437501,-4.078125 z m 1.26562501,0 c 0,1.6494141 0.1904297,2.7480469 0.5742187,3.2929688 0.3808594,0.5390625 0.8583985,0.8085937 1.4296875,0.8085937 0.5625,0 1.0341797,-0.2724609 1.4179688,-0.8203125 0.3808594,-0.5449219 0.5742187,-1.640625 0.5742187,-3.28125 0,-1.6464844 -0.1933593,-2.7421875 -0.5742187,-3.28125 C 4.8896406,-8.7714844 4.4091719,-9.046875 3.8320234,-9.046875 c -0.5625,0 -1.0136718,0.2402344 -1.3476562,0.7148437 -0.421875,0.6093751 -0.6328125,1.7402344 -0.6328125,3.3867188 z m 0,0"
       style="fill:#000000;fill-opacity:1;fill-rule:nonzero;stroke:none"
       aria-label="0"
       transform="matrix(1.3333333,0,0,1.3333333,223.22267,533)" />
    <path
       id="path43"
       d="m 2295.83,475 v 44.168"
       style="fill:none;stroke:#000000;stroke-width:5;stroke-linecap:round;stroke-linejoin:round;stroke-miterlimit:10;stroke-dasharray:none;stroke-opacity:1"
       transform="matrix(0.13333333,0,0,-0.13333333,0,576)" />
    <path
       id="path44"
       d="m 0.58592969,-4.9453125 c 0,-1.1865234 0.12011718,-2.1386719 0.36328125,-2.859375 C 1.1894453,-8.53125 1.5497969,-9.0878906 2.0273359,-9.4804688 c 0.4833985,-0.3896484 1.0927735,-0.5859372 1.828125,-0.5859372 0.5302735,0 0.9990235,0.1113279 1.40625,0.3281247 0.4042969,0.2197266 0.741211,0.5332032 1.0078125,0.9375 0.2636719,0.4072266 0.4716797,0.9023438 0.6210938,1.4882813 0.1464844,0.5859375 0.2226562,1.3769531 0.2226562,2.3671875 0,1.1806641 -0.1230468,2.1328125 -0.3632812,2.859375 -0.234375,0.7207031 -0.5947266,1.27734375 -1.078125,1.67578125 -0.4863281,0.39257812 -1.0898438,0.5859375 -1.8164063,0.5859375 -0.9697265,0 -1.7314453,-0.34570312 -2.2851562,-1.04296875 -0.65625001,-0.8349609 -0.98437501,-2.1943359 -0.98437501,-4.078125 z m 1.26562501,0 c 0,1.6494141 0.1904297,2.7480469 0.5742187,3.2929688 0.3808594,0.5390625 0.8583985,0.8085937 1.4296875,0.8085937 0.5625,0 1.0341797,-0.2724609 1.4179688,-0.8203125 0.3808594,-0.5449219 0.5742187,-1.640625 0.5742187,-3.28125 0,-1.6464844 -0.1933593,-2.7421875 -0.5742187,-3.28125 C 4.8896406,-8.7714844 4.4091719,-9.046875 3.8320234,-9.046875 c -0.5625,0 -1.0136718,0.2402344 -1.3476562,0.7148437 -0.421875,0.6093751 -0.6328125,1.7402344 -0.6328125,3.3867188 z M 9.0615156,0 V -1.40625 H 10.456047 V 0 Z m 3.1992184,-2.625 1.289063,-0.1054688 c 0.09375,0.6269532 0.310547,1.0986329 0.65625,1.4179688 0.351562,0.31347656 0.773437,0.46875 1.265625,0.46875 0.591797,0 1.092773,-0.2226562 1.5,-0.6679687 0.413086,-0.4453125 0.621094,-1.0371094 0.621094,-1.7812501 0,-0.703125 -0.199219,-1.2539062 -0.597657,-1.6523437 -0.392578,-0.4042969 -0.902343,-0.609375 -1.535156,-0.609375 -0.398437,0 -0.758789,0.09082 -1.078125,0.2695313 -0.322266,0.1816406 -0.571289,0.4101562 -0.75,0.6914062 l -1.160156,-0.140625 0.972656,-5.15625 h 4.980469 v 1.1835937 h -3.996094 l -0.539062,2.6953126 c 0.600586,-0.421875 1.233398,-0.6328125 1.898437,-0.6328125 0.873047,0 1.611328,0.3046875 2.214844,0.9140625 0.600586,0.6035156 0.902344,1.3798828 0.902344,2.3320312 0,0.9082031 -0.266602,1.6933594 -0.796875,2.3554688 -0.641602,0.81445307 -1.520508,1.21874995 -2.636719,1.21874995 -0.908203,0 -1.649414,-0.25195312 -2.226563,-0.76171875 C 12.665031,-1.1015625 12.336906,-1.78125 12.260734,-2.625 Z m 0,0"
       style="fill:#000000;fill-opacity:1;fill-rule:nonzero;stroke:none"
       aria-label="0.5"
       transform="matrix(1.3333333,0,0,1.3333333,293.22267,533)" />
    <path
       id="path45"
       d="m 2879.17,475 v 44.168"
       style="fill:none;stroke:#000000;stroke-width:5;stroke-linecap:round;stroke-linejoin:round;stroke-miterlimit:10;stroke-dasharray:none;stroke-opacity:1"
       transform="matrix(0.13333333,0,0,-0.13333333,0,576)" />
    <path
       id="path46"
       d="M 5.2148516,0 H 3.9843828 v -7.8398437 c -0.2988281,0.28125 -0.6884765,0.5625 -1.171875,0.84375 -0.477539,0.28125 -0.9082031,0.4921875 -1.2890625,0.6328125 V -7.546875 C 2.2089922,-7.875 2.8125078,-8.2646484 3.3281328,-8.71875 c 0.515625,-0.4599609 0.881836,-0.9082031 1.1015625,-1.347656 h 0.7851563 z m 0,0"
       style="fill:#000000;fill-opacity:1;fill-rule:nonzero;stroke:none"
       aria-label="1"
       transform="matrix(1.3333333,0,0,1.3333333,378.77733,533)" />
    <path
       id="path47"
       d="m 3461.67,475 v 44.168"
       style="fill:none;stroke:#000000;stroke-width:5;stroke-linecap:round;stroke-linejoin:round;stroke-miterlimit:10;stroke-dasharray:none;stroke-opacity:1"
       transform="matrix(0.13333333,0,0,-0.13333333,0,576)" />
    <path
       id="path48"
       d="M 5.2158203,0 H 3.9853516 v -7.8398437 c -0.2988282,0.28125 -0.6884766,0.5625 -1.171875,0.84375 -0.4775391,0.28125 -0.9082032,0.4921875 -1.2890625,0.6328125 V -7.546875 C 2.2099609,-7.875 2.8134766,-8.2646484 3.3291016,-8.71875 3.8447266,-9.1787109 4.2109375,-9.6269531 4.4306641,-10.066406 H 5.2158203 Z M 9.0625,0 v -1.40625 h 1.394531 V 0 Z m 3.199219,-2.625 1.289062,-0.1054688 c 0.09375,0.6269532 0.310547,1.0986329 0.65625,1.4179688 0.351563,0.31347656 0.773438,0.46875 1.265625,0.46875 0.591797,0 1.092774,-0.2226562 1.5,-0.6679687 0.413086,-0.4453125 0.621094,-1.0371094 0.621094,-1.7812501 0,-0.703125 -0.199219,-1.2539062 -0.597656,-1.6523437 -0.392578,-0.4042969 -0.902344,-0.609375 -1.535156,-0.609375 -0.398438,0 -0.75879,0.09082 -1.078125,0.2695313 -0.322266,0.1816406 -0.57129,0.4101562 -0.75,0.6914062 l -1.160157,-0.140625 0.972657,-5.15625 h 4.980468 v 1.1835937 h -3.996093 l -0.539063,2.6953126 c 0.600586,-0.421875 1.233398,-0.6328125 1.898438,-0.6328125 0.873046,0 1.611328,0.3046875 2.214843,0.9140625 0.600586,0.6035156 0.902344,1.3798828 0.902344,2.3320312 0,0.9082031 -0.266602,1.6933594 -0.796875,2.3554688 -0.641602,0.81445307 -1.520508,1.21874995 -2.636719,1.21874995 -0.908203,0 -1.649414,-0.25195312 -2.226562,-0.76171875 C 12.666016,-1.1015625 12.337891,-1.78125 12.261719,-2.625 Z m 0,0"
       style="fill:#000000;fill-opacity:1;fill-rule:nonzero;stroke:none"
       aria-label="1.5"
       transform="matrix(1.3333333,0,0,1.3333333,448.66667,533)" />
    <path
       id="path49"
       d="m 4045,475 v 44.168"
       style="fill:none;stroke:#000000;stroke-width:5;stroke-linecap:round;stroke-linejoin:round;stroke-miterlimit:10;stroke-dasharray:none;stroke-opacity:1"
       transform="matrix(0.13333333,0,0,-0.13333333,0,576)" />
    <path
       id="path50"
       d="M 7.0546797,-1.1835937 V 0 H 0.42186719 c -0.008789,-0.29589844 0.0380859,-0.58007812 0.140625,-0.85546875 C 0.73241406,-1.3066406 1.0019453,-1.7519531 1.3710859,-2.1914063 c 0.375,-0.4365234 0.9140625,-0.9404296 1.6171875,-1.5117187 1.0839844,-0.8964844 1.819336,-1.6054687 2.203125,-2.1210937 C 5.5722578,-6.3457031 5.7656172,-6.84375 5.7656172,-7.3125 c 0,-0.4833984 -0.1757813,-0.8935547 -0.5273438,-1.2304688 -0.3457031,-0.3339843 -0.796875,-0.5039062 -1.359375,-0.5039062 -0.5859375,0 -1.0605468,0.1816406 -1.4179687,0.5390625 C 2.1093672,-8.15625 1.9277266,-7.6640625 1.9218672,-7.03125 L 0.65624219,-7.171875 c 0.0849609,-0.9375 0.41015621,-1.6523438 0.97265621,-2.1445313 0.5683594,-0.4980468 1.3300782,-0.7499997 2.2851563,-0.7499997 0.9609375,0 1.7167969,0.269531 2.2734375,0.8085935 0.5625,0.5332031 0.84375,1.1923828 0.84375,1.9804688 0,0.3984375 -0.082031,0.7939453 -0.2460938,1.1835937 -0.1640625,0.3837891 -0.4394531,0.7910156 -0.8203125,1.21875 -0.375,0.4306641 -1.0048828,1.0195312 -1.8867187,1.7695312 -0.7441406,0.6181641 -1.21875,1.0371094 -1.4296875,1.2539063 -0.2050781,0.2197266 -0.375,0.4423828 -0.515625,0.6679688 z m 0,0"
       style="fill:#000000;fill-opacity:1;fill-rule:nonzero;stroke:none"
       aria-label="2"
       transform="matrix(1.3333333,0,0,1.3333333,534.22267,533)" />
    <path
       id="path51"
       d="m 4628.33,475 v 44.168"
       style="fill:none;stroke:#000000;stroke-width:5;stroke-linecap:round;stroke-linejoin:round;stroke-miterlimit:10;stroke-dasharray:none;stroke-opacity:1"
       transform="matrix(0.13333333,0,0,-0.13333333,0,576)" />
    <path
       id="path52"
       d="M 7.0546797,-1.1835937 V 0 H 0.42186719 c -0.008789,-0.29589844 0.0380859,-0.58007812 0.140625,-0.85546875 C 0.73241406,-1.3066406 1.0019453,-1.7519531 1.3710859,-2.1914063 c 0.375,-0.4365234 0.9140625,-0.9404296 1.6171875,-1.5117187 1.0839844,-0.8964844 1.819336,-1.6054687 2.203125,-2.1210937 C 5.5722578,-6.3457031 5.7656172,-6.84375 5.7656172,-7.3125 c 0,-0.4833984 -0.1757813,-0.8935547 -0.5273438,-1.2304688 -0.3457031,-0.3339843 -0.796875,-0.5039062 -1.359375,-0.5039062 -0.5859375,0 -1.0605468,0.1816406 -1.4179687,0.5390625 C 2.1093672,-8.15625 1.9277266,-7.6640625 1.9218672,-7.03125 L 0.65624219,-7.171875 c 0.0849609,-0.9375 0.41015621,-1.6523438 0.97265621,-2.1445313 0.5683594,-0.4980468 1.3300782,-0.7499997 2.2851563,-0.7499997 0.9609375,0 1.7167969,0.269531 2.2734375,0.8085935 0.5625,0.5332031 0.84375,1.1923828 0.84375,1.9804688 0,0.3984375 -0.082031,0.7939453 -0.2460938,1.1835937 -0.1640625,0.3837891 -0.4394531,0.7910156 -0.8203125,1.21875 -0.375,0.4306641 -1.0048828,1.0195312 -1.8867187,1.7695312 -0.7441406,0.6181641 -1.21875,1.0371094 -1.4296875,1.2539063 -0.2050781,0.2197266 -0.375,0.4423828 -0.515625,0.6679688 z M 9.0615156,0 V -1.40625 H 10.456047 V 0 Z m 3.1992184,-2.625 1.289063,-0.1054688 c 0.09375,0.6269532 0.310547,1.0986329 0.65625,1.4179688 0.351562,0.31347656 0.773437,0.46875 1.265625,0.46875 0.591797,0 1.092773,-0.2226562 1.5,-0.6679687 0.413086,-0.4453125 0.621094,-1.0371094 0.621094,-1.7812501 0,-0.703125 -0.199219,-1.2539062 -0.597657,-1.6523437 -0.392578,-0.4042969 -0.902343,-0.609375 -1.535156,-0.609375 -0.398437,0 -0.758789,0.09082 -1.078125,0.2695313 -0.322266,0.1816406 -0.571289,0.4101562 -0.75,0.6914062 l -1.160156,-0.140625 0.972656,-5.15625 h 4.980469 v 1.1835937 h -3.996094 l -0.539062,2.6953126 c 0.600586,-0.421875 1.233398,-0.6328125 1.898437,-0.6328125 0.873047,0 1.611328,0.3046875 2.214844,0.9140625 0.600586,0.6035156 0.902344,1.3798828 0.902344,2.3320312 0,0.9082031 -0.266602,1.6933594 -0.796875,2.3554688 -0.641602,0.81445307 -1.520508,1.21874995 -2.636719,1.21874995 -0.908203,0 -1.649414,-0.25195312 -2.226563,-0.76171875 C 12.665031,-1.1015625 12.336906,-1.78125 12.260734,-2.625 Z m 0,0"
       style="fill:#000000;fill-opacity:1;fill-rule:nonzero;stroke:none"
       aria-label="2.5"
       transform="matrix(1.3333333,0,0,1.3333333,604.22267,533)" />
    <path
       id="path53"
       d="M 748.332,475 H 792.5"
       style="fill:none;stroke:#000000;stroke-width:5;stroke-linecap:round;stroke-linejoin:round;stroke-miterlimit:10;stroke-dasharray:none;stroke-opacity:1"
       transform="matrix(0.13333333,0,0,-0.13333333,0,576)" />
    <path
       id="path54"
       d="m 0.58672187,-4.9460969 c 0,-1.1865234 0.12011719,-2.1386719 0.36328125,-2.859375 0.24023438,-0.7265625 0.60058598,-1.2832031 1.07812498,-1.6757812 0.4833985,-0.3896485 1.0927735,-0.5859379 1.828125,-0.5859379 0.5302735,0 0.9990235,0.1113285 1.40625,0.3281254 0.4042969,0.2197265 0.741211,0.5332031 1.0078125,0.9375 0.2636719,0.4072265 0.4716797,0.9023437 0.6210938,1.4882812 0.1464843,0.5859375 0.2226562,1.3769531 0.2226562,2.3671875 0,1.1806641 -0.1230469,2.1328125 -0.3632812,2.859375 -0.234375,0.7207031 -0.5947266,1.27734377 -1.078125,1.67578127 -0.4863282,0.39257813 -1.0898438,0.5859375 -1.8164063,0.5859375 -0.9697265,0 -1.7314453,-0.34570312 -2.2851562,-1.04296875 C 0.91484687,-1.7029328 0.58672187,-3.0623078 0.58672187,-4.9460969 Z m 1.26562503,0 c 0,1.6494141 0.1904297,2.7480469 0.5742187,3.2929688 0.3808594,0.5390625 0.8583985,0.80859372 1.4296875,0.80859372 0.5625,0 1.0341797,-0.27246092 1.4179688,-0.82031252 0.3808593,-0.5449219 0.5742187,-1.640625 0.5742187,-3.28125 0,-1.6464844 -0.1933594,-2.7421875 -0.5742187,-3.28125 -0.3837891,-0.5449219 -0.8642578,-0.8203125 -1.4414063,-0.8203125 -0.5625,0 -1.0136719,0.2402344 -1.3476562,0.7148438 -0.421875,0.609375 -0.6328125,1.7402343 -0.6328125,3.3867187 z m 0,0"
       style="fill:#000000;fill-opacity:1;fill-rule:nonzero;stroke:none"
       aria-label="0"
       transform="matrix(1.3333333,0,0,1.3333333,86.444267,519.55573)" />
    <path
       id="path55"
       d="M 748.332,1058.33 H 792.5"
       style="fill:none;stroke:#000000;stroke-width:5;stroke-linecap:round;stroke-linejoin:round;stroke-miterlimit:10;stroke-dasharray:none;stroke-opacity:1"
       transform="matrix(0.13333333,0,0,-0.13333333,0,576)" />
    <path
       id="path56"
       d="m 0.58710625,-4.9453047 c 0,-1.1865234 0.12011719,-2.1386719 0.36328125,-2.859375 0.2402344,-0.7265625 0.6005859,-1.2832031 1.078125,-1.6757812 0.4833984,-0.3896485 1.0927734,-0.5859371 1.828125,-0.5859371 0.5302734,0 0.9990234,0.1113277 1.40625,0.3281246 0.4042969,0.2197265 0.7412109,0.5332031 1.0078125,0.9375 0.2636719,0.4072265 0.4716797,0.9023437 0.6210938,1.4882812 0.1464843,0.5859375 0.2226562,1.3769531 0.2226562,2.3671875 0,1.1806641 -0.1230469,2.1328125 -0.3632812,2.859375 -0.234375,0.7207031 -0.5947266,1.27734376 -1.078125,1.67578126 -0.4863282,0.39257813 -1.0898438,0.5859375 -1.8164063,0.5859375 -0.9697266,0 -1.7314453,-0.34570312 -2.2851562,-1.04296875 C 0.91523125,-1.7021406 0.58710625,-3.0615156 0.58710625,-4.9453047 Z m 1.26562505,0 c 0,1.6494141 0.1904296,2.7480469 0.5742187,3.2929688 0.3808594,0.5390625 0.8583984,0.80859371 1.4296875,0.80859371 0.5625,0 1.0341797,-0.27246091 1.4179688,-0.82031251 0.3808593,-0.5449219 0.5742187,-1.640625 0.5742187,-3.28125 0,-1.6464844 -0.1933594,-2.7421875 -0.5742187,-3.28125 C 4.8908172,-8.7714766 4.4103484,-9.0468672 3.8332,-9.0468672 c -0.5625,0 -1.0136719,0.2402344 -1.3476562,0.7148438 -0.421875,0.609375 -0.6328125,1.7402343 -0.6328125,3.3867187 z M 9.0626922,7.8125e-6 V -1.4062422 H 10.457223 V 7.8125e-6 Z M 12.261911,-2.6249922 13.550973,-2.7304609 c 0.09375,0.6269531 0.310547,1.0986328 0.65625,1.4179687 0.351563,0.31347658 0.773438,0.46875001 1.265625,0.46875001 0.591797,0 1.092774,-0.22265621 1.5,-0.66796871 0.413086,-0.4453125 0.621094,-1.0371094 0.621094,-1.78125 0,-0.703125 -0.199219,-1.2539063 -0.597656,-1.6523438 -0.392578,-0.4042969 -0.902344,-0.609375 -1.535156,-0.609375 -0.398438,0 -0.758789,0.09082 -1.078125,0.2695313 -0.322266,0.1816406 -0.571289,0.4101562 -0.75,0.6914062 l -1.160157,-0.140625 0.972657,-5.15625 h 4.980468 v 1.1835938 H 14.42988 l -0.539063,2.6953125 c 0.600586,-0.421875 1.233399,-0.6328125 1.898438,-0.6328125 0.873047,0 1.611328,0.3046875 2.214843,0.9140625 0.600586,0.6035156 0.902344,1.3798828 0.902344,2.3320312 0,0.9082031 -0.266601,1.6933594 -0.796875,2.3554688 -0.641601,0.81445309 -1.520508,1.21874996 -2.636719,1.21874996 -0.908203,0 -1.649414,-0.25195312 -2.226562,-0.76171875 C 12.666208,-1.1015547 12.338083,-1.7812422 12.261911,-2.6249922 Z m 0,0"
       style="fill:#000000;fill-opacity:1;fill-rule:nonzero;stroke:none"
       aria-label="0.5"
       transform="matrix(1.3333333,0,0,1.3333333,70.889067,441.77733)" />
    <path
       id="path57"
       d="M 748.332,1641.67 H 792.5"
       style="fill:none;stroke:#000000;stroke-width:5;stroke-linecap:round;stroke-linejoin:round;stroke-miterlimit:10;stroke-dasharray:none;stroke-opacity:1"
       transform="matrix(0.13333333,0,0,-0.13333333,0,576)" />
    <path
       id="path58"
       d="M 5.2156281,0 H 3.9851594 v -7.8398437 c -0.2988282,0.28125 -0.6884766,0.5625 -1.171875,0.84375 -0.4775391,0.28125 -0.9082032,0.4921875 -1.2890625,0.6328125 V -7.546875 C 2.2097687,-7.875 2.8132844,-8.2646484 3.3289094,-8.71875 c 0.515625,-0.4599609 0.8818359,-0.9082031 1.1015625,-1.347656 h 0.7851562 z m 0,0"
       style="fill:#000000;fill-opacity:1;fill-rule:nonzero;stroke:none"
       aria-label="1"
       transform="matrix(1.3333333,0,0,1.3333333,86.444267,364)" />
    <path
       id="path59"
       d="M 748.332,2225 H 792.5"
       style="fill:none;stroke:#000000;stroke-width:5;stroke-linecap:round;stroke-linejoin:round;stroke-miterlimit:10;stroke-dasharray:none;stroke-opacity:1"
       transform="matrix(0.13333333,0,0,-0.13333333,0,576)" />
    <path
       id="path60"
       d="M 5.2160125,-7.8125e-6 H 3.9855438 V -7.8398516 c -0.2988282,0.28125 -0.6884766,0.5625 -1.171875,0.84375 -0.4775391,0.28125 -0.9082032,0.4921875 -1.2890625,0.6328125 v -1.1835937 c 0.6855468,-0.328125 1.2890625,-0.7177735 1.8046875,-1.171875 0.515625,-0.459961 0.8818359,-0.9082031 1.1015625,-1.3476562 h 0.7851562 z m 3.8466797,0 V -1.4062578 H 10.457223 V -7.8125e-6 Z M 12.261911,-2.6250078 13.550973,-2.7304766 c 0.09375,0.6269532 0.310547,1.0986328 0.65625,1.4179688 0.351563,0.31347655 0.773438,0.46874999 1.265625,0.46874999 0.591797,0 1.092774,-0.22265629 1.5,-0.66796879 0.413086,-0.4453125 0.621094,-1.0371093 0.621094,-1.78125 0,-0.703125 -0.199219,-1.2539062 -0.597656,-1.6523437 -0.392578,-0.4042969 -0.902344,-0.609375 -1.535156,-0.609375 -0.398438,0 -0.758789,0.09082 -1.078125,0.2695312 -0.322266,0.1816407 -0.571289,0.4101563 -0.75,0.6914063 l -1.160157,-0.140625 0.972657,-5.15625 h 4.980468 v 1.1835937 H 14.42988 l -0.539063,2.6953125 c 0.600586,-0.421875 1.233399,-0.6328125 1.898438,-0.6328125 0.873047,0 1.611328,0.3046875 2.214843,0.9140625 0.600586,0.6035157 0.902344,1.3798828 0.902344,2.3320313 0,0.9082031 -0.266601,1.6933594 -0.796875,2.3554687 -0.641601,0.81445316 -1.520508,1.21875004 -2.636719,1.21875004 -0.908203,0 -1.649414,-0.25195313 -2.226562,-0.76171875 C 12.666208,-1.1015703 12.338083,-1.7812578 12.261911,-2.6250078 Z m 0,0"
       style="fill:#000000;fill-opacity:1;fill-rule:nonzero;stroke:none"
       aria-label="1.5"
       transform="matrix(1.3333333,0,0,1.3333333,70.889067,286.22267)" />
    <path
       id="path61"
       d="M 748.332,2808.33 H 792.5"
       style="fill:none;stroke:#000000;stroke-width:5;stroke-linecap:round;stroke-linejoin:round;stroke-miterlimit:10;stroke-dasharray:none;stroke-opacity:1"
       transform="matrix(0.13333333,0,0,-0.13333333,0,576)" />
    <path
       id="path62"
       d="M 7.0554719,-1.1826094 V 9.84375e-4 H 0.42265937 C 0.41387031,-0.29491406 0.46074531,-0.57909375 0.56328437,-0.85448437 0.73320625,-1.3056562 1.0027375,-1.7509687 1.3718781,-2.1904219 c 0.375,-0.4365234 0.9140625,-0.9404297 1.6171875,-1.5117187 1.0839844,-0.8964844 1.819336,-1.6054688 2.203125,-2.1210938 0.3808594,-0.5214843 0.5742188,-1.0195312 0.5742188,-1.4882812 0,-0.4833985 -0.1757813,-0.8935547 -0.5273438,-1.2304688 -0.3457031,-0.3339843 -0.796875,-0.5039062 -1.359375,-0.5039062 -0.5859375,0 -1.0605469,0.1816406 -1.4179687,0.5390625 -0.3515625,0.3515625 -0.5332032,0.84375 -0.5390625,1.4765625 l -1.26562503,-0.140625 c 0.0849609,-0.9375 0.41015623,-1.6523438 0.97265623,-2.1445313 0.5683594,-0.4980468 1.3300781,-0.7500001 2.2851563,-0.7500001 0.9609375,0 1.7167968,0.2695314 2.2734375,0.8085939 0.5625,0.5332031 0.84375,1.1923828 0.84375,1.9804687 0,0.3984375 -0.082031,0.7939453 -0.2460938,1.1835938 -0.1640625,0.383789 -0.4394531,0.7910156 -0.8203125,1.21875 -0.375,0.430664 -1.0048828,1.0195312 -1.8867187,1.7695312 -0.7441407,0.6181641 -1.21875,1.0371094 -1.4296875,1.2539063 -0.2050782,0.2197265 -0.375,0.4423828 -0.515625,0.6679687 z m 0,0"
       style="fill:#000000;fill-opacity:1;fill-rule:nonzero;stroke:none"
       aria-label="2"
       transform="matrix(1.3333333,0,0,1.3333333,86.444267,208.444)" />
    <path
       id="path63"
       d="M 748.332,3391.67 H 792.5"
       style="fill:none;stroke:#000000;stroke-width:5;stroke-linecap:round;stroke-linejoin:round;stroke-miterlimit:10;stroke-dasharray:none;stroke-opacity:1"
       transform="matrix(0.13333333,0,0,-0.13333333,0,576)" />
    <path
       id="path64"
       d="M 7.0558563,-1.1826172 V 9.765625e-4 H 0.42304375 C 0.41425469,-0.29492188 0.46112969,-0.57910156 0.56366875,-0.85449219 0.73359063,-1.3056641 1.0031219,-1.7509766 1.3722625,-2.1904297 c 0.375,-0.4365234 0.9140625,-0.9404297 1.6171875,-1.5117187 1.0839844,-0.8964844 1.8193359,-1.6054688 2.203125,-2.1210938 0.3808594,-0.5214844 0.5742188,-1.0195312 0.5742188,-1.4882812 0,-0.4833985 -0.1757813,-0.8935547 -0.5273438,-1.2304688 -0.3457031,-0.3339844 -0.796875,-0.5039062 -1.359375,-0.5039062 -0.5859375,0 -1.0605469,0.1816406 -1.4179687,0.5390625 -0.3515625,0.3515625 -0.5332032,0.84375 -0.5390625,1.4765625 l -1.26562505,-0.140625 c 0.0849609,-0.9375 0.41015625,-1.6523438 0.97265625,-2.1445313 0.5683594,-0.4980469 1.3300781,-0.7500003 2.2851563,-0.7500003 0.9609375,0 1.7167968,0.2695316 2.2734375,0.8085941 0.5625,0.5332031 0.84375,1.1923828 0.84375,1.9804687 0,0.3984375 -0.082031,0.7939453 -0.2460938,1.1835938 -0.1640625,0.383789 -0.4394531,0.7910156 -0.8203125,1.21875 -0.375,0.430664 -1.0048828,1.0195312 -1.8867187,1.7695312 -0.7441407,0.6181641 -1.21875,1.0371094 -1.4296875,1.2539063 -0.2050782,0.2197265 -0.375,0.4423828 -0.515625,0.6679687 z M 9.0626922,9.765625e-4 V -1.4052734 H 10.457223 V 9.765625e-4 Z M 12.261911,-2.6240234 13.550973,-2.7294922 c 0.09375,0.6269531 0.310547,1.0986328 0.65625,1.4179688 0.351563,0.31347652 0.773438,0.46874996 1.265625,0.46874996 0.591797,0 1.092774,-0.22265626 1.5,-0.66796876 0.413086,-0.4453125 0.621094,-1.0371094 0.621094,-1.78125 0,-0.703125 -0.199219,-1.2539062 -0.597656,-1.6523437 -0.392578,-0.4042969 -0.902344,-0.609375 -1.535156,-0.609375 -0.398438,0 -0.758789,0.09082 -1.078125,0.2695312 -0.322266,0.1816406 -0.571289,0.4101563 -0.75,0.6914063 l -1.160157,-0.140625 0.972657,-5.15625 h 4.980468 v 1.1835937 H 14.42988 l -0.539063,2.6953125 c 0.600586,-0.421875 1.233399,-0.6328125 1.898438,-0.6328125 0.873047,0 1.611328,0.3046875 2.214843,0.9140625 0.600586,0.6035156 0.902344,1.3798828 0.902344,2.3320313 0,0.9082031 -0.266601,1.6933593 -0.796875,2.3554687 -0.641601,0.81445314 -1.520508,1.21875001 -2.636719,1.21875001 -0.908203,0 -1.649414,-0.25195312 -2.226562,-0.76171875 C 12.666208,-1.1005859 12.338083,-1.7802734 12.261911,-2.6240234 Z m 0,0"
       style="fill:#000000;fill-opacity:1;fill-rule:nonzero;stroke:none"
       aria-label="2.5"
       transform="matrix(1.3333333,0,0,1.3333333,70.889067,130.66667)" />
    <path
       id="path65"
       d="M 748.332,3975 H 792.5"
       style="fill:none;stroke:#000000;stroke-width:5;stroke-linecap:round;stroke-linejoin:round;stroke-miterlimit:10;stroke-dasharray:none;stroke-opacity:1"
       transform="matrix(0.13333333,0,0,-0.13333333,0,576)" />
    <path
       id="path66"
       d="M 0.58672187,-2.6474688 1.8171906,-2.8115313 c 0.140625,0.6972657 0.3779297,1.2011719 0.7148438,1.5117188 0.3427734,0.3046875 0.7617187,0.45703125 1.2539062,0.45703125 0.5771485,0 1.0664063,-0.19921875 1.4648438,-0.59765625 0.3984375,-0.3984375 0.5976562,-0.8935547 0.5976562,-1.4882813 0,-0.5683593 -0.1875,-1.0371093 -0.5625,-1.40625 C 4.9168,-4.7011797 4.44805,-4.88575 3.8796906,-4.88575 c -0.2285156,0 -0.515625,0.046875 -0.8671875,0.140625 l 0.140625,-1.078125 c 0.076172,0.00879 0.1435547,0.011719 0.1992188,0.011719 0.5214843,0 0.9902343,-0.1347656 1.40625,-0.4101562 0.421875,-0.2724609 0.6328125,-0.6943359 0.6328125,-1.265625 0,-0.4511719 -0.1523438,-0.8261719 -0.4570313,-1.125 C 4.6296906,-8.9082109 4.2341828,-9.057625 3.7507844,-9.057625 c -0.4775391,0 -0.8759766,0.1523437 -1.1953125,0.4570312 -0.3222657,0.2988282 -0.5244141,0.7470704 -0.609375,1.3476563 L 0.71562812,-7.463875 C 0.8621125,-8.2900469 1.2019562,-8.9316484 1.7351594,-9.38575 c 0.5302734,-0.4511719 1.1953125,-0.679688 1.9921875,-0.679688 0.5449218,0 1.0488281,0.117188 1.5117187,0.351563 0.459961,0.234375 0.8115235,0.5566406 1.0546875,0.9609375 0.2402344,0.4072266 0.3632813,0.8378906 0.3632813,1.2890625 0,0.4394531 -0.1171875,0.8378906 -0.3515625,1.1953125 -0.2285157,0.3515625 -0.5712891,0.6328125 -1.03125,0.84375 0.5917968,0.1347656 1.0546875,0.4160156 1.3828125,0.84375 0.328125,0.4306641 0.4921875,0.9697266 0.4921875,1.6171875 0,0.8759766 -0.3222657,1.6171875 -0.9609375,2.2265625 C 5.5554719,-0.1279375 4.7498078,0.17675 3.7742219,0.17675 2.8894562,0.17675 2.1599641,-0.08399219 1.5828156,-0.60840625 1.0027375,-1.1298906 0.67168281,-1.8095781 0.58672187,-2.6474688 Z M 173.54961,-16.250008 v -8.835937 h -3.30469 v -1.183594 h 7.94532 v 1.183594 h -3.31641 v 8.835937 z m 5.84766,0 v -10.019531 h 1.23047 v 3.597656 c 0.56836,-0.670898 1.29199,-1.007812 2.16797,-1.007812 0.53906,0 1.00781,0.111328 1.40625,0.328125 0.39843,0.210937 0.67968,0.503906 0.84375,0.878906 0.16992,0.369141 0.25781,0.908203 0.25781,1.617187 v 4.605469 h -1.23047 v -4.605469 c 0,-0.609375 -0.13477,-1.054687 -0.39844,-1.335937 -0.2666,-0.28125 -0.6416,-0.421875 -1.125,-0.421875 -0.36914,0 -0.71191,0.09375 -1.03125,0.28125 -0.32226,0.1875 -0.55078,0.445312 -0.6914,0.773437 -0.13477,0.322266 -0.19922,0.767579 -0.19922,1.335938 v 3.972656 z m 12.75293,-2.34375 1.27734,0.164063 c -0.20508,0.74414 -0.58008,1.321289 -1.125,1.734375 -0.53906,0.407226 -1.23047,0.609375 -2.07422,0.609375 -1.06347,0 -1.90722,-0.322266 -2.53125,-0.972657 -0.61816,-0.65625 -0.92578,-1.576171 -0.92578,-2.765625 0,-1.21875 0.31055,-2.162109 0.9375,-2.835937 0.63281,-0.679688 1.44727,-1.019531 2.44922,-1.019531 0.9668,0 1.76074,0.333984 2.37891,0.996093 0.61523,0.665039 0.92578,1.59375 0.92578,2.789063 0,0.07031 -0.006,0.181641 -0.0117,0.328125 h -5.41406 c 0.0469,0.796875 0.27246,1.412109 0.67968,1.839844 0.4043,0.421875 0.91407,0.632812 1.52344,0.632812 0.44531,0 0.82617,-0.117187 1.14844,-0.351562 0.31934,-0.240235 0.57422,-0.624024 0.76172,-1.148438 z m -4.04297,-1.980469 h 4.05469 c -0.0557,-0.615234 -0.21094,-1.078125 -0.46875,-1.382812 -0.39258,-0.46875 -0.89942,-0.703125 -1.52344,-0.703125 -0.5625,0 -1.04004,0.193359 -1.42969,0.574219 -0.38379,0.375 -0.59472,0.878906 -0.63281,1.511718 z m 11.04199,4.324219 v -6.304687 h -1.08984 v -0.960938 h 1.08984 v -0.773437 c 0,-0.483399 0.041,-0.84375 0.12891,-1.078125 0.11719,-0.319336 0.32226,-0.577149 0.62109,-0.773438 0.30469,-0.202148 0.7207,-0.304687 1.25391,-0.304687 0.35156,0 0.73242,0.04394 1.14844,0.128906 l -0.17579,1.066406 c -0.25781,-0.04687 -0.50097,-0.07031 -0.72656,-0.07031 -0.375,0 -0.6416,0.08203 -0.79687,0.246093 -0.15821,0.158204 -0.23438,0.454102 -0.23438,0.890625 v 0.667969 h 1.41797 v 0.960938 h -1.41797 v 6.304687 z m 3.60059,-8.613281 v -1.40625 h 1.23047 v 1.40625 z m 0,8.613281 v -7.265625 h 1.23047 v 7.265625 z m 3.09668,0 v -7.265625 h 1.10156 v 1.101563 c 0.28125,-0.515625 0.54199,-0.855469 0.78516,-1.019532 0.24023,-0.164062 0.5039,-0.246093 0.78515,-0.246093 0.41309,0 0.83496,0.134765 1.26563,0.398437 l -0.42188,1.148438 c -0.29883,-0.178711 -0.59765,-0.269532 -0.90234,-0.269532 -0.2666,0 -0.50977,0.08203 -0.72656,0.246094 -0.21094,0.158203 -0.36329,0.38086 -0.45704,0.667969 -0.13476,0.439453 -0.19921,0.919922 -0.19921,1.441406 v 3.796875 z m 4.18066,-2.167969 1.21875,-0.1875 c 0.0615,0.486329 0.24902,0.861329 0.5625,1.125 0.31055,0.257813 0.75,0.386719 1.3125,0.386719 0.5625,0 0.97852,-0.111328 1.25391,-0.339844 0.27246,-0.234375 0.41015,-0.506836 0.41015,-0.820312 0,-0.28125 -0.11718,-0.498047 -0.35156,-0.65625 -0.17285,-0.108399 -0.59473,-0.249024 -1.26562,-0.421875 -0.89942,-0.225586 -1.52344,-0.421875 -1.875,-0.585938 -0.35157,-0.164062 -0.61817,-0.392578 -0.79688,-0.691406 -0.18164,-0.295898 -0.26953,-0.621094 -0.26953,-0.972656 0,-0.328125 0.0732,-0.626953 0.22266,-0.902344 0.14648,-0.272461 0.35156,-0.498047 0.60937,-0.679687 0.1875,-0.146485 0.44531,-0.269532 0.77344,-0.363282 0.33398,-0.09961 0.69141,-0.152343 1.06641,-0.152343 0.56835,0 1.06933,0.08203 1.5,0.246093 0.43652,0.164063 0.75585,0.386719 0.96093,0.667969 0.20215,0.28125 0.34278,0.65625 0.42188,1.125 l -1.20703,0.164063 c -0.0557,-0.375 -0.2168,-0.66211 -0.48047,-0.867188 -0.25781,-0.210937 -0.62696,-0.316406 -1.10156,-0.316406 -0.5625,0 -0.9668,0.09375 -1.20704,0.28125 -0.24316,0.1875 -0.36328,0.407226 -0.36328,0.65625 0,0.158203 0.0498,0.298828 0.15235,0.421875 0.0937,0.134766 0.24902,0.243164 0.46875,0.328125 0.12304,0.04687 0.48632,0.152344 1.08984,0.316406 0.86719,0.234375 1.4707,0.427735 1.81641,0.574219 0.34277,0.149414 0.6123,0.363281 0.80859,0.644531 0.19336,0.28125 0.29297,0.632813 0.29297,1.054688 0,0.407226 -0.12305,0.793945 -0.36328,1.160156 -0.23438,0.360351 -0.58008,0.641601 -1.03125,0.84375 -0.44531,0.193359 -0.95508,0.292969 -1.52344,0.292969 -0.94629,0 -1.66992,-0.19336 -2.16797,-0.585938 -0.49219,-0.389648 -0.80566,-0.972656 -0.9375,-1.746094 z m 10.17481,1.066407 0.17578,1.089843 c -0.34571,0.07031 -0.65332,0.105469 -0.92578,0.105469 -0.44532,0 -0.79395,-0.07031 -1.04297,-0.210937 -0.24317,-0.140625 -0.41602,-0.322266 -0.51563,-0.550782 -0.10254,-0.234375 -0.15234,-0.717773 -0.15234,-1.453125 v -4.183593 h -0.90235 v -0.960938 h 0.90235 v -1.792969 l 1.21875,-0.738281 v 2.53125 h 1.24219 v 0.960938 h -1.24219 v 4.242187 c 0,0.351563 0.0234,0.580078 0.0703,0.679688 0.0469,0.102539 0.11719,0.18457 0.21094,0.246093 0.0996,0.05566 0.24023,0.08203 0.42187,0.08203 0.13184,0 0.31055,-0.01465 0.53907,-0.04687 z m 10.06933,-1.242188 1.27735,0.164063 c -0.20508,0.74414 -0.58008,1.321289 -1.125,1.734375 -0.53907,0.407226 -1.23047,0.609375 -2.07422,0.609375 -1.06348,0 -1.90723,-0.322266 -2.53125,-0.972657 -0.61817,-0.65625 -0.92578,-1.576171 -0.92578,-2.765625 0,-1.21875 0.31054,-2.162109 0.9375,-2.835937 0.63281,-0.679688 1.44726,-1.019531 2.44921,-1.019531 0.9668,0 1.76075,0.333984 2.37891,0.996093 0.61524,0.665039 0.92578,1.59375 0.92578,2.789063 0,0.07031 -0.006,0.181641 -0.0117,0.328125 h -5.41406 c 0.0469,0.796875 0.27246,1.412109 0.67969,1.839844 0.4043,0.421875 0.91406,0.632812 1.52344,0.632812 0.44531,0 0.82617,-0.117187 1.14843,-0.351562 0.31934,-0.240235 0.57422,-0.624024 0.76172,-1.148438 z m -4.04297,-1.980469 h 4.05469 c -0.0557,-0.615234 -0.21094,-1.078125 -0.46875,-1.382812 -0.39258,-0.46875 -0.89941,-0.703125 -1.52344,-0.703125 -0.5625,0 -1.04004,0.193359 -1.42968,0.574219 -0.38379,0.375 -0.59473,0.878906 -0.63282,1.511718 z m 6.8584,-4.289062 v -1.40625 h 1.23047 v 1.40625 z m 0,8.613281 v -7.265625 h 1.23047 v 7.265625 z m 2.88574,0.597656 1.19532,0.1875 c 0.0469,0.366211 0.18164,0.632813 0.41015,0.796875 0.30469,0.234375 0.72071,0.351563 1.25391,0.351563 0.56836,0 1.00781,-0.117188 1.3125,-0.351563 0.31055,-0.228515 0.52148,-0.544921 0.63281,-0.949218 0.0615,-0.251953 0.0937,-0.776368 0.0937,-1.582032 -0.53906,0.632813 -1.21289,0.949219 -2.01562,0.949219 -0.99317,0 -1.76368,-0.357422 -2.3086,-1.078125 -0.54785,-0.717773 -0.82031,-1.582031 -0.82031,-2.589844 0,-0.694336 0.12305,-1.335937 0.375,-1.921875 0.24902,-0.585937 0.6123,-1.037109 1.08984,-1.359375 0.47461,-0.319336 1.03418,-0.480468 1.67579,-0.480468 0.85839,0 1.56445,0.348632 2.12109,1.042968 v -0.878906 h 1.13672 v 6.28125 c 0,1.13086 -0.11719,1.933594 -0.35156,2.402344 -0.22852,0.46875 -0.5918,0.837891 -1.08985,1.113281 -0.50098,0.272461 -1.11328,0.410156 -1.83984,0.410156 -0.86719,0 -1.57031,-0.196289 -2.10938,-0.585937 -0.5332,-0.383789 -0.78515,-0.969727 -0.76172,-1.757813 z m 1.00782,-4.359375 c 0,0.955079 0.1875,1.649414 0.5625,2.085938 0.38086,0.439453 0.85839,0.65625 1.42968,0.65625 0.56836,0 1.0459,-0.213867 1.42969,-0.644531 0.38086,-0.436524 0.57422,-1.119141 0.57422,-2.050782 0,-0.890625 -0.19922,-1.561523 -0.59766,-2.015625 -0.39257,-0.451171 -0.86425,-0.679687 -1.41796,-0.679687 -0.55665,0 -1.0254,0.222656 -1.40625,0.667969 -0.38379,0.445312 -0.57422,1.107422 -0.57422,1.980468 z m 11.96777,1.417969 1.27734,0.164063 c -0.20507,0.74414 -0.58007,1.321289 -1.125,1.734375 -0.53906,0.407226 -1.23047,0.609375 -2.07422,0.609375 -1.06347,0 -1.90722,-0.322266 -2.53125,-0.972657 -0.61816,-0.65625 -0.92578,-1.576171 -0.92578,-2.765625 0,-1.21875 0.31055,-2.162109 0.9375,-2.835937 0.63282,-0.679688 1.44727,-1.019531 2.44922,-1.019531 0.9668,0 1.76074,0.333984 2.37891,0.996093 0.61523,0.665039 0.92578,1.59375 0.92578,2.789063 0,0.07031 -0.006,0.181641 -0.0117,0.328125 h -5.41406 c 0.0469,0.796875 0.27246,1.412109 0.67969,1.839844 0.40429,0.421875 0.91406,0.632812 1.52343,0.632812 0.44532,0 0.82618,-0.117187 1.14844,-0.351562 0.31934,-0.240235 0.57422,-0.624024 0.76172,-1.148438 z m -4.04297,-1.980469 h 4.05469 c -0.0557,-0.615234 -0.21094,-1.078125 -0.46875,-1.382812 -0.39258,-0.46875 -0.89942,-0.703125 -1.52344,-0.703125 -0.5625,0 -1.04004,0.193359 -1.42969,0.574219 -0.38379,0.375 -0.59472,0.878906 -0.63281,1.511718 z m 6.8584,4.324219 v -7.265625 h 1.10156 v 1.03125 c 0.53906,-0.796875 1.3125,-1.195312 2.32031,-1.195312 0.43653,0 0.83497,0.08203 1.19532,0.246093 0.36621,0.158204 0.63867,0.363282 0.82031,0.621094 0.1875,0.251953 0.31641,0.550781 0.38672,0.902344 0.0469,0.228516 0.0703,0.626953 0.0703,1.195312 v 4.464844 h -1.23047 v -4.417969 c 0,-0.498046 -0.0469,-0.873046 -0.14062,-1.125 -0.0937,-0.249023 -0.2666,-0.448242 -0.51563,-0.597656 -0.24316,-0.146484 -0.52734,-0.222656 -0.85547,-0.222656 -0.52441,0 -0.97851,0.169922 -1.35937,0.503906 -0.375,0.336914 -0.5625,0.969727 -0.5625,1.898438 v 3.960937 z m 7.78418,0 v -7.265625 h 1.10156 v 1.019531 c 0.22559,-0.351562 0.52735,-0.635742 0.90235,-0.855468 0.38085,-0.216797 0.81445,-0.328125 1.30078,-0.328125 0.53027,0 0.96679,0.114257 1.3125,0.339843 0.35156,0.228516 0.59765,0.539063 0.73828,0.9375 0.56836,-0.849609 1.31543,-1.277343 2.23828,-1.277343 0.71777,0 1.26855,0.199218 1.65234,0.597656 0.38965,0.398437 0.58594,1.016601 0.58594,1.851562 v 4.980469 h -1.21875 v -4.570312 c 0,-0.492188 -0.041,-0.84668 -0.11719,-1.066407 -0.0791,-0.216796 -0.22265,-0.392578 -0.43359,-0.527343 -0.21094,-0.131836 -0.45703,-0.199219 -0.73828,-0.199219 -0.51563,0 -0.94336,0.172851 -1.27735,0.515625 -0.33691,0.336914 -0.5039,0.878906 -0.5039,1.628906 v 4.21875 h -1.23047 v -4.722656 c 0,-0.544922 -0.10254,-0.955078 -0.30469,-1.230469 -0.19629,-0.272461 -0.52441,-0.410156 -0.98437,-0.410156 -0.34571,0 -0.66504,0.09375 -0.96094,0.28125 -0.29004,0.181641 -0.50098,0.445312 -0.63281,0.796875 -0.13477,0.351562 -0.19922,0.855469 -0.19922,1.511719 v 3.773437 z m 11.20312,-3.632812 c 0,-1.341797 0.36914,-2.337891 1.11329,-2.988282 0.62402,-0.539062 1.38574,-0.808593 2.28515,-0.808593 0.99903,0 1.81641,0.328125 2.44922,0.984375 0.63281,0.65625 0.94922,1.558593 0.94922,2.707031 0,0.9375 -0.14063,1.675781 -0.42188,2.214844 -0.28125,0.533203 -0.6914,0.946289 -1.23046,1.242187 -0.53321,0.295899 -1.11329,0.445313 -1.7461,0.445313 -1.0166,0 -1.83691,-0.322266 -2.46094,-0.972657 -0.62695,-0.65625 -0.9375,-1.596679 -0.9375,-2.824218 z m 1.26563,0 c 0,0.93164 0.19922,1.628906 0.59766,2.097656 0.40429,0.462891 0.91699,0.691406 1.53515,0.691406 0.60938,0 1.11621,-0.228515 1.52344,-0.691406 0.4043,-0.46875 0.60937,-1.177734 0.60937,-2.132813 0,-0.896484 -0.20507,-1.576171 -0.60937,-2.039062 -0.40723,-0.46875 -0.91406,-0.703125 -1.52344,-0.703125 -0.61816,0 -1.13086,0.231445 -1.53515,0.691406 -0.39844,0.462891 -0.59766,1.157227 -0.59766,2.085938 z m 11.68652,3.632812 v -0.914062 c -0.46289,0.720703 -1.13672,1.078125 -2.02734,1.078125 -0.58594,0 -1.12207,-0.161133 -1.60547,-0.480469 -0.48633,-0.319336 -0.86133,-0.764649 -1.125,-1.335938 -0.2666,-0.568359 -0.39844,-1.224609 -0.39844,-1.96875 0,-0.726562 0.12012,-1.382812 0.36328,-1.96875 0.24024,-0.591796 0.60059,-1.045898 1.07813,-1.359375 0.4834,-0.319336 1.02539,-0.480468 1.62891,-0.480468 0.43652,0 0.82324,0.09375 1.16015,0.28125 0.34277,0.1875 0.62402,0.430664 0.84375,0.726562 v -3.597656 h 1.21875 v 10.019531 z m -3.89062,-3.621094 c 0,0.931641 0.19336,1.625977 0.58594,2.085938 0.38964,0.462891 0.8496,0.691406 1.38281,0.691406 0.53906,0 0.99609,-0.216797 1.37109,-0.65625 0.38086,-0.445312 0.57422,-1.11914 0.57422,-2.027344 0,-0.990234 -0.19336,-1.716796 -0.57422,-2.179687 -0.38379,-0.46875 -0.85547,-0.703125 -1.41797,-0.703125 -0.54785,0 -1.00488,0.228516 -1.37109,0.679687 -0.36914,0.445313 -0.55078,1.148438 -0.55078,2.109375 z m 11.93261,1.277344 1.27735,0.164063 c -0.20508,0.74414 -0.58008,1.321289 -1.125,1.734375 -0.53906,0.407226 -1.23047,0.609375 -2.07422,0.609375 -1.06348,0 -1.90723,-0.322266 -2.53125,-0.972657 -0.61816,-0.65625 -0.92578,-1.576171 -0.92578,-2.765625 0,-1.21875 0.31055,-2.162109 0.9375,-2.835937 0.63281,-0.679688 1.44726,-1.019531 2.44922,-1.019531 0.96679,0 1.76074,0.333984 2.3789,0.996093 0.61524,0.665039 0.92578,1.59375 0.92578,2.789063 0,0.07031 -0.006,0.181641 -0.0117,0.328125 h -5.41407 c 0.0469,0.796875 0.27246,1.412109 0.67969,1.839844 0.4043,0.421875 0.91406,0.632812 1.52344,0.632812 0.44531,0 0.82617,-0.117187 1.14844,-0.351562 0.31933,-0.240235 0.57421,-0.624024 0.76171,-1.148438 z m -4.04296,-1.980469 h 4.05468 c -0.0557,-0.615234 -0.21093,-1.078125 -0.46875,-1.382812 -0.39257,-0.46875 -0.89941,-0.703125 -1.52343,-0.703125 -0.5625,0 -1.04004,0.193359 -1.42969,0.574219 -0.38379,0.375 -0.59473,0.878906 -0.63281,1.511718 z m -59.26172,395.408207 2.64843,-3.77344 -2.44921,-3.49219 h 1.53515 l 1.11328,1.71094 c 0.21094,0.32226 0.37793,0.5918 0.50391,0.80859 0.20215,-0.2959 0.38965,-0.5625 0.5625,-0.79687 l 1.21875,-1.72266 h 1.46484 l -2.50781,3.42188 2.70703,3.84375 h -1.51172 l -1.48828,-2.26172 -0.39844,-0.59766 -1.91015,2.85938 z m 0,0"
       style="fill:#000000;fill-opacity:1;fill-rule:nonzero;stroke:none"
       aria-label="3&#10;The first eigenmode&#10;x"
       transform="matrix(1.3333333,0,0,1.3333333,86.444267,52.889333)" />
    <path
       id="path67"
       d="M 0.8671875,2.80195 0.7265625,1.6417938 c 0.27246094,0.070312 0.5097656,0.1054687 0.7148437,0.1054687 0.272461,0 0.4921875,-0.046875 0.65625,-0.140625 0.1640625,-0.087891 0.2958985,-0.2109375 0.3984375,-0.375 0.076172,-0.1259766 0.2021485,-0.43066406 0.375,-0.9140625 0.023437,-0.0703125 0.058594,-0.17285156 0.1054688,-0.3046875 L 0.22265625,-7.2644562 H 1.546875 l 1.5117187,4.2070312 c 0.1933594,0.5332031 0.3691407,1.0957031 0.5273438,1.6875 0.140625,-0.5683594 0.3105469,-1.1191406 0.515625,-1.6523437 l 1.546875,-4.2421875 H 6.8789062 L 4.1132812,0.130075 C 3.8144531,0.92695 3.5859375,1.4718719 3.421875,1.7707 c -0.2197266,0.4042969 -0.46875,0.703125 -0.75,0.890625 -0.28125,0.1875 -0.6181641,0.28125 -1.0078125,0.28125 -0.2431641,0 -0.5097656,-0.046875 -0.796875,-0.140625 z m 0,0"
       style="fill:#000000;fill-opacity:1;fill-rule:nonzero;stroke:none"
       aria-label="y"
       transform="matrix(0,-1.3333333,1.3333333,0,64.889067,284)" />
    <path
       id="path68"
       d="M 1712.5,475 V 2225"
       style="fill:none;stroke:#000000;stroke-width:5;stroke-linecap:round;stroke-linejoin:round;stroke-miterlimit:10;stroke-dasharray:60;stroke-dashoffset:0;stroke-opacity:1"
       transform="matrix(0.13333333,0,0,-0.13333333,0,576)"
       clip-path="url(#clipPath69)" />
    <path
       id="path70"
       d="M 1712.5,2225 V 3975"
       style="fill:none;stroke:#000000;stroke-width:5;stroke-linecap:round;stroke-linejoin:round;stroke-miterlimit:10;stroke-dasharray:60;stroke-dashoffset:0;stroke-opacity:1"
       transform="matrix(0.13333333,0,0,-0.13333333,0,576)"
       clip-path="url(#clipPath71)" />
    <path
       id="path72"
       d="M 1712.5,3975 H 2879.17"
       style="fill:none;stroke:#000000;stroke-width:5;stroke-linecap:round;stroke-linejoin:round;stroke-miterlimit:10;stroke-dasharray:60;stroke-dashoffset:0;stroke-opacity:1"
       transform="matrix(0.13333333,0,0,-0.13333333,0,576)"
       clip-path="url(#clipPath73)" />
    <path
       id="path74"
       d="M 2879.17,3975 H 4045"
       style="fill:none;stroke:#000000;stroke-width:5;stroke-linecap:round;stroke-linejoin:round;stroke-miterlimit:10;stroke-dasharray:60;stroke-dashoffset:0;stroke-opacity:1"
       transform="matrix(0.13333333,0,0,-0.13333333,0,576)"
       clip-path="url(#clipPath75)" />
    <path
       id="path76"
       d="m 1742.5,475 c 0,-16.566 -13.43,-30 -30,-30 -16.57,0 -30,13.434 -30,30 0,16.566 13.43,30 30,30 16.57,0 30,-13.434 30,-30"
       style="fill:none;stroke:#000000;stroke-width:0.416667;stroke-linecap:round;stroke-linejoin:round;stroke-miterlimit:10;stroke-dasharray:none;stroke-opacity:1"
       transform="matrix(0.13333333,0,0,-0.13333333,0,576)" />
    <path
       id="path77"
       d="m 1742.5,2225 c 0,-16.57 -13.43,-30 -30,-30 -16.57,0 -30,13.43 -30,30 0,16.57 13.43,30 30,30 16.57,0 30,-13.43 30,-30"
       style="fill:none;stroke:#000000;stroke-width:0.416667;stroke-linecap:round;stroke-linejoin:round;stroke-miterlimit:10;stroke-dasharray:none;stroke-opacity:1"
       transform="matrix(0.13333333,0,0,-0.13333333,0,576)" />
    <path
       id="path78"
       d="m 1742.5,2225 c 0,-16.57 -13.43,-30 -30,-30 -16.57,0 -30,13.43 -30,30 0,16.57 13.43,30 30,30 16.57,0 30,-13.43 30,-30"
       style="fill:none;stroke:#000000;stroke-width:0.416667;stroke-linecap:round;stroke-linejoin:round;stroke-miterlimit:10;stroke-dasharray:none;stroke-opacity:1"
       transform="matrix(0.13333333,0,0,-0.13333333,0,576)" />
    <path
       id="path79"
       d="m 1742.5,3975 c 0,-16.57 -13.43,-30 -30,-30 -16.57,0 -30,13.43 -30,30 0,16.57 13.43,30 30,30 16.57,0 30,-13.43 30,-30"
       style="fill:none;stroke:#000000;stroke-width:0.416667;stroke-linecap:round;stroke-linejoin:round;stroke-miterlimit:10;stroke-dasharray:none;stroke-opacity:1"
       transform="matrix(0.13333333,0,0,-0.13333333,0,576)" />
    <path
       id="path80"
       d="m 1742.5,3975 c 0,-16.57 -13.43,-30 -30,-30 -16.57,0 -30,13.43 -30,30 0,16.57 13.43,30 30,30 16.57,0 30,-13.43 30,-30"
       style="fill:none;stroke:#000000;stroke-width:0.416667;stroke-linecap:round;stroke-linejoin:round;stroke-miterlimit:10;stroke-dasharray:none;stroke-opacity:1"
       transform="matrix(0.13333333,0,0,-0.13333333,0,576)" />
    <path
       id="path81"
       d="m 2909.17,3975 c 0,-16.57 -13.44,-30 -30,-30 -16.57,0 -30,13.43 -30,30 0,16.57 13.43,30 30,30 16.56,0 30,-13.43 30,-30"
       style="fill:none;stroke:#000000;stroke-width:0.416667;stroke-linecap:round;stroke-linejoin:round;stroke-miterlimit:10;stroke-dasharray:none;stroke-opacity:1"
       transform="matrix(0.13333333,0,0,-0.13333333,0,576)" />
    <path
       id="path82"
       d="m 2909.17,3975 c 0,-16.57 -13.44,-30 -30,-30 -16.57,0 -30,13.43 -30,30 0,16.57 13.43,30 30,30 16.56,0 30,-13.43 30,-30"
       style="fill:none;stroke:#000000;stroke-width:0.416667;stroke-linecap:round;stroke-linejoin:round;stroke-miterlimit:10;stroke-dasharray:none;stroke-opacity:1"
       transform="matrix(0.13333333,0,0,-0.13333333,0,576)" />
    <path
       id="path83"
       d="m 4075,3975 c 0,-16.57 -13.43,-30 -30,-30 -16.57,0 -30,13.43 -30,30 0,16.57 13.43,30 30,30 16.57,0 30,-13.43 30,-30"
       style="fill:none;stroke:#000000;stroke-width:0.416667;stroke-linecap:round;stroke-linejoin:round;stroke-miterlimit:10;stroke-dasharray:none;stroke-opacity:1"
       transform="matrix(0.13333333,0,0,-0.13333333,0,576)" />
    <path
       id="path84"
       d="m 1712.5,475 v 87.5 l 0.83,87.5 0.84,87.5 1.66,87.5 1.67,87.5 2.5,87.5 2.5,87.5 3.33,87.5 3.34,87.5 3.33,87.5 4.17,87.5 4.16,87.5 4.17,87.5 4.17,87.5 5,87.5 5,87.5 5,87.5 5.83,87.5 5,87.5 5.83,87.5"
       style="fill:none;stroke:#000000;stroke-width:5;stroke-linecap:round;stroke-linejoin:round;stroke-miterlimit:10;stroke-dasharray:none;stroke-opacity:1"
       transform="matrix(0.13333333,0,0,-0.13333333,0,576)"
       clip-path="url(#clipPath85)" />
    <path
       id="path86"
       d="m 1780.83,2225 5.84,87.5 5,87.5 5.83,87.5 5.83,87.5 5.84,87.5 5.83,87.5 5.83,87.5 5.84,87.5 5,87.5 5.83,87.5 5.83,87.5 5,87.5 5.84,87.5 5,87.5 5,87.5 5,87.5 5,87.5 4.16,87.5 4.17,87.5 4.17,87.5"
       style="fill:none;stroke:#000000;stroke-width:5;stroke-linecap:round;stroke-linejoin:round;stroke-miterlimit:10;stroke-dasharray:none;stroke-opacity:1"
       transform="matrix(0.13333333,0,0,-0.13333333,0,576)"
       clip-path="url(#clipPath87)" />
    <path
       id="path88"
       d="m 1886.67,3975 58.33,-2.5 58.33,-2.5 58.34,-2.5 58.33,-1.67 58.33,-1.66 58.34,-1.67 58.33,-1.67 58.33,-1.66 58.34,-0.84 58.33,-1.66 58.33,-0.84 h 58.34 l 58.33,-0.83 58.33,-0.83 h 58.34 58.33 58.33 58.34 58.33 58.33"
       style="fill:none;stroke:#000000;stroke-width:5;stroke-linecap:round;stroke-linejoin:round;stroke-miterlimit:10;stroke-dasharray:none;stroke-opacity:1"
       transform="matrix(0.13333333,0,0,-0.13333333,0,576)"
       clip-path="url(#clipPath89)" />
    <path
       id="path90"
       d="m 3053.33,3954.17 58.34,0.83 H 3170 l 58.33,0.83 58.34,0.84 58.33,0.83 58.33,0.83 58.34,0.84 58.33,0.83 58.33,0.83 58.34,0.84 58.33,1.66 58.33,0.84 58.34,1.66 58.33,0.84 58.33,1.66 58.34,0.84 58.33,1.66 58.33,1.67 58.34,0.83 58.33,1.67"
       style="fill:none;stroke:#000000;stroke-width:5;stroke-linecap:round;stroke-linejoin:round;stroke-miterlimit:10;stroke-dasharray:none;stroke-opacity:1"
       transform="matrix(0.13333333,0,0,-0.13333333,0,576)"
       clip-path="url(#clipPath91)" />
    <path
       id="path92"
       d="m 1682.5,475 h 60"
       style="fill:none;stroke:#000000;stroke-width:5;stroke-linecap:round;stroke-linejoin:round;stroke-miterlimit:10;stroke-dasharray:none;stroke-opacity:1"
       transform="matrix(0.13333333,0,0,-0.13333333,0,576)" />
    <path
       id="path93"
       d="M 1712.5,505 V 445"
       style="fill:none;stroke:#000000;stroke-width:5;stroke-linecap:round;stroke-linejoin:round;stroke-miterlimit:10;stroke-dasharray:none;stroke-opacity:1"
       transform="matrix(0.13333333,0,0,-0.13333333,0,576)" />
    <path
       id="path94"
       d="m 1682.5,505 60,-60"
       style="fill:none;stroke:#000000;stroke-width:5;stroke-linecap:round;stroke-linejoin:round;stroke-miterlimit:10;stroke-dasharray:none;stroke-opacity:1"
       transform="matrix(0.13333333,0,0,-0.13333333,0,576)" />
    <path
       id="path95"
       d="m 1742.5,505 -60,-60"
       style="fill:none;stroke:#000000;stroke-width:5;stroke-linecap:round;stroke-linejoin:round;stroke-miterlimit:10;stroke-dasharray:none;stroke-opacity:1"
       transform="matrix(0.13333333,0,0,-0.13333333,0,576)" />
    <path
       id="path96"
       d="m 1750.83,2225 h 60"
       style="fill:none;stroke:#000000;stroke-width:5;stroke-linecap:round;stroke-linejoin:round;stroke-miterlimit:10;stroke-dasharray:none;stroke-opacity:1"
       transform="matrix(0.13333333,0,0,-0.13333333,0,576)" />
    <path
       id="path97"
       d="m 1780.83,2255 v -60"
       style="fill:none;stroke:#000000;stroke-width:5;stroke-linecap:round;stroke-linejoin:round;stroke-miterlimit:10;stroke-dasharray:none;stroke-opacity:1"
       transform="matrix(0.13333333,0,0,-0.13333333,0,576)" />
    <path
       id="path98"
       d="m 1750.83,2255 60,-60"
       style="fill:none;stroke:#000000;stroke-width:5;stroke-linecap:round;stroke-linejoin:round;stroke-miterlimit:10;stroke-dasharray:none;stroke-opacity:1"
       transform="matrix(0.13333333,0,0,-0.13333333,0,576)" />
    <path
       id="path99"
       d="m 1810.83,2255 -60,-60"
       style="fill:none;stroke:#000000;stroke-width:5;stroke-linecap:round;stroke-linejoin:round;stroke-miterlimit:10;stroke-dasharray:none;stroke-opacity:1"
       transform="matrix(0.13333333,0,0,-0.13333333,0,576)" />
    <path
       id="path100"
       d="m 1750.83,2225 h 60"
       style="fill:none;stroke:#000000;stroke-width:5;stroke-linecap:round;stroke-linejoin:round;stroke-miterlimit:10;stroke-dasharray:none;stroke-opacity:1"
       transform="matrix(0.13333333,0,0,-0.13333333,0,576)" />
    <path
       id="path101"
       d="m 1780.83,2255 v -60"
       style="fill:none;stroke:#000000;stroke-width:5;stroke-linecap:round;stroke-linejoin:round;stroke-miterlimit:10;stroke-dasharray:none;stroke-opacity:1"
       transform="matrix(0.13333333,0,0,-0.13333333,0,576)" />
    <path
       id="path102"
       d="m 1750.83,2255 60,-60"
       style="fill:none;stroke:#000000;stroke-width:5;stroke-linecap:round;stroke-linejoin:round;stroke-miterlimit:10;stroke-dasharray:none;stroke-opacity:1"
       transform="matrix(0.13333333,0,0,-0.13333333,0,576)" />
    <path
       id="path103"
       d="m 1810.83,2255 -60,-60"
       style="fill:none;stroke:#000000;stroke-width:5;stroke-linecap:round;stroke-linejoin:round;stroke-miterlimit:10;stroke-dasharray:none;stroke-opacity:1"
       transform="matrix(0.13333333,0,0,-0.13333333,0,576)" />
    <path
       id="path104"
       d="m 1856.67,3975 h 60"
       style="fill:none;stroke:#000000;stroke-width:5;stroke-linecap:round;stroke-linejoin:round;stroke-miterlimit:10;stroke-dasharray:none;stroke-opacity:1"
       transform="matrix(0.13333333,0,0,-0.13333333,0,576)" />
    <path
       id="path105"
       d="m 1886.67,4005 v -60"
       style="fill:none;stroke:#000000;stroke-width:5;stroke-linecap:round;stroke-linejoin:round;stroke-miterlimit:10;stroke-dasharray:none;stroke-opacity:1"
       transform="matrix(0.13333333,0,0,-0.13333333,0,576)" />
    <path
       id="path106"
       d="m 1856.67,4005 60,-60"
       style="fill:none;stroke:#000000;stroke-width:5;stroke-linecap:round;stroke-linejoin:round;stroke-miterlimit:10;stroke-dasharray:none;stroke-opacity:1"
       transform="matrix(0.13333333,0,0,-0.13333333,0,576)" />
    <path
       id="path107"
       d="m 1916.67,4005 -60,-60"
       style="fill:none;stroke:#000000;stroke-width:5;stroke-linecap:round;stroke-linejoin:round;stroke-miterlimit:10;stroke-dasharray:none;stroke-opacity:1"
       transform="matrix(0.13333333,0,0,-0.13333333,0,576)" />
    <path
       id="path108"
       d="m 1856.67,3975 h 60"
       style="fill:none;stroke:#000000;stroke-width:5;stroke-linecap:round;stroke-linejoin:round;stroke-miterlimit:10;stroke-dasharray:none;stroke-opacity:1"
       transform="matrix(0.13333333,0,0,-0.13333333,0,576)" />
    <path
       id="path109"
       d="m 1886.67,4005 v -60"
       style="fill:none;stroke:#000000;stroke-width:5;stroke-linecap:round;stroke-linejoin:round;stroke-miterlimit:10;stroke-dasharray:none;stroke-opacity:1"
       transform="matrix(0.13333333,0,0,-0.13333333,0,576)" />
    <path
       id="path110"
       d="m 1856.67,4005 60,-60"
       style="fill:none;stroke:#000000;stroke-width:5;stroke-linecap:round;stroke-linejoin:round;stroke-miterlimit:10;stroke-dasharray:none;stroke-opacity:1"
       transform="matrix(0.13333333,0,0,-0.13333333,0,576)" />
    <path
       id="path111"
       d="m 1916.67,4005 -60,-60"
       style="fill:none;stroke:#000000;stroke-width:5;stroke-linecap:round;stroke-linejoin:round;stroke-miterlimit:10;stroke-dasharray:none;stroke-opacity:1"
       transform="matrix(0.13333333,0,0,-0.13333333,0,576)" />
    <path
       id="path112"
       d="m 3023.33,3954.17 h 60"
       style="fill:none;stroke:#000000;stroke-width:5;stroke-linecap:round;stroke-linejoin:round;stroke-miterlimit:10;stroke-dasharray:none;stroke-opacity:1"
       transform="matrix(0.13333333,0,0,-0.13333333,0,576)" />
    <path
       id="path113"
       d="m 3053.33,3984.17 v -60"
       style="fill:none;stroke:#000000;stroke-width:5;stroke-linecap:round;stroke-linejoin:round;stroke-miterlimit:10;stroke-dasharray:none;stroke-opacity:1"
       transform="matrix(0.13333333,0,0,-0.13333333,0,576)" />
    <path
       id="path114"
       d="m 3023.33,3984.17 60,-60"
       style="fill:none;stroke:#000000;stroke-width:5;stroke-linecap:round;stroke-linejoin:round;stroke-miterlimit:10;stroke-dasharray:none;stroke-opacity:1"
       transform="matrix(0.13333333,0,0,-0.13333333,0,576)" />
    <path
       id="path115"
       d="m 3083.33,3984.17 -60,-60"
       style="fill:none;stroke:#000000;stroke-width:5;stroke-linecap:round;stroke-linejoin:round;stroke-miterlimit:10;stroke-dasharray:none;stroke-opacity:1"
       transform="matrix(0.13333333,0,0,-0.13333333,0,576)" />
    <path
       id="path116"
       d="m 3023.33,3954.17 h 60"
       style="fill:none;stroke:#000000;stroke-width:5;stroke-linecap:round;stroke-linejoin:round;stroke-miterlimit:10;stroke-dasharray:none;stroke-opacity:1"
       transform="matrix(0.13333333,0,0,-0.13333333,0,576)" />
    <path
       id="path117"
       d="m 3053.33,3984.17 v -60"
       style="fill:none;stroke:#000000;stroke-width:5;stroke-linecap:round;stroke-linejoin:round;stroke-miterlimit:10;stroke-dasharray:none;stroke-opacity:1"
       transform="matrix(0.13333333,0,0,-0.13333333,0,576)" />
    <path
       id="path118"
       d="m 3023.33,3984.17 60,-60"
       style="fill:none;stroke:#000000;stroke-width:5;stroke-linecap:round;stroke-linejoin:round;stroke-miterlimit:10;stroke-dasharray:none;stroke-opacity:1"
       transform="matrix(0.13333333,0,0,-0.13333333,0,576)" />
    <path
       id="path119"
       d="m 3083.33,3984.17 -60,-60"
       style="fill:none;stroke:#000000;stroke-width:5;stroke-linecap:round;stroke-linejoin:round;stroke-miterlimit:10;stroke-dasharray:none;stroke-opacity:1"
       transform="matrix(0.13333333,0,0,-0.13333333,0,576)" />
    <path
       id="path120"
       d="m 4190,3975 h 60"
       style="fill:none;stroke:#000000;stroke-width:5;stroke-linecap:round;stroke-linejoin:round;stroke-miterlimit:10;stroke-dasharray:none;stroke-opacity:1"
       transform="matrix(0.13333333,0,0,-0.13333333,0,576)" />
    <path
       id="path121"
       d="m 4220,4005 v -60"
       style="fill:none;stroke:#000000;stroke-width:5;stroke-linecap:round;stroke-linejoin:round;stroke-miterlimit:10;stroke-dasharray:none;stroke-opacity:1"
       transform="matrix(0.13333333,0,0,-0.13333333,0,576)" />
    <path
       id="path122"
       d="m 4190,4005 60,-60"
       style="fill:none;stroke:#000000;stroke-width:5;stroke-linecap:round;stroke-linejoin:round;stroke-miterlimit:10;stroke-dasharray:none;stroke-opacity:1"
       transform="matrix(0.13333333,0,0,-0.13333333,0,576)" />
    <path
       id="path123"
       d="m 4250,4005 -60,-60"
       style="fill:none;stroke:#000000;stroke-width:5;stroke-linecap:round;stroke-linejoin:round;stroke-miterlimit:10;stroke-dasharray:none;stroke-opacity:1"
       transform="matrix(0.13333333,0,0,-0.13333333,0,576)" />
    <path
       id="path124"
       d="m 6.9716875,-7.5703203 -1.2304687,0.09375 C 5.6298906,-7.9599688 5.4746172,-8.3115313 5.2724688,-8.5312578 4.9443438,-8.8828203 4.5341875,-9.0586016 4.042,-9.0586016 c -0.3925781,0 -0.7353516,0.1113282 -1.03125,0.328125 C 2.6269609,-8.4404375 2.3222734,-8.0214922 2.0966875,-7.4765703 1.8769609,-6.9375078 1.7597734,-6.167 1.745125,-5.1679766 c 0.2958984,-0.4511718 0.6591797,-0.7880859 1.0898438,-1.0078125 0.4277343,-0.2167968 0.8789062,-0.328125 1.3476562,-0.328125 0.8203125,0 1.5175781,0.3046875 2.0976563,0.9140625 0.5771484,0.6035157 0.8671875,1.3798828 0.8671875,2.3320313 0,0.6328125 -0.1376954,1.21875 -0.4101563,1.7578125 -0.2753906,0.53906249 -0.6503906,0.95507811 -1.125,1.24218749 -0.46875,0.28710937 -1.0048828,0.43359375 -1.6054687,0.43359375 -1.0253907,0 -1.8603516,-0.37792969 -2.5078125,-1.13671875 C 0.84864063,-1.7168047 0.526375,-2.9589922 0.526375,-4.6875078 c 0,-1.9365235 0.35742188,-3.3457031 1.078125,-4.2304688 0.6152344,-0.7646484 1.4560547,-1.1484374 2.5195313,-1.1484374 0.7880859,0 1.4326171,0.2226562 1.9335937,0.6679687 0.5068359,0.4394531 0.8115234,1.0488281 0.9140625,1.828125 z m -5.0273437,4.3242187 c 0,0.421875 0.087891,0.8291016 0.2695312,1.21875 0.1787109,0.3837891 0.4277344,0.6767578 0.75,0.8789063 0.328125,0.20507811 0.6679688,0.30468749 1.0195313,0.30468749 0.5214843,0 0.9667968,-0.20507809 1.3359375,-0.62109379 0.375,-0.421875 0.5625,-0.9902343 0.5625,-1.7109375 0,-0.6943359 -0.1845704,-1.2421875 -0.5507813,-1.640625 -0.3691406,-0.3984375 -0.8320312,-0.5976562 -1.3945312,-0.5976562 -0.5566407,0 -1.0283204,0.1992187 -1.4179688,0.5976562 -0.3837891,0.3984375 -0.5742187,0.9228516 -0.5742187,1.5703125 z M 9.0605547,-7.8125e-6 V -1.4062578 H 10.455086 V -7.8125e-6 Z M 12.438484,-2.3203203 13.622078,-2.4257891 c 0.09961,0.5566407 0.292969,0.9580078 0.574219,1.2070313 0.28125,0.25195311 0.644531,0.37499999 1.089844,0.37499999 0.380859,0 0.714843,-0.0849609 0.996093,-0.25781249 0.28125,-0.1699219 0.509766,-0.4013672 0.691407,-0.6914063 0.1875,-0.2871093 0.342773,-0.6796875 0.46875,-1.171875 0.123047,-0.4921875 0.1875,-0.9960937 0.1875,-1.5117187 0,-0.052734 -0.0059,-0.1347656 -0.01172,-0.2460938 -0.243164,0.3984375 -0.580078,0.7207032 -1.007813,0.9609375 -0.430664,0.2431641 -0.890625,0.3632813 -1.382812,0.3632813 -0.829102,0 -1.532227,-0.2988281 -2.109375,-0.9023438 -0.571289,-0.6005859 -0.855469,-1.3945312 -0.855469,-2.3789062 0,-1.0136719 0.295899,-1.8310547 0.890625,-2.4492188 0.600586,-0.6240234 1.353516,-0.9374999 2.261719,-0.9374999 0.647461,0 1.242187,0.1757812 1.78125,0.5273437 0.539062,0.3515625 0.949219,0.852539 1.230469,1.5 0.28125,0.6503906 0.421875,1.5908203 0.421875,2.8242187 0,1.2832032 -0.140625,2.3027344 -0.421875,3.0585938 -0.275391,0.758789 -0.688477,1.33593749 -1.242188,1.73437499 -0.547851,0.3984375 -1.189453,0.59765625 -1.921875,0.59765625 -0.791015,0 -1.435547,-0.21679688 -1.933594,-0.65625 C 12.836922,-0.917 12.538094,-1.5293047 12.438484,-2.3203203 Z m 5.039063,-4.4179688 c 0,-0.7089843 -0.1875,-1.2714843 -0.5625,-1.6875 -0.375,-0.4130859 -0.829102,-0.6210937 -1.359375,-0.6210937 -0.547852,0 -1.025391,0.2226562 -1.429688,0.6679687 -0.398437,0.4453125 -0.597656,1.0253907 -0.597656,1.734375 0,0.6416016 0.19043,1.1601563 0.574219,1.5585938 0.380859,0.3984375 0.858398,0.5976562 1.429687,0.5976562 0.5625,0 1.025391,-0.1992187 1.394532,-0.5976562 0.366211,-0.3984375 0.550781,-0.9492188 0.550781,-1.6523438 z m 4.456055,1.3007813 c -0.509766,-0.1875 -0.887696,-0.4511719 -1.136719,-0.796875 -0.243164,-0.3427735 -0.363281,-0.7558594 -0.363281,-1.2421875 0,-0.7324219 0.260742,-1.3476563 0.785156,-1.8398438 0.521484,-0.4980468 1.22168,-0.7499999 2.097656,-0.7499999 0.873047,0 1.576172,0.2548827 2.109375,0.7617187 0.530274,0.5097656 0.796875,1.1308594 0.796875,1.8632812 0,0.4628907 -0.123047,0.8642578 -0.363281,1.2070313 -0.243164,0.3457031 -0.615235,0.609375 -1.113281,0.796875 0.615234,0.2050781 1.083984,0.5273437 1.40625,0.9726562 0.319336,0.4453125 0.480468,0.9814453 0.480468,1.6054688 0,0.852539 -0.304687,1.5703125 -0.914062,2.15624999 -0.603516,0.5859375 -1.400391,0.87890625 -2.390625,0.87890625 -0.984375,0 -1.78125,-0.29296875 -2.390625,-0.87890625 -0.609375,-0.58593749 -0.914063,-1.31542969 -0.914063,-2.19140629 0,-0.65625 0.164063,-1.2011718 0.492188,-1.640625 0.333984,-0.4365234 0.808594,-0.7382812 1.417969,-0.9023437 z m -0.246094,-2.0859375 c 0,0.477539 0.152344,0.8671875 0.457031,1.171875 0.304688,0.2988281 0.703125,0.4453125 1.195313,0.4453125 0.474609,0 0.861328,-0.1464844 1.160156,-0.4453125 0.304687,-0.3046875 0.457031,-0.6708985 0.457031,-1.1015625 0,-0.4511719 -0.158203,-0.8320313 -0.46875,-1.1367188 -0.313476,-0.3105468 -0.700195,-0.46875 -1.160156,-0.46875 -0.46875,0 -0.861328,0.1523438 -1.171875,0.4570313 -0.313477,0.2988281 -0.46875,0.65625 -0.46875,1.078125 z m -0.398438,4.6289062 c 0,0.3515625 0.08203,0.6914063 0.246094,1.0195313 0.169922,0.328125 0.421875,0.5830078 0.75,0.7617187 0.328125,0.18164066 0.679688,0.26953129 1.054688,0.26953129 0.591796,0 1.081054,-0.18749999 1.464843,-0.56249999 0.38086,-0.3808594 0.574219,-0.8613281 0.574219,-1.4414063 0,-0.5917968 -0.199219,-1.0810547 -0.597656,-1.4648437 -0.392578,-0.3896485 -0.884766,-0.5859375 -1.476563,-0.5859375 -0.580078,0 -1.060547,0.1933594 -1.441406,0.5742187 -0.383789,0.3837891 -0.574219,0.8613282 -0.574219,1.4296875 z m 6.541993,0.2460938 1.230468,-0.1640625 c 0.140625,0.6972656 0.37793,1.2011719 0.714844,1.5117187 0.342773,0.30468754 0.761719,0.45703129 1.253906,0.45703129 0.577149,0 1.066407,-0.19921879 1.464844,-0.59765629 0.398438,-0.3984375 0.597656,-0.8935547 0.597656,-1.4882812 0,-0.5683594 -0.1875,-1.0371094 -0.5625,-1.40625 -0.36914,-0.366211 -0.83789,-0.5507813 -1.40625,-0.5507813 -0.228515,0 -0.515625,0.046875 -0.867187,0.140625 l 0.140625,-1.078125 c 0.07617,0.00879 0.143554,0.011719 0.199219,0.011719 0.521484,0 0.990234,-0.1347656 1.40625,-0.4101563 0.421875,-0.2724609 0.632812,-0.6943359 0.632812,-1.265625 0,-0.4511718 -0.152344,-0.8261718 -0.457031,-1.125 -0.304688,-0.2958984 -0.700196,-0.4453125 -1.183594,-0.4453125 -0.477539,0 -0.875977,0.1523438 -1.195312,0.4570313 -0.322266,0.2988281 -0.524415,0.7470703 -0.609375,1.3476562 l -1.230469,-0.2109375 c 0.146484,-0.8261718 0.486328,-1.4677734 1.019531,-1.921875 0.530273,-0.4511718 1.195313,-0.6796876 1.992188,-0.6796876 0.544921,0 1.048828,0.1171876 1.511718,0.3515626 0.459961,0.234375 0.811524,0.5566407 1.054688,0.9609375 0.240234,0.4072266 0.363281,0.8378907 0.363281,1.2890625 0,0.4394532 -0.117187,0.8378907 -0.351562,1.1953125 -0.228516,0.3515625 -0.57129,0.6328125 -1.03125,0.84375 0.591796,0.1347657 1.054687,0.4160157 1.382812,0.84375 0.328125,0.4306641 0.492188,0.9697266 0.492188,1.6171875 0,0.8759766 -0.322266,1.6171875 -0.960938,2.22656254 -0.632812,0.609375 -1.438477,0.9140625 -2.414062,0.9140625 -0.884766,0 -1.614258,-0.26074219 -2.191407,-0.78515625 C 28.247078,-1.1308672 27.916023,-1.8105547 27.831063,-2.6484453 Z m 0,0"
       style="fill:#000000;fill-opacity:1;fill-rule:nonzero;stroke:none"
       aria-label="6.983"
       transform="matrix(1.3333333,0,0,1.3333333,306.11067,247.22267)" />
  </g>
</svg>
