<?xml version="1.0" encoding="UTF-8" standalone="no"?>
<!-- Created with Inkscape (http://www.inkscape.org/) -->

<svg
   version="1.1"
   id="svg1"
   width="768"
   height="576"
   viewBox="0 0 768 576"
   sodipodi:docname="exd1f2.eps"
   xmlns:inkscape="http://www.inkscape.org/namespaces/inkscape"
   xmlns:sodipodi="http://sodipodi.sourceforge.net/DTD/sodipodi-0.dtd"
   xmlns="http://www.w3.org/2000/svg"
   xmlns:svg="http://www.w3.org/2000/svg">
  <defs
     id="defs1">
    <clipPath
       clipPathUnits="userSpaceOnUse"
       id="clipPath35">
      <path
         d="m 748.332,474.168 h 4436.67 v 3500.83 H 748.332 Z"
         id="path35" />
    </clipPath>
    <clipPath
       clipPathUnits="userSpaceOnUse"
       id="clipPath37">
      <path
         d="m 748.332,474.168 h 4436.67 v 3500.83 H 748.332 Z"
         id="path37" />
    </clipPath>
    <clipPath
       clipPathUnits="userSpaceOnUse"
       id="clipPath39">
      <path
         d="m 748.332,474.168 h 4436.67 v 3500.83 H 748.332 Z"
         id="path39" />
    </clipPath>
    <clipPath
       clipPathUnits="userSpaceOnUse"
       id="clipPath41">
      <path
         d="m 748.332,474.168 h 4436.67 v 3500.83 H 748.332 Z"
         id="path41" />
    </clipPath>
  </defs>
  <sodipodi:namedview
     id="namedview1"
     pagecolor="#ffffff"
     bordercolor="#000000"
     borderopacity="0.25"
     inkscape:showpageshadow="2"
     inkscape:pageopacity="0.0"
     inkscape:pagecheckerboard="0"
     inkscape:deskcolor="#d1d1d1">
    <inkscape:page
       x="0"
       y="0"
       inkscape:label="1"
       id="page1"
       width="768"
       height="576"
       margin="0"
       bleed="0" />
  </sodipodi:namedview>
  <g
     id="g1"
     inkscape:groupmode="layer"
     inkscape:label="1">
    <path
       id="path1"
       d="M 0,0 H 5760 V 4320 H 0 Z"
       style="fill:#ffffff;fill-opacity:1;fill-rule:nonzero;stroke:none"
       transform="matrix(0.13333333,0,0,-0.13333333,0,576)" />
    <path
       id="path2"
       d="M 748.332,475 H 5184.17"
       style="fill:none;stroke:#000000;stroke-width:5;stroke-linecap:round;stroke-linejoin:round;stroke-miterlimit:10;stroke-dasharray:none;stroke-opacity:1"
       transform="matrix(0.13333333,0,0,-0.13333333,0,576)" />
    <path
       id="path3"
       d="M 748.332,475 V 3975"
       style="fill:none;stroke:#000000;stroke-width:5;stroke-linecap:round;stroke-linejoin:round;stroke-miterlimit:10;stroke-dasharray:none;stroke-opacity:1"
       transform="matrix(0.13333333,0,0,-0.13333333,0,576)" />
    <path
       id="path4"
       d="m 748.332,475 v 0"
       style="fill:none;stroke:#000000;stroke-width:5;stroke-linecap:round;stroke-linejoin:round;stroke-miterlimit:10;stroke-dasharray:none;stroke-opacity:1"
       transform="matrix(0.13333333,0,0,-0.13333333,0,576)" />
    <path
       id="path5"
       d="m 1216.67,475 v 44.168"
       style="fill:none;stroke:#000000;stroke-width:5;stroke-linecap:round;stroke-linejoin:round;stroke-miterlimit:10;stroke-dasharray:none;stroke-opacity:1"
       transform="matrix(0.13333333,0,0,-0.13333333,0,576)" />
    <path
       id="path6"
       d="M 0.44530469,-3.0117188 V -4.2421875 H 4.2304609 v 1.2304687 z M 5.2470625,-4.9453125 c 0,-1.1865234 0.1201172,-2.1386719 0.3632812,-2.859375 0.2402344,-0.7265625 0.600586,-1.2832031 1.078125,-1.6757813 0.4833985,-0.3896484 1.0927735,-0.5859372 1.828125,-0.5859372 0.5302735,0 0.9990235,0.1113279 1.40625,0.3281247 0.4042973,0.2197266 0.7412113,0.5332032 1.0078123,0.9375 0.263672,0.4072266 0.47168,0.9023438 0.621094,1.4882813 0.146484,0.5859375 0.222656,1.3769531 0.222656,2.3671875 0,1.1806641 -0.123047,2.1328125 -0.363281,2.859375 -0.234375,0.7207031 -0.594727,1.27734375 -1.078125,1.67578125 -0.4863281,0.39257812 -1.0898438,0.5859375 -1.8164063,0.5859375 -0.9697265,0 -1.7314453,-0.34570312 -2.2851562,-1.04296875 -0.65625,-0.8349609 -0.984375,-2.1943359 -0.984375,-4.078125 z m 1.265625,0 c 0,1.6494141 0.1904297,2.7480469 0.5742187,3.2929688 0.3808594,0.5390625 0.8583985,0.8085937 1.4296875,0.8085937 0.5625,0 1.0341797,-0.2724609 1.4179688,-0.8203125 0.3808595,-0.5449219 0.5742185,-1.640625 0.5742185,-3.28125 0,-1.6464844 -0.193359,-2.7421875 -0.5742185,-3.28125 C 9.5507734,-8.7714844 9.0703047,-9.046875 8.4931562,-9.046875 c -0.5625,0 -1.0136718,0.2402344 -1.3476562,0.7148437 -0.421875,0.6093751 -0.6328125,1.7402344 -0.6328125,3.3867188 z M 13.722648,0 V -1.40625 H 15.11718 V 0 Z m 3.202149,-2.625 1.289062,-0.1054688 c 0.09375,0.6269532 0.310547,1.0986329 0.65625,1.4179688 0.351563,0.31347656 0.773438,0.46875 1.265625,0.46875 0.591797,0 1.092774,-0.2226562 1.5,-0.6679687 0.413086,-0.4453125 0.621094,-1.0371094 0.621094,-1.7812501 0,-0.703125 -0.199219,-1.2539062 -0.597656,-1.6523437 -0.392578,-0.4042969 -0.902344,-0.609375 -1.535156,-0.609375 -0.398438,0 -0.758789,0.09082 -1.078125,0.2695313 -0.322266,0.1816406 -0.571289,0.4101562 -0.75,0.6914062 l -1.160157,-0.140625 0.972657,-5.15625 h 4.980468 v 1.1835937 h -3.996093 l -0.539063,2.6953126 c 0.600586,-0.421875 1.233399,-0.6328125 1.898438,-0.6328125 0.873046,0 1.611328,0.3046875 2.214843,0.9140625 0.600586,0.6035156 0.902344,1.3798828 0.902344,2.3320312 0,0.9082031 -0.266601,1.6933594 -0.796875,2.3554688 -0.641601,0.81445307 -1.520508,1.21874995 -2.636719,1.21874995 -0.908203,0 -1.649414,-0.25195312 -2.226562,-0.76171875 C 17.329094,-1.1015625 17.000969,-1.78125 16.924797,-2.625 Z m 0,0"
       style="fill:#000000;fill-opacity:1;fill-rule:nonzero;stroke:none"
       aria-label="-0.5"
       transform="matrix(1.3333333,0,0,1.3333333,143.22267,533)" />
    <path
       id="path7"
       d="m 1800,475 v 44.168"
       style="fill:none;stroke:#000000;stroke-width:5;stroke-linecap:round;stroke-linejoin:round;stroke-miterlimit:10;stroke-dasharray:none;stroke-opacity:1"
       transform="matrix(0.13333333,0,0,-0.13333333,0,576)" />
    <path
       id="path8"
       d="m 0.58690625,-4.9453125 c 0,-1.1865234 0.12011719,-2.1386719 0.36328125,-2.859375 0.2402344,-0.7265625 0.6005859,-1.2832031 1.078125,-1.6757813 0.4833984,-0.3896484 1.0927734,-0.5859372 1.828125,-0.5859372 0.5302734,0 0.9990234,0.1113279 1.40625,0.3281247 0.4042969,0.2197266 0.7412109,0.5332032 1.0078125,0.9375 0.2636719,0.4072266 0.4716797,0.9023438 0.6210937,1.4882813 0.1464844,0.5859375 0.2226563,1.3769531 0.2226563,2.3671875 0,1.1806641 -0.1230469,2.1328125 -0.3632813,2.859375 -0.234375,0.7207031 -0.5947265,1.27734375 -1.078125,1.67578125 -0.4863281,0.39257812 -1.0898437,0.5859375 -1.8164062,0.5859375 -0.9697266,0 -1.7314453,-0.34570312 -2.2851563,-1.04296875 -0.65624995,-0.8349609 -0.98437495,-2.1943359 -0.98437495,-4.078125 z m 1.26562495,0 c 0,1.6494141 0.1904297,2.7480469 0.5742188,3.2929688 0.3808594,0.5390625 0.8583984,0.8085937 1.4296875,0.8085937 0.5625,0 1.0341797,-0.2724609 1.4179687,-0.8203125 0.3808594,-0.5449219 0.5742188,-1.640625 0.5742188,-3.28125 0,-1.6464844 -0.1933594,-2.7421875 -0.5742188,-3.28125 C 4.8906172,-8.7714844 4.4101484,-9.046875 3.833,-9.046875 c -0.5625,0 -1.0136719,0.2402344 -1.3476563,0.7148437 -0.421875,0.6093751 -0.6328125,1.7402344 -0.6328125,3.3867188 z m 0,0"
       style="fill:#000000;fill-opacity:1;fill-rule:nonzero;stroke:none"
       aria-label="0"
       transform="matrix(1.3333333,0,0,1.3333333,234.88933,533)" />
    <path
       id="path9"
       d="m 2383.33,475 v 44.168"
       style="fill:none;stroke:#000000;stroke-width:5;stroke-linecap:round;stroke-linejoin:round;stroke-miterlimit:10;stroke-dasharray:none;stroke-opacity:1"
       transform="matrix(0.13333333,0,0,-0.13333333,0,576)" />
    <path
       id="path10"
       d="m 0.58690625,-4.9453125 c 0,-1.1865234 0.12011719,-2.1386719 0.36328125,-2.859375 0.2402344,-0.7265625 0.6005859,-1.2832031 1.078125,-1.6757813 0.4833984,-0.3896484 1.0927734,-0.5859372 1.828125,-0.5859372 0.5302734,0 0.9990234,0.1113279 1.40625,0.3281247 0.4042969,0.2197266 0.7412109,0.5332032 1.0078125,0.9375 0.2636719,0.4072266 0.4716797,0.9023438 0.6210938,1.4882813 0.1464843,0.5859375 0.2226562,1.3769531 0.2226562,2.3671875 0,1.1806641 -0.1230469,2.1328125 -0.3632812,2.859375 -0.234375,0.7207031 -0.5947266,1.27734375 -1.078125,1.67578125 -0.4863282,0.39257812 -1.0898438,0.5859375 -1.8164063,0.5859375 -0.9697266,0 -1.7314453,-0.34570312 -2.2851562,-1.04296875 -0.65625005,-0.8349609 -0.98437505,-2.1943359 -0.98437505,-4.078125 z m 1.26562505,0 c 0,1.6494141 0.1904296,2.7480469 0.5742187,3.2929688 0.3808594,0.5390625 0.8583984,0.8085937 1.4296875,0.8085937 0.5625,0 1.0341797,-0.2724609 1.4179688,-0.8203125 0.3808593,-0.5449219 0.5742187,-1.640625 0.5742187,-3.28125 0,-1.6464844 -0.1933594,-2.7421875 -0.5742187,-3.28125 C 4.8906172,-8.7714844 4.4101484,-9.046875 3.833,-9.046875 c -0.5625,0 -1.0136719,0.2402344 -1.3476562,0.7148437 -0.421875,0.6093751 -0.6328125,1.7402344 -0.6328125,3.3867188 z M 9.0624922,0 V -1.40625 H 10.457023 V 0 Z m 3.1992188,-2.625 1.289062,-0.1054688 c 0.09375,0.6269532 0.310547,1.0986329 0.65625,1.4179688 0.351563,0.31347656 0.773438,0.46875 1.265625,0.46875 0.591797,0 1.092774,-0.2226562 1.5,-0.6679687 0.413086,-0.4453125 0.621094,-1.0371094 0.621094,-1.7812501 0,-0.703125 -0.199219,-1.2539062 -0.597656,-1.6523437 -0.392578,-0.4042969 -0.902344,-0.609375 -1.535156,-0.609375 -0.398438,0 -0.758789,0.09082 -1.078125,0.2695313 -0.322266,0.1816406 -0.571289,0.4101562 -0.75,0.6914062 l -1.160157,-0.140625 0.972657,-5.15625 h 4.980468 v 1.1835937 H 14.42968 l -0.539063,2.6953126 c 0.600586,-0.421875 1.233399,-0.6328125 1.898438,-0.6328125 0.873047,0 1.611328,0.3046875 2.214843,0.9140625 0.600586,0.6035156 0.902344,1.3798828 0.902344,2.3320312 0,0.9082031 -0.266601,1.6933594 -0.796875,2.3554688 -0.641601,0.81445307 -1.520508,1.21874995 -2.636719,1.21874995 -0.908203,0 -1.649414,-0.25195312 -2.226562,-0.76171875 C 12.666008,-1.1015625 12.337883,-1.78125 12.261711,-2.625 Z m 0,0"
       style="fill:#000000;fill-opacity:1;fill-rule:nonzero;stroke:none"
       aria-label="0.5"
       transform="matrix(1.3333333,0,0,1.3333333,304.88933,533)" />
    <path
       id="path11"
       d="m 2966.67,475 v 44.168"
       style="fill:none;stroke:#000000;stroke-width:5;stroke-linecap:round;stroke-linejoin:round;stroke-miterlimit:10;stroke-dasharray:none;stroke-opacity:1"
       transform="matrix(0.13333333,0,0,-0.13333333,0,576)" />
    <path
       id="path12"
       d="M 5.2158281,0 H 3.9853594 v -7.8398437 c -0.2988281,0.28125 -0.6884766,0.5625 -1.171875,0.84375 -0.4775391,0.28125 -0.9082031,0.4921875 -1.2890625,0.6328125 V -7.546875 C 2.2099688,-7.875 2.8134844,-8.2646484 3.3291094,-8.71875 c 0.515625,-0.4599609 0.8818359,-0.9082031 1.1015625,-1.347656 h 0.7851562 z m 0,0"
       style="fill:#000000;fill-opacity:1;fill-rule:nonzero;stroke:none"
       aria-label="1"
       transform="matrix(1.3333333,0,0,1.3333333,390.444,533)" />
    <path
       id="path13"
       d="m 3550,475 v 44.168"
       style="fill:none;stroke:#000000;stroke-width:5;stroke-linecap:round;stroke-linejoin:round;stroke-miterlimit:10;stroke-dasharray:none;stroke-opacity:1"
       transform="matrix(0.13333333,0,0,-0.13333333,0,576)" />
    <path
       id="path14"
       d="M 5.2158281,0 H 3.9853594 v -7.8398437 c -0.2988281,0.28125 -0.6884766,0.5625 -1.171875,0.84375 -0.4775391,0.28125 -0.9082031,0.4921875 -1.2890625,0.6328125 V -7.546875 C 2.2099688,-7.875 2.8134844,-8.2646484 3.3291094,-8.71875 3.8447344,-9.1787109 4.2109453,-9.6269531 4.4306719,-10.066406 H 5.2158281 Z M 9.0625078,0 V -1.40625 H 10.457039 V 0 Z m 3.1992192,-2.625 1.289062,-0.1054688 c 0.09375,0.6269532 0.310547,1.0986329 0.65625,1.4179688 0.351563,0.31347656 0.773438,0.46875 1.265625,0.46875 0.591797,0 1.092774,-0.2226562 1.5,-0.6679687 0.413086,-0.4453125 0.621094,-1.0371094 0.621094,-1.7812501 0,-0.703125 -0.199219,-1.2539062 -0.597656,-1.6523437 -0.392579,-0.4042969 -0.902344,-0.609375 -1.535157,-0.609375 -0.398437,0 -0.758789,0.09082 -1.078125,0.2695313 -0.322265,0.1816406 -0.571289,0.4101562 -0.75,0.6914062 l -1.160156,-0.140625 0.972656,-5.15625 h 4.980469 v 1.1835937 h -3.996094 l -0.539062,2.6953126 c 0.600586,-0.421875 1.233398,-0.6328125 1.898437,-0.6328125 0.873047,0 1.611328,0.3046875 2.214844,0.9140625 0.600586,0.6035156 0.902344,1.3798828 0.902344,2.3320312 0,0.9082031 -0.266602,1.6933594 -0.796875,2.3554688 -0.641602,0.81445307 -1.520508,1.21874995 -2.636719,1.21874995 -0.908203,0 -1.649414,-0.25195312 -2.226562,-0.76171875 C 12.666023,-1.1015625 12.337898,-1.78125 12.261727,-2.625 Z m 0,0"
       style="fill:#000000;fill-opacity:1;fill-rule:nonzero;stroke:none"
       aria-label="1.5"
       transform="matrix(1.3333333,0,0,1.3333333,460.444,533)" />
    <path
       id="path15"
       d="m 4133.33,475 v 44.168"
       style="fill:none;stroke:#000000;stroke-width:5;stroke-linecap:round;stroke-linejoin:round;stroke-miterlimit:10;stroke-dasharray:none;stroke-opacity:1"
       transform="matrix(0.13333333,0,0,-0.13333333,0,576)" />
    <path
       id="path16"
       d="M 7.0546875,-1.1835937 V 0 H 0.421875 C 0.41308594,-0.29589844 0.45996094,-0.58007812 0.5625,-0.85546875 0.73242187,-1.3066406 1.0019531,-1.7519531 1.3710937,-2.1914063 1.7460937,-2.6279297 2.2851563,-3.1318359 2.9882813,-3.703125 4.0722656,-4.5996094 4.8076172,-5.3085937 5.1914062,-5.8242187 5.5722656,-6.3457031 5.765625,-6.84375 5.765625,-7.3125 c 0,-0.4833984 -0.1757813,-0.8935547 -0.5273438,-1.2304688 -0.3457031,-0.3339843 -0.796875,-0.5039062 -1.3593749,-0.5039062 -0.5859375,0 -1.0605469,0.1816406 -1.4179688,0.5390625 C 2.109375,-8.15625 1.9277344,-7.6640625 1.921875,-7.03125 L 0.65625,-7.171875 c 0.0849609,-0.9375 0.4101562,-1.6523438 0.9726562,-2.1445313 0.5683594,-0.4980468 1.3300782,-0.7499997 2.2851563,-0.7499997 0.9609375,0 1.7167969,0.269531 2.2734375,0.8085935 0.5625,0.5332031 0.84375,1.1923828 0.84375,1.9804688 0,0.3984375 -0.082031,0.7939453 -0.2460938,1.1835937 -0.1640625,0.3837891 -0.4394531,0.7910156 -0.8203125,1.21875 -0.375,0.4306641 -1.0048828,1.0195312 -1.8867187,1.7695312 -0.7441406,0.6181641 -1.21875,1.0371094 -1.4296875,1.2539063 -0.2050781,0.2197266 -0.375,0.4423828 -0.515625,0.6679688 z m 0,0"
       style="fill:#000000;fill-opacity:1;fill-rule:nonzero;stroke:none"
       aria-label="2"
       transform="matrix(1.3333333,0,0,1.3333333,546,533)" />
    <path
       id="path17"
       d="m 4716.67,475 v 44.168"
       style="fill:none;stroke:#000000;stroke-width:5;stroke-linecap:round;stroke-linejoin:round;stroke-miterlimit:10;stroke-dasharray:none;stroke-opacity:1"
       transform="matrix(0.13333333,0,0,-0.13333333,0,576)" />
    <path
       id="path18"
       d="M 7.0546875,-1.1835937 V 0 H 0.421875 C 0.41308594,-0.29589844 0.45996094,-0.58007812 0.5625,-0.85546875 0.73242187,-1.3066406 1.0019531,-1.7519531 1.3710937,-2.1914063 1.7460937,-2.6279297 2.2851563,-3.1318359 2.9882813,-3.703125 4.0722656,-4.5996094 4.8076172,-5.3085937 5.1914062,-5.8242187 5.5722656,-6.3457031 5.765625,-6.84375 5.765625,-7.3125 c 0,-0.4833984 -0.1757813,-0.8935547 -0.5273438,-1.2304688 -0.3457031,-0.3339843 -0.796875,-0.5039062 -1.3593749,-0.5039062 -0.5859375,0 -1.0605469,0.1816406 -1.4179688,0.5390625 C 2.109375,-8.15625 1.9277344,-7.6640625 1.921875,-7.03125 L 0.65625,-7.171875 c 0.0849609,-0.9375 0.4101562,-1.6523438 0.9726562,-2.1445313 0.5683594,-0.4980468 1.3300782,-0.7499997 2.2851563,-0.7499997 0.9609375,0 1.7167969,0.269531 2.2734375,0.8085935 0.5625,0.5332031 0.84375,1.1923828 0.84375,1.9804688 0,0.3984375 -0.082031,0.7939453 -0.2460938,1.1835937 -0.1640625,0.3837891 -0.4394531,0.7910156 -0.8203125,1.21875 -0.375,0.4306641 -1.0048828,1.0195312 -1.8867187,1.7695312 -0.7441406,0.6181641 -1.21875,1.0371094 -1.4296875,1.2539063 -0.2050781,0.2197266 -0.375,0.4423828 -0.515625,0.6679688 z M 9.0615234,0 V -1.40625 H 10.456055 V 0 Z m 3.1992186,-2.625 1.289063,-0.1054688 c 0.09375,0.6269532 0.310547,1.0986329 0.65625,1.4179688 0.351562,0.31347656 0.773437,0.46875 1.265625,0.46875 0.591797,0 1.092773,-0.2226562 1.5,-0.6679687 0.413086,-0.4453125 0.621093,-1.0371094 0.621093,-1.7812501 0,-0.703125 -0.199218,-1.2539062 -0.597656,-1.6523437 -0.392578,-0.4042969 -0.902344,-0.609375 -1.535156,-0.609375 -0.398438,0 -0.758789,0.09082 -1.078125,0.2695313 -0.322266,0.1816406 -0.571289,0.4101562 -0.75,0.6914062 l -1.160156,-0.140625 0.972656,-5.15625 h 4.980469 v 1.1835937 h -3.996094 l -0.539063,2.6953126 c 0.600586,-0.421875 1.233399,-0.6328125 1.898438,-0.6328125 0.873047,0 1.611328,0.3046875 2.214844,0.9140625 0.600586,0.6035156 0.902343,1.3798828 0.902343,2.3320312 0,0.9082031 -0.266601,1.6933594 -0.796875,2.3554688 -0.641601,0.81445307 -1.520507,1.21874995 -2.636718,1.21874995 -0.908203,0 -1.649414,-0.25195312 -2.226563,-0.76171875 C 12.665039,-1.1015625 12.336914,-1.78125 12.260742,-2.625 Z m 0,0"
       style="fill:#000000;fill-opacity:1;fill-rule:nonzero;stroke:none"
       aria-label="2.5"
       transform="matrix(1.3333333,0,0,1.3333333,616,533)" />
    <path
       id="path19"
       d="M 748.332,475 H 792.5"
       style="fill:none;stroke:#000000;stroke-width:5;stroke-linecap:round;stroke-linejoin:round;stroke-miterlimit:10;stroke-dasharray:none;stroke-opacity:1"
       transform="matrix(0.13333333,0,0,-0.13333333,0,576)" />
    <path
       id="path20"
       d="m 0.58672187,-4.9460969 c 0,-1.1865234 0.12011719,-2.1386719 0.36328125,-2.859375 0.24023438,-0.7265625 0.60058598,-1.2832031 1.07812498,-1.6757812 0.4833985,-0.3896485 1.0927735,-0.5859379 1.828125,-0.5859379 0.5302735,0 0.9990235,0.1113285 1.40625,0.3281254 0.4042969,0.2197265 0.741211,0.5332031 1.0078125,0.9375 0.2636719,0.4072265 0.4716797,0.9023437 0.6210938,1.4882812 0.1464843,0.5859375 0.2226562,1.3769531 0.2226562,2.3671875 0,1.1806641 -0.1230469,2.1328125 -0.3632812,2.859375 -0.234375,0.7207031 -0.5947266,1.27734377 -1.078125,1.67578127 -0.4863282,0.39257813 -1.0898438,0.5859375 -1.8164063,0.5859375 -0.9697265,0 -1.7314453,-0.34570312 -2.2851562,-1.04296875 C 0.91484687,-1.7029328 0.58672187,-3.0623078 0.58672187,-4.9460969 Z m 1.26562503,0 c 0,1.6494141 0.1904297,2.7480469 0.5742187,3.2929688 0.3808594,0.5390625 0.8583985,0.80859372 1.4296875,0.80859372 0.5625,0 1.0341797,-0.27246092 1.4179688,-0.82031252 0.3808593,-0.5449219 0.5742187,-1.640625 0.5742187,-3.28125 0,-1.6464844 -0.1933594,-2.7421875 -0.5742187,-3.28125 -0.3837891,-0.5449219 -0.8642578,-0.8203125 -1.4414063,-0.8203125 -0.5625,0 -1.0136719,0.2402344 -1.3476562,0.7148438 -0.421875,0.609375 -0.6328125,1.7402343 -0.6328125,3.3867187 z m 0,0"
       style="fill:#000000;fill-opacity:1;fill-rule:nonzero;stroke:none"
       aria-label="0"
       transform="matrix(1.3333333,0,0,1.3333333,86.444267,519.55573)" />
    <path
       id="path21"
       d="M 748.332,1058.33 H 792.5"
       style="fill:none;stroke:#000000;stroke-width:5;stroke-linecap:round;stroke-linejoin:round;stroke-miterlimit:10;stroke-dasharray:none;stroke-opacity:1"
       transform="matrix(0.13333333,0,0,-0.13333333,0,576)" />
    <path
       id="path22"
       d="m 0.58710625,-4.9453047 c 0,-1.1865234 0.12011719,-2.1386719 0.36328125,-2.859375 0.2402344,-0.7265625 0.6005859,-1.2832031 1.078125,-1.6757812 0.4833984,-0.3896485 1.0927734,-0.5859371 1.828125,-0.5859371 0.5302734,0 0.9990234,0.1113277 1.40625,0.3281246 0.4042969,0.2197265 0.7412109,0.5332031 1.0078125,0.9375 0.2636719,0.4072265 0.4716797,0.9023437 0.6210938,1.4882812 0.1464843,0.5859375 0.2226562,1.3769531 0.2226562,2.3671875 0,1.1806641 -0.1230469,2.1328125 -0.3632812,2.859375 -0.234375,0.7207031 -0.5947266,1.27734376 -1.078125,1.67578126 -0.4863282,0.39257813 -1.0898438,0.5859375 -1.8164063,0.5859375 -0.9697266,0 -1.7314453,-0.34570312 -2.2851562,-1.04296875 C 0.91523125,-1.7021406 0.58710625,-3.0615156 0.58710625,-4.9453047 Z m 1.26562505,0 c 0,1.6494141 0.1904296,2.7480469 0.5742187,3.2929688 0.3808594,0.5390625 0.8583984,0.80859371 1.4296875,0.80859371 0.5625,0 1.0341797,-0.27246091 1.4179688,-0.82031251 0.3808593,-0.5449219 0.5742187,-1.640625 0.5742187,-3.28125 0,-1.6464844 -0.1933594,-2.7421875 -0.5742187,-3.28125 C 4.8908172,-8.7714766 4.4103484,-9.0468672 3.8332,-9.0468672 c -0.5625,0 -1.0136719,0.2402344 -1.3476562,0.7148438 -0.421875,0.609375 -0.6328125,1.7402343 -0.6328125,3.3867187 z M 9.0626922,7.8125e-6 V -1.4062422 H 10.457223 V 7.8125e-6 Z M 12.261911,-2.6249922 13.550973,-2.7304609 c 0.09375,0.6269531 0.310547,1.0986328 0.65625,1.4179687 0.351563,0.31347658 0.773438,0.46875001 1.265625,0.46875001 0.591797,0 1.092774,-0.22265621 1.5,-0.66796871 0.413086,-0.4453125 0.621094,-1.0371094 0.621094,-1.78125 0,-0.703125 -0.199219,-1.2539063 -0.597656,-1.6523438 -0.392578,-0.4042969 -0.902344,-0.609375 -1.535156,-0.609375 -0.398438,0 -0.758789,0.09082 -1.078125,0.2695313 -0.322266,0.1816406 -0.571289,0.4101562 -0.75,0.6914062 l -1.160157,-0.140625 0.972657,-5.15625 h 4.980468 v 1.1835938 H 14.42988 l -0.539063,2.6953125 c 0.600586,-0.421875 1.233399,-0.6328125 1.898438,-0.6328125 0.873047,0 1.611328,0.3046875 2.214843,0.9140625 0.600586,0.6035156 0.902344,1.3798828 0.902344,2.3320312 0,0.9082031 -0.266601,1.6933594 -0.796875,2.3554688 -0.641601,0.81445309 -1.520508,1.21874996 -2.636719,1.21874996 -0.908203,0 -1.649414,-0.25195312 -2.226562,-0.76171875 C 12.666208,-1.1015547 12.338083,-1.7812422 12.261911,-2.6249922 Z m 0,0"
       style="fill:#000000;fill-opacity:1;fill-rule:nonzero;stroke:none"
       aria-label="0.5"
       transform="matrix(1.3333333,0,0,1.3333333,70.889067,441.77733)" />
    <path
       id="path23"
       d="M 748.332,1641.67 H 792.5"
       style="fill:none;stroke:#000000;stroke-width:5;stroke-linecap:round;stroke-linejoin:round;stroke-miterlimit:10;stroke-dasharray:none;stroke-opacity:1"
       transform="matrix(0.13333333,0,0,-0.13333333,0,576)" />
    <path
       id="path24"
       d="M 5.2156281,0 H 3.9851594 v -7.8398437 c -0.2988282,0.28125 -0.6884766,0.5625 -1.171875,0.84375 -0.4775391,0.28125 -0.9082032,0.4921875 -1.2890625,0.6328125 V -7.546875 C 2.2097687,-7.875 2.8132844,-8.2646484 3.3289094,-8.71875 c 0.515625,-0.4599609 0.8818359,-0.9082031 1.1015625,-1.347656 h 0.7851562 z m 0,0"
       style="fill:#000000;fill-opacity:1;fill-rule:nonzero;stroke:none"
       aria-label="1"
       transform="matrix(1.3333333,0,0,1.3333333,86.444267,364)" />
    <path
       id="path25"
       d="M 748.332,2225 H 792.5"
       style="fill:none;stroke:#000000;stroke-width:5;stroke-linecap:round;stroke-linejoin:round;stroke-miterlimit:10;stroke-dasharray:none;stroke-opacity:1"
       transform="matrix(0.13333333,0,0,-0.13333333,0,576)" />
    <path
       id="path26"
       d="M 5.2160125,-7.8125e-6 H 3.9855438 V -7.8398516 c -0.2988282,0.28125 -0.6884766,0.5625 -1.171875,0.84375 -0.4775391,0.28125 -0.9082032,0.4921875 -1.2890625,0.6328125 v -1.1835937 c 0.6855468,-0.328125 1.2890625,-0.7177735 1.8046875,-1.171875 0.515625,-0.459961 0.8818359,-0.9082031 1.1015625,-1.3476562 h 0.7851562 z m 3.8466797,0 V -1.4062578 H 10.457223 V -7.8125e-6 Z M 12.261911,-2.6250078 13.550973,-2.7304766 c 0.09375,0.6269532 0.310547,1.0986328 0.65625,1.4179688 0.351563,0.31347655 0.773438,0.46874999 1.265625,0.46874999 0.591797,0 1.092774,-0.22265629 1.5,-0.66796879 0.413086,-0.4453125 0.621094,-1.0371093 0.621094,-1.78125 0,-0.703125 -0.199219,-1.2539062 -0.597656,-1.6523437 -0.392578,-0.4042969 -0.902344,-0.609375 -1.535156,-0.609375 -0.398438,0 -0.758789,0.09082 -1.078125,0.2695312 -0.322266,0.1816407 -0.571289,0.4101563 -0.75,0.6914063 l -1.160157,-0.140625 0.972657,-5.15625 h 4.980468 v 1.1835937 H 14.42988 l -0.539063,2.6953125 c 0.600586,-0.421875 1.233399,-0.6328125 1.898438,-0.6328125 0.873047,0 1.611328,0.3046875 2.214843,0.9140625 0.600586,0.6035157 0.902344,1.3798828 0.902344,2.3320313 0,0.9082031 -0.266601,1.6933594 -0.796875,2.3554687 -0.641601,0.81445316 -1.520508,1.21875004 -2.636719,1.21875004 -0.908203,0 -1.649414,-0.25195313 -2.226562,-0.76171875 C 12.666208,-1.1015703 12.338083,-1.7812578 12.261911,-2.6250078 Z m 0,0"
       style="fill:#000000;fill-opacity:1;fill-rule:nonzero;stroke:none"
       aria-label="1.5"
       transform="matrix(1.3333333,0,0,1.3333333,70.889067,286.22267)" />
    <path
       id="path27"
       d="M 748.332,2808.33 H 792.5"
       style="fill:none;stroke:#000000;stroke-width:5;stroke-linecap:round;stroke-linejoin:round;stroke-miterlimit:10;stroke-dasharray:none;stroke-opacity:1"
       transform="matrix(0.13333333,0,0,-0.13333333,0,576)" />
    <path
       id="path28"
       d="M 7.0554719,-1.1826094 V 9.84375e-4 H 0.42265937 C 0.41387031,-0.29491406 0.46074531,-0.57909375 0.56328437,-0.85448437 0.73320625,-1.3056562 1.0027375,-1.7509687 1.3718781,-2.1904219 c 0.375,-0.4365234 0.9140625,-0.9404297 1.6171875,-1.5117187 1.0839844,-0.8964844 1.819336,-1.6054688 2.203125,-2.1210938 0.3808594,-0.5214843 0.5742188,-1.0195312 0.5742188,-1.4882812 0,-0.4833985 -0.1757813,-0.8935547 -0.5273438,-1.2304688 -0.3457031,-0.3339843 -0.796875,-0.5039062 -1.359375,-0.5039062 -0.5859375,0 -1.0605469,0.1816406 -1.4179687,0.5390625 -0.3515625,0.3515625 -0.5332032,0.84375 -0.5390625,1.4765625 l -1.26562503,-0.140625 c 0.0849609,-0.9375 0.41015623,-1.6523438 0.97265623,-2.1445313 0.5683594,-0.4980468 1.3300781,-0.7500001 2.2851563,-0.7500001 0.9609375,0 1.7167968,0.2695314 2.2734375,0.8085939 0.5625,0.5332031 0.84375,1.1923828 0.84375,1.9804687 0,0.3984375 -0.082031,0.7939453 -0.2460938,1.1835938 -0.1640625,0.383789 -0.4394531,0.7910156 -0.8203125,1.21875 -0.375,0.430664 -1.0048828,1.0195312 -1.8867187,1.7695312 -0.7441407,0.6181641 -1.21875,1.0371094 -1.4296875,1.2539063 -0.2050782,0.2197265 -0.375,0.4423828 -0.515625,0.6679687 z m 0,0"
       style="fill:#000000;fill-opacity:1;fill-rule:nonzero;stroke:none"
       aria-label="2"
       transform="matrix(1.3333333,0,0,1.3333333,86.444267,208.444)" />
    <path
       id="path29"
       d="M 748.332,3391.67 H 792.5"
       style="fill:none;stroke:#000000;stroke-width:5;stroke-linecap:round;stroke-linejoin:round;stroke-miterlimit:10;stroke-dasharray:none;stroke-opacity:1"
       transform="matrix(0.13333333,0,0,-0.13333333,0,576)" />
    <path
       id="path30"
       d="M 7.0558563,-1.1826172 V 9.765625e-4 H 0.42304375 C 0.41425469,-0.29492188 0.46112969,-0.57910156 0.56366875,-0.85449219 0.73359063,-1.3056641 1.0031219,-1.7509766 1.3722625,-2.1904297 c 0.375,-0.4365234 0.9140625,-0.9404297 1.6171875,-1.5117187 1.0839844,-0.8964844 1.8193359,-1.6054688 2.203125,-2.1210938 0.3808594,-0.5214844 0.5742188,-1.0195312 0.5742188,-1.4882812 0,-0.4833985 -0.1757813,-0.8935547 -0.5273438,-1.2304688 -0.3457031,-0.3339844 -0.796875,-0.5039062 -1.359375,-0.5039062 -0.5859375,0 -1.0605469,0.1816406 -1.4179687,0.5390625 -0.3515625,0.3515625 -0.5332032,0.84375 -0.5390625,1.4765625 l -1.26562505,-0.140625 c 0.0849609,-0.9375 0.41015625,-1.6523438 0.97265625,-2.1445313 0.5683594,-0.4980469 1.3300781,-0.7500003 2.2851563,-0.7500003 0.9609375,0 1.7167968,0.2695316 2.2734375,0.8085941 0.5625,0.5332031 0.84375,1.1923828 0.84375,1.9804687 0,0.3984375 -0.082031,0.7939453 -0.2460938,1.1835938 -0.1640625,0.383789 -0.4394531,0.7910156 -0.8203125,1.21875 -0.375,0.430664 -1.0048828,1.0195312 -1.8867187,1.7695312 -0.7441407,0.6181641 -1.21875,1.0371094 -1.4296875,1.2539063 -0.2050782,0.2197265 -0.375,0.4423828 -0.515625,0.6679687 z M 9.0626922,9.765625e-4 V -1.4052734 H 10.457223 V 9.765625e-4 Z M 12.261911,-2.6240234 13.550973,-2.7294922 c 0.09375,0.6269531 0.310547,1.0986328 0.65625,1.4179688 0.351563,0.31347652 0.773438,0.46874996 1.265625,0.46874996 0.591797,0 1.092774,-0.22265626 1.5,-0.66796876 0.413086,-0.4453125 0.621094,-1.0371094 0.621094,-1.78125 0,-0.703125 -0.199219,-1.2539062 -0.597656,-1.6523437 -0.392578,-0.4042969 -0.902344,-0.609375 -1.535156,-0.609375 -0.398438,0 -0.758789,0.09082 -1.078125,0.2695312 -0.322266,0.1816406 -0.571289,0.4101563 -0.75,0.6914063 l -1.160157,-0.140625 0.972657,-5.15625 h 4.980468 v 1.1835937 H 14.42988 l -0.539063,2.6953125 c 0.600586,-0.421875 1.233399,-0.6328125 1.898438,-0.6328125 0.873047,0 1.611328,0.3046875 2.214843,0.9140625 0.600586,0.6035156 0.902344,1.3798828 0.902344,2.3320313 0,0.9082031 -0.266601,1.6933593 -0.796875,2.3554687 -0.641601,0.81445314 -1.520508,1.21875001 -2.636719,1.21875001 -0.908203,0 -1.649414,-0.25195312 -2.226562,-0.76171875 C 12.666208,-1.1005859 12.338083,-1.7802734 12.261911,-2.6240234 Z m 0,0"
       style="fill:#000000;fill-opacity:1;fill-rule:nonzero;stroke:none"
       aria-label="2.5"
       transform="matrix(1.3333333,0,0,1.3333333,70.889067,130.66667)" />
    <path
       id="path31"
       d="M 748.332,3975 H 792.5"
       style="fill:none;stroke:#000000;stroke-width:5;stroke-linecap:round;stroke-linejoin:round;stroke-miterlimit:10;stroke-dasharray:none;stroke-opacity:1"
       transform="matrix(0.13333333,0,0,-0.13333333,0,576)" />
    <path
       id="path32"
       d="M 0.58672187,-2.6474688 1.8171906,-2.8115313 c 0.140625,0.6972657 0.3779297,1.2011719 0.7148438,1.5117188 0.3427734,0.3046875 0.7617187,0.45703125 1.2539062,0.45703125 0.5771485,0 1.0664063,-0.19921875 1.4648438,-0.59765625 0.3984375,-0.3984375 0.5976562,-0.8935547 0.5976562,-1.4882813 0,-0.5683593 -0.1875,-1.0371093 -0.5625,-1.40625 C 4.9168,-4.7011797 4.44805,-4.88575 3.8796906,-4.88575 c -0.2285156,0 -0.515625,0.046875 -0.8671875,0.140625 l 0.140625,-1.078125 c 0.076172,0.00879 0.1435547,0.011719 0.1992188,0.011719 0.5214843,0 0.9902343,-0.1347656 1.40625,-0.4101562 0.421875,-0.2724609 0.6328125,-0.6943359 0.6328125,-1.265625 0,-0.4511719 -0.1523438,-0.8261719 -0.4570313,-1.125 C 4.6296906,-8.9082109 4.2341828,-9.057625 3.7507844,-9.057625 c -0.4775391,0 -0.8759766,0.1523437 -1.1953125,0.4570312 -0.3222657,0.2988282 -0.5244141,0.7470704 -0.609375,1.3476563 L 0.71562812,-7.463875 C 0.8621125,-8.2900469 1.2019562,-8.9316484 1.7351594,-9.38575 c 0.5302734,-0.4511719 1.1953125,-0.679688 1.9921875,-0.679688 0.5449218,0 1.0488281,0.117188 1.5117187,0.351563 0.459961,0.234375 0.8115235,0.5566406 1.0546875,0.9609375 0.2402344,0.4072266 0.3632813,0.8378906 0.3632813,1.2890625 0,0.4394531 -0.1171875,0.8378906 -0.3515625,1.1953125 -0.2285157,0.3515625 -0.5712891,0.6328125 -1.03125,0.84375 0.5917968,0.1347656 1.0546875,0.4160156 1.3828125,0.84375 0.328125,0.4306641 0.4921875,0.9697266 0.4921875,1.6171875 0,0.8759766 -0.3222657,1.6171875 -0.9609375,2.2265625 C 5.5554719,-0.1279375 4.7498078,0.17675 3.7742219,0.17675 2.8894562,0.17675 2.1599641,-0.08399219 1.5828156,-0.60840625 1.0027375,-1.1298906 0.67168281,-1.8095781 0.58672187,-2.6474688 Z M 175.3045,-17.433602 v 1.183594 h -6.63282 c -0.009,-0.295898 0.0381,-0.580078 0.14063,-0.855469 0.16992,-0.451171 0.43945,-0.896484 0.80859,-1.335937 0.375,-0.436524 0.91406,-0.94043 1.61719,-1.511719 1.08398,-0.896484 1.81933,-1.605469 2.20312,-2.121094 0.38086,-0.521484 0.57422,-1.019531 0.57422,-1.488281 0,-0.483398 -0.17578,-0.893555 -0.52734,-1.230469 -0.3457,-0.333984 -0.79688,-0.503906 -1.35938,-0.503906 -0.58593,0 -1.06054,0.181641 -1.41796,0.539063 -0.35157,0.351562 -0.53321,0.84375 -0.53907,1.476562 l -1.26562,-0.140625 c 0.085,-0.9375 0.41015,-1.652344 0.97265,-2.144531 0.56836,-0.498047 1.33008,-0.75 2.28516,-0.75 0.96094,0 1.7168,0.269531 2.27344,0.808594 0.5625,0.533203 0.84375,1.192382 0.84375,1.980468 0,0.398438 -0.082,0.793946 -0.2461,1.183594 -0.16406,0.383789 -0.43945,0.791016 -0.82031,1.21875 -0.375,0.430664 -1.00488,1.019531 -1.88672,1.769531 -0.74414,0.618164 -1.21875,1.03711 -1.42968,1.253907 -0.20508,0.219726 -0.375,0.442382 -0.51563,0.667968 z m 1.1748,-1.828125 v -1.230468 h 3.78516 v 1.230468 z m 5.29395,3.011719 v -10.019531 h 3.45703 c 0.77929,0 1.37402,0.04687 1.78125,0.140625 0.57714,0.134766 1.06933,0.37207 1.47656,0.714844 0.52148,0.445312 0.91406,1.016601 1.17187,1.710937 0.26368,0.697266 0.39844,1.494141 0.39844,2.390625 0,0.758789 -0.0908,1.435547 -0.26953,2.027344 -0.17285,0.585937 -0.39844,1.072266 -0.67969,1.453125 -0.27539,0.383789 -0.58008,0.688476 -0.91406,0.914062 -0.32812,0.219727 -0.72656,0.386719 -1.19531,0.503907 -0.46875,0.111328 -1.00489,0.164062 -1.60547,0.164062 z m 1.32421,-1.183594 h 2.14454 c 0.6621,0 1.18359,-0.05859 1.55859,-0.175781 0.375,-0.123047 0.67383,-0.298828 0.90234,-0.527344 0.31055,-0.310546 0.55371,-0.732421 0.72657,-1.265625 0.17871,-0.530273 0.26953,-1.174804 0.26953,-1.933593 0,-1.045899 -0.17286,-1.851563 -0.51563,-2.414063 -0.3457,-0.5625 -0.76172,-0.94043 -1.2539,-1.136719 -0.36036,-0.131836 -0.93458,-0.199218 -1.72266,-0.199218 h -2.10938 z m 12.74707,1.183594 v -10.019531 h 6.76172 v 1.183594 h -5.4375 v 3.09375 h 4.71094 v 1.183593 h -4.71094 v 4.558594 z m 8.32032,0 v -7.265625 h 1.10156 v 1.101563 c 0.28125,-0.515625 0.54199,-0.855469 0.78516,-1.019532 0.24023,-0.164062 0.5039,-0.246093 0.78515,-0.246093 0.41309,0 0.83496,0.134765 1.26563,0.398437 l -0.42188,1.148438 c -0.29883,-0.178711 -0.59765,-0.269532 -0.90234,-0.269532 -0.2666,0 -0.50977,0.08203 -0.72656,0.246094 -0.21094,0.158203 -0.36329,0.38086 -0.45704,0.667969 -0.13476,0.439453 -0.19921,0.919922 -0.19921,1.441406 v 3.796875 z m 9.40722,-0.890625 c -0.4541,0.383789 -0.89062,0.65625 -1.3125,0.820313 -0.42187,0.155273 -0.87597,0.234375 -1.35937,0.234375 -0.79688,0 -1.41211,-0.19336 -1.83985,-0.585938 -0.43066,-0.389648 -0.64453,-0.884765 -0.64453,-1.488281 0,-0.357422 0.082,-0.682617 0.2461,-0.972656 0.16406,-0.295899 0.375,-0.533203 0.63281,-0.714844 0.26367,-0.178711 0.5625,-0.310547 0.89062,-0.398438 0.24024,-0.07031 0.60352,-0.131836 1.08985,-0.1875 0.99023,-0.117187 1.72265,-0.257812 2.1914,-0.421875 0.006,-0.169921 0.0117,-0.28125 0.0117,-0.328125 0,-0.498046 -0.11718,-0.849609 -0.35156,-1.054687 -0.31348,-0.28125 -0.7793,-0.421875 -1.39453,-0.421875 -0.58594,0 -1.0166,0.102539 -1.28906,0.304687 -0.27539,0.205079 -0.47754,0.5625 -0.60938,1.078125 l -1.20703,-0.164062 c 0.1084,-0.515625 0.28711,-0.928711 0.53906,-1.242188 0.24903,-0.319336 0.61231,-0.565429 1.08985,-0.738281 0.47461,-0.169922 1.02539,-0.257812 1.65234,-0.257812 0.61524,0 1.11621,0.07617 1.5,0.222656 0.38965,0.149414 0.67383,0.333984 0.85547,0.550781 0.1875,0.219727 0.31641,0.498047 0.38672,0.832031 0.0469,0.210938 0.0703,0.591797 0.0703,1.136719 v 1.640625 c 0,1.148438 0.0234,1.875 0.0703,2.179688 0.0527,0.298828 0.15821,0.585937 0.31641,0.867187 h -1.28906 c -0.12598,-0.257812 -0.20801,-0.553711 -0.2461,-0.890625 z m -0.10547,-2.753906 c -0.44531,0.181641 -1.11328,0.336914 -2.0039,0.46875 -0.50977,0.07031 -0.86719,0.152344 -1.07813,0.246094 -0.21093,0.08789 -0.375,0.219726 -0.49218,0.398437 -0.11133,0.172852 -0.16407,0.369141 -0.16407,0.585938 0,0.328125 0.12305,0.603515 0.375,0.820312 0.24903,0.219727 0.61231,0.328125 1.08985,0.328125 0.47461,0 0.89648,-0.09961 1.26562,-0.304687 0.36621,-0.210938 0.63574,-0.495118 0.8086,-0.855469 0.13183,-0.28125 0.19921,-0.691406 0.19921,-1.230469 z m 3.15528,3.644531 v -7.265625 h 1.10156 v 1.019531 c 0.22559,-0.351562 0.52734,-0.635742 0.90234,-0.855468 0.38086,-0.216797 0.81446,-0.328125 1.30079,-0.328125 0.53027,0 0.96679,0.114257 1.3125,0.339843 0.35156,0.228516 0.59765,0.539063 0.73828,0.9375 0.56836,-0.849609 1.31543,-1.277343 2.23828,-1.277343 0.71777,0 1.26855,0.199218 1.65234,0.597656 0.38965,0.398437 0.58594,1.016601 0.58594,1.851562 v 4.980469 h -1.21875 v -4.570312 c 0,-0.492188 -0.041,-0.84668 -0.11719,-1.066407 -0.0791,-0.216796 -0.22265,-0.392578 -0.43359,-0.527343 -0.21094,-0.131836 -0.45703,-0.199219 -0.73828,-0.199219 -0.51563,0 -0.94336,0.172851 -1.27735,0.515625 -0.33691,0.336914 -0.5039,0.878906 -0.5039,1.628906 v 4.21875 h -1.23047 v -4.722656 c 0,-0.544922 -0.10254,-0.955078 -0.30469,-1.230469 -0.19629,-0.272461 -0.52441,-0.410156 -0.98437,-0.410156 -0.34571,0 -0.66504,0.09375 -0.96094,0.28125 -0.29004,0.181641 -0.50098,0.445312 -0.63281,0.796875 -0.13477,0.351562 -0.19922,0.855469 -0.19922,1.511719 v 3.773437 z m 16.63183,-2.34375 1.27735,0.164063 c -0.20508,0.74414 -0.58008,1.321289 -1.125,1.734375 -0.53906,0.407226 -1.23047,0.609375 -2.07422,0.609375 -1.06348,0 -1.90723,-0.322266 -2.53125,-0.972657 -0.61817,-0.65625 -0.92578,-1.576171 -0.92578,-2.765625 0,-1.21875 0.31054,-2.162109 0.9375,-2.835937 0.63281,-0.679688 1.44726,-1.019531 2.44922,-1.019531 0.96679,0 1.76074,0.333984 2.3789,0.996093 0.61524,0.665039 0.92578,1.59375 0.92578,2.789063 0,0.07031 -0.006,0.181641 -0.0117,0.328125 h -5.41407 c 0.0469,0.796875 0.27246,1.412109 0.67969,1.839844 0.4043,0.421875 0.91406,0.632812 1.52344,0.632812 0.44531,0 0.82617,-0.117187 1.14844,-0.351562 0.31933,-0.240235 0.57421,-0.624024 0.76171,-1.148438 z m -4.04296,-1.980469 h 4.05468 c -0.0557,-0.615234 -0.21093,-1.078125 -0.46875,-1.382812 -0.39258,-0.46875 -0.89941,-0.703125 -1.52343,-0.703125 -0.5625,0 -1.04004,0.193359 -1.42969,0.574219 -0.38379,0.375 -0.59473,0.878906 -0.63281,1.511718 z m 10.45605,1.101563 1.24219,-0.105469 c 0.0615,0.500977 0.19922,0.911133 0.41015,1.230469 0.2168,0.322266 0.55371,0.583008 1.00782,0.785156 0.45996,0.196289 0.97558,0.292969 1.54687,0.292969 0.50684,0 0.95215,-0.07324 1.33594,-0.222656 0.38965,-0.146485 0.67969,-0.354493 0.86719,-0.621094 0.19336,-0.263672 0.29296,-0.550781 0.29296,-0.855469 0,-0.310547 -0.0937,-0.585937 -0.28125,-0.820312 -0.18164,-0.240235 -0.48046,-0.439453 -0.90234,-0.597657 -0.2666,-0.09961 -0.86133,-0.260742 -1.78125,-0.480468 -0.92285,-0.225586 -1.56738,-0.436524 -1.93359,-0.632813 -0.48633,-0.249023 -0.84375,-0.55664 -1.07813,-0.925781 -0.23437,-0.375 -0.35156,-0.791016 -0.35156,-1.253906 0,-0.506836 0.14355,-0.978516 0.43359,-1.417969 0.28711,-0.445313 0.70606,-0.779297 1.25391,-1.007813 0.55371,-0.225586 1.16602,-0.339843 1.83984,-0.339843 0.75,0 1.40625,0.123047 1.96875,0.363281 0.56836,0.234375 1.00782,0.585937 1.3125,1.054687 0.30469,0.462891 0.46875,0.990235 0.49219,1.582032 l -1.27734,0.09375 c -0.0645,-0.632813 -0.29297,-1.107422 -0.69141,-1.429688 -0.39258,-0.328125 -0.97266,-0.492187 -1.74609,-0.492187 -0.80567,0 -1.3916,0.149414 -1.75782,0.445312 -0.36914,0.290039 -0.55078,0.641602 -0.55078,1.054688 0,0.360351 0.13184,0.65625 0.39844,0.890625 0.24902,0.234375 0.91406,0.474609 1.99219,0.714843 1.07812,0.243164 1.81933,0.457032 2.22656,0.644532 0.57715,0.266601 1.00781,0.606445 1.28906,1.019531 0.28125,0.416016 0.42188,0.887695 0.42188,1.417969 0,0.539062 -0.1582,1.042968 -0.46875,1.511718 -0.30469,0.46875 -0.74414,0.837891 -1.3125,1.101563 -0.57129,0.263672 -1.21582,0.398437 -1.9336,0.398437 -0.9082,0 -1.66992,-0.134765 -2.28515,-0.398437 -0.60938,-0.263672 -1.08985,-0.662109 -1.44141,-1.195313 -0.3457,-0.530273 -0.52441,-1.130859 -0.53906,-1.804687 z m 12.31348,2.121094 0.17578,1.089843 c -0.34571,0.07031 -0.65332,0.105469 -0.92578,0.105469 -0.44532,0 -0.79395,-0.07031 -1.04297,-0.210937 -0.24317,-0.140625 -0.41602,-0.322266 -0.51563,-0.550782 -0.10254,-0.234375 -0.15234,-0.717773 -0.15234,-1.453125 v -4.183593 H 248.617 v -0.960938 h 0.90234 v -1.792969 l 1.21875,-0.738281 v 2.53125 h 1.24219 v 0.960938 h -1.24219 v 4.242187 c 0,0.351563 0.0234,0.580078 0.0703,0.679688 0.0469,0.102539 0.11719,0.18457 0.21094,0.246093 0.0996,0.05566 0.24023,0.08203 0.42187,0.08203 0.13184,0 0.31055,-0.01465 0.53907,-0.04687 z m 1.19824,1.101562 v -7.265625 h 1.10156 v 1.101563 c 0.28125,-0.515625 0.54199,-0.855469 0.78516,-1.019532 0.24023,-0.164062 0.5039,-0.246093 0.78515,-0.246093 0.41309,0 0.83496,0.134765 1.26563,0.398437 l -0.42188,1.148438 c -0.29882,-0.178711 -0.59765,-0.269532 -0.90234,-0.269532 -0.2666,0 -0.50977,0.08203 -0.72656,0.246094 -0.21094,0.158203 -0.36328,0.38086 -0.45703,0.667969 -0.13477,0.439453 -0.19922,0.919922 -0.19922,1.441406 v 3.796875 z m 9.43066,0 v -1.066406 c -0.5625,0.820312 -1.33301,1.230469 -2.30859,1.230469 -0.43067,0 -0.83203,-0.08203 -1.20703,-0.246094 -0.36914,-0.164063 -0.6416,-0.369141 -0.82031,-0.621094 -0.18165,-0.249023 -0.30469,-0.553711 -0.375,-0.914062 -0.0557,-0.240235 -0.082,-0.624024 -0.082,-1.148438 v -4.5 h 1.23047 v 4.03125 c 0,0.641602 0.0264,1.075195 0.082,1.300781 0.0762,0.322266 0.24024,0.574219 0.49219,0.761719 0.24902,0.1875 0.55664,0.28125 0.92578,0.28125 0.375,0 0.72071,-0.09375 1.04297,-0.28125 0.31934,-0.193359 0.54492,-0.451172 0.67969,-0.773437 0.14062,-0.328125 0.21094,-0.802735 0.21094,-1.429688 v -3.890625 h 1.23047 v 7.265625 z m 7.76074,-2.660156 1.20704,0.152344 c -0.13477,0.83789 -0.47461,1.49414 -1.01954,1.96875 -0.53906,0.46875 -1.2041,0.703125 -1.99218,0.703125 -1.00196,0 -1.80176,-0.322266 -2.40235,-0.972657 -0.60351,-0.647461 -0.90234,-1.582031 -0.90234,-2.800781 0,-0.779297 0.12891,-1.464844 0.38672,-2.050781 0.25781,-0.585938 0.65039,-1.025391 1.18359,-1.324219 0.53028,-0.295898 1.10742,-0.445312 1.73438,-0.445312 0.78808,0 1.43261,0.199218 1.93359,0.597656 0.49805,0.398437 0.82031,0.966797 0.96094,1.699219 l -1.19531,0.1875 c -0.11133,-0.483399 -0.31055,-0.84668 -0.59766,-1.089844 -0.29004,-0.249024 -0.6416,-0.375 -1.05469,-0.375 -0.61816,0 -1.12207,0.222656 -1.51172,0.667969 -0.38379,0.439453 -0.57422,1.142578 -0.57422,2.109375 0,0.969726 0.18165,1.675781 0.55079,2.121093 0.375,0.445313 0.86132,0.667969 1.46484,0.667969 0.4834,0 0.88477,-0.146484 1.20703,-0.445312 0.32813,-0.295899 0.5332,-0.75293 0.62109,-1.371094 z m 4.94825,1.558594 0.17578,1.089843 c -0.3457,0.07031 -0.65332,0.105469 -0.92578,0.105469 -0.44532,0 -0.79395,-0.07031 -1.04297,-0.210937 -0.24317,-0.140625 -0.41602,-0.322266 -0.51563,-0.550782 -0.10254,-0.234375 -0.15234,-0.717773 -0.15234,-1.453125 v -4.183593 h -0.90234 v -0.960938 h 0.90234 v -1.792969 l 1.21875,-0.738281 v 2.53125 h 1.24219 v 0.960938 h -1.24219 v 4.242187 c 0,0.351563 0.0234,0.580078 0.0703,0.679688 0.0469,0.102539 0.11719,0.18457 0.21094,0.246093 0.0996,0.05566 0.24023,0.08203 0.42187,0.08203 0.13184,0 0.31055,-0.01465 0.53907,-0.04687 z m 5.96777,1.101562 v -1.066406 c -0.5625,0.820312 -1.33301,1.230469 -2.30859,1.230469 -0.43067,0 -0.83203,-0.08203 -1.20703,-0.246094 -0.36915,-0.164063 -0.64161,-0.369141 -0.82032,-0.621094 -0.18164,-0.249023 -0.30468,-0.553711 -0.375,-0.914062 -0.0557,-0.240235 -0.082,-0.624024 -0.082,-1.148438 v -4.5 h 1.23047 v 4.03125 c 0,0.641602 0.0264,1.075195 0.082,1.300781 0.0762,0.322266 0.24024,0.574219 0.49219,0.761719 0.24902,0.1875 0.55664,0.28125 0.92578,0.28125 0.375,0 0.7207,-0.09375 1.04297,-0.28125 0.31934,-0.193359 0.54492,-0.451172 0.67969,-0.773437 0.14062,-0.328125 0.21093,-0.802735 0.21093,-1.429688 v -3.890625 h 1.23047 v 7.265625 z m 3.01465,0 v -7.265625 h 1.10156 v 1.101563 c 0.28125,-0.515625 0.54199,-0.855469 0.78516,-1.019532 0.24023,-0.164062 0.5039,-0.246093 0.78515,-0.246093 0.41309,0 0.83496,0.134765 1.26563,0.398437 l -0.42188,1.148438 c -0.29882,-0.178711 -0.59765,-0.269532 -0.90234,-0.269532 -0.2666,0 -0.50977,0.08203 -0.72656,0.246094 -0.21094,0.158203 -0.36328,0.38086 -0.45703,0.667969 -0.13477,0.439453 -0.19922,0.919922 -0.19922,1.441406 v 3.796875 z m 9.6416,-2.34375 1.27734,0.164063 c -0.20507,0.74414 -0.58007,1.321289 -1.125,1.734375 -0.53906,0.407226 -1.23046,0.609375 -2.07421,0.609375 -1.06348,0 -1.90723,-0.322266 -2.53125,-0.972657 -0.61817,-0.65625 -0.92579,-1.576171 -0.92579,-2.765625 0,-1.21875 0.31055,-2.162109 0.9375,-2.835937 0.63282,-0.679688 1.44727,-1.019531 2.44922,-1.019531 0.9668,0 1.76075,0.333984 2.37891,0.996093 0.61523,0.665039 0.92578,1.59375 0.92578,2.789063 0,0.07031 -0.006,0.181641 -0.0117,0.328125 h -5.41406 c 0.0469,0.796875 0.27246,1.412109 0.67969,1.839844 0.40429,0.421875 0.91406,0.632812 1.52343,0.632812 0.44532,0 0.82618,-0.117187 1.14844,-0.351562 0.31934,-0.240235 0.57422,-0.624024 0.76172,-1.148438 z m -4.04297,-1.980469 h 4.05469 c -0.0557,-0.615234 -0.21094,-1.078125 -0.46875,-1.382812 -0.39258,-0.46875 -0.89941,-0.703125 -1.52344,-0.703125 -0.5625,0 -1.04004,0.193359 -1.42969,0.574219 -0.38378,0.375 -0.59472,0.878906 -0.63281,1.511718 z m -61.45898,395.408207 2.64843,-3.77344 -2.44921,-3.49219 h 1.53515 l 1.11328,1.71094 c 0.21094,0.32226 0.37793,0.5918 0.50391,0.80859 0.20215,-0.2959 0.38965,-0.5625 0.5625,-0.79687 l 1.21875,-1.72266 h 1.46484 l -2.50781,3.42188 2.70703,3.84375 h -1.51172 l -1.48828,-2.26172 -0.39844,-0.59766 -1.91015,2.85938 z m 0,0"
       style="fill:#000000;fill-opacity:1;fill-rule:nonzero;stroke:none"
       aria-label="3&#10;2-D Frame Structure&#10;x"
       transform="matrix(1.3333333,0,0,1.3333333,86.444267,52.889333)" />
    <path
       id="path33"
       d="M 0.8671875,2.80195 0.7265625,1.6417938 c 0.27246094,0.070312 0.5097656,0.1054687 0.7148437,0.1054687 0.272461,0 0.4921875,-0.046875 0.65625,-0.140625 0.1640625,-0.087891 0.2958985,-0.2109375 0.3984375,-0.375 0.076172,-0.1259766 0.2021485,-0.43066406 0.375,-0.9140625 0.023437,-0.0703125 0.058594,-0.17285156 0.1054688,-0.3046875 L 0.22265625,-7.2644562 H 1.546875 l 1.5117187,4.2070312 c 0.1933594,0.5332031 0.3691407,1.0957031 0.5273438,1.6875 0.140625,-0.5683594 0.3105469,-1.1191406 0.515625,-1.6523437 l 1.546875,-4.2421875 H 6.8789062 L 4.1132812,0.130075 C 3.8144531,0.92695 3.5859375,1.4718719 3.421875,1.7707 c -0.2197266,0.4042969 -0.46875,0.703125 -0.75,0.890625 -0.28125,0.1875 -0.6181641,0.28125 -1.0078125,0.28125 -0.2431641,0 -0.5097656,-0.046875 -0.796875,-0.140625 z m 0,0"
       style="fill:#000000;fill-opacity:1;fill-rule:nonzero;stroke:none"
       aria-label="y"
       transform="matrix(0,-1.3333333,1.3333333,0,64.889067,284)" />
    <path
       id="path34"
       d="M 1800,475 V 2225"
       style="fill:none;stroke:#000000;stroke-width:5;stroke-linecap:round;stroke-linejoin:round;stroke-miterlimit:10;stroke-dasharray:none;stroke-opacity:1"
       transform="matrix(0.13333333,0,0,-0.13333333,0,576)"
       clip-path="url(#clipPath35)" />
    <path
       id="path36"
       d="M 1800,2225 V 3975"
       style="fill:none;stroke:#000000;stroke-width:5;stroke-linecap:round;stroke-linejoin:round;stroke-miterlimit:10;stroke-dasharray:none;stroke-opacity:1"
       transform="matrix(0.13333333,0,0,-0.13333333,0,576)"
       clip-path="url(#clipPath37)" />
    <path
       id="path38"
       d="M 1800,3975 H 2966.67"
       style="fill:none;stroke:#000000;stroke-width:5;stroke-linecap:round;stroke-linejoin:round;stroke-miterlimit:10;stroke-dasharray:none;stroke-opacity:1"
       transform="matrix(0.13333333,0,0,-0.13333333,0,576)"
       clip-path="url(#clipPath39)" />
    <path
       id="path40"
       d="M 2966.67,3975 H 4133.33"
       style="fill:none;stroke:#000000;stroke-width:5;stroke-linecap:round;stroke-linejoin:round;stroke-miterlimit:10;stroke-dasharray:none;stroke-opacity:1"
       transform="matrix(0.13333333,0,0,-0.13333333,0,576)"
       clip-path="url(#clipPath41)" />
    <path
       id="path42"
       d="m 1770,475 h 60"
       style="fill:none;stroke:#000000;stroke-width:5;stroke-linecap:round;stroke-linejoin:round;stroke-miterlimit:10;stroke-dasharray:none;stroke-opacity:1"
       transform="matrix(0.13333333,0,0,-0.13333333,0,576)" />
    <path
       id="path43"
       d="M 1800,505 V 445"
       style="fill:none;stroke:#000000;stroke-width:5;stroke-linecap:round;stroke-linejoin:round;stroke-miterlimit:10;stroke-dasharray:none;stroke-opacity:1"
       transform="matrix(0.13333333,0,0,-0.13333333,0,576)" />
    <path
       id="path44"
       d="m 1770,505 60,-60"
       style="fill:none;stroke:#000000;stroke-width:5;stroke-linecap:round;stroke-linejoin:round;stroke-miterlimit:10;stroke-dasharray:none;stroke-opacity:1"
       transform="matrix(0.13333333,0,0,-0.13333333,0,576)" />
    <path
       id="path45"
       d="m 1830,505 -60,-60"
       style="fill:none;stroke:#000000;stroke-width:5;stroke-linecap:round;stroke-linejoin:round;stroke-miterlimit:10;stroke-dasharray:none;stroke-opacity:1"
       transform="matrix(0.13333333,0,0,-0.13333333,0,576)" />
    <path
       id="path46"
       d="m 1770,2225 h 60"
       style="fill:none;stroke:#000000;stroke-width:5;stroke-linecap:round;stroke-linejoin:round;stroke-miterlimit:10;stroke-dasharray:none;stroke-opacity:1"
       transform="matrix(0.13333333,0,0,-0.13333333,0,576)" />
    <path
       id="path47"
       d="m 1800,2255 v -60"
       style="fill:none;stroke:#000000;stroke-width:5;stroke-linecap:round;stroke-linejoin:round;stroke-miterlimit:10;stroke-dasharray:none;stroke-opacity:1"
       transform="matrix(0.13333333,0,0,-0.13333333,0,576)" />
    <path
       id="path48"
       d="m 1770,2255 60,-60"
       style="fill:none;stroke:#000000;stroke-width:5;stroke-linecap:round;stroke-linejoin:round;stroke-miterlimit:10;stroke-dasharray:none;stroke-opacity:1"
       transform="matrix(0.13333333,0,0,-0.13333333,0,576)" />
    <path
       id="path49"
       d="m 1830,2255 -60,-60"
       style="fill:none;stroke:#000000;stroke-width:5;stroke-linecap:round;stroke-linejoin:round;stroke-miterlimit:10;stroke-dasharray:none;stroke-opacity:1"
       transform="matrix(0.13333333,0,0,-0.13333333,0,576)" />
    <path
       id="path50"
       d="m 1770,2225 h 60"
       style="fill:none;stroke:#000000;stroke-width:5;stroke-linecap:round;stroke-linejoin:round;stroke-miterlimit:10;stroke-dasharray:none;stroke-opacity:1"
       transform="matrix(0.13333333,0,0,-0.13333333,0,576)" />
    <path
       id="path51"
       d="m 1800,2255 v -60"
       style="fill:none;stroke:#000000;stroke-width:5;stroke-linecap:round;stroke-linejoin:round;stroke-miterlimit:10;stroke-dasharray:none;stroke-opacity:1"
       transform="matrix(0.13333333,0,0,-0.13333333,0,576)" />
    <path
       id="path52"
       d="m 1770,2255 60,-60"
       style="fill:none;stroke:#000000;stroke-width:5;stroke-linecap:round;stroke-linejoin:round;stroke-miterlimit:10;stroke-dasharray:none;stroke-opacity:1"
       transform="matrix(0.13333333,0,0,-0.13333333,0,576)" />
    <path
       id="path53"
       d="m 1830,2255 -60,-60"
       style="fill:none;stroke:#000000;stroke-width:5;stroke-linecap:round;stroke-linejoin:round;stroke-miterlimit:10;stroke-dasharray:none;stroke-opacity:1"
       transform="matrix(0.13333333,0,0,-0.13333333,0,576)" />
    <path
       id="path54"
       d="m 1770,3975 h 60"
       style="fill:none;stroke:#000000;stroke-width:5;stroke-linecap:round;stroke-linejoin:round;stroke-miterlimit:10;stroke-dasharray:none;stroke-opacity:1"
       transform="matrix(0.13333333,0,0,-0.13333333,0,576)" />
    <path
       id="path55"
       d="m 1800,4005 v -60"
       style="fill:none;stroke:#000000;stroke-width:5;stroke-linecap:round;stroke-linejoin:round;stroke-miterlimit:10;stroke-dasharray:none;stroke-opacity:1"
       transform="matrix(0.13333333,0,0,-0.13333333,0,576)" />
    <path
       id="path56"
       d="m 1770,4005 60,-60"
       style="fill:none;stroke:#000000;stroke-width:5;stroke-linecap:round;stroke-linejoin:round;stroke-miterlimit:10;stroke-dasharray:none;stroke-opacity:1"
       transform="matrix(0.13333333,0,0,-0.13333333,0,576)" />
    <path
       id="path57"
       d="m 1830,4005 -60,-60"
       style="fill:none;stroke:#000000;stroke-width:5;stroke-linecap:round;stroke-linejoin:round;stroke-miterlimit:10;stroke-dasharray:none;stroke-opacity:1"
       transform="matrix(0.13333333,0,0,-0.13333333,0,576)" />
    <path
       id="path58"
       d="m 1770,3975 h 60"
       style="fill:none;stroke:#000000;stroke-width:5;stroke-linecap:round;stroke-linejoin:round;stroke-miterlimit:10;stroke-dasharray:none;stroke-opacity:1"
       transform="matrix(0.13333333,0,0,-0.13333333,0,576)" />
    <path
       id="path59"
       d="m 1800,4005 v -60"
       style="fill:none;stroke:#000000;stroke-width:5;stroke-linecap:round;stroke-linejoin:round;stroke-miterlimit:10;stroke-dasharray:none;stroke-opacity:1"
       transform="matrix(0.13333333,0,0,-0.13333333,0,576)" />
    <path
       id="path60"
       d="m 1770,4005 60,-60"
       style="fill:none;stroke:#000000;stroke-width:5;stroke-linecap:round;stroke-linejoin:round;stroke-miterlimit:10;stroke-dasharray:none;stroke-opacity:1"
       transform="matrix(0.13333333,0,0,-0.13333333,0,576)" />
    <path
       id="path61"
       d="m 1830,4005 -60,-60"
       style="fill:none;stroke:#000000;stroke-width:5;stroke-linecap:round;stroke-linejoin:round;stroke-miterlimit:10;stroke-dasharray:none;stroke-opacity:1"
       transform="matrix(0.13333333,0,0,-0.13333333,0,576)" />
    <path
       id="path62"
       d="m 2936.67,3975 h 60"
       style="fill:none;stroke:#000000;stroke-width:5;stroke-linecap:round;stroke-linejoin:round;stroke-miterlimit:10;stroke-dasharray:none;stroke-opacity:1"
       transform="matrix(0.13333333,0,0,-0.13333333,0,576)" />
    <path
       id="path63"
       d="m 2966.67,4005 v -60"
       style="fill:none;stroke:#000000;stroke-width:5;stroke-linecap:round;stroke-linejoin:round;stroke-miterlimit:10;stroke-dasharray:none;stroke-opacity:1"
       transform="matrix(0.13333333,0,0,-0.13333333,0,576)" />
    <path
       id="path64"
       d="m 2936.67,4005 60,-60"
       style="fill:none;stroke:#000000;stroke-width:5;stroke-linecap:round;stroke-linejoin:round;stroke-miterlimit:10;stroke-dasharray:none;stroke-opacity:1"
       transform="matrix(0.13333333,0,0,-0.13333333,0,576)" />
    <path
       id="path65"
       d="m 2996.67,4005 -60,-60"
       style="fill:none;stroke:#000000;stroke-width:5;stroke-linecap:round;stroke-linejoin:round;stroke-miterlimit:10;stroke-dasharray:none;stroke-opacity:1"
       transform="matrix(0.13333333,0,0,-0.13333333,0,576)" />
    <path
       id="path66"
       d="m 2936.67,3975 h 60"
       style="fill:none;stroke:#000000;stroke-width:5;stroke-linecap:round;stroke-linejoin:round;stroke-miterlimit:10;stroke-dasharray:none;stroke-opacity:1"
       transform="matrix(0.13333333,0,0,-0.13333333,0,576)" />
    <path
       id="path67"
       d="m 2966.67,4005 v -60"
       style="fill:none;stroke:#000000;stroke-width:5;stroke-linecap:round;stroke-linejoin:round;stroke-miterlimit:10;stroke-dasharray:none;stroke-opacity:1"
       transform="matrix(0.13333333,0,0,-0.13333333,0,576)" />
    <path
       id="path68"
       d="m 2936.67,4005 60,-60"
       style="fill:none;stroke:#000000;stroke-width:5;stroke-linecap:round;stroke-linejoin:round;stroke-miterlimit:10;stroke-dasharray:none;stroke-opacity:1"
       transform="matrix(0.13333333,0,0,-0.13333333,0,576)" />
    <path
       id="path69"
       d="m 2996.67,4005 -60,-60"
       style="fill:none;stroke:#000000;stroke-width:5;stroke-linecap:round;stroke-linejoin:round;stroke-miterlimit:10;stroke-dasharray:none;stroke-opacity:1"
       transform="matrix(0.13333333,0,0,-0.13333333,0,576)" />
    <path
       id="path70"
       d="m 4103.33,3975 h 60"
       style="fill:none;stroke:#000000;stroke-width:5;stroke-linecap:round;stroke-linejoin:round;stroke-miterlimit:10;stroke-dasharray:none;stroke-opacity:1"
       transform="matrix(0.13333333,0,0,-0.13333333,0,576)" />
    <path
       id="path71"
       d="m 4133.33,4005 v -60"
       style="fill:none;stroke:#000000;stroke-width:5;stroke-linecap:round;stroke-linejoin:round;stroke-miterlimit:10;stroke-dasharray:none;stroke-opacity:1"
       transform="matrix(0.13333333,0,0,-0.13333333,0,576)" />
    <path
       id="path72"
       d="m 4103.33,4005 60,-60"
       style="fill:none;stroke:#000000;stroke-width:5;stroke-linecap:round;stroke-linejoin:round;stroke-miterlimit:10;stroke-dasharray:none;stroke-opacity:1"
       transform="matrix(0.13333333,0,0,-0.13333333,0,576)" />
    <path
       id="path73"
       d="m 4163.33,4005 -60,-60"
       style="fill:none;stroke:#000000;stroke-width:5;stroke-linecap:round;stroke-linejoin:round;stroke-miterlimit:10;stroke-dasharray:none;stroke-opacity:1"
       transform="matrix(0.13333333,0,0,-0.13333333,0,576)" />
    <path
       id="path74"
       d="M 5.2148437,7.8125e-6 H 3.984375 V -7.8398359 c -0.2988281,0.28125 -0.6884766,0.5625 -1.171875,0.84375 -0.4775391,0.28125 -0.9082031,0.4921875 -1.2890625,0.6328125 V -7.5468672 C 2.2089844,-7.8749922 2.8125,-8.2646406 3.328125,-8.7187422 3.84375,-9.1787031 4.2099609,-9.6269453 4.4296875,-10.066398 H 5.2148437 Z M 7.0546875,-176.18261 v 1.18359 H 0.421875 c -0.008789,-0.29589 0.0380859,-0.58007 0.140625,-0.85546 0.16992187,-0.45118 0.4394531,-0.89649 0.8085937,-1.33594 0.375,-0.43653 0.9140626,-0.94043 1.6171876,-1.51172 1.0839843,-0.89648 1.8193359,-1.60547 2.2031249,-2.12109 0.3808594,-0.52149 0.5742188,-1.01954 0.5742188,-1.48829 0,-0.48339 -0.1757813,-0.89355 -0.5273438,-1.23046 -0.3457031,-0.33399 -0.796875,-0.50391 -1.3593749,-0.50391 -0.5859375,0 -1.0605469,0.18164 -1.4179688,0.53906 -0.3515625,0.35156 -0.5332031,0.84375 -0.5390625,1.47656 l -1.265625,-0.14062 c 0.0849609,-0.9375 0.4101562,-1.65234 0.9726562,-2.14453 0.5683594,-0.49805 1.3300782,-0.75 2.2851563,-0.75 0.9609375,0 1.7167969,0.26953 2.2734375,0.80859 0.5625,0.53321 0.84375,1.19238 0.84375,1.98047 0,0.39844 -0.082031,0.79395 -0.2460938,1.18359 -0.1640625,0.38379 -0.4394531,0.79102 -0.8203125,1.21875 -0.375,0.43067 -1.0048828,1.01954 -1.8867187,1.76954 -0.7441406,0.61816 -1.21875,1.03711 -1.4296875,1.2539 -0.2050781,0.21973 -0.375,0.44238 -0.515625,0.66797 z m 51.8642575,-88.96582 1.230469,-0.16406 c 0.140625,0.69726 0.37793,1.20117 0.714844,1.51172 0.342773,0.30468 0.761719,0.45703 1.253906,0.45703 0.577148,0 1.066406,-0.19922 1.464844,-0.59766 0.398437,-0.39844 0.597656,-0.89355 0.597656,-1.48828 0,-0.56836 -0.1875,-1.03711 -0.5625,-1.40625 -0.369141,-0.36621 -0.837891,-0.55078 -1.40625,-0.55078 -0.228516,0 -0.515625,0.0469 -0.867187,0.14062 l 0.140625,-1.07812 c 0.07617,0.009 0.143554,0.0117 0.199218,0.0117 0.521485,0 0.990235,-0.13477 1.40625,-0.41016 0.421875,-0.27246 0.632813,-0.69433 0.632813,-1.26562 0,-0.45118 -0.152344,-0.82618 -0.457031,-1.125 -0.304688,-0.2959 -0.700196,-0.44532 -1.183594,-0.44532 -0.477539,0 -0.875977,0.15235 -1.195313,0.45704 -0.322265,0.29882 -0.524414,0.74707 -0.609375,1.34765 l -1.230468,-0.21094 c 0.146484,-0.82617 0.486328,-1.46777 1.019531,-1.92187 0.530273,-0.45117 1.195312,-0.67969 1.992187,-0.67969 0.544922,0 1.048828,0.11719 1.511719,0.35156 0.459961,0.23438 0.811523,0.55664 1.054688,0.96094 0.240234,0.40723 0.363281,0.83789 0.363281,1.28906 0,0.43946 -0.117188,0.83789 -0.351563,1.19532 -0.228515,0.35156 -0.571289,0.63281 -1.03125,0.84375 0.591797,0.13476 1.054688,0.41601 1.382813,0.84375 0.328125,0.43066 0.492187,0.96972 0.492187,1.61718 0,0.87598 -0.322265,1.61719 -0.960937,2.22657 -0.632813,0.60937 -1.438477,0.91406 -2.414063,0.91406 -0.884765,0 -1.614258,-0.26074 -2.191406,-0.78516 -0.580078,-0.52148 -0.911133,-1.20117 -0.996094,-2.03906 z m 120.603515,2.64844 v -2.40235 h -4.34766 v -1.125 l 4.58204,-6.49218 h 0.99609 v 6.49218 h 1.35937 v 1.125 h -1.35937 v 2.40235 z m 0,-3.52735 v -4.52343 l -3.14062,4.52343 z m 0,0"
       style="fill:#000000;fill-opacity:1;fill-rule:nonzero;stroke:none"
       aria-label="1&#10;2&#10;34"
       transform="matrix(1.3333333,0,0,1.3333333,240,402.77733)" />
  </g>
</svg>
