<?xml version="1.0" encoding="UTF-8" standalone="no"?>
<!-- Created with Inkscape (http://www.inkscape.org/) -->

<svg
   version="1.1"
   id="svg1"
   width="322.04001"
   height="166.49333"
   viewBox="0 0 322.04001 166.49333"
   sodipodi:docname="EXD2f1.EPS"
   xmlns:inkscape="http://www.inkscape.org/namespaces/inkscape"
   xmlns:sodipodi="http://sodipodi.sourceforge.net/DTD/sodipodi-0.dtd"
   xmlns="http://www.w3.org/2000/svg"
   xmlns:svg="http://www.w3.org/2000/svg">
  <defs
     id="defs1" />
  <sodipodi:namedview
     id="namedview1"
     pagecolor="#ffffff"
     bordercolor="#000000"
     borderopacity="0.25"
     inkscape:showpageshadow="2"
     inkscape:pageopacity="0.0"
     inkscape:pagecheckerboard="0"
     inkscape:deskcolor="#d1d1d1">
    <inkscape:page
       x="0"
       y="0"
       inkscape:label="1"
       id="page1"
       width="322.04001"
       height="166.49333"
       margin="0"
       bleed="0" />
  </sodipodi:namedview>
  <g
     id="g1"
     inkscape:groupmode="layer"
     inkscape:label="1">
    <path
       id="path1"
       d="m 357.25,1048.25 v -851 h 1701"
       style="fill:none;stroke:#231f20;stroke-width:2.5;stroke-linecap:butt;stroke-linejoin:miter;stroke-miterlimit:3.8637;stroke-dasharray:none;stroke-opacity:1"
       transform="matrix(0.13333333,0,0,-0.13333333,0,166.49333)" />
    <path
       id="path2"
       d="m 357.25,1045.25 h -15 l 15,38 15,-38 h -15"
       style="fill:#231f20;fill-opacity:1;fill-rule:evenodd;stroke:none"
       transform="matrix(0.13333333,0,0,-0.13333333,0,166.49333)" />
    <path
       id="path3"
       d="m 2055.25,197.25 v 15 l 38,-15 -38,-15 v 15"
       style="fill:#231f20;fill-opacity:1;fill-rule:evenodd;stroke:none"
       transform="matrix(0.13333333,0,0,-0.13333333,0,166.49333)" />
    <path
       id="path4"
       d="m 328.25,481.25 h 57"
       style="fill:none;stroke:#231f20;stroke-width:2.5;stroke-linecap:butt;stroke-linejoin:miter;stroke-miterlimit:3.8637;stroke-dasharray:none;stroke-opacity:1"
       transform="matrix(0.13333333,0,0,-0.13333333,0,166.49333)" />
    <path
       id="path5"
       d="m 640.25,169.25 v 57"
       style="fill:none;stroke:#231f20;stroke-width:2.5;stroke-linecap:butt;stroke-linejoin:miter;stroke-miterlimit:3.8637;stroke-dasharray:none;stroke-opacity:1"
       transform="matrix(0.13333333,0,0,-0.13333333,0,166.49333)" />
    <path
       id="path6"
       d="m 924.25,169.25 v 57"
       style="fill:none;stroke:#231f20;stroke-width:2.5;stroke-linecap:butt;stroke-linejoin:miter;stroke-miterlimit:3.8637;stroke-dasharray:none;stroke-opacity:1"
       transform="matrix(0.13333333,0,0,-0.13333333,0,166.49333)" />
    <path
       id="path7"
       d="m 1207.25,169.25 v 57"
       style="fill:none;stroke:#231f20;stroke-width:2.5;stroke-linecap:butt;stroke-linejoin:miter;stroke-miterlimit:3.8637;stroke-dasharray:none;stroke-opacity:1"
       transform="matrix(0.13333333,0,0,-0.13333333,0,166.49333)" />
    <path
       id="path8"
       d="m 1491.25,169.25 v 57"
       style="fill:none;stroke:#231f20;stroke-width:2.5;stroke-linecap:butt;stroke-linejoin:miter;stroke-miterlimit:3.8637;stroke-dasharray:none;stroke-opacity:1"
       transform="matrix(0.13333333,0,0,-0.13333333,0,166.49333)" />
    <path
       id="path9"
       d="m 1774.25,169.25 v 57"
       style="fill:none;stroke:#231f20;stroke-width:2.5;stroke-linecap:butt;stroke-linejoin:miter;stroke-miterlimit:3.8637;stroke-dasharray:none;stroke-opacity:1"
       transform="matrix(0.13333333,0,0,-0.13333333,0,166.49333)" />
    <path
       id="path10"
       d="m 328.25,764.25 h 57"
       style="fill:none;stroke:#231f20;stroke-width:2.5;stroke-linecap:butt;stroke-linejoin:miter;stroke-miterlimit:3.8637;stroke-dasharray:none;stroke-opacity:1"
       transform="matrix(0.13333333,0,0,-0.13333333,0,166.49333)" />
    <path
       id="path11"
       d="M 3.3980469,-4.9561328 H 2.0503906 v -1.265625 c 0,-0.65625 0.1992188,-0.984375 0.6210938,-0.984375 0.2460937,0 0.3867187,0.1054687 0.5859375,0.4335937 0.1757812,0.28125 0.3046875,0.3867188 0.4921875,0.3867188 0.2695312,0 0.46875,-0.1992188 0.46875,-0.4453125 0,-0.3984375 -0.4921875,-0.6796875 -1.1484375,-0.6796875 -0.6914063,0 -1.265625,0.2929687 -1.546875,0.7851562 -0.2929688,0.5039063 -0.375,0.890625 -0.3867188,1.7695313 H 0.23398437 v 0.3515625 H 1.1363281 v 3.4570312 c -0.023437,0.83203129 -0.14062498,0.94921879 -0.91406248,0.98437504 V 8.984375e-4 H 3.0816406 V -0.16316406 C 2.1792969,-0.19832031 2.0621094,-0.31550781 2.0621094,-1.1475391 V -4.6045703 H 3.3980469 Z M 6.415625,-5.0616016 c -1.4414062,0 -2.4375,1.0546875 -2.4375,2.578125 0,1.48828129 1.03125,2.58984379 2.4140625,2.58984379 1.3828125,0 2.4375,-1.14843749 2.4375,-2.68359379 0,-1.453125 -1.0078125,-2.484375 -2.4140625,-2.484375 z M 6.275,-4.7569141 c 0.9140625,0 1.5703125,1.0546875 1.5703125,2.5664063 0,1.25390624 -0.4921875,1.99218749 -1.3242187,1.99218749 -0.421875,0 -0.8320313,-0.2578125 -1.0664063,-0.703125 C 5.15,-1.4756641 4.9742188,-2.2491016 4.9742188,-3.0225391 c 0,-1.0429687 0.5039062,-1.734375 1.3007812,-1.734375 z M 9.2222656,8.984375e-4 H 11.858984 V -0.16316406 c -0.738281,-0.0234375 -0.914062,-0.17578125 -0.9375,-0.83203125 V -3.4678516 c 0,-0.3515625 0.46875,-0.9023437 0.773438,-0.9023437 0.07031,0 0.164062,0.058594 0.28125,0.1640625 0.164062,0.1640625 0.304687,0.2226562 0.445312,0.2226562 0.257813,0 0.433594,-0.1875 0.433594,-0.4921875 0,-0.3632812 -0.234375,-0.5859375 -0.609375,-0.5859375 -0.46875,0 -0.773437,0.2460938 -1.324219,1.03125 v -1.0078125 l -0.04687,-0.023437 c -0.621093,0.2460938 -1.0195309,0.3984375 -1.6289059,0.5976563 v 0.1757812 c 0.1523438,-0.035156 0.2460938,-0.046875 0.375,-0.046875 0.28125,0 0.375,0.1757813 0.375,0.65625 v 2.75390629 c -0.023437,0.57421875 -0.082031,0.64453125 -0.7734375,0.76171875 z M 17.208594,-1.7100391 c -0.527344,0.76171879 -0.925782,1.03125004 -1.558594,1.03125004 -1.007812,0 -1.699219,-0.87890624 -1.699219,-2.14453124 0,-1.1484375 0.597657,-1.921875 1.488282,-1.921875 0.398437,0 0.539062,0.1171875 0.656249,0.5273437 l 0.07031,0.2460938 c 0.08203,0.3164062 0.28125,0.5039062 0.527344,0.5039062 0.28125,0 0.515625,-0.2109375 0.515625,-0.4570312 0,-0.6210938 -0.773438,-1.1367188 -1.699219,-1.1367188 -0.539062,0 -1.101562,0.2226563 -1.546875,0.6210938 -0.550781,0.4804687 -0.867187,1.2304687 -0.867187,2.109375 0,1.41796874 0.878906,2.43749999 2.097656,2.43749999 0.492187,0 0.9375,-0.17578125 1.335937,-0.515625 0.292969,-0.24609375 0.503906,-0.5625 0.832031,-1.20703129 z m 4.989258,-0.09375 c -0.527344,0.83203129 -0.996094,1.16015629 -1.699219,1.16015629 -0.632813,0 -1.101563,-0.328125 -1.429688,-0.94921879 -0.1875,-0.421875 -0.269531,-0.7734375 -0.292968,-1.453125 h 3.386718 c -0.08203,-0.7148437 -0.199218,-1.03125 -0.46875,-1.3828125 -0.328125,-0.3984375 -0.832031,-0.6328125 -1.40625,-0.6328125 -0.550781,0 -1.066406,0.1992188 -1.488281,0.5742188 -0.515625,0.4453125 -0.820312,1.2304687 -0.820312,2.1328125 0,1.52343749 0.796875,2.46093749 2.0625,2.46093749 1.042968,0 1.875,-0.64453125 2.332031,-1.82812499 z m -3.398438,-1.59375 c 0.117188,-0.8554687 0.492188,-1.265625 1.160156,-1.265625 0.679688,0 0.9375,0.3046875 1.089844,1.265625 z m 9.791016,-4.0429687 c -0.808594,0.5390625 -1.148438,0.8203125 -1.546875,1.3242187 -0.785157,0.9609375 -1.171875,2.0625 -1.171875,3.3398438 0,1.4179687 0.410156,2.48437499 1.371093,3.59765624 0.457032,0.52734376 0.738282,0.77343746 1.3125,1.12499996 L 28.68418,1.7704297 C 27.805273,1.0790234 27.500586,0.68058594 27.207617,-0.12800781 26.938086,-0.86628906 26.820898,-1.6983203 26.820898,-2.7998828 c 0,-1.1601563 0.140625,-2.0742188 0.433594,-2.7421875 0.316406,-0.6796875 0.644531,-1.078125 1.429688,-1.7226563 z m 8.197265,0.1523437 h -2.589843 v 0.2109375 c 0.878906,0.058594 1.03125,0.2460938 1.054687,1.40625 v 3.7148438 L 31.02207,-7.2881641 h -1.886718 v 0.2109375 c 0.480468,0 0.632812,0.09375 1.066406,0.609375 v 4.8515625 c -0.02344,1.17187504 -0.164063,1.34765629 -1.066406,1.40625004 V 8.984375e-4 h 2.589843 V -0.21003906 c -0.84375,-0.046875 -1.007812,-0.26953125 -1.03125,-1.40625004 v -4.3125 l 4.863282,6.04687504 h 0.1875 V -5.6709766 c 0.02344,-1.1367187 0.175781,-1.3242187 1.042968,-1.40625 z m 0.583008,9.234375 c 0.808594,-0.5390625 1.136719,-0.8085937 1.546875,-1.31249996 0.785156,-0.9609375 1.171875,-2.06250004 1.171875,-3.35156254 0,-1.40625 -0.410156,-2.4726562 -1.382812,-3.5976562 -0.445313,-0.5273438 -0.738282,-0.7734375 -1.3125,-1.125 l -0.128907,0.1757812 c 0.878907,0.6914063 1.183594,1.078125 1.488282,1.9101563 0.269531,0.7382812 0.386718,1.5585937 0.386718,2.671875 0,1.1484375 -0.140625,2.05078124 -0.445312,2.73046874 -0.292969,0.6796875 -0.632813,1.08984376 -1.429688,1.72265626 z m 0,0"
       style="fill:#231f20;fill-opacity:1;fill-rule:nonzero;stroke:none"
       aria-label="force (N)"
       transform="matrix(1.3333333,0,0,1.3333333,3.6333333,15.393333)" />
    <path
       id="path12"
       d="m 357.25,197.25 212,567 142,-567 h 1063"
       style="fill:none;stroke:#231f20;stroke-width:10;stroke-linecap:butt;stroke-linejoin:miter;stroke-miterlimit:3.8637;stroke-dasharray:none;stroke-opacity:1"
       transform="matrix(0.13333333,0,0,-0.13333333,0,166.49333)" />
    <path
       id="path13"
       d="m 3.7511719,-7.4405078 c -1.7226563,0 -3.39843752,2.5078125 -3.39843752,5.0976562 0,1.45312504 0.70312502,2.42578129 1.76953122,2.42578129 0.4804688,0 0.9375,-0.17578125 1.3945313,-0.515625 1.1132812,-0.80859379 1.9570312,-2.63671879 1.9570312,-4.21874999 0,-1.7460938 -0.65625,-2.7890625 -1.7226562,-2.7890625 z m -0.058594,0.3164062 c 0.5742188,0 0.9140625,0.5039063 0.9140625,1.3828125 0,1.4765625 -0.4453125,3.2929688 -1.078125,4.40625 -0.4101562,0.72656254 -0.8671875,1.10156254 -1.3710937,1.10156254 -0.5859375,0 -0.9375,-0.55078125 -0.9375,-1.47656254 0,-1.1835937 0.5625,-3.3515625 1.1367187,-4.3710937 0.4101563,-0.703125 0.8203125,-1.0429688 1.3359375,-1.0429688 z m 2.709961,6.0234375 c -0.328125,0 -0.609375,0.28125004 -0.609375,0.63281254 0,0.31640625 0.28125,0.5859375 0.5859375,0.5859375 0.3515625,0 0.6445312,-0.2578125 0.6445312,-0.5859375 0,-0.33984375 -0.2929687,-0.63281254 -0.6210937,-0.63281254 z M 8.7902344,8.984375e-4 H 11.860547 V -0.16316406 h -0.1875 c -0.539063,0 -0.761719,-0.10546875 -0.761719,-0.3515625 0,-0.10546875 0.03516,-0.26953125 0.140625,-0.57421874 0.01172,-0.082031 0.02344,-0.1289063 0.05859,-0.2460938 l 1.570312,-5.7070312 c 0.05859,-0.1992188 0.07031,-0.2578125 0.07031,-0.3164063 0,-0.046875 -0.02344,-0.082031 -0.05859,-0.082031 0,0 -0.304687,0.058594 -0.902344,0.1757812 l -0.984375,0.1992188 c -0.02344,0.011719 -0.105468,0.023437 -0.234375,0.046875 v 0.1640625 l 0.632813,-0.023437 c 0.246094,-0.011719 0.410156,0.1171875 0.410156,0.3398437 0,0.082031 -0.02344,0.1523438 -0.07031,0.375 l -1.523438,5.41406254 c -0.1289061,0.41015625 -0.3632811,0.515625 -1.2304686,0.59765625 z M 16.363477,-6.5498828 h 2.53125 l 0.257812,-0.7734375 h -2.8125 l -1.148437,2.390625 v 0.1640625 c 1.066406,0.234375 1.429687,0.3632812 1.828125,0.6914062 0.351562,0.28125 0.585937,0.8320313 0.585937,1.4179688 0,1.1953125 -0.890625,2.27343749 -1.886719,2.27343749 -0.234375,0 -0.433593,-0.0820313 -0.75,-0.31640625 -0.269531,-0.2109375 -0.433593,-0.29296875 -0.609375,-0.29296875 -0.257812,0 -0.445312,0.1875 -0.445312,0.4453125 0,0.3984375 0.433594,0.6328125 1.171875,0.6328125 1.816406,0 3.269531,-1.41796879 3.269531,-3.16406249 0,-0.6796875 -0.246094,-1.265625 -0.726562,-1.7109375 -0.410157,-0.3867188 -0.796875,-0.5625 -1.6875,-0.7851563 z m 6.035156,4.9453125 -0.222656,1.74609374 h 0.175781 c 0.09375,-0.1875 0.140625,-0.234375 0.269531,-0.234375 0.117188,0 0.316406,0.046875 0.539063,0.10546875 0.246093,0.08203125 0.410156,0.10546875 0.597656,0.10546875 0.925781,0 1.582031,-0.5859375 1.582031,-1.42968754 0,-0.421875 -0.222656,-0.9023437 -0.738281,-1.5351562 -0.421875,-0.515625 -0.597656,-0.8554688 -0.597656,-1.171875 0,-0.3632813 0.234375,-0.5859375 0.609375,-0.5859375 0.574218,0 0.902343,0.4101562 1.019531,1.265625 h 0.175781 l 0.222656,-1.5234375 h -0.152343 c -0.105469,0.1523437 -0.175782,0.1992187 -0.339844,0.1992187 -0.08203,0 -0.1875,-0.023437 -0.386719,-0.082031 -0.28125,-0.082031 -0.433594,-0.1054688 -0.621094,-0.1054688 -0.820312,0 -1.335937,0.46875 -1.335937,1.2070313 0,0.3515625 0.234375,0.8320312 0.703125,1.4179687 0.421875,0.5625 0.609375,0.9492188 0.609375,1.26562504 0,0.515625 -0.328125,0.85546875 -0.808594,0.85546875 -0.621094,0 -0.949219,-0.45703125 -1.125,-1.49999999 z m 7.816406,0.4101562 c -0.785156,0.64453129 -1.136719,0.82031254 -1.617187,0.82031254 -0.609375,0 -1.019532,-0.3984375 -1.019532,-0.99609374 0,-0.1640625 0.02344,-0.328125 0.105469,-0.6796875 l 0.304688,-0.035156 c 1.652343,-0.234375 2.824218,-1.0664062 2.824218,-2.015625 0,-0.46875 -0.328125,-0.75 -0.878906,-0.75 -1.582031,0 -3.316406,1.8046875 -3.316406,3.46875 0,0.89062504 0.597656,1.50000004 1.453125,1.50000004 0.785156,0 1.628906,-0.4453125 2.273437,-1.18359374 z M 27.95332,-2.7764453 c 0.375,-0.9726563 1.183594,-1.828125 1.746094,-1.828125 0.234375,0 0.386719,0.1757812 0.386719,0.4335937 0,0.3398438 -0.210938,0.7382813 -0.550781,1.0664063 -0.410157,0.3867187 -0.820313,0.5859375 -1.769532,0.8203125 z m 7.066407,1.6054687 c -0.609375,0.65625004 -1.042969,0.90234379 -1.582032,0.90234379 -0.621093,0 -0.996093,-0.46875 -0.996093,-1.26562499 0,-0.9257813 0.386718,-1.921875 0.996093,-2.5546875 0.328125,-0.328125 0.761719,-0.5273438 1.207032,-0.5273438 0.246093,0 0.398437,0.082031 0.398437,0.2109375 0,0.058594 -0.01172,0.1171875 -0.05859,0.2109375 -0.08203,0.140625 -0.105468,0.2109375 -0.105468,0.3164063 0,0.2695312 0.164062,0.421875 0.433593,0.421875 0.304688,0 0.527344,-0.2109375 0.527344,-0.5039063 0,-0.515625 -0.480469,-0.890625 -1.160156,-0.890625 -1.640625,0 -3.1875,1.6054688 -3.1875,3.3164063 0,1.05468749 0.597656,1.65234374 1.617187,1.65234374 0.832032,0 1.40625,-0.328125 2.085938,-1.17187504 z m 2.730468,33.4306636 c -1.722656,0 -3.398437,2.507813 -3.398437,5.097657 0,1.453125 0.703125,2.425781 1.769531,2.425781 0.480469,0 0.9375,-0.175781 1.394531,-0.515625 1.113282,-0.808594 1.957032,-2.636719 1.957032,-4.21875 0,-1.746094 -0.65625,-2.789063 -1.722657,-2.789063 z m -0.05859,0.316407 c 0.574218,0 0.914062,0.503906 0.914062,1.382812 0,1.476563 -0.445312,3.292969 -1.078125,4.40625 -0.410156,0.726563 -0.867187,1.101563 -1.371094,1.101563 -0.585937,0 -0.9375,-0.550782 -0.9375,-1.476563 0,-1.183594 0.5625,-3.351562 1.136719,-4.371094 0.410156,-0.703125 0.820313,-1.042968 1.335938,-1.042968 z m 2.709961,6.023437 c -0.328125,0 -0.609375,0.28125 -0.609375,0.632813 0,0.316406 0.28125,0.585937 0.585937,0.585937 0.351563,0 0.644531,-0.257812 0.644531,-0.585937 0,-0.339844 -0.292968,-0.632813 -0.621093,-0.632813 z m 6.254882,-0.433594 C 46.398636,38.705 46.17598,38.845625 45.566605,38.869062 h -2.097657 v -0.05859 l 2.121094,-2.109375 c 1.277344,-1.289063 1.628906,-1.839844 1.628906,-2.578125 0,-1.042969 -0.773437,-1.863282 -1.78125,-1.863282 -0.386718,0 -0.796875,0.105469 -1.125,0.292969 -0.5625,0.304688 -0.867187,0.679688 -1.183593,1.464844 l 0.234375,0.08203 c 0.410156,-0.714844 0.878906,-1.03125 1.535156,-1.03125 0.796875,0 1.382812,0.574219 1.382812,1.335938 0,0.234375 -0.03516,0.445312 -0.105468,0.585937 -0.257813,0.597656 -0.773438,1.289063 -1.488282,2.0625 l -2.308593,2.460938 v 0.1875 h 3.914062 l 0.550781,-1.453125 z M 50.3625,33.150312 h 2.53125 l 0.257813,-0.773437 h -2.8125 L 49.190625,34.7675 v 0.164062 c 1.066406,0.234375 1.429688,0.363282 1.828125,0.691407 0.351563,0.28125 0.585938,0.832031 0.585938,1.417968 0,1.195313 -0.890625,2.273438 -1.886719,2.273438 -0.234375,0 -0.433594,-0.08203 -0.75,-0.316406 C 48.698438,38.787031 48.534375,38.705 48.358594,38.705 c -0.257813,0 -0.445313,0.1875 -0.445313,0.445312 0,0.398438 0.433594,0.632813 1.171875,0.632813 1.816407,0 3.269532,-1.417969 3.269532,-3.164063 0,-0.679687 -0.246094,-1.265625 -0.726563,-1.710937 -0.410156,-0.386719 -0.796875,-0.5625 -1.6875,-0.785156 z m 6.035156,4.945313 -0.222656,1.746094 h 0.175781 c 0.09375,-0.1875 0.140625,-0.234375 0.269532,-0.234375 0.117187,0 0.316406,0.04687 0.539062,0.105468 0.246094,0.08203 0.410156,0.105469 0.597656,0.105469 0.925782,0 1.582032,-0.585937 1.582032,-1.429687 0,-0.421875 -0.222657,-0.902344 -0.738282,-1.535157 -0.421875,-0.515625 -0.597656,-0.855468 -0.597656,-1.171875 0,-0.363281 0.234375,-0.585937 0.609375,-0.585937 0.574219,0 0.902344,0.410156 1.019531,1.265625 h 0.175782 l 0.222656,-1.523438 h -0.152344 c -0.105469,0.152344 -0.175781,0.199219 -0.339844,0.199219 -0.08203,0 -0.1875,-0.02344 -0.386718,-0.08203 -0.28125,-0.08203 -0.433594,-0.105469 -0.621094,-0.105469 -0.820313,0 -1.335938,0.46875 -1.335938,1.207031 0,0.351563 0.234375,0.832032 0.703125,1.417969 0.421875,0.5625 0.609375,0.949219 0.609375,1.265625 0,0.515625 -0.328125,0.855469 -0.808593,0.855469 -0.621094,0 -0.949219,-0.457031 -1.125,-1.5 z m 7.819336,0.410156 c -0.785156,0.644531 -1.136719,0.820313 -1.617187,0.820313 -0.609375,0 -1.019532,-0.398438 -1.019532,-0.996094 0,-0.164063 0.02344,-0.328125 0.105469,-0.679688 l 0.304688,-0.03516 c 1.652343,-0.234375 2.824218,-1.066406 2.824218,-2.015625 0,-0.46875 -0.328125,-0.75 -0.878906,-0.75 -1.582031,0 -3.316406,1.804688 -3.316406,3.46875 0,0.890625 0.597656,1.5 1.453125,1.5 0.785156,0 1.628906,-0.445312 2.273437,-1.183594 z M 61.955273,36.92375 c 0.375,-0.972656 1.183594,-1.828125 1.746094,-1.828125 0.234375,0 0.386719,0.175781 0.386719,0.433594 0,0.339843 -0.210938,0.738281 -0.550781,1.066406 -0.410157,0.386719 -0.820313,0.585937 -1.769532,0.820312 z m 7.063477,1.605469 c -0.609375,0.65625 -1.042969,0.902343 -1.582031,0.902343 -0.621094,0 -0.996094,-0.46875 -0.996094,-1.265625 0,-0.925781 0.386719,-1.921875 0.996094,-2.554687 0.328125,-0.328125 0.761719,-0.527344 1.207031,-0.527344 0.246094,0 0.398438,0.08203 0.398438,0.210938 0,0.05859 -0.01172,0.117187 -0.05859,0.210937 -0.08203,0.140625 -0.105469,0.210938 -0.105469,0.316406 0,0.269532 0.164063,0.421875 0.433594,0.421875 0.304687,0 0.527344,-0.210937 0.527344,-0.503906 0,-0.515625 -0.480469,-0.890625 -1.160157,-0.890625 -1.640625,0 -3.1875,1.605469 -3.1875,3.316406 0,1.054688 0.597657,1.652344 1.617188,1.652344 0.832031,0 1.40625,-0.328125 2.085937,-1.171875 z m 0,0"
       style="fill:#231f20;fill-opacity:1;fill-rule:nonzero;stroke:none"
       aria-label="0.15 sec&#10;0.25 sec"
       transform="matrix(1.3333333,0,0,1.3333333,99.1,49.393333)" />
    <path
       id="path14"
       d="m 729.25,855.25 c -14.551,-92.102 -60.418,-62.395 -120,-80"
       style="fill:none;stroke:#231f20;stroke-width:2.5;stroke-linecap:butt;stroke-linejoin:miter;stroke-miterlimit:3.8637;stroke-dasharray:none;stroke-opacity:1"
       transform="matrix(0.13333333,0,0,-0.13333333,0,166.49333)" />
    <path
       id="path15"
       d="m 609.25,775.25 14,-11 -42,3 34,26 -6,-18"
       style="fill:#231f20;fill-opacity:1;fill-rule:evenodd;stroke:none"
       transform="matrix(0.13333333,0,0,-0.13333333,0,166.49333)" />
    <path
       id="path16"
       d="m 1044.25,505.25 c -99.555,0.406 -120.801,-32.102 -185,-80 -24.551,-18.352 -39.555,-28.348 -60,-45 -45.805,-37.098 -53.301,-64.598 -65,-125"
       style="fill:none;stroke:#231f20;stroke-width:2.5;stroke-linecap:butt;stroke-linejoin:miter;stroke-miterlimit:3.8637;stroke-dasharray:none;stroke-opacity:1"
       transform="matrix(0.13333333,0,0,-0.13333333,0,166.49333)" />
    <path
       id="path17"
       d="m 734.25,255.25 17,7 -22,-36 -7,42 12,-13"
       style="fill:#231f20;fill-opacity:1;fill-rule:evenodd;stroke:none"
       transform="matrix(0.13333333,0,0,-0.13333333,0,166.49333)" />
    <path
       id="path18"
       d="M 2.8017578,-4.9576953 H 1.7001953 v -1.265625 c 0,-0.1171875 -0.023437,-0.1523438 -0.082031,-0.1523438 -0.63281254,0.9257813 -0.97265629,1.3007813 -1.28906254,1.4882813 -0.1171875,0.082031 -0.1875,0.140625 -0.1875,0.2109375 0,0.035156 0.0117188,0.058594 0.046875,0.070312 h 0.5859375 v 3.3164062 c 0,0.92578129 0.32812504,1.39453129 0.97265624,1.39453129 0.5390625,0 0.9609375,-0.2578125 1.3242188,-0.83203125 l -0.140625,-0.1171875 c -0.2460938,0.28125 -0.421875,0.38671875 -0.6679688,0.38671875 -0.3984375,0 -0.5625,-0.3046875 -0.5625,-0.99609379 V -4.6061328 H 2.8017578 Z M 3.2324219,-6.640625e-4 H 5.8457031 V -0.16472656 C 5.1191406,-0.22332031 5.0371094,-0.31707031 5.0253906,-1.1256641 v -3.9023437 l -0.046875,-0.035156 -1.6992187,0.609375 v 0.1640625 l 0.082031,-0.011719 c 0.140625,-0.023437 0.2695313,-0.035156 0.375,-0.035156 0.2695313,0 0.3632813,0.1757813 0.3632813,0.65625 v 2.5546875 c -0.023437,0.82031254 -0.1171875,0.92578129 -0.8671875,0.96093754 z M 4.4628906,-7.5123828 c -0.2929687,0 -0.5507812,0.2460937 -0.5507812,0.5625 0,0.3164062 0.2460937,0.5507812 0.5507812,0.5507812 0.328125,0 0.5742188,-0.234375 0.5742188,-0.5507812 0,-0.328125 -0.2578125,-0.5625 -0.5742188,-0.5625 z m 1.828125,7.5117187375 h 2.4375 V -0.16472656 C 8.1777344,-0.17644531 8.0019531,-0.29363281 7.9902344,-0.73894531 V -3.8444141 c 0,-0.023437 0.082031,-0.1289062 0.1640625,-0.2109375 0.2695312,-0.2460937 0.75,-0.4335937 1.125,-0.4335937 0.4921875,0 0.7265621,0.3867187 0.7265621,1.1484375 v 2.39062499 c -0.011718,0.6328125 -0.1289059,0.75 -0.7382809,0.78515625 V -6.640625e-4 H 11.728516 V -0.16472656 c -0.621094,0 -0.773438,-0.17578125 -0.796875,-0.87890624 v -2.7773438 c 0.328125,-0.46875 0.679687,-0.6679687 1.207031,-0.6679687 0.621094,0 0.820312,0.2929687 0.820312,1.2070312 v 2.32031254 c -0.02344,0.65625 -0.08203,0.7265625 -0.726562,0.796875 v 0.1640624975 h 2.414062 V -0.16472656 l -0.292968,-0.0234375 c -0.351563,-0.0585938 -0.46875,-0.22265625 -0.46875,-0.64453125 V -3.1061328 c 0,-1.3007813 -0.433594,-1.9570313 -1.277344,-1.9570313 -0.632813,0 -1.195313,0.28125 -1.792969,0.9257813 -0.199219,-0.6328125 -0.574219,-0.9257813 -1.1718749,-0.9257813 -0.4921875,0 -0.7851562,0.140625 -1.6992187,0.84375 v -0.8203125 l -0.082031,-0.023437 c -0.5742187,0.2109375 -0.9492187,0.328125 -1.5351562,0.4921875 v 0.1875 c 0.1289062,-0.035156 0.234375,-0.035156 0.3515625,-0.035156 0.28125,0 0.3867187,0.1757812 0.3867187,0.703125 v 2.77734374 c -0.023437,0.62109375 -0.1640625,0.7734375 -0.7734375,0.7734375 z M 19.161133,-1.8053516 c -0.527344,0.83203129 -0.996094,1.16015629 -1.699219,1.16015629 -0.632812,0 -1.101562,-0.328125 -1.429687,-0.94921879 -0.1875,-0.421875 -0.269532,-0.7734375 -0.292969,-1.453125 h 3.386719 c -0.08203,-0.7148437 -0.199219,-1.03125 -0.46875,-1.3828125 -0.328125,-0.3984375 -0.832032,-0.6328125 -1.40625,-0.6328125 -0.550782,0 -1.066407,0.1992188 -1.488282,0.5742188 -0.515625,0.4453125 -0.820312,1.2304687 -0.820312,2.1328125 0,1.52343749 0.796875,2.46093749 2.0625,2.46093749 1.042969,0 1.875,-0.64453125 2.332031,-1.82812499 z m -3.398438,-1.59375 c 0.117188,-0.8554687 0.492188,-1.265625 1.160157,-1.265625 0.679687,0 0.9375,0.3046875 1.089843,1.265625 z m 9.791016,-4.0429687 c -0.808594,0.5390625 -1.148438,0.8203125 -1.546875,1.3242187 -0.785156,0.9609375 -1.171875,2.0625 -1.171875,3.3398438 0,1.4179687 0.410156,2.48437499 1.371094,3.59765624 0.457031,0.52734376 0.738281,0.77343746 1.3125,1.12499996 L 25.647461,1.7688672 C 24.768555,1.0774609 24.463867,0.67902344 24.170898,-0.12957031 23.901367,-0.86785156 23.78418,-1.6998828 23.78418,-2.8014453 c 0,-1.1601563 0.140625,-2.0742188 0.433593,-2.7421875 0.316407,-0.6796875 0.644532,-1.078125 1.429688,-1.7226563 z m 3.884766,3.984375 -0.04687,-1.5 h -0.117188 c -0.05859,0.082031 -0.117187,0.1171875 -0.175781,0.1171875 -0.07031,0 -0.175781,-0.023437 -0.304688,-0.082031 -0.246093,-0.082031 -0.503906,-0.140625 -0.761718,-0.140625 -0.878907,0 -1.5,0.5742188 -1.5,1.359375 0,0.6210938 0.351562,1.0664063 1.289062,1.59375 l 0.632813,0.3632813 c 0.386718,0.2109375 0.574218,0.4804687 0.574218,0.82031249 0,0.48046875 -0.351562,0.796875 -0.914062,0.796875 -0.761719,0 -1.148438,-0.421875 -1.394531,-1.54687499 H 26.54395 v 1.72265624 h 0.140625 c 0.08203,-0.1171875 0.117188,-0.140625 0.257813,-0.140625 0.117187,0 0.246094,0.0234375 0.503906,0.0937499975 0.292969,0.0703125025 0.585938,0.1054687525 0.796875,0.1054687525 0.867188,0 1.558594,-0.6328125 1.558594,-1.40624999 0,-0.5507813 -0.269531,-0.9140625 -0.925781,-1.3125 L 27.680669,-3.31707 c -0.304687,-0.1875 -0.46875,-0.4453125 -0.46875,-0.7382813 0,-0.4570312 0.339844,-0.75 0.84375,-0.75 0.632813,0 0.960938,0.3632813 1.21875,1.3476563 z m 5.299804,1.6523437 c -0.527343,0.83203129 -0.996093,1.16015629 -1.699218,1.16015629 -0.632813,0 -1.101563,-0.328125 -1.429688,-0.94921879 -0.1875,-0.421875 -0.269531,-0.7734375 -0.292969,-1.453125 h 3.386719 c -0.08203,-0.7148437 -0.199219,-1.03125 -0.46875,-1.3828125 -0.328125,-0.3984375 -0.832031,-0.6328125 -1.40625,-0.6328125 -0.550781,0 -1.066406,0.1992188 -1.488281,0.5742188 -0.515625,0.4453125 -0.820313,1.2304687 -0.820313,2.1328125 0,1.52343749 0.796875,2.46093749 2.0625,2.46093749 1.042969,0 1.875,-0.64453125 2.332032,-1.82812499 z m -3.398437,-1.59375 c 0.117187,-0.8554687 0.492187,-1.265625 1.160156,-1.265625 0.679688,0 0.9375,0.3046875 1.089844,1.265625 z m 8.176758,1.6875 c -0.527344,0.76171879 -0.925782,1.03125004 -1.558594,1.03125004 -1.007813,0 -1.699219,-0.87890624 -1.699219,-2.14453124 0,-1.1484375 0.597656,-1.921875 1.488281,-1.921875 0.398438,0 0.539063,0.1171875 0.65625,0.5273437 l 0.07031,0.2460938 c 0.08203,0.3164062 0.28125,0.5039062 0.527344,0.5039062 0.28125,0 0.515625,-0.2109375 0.515625,-0.4570312 0,-0.6210938 -0.773438,-1.1367188 -1.699219,-1.1367188 -0.539063,0 -1.101563,0.2226563 -1.546875,0.6210938 -0.550781,0.4804687 -0.867188,1.2304687 -0.867188,2.109375 0,1.41796874 0.878907,2.43749999 2.097657,2.43749999 0.492187,0 0.9375,-0.17578125 1.335937,-0.515625 0.292969,-0.24609375 0.503906,-0.5625 0.832031,-1.20703129 z m 0.922851,3.65625 c 0.808594,-0.5390625 1.136719,-0.8085937 1.546875,-1.31249996 0.785156,-0.9609375 1.171875,-2.06250004 1.171875,-3.35156254 0,-1.40625 -0.410156,-2.4726562 -1.382812,-3.5976562 -0.445313,-0.5273438 -0.738282,-0.7734375 -1.3125,-1.125 l -0.128907,0.1757812 c 0.878907,0.6914063 1.183594,1.078125 1.488282,1.9101563 0.269531,0.7382812 0.386718,1.5585937 0.386718,2.671875 0,1.1484375 -0.140625,2.05078124 -0.445312,2.73046874 -0.292969,0.6796875 -0.632813,1.08984376 -1.429688,1.72265626 z M -135.29785,-7.4420703 c -0.60938,0 -1.07813,0.1757812 -1.47656,0.5742187 -0.64454,0.6210938 -1.05469,1.8867188 -1.05469,3.1640625 0,1.21875 0.36328,2.4960938 0.8789,3.10546879 0.39844,0.4921875 0.96094,0.75 1.60547,0.75 0.5625,0 1.03125,-0.1875 1.42969,-0.57421875 0.63281,-0.59765624 1.05469,-1.87500004 1.05469,-3.21093754 0,-2.25 -0.9961,-3.8085937 -2.4375,-3.8085937 z m -0.0352,0.2929687 c 0.92578,0 1.41797,1.2421875 1.41797,3.5390625 0,2.296875 -0.48047,3.48046879 -1.42969,3.48046879 -0.94922,0 -1.42968,-1.18359379 -1.42968,-3.46874999 0,-2.34375 0.49218,-3.5507813 1.4414,-3.5507813 z m 4.10449,6.046875 c -0.32812,0 -0.59765,0.28125004 -0.59765,0.63281254 0,0.31640625 0.26953,0.5859375 0.58594,0.5859375 0.35156,0 0.63281,-0.2578125 0.63281,-0.5859375 0,-0.33984375 -0.28125,-0.63281254 -0.6211,-0.63281254 z m 6.60645,-0.4101562 -0.14063,-0.046875 c -0.41015,0.63281249 -0.52734,0.71484374 -1.04296,0.72656249 h -2.63672 l 1.85156,-1.94531249 c 0.98437,-1.0195313 1.40625,-1.8515625 1.40625,-2.71875 0,-1.0898438 -0.89063,-1.9453125 -2.03906,-1.9453125 -0.59766,0 -1.17188,0.2460937 -1.58203,0.6796875 -0.35157,0.375 -0.51563,0.7265625 -0.70313,1.5117187 l 0.23438,0.058594 c 0.43359,-1.078125 0.82031,-1.4296875 1.59375,-1.4296875 0.9375,0 1.54687,0.6210937 1.54687,1.546875 0,0.8671875 -0.50391,1.8867187 -1.42969,2.859375 l -1.95703,2.08593749 v 0.1289062475 h 4.28906 z M -107,-7.4420703 c -0.60937,0 -1.07812,0.1757812 -1.47656,0.5742187 -0.64453,0.6210938 -1.05469,1.8867188 -1.05469,3.1640625 0,1.21875 0.36328,2.4960938 0.87891,3.10546879 0.39843,0.4921875 0.96093,0.75 1.60547,0.75 0.5625,0 1.03125,-0.1875 1.42968,-0.57421875 0.63282,-0.59765624 1.05469,-1.87500004 1.05469,-3.21093754 0,-2.25 -0.99609,-3.8085937 -2.4375,-3.8085937 z m -0.0352,0.2929687 c 0.92579,0 1.41797,1.2421875 1.41797,3.5390625 0,2.296875 -0.48047,3.48046879 -1.42968,3.48046879 -0.94922,0 -1.42969,-1.18359379 -1.42969,-3.46874999 0,-2.34375 0.49219,-3.5507813 1.4414,-3.5507813 z m 4.10743,6.046875 c -0.32813,0 -0.59766,0.28125004 -0.59766,0.63281254 0,0.31640625 0.26953,0.5859375 0.58594,0.5859375 0.35156,0 0.63281,-0.2578125 0.63281,-0.5859375 0,-0.33984375 -0.28125,-0.63281254 -0.62109,-0.63281254 z m 6.568355,-1.4414062 h -1.125 v -4.8984375 h -0.480469 l -3.457026,4.8984375 v 0.703125 h 3.093745 v 1.8398437375 h 0.84375 V -1.8405078 h 1.125 z m -1.980469,0 h -2.636716 l 2.636716,-3.7734375 z m 19.740235,-4.8984375 c -0.609375,0 -1.078125,0.1757812 -1.476563,0.5742187 -0.644531,0.6210938 -1.054687,1.8867188 -1.054687,3.1640625 0,1.21875 0.363281,2.4960938 0.878906,3.10546879 0.398437,0.4921875 0.960937,0.75 1.605469,0.75 0.5625,0 1.03125,-0.1875 1.429687,-0.57421875 0.632813,-0.59765624 1.054688,-1.87500004 1.054688,-3.21093754 0,-2.25 -0.996094,-3.8085937 -2.4375,-3.8085937 z m -0.03516,0.2929687 c 0.925782,0 1.417969,1.2421875 1.417969,3.5390625 0,2.296875 -0.480469,3.48046879 -1.429687,3.48046879 -0.949219,0 -1.429688,-1.18359379 -1.429688,-3.46874999 0,-2.34375 0.492188,-3.5507813 1.441406,-3.5507813 z m 4.107422,6.046875 c -0.328125,0 -0.597656,0.28125004 -0.597656,0.63281254 0,0.31640625 0.269531,0.5859375 0.585938,0.5859375 0.351562,0 0.632812,-0.2578125 0.632812,-0.5859375 0,-0.33984375 -0.28125,-0.63281254 -0.621094,-0.63281254 z m 6.28711,-6.421875 c -1.253907,0.1054688 -1.898438,0.3164063 -2.695313,0.8789063 -1.195312,0.84375 -1.839844,2.0976562 -1.839844,3.5742187 0,0.9609375 0.292969,1.921875 0.773438,2.47265629 0.410156,0.4921875 1.007812,0.75 1.6875,0.75 1.371094,0 2.308594,-1.04296875 2.308594,-2.56640629 0,-1.4179687 -0.785157,-2.296875 -2.074219,-2.296875 -0.480469,0 -0.703125,0.082031 -1.394531,0.4921875 0.292968,-1.6523437 1.523437,-2.8476562 3.257812,-3.1289062 z m -2.25,3.3164063 c 0.960937,0 1.5,0.796875 1.5,2.1679687 0,1.21875004 -0.433594,1.88671879 -1.195313,1.88671879 -0.972656,0 -1.570312,-1.03124999 -1.570312,-2.74218749 0,-0.5625 0.09375,-0.8671875 0.316406,-1.03125 0.222656,-0.1757813 0.5625,-0.28125 0.949219,-0.28125 z m 20.191406,-3.234375 c -0.609375,0 -1.078125,0.1757812 -1.476563,0.5742187 -0.644531,0.6210938 -1.054687,1.8867188 -1.054687,3.1640625 0,1.21875 0.363281,2.4960938 0.878906,3.10546879 0.398438,0.4921875 0.960938,0.75 1.605469,0.75 0.5625,0 1.03125,-0.1875 1.429687,-0.57421875 0.632813,-0.59765624 1.054688,-1.87500004 1.054688,-3.21093754 0,-2.25 -0.996094,-3.8085937 -2.4375,-3.8085937 z m -0.03516,0.2929687 c 0.925781,0 1.417968,1.2421875 1.417968,3.5390625 0,2.296875 -0.480468,3.48046879 -1.429687,3.48046879 -0.949219,0 -1.429688,-1.18359379 -1.429688,-3.46874999 0,-2.34375 0.492188,-3.5507813 1.441407,-3.5507813 z m 4.104492,6.046875 c -0.328125,0 -0.597656,0.28125004 -0.597656,0.63281254 0,0.31640625 0.269531,0.5859375 0.585937,0.5859375 0.351563,0 0.632813,-0.2578125 0.632813,-0.5859375 0,-0.33984375 -0.28125,-0.63281254 -0.621094,-0.63281254 z m 4.567383,-2.9765625 c 1.101562,-0.5976562 1.476562,-1.0546875 1.476562,-1.7929687 0,-0.9140625 -0.785156,-1.5703125 -1.886719,-1.5703125 -1.207031,0 -2.097656,0.7382812 -2.097656,1.7460937 0,0.7148438 0.210938,1.03125 1.371094,2.0390625 -1.207031,0.9140625 -1.429688,1.2304688 -1.429688,1.9921875 0,1.07812504 0.855469,1.81640629 2.109375,1.81640629 1.324219,0 2.167969,-0.7265625 2.167969,-1.86328129 0,-0.84375 -0.375,-1.3710937 -1.710937,-2.3671875 z m -0.199219,1.125 c 0.808594,0.5742188 1.066406,0.9726563 1.066406,1.59375 0,0.71484379 -0.492187,1.20703129 -1.207031,1.20703129 -0.832031,0 -1.394531,-0.64453125 -1.394531,-1.58203129 0,-0.7148437 0.234375,-1.171875 0.878906,-1.6992187 z m -0.117188,-1.3242187 c -0.972656,-0.6445313 -1.371093,-1.1484375 -1.371093,-1.7695313 0,-0.6328125 0.492187,-1.078125 1.183593,-1.078125 0.75,0 1.21875,0.4804688 1.21875,1.2421875 0,0.6679688 -0.28125,1.1015625 -1.03125,1.6054688 z m 18.580079,4.2773437375 h 3.035156 V -0.16472656 c -0.84375,0 -1.03125,-0.1171875 -1.042969,-0.64453125 V -7.4186328 l -0.09375,-0.023437 -1.980469,1.0078125 v 0.1523437 c 0.433594,-0.1640625 0.691407,-0.2460937 0.796875,-0.2460937 0.234375,0 0.328125,0.1640625 0.328125,0.515625 v 4.9921875 c -0.02344,0.69140624 -0.210937,0.84374999 -1.042968,0.85546874 z M -17.829102,-1.1022266 c -0.328125,0 -0.597656,0.28125004 -0.597656,0.63281254 0,0.31640625 0.269531,0.5859375 0.585938,0.5859375 0.351562,0 0.632812,-0.2578125 0.632812,-0.5859375 0,-0.33984375 -0.28125,-0.63281254 -0.621094,-0.63281254 z m 4.180665,-6.3398437 c -0.609375,0 -1.078125,0.1757812 -1.476563,0.5742187 -0.644531,0.6210938 -1.054687,1.8867188 -1.054687,3.1640625 0,1.21875 0.363281,2.4960938 0.878906,3.10546879 0.398437,0.4921875 0.960937,0.75 1.605469,0.75 0.5625,0 1.03125,-0.1875 1.429687,-0.57421875 0.632813,-0.59765624 1.054688,-1.87500004 1.054688,-3.21093754 0,-2.25 -0.996094,-3.8085937 -2.4375,-3.8085937 z m -0.03516,0.2929687 c 0.925782,0 1.417969,1.2421875 1.417969,3.5390625 0,2.296875 -0.480469,3.48046879 -1.429687,3.48046879 -0.949219,0 -1.429688,-1.18359379 -1.429688,-3.46874999 0,-2.34375 0.492188,-3.5507813 1.441406,-3.5507813 z M -182.9082,-46.310234 h 2.15625 c 0.1875,0 0.22265,-0.01172 0.25781,-0.105469 l 0.41016,-0.972656 -0.0937,-0.08203 c -0.16407,0.222657 -0.26954,0.28125 -0.50391,0.28125 h -2.30859 l -1.19532,2.613282 c -0.0117,0.02344 -0.0117,0.03516 -0.0117,0.05859 0,0.05859 0.0469,0.08203 0.12891,0.08203 0.35156,0 0.78516,0.08203 1.24219,0.222656 1.26562,0.410156 1.83984,1.078125 1.83984,2.179687 0,1.054688 -0.65625,1.875 -1.52344,1.875 -0.22265,0 -0.39843,-0.07031 -0.72656,-0.316406 -0.35156,-0.257812 -0.59765,-0.363281 -0.85547,-0.363281 -0.30468,0 -0.45703,0.128906 -0.45703,0.410156 0,0.421875 0.50391,0.679688 1.34766,0.679688 0.91406,0 1.69922,-0.292969 2.26172,-0.855469 0.49218,-0.492188 0.72656,-1.125 0.72656,-1.957031 0,-0.796875 -0.21094,-1.300782 -0.75,-1.851563 -0.48047,-0.480469 -1.11328,-0.738281 -2.40234,-0.972656 z m 6.30761,-1.03125 c -0.60937,0 -1.07812,0.175781 -1.47656,0.574218 -0.64453,0.621094 -1.05469,1.886719 -1.05469,3.164063 0,1.21875 0.36329,2.496094 0.87891,3.105469 0.39844,0.492187 0.96094,0.75 1.60547,0.75 0.5625,0 1.03125,-0.1875 1.42969,-0.574219 0.63281,-0.597656 1.05468,-1.875 1.05468,-3.210938 0,-2.25 -0.99609,-3.808593 -2.4375,-3.808593 z m -0.0351,0.292968 c 0.92578,0 1.41797,1.242188 1.41797,3.539063 0,2.296875 -0.48047,3.480469 -1.42969,3.480469 -0.94922,0 -1.42969,-1.183594 -1.42969,-3.46875 0,-2.34375 0.49219,-3.550782 1.44141,-3.550782 z m 5.53711,-0.292968 c -0.60938,0 -1.07813,0.175781 -1.47657,0.574218 -0.64453,0.621094 -1.05468,1.886719 -1.05468,3.164063 0,1.21875 0.36328,2.496094 0.8789,3.105469 0.39844,0.492187 0.96094,0.75 1.60547,0.75 0.5625,0 1.03125,-0.1875 1.42969,-0.574219 0.63281,-0.597656 1.05469,-1.875 1.05469,-3.210938 0,-2.25 -0.9961,-3.808593 -2.4375,-3.808593 z m -0.0352,0.292968 c 0.92578,0 1.41797,1.242188 1.41797,3.539063 0,2.296875 -0.48047,3.480469 -1.42969,3.480469 -0.94922,0 -1.42969,-1.183594 -1.42969,-3.46875 0,-2.34375 0.49219,-3.550782 1.44141,-3.550782 z m -17.76562,-21.152343 h 3.03515 v -0.164063 c -0.84375,0 -1.03125,-0.117187 -1.04297,-0.644531 v -6.609375 l -0.0937,-0.02344 -1.98047,1.007813 v 0.152344 c 0.4336,-0.164063 0.69141,-0.246094 0.79688,-0.246094 0.23437,0 0.32812,0.164062 0.32812,0.515625 v 4.992187 c -0.0234,0.691407 -0.21093,0.84375 -1.04296,0.855469 z m 6.99902,-7.441407 c -0.60938,0 -1.07813,0.175782 -1.47656,0.574219 -0.64453,0.621094 -1.05469,1.886719 -1.05469,3.164063 0,1.21875 0.36328,2.496093 0.87891,3.105468 0.39843,0.492188 0.96093,0.75 1.60546,0.75 0.5625,0 1.03125,-0.1875 1.42969,-0.574218 0.63281,-0.597657 1.05469,-1.875 1.05469,-3.210938 0,-2.25 -0.99609,-3.808594 -2.4375,-3.808594 z m -0.0352,0.292969 c 0.92578,0 1.41797,1.242188 1.41797,3.539063 0,2.296875 -0.48047,3.480468 -1.42969,3.480468 -0.94921,0 -1.42968,-1.183593 -1.42968,-3.46875 0,-2.34375 0.49218,-3.550781 1.4414,-3.550781 z m 5.53711,-0.292969 c -0.60937,0 -1.07812,0.175782 -1.47656,0.574219 -0.64453,0.621094 -1.05469,1.886719 -1.05469,3.164063 0,1.21875 0.36328,2.496093 0.87891,3.105468 0.39844,0.492188 0.96094,0.75 1.60547,0.75 0.5625,0 1.03125,-0.1875 1.42969,-0.574218 0.63281,-0.597657 1.05468,-1.875 1.05468,-3.210938 0,-2.25 -0.99609,-3.808594 -2.4375,-3.808594 z m -0.0352,0.292969 c 0.92578,0 1.41797,1.242188 1.41797,3.539063 0,2.296875 -0.48047,3.480468 -1.42969,3.480468 -0.94922,0 -1.42969,-1.183593 -1.42969,-3.46875 0,-2.34375 0.49219,-3.550781 1.44141,-3.550781 z m 5.53418,-0.292969 c -0.60938,0 -1.07813,0.175782 -1.47657,0.574219 -0.64453,0.621094 -1.05468,1.886719 -1.05468,3.164063 0,1.21875 0.36328,2.496093 0.8789,3.105468 0.39844,0.492188 0.96094,0.75 1.60547,0.75 0.5625,0 1.03125,-0.1875 1.42969,-0.574218 0.63281,-0.597657 1.05469,-1.875 1.05469,-3.210938 0,-2.25 -0.9961,-3.808594 -2.4375,-3.808594 z m -0.0352,0.292969 c 0.92578,0 1.41797,1.242188 1.41797,3.539063 0,2.296875 -0.48047,3.480468 -1.42969,3.480468 -0.94922,0 -1.42969,-1.183593 -1.42969,-3.46875 0,-2.34375 0.49219,-3.550781 1.44141,-3.550781 z m 0,0"
       style="fill:#231f20;fill-opacity:1;fill-rule:nonzero;stroke:none"
       aria-label="time (sec)0.20.40.60.81.0&#10;500&#10;1000"
       transform="matrix(1.3333333,0,0,1.3333333,260.16667,159.92667)" />
  </g>
</svg>
