<?xml version="1.0" encoding="UTF-8" standalone="no"?>
<!-- Created with Inkscape (http://www.inkscape.org/) -->

<svg
   version="1.1"
   id="svg1"
   width="270.66666"
   height="190.66667"
   viewBox="0 0 270.66666 190.66667"
   sodipodi:docname="exn2f1.eps"
   xmlns:inkscape="http://www.inkscape.org/namespaces/inkscape"
   xmlns:sodipodi="http://sodipodi.sourceforge.net/DTD/sodipodi-0.dtd"
   xmlns="http://www.w3.org/2000/svg"
   xmlns:svg="http://www.w3.org/2000/svg">
  <defs
     id="defs1" />
  <sodipodi:namedview
     id="namedview1"
     pagecolor="#ffffff"
     bordercolor="#000000"
     borderopacity="0.25"
     inkscape:showpageshadow="2"
     inkscape:pageopacity="0.0"
     inkscape:pagecheckerboard="0"
     inkscape:deskcolor="#d1d1d1">
    <inkscape:page
       x="0"
       y="0"
       inkscape:label="1"
       id="page1"
       width="270.66666"
       height="190.66667"
       margin="0"
       bleed="0" />
  </sodipodi:namedview>
  <g
     id="g1"
     inkscape:groupmode="layer"
     inkscape:label="1">
    <path
       id="path1"
       d="m 1681.6,1245.19 v -89.56 H 185.176 v 89.56 H 1681.6"
       style="fill:#f4f4f4;fill-opacity:1;fill-rule:nonzero;stroke:none"
       transform="matrix(0.13333333,0,0,-0.13333333,0,190.66667)" />
    <path
       id="path2"
       d="m 1681.6,1245.19 v -89.56 H 185.176 v 89.56 z"
       style="fill:none;stroke:#231f20;stroke-width:6.107;stroke-linecap:butt;stroke-linejoin:miter;stroke-miterlimit:3.86369;stroke-dasharray:none;stroke-opacity:1"
       transform="matrix(0.13333333,0,0,-0.13333333,0,190.66667)" />
    <path
       id="path3"
       d="m 1681.5,1244.06 v -14.93 H 187.465 v 14.93 H 1681.5"
       style="fill:#e9e9e9;fill-opacity:1;fill-rule:nonzero;stroke:none"
       transform="matrix(0.13333333,0,0,-0.13333333,0,190.66667)" />
    <path
       id="path4"
       d="m 1681.5,1244.06 v -14.93 H 187.465 v 14.93 z"
       style="fill:none;stroke:#231f20;stroke-width:6.107;stroke-linecap:butt;stroke-linejoin:miter;stroke-miterlimit:3.86369;stroke-dasharray:none;stroke-opacity:1"
       transform="matrix(0.13333333,0,0,-0.13333333,0,190.66667)" />
    <path
       id="path5"
       d="m 1679.61,1170.97 v -14.93 H 185.582 v 14.93 H 1679.61"
       style="fill:#e9e9e9;fill-opacity:1;fill-rule:nonzero;stroke:none"
       transform="matrix(0.13333333,0,0,-0.13333333,0,190.66667)" />
    <path
       id="path6"
       d="m 1679.61,1170.97 v -14.93 H 185.582 v 14.93 z"
       style="fill:none;stroke:#231f20;stroke-width:6.107;stroke-linecap:butt;stroke-linejoin:miter;stroke-miterlimit:3.86369;stroke-dasharray:none;stroke-opacity:1"
       transform="matrix(0.13333333,0,0,-0.13333333,0,190.66667)" />
    <path
       id="path7"
       d="M 115,252.5 H 360"
       style="fill:none;stroke:#231f20;stroke-width:5;stroke-linecap:butt;stroke-linejoin:miter;stroke-miterlimit:3.86369;stroke-dasharray:none;stroke-opacity:1"
       transform="matrix(0.13333333,0,0,-0.13333333,0,190.66667)" />
    <path
       id="path8"
       d="m 116.875,253.75 -37.5,-57.5"
       style="fill:none;stroke:#231f20;stroke-width:5;stroke-linecap:butt;stroke-linejoin:miter;stroke-miterlimit:3.86369;stroke-dasharray:none;stroke-opacity:1"
       transform="matrix(0.13333333,0,0,-0.13333333,0,190.66667)" />
    <path
       id="path9"
       d="m 151.207,253.484 -37.5,-57.5"
       style="fill:none;stroke:#231f20;stroke-width:5;stroke-linecap:butt;stroke-linejoin:miter;stroke-miterlimit:3.86369;stroke-dasharray:none;stroke-opacity:1"
       transform="matrix(0.13333333,0,0,-0.13333333,0,190.66667)" />
    <path
       id="path10"
       d="m 185.539,253.219 -37.5,-57.5"
       style="fill:none;stroke:#231f20;stroke-width:5;stroke-linecap:butt;stroke-linejoin:miter;stroke-miterlimit:3.86369;stroke-dasharray:none;stroke-opacity:1"
       transform="matrix(0.13333333,0,0,-0.13333333,0,190.66667)" />
    <path
       id="path11"
       d="m 219.871,252.953 -37.5,-57.5"
       style="fill:none;stroke:#231f20;stroke-width:5;stroke-linecap:butt;stroke-linejoin:miter;stroke-miterlimit:3.86369;stroke-dasharray:none;stroke-opacity:1"
       transform="matrix(0.13333333,0,0,-0.13333333,0,190.66667)" />
    <path
       id="path12"
       d="m 254.203,252.688 -37.5,-57.5"
       style="fill:none;stroke:#231f20;stroke-width:5;stroke-linecap:butt;stroke-linejoin:miter;stroke-miterlimit:3.86369;stroke-dasharray:none;stroke-opacity:1"
       transform="matrix(0.13333333,0,0,-0.13333333,0,190.66667)" />
    <path
       id="path13"
       d="m 288.531,252.422 -37.5,-57.5"
       style="fill:none;stroke:#231f20;stroke-width:5;stroke-linecap:butt;stroke-linejoin:miter;stroke-miterlimit:3.86369;stroke-dasharray:none;stroke-opacity:1"
       transform="matrix(0.13333333,0,0,-0.13333333,0,190.66667)" />
    <path
       id="path14"
       d="m 322.863,252.152 -37.5,-57.5"
       style="fill:none;stroke:#231f20;stroke-width:5;stroke-linecap:butt;stroke-linejoin:miter;stroke-miterlimit:3.86369;stroke-dasharray:none;stroke-opacity:1"
       transform="matrix(0.13333333,0,0,-0.13333333,0,190.66667)" />
    <path
       id="path15"
       d="m 357.195,251.887 -37.5,-57.5"
       style="fill:none;stroke:#231f20;stroke-width:5;stroke-linecap:butt;stroke-linejoin:miter;stroke-miterlimit:3.86369;stroke-dasharray:none;stroke-opacity:1"
       transform="matrix(0.13333333,0,0,-0.13333333,0,190.66667)" />
    <path
       id="path16"
       d="m 1518.13,239.379 h 245"
       style="fill:none;stroke:#231f20;stroke-width:5;stroke-linecap:butt;stroke-linejoin:miter;stroke-miterlimit:3.86369;stroke-dasharray:none;stroke-opacity:1"
       transform="matrix(0.13333333,0,0,-0.13333333,0,190.66667)" />
    <path
       id="path17"
       d="m 1520.01,240.629 -37.5,-57.5"
       style="fill:none;stroke:#231f20;stroke-width:5;stroke-linecap:butt;stroke-linejoin:miter;stroke-miterlimit:3.86369;stroke-dasharray:none;stroke-opacity:1"
       transform="matrix(0.13333333,0,0,-0.13333333,0,190.66667)" />
    <path
       id="path18"
       d="m 1554.34,240.363 -37.5,-57.5"
       style="fill:none;stroke:#231f20;stroke-width:5;stroke-linecap:butt;stroke-linejoin:miter;stroke-miterlimit:3.86369;stroke-dasharray:none;stroke-opacity:1"
       transform="matrix(0.13333333,0,0,-0.13333333,0,190.66667)" />
    <path
       id="path19"
       d="m 1588.67,240.098 -37.5,-57.5"
       style="fill:none;stroke:#231f20;stroke-width:5;stroke-linecap:butt;stroke-linejoin:miter;stroke-miterlimit:3.86369;stroke-dasharray:none;stroke-opacity:1"
       transform="matrix(0.13333333,0,0,-0.13333333,0,190.66667)" />
    <path
       id="path20"
       d="m 1623,239.828 -37.5,-57.5"
       style="fill:none;stroke:#231f20;stroke-width:5;stroke-linecap:butt;stroke-linejoin:miter;stroke-miterlimit:3.86369;stroke-dasharray:none;stroke-opacity:1"
       transform="matrix(0.13333333,0,0,-0.13333333,0,190.66667)" />
    <path
       id="path21"
       d="m 1657.33,239.563 -37.5,-57.5"
       style="fill:none;stroke:#231f20;stroke-width:5;stroke-linecap:butt;stroke-linejoin:miter;stroke-miterlimit:3.86369;stroke-dasharray:none;stroke-opacity:1"
       transform="matrix(0.13333333,0,0,-0.13333333,0,190.66667)" />
    <path
       id="path22"
       d="m 1691.66,239.297 -37.5,-57.5"
       style="fill:none;stroke:#231f20;stroke-width:5;stroke-linecap:butt;stroke-linejoin:miter;stroke-miterlimit:3.86369;stroke-dasharray:none;stroke-opacity:1"
       transform="matrix(0.13333333,0,0,-0.13333333,0,190.66667)" />
    <path
       id="path23"
       d="m 1726,239.027 -37.5,-57.5"
       style="fill:none;stroke:#231f20;stroke-width:5;stroke-linecap:butt;stroke-linejoin:miter;stroke-miterlimit:3.86369;stroke-dasharray:none;stroke-opacity:1"
       transform="matrix(0.13333333,0,0,-0.13333333,0,190.66667)" />
    <path
       id="path24"
       d="m 1760.33,238.762 -37.5,-57.5"
       style="fill:none;stroke:#231f20;stroke-width:5;stroke-linecap:butt;stroke-linejoin:miter;stroke-miterlimit:3.86369;stroke-dasharray:none;stroke-opacity:1"
       transform="matrix(0.13333333,0,0,-0.13333333,0,190.66667)" />
    <path
       id="path25"
       d="M 1638.13,128.125 V 3.75"
       style="fill:none;stroke:#231f20;stroke-width:2.5;stroke-linecap:butt;stroke-linejoin:miter;stroke-miterlimit:3.86369;stroke-dasharray:none;stroke-opacity:1"
       transform="matrix(0.13333333,0,0,-0.13333333,0,190.66667)" />
    <path
       id="path26"
       d="M 225.32,128.449 V 4.07422"
       style="fill:none;stroke:#231f20;stroke-width:2.5;stroke-linecap:butt;stroke-linejoin:miter;stroke-miterlimit:3.86369;stroke-dasharray:none;stroke-opacity:1"
       transform="matrix(0.13333333,0,0,-0.13333333,0,190.66667)" />
    <path
       id="path27"
       d="M 251.875,62.5 H 1613.13"
       style="fill:none;stroke:#231f20;stroke-width:2.5;stroke-linecap:butt;stroke-linejoin:miter;stroke-miterlimit:3.86369;stroke-dasharray:none;stroke-opacity:1"
       transform="matrix(0.13333333,0,0,-0.13333333,0,190.66667)" />
    <path
       id="path28"
       d="m 252.563,55.625 -22,7.5625 22,7.5625 z"
       style="fill:#231f20;fill-opacity:1;fill-rule:nonzero;stroke:#231f20;stroke-width:2.5;stroke-linecap:butt;stroke-linejoin:miter;stroke-miterlimit:3.86369;stroke-dasharray:none;stroke-opacity:1"
       transform="matrix(0.13333333,0,0,-0.13333333,0,190.66667)" />
    <path
       id="path29"
       d="m 1612.44,69.375 22,-7.5625 -22,-7.5625 z"
       style="fill:#231f20;fill-opacity:1;fill-rule:nonzero;stroke:#231f20;stroke-width:2.5;stroke-linecap:butt;stroke-linejoin:miter;stroke-miterlimit:3.86369;stroke-dasharray:none;stroke-opacity:1"
       transform="matrix(0.13333333,0,0,-0.13333333,0,190.66667)" />
    <path
       id="path30"
       d="m 185,1247.5 h 90 V 254.668 H 185 V 1247.5"
       style="fill:#f4f4f4;fill-opacity:1;fill-rule:nonzero;stroke:none"
       transform="matrix(0.13333333,0,0,-0.13333333,0,190.66667)" />
    <path
       id="path31"
       d="m 185,1247.5 h 90 V 254.668 h -90 z"
       style="fill:none;stroke:#231f20;stroke-width:5;stroke-linecap:butt;stroke-linejoin:miter;stroke-miterlimit:3.86369;stroke-dasharray:none;stroke-opacity:1"
       transform="matrix(0.13333333,0,0,-0.13333333,0,190.66667)" />
    <path
       id="path32"
       d="m 185.625,1247.5 h 15 V 256.25 h -15 v 991.25"
       style="fill:#e9e9e9;fill-opacity:1;fill-rule:nonzero;stroke:none"
       transform="matrix(0.13333333,0,0,-0.13333333,0,190.66667)" />
    <path
       id="path33"
       d="m 185.625,1247.5 h 15 V 256.25 h -15 z"
       style="fill:none;stroke:#231f20;stroke-width:5;stroke-linecap:butt;stroke-linejoin:miter;stroke-miterlimit:3.86369;stroke-dasharray:none;stroke-opacity:1"
       transform="matrix(0.13333333,0,0,-0.13333333,0,190.66667)" />
    <path
       id="path34"
       d="m 259.07,1246.25 h 15 V 255 h -15 v 991.25"
       style="fill:#e9e9e9;fill-opacity:1;fill-rule:nonzero;stroke:none"
       transform="matrix(0.13333333,0,0,-0.13333333,0,190.66667)" />
    <path
       id="path35"
       d="m 259.07,1246.25 h 15 V 255 h -15 z"
       style="fill:none;stroke:#231f20;stroke-width:5;stroke-linecap:butt;stroke-linejoin:miter;stroke-miterlimit:3.86369;stroke-dasharray:none;stroke-opacity:1"
       transform="matrix(0.13333333,0,0,-0.13333333,0,190.66667)" />
    <path
       id="path36"
       d="m 1592.82,1245 h 90 V 252.168 h -90 V 1245"
       style="fill:#f4f4f4;fill-opacity:1;fill-rule:nonzero;stroke:none"
       transform="matrix(0.13333333,0,0,-0.13333333,0,190.66667)" />
    <path
       id="path37"
       d="m 1592.82,1245 h 90 V 252.168 h -90 z"
       style="fill:none;stroke:#231f20;stroke-width:5;stroke-linecap:butt;stroke-linejoin:miter;stroke-miterlimit:3.86369;stroke-dasharray:none;stroke-opacity:1"
       transform="matrix(0.13333333,0,0,-0.13333333,0,190.66667)" />
    <path
       id="path38"
       d="m 1593.45,1245 h 15 V 253.75 h -15 V 1245"
       style="fill:#e9e9e9;fill-opacity:1;fill-rule:nonzero;stroke:none"
       transform="matrix(0.13333333,0,0,-0.13333333,0,190.66667)" />
    <path
       id="path39"
       d="m 1593.45,1245 h 15 V 253.75 h -15 z"
       style="fill:none;stroke:#231f20;stroke-width:5;stroke-linecap:butt;stroke-linejoin:miter;stroke-miterlimit:3.86369;stroke-dasharray:none;stroke-opacity:1"
       transform="matrix(0.13333333,0,0,-0.13333333,0,190.66667)" />
    <path
       id="path40"
       d="m 1666.89,1243.75 h 15 V 252.5 h -15 v 991.25"
       style="fill:#e9e9e9;fill-opacity:1;fill-rule:nonzero;stroke:none"
       transform="matrix(0.13333333,0,0,-0.13333333,0,190.66667)" />
    <path
       id="path41"
       d="m 1666.89,1243.75 h 15 V 252.5 h -15 z"
       style="fill:none;stroke:#231f20;stroke-width:5;stroke-linecap:butt;stroke-linejoin:miter;stroke-miterlimit:3.86369;stroke-dasharray:none;stroke-opacity:1"
       transform="matrix(0.13333333,0,0,-0.13333333,0,190.66667)" />
    <path
       id="path42"
       d="m 1614.42,247.332 c 0,12.77 10.35,23.125 23.12,23.125 12.78,0 23.13,-10.355 23.13,-23.125 0,-12.769 -10.35,-23.125 -23.13,-23.125 -12.77,0 -23.12,10.356 -23.12,23.125"
       style="fill:#ffffff;fill-opacity:1;fill-rule:nonzero;stroke:none"
       transform="matrix(0.13333333,0,0,-0.13333333,0,190.66667)" />
    <path
       id="path43"
       d="m 1614.42,247.332 c 0,12.77 10.35,23.125 23.12,23.125 12.78,0 23.13,-10.355 23.13,-23.125 0,-12.769 -10.35,-23.125 -23.13,-23.125 -12.77,0 -23.12,10.356 -23.12,23.125 z"
       style="fill:none;stroke:#231f20;stroke-width:5;stroke-linecap:butt;stroke-linejoin:miter;stroke-miterlimit:3.86369;stroke-dasharray:none;stroke-opacity:1"
       transform="matrix(0.13333333,0,0,-0.13333333,0,190.66667)" />
    <path
       id="path44"
       d="m 223.918,1282.42 v 137.4"
       style="fill:none;stroke:#231f20;stroke-width:5;stroke-linecap:butt;stroke-linejoin:miter;stroke-miterlimit:3.86369;stroke-dasharray:none;stroke-opacity:1"
       transform="matrix(0.13333333,0,0,-0.13333333,0,190.66667)" />
    <path
       id="path45"
       d="m 223.918,1282.42 17.5,11.67 -17.5,-46.67 -17.5,46.67 17.5,-11.67"
       style="fill:#231f20;fill-opacity:1;fill-rule:evenodd;stroke:none"
       transform="matrix(0.13333333,0,0,-0.13333333,0,190.66667)" />
    <path
       id="path46"
       d="m 1636.57,1281.86 v 137.39"
       style="fill:none;stroke:#231f20;stroke-width:5;stroke-linecap:butt;stroke-linejoin:miter;stroke-miterlimit:3.86369;stroke-dasharray:none;stroke-opacity:1"
       transform="matrix(0.13333333,0,0,-0.13333333,0,190.66667)" />
    <path
       id="path47"
       d="m 1636.57,1281.86 17.5,11.66 -17.5,-46.66 -17.5,46.66 17.5,-11.66"
       style="fill:#231f20;fill-opacity:1;fill-rule:evenodd;stroke:none"
       transform="matrix(0.13333333,0,0,-0.13333333,0,190.66667)" />
    <path
       id="path48"
       d="M 144.875,1202.82 H 7.48047"
       style="fill:none;stroke:#231f20;stroke-width:5;stroke-linecap:butt;stroke-linejoin:miter;stroke-miterlimit:3.86369;stroke-dasharray:none;stroke-opacity:1"
       transform="matrix(0.13333333,0,0,-0.13333333,0,190.66667)" />
    <path
       id="path49"
       d="m 144.875,1202.82 -11.664,17.5 46.664,-17.5 -46.664,-17.5 11.664,17.5"
       style="fill:#231f20;fill-opacity:1;fill-rule:evenodd;stroke:none"
       transform="matrix(0.13333333,0,0,-0.13333333,0,190.66667)" />
    <g
       id="g49"
       aria-label="H&#10;A&#10;2&#10;, I&#10;2&#10;, E"
       transform="matrix(1.3333333,0,0,1.3333333,6.6666667,27)">
      <path
         id="path50"
         d="M 2.2041016,-3.3046875 H 4.9814453 L 5.4150391,-4.78125 c 0.070312,-0.28125 0.1171875,-0.515625 0.1171875,-0.6679687 0,-0.082031 -0.011719,-0.140625 -0.058594,-0.1992188 -0.035156,-0.046875 -0.09375,-0.09375 -0.1640625,-0.1171875 -0.082031,-0.035156 -0.2226562,-0.035156 -0.4453125,-0.035156 l 0.046875,-0.1640625 h 2.3789063 l -0.058594,0.1640625 c -0.1992187,0 -0.3398437,0.011719 -0.4453125,0.058594 -0.140625,0.058594 -0.2460937,0.140625 -0.3164062,0.234375 -0.09375,0.140625 -0.1992188,0.3867188 -0.2929688,0.7265625 l -1.0664062,3.703125 c -0.082031,0.26953125 -0.1289063,0.46875 -0.1289063,0.5859375 0,0.09375 0.046875,0.1640625 0.1171875,0.22265625 0.082031,0.0585938 0.2695313,0.09375 0.5507813,0.10546875 L 5.6025391,0 H 3.3173828 l 0.058594,-0.1640625 C 3.6103516,-0.17578125 3.7626953,-0.1875 3.8330078,-0.22265625 3.9501953,-0.28125 4.0439453,-0.33984375 4.0908203,-0.421875 c 0.082031,-0.1171875 0.1640625,-0.375 0.28125,-0.75 L 4.8994141,-3 H 2.1103516 l -0.5390625,1.921875 c -0.082031,0.2578125 -0.1289063,0.45703125 -0.1289063,0.5859375 0,0.09375 0.035156,0.1640625 0.1171875,0.22265625 0.070312,0.0585938 0.2578125,0.09375 0.5507813,0.10546875 L 2.0751953,0 h -2.30859374 l 0.0585938,-0.1640625 c 0.234375,-0.0117188 0.38671875,-0.0234375 0.46875,-0.0585938 0.1171875,-0.0585938 0.1875,-0.1171875 0.24609375,-0.19921875 0.0820313,-0.12890625 0.17578125,-0.375 0.29296875,-0.75000005 L 1.8642578,-4.78125 c 0.082031,-0.2929687 0.1289063,-0.515625 0.1289063,-0.6679687 0,-0.082031 -0.023437,-0.140625 -0.058594,-0.1992188 -0.035156,-0.046875 -0.09375,-0.09375 -0.1640625,-0.1171875 -0.082031,-0.035156 -0.234375,-0.035156 -0.46875,-0.035156 l 0.058594,-0.1640625 h 2.34375 l -0.035156,0.1640625 c -0.1992187,0 -0.3515625,0.011719 -0.4453125,0.058594 -0.140625,0.058594 -0.234375,0.140625 -0.2929687,0.234375 -0.09375,0.1289063 -0.1992188,0.3632813 -0.3046875,0.7265625 z m 82.0517574,31.9306645 -0.457031,4.96875 c -0.02344,0.222656 -0.03516,0.375 -0.03516,0.457031 0,0.117187 0.03516,0.199219 0.07031,0.269531 0.05859,0.08203 0.128907,0.152344 0.234375,0.1875 0.08203,0.04687 0.246094,0.05859 0.46875,0.05859 l -0.04687,0.164062 h -2.34375 l 0.04687,-0.164062 h 0.105469 c 0.1875,0 0.339844,-0.04687 0.457031,-0.128906 0.09375,-0.04687 0.152344,-0.140625 0.199219,-0.269532 0.03516,-0.09375 0.07031,-0.304687 0.09375,-0.644531 l 0.08203,-0.75 h -1.710937 l -0.609375,0.820313 c -0.128906,0.1875 -0.222656,0.316406 -0.246094,0.398437 -0.03516,0.08203 -0.05859,0.152344 -0.05859,0.222656 0,0.09375 0.03516,0.175782 0.105469,0.246094 0.08203,0.05859 0.210938,0.09375 0.386719,0.105469 l -0.04687,0.164062 h -1.769531 l 0.04687,-0.164062 c 0.222656,-0.01172 0.421875,-0.08203 0.574218,-0.210938 0.164063,-0.140625 0.421875,-0.433593 0.738282,-0.878906 l 3.5625,-4.851562 z m -0.878906,1.464843 -1.710937,2.355469 h 1.488281 z m 0,0"
         style="fill:#231f20;fill-opacity:1;fill-rule:nonzero;stroke:none" />
      <path
         id="path51"
         d="m 87.868164,36.225586 -0.269531,0.773437 h -2.34375 v -0.105468 c 0.691406,-0.632813 1.171875,-1.148438 1.453125,-1.546875 0.28125,-0.398438 0.421875,-0.761719 0.421875,-1.089844 0,-0.246094 -0.08203,-0.457031 -0.234375,-0.621094 -0.152344,-0.164062 -0.339844,-0.246094 -0.550781,-0.246094 -0.1875,0 -0.375,0.05859 -0.527344,0.175782 -0.152344,0.105468 -0.269531,0.28125 -0.339844,0.492187 h -0.117187 c 0.05859,-0.363281 0.175781,-0.632812 0.386718,-0.832031 0.199219,-0.1875 0.457032,-0.28125 0.75,-0.28125 0.328125,0 0.597657,0.105469 0.808594,0.316406 0.222656,0.199219 0.328125,0.445313 0.328125,0.726563 0,0.199218 -0.04687,0.398437 -0.140625,0.609375 -0.152344,0.304687 -0.386719,0.644531 -0.703125,0.996093 -0.492187,0.539063 -0.785156,0.855469 -0.902344,0.960938 h 1.03125 c 0.199219,0 0.351563,-0.01172 0.433594,-0.02344 0.09375,-0.02344 0.164063,-0.05859 0.222656,-0.105468 0.08203,-0.04687 0.140625,-0.105469 0.1875,-0.199219 z m 0,0"
         style="fill:#231f20;fill-opacity:1;fill-rule:nonzero;stroke:none" />
      <path
         id="path52"
         d="m 88.032227,35.71582 c 0.222656,-0.105468 0.398437,-0.222656 0.539062,-0.386718 0.105469,-0.117188 0.152344,-0.222657 0.152344,-0.328125 0,-0.05859 0,-0.09375 -0.02344,-0.140625 -0.01172,-0.03516 -0.04687,-0.07031 -0.117187,-0.152344 -0.07031,-0.07031 -0.117188,-0.117188 -0.128906,-0.140625 -0.01172,-0.04687 -0.02344,-0.105469 -0.02344,-0.164063 0,-0.128906 0.04687,-0.234375 0.128906,-0.328125 0.09375,-0.09375 0.1875,-0.140625 0.304688,-0.140625 0.128906,0 0.222656,0.04687 0.328125,0.152344 0.08203,0.09375 0.128906,0.210938 0.128906,0.363281 0,0.257813 -0.09375,0.527344 -0.304687,0.785157 -0.210938,0.269531 -0.503907,0.480468 -0.890625,0.621093 z m 6.785156,-1.148437 -0.04687,0.164062 h -2.425781 l 0.07031,-0.164062 c 0.234375,-0.01172 0.398438,-0.02344 0.480469,-0.05859 0.128906,-0.04687 0.222656,-0.117187 0.28125,-0.210937 0.09375,-0.128907 0.199219,-0.375 0.304687,-0.738282 l 1.03125,-3.597656 c 0.08203,-0.292969 0.128907,-0.527344 0.128907,-0.679687 0,-0.08203 -0.02344,-0.140625 -0.05859,-0.199219 -0.03516,-0.04687 -0.09375,-0.08203 -0.164063,-0.117188 -0.08203,-0.02344 -0.234375,-0.03516 -0.457031,-0.03516 l 0.04687,-0.164062 h 2.285156 l -0.05859,0.164062 c -0.175782,0 -0.328125,0.01172 -0.410157,0.05859 -0.140625,0.07031 -0.234375,0.164062 -0.304687,0.28125 -0.07031,0.117187 -0.164063,0.386719 -0.269531,0.785156 l -1.03125,3.597656 c -0.09375,0.304688 -0.140625,0.492188 -0.140625,0.574219 0,0.07031 0.01172,0.128906 0.05859,0.175781 0.03516,0.03516 0.09375,0.07031 0.175782,0.105469 0.08203,0.02344 0.246093,0.04687 0.503906,0.05859 z m 0,0"
         style="fill:#231f20;fill-opacity:1;fill-rule:nonzero;stroke:none" />
      <path
         id="path53"
         d="m 98.362305,36.225586 -0.269532,0.773437 h -2.34375 v -0.105468 c 0.691407,-0.632813 1.171875,-1.148438 1.453125,-1.546875 0.28125,-0.398438 0.421875,-0.761719 0.421875,-1.089844 0,-0.246094 -0.08203,-0.457031 -0.234375,-0.621094 -0.152343,-0.164062 -0.339843,-0.246094 -0.550781,-0.246094 -0.1875,0 -0.375,0.05859 -0.527344,0.175782 -0.152343,0.105468 -0.269531,0.28125 -0.339843,0.492187 h -0.117188 c 0.05859,-0.363281 0.175781,-0.632812 0.386719,-0.832031 0.199219,-0.1875 0.457031,-0.28125 0.75,-0.28125 0.328125,0 0.597656,0.105469 0.808594,0.316406 0.222656,0.199219 0.328125,0.445313 0.328125,0.726563 0,0.199218 -0.04687,0.398437 -0.140625,0.609375 -0.152344,0.304687 -0.386719,0.644531 -0.703125,0.996093 -0.492188,0.539063 -0.785157,0.855469 -0.902344,0.960938 h 1.03125 c 0.199219,0 0.351562,-0.01172 0.433594,-0.02344 0.09375,-0.02344 0.164062,-0.05859 0.222656,-0.105468 0.08203,-0.04687 0.140625,-0.105469 0.1875,-0.199219 z m 0,0"
         style="fill:#231f20;fill-opacity:1;fill-rule:nonzero;stroke:none" />
      <path
         id="path54"
         d="m 98.526367,35.71582 c 0.222656,-0.105468 0.398438,-0.222656 0.539063,-0.386718 0.105468,-0.117188 0.152343,-0.222657 0.152343,-0.328125 0,-0.05859 0,-0.09375 -0.02344,-0.140625 -0.01172,-0.03516 -0.04687,-0.07031 -0.117188,-0.152344 -0.07031,-0.07031 -0.117187,-0.117188 -0.128906,-0.140625 -0.01172,-0.04687 -0.02344,-0.105469 -0.02344,-0.164063 0,-0.128906 0.04687,-0.234375 0.128906,-0.328125 0.09375,-0.09375 0.1875,-0.140625 0.304687,-0.140625 0.128907,0 0.222657,0.04687 0.328125,0.152344 0.08203,0.09375 0.128907,0.210938 0.128907,0.363281 0,0.257813 -0.09375,0.527344 -0.304688,0.785157 -0.210937,0.269531 -0.503906,0.480468 -0.890625,0.621093 z m 7.488283,-6.632812 -0.66797,2.367187 h 0.5625 c 0.39844,0 0.69141,-0.07031 0.87891,-0.1875 0.16406,-0.117187 0.32812,-0.351562 0.45703,-0.667968 h 0.16406 l -0.62109,2.144531 h -0.17579 c 0.0586,-0.175781 0.082,-0.328125 0.082,-0.46875 0,-0.117188 -0.0234,-0.222656 -0.082,-0.292969 -0.0469,-0.08203 -0.11718,-0.140625 -0.21093,-0.175781 -0.082,-0.03516 -0.26953,-0.04687 -0.55078,-0.04687 h -0.59766 l -0.58594,2.0625 c -0.0586,0.164062 -0.0937,0.292969 -0.0937,0.386719 0,0.05859 0.0469,0.117187 0.11719,0.164062 0.0469,0.03516 0.1875,0.05859 0.38672,0.05859 h 0.55078 c 0.5625,0 1.01953,-0.105469 1.35937,-0.304688 0.35157,-0.199218 0.65625,-0.550781 0.92579,-1.054687 h 0.16406 l -0.5625,1.664062 h -4.59375 l 0.0586,-0.164062 c 0.23438,-0.01172 0.38672,-0.02344 0.46875,-0.05859 0.11719,-0.05859 0.19922,-0.117187 0.2461,-0.199219 0.082,-0.128906 0.17578,-0.375 0.28125,-0.761718 l 1.03125,-3.609375 c 0.082,-0.28125 0.1289,-0.503907 0.1289,-0.65625 0,-0.117188 -0.0352,-0.199219 -0.11719,-0.257813 -0.082,-0.05859 -0.23437,-0.09375 -0.45703,-0.09375 h -0.0937 l 0.0586,-0.164062 h 4.27734 l -0.36328,1.441406 h -0.16406 c 0.0234,-0.140625 0.0234,-0.257813 0.0234,-0.339844 0,-0.164062 -0.0352,-0.28125 -0.10546,-0.398437 -0.0937,-0.128907 -0.2461,-0.222657 -0.4336,-0.304688 -0.14062,-0.04687 -0.46875,-0.08203 -0.97265,-0.08203 z m 0,0"
         style="fill:#231f20;fill-opacity:1;fill-rule:nonzero;stroke:none" />
    </g>
    <path
       id="path55"
       d="M 953.258,975.754 C 935.527,1009.24 925,1048.56 925,1090.63 c 0,40.79 9.605,79.01 26.363,111.82"
       style="fill:none;stroke:#231f20;stroke-width:2.5;stroke-linecap:butt;stroke-linejoin:miter;stroke-miterlimit:3.86369;stroke-dasharray:none;stroke-opacity:1"
       transform="matrix(0.13333333,0,0,-0.13333333,0,190.66667)" />
    <path
       id="path56"
       d="m 941.25,1198.75 c 0,4.49 3.637,8.13 8.125,8.13 4.488,0 8.125,-3.64 8.125,-8.13 0,-4.49 -3.637,-8.12 -8.125,-8.12 -4.488,0 -8.125,3.63 -8.125,8.12"
       style="fill:#231f20;fill-opacity:1;fill-rule:nonzero;stroke:none"
       transform="matrix(0.13333333,0,0,-0.13333333,0,190.66667)" />
    <path
       id="path57"
       d="m 941.25,1198.75 c 0,4.49 3.637,8.13 8.125,8.13 4.488,0 8.125,-3.64 8.125,-8.13 0,-4.49 -3.637,-8.12 -8.125,-8.12 -4.488,0 -8.125,3.63 -8.125,8.12 z"
       style="fill:none;stroke:#231f20;stroke-width:2.5;stroke-linecap:butt;stroke-linejoin:miter;stroke-miterlimit:3.86369;stroke-dasharray:none;stroke-opacity:1"
       transform="matrix(0.13333333,0,0,-0.13333333,0,190.66667)" />
    <path
       id="path58"
       d="m 1410.08,710.754 c 33.48,17.73 72.8,28.254 114.87,28.254 40.79,0 79.01,-9.606 111.82,-26.36"
       style="fill:none;stroke:#231f20;stroke-width:2.5;stroke-linecap:butt;stroke-linejoin:miter;stroke-miterlimit:3.86369;stroke-dasharray:none;stroke-opacity:1"
       transform="matrix(0.13333333,0,0,-0.13333333,0,190.66667)" />
    <path
       id="path59"
       d="m 1624.95,714.633 c 0,4.488 3.63,8.125 8.12,8.125 4.49,0 8.13,-3.637 8.13,-8.125 0,-4.485 -3.64,-8.125 -8.13,-8.125 -4.49,0 -8.12,3.64 -8.12,8.125"
       style="fill:#231f20;fill-opacity:1;fill-rule:nonzero;stroke:none"
       transform="matrix(0.13333333,0,0,-0.13333333,0,190.66667)" />
    <path
       id="path60"
       d="m 1624.95,714.633 c 0,4.488 3.63,8.125 8.12,8.125 4.49,0 8.13,-3.637 8.13,-8.125 0,-4.485 -3.64,-8.125 -8.13,-8.125 -4.49,0 -8.12,3.64 -8.12,8.125 z"
       style="fill:none;stroke:#231f20;stroke-width:2.5;stroke-linecap:butt;stroke-linejoin:miter;stroke-miterlimit:3.86369;stroke-dasharray:none;stroke-opacity:1"
       transform="matrix(0.13333333,0,0,-0.13333333,0,190.66667)" />
    <g
       id="g60"
       aria-label="A&#10;1&#10;, I&#10;1&#10;, E"
       transform="matrix(1.3333333,0,0,1.3333333,146.99333,100.72347)">
      <path
         id="path61"
         d="m 4.6280469,-6.1060766 -0.4570313,4.96875 c -0.023437,0.22265629 -0.035156,0.37500004 -0.035156,0.45703129 0,0.1171875 0.035156,0.19921875 0.070312,0.26953125 0.058594,0.0820313 0.1289062,0.15234375 0.234375,0.1875 0.082031,0.046875 0.2460937,0.0585938 0.46875,0.0585938 l -0.046875,0.1640624975 h -2.34375 L 2.5655469,-0.16467031 h 0.1054687 c 0.1875,0 0.3398438,-0.046875 0.4570313,-0.12890625 0.09375,-0.046875 0.1523437,-0.140625 0.1992187,-0.26953125 0.035156,-0.09375 0.070312,-0.3046875 0.09375,-0.64453129 l 0.082031,-0.75 H 1.7921094 l -0.609375,0.8203125 c -0.1289063,0.18750004 -0.22265628,0.31640629 -0.24609378,0.39843754 -0.0351563,0.0820313 -0.0585938,0.15234375 -0.0585938,0.22265625 0,0.09375 0.0351563,0.17578125 0.10546875,0.24609375 0.0820313,0.0585938 0.21093743,0.09375 0.38671873,0.10546875 l -0.046875,0.1640624975 h -1.76953123 l 0.046875,-0.1640624975 c 0.22265625,-0.0117188 0.421875,-0.0820313 0.57421875,-0.2109375 0.1640625,-0.140625 0.421875,-0.43359375 0.73828125,-0.87890629 L 4.4757031,-6.1060766 Z m -0.8789063,1.4648438 -1.7109375,2.3554687 h 1.4882813 z m 0,0"
         style="fill:#231f20;fill-opacity:1;fill-rule:nonzero;stroke:none" />
      <path
         id="path62"
         d="m 6.1895703,-1.3189672 0.9726563,-0.46875 h 0.1054687 v 3.3515625 c 0,0.2226563 0.011719,0.3632813 0.023437,0.421875 0.023437,0.058594 0.058594,0.09375 0.1171875,0.1289063 0.058594,0.023437 0.1757813,0.035156 0.3632813,0.046875 v 0.1054687 h -1.5 V 2.1615016 c 0.1757812,-0.011719 0.3046875,-0.023437 0.3632812,-0.046875 0.046875,-0.035156 0.082031,-0.070312 0.1054688,-0.1171875 0.023437,-0.046875 0.035156,-0.1875 0.035156,-0.4335938 v -2.14453124 c 0,-0.29296875 -0.011719,-0.48046876 -0.035156,-0.56249996 -0.011719,-0.058594 -0.035156,-0.1054688 -0.070312,-0.140625 -0.035156,-0.023437 -0.082031,-0.035156 -0.1289063,-0.035156 -0.070312,0 -0.1757812,0.023437 -0.3046875,0.09375 z m 0,0"
         style="fill:#231f20;fill-opacity:1;fill-rule:nonzero;stroke:none" />
      <path
         id="path63"
         d="M 8.4044141,0.98376719 C 8.6270703,0.87829844 8.8028516,0.76111094 8.9434766,0.59704844 c 0.1054687,-0.1171875 0.1523437,-0.22265625 0.1523437,-0.328125 0,-0.0585938 0,-0.09375 -0.023437,-0.140625 -0.011719,-0.03515625 -0.046875,-0.0703125 -0.1171875,-0.15234375 -0.070312,-0.0703125 -0.1171875,-0.1171875 -0.1289062,-0.140625 -0.011719,-0.046875 -0.023437,-0.10546875 -0.023437,-0.1640625 0,-0.12890625 0.046875,-0.234375 0.1289062,-0.328125 0.09375,-0.09375 0.1875,-0.140625 0.3046875,-0.140625 0.1289063,0 0.2226563,0.046875 0.328125,0.15234375 0.082031,0.09375 0.1289063,0.2109375 0.1289063,0.36328125 0,0.2578125 -0.09375,0.52734375 -0.3046875,0.78515625 C 9.1778516,0.77282969 8.8848828,0.98376719 8.4981641,1.1243922 Z m 6.2871089,-1.1484375 -0.04687,0.1640624975 H 12.218867 L 12.28918,-0.16467031 c 0.234375,-0.0117188 0.398437,-0.0234375 0.480468,-0.0585938 0.128907,-0.046875 0.222657,-0.1171875 0.28125,-0.2109375 0.09375,-0.12890625 0.199219,-0.375 0.304688,-0.73828119 l 1.03125,-3.5976564 c 0.08203,-0.2929687 0.128906,-0.5273437 0.128906,-0.6796875 0,-0.082031 -0.02344,-0.140625 -0.05859,-0.1992187 -0.03516,-0.046875 -0.09375,-0.082031 -0.164062,-0.1171875 -0.08203,-0.023437 -0.234375,-0.035156 -0.457031,-0.035156 l 0.04687,-0.1640625 h 2.285156 l -0.05859,0.1640625 c -0.175781,0 -0.328125,0.011719 -0.410156,0.058594 -0.140625,0.070312 -0.234375,0.1640625 -0.304688,0.28125 -0.07031,0.1171875 -0.164062,0.3867187 -0.269531,0.7851562 l -1.03125,3.5976563 c -0.09375,0.30468744 -0.140625,0.49218744 -0.140625,0.57421869 0,0.0703125 0.01172,0.12890625 0.05859,0.17578125 0.03516,0.0351563 0.09375,0.0703125 0.175781,0.10546875 0.08203,0.0234375 0.246094,0.046875 0.503906,0.0585938 z m 0,0"
         style="fill:#231f20;fill-opacity:1;fill-rule:nonzero;stroke:none" />
      <path
         id="path64"
         d="m 16.185664,-1.3189672 0.972656,-0.46875 h 0.105469 v 3.3515625 c 0,0.2226563 0.01172,0.3632813 0.02344,0.421875 0.02344,0.058594 0.05859,0.09375 0.117187,0.1289063 0.05859,0.023437 0.175781,0.035156 0.363281,0.046875 v 0.1054687 h -1.5 V 2.1615016 c 0.175782,-0.011719 0.304688,-0.023437 0.363282,-0.046875 0.04687,-0.035156 0.08203,-0.070312 0.105468,-0.1171875 0.02344,-0.046875 0.03516,-0.1875 0.03516,-0.4335938 v -2.14453124 c 0,-0.29296875 -0.01172,-0.48046876 -0.03516,-0.56249996 -0.01172,-0.058594 -0.03516,-0.1054688 -0.07031,-0.140625 -0.03516,-0.023437 -0.08203,-0.035156 -0.128906,-0.035156 -0.07031,0 -0.175782,0.023437 -0.304688,0.09375 z m 0,0"
         style="fill:#231f20;fill-opacity:1;fill-rule:nonzero;stroke:none" />
      <path
         id="path65"
         d="m 18.400508,0.98376719 c 0.222656,-0.10546875 0.398437,-0.22265625 0.539062,-0.38671875 0.105469,-0.1171875 0.152344,-0.22265625 0.152344,-0.328125 0,-0.0585938 0,-0.09375 -0.02344,-0.140625 -0.01172,-0.03515625 -0.04687,-0.0703125 -0.117188,-0.15234375 -0.07031,-0.0703125 -0.117187,-0.1171875 -0.128906,-0.140625 -0.01172,-0.046875 -0.02344,-0.10546875 -0.02344,-0.1640625 0,-0.12890625 0.04687,-0.234375 0.128907,-0.328125 0.09375,-0.09375 0.1875,-0.140625 0.304687,-0.140625 0.128906,0 0.222656,0.046875 0.328125,0.15234375 0.08203,0.09375 0.128906,0.2109375 0.128906,0.36328125 0,0.2578125 -0.09375,0.52734375 -0.304687,0.78515625 -0.210938,0.26953125 -0.503906,0.48046875 -0.890625,0.62109376 z m 7.488281,-6.63281249 -0.667969,2.3671875 h 0.5625 c 0.398438,0 0.691407,-0.070312 0.878907,-0.1875 0.164062,-0.1171875 0.328125,-0.3515625 0.457031,-0.6679688 h 0.164062 l -0.621093,2.1445313 h -0.175782 c 0.05859,-0.1757813 0.08203,-0.328125 0.08203,-0.46875 0,-0.1171875 -0.02344,-0.2226563 -0.08203,-0.2929688 -0.04687,-0.082031 -0.117187,-0.140625 -0.210937,-0.1757812 -0.08203,-0.035156 -0.269531,-0.046875 -0.550781,-0.046875 H 25.12707 l -0.585937,2.06249999 c -0.05859,0.1640625 -0.09375,0.29296875 -0.09375,0.38671875 0,0.0585938 0.04687,0.1171875 0.117187,0.1640625 0.04687,0.0351563 0.1875,0.0585938 0.386719,0.0585938 h 0.550781 c 0.5625,0 1.019532,-0.10546875 1.359375,-0.3046875 0.351563,-0.19921875 0.65625,-0.55078124 0.925782,-1.05468744 h 0.164062 l -0.5625,1.6640624375 h -4.59375 l 0.05859,-0.1640624975 c 0.234375,-0.0117188 0.386719,-0.0234375 0.46875,-0.0585938 0.117187,-0.0585938 0.199219,-0.1171875 0.246094,-0.19921875 0.08203,-0.12890625 0.175781,-0.375 0.28125,-0.76171879 l 1.03125,-3.609375 c 0.08203,-0.28125 0.128906,-0.5039062 0.128906,-0.65625 0,-0.1171875 -0.03516,-0.1992187 -0.117188,-0.2578125 -0.08203,-0.058594 -0.234375,-0.09375 -0.457031,-0.09375 h -0.09375 l 0.05859,-0.1640625 h 4.277344 l -0.363282,1.4414063 H 28.1505 c 0.02344,-0.140625 0.02344,-0.2578125 0.02344,-0.3398438 0,-0.1640625 -0.03516,-0.28125 -0.105468,-0.3984375 -0.09375,-0.1289062 -0.246094,-0.2226562 -0.433594,-0.3046875 -0.140625,-0.046875 -0.46875,-0.082031 -0.972656,-0.082031 z m 0,0"
         style="fill:#231f20;fill-opacity:1;fill-rule:nonzero;stroke:none" />
    </g>
    <path
       id="path66"
       d="m 234.031,710.883 c 33.485,17.73 72.809,28.258 114.871,28.258 40.797,0 79.012,-9.61 111.825,-26.364"
       style="fill:none;stroke:#231f20;stroke-width:2.5;stroke-linecap:butt;stroke-linejoin:miter;stroke-miterlimit:3.86369;stroke-dasharray:none;stroke-opacity:1"
       transform="matrix(0.13333333,0,0,-0.13333333,0,190.66667)" />
    <path
       id="path67"
       d="m 226.508,710.949 c 0,4.489 3.637,8.125 8.125,8.125 4.484,0 8.125,-3.636 8.125,-8.125 0,-4.488 -3.641,-8.125 -8.125,-8.125 -4.488,0 -8.125,3.637 -8.125,8.125"
       style="fill:#231f20;fill-opacity:1;fill-rule:nonzero;stroke:none"
       transform="matrix(0.13333333,0,0,-0.13333333,0,190.66667)" />
    <path
       id="path68"
       d="m 226.508,710.949 c 0,4.489 3.637,8.125 8.125,8.125 4.484,0 8.125,-3.636 8.125,-8.125 0,-4.488 -3.641,-8.125 -8.125,-8.125 -4.488,0 -8.125,3.637 -8.125,8.125 z"
       style="fill:none;stroke:#231f20;stroke-width:2.5;stroke-linecap:butt;stroke-linejoin:miter;stroke-miterlimit:3.86369;stroke-dasharray:none;stroke-opacity:1"
       transform="matrix(0.13333333,0,0,-0.13333333,0,190.66667)" />
    <g
       id="g68"
       aria-label="A&#10;1&#10;, I&#10;1&#10;, E&#10;6.0 m&#10;4.0 m"
       transform="matrix(1.3333333,0,0,1.3333333,63.3136,100.73173)">
      <path
         id="path69"
         d="m 4.6280813,-6.1064172 -0.4570313,4.96875 c -0.023437,0.22265626 -0.035156,0.37500001 -0.035156,0.45703126 0,0.1171875 0.035156,0.19921875 0.070312,0.26953125 0.058594,0.0820313 0.1289062,0.15234375 0.234375,0.1875 0.082031,0.046875 0.2460937,0.0585938 0.46875,0.0585938 L 4.862456,-9.483875e-4 H 2.518706 L 2.5655813,-0.16501094 H 2.67105 c 0.1875,0 0.3398438,-0.046875 0.4570313,-0.12890625 0.09375,-0.046875 0.1523437,-0.140625 0.1992187,-0.26953125 0.035156,-0.09375 0.070312,-0.3046875 0.09375,-0.64453126 l 0.082031,-0.75 H 1.7921438 l -0.609375,0.8203125 c -0.1289063,0.18750001 -0.2226563,0.31640626 -0.2460938,0.39843751 -0.0351563,0.0820313 -0.0585938,0.15234375 -0.0585938,0.22265625 0,0.09375 0.0351563,0.17578125 0.10546875,0.24609375 0.0820313,0.0585938 0.21093745,0.09375 0.38671875,0.10546875 l -0.046875,0.1640625025 h -1.76953125 l 0.046875,-0.1640625025 c 0.22265625,-0.0117188 0.421875,-0.0820313 0.57421875,-0.2109375 0.1640625,-0.140625 0.421875,-0.43359375 0.73828125,-0.87890626 L 4.4757375,-6.1064172 Z M 3.749175,-4.6415734 2.0382375,-2.2861047 h 1.4882813 z m 0,0"
         style="fill:#231f20;fill-opacity:1;fill-rule:nonzero;stroke:none" />
      <path
         id="path70"
         d="m 6.1896047,-1.3193078 0.9726562,-0.46875 h 0.1054688 v 3.3515625 c 0,0.2226562 0.011719,0.3632812 0.023437,0.421875 0.023437,0.058594 0.058594,0.09375 0.1171875,0.1289062 0.058594,0.023437 0.1757812,0.035156 0.3632812,0.046875 v 0.1054688 h -1.5 V 2.1611609 c 0.1757813,-0.011719 0.3046875,-0.023437 0.3632813,-0.046875 0.046875,-0.035156 0.082031,-0.070312 0.1054687,-0.1171875 0.023437,-0.046875 0.035156,-0.1875 0.035156,-0.4335937 v -2.14453126 c 0,-0.29296875 -0.011719,-0.48046874 -0.035156,-0.56250004 -0.011719,-0.058594 -0.035156,-0.1054687 -0.070312,-0.140625 -0.035156,-0.023437 -0.082031,-0.035156 -0.1289062,-0.035156 -0.070312,0 -0.1757813,0.023437 -0.3046875,0.09375 z m 0,0"
         style="fill:#231f20;fill-opacity:1;fill-rule:nonzero;stroke:none" />
      <path
         id="path71"
         d="M 8.4044484,0.98342656 C 8.6271047,0.87795781 8.8028859,0.76077031 8.9435109,0.59670781 c 0.1054688,-0.1171875 0.1523438,-0.22265625 0.1523438,-0.328125 0,-0.0585938 0,-0.09375 -0.023437,-0.140625 -0.011719,-0.03515625 -0.046875,-0.0703125 -0.1171875,-0.15234375 -0.070312,-0.0703125 -0.1171875,-0.1171875 -0.1289063,-0.140625 -0.011719,-0.046875 -0.023437,-0.10546875 -0.023437,-0.1640625 0,-0.12890625 0.046875,-0.234375 0.1289063,-0.328125 0.09375,-0.09375 0.1875,-0.140625 0.3046875,-0.140625 0.1289062,0 0.2226562,0.046875 0.328125,0.15234375 0.082031,0.09375 0.1289062,0.2109375 0.1289062,0.36328125 0,0.2578125 -0.09375,0.52734375 -0.3046875,0.78515625 C 9.1778859,0.77248906 8.8849172,0.98342656 8.4981984,1.1240516 Z m 6.7851566,-1.1484375 -0.04687,0.1640625025 h -2.425782 l 0.07031,-0.1640625025 c 0.234375,-0.0117188 0.398437,-0.0234375 0.480469,-0.0585938 0.128906,-0.046875 0.222656,-0.1171875 0.28125,-0.2109375 0.09375,-0.12890625 0.199218,-0.375 0.304687,-0.73828126 l 1.03125,-3.5976562 c 0.08203,-0.2929687 0.128906,-0.5273437 0.128906,-0.6796875 0,-0.082031 -0.02344,-0.140625 -0.05859,-0.1992187 -0.03516,-0.046875 -0.09375,-0.082031 -0.164063,-0.1171875 -0.08203,-0.023437 -0.234375,-0.035156 -0.457031,-0.035156 l 0.04687,-0.1640625 h 2.285156 l -0.05859,0.1640625 c -0.175781,0 -0.328125,0.011719 -0.410156,0.058594 -0.140625,0.070312 -0.234375,0.1640625 -0.304687,0.28125 -0.07031,0.1171875 -0.164063,0.3867187 -0.269532,0.7851562 l -1.03125,3.5976563 c -0.09375,0.30468741 -0.140625,0.49218741 -0.140625,0.57421866 0,0.0703125 0.01172,0.12890625 0.05859,0.17578125 0.03516,0.0351563 0.09375,0.0703125 0.175781,0.10546875 0.08203,0.0234375 0.246094,0.046875 0.503907,0.0585933 z m 0,0"
         style="fill:#231f20;fill-opacity:1;fill-rule:nonzero;stroke:none" />
      <path
         id="path72"
         d="m 16.686675,-1.3193078 0.972656,-0.46875 H 17.7648 v 3.3515625 c 0,0.2226562 0.01172,0.3632812 0.02344,0.421875 0.02344,0.058594 0.05859,0.09375 0.117187,0.1289062 0.05859,0.023437 0.175781,0.035156 0.363281,0.046875 v 0.1054688 h -1.5 V 2.1611609 c 0.175782,-0.011719 0.304688,-0.023437 0.363282,-0.046875 0.04687,-0.035156 0.08203,-0.070312 0.105468,-0.1171875 0.02344,-0.046875 0.03516,-0.1875 0.03516,-0.4335937 v -2.14453126 c 0,-0.29296875 -0.01172,-0.48046874 -0.03516,-0.56250004 -0.01172,-0.058594 -0.03516,-0.1054687 -0.07031,-0.140625 -0.03516,-0.023437 -0.08203,-0.035156 -0.128906,-0.035156 -0.07031,0 -0.175782,0.023437 -0.304688,0.09375 z m 0,0"
         style="fill:#231f20;fill-opacity:1;fill-rule:nonzero;stroke:none" />
      <path
         id="path73"
         d="m 18.901519,0.98342656 c 0.222656,-0.10546875 0.398437,-0.22265625 0.539062,-0.38671875 0.105469,-0.1171875 0.152344,-0.22265625 0.152344,-0.328125 0,-0.0585938 0,-0.09375 -0.02344,-0.140625 -0.01172,-0.03515625 -0.04687,-0.0703125 -0.117188,-0.15234375 -0.07031,-0.0703125 -0.117187,-0.1171875 -0.128906,-0.140625 -0.01172,-0.046875 -0.02344,-0.10546875 -0.02344,-0.1640625 0,-0.12890625 0.04687,-0.234375 0.128907,-0.328125 0.09375,-0.09375 0.1875,-0.140625 0.304687,-0.140625 0.128906,0 0.222656,0.046875 0.328125,0.15234375 0.08203,0.09375 0.128906,0.2109375 0.128906,0.36328125 0,0.2578125 -0.09375,0.52734375 -0.304687,0.78515625 -0.210938,0.26953125 -0.503906,0.48046875 -0.890625,0.62109379 z M 26.3898,-5.6493859 25.721831,-3.2821984 h 0.5625 c 0.398438,0 0.691407,-0.070312 0.878907,-0.1875 0.164062,-0.1171875 0.328125,-0.3515625 0.457031,-0.6679688 h 0.164062 l -0.621093,2.1445313 h -0.175782 c 0.05859,-0.1757813 0.08203,-0.328125 0.08203,-0.46875 0,-0.1171875 -0.02344,-0.2226563 -0.08203,-0.2929688 -0.04687,-0.082031 -0.117187,-0.140625 -0.210937,-0.1757812 -0.08203,-0.035156 -0.269531,-0.046875 -0.550781,-0.046875 h -0.597657 l -0.585937,2.06249996 c -0.05859,0.1640625 -0.09375,0.29296875 -0.09375,0.38671875 0,0.0585938 0.04687,0.1171875 0.117187,0.1640625 0.04687,0.0351563 0.1875,0.0585938 0.386719,0.0585938 h 0.550781 c 0.5625,0 1.019532,-0.10546875 1.359375,-0.3046875 0.351563,-0.19921875 0.65625,-0.55078131 0.925782,-1.05468751 H 28.4523 L 27.8898,-9.483875e-4 H 23.29605 L 23.35464,-0.16501089 c 0.234375,-0.0117188 0.386719,-0.0234375 0.46875,-0.0585938 0.117187,-0.0585938 0.199219,-0.1171875 0.246094,-0.19921875 0.08203,-0.12890625 0.175781,-0.375 0.28125,-0.76171876 l 1.03125,-3.609375 c 0.08203,-0.28125 0.128906,-0.5039062 0.128906,-0.65625 0,-0.1171875 -0.03516,-0.1992187 -0.117188,-0.2578125 -0.08203,-0.058594 -0.234375,-0.09375 -0.457031,-0.09375 h -0.09375 l 0.05859,-0.1640625 h 4.277344 l -0.363282,1.4414063 h -0.164062 c 0.02344,-0.140625 0.02344,-0.2578125 0.02344,-0.3398438 0,-0.1640625 -0.03516,-0.28125 -0.105468,-0.3984375 -0.09375,-0.1289062 -0.246094,-0.2226562 -0.433594,-0.3046875 -0.140625,-0.046875 -0.46875,-0.082031 -0.972656,-0.082031 z M 40.73355,51.286161 v 0.164062 c -0.503906,0.117188 -0.984375,0.375 -1.453125,0.738282 -0.46875,0.386718 -0.878906,0.867187 -1.242187,1.453125 0.316406,-0.128907 0.574218,-0.199219 0.773437,-0.199219 0.375,0 0.691406,0.140625 0.949219,0.410156 0.269531,0.269531 0.398437,0.621094 0.398437,1.089844 0,0.691406 -0.222656,1.289062 -0.679687,1.78125 -0.445313,0.503906 -0.925781,0.738281 -1.453125,0.738281 -0.480469,0 -0.832031,-0.164062 -1.078125,-0.515625 -0.246094,-0.351562 -0.375,-0.761719 -0.375,-1.21875 0,-0.597656 0.140625,-1.195312 0.421875,-1.78125 0.28125,-0.574219 0.65625,-1.078125 1.125,-1.5 0.480469,-0.410156 0.972656,-0.726562 1.488281,-0.925781 0.304688,-0.117188 0.679688,-0.1875 1.125,-0.234375 z M 37.8273,54.01663 c -0.421875,0.890625 -0.632812,1.628906 -0.632812,2.238281 0,0.316406 0.08203,0.550781 0.234375,0.738281 0.164062,0.175781 0.351562,0.269531 0.550781,0.269531 0.339844,0 0.65625,-0.246093 0.949219,-0.726562 0.292968,-0.503906 0.433593,-1.066406 0.433593,-1.710938 0,-0.351562 -0.07031,-0.609375 -0.246093,-0.796875 -0.175782,-0.1875 -0.375,-0.28125 -0.621094,-0.28125 -0.105469,0 -0.199219,0.02344 -0.292969,0.05859 -0.09375,0.02344 -0.222656,0.09375 -0.375,0.210938 z m 3.433594,2.554687 c 0.117187,0 0.234375,0.04687 0.316406,0.128906 0.08203,0.09375 0.128906,0.199219 0.128906,0.316407 0,0.128906 -0.04687,0.234375 -0.128906,0.328125 -0.08203,0.08203 -0.199219,0.117187 -0.316406,0.117187 -0.117188,0 -0.222656,-0.03516 -0.316406,-0.117187 -0.08203,-0.09375 -0.128907,-0.199219 -0.128907,-0.328125 0,-0.117188 0.04687,-0.222657 0.128907,-0.316407 0.09375,-0.08203 0.199218,-0.128906 0.316406,-0.128906 z m 4.617187,-5.285156 c 0.375,0 0.691407,0.152344 0.9375,0.46875 0.269532,0.316406 0.386719,0.808594 0.386719,1.476562 0,0.585938 -0.09375,1.171875 -0.28125,1.78125 -0.1875,0.597657 -0.457031,1.125 -0.808594,1.558594 -0.269531,0.351563 -0.5625,0.609375 -0.855468,0.761719 -0.1875,0.09375 -0.386719,0.128906 -0.609375,0.128906 -0.386719,0 -0.703125,-0.152344 -0.960938,-0.457031 -0.257812,-0.316406 -0.386719,-0.820313 -0.386719,-1.5 0,-0.667969 0.128907,-1.335938 0.386719,-2.015625 0.292969,-0.796875 0.679688,-1.394531 1.148438,-1.804688 0.316406,-0.269531 0.65625,-0.398437 1.042968,-0.398437 z m 0,0.222656 c -0.164062,0 -0.339843,0.05859 -0.515625,0.199219 -0.175781,0.128906 -0.351562,0.410156 -0.539062,0.832031 -0.175781,0.421875 -0.363281,0.972656 -0.527344,1.628906 -0.234375,0.878907 -0.339844,1.617188 -0.339844,2.226563 0,0.304687 0.07031,0.527344 0.199219,0.679687 0.140625,0.152344 0.292969,0.234375 0.480469,0.234375 0.175781,0 0.328125,-0.07031 0.457031,-0.1875 0.339844,-0.316406 0.632813,-0.855468 0.867188,-1.617187 0.386718,-1.253906 0.585937,-2.273438 0.585937,-3.046875 0,-0.328125 -0.05859,-0.5625 -0.199219,-0.714844 -0.128906,-0.152344 -0.28125,-0.234375 -0.46875,-0.234375 z m 5.589844,1.886719 -0.574219,1.980469 c 0.269532,-0.46875 0.492188,-0.820313 0.667969,-1.054688 0.292969,-0.363281 0.5625,-0.621094 0.84375,-0.785156 0.152344,-0.105469 0.316406,-0.140625 0.503906,-0.140625 0.140625,0 0.269532,0.03516 0.363282,0.140625 0.09375,0.09375 0.152343,0.222656 0.152343,0.375 0,0.140625 -0.03516,0.328125 -0.105468,0.5625 l -0.339844,1.089844 c 0.503906,-0.890625 0.984375,-1.511719 1.441406,-1.875 0.246094,-0.199219 0.492188,-0.292969 0.738281,-0.292969 0.140625,0 0.257813,0.04687 0.339844,0.152344 0.09375,0.09375 0.140625,0.246093 0.140625,0.46875 0,0.164062 -0.02344,0.339843 -0.09375,0.527343 l -0.550781,1.6875 c -0.117188,0.375 -0.175781,0.574219 -0.175781,0.609375 0,0.04687 0.02344,0.08203 0.03516,0.117188 0.02344,0.01172 0.03516,0.02344 0.07031,0.02344 0.02344,0 0.07031,-0.02344 0.140625,-0.08203 0.152344,-0.128906 0.28125,-0.292969 0.421875,-0.503906 l 0.140625,0.09375 c -0.07031,0.117187 -0.199218,0.269531 -0.363281,0.46875 -0.1875,0.199219 -0.339844,0.339844 -0.457031,0.398437 -0.128906,0.07031 -0.246094,0.105469 -0.351563,0.105469 -0.105468,0 -0.1875,-0.03516 -0.257812,-0.105469 -0.05859,-0.05859 -0.09375,-0.152343 -0.09375,-0.246093 0,-0.140625 0.07031,-0.421875 0.199219,-0.84375 l 0.46875,-1.417969 c 0.105468,-0.328125 0.164062,-0.503906 0.164062,-0.539063 0.02344,-0.05859 0.02344,-0.105468 0.02344,-0.164062 0,-0.07031 -0.02344,-0.128906 -0.05859,-0.175781 -0.03516,-0.03516 -0.08203,-0.05859 -0.128906,-0.05859 -0.128907,0 -0.269532,0.05859 -0.421875,0.1875 -0.433594,0.375 -0.84375,0.890625 -1.21875,1.570312 -0.257813,0.433594 -0.492188,1.007813 -0.703125,1.699219 h -0.667969 l 0.796875,-2.660156 c 0.09375,-0.28125 0.140625,-0.46875 0.140625,-0.574219 0,-0.08203 -0.02344,-0.128906 -0.05859,-0.175781 -0.03516,-0.03516 -0.07031,-0.05859 -0.117187,-0.05859 -0.105469,0 -0.199219,0.03516 -0.316407,0.117188 -0.1875,0.105468 -0.421875,0.351562 -0.703125,0.726562 -0.28125,0.375 -0.503906,0.738281 -0.65625,1.078125 -0.07031,0.164063 -0.257812,0.679688 -0.539062,1.546875 H 49.66325 l 0.820312,-2.847656 0.105469,-0.363281 c 0.02344,-0.05859 0.02344,-0.105469 0.02344,-0.128907 0,-0.05859 -0.02344,-0.128906 -0.08203,-0.175781 -0.05859,-0.04687 -0.128906,-0.07031 -0.222656,-0.07031 -0.03516,0 -0.152344,0.01172 -0.316406,0.04687 l -0.03516,-0.164063 z m 88.092775,-65.490234 -1.13672,3.9140621 h 0.70312 l -0.15234,0.5507812 h -0.71484 l -0.45703,1.59375 h -0.64454 l 0.46875,-1.59375 h -2.16796 l 0.1875,-0.6210937 3.57421,-3.8437496 z m -0.98438,1.136718 -2.55468,2.7773441 h 1.75781 z m 1.85157,4.0312503 c 0.11718,0 0.23437,0.046875 0.3164,0.1289063 0.082,0.09375 0.12891,0.1992187 0.12891,0.3164062 0,0.1289063 -0.0469,0.234375 -0.12891,0.328125 -0.082,0.082031 -0.19922,0.1171875 -0.3164,0.1171875 -0.11719,0 -0.22266,-0.035156 -0.31641,-0.1171875 -0.082,-0.09375 -0.12891,-0.1992187 -0.12891,-0.328125 0,-0.1171875 0.0469,-0.2226562 0.12891,-0.3164062 0.0937,-0.082031 0.19922,-0.1289063 0.31641,-0.1289063 z m 4.61718,-5.2851563 c 0.375,0 0.69141,0.152344 0.9375,0.46875 0.26953,0.316406 0.38672,0.808594 0.38672,1.476563 0,0.5859371 -0.0937,1.1718746 -0.28125,1.7812496 -0.1875,0.5976562 -0.45703,1.125 -0.80859,1.5585937 -0.26953,0.3515625 -0.5625,0.609375 -0.85547,0.7617188 -0.1875,0.09375 -0.38672,0.1289062 -0.60938,0.1289062 -0.38671,0 -0.70312,-0.1523437 -0.96093,-0.4570312 -0.25782,-0.3164063 -0.38672,-0.8203125 -0.38672,-1.5 0,-0.6679688 0.1289,-1.3359375 0.38672,-2.0156251 0.29297,-0.796875 0.67968,-1.394531 1.14843,-1.804687 0.31641,-0.269532 0.65625,-0.398438 1.04297,-0.398438 z m 0,0.222656 c -0.16406,0 -0.33984,0.05859 -0.51562,0.199219 -0.17578,0.128906 -0.35156,0.410156 -0.53906,0.832031 -0.17579,0.421875 -0.36329,0.9726566 -0.52735,1.6289066 -0.23437,0.8789062 -0.33984,1.6171875 -0.33984,2.2265625 0,0.3046875 0.0703,0.5273437 0.19922,0.6796875 0.14062,0.1523437 0.29297,0.234375 0.48047,0.234375 0.17578,0 0.32812,-0.070312 0.45703,-0.1875 0.33984,-0.3164063 0.63281,-0.8554688 0.86718,-1.6171875 0.38672,-1.2539063 0.58594,-2.2734371 0.58594,-3.0468751 0,-0.328125 -0.0586,-0.5625 -0.19922,-0.714844 -0.1289,-0.152343 -0.28125,-0.234375 -0.46875,-0.234375 z m 5.58985,1.886719 -0.57422,1.9804688 c 0.26953,-0.46875 0.49219,-0.8203125 0.66797,-1.0546875 0.29297,-0.3632812 0.5625,-0.6210937 0.84375,-0.7851562 0.15234,-0.1054691 0.3164,-0.1406251 0.5039,-0.1406251 0.14063,0 0.26953,0.03516 0.36328,0.1406251 0.0937,0.09375 0.15235,0.2226562 0.15235,0.375 0,0.140625 -0.0352,0.328125 -0.10547,0.5625 l -0.33984,1.0898437 c 0.5039,-0.890625 0.98437,-1.5117187 1.4414,-1.875 0.2461,-0.1992188 0.49219,-0.2929688 0.73828,-0.2929688 0.14063,0 0.25782,0.04687 0.33985,0.1523438 0.0937,0.09375 0.14062,0.2460938 0.14062,0.46875 0,0.1640625 -0.0234,0.3398438 -0.0937,0.5273438 l -0.55078,1.6875 c -0.11719,0.375 -0.17578,0.5742187 -0.17578,0.609375 0,0.046875 0.0234,0.082031 0.0352,0.1171875 0.0234,0.011719 0.0352,0.023437 0.0703,0.023437 0.0234,0 0.0703,-0.023437 0.14062,-0.082031 0.15235,-0.1289062 0.28125,-0.2929687 0.42188,-0.5039062 l 0.14062,0.09375 c -0.0703,0.1171875 -0.19922,0.2695312 -0.36328,0.46875 -0.1875,0.1992187 -0.33984,0.3398437 -0.45703,0.3984375 -0.12891,0.070312 -0.24609,0.1054687 -0.35156,0.1054687 -0.10547,0 -0.1875,-0.035156 -0.25781,-0.1054687 -0.0586,-0.058594 -0.0937,-0.1523438 -0.0937,-0.2460938 0,-0.140625 0.0703,-0.421875 0.19921,-0.84375 l 0.46875,-1.4179687 c 0.10547,-0.328125 0.16407,-0.5039063 0.16407,-0.5390625 0.0234,-0.058594 0.0234,-0.1054688 0.0234,-0.1640625 0,-0.070312 -0.0234,-0.1289063 -0.0586,-0.1757813 -0.0352,-0.035156 -0.082,-0.058594 -0.12891,-0.058594 -0.1289,0 -0.26953,0.058594 -0.42187,0.1875 -0.43359,0.375 -0.84375,0.890625 -1.21875,1.5703125 -0.25781,0.4335937 -0.49219,1.0078125 -0.70313,1.6992187 h -0.66796 l 0.79687,-2.6601562 c 0.0937,-0.28125 0.14063,-0.46875 0.14063,-0.5742188 0,-0.082031 -0.0234,-0.1289062 -0.0586,-0.1757812 -0.0352,-0.035156 -0.0703,-0.058594 -0.11719,-0.058594 -0.10546,0 -0.19921,0.035156 -0.3164,0.1171875 -0.1875,0.1054688 -0.42188,0.3515625 -0.70313,0.7265625 -0.28125,0.375 -0.5039,0.7382813 -0.65625,1.078125 -0.0703,0.1640625 -0.25781,0.6796875 -0.53906,1.546875 h -0.64453 l 0.82031,-2.8476562 0.10547,-0.3632813 c 0.0234,-0.058594 0.0234,-0.1054687 0.0234,-0.1289062 0,-0.058594 -0.0234,-0.1289063 -0.082,-0.1757813 -0.0586,-0.046875 -0.12891,-0.070312 -0.22266,-0.070312 -0.0352,0 -0.15234,0.011719 -0.31641,0.046875 l -0.0352,-0.1640625 z m 0,0"
         style="fill:#231f20;fill-opacity:1;fill-rule:nonzero;stroke:none" />
    </g>
    <path
       id="path74"
       d="m 1806.25,1209.05 h -60.61"
       style="fill:none;stroke:#231f20;stroke-width:2.5;stroke-linecap:butt;stroke-linejoin:miter;stroke-miterlimit:3.86369;stroke-dasharray:none;stroke-opacity:1"
       transform="matrix(0.13333333,0,0,-0.13333333,0,190.66667)" />
    <path
       id="path75"
       d="m 1806.86,252.449 h -60.61"
       style="fill:none;stroke:#231f20;stroke-width:2.5;stroke-linecap:butt;stroke-linejoin:miter;stroke-miterlimit:3.86369;stroke-dasharray:none;stroke-opacity:1"
       transform="matrix(0.13333333,0,0,-0.13333333,0,190.66667)" />
    <path
       id="path76"
       d="M 1772.54,1185.71 V 278.121"
       style="fill:none;stroke:#231f20;stroke-width:2.5;stroke-linecap:butt;stroke-linejoin:miter;stroke-miterlimit:3.86369;stroke-dasharray:none;stroke-opacity:1"
       transform="matrix(0.13333333,0,0,-0.13333333,0,190.66667)" />
    <path
       id="path77"
       d="m 1765.67,1185.02 7.56,22 7.56,-22 z"
       style="fill:#231f20;fill-opacity:1;fill-rule:nonzero;stroke:#231f20;stroke-width:2.5;stroke-linecap:butt;stroke-linejoin:miter;stroke-miterlimit:3.86369;stroke-dasharray:none;stroke-opacity:1"
       transform="matrix(0.13333333,0,0,-0.13333333,0,190.66667)" />
    <path
       id="path78"
       d="m 1779.42,278.809 -7.57,-22 -7.56,22 z"
       style="fill:#231f20;fill-opacity:1;fill-rule:nonzero;stroke:#231f20;stroke-width:2.5;stroke-linecap:butt;stroke-linejoin:miter;stroke-miterlimit:3.86369;stroke-dasharray:none;stroke-opacity:1"
       transform="matrix(0.13333333,0,0,-0.13333333,0,190.66667)" />
    <g
       id="g78"
       aria-label="P&#10;P&#10;A&#10;B"
       transform="matrix(1.3333333,0,0,1.3333333,32.726,9.8373333)">
      <path
         id="path79"
         d="m 1.3949531,-5.9658906 h 2.3554688 c 0.609375,0 1.078125,0.1289062 1.3828125,0.3984375 0.3046875,0.2695312 0.4570312,0.5859375 0.4570312,0.9726562 0,0.2929688 -0.1054687,0.5859375 -0.2929687,0.8789063 -0.1992188,0.28125 -0.4804688,0.515625 -0.8554688,0.6796875 -0.3867187,0.1875 -0.796875,0.2695312 -1.2421875,0.2695312 -0.2695312,0 -0.6210937,-0.046875 -1.0546875,-0.140625 l -0.4921875,1.7226563 c -0.1171875,0.35156248 -0.1640625,0.58593748 -0.1640625,0.70312498 0,0.0820313 0.035156,0.15234375 0.1171875,0.2109375 0.082031,0.0585937 0.2695313,0.09375 0.5625,0.10546875 l -0.046875,0.1640625 h -2.33203122 l 0.0351563,-0.1640625 c 0.31640625,0 0.5390625,-0.046875 0.65625,-0.1640625 0.1171875,-0.10546875 0.24609375,-0.3984375 0.38671875,-0.87890623 L 1.8519844,-4.6065156 c 0.1171875,-0.4101563 0.1757812,-0.6914063 0.1757812,-0.8203125 0,-0.1054688 -0.046875,-0.1875 -0.1289062,-0.2578125 -0.082031,-0.070312 -0.2695313,-0.1054688 -0.5507813,-0.1171875 z m 0.8320313,2.7773437 c 0.3164062,0.082031 0.5859375,0.1289063 0.7851562,0.1289063 0.3164063,0 0.609375,-0.058594 0.8554688,-0.1992188 0.2695312,-0.140625 0.4570312,-0.328125 0.609375,-0.5976562 0.1523437,-0.2578125 0.2226562,-0.5390625 0.2226562,-0.8203125 0,-0.2929688 -0.09375,-0.5273438 -0.2695312,-0.6914063 -0.1875,-0.1757812 -0.4570313,-0.2695312 -0.8085938,-0.2695312 -0.1992187,0 -0.4335937,0.035156 -0.7148437,0.070312 z M 142.24554,-5.8399141 h 2.35547 c 0.60937,0 1.07812,0.1289063 1.38281,0.3984375 0.30469,0.2695313 0.45703,0.5859375 0.45703,0.9726563 0,0.2929687 -0.10547,0.5859375 -0.29297,0.8789062 -0.19922,0.28125 -0.48047,0.515625 -0.85547,0.6796875 -0.38671,0.1875 -0.79687,0.2695313 -1.24218,0.2695313 -0.26953,0 -0.6211,-0.046875 -1.05469,-0.140625 l -0.49219,1.7226562 c -0.11719,0.35156254 -0.16406,0.58593754 -0.16406,0.70312504 0,0.0820313 0.0352,0.15234375 0.11719,0.2109375 0.082,0.05859375 0.26953,0.09375 0.5625,0.10546875 l -0.0469,0.1640625 h -2.33203 l 0.0352,-0.1640625 c 0.3164,0 0.53906,-0.046875 0.65625,-0.1640625 0.11718,-0.10546875 0.24609,-0.3984375 0.38672,-0.87890629 l 0.98437,-3.3984375 c 0.11719,-0.4101562 0.17578,-0.6914062 0.17578,-0.8203125 0,-0.1054687 -0.0469,-0.1875 -0.1289,-0.2578125 -0.082,-0.070312 -0.26954,-0.1054687 -0.55079,-0.1171875 z m 0.83203,2.7773438 c 0.31641,0.082031 0.58594,0.1289062 0.78516,0.1289062 0.3164,0 0.60937,-0.058594 0.85547,-0.1992187 0.26953,-0.140625 0.45703,-0.328125 0.60937,-0.5976563 0.15234,-0.2578125 0.22266,-0.5390625 0.22266,-0.8203125 0,-0.2929687 -0.0937,-0.5273437 -0.26953,-0.6914062 -0.1875,-0.1757813 -0.45704,-0.2695313 -0.8086,-0.2695313 -0.19922,0 -0.43359,0.035156 -0.71484,0.070312 z m 0,0"
         style="fill:#231f20;fill-opacity:1;fill-rule:nonzero;stroke:none" />
      <path
         id="path80"
         d="m -11.674383,105.6347 h -2.320312 l -0.386719,0.9375 c -0.105469,0.23437 -0.152344,0.41015 -0.152344,0.51562 0,0.0937 0.03516,0.17578 0.128906,0.24609 0.08203,0.0703 0.269532,0.11719 0.5625,0.12891 v 0.16406 h -1.886718 v -0.16406 c 0.257812,-0.0469 0.410156,-0.0937 0.492187,-0.16406 0.140625,-0.15235 0.304688,-0.4336 0.492188,-0.85547 l 2.097656,-4.92188 h 0.152344 l 2.0625,4.96875 c 0.175781,0.39844 0.316406,0.65625 0.4687497,0.77344 0.1289062,0.11719 0.3164062,0.1875 0.5625,0.19922 v 0.16406 h -2.3437497 v -0.16406 c 0.234375,-0.0117 0.386718,-0.0469 0.46875,-0.11719 0.08203,-0.0703 0.128906,-0.15234 0.128906,-0.24609 0,-0.12891 -0.05859,-0.33984 -0.175781,-0.62109 z m -0.140625,-0.31641 -0.996094,-2.41406 -1.03125,2.41406 z m 140.668948,-0.46582 c 0.41015,0.082 0.71484,0.23437 0.92578,0.42187 0.28125,0.26954 0.42187,0.59766 0.42187,0.98438 0,0.30469 -0.0937,0.58594 -0.28125,0.85547 -0.1875,0.26953 -0.44531,0.46875 -0.77343,0.59765 -0.31641,0.12891 -0.82032,0.1875 -1.48828,0.1875 h -2.8125 v -0.16406 h 0.22265 c 0.2461,0 0.42188,-0.082 0.53906,-0.23437 0.0586,-0.10547 0.0937,-0.31641 0.0937,-0.65625 v -3.85547 c 0,-0.375 -0.0469,-0.60938 -0.1289,-0.70313 -0.11719,-0.1289 -0.28125,-0.1875 -0.50391,-0.1875 h -0.22265 v -0.16406 h 2.57812 c 0.46875,0 0.85547,0.0352 1.14844,0.10547 0.44531,0.0937 0.77343,0.29297 0.99609,0.5625 0.23438,0.26953 0.35156,0.57422 0.35156,0.92578 0,0.29297 -0.082,0.5625 -0.26953,0.79688 -0.17578,0.23437 -0.44531,0.41015 -0.79687,0.52734 z m -2.3086,-0.24609 c 0.10547,0.0117 0.23438,0.0352 0.375,0.0469 0.14063,0.0117 0.29297,0.0117 0.45704,0.0117 0.43359,0 0.74999,-0.0469 0.96093,-0.12891 0.21094,-0.10547 0.38672,-0.23437 0.49219,-0.42187 0.11719,-0.1875 0.17578,-0.39844 0.17578,-0.6211 0,-0.35156 -0.14062,-0.65625 -0.42187,-0.89062 -0.29297,-0.24609 -0.70313,-0.375 -1.24219,-0.375 -0.30469,0 -0.5625,0.0352 -0.79688,0.10547 z m 0,2.85937 c 0.33985,0.082 0.67969,0.11719 1.00782,0.11719 0.53906,0 0.9375,-0.11719 1.21875,-0.36328 0.28125,-0.23438 0.42187,-0.52735 0.42187,-0.87891 0,-0.23437 -0.0586,-0.45703 -0.19922,-0.66797 -0.1289,-0.21094 -0.32812,-0.38672 -0.62109,-0.5039 -0.28125,-0.11719 -0.63281,-0.1875 -1.05469,-0.1875 -0.17578,0 -0.32812,0 -0.45703,0.0117 -0.12891,0.0117 -0.23437,0.0117 -0.31641,0.0234 z m 0,0"
         style="fill:#231f20;fill-opacity:1;fill-rule:nonzero;stroke:none" />
    </g>
  </g>
</svg>
