<?xml version="1.0" encoding="UTF-8" standalone="no"?>
<!-- Created with Inkscape (http://www.inkscape.org/) -->

<svg
   version="1.1"
   id="svg1"
   width="560"
   height="421.33334"
   viewBox="0 0 560 421.33334"
   sodipodi:docname="exn4.eps"
   xmlns:inkscape="http://www.inkscape.org/namespaces/inkscape"
   xmlns:sodipodi="http://sodipodi.sourceforge.net/DTD/sodipodi-0.dtd"
   xmlns="http://www.w3.org/2000/svg"
   xmlns:svg="http://www.w3.org/2000/svg">
  <defs
     id="defs1">
    <clipPath
       clipPathUnits="userSpaceOnUse"
       id="clipPath2">
      <path
         d="M 0,8 V 3160 H 4200 V 8 Z"
         transform="translate(0,-2.5e-5)"
         id="path2" />
    </clipPath>
    <clipPath
       clipPathUnits="userSpaceOnUse"
       id="clipPath4">
      <path
         d="M 0,8 V 3160 H 4200 V 8 Z"
         transform="translate(0,-2.5e-5)"
         id="path4" />
    </clipPath>
    <clipPath
       clipPathUnits="userSpaceOnUse"
       id="clipPath6">
      <path
         d="M 0,8 V 3160 H 4200 V 8 Z"
         transform="translate(0,-2.5e-5)"
         id="path6" />
    </clipPath>
    <clipPath
       clipPathUnits="userSpaceOnUse"
       id="clipPath8">
      <path
         d="M 0,8 V 3160 H 4200 V 8 Z"
         transform="translate(0,-2.5e-5)"
         id="path8" />
    </clipPath>
    <clipPath
       clipPathUnits="userSpaceOnUse"
       id="clipPath10">
      <path
         d="M 0,8 V 3160 H 4200 V 8 Z"
         transform="translate(0,-2.5e-5)"
         id="path10" />
    </clipPath>
    <clipPath
       clipPathUnits="userSpaceOnUse"
       id="clipPath12">
      <path
         d="M 0,8 V 3160 H 4200 V 8 Z"
         transform="translate(0,-2.5e-5)"
         id="path12" />
    </clipPath>
    <clipPath
       clipPathUnits="userSpaceOnUse"
       id="clipPath14">
      <path
         d="M 0,8 V 3160 H 4200 V 8 Z"
         transform="translate(0,-2.5e-5)"
         id="path14" />
    </clipPath>
    <clipPath
       clipPathUnits="userSpaceOnUse"
       id="clipPath16">
      <path
         d="M 0,8 V 3160 H 4200 V 8 Z"
         transform="translate(0,-2.5e-5)"
         id="path16" />
    </clipPath>
    <clipPath
       clipPathUnits="userSpaceOnUse"
       id="clipPath18">
      <path
         d="M 0,8 V 3160 H 4200 V 8 Z"
         transform="translate(0,-2.5e-5)"
         id="path18" />
    </clipPath>
    <clipPath
       clipPathUnits="userSpaceOnUse"
       id="clipPath20">
      <path
         d="M 0,8 V 3160 H 4200 V 8 Z"
         transform="translate(0,-2.5e-5)"
         id="path20" />
    </clipPath>
    <clipPath
       clipPathUnits="userSpaceOnUse"
       id="clipPath22">
      <path
         d="M 0,8 V 3160 H 4200 V 8 Z"
         transform="translate(0,-2.5e-5)"
         id="path22" />
    </clipPath>
    <clipPath
       clipPathUnits="userSpaceOnUse"
       id="clipPath24">
      <path
         d="M 0,8 V 3160 H 4200 V 8 Z"
         transform="matrix(0.1,0,0,-0.1,-51.833201,23.416803)"
         id="path24" />
    </clipPath>
    <clipPath
       clipPathUnits="userSpaceOnUse"
       id="clipPath26">
      <path
         d="M 0,8 V 3160 H 4200 V 8 Z"
         transform="translate(0,-2.5e-5)"
         id="path26" />
    </clipPath>
    <clipPath
       clipPathUnits="userSpaceOnUse"
       id="clipPath28">
      <path
         d="M 0,8 V 3160 H 4200 V 8 Z"
         transform="translate(0,-2.5e-5)"
         id="path28" />
    </clipPath>
    <clipPath
       clipPathUnits="userSpaceOnUse"
       id="clipPath30">
      <path
         d="M 0,8 V 3160 H 4200 V 8 Z"
         transform="matrix(0.1,0,0,-0.1,-107.33301,23.416803)"
         id="path30" />
    </clipPath>
    <clipPath
       clipPathUnits="userSpaceOnUse"
       id="clipPath32">
      <path
         d="M 0,8 V 3160 H 4200 V 8 Z"
         transform="translate(0,-2.5e-5)"
         id="path32" />
    </clipPath>
    <clipPath
       clipPathUnits="userSpaceOnUse"
       id="clipPath34">
      <path
         d="M 0,8 V 3160 H 4200 V 8 Z"
         transform="translate(0,-2.5e-5)"
         id="path34" />
    </clipPath>
    <clipPath
       clipPathUnits="userSpaceOnUse"
       id="clipPath36">
      <path
         d="M 0,8 V 3160 H 4200 V 8 Z"
         transform="matrix(0.1,0,0,-0.1,-172.5,23.416803)"
         id="path36" />
    </clipPath>
    <clipPath
       clipPathUnits="userSpaceOnUse"
       id="clipPath38">
      <path
         d="M 0,8 V 3160 H 4200 V 8 Z"
         transform="translate(0,-2.5e-5)"
         id="path38" />
    </clipPath>
    <clipPath
       clipPathUnits="userSpaceOnUse"
       id="clipPath40">
      <path
         d="M 0,8 V 3160 H 4200 V 8 Z"
         transform="translate(0,-2.5e-5)"
         id="path40" />
    </clipPath>
    <clipPath
       clipPathUnits="userSpaceOnUse"
       id="clipPath42">
      <path
         d="M 0,8 V 3160 H 4200 V 8 Z"
         transform="matrix(0.1,0,0,-0.1,-237.667,23.416803)"
         id="path42" />
    </clipPath>
    <clipPath
       clipPathUnits="userSpaceOnUse"
       id="clipPath44">
      <path
         d="M 0,8 V 3160 H 4200 V 8 Z"
         transform="translate(0,-2.5e-5)"
         id="path44" />
    </clipPath>
    <clipPath
       clipPathUnits="userSpaceOnUse"
       id="clipPath46">
      <path
         d="M 0,8 V 3160 H 4200 V 8 Z"
         transform="translate(0,-2.5e-5)"
         id="path46" />
    </clipPath>
    <clipPath
       clipPathUnits="userSpaceOnUse"
       id="clipPath48">
      <path
         d="M 0,8 V 3160 H 4200 V 8 Z"
         transform="matrix(0.1,0,0,-0.1,-302.83301,23.416803)"
         id="path48" />
    </clipPath>
    <clipPath
       clipPathUnits="userSpaceOnUse"
       id="clipPath50">
      <path
         d="M 0,8 V 3160 H 4200 V 8 Z"
         transform="translate(0,-2.5e-5)"
         id="path50" />
    </clipPath>
    <clipPath
       clipPathUnits="userSpaceOnUse"
       id="clipPath52">
      <path
         d="M 0,8 V 3160 H 4200 V 8 Z"
         transform="translate(0,-2.5e-5)"
         id="path52" />
    </clipPath>
    <clipPath
       clipPathUnits="userSpaceOnUse"
       id="clipPath54">
      <path
         d="M 0,8 V 3160 H 4200 V 8 Z"
         transform="matrix(0.1,0,0,-0.1,-370.83301,23.416803)"
         id="path54" />
    </clipPath>
    <clipPath
       clipPathUnits="userSpaceOnUse"
       id="clipPath56">
      <path
         d="M 0,8 V 3160 H 4200 V 8 Z"
         transform="translate(0,-2.5e-5)"
         id="path56" />
    </clipPath>
    <clipPath
       clipPathUnits="userSpaceOnUse"
       id="clipPath58">
      <path
         d="M 0,8 V 3160 H 4200 V 8 Z"
         transform="translate(0,-2.5e-5)"
         id="path58" />
    </clipPath>
    <clipPath
       clipPathUnits="userSpaceOnUse"
       id="clipPath60">
      <path
         d="M 0,8 V 3160 H 4200 V 8 Z"
         transform="matrix(0.1,0,0,-0.1,-46.250001,31.833198)"
         id="path60" />
    </clipPath>
    <clipPath
       clipPathUnits="userSpaceOnUse"
       id="clipPath62">
      <path
         d="M 0,8 V 3160 H 4200 V 8 Z"
         transform="translate(0,-2.5e-5)"
         id="path62" />
    </clipPath>
    <clipPath
       clipPathUnits="userSpaceOnUse"
       id="clipPath64">
      <path
         d="M 0,8 V 3160 H 4200 V 8 Z"
         transform="translate(0,-2.5e-5)"
         id="path64" />
    </clipPath>
    <clipPath
       clipPathUnits="userSpaceOnUse"
       id="clipPath66">
      <path
         d="M 0,8 V 3160 H 4200 V 8 Z"
         transform="matrix(0.1,0,0,-0.1,-37.916801,68.583199)"
         id="path66" />
    </clipPath>
    <clipPath
       clipPathUnits="userSpaceOnUse"
       id="clipPath68">
      <path
         d="M 0,8 V 3160 H 4200 V 8 Z"
         transform="translate(0,-2.5e-5)"
         id="path68" />
    </clipPath>
    <clipPath
       clipPathUnits="userSpaceOnUse"
       id="clipPath70">
      <path
         d="M 0,8 V 3160 H 4200 V 8 Z"
         transform="translate(0,-2.5e-5)"
         id="path70" />
    </clipPath>
    <clipPath
       clipPathUnits="userSpaceOnUse"
       id="clipPath72">
      <path
         d="M 0,8 V 3160 H 4200 V 8 Z"
         transform="matrix(0.1,0,0,-0.1,-46.250001,105.25)"
         id="path72" />
    </clipPath>
    <clipPath
       clipPathUnits="userSpaceOnUse"
       id="clipPath74">
      <path
         d="M 0,8 V 3160 H 4200 V 8 Z"
         transform="translate(0,-2.5e-5)"
         id="path74" />
    </clipPath>
    <clipPath
       clipPathUnits="userSpaceOnUse"
       id="clipPath76">
      <path
         d="M 0,8 V 3160 H 4200 V 8 Z"
         transform="translate(0,-2.5e-5)"
         id="path76" />
    </clipPath>
    <clipPath
       clipPathUnits="userSpaceOnUse"
       id="clipPath78">
      <path
         d="M 0,8 V 3160 H 4200 V 8 Z"
         transform="matrix(0.1,0,0,-0.1,-37.916801,141.917)"
         id="path78" />
    </clipPath>
    <clipPath
       clipPathUnits="userSpaceOnUse"
       id="clipPath80">
      <path
         d="M 0,8 V 3160 H 4200 V 8 Z"
         transform="translate(0,-2.5e-5)"
         id="path80" />
    </clipPath>
    <clipPath
       clipPathUnits="userSpaceOnUse"
       id="clipPath82">
      <path
         d="M 0,8 V 3160 H 4200 V 8 Z"
         transform="translate(0,-2.5e-5)"
         id="path82" />
    </clipPath>
    <clipPath
       clipPathUnits="userSpaceOnUse"
       id="clipPath84">
      <path
         d="M 0,8 V 3160 H 4200 V 8 Z"
         transform="matrix(0.1,0,0,-0.1,-46.250001,178.667)"
         id="path84" />
    </clipPath>
    <clipPath
       clipPathUnits="userSpaceOnUse"
       id="clipPath86">
      <path
         d="M 0,8 V 3160 H 4200 V 8 Z"
         transform="translate(0,-2.5e-5)"
         id="path86" />
    </clipPath>
    <clipPath
       clipPathUnits="userSpaceOnUse"
       id="clipPath88">
      <path
         d="M 0,8 V 3160 H 4200 V 8 Z"
         transform="translate(0,-2.5e-5)"
         id="path88" />
    </clipPath>
    <clipPath
       clipPathUnits="userSpaceOnUse"
       id="clipPath90">
      <path
         d="M 0,8 V 3160 H 4200 V 8 Z"
         transform="matrix(0.1,0,0,-0.1,-37.916801,215.333)"
         id="path90" />
    </clipPath>
    <clipPath
       clipPathUnits="userSpaceOnUse"
       id="clipPath92">
      <path
         d="M 0,8 V 3160 H 4200 V 8 Z"
         transform="translate(0,-2.5e-5)"
         id="path92" />
    </clipPath>
    <clipPath
       clipPathUnits="userSpaceOnUse"
       id="clipPath94">
      <path
         d="M 0,8 V 3160 H 4200 V 8 Z"
         transform="translate(0,-2.5e-5)"
         id="path94" />
    </clipPath>
    <clipPath
       clipPathUnits="userSpaceOnUse"
       id="clipPath96">
      <path
         d="M 0,8 V 3160 H 4200 V 8 Z"
         transform="matrix(0.1,0,0,-0.1,-46.250001,252.00001)"
         id="path96" />
    </clipPath>
    <clipPath
       clipPathUnits="userSpaceOnUse"
       id="clipPath98">
      <path
         d="M 0,8 V 3160 H 4200 V 8 Z"
         transform="translate(0,-2.5e-5)"
         id="path98" />
    </clipPath>
    <clipPath
       clipPathUnits="userSpaceOnUse"
       id="clipPath100">
      <path
         d="M 0,8 V 3160 H 4200 V 8 Z"
         transform="translate(0,-2.5e-5)"
         id="path100" />
    </clipPath>
    <clipPath
       clipPathUnits="userSpaceOnUse"
       id="clipPath102">
      <path
         d="M 0,8 V 3160 H 4200 V 8 Z"
         transform="matrix(0.1,0,0,-0.1,-37.916801,288.66701)"
         id="path102" />
    </clipPath>
    <clipPath
       clipPathUnits="userSpaceOnUse"
       id="clipPath104">
      <path
         d="M 0,8 V 3160 H 4200 V 8 Z"
         transform="translate(0,-2.5e-5)"
         id="path104" />
    </clipPath>
    <clipPath
       clipPathUnits="userSpaceOnUse"
       id="clipPath106">
      <path
         d="M 0,8 V 3160 H 4200 V 8 Z"
         transform="translate(0,-2.5e-5)"
         id="path106" />
    </clipPath>
    <clipPath
       clipPathUnits="userSpaceOnUse"
       id="clipPath108">
      <path
         d="M 0,8 V 3160 H 4200 V 8 Z"
         transform="translate(0,-2.5e-5)"
         id="path108" />
    </clipPath>
    <clipPath
       clipPathUnits="userSpaceOnUse"
       id="clipPath110">
      <path
         d="M 0,8 V 3160 H 4200 V 8 Z"
         transform="translate(0,-2.5e-5)"
         id="path110" />
    </clipPath>
    <clipPath
       clipPathUnits="userSpaceOnUse"
       id="clipPath112">
      <path
         d="m 546.668,354.168 h 3259.16 v 2569.16 H 546.668 Z"
         transform="translate(0,-2.5e-5)"
         id="path112" />
    </clipPath>
  </defs>
  <sodipodi:namedview
     id="namedview1"
     pagecolor="#ffffff"
     bordercolor="#000000"
     borderopacity="0.25"
     inkscape:showpageshadow="2"
     inkscape:pageopacity="0.0"
     inkscape:pagecheckerboard="0"
     inkscape:deskcolor="#d1d1d1">
    <inkscape:page
       x="0"
       y="0"
       inkscape:label="1"
       id="page1"
       width="560"
       height="421.33334"
       margin="0"
       bleed="0" />
  </sodipodi:namedview>
  <g
     id="g1"
     inkscape:groupmode="layer"
     inkscape:label="1">
    <path
       id="path1"
       d="M 0,8 H 4200 V 3160 H 0 Z"
       style="fill:#ffffff;fill-opacity:1;fill-rule:nonzero;stroke:none"
       transform="matrix(0.13333333,0,0,-0.13333333,0,421.33333)"
       clip-path="url(#clipPath2)" />
    <path
       id="path3"
       d="m 545.832,355 h 3259.17 V 2924.17 H 545.832 Z"
       style="fill:#ffffff;fill-opacity:1;fill-rule:evenodd;stroke:none"
       transform="matrix(0.13333333,0,0,-0.13333333,0,421.33333)"
       clip-path="url(#clipPath4)" />
    <path
       id="path5"
       d="M 545.832,355 V 2924.17 H 3805 V 355 H 545.832"
       style="fill:none;stroke:#ffffff;stroke-width:5;stroke-linecap:butt;stroke-linejoin:round;stroke-miterlimit:10;stroke-dasharray:none;stroke-opacity:1"
       transform="matrix(0.13333333,0,0,-0.13333333,0,421.33333)"
       clip-path="url(#clipPath6)" />
    <path
       id="path7"
       d="M 545.832,2924.17 H 3805"
       style="fill:none;stroke:#000000;stroke-width:5;stroke-linecap:butt;stroke-linejoin:round;stroke-miterlimit:10;stroke-dasharray:none;stroke-opacity:1"
       transform="matrix(0.13333333,0,0,-0.13333333,0,421.33333)"
       clip-path="url(#clipPath8)" />
    <path
       id="path9"
       d="M 545.832,355 H 3805"
       style="fill:none;stroke:#000000;stroke-width:5;stroke-linecap:butt;stroke-linejoin:round;stroke-miterlimit:10;stroke-dasharray:none;stroke-opacity:1"
       transform="matrix(0.13333333,0,0,-0.13333333,0,421.33333)"
       clip-path="url(#clipPath10)" />
    <path
       id="path11"
       d="M 3805,355 V 2924.17"
       style="fill:none;stroke:#000000;stroke-width:5;stroke-linecap:butt;stroke-linejoin:round;stroke-miterlimit:10;stroke-dasharray:none;stroke-opacity:1"
       transform="matrix(0.13333333,0,0,-0.13333333,0,421.33333)"
       clip-path="url(#clipPath12)" />
    <path
       id="path13"
       d="M 545.832,355 V 2924.17"
       style="fill:none;stroke:#000000;stroke-width:5;stroke-linecap:butt;stroke-linejoin:round;stroke-miterlimit:10;stroke-dasharray:none;stroke-opacity:1"
       transform="matrix(0.13333333,0,0,-0.13333333,0,421.33333)"
       clip-path="url(#clipPath14)" />
    <path
       id="path15"
       d="M 545.832,355 H 3805"
       style="fill:none;stroke:#000000;stroke-width:5;stroke-linecap:butt;stroke-linejoin:round;stroke-miterlimit:10;stroke-dasharray:none;stroke-opacity:1"
       transform="matrix(0.13333333,0,0,-0.13333333,0,421.33333)"
       clip-path="url(#clipPath16)" />
    <path
       id="path17"
       d="M 545.832,355 V 2924.17"
       style="fill:none;stroke:#000000;stroke-width:5;stroke-linecap:butt;stroke-linejoin:round;stroke-miterlimit:10;stroke-dasharray:none;stroke-opacity:1"
       transform="matrix(0.13333333,0,0,-0.13333333,0,421.33333)"
       clip-path="url(#clipPath18)" />
    <path
       id="path19"
       d="m 545.832,355 v 33.332"
       style="fill:none;stroke:#000000;stroke-width:5;stroke-linecap:butt;stroke-linejoin:round;stroke-miterlimit:10;stroke-dasharray:none;stroke-opacity:1"
       transform="matrix(0.13333333,0,0,-0.13333333,0,421.33333)"
       clip-path="url(#clipPath20)" />
    <path
       id="path21"
       d="m 545.832,2923.33 v -32.5"
       style="fill:none;stroke:#000000;stroke-width:5;stroke-linecap:butt;stroke-linejoin:round;stroke-miterlimit:10;stroke-dasharray:none;stroke-opacity:1"
       transform="matrix(0.13333333,0,0,-0.13333333,0,421.33333)"
       clip-path="url(#clipPath22)" />
    <path
       id="path23"
       d="m 2.7527375,-7.2316375 c -0.6679687,0 -1.265625,0.3046875 -1.6289062,0.796875 -0.46875005,0.6328125 -0.6914063,1.59375 -0.6914063,2.9296875 0,2.4492188 0.796875,3.73828125 2.3203125,3.73828125 1.5,0 2.3085938,-1.28906245 2.3085938,-3.66796875 0,-1.40625 -0.2109375,-2.34375 -0.6796875,-3 -0.375,-0.5039062 -0.9609375,-0.796875 -1.6289063,-0.796875 z m 0,0.7851563 c 0.9492188,0 1.4179688,0.9726562 1.4179688,2.9296875 0,2.0507812 -0.46875,3.0117187 -1.4414063,3.0117187 -0.9257812,0 -1.40625,-0.9960937 -1.40625,-2.9882812 0,-1.9804688 0.4804688,-2.953125 1.4296875,-2.953125 z m 0,0"
       style="fill:#000000;fill-opacity:1;fill-rule:nonzero;stroke:none"
       aria-label="0"
       transform="matrix(1.3333333,0,0,1.3333333,69.110933,390.11093)"
       clip-path="url(#clipPath24)" />
    <path
       id="path25"
       d="m 1198.33,355 v 33.332"
       style="fill:none;stroke:#000000;stroke-width:5;stroke-linecap:butt;stroke-linejoin:round;stroke-miterlimit:10;stroke-dasharray:none;stroke-opacity:1"
       transform="matrix(0.13333333,0,0,-0.13333333,0,421.33333)"
       clip-path="url(#clipPath26)" />
    <path
       id="path27"
       d="m 1198.33,2923.33 v -32.5"
       style="fill:none;stroke:#000000;stroke-width:5;stroke-linecap:butt;stroke-linejoin:round;stroke-miterlimit:10;stroke-dasharray:none;stroke-opacity:1"
       transform="matrix(0.13333333,0,0,-0.13333333,0,421.33333)"
       clip-path="url(#clipPath28)" />
    <path
       id="path29"
       d="m 2.7529375,-7.2316375 c -0.6679687,0 -1.265625,0.3046875 -1.6289062,0.796875 -0.46875005,0.6328125 -0.6914063,1.59375 -0.6914063,2.9296875 0,2.4492188 0.796875,3.73828125 2.3203125,3.73828125 1.5,0 2.3085938,-1.28906245 2.3085938,-3.66796875 0,-1.40625 -0.2109375,-2.34375 -0.6796875,-3 -0.375,-0.5039062 -0.9609375,-0.796875 -1.6289063,-0.796875 z m 0,0.7851563 c 0.9492188,0 1.4179688,0.9726562 1.4179688,2.9296875 0,2.0507812 -0.46875,3.0117187 -1.4414063,3.0117187 -0.9257812,0 -1.40625,-0.9960937 -1.40625,-2.9882812 0,-1.9804688 0.4804688,-2.953125 1.4296875,-2.953125 z m 4.7167969,5.4023437 H 6.4267656 v 1.04296875 h 1.0429688 z m 3.6240236,-6.1875 c -0.667969,0 -1.2656252,0.3046875 -1.6289064,0.796875 -0.46875,0.6328125 -0.6914063,1.59375 -0.6914063,2.9296875 0,2.4492188 0.796875,3.73828125 2.3203127,3.73828125 1.5,0 2.308594,-1.28906245 2.308594,-3.66796875 0,-1.40625 -0.210938,-2.34375 -0.679688,-3 -0.375,-0.5039062 -0.960937,-0.796875 -1.628906,-0.796875 z m 0,0.7851563 c 0.949219,0 1.417969,0.9726562 1.417969,2.9296875 0,2.0507812 -0.46875,3.0117187 -1.441407,3.0117187 -0.925781,0 -1.4062497,-0.9960937 -1.4062497,-2.9882812 0,-1.9804688 0.4804687,-2.953125 1.4296877,-2.953125 z m 5.560547,-0.7851563 c -0.667969,0 -1.265625,0.3046875 -1.628907,0.796875 -0.46875,0.6328125 -0.691406,1.59375 -0.691406,2.9296875 0,2.4492188 0.796875,3.73828125 2.320313,3.73828125 1.5,0 2.308593,-1.28906245 2.308593,-3.66796875 0,-1.40625 -0.210937,-2.34375 -0.679687,-3 -0.375,-0.5039062 -0.960938,-0.796875 -1.628906,-0.796875 z m 0,0.7851563 c 0.949218,0 1.417968,0.9726562 1.417968,2.9296875 0,2.0507812 -0.46875,3.0117187 -1.441406,3.0117187 -0.925781,0 -1.40625,-0.9960937 -1.40625,-2.9882812 0,-1.9804688 0.480469,-2.953125 1.429688,-2.953125 z m 7.86914,5.57812495 H 20.785164 C 20.878914,-1.4660125 21.19532,-1.8527312 22.074227,-2.380075 l 0.996093,-0.5625 c 0.984375,-0.5507812 1.5,-1.2890625 1.5,-2.1796875 0,-0.5976562 -0.246093,-1.1601562 -0.65625,-1.546875 -0.421875,-0.375 -0.949218,-0.5625 -1.617187,-0.5625 -0.902344,0 -1.570313,0.328125 -1.957031,0.9375 -0.246094,0.3867188 -0.363282,0.8320313 -0.375,1.5703125 h 0.878906 c 0.02344,-0.4921875 0.08203,-0.7851562 0.210937,-1.0195312 0.222657,-0.4453125 0.679688,-0.7148438 1.21875,-0.7148438 0.796875,0 1.394532,0.5742188 1.394532,1.359375 0,0.5742188 -0.328125,1.078125 -0.960938,1.4414063 l -0.914062,0.5390625 c -1.476563,0.84375 -1.910157,1.5234375 -1.992188,3.1054687 h 4.722656 z m 0,0"
       style="fill:#000000;fill-opacity:1;fill-rule:nonzero;stroke:none"
       aria-label="0.002"
       transform="matrix(1.3333333,0,0,1.3333333,143.11067,390.11093)"
       clip-path="url(#clipPath30)" />
    <path
       id="path31"
       d="m 1850,355 v 33.332"
       style="fill:none;stroke:#000000;stroke-width:5;stroke-linecap:butt;stroke-linejoin:round;stroke-miterlimit:10;stroke-dasharray:none;stroke-opacity:1"
       transform="matrix(0.13333333,0,0,-0.13333333,0,421.33333)"
       clip-path="url(#clipPath32)" />
    <path
       id="path33"
       d="m 1850,2923.33 v -32.5"
       style="fill:none;stroke:#000000;stroke-width:5;stroke-linecap:butt;stroke-linejoin:round;stroke-miterlimit:10;stroke-dasharray:none;stroke-opacity:1"
       transform="matrix(0.13333333,0,0,-0.13333333,0,421.33333)"
       clip-path="url(#clipPath34)" />
    <path
       id="path35"
       d="m 2.7539063,-7.2316375 c -0.6679688,0 -1.2656251,0.3046875 -1.6289063,0.796875 -0.46875,0.6328125 -0.69140625,1.59375 -0.69140625,2.9296875 0,2.4492188 0.79687495,3.73828125 2.32031255,3.73828125 1.4999999,0 2.3085937,-1.28906245 2.3085937,-3.66796875 0,-1.40625 -0.2109375,-2.34375 -0.6796875,-3 -0.375,-0.5039062 -0.9609375,-0.796875 -1.6289062,-0.796875 z m 0,0.7851563 c 0.9492187,0 1.4179687,0.9726562 1.4179687,2.9296875 0,2.0507812 -0.46875,3.0117187 -1.4414062,3.0117187 -0.9257813,0 -1.4062501,-0.9960937 -1.4062501,-2.9882812 0,-1.9804688 0.4804688,-2.953125 1.4296876,-2.953125 z m 4.7167968,5.4023437 H 6.4277344 v 1.04296875 h 1.0429687 z m 3.6240239,-6.1875 c -0.667969,0 -1.2656254,0.3046875 -1.6289067,0.796875 -0.46875,0.6328125 -0.6914062,1.59375 -0.6914062,2.9296875 0,2.4492188 0.796875,3.73828125 2.3203129,3.73828125 1.5,0 2.308593,-1.28906245 2.308593,-3.66796875 0,-1.40625 -0.210937,-2.34375 -0.679687,-3 -0.375,-0.5039062 -0.960938,-0.796875 -1.628906,-0.796875 z m 0,0.7851563 c 0.949218,0 1.417968,0.9726562 1.417968,2.9296875 0,2.0507812 -0.46875,3.0117187 -1.441406,3.0117187 -0.925781,0 -1.4062499,-0.9960937 -1.4062499,-2.9882812 0,-1.9804688 0.4804689,-2.953125 1.4296879,-2.953125 z m 5.560546,-0.7851563 c -0.667968,0 -1.265625,0.3046875 -1.628906,0.796875 -0.46875,0.6328125 -0.691406,1.59375 -0.691406,2.9296875 0,2.4492188 0.796875,3.73828125 2.320312,3.73828125 1.5,0 2.308594,-1.28906245 2.308594,-3.66796875 0,-1.40625 -0.210937,-2.34375 -0.679687,-3 -0.375,-0.5039062 -0.960938,-0.796875 -1.628907,-0.796875 z m 0,0.7851563 c 0.949219,0 1.417969,0.9726562 1.417969,2.9296875 0,2.0507812 -0.46875,3.0117187 -1.441406,3.0117187 -0.925781,0 -1.40625,-0.9960937 -1.40625,-2.9882812 0,-1.9804688 0.480469,-2.953125 1.429687,-2.953125 z m 6.073243,4.6992187 v 1.74609375 h 0.878906 V -1.7472625 h 1.054687 v -0.796875 h -1.054687 v -4.6875 h -0.644531 l -3.222657,4.546875 v 0.9375 z m 0,-0.796875 h -2.214844 l 2.214844,-3.1875 z m 0,0"
       style="fill:#000000;fill-opacity:1;fill-rule:nonzero;stroke:none"
       aria-label="0.004"
       transform="matrix(1.3333333,0,0,1.3333333,230,390.11093)"
       clip-path="url(#clipPath36)" />
    <path
       id="path37"
       d="m 2501.67,355 v 33.332"
       style="fill:none;stroke:#000000;stroke-width:5;stroke-linecap:butt;stroke-linejoin:round;stroke-miterlimit:10;stroke-dasharray:none;stroke-opacity:1"
       transform="matrix(0.13333333,0,0,-0.13333333,0,421.33333)"
       clip-path="url(#clipPath38)" />
    <path
       id="path39"
       d="m 2501.67,2923.33 v -32.5"
       style="fill:none;stroke:#000000;stroke-width:5;stroke-linecap:butt;stroke-linejoin:round;stroke-miterlimit:10;stroke-dasharray:none;stroke-opacity:1"
       transform="matrix(0.13333333,0,0,-0.13333333,0,421.33333)"
       clip-path="url(#clipPath40)" />
    <path
       id="path41"
       d="m 2.754875,-7.2316375 c -0.6679687,0 -1.265625,0.3046875 -1.6289062,0.796875 -0.46875005,0.6328125 -0.6914063,1.59375 -0.6914063,2.9296875 0,2.4492188 0.796875,3.73828125 2.3203125,3.73828125 1.5,0 2.3085938,-1.28906245 2.3085938,-3.66796875 0,-1.40625 -0.2109375,-2.34375 -0.6796875,-3 -0.375,-0.5039062 -0.9609375,-0.796875 -1.6289063,-0.796875 z m 0,0.7851563 c 0.9492188,0 1.4179688,0.9726562 1.4179688,2.9296875 0,2.0507812 -0.46875,3.0117187 -1.4414063,3.0117187 -0.9257812,0 -1.40625,-0.9960937 -1.40625,-2.9882812 0,-1.9804688 0.4804688,-2.953125 1.4296875,-2.953125 z m 4.7138672,5.4023437 H 6.4257734 v 1.04296875 h 1.0429688 z m 3.6240238,-6.1875 c -0.667969,0 -1.2656254,0.3046875 -1.6289066,0.796875 -0.46875,0.6328125 -0.6914063,1.59375 -0.6914063,2.9296875 0,2.4492188 0.796875,3.73828125 2.3203129,3.73828125 1.5,0 2.308593,-1.28906245 2.308593,-3.66796875 0,-1.40625 -0.210937,-2.34375 -0.679687,-3 -0.375,-0.5039062 -0.960938,-0.796875 -1.628906,-0.796875 z m 0,0.7851563 c 0.949218,0 1.417968,0.9726562 1.417968,2.9296875 0,2.0507812 -0.46875,3.0117187 -1.441406,3.0117187 -0.925781,0 -1.4062499,-0.9960937 -1.4062499,-2.9882812 0,-1.9804688 0.4804689,-2.953125 1.4296879,-2.953125 z m 5.560547,-0.7851563 c -0.667969,0 -1.265625,0.3046875 -1.628907,0.796875 -0.46875,0.6328125 -0.691406,1.59375 -0.691406,2.9296875 0,2.4492188 0.796875,3.73828125 2.320313,3.73828125 1.5,0 2.308593,-1.28906245 2.308593,-3.66796875 0,-1.40625 -0.210937,-2.34375 -0.679687,-3 -0.375,-0.5039062 -0.960938,-0.796875 -1.628906,-0.796875 z m 0,0.7851563 c 0.949218,0 1.417968,0.9726562 1.417968,2.9296875 0,2.0507812 -0.46875,3.0117187 -1.441406,3.0117187 -0.925781,0 -1.40625,-0.9960937 -1.40625,-2.9882812 0,-1.9804688 0.480469,-2.953125 1.429688,-2.953125 z m 7.787109,1.1015625 c -0.175781,-1.1835938 -0.9375,-1.8867188 -2.015625,-1.8867188 -0.773438,0 -1.476563,0.3867188 -1.898438,1.03125 -0.445312,0.7148438 -0.632812,1.59375 -0.632812,2.90625 0,1.21875 0.164062,1.9804688 0.597656,2.625 0.375,0.5859375 0.996094,0.90234375 1.78125,0.90234375 1.347656,0 2.320313,-1.01953125 2.320313,-2.42578125 0,-1.3242187 -0.902344,-2.2617187 -2.179688,-2.2617187 -0.691406,0 -1.242187,0.2578125 -1.628906,0.7851562 0.01172,-1.7929687 0.574219,-2.7773437 1.582031,-2.7773437 0.621094,0 1.054688,0.3984375 1.195313,1.1015625 z m -2.132813,1.6640625 c 0.855469,0 1.382813,0.5976562 1.382813,1.5585937 0,0.9140625 -0.597656,1.5703125 -1.40625,1.5703125 -0.820313,0 -1.441406,-0.6914062 -1.441406,-1.6054687 0,-0.9023438 0.597656,-1.5234375 1.464843,-1.5234375 z m 0,0"
       style="fill:#000000;fill-opacity:1;fill-rule:nonzero;stroke:none"
       aria-label="0.006"
       transform="matrix(1.3333333,0,0,1.3333333,316.88933,390.11093)"
       clip-path="url(#clipPath42)" />
    <path
       id="path43"
       d="m 3153.33,355 v 33.332"
       style="fill:none;stroke:#000000;stroke-width:5;stroke-linecap:butt;stroke-linejoin:round;stroke-miterlimit:10;stroke-dasharray:none;stroke-opacity:1"
       transform="matrix(0.13333333,0,0,-0.13333333,0,421.33333)"
       clip-path="url(#clipPath44)" />
    <path
       id="path45"
       d="m 3153.33,2923.33 v -32.5"
       style="fill:none;stroke:#000000;stroke-width:5;stroke-linecap:butt;stroke-linejoin:round;stroke-miterlimit:10;stroke-dasharray:none;stroke-opacity:1"
       transform="matrix(0.13333333,0,0,-0.13333333,0,421.33333)"
       clip-path="url(#clipPath46)" />
    <path
       id="path47"
       d="m 2.7539141,-7.2316375 c -0.6679688,0 -1.265625,0.3046875 -1.6289063,0.796875 -0.46874999,0.6328125 -0.69140624,1.59375 -0.69140624,2.9296875 0,2.4492188 0.79687504,3.73828125 2.32031254,3.73828125 1.5,0 2.3085937,-1.28906245 2.3085937,-3.66796875 0,-1.40625 -0.2109375,-2.34375 -0.6796875,-3 -0.375,-0.5039062 -0.9609375,-0.796875 -1.6289062,-0.796875 z m 0,0.7851563 c 0.9492187,0 1.4179687,0.9726562 1.4179687,2.9296875 0,2.0507812 -0.46875,3.0117187 -1.4414062,3.0117187 -0.9257813,0 -1.40625,-0.9960937 -1.40625,-2.9882812 0,-1.9804688 0.4804687,-2.953125 1.4296875,-2.953125 z m 4.7167968,5.4023437 H 6.4277422 v 1.04296875 h 1.0429687 z m 3.6240231,-6.1875 c -0.667968,0 -1.2656246,0.3046875 -1.6289059,0.796875 -0.46875,0.6328125 -0.6914062,1.59375 -0.6914062,2.9296875 0,2.4492188 0.796875,3.73828125 2.3203121,3.73828125 1.5,0 2.308594,-1.28906245 2.308594,-3.66796875 0,-1.40625 -0.210937,-2.34375 -0.679687,-3 -0.375,-0.5039062 -0.960938,-0.796875 -1.628907,-0.796875 z m 0,0.7851563 c 0.949219,0 1.417969,0.9726562 1.417969,2.9296875 0,2.0507812 -0.46875,3.0117187 -1.441406,3.0117187 -0.925781,0 -1.4062501,-0.9960937 -1.4062501,-2.9882812 0,-1.9804688 0.4804691,-2.953125 1.4296871,-2.953125 z m 5.560547,-0.7851563 c -0.667968,0 -1.265625,0.3046875 -1.628906,0.796875 -0.46875,0.6328125 -0.691406,1.59375 -0.691406,2.9296875 0,2.4492188 0.796875,3.73828125 2.320312,3.73828125 1.5,0 2.308594,-1.28906245 2.308594,-3.66796875 0,-1.40625 -0.210937,-2.34375 -0.679687,-3 -0.375,-0.5039062 -0.960938,-0.796875 -1.628907,-0.796875 z m 0,0.7851563 c 0.949219,0 1.417969,0.9726562 1.417969,2.9296875 0,2.0507812 -0.46875,3.0117187 -1.441406,3.0117187 -0.925781,0 -1.40625,-0.9960937 -1.40625,-2.9882812 0,-1.9804688 0.480469,-2.953125 1.429687,-2.953125 z m 6.717774,2.6367187 c 0.738281,-0.4453125 0.960937,-0.8085937 0.960937,-1.4882812 0,-1.1367188 -0.867187,-1.9335938 -2.121094,-1.9335938 -1.253906,0 -2.132812,0.796875 -2.132812,1.921875 0,0.6914063 0.234375,1.0429688 0.960937,1.5 -0.808593,0.4101563 -1.207031,0.9960938 -1.207031,1.8046875 0,1.3125 0.960938,2.23828125 2.378906,2.23828125 1.394532,0 2.378907,-0.92578125 2.378907,-2.23828125 0,-0.8085937 -0.410157,-1.3945312 -1.21875,-1.8046875 z m -1.160157,-2.6367187 c 0.75,0 1.21875,0.4453125 1.21875,1.171875 0,0.6796875 -0.480468,1.125 -1.21875,1.125 -0.75,0 -1.230468,-0.4453125 -1.230468,-1.1484375 0,-0.703125 0.480468,-1.1484375 1.230468,-1.1484375 z m 0,3.0351562 c 0.878907,0 1.476563,0.5859375 1.476563,1.4179688 0,0.8671875 -0.597656,1.4414062 -1.5,1.4414062 -0.855469,0 -1.464844,-0.5859375 -1.464844,-1.4296875 0,-0.8554687 0.597656,-1.4296875 1.488281,-1.4296875 z m 0,0"
       style="fill:#000000;fill-opacity:1;fill-rule:nonzero;stroke:none"
       aria-label="0.008"
       transform="matrix(1.3333333,0,0,1.3333333,403.77733,390.11093)"
       clip-path="url(#clipPath48)" />
    <path
       id="path49"
       d="m 3805,355 v 33.332"
       style="fill:none;stroke:#000000;stroke-width:5;stroke-linecap:butt;stroke-linejoin:round;stroke-miterlimit:10;stroke-dasharray:none;stroke-opacity:1"
       transform="matrix(0.13333333,0,0,-0.13333333,0,421.33333)"
       clip-path="url(#clipPath50)" />
    <path
       id="path51"
       d="m 3805,2923.33 v -32.5"
       style="fill:none;stroke:#000000;stroke-width:5;stroke-linecap:butt;stroke-linejoin:round;stroke-miterlimit:10;stroke-dasharray:none;stroke-opacity:1"
       transform="matrix(0.13333333,0,0,-0.13333333,0,421.33333)"
       clip-path="url(#clipPath52)" />
    <path
       id="path53"
       d="m 2.7548906,-7.2316375 c -0.6679687,0 -1.265625,0.3046875 -1.6289062,0.796875 -0.46875002,0.6328125 -0.69140627,1.59375 -0.69140627,2.9296875 0,2.4492188 0.79687497,3.73828125 2.32031247,3.73828125 1.5,0 2.3085938,-1.28906245 2.3085938,-3.66796875 0,-1.40625 -0.2109375,-2.34375 -0.6796875,-3 -0.375,-0.5039062 -0.9609375,-0.796875 -1.6289063,-0.796875 z m 0,0.7851563 c 0.9492188,0 1.4179688,0.9726562 1.4179688,2.9296875 0,2.0507812 -0.46875,3.0117187 -1.4414063,3.0117187 -0.9257812,0 -1.40625,-0.9960937 -1.40625,-2.9882812 0,-1.9804688 0.4804688,-2.953125 1.4296875,-2.953125 z m 4.7138672,5.4023437 H 6.4257891 v 1.04296875 h 1.0429687 z m 3.6240232,-6.1875 c -0.667968,0 -1.2656247,0.3046875 -1.628906,0.796875 -0.46875,0.6328125 -0.6914062,1.59375 -0.6914062,2.9296875 0,2.4492188 0.796875,3.73828125 2.3203122,3.73828125 1.5,0 2.308594,-1.28906245 2.308594,-3.66796875 0,-1.40625 -0.210937,-2.34375 -0.679687,-3 -0.375,-0.5039062 -0.960938,-0.796875 -1.628907,-0.796875 z m 0,0.7851563 c 0.949219,0 1.417969,0.9726562 1.417969,2.9296875 0,2.0507812 -0.46875,3.0117187 -1.441406,3.0117187 -0.925781,0 -1.4062502,-0.9960937 -1.4062502,-2.9882812 0,-1.9804688 0.4804692,-2.953125 1.4296872,-2.953125 z M 16.489266,-5.1457 v 5.14453125 h 0.878906 V -7.2316375 h -0.574219 c -0.316406,1.1132813 -0.515625,1.265625 -1.875,1.4414063 V -5.1457 Z m 0,0"
       style="fill:#000000;fill-opacity:1;fill-rule:nonzero;stroke:none"
       aria-label="0.01"
       transform="matrix(1.3333333,0,0,1.3333333,494.444,390.11093)"
       clip-path="url(#clipPath54)" />
    <path
       id="path55"
       d="m 545.832,355 h 33.336"
       style="fill:none;stroke:#000000;stroke-width:5;stroke-linecap:butt;stroke-linejoin:round;stroke-miterlimit:10;stroke-dasharray:none;stroke-opacity:1"
       transform="matrix(0.13333333,0,0,-0.13333333,0,421.33333)"
       clip-path="url(#clipPath56)" />
    <path
       id="path57"
       d="m 3805,355 h -33.33"
       style="fill:none;stroke:#000000;stroke-width:5;stroke-linecap:butt;stroke-linejoin:round;stroke-miterlimit:10;stroke-dasharray:none;stroke-opacity:1"
       transform="matrix(0.13333333,0,0,-0.13333333,0,421.33333)"
       clip-path="url(#clipPath58)" />
    <path
       id="path59"
       d="m 2.7548828,-7.2293 c -0.6679687,0 -1.265625,0.3046875 -1.6289062,0.796875 -0.46875004,0.6328125 -0.69140629,1.59375 -0.69140629,2.9296875 0,2.4492188 0.79687499,3.73828125 2.32031249,3.73828125 1.5,0 2.3085938,-1.28906245 2.3085938,-3.66796875 0,-1.40625 -0.2109375,-2.34375 -0.6796875,-3 C 4.0087891,-6.9363312 3.4228516,-7.2293 2.7548828,-7.2293 Z m 0,0.7851563 c 0.9492188,0 1.4179688,0.9726562 1.4179688,2.9296875 0,2.0507812 -0.46875,3.0117187 -1.4414063,3.0117187 -0.9257812,0 -1.40625,-0.9960937 -1.40625,-2.9882812 0,-1.9804688 0.4804688,-2.953125 1.4296875,-2.953125 z m 0,0"
       style="fill:#000000;fill-opacity:1;fill-rule:nonzero;stroke:none"
       aria-label="0"
       transform="matrix(1.3333333,0,0,1.3333333,61.666667,378.88907)"
       clip-path="url(#clipPath60)" />
    <path
       id="path61"
       d="m 545.832,722.5 h 33.336"
       style="fill:none;stroke:#000000;stroke-width:5;stroke-linecap:butt;stroke-linejoin:round;stroke-miterlimit:10;stroke-dasharray:none;stroke-opacity:1"
       transform="matrix(0.13333333,0,0,-0.13333333,0,421.33333)"
       clip-path="url(#clipPath62)" />
    <path
       id="path63"
       d="m 3805,722.5 h -33.33"
       style="fill:none;stroke:#000000;stroke-width:5;stroke-linecap:butt;stroke-linejoin:round;stroke-miterlimit:10;stroke-dasharray:none;stroke-opacity:1"
       transform="matrix(0.13333333,0,0,-0.13333333,0,421.33333)"
       clip-path="url(#clipPath64)" />
    <path
       id="path65"
       d="m 2.7531219,-7.2293 c -0.6679688,0 -1.265625,0.3046875 -1.6289063,0.796875 -0.46874997,0.6328125 -0.69140622,1.59375 -0.69140622,2.9296875 0,2.4492188 0.79687502,3.73828125 2.32031252,3.73828125 1.5,0 2.3085937,-1.28906245 2.3085937,-3.66796875 0,-1.40625 -0.2109375,-2.34375 -0.6796875,-3 C 4.0070281,-6.9363312 3.4210906,-7.2293 2.7531219,-7.2293 Z m 0,0.7851563 c 0.9492187,0 1.4179687,0.9726562 1.4179687,2.9296875 0,2.0507812 -0.46875,3.0117187 -1.4414062,3.0117187 -0.9257813,0 -1.40625,-0.9960937 -1.40625,-2.9882812 0,-1.9804688 0.4804687,-2.953125 1.4296875,-2.953125 z M 7.4699188,-1.0418 H 6.42695 V 0.00116875 H 7.4699188 Z M 13.097848,-7.088675 H 9.4415984 l -0.5273437,3.8554688 h 0.8085937 c 0.4101566,-0.4804688 0.7499996,-0.65625 1.3007816,-0.65625 0.949218,0 1.546875,0.65625 1.546875,1.6992187 0,1.0195313 -0.597657,1.640625 -1.546875,1.640625 -0.773438,0 -1.2421878,-0.38671875 -1.4531253,-1.1835937 H 8.6915984 c 0.1171875,0.5742187 0.2226563,0.8554687 0.4335938,1.1132812 0.3984375,0.5390625 1.1132808,0.85546875 1.9101558,0.85546875 1.429688,0 2.4375,-1.04296875 2.4375,-2.54296875 0,-1.3945312 -0.9375,-2.3554687 -2.296875,-2.3554687 -0.492187,0 -0.902343,0.1289062 -1.3007808,0.421875 l 0.2695308,-1.9804688 h 2.953125 z m 0,0"
       style="fill:#000000;fill-opacity:1;fill-rule:nonzero;stroke:none"
       aria-label="0.5"
       transform="matrix(1.3333333,0,0,1.3333333,50.555733,329.88907)"
       clip-path="url(#clipPath66)" />
    <path
       id="path67"
       d="m 545.832,1089.17 h 33.336"
       style="fill:none;stroke:#000000;stroke-width:5;stroke-linecap:butt;stroke-linejoin:round;stroke-miterlimit:10;stroke-dasharray:none;stroke-opacity:1"
       transform="matrix(0.13333333,0,0,-0.13333333,0,421.33333)"
       clip-path="url(#clipPath68)" />
    <path
       id="path69"
       d="m 3805,1089.17 h -33.33"
       style="fill:none;stroke:#000000;stroke-width:5;stroke-linecap:butt;stroke-linejoin:round;stroke-miterlimit:10;stroke-dasharray:none;stroke-opacity:1"
       transform="matrix(0.13333333,0,0,-0.13333333,0,421.33333)"
       clip-path="url(#clipPath70)" />
    <path
       id="path71"
       d="M 2.5908203,-5.1445312 V 0 H 3.4697266 V -7.2304687 H 2.8955078 c -0.3164062,1.1132812 -0.515625,1.265625 -1.875,1.4414062 v 0.6445313 z m 0,0"
       style="fill:#000000;fill-opacity:1;fill-rule:nonzero;stroke:none"
       aria-label="1"
       transform="matrix(1.3333333,0,0,1.3333333,61.666667,281)"
       clip-path="url(#clipPath72)" />
    <path
       id="path73"
       d="m 545.832,1455.83 h 33.336"
       style="fill:none;stroke:#000000;stroke-width:5;stroke-linecap:butt;stroke-linejoin:round;stroke-miterlimit:10;stroke-dasharray:none;stroke-opacity:1"
       transform="matrix(0.13333333,0,0,-0.13333333,0,421.33333)"
       clip-path="url(#clipPath74)" />
    <path
       id="path75"
       d="m 3805,1455.83 h -33.33"
       style="fill:none;stroke:#000000;stroke-width:5;stroke-linecap:butt;stroke-linejoin:round;stroke-miterlimit:10;stroke-dasharray:none;stroke-opacity:1"
       transform="matrix(0.13333333,0,0,-0.13333333,0,421.33333)"
       clip-path="url(#clipPath76)" />
    <path
       id="path77"
       d="M 2.5890594,-5.1455 V -9.6875e-4 H 3.4679656 V -7.2314375 H 2.8937469 c -0.3164063,1.1132813 -0.515625,1.265625 -1.875,1.4414063 V -5.1455 Z m 4.8808594,4.1015625 H 6.42695 v 1.04296875 h 1.0429688 z m 5.6279292,-6.046875 H 9.4415984 l -0.5273437,3.8554688 h 0.8085937 c 0.4101566,-0.4804688 0.7499996,-0.65625 1.3007816,-0.65625 0.949218,0 1.546875,0.65625 1.546875,1.6992187 0,1.0195313 -0.597657,1.640625 -1.546875,1.640625 -0.773438,0 -1.2421878,-0.38671875 -1.4531253,-1.1835937 H 8.6915984 c 0.1171875,0.5742187 0.2226563,0.8554687 0.4335938,1.1132812 0.3984375,0.5390625 1.1132808,0.85546875 1.9101558,0.85546875 1.429688,0 2.4375,-1.04296875 2.4375,-2.54296875 0,-1.3945312 -0.9375,-2.3554687 -2.296875,-2.3554687 -0.492187,0 -0.902343,0.1289062 -1.3007808,0.421875 L 10.144723,-6.223625 h 2.953125 z m 0,0"
       style="fill:#000000;fill-opacity:1;fill-rule:nonzero;stroke:none"
       aria-label="1.5"
       transform="matrix(1.3333333,0,0,1.3333333,50.555733,232.11067)"
       clip-path="url(#clipPath78)" />
    <path
       id="path79"
       d="m 545.832,1823.33 h 33.336"
       style="fill:none;stroke:#000000;stroke-width:5;stroke-linecap:butt;stroke-linejoin:round;stroke-miterlimit:10;stroke-dasharray:none;stroke-opacity:1"
       transform="matrix(0.13333333,0,0,-0.13333333,0,421.33333)"
       clip-path="url(#clipPath80)" />
    <path
       id="path81"
       d="m 3805,1823.33 h -33.33"
       style="fill:none;stroke:#000000;stroke-width:5;stroke-linecap:butt;stroke-linejoin:round;stroke-miterlimit:10;stroke-dasharray:none;stroke-opacity:1"
       transform="matrix(0.13333333,0,0,-0.13333333,0,421.33333)"
       clip-path="url(#clipPath82)" />
    <path
       id="path83"
       d="M 5.0634766,-0.86815625 H 1.3251953 C 1.4189453,-1.4658125 1.7353516,-1.8525312 2.6142578,-2.379875 l 0.9960938,-0.5625 c 0.984375,-0.5507812 1.5,-1.2890625 1.5,-2.1796875 0,-0.5976562 -0.2460938,-1.1601562 -0.65625,-1.546875 -0.421875,-0.375 -0.9492188,-0.5625 -1.6171875,-0.5625 -0.9023438,0 -1.5703125,0.328125 -1.95703129,0.9375 -0.24609375,0.3867188 -0.36328125,0.8320313 -0.375,1.5703125 H 1.3837891 C 1.4072266,-5.2158125 1.4658203,-5.5087812 1.5947266,-5.7431562 1.8173828,-6.1884687 2.2744141,-6.458 2.8134766,-6.458 c 0.796875,0 1.3945312,0.5742188 1.3945312,1.359375 0,0.5742188 -0.328125,1.078125 -0.9609375,1.4414063 l -0.9140625,0.5390625 c -1.47656249,0.84375 -1.91015624,1.5234375 -1.99218749,3.1054687 H 5.0634766 Z m 0,0"
       style="fill:#000000;fill-opacity:1;fill-rule:nonzero;stroke:none"
       aria-label="2"
       transform="matrix(1.3333333,0,0,1.3333333,61.666667,183.11067)"
       clip-path="url(#clipPath84)" />
    <path
       id="path85"
       d="m 545.832,2190 h 33.336"
       style="fill:none;stroke:#000000;stroke-width:5;stroke-linecap:butt;stroke-linejoin:round;stroke-miterlimit:10;stroke-dasharray:none;stroke-opacity:1"
       transform="matrix(0.13333333,0,0,-0.13333333,0,421.33333)"
       clip-path="url(#clipPath86)" />
    <path
       id="path87"
       d="m 3805,2190 h -33.33"
       style="fill:none;stroke:#000000;stroke-width:5;stroke-linecap:butt;stroke-linejoin:round;stroke-miterlimit:10;stroke-dasharray:none;stroke-opacity:1"
       transform="matrix(0.13333333,0,0,-0.13333333,0,421.33333)"
       clip-path="url(#clipPath88)" />
    <path
       id="path89"
       d="M 5.0617156,-0.86719531 H 1.3234344 C 1.4171844,-1.4648516 1.7335906,-1.8515703 2.6124969,-2.3789141 l 0.9960937,-0.5625 c 0.984375,-0.5507812 1.5,-1.2890625 1.5,-2.1796875 0,-0.5976562 -0.2460937,-1.1601562 -0.65625,-1.546875 -0.421875,-0.375 -0.9492187,-0.5625 -1.6171875,-0.5625 -0.9023437,0 -1.5703125,0.328125 -1.95703122,0.9375 -0.24609375,0.3867188 -0.36328125,0.8320313 -0.375,1.5703125 H 1.3820281 c 0.023437,-0.4921875 0.082031,-0.7851562 0.2109375,-1.0195312 0.2226563,-0.4453125 0.6796875,-0.7148438 1.21875,-0.7148438 0.796875,0 1.3945313,0.5742188 1.3945313,1.359375 0,0.5742188 -0.328125,1.078125 -0.9609375,1.4414063 l -0.9140625,0.5390625 c -1.47656252,0.84375 -1.91015627,1.5234375 -1.99218752,3.10546874 H 5.0617156 Z M 7.4699188,-1.0429766 H 6.42695 V -7.8125e-6 h 1.0429688 z m 5.6279292,-6.046875 H 9.4415984 l -0.5273437,3.8554688 h 0.8085937 c 0.4101566,-0.4804688 0.7499996,-0.65625 1.3007816,-0.65625 0.949218,0 1.546875,0.65625 1.546875,1.6992187 0,1.0195313 -0.597657,1.64062504 -1.546875,1.64062504 -0.773438,0 -1.2421878,-0.38671875 -1.4531253,-1.18359374 H 8.6915984 c 0.1171875,0.5742187 0.2226563,0.85546874 0.4335938,1.11328124 0.3984375,0.5390625 1.1132808,0.85546875 1.9101558,0.85546875 1.429688,0 2.4375,-1.04296875 2.4375,-2.54296879 0,-1.3945312 -0.9375,-2.3554687 -2.296875,-2.3554687 -0.492187,0 -0.902343,0.1289062 -1.3007808,0.421875 l 0.2695308,-1.9804688 h 2.953125 z m 0,0"
       style="fill:#000000;fill-opacity:1;fill-rule:nonzero;stroke:none"
       aria-label="2.5"
       transform="matrix(1.3333333,0,0,1.3333333,50.555733,134.22267)"
       clip-path="url(#clipPath90)" />
    <path
       id="path91"
       d="m 545.832,2556.67 h 33.336"
       style="fill:none;stroke:#000000;stroke-width:5;stroke-linecap:butt;stroke-linejoin:round;stroke-miterlimit:10;stroke-dasharray:none;stroke-opacity:1"
       transform="matrix(0.13333333,0,0,-0.13333333,0,421.33333)"
       clip-path="url(#clipPath92)" />
    <path
       id="path93"
       d="m 3805,2556.67 h -33.33"
       style="fill:none;stroke:#000000;stroke-width:5;stroke-linecap:butt;stroke-linejoin:round;stroke-miterlimit:10;stroke-dasharray:none;stroke-opacity:1"
       transform="matrix(0.13333333,0,0,-0.13333333,0,421.33333)"
       clip-path="url(#clipPath94)" />
    <path
       id="path95"
       d="m 2.2158203,-3.3291016 h 0.46875 c 0.9609375,0 1.4765625,0.4453125 1.4765625,1.3242188 0,0.9023437 -0.5507812,1.45312499 -1.4648437,1.45312499 -0.9609375,0 -1.4414063,-0.49218749 -1.5,-1.54687499 H 0.31738281 c 0.046875,0.5742187 0.140625,0.9609375 0.31640625,1.27734374 0.36328125,0.703125 1.05468754,1.0546875 2.02734374,1.0546875 1.453125,0 2.4023438,-0.87890625 2.4023438,-2.25000004 0,-0.9257812 -0.3515625,-1.4179687 -1.2070313,-1.7226562 0.6679688,-0.2695313 0.9960938,-0.7734375 0.9960938,-1.5 0,-1.2421875 -0.8085938,-1.9921875 -2.1679688,-1.9921875 -1.4296875,0 -2.17968749,0.8085937 -2.21484374,2.3320312 H 1.3486328 c 0.011719,-0.4453125 0.046875,-0.6914062 0.1640625,-0.9140625 0.1992188,-0.4101562 0.6328125,-0.6445312 1.1835938,-0.6445312 0.7851562,0 1.2539062,0.46875 1.2539062,1.2539062 0,0.5039063 -0.1757812,0.8203125 -0.5742187,0.984375 -0.234375,0.1054688 -0.5507813,0.140625 -1.1601563,0.1523438 z m 0,0"
       style="fill:#000000;fill-opacity:1;fill-rule:nonzero;stroke:none"
       aria-label="3"
       transform="matrix(1.3333333,0,0,1.3333333,61.666667,85.333333)"
       clip-path="url(#clipPath96)" />
    <path
       id="path97"
       d="m 545.832,2923.33 h 33.336"
       style="fill:none;stroke:#000000;stroke-width:5;stroke-linecap:butt;stroke-linejoin:round;stroke-miterlimit:10;stroke-dasharray:none;stroke-opacity:1"
       transform="matrix(0.13333333,0,0,-0.13333333,0,421.33333)"
       clip-path="url(#clipPath98)" />
    <path
       id="path99"
       d="m 3805,2923.33 h -33.33"
       style="fill:none;stroke:#000000;stroke-width:5;stroke-linecap:butt;stroke-linejoin:round;stroke-miterlimit:10;stroke-dasharray:none;stroke-opacity:1"
       transform="matrix(0.13333333,0,0,-0.13333333,0,421.33333)"
       clip-path="url(#clipPath100)" />
    <path
       id="path101"
       d="m 1.4757781,-2.2138594 h 0.3164063 c 0.6445312,0 0.984375,0.2929688 0.984375,0.8789063 0,0.59765623 -0.375,0.97265623 -0.9726563,0.97265623 -0.65625,0 -0.96093747,-0.328125 -1.00781247,-1.03125003 h -0.5859375 c 0.0234375,0.3867188 0.09375,0.63281253 0.2109375,0.84375003 0.24609375,0.46875 0.70312497,0.703125 1.34765627,0.703125 0.9726562,0 1.6054687,-0.5859375 1.6054687,-1.50000003 0,-0.609375 -0.234375,-0.9492187 -0.796875,-1.1484375 0.4335938,-0.1757812 0.65625,-0.515625 0.65625,-0.9960937 0,-0.8320313 -0.5390625,-1.3242188 -1.4414062,-1.3242188 -0.94921877,0 -1.46484377,0.5273438 -1.47656252,1.546875 h 0.5859375 c 0,-0.2929687 0.0351563,-0.4570312 0.10546872,-0.609375 0.1289063,-0.2695312 0.421875,-0.4335937 0.796875,-0.4335937 0.515625,0 0.8320313,0.3164062 0.8320313,0.84375 0,0.3398437 -0.1171875,0.5390625 -0.3867188,0.65625 -0.1523437,0.070312 -0.375,0.09375 -0.7734375,0.09375 z m 5.3613282,1.52343753 H 6.1457 V 9.84375e-4 H 6.8371063 Z M 11.515817,-4.7216719 H 9.0783172 l -0.3632813,2.5664063 h 0.5507813 c 0.2695312,-0.328125 0.4921875,-0.4335938 0.8671878,-0.4335938 0.632812,0 1.03125,0.4335938 1.03125,1.125 0,0.67968753 -0.398438,1.10156253 -1.042969,1.10156253 -0.5039063,0 -0.8203126,-0.2578125 -0.9609376,-0.79687503 H 8.5744109 c 0.082031,0.38671878 0.140625,0.57421878 0.28125,0.75000003 0.2695313,0.3515625 0.75,0.5625 1.2890621,0.5625 0.949219,0 1.617188,-0.69140625 1.617188,-1.68750003 0,-0.9375 -0.621094,-1.5820312 -1.523438,-1.5820312 -0.3398433,0 -0.6093746,0.09375 -0.8789058,0.2929687 l 0.1875,-1.3242187 h 1.9687498 z m 7.095703,-5.25 1.171875,-1.6875001 h -0.621093 l -0.84375,1.265625 -0.84375,-1.265625 h -0.632813 l 1.171875,1.7109376 -1.230469,1.78125 h 0.632813 l 0.878906,-1.3359375 0.878906,1.3359375 h 0.644532 z m 7.558594,-1.6289061 v 3.4335936 h 0.585938 v -4.8164066 h -0.386719 c -0.199219,0.738282 -0.339844,0.832032 -1.242188,0.960938 v 0.421875 z m 5.663086,-1.382813 c -0.433594,0 -0.832031,0.199219 -1.078125,0.527344 -0.304687,0.421875 -0.46875,1.066406 -0.46875,1.957031 0,1.6289066 0.539063,2.4843754 1.546875,2.4843754 1.007813,0 1.546875,-0.8554688 1.546875,-2.4492184 0,-0.925782 -0.140625,-1.558594 -0.457031,-1.992188 -0.246094,-0.339844 -0.632813,-0.527344 -1.089844,-0.527344 z m 0,0.515625 c 0.644531,0 0.949219,0.644532 0.949219,1.957032 0,1.3710934 -0.304688,2.0156246 -0.960938,2.0156246 -0.621093,0 -0.925781,-0.6679687 -0.925781,-2.0039066 0,-1.324218 0.304688,-1.96875 0.9375,-1.96875 z m 6.84375,-6.588867 h -2.4375 l -0.363281,2.566406 h 0.550781 c 0.269531,-0.328125 0.492188,-0.433593 0.867188,-0.433593 0.632812,0 1.03125,0.433593 1.03125,1.125 0,0.679687 -0.398438,1.101562 -1.042969,1.101562 -0.503906,0 -0.820313,-0.257812 -0.960938,-0.796875 h -0.585937 c 0.08203,0.386719 0.140625,0.574219 0.28125,0.75 0.269531,0.351563 0.75,0.5625 1.289062,0.5625 0.949219,0 1.617188,-0.691406 1.617188,-1.6875 0,-0.9375 -0.621094,-1.582031 -1.523438,-1.582031 -0.339843,0 -0.609375,0.09375 -0.878906,0.292969 l 0.1875,-1.324219 h 1.96875 z m 0,0"
       style="fill:#000000;fill-opacity:1;fill-rule:nonzero;stroke:none"
       aria-label="3.5&#10;x 10&#10;5"
       transform="matrix(1.3333333,0,0,1.3333333,50.555733,36.444)"
       clip-path="url(#clipPath102)" />
    <path
       id="path103"
       d="M 545.832,2924.17 H 3805"
       style="fill:none;stroke:#000000;stroke-width:5;stroke-linecap:butt;stroke-linejoin:round;stroke-miterlimit:10;stroke-dasharray:none;stroke-opacity:1"
       transform="matrix(0.13333333,0,0,-0.13333333,0,421.33333)"
       clip-path="url(#clipPath104)" />
    <path
       id="path105"
       d="M 545.832,355 H 3805"
       style="fill:none;stroke:#000000;stroke-width:5;stroke-linecap:butt;stroke-linejoin:round;stroke-miterlimit:10;stroke-dasharray:none;stroke-opacity:1"
       transform="matrix(0.13333333,0,0,-0.13333333,0,421.33333)"
       clip-path="url(#clipPath106)" />
    <path
       id="path107"
       d="M 3805,355 V 2924.17"
       style="fill:none;stroke:#000000;stroke-width:5;stroke-linecap:butt;stroke-linejoin:round;stroke-miterlimit:10;stroke-dasharray:none;stroke-opacity:1"
       transform="matrix(0.13333333,0,0,-0.13333333,0,421.33333)"
       clip-path="url(#clipPath108)" />
    <path
       id="path109"
       d="M 545.832,355 V 2924.17"
       style="fill:none;stroke:#000000;stroke-width:5;stroke-linecap:butt;stroke-linejoin:round;stroke-miterlimit:10;stroke-dasharray:none;stroke-opacity:1"
       transform="matrix(0.13333333,0,0,-0.13333333,0,421.33333)"
       clip-path="url(#clipPath110)" />
    <path
       id="path111"
       d="M 546.668,355.832 565,385 l 19.168,29.168 18.332,29.164 19.168,29.168 18.332,30 19.168,29.168 18.332,29.164 19.168,29.168 18.332,30 19.168,29.168 18.332,29.164 19.168,29.168 18.332,29.168 19.168,30 18.332,29.164 19.168,29.168 18.332,29.168 19.168,30 19.164,29.164 18.336,29.168 19.164,29.168 18.336,29.162 19.164,30 18.336,29.17 19.162,29.17 18.34,29.16 19.16,30 18.34,29.17 19.16,29.17 18.34,29.16 19.16,29.17 18.34,30 19.16,29.17 18.34,29.16 19.16,29.17 19.17,30 18.33,29.17 19.17,29.16 18.33,29.17 19.17,29.17 18.33,30 19.17,29.16 66.67,29.17 67.5,29.17 66.66,30 67.5,29.16 66.67,29.17 67.5,29.17 66.67,29.16 67.5,30 66.66,29.17 67.5,29.17 66.67,29.16 67.5,30 66.67,29.17 67.5,29.17 66.66,29.16 67.5,29.17 66.67,30 67.5,29.17 67.5,29.16 66.67,29.17 67.5,30 66.66,29.17 67.5,29.16 66.67,29.17 67.5,29.17 66.67,30 67.5,29.16 66.66,29.17 67.5,29.17 66.67,30 67.5,29.16 66.67,29.17 67.5,29.17 66.66,29.16"
       style="fill:none;stroke:#0000ff;stroke-width:5;stroke-linecap:butt;stroke-linejoin:round;stroke-miterlimit:10;stroke-dasharray:none;stroke-opacity:1"
       transform="matrix(0.13333333,0,0,-0.13333333,0,421.33333)"
       clip-path="url(#clipPath112)" />
  </g>
</svg>
