<?xml version="1.0" encoding="UTF-8" standalone="no"?>
<!-- Created with Inkscape (http://www.inkscape.org/) -->

<svg
   version="1.1"
   id="svg1"
   width="365.41333"
   height="274.50668"
   viewBox="0 0 365.41333 274.50668"
   sodipodi:docname="exs1_x.eps"
   xmlns:inkscape="http://www.inkscape.org/namespaces/inkscape"
   xmlns:sodipodi="http://sodipodi.sourceforge.net/DTD/sodipodi-0.dtd"
   xmlns="http://www.w3.org/2000/svg"
   xmlns:svg="http://www.w3.org/2000/svg">
  <defs
     id="defs1" />
  <sodipodi:namedview
     id="namedview1"
     pagecolor="#ffffff"
     bordercolor="#000000"
     borderopacity="0.25"
     inkscape:showpageshadow="2"
     inkscape:pageopacity="0.0"
     inkscape:pagecheckerboard="0"
     inkscape:deskcolor="#d1d1d1">
    <inkscape:page
       x="0"
       y="0"
       inkscape:label="1"
       id="page1"
       width="365.41333"
       height="274.50668"
       margin="0"
       bleed="0" />
  </sodipodi:namedview>
  <g
     id="g1"
     inkscape:groupmode="layer"
     inkscape:label="1">
    <path
       id="path1"
       d="m 1507.25,239.25 27,63"
       style="fill:none;stroke:#231f20;stroke-width:5;stroke-linecap:butt;stroke-linejoin:miter;stroke-miterlimit:3.8637;stroke-dasharray:none;stroke-opacity:1"
       transform="matrix(0.13333333,0,0,-0.13333333,0,274.50667)" />
    <path
       id="path2"
       d="m 1534.25,302.25 52,-127"
       style="fill:none;stroke:#231f20;stroke-width:5;stroke-linecap:butt;stroke-linejoin:miter;stroke-miterlimit:3.8637;stroke-dasharray:none;stroke-opacity:1"
       transform="matrix(0.13333333,0,0,-0.13333333,0,274.50667)" />
    <path
       id="path3"
       d="m 1586.25,175.25 53,127"
       style="fill:none;stroke:#231f20;stroke-width:5;stroke-linecap:butt;stroke-linejoin:miter;stroke-miterlimit:3.8637;stroke-dasharray:none;stroke-opacity:1"
       transform="matrix(0.13333333,0,0,-0.13333333,0,274.50667)" />
    <path
       id="path4"
       d="m 1639.25,302.25 53,-127"
       style="fill:none;stroke:#231f20;stroke-width:5;stroke-linecap:butt;stroke-linejoin:miter;stroke-miterlimit:3.8637;stroke-dasharray:none;stroke-opacity:1"
       transform="matrix(0.13333333,0,0,-0.13333333,0,274.50667)" />
    <path
       id="path5"
       d="m 1692.25,175.25 52,127"
       style="fill:none;stroke:#231f20;stroke-width:5;stroke-linecap:butt;stroke-linejoin:miter;stroke-miterlimit:3.8637;stroke-dasharray:none;stroke-opacity:1"
       transform="matrix(0.13333333,0,0,-0.13333333,0,274.50667)" />
    <path
       id="path6"
       d="m 1744.25,302.25 53,-127"
       style="fill:none;stroke:#231f20;stroke-width:5;stroke-linecap:butt;stroke-linejoin:miter;stroke-miterlimit:3.8637;stroke-dasharray:none;stroke-opacity:1"
       transform="matrix(0.13333333,0,0,-0.13333333,0,274.50667)" />
    <path
       id="path7"
       d="m 1797.25,175.25 53,127"
       style="fill:none;stroke:#231f20;stroke-width:5;stroke-linecap:butt;stroke-linejoin:miter;stroke-miterlimit:3.8637;stroke-dasharray:none;stroke-opacity:1"
       transform="matrix(0.13333333,0,0,-0.13333333,0,274.50667)" />
    <path
       id="path8"
       d="m 1850.25,302.25 53,-127"
       style="fill:none;stroke:#231f20;stroke-width:5;stroke-linecap:butt;stroke-linejoin:miter;stroke-miterlimit:3.8637;stroke-dasharray:none;stroke-opacity:1"
       transform="matrix(0.13333333,0,0,-0.13333333,0,274.50667)" />
    <path
       id="path9"
       d="m 1903.25,175.25 52,127"
       style="fill:none;stroke:#231f20;stroke-width:5;stroke-linecap:butt;stroke-linejoin:miter;stroke-miterlimit:3.8637;stroke-dasharray:none;stroke-opacity:1"
       transform="matrix(0.13333333,0,0,-0.13333333,0,274.50667)" />
    <path
       id="path10"
       d="m 1955.25,302.25 53,-127"
       style="fill:none;stroke:#231f20;stroke-width:5;stroke-linecap:butt;stroke-linejoin:miter;stroke-miterlimit:3.8637;stroke-dasharray:none;stroke-opacity:1"
       transform="matrix(0.13333333,0,0,-0.13333333,0,274.50667)" />
    <path
       id="path11"
       d="m 2008.25,175.25 53,127"
       style="fill:none;stroke:#231f20;stroke-width:5;stroke-linecap:butt;stroke-linejoin:miter;stroke-miterlimit:3.8637;stroke-dasharray:none;stroke-opacity:1"
       transform="matrix(0.13333333,0,0,-0.13333333,0,274.50667)" />
    <path
       id="path12"
       d="m 2061.25,302.25 52,-127"
       style="fill:none;stroke:#231f20;stroke-width:5;stroke-linecap:butt;stroke-linejoin:miter;stroke-miterlimit:3.8637;stroke-dasharray:none;stroke-opacity:1"
       transform="matrix(0.13333333,0,0,-0.13333333,0,274.50667)" />
    <path
       id="path13"
       d="m 2114.25,175.25 26,63"
       style="fill:none;stroke:#231f20;stroke-width:5;stroke-linecap:butt;stroke-linejoin:miter;stroke-miterlimit:3.8637;stroke-dasharray:none;stroke-opacity:1"
       transform="matrix(0.13333333,0,0,-0.13333333,0,274.50667)" />
    <path
       id="path14"
       d="m 2141.25,238.25 h 253"
       style="fill:none;stroke:#231f20;stroke-width:5;stroke-linecap:butt;stroke-linejoin:miter;stroke-miterlimit:3.8637;stroke-dasharray:none;stroke-opacity:1"
       transform="matrix(0.13333333,0,0,-0.13333333,0,274.50667)" />
    <path
       id="path15"
       d="m 1256.25,238.25 h 253"
       style="fill:none;stroke:#231f20;stroke-width:5;stroke-linecap:butt;stroke-linejoin:miter;stroke-miterlimit:3.8637;stroke-dasharray:none;stroke-opacity:1"
       transform="matrix(0.13333333,0,0,-0.13333333,0,274.50667)" />
    <path
       id="path16"
       d="m 2361.25,667.25 h 59 v -491 h -59 z"
       style="fill:none;stroke:#231f20;stroke-width:5;stroke-linecap:butt;stroke-linejoin:miter;stroke-miterlimit:3.8637;stroke-dasharray:none;stroke-opacity:1"
       transform="matrix(0.13333333,0,0,-0.13333333,0,274.50667)" />
    <path
       id="path17"
       d="m 1506.25,600.25 26,63"
       style="fill:none;stroke:#231f20;stroke-width:5;stroke-linecap:butt;stroke-linejoin:miter;stroke-miterlimit:3.8637;stroke-dasharray:none;stroke-opacity:1"
       transform="matrix(0.13333333,0,0,-0.13333333,0,274.50667)" />
    <path
       id="path18"
       d="m 1532.25,663.25 53,-126"
       style="fill:none;stroke:#231f20;stroke-width:5;stroke-linecap:butt;stroke-linejoin:miter;stroke-miterlimit:3.8637;stroke-dasharray:none;stroke-opacity:1"
       transform="matrix(0.13333333,0,0,-0.13333333,0,274.50667)" />
    <path
       id="path19"
       d="m 1585.25,537.25 52,126"
       style="fill:none;stroke:#231f20;stroke-width:5;stroke-linecap:butt;stroke-linejoin:miter;stroke-miterlimit:3.8637;stroke-dasharray:none;stroke-opacity:1"
       transform="matrix(0.13333333,0,0,-0.13333333,0,274.50667)" />
    <path
       id="path20"
       d="m 1637.25,663.25 53,-126"
       style="fill:none;stroke:#231f20;stroke-width:5;stroke-linecap:butt;stroke-linejoin:miter;stroke-miterlimit:3.8637;stroke-dasharray:none;stroke-opacity:1"
       transform="matrix(0.13333333,0,0,-0.13333333,0,274.50667)" />
    <path
       id="path21"
       d="m 1690.25,537.25 53,126"
       style="fill:none;stroke:#231f20;stroke-width:5;stroke-linecap:butt;stroke-linejoin:miter;stroke-miterlimit:3.8637;stroke-dasharray:none;stroke-opacity:1"
       transform="matrix(0.13333333,0,0,-0.13333333,0,274.50667)" />
    <path
       id="path22"
       d="m 1743.25,663.25 53,-126"
       style="fill:none;stroke:#231f20;stroke-width:5;stroke-linecap:butt;stroke-linejoin:miter;stroke-miterlimit:3.8637;stroke-dasharray:none;stroke-opacity:1"
       transform="matrix(0.13333333,0,0,-0.13333333,0,274.50667)" />
    <path
       id="path23"
       d="m 1796.25,537.25 52,126"
       style="fill:none;stroke:#231f20;stroke-width:5;stroke-linecap:butt;stroke-linejoin:miter;stroke-miterlimit:3.8637;stroke-dasharray:none;stroke-opacity:1"
       transform="matrix(0.13333333,0,0,-0.13333333,0,274.50667)" />
    <path
       id="path24"
       d="m 1848.25,663.25 53,-126"
       style="fill:none;stroke:#231f20;stroke-width:5;stroke-linecap:butt;stroke-linejoin:miter;stroke-miterlimit:3.8637;stroke-dasharray:none;stroke-opacity:1"
       transform="matrix(0.13333333,0,0,-0.13333333,0,274.50667)" />
    <path
       id="path25"
       d="m 1901.25,537.25 53,126"
       style="fill:none;stroke:#231f20;stroke-width:5;stroke-linecap:butt;stroke-linejoin:miter;stroke-miterlimit:3.8637;stroke-dasharray:none;stroke-opacity:1"
       transform="matrix(0.13333333,0,0,-0.13333333,0,274.50667)" />
    <path
       id="path26"
       d="m 1954.25,663.25 52,-126"
       style="fill:none;stroke:#231f20;stroke-width:5;stroke-linecap:butt;stroke-linejoin:miter;stroke-miterlimit:3.8637;stroke-dasharray:none;stroke-opacity:1"
       transform="matrix(0.13333333,0,0,-0.13333333,0,274.50667)" />
    <path
       id="path27"
       d="m 2006.25,537.25 53,126"
       style="fill:none;stroke:#231f20;stroke-width:5;stroke-linecap:butt;stroke-linejoin:miter;stroke-miterlimit:3.8637;stroke-dasharray:none;stroke-opacity:1"
       transform="matrix(0.13333333,0,0,-0.13333333,0,274.50667)" />
    <path
       id="path28"
       d="m 2059.25,663.25 53,-126"
       style="fill:none;stroke:#231f20;stroke-width:5;stroke-linecap:butt;stroke-linejoin:miter;stroke-miterlimit:3.8637;stroke-dasharray:none;stroke-opacity:1"
       transform="matrix(0.13333333,0,0,-0.13333333,0,274.50667)" />
    <path
       id="path29"
       d="m 2113.25,536.25 26,63"
       style="fill:none;stroke:#231f20;stroke-width:5;stroke-linecap:butt;stroke-linejoin:miter;stroke-miterlimit:3.8637;stroke-dasharray:none;stroke-opacity:1"
       transform="matrix(0.13333333,0,0,-0.13333333,0,274.50667)" />
    <path
       id="path30"
       d="m 2140.25,599.25 h 252"
       style="fill:none;stroke:#231f20;stroke-width:5;stroke-linecap:butt;stroke-linejoin:miter;stroke-miterlimit:3.8637;stroke-dasharray:none;stroke-opacity:1"
       transform="matrix(0.13333333,0,0,-0.13333333,0,274.50667)" />
    <path
       id="path31"
       d="m 1255.25,600.25 h 252"
       style="fill:none;stroke:#231f20;stroke-width:5;stroke-linecap:butt;stroke-linejoin:miter;stroke-miterlimit:3.8637;stroke-dasharray:none;stroke-opacity:1"
       transform="matrix(0.13333333,0,0,-0.13333333,0,274.50667)" />
    <path
       id="path32"
       d="m 2361.25,667.25 h 59 v -491 h -59 v 491"
       style="fill:#e9e9e9;fill-opacity:1;fill-rule:nonzero;stroke:none"
       transform="matrix(0.13333333,0,0,-0.13333333,0,274.50667)" />
    <path
       id="path33"
       d="m 2361.25,667.25 h 59 v -491 h -59 z"
       style="fill:none;stroke:#231f20;stroke-width:5;stroke-linecap:butt;stroke-linejoin:miter;stroke-miterlimit:3.8637;stroke-dasharray:none;stroke-opacity:1"
       transform="matrix(0.13333333,0,0,-0.13333333,0,274.50667)" />
    <path
       id="path34"
       d="m 363.25,418.25 26,63"
       style="fill:none;stroke:#231f20;stroke-width:5;stroke-linecap:butt;stroke-linejoin:miter;stroke-miterlimit:3.8637;stroke-dasharray:none;stroke-opacity:1"
       transform="matrix(0.13333333,0,0,-0.13333333,0,274.50667)" />
    <path
       id="path35"
       d="m 389.25,481.25 53,-126"
       style="fill:none;stroke:#231f20;stroke-width:5;stroke-linecap:butt;stroke-linejoin:miter;stroke-miterlimit:3.8637;stroke-dasharray:none;stroke-opacity:1"
       transform="matrix(0.13333333,0,0,-0.13333333,0,274.50667)" />
    <path
       id="path36"
       d="m 442.25,355.25 52,126"
       style="fill:none;stroke:#231f20;stroke-width:5;stroke-linecap:butt;stroke-linejoin:miter;stroke-miterlimit:3.8637;stroke-dasharray:none;stroke-opacity:1"
       transform="matrix(0.13333333,0,0,-0.13333333,0,274.50667)" />
    <path
       id="path37"
       d="m 494.25,481.25 53,-126"
       style="fill:none;stroke:#231f20;stroke-width:5;stroke-linecap:butt;stroke-linejoin:miter;stroke-miterlimit:3.8637;stroke-dasharray:none;stroke-opacity:1"
       transform="matrix(0.13333333,0,0,-0.13333333,0,274.50667)" />
    <path
       id="path38"
       d="m 547.25,355.25 53,126"
       style="fill:none;stroke:#231f20;stroke-width:5;stroke-linecap:butt;stroke-linejoin:miter;stroke-miterlimit:3.8637;stroke-dasharray:none;stroke-opacity:1"
       transform="matrix(0.13333333,0,0,-0.13333333,0,274.50667)" />
    <path
       id="path39"
       d="m 600.25,481.25 53,-126"
       style="fill:none;stroke:#231f20;stroke-width:5;stroke-linecap:butt;stroke-linejoin:miter;stroke-miterlimit:3.8637;stroke-dasharray:none;stroke-opacity:1"
       transform="matrix(0.13333333,0,0,-0.13333333,0,274.50667)" />
    <path
       id="path40"
       d="m 653.25,355.25 52,126"
       style="fill:none;stroke:#231f20;stroke-width:5;stroke-linecap:butt;stroke-linejoin:miter;stroke-miterlimit:3.8637;stroke-dasharray:none;stroke-opacity:1"
       transform="matrix(0.13333333,0,0,-0.13333333,0,274.50667)" />
    <path
       id="path41"
       d="m 705.25,481.25 53,-126"
       style="fill:none;stroke:#231f20;stroke-width:5;stroke-linecap:butt;stroke-linejoin:miter;stroke-miterlimit:3.8637;stroke-dasharray:none;stroke-opacity:1"
       transform="matrix(0.13333333,0,0,-0.13333333,0,274.50667)" />
    <path
       id="path42"
       d="m 758.25,355.25 53,126"
       style="fill:none;stroke:#231f20;stroke-width:5;stroke-linecap:butt;stroke-linejoin:miter;stroke-miterlimit:3.8637;stroke-dasharray:none;stroke-opacity:1"
       transform="matrix(0.13333333,0,0,-0.13333333,0,274.50667)" />
    <path
       id="path43"
       d="m 811.25,481.25 52,-126"
       style="fill:none;stroke:#231f20;stroke-width:5;stroke-linecap:butt;stroke-linejoin:miter;stroke-miterlimit:3.8637;stroke-dasharray:none;stroke-opacity:1"
       transform="matrix(0.13333333,0,0,-0.13333333,0,274.50667)" />
    <path
       id="path44"
       d="m 863.25,355.25 53,126"
       style="fill:none;stroke:#231f20;stroke-width:5;stroke-linecap:butt;stroke-linejoin:miter;stroke-miterlimit:3.8637;stroke-dasharray:none;stroke-opacity:1"
       transform="matrix(0.13333333,0,0,-0.13333333,0,274.50667)" />
    <path
       id="path45"
       d="m 916.25,481.25 53,-126"
       style="fill:none;stroke:#231f20;stroke-width:5;stroke-linecap:butt;stroke-linejoin:miter;stroke-miterlimit:3.8637;stroke-dasharray:none;stroke-opacity:1"
       transform="matrix(0.13333333,0,0,-0.13333333,0,274.50667)" />
    <path
       id="path46"
       d="m 970.25,354.25 26,63"
       style="fill:none;stroke:#231f20;stroke-width:5;stroke-linecap:butt;stroke-linejoin:miter;stroke-miterlimit:3.8637;stroke-dasharray:none;stroke-opacity:1"
       transform="matrix(0.13333333,0,0,-0.13333333,0,274.50667)" />
    <path
       id="path47"
       d="m 997.25,417.25 h 252"
       style="fill:none;stroke:#231f20;stroke-width:5;stroke-linecap:butt;stroke-linejoin:miter;stroke-miterlimit:3.8637;stroke-dasharray:none;stroke-opacity:1"
       transform="matrix(0.13333333,0,0,-0.13333333,0,274.50667)" />
    <path
       id="path48"
       d="m 112.25,418.25 h 252"
       style="fill:none;stroke:#231f20;stroke-width:5;stroke-linecap:butt;stroke-linejoin:miter;stroke-miterlimit:3.8637;stroke-dasharray:none;stroke-opacity:1"
       transform="matrix(0.13333333,0,0,-0.13333333,0,274.50667)" />
    <path
       id="path49"
       d="m 1218.25,666.25 h 60 v -491 h -60 v 491"
       style="fill:#e9e9e9;fill-opacity:1;fill-rule:nonzero;stroke:none"
       transform="matrix(0.13333333,0,0,-0.13333333,0,274.50667)" />
    <path
       id="path50"
       d="m 1218.25,666.25 h 60 v -491 h -60 z"
       style="fill:none;stroke:#231f20;stroke-width:5;stroke-linecap:butt;stroke-linejoin:miter;stroke-miterlimit:3.8637;stroke-dasharray:none;stroke-opacity:1"
       transform="matrix(0.13333333,0,0,-0.13333333,0,274.50667)" />
    <path
       id="path51"
       d="M 0.56347656,4.6875e-4 V -6.4917187 H 3.9384766 V 4.6875e-4 Z m 0.56250004,-0.5625 h 2.25 V -5.9292187 h -2.25 z M -113.73828,0.29929688 V -6.1928906 h 3.375 v 6.49218748 z m 0.5625,-0.5625 h 2.25 V -5.6303906 h -2.25 z m -116.66309,0.1640625 V -6.5913281 h 3.375 v 6.49218748 z m 0.5625,-0.5625 h 2.25 V -6.0288281 h -2.25 z m 0,0"
       style="fill:#231f20;fill-opacity:1;fill-rule:nonzero;stroke:none"
       aria-label="●&#10;●&#10;●"
       transform="matrix(1.3333333,0,0,1.3333333,314.16667,223.14)" />
    <g
       id="g51"
       aria-label="3&#10;3&#10;2&#10;1&#10;2&#10;1"
       transform="matrix(1.3333333,0,0,1.3331867,348.96667,214.87333)">
      <path
         id="path52"
         d="m 1.9556641,-6.2338106 c 0.3867187,-0.5274018 0.7617187,-0.7383625 1.21875,-0.7383625 0.5976562,0 0.984375,0.3867613 0.984375,0.9962033 0,0.4688016 -0.234375,0.8555629 -0.703125,1.183724 -0.4804688,0.316441 -0.9492188,0.4805216 -1.921875,0.6446021 v 0.1758006 c 0.6210937,0 0.7265625,0.01172 1.0195312,0.1054803 0.6679688,0.2578409 1.0195313,0.8555629 1.0195313,1.7345658 0,0.3867613 -0.082031,0.7852426 -0.234375,1.0430835 -0.2578125,0.44536149 -0.75,0.7500825 -1.2070313,0.7500825 -0.2109375,0 -0.4453125,-0.10548035 -0.7851562,-0.35160117 -0.3164063,-0.23440078 -0.49218754,-0.30472101 -0.70312504,-0.30472101 -0.3046875,0 -0.48046875,0.15236051 -0.48046875,0.4219214 0,0.42192141 0.4453125,0.65632219 1.23046879,0.65632219 0.6210937,0 1.1953125,-0.15236051 1.640625,-0.41020137 0.8671875,-0.50396168 1.4179687,-1.42984474 1.4179687,-2.41432804 0,-0.7969627 -0.3164062,-1.3009243 -1.0429687,-1.6408055 v -0.03516 c 1.3242187,-0.5156817 1.7109375,-0.8790029 1.7109375,-1.6290854 0,-0.7969627 -0.65625,-1.3946847 -1.546875,-1.3946847 -0.7617188,0 -1.4414063,0.4336415 -1.7929688,1.1485639 z m 0,0"
         style="fill:#231f20;fill-opacity:1;fill-rule:nonzero;stroke:none" />
      <path
         id="path53"
         d="m -79.208398,36.412481 c 0.585937,0 0.621093,0 0.902343,0.08204 0.515625,0.14064 0.84375,0.597722 0.84375,1.160284 0,0.703202 -0.480468,1.183724 -1.160156,1.183724 -0.726562,0 -1.113281,-0.421922 -1.160156,-1.218884 h -1.5 c 0.01172,1.558765 1.03125,2.543248 2.636719,2.543248 1.652343,0 2.730468,-0.984483 2.730468,-2.508088 0,-0.902443 -0.398437,-1.500165 -1.277343,-1.933807 0.714843,-0.445361 1.019531,-0.949323 1.019531,-1.664245 0,-1.289205 -0.972656,-2.121327 -2.472656,-2.121327 -1.136719,0 -2.003907,0.492241 -2.34375,1.347804 -0.152344,0.375041 -0.1875,0.621162 -0.1875,1.277484 h 1.429687 c 0.01172,-0.421921 0.04687,-0.632882 0.117188,-0.832122 0.140625,-0.339882 0.492187,-0.550842 0.949218,-0.550842 0.609375,0 0.960938,0.375041 0.960938,1.031363 0,0.785243 -0.445313,1.172004 -1.359375,1.172004 h -0.128906 z m 3.445312,-65.687888 h -3.316406 c 0.210937,-0.421922 0.457031,-0.656323 1.59375,-1.476725 1.359375,-0.996204 1.757812,-1.570486 1.757812,-2.648729 0,-1.500165 -1.054687,-2.472928 -2.683593,-2.472928 -1.617188,0 -2.554688,0.961043 -2.554688,2.613568 v 0.269561 h 1.476563 v -0.246121 c 0,-0.879003 0.410156,-1.382964 1.113281,-1.382964 0.679687,0 1.101562,0.480521 1.101562,1.254044 0,0.867283 -0.257812,1.195444 -2.003906,2.426048 -1.3125,0.902443 -1.722656,1.582205 -1.792969,3.03549 h 5.308594 z M -198.28555,16.423955 v 5.379498 h 1.54688 v -7.805546 h -1.01953 c -0.2461,0.925883 -1.05469,1.406404 -2.39063,1.406404 v 1.019644 z m 0,0"
         style="fill:#231f20;fill-opacity:1;fill-rule:nonzero;stroke:none" />
      <path
         id="path54"
         d="m -109.79434,-1.6366253 c -0.25781,0.5391218 -0.48046,0.67976224 -1.08984,0.70320232 h -2.09766 v -0.0586002 l 2.1211,-2.10960702 c 1.27734,-1.2892043 1.6289,-1.8400461 1.6289,-2.5784086 0,-1.0430835 -0.77343,-1.8634862 -1.78125,-1.8634862 -0.38671,0 -0.79687,0.1054803 -1.125,0.293001 -0.5625,0.304721 -0.86718,0.6797622 -1.18359,1.4650049 l 0.23438,0.08204 c 0.41015,-0.7149224 0.8789,-1.0313634 1.53515,-1.0313634 0.79688,0 1.38281,0.5742819 1.38281,1.3360844 0,0.2344008 -0.0352,0.4453615 -0.10546,0.586002 -0.25782,0.597722 -0.77344,1.2892043 -1.48829,2.0627269 l -2.30859,2.46120816 v 0.18752063 h 3.91406 l 0.55078,-1.45328479 z m -126.16699,-9.3643117 h 3.07031 v -0.16408 h -0.1875 c -0.53906,0 -0.76171,-0.10548 -0.76171,-0.351601 0,-0.105481 0.0351,-0.269561 0.14062,-0.574282 0.0117,-0.08204 0.0234,-0.128921 0.0586,-0.246121 l 1.57032,-5.707659 c 0.0586,-0.199241 0.0703,-0.257841 0.0703,-0.316441 0,-0.04688 -0.0234,-0.08204 -0.0586,-0.08204 0,0 -0.30469,0.0586 -0.90235,0.1758 l -0.98437,0.199241 c -0.0234,0.01172 -0.10547,0.02344 -0.23438,0.04688 v 0.164081 l 0.63281,-0.02344 c 0.2461,-0.01172 0.41016,0.1172 0.41016,0.339881 0,0.08204 -0.0234,0.15236 -0.0703,0.375041 l -1.52344,5.414658 c -0.12891,0.410201 -0.36328,0.515682 -1.23047,0.597722 z m 0,0"
         style="fill:#231f20;fill-opacity:1;fill-rule:nonzero;stroke:none" />
    </g>
    <path
       id="path55"
       d="m 81.25,519.25 h 260"
       style="fill:none;stroke:#231f20;stroke-width:2.5;stroke-linecap:butt;stroke-linejoin:miter;stroke-miterlimit:3.8637;stroke-dasharray:none;stroke-opacity:1"
       transform="matrix(0.13333333,0,0,-0.13333333,0,274.50667)" />
    <path
       id="path56"
       d="m 338.25,519.25 v 15 l 38,-15 -38,-15 v 15"
       style="fill:#231f20;fill-opacity:1;fill-rule:evenodd;stroke:none"
       transform="matrix(0.13333333,0,0,-0.13333333,0,274.50667)" />
    <path
       id="path57"
       d="m 1301.25,415.25 h 260"
       style="fill:none;stroke:#231f20;stroke-width:2.5;stroke-linecap:butt;stroke-linejoin:miter;stroke-miterlimit:3.8637;stroke-dasharray:none;stroke-opacity:1"
       transform="matrix(0.13333333,0,0,-0.13333333,0,274.50667)" />
    <path
       id="path58"
       d="m 1558.25,415.25 v 15 l 38,-15 -38,-15 v 15"
       style="fill:#231f20;fill-opacity:1;fill-rule:evenodd;stroke:none"
       transform="matrix(0.13333333,0,0,-0.13333333,0,274.50667)" />
    <path
       id="path59"
       d="m 2446.25,416.25 h 259"
       style="fill:none;stroke:#231f20;stroke-width:2.5;stroke-linecap:butt;stroke-linejoin:miter;stroke-miterlimit:3.8637;stroke-dasharray:none;stroke-opacity:1"
       transform="matrix(0.13333333,0,0,-0.13333333,0,274.50667)" />
    <path
       id="path60"
       d="m 2703.25,416.25 v 15 l 37,-15 -37,-15 v 15"
       style="fill:#231f20;fill-opacity:1;fill-rule:evenodd;stroke:none"
       transform="matrix(0.13333333,0,0,-0.13333333,0,274.50667)" />
    <path
       id="path61"
       d="m 1516.25,1445.25 26,63"
       style="fill:none;stroke:#231f20;stroke-width:5;stroke-linecap:butt;stroke-linejoin:miter;stroke-miterlimit:3.8637;stroke-dasharray:none;stroke-opacity:1"
       transform="matrix(0.13333333,0,0,-0.13333333,0,274.50667)" />
    <path
       id="path62"
       d="m 1542.25,1508.25 53,-126"
       style="fill:none;stroke:#231f20;stroke-width:5;stroke-linecap:butt;stroke-linejoin:miter;stroke-miterlimit:3.8637;stroke-dasharray:none;stroke-opacity:1"
       transform="matrix(0.13333333,0,0,-0.13333333,0,274.50667)" />
    <path
       id="path63"
       d="m 1595.25,1382.25 52,126"
       style="fill:none;stroke:#231f20;stroke-width:5;stroke-linecap:butt;stroke-linejoin:miter;stroke-miterlimit:3.8637;stroke-dasharray:none;stroke-opacity:1"
       transform="matrix(0.13333333,0,0,-0.13333333,0,274.50667)" />
    <path
       id="path64"
       d="m 1647.25,1508.25 53,-126"
       style="fill:none;stroke:#231f20;stroke-width:5;stroke-linecap:butt;stroke-linejoin:miter;stroke-miterlimit:3.8637;stroke-dasharray:none;stroke-opacity:1"
       transform="matrix(0.13333333,0,0,-0.13333333,0,274.50667)" />
    <path
       id="path65"
       d="m 1700.25,1382.25 53,126"
       style="fill:none;stroke:#231f20;stroke-width:5;stroke-linecap:butt;stroke-linejoin:miter;stroke-miterlimit:3.8637;stroke-dasharray:none;stroke-opacity:1"
       transform="matrix(0.13333333,0,0,-0.13333333,0,274.50667)" />
    <path
       id="path66"
       d="m 1753.25,1508.25 52,-126"
       style="fill:none;stroke:#231f20;stroke-width:5;stroke-linecap:butt;stroke-linejoin:miter;stroke-miterlimit:3.8637;stroke-dasharray:none;stroke-opacity:1"
       transform="matrix(0.13333333,0,0,-0.13333333,0,274.50667)" />
    <path
       id="path67"
       d="m 1805.25,1382.25 53,126"
       style="fill:none;stroke:#231f20;stroke-width:5;stroke-linecap:butt;stroke-linejoin:miter;stroke-miterlimit:3.8637;stroke-dasharray:none;stroke-opacity:1"
       transform="matrix(0.13333333,0,0,-0.13333333,0,274.50667)" />
    <path
       id="path68"
       d="m 1858.25,1508.25 53,-126"
       style="fill:none;stroke:#231f20;stroke-width:5;stroke-linecap:butt;stroke-linejoin:miter;stroke-miterlimit:3.8637;stroke-dasharray:none;stroke-opacity:1"
       transform="matrix(0.13333333,0,0,-0.13333333,0,274.50667)" />
    <path
       id="path69"
       d="m 1911.25,1382.25 53,126"
       style="fill:none;stroke:#231f20;stroke-width:5;stroke-linecap:butt;stroke-linejoin:miter;stroke-miterlimit:3.8637;stroke-dasharray:none;stroke-opacity:1"
       transform="matrix(0.13333333,0,0,-0.13333333,0,274.50667)" />
    <path
       id="path70"
       d="m 1964.25,1508.25 52,-126"
       style="fill:none;stroke:#231f20;stroke-width:5;stroke-linecap:butt;stroke-linejoin:miter;stroke-miterlimit:3.8637;stroke-dasharray:none;stroke-opacity:1"
       transform="matrix(0.13333333,0,0,-0.13333333,0,274.50667)" />
    <path
       id="path71"
       d="m 2016.25,1382.25 53,126"
       style="fill:none;stroke:#231f20;stroke-width:5;stroke-linecap:butt;stroke-linejoin:miter;stroke-miterlimit:3.8637;stroke-dasharray:none;stroke-opacity:1"
       transform="matrix(0.13333333,0,0,-0.13333333,0,274.50667)" />
    <path
       id="path72"
       d="m 2069.25,1508.25 53,-126"
       style="fill:none;stroke:#231f20;stroke-width:5;stroke-linecap:butt;stroke-linejoin:miter;stroke-miterlimit:3.8637;stroke-dasharray:none;stroke-opacity:1"
       transform="matrix(0.13333333,0,0,-0.13333333,0,274.50667)" />
    <path
       id="path73"
       d="m 2122.25,1381.25 27,63"
       style="fill:none;stroke:#231f20;stroke-width:5;stroke-linecap:butt;stroke-linejoin:miter;stroke-miterlimit:3.8637;stroke-dasharray:none;stroke-opacity:1"
       transform="matrix(0.13333333,0,0,-0.13333333,0,274.50667)" />
    <path
       id="path74"
       d="m 2149.25,1444.25 h 253"
       style="fill:none;stroke:#231f20;stroke-width:5;stroke-linecap:butt;stroke-linejoin:miter;stroke-miterlimit:3.8637;stroke-dasharray:none;stroke-opacity:1"
       transform="matrix(0.13333333,0,0,-0.13333333,0,274.50667)" />
    <path
       id="path75"
       d="m 1265.25,1445.25 h 252"
       style="fill:none;stroke:#231f20;stroke-width:5;stroke-linecap:butt;stroke-linejoin:miter;stroke-miterlimit:3.8637;stroke-dasharray:none;stroke-opacity:1"
       transform="matrix(0.13333333,0,0,-0.13333333,0,274.50667)" />
    <path
       id="path76"
       d="m 2369.25,1873.25 h 60 v -491 h -60 z"
       style="fill:none;stroke:#231f20;stroke-width:5;stroke-linecap:butt;stroke-linejoin:miter;stroke-miterlimit:3.8637;stroke-dasharray:none;stroke-opacity:1"
       transform="matrix(0.13333333,0,0,-0.13333333,0,274.50667)" />
    <path
       id="path77"
       d="m 1514.25,1806.25 26,63"
       style="fill:none;stroke:#231f20;stroke-width:5;stroke-linecap:butt;stroke-linejoin:miter;stroke-miterlimit:3.8637;stroke-dasharray:none;stroke-opacity:1"
       transform="matrix(0.13333333,0,0,-0.13333333,0,274.50667)" />
    <path
       id="path78"
       d="m 1540.25,1869.25 53,-126"
       style="fill:none;stroke:#231f20;stroke-width:5;stroke-linecap:butt;stroke-linejoin:miter;stroke-miterlimit:3.8637;stroke-dasharray:none;stroke-opacity:1"
       transform="matrix(0.13333333,0,0,-0.13333333,0,274.50667)" />
    <path
       id="path79"
       d="m 1593.25,1743.25 53,126"
       style="fill:none;stroke:#231f20;stroke-width:5;stroke-linecap:butt;stroke-linejoin:miter;stroke-miterlimit:3.8637;stroke-dasharray:none;stroke-opacity:1"
       transform="matrix(0.13333333,0,0,-0.13333333,0,274.50667)" />
    <path
       id="path80"
       d="m 1646.25,1869.25 52,-126"
       style="fill:none;stroke:#231f20;stroke-width:5;stroke-linecap:butt;stroke-linejoin:miter;stroke-miterlimit:3.8637;stroke-dasharray:none;stroke-opacity:1"
       transform="matrix(0.13333333,0,0,-0.13333333,0,274.50667)" />
    <path
       id="path81"
       d="m 1698.25,1743.25 53,126"
       style="fill:none;stroke:#231f20;stroke-width:5;stroke-linecap:butt;stroke-linejoin:miter;stroke-miterlimit:3.8637;stroke-dasharray:none;stroke-opacity:1"
       transform="matrix(0.13333333,0,0,-0.13333333,0,274.50667)" />
    <path
       id="path82"
       d="m 1751.25,1869.25 53,-126"
       style="fill:none;stroke:#231f20;stroke-width:5;stroke-linecap:butt;stroke-linejoin:miter;stroke-miterlimit:3.8637;stroke-dasharray:none;stroke-opacity:1"
       transform="matrix(0.13333333,0,0,-0.13333333,0,274.50667)" />
    <path
       id="path83"
       d="m 1804.25,1743.25 53,126"
       style="fill:none;stroke:#231f20;stroke-width:5;stroke-linecap:butt;stroke-linejoin:miter;stroke-miterlimit:3.8637;stroke-dasharray:none;stroke-opacity:1"
       transform="matrix(0.13333333,0,0,-0.13333333,0,274.50667)" />
    <path
       id="path84"
       d="m 1857.25,1869.25 52,-126"
       style="fill:none;stroke:#231f20;stroke-width:5;stroke-linecap:butt;stroke-linejoin:miter;stroke-miterlimit:3.8637;stroke-dasharray:none;stroke-opacity:1"
       transform="matrix(0.13333333,0,0,-0.13333333,0,274.50667)" />
    <path
       id="path85"
       d="m 1909.25,1743.25 53,126"
       style="fill:none;stroke:#231f20;stroke-width:5;stroke-linecap:butt;stroke-linejoin:miter;stroke-miterlimit:3.8637;stroke-dasharray:none;stroke-opacity:1"
       transform="matrix(0.13333333,0,0,-0.13333333,0,274.50667)" />
    <path
       id="path86"
       d="m 1962.25,1869.25 53,-126"
       style="fill:none;stroke:#231f20;stroke-width:5;stroke-linecap:butt;stroke-linejoin:miter;stroke-miterlimit:3.8637;stroke-dasharray:none;stroke-opacity:1"
       transform="matrix(0.13333333,0,0,-0.13333333,0,274.50667)" />
    <path
       id="path87"
       d="m 2015.25,1743.25 52,126"
       style="fill:none;stroke:#231f20;stroke-width:5;stroke-linecap:butt;stroke-linejoin:miter;stroke-miterlimit:3.8637;stroke-dasharray:none;stroke-opacity:1"
       transform="matrix(0.13333333,0,0,-0.13333333,0,274.50667)" />
    <path
       id="path88"
       d="m 2067.25,1869.25 53,-126"
       style="fill:none;stroke:#231f20;stroke-width:5;stroke-linecap:butt;stroke-linejoin:miter;stroke-miterlimit:3.8637;stroke-dasharray:none;stroke-opacity:1"
       transform="matrix(0.13333333,0,0,-0.13333333,0,274.50667)" />
    <path
       id="path89"
       d="m 2121.25,1742.25 26,64"
       style="fill:none;stroke:#231f20;stroke-width:5;stroke-linecap:butt;stroke-linejoin:miter;stroke-miterlimit:3.8637;stroke-dasharray:none;stroke-opacity:1"
       transform="matrix(0.13333333,0,0,-0.13333333,0,274.50667)" />
    <path
       id="path90"
       d="m 2148.25,1805.25 h 252"
       style="fill:none;stroke:#231f20;stroke-width:5;stroke-linecap:butt;stroke-linejoin:miter;stroke-miterlimit:3.8637;stroke-dasharray:none;stroke-opacity:1"
       transform="matrix(0.13333333,0,0,-0.13333333,0,274.50667)" />
    <path
       id="path91"
       d="m 1263.25,1806.25 h 253"
       style="fill:none;stroke:#231f20;stroke-width:5;stroke-linecap:butt;stroke-linejoin:miter;stroke-miterlimit:3.8637;stroke-dasharray:none;stroke-opacity:1"
       transform="matrix(0.13333333,0,0,-0.13333333,0,274.50667)" />
    <path
       id="path92"
       d="m 2369.25,1873.25 h 60 v -491 h -60 v 491"
       style="fill:#e9e9e9;fill-opacity:1;fill-rule:nonzero;stroke:none"
       transform="matrix(0.13333333,0,0,-0.13333333,0,274.50667)" />
    <path
       id="path93"
       d="m 2369.25,1873.25 h 60 v -491 h -60 z"
       style="fill:none;stroke:#231f20;stroke-width:5;stroke-linecap:butt;stroke-linejoin:miter;stroke-miterlimit:3.8637;stroke-dasharray:none;stroke-opacity:1"
       transform="matrix(0.13333333,0,0,-0.13333333,0,274.50667)" />
    <path
       id="path94"
       d="m 2428.25,1470.25 c -0.07,13.31 11.51,24.43 26,24 14.09,0.43 25.67,-10.69 26,-24 -0.33,-14.13 -11.91,-25.25 -26,-25 -14.49,-0.25 -26.07,10.87 -26,25 z"
       style="fill:none;stroke:#231f20;stroke-width:5;stroke-linecap:butt;stroke-linejoin:miter;stroke-miterlimit:3.8637;stroke-dasharray:none;stroke-opacity:1"
       transform="matrix(0.13333333,0,0,-0.13333333,0,274.50667)" />
    <path
       id="path95"
       d="m 371.25,1624.25 26,63"
       style="fill:none;stroke:#231f20;stroke-width:5;stroke-linecap:butt;stroke-linejoin:miter;stroke-miterlimit:3.8637;stroke-dasharray:none;stroke-opacity:1"
       transform="matrix(0.13333333,0,0,-0.13333333,0,274.50667)" />
    <path
       id="path96"
       d="m 397.25,1687.25 53,-126"
       style="fill:none;stroke:#231f20;stroke-width:5;stroke-linecap:butt;stroke-linejoin:miter;stroke-miterlimit:3.8637;stroke-dasharray:none;stroke-opacity:1"
       transform="matrix(0.13333333,0,0,-0.13333333,0,274.50667)" />
    <path
       id="path97"
       d="m 450.25,1561.25 53,126"
       style="fill:none;stroke:#231f20;stroke-width:5;stroke-linecap:butt;stroke-linejoin:miter;stroke-miterlimit:3.8637;stroke-dasharray:none;stroke-opacity:1"
       transform="matrix(0.13333333,0,0,-0.13333333,0,274.50667)" />
    <path
       id="path98"
       d="m 503.25,1687.25 52,-126"
       style="fill:none;stroke:#231f20;stroke-width:5;stroke-linecap:butt;stroke-linejoin:miter;stroke-miterlimit:3.8637;stroke-dasharray:none;stroke-opacity:1"
       transform="matrix(0.13333333,0,0,-0.13333333,0,274.50667)" />
    <path
       id="path99"
       d="m 555.25,1561.25 53,126"
       style="fill:none;stroke:#231f20;stroke-width:5;stroke-linecap:butt;stroke-linejoin:miter;stroke-miterlimit:3.8637;stroke-dasharray:none;stroke-opacity:1"
       transform="matrix(0.13333333,0,0,-0.13333333,0,274.50667)" />
    <path
       id="path100"
       d="m 608.25,1687.25 53,-126"
       style="fill:none;stroke:#231f20;stroke-width:5;stroke-linecap:butt;stroke-linejoin:miter;stroke-miterlimit:3.8637;stroke-dasharray:none;stroke-opacity:1"
       transform="matrix(0.13333333,0,0,-0.13333333,0,274.50667)" />
    <path
       id="path101"
       d="m 661.25,1561.25 53,126"
       style="fill:none;stroke:#231f20;stroke-width:5;stroke-linecap:butt;stroke-linejoin:miter;stroke-miterlimit:3.8637;stroke-dasharray:none;stroke-opacity:1"
       transform="matrix(0.13333333,0,0,-0.13333333,0,274.50667)" />
    <path
       id="path102"
       d="m 714.25,1687.25 52,-126"
       style="fill:none;stroke:#231f20;stroke-width:5;stroke-linecap:butt;stroke-linejoin:miter;stroke-miterlimit:3.8637;stroke-dasharray:none;stroke-opacity:1"
       transform="matrix(0.13333333,0,0,-0.13333333,0,274.50667)" />
    <path
       id="path103"
       d="m 766.25,1561.25 53,126"
       style="fill:none;stroke:#231f20;stroke-width:5;stroke-linecap:butt;stroke-linejoin:miter;stroke-miterlimit:3.8637;stroke-dasharray:none;stroke-opacity:1"
       transform="matrix(0.13333333,0,0,-0.13333333,0,274.50667)" />
    <path
       id="path104"
       d="m 819.25,1687.25 53,-126"
       style="fill:none;stroke:#231f20;stroke-width:5;stroke-linecap:butt;stroke-linejoin:miter;stroke-miterlimit:3.8637;stroke-dasharray:none;stroke-opacity:1"
       transform="matrix(0.13333333,0,0,-0.13333333,0,274.50667)" />
    <path
       id="path105"
       d="m 872.25,1561.25 52,126"
       style="fill:none;stroke:#231f20;stroke-width:5;stroke-linecap:butt;stroke-linejoin:miter;stroke-miterlimit:3.8637;stroke-dasharray:none;stroke-opacity:1"
       transform="matrix(0.13333333,0,0,-0.13333333,0,274.50667)" />
    <path
       id="path106"
       d="m 924.25,1687.25 53,-126"
       style="fill:none;stroke:#231f20;stroke-width:5;stroke-linecap:butt;stroke-linejoin:miter;stroke-miterlimit:3.8637;stroke-dasharray:none;stroke-opacity:1"
       transform="matrix(0.13333333,0,0,-0.13333333,0,274.50667)" />
    <path
       id="path107"
       d="m 978.25,1560.25 26,64"
       style="fill:none;stroke:#231f20;stroke-width:5;stroke-linecap:butt;stroke-linejoin:miter;stroke-miterlimit:3.8637;stroke-dasharray:none;stroke-opacity:1"
       transform="matrix(0.13333333,0,0,-0.13333333,0,274.50667)" />
    <path
       id="path108"
       d="m 1005.25,1623.25 h 252"
       style="fill:none;stroke:#231f20;stroke-width:5;stroke-linecap:butt;stroke-linejoin:miter;stroke-miterlimit:3.8637;stroke-dasharray:none;stroke-opacity:1"
       transform="matrix(0.13333333,0,0,-0.13333333,0,274.50667)" />
    <path
       id="path109"
       d="m 120.25,1624.25 h 252"
       style="fill:none;stroke:#231f20;stroke-width:5;stroke-linecap:butt;stroke-linejoin:miter;stroke-miterlimit:3.8637;stroke-dasharray:none;stroke-opacity:1"
       transform="matrix(0.13333333,0,0,-0.13333333,0,274.50667)" />
    <path
       id="path110"
       d="m 1226.25,1872.25 h 60 v -491 h -60 v 491"
       style="fill:#e9e9e9;fill-opacity:1;fill-rule:nonzero;stroke:none"
       transform="matrix(0.13333333,0,0,-0.13333333,0,274.50667)" />
    <path
       id="path111"
       d="m 1226.25,1872.25 h 60 v -491 h -60 z"
       style="fill:none;stroke:#231f20;stroke-width:5;stroke-linecap:butt;stroke-linejoin:miter;stroke-miterlimit:3.8637;stroke-dasharray:none;stroke-opacity:1"
       transform="matrix(0.13333333,0,0,-0.13333333,0,274.50667)" />
    <path
       id="path112"
       d="m 2481.25,1405.25 v 460"
       style="fill:none;stroke:#231f20;stroke-width:5.267;stroke-linecap:butt;stroke-linejoin:miter;stroke-miterlimit:3.8637;stroke-dasharray:none;stroke-opacity:1"
       transform="matrix(0.13333333,0,0,-0.13333333,0,274.50667)" />
    <path
       id="path113"
       d="m 2482.25,1407.25 109,-74"
       style="fill:none;stroke:#231f20;stroke-width:5.621;stroke-linecap:butt;stroke-linejoin:miter;stroke-miterlimit:3.8637;stroke-dasharray:none;stroke-opacity:1"
       transform="matrix(0.13333333,0,0,-0.13333333,0,274.50667)" />
    <path
       id="path114"
       d="m 2483.25,1537.25 109,-74"
       style="fill:none;stroke:#231f20;stroke-width:5.621;stroke-linecap:butt;stroke-linejoin:miter;stroke-miterlimit:3.8637;stroke-dasharray:none;stroke-opacity:1"
       transform="matrix(0.13333333,0,0,-0.13333333,0,274.50667)" />
    <path
       id="path115"
       d="m 2484.25,1667.25 108,-74"
       style="fill:none;stroke:#231f20;stroke-width:5.621;stroke-linecap:butt;stroke-linejoin:miter;stroke-miterlimit:3.8637;stroke-dasharray:none;stroke-opacity:1"
       transform="matrix(0.13333333,0,0,-0.13333333,0,274.50667)" />
    <path
       id="path116"
       d="m 2485.25,1797.25 108,-73"
       style="fill:none;stroke:#231f20;stroke-width:5.621;stroke-linecap:butt;stroke-linejoin:miter;stroke-miterlimit:3.8637;stroke-dasharray:none;stroke-opacity:1"
       transform="matrix(0.13333333,0,0,-0.13333333,0,274.50667)" />
    <path
       id="path117"
       d="m 2483.25,1472.25 108,-74"
       style="fill:none;stroke:#231f20;stroke-width:5.621;stroke-linecap:butt;stroke-linejoin:miter;stroke-miterlimit:3.8637;stroke-dasharray:none;stroke-opacity:1"
       transform="matrix(0.13333333,0,0,-0.13333333,0,274.50667)" />
    <path
       id="path118"
       d="m 2483.25,1602.25 109,-74"
       style="fill:none;stroke:#231f20;stroke-width:5.621;stroke-linecap:butt;stroke-linejoin:miter;stroke-miterlimit:3.8637;stroke-dasharray:none;stroke-opacity:1"
       transform="matrix(0.13333333,0,0,-0.13333333,0,274.50667)" />
    <path
       id="path119"
       d="m 2484.25,1732.25 109,-74"
       style="fill:none;stroke:#231f20;stroke-width:5.621;stroke-linecap:butt;stroke-linejoin:miter;stroke-miterlimit:3.8637;stroke-dasharray:none;stroke-opacity:1"
       transform="matrix(0.13333333,0,0,-0.13333333,0,274.50667)" />
    <path
       id="path120"
       d="m 2485.25,1862.25 108,-73"
       style="fill:none;stroke:#231f20;stroke-width:5.621;stroke-linecap:butt;stroke-linejoin:miter;stroke-miterlimit:3.8637;stroke-dasharray:none;stroke-opacity:1"
       transform="matrix(0.13333333,0,0,-0.13333333,0,274.50667)" />
    <path
       id="path121"
       d="m 115.25,1416.25 v 458"
       style="fill:none;stroke:#231f20;stroke-width:5.267;stroke-linecap:butt;stroke-linejoin:miter;stroke-miterlimit:3.8637;stroke-dasharray:none;stroke-opacity:1"
       transform="matrix(0.13333333,0,0,-0.13333333,0,274.50667)" />
    <path
       id="path122"
       d="m 114.25,1419.25 -109,-74"
       style="fill:none;stroke:#231f20;stroke-width:5.621;stroke-linecap:butt;stroke-linejoin:miter;stroke-miterlimit:3.8637;stroke-dasharray:none;stroke-opacity:1"
       transform="matrix(0.13333333,0,0,-0.13333333,0,274.50667)" />
    <path
       id="path123"
       d="m 113.25,1549.25 -109,-74"
       style="fill:none;stroke:#231f20;stroke-width:5.621;stroke-linecap:butt;stroke-linejoin:miter;stroke-miterlimit:3.8637;stroke-dasharray:none;stroke-opacity:1"
       transform="matrix(0.13333333,0,0,-0.13333333,0,274.50667)" />
    <path
       id="path124"
       d="m 112.25,1679.25 -108,-74"
       style="fill:none;stroke:#231f20;stroke-width:5.621;stroke-linecap:butt;stroke-linejoin:miter;stroke-miterlimit:3.8637;stroke-dasharray:none;stroke-opacity:1"
       transform="matrix(0.13333333,0,0,-0.13333333,0,274.50667)" />
    <path
       id="path125"
       d="m 111.25,1809.25 -108,-74"
       style="fill:none;stroke:#231f20;stroke-width:5.621;stroke-linecap:butt;stroke-linejoin:miter;stroke-miterlimit:3.8637;stroke-dasharray:none;stroke-opacity:1"
       transform="matrix(0.13333333,0,0,-0.13333333,0,274.50667)" />
    <path
       id="path126"
       d="m 113.25,1484.25 -108,-74"
       style="fill:none;stroke:#231f20;stroke-width:5.621;stroke-linecap:butt;stroke-linejoin:miter;stroke-miterlimit:3.8637;stroke-dasharray:none;stroke-opacity:1"
       transform="matrix(0.13333333,0,0,-0.13333333,0,274.50667)" />
    <path
       id="path127"
       d="m 113.25,1614.25 -109,-74"
       style="fill:none;stroke:#231f20;stroke-width:5.621;stroke-linecap:butt;stroke-linejoin:miter;stroke-miterlimit:3.8637;stroke-dasharray:none;stroke-opacity:1"
       transform="matrix(0.13333333,0,0,-0.13333333,0,274.50667)" />
    <path
       id="path128"
       d="m 112.25,1744.25 -109,-74"
       style="fill:none;stroke:#231f20;stroke-width:5.621;stroke-linecap:butt;stroke-linejoin:miter;stroke-miterlimit:3.8637;stroke-dasharray:none;stroke-opacity:1"
       transform="matrix(0.13333333,0,0,-0.13333333,0,274.50667)" />
    <path
       id="path129"
       d="m 111.25,1874.25 -108,-74"
       style="fill:none;stroke:#231f20;stroke-width:5.621;stroke-linecap:butt;stroke-linejoin:miter;stroke-miterlimit:3.8637;stroke-dasharray:none;stroke-opacity:1"
       transform="matrix(0.13333333,0,0,-0.13333333,0,274.50667)" />
    <path
       id="path130"
       d="m 2428.25,1780.25 c 0.01,13.62 11.59,24.74 26,25 14.17,-0.26 25.75,-11.38 26,-25 -0.25,-13.82 -11.83,-24.94 -26,-25 -14.41,0.06 -25.99,11.18 -26,25 z"
       style="fill:none;stroke:#231f20;stroke-width:5;stroke-linecap:butt;stroke-linejoin:miter;stroke-miterlimit:3.8637;stroke-dasharray:none;stroke-opacity:1"
       transform="matrix(0.13333333,0,0,-0.13333333,0,274.50667)" />
    <path
       id="path131"
       d="m 1289.25,1628.25 h 300"
       style="fill:none;stroke:#231f20;stroke-width:5;stroke-linecap:butt;stroke-linejoin:miter;stroke-miterlimit:3.8637;stroke-dasharray:none;stroke-opacity:1"
       transform="matrix(0.13333333,0,0,-0.13333333,0,274.50667)" />
    <path
       id="path132"
       d="m 1589.25,1628.25 -20,30 80,-30 -80,-30 20,30"
       style="fill:#231f20;fill-opacity:1;fill-rule:evenodd;stroke:none"
       transform="matrix(0.13333333,0,0,-0.13333333,0,274.50667)" />
    <path
       id="path133"
       d="m 4.9685547,-1.3135429 c -0.4335938,0.75008249 -0.5039063,0.82040272 -0.7265625,0.82040272 -0.2460938,0 -0.5039063,-0.39848133 -0.9609375,-1.54704512 C 3.2107422,-2.1925458 3.0349609,-2.6261873 2.8357422,-3.0949888 4.6052734,-4.6654741 4.9568359,-4.9115949 5.5310547,-4.946755 V -5.1342756 H 3.3396484 v 0.1875206 c 0.515625,0.01172 0.65625,0.0586 0.65625,0.2226807 0,0.2344008 -0.5976562,0.8086827 -1.7109375,1.6759656 -0.1875,0.1289204 -0.3515625,0.2578409 -0.515625,0.3984813 l 1.4296875,-5.4849782 -0.058594,-0.0586 c -0.7265625,0.1640805 -1.1835938,0.2344007 -1.8632813,0.316441 v 0.1992407 c 0.5859375,-0.01172 0.796875,0.07032 0.8085938,0.293001 -0.023437,0.2109607 -0.1054688,0.5274017 -0.2578125,1.0782435 -0.046875,0.1758006 -0.09375,0.3047211 -0.1171875,0.3984814 L 1.6873047,-5.8023179 0.16386719,-8.9853633e-4 H 1.0662109 L 1.6404297,-2.1573857 2.1443359,-2.544147 c 0.1992188,0.5274017 0.5039063,1.2657642 0.7265625,1.68768561 0.3867188,0.76180254 0.5976563,0.98448328 0.9492188,0.98448328 0.4804687,0 0.7734375,-0.29300097 1.3242187,-1.30092429 z M 2.3054687,68.842611 c -0.28125,0.586002 -0.515625,0.726642 -1.1953125,0.750082 h -2.2734375 v -0.0586 l 2.296875,-2.308847 c 1.40625,-1.394685 1.7929688,-2.004127 1.7929688,-2.80109 0,-1.136844 -0.8554688,-2.027567 -1.9453125,-2.027567 -0.43359375,0 -0.87890625,0.105481 -1.2421875,0.304721 -0.609375,0.339882 -0.9257813,0.750083 -1.2773438,1.617366 l 0.2460938,0.08204 c 0.4453125,-0.785243 0.9609375,-1.125124 1.6875,-1.125124 0.8671875,0 1.5,0.621162 1.5,1.453285 0,0.257841 -0.035156,0.480522 -0.1054688,0.644602 -0.2929687,0.644603 -0.84374995,1.406405 -1.6289062,2.238528 l -2.5195313,2.695609 v 0.19924 h 4.265625 l 0.5976563,-1.582205 z m 6.1640625,0.351601 C 8.0359375,69.944295 7.965625,70.014615 7.7429687,70.014615 7.496875,70.014615 7.2390625,69.616133 6.7820312,68.46757 6.7117187,68.315209 6.5359375,67.881568 6.3367187,67.412766 8.10625,65.842281 8.4578125,65.59616 9.0320312,65.561 V 65.373479 H 6.840625 V 65.561 c 0.515625,0.01172 0.65625,0.0586 0.65625,0.222681 0,0.234401 -0.5976563,0.808682 -1.7109375,1.675965 -0.1875,0.128921 -0.3515625,0.257841 -0.515625,0.398482 L 6.7,62.373149 6.6414062,62.314549 C 5.9148437,62.47863 5.4578125,62.54895 4.778125,62.63099 v 0.199241 c 0.5859375,-0.01172 0.796875,0.07032 0.8085937,0.293001 -0.023437,0.210961 -0.1054687,0.527402 -0.2578125,1.078243 -0.046875,0.175801 -0.09375,0.304721 -0.1171875,0.398482 l -0.023437,0.10548 -1.5234375,5.801419 H 4.567188 L 5.1414067,68.350369 5.645313,67.963608 c 0.1992187,0.527402 0.5039062,1.265764 0.7265625,1.687686 0.3867187,0.761802 0.5976562,0.984483 0.9492187,0.984483 0.4804688,0 0.7734375,-0.293001 1.3242188,-1.300924 z M -117.99629,15.337703 c -0.28125,0.586002 -0.51562,0.726642 -1.19531,0.750082 h -2.27344 v -0.0586 l 2.29688,-2.308848 c 1.40625,-1.394684 1.79296,-2.004126 1.79296,-2.801089 0,-1.1368439 -0.85546,-2.0275669 -1.94531,-2.0275669 -0.43359,0 -0.8789,0.1054804 -1.24219,0.304721 -0.60937,0.3398812 -0.92578,0.7500825 -1.27734,1.6173659 l 0.24609,0.08204 c 0.44532,-0.785243 0.96094,-1.125124 1.6875,-1.125124 0.86719,0 1.5,0.621162 1.5,1.453285 0,0.257841 -0.0351,0.480521 -0.10546,0.644602 -0.29297,0.644602 -0.84375,1.406405 -1.62891,2.238527 l -2.51953,2.695609 v 0.199241 h 4.26562 l 0.59766,-1.582205 z m 6.16406,0.351601 c -0.43359,0.750082 -0.5039,0.820402 -0.72656,0.820402 -0.24609,0 -0.50391,-0.398481 -0.96094,-1.547045 -0.0703,-0.15236 -0.24609,-0.586002 -0.44531,-1.054803 1.76953,-1.570485 2.12109,-1.816606 2.69531,-1.851766 v -0.187521 h -2.1914 v 0.187521 c 0.51562,0.01172 0.65625,0.0586 0.65625,0.22268 0,0.234401 -0.59766,0.808683 -1.71094,1.675966 -0.1875,0.12892 -0.35156,0.257841 -0.51563,0.398481 l 1.42969,-5.484978 -0.0586,-0.0586 c -0.72656,0.1640806 -1.1836,0.2344008 -1.86328,0.3164411 v 0.1992406 c 0.58593,-0.01172 0.79687,0.07032 0.80859,0.293001 -0.0234,0.2109607 -0.10547,0.5274013 -0.25781,1.0782433 -0.0469,0.175801 -0.0937,0.304721 -0.11719,0.398481 l -0.0234,0.105481 -1.52343,5.801419 h 0.90234 l 0.57422,-2.156487 0.5039,-0.386761 c 0.19922,0.527401 0.50391,1.265764 0.72657,1.687685 0.38672,0.761803 0.59765,0.984484 0.94922,0.984484 0.48046,0 0.77343,-0.293001 1.32421,-1.300925 z m 109.0664097,12.07457 h -5.9648438 v 0.199241 c 0.7734375,0.07032 0.9140625,0.14064 0.9140625,0.492241 0,0.175801 -0.046875,0.480522 -0.1289062,0.761803 l -1.4765625,5.309178 c -0.2109375,0.714922 -0.2929688,0.785242 -0.9843747,0.890723 v 0.18752 h 3.0234372 v -0.18752 c -0.6914063,-0.03516 -0.9140625,-0.175801 -0.9140625,-0.527402 0,-0.117201 0.023437,-0.257841 0.1171875,-0.550842 l 0.7382812,-2.672169 c 0.4453125,0.02344 0.7148438,0.03516 0.9726563,0.03516 0.46875,0 0.5507812,0.01172 0.65625,0.0586 0.1875,0.105481 0.2695312,0.257841 0.2695312,0.492242 0,0.199241 -0.023437,0.339881 -0.09375,0.714922 l 0.1992188,0.0586 0.9140625,-2.81281 -0.2109375,-0.0586 c -0.5507813,1.078244 -0.5859375,1.089964 -2.6015625,1.113404 l 0.796875,-2.78937 c 0.070312,-0.24612 0.234375,-0.316441 0.7265625,-0.316441 2.0273437,0 2.4492187,0.152361 2.4492187,0.925883 0,0.08204 0,0.140641 -0.011719,0.257841 -0.011719,0.117201 -0.011719,0.140641 -0.023437,0.234401 l 0.2578125,0.02344 z m 0,0"
       style="fill:#231f20;fill-opacity:1;fill-rule:nonzero;stroke:none"
       aria-label="k&#10;2k&#10;2k&#10;F"
       transform="matrix(1.3333333,0,0,1.3331867,240.56667,16.606667)" />
  </g>
</svg>
