<?xml version="1.0" encoding="UTF-8" standalone="no"?>
<!-- Created with Inkscape (http://www.inkscape.org/) -->

<svg
   version="1.1"
   id="svg1"
   width="354.66666"
   height="109.33333"
   viewBox="0 0 354.66666 109.33333"
   sodipodi:docname="exs1_2.eps"
   xmlns:inkscape="http://www.inkscape.org/namespaces/inkscape"
   xmlns:sodipodi="http://sodipodi.sourceforge.net/DTD/sodipodi-0.dtd"
   xmlns="http://www.w3.org/2000/svg"
   xmlns:svg="http://www.w3.org/2000/svg">
  <defs
     id="defs1">
    <clipPath
       clipPathUnits="userSpaceOnUse"
       id="clipPath2">
      <path
         d="M 0,811 H 2660 V 0 H 0 Z"
         transform="translate(0,-2.5000001e-5)"
         id="path2" />
    </clipPath>
    <clipPath
       clipPathUnits="userSpaceOnUse"
       id="clipPath4">
      <path
         d="M 0,811 H 2660 V 0 H 0 Z"
         transform="translate(0,-2.5000001e-5)"
         id="path4" />
    </clipPath>
    <clipPath
       clipPathUnits="userSpaceOnUse"
       id="clipPath6">
      <path
         d="M 0,811 H 2660 V 0 H 0 Z"
         transform="translate(0,-2.5000001e-5)"
         id="path6" />
    </clipPath>
    <clipPath
       clipPathUnits="userSpaceOnUse"
       id="clipPath8">
      <path
         d="M 0,811 H 2660 V 0 H 0 Z"
         transform="translate(0,-2.5000001e-5)"
         id="path8" />
    </clipPath>
    <clipPath
       clipPathUnits="userSpaceOnUse"
       id="clipPath10">
      <path
         d="M 0,811 H 2660 V 0 H 0 Z"
         transform="translate(0,-2.5000001e-5)"
         id="path10" />
    </clipPath>
    <clipPath
       clipPathUnits="userSpaceOnUse"
       id="clipPath12">
      <path
         d="M 0,811 H 2660 V 0 H 0 Z"
         transform="translate(0,-2.5000001e-5)"
         id="path12" />
    </clipPath>
    <clipPath
       clipPathUnits="userSpaceOnUse"
       id="clipPath14">
      <path
         d="M 0,811 H 2660 V 0 H 0 Z"
         transform="translate(0,-2.5000001e-5)"
         id="path14" />
    </clipPath>
    <clipPath
       clipPathUnits="userSpaceOnUse"
       id="clipPath16">
      <path
         d="M 0,811 H 2660 V 0 H 0 Z"
         transform="translate(0,-2.5000001e-5)"
         id="path16" />
    </clipPath>
    <clipPath
       clipPathUnits="userSpaceOnUse"
       id="clipPath18">
      <path
         d="M 0,811 H 2660 V 0 H 0 Z"
         transform="translate(0,-2.5000001e-5)"
         id="path18" />
    </clipPath>
    <clipPath
       clipPathUnits="userSpaceOnUse"
       id="clipPath20">
      <path
         d="M 0,811 H 2660 V 0 H 0 Z"
         transform="translate(0,-2.5000001e-5)"
         id="path20" />
    </clipPath>
    <clipPath
       clipPathUnits="userSpaceOnUse"
       id="clipPath22">
      <path
         d="M 0,811 H 2660 V 0 H 0 Z"
         transform="translate(0,-2.5000001e-5)"
         id="path22" />
    </clipPath>
    <clipPath
       clipPathUnits="userSpaceOnUse"
       id="clipPath24">
      <path
         d="M 0,811 H 2660 V 0 H 0 Z"
         transform="translate(0,-2.5000001e-5)"
         id="path24" />
    </clipPath>
    <clipPath
       clipPathUnits="userSpaceOnUse"
       id="clipPath26">
      <path
         d="M 0,811 H 2660 V 0 H 0 Z"
         transform="translate(0,-2.5000001e-5)"
         id="path26" />
    </clipPath>
    <clipPath
       clipPathUnits="userSpaceOnUse"
       id="clipPath28">
      <path
         d="M 0,811 H 2660 V 0 H 0 Z"
         transform="translate(0,-2.5000001e-5)"
         id="path28" />
    </clipPath>
    <clipPath
       clipPathUnits="userSpaceOnUse"
       id="clipPath30">
      <path
         d="M 0,811 H 2660 V 0 H 0 Z"
         transform="translate(0,-2.5000001e-5)"
         id="path30" />
    </clipPath>
    <clipPath
       clipPathUnits="userSpaceOnUse"
       id="clipPath32">
      <path
         d="M 0,811 H 2660 V 0 H 0 Z"
         transform="translate(0,-2.5000001e-5)"
         id="path32" />
    </clipPath>
    <clipPath
       clipPathUnits="userSpaceOnUse"
       id="clipPath34">
      <path
         d="M 0,811 H 2660 V 0 H 0 Z"
         transform="translate(0,-2.5000001e-5)"
         id="path34" />
    </clipPath>
    <clipPath
       clipPathUnits="userSpaceOnUse"
       id="clipPath36">
      <path
         d="M 0,811 H 2660 V 0 H 0 Z"
         transform="translate(0,-2.5000001e-5)"
         id="path36" />
    </clipPath>
    <clipPath
       clipPathUnits="userSpaceOnUse"
       id="clipPath38">
      <path
         d="M 0,811 H 2660 V 0 H 0 Z"
         transform="translate(0,-2.5000001e-5)"
         id="path38" />
    </clipPath>
    <clipPath
       clipPathUnits="userSpaceOnUse"
       id="clipPath40">
      <path
         d="M 0,811 H 2660 V 0 H 0 Z"
         transform="translate(0,-2.5000001e-5)"
         id="path40" />
    </clipPath>
    <clipPath
       clipPathUnits="userSpaceOnUse"
       id="clipPath42">
      <path
         d="M 0,811 H 2660 V 0 H 0 Z"
         transform="translate(0,-2.5000001e-5)"
         id="path42" />
    </clipPath>
    <clipPath
       clipPathUnits="userSpaceOnUse"
       id="clipPath44">
      <path
         d="M 0,811 H 2660 V 0 H 0 Z"
         transform="translate(0,-2.5000001e-5)"
         id="path44" />
    </clipPath>
    <clipPath
       clipPathUnits="userSpaceOnUse"
       id="clipPath46">
      <path
         d="M 0,811 H 2660 V 0 H 0 Z"
         transform="translate(0,-2.5000001e-5)"
         id="path46" />
    </clipPath>
    <clipPath
       clipPathUnits="userSpaceOnUse"
       id="clipPath48">
      <path
         d="M 0,811 H 2660 V 0 H 0 Z"
         transform="translate(0,-2.5000001e-5)"
         id="path48" />
    </clipPath>
    <clipPath
       clipPathUnits="userSpaceOnUse"
       id="clipPath50">
      <path
         d="M 0,811 H 2660 V 0 H 0 Z"
         transform="translate(0,-2.5000001e-5)"
         id="path50" />
    </clipPath>
    <clipPath
       clipPathUnits="userSpaceOnUse"
       id="clipPath52">
      <path
         d="M 0,811 H 2660 V 0 H 0 Z"
         transform="translate(0,-2.5000001e-5)"
         id="path52" />
    </clipPath>
    <clipPath
       clipPathUnits="userSpaceOnUse"
       id="clipPath54">
      <path
         d="M 0,811 H 2660 V 0 H 0 Z"
         transform="translate(0,-2.5000001e-5)"
         id="path54" />
    </clipPath>
    <clipPath
       clipPathUnits="userSpaceOnUse"
       id="clipPath56">
      <path
         d="M 0,811 H 2660 V 0 H 0 Z"
         transform="translate(0,-2.5000001e-5)"
         id="path56" />
    </clipPath>
    <clipPath
       clipPathUnits="userSpaceOnUse"
       id="clipPath58">
      <path
         d="M 0,811 H 2660 V 0 H 0 Z"
         transform="translate(0,-2.5000001e-5)"
         id="path58" />
    </clipPath>
    <clipPath
       clipPathUnits="userSpaceOnUse"
       id="clipPath60">
      <path
         d="M 0,811 H 2660 V 0 H 0 Z"
         transform="translate(0,-2.5000001e-5)"
         id="path60" />
    </clipPath>
    <clipPath
       clipPathUnits="userSpaceOnUse"
       id="clipPath62">
      <path
         d="M 0,811 H 2660 V 0 H 0 Z"
         transform="translate(0,-2.5000001e-5)"
         id="path62" />
    </clipPath>
    <clipPath
       clipPathUnits="userSpaceOnUse"
       id="clipPath64">
      <path
         d="M 0,811 H 2660 V 0 H 0 Z"
         transform="translate(0,-2.5000001e-5)"
         id="path64" />
    </clipPath>
    <clipPath
       clipPathUnits="userSpaceOnUse"
       id="clipPath66">
      <path
         d="M 0,811 H 2660 V 0 H 0 Z"
         transform="translate(0,-2.5000001e-5)"
         id="path66" />
    </clipPath>
    <clipPath
       clipPathUnits="userSpaceOnUse"
       id="clipPath68">
      <path
         d="M 0,811 H 2660 V 0 H 0 Z"
         transform="translate(0,-2.5000001e-5)"
         id="path68" />
    </clipPath>
    <clipPath
       clipPathUnits="userSpaceOnUse"
       id="clipPath70">
      <path
         d="M 0,811 H 2660 V 0 H 0 Z"
         transform="translate(0,-2.5000001e-5)"
         id="path70" />
    </clipPath>
    <clipPath
       clipPathUnits="userSpaceOnUse"
       id="clipPath72">
      <path
         d="M 0,811 H 2660 V 0 H 0 Z"
         transform="translate(0,-2.5000001e-5)"
         id="path72" />
    </clipPath>
    <clipPath
       clipPathUnits="userSpaceOnUse"
       id="clipPath74">
      <path
         d="M 0,811 H 2660 V 0 H 0 Z"
         transform="translate(0,-2.5000001e-5)"
         id="path74" />
    </clipPath>
    <clipPath
       clipPathUnits="userSpaceOnUse"
       id="clipPath76">
      <path
         d="M 0,811 H 2660 V 0 H 0 Z"
         transform="translate(0,-2.5000001e-5)"
         id="path76" />
    </clipPath>
    <clipPath
       clipPathUnits="userSpaceOnUse"
       id="clipPath78">
      <path
         d="M 0,811 H 2660 V 0 H 0 Z"
         transform="translate(0,-2.5000001e-5)"
         id="path78" />
    </clipPath>
    <clipPath
       clipPathUnits="userSpaceOnUse"
       id="clipPath80">
      <path
         d="M 0,811 H 2660 V 0 H 0 Z"
         transform="translate(0,-2.5000001e-5)"
         id="path80" />
    </clipPath>
    <clipPath
       clipPathUnits="userSpaceOnUse"
       id="clipPath82">
      <path
         d="M 0,811 H 2660 V 0 H 0 Z"
         transform="translate(0,-2.5000001e-5)"
         id="path82" />
    </clipPath>
    <clipPath
       clipPathUnits="userSpaceOnUse"
       id="clipPath84">
      <path
         d="M 0,811 H 2660 V 0 H 0 Z"
         transform="translate(0,-2.5000001e-5)"
         id="path84" />
    </clipPath>
    <clipPath
       clipPathUnits="userSpaceOnUse"
       id="clipPath86">
      <path
         d="M 0,811 H 2660 V 0 H 0 Z"
         transform="translate(0,-2.5000001e-5)"
         id="path86" />
    </clipPath>
    <clipPath
       clipPathUnits="userSpaceOnUse"
       id="clipPath88">
      <path
         d="M 0,811 H 2660 V 0 H 0 Z"
         transform="translate(0,-2.5000001e-5)"
         id="path88" />
    </clipPath>
    <clipPath
       clipPathUnits="userSpaceOnUse"
       id="clipPath90">
      <path
         d="M 0,811 H 2660 V 0 H 0 Z"
         transform="translate(0,-2.5000001e-5)"
         id="path90" />
    </clipPath>
    <clipPath
       clipPathUnits="userSpaceOnUse"
       id="clipPath92">
      <path
         d="M 0,811 H 2660 V 0 H 0 Z"
         transform="translate(0,-2.5000001e-5)"
         id="path92" />
    </clipPath>
    <clipPath
       clipPathUnits="userSpaceOnUse"
       id="clipPath94">
      <path
         d="M 0,811 H 2660 V 0 H 0 Z"
         transform="translate(0,-2.5000001e-5)"
         id="path94" />
    </clipPath>
    <clipPath
       clipPathUnits="userSpaceOnUse"
       id="clipPath96">
      <path
         d="M 0,811 H 2660 V 0 H 0 Z"
         transform="translate(0,-2.5000001e-5)"
         id="path96" />
    </clipPath>
    <clipPath
       clipPathUnits="userSpaceOnUse"
       id="clipPath98">
      <path
         d="M 0,811 H 2660 V 0 H 0 Z"
         transform="matrix(0.1,0,0,-0.100011,-172,3.3359194)"
         id="path98" />
    </clipPath>
    <clipPath
       clipPathUnits="userSpaceOnUse"
       id="clipPath100">
      <path
         d="M 0,811 H 2660 V 0 H 0 Z"
         transform="translate(0,-2.5000001e-5)"
         id="path100" />
    </clipPath>
    <clipPath
       clipPathUnits="userSpaceOnUse"
       id="clipPath102">
      <path
         d="M 0,811 H 2660 V 0 H 0 Z"
         transform="translate(0,-2.5000001e-5)"
         id="path102" />
    </clipPath>
    <clipPath
       clipPathUnits="userSpaceOnUse"
       id="clipPath104">
      <path
         d="M 0,811 H 2660 V 0 H 0 Z"
         transform="translate(0,-2.5000001e-5)"
         id="path104" />
    </clipPath>
    <clipPath
       clipPathUnits="userSpaceOnUse"
       id="clipPath106">
      <path
         d="M 0,811 H 2660 V 0 H 0 Z"
         transform="translate(0,-2.5000001e-5)"
         id="path106" />
    </clipPath>
    <clipPath
       clipPathUnits="userSpaceOnUse"
       id="clipPath108">
      <path
         d="M 0,811 H 2660 V 0 H 0 Z"
         transform="translate(0,-2.5000001e-5)"
         id="path108" />
    </clipPath>
    <clipPath
       clipPathUnits="userSpaceOnUse"
       id="clipPath110">
      <path
         d="M 0,811 H 2660 V 0 H 0 Z"
         transform="translate(0,-2.5000001e-5)"
         id="path110" />
    </clipPath>
    <clipPath
       clipPathUnits="userSpaceOnUse"
       id="clipPath112">
      <path
         d="M 0,811 H 2660 V 0 H 0 Z"
         transform="translate(0,-2.5000001e-5)"
         id="path112" />
    </clipPath>
    <clipPath
       clipPathUnits="userSpaceOnUse"
       id="clipPath114">
      <path
         d="M 0,811 H 2660 V 0 H 0 Z"
         transform="matrix(0.8689985,0,0,-1.1775151,0,2.9437878e-5)"
         id="path114" />
    </clipPath>
    <clipPath
       clipPathUnits="userSpaceOnUse"
       id="clipPath116">
      <path
         d="M 0,811 H 2660 V 0 H 0 Z"
         transform="translate(0,-2.5000001e-5)"
         id="path116" />
    </clipPath>
    <clipPath
       clipPathUnits="userSpaceOnUse"
       id="clipPath118">
      <path
         d="M 0,811 H 2660 V 0 H 0 Z"
         transform="matrix(0.8689985,0,0,-1.1775151,0,2.9437878e-5)"
         id="path118" />
    </clipPath>
    <clipPath
       clipPathUnits="userSpaceOnUse"
       id="clipPath120">
      <path
         d="M 0,811 H 2660 V 0 H 0 Z"
         transform="translate(0,-2.5000001e-5)"
         id="path120" />
    </clipPath>
    <clipPath
       clipPathUnits="userSpaceOnUse"
       id="clipPath122">
      <path
         d="M 0,811 H 2660 V 0 H 0 Z"
         transform="matrix(0.8689985,0,0,-1.1775151,0,2.9437878e-5)"
         id="path122" />
    </clipPath>
    <clipPath
       clipPathUnits="userSpaceOnUse"
       id="clipPath127">
      <path
         d="M 0,811 H 2660 V 0 H 0 Z"
         transform="matrix(0.1,0,0,-0.1,-17.0383,57.979301)"
         id="path127" />
    </clipPath>
    <clipPath
       clipPathUnits="userSpaceOnUse"
       id="clipPath129">
      <path
         d="M 0,811 H 2660 V 0 H 0 Z"
         transform="matrix(0.96784806,0,0,-1.0343657,0,2.5859144e-5)"
         id="path129" />
    </clipPath>
    <clipPath
       clipPathUnits="userSpaceOnUse"
       id="clipPath131">
      <path
         d="M 0,811 H 2660 V 0 H 0 Z"
         transform="translate(0,-2.5000001e-5)"
         id="path131" />
    </clipPath>
    <clipPath
       clipPathUnits="userSpaceOnUse"
       id="clipPath133">
      <path
         d="M 0,811 H 2660 V 0 H 0 Z"
         transform="translate(0,-2.5000001e-5)"
         id="path133" />
    </clipPath>
    <clipPath
       clipPathUnits="userSpaceOnUse"
       id="clipPath135">
      <path
         d="M 0,811 H 2660 V 0 H 0 Z"
         transform="translate(0,-2.5000001e-5)"
         id="path135" />
    </clipPath>
    <clipPath
       clipPathUnits="userSpaceOnUse"
       id="clipPath137">
      <path
         d="M 0,811 H 2660 V 0 H 0 Z"
         transform="translate(0,-2.5000001e-5)"
         id="path137" />
    </clipPath>
    <clipPath
       clipPathUnits="userSpaceOnUse"
       id="clipPath139">
      <path
         d="M 0,811 H 2660 V 0 H 0 Z"
         transform="matrix(0.96784806,0,0,-1.0343657,0,2.5859144e-5)"
         id="path139" />
    </clipPath>
    <clipPath
       clipPathUnits="userSpaceOnUse"
       id="clipPath141">
      <path
         d="M 0,811 H 2660 V 0 H 0 Z"
         transform="translate(0,-2.5000001e-5)"
         id="path141" />
    </clipPath>
    <clipPath
       clipPathUnits="userSpaceOnUse"
       id="clipPath143">
      <path
         d="M 0,811 H 2660 V 0 H 0 Z"
         transform="translate(0,-2.5000001e-5)"
         id="path143" />
    </clipPath>
    <clipPath
       clipPathUnits="userSpaceOnUse"
       id="clipPath145">
      <path
         d="M 0,811 H 2660 V 0 H 0 Z"
         transform="translate(0,-2.5000001e-5)"
         id="path145" />
    </clipPath>
    <clipPath
       clipPathUnits="userSpaceOnUse"
       id="clipPath147">
      <path
         d="M 0,811 H 2660 V 0 H 0 Z"
         transform="matrix(0.96784806,0,0,-1.0343657,0,2.5859144e-5)"
         id="path147" />
    </clipPath>
    <clipPath
       clipPathUnits="userSpaceOnUse"
       id="clipPath149">
      <path
         d="M 0,811 H 2660 V 0 H 0 Z"
         transform="translate(0,-2.5000001e-5)"
         id="path149" />
    </clipPath>
    <clipPath
       clipPathUnits="userSpaceOnUse"
       id="clipPath151">
      <path
         d="M 0,811 H 2660 V 0 H 0 Z"
         transform="translate(0,-2.5000001e-5)"
         id="path151" />
    </clipPath>
    <clipPath
       clipPathUnits="userSpaceOnUse"
       id="clipPath153">
      <path
         d="M 0,811 H 2660 V 0 H 0 Z"
         transform="translate(0,-2.5000001e-5)"
         id="path153" />
    </clipPath>
    <clipPath
       clipPathUnits="userSpaceOnUse"
       id="clipPath155">
      <path
         d="M 0,811 H 2660 V 0 H 0 Z"
         transform="translate(0,-2.5000001e-5)"
         id="path155" />
    </clipPath>
  </defs>
  <sodipodi:namedview
     id="namedview1"
     pagecolor="#ffffff"
     bordercolor="#000000"
     borderopacity="0.25"
     inkscape:showpageshadow="2"
     inkscape:pageopacity="0.0"
     inkscape:pagecheckerboard="0"
     inkscape:deskcolor="#d1d1d1">
    <inkscape:page
       x="0"
       y="0"
       inkscape:label="1"
       id="page1"
       width="354.66666"
       height="109.33333"
       margin="0"
       bleed="0" />
  </sodipodi:namedview>
  <g
     id="g1"
     inkscape:groupmode="layer"
     inkscape:label="1">
    <path
       id="path1"
       d="m 1426.02,224.352 26.99,63.007"
       style="fill:none;stroke:#231f20;stroke-width:5;stroke-linecap:butt;stroke-linejoin:miter;stroke-miterlimit:3.8637;stroke-dasharray:none;stroke-opacity:1"
       transform="matrix(0.13333333,0,0,-0.13333333,0,109.33333)"
       clip-path="url(#clipPath2)" />
    <path
       id="path3"
       d="M 1453.01,287.359 1505,160.371"
       style="fill:none;stroke:#231f20;stroke-width:5;stroke-linecap:butt;stroke-linejoin:miter;stroke-miterlimit:3.8637;stroke-dasharray:none;stroke-opacity:1"
       transform="matrix(0.13333333,0,0,-0.13333333,0,109.33333)"
       clip-path="url(#clipPath4)" />
    <path
       id="path5"
       d="m 1505,160.371 53.01,126.988"
       style="fill:none;stroke:#231f20;stroke-width:5;stroke-linecap:butt;stroke-linejoin:miter;stroke-miterlimit:3.8637;stroke-dasharray:none;stroke-opacity:1"
       transform="matrix(0.13333333,0,0,-0.13333333,0,109.33333)"
       clip-path="url(#clipPath6)" />
    <path
       id="path7"
       d="m 1558.01,287.359 53.01,-126.988"
       style="fill:none;stroke:#231f20;stroke-width:5;stroke-linecap:butt;stroke-linejoin:miter;stroke-miterlimit:3.8637;stroke-dasharray:none;stroke-opacity:1"
       transform="matrix(0.13333333,0,0,-0.13333333,0,109.33333)"
       clip-path="url(#clipPath8)" />
    <path
       id="path9"
       d="m 1611.02,160.371 51.99,126.988"
       style="fill:none;stroke:#231f20;stroke-width:5;stroke-linecap:butt;stroke-linejoin:miter;stroke-miterlimit:3.8637;stroke-dasharray:none;stroke-opacity:1"
       transform="matrix(0.13333333,0,0,-0.13333333,0,109.33333)"
       clip-path="url(#clipPath10)" />
    <path
       id="path11"
       d="m 1663.01,287.359 53.01,-126.988"
       style="fill:none;stroke:#231f20;stroke-width:5;stroke-linecap:butt;stroke-linejoin:miter;stroke-miterlimit:3.8637;stroke-dasharray:none;stroke-opacity:1"
       transform="matrix(0.13333333,0,0,-0.13333333,0,109.33333)"
       clip-path="url(#clipPath12)" />
    <path
       id="path13"
       d="m 1716.02,160.371 52.96,126.988"
       style="fill:none;stroke:#231f20;stroke-width:5;stroke-linecap:butt;stroke-linejoin:miter;stroke-miterlimit:3.8637;stroke-dasharray:none;stroke-opacity:1"
       transform="matrix(0.13333333,0,0,-0.13333333,0,109.33333)"
       clip-path="url(#clipPath14)" />
    <path
       id="path15"
       d="m 1768.98,287.359 53.01,-126.988"
       style="fill:none;stroke:#231f20;stroke-width:5;stroke-linecap:butt;stroke-linejoin:miter;stroke-miterlimit:3.8637;stroke-dasharray:none;stroke-opacity:1"
       transform="matrix(0.13333333,0,0,-0.13333333,0,109.33333)"
       clip-path="url(#clipPath16)" />
    <path
       id="path17"
       d="m 1821.99,160.371 51.99,126.988"
       style="fill:none;stroke:#231f20;stroke-width:5;stroke-linecap:butt;stroke-linejoin:miter;stroke-miterlimit:3.8637;stroke-dasharray:none;stroke-opacity:1"
       transform="matrix(0.13333333,0,0,-0.13333333,0,109.33333)"
       clip-path="url(#clipPath18)" />
    <path
       id="path19"
       d="m 1873.98,287.359 53.01,-126.988"
       style="fill:none;stroke:#231f20;stroke-width:5;stroke-linecap:butt;stroke-linejoin:miter;stroke-miterlimit:3.8637;stroke-dasharray:none;stroke-opacity:1"
       transform="matrix(0.13333333,0,0,-0.13333333,0,109.33333)"
       clip-path="url(#clipPath20)" />
    <path
       id="path21"
       d="M 1926.99,160.371 1980,287.359"
       style="fill:none;stroke:#231f20;stroke-width:5;stroke-linecap:butt;stroke-linejoin:miter;stroke-miterlimit:3.8637;stroke-dasharray:none;stroke-opacity:1"
       transform="matrix(0.13333333,0,0,-0.13333333,0,109.33333)"
       clip-path="url(#clipPath22)" />
    <path
       id="path23"
       d="m 1980,287.359 51.99,-126.988"
       style="fill:none;stroke:#231f20;stroke-width:5;stroke-linecap:butt;stroke-linejoin:miter;stroke-miterlimit:3.8637;stroke-dasharray:none;stroke-opacity:1"
       transform="matrix(0.13333333,0,0,-0.13333333,0,109.33333)"
       clip-path="url(#clipPath24)" />
    <path
       id="path25"
       d="m 2033.01,160.371 25.97,62.969"
       style="fill:none;stroke:#231f20;stroke-width:5;stroke-linecap:butt;stroke-linejoin:miter;stroke-miterlimit:3.8637;stroke-dasharray:none;stroke-opacity:1"
       transform="matrix(0.13333333,0,0,-0.13333333,0,109.33333)"
       clip-path="url(#clipPath26)" />
    <path
       id="path27"
       d="m 2060,223.34 h 253.01"
       style="fill:none;stroke:#231f20;stroke-width:5;stroke-linecap:butt;stroke-linejoin:miter;stroke-miterlimit:3.8637;stroke-dasharray:none;stroke-opacity:1"
       transform="matrix(0.13333333,0,0,-0.13333333,0,109.33333)"
       clip-path="url(#clipPath28)" />
    <path
       id="path29"
       d="m 1175,223.34 h 253.01"
       style="fill:none;stroke:#231f20;stroke-width:5;stroke-linecap:butt;stroke-linejoin:miter;stroke-miterlimit:3.8637;stroke-dasharray:none;stroke-opacity:1"
       transform="matrix(0.13333333,0,0,-0.13333333,0,109.33333)"
       clip-path="url(#clipPath30)" />
    <path
       id="path31"
       d="m 2280,161.34 h 58.9805 V 652.36 H 2280 Z"
       style="fill:none;stroke:#231f20;stroke-width:5;stroke-linecap:butt;stroke-linejoin:miter;stroke-miterlimit:3.8637;stroke-dasharray:none;stroke-opacity:1"
       transform="matrix(0.13333333,0,0,-0.13333333,0,109.33333)"
       clip-path="url(#clipPath32)" />
    <path
       id="path33"
       d="m 1425,585.371 26.02,62.969"
       style="fill:none;stroke:#231f20;stroke-width:5;stroke-linecap:butt;stroke-linejoin:miter;stroke-miterlimit:3.8637;stroke-dasharray:none;stroke-opacity:1"
       transform="matrix(0.13333333,0,0,-0.13333333,0,109.33333)"
       clip-path="url(#clipPath34)" />
    <path
       id="path35"
       d="m 1451.02,648.34 52.96,-125.981"
       style="fill:none;stroke:#231f20;stroke-width:5;stroke-linecap:butt;stroke-linejoin:miter;stroke-miterlimit:3.8637;stroke-dasharray:none;stroke-opacity:1"
       transform="matrix(0.13333333,0,0,-0.13333333,0,109.33333)"
       clip-path="url(#clipPath36)" />
    <path
       id="path37"
       d="m 1503.98,522.359 52.04,125.981"
       style="fill:none;stroke:#231f20;stroke-width:5;stroke-linecap:butt;stroke-linejoin:miter;stroke-miterlimit:3.8637;stroke-dasharray:none;stroke-opacity:1"
       transform="matrix(0.13333333,0,0,-0.13333333,0,109.33333)"
       clip-path="url(#clipPath38)" />
    <path
       id="path39"
       d="m 1556.02,648.34 52.96,-125.981"
       style="fill:none;stroke:#231f20;stroke-width:5;stroke-linecap:butt;stroke-linejoin:miter;stroke-miterlimit:3.8637;stroke-dasharray:none;stroke-opacity:1"
       transform="matrix(0.13333333,0,0,-0.13333333,0,109.33333)"
       clip-path="url(#clipPath40)" />
    <path
       id="path41"
       d="m 1608.98,522.359 53.01,125.981"
       style="fill:none;stroke:#231f20;stroke-width:5;stroke-linecap:butt;stroke-linejoin:miter;stroke-miterlimit:3.8637;stroke-dasharray:none;stroke-opacity:1"
       transform="matrix(0.13333333,0,0,-0.13333333,0,109.33333)"
       clip-path="url(#clipPath42)" />
    <path
       id="path43"
       d="M 1661.99,648.34 1715,522.359"
       style="fill:none;stroke:#231f20;stroke-width:5;stroke-linecap:butt;stroke-linejoin:miter;stroke-miterlimit:3.8637;stroke-dasharray:none;stroke-opacity:1"
       transform="matrix(0.13333333,0,0,-0.13333333,0,109.33333)"
       clip-path="url(#clipPath44)" />
    <path
       id="path45"
       d="m 1715,522.359 51.99,125.981"
       style="fill:none;stroke:#231f20;stroke-width:5;stroke-linecap:butt;stroke-linejoin:miter;stroke-miterlimit:3.8637;stroke-dasharray:none;stroke-opacity:1"
       transform="matrix(0.13333333,0,0,-0.13333333,0,109.33333)"
       clip-path="url(#clipPath46)" />
    <path
       id="path47"
       d="M 1766.99,648.34 1820,522.359"
       style="fill:none;stroke:#231f20;stroke-width:5;stroke-linecap:butt;stroke-linejoin:miter;stroke-miterlimit:3.8637;stroke-dasharray:none;stroke-opacity:1"
       transform="matrix(0.13333333,0,0,-0.13333333,0,109.33333)"
       clip-path="url(#clipPath48)" />
    <path
       id="path49"
       d="m 1820,522.359 53.01,125.981"
       style="fill:none;stroke:#231f20;stroke-width:5;stroke-linecap:butt;stroke-linejoin:miter;stroke-miterlimit:3.8637;stroke-dasharray:none;stroke-opacity:1"
       transform="matrix(0.13333333,0,0,-0.13333333,0,109.33333)"
       clip-path="url(#clipPath50)" />
    <path
       id="path51"
       d="M 1873.01,648.34 1925,522.359"
       style="fill:none;stroke:#231f20;stroke-width:5;stroke-linecap:butt;stroke-linejoin:miter;stroke-miterlimit:3.8637;stroke-dasharray:none;stroke-opacity:1"
       transform="matrix(0.13333333,0,0,-0.13333333,0,109.33333)"
       clip-path="url(#clipPath52)" />
    <path
       id="path53"
       d="m 1925,522.359 53.01,125.981"
       style="fill:none;stroke:#231f20;stroke-width:5;stroke-linecap:butt;stroke-linejoin:miter;stroke-miterlimit:3.8637;stroke-dasharray:none;stroke-opacity:1"
       transform="matrix(0.13333333,0,0,-0.13333333,0,109.33333)"
       clip-path="url(#clipPath54)" />
    <path
       id="path55"
       d="m 1978.01,648.34 53.01,-125.981"
       style="fill:none;stroke:#231f20;stroke-width:5;stroke-linecap:butt;stroke-linejoin:miter;stroke-miterlimit:3.8637;stroke-dasharray:none;stroke-opacity:1"
       transform="matrix(0.13333333,0,0,-0.13333333,0,109.33333)"
       clip-path="url(#clipPath56)" />
    <path
       id="path57"
       d="m 2031.99,521.352 26.02,63"
       style="fill:none;stroke:#231f20;stroke-width:5;stroke-linecap:butt;stroke-linejoin:miter;stroke-miterlimit:3.8637;stroke-dasharray:none;stroke-opacity:1"
       transform="matrix(0.13333333,0,0,-0.13333333,0,109.33333)"
       clip-path="url(#clipPath58)" />
    <path
       id="path59"
       d="m 2058.98,584.352 h 252.04"
       style="fill:none;stroke:#231f20;stroke-width:5;stroke-linecap:butt;stroke-linejoin:miter;stroke-miterlimit:3.8637;stroke-dasharray:none;stroke-opacity:1"
       transform="matrix(0.13333333,0,0,-0.13333333,0,109.33333)"
       clip-path="url(#clipPath60)" />
    <path
       id="path61"
       d="m 1173.98,585.371 h 252.04"
       style="fill:none;stroke:#231f20;stroke-width:5;stroke-linecap:butt;stroke-linejoin:miter;stroke-miterlimit:3.8637;stroke-dasharray:none;stroke-opacity:1"
       transform="matrix(0.13333333,0,0,-0.13333333,0,109.33333)"
       clip-path="url(#clipPath62)" />
    <path
       id="path63"
       d="m 2280,161.34 h 58.9805 V 652.36 H 2280 Z"
       style="fill:#e9e9e9;fill-opacity:1;fill-rule:nonzero;stroke:#231f20;stroke-width:5;stroke-linecap:butt;stroke-linejoin:miter;stroke-miterlimit:3.8637;stroke-dasharray:none;stroke-opacity:1"
       transform="matrix(0.13333333,0,0,-0.13333333,0,109.33333)"
       clip-path="url(#clipPath64)" />
    <path
       id="path65"
       d="m 281.988,403.34 26.024,63.012"
       style="fill:none;stroke:#231f20;stroke-width:5;stroke-linecap:butt;stroke-linejoin:miter;stroke-miterlimit:3.8637;stroke-dasharray:none;stroke-opacity:1"
       transform="matrix(0.13333333,0,0,-0.13333333,0,109.33333)"
       clip-path="url(#clipPath66)" />
    <path
       id="path67"
       d="M 308.012,466.352 361.02,340.371"
       style="fill:none;stroke:#231f20;stroke-width:5;stroke-linecap:butt;stroke-linejoin:miter;stroke-miterlimit:3.8637;stroke-dasharray:none;stroke-opacity:1"
       transform="matrix(0.13333333,0,0,-0.13333333,0,109.33333)"
       clip-path="url(#clipPath68)" />
    <path
       id="path69"
       d="m 361.02,340.371 51.992,125.981"
       style="fill:none;stroke:#231f20;stroke-width:5;stroke-linecap:butt;stroke-linejoin:miter;stroke-miterlimit:3.8637;stroke-dasharray:none;stroke-opacity:1"
       transform="matrix(0.13333333,0,0,-0.13333333,0,109.33333)"
       clip-path="url(#clipPath70)" />
    <path
       id="path71"
       d="M 413.012,466.352 466.02,340.371"
       style="fill:none;stroke:#231f20;stroke-width:5;stroke-linecap:butt;stroke-linejoin:miter;stroke-miterlimit:3.8637;stroke-dasharray:none;stroke-opacity:1"
       transform="matrix(0.13333333,0,0,-0.13333333,0,109.33333)"
       clip-path="url(#clipPath72)" />
    <path
       id="path73"
       d="m 466.02,340.371 52.96,125.981"
       style="fill:none;stroke:#231f20;stroke-width:5;stroke-linecap:butt;stroke-linejoin:miter;stroke-miterlimit:3.8637;stroke-dasharray:none;stroke-opacity:1"
       transform="matrix(0.13333333,0,0,-0.13333333,0,109.33333)"
       clip-path="url(#clipPath74)" />
    <path
       id="path75"
       d="M 518.98,466.352 571.988,340.371"
       style="fill:none;stroke:#231f20;stroke-width:5;stroke-linecap:butt;stroke-linejoin:miter;stroke-miterlimit:3.8637;stroke-dasharray:none;stroke-opacity:1"
       transform="matrix(0.13333333,0,0,-0.13333333,0,109.33333)"
       clip-path="url(#clipPath76)" />
    <path
       id="path77"
       d="M 571.988,340.371 623.98,466.352"
       style="fill:none;stroke:#231f20;stroke-width:5;stroke-linecap:butt;stroke-linejoin:miter;stroke-miterlimit:3.8637;stroke-dasharray:none;stroke-opacity:1"
       transform="matrix(0.13333333,0,0,-0.13333333,0,109.33333)"
       clip-path="url(#clipPath78)" />
    <path
       id="path79"
       d="M 623.98,466.352 676.988,340.371"
       style="fill:none;stroke:#231f20;stroke-width:5;stroke-linecap:butt;stroke-linejoin:miter;stroke-miterlimit:3.8637;stroke-dasharray:none;stroke-opacity:1"
       transform="matrix(0.13333333,0,0,-0.13333333,0,109.33333)"
       clip-path="url(#clipPath80)" />
    <path
       id="path81"
       d="M 676.988,340.371 730,466.352"
       style="fill:none;stroke:#231f20;stroke-width:5;stroke-linecap:butt;stroke-linejoin:miter;stroke-miterlimit:3.8637;stroke-dasharray:none;stroke-opacity:1"
       transform="matrix(0.13333333,0,0,-0.13333333,0,109.33333)"
       clip-path="url(#clipPath82)" />
    <path
       id="path83"
       d="M 730,466.352 781.988,340.371"
       style="fill:none;stroke:#231f20;stroke-width:5;stroke-linecap:butt;stroke-linejoin:miter;stroke-miterlimit:3.8637;stroke-dasharray:none;stroke-opacity:1"
       transform="matrix(0.13333333,0,0,-0.13333333,0,109.33333)"
       clip-path="url(#clipPath84)" />
    <path
       id="path85"
       d="M 781.988,340.371 835,466.352"
       style="fill:none;stroke:#231f20;stroke-width:5;stroke-linecap:butt;stroke-linejoin:miter;stroke-miterlimit:3.8637;stroke-dasharray:none;stroke-opacity:1"
       transform="matrix(0.13333333,0,0,-0.13333333,0,109.33333)"
       clip-path="url(#clipPath86)" />
    <path
       id="path87"
       d="M 835,466.352 888.012,340.371"
       style="fill:none;stroke:#231f20;stroke-width:5;stroke-linecap:butt;stroke-linejoin:miter;stroke-miterlimit:3.8637;stroke-dasharray:none;stroke-opacity:1"
       transform="matrix(0.13333333,0,0,-0.13333333,0,109.33333)"
       clip-path="url(#clipPath88)" />
    <path
       id="path89"
       d="M 888.98,339.352 915,402.359"
       style="fill:none;stroke:#231f20;stroke-width:5;stroke-linecap:butt;stroke-linejoin:miter;stroke-miterlimit:3.8637;stroke-dasharray:none;stroke-opacity:1"
       transform="matrix(0.13333333,0,0,-0.13333333,0,109.33333)"
       clip-path="url(#clipPath90)" />
    <path
       id="path91"
       d="m 916.02,402.359 h 251.99"
       style="fill:none;stroke:#231f20;stroke-width:5;stroke-linecap:butt;stroke-linejoin:miter;stroke-miterlimit:3.8637;stroke-dasharray:none;stroke-opacity:1"
       transform="matrix(0.13333333,0,0,-0.13333333,0,109.33333)"
       clip-path="url(#clipPath92)" />
    <path
       id="path93"
       d="M 31.0195,403.34 H 283.012"
       style="fill:none;stroke:#231f20;stroke-width:5;stroke-linecap:butt;stroke-linejoin:miter;stroke-miterlimit:3.8637;stroke-dasharray:none;stroke-opacity:1"
       transform="matrix(0.13333333,0,0,-0.13333333,0,109.33333)"
       clip-path="url(#clipPath94)" />
    <path
       id="path95"
       d="m 1136.99,160.371 h 60 v 490.98 h -60 z"
       style="fill:#e9e9e9;fill-opacity:1;fill-rule:nonzero;stroke:#231f20;stroke-width:5;stroke-linecap:butt;stroke-linejoin:miter;stroke-miterlimit:3.8637;stroke-dasharray:none;stroke-opacity:1"
       transform="matrix(0.13333333,0,0,-0.13333333,0,109.33333)"
       clip-path="url(#clipPath96)" />
    <text
       id="text96"
       xml:space="preserve"
       transform="matrix(1.3333333,0,0,1.3331867,229.33333,104.88593)"
       clip-path="url(#clipPath98)"><tspan
         id="tspan96"
         style="font-variant:normal;font-weight:normal;font-size:12.0006px;font-family:'Times New Roman';writing-mode:lr-tb;fill:#231f20;fill-opacity:1;fill-rule:nonzero;stroke:none"
         x="0"
         y="0">3</tspan><tspan
         id="tspan97"
         style="font-variant:normal;font-weight:normal;font-size:12.0006px;font-family:'Times New Roman';writing-mode:lr-tb;fill:#231f20;fill-opacity:1;fill-rule:nonzero;stroke:none"
         x="0.2"
         y="-67.807457">2</tspan><tspan
         id="tspan98"
         style="font-variant:normal;font-weight:normal;font-size:12.0006px;font-family:'Times New Roman';writing-mode:lr-tb;fill:#231f20;fill-opacity:1;fill-rule:nonzero;stroke:none"
         x="-119.30014"
         y="-18.101992">1</tspan></text>
    <path
       id="path99"
       d="M 0,504.352 H 260"
       style="fill:none;stroke:#231f20;stroke-width:2.5;stroke-linecap:butt;stroke-linejoin:miter;stroke-miterlimit:3.8637;stroke-dasharray:none;stroke-opacity:1"
       transform="matrix(0.13333333,0,0,-0.13333333,0,109.33333)"
       clip-path="url(#clipPath100)" />
    <path
       id="path101"
       d="m 256.988,504.352 v 15 l 38.012,-15 -38.012,-15 v 15"
       style="fill:#231f20;fill-opacity:1;fill-rule:evenodd;stroke:none"
       transform="matrix(0.13333333,0,0,-0.13333333,0,109.33333)"
       clip-path="url(#clipPath102)" />
    <path
       id="path103"
       d="m 1220,400.371 h 260"
       style="fill:none;stroke:#231f20;stroke-width:2.5;stroke-linecap:butt;stroke-linejoin:miter;stroke-miterlimit:3.8637;stroke-dasharray:none;stroke-opacity:1"
       transform="matrix(0.13333333,0,0,-0.13333333,0,109.33333)"
       clip-path="url(#clipPath104)" />
    <path
       id="path105"
       d="m 1476.99,400.371 v 15 l 38.01,-15 -38.01,-15 v 15"
       style="fill:#231f20;fill-opacity:1;fill-rule:evenodd;stroke:none"
       transform="matrix(0.13333333,0,0,-0.13333333,0,109.33333)"
       clip-path="url(#clipPath106)" />
    <path
       id="path107"
       d="m 2365,401.352 h 258.98"
       style="fill:none;stroke:#231f20;stroke-width:2.5;stroke-linecap:butt;stroke-linejoin:miter;stroke-miterlimit:3.8637;stroke-dasharray:none;stroke-opacity:1"
       transform="matrix(0.13333333,0,0,-0.13333333,0,109.33333)"
       clip-path="url(#clipPath108)" />
    <path
       id="path109"
       d="m 2621.99,401.352 v 15 l 36.99,-15 -36.99,-15 v 15"
       style="fill:#231f20;fill-opacity:1;fill-rule:evenodd;stroke:none"
       transform="matrix(0.13333333,0,0,-0.13333333,0,109.33333)"
       clip-path="url(#clipPath110)" />
    <path
       id="path111"
       d="m 56.1289,403.852 c 0,-13.25 -11.8672,-23.993 -26.5586,-23.993 -14.7305,0 -26.60155,10.743 -26.60155,23.993 0,13.238 11.87105,23.976 26.60155,23.976 14.6914,0 26.5586,-10.738 26.5586,-23.976 z"
       style="fill:#000000;fill-opacity:1;fill-rule:nonzero;stroke:none"
       transform="matrix(0.13333333,0,0,-0.13333333,0,109.33333)"
       clip-path="url(#clipPath112)" />
    <path
       id="path113"
       d="m 48.7758,-475.532 c 0,15.588 -10.3126,28.242 -23.0793,28.242 -12.8007,0 -23.11667,-12.654 -23.11667,-28.242 0,-15.598 10.31597,-28.242 23.11667,-28.242 12.7667,0 23.0793,12.644 23.0793,28.242 z"
       style="fill:none;stroke:#000000;stroke-width:2.9485;stroke-linecap:butt;stroke-linejoin:miter;stroke-miterlimit:4;stroke-dasharray:none;stroke-opacity:1"
       transform="matrix(0.15343333,0,0,0.1132328,0,109.33333)"
       clip-path="url(#clipPath114)" />
    <path
       id="path115"
       d="m 1192.85,401.66 c 0,-13.238 -11.91,-23.988 -26.6,-23.988 -14.69,0 -26.6,10.75 -26.6,23.988 0,13.238 11.91,23.981 26.6,23.981 14.69,0 26.6,-10.743 26.6,-23.981 z"
       style="fill:#000000;fill-opacity:1;fill-rule:nonzero;stroke:none"
       transform="matrix(0.13333333,0,0,-0.13333333,0,109.33333)"
       clip-path="url(#clipPath116)" />
    <path
       id="path117"
       d="m 1036.58,-472.961 c 0,15.588 -10.35,28.242 -23.11,28.242 -12.77,0 -23.121,-12.654 -23.121,-28.242 0,-15.588 10.351,-28.242 23.121,-28.242 12.76,0 23.11,12.654 23.11,28.242 z"
       style="fill:none;stroke:#000000;stroke-width:2.9485;stroke-linecap:butt;stroke-linejoin:miter;stroke-miterlimit:4;stroke-dasharray:none;stroke-opacity:1"
       transform="matrix(0.15343333,0,0,0.1132328,0,109.33333)"
       clip-path="url(#clipPath118)" />
    <path
       id="path119"
       d="m 2335.66,401.66 c 0,-13.238 -11.91,-23.988 -26.6,-23.988 -14.68,0 -26.6,10.75 -26.6,23.988 0,13.238 11.92,23.981 26.6,23.981 14.69,0 26.6,-10.743 26.6,-23.981 z"
       style="fill:#000000;fill-opacity:1;fill-rule:nonzero;stroke:none"
       transform="matrix(0.13333333,0,0,-0.13333333,0,109.33333)"
       clip-path="url(#clipPath120)" />
    <path
       id="path121"
       d="m 2029.68,-472.961 c 0,15.588 -10.35,28.242 -23.12,28.242 -12.76,0 -23.11,-12.654 -23.11,-28.242 0,-15.588 10.35,-28.242 23.11,-28.242 12.77,0 23.12,12.654 23.12,28.242 z"
       style="fill:none;stroke:#000000;stroke-width:2.9485;stroke-linecap:butt;stroke-linejoin:miter;stroke-miterlimit:4;stroke-dasharray:none;stroke-opacity:1"
       transform="matrix(0.15343333,0,0,0.1132328,0,109.33333)"
       clip-path="url(#clipPath122)" />
    <text
       id="text122"
       xml:space="preserve"
       transform="matrix(1.3333333,0,0,1.3333333,22.717733,32.0276)"
       clip-path="url(#clipPath127)"><tspan
         id="tspan122"
         style="font-style:italic;font-variant:normal;font-weight:normal;font-size:12px;font-family:'Times New Roman';writing-mode:lr-tb;fill:#000000;fill-opacity:1;fill-rule:nonzero;stroke:none"
         x="0"
         y="0">a</tspan><tspan
         id="tspan123"
         style="font-variant:normal;font-weight:normal;font-size:8px;font-family:'Times New Roman';writing-mode:lr-tb;fill:#000000;fill-opacity:1;fill-rule:nonzero;stroke:none"
         x="6"
         y="1.91992">1</tspan><tspan
         id="tspan124"
         style="font-style:italic;font-variant:normal;font-weight:normal;font-size:12px;font-family:'Times New Roman';writing-mode:lr-tb;fill:#000000;fill-opacity:1;fill-rule:nonzero;stroke:none"
         x="120.511"
         y="13.17972">a</tspan><tspan
         id="tspan125"
         style="font-variant:normal;font-weight:normal;font-size:8px;font-family:'Times New Roman';writing-mode:lr-tb;fill:#000000;fill-opacity:1;fill-rule:nonzero;stroke:none"
         x="126.511"
         y="15.09964">2</tspan><tspan
         id="tspan126"
         style="font-style:italic;font-variant:normal;font-weight:normal;font-size:12px;font-family:'Times New Roman';writing-mode:lr-tb;fill:#000000;fill-opacity:1;fill-rule:nonzero;stroke:none"
         x="234.57401"
         y="11.65316">a</tspan><tspan
         id="tspan127"
         style="font-variant:normal;font-weight:normal;font-size:8px;font-family:'Times New Roman';writing-mode:lr-tb;fill:#000000;fill-opacity:1;fill-rule:nonzero;stroke:none"
         x="240.57401"
         y="13.57308">3</tspan></text>
    <path
       id="path128"
       d="m 601.05,-262.083 c 0,34.91 -26.275,63.19 -58.679,63.19 -32.366,0 -58.642,-28.28 -58.642,-63.19 0,-34.869 26.276,-63.152 58.642,-63.152 32.404,0 58.679,28.283 58.679,63.152 z"
       style="fill:none;stroke:#000000;stroke-width:2.59005;stroke-linecap:butt;stroke-linejoin:miter;stroke-miterlimit:4;stroke-dasharray:none;stroke-opacity:1"
       transform="matrix(0.13776267,0,0,0.12890347,0,109.33333)"
       clip-path="url(#clipPath129)" />
    <path
       id="path130"
       d="m 620.98,253.18 101.481,0.351"
       style="fill:none;stroke:#000000;stroke-width:2.87827;stroke-linecap:butt;stroke-linejoin:miter;stroke-miterlimit:4;stroke-dasharray:none;stroke-opacity:1"
       transform="matrix(0.13333333,0,0,-0.13333333,0,109.33333)"
       clip-path="url(#clipPath131)" />
    <path
       id="path132"
       d="m 693.672,253.531 -11.481,11.528 40.27,-11.528 -40.27,-11.519 z"
       style="fill:#000000;fill-opacity:1;fill-rule:evenodd;stroke:none"
       transform="matrix(0.13333333,0,0,-0.13333333,0,109.33333)"
       clip-path="url(#clipPath133)" />
    <path
       id="path134"
       d="m 693.672,253.539 -11.481,11.52 40.27,-11.52 -40.27,-11.531 z"
       style="fill:none;stroke:#000000;stroke-width:2.87827;stroke-linecap:butt;stroke-linejoin:miter;stroke-miterlimit:4;stroke-dasharray:none;stroke-opacity:1"
       transform="matrix(0.13333333,0,0,-0.13333333,0,109.33333)"
       clip-path="url(#clipPath135)" />
    <path
       id="path136"
       d="m 399.02,251.148 101.21,0.043"
       style="fill:none;stroke:#000000;stroke-width:2.83465;stroke-linecap:butt;stroke-linejoin:miter;stroke-miterlimit:4;stroke-dasharray:none;stroke-opacity:1"
       transform="matrix(0.13333333,0,0,-0.13333333,0,109.33333)"
       clip-path="url(#clipPath137)" />
    <path
       id="path138"
       d="m 1748.55,-74.8057 c 0,34.8614 -26.28,63.1529 -58.68,63.1529 -32.4,0 -58.64,-28.2915 -58.64,-63.1529 0,-34.9103 26.24,-63.1973 58.64,-63.1973 32.4,0 58.68,28.287 58.68,63.1973 z"
       style="fill:none;stroke:#000000;stroke-width:2.59005;stroke-linecap:butt;stroke-linejoin:miter;stroke-miterlimit:4;stroke-dasharray:none;stroke-opacity:1"
       transform="matrix(0.13776267,0,0,0.12890347,0,109.33333)"
       clip-path="url(#clipPath139)" />
    <path
       id="path140"
       d="m 1806.56,72.1719 101.53,0.3476"
       style="fill:none;stroke:#000000;stroke-width:2.87827;stroke-linecap:butt;stroke-linejoin:miter;stroke-miterlimit:4;stroke-dasharray:none;stroke-opacity:1"
       transform="matrix(0.13333333,0,0,-0.13333333,0,109.33333)"
       clip-path="url(#clipPath141)" />
    <path
       id="path142"
       d="M 1879.3,72.5195 1867.77,84 1908.09,72.5195 1867.77,61 Z"
       style="fill:#000000;fill-opacity:1;fill-rule:evenodd;stroke:#000000;stroke-width:2.87827;stroke-linecap:butt;stroke-linejoin:miter;stroke-miterlimit:4;stroke-dasharray:none;stroke-opacity:1"
       transform="matrix(0.13333333,0,0,-0.13333333,0,109.33333)"
       clip-path="url(#clipPath143)" />
    <path
       id="path144"
       d="m 1584.65,70.1406 101.17,0.0313"
       style="fill:none;stroke:#000000;stroke-width:2.83465;stroke-linecap:butt;stroke-linejoin:miter;stroke-miterlimit:4;stroke-dasharray:none;stroke-opacity:1"
       transform="matrix(0.13333333,0,0,-0.13333333,0,109.33333)"
       clip-path="url(#clipPath145)" />
    <path
       id="path146"
       d="m 1756.98,-774.138 c 0,34.869 -26.28,63.149 -58.67,63.149 -32.37,0 -58.65,-28.28 -58.65,-63.149 0,-34.91 26.28,-63.194 58.65,-63.194 32.39,0 58.67,28.284 58.67,63.194 z"
       style="fill:none;stroke:#000000;stroke-width:2.59005;stroke-linecap:butt;stroke-linejoin:miter;stroke-miterlimit:4;stroke-dasharray:none;stroke-opacity:1"
       transform="matrix(0.13776267,0,0,0.12890347,0,109.33333)"
       clip-path="url(#clipPath147)" />
    <path
       id="path148"
       d="m 1815.31,748.262 101.49,0.347"
       style="fill:none;stroke:#000000;stroke-width:2.87827;stroke-linecap:butt;stroke-linejoin:miter;stroke-miterlimit:4;stroke-dasharray:none;stroke-opacity:1"
       transform="matrix(0.13333333,0,0,-0.13333333,0,109.33333)"
       clip-path="url(#clipPath149)" />
    <path
       id="path150"
       d="m 1888.01,748.609 -11.49,11.493 40.28,-11.493 -40.28,-11.519 z"
       style="fill:#000000;fill-opacity:1;fill-rule:evenodd;stroke:none"
       transform="matrix(0.13333333,0,0,-0.13333333,0,109.33333)"
       clip-path="url(#clipPath151)" />
    <path
       id="path152"
       d="m 1888.01,748.609 -11.49,11.489 40.28,-11.489 -40.28,-11.519 z"
       style="fill:none;stroke:#000000;stroke-width:2.87827;stroke-linecap:butt;stroke-linejoin:miter;stroke-miterlimit:4;stroke-dasharray:none;stroke-opacity:1"
       transform="matrix(0.13333333,0,0,-0.13333333,0,109.33333)"
       clip-path="url(#clipPath153)" />
    <path
       id="path154"
       d="m 1593.36,746.23 h 101.21"
       style="fill:none;stroke:#000000;stroke-width:2.83465;stroke-linecap:butt;stroke-linejoin:miter;stroke-miterlimit:4;stroke-dasharray:none;stroke-opacity:1"
       transform="matrix(0.13333333,0,0,-0.13333333,0,109.33333)"
       clip-path="url(#clipPath155)" />
  </g>
</svg>
