<?xml version="1.0" encoding="UTF-8" standalone="no"?>
<!-- Created with Inkscape (http://www.inkscape.org/) -->

<svg
   version="1.1"
   id="svg1"
   width="286.66666"
   height="42.666668"
   viewBox="0 0 286.66666 42.666668"
   sodipodi:docname="exs2_2.eps"
   xmlns:inkscape="http://www.inkscape.org/namespaces/inkscape"
   xmlns:sodipodi="http://sodipodi.sourceforge.net/DTD/sodipodi-0.dtd"
   xmlns="http://www.w3.org/2000/svg"
   xmlns:svg="http://www.w3.org/2000/svg">
  <defs
     id="defs1">
    <clipPath
       clipPathUnits="userSpaceOnUse"
       id="clipPath2">
      <path
         d="M 0,2 V 313 H 2150 V 2 Z"
         transform="matrix(0.1,0,0,-0.1,-127.629,26.452701)"
         id="path2" />
    </clipPath>
    <clipPath
       clipPathUnits="userSpaceOnUse"
       id="clipPath8">
      <path
         d="M 0,2 V 313 H 2150 V 2 Z"
         transform="matrix(0.1,0,0,-0.1,-190.584,26.550801)"
         id="path8" />
    </clipPath>
    <clipPath
       clipPathUnits="userSpaceOnUse"
       id="clipPath10">
      <path
         d="M 0,2 V 313 H 2150 V 2 Z"
         transform="matrix(0.95992321,0,0,-1.0435679,0,-2.6089198e-6)"
         id="path10" />
    </clipPath>
    <clipPath
       clipPathUnits="userSpaceOnUse"
       id="clipPath12">
      <path
         d="M 0,2 V 313 H 2150 V 2 Z"
         id="path12" />
    </clipPath>
    <clipPath
       clipPathUnits="userSpaceOnUse"
       id="clipPath14">
      <path
         d="M 0,2 V 313 H 2150 V 2 Z"
         id="path14" />
    </clipPath>
    <clipPath
       clipPathUnits="userSpaceOnUse"
       id="clipPath16">
      <path
         d="M 0,2 V 313 H 2150 V 2 Z"
         id="path16" />
    </clipPath>
    <clipPath
       clipPathUnits="userSpaceOnUse"
       id="clipPath18">
      <path
         d="M 0,2 V 313 H 2150 V 2 Z"
         id="path18" />
    </clipPath>
    <clipPath
       clipPathUnits="userSpaceOnUse"
       id="clipPath20">
      <path
         d="M 0,2 V 313 H 2150 V 2 Z"
         transform="matrix(0.95992321,0,0,-1.0435679,0,-2.6089198e-6)"
         id="path20" />
    </clipPath>
    <clipPath
       clipPathUnits="userSpaceOnUse"
       id="clipPath22">
      <path
         d="M 0,2 V 313 H 2150 V 2 Z"
         id="path22" />
    </clipPath>
    <clipPath
       clipPathUnits="userSpaceOnUse"
       id="clipPath24">
      <path
         d="M 0,2 V 313 H 2150 V 2 Z"
         id="path24" />
    </clipPath>
    <clipPath
       clipPathUnits="userSpaceOnUse"
       id="clipPath26">
      <path
         d="M 0,2 V 313 H 2150 V 2 Z"
         id="path26" />
    </clipPath>
    <clipPath
       clipPathUnits="userSpaceOnUse"
       id="clipPath28">
      <path
         d="M 0,2 V 313 H 2150 V 2 Z"
         id="path28" />
    </clipPath>
    <clipPath
       clipPathUnits="userSpaceOnUse"
       id="clipPath30">
      <path
         d="M 0,2 V 313 H 2150 V 2 Z"
         transform="matrix(0.95992321,0,0,-1.0435679,0,-2.6089198e-6)"
         id="path30" />
    </clipPath>
    <clipPath
       clipPathUnits="userSpaceOnUse"
       id="clipPath32">
      <path
         d="M 0,2 V 313 H 2150 V 2 Z"
         id="path32" />
    </clipPath>
    <clipPath
       clipPathUnits="userSpaceOnUse"
       id="clipPath34">
      <path
         d="M 0,2 V 313 H 2150 V 2 Z"
         id="path34" />
    </clipPath>
    <clipPath
       clipPathUnits="userSpaceOnUse"
       id="clipPath36">
      <path
         d="M 0,2 V 313 H 2150 V 2 Z"
         id="path36" />
    </clipPath>
    <clipPath
       clipPathUnits="userSpaceOnUse"
       id="clipPath38">
      <path
         d="M 0,2 V 313 H 2150 V 2 Z"
         id="path38" />
    </clipPath>
    <clipPath
       clipPathUnits="userSpaceOnUse"
       id="clipPath40">
      <path
         d="M 0,2 V 313 H 2150 V 2 Z"
         transform="matrix(0.95992321,0,0,-1.0435679,0,-2.6089198e-6)"
         id="path40" />
    </clipPath>
    <clipPath
       clipPathUnits="userSpaceOnUse"
       id="clipPath42">
      <path
         d="M 0,2 V 313 H 2150 V 2 Z"
         id="path42" />
    </clipPath>
    <clipPath
       clipPathUnits="userSpaceOnUse"
       id="clipPath44">
      <path
         d="M 0,2 V 313 H 2150 V 2 Z"
         id="path44" />
    </clipPath>
    <clipPath
       clipPathUnits="userSpaceOnUse"
       id="clipPath46">
      <path
         d="M 0,2 V 313 H 2150 V 2 Z"
         id="path46" />
    </clipPath>
    <clipPath
       clipPathUnits="userSpaceOnUse"
       id="clipPath48">
      <path
         d="M 0,2 V 313 H 2150 V 2 Z"
         id="path48" />
    </clipPath>
    <clipPath
       clipPathUnits="userSpaceOnUse"
       id="clipPath50">
      <path
         d="M 0,2 V 313 H 2150 V 2 Z"
         transform="matrix(0.95992321,0,0,-1.0435679,0,-2.6089198e-6)"
         id="path50" />
    </clipPath>
    <clipPath
       clipPathUnits="userSpaceOnUse"
       id="clipPath52">
      <path
         d="M 0,2 V 313 H 2150 V 2 Z"
         id="path52" />
    </clipPath>
    <clipPath
       clipPathUnits="userSpaceOnUse"
       id="clipPath54">
      <path
         d="M 0,2 V 313 H 2150 V 2 Z"
         id="path54" />
    </clipPath>
    <clipPath
       clipPathUnits="userSpaceOnUse"
       id="clipPath56">
      <path
         d="M 0,2 V 313 H 2150 V 2 Z"
         id="path56" />
    </clipPath>
    <clipPath
       clipPathUnits="userSpaceOnUse"
       id="clipPath58">
      <path
         d="M 0,2 V 313 H 2150 V 2 Z"
         id="path58" />
    </clipPath>
    <clipPath
       clipPathUnits="userSpaceOnUse"
       id="clipPath59">
      <path
         d="M 0,2 V 313 H 2150 V 2 Z"
         transform="matrix(0.1,0,0,-0.1,-205.474,26.579701)"
         id="path59" />
    </clipPath>
    <clipPath
       clipPathUnits="userSpaceOnUse"
       id="clipPath61">
      <path
         d="M 0,2 V 313 H 2150 V 2 Z"
         id="path61" />
    </clipPath>
    <clipPath
       clipPathUnits="userSpaceOnUse"
       id="clipPath63">
      <path
         d="M 0,2 V 313 H 2150 V 2 Z"
         id="path63" />
    </clipPath>
    <clipPath
       clipPathUnits="userSpaceOnUse"
       id="clipPath65">
      <path
         d="M 0,2 V 313 H 2150 V 2 Z"
         id="path65" />
    </clipPath>
    <clipPath
       clipPathUnits="userSpaceOnUse"
       id="clipPath67">
      <path
         d="M 0,2 V 313 H 2150 V 2 Z"
         id="path67" />
    </clipPath>
    <clipPath
       clipPathUnits="userSpaceOnUse"
       id="clipPath69">
      <path
         d="M 0,2 V 313 H 2150 V 2 Z"
         id="path69" />
    </clipPath>
    <clipPath
       clipPathUnits="userSpaceOnUse"
       id="clipPath71">
      <path
         d="M 0,2 V 313 H 2150 V 2 Z"
         id="path71" />
    </clipPath>
    <clipPath
       clipPathUnits="userSpaceOnUse"
       id="clipPath73">
      <path
         d="M 0,2 V 313 H 2150 V 2 Z"
         id="path73" />
    </clipPath>
    <clipPath
       clipPathUnits="userSpaceOnUse"
       id="clipPath75">
      <path
         d="M 0,2 V 313 H 2150 V 2 Z"
         id="path75" />
    </clipPath>
    <clipPath
       clipPathUnits="userSpaceOnUse"
       id="clipPath77">
      <path
         d="M 0,2 V 313 H 2150 V 2 Z"
         id="path77" />
    </clipPath>
    <clipPath
       clipPathUnits="userSpaceOnUse"
       id="clipPath79">
      <path
         d="M 0,2 V 313 H 2150 V 2 Z"
         id="path79" />
    </clipPath>
    <clipPath
       clipPathUnits="userSpaceOnUse"
       id="clipPath81">
      <path
         d="M 0,2 V 313 H 2150 V 2 Z"
         id="path81" />
    </clipPath>
    <clipPath
       clipPathUnits="userSpaceOnUse"
       id="clipPath83">
      <path
         d="M 0,2 V 313 H 2150 V 2 Z"
         id="path83" />
    </clipPath>
    <clipPath
       clipPathUnits="userSpaceOnUse"
       id="clipPath85">
      <path
         d="M 0,2 V 313 H 2150 V 2 Z"
         id="path85" />
    </clipPath>
    <clipPath
       clipPathUnits="userSpaceOnUse"
       id="clipPath86">
      <path
         d="M 0,2 V 313 H 2150 V 2 Z"
         transform="matrix(0.1,0,0,-0.1,-10.1965,3.1128898)"
         id="path86" />
    </clipPath>
    <clipPath
       clipPathUnits="userSpaceOnUse"
       id="clipPath88">
      <path
         d="M 0,2 V 313 H 2150 V 2 Z"
         transform="matrix(0.1,0,0,-0.1,-1.37031,26.978101)"
         id="path88" />
    </clipPath>
  </defs>
  <sodipodi:namedview
     id="namedview1"
     pagecolor="#ffffff"
     bordercolor="#000000"
     borderopacity="0.25"
     inkscape:showpageshadow="2"
     inkscape:pageopacity="0.0"
     inkscape:pagecheckerboard="0"
     inkscape:deskcolor="#d1d1d1">
    <inkscape:page
       x="0"
       y="0"
       inkscape:label="1"
       id="page1"
       width="286.66666"
       height="42.666668"
       margin="0"
       bleed="0" />
  </sodipodi:namedview>
  <g
     id="g1"
     inkscape:groupmode="layer"
     inkscape:label="1">
    <text
       id="text1"
       xml:space="preserve"
       transform="matrix(1.3333333,0,0,1.3333333,170.172,7.3964)"
       clip-path="url(#clipPath2)"><tspan
         id="tspan1"
         style="font-style:italic;font-variant:normal;font-weight:normal;font-size:9.6px;font-family:'Times New Roman';writing-mode:lr-tb;fill:#231f20;fill-opacity:1;fill-rule:nonzero;stroke:none"
         x="0"
         y="0">a</tspan><tspan
         id="tspan2"
         style="font-variant:normal;font-weight:normal;font-size:6.4px;font-family:'Times New Roman';writing-mode:lr-tb;fill:#231f20;fill-opacity:1;fill-rule:nonzero;stroke:none"
         x="5.0039101"
         y="2.26758">4</tspan></text>
    <text
       id="text2"
       xml:space="preserve"
       transform="matrix(1.3333333,0,0,1.3333333,254.112,7.2656)"
       clip-path="url(#clipPath8)"><tspan
         id="tspan3"
         style="font-style:italic;font-variant:normal;font-weight:normal;font-size:9.6px;font-family:'Times New Roman';writing-mode:lr-tb;fill:#000000;fill-opacity:1;fill-rule:nonzero;stroke:none"
         x="0"
         y="0">a</tspan><tspan
         id="tspan4"
         style="font-variant:normal;font-weight:normal;font-size:7.2px;font-family:'Times New Roman';writing-mode:lr-tb;fill:#000000;fill-opacity:1;fill-rule:nonzero;stroke:none"
         x="4.8000002"
         y="1.92031">5</tspan><tspan
         id="tspan5"
         style="font-style:italic;font-variant:normal;font-weight:normal;font-size:9.6px;font-family:'Times New Roman';writing-mode:lr-tb;fill:#000000;fill-opacity:1;fill-rule:nonzero;stroke:none"
         x="-128.248"
         y="0.68593001">a</tspan><tspan
         id="tspan6"
         style="font-variant:normal;font-weight:normal;font-size:7.2px;font-family:'Times New Roman';writing-mode:lr-tb;fill:#000000;fill-opacity:1;fill-rule:nonzero;stroke:none"
         x="-123.448"
         y="2.60585">3</tspan><tspan
         id="tspan7"
         style="font-style:italic;font-variant:normal;font-weight:normal;font-size:9.6px;font-family:'Times New Roman';writing-mode:lr-tb;fill:#000000;fill-opacity:1;fill-rule:nonzero;stroke:none"
         x="-171.575"
         y="0.17186999">a</tspan><tspan
         id="tspan8"
         style="font-variant:normal;font-weight:normal;font-size:7.2px;font-family:'Times New Roman';writing-mode:lr-tb;fill:#000000;fill-opacity:1;fill-rule:nonzero;stroke:none"
         x="-166.77499"
         y="2.09218">2</tspan></text>
    <path
       id="path9"
       d="m 166.116,-62.9973 c 0,26.982 -20.294,48.8806 -45.338,48.8806 -25.0443,0 -45.3752,-21.8986 -45.3752,-48.8806 0,-26.9452 20.3309,-48.8317 45.3752,-48.8317 25.044,0 45.338,21.8865 45.338,48.8317 z"
       style="fill:none;stroke:#000000;stroke-width:2.00276;stroke-linecap:butt;stroke-linejoin:miter;stroke-miterlimit:4;stroke-dasharray:none;stroke-opacity:1"
       transform="matrix(0.1389,0,0,0.1277668,0,42.666667)"
       clip-path="url(#clipPath10)" />
    <path
       id="path11"
       d="m 173.051,60.2109 79.097,0.2696"
       style="fill:none;stroke:#000000;stroke-width:2.22491;stroke-linecap:butt;stroke-linejoin:miter;stroke-miterlimit:4;stroke-dasharray:none;stroke-opacity:1"
       transform="matrix(0.13333333,0,0,-0.13333333,0,42.666667)"
       clip-path="url(#clipPath12)" />
    <path
       id="path13"
       d="m 229.922,60.4805 -8.902,8.9101 31.128,-8.9101 -31.128,-8.9024 z"
       style="fill:#000000;fill-opacity:1;fill-rule:evenodd;stroke:none"
       transform="matrix(0.13333333,0,0,-0.13333333,0,42.666667)"
       clip-path="url(#clipPath14)" />
    <path
       id="path15"
       d="m 229.922,60.4844 -8.902,8.9101 31.128,-8.9101 -31.128,-8.9102 z"
       style="fill:none;stroke:#000000;stroke-width:2.22491;stroke-linecap:butt;stroke-linejoin:miter;stroke-miterlimit:4;stroke-dasharray:none;stroke-opacity:1"
       transform="matrix(0.13333333,0,0,-0.13333333,0,42.666667)"
       clip-path="url(#clipPath16)" />
    <path
       id="path17"
       d="M 0,58.6914 H 78.9102"
       style="fill:none;stroke:#000000;stroke-width:2.19118;stroke-linecap:butt;stroke-linejoin:miter;stroke-miterlimit:4;stroke-dasharray:none;stroke-opacity:1"
       transform="matrix(0.13333333,0,0,-0.13333333,0,42.666667)"
       clip-path="url(#clipPath18)" />
    <path
       id="path19"
       d="m 468.597,-63.8533 c 0,26.9452 -20.282,48.8316 -45.327,48.8316 -25.055,0 -45.375,-21.8864 -45.375,-48.8316 0,-26.982 20.32,-48.8767 45.375,-48.8767 25.045,0 45.327,21.8947 45.327,48.8767 z"
       style="fill:none;stroke:#000000;stroke-width:2.00276;stroke-linecap:butt;stroke-linejoin:miter;stroke-miterlimit:4;stroke-dasharray:none;stroke-opacity:1"
       transform="matrix(0.1389,0,0,0.1277668,0,42.666667)"
       clip-path="url(#clipPath20)" />
    <path
       id="path21"
       d="m 488.129,61.0703 79.141,0.2695"
       style="fill:none;stroke:#000000;stroke-width:2.22491;stroke-linecap:butt;stroke-linejoin:miter;stroke-miterlimit:4;stroke-dasharray:none;stroke-opacity:1"
       transform="matrix(0.13333333,0,0,-0.13333333,0,42.666667)"
       clip-path="url(#clipPath22)" />
    <path
       id="path23"
       d="m 545.039,61.3398 -8.91,8.9102 31.141,-8.9102 -31.141,-8.8984 z"
       style="fill:#000000;fill-opacity:1;fill-rule:evenodd;stroke:none"
       transform="matrix(0.13333333,0,0,-0.13333333,0,42.666667)"
       clip-path="url(#clipPath24)" />
    <path
       id="path25"
       d="m 545.039,61.3438 -8.91,8.9101 31.141,-8.9101 -31.141,-8.9102 z"
       style="fill:none;stroke:#000000;stroke-width:2.22491;stroke-linecap:butt;stroke-linejoin:miter;stroke-miterlimit:4;stroke-dasharray:none;stroke-opacity:1"
       transform="matrix(0.13333333,0,0,-0.13333333,0,42.666667)"
       clip-path="url(#clipPath26)" />
    <path
       id="path27"
       d="m 315.121,59.5117 78.859,0.0391"
       style="fill:none;stroke:#000000;stroke-width:2.19118;stroke-linecap:butt;stroke-linejoin:miter;stroke-miterlimit:4;stroke-dasharray:none;stroke-opacity:1"
       transform="matrix(0.13333333,0,0,-0.13333333,0,42.666667)"
       clip-path="url(#clipPath28)" />
    <path
       id="path29"
       d="m 981.485,-60.3109 c 0,26.9942 -20.286,48.8439 -45.338,48.8439 -25.044,0 -45.368,-21.8497 -45.368,-48.8439 0,-26.9819 20.324,-48.8321 45.368,-48.8321 25.052,0 45.338,21.8502 45.338,48.8321 z"
       style="fill:none;stroke:#000000;stroke-width:2.00276;stroke-linecap:butt;stroke-linejoin:miter;stroke-miterlimit:4;stroke-dasharray:none;stroke-opacity:1"
       transform="matrix(0.1389,0,0,0.1277668,0,42.666667)"
       clip-path="url(#clipPath30)" />
    <path
       id="path31"
       d="m 1022.46,57.6719 79.1,0.2383"
       style="fill:none;stroke:#000000;stroke-width:2.22491;stroke-linecap:butt;stroke-linejoin:miter;stroke-miterlimit:4;stroke-dasharray:none;stroke-opacity:1"
       transform="matrix(0.13333333,0,0,-0.13333333,0,42.666667)"
       clip-path="url(#clipPath32)" />
    <path
       id="path33"
       d="m 1079.34,57.9102 -8.91,8.8984 31.13,-8.8984 L 1070.43,49 Z"
       style="fill:#000000;fill-opacity:1;fill-rule:evenodd;stroke:none"
       transform="matrix(0.13333333,0,0,-0.13333333,0,42.666667)"
       clip-path="url(#clipPath34)" />
    <path
       id="path35"
       d="m 1079.34,57.9023 -8.91,8.9102 31.13,-8.9102 -31.13,-8.8984 z"
       style="fill:none;stroke:#000000;stroke-width:2.22491;stroke-linecap:butt;stroke-linejoin:miter;stroke-miterlimit:4;stroke-dasharray:none;stroke-opacity:1"
       transform="matrix(0.13333333,0,0,-0.13333333,0,42.666667)"
       clip-path="url(#clipPath36)" />
    <path
       id="path37"
       d="m 849.41,56.1094 h 78.91"
       style="fill:none;stroke:#000000;stroke-width:2.19118;stroke-linecap:butt;stroke-linejoin:miter;stroke-miterlimit:4;stroke-dasharray:none;stroke-opacity:1"
       transform="matrix(0.13333333,0,0,-0.13333333,0,42.666667)"
       clip-path="url(#clipPath38)" />
    <path
       id="path39"
       d="m 1566.74,-60.3109 c 0,26.9942 -20.32,48.8439 -45.38,48.8439 -25.04,0 -45.32,-21.8497 -45.32,-48.8439 0,-26.9819 20.28,-48.8321 45.32,-48.8321 25.06,0 45.38,21.8502 45.38,48.8321 z"
       style="fill:none;stroke:#000000;stroke-width:2.00276;stroke-linecap:butt;stroke-linejoin:miter;stroke-miterlimit:4;stroke-dasharray:none;stroke-opacity:1"
       transform="matrix(0.1389,0,0,0.1277668,0,42.666667)"
       clip-path="url(#clipPath40)" />
    <path
       id="path41"
       d="m 1632.11,57.6719 79.14,0.2383"
       style="fill:none;stroke:#000000;stroke-width:2.22491;stroke-linecap:butt;stroke-linejoin:miter;stroke-miterlimit:4;stroke-dasharray:none;stroke-opacity:1"
       transform="matrix(0.13333333,0,0,-0.13333333,0,42.666667)"
       clip-path="url(#clipPath42)" />
    <path
       id="path43"
       d="m 1688.98,57.9102 -8.9,8.8984 31.17,-8.8984 L 1680.08,49 Z"
       style="fill:#000000;fill-opacity:1;fill-rule:evenodd;stroke:none"
       transform="matrix(0.13333333,0,0,-0.13333333,0,42.666667)"
       clip-path="url(#clipPath44)" />
    <path
       id="path45"
       d="m 1688.98,57.9023 -8.9,8.9102 31.17,-8.9102 -31.17,-8.8984 z"
       style="fill:none;stroke:#000000;stroke-width:2.22491;stroke-linecap:butt;stroke-linejoin:miter;stroke-miterlimit:4;stroke-dasharray:none;stroke-opacity:1"
       transform="matrix(0.13333333,0,0,-0.13333333,0,42.666667)"
       clip-path="url(#clipPath46)" />
    <path
       id="path47"
       d="m 1459.06,56.1094 h 78.91"
       style="fill:none;stroke:#000000;stroke-width:2.19118;stroke-linecap:butt;stroke-linejoin:miter;stroke-miterlimit:4;stroke-dasharray:none;stroke-opacity:1"
       transform="matrix(0.13333333,0,0,-0.13333333,0,42.666667)"
       clip-path="url(#clipPath48)" />
    <path
       id="path49"
       d="m 1982.62,-63.8533 c 0,26.9452 -20.28,48.8316 -45.34,48.8316 -25.04,0 -45.37,-21.8864 -45.37,-48.8316 0,-26.982 20.33,-48.8767 45.37,-48.8767 25.06,0 45.34,21.8947 45.34,48.8767 z"
       style="fill:none;stroke:#000000;stroke-width:2.00276;stroke-linecap:butt;stroke-linejoin:miter;stroke-miterlimit:4;stroke-dasharray:none;stroke-opacity:1"
       transform="matrix(0.1389,0,0,0.1277668,0,42.666667)"
       clip-path="url(#clipPath50)" />
    <path
       id="path51"
       d="m 2065.35,61.0703 79.14,0.2695"
       style="fill:none;stroke:#000000;stroke-width:2.22491;stroke-linecap:butt;stroke-linejoin:miter;stroke-miterlimit:4;stroke-dasharray:none;stroke-opacity:1"
       transform="matrix(0.13333333,0,0,-0.13333333,0,42.666667)"
       clip-path="url(#clipPath52)" />
    <path
       id="path53"
       d="m 2122.27,61.3398 -8.91,8.9102 31.13,-8.9102 -31.13,-8.8984 z"
       style="fill:#000000;fill-opacity:1;fill-rule:evenodd;stroke:none"
       transform="matrix(0.13333333,0,0,-0.13333333,0,42.666667)"
       clip-path="url(#clipPath54)" />
    <path
       id="path55"
       d="m 2122.27,61.3438 -8.91,8.9101 31.13,-8.9101 -31.13,-8.9102 z"
       style="fill:none;stroke:#000000;stroke-width:2.22491;stroke-linecap:butt;stroke-linejoin:miter;stroke-miterlimit:4;stroke-dasharray:none;stroke-opacity:1"
       transform="matrix(0.13333333,0,0,-0.13333333,0,42.666667)"
       clip-path="url(#clipPath56)" />
    <path
       id="path57"
       d="m 1892.34,59.5117 78.91,0.0391"
       style="fill:none;stroke:#000000;stroke-width:2.19118;stroke-linecap:butt;stroke-linejoin:miter;stroke-miterlimit:4;stroke-dasharray:none;stroke-opacity:1"
       transform="matrix(0.13333333,0,0,-0.13333333,0,42.666667)"
       clip-path="url(#clipPath58)" />
    <text
       id="text58"
       xml:space="preserve"
       transform="matrix(1.3333333,0,0,1.3333333,273.96533,7.2270667)"
       clip-path="url(#clipPath59)"><tspan
         id="tspan58"
         style="font-style:italic;font-variant:normal;font-weight:normal;font-size:9.6px;font-family:'Times New Roman';writing-mode:lr-tb;fill:#000000;fill-opacity:1;fill-rule:nonzero;stroke:none"
         x="0"
         y="0">a</tspan><tspan
         id="tspan59"
         style="font-variant:normal;font-weight:normal;font-size:7.2px;font-family:'Times New Roman';writing-mode:lr-tb;fill:#000000;fill-opacity:1;fill-rule:nonzero;stroke:none"
         x="4.8000002"
         y="1.92031">6</tspan></text>
    <path
       id="path60"
       d="m 2066.95,149.391 c 0,15.199 12.31,27.5 27.5,27.5 15.2,0 27.5,-12.301 27.5,-27.5 0,-15.192 -12.3,-27.5 -27.5,-27.5 -15.19,0 -27.5,12.308 -27.5,27.5"
       style="fill:#231f20;fill-opacity:1;fill-rule:nonzero;stroke:none"
       transform="matrix(0.13333333,0,0,-0.13333333,0,42.666667)"
       clip-path="url(#clipPath61)" />
    <path
       id="path62"
       d="m 2066.95,149.391 c 0,15.199 12.31,27.5 27.5,27.5 15.2,0 27.5,-12.301 27.5,-27.5 0,-15.192 -12.3,-27.5 -27.5,-27.5 -15.19,0 -27.5,12.308 -27.5,27.5 z"
       style="fill:none;stroke:#231f20;stroke-width:2.5;stroke-linecap:butt;stroke-linejoin:miter;stroke-miterlimit:3.86369;stroke-dasharray:none;stroke-opacity:1"
       transform="matrix(0.13333333,0,0,-0.13333333,0,42.666667)"
       clip-path="url(#clipPath63)" />
    <path
       id="path64"
       d="m 1907.66,148.648 c 0,15.153 12.3,27.5 27.5,27.5 15.19,0 27.5,-12.347 27.5,-27.5 0,-15.199 -12.31,-27.5 -27.5,-27.5 -15.2,0 -27.5,12.301 -27.5,27.5"
       style="fill:#231f20;fill-opacity:1;fill-rule:nonzero;stroke:none"
       transform="matrix(0.13333333,0,0,-0.13333333,0,42.666667)"
       clip-path="url(#clipPath65)" />
    <path
       id="path66"
       d="m 1907.66,148.648 c 0,15.153 12.3,27.5 27.5,27.5 15.19,0 27.5,-12.347 27.5,-27.5 0,-15.199 -12.31,-27.5 -27.5,-27.5 -15.2,0 -27.5,12.301 -27.5,27.5 z"
       style="fill:none;stroke:#231f20;stroke-width:2.5;stroke-linecap:butt;stroke-linejoin:miter;stroke-miterlimit:3.86369;stroke-dasharray:none;stroke-opacity:1"
       transform="matrix(0.13333333,0,0,-0.13333333,0,42.666667)"
       clip-path="url(#clipPath67)" />
    <path
       id="path68"
       d="m 1269.92,148.648 c 0,15.153 12.31,27.5 27.5,27.5 15.2,0 27.5,-12.347 27.5,-27.5 0,-15.199 -12.3,-27.5 -27.5,-27.5 -15.19,0 -27.5,12.301 -27.5,27.5"
       style="fill:#231f20;fill-opacity:1;fill-rule:nonzero;stroke:none"
       transform="matrix(0.13333333,0,0,-0.13333333,0,42.666667)"
       clip-path="url(#clipPath69)" />
    <path
       id="path70"
       d="m 1269.92,148.648 c 0,15.153 12.31,27.5 27.5,27.5 15.2,0 27.5,-12.347 27.5,-27.5 0,-15.199 -12.3,-27.5 -27.5,-27.5 -15.19,0 -27.5,12.301 -27.5,27.5 z"
       style="fill:none;stroke:#231f20;stroke-width:2.5;stroke-linecap:butt;stroke-linejoin:miter;stroke-miterlimit:3.86369;stroke-dasharray:none;stroke-opacity:1"
       transform="matrix(0.13333333,0,0,-0.13333333,0,42.666667)"
       clip-path="url(#clipPath71)" />
    <path
       id="path72"
       d="m 632.422,148.648 c 0,15.153 12.308,27.5 27.5,27.5 15.199,0 27.5,-12.347 27.5,-27.5 0,-15.199 -12.301,-27.5 -27.5,-27.5 -15.192,0 -27.5,12.301 -27.5,27.5"
       style="fill:#231f20;fill-opacity:1;fill-rule:nonzero;stroke:none"
       transform="matrix(0.13333333,0,0,-0.13333333,0,42.666667)"
       clip-path="url(#clipPath73)" />
    <path
       id="path74"
       d="m 632.422,148.648 c 0,15.153 12.308,27.5 27.5,27.5 15.199,0 27.5,-12.347 27.5,-27.5 0,-15.199 -12.301,-27.5 -27.5,-27.5 -15.192,0 -27.5,12.301 -27.5,27.5 z"
       style="fill:none;stroke:#231f20;stroke-width:2.5;stroke-linecap:butt;stroke-linejoin:miter;stroke-miterlimit:3.86369;stroke-dasharray:none;stroke-opacity:1"
       transform="matrix(0.13333333,0,0,-0.13333333,0,42.666667)"
       clip-path="url(#clipPath75)" />
    <path
       id="path76"
       d="m 188.59,148.648 c 0,15.153 12.351,27.5 27.5,27.5 15.199,0 27.5,-12.347 27.5,-27.5 0,-15.199 -12.301,-27.5 -27.5,-27.5 -15.149,0 -27.5,12.301 -27.5,27.5"
       style="fill:#231f20;fill-opacity:1;fill-rule:nonzero;stroke:none"
       transform="matrix(0.13333333,0,0,-0.13333333,0,42.666667)"
       clip-path="url(#clipPath77)" />
    <path
       id="path78"
       d="m 188.59,148.648 c 0,15.153 12.351,27.5 27.5,27.5 15.199,0 27.5,-12.347 27.5,-27.5 0,-15.199 -12.301,-27.5 -27.5,-27.5 -15.149,0 -27.5,12.301 -27.5,27.5 z"
       style="fill:none;stroke:#231f20;stroke-width:2.5;stroke-linecap:butt;stroke-linejoin:miter;stroke-miterlimit:3.86369;stroke-dasharray:none;stroke-opacity:1"
       transform="matrix(0.13333333,0,0,-0.13333333,0,42.666667)"
       clip-path="url(#clipPath79)" />
    <path
       id="path80"
       d="m 17.4219,148.648 c 0,15.153 12.3086,27.5 27.5,27.5 15.1992,0 27.5,-12.347 27.5,-27.5 0,-15.199 -12.3008,-27.5 -27.5,-27.5 -15.1914,0 -27.5,12.301 -27.5,27.5"
       style="fill:#231f20;fill-opacity:1;fill-rule:nonzero;stroke:none"
       transform="matrix(0.13333333,0,0,-0.13333333,0,42.666667)"
       clip-path="url(#clipPath81)" />
    <path
       id="path82"
       d="m 17.4219,148.648 c 0,15.153 12.3086,27.5 27.5,27.5 15.1992,0 27.5,-12.347 27.5,-27.5 0,-15.199 -12.3008,-27.5 -27.5,-27.5 -15.1914,0 -27.5,12.301 -27.5,27.5 z"
       style="fill:none;stroke:#231f20;stroke-width:2.5;stroke-linecap:butt;stroke-linejoin:miter;stroke-miterlimit:3.86369;stroke-dasharray:none;stroke-opacity:1"
       transform="matrix(0.13333333,0,0,-0.13333333,0,42.666667)"
       clip-path="url(#clipPath83)" />
    <path
       id="path84"
       d="M 39.4492,150.02 H 2094.45"
       style="fill:none;stroke:#231f20;stroke-width:10.001;stroke-linecap:butt;stroke-linejoin:miter;stroke-miterlimit:3.86369;stroke-dasharray:none;stroke-opacity:1"
       transform="matrix(0.13333333,0,0,-0.13333333,0,42.666667)"
       clip-path="url(#clipPath85)" />
    <text
       id="text85"
       xml:space="preserve"
       transform="matrix(1.3333333,0,0,1.3333333,13.595333,38.516147)"
       clip-path="url(#clipPath86)"><tspan
         id="tspan85"
         style="font-variant:normal;font-weight:normal;font-size:9.6px;font-family:'Times New Roman';writing-mode:lr-tb;fill:#231f20;fill-opacity:1;fill-rule:nonzero;stroke:none"
         x="0"
         y="0">1</tspan><tspan
         id="tspan86"
         style="font-variant:normal;font-weight:normal;font-size:9.6px;font-family:'Times New Roman';writing-mode:lr-tb;fill:#231f20;fill-opacity:1;fill-rule:nonzero;stroke:none"
         x="31.521099"
         dx="0 48.700031 55.449986 39.199966"
         y="0.2">2345</tspan></text>
    <text
       id="text86"
       xml:space="preserve"
       transform="matrix(1.3333333,0,0,1.3333333,1.82708,6.6958667)"
       clip-path="url(#clipPath88)"><tspan
         id="tspan87"
         style="font-style:italic;font-variant:normal;font-weight:normal;font-size:9.6px;font-family:'Times New Roman';writing-mode:lr-tb;fill:#000000;fill-opacity:1;fill-rule:nonzero;stroke:none"
         x="0"
         y="0">a</tspan><tspan
         id="tspan88"
         style="font-variant:normal;font-weight:normal;font-size:7.2px;font-family:'Times New Roman';writing-mode:lr-tb;fill:#000000;fill-opacity:1;fill-rule:nonzero;stroke:none"
         x="4.8000002"
         y="1.91992">1</tspan></text>
  </g>
</svg>
