<?xml version="1.0" encoding="UTF-8" standalone="no"?>
<!-- Created with Inkscape (http://www.inkscape.org/) -->

<svg
   version="1.1"
   id="svg1"
   width="445.33334"
   height="193.33333"
   viewBox="0 0 445.33334 193.33333"
   sodipodi:docname="exs3_x.eps"
   xmlns:inkscape="http://www.inkscape.org/namespaces/inkscape"
   xmlns:sodipodi="http://sodipodi.sourceforge.net/DTD/sodipodi-0.dtd"
   xmlns="http://www.w3.org/2000/svg"
   xmlns:svg="http://www.w3.org/2000/svg">
  <defs
     id="defs1" />
  <sodipodi:namedview
     id="namedview1"
     pagecolor="#ffffff"
     bordercolor="#000000"
     borderopacity="0.25"
     inkscape:showpageshadow="2"
     inkscape:pageopacity="0.0"
     inkscape:pagecheckerboard="0"
     inkscape:deskcolor="#d1d1d1">
    <inkscape:page
       x="0"
       y="0"
       inkscape:label="1"
       id="page1"
       width="445.33334"
       height="193.33333"
       margin="0"
       bleed="0" />
  </sodipodi:namedview>
  <g
     id="g1"
     inkscape:groupmode="layer"
     inkscape:label="1">
    <path
       id="path1"
       d="M 1197.5,327.5 135.398,1156.65"
       style="fill:none;stroke:#231f20;stroke-width:15;stroke-linecap:butt;stroke-linejoin:miter;stroke-miterlimit:3.86369;stroke-dasharray:none;stroke-opacity:1"
       transform="matrix(0.13333333,0,0,-0.13333333,0,193.33333)" />
    <path
       id="path2"
       d="M 1197.72,1167.5 V 325"
       style="fill:none;stroke:#231f20;stroke-width:15;stroke-linecap:butt;stroke-linejoin:miter;stroke-miterlimit:3.86369;stroke-dasharray:none;stroke-opacity:1"
       transform="matrix(0.13333333,0,0,-0.13333333,0,193.33333)" />
    <path
       id="path3"
       d="M 140,325 H 1200"
       style="fill:none;stroke:#231f20;stroke-width:15;stroke-linecap:butt;stroke-linejoin:miter;stroke-miterlimit:3.86369;stroke-dasharray:none;stroke-opacity:1"
       transform="matrix(0.13333333,0,0,-0.13333333,0,193.33333)" />
    <path
       id="path4"
       d="M 1197.32,133.125 V 8.75"
       style="fill:none;stroke:#231f20;stroke-width:2.5;stroke-linecap:butt;stroke-linejoin:miter;stroke-miterlimit:3.86369;stroke-dasharray:none;stroke-opacity:1"
       transform="matrix(0.13333333,0,0,-0.13333333,0,193.33333)" />
    <path
       id="path5"
       d="M 135,133.449 V 9.07422"
       style="fill:none;stroke:#231f20;stroke-width:2.5;stroke-linecap:butt;stroke-linejoin:miter;stroke-miterlimit:3.86369;stroke-dasharray:none;stroke-opacity:1"
       transform="matrix(0.13333333,0,0,-0.13333333,0,193.33333)" />
    <path
       id="path6"
       d="M 159.004,67.5 H 1172.04"
       style="fill:none;stroke:#231f20;stroke-width:2.5;stroke-linecap:butt;stroke-linejoin:miter;stroke-miterlimit:3.86369;stroke-dasharray:none;stroke-opacity:1"
       transform="matrix(0.13333333,0,0,-0.13333333,0,193.33333)" />
    <path
       id="path7"
       d="m 159.691,60.625 -22,7.5625 22,7.5625 z"
       style="fill:#231f20;fill-opacity:1;fill-rule:nonzero;stroke:#231f20;stroke-width:2.5;stroke-linecap:butt;stroke-linejoin:miter;stroke-miterlimit:3.86369;stroke-dasharray:none;stroke-opacity:1"
       transform="matrix(0.13333333,0,0,-0.13333333,0,193.33333)" />
    <path
       id="path8"
       d="m 1171.35,74.375 22,-7.5625 -22,-7.5625 z"
       style="fill:#231f20;fill-opacity:1;fill-rule:nonzero;stroke:#231f20;stroke-width:2.5;stroke-linecap:butt;stroke-linejoin:miter;stroke-miterlimit:3.86369;stroke-dasharray:none;stroke-opacity:1"
       transform="matrix(0.13333333,0,0,-0.13333333,0,193.33333)" />
    <path
       id="path9"
       d="M 1196.51,172.25 V 309.648"
       style="fill:none;stroke:#231f20;stroke-width:5;stroke-linecap:butt;stroke-linejoin:miter;stroke-miterlimit:3.86369;stroke-dasharray:none;stroke-opacity:1"
       transform="matrix(0.13333333,0,0,-0.13333333,0,193.33333)" />
    <path
       id="path10"
       d="m 1196.51,172.25 17.5,11.668 -17.5,-46.668 -17.5,46.668 17.5,-11.668"
       style="fill:#231f20;fill-opacity:1;fill-rule:evenodd;stroke:none"
       transform="matrix(0.13333333,0,0,-0.13333333,0,193.33333)" />
    <path
       id="path11"
       d="m 1.3946719,-5.9654297 h 2.3554687 c 0.609375,0 1.078125,0.1289063 1.3828125,0.3984375 0.3046875,0.2695313 0.4570313,0.5859375 0.4570313,0.9726563 0,0.2929687 -0.1054688,0.5859375 -0.2929688,0.8789062 -0.1992187,0.28125 -0.4804687,0.515625 -0.8554687,0.6796875 -0.3867188,0.1875 -0.796875,0.2695313 -1.2421875,0.2695313 -0.2695313,0 -0.6210938,-0.046875 -1.0546875,-0.140625 l -0.4921875,1.7226562 c -0.1171875,0.35156251 -0.1640625,0.58593751 -0.1640625,0.70312501 0,0.0820313 0.035156,0.15234375 0.1171875,0.2109375 0.082031,0.0585938 0.2695312,0.09375 0.5625,0.10546875 l -0.046875,0.1640625025 h -2.33203128 l 0.0351563,-0.1640625025 c 0.31640625,0 0.5390625,-0.046875 0.65625,-0.1640625 0.1171875,-0.10546875 0.24609375,-0.3984375 0.38671875,-0.87890626 L 1.8517031,-4.6060547 c 0.1171875,-0.4101562 0.1757813,-0.6914062 0.1757813,-0.8203125 0,-0.1054687 -0.046875,-0.1875 -0.1289063,-0.2578125 -0.082031,-0.070312 -0.2695312,-0.1054687 -0.5507812,-0.1171875 z m 0.8320312,2.7773438 c 0.3164063,0.082031 0.5859375,0.1289062 0.7851563,0.1289062 0.3164062,0 0.609375,-0.058594 0.8554687,-0.1992187 0.2695313,-0.140625 0.4570313,-0.328125 0.609375,-0.5976563 0.1523438,-0.2578125 0.2226563,-0.5390625 0.2226563,-0.8203125 0,-0.2929687 -0.09375,-0.5273437 -0.2695313,-0.6914062 -0.1875,-0.1757813 -0.4570312,-0.2695313 -0.8085937,-0.2695313 -0.1992188,0 -0.4335938,0.035156 -0.7148438,0.070312 z m -65.0068361,3.87304684 -1.40625,4.93359376 c -0.08203,0.28125 -0.128906,0.4921875 -0.128906,0.6210937 0,0.1054688 0.03516,0.1992188 0.105469,0.2460938 0.08203,0.058594 0.257812,0.1054687 0.527343,0.1171875 l -0.03516,0.1640625 h -2.261719 l 0.05859,-0.1640625 c 0.234375,-0.011719 0.398438,-0.023437 0.46875,-0.046875 0.128906,-0.058594 0.222656,-0.1289063 0.28125,-0.2226563 0.09375,-0.1289062 0.199219,-0.375 0.292969,-0.7148437 l 1.019531,-3.5507813 c 0.05859,-0.2109375 0.105469,-0.328125 0.105469,-0.3632812 0,-0.058594 0.01172,-0.1171875 0.01172,-0.1757813 0,-0.09375 -0.02344,-0.1757812 -0.08203,-0.234375 -0.05859,-0.058594 -0.128906,-0.09375 -0.234375,-0.09375 -0.07031,0 -0.199218,0.023437 -0.363281,0.058594 l -0.04687,-0.1640625 1.488281,-0.41015626 z m 1.5,5.28515626 c 0.117188,0 0.234375,0.046875 0.316406,0.1289062 0.08203,0.09375 0.128907,0.1992188 0.128907,0.3164063 0,0.1289062 -0.04687,0.234375 -0.128907,0.328125 -0.08203,0.082031 -0.199218,0.1171875 -0.316406,0.1171875 -0.117187,0 -0.222656,-0.035156 -0.316406,-0.1171875 -0.08203,-0.09375 -0.128906,-0.1992188 -0.128906,-0.328125 0,-0.1171875 0.04687,-0.2226563 0.128906,-0.3164063 0.09375,-0.082031 0.199219,-0.1289062 0.316406,-0.1289062 z m 6.222656,-5.28515626 v 0.1640625 c -0.503906,0.1171875 -0.984375,0.37499996 -1.453125,0.73828126 -0.46875,0.3867187 -0.878906,0.8671875 -1.242187,1.453125 0.316406,-0.1289063 0.574219,-0.1992188 0.773437,-0.1992188 0.375,0 0.691407,0.140625 0.949219,0.4101563 0.269531,0.2695312 0.398438,0.6210937 0.398438,1.0898437 0,0.6914063 -0.222657,1.2890625 -0.679688,1.78125 -0.445312,0.5039063 -0.925781,0.7382813 -1.453125,0.7382813 -0.480469,0 -0.832031,-0.1640625 -1.078125,-0.515625 -0.246094,-0.3515625 -0.375,-0.7617188 -0.375,-1.21875 0,-0.5976563 0.140625,-1.1953125 0.421875,-1.78125 0.28125,-0.5742188 0.65625,-1.078125 1.125,-1.5 0.480469,-0.4101563 0.972656,-0.7265625 1.488281,-0.92578126 0.304688,-0.1171875 0.679688,-0.1875 1.125,-0.234375 z m -2.90625,2.73046876 c -0.421875,0.890625 -0.632812,1.6289062 -0.632812,2.2382812 0,0.3164063 0.08203,0.5507813 0.234375,0.7382813 0.164062,0.1757812 0.351562,0.2695312 0.550781,0.2695312 0.339844,0 0.65625,-0.2460937 0.949219,-0.7265625 0.292969,-0.5039062 0.433594,-1.0664062 0.433594,-1.7109375 0,-0.3515625 -0.07031,-0.609375 -0.246094,-0.796875 -0.175781,-0.1875 -0.375,-0.28125 -0.621094,-0.28125 -0.105469,0 -0.199219,0.023437 -0.292969,0.058594 -0.09375,0.023437 -0.222656,0.09375 -0.375,0.2109373 z m 6.890625,-0.6210938 -0.574218,1.9804688 c 0.269531,-0.46875 0.492187,-0.8203125 0.667968,-1.0546875 0.292969,-0.3632813 0.5625,-0.6210938 0.84375,-0.7851563 0.152344,-0.1054687 0.316407,-0.140625 0.503907,-0.140625 0.140625,0 0.269531,0.035156 0.363281,0.140625 0.09375,0.09375 0.152344,0.2226563 0.152344,0.375 0,0.140625 -0.03516,0.328125 -0.105469,0.5625 l -0.339844,1.0898438 c 0.503906,-0.890625 0.984375,-1.5117188 1.441406,-1.875 0.246094,-0.1992188 0.492188,-0.2929688 0.738282,-0.2929688 0.140625,0 0.257812,0.046875 0.339843,0.1523438 0.09375,0.09375 0.140625,0.2460937 0.140625,0.46875 0,0.1640625 -0.02344,0.3398437 -0.09375,0.5273437 l -0.550781,1.6875 c -0.117187,0.375 -0.175781,0.5742188 -0.175781,0.609375 0,0.046875 0.02344,0.082031 0.03516,0.1171875 0.02344,0.011719 0.03516,0.023437 0.07031,0.023437 0.02344,0 0.07031,-0.023437 0.140625,-0.082031 0.152343,-0.1289063 0.28125,-0.2929688 0.421875,-0.5039063 l 0.140625,0.09375 c -0.07031,0.1171875 -0.199219,0.2695313 -0.363282,0.46875 -0.1875,0.1992188 -0.339843,0.3398438 -0.457031,0.3984375 -0.128906,0.070312 -0.246094,0.1054688 -0.351562,0.1054688 -0.105469,0 -0.1875,-0.035156 -0.257813,-0.1054688 -0.05859,-0.058594 -0.09375,-0.1523437 -0.09375,-0.2460937 0,-0.140625 0.07031,-0.421875 0.199219,-0.84375 l 0.46875,-1.4179688 c 0.105469,-0.328125 0.164062,-0.5039062 0.164062,-0.5390625 0.02344,-0.058594 0.02344,-0.1054687 0.02344,-0.1640625 0,-0.070312 -0.02344,-0.1289062 -0.05859,-0.1757812 -0.03516,-0.035156 -0.08203,-0.058594 -0.128906,-0.058594 -0.128906,0 -0.269531,0.058594 -0.421875,0.1875 -0.433594,0.375 -0.84375,0.890625 -1.21875,1.5703125 -0.257813,0.4335938 -0.492188,1.0078125 -0.703125,1.6992188 h -0.667969 l 0.796875,-2.6601563 c 0.09375,-0.28125 0.140625,-0.46875 0.140625,-0.5742187 0,-0.082031 -0.02344,-0.1289063 -0.05859,-0.1757813 -0.03516,-0.035156 -0.07031,-0.058594 -0.117187,-0.058594 -0.105469,0 -0.199219,0.035156 -0.316406,0.1171875 -0.1875,0.1054687 -0.421875,0.3515625 -0.703125,0.7265625 -0.28125,0.375 -0.503907,0.7382812 -0.65625,1.078125 -0.07031,0.1640625 -0.257813,0.6796875 -0.539063,1.546875 h -0.644531 l 0.820312,-2.8476563 0.105469,-0.3632812 c 0.02344,-0.058594 0.02344,-0.1054688 0.02344,-0.1289063 0,-0.058594 -0.02344,-0.1289062 -0.08203,-0.1757812 -0.05859,-0.046875 -0.128906,-0.070312 -0.222656,-0.070312 -0.03516,0 -0.152344,0.011719 -0.316406,0.046875 l -0.03516,-0.1640625 z m 0,0"
       style="fill:#231f20;fill-opacity:1;fill-rule:nonzero;stroke:none"
       aria-label="P&#10;1.6 m"
       transform="matrix(1.3333333,0,0,1.3333333,163.992,170.2)" />
    <path
       id="path12"
       d="m 1314.69,1173.98 h -245"
       style="fill:none;stroke:#231f20;stroke-width:5;stroke-linecap:butt;stroke-linejoin:miter;stroke-miterlimit:3.86369;stroke-dasharray:none;stroke-opacity:1"
       transform="matrix(0.13333333,0,0,-0.13333333,0,193.33333)" />
    <path
       id="path13"
       d="m 1312.81,1172.73 37.5,57.5"
       style="fill:none;stroke:#231f20;stroke-width:5;stroke-linecap:butt;stroke-linejoin:miter;stroke-miterlimit:3.86369;stroke-dasharray:none;stroke-opacity:1"
       transform="matrix(0.13333333,0,0,-0.13333333,0,193.33333)" />
    <path
       id="path14"
       d="m 1278.48,1173 37.5,57.5"
       style="fill:none;stroke:#231f20;stroke-width:5;stroke-linecap:butt;stroke-linejoin:miter;stroke-miterlimit:3.86369;stroke-dasharray:none;stroke-opacity:1"
       transform="matrix(0.13333333,0,0,-0.13333333,0,193.33333)" />
    <path
       id="path15"
       d="m 1244.15,1173.27 37.5,57.5"
       style="fill:none;stroke:#231f20;stroke-width:5;stroke-linecap:butt;stroke-linejoin:miter;stroke-miterlimit:3.86369;stroke-dasharray:none;stroke-opacity:1"
       transform="matrix(0.13333333,0,0,-0.13333333,0,193.33333)" />
    <path
       id="path16"
       d="m 1209.82,1173.53 37.5,57.51"
       style="fill:none;stroke:#231f20;stroke-width:5;stroke-linecap:butt;stroke-linejoin:miter;stroke-miterlimit:3.86369;stroke-dasharray:none;stroke-opacity:1"
       transform="matrix(0.13333333,0,0,-0.13333333,0,193.33333)" />
    <path
       id="path17"
       d="m 1175.49,1173.8 37.5,57.5"
       style="fill:none;stroke:#231f20;stroke-width:5;stroke-linecap:butt;stroke-linejoin:miter;stroke-miterlimit:3.86369;stroke-dasharray:none;stroke-opacity:1"
       transform="matrix(0.13333333,0,0,-0.13333333,0,193.33333)" />
    <path
       id="path18"
       d="m 1141.16,1174.07 37.5,57.5"
       style="fill:none;stroke:#231f20;stroke-width:5;stroke-linecap:butt;stroke-linejoin:miter;stroke-miterlimit:3.86369;stroke-dasharray:none;stroke-opacity:1"
       transform="matrix(0.13333333,0,0,-0.13333333,0,193.33333)" />
    <path
       id="path19"
       d="m 1106.83,1174.33 37.5,57.5"
       style="fill:none;stroke:#231f20;stroke-width:5;stroke-linecap:butt;stroke-linejoin:miter;stroke-miterlimit:3.86369;stroke-dasharray:none;stroke-opacity:1"
       transform="matrix(0.13333333,0,0,-0.13333333,0,193.33333)" />
    <path
       id="path20"
       d="m 1072.49,1174.6 37.5,57.5"
       style="fill:none;stroke:#231f20;stroke-width:5;stroke-linecap:butt;stroke-linejoin:miter;stroke-miterlimit:3.86369;stroke-dasharray:none;stroke-opacity:1"
       transform="matrix(0.13333333,0,0,-0.13333333,0,193.33333)" />
    <path
       id="path21"
       d="M 254.043,1172.55 H 9.04297"
       style="fill:none;stroke:#231f20;stroke-width:5;stroke-linecap:butt;stroke-linejoin:miter;stroke-miterlimit:3.86369;stroke-dasharray:none;stroke-opacity:1"
       transform="matrix(0.13333333,0,0,-0.13333333,0,193.33333)" />
    <path
       id="path22"
       d="m 252.168,1171.3 37.5,57.5"
       style="fill:none;stroke:#231f20;stroke-width:5;stroke-linecap:butt;stroke-linejoin:miter;stroke-miterlimit:3.86369;stroke-dasharray:none;stroke-opacity:1"
       transform="matrix(0.13333333,0,0,-0.13333333,0,193.33333)" />
    <path
       id="path23"
       d="m 217.84,1171.57 37.5,57.5"
       style="fill:none;stroke:#231f20;stroke-width:5;stroke-linecap:butt;stroke-linejoin:miter;stroke-miterlimit:3.86369;stroke-dasharray:none;stroke-opacity:1"
       transform="matrix(0.13333333,0,0,-0.13333333,0,193.33333)" />
    <path
       id="path24"
       d="m 183.504,1171.84 37.5,57.5"
       style="fill:none;stroke:#231f20;stroke-width:5;stroke-linecap:butt;stroke-linejoin:miter;stroke-miterlimit:3.86369;stroke-dasharray:none;stroke-opacity:1"
       transform="matrix(0.13333333,0,0,-0.13333333,0,193.33333)" />
    <path
       id="path25"
       d="m 149.176,1172.1 37.5,57.5"
       style="fill:none;stroke:#231f20;stroke-width:5;stroke-linecap:butt;stroke-linejoin:miter;stroke-miterlimit:3.86369;stroke-dasharray:none;stroke-opacity:1"
       transform="matrix(0.13333333,0,0,-0.13333333,0,193.33333)" />
    <path
       id="path26"
       d="m 114.844,1172.37 37.5,57.5"
       style="fill:none;stroke:#231f20;stroke-width:5;stroke-linecap:butt;stroke-linejoin:miter;stroke-miterlimit:3.86369;stroke-dasharray:none;stroke-opacity:1"
       transform="matrix(0.13333333,0,0,-0.13333333,0,193.33333)" />
    <path
       id="path27"
       d="m 80.5117,1172.64 37.5003,57.5"
       style="fill:none;stroke:#231f20;stroke-width:5;stroke-linecap:butt;stroke-linejoin:miter;stroke-miterlimit:3.86369;stroke-dasharray:none;stroke-opacity:1"
       transform="matrix(0.13333333,0,0,-0.13333333,0,193.33333)" />
    <path
       id="path28"
       d="m 46.1836,1172.9 37.5,57.5"
       style="fill:none;stroke:#231f20;stroke-width:5;stroke-linecap:butt;stroke-linejoin:miter;stroke-miterlimit:3.86369;stroke-dasharray:none;stroke-opacity:1"
       transform="matrix(0.13333333,0,0,-0.13333333,0,193.33333)" />
    <path
       id="path29"
       d="m 11.8477,1173.17 37.5,57.5"
       style="fill:none;stroke:#231f20;stroke-width:5;stroke-linecap:butt;stroke-linejoin:miter;stroke-miterlimit:3.86369;stroke-dasharray:none;stroke-opacity:1"
       transform="matrix(0.13333333,0,0,-0.13333333,0,193.33333)" />
    <path
       id="path30"
       d="m 131.777,207.813 v 245"
       style="fill:none;stroke:#231f20;stroke-width:5;stroke-linecap:butt;stroke-linejoin:miter;stroke-miterlimit:3.86369;stroke-dasharray:none;stroke-opacity:1"
       transform="matrix(0.13333333,0,0,-0.13333333,0,193.33333)" />
    <path
       id="path31"
       d="m 133.027,209.688 -57.4997,-37.5"
       style="fill:none;stroke:#231f20;stroke-width:5;stroke-linecap:butt;stroke-linejoin:miter;stroke-miterlimit:3.86369;stroke-dasharray:none;stroke-opacity:1"
       transform="matrix(0.13333333,0,0,-0.13333333,0,193.33333)" />
    <path
       id="path32"
       d="M 132.762,244.02 75.2617,206.52"
       style="fill:none;stroke:#231f20;stroke-width:5;stroke-linecap:butt;stroke-linejoin:miter;stroke-miterlimit:3.86369;stroke-dasharray:none;stroke-opacity:1"
       transform="matrix(0.13333333,0,0,-0.13333333,0,193.33333)" />
    <path
       id="path33"
       d="m 132.496,278.352 -57.4999,-37.5"
       style="fill:none;stroke:#231f20;stroke-width:5;stroke-linecap:butt;stroke-linejoin:miter;stroke-miterlimit:3.86369;stroke-dasharray:none;stroke-opacity:1"
       transform="matrix(0.13333333,0,0,-0.13333333,0,193.33333)" />
    <path
       id="path34"
       d="m 132.23,312.684 -57.4995,-37.5"
       style="fill:none;stroke:#231f20;stroke-width:5;stroke-linecap:butt;stroke-linejoin:miter;stroke-miterlimit:3.86369;stroke-dasharray:none;stroke-opacity:1"
       transform="matrix(0.13333333,0,0,-0.13333333,0,193.33333)" />
    <path
       id="path35"
       d="m 131.961,347.016 -57.5001,-37.5"
       style="fill:none;stroke:#231f20;stroke-width:5;stroke-linecap:butt;stroke-linejoin:miter;stroke-miterlimit:3.86369;stroke-dasharray:none;stroke-opacity:1"
       transform="matrix(0.13333333,0,0,-0.13333333,0,193.33333)" />
    <path
       id="path36"
       d="m 131.695,381.344 -57.4997,-37.5"
       style="fill:none;stroke:#231f20;stroke-width:5;stroke-linecap:butt;stroke-linejoin:miter;stroke-miterlimit:3.86369;stroke-dasharray:none;stroke-opacity:1"
       transform="matrix(0.13333333,0,0,-0.13333333,0,193.33333)" />
    <path
       id="path37"
       d="m 131.43,415.676 -57.5003,-37.5"
       style="fill:none;stroke:#231f20;stroke-width:5;stroke-linecap:butt;stroke-linejoin:miter;stroke-miterlimit:3.86369;stroke-dasharray:none;stroke-opacity:1"
       transform="matrix(0.13333333,0,0,-0.13333333,0,193.33333)" />
    <path
       id="path38"
       d="m 131.164,450.008 -57.4999,-37.5"
       style="fill:none;stroke:#231f20;stroke-width:5;stroke-linecap:butt;stroke-linejoin:miter;stroke-miterlimit:3.86369;stroke-dasharray:none;stroke-opacity:1"
       transform="matrix(0.13333333,0,0,-0.13333333,0,193.33333)" />
    <path
       id="path39"
       d="M 1500.88,324.316 H 1376.5"
       style="fill:none;stroke:#231f20;stroke-width:2.5;stroke-linecap:butt;stroke-linejoin:miter;stroke-miterlimit:3.86369;stroke-dasharray:none;stroke-opacity:1"
       transform="matrix(0.13333333,0,0,-0.13333333,0,193.33333)" />
    <path
       id="path40"
       d="M 1501.2,1175.39 H 1376.82"
       style="fill:none;stroke:#231f20;stroke-width:2.5;stroke-linecap:butt;stroke-linejoin:miter;stroke-miterlimit:3.86369;stroke-dasharray:none;stroke-opacity:1"
       transform="matrix(0.13333333,0,0,-0.13333333,0,193.33333)" />
    <path
       id="path41"
       d="M 1435.25,1151.39 V 349.602"
       style="fill:none;stroke:#231f20;stroke-width:2.5;stroke-linecap:butt;stroke-linejoin:miter;stroke-miterlimit:3.86369;stroke-dasharray:none;stroke-opacity:1"
       transform="matrix(0.13333333,0,0,-0.13333333,0,193.33333)" />
    <path
       id="path42"
       d="m 1428.38,1150.7 7.56,22 7.56,-22 z"
       style="fill:#231f20;fill-opacity:1;fill-rule:nonzero;stroke:#231f20;stroke-width:2.5;stroke-linecap:butt;stroke-linejoin:miter;stroke-miterlimit:3.86369;stroke-dasharray:none;stroke-opacity:1"
       transform="matrix(0.13333333,0,0,-0.13333333,0,193.33333)" />
    <path
       id="path43"
       d="m 1442.13,350.289 -7.57,-22 -7.56,22 z"
       style="fill:#231f20;fill-opacity:1;fill-rule:nonzero;stroke:#231f20;stroke-width:2.5;stroke-linecap:butt;stroke-linejoin:miter;stroke-miterlimit:3.86369;stroke-dasharray:none;stroke-opacity:1"
       transform="matrix(0.13333333,0,0,-0.13333333,0,193.33333)" />
    <path
       id="path44"
       d="m 3.7503828,-6.0818359 -1.40625,4.9335937 c -0.082031,0.28125001 -0.1289062,0.49218751 -0.1289062,0.62109376 0,0.10546875 0.035156,0.19921875 0.1054687,0.24609375 0.082031,0.0585938 0.2578125,0.10546875 0.5273438,0.1171875 L 2.8128828,1.953125e-4 H 0.55116406 L 0.60975781,-0.16386719 c 0.234375,-0.0117188 0.39843749,-0.0234375 0.46874999,-0.046875 0.1289063,-0.0585938 0.2226563,-0.12890625 0.28125,-0.22265625 0.09375,-0.12890625 0.1992188,-0.375 0.2929688,-0.71484376 l 1.0195312,-3.5507812 c 0.058594,-0.2109375 0.1054688,-0.328125 0.1054688,-0.3632813 0,-0.058594 0.011719,-0.1171875 0.011719,-0.1757812 0,-0.09375 -0.023437,-0.1757813 -0.082031,-0.234375 -0.058594,-0.058594 -0.1289063,-0.09375 -0.234375,-0.09375 -0.070312,0 -0.1992188,0.023437 -0.3632813,0.058594 l -0.046875,-0.1640625 1.4882813,-0.4101562 z m 1.5,5.28515621 c 0.1171875,0 0.234375,0.046875 0.3164063,0.12890625 0.082031,0.09375 0.1289062,0.19921875 0.1289062,0.31640625 0,0.12890625 -0.046875,0.234375 -0.1289062,0.328125 -0.082031,0.08203125 -0.1992188,0.1171875 -0.3164063,0.1171875 -0.1171875,0 -0.2226562,-0.03515625 -0.3164062,-0.1171875 -0.082031,-0.09375 -0.1289063,-0.19921875 -0.1289063,-0.328125 0,-0.1171875 0.046875,-0.22265625 0.1289063,-0.31640625 0.09375,-0.0820313 0.1992187,-0.12890625 0.3164062,-0.12890625 z M 9.8675703,1.953125e-4 H 6.8910078 V -0.16386719 C 8.4027266,-1.4880859 9.4105391,-2.5310547 9.8792891,-3.2810547 c 0.2226559,-0.3515625 0.3398439,-0.7148437 0.3398439,-1.0898437 0,-0.3046875 -0.08203,-0.5625 -0.2695314,-0.75 -0.1875,-0.1875 -0.4335938,-0.2929688 -0.7382813,-0.2929688 -0.4101562,0 -0.7382812,0.1992188 -1.0078125,0.5976563 l -0.1523437,-0.070312 c 0.1523437,-0.375 0.3632812,-0.6796875 0.65625,-0.8789063 0.28125,-0.2109375 0.5859375,-0.3164062 0.9257812,-0.3164062 0.3749997,0 0.6914067,0.1289062 0.9492187,0.3867187 0.257813,0.2578125 0.386719,0.5742188 0.386719,0.9375 0,0.2695313 -0.04687,0.5039063 -0.128906,0.7265625 -0.152344,0.3398438 -0.410157,0.7148438 -0.785157,1.1484375 -0.5742184,0.65625 -1.3476559,1.3945313 -2.2968747,2.23828126 h 1.5 c 0.2460938,0 0.4453125,-0.046875 0.5976563,-0.15234375 0.1523434,-0.09375 0.2695314,-0.22265621 0.3281254,-0.38671871 h 0.1875 z M 15.457414,-3.9724609 14.883195,-1.9919922 c 0.269532,-0.46875 0.492188,-0.8203125 0.667969,-1.0546875 0.292969,-0.3632812 0.5625,-0.6210937 0.84375,-0.7851562 0.152344,-0.1054688 0.316406,-0.140625 0.503906,-0.140625 0.140625,0 0.269532,0.035156 0.363282,0.140625 0.09375,0.09375 0.152343,0.2226562 0.152343,0.375 0,0.140625 -0.03516,0.328125 -0.105468,0.5625 l -0.339844,1.0898437 c 0.503906,-0.890625 0.984375,-1.5117187 1.441406,-1.875 0.246094,-0.1992187 0.492188,-0.2929687 0.738281,-0.2929687 0.140625,0 0.257813,0.046875 0.339844,0.1523437 0.09375,0.09375 0.140625,0.2460938 0.140625,0.46875 0,0.1640625 -0.02344,0.3398438 -0.09375,0.5273438 l -0.550781,1.6875 c -0.117188,0.37499996 -0.175781,0.57421871 -0.175781,0.60937496 0,0.046875 0.02344,0.0820313 0.03516,0.1171875 0.02344,0.0117188 0.03516,0.0234375 0.07031,0.0234375 0.02344,0 0.07031,-0.0234375 0.140625,-0.0820313 0.152344,-0.12890625 0.28125,-0.29296875 0.421875,-0.50390625 l 0.140625,0.09375 c -0.07031,0.1171875 -0.199218,0.26953125 -0.363281,0.46875 -0.1875,0.19921875 -0.339844,0.33984375 -0.457031,0.3984375 -0.128906,0.0703125 -0.246094,0.10546875 -0.351563,0.10546875 -0.105468,0 -0.1875,-0.03515625 -0.257812,-0.10546875 -0.05859,-0.05859375 -0.09375,-0.15234375 -0.09375,-0.24609375 0,-0.140625 0.07031,-0.421875 0.199219,-0.84375006 l 0.46875,-1.4179687 c 0.105468,-0.328125 0.164062,-0.5039063 0.164062,-0.5390625 0.02344,-0.058594 0.02344,-0.1054688 0.02344,-0.1640625 0,-0.070312 -0.02344,-0.1289063 -0.05859,-0.1757813 -0.03516,-0.035156 -0.08203,-0.058594 -0.128906,-0.058594 -0.128907,0 -0.269532,0.058594 -0.421875,0.1875 -0.433594,0.375 -0.84375,0.890625 -1.21875,1.5703125 -0.257813,0.4335937 -0.492188,1.00781251 -0.703125,1.6992187625 H 15.750383 L 16.547258,-2.6599609 c 0.09375,-0.28125 0.140625,-0.46875 0.140625,-0.5742188 0,-0.082031 -0.02344,-0.1289062 -0.05859,-0.1757812 -0.03516,-0.035156 -0.07031,-0.058594 -0.117187,-0.058594 -0.105469,0 -0.199219,0.035156 -0.316407,0.1171875 -0.1875,0.1054688 -0.421875,0.3515625 -0.703125,0.7265625 -0.28125,0.375 -0.503906,0.7382813 -0.65625,1.078125 -0.07031,0.1640625 -0.257812,0.67968751 -0.539062,1.5468750125 H 13.652727 L 14.473039,-2.8474609 14.578508,-3.2107422 c 0.02344,-0.058594 0.02344,-0.1054687 0.02344,-0.1289062 0,-0.058594 -0.02344,-0.1289063 -0.08203,-0.1757813 -0.05859,-0.046875 -0.128906,-0.070312 -0.222656,-0.070312 -0.03516,0 -0.152344,0.011719 -0.316406,0.046875 l -0.03516,-0.1640625 z m 0,0"
       style="fill:#231f20;fill-opacity:1;fill-rule:nonzero;stroke:none"
       aria-label="1.2 m"
       transform="matrix(1.3333333,0,0,1.3333333,196.58933,98.433333)" />
    <path
       id="path45"
       d="m 119.891,1153.46 c 0,10.2 8.269,18.47 18.464,18.47 10.2,0 18.469,-8.27 18.469,-18.47 0,-10.19 -8.269,-18.46 -18.469,-18.46 -10.195,0 -18.464,8.27 -18.464,18.46"
       style="fill:#ffffff;fill-opacity:1;fill-rule:nonzero;stroke:none"
       transform="matrix(0.13333333,0,0,-0.13333333,0,193.33333)" />
    <path
       id="path46"
       d="m 119.891,1153.46 c 0,10.2 8.269,18.47 18.464,18.47 10.2,0 18.469,-8.27 18.469,-18.47 0,-10.19 -8.269,-18.46 -18.469,-18.46 -10.195,0 -18.464,8.27 -18.464,18.46 z"
       style="fill:none;stroke:#231f20;stroke-width:5;stroke-linecap:butt;stroke-linejoin:miter;stroke-miterlimit:3.86369;stroke-dasharray:none;stroke-opacity:1"
       transform="matrix(0.13333333,0,0,-0.13333333,0,193.33333)" />
    <path
       id="path47"
       d="M 3035.19,324.242 1968.75,1157.14"
       style="fill:none;stroke:#231f20;stroke-width:15;stroke-linecap:butt;stroke-linejoin:miter;stroke-miterlimit:3.86369;stroke-dasharray:none;stroke-opacity:1"
       transform="matrix(0.13333333,0,0,-0.13333333,0,193.33333)" />
    <path
       id="path48"
       d="M 3035.41,1164.24 V 321.742"
       style="fill:none;stroke:#231f20;stroke-width:15;stroke-linecap:butt;stroke-linejoin:miter;stroke-miterlimit:3.86369;stroke-dasharray:none;stroke-opacity:1"
       transform="matrix(0.13333333,0,0,-0.13333333,0,193.33333)" />
    <path
       id="path49"
       d="m 1977.69,321.742 h 1060"
       style="fill:none;stroke:#231f20;stroke-width:15;stroke-linecap:butt;stroke-linejoin:miter;stroke-miterlimit:3.86369;stroke-dasharray:none;stroke-opacity:1"
       transform="matrix(0.13333333,0,0,-0.13333333,0,193.33333)" />
    <path
       id="path50"
       d="M 3.1173047,-7.84375e-4 H 0.14074219 V -0.16484687 C 1.6524609,-1.4890656 2.6602734,-2.5320344 3.1290234,-3.2820344 c 0.2226563,-0.3515625 0.3398438,-0.7148437 0.3398438,-1.0898437 0,-0.3046875 -0.082031,-0.5625 -0.2695313,-0.75 -0.1875,-0.1875 -0.4335937,-0.2929688 -0.7382812,-0.2929688 -0.4101563,0 -0.7382813,0.1992188 -1.0078125,0.5976563 l -0.1523438,-0.070312 c 0.1523438,-0.375 0.3632813,-0.6796875 0.65625,-0.8789063 0.28125,-0.2109375 0.5859375,-0.3164062 0.9257813,-0.3164062 0.375,0 0.6914062,0.1289062 0.9492187,0.3867187 0.2578125,0.2578125 0.3867188,0.5742188 0.3867188,0.9375 0,0.2695313 -0.046875,0.5039063 -0.1289063,0.7265625 -0.1523437,0.3398438 -0.4101562,0.7148438 -0.7851562,1.1484375 -0.5742188,0.65625 -1.3476563,1.3945313 -2.296875,2.23828128 h 1.5 c 0.2460937,0 0.4453125,-0.046875 0.5976562,-0.15234375 0.1523438,-0.09375 0.2695313,-0.22265623 0.328125,-0.38671873 h 0.1875 z m 0,0"
       style="fill:#231f20;fill-opacity:1;fill-rule:nonzero;stroke:none"
       aria-label="2"
       transform="matrix(1.3333333,0,0,1.3333333,267.66,115.30573)" />
    <path
       id="path51"
       d="M 1969.34,601.484 V 375.012 h 226.68"
       style="fill:none;stroke:#231f20;stroke-width:2.5;stroke-linecap:butt;stroke-linejoin:miter;stroke-miterlimit:3.86369;stroke-dasharray:none;stroke-opacity:1"
       transform="matrix(0.13333333,0,0,-0.13333333,0,193.33333)" />
    <path
       id="path52"
       d="m 1969.34,599.191 h -13.75 l 13.75,34.375 13.75,-34.375 h -13.75"
       style="fill:#231f20;fill-opacity:1;fill-rule:evenodd;stroke:none"
       transform="matrix(0.13333333,0,0,-0.13333333,0,193.33333)" />
    <path
       id="path53"
       d="m 2193.73,375.012 v 13.75 l 34.37,-13.75 -34.37,-13.75 v 13.75"
       style="fill:#231f20;fill-opacity:1;fill-rule:evenodd;stroke:none"
       transform="matrix(0.13333333,0,0,-0.13333333,0,193.33333)" />
    <g
       id="g53"
       aria-label="1&#10;3&#10;1&#10;2&#10;6"
       transform="matrix(1.3333333,0,0,1.3333333,290.71733,138.08067)">
      <path
         id="path54"
         d="m 3.7510625,-6.0810078 -1.40625,4.9335937 c -0.082031,0.28125004 -0.1289063,0.49218754 -0.1289063,0.62109379 0,0.10546875 0.035156,0.19921875 0.1054688,0.24609375 0.082031,0.0585938 0.2578125,0.10546875 0.5273437,0.1171875 l -0.035156,0.1640625 H 0.55184375 l 0.0585938,-0.1640625 c 0.234375,-0.0117188 0.39843745,-0.0234375 0.46874995,-0.046875 0.1289062,-0.0585938 0.2226562,-0.12890625 0.28125,-0.22265625 0.09375,-0.12890625 0.1992187,-0.375 0.2929687,-0.71484379 l 1.0195314,-3.5507812 c 0.058594,-0.2109375 0.1054686,-0.328125 0.1054686,-0.3632813 0,-0.058594 0.011719,-0.1171875 0.011719,-0.1757812 0,-0.09375 -0.023437,-0.1757813 -0.082031,-0.234375 -0.058594,-0.058594 -0.1289062,-0.09375 -0.234375,-0.09375 -0.070312,0 -0.1992187,0.023437 -0.3632812,0.058594 L 2.063563,-5.6708513 3.5518442,-6.0810075 Z m 0,0"
         style="fill:#231f20;fill-opacity:1;fill-rule:nonzero;stroke:none" />
      <path
         id="path55"
         d="m 31.354578,-39.412062 0.796875,-0.105469 c 0.09375,0.445312 0.246094,0.773437 0.457031,0.972656 0.210938,0.199219 0.480469,0.292969 0.796875,0.292969 0.386719,0 0.691407,-0.128906 0.949219,-0.386719 0.257813,-0.257812 0.386719,-0.574219 0.386719,-0.960937 0,-0.363282 -0.117188,-0.65625 -0.363281,-0.890625 -0.234375,-0.246094 -0.539063,-0.363282 -0.890625,-0.363282 -0.164063,0 -0.351563,0.03516 -0.5625,0.09375 l 0.08203,-0.691406 c 0.04687,0.01172 0.09375,0.01172 0.128906,0.01172 0.339844,0 0.644531,-0.09375 0.914063,-0.269531 0.269531,-0.175782 0.398437,-0.445313 0.398437,-0.808594 0,-0.292969 -0.09375,-0.527344 -0.292969,-0.714844 -0.199218,-0.1875 -0.445312,-0.292969 -0.75,-0.292969 -0.316406,0 -0.574218,0.105469 -0.773437,0.292969 -0.210938,0.199219 -0.339844,0.492188 -0.398438,0.878906 l -0.796875,-0.140625 c 0.105469,-0.539062 0.316407,-0.949218 0.65625,-1.242187 0.339844,-0.292969 0.773438,-0.433594 1.277344,-0.433594 0.363281,0 0.679688,0.07031 0.972656,0.222656 0.304688,0.152344 0.527344,0.363282 0.691407,0.621094 0.152343,0.257813 0.234375,0.527344 0.234375,0.832031 0,0.269532 -0.08203,0.527344 -0.234375,0.75 -0.152344,0.222657 -0.363282,0.410157 -0.65625,0.539063 0.386718,0.09375 0.679687,0.269531 0.890625,0.550781 0.199218,0.28125 0.304687,0.621094 0.304687,1.042969 0,0.5625 -0.199219,1.042969 -0.609375,1.429687 -0.410156,0.386719 -0.9375,0.585938 -1.558594,0.585938 -0.5625,0 -1.03125,-0.164063 -1.40625,-0.503906 -0.375,-0.339844 -0.585937,-0.773438 -0.644531,-1.3125 z M 33.543055,6.548875 H 32.74618 V 1.5098125 c -0.1875,0.1757813 -0.445313,0.3632813 -0.75,0.5390625 C 31.679773,2.2246563 31.410242,2.377 31.164148,2.4590313 V 1.6973125 c 0.445313,-0.2109375 0.832032,-0.4570312 1.160157,-0.75 C 32.65243,0.642625 32.886805,0.361375 33.02743,0.080125 h 0.515625 z M 93.96493,-29.96382 v 0.761718 h -4.265625 c 0,-0.1875 0.03516,-0.375 0.09375,-0.550781 0.117187,-0.28125 0.292968,-0.574219 0.527343,-0.855469 0.246094,-0.28125 0.585938,-0.609375 1.042969,-0.972656 0.691406,-0.574219 1.160156,-1.03125 1.417969,-1.359375 0.246094,-0.339844 0.363281,-0.667969 0.363281,-0.960937 0,-0.316407 -0.105469,-0.574219 -0.328125,-0.785157 -0.222656,-0.222656 -0.527344,-0.328125 -0.878906,-0.328125 -0.386719,0 -0.691406,0.117188 -0.925781,0.339844 -0.234375,0.222656 -0.351563,0.539063 -0.351563,0.949219 l -0.808594,-0.08203 c 0.05859,-0.609375 0.269532,-1.078125 0.632813,-1.382813 0.363281,-0.316406 0.855469,-0.480469 1.464844,-0.480469 0.609375,0 1.113281,0.164063 1.464843,0.515625 0.363282,0.339844 0.550782,0.773438 0.550782,1.277344 0,0.257813 -0.05859,0.503906 -0.164063,0.761719 -0.105469,0.246094 -0.28125,0.503906 -0.527344,0.785156 -0.246093,0.28125 -0.644531,0.65625 -1.21875,1.136719 -0.46875,0.386719 -0.773437,0.667969 -0.914062,0.808594 -0.128906,0.140625 -0.246094,0.28125 -0.339844,0.421875 z m 0,0"
         style="fill:#231f20;fill-opacity:1;fill-rule:nonzero;stroke:none" />
      <path
         id="path56"
         d="m 98.034266,-21.004836 v 0.164063 c -0.503907,0.117187 -0.984375,0.375 -1.453125,0.738281 -0.46875,0.386719 -0.878907,0.867187 -1.242188,1.453125 0.316406,-0.128906 0.574219,-0.199219 0.773438,-0.199219 0.375,0 0.691406,0.140625 0.949218,0.410156 0.269532,0.269532 0.398438,0.621094 0.398438,1.089844 0,0.691406 -0.222656,1.289063 -0.679688,1.78125 -0.445312,0.503906 -0.925781,0.738281 -1.453125,0.738281 -0.480468,0 -0.832031,-0.164062 -1.078125,-0.515625 -0.246093,-0.351562 -0.375,-0.761718 -0.375,-1.21875 0,-0.597656 0.140625,-1.195312 0.421875,-1.78125 0.28125,-0.574218 0.65625,-1.078125 1.125,-1.5 0.480469,-0.410156 0.972657,-0.726562 1.488282,-0.925781 0.304687,-0.117187 0.679687,-0.1875 1.125,-0.234375 z m -2.90625,2.730469 c -0.421875,0.890625 -0.632813,1.628906 -0.632813,2.238281 0,0.316406 0.08203,0.550781 0.234375,0.738281 0.164063,0.175782 0.351563,0.269532 0.550781,0.269532 0.339844,0 0.65625,-0.246094 0.949219,-0.726563 0.292969,-0.503906 0.433594,-1.066406 0.433594,-1.710937 0,-0.351563 -0.07031,-0.609375 -0.246094,-0.796875 -0.175781,-0.1875 -0.375,-0.28125 -0.621094,-0.28125 -0.105468,0 -0.199218,0.02344 -0.292968,0.05859 -0.09375,0.02344 -0.222657,0.09375 -0.375,0.210938 z m 0,0"
         style="fill:#231f20;fill-opacity:1;fill-rule:nonzero;stroke:none" />
    </g>
    <path
       id="path57"
       d="M 3072.88,601.137 V 374.668 h 226.69"
       style="fill:none;stroke:#231f20;stroke-width:2.5;stroke-linecap:butt;stroke-linejoin:miter;stroke-miterlimit:3.86369;stroke-dasharray:none;stroke-opacity:1"
       transform="matrix(0.13333333,0,0,-0.13333333,0,193.33333)" />
    <path
       id="path58"
       d="m 3072.88,598.844 h -13.75 l 13.75,34.375 13.75,-34.375 h -13.75"
       style="fill:#231f20;fill-opacity:1;fill-rule:evenodd;stroke:none"
       transform="matrix(0.13333333,0,0,-0.13333333,0,193.33333)" />
    <path
       id="path59"
       d="m 3297.28,374.668 v 13.75 l 34.37,-13.75 -34.37,-13.75 v 13.75"
       style="fill:#231f20;fill-opacity:1;fill-rule:evenodd;stroke:none"
       transform="matrix(0.13333333,0,0,-0.13333333,0,193.33333)" />
    <path
       id="path60"
       d="M 2.3189141,-5.9644406 H 4.3111016 L 4.1001641,-5.2378781 H 2.3071953 l -0.328125,0.7265625 c 0.4804688,0.070312 0.84375,0.2226562 1.1132813,0.4453125 0.4101562,0.3398437 0.609375,0.8320312 0.609375,1.4414062 0,0.3984375 -0.070312,0.7734375 -0.2226563,1.1015625 -0.1523437,0.3398438 -0.328125,0.60937503 -0.5507812,0.83203128 -0.2226563,0.22265625 -0.4570313,0.3984375 -0.703125,0.52734375 -0.3398438,0.17578125 -0.6796875,0.2578125 -1.0195313,0.2578125 -0.29296874,0 -0.52734374,-0.05859375 -0.70312499,-0.1875 -0.1171875,-0.08203125 -0.17578125,-0.19921875 -0.17578125,-0.328125 0,-0.10546875 0.0351563,-0.19921875 0.1171875,-0.26953125 0.0703125,-0.0820313 0.1640625,-0.1171875 0.26953125,-0.1171875 0.15234375,0 0.32812499,0.0820313 0.52734379,0.234375 0.1171875,0.09375 0.2109375,0.1640625 0.2929687,0.19921875 0.058594,0.0234375 0.1289063,0.0351563 0.2109375,0.0351563 0.328125,0 0.6445313,-0.1640625 0.9140625,-0.4921875 0.28125,-0.33984373 0.421875,-0.76171873 0.421875,-1.28906243 0,-0.375 -0.070312,-0.6796875 -0.234375,-0.9375 C 2.7056328,-3.316003 2.5181328,-3.503503 2.2954766,-3.6089718 2.0611016,-3.7027218 1.7564141,-3.784753 1.3814141,-3.8199093 Z M -17.869562,-99.796472 c 0.28125,0.304688 0.492187,0.585938 0.621093,0.855469 0.128907,0.269531 0.199219,0.527344 0.199219,0.796875 0,0.480469 -0.1875,0.890625 -0.550781,1.253906 -0.363281,0.351563 -0.808594,0.527344 -1.347656,0.527344 -0.46875,0 -0.867188,-0.140625 -1.160157,-0.421875 -0.304687,-0.304688 -0.457031,-0.632813 -0.457031,-1.019531 0,-0.339844 0.128906,-0.65625 0.375,-0.984375 0.234375,-0.316407 0.703125,-0.621094 1.371094,-0.914063 -0.257813,-0.316408 -0.433594,-0.585938 -0.527344,-0.796878 -0.09375,-0.19922 -0.140625,-0.41015 -0.140625,-0.62109 0,-0.38672 0.152344,-0.71484 0.445313,-0.99609 0.292968,-0.28125 0.65625,-0.42188 1.101562,-0.42188 0.421875,0 0.773438,0.11719 1.03125,0.36328 0.269531,0.23438 0.410156,0.52735 0.410156,0.85547 0,0.31641 -0.117187,0.60938 -0.328125,0.87891 -0.222656,0.25781 -0.5625,0.468747 -1.042968,0.644528 z m -0.175782,-0.1875 c 0.316407,-0.105468 0.574219,-0.292968 0.738282,-0.527348 0.175781,-0.24609 0.257812,-0.53906 0.257812,-0.85546 0,-0.29297 -0.07031,-0.52735 -0.246094,-0.69141 -0.175781,-0.17578 -0.386718,-0.26953 -0.667968,-0.26953 -0.257813,0 -0.46875,0.082 -0.632813,0.24609 -0.152344,0.17578 -0.234375,0.375 -0.234375,0.64453 0,0.1875 0.03516,0.375 0.117188,0.53907 0.128906,0.24609 0.351562,0.55078 0.667968,0.914058 z m -0.597656,0.457031 c -0.445312,0.175782 -0.773437,0.445313 -0.996094,0.796875 -0.234375,0.339844 -0.339843,0.703125 -0.339843,1.101563 0,0.316406 0.105468,0.574219 0.292968,0.773437 0.199219,0.1875 0.46875,0.292969 0.785157,0.292969 0.339843,0 0.609375,-0.117187 0.84375,-0.351562 0.234375,-0.234375 0.351562,-0.515625 0.351562,-0.84375 0,-0.246094 -0.07031,-0.503907 -0.199219,-0.773438 -0.140625,-0.269531 -0.386718,-0.597656 -0.738281,-0.996094 z m 0,0"
       style="fill:#231f20;fill-opacity:1;fill-rule:nonzero;stroke:none"
       aria-label="5&#10;8"
       transform="matrix(1.3333333,0,0,1.3333333,437.85733,139.4604)" />
    <path
       id="path61"
       d="m 3036.78,1408.64 v -226.47 h 226.68"
       style="fill:none;stroke:#231f20;stroke-width:2.5;stroke-linecap:butt;stroke-linejoin:miter;stroke-miterlimit:3.86369;stroke-dasharray:none;stroke-opacity:1"
       transform="matrix(0.13333333,0,0,-0.13333333,0,193.33333)" />
    <path
       id="path62"
       d="m 3036.78,1406.34 h -13.75 l 13.75,34.38 13.75,-34.38 h -13.75"
       style="fill:#231f20;fill-opacity:1;fill-rule:evenodd;stroke:none"
       transform="matrix(0.13333333,0,0,-0.13333333,0,193.33333)" />
    <path
       id="path63"
       d="m 3261.17,1182.17 v 13.75 l 34.37,-13.75 -34.37,-13.75 v 13.75"
       style="fill:#231f20;fill-opacity:1;fill-rule:evenodd;stroke:none"
       transform="matrix(0.13333333,0,0,-0.13333333,0,193.33333)" />
    <path
       id="path64"
       d="M 1.7452813,-5.9656094 H 4.710125 v 0.1523438 L 1.3702813,0.09298438 1.0187188,-0.05935937 3.9366875,-5.2624844 h -1.40625 c -0.3984375,0 -0.65625,0.035156 -0.8085937,0.09375 -0.140625,0.070312 -0.3046875,0.2460938 -0.4921875,0.5039063 H 1.053875 Z M -120.1473,-21.941195 l -1.13672,3.914062 h 0.70313 l -0.15234,0.550781 h -0.71485 l -0.45703,1.59375 h -0.64453 l 0.46875,-1.59375 h -2.16797 l 0.1875,-0.621093 3.57422,-3.84375 z m -0.98437,1.136718 -2.55469,2.777344 h 1.75781 z m 0,0"
       style="fill:#231f20;fill-opacity:1;fill-rule:nonzero;stroke:none"
       aria-label="7&#10;4"
       transform="matrix(1.3333333,0,0,1.3333333,433.15733,31.821333)" />
    <path
       id="path65"
       d="m 1969.28,1408.64 v -226.47 h 226.68"
       style="fill:none;stroke:#231f20;stroke-width:2.5;stroke-linecap:butt;stroke-linejoin:miter;stroke-miterlimit:3.86369;stroke-dasharray:none;stroke-opacity:1"
       transform="matrix(0.13333333,0,0,-0.13333333,0,193.33333)" />
    <path
       id="path66"
       d="m 1969.28,1406.34 h -13.75 l 13.75,34.38 13.75,-34.38 h -13.75"
       style="fill:#231f20;fill-opacity:1;fill-rule:evenodd;stroke:none"
       transform="matrix(0.13333333,0,0,-0.13333333,0,193.33333)" />
    <path
       id="path67"
       d="m 2193.67,1182.17 v 13.75 l 34.37,-13.75 -34.37,-13.75 v 13.75"
       style="fill:#231f20;fill-opacity:1;fill-rule:evenodd;stroke:none"
       transform="matrix(0.13333333,0,0,-0.13333333,0,193.33333)" />
    <path
       id="path68"
       d="m 1.3840156,-3.2580859 v -0.1289063 c 0.703125,-0.1054687 1.2304688,-0.3164062 1.5820313,-0.6328125 0.2460937,-0.2226562 0.375,-0.4921875 0.375,-0.796875 0,-0.234375 -0.070312,-0.421875 -0.2226563,-0.5742187 -0.1523437,-0.1523438 -0.3164062,-0.2226563 -0.5273437,-0.2226563 -0.328125,0 -0.6210938,0.1992188 -0.8671875,0.5976563 l -0.1640625,-0.046875 c 0.1523437,-0.3398438 0.3515625,-0.5859375 0.5859375,-0.7617188 0.2460937,-0.1640625 0.5039062,-0.2578125 0.7851562,-0.2578125 0.3515625,0 0.6210938,0.09375 0.8320313,0.3046875 0.2109375,0.2109375 0.328125,0.46875 0.328125,0.7851563 0,0.2695312 -0.1054688,0.5273437 -0.3046875,0.7851562 -0.1992188,0.234375 -0.5507813,0.46875 -1.0429688,0.65625 0.3046875,0.1289063 0.5390625,0.3164063 0.6914063,0.5390625 0.1523437,0.234375 0.234375,0.5273438 0.234375,0.8554688 0,0.3632812 -0.1054688,0.7382812 -0.3164063,1.1015625 -0.2109375,0.37499996 -0.5039062,0.64453121 -0.8671875,0.85546871 -0.375,0.1992187525 -0.7617187,0.29296875 -1.1601562,0.29296875 -0.37500003,0 -0.64453128,-0.05859375 -0.84375003,-0.1875 -0.1171875,-0.08203125 -0.1875,-0.19921875 -0.1875,-0.31640625 0,-0.09375 0.0351563,-0.1875 0.1171875,-0.2578125 0.0703125,-0.0703125 0.1640625,-0.10546875 0.26953125,-0.10546875 0.0820313,0 0.15234375,0.0117188 0.234375,0.0351563 0.046875,0.0234375 0.15234378,0.0703125 0.35156248,0.17578125 0.1757813,0.10546875 0.3164063,0.17578125 0.421875,0.19921875 0.1054688,0.0351563 0.2109375,0.0585938 0.3164063,0.0585938 0.2695312,0 0.4804687,-0.15234375 0.65625,-0.45703125 0.1640625,-0.30468751 0.2578125,-0.63281251 0.2578125,-0.98437501 0,-0.28125 -0.058594,-0.5273437 -0.1757813,-0.75 C 2.6262031,-2.7073047 2.4504219,-2.8948047 2.1926094,-3.0237109 1.9465156,-3.1643359 1.6769844,-3.2346484 1.3840156,-3.2580859 Z m 0,0"
       style="fill:#231f20;fill-opacity:1;fill-rule:nonzero;stroke:none"
       aria-label="3"
       transform="matrix(1.3333333,0,0,1.3333333,290.70933,31.793333)" />
    <path
       id="path69"
       d="m 133.41,325.313 c 0,10.199 8.266,18.464 18.465,18.464 10.199,0 18.465,-8.265 18.465,-18.464 0,-10.2 -8.266,-18.465 -18.465,-18.465 -10.199,0 -18.465,8.265 -18.465,18.465"
       style="fill:#ffffff;fill-opacity:1;fill-rule:nonzero;stroke:none"
       transform="matrix(0.13333333,0,0,-0.13333333,0,193.33333)" />
    <path
       id="path70"
       d="m 133.41,325.313 c 0,10.199 8.266,18.464 18.465,18.464 10.199,0 18.465,-8.265 18.465,-18.464 0,-10.2 -8.266,-18.465 -18.465,-18.465 -10.199,0 -18.465,8.265 -18.465,18.465 z"
       style="fill:none;stroke:#231f20;stroke-width:5;stroke-linecap:butt;stroke-linejoin:miter;stroke-miterlimit:3.86369;stroke-dasharray:none;stroke-opacity:1"
       transform="matrix(0.13333333,0,0,-0.13333333,0,193.33333)" />
    <path
       id="path71"
       d="m 1178.41,326.563 c 0,10.199 8.27,18.464 18.47,18.464 10.19,0 18.46,-8.265 18.46,-18.464 0,-10.2 -8.27,-18.465 -18.46,-18.465 -10.2,0 -18.47,8.265 -18.47,18.465"
       style="fill:#ffffff;fill-opacity:1;fill-rule:nonzero;stroke:none"
       transform="matrix(0.13333333,0,0,-0.13333333,0,193.33333)" />
    <path
       id="path72"
       d="m 1178.41,326.563 c 0,10.199 8.27,18.464 18.47,18.464 10.19,0 18.46,-8.265 18.46,-18.464 0,-10.2 -8.27,-18.465 -18.46,-18.465 -10.2,0 -18.47,8.265 -18.47,18.465 z"
       style="fill:none;stroke:#231f20;stroke-width:5;stroke-linecap:butt;stroke-linejoin:miter;stroke-miterlimit:3.86369;stroke-dasharray:none;stroke-opacity:1"
       transform="matrix(0.13333333,0,0,-0.13333333,0,193.33333)" />
    <path
       id="path73"
       d="m 1177.91,1156.54 c 0,10.19 8.27,18.46 18.46,18.46 10.2,0 18.47,-8.27 18.47,-18.46 0,-10.2 -8.27,-18.47 -18.47,-18.47 -10.19,0 -18.46,8.27 -18.46,18.47"
       style="fill:#ffffff;fill-opacity:1;fill-rule:nonzero;stroke:none"
       transform="matrix(0.13333333,0,0,-0.13333333,0,193.33333)" />
    <path
       id="path74"
       d="m 1177.91,1156.54 c 0,10.19 8.27,18.46 18.46,18.46 10.2,0 18.47,-8.27 18.47,-18.46 0,-10.2 -8.27,-18.47 -18.47,-18.47 -10.19,0 -18.46,8.27 -18.46,18.47 z"
       style="fill:none;stroke:#231f20;stroke-width:5;stroke-linecap:butt;stroke-linejoin:miter;stroke-miterlimit:3.86369;stroke-dasharray:none;stroke-opacity:1"
       transform="matrix(0.13333333,0,0,-0.13333333,0,193.33333)" />
    <path
       id="path75"
       d="m 1950.98,1154.27 c 0,10.19 8.26,18.46 18.46,18.46 10.2,0 18.47,-8.27 18.47,-18.46 0,-10.2 -8.27,-18.47 -18.47,-18.47 -10.2,0 -18.46,8.27 -18.46,18.47"
       style="fill:#231f20;fill-opacity:1;fill-rule:nonzero;stroke:none"
       transform="matrix(0.13333333,0,0,-0.13333333,0,193.33333)" />
    <path
       id="path76"
       d="m 1950.98,1154.27 c 0,10.19 8.26,18.46 18.46,18.46 10.2,0 18.47,-8.27 18.47,-18.46 0,-10.2 -8.27,-18.47 -18.47,-18.47 -10.2,0 -18.46,8.27 -18.46,18.47 z"
       style="fill:none;stroke:#231f20;stroke-width:5;stroke-linecap:butt;stroke-linejoin:miter;stroke-miterlimit:3.86369;stroke-dasharray:none;stroke-opacity:1"
       transform="matrix(0.13333333,0,0,-0.13333333,0,193.33333)" />
    <path
       id="path77"
       d="m 1949.91,321.449 c 0,10.196 8.26,18.465 18.46,18.465 10.2,0 18.47,-8.269 18.47,-18.465 0,-10.199 -8.27,-18.469 -18.47,-18.469 -10.2,0 -18.46,8.27 -18.46,18.469"
       style="fill:#231f20;fill-opacity:1;fill-rule:nonzero;stroke:none"
       transform="matrix(0.13333333,0,0,-0.13333333,0,193.33333)" />
    <path
       id="path78"
       d="m 1949.91,321.449 c 0,10.196 8.26,18.465 18.46,18.465 10.2,0 18.47,-8.269 18.47,-18.465 0,-10.199 -8.27,-18.469 -18.47,-18.469 -10.2,0 -18.46,8.27 -18.46,18.469 z"
       style="fill:none;stroke:#231f20;stroke-width:5;stroke-linecap:butt;stroke-linejoin:miter;stroke-miterlimit:3.86369;stroke-dasharray:none;stroke-opacity:1"
       transform="matrix(0.13333333,0,0,-0.13333333,0,193.33333)" />
    <path
       id="path79"
       d="m 3016.08,325.313 c 0,10.199 8.26,18.464 18.46,18.464 10.2,0 18.47,-8.265 18.47,-18.464 0,-10.2 -8.27,-18.465 -18.47,-18.465 -10.2,0 -18.46,8.265 -18.46,18.465"
       style="fill:#231f20;fill-opacity:1;fill-rule:nonzero;stroke:none"
       transform="matrix(0.13333333,0,0,-0.13333333,0,193.33333)" />
    <path
       id="path80"
       d="m 3016.08,325.313 c 0,10.199 8.26,18.464 18.46,18.464 10.2,0 18.47,-8.265 18.47,-18.464 0,-10.2 -8.27,-18.465 -18.47,-18.465 -10.2,0 -18.46,8.265 -18.46,18.465 z"
       style="fill:none;stroke:#231f20;stroke-width:5;stroke-linecap:butt;stroke-linejoin:miter;stroke-miterlimit:3.86369;stroke-dasharray:none;stroke-opacity:1"
       transform="matrix(0.13333333,0,0,-0.13333333,0,193.33333)" />
    <path
       id="path81"
       d="m 3018.41,1155.12 c 0,10.2 8.27,18.46 18.47,18.46 10.19,0 18.46,-8.26 18.46,-18.46 0,-10.2 -8.27,-18.47 -18.46,-18.47 -10.2,0 -18.47,8.27 -18.47,18.47"
       style="fill:#231f20;fill-opacity:1;fill-rule:nonzero;stroke:none"
       transform="matrix(0.13333333,0,0,-0.13333333,0,193.33333)" />
    <path
       id="path82"
       d="m 3018.41,1155.12 c 0,10.2 8.27,18.46 18.47,18.46 10.19,0 18.46,-8.26 18.46,-18.46 0,-10.2 -8.27,-18.47 -18.46,-18.47 -10.2,0 -18.47,8.27 -18.47,18.47 z"
       style="fill:none;stroke:#231f20;stroke-width:5;stroke-linecap:butt;stroke-linejoin:miter;stroke-miterlimit:3.86369;stroke-dasharray:none;stroke-opacity:1"
       transform="matrix(0.13333333,0,0,-0.13333333,0,193.33333)" />
  </g>
</svg>
