<?xml version="1.0" encoding="UTF-8" standalone="no"?>
<!-- Created with Inkscape (http://www.inkscape.org/) -->

<svg
   version="1.1"
   id="svg1"
   width="560"
   height="421.33334"
   viewBox="0 0 560 421.33334"
   sodipodi:docname="exs3_2.eps"
   xmlns:inkscape="http://www.inkscape.org/namespaces/inkscape"
   xmlns:sodipodi="http://sodipodi.sourceforge.net/DTD/sodipodi-0.dtd"
   xmlns="http://www.w3.org/2000/svg"
   xmlns:svg="http://www.w3.org/2000/svg">
  <defs
     id="defs1">
    <clipPath
       clipPathUnits="userSpaceOnUse"
       id="clipPath2">
      <path
         d="M 0,8 V 3160 H 4200 V 8 Z"
         transform="translate(0,-2.5e-5)"
         id="path2" />
    </clipPath>
    <clipPath
       clipPathUnits="userSpaceOnUse"
       id="clipPath4">
      <path
         d="M 0,8 V 3160 H 4200 V 8 Z"
         transform="translate(0,-2.5e-5)"
         id="path4" />
    </clipPath>
    <clipPath
       clipPathUnits="userSpaceOnUse"
       id="clipPath6">
      <path
         d="M 0,8 V 3160 H 4200 V 8 Z"
         transform="translate(0,-2.5e-5)"
         id="path6" />
    </clipPath>
    <clipPath
       clipPathUnits="userSpaceOnUse"
       id="clipPath8">
      <path
         d="M 0,8 V 3160 H 4200 V 8 Z"
         transform="translate(0,-2.5e-5)"
         id="path8" />
    </clipPath>
    <clipPath
       clipPathUnits="userSpaceOnUse"
       id="clipPath10">
      <path
         d="M 0,8 V 3160 H 4200 V 8 Z"
         transform="translate(0,-2.5e-5)"
         id="path10" />
    </clipPath>
    <clipPath
       clipPathUnits="userSpaceOnUse"
       id="clipPath12">
      <path
         d="M 0,8 V 3160 H 4200 V 8 Z"
         transform="translate(0,-2.5e-5)"
         id="path12" />
    </clipPath>
    <clipPath
       clipPathUnits="userSpaceOnUse"
       id="clipPath14">
      <path
         d="M 0,8 V 3160 H 4200 V 8 Z"
         transform="matrix(0.1,0,0,-0.1,-106.167,29.666801)"
         id="path14" />
    </clipPath>
    <clipPath
       clipPathUnits="userSpaceOnUse"
       id="clipPath16">
      <path
         d="M 0,8 V 3160 H 4200 V 8 Z"
         transform="translate(0,-2.5e-5)"
         id="path16" />
    </clipPath>
    <clipPath
       clipPathUnits="userSpaceOnUse"
       id="clipPath18">
      <path
         d="M 0,8 V 3160 H 4200 V 8 Z"
         transform="matrix(0.1,0,0,-0.1,-169.917,29.666801)"
         id="path18" />
    </clipPath>
    <clipPath
       clipPathUnits="userSpaceOnUse"
       id="clipPath20">
      <path
         d="M 0,8 V 3160 H 4200 V 8 Z"
         transform="translate(0,-2.5e-5)"
         id="path20" />
    </clipPath>
    <clipPath
       clipPathUnits="userSpaceOnUse"
       id="clipPath22">
      <path
         d="M 0,8 V 3160 H 4200 V 8 Z"
         transform="matrix(0.1,0,0,-0.1,-241.91701,29.666801)"
         id="path22" />
    </clipPath>
    <clipPath
       clipPathUnits="userSpaceOnUse"
       id="clipPath24">
      <path
         d="M 0,8 V 3160 H 4200 V 8 Z"
         transform="translate(0,-2.5e-5)"
         id="path24" />
    </clipPath>
    <clipPath
       clipPathUnits="userSpaceOnUse"
       id="clipPath26">
      <path
         d="M 0,8 V 3160 H 4200 V 8 Z"
         transform="matrix(0.1,0,0,-0.1,-305.66701,29.666801)"
         id="path26" />
    </clipPath>
    <clipPath
       clipPathUnits="userSpaceOnUse"
       id="clipPath28">
      <path
         d="M 0,8 V 3160 H 4200 V 8 Z"
         transform="translate(0,-2.5e-5)"
         id="path28" />
    </clipPath>
    <clipPath
       clipPathUnits="userSpaceOnUse"
       id="clipPath30">
      <path
         d="M 0,8 V 3160 H 4200 V 8 Z"
         transform="matrix(0.1,0,0,-0.1,-377.66701,29.666801)"
         id="path30" />
    </clipPath>
    <clipPath
       clipPathUnits="userSpaceOnUse"
       id="clipPath32">
      <path
         d="M 0,8 V 3160 H 4200 V 8 Z"
         transform="translate(0,-2.5e-5)"
         id="path32" />
    </clipPath>
    <clipPath
       clipPathUnits="userSpaceOnUse"
       id="clipPath34">
      <path
         d="M 0,8 V 3160 H 4200 V 8 Z"
         transform="matrix(0.1,0,0,-0.1,-32.083201,38.083203)"
         id="path34" />
    </clipPath>
    <clipPath
       clipPathUnits="userSpaceOnUse"
       id="clipPath36">
      <path
         d="M 0,8 V 3160 H 4200 V 8 Z"
         transform="translate(0,-2.5e-5)"
         id="path36" />
    </clipPath>
    <clipPath
       clipPathUnits="userSpaceOnUse"
       id="clipPath38">
      <path
         d="M 0,8 V 3160 H 4200 V 8 Z"
         transform="matrix(0.1,0,0,-0.1,-32.083201,65.250004)"
         id="path38" />
    </clipPath>
    <clipPath
       clipPathUnits="userSpaceOnUse"
       id="clipPath40">
      <path
         d="M 0,8 V 3160 H 4200 V 8 Z"
         transform="translate(0,-2.5e-5)"
         id="path40" />
    </clipPath>
    <clipPath
       clipPathUnits="userSpaceOnUse"
       id="clipPath42">
      <path
         d="M 0,8 V 3160 H 4200 V 8 Z"
         transform="matrix(0.1,0,0,-0.1,-46.250001,92.416805)"
         id="path42" />
    </clipPath>
    <clipPath
       clipPathUnits="userSpaceOnUse"
       id="clipPath44">
      <path
         d="M 0,8 V 3160 H 4200 V 8 Z"
         transform="translate(0,-2.5e-5)"
         id="path44" />
    </clipPath>
    <clipPath
       clipPathUnits="userSpaceOnUse"
       id="clipPath46">
      <path
         d="M 0,8 V 3160 H 4200 V 8 Z"
         transform="matrix(0.1,0,0,-0.1,-37.916801,119.58301)"
         id="path46" />
    </clipPath>
    <clipPath
       clipPathUnits="userSpaceOnUse"
       id="clipPath48">
      <path
         d="M 0,8 V 3160 H 4200 V 8 Z"
         transform="translate(0,-2.5e-5)"
         id="path48" />
    </clipPath>
    <clipPath
       clipPathUnits="userSpaceOnUse"
       id="clipPath50">
      <path
         d="M 0,8 V 3160 H 4200 V 8 Z"
         transform="matrix(0.1,0,0,-0.1,-37.916801,146.75)"
         id="path50" />
    </clipPath>
    <clipPath
       clipPathUnits="userSpaceOnUse"
       id="clipPath52">
      <path
         d="M 0,8 V 3160 H 4200 V 8 Z"
         transform="translate(0,-2.5e-5)"
         id="path52" />
    </clipPath>
    <clipPath
       clipPathUnits="userSpaceOnUse"
       id="clipPath54">
      <path
         d="M 0,8 V 3160 H 4200 V 8 Z"
         transform="matrix(0.1,0,0,-0.1,-37.916801,173.833)"
         id="path54" />
    </clipPath>
    <clipPath
       clipPathUnits="userSpaceOnUse"
       id="clipPath56">
      <path
         d="M 0,8 V 3160 H 4200 V 8 Z"
         transform="translate(0,-2.5e-5)"
         id="path56" />
    </clipPath>
    <clipPath
       clipPathUnits="userSpaceOnUse"
       id="clipPath58">
      <path
         d="M 0,8 V 3160 H 4200 V 8 Z"
         transform="matrix(0.1,0,0,-0.1,-37.916801,201.00001)"
         id="path58" />
    </clipPath>
    <clipPath
       clipPathUnits="userSpaceOnUse"
       id="clipPath60">
      <path
         d="M 0,8 V 3160 H 4200 V 8 Z"
         transform="translate(0,-2.5e-5)"
         id="path60" />
    </clipPath>
    <clipPath
       clipPathUnits="userSpaceOnUse"
       id="clipPath62">
      <path
         d="M 0,8 V 3160 H 4200 V 8 Z"
         transform="matrix(0.1,0,0,-0.1,-46.250001,228.167)"
         id="path62" />
    </clipPath>
    <clipPath
       clipPathUnits="userSpaceOnUse"
       id="clipPath64">
      <path
         d="M 0,8 V 3160 H 4200 V 8 Z"
         transform="translate(0,-2.5e-5)"
         id="path64" />
    </clipPath>
    <clipPath
       clipPathUnits="userSpaceOnUse"
       id="clipPath66">
      <path
         d="M 0,8 V 3160 H 4200 V 8 Z"
         transform="matrix(0.1,0,0,-0.1,-37.916801,255.33301)"
         id="path66" />
    </clipPath>
    <clipPath
       clipPathUnits="userSpaceOnUse"
       id="clipPath68">
      <path
         d="M 0,8 V 3160 H 4200 V 8 Z"
         transform="translate(0,-2.5e-5)"
         id="path68" />
    </clipPath>
    <clipPath
       clipPathUnits="userSpaceOnUse"
       id="clipPath70">
      <path
         d="M 0,8 V 3160 H 4200 V 8 Z"
         transform="matrix(0.1,0,0,-0.1,-37.916801,282.50001)"
         id="path70" />
    </clipPath>
    <clipPath
       clipPathUnits="userSpaceOnUse"
       id="clipPath72">
      <path
         d="m 546.668,416.668 h 3258.33 v 2445 H 546.668 Z"
         transform="translate(0,-2.5e-5)"
         id="path72" />
    </clipPath>
    <clipPath
       clipPathUnits="userSpaceOnUse"
       id="clipPath74">
      <path
         d="m 546.668,416.668 h 3258.33 v 2445 H 546.668 Z"
         transform="translate(0,-2.5e-5)"
         id="path74" />
    </clipPath>
    <clipPath
       clipPathUnits="userSpaceOnUse"
       id="clipPath76">
      <path
         d="m 546.668,416.668 h 3258.33 v 2445 H 546.668 Z"
         transform="translate(0,-2.5e-5)"
         id="path76" />
    </clipPath>
    <clipPath
       clipPathUnits="userSpaceOnUse"
       id="clipPath78">
      <path
         d="m 546.668,416.668 h 3258.33 v 2445 H 546.668 Z"
         transform="translate(0,-2.5e-5)"
         id="path78" />
    </clipPath>
    <clipPath
       clipPathUnits="userSpaceOnUse"
       id="clipPath80">
      <path
         d="m 546.668,416.668 h 3258.33 v 2445 H 546.668 Z"
         transform="translate(0,-2.5e-5)"
         id="path80" />
    </clipPath>
    <clipPath
       clipPathUnits="userSpaceOnUse"
       id="clipPath82">
      <path
         d="m 546.668,416.668 h 3258.33 v 2445 H 546.668 Z"
         transform="translate(0,-2.5e-5)"
         id="path82" />
    </clipPath>
    <clipPath
       clipPathUnits="userSpaceOnUse"
       id="clipPath84">
      <path
         d="m 546.668,416.668 h 3258.33 v 2445 H 546.668 Z"
         transform="translate(0,-2.5e-5)"
         id="path84" />
    </clipPath>
    <clipPath
       clipPathUnits="userSpaceOnUse"
       id="clipPath86">
      <path
         d="m 546.668,416.668 h 3258.33 v 2445 H 546.668 Z"
         transform="translate(0,-2.5e-5)"
         id="path86" />
    </clipPath>
    <clipPath
       clipPathUnits="userSpaceOnUse"
       id="clipPath88">
      <path
         d="m 546.668,416.668 h 3258.33 v 2445 H 546.668 Z"
         transform="translate(0,-2.5e-5)"
         id="path88" />
    </clipPath>
    <clipPath
       clipPathUnits="userSpaceOnUse"
       id="clipPath90">
      <path
         d="m 546.668,416.668 h 3258.33 v 2445 H 546.668 Z"
         transform="translate(0,-2.5e-5)"
         id="path90" />
    </clipPath>
    <clipPath
       clipPathUnits="userSpaceOnUse"
       id="clipPath92">
      <path
         d="m 546.668,416.668 h 3258.33 v 2445 H 546.668 Z"
         transform="translate(0,-2.5e-5)"
         id="path92" />
    </clipPath>
    <clipPath
       clipPathUnits="userSpaceOnUse"
       id="clipPath94">
      <path
         d="m 546.668,416.668 h 3258.33 v 2445 H 546.668 Z"
         transform="translate(0,-2.5e-5)"
         id="path94" />
    </clipPath>
    <clipPath
       clipPathUnits="userSpaceOnUse"
       id="clipPath96">
      <path
         d="m 546.668,416.668 h 3258.33 v 2445 H 546.668 Z"
         transform="translate(0,-2.5e-5)"
         id="path96" />
    </clipPath>
    <clipPath
       clipPathUnits="userSpaceOnUse"
       id="clipPath98">
      <path
         d="m 546.668,416.668 h 3258.33 v 2445 H 546.668 Z"
         transform="translate(0,-2.5e-5)"
         id="path98" />
    </clipPath>
    <clipPath
       clipPathUnits="userSpaceOnUse"
       id="clipPath100">
      <path
         d="m 546.668,416.668 h 3258.33 v 2445 H 546.668 Z"
         transform="translate(0,-2.5e-5)"
         id="path100" />
    </clipPath>
    <clipPath
       clipPathUnits="userSpaceOnUse"
       id="clipPath102">
      <path
         d="m 546.668,416.668 h 3258.33 v 2445 H 546.668 Z"
         transform="translate(0,-2.5e-5)"
         id="path102" />
    </clipPath>
    <clipPath
       clipPathUnits="userSpaceOnUse"
       id="clipPath104">
      <path
         d="m 546.668,416.668 h 3258.33 v 2445 H 546.668 Z"
         transform="translate(0,-2.5e-5)"
         id="path104" />
    </clipPath>
    <clipPath
       clipPathUnits="userSpaceOnUse"
       id="clipPath106">
      <path
         d="m 546.668,416.668 h 3258.33 v 2445 H 546.668 Z"
         transform="translate(0,-2.5e-5)"
         id="path106" />
    </clipPath>
    <clipPath
       clipPathUnits="userSpaceOnUse"
       id="clipPath108">
      <path
         d="m 546.668,416.668 h 3258.33 v 2445 H 546.668 Z"
         transform="translate(0,-2.5e-5)"
         id="path108" />
    </clipPath>
    <clipPath
       clipPathUnits="userSpaceOnUse"
       id="clipPath110">
      <path
         d="m 546.668,416.668 h 3258.33 v 2445 H 546.668 Z"
         transform="translate(0,-2.5e-5)"
         id="path110" />
    </clipPath>
    <clipPath
       clipPathUnits="userSpaceOnUse"
       id="clipPath112">
      <path
         d="m 546.668,416.668 h 3258.33 v 2445 H 546.668 Z"
         transform="translate(0,-2.5e-5)"
         id="path112" />
    </clipPath>
    <clipPath
       clipPathUnits="userSpaceOnUse"
       id="clipPath114">
      <path
         d="M 0,8 H 4200 V 3160 H 0 Z"
         transform="matrix(0.1,0,0,-0.1,-129.667,51.833201)"
         id="path114" />
    </clipPath>
  </defs>
  <sodipodi:namedview
     id="namedview1"
     pagecolor="#ffffff"
     bordercolor="#000000"
     borderopacity="0.25"
     inkscape:showpageshadow="2"
     inkscape:pageopacity="0.0"
     inkscape:pagecheckerboard="0"
     inkscape:deskcolor="#d1d1d1">
    <inkscape:page
       x="0"
       y="0"
       inkscape:label="1"
       id="page1"
       width="560"
       height="421.33334"
       margin="0"
       bleed="0" />
  </sodipodi:namedview>
  <g
     id="g1"
     inkscape:groupmode="layer"
     inkscape:label="1">
    <path
       id="path1"
       d="M 0,8 H 4200 V 3160 H 0 Z"
       style="fill:#ffffff;fill-opacity:1;fill-rule:nonzero;stroke:none"
       transform="matrix(0.13333333,0,0,-0.13333333,0,421.33333)"
       clip-path="url(#clipPath2)" />
    <path
       id="path3"
       d="m 546.668,417.5 h 3257.5 v 2444.17 h -3257.5 z"
       style="fill:#ffffff;fill-opacity:1;fill-rule:evenodd;stroke:none"
       transform="matrix(0.13333333,0,0,-0.13333333,0,421.33333)"
       clip-path="url(#clipPath4)" />
    <path
       id="path5"
       d="M 546.668,417.5 V 2861.67 H 3804.17 V 417.5 H 546.668"
       style="fill:none;stroke:#ffffff;stroke-width:5;stroke-linecap:butt;stroke-linejoin:round;stroke-miterlimit:10;stroke-dasharray:none;stroke-opacity:1"
       transform="matrix(0.13333333,0,0,-0.13333333,0,421.33333)"
       clip-path="url(#clipPath6)" />
    <path
       id="path7"
       d="M 546.668,417.5 H 3804.17"
       style="fill:none;stroke:#000000;stroke-width:5;stroke-linecap:butt;stroke-linejoin:round;stroke-miterlimit:10;stroke-dasharray:none;stroke-opacity:1"
       transform="matrix(0.13333333,0,0,-0.13333333,0,421.33333)"
       clip-path="url(#clipPath8)" />
    <path
       id="path9"
       d="M 546.668,417.5 V 2861.67"
       style="fill:none;stroke:#000000;stroke-width:5;stroke-linecap:butt;stroke-linejoin:round;stroke-miterlimit:10;stroke-dasharray:none;stroke-opacity:1"
       transform="matrix(0.13333333,0,0,-0.13333333,0,421.33333)"
       clip-path="url(#clipPath10)" />
    <path
       id="path11"
       d="M 1089.17,417.5 V 450"
       style="fill:none;stroke:#000000;stroke-width:5;stroke-linecap:butt;stroke-linejoin:round;stroke-miterlimit:10;stroke-dasharray:none;stroke-opacity:1"
       transform="matrix(0.13333333,0,0,-0.13333333,0,421.33333)"
       clip-path="url(#clipPath12)" />
    <path
       id="path13"
       d="m 2.7529219,-7.2306609 c -0.6679688,0 -1.265625,0.3046875 -1.6289063,0.796875 -0.46874997,0.6328125 -0.69140622,1.59375 -0.69140622,2.9296875 0,2.4492187 0.79687502,3.73828121 2.32031252,3.73828121 1.5,0 2.3085937,-1.28906251 2.3085937,-3.66796871 0,-1.40625 -0.2109375,-2.34375 -0.6796875,-3 -0.375,-0.5039063 -0.9609375,-0.796875 -1.6289062,-0.796875 z m 0,0.7851562 c 0.9492187,0 1.4179687,0.9726563 1.4179687,2.9296875 0,2.0507813 -0.46875,3.01171876 -1.4414062,3.01171876 -0.9257813,0 -1.40625,-0.99609376 -1.40625,-2.98828126 0,-1.9804687 0.4804687,-2.953125 1.4296875,-2.953125 z m 0,0"
       style="fill:#000000;fill-opacity:1;fill-rule:nonzero;stroke:none"
       aria-label="0"
       transform="matrix(1.3333333,0,0,1.3333333,141.556,381.7776)"
       clip-path="url(#clipPath14)" />
    <path
       id="path15"
       d="M 1768.33,417.5 V 450"
       style="fill:none;stroke:#000000;stroke-width:5;stroke-linecap:butt;stroke-linejoin:round;stroke-miterlimit:10;stroke-dasharray:none;stroke-opacity:1"
       transform="matrix(0.13333333,0,0,-0.13333333,0,421.33333)"
       clip-path="url(#clipPath16)" />
    <path
       id="path17"
       d="m 2.7529219,-7.2306609 c -0.6679688,0 -1.265625,0.3046875 -1.6289063,0.796875 -0.46874997,0.6328125 -0.69140622,1.59375 -0.69140622,2.9296875 0,2.4492187 0.79687502,3.73828121 2.32031252,3.73828121 1.5,0 2.3085937,-1.28906251 2.3085937,-3.66796871 0,-1.40625 -0.2109375,-2.34375 -0.6796875,-3 -0.375,-0.5039063 -0.9609375,-0.796875 -1.6289062,-0.796875 z m 0,0.7851562 c 0.9492187,0 1.4179687,0.9726563 1.4179687,2.9296875 0,2.0507813 -0.46875,3.01171876 -1.4414062,3.01171876 -0.9257813,0 -1.40625,-0.99609376 -1.40625,-2.98828126 0,-1.9804687 0.4804687,-2.953125 1.4296875,-2.953125 z m 4.7167969,5.4023438 H 6.42675 v 1.0429687125 h 1.0429688 z m 5.6279292,-6.046875 H 9.4413984 l -0.5273437,3.8554687 h 0.8085937 c 0.4101566,-0.4804687 0.7499996,-0.65625 1.3007816,-0.65625 0.949218,0 1.546875,0.65625 1.546875,1.6992188 0,1.0195312 -0.597657,1.64062496 -1.546875,1.64062496 -0.773438,0 -1.2421878,-0.38671875 -1.4531253,-1.18359376 H 8.6913984 c 0.1171875,0.5742188 0.2226563,0.85546876 0.4335938,1.11328126 0.3984375,0.5390625 1.1132808,0.85546875 1.9101558,0.85546875 1.429688,0 2.4375,-1.04296875 2.4375,-2.54296871 0,-1.3945313 -0.9375,-2.3554688 -2.296875,-2.3554688 -0.492187,0 -0.902343,0.1289063 -1.3007808,0.421875 l 0.2695308,-1.9804687 h 2.953125 z m 0,0"
       style="fill:#000000;fill-opacity:1;fill-rule:nonzero;stroke:none"
       aria-label="0.5"
       transform="matrix(1.3333333,0,0,1.3333333,226.556,381.7776)"
       clip-path="url(#clipPath18)" />
    <path
       id="path19"
       d="M 2446.67,417.5 V 450"
       style="fill:none;stroke:#000000;stroke-width:5;stroke-linecap:butt;stroke-linejoin:round;stroke-miterlimit:10;stroke-dasharray:none;stroke-opacity:1"
       transform="matrix(0.13333333,0,0,-0.13333333,0,421.33333)"
       clip-path="url(#clipPath20)" />
    <path
       id="path21"
       d="M 2.5888594,-5.1447234 V -1.921875e-4 H 3.4677656 V -7.2306609 H 2.8935469 c -0.3164063,1.1132812 -0.515625,1.265625 -1.875,1.4414062 v 0.6445313 z m 0,0"
       style="fill:#000000;fill-opacity:1;fill-rule:nonzero;stroke:none"
       aria-label="1"
       transform="matrix(1.3333333,0,0,1.3333333,322.556,381.7776)"
       clip-path="url(#clipPath22)" />
    <path
       id="path23"
       d="M 3125.83,417.5 V 450"
       style="fill:none;stroke:#000000;stroke-width:5;stroke-linecap:butt;stroke-linejoin:round;stroke-miterlimit:10;stroke-dasharray:none;stroke-opacity:1"
       transform="matrix(0.13333333,0,0,-0.13333333,0,421.33333)"
       clip-path="url(#clipPath24)" />
    <path
       id="path25"
       d="M 2.5888594,-5.1447234 V -1.921875e-4 H 3.4677656 V -7.2306609 H 2.8935469 c -0.3164063,1.1132812 -0.515625,1.265625 -1.875,1.4414062 v 0.6445313 z m 4.8808593,4.1015625 H 6.42675 v 1.0429687125 h 1.0429687 z m 5.6279293,-6.046875 H 9.4413984 l -0.5273437,3.8554687 h 0.8085937 c 0.4101566,-0.4804687 0.7499996,-0.65625 1.3007816,-0.65625 0.949218,0 1.546875,0.65625 1.546875,1.6992188 0,1.0195312 -0.597657,1.64062496 -1.546875,1.64062496 -0.773438,0 -1.2421878,-0.38671875 -1.4531253,-1.18359376 H 8.6913984 c 0.1171875,0.5742188 0.2226563,0.85546876 0.4335938,1.11328126 0.3984375,0.5390625 1.1132808,0.85546875 1.9101558,0.85546875 1.429688,0 2.4375,-1.04296875 2.4375,-2.54296871 0,-1.3945313 -0.9375,-2.3554688 -2.296875,-2.3554688 -0.492187,0 -0.902343,0.1289063 -1.3007808,0.421875 l 0.2695308,-1.9804687 h 2.953125 z m 0,0"
       style="fill:#000000;fill-opacity:1;fill-rule:nonzero;stroke:none"
       aria-label="1.5"
       transform="matrix(1.3333333,0,0,1.3333333,407.556,381.7776)"
       clip-path="url(#clipPath26)" />
    <path
       id="path27"
       d="M 3804.17,417.5 V 450"
       style="fill:none;stroke:#000000;stroke-width:5;stroke-linecap:butt;stroke-linejoin:round;stroke-miterlimit:10;stroke-dasharray:none;stroke-opacity:1"
       transform="matrix(0.13333333,0,0,-0.13333333,0,421.33333)"
       clip-path="url(#clipPath28)" />
    <path
       id="path29"
       d="M 5.0615156,-0.86737969 H 1.3232344 C 1.4169844,-1.4650359 1.7333906,-1.8517547 2.6122969,-2.3790984 l 0.9960937,-0.5625 c 0.984375,-0.5507813 1.5,-1.2890625 1.5,-2.1796875 0,-0.5976563 -0.2460937,-1.1601563 -0.65625,-1.546875 -0.421875,-0.375 -0.9492187,-0.5625 -1.6171875,-0.5625 -0.9023437,0 -1.5703125,0.328125 -1.95703123,0.9375 -0.24609375,0.3867187 -0.36328125,0.8320312 -0.375,1.5703125 H 1.3818281 c 0.023437,-0.4921875 0.082031,-0.7851563 0.2109375,-1.0195313 0.2226563,-0.4453125 0.6796875,-0.7148437 1.21875,-0.7148437 0.796875,0 1.3945313,0.5742187 1.3945313,1.359375 0,0.5742187 -0.328125,1.078125 -0.9609375,1.4414062 l -0.9140625,0.5390625 c -1.47656253,0.84375 -1.91015628,1.5234375 -1.99218753,3.10546876 H 5.0615156 Z m 0,0"
       style="fill:#000000;fill-opacity:1;fill-rule:nonzero;stroke:none"
       aria-label="2"
       transform="matrix(1.3333333,0,0,1.3333333,503.556,381.7776)"
       clip-path="url(#clipPath30)" />
    <path
       id="path31"
       d="m 546.668,417.5 h 32.5"
       style="fill:none;stroke:#000000;stroke-width:5;stroke-linecap:butt;stroke-linejoin:round;stroke-miterlimit:10;stroke-dasharray:none;stroke-opacity:1"
       transform="matrix(0.13333333,0,0,-0.13333333,0,421.33333)"
       clip-path="url(#clipPath32)" />
    <path
       id="path33"
       d="M 5.4373078,-2.6726594 H 0.39824531 v 0.703125 H 5.4373078 Z m 3.1552735,-4.5585937 c -0.6679688,0 -1.265625,0.3046875 -1.6289063,0.796875 -0.46875,0.6328125 -0.6914062,1.59375 -0.6914062,2.9296875 0,2.4492187 0.796875,3.73828123 2.3203125,3.73828123 1.4999997,0 2.3085937,-1.28906253 2.3085937,-3.66796873 0,-1.40625 -0.210937,-2.34375 -0.679687,-3 -0.3750005,-0.5039063 -0.960938,-0.796875 -1.6289067,-0.796875 z m 0,0.7851562 c 0.9492187,0 1.4179687,0.9726563 1.4179687,2.9296875 0,2.0507813 -0.46875,3.01171878 -1.4414062,3.01171878 -0.9257813,0 -1.40625,-0.99609378 -1.40625,-2.98828128 0,-1.9804687 0.4804687,-2.953125 1.4296875,-2.953125 z m 4.7167967,5.4023438 h -1.042969 v 1.042968725 h 1.042969 z m 4.139649,-0.703125 v 1.746093725 h 0.878906 V -1.7468781 h 1.054687 v -0.796875 h -1.054687 v -4.6875 h -0.644531 l -3.222657,4.546875 v 0.9375 z m 0,-0.796875 h -2.214844 l 2.214844,-3.1875 z m 0,0"
       style="fill:#000000;fill-opacity:1;fill-rule:nonzero;stroke:none"
       aria-label="−0.4"
       transform="matrix(1.3333333,0,0,1.3333333,42.7776,370.55573)"
       clip-path="url(#clipPath34)" />
    <path
       id="path35"
       d="m 546.668,689.168 h 32.5"
       style="fill:none;stroke:#000000;stroke-width:5;stroke-linecap:butt;stroke-linejoin:round;stroke-miterlimit:10;stroke-dasharray:none;stroke-opacity:1"
       transform="matrix(0.13333333,0,0,-0.13333333,0,421.33333)"
       clip-path="url(#clipPath36)" />
    <path
       id="path37"
       d="M 5.4373078,-2.6728516 H 0.39824531 v 0.703125 H 5.4373078 Z m 3.1552735,-4.5585937 c -0.6679688,0 -1.265625,0.3046875 -1.6289063,0.796875 -0.46875,0.6328125 -0.6914062,1.59375 -0.6914062,2.9296875 0,2.4492187 0.796875,3.73828124 2.3203125,3.73828124 1.4999997,0 2.3085937,-1.28906254 2.3085937,-3.66796874 0,-1.40625 -0.210937,-2.34375 -0.679687,-3 -0.3750005,-0.5039063 -0.960938,-0.796875 -1.6289067,-0.796875 z m 0,0.7851562 c 0.9492187,0 1.4179687,0.9726563 1.4179687,2.9296875 0,2.0507813 -0.46875,3.01171879 -1.4414062,3.01171879 -0.9257813,0 -1.40625,-0.99609379 -1.40625,-2.98828129 0,-1.9804687 0.4804687,-2.953125 1.4296875,-2.953125 z m 4.7167967,5.4023438 h -1.042969 v 1.0429687375 h 1.042969 z m 5.932617,0.17578124 h -3.738281 c 0.09375,-0.59765624 0.410156,-0.98437504 1.289063,-1.51171874 l 0.996093,-0.5625 c 0.984375,-0.5507813 1.5,-1.2890625 1.5,-2.1796875 0,-0.5976563 -0.246093,-1.1601563 -0.65625,-1.546875 -0.421875,-0.375 -0.949218,-0.5625 -1.617187,-0.5625 -0.902344,0 -1.570313,0.328125 -1.957031,0.9375 -0.246094,0.3867187 -0.363282,0.8320312 -0.375,1.5703125 h 0.878906 c 0.02344,-0.4921875 0.08203,-0.7851563 0.210937,-1.0195313 0.222657,-0.4453125 0.679688,-0.7148437 1.21875,-0.7148437 0.796875,0 1.394532,0.5742187 1.394532,1.359375 0,0.5742187 -0.328125,1.078125 -0.960938,1.4414062 l -0.914062,0.5390625 c -1.476563,0.84375 -1.910157,1.5234375 -1.992188,3.10546879 h 4.722656 z m 0,0"
       style="fill:#000000;fill-opacity:1;fill-rule:nonzero;stroke:none"
       aria-label="−0.2"
       transform="matrix(1.3333333,0,0,1.3333333,42.7776,334.33333)"
       clip-path="url(#clipPath38)" />
    <path
       id="path39"
       d="m 546.668,960.832 h 32.5"
       style="fill:none;stroke:#000000;stroke-width:5;stroke-linecap:butt;stroke-linejoin:round;stroke-miterlimit:10;stroke-dasharray:none;stroke-opacity:1"
       transform="matrix(0.13333333,0,0,-0.13333333,0,421.33333)"
       clip-path="url(#clipPath40)" />
    <path
       id="path41"
       d="m 2.7548828,-7.2316375 c -0.6679687,0 -1.265625,0.3046875 -1.6289062,0.796875 -0.46875004,0.6328125 -0.69140629,1.59375 -0.69140629,2.9296875 0,2.4492188 0.79687499,3.73828125 2.32031249,3.73828125 1.5,0 2.3085938,-1.28906245 2.3085938,-3.66796875 0,-1.40625 -0.2109375,-2.34375 -0.6796875,-3 -0.375,-0.5039062 -0.9609375,-0.796875 -1.6289063,-0.796875 z m 0,0.7851563 c 0.9492188,0 1.4179688,0.9726562 1.4179688,2.9296875 0,2.0507812 -0.46875,3.0117187 -1.4414063,3.0117187 -0.9257812,0 -1.40625,-0.9960937 -1.40625,-2.9882812 0,-1.9804688 0.4804688,-2.953125 1.4296875,-2.953125 z m 0,0"
       style="fill:#000000;fill-opacity:1;fill-rule:nonzero;stroke:none"
       aria-label="0"
       transform="matrix(1.3333333,0,0,1.3333333,61.666667,298.11093)"
       clip-path="url(#clipPath42)" />
    <path
       id="path43"
       d="m 546.668,1232.5 h 32.5"
       style="fill:none;stroke:#000000;stroke-width:5;stroke-linecap:butt;stroke-linejoin:round;stroke-miterlimit:10;stroke-dasharray:none;stroke-opacity:1"
       transform="matrix(0.13333333,0,0,-0.13333333,0,421.33333)"
       clip-path="url(#clipPath44)" />
    <path
       id="path45"
       d="m 2.7531219,-7.2295 c -0.6679688,0 -1.265625,0.3046875 -1.6289063,0.796875 -0.46874997,0.6328125 -0.69140622,1.59375 -0.69140622,2.9296875 0,2.4492188 0.79687502,3.73828125 2.32031252,3.73828125 1.5,0 2.3085937,-1.28906245 2.3085937,-3.66796875 0,-1.40625 -0.2109375,-2.34375 -0.6796875,-3 C 4.0070281,-6.9365312 3.4210906,-7.2295 2.7531219,-7.2295 Z m 0,0.7851563 c 0.9492187,0 1.4179687,0.9726562 1.4179687,2.9296875 0,2.0507812 -0.46875,3.0117187 -1.4414062,3.0117187 -0.9257813,0 -1.40625,-0.9960937 -1.40625,-2.9882812 0,-1.9804688 0.4804687,-2.953125 1.4296875,-2.953125 z M 7.4699188,-1.042 H 6.42695 V 9.6875e-4 h 1.0429688 z m 5.9326172,0.17578125 H 9.6642547 C 9.7580047,-1.463875 10.074411,-1.8505937 10.953317,-2.3779375 l 0.996094,-0.5625 c 0.984375,-0.5507812 1.5,-1.2890625 1.5,-2.1796875 0,-0.5976562 -0.246094,-1.1601562 -0.65625,-1.546875 -0.421875,-0.375 -0.949219,-0.5625 -1.617188,-0.5625 -0.902343,0 -1.5703121,0.328125 -1.9570308,0.9375 -0.2460938,0.3867188 -0.3632813,0.8320313 -0.375,1.5703125 h 0.8789062 c 0.023437,-0.4921875 0.082031,-0.7851562 0.2109375,-1.0195312 0.2226561,-0.4453125 0.6796871,-0.7148438 1.2187501,-0.7148438 0.796875,0 1.394531,0.5742188 1.394531,1.359375 0,0.5742188 -0.328125,1.078125 -0.960937,1.4414063 l -0.914063,0.5390625 c -1.4765623,0.84375 -1.9101561,1.5234375 -1.9921873,3.1054687 h 4.7226563 z m 0,0"
       style="fill:#000000;fill-opacity:1;fill-rule:nonzero;stroke:none"
       aria-label="0.2"
       transform="matrix(1.3333333,0,0,1.3333333,50.555733,261.88933)"
       clip-path="url(#clipPath46)" />
    <path
       id="path47"
       d="m 546.668,1504.17 h 32.5"
       style="fill:none;stroke:#000000;stroke-width:5;stroke-linecap:butt;stroke-linejoin:round;stroke-miterlimit:10;stroke-dasharray:none;stroke-opacity:1"
       transform="matrix(0.13333333,0,0,-0.13333333,0,421.33333)"
       clip-path="url(#clipPath48)" />
    <path
       id="path49"
       d="m 2.7531219,-7.2294922 c -0.6679688,0 -1.265625,0.3046875 -1.6289063,0.796875 -0.46874997,0.6328125 -0.69140622,1.59375 -0.69140622,2.9296875 0,2.4492188 0.79687502,3.73828126 2.32031252,3.73828126 1.5,0 2.3085937,-1.28906246 2.3085937,-3.66796876 0,-1.40625 -0.2109375,-2.34375 -0.6796875,-3 -0.375,-0.5039062 -0.9609375,-0.796875 -1.6289062,-0.796875 z m 0,0.7851563 c 0.9492187,0 1.4179687,0.9726562 1.4179687,2.9296875 0,2.0507812 -0.46875,3.01171871 -1.4414062,3.01171871 -0.9257813,0 -1.40625,-0.99609371 -1.40625,-2.98828121 0,-1.9804688 0.4804687,-2.953125 1.4296875,-2.953125 z m 4.7167969,5.4023437 H 6.42695 V 9.765625e-4 h 1.0429688 z m 4.1396482,-0.703125 V 9.765625e-4 h 0.878906 V -1.7451172 h 1.054688 v -0.796875 h -1.054688 v -4.6875 h -0.644531 l -3.2226561,4.546875 v 0.9375 z m 0,-0.796875 H 9.3947234 l 2.2148436,-3.1875 z m 0,0"
       style="fill:#000000;fill-opacity:1;fill-rule:nonzero;stroke:none"
       aria-label="0.4"
       transform="matrix(1.3333333,0,0,1.3333333,50.555733,225.66667)"
       clip-path="url(#clipPath50)" />
    <path
       id="path51"
       d="m 546.668,1775 h 32.5"
       style="fill:none;stroke:#000000;stroke-width:5;stroke-linecap:butt;stroke-linejoin:round;stroke-miterlimit:10;stroke-dasharray:none;stroke-opacity:1"
       transform="matrix(0.13333333,0,0,-0.13333333,0,421.33333)"
       clip-path="url(#clipPath52)" />
    <path
       id="path53"
       d="m 2.7531219,-7.2314531 c -0.6679688,0 -1.265625,0.3046875 -1.6289063,0.796875 -0.46874997,0.6328125 -0.69140622,1.59375 -0.69140622,2.9296875 0,2.4492187 0.79687502,3.73828123 2.32031252,3.73828123 1.5,0 2.3085937,-1.28906253 2.3085937,-3.66796873 0,-1.40625 -0.2109375,-2.34375 -0.6796875,-3 -0.375,-0.5039063 -0.9609375,-0.796875 -1.6289062,-0.796875 z m 0,0.7851562 c 0.9492187,0 1.4179687,0.9726563 1.4179687,2.9296875 0,2.0507813 -0.46875,3.01171878 -1.4414062,3.01171878 -0.9257813,0 -1.40625,-0.99609378 -1.40625,-2.98828128 0,-1.9804687 0.4804687,-2.953125 1.4296875,-2.953125 z m 4.7167969,5.4023438 H 6.42695 v 1.042968725 h 1.0429688 z m 5.8505862,-4.3007813 c -0.175782,-1.1835937 -0.9375,-1.8867187 -2.015625,-1.8867187 -0.773438,0 -1.4765628,0.3867187 -1.8984378,1.03125 -0.4453125,0.7148437 -0.6328125,1.59375 -0.6328125,2.90625 0,1.21875 0.1640625,1.9804687 0.5976562,2.62499998 0.375,0.5859375 0.9960941,0.90234375 1.7812501,0.90234375 1.347656,0 2.320312,-1.01953125 2.320312,-2.42578123 0,-1.3242188 -0.902343,-2.2617188 -2.179687,-2.2617188 -0.691406,0 -1.242188,0.2578125 -1.6289063,0.7851563 0.011719,-1.7929688 0.5742183,-2.7773438 1.5820313,-2.7773438 0.621094,0 1.054687,0.3984375 1.195312,1.1015625 z m -2.132813,1.6640625 c 0.855469,0 1.382813,0.5976563 1.382813,1.5585938 0,0.9140625 -0.597657,1.57031248 -1.40625,1.57031248 -0.820313,0 -1.4414066,-0.69140628 -1.4414066,-1.60546878 0,-0.9023437 0.5976566,-1.5234375 1.4648436,-1.5234375 z m 0,0"
       style="fill:#000000;fill-opacity:1;fill-rule:nonzero;stroke:none"
       aria-label="0.6"
       transform="matrix(1.3333333,0,0,1.3333333,50.555733,189.556)"
       clip-path="url(#clipPath54)" />
    <path
       id="path55"
       d="m 546.668,2046.67 h 32.5"
       style="fill:none;stroke:#000000;stroke-width:5;stroke-linecap:butt;stroke-linejoin:round;stroke-miterlimit:10;stroke-dasharray:none;stroke-opacity:1"
       transform="matrix(0.13333333,0,0,-0.13333333,0,421.33333)"
       clip-path="url(#clipPath56)" />
    <path
       id="path57"
       d="m 2.7531219,-7.2314453 c -0.6679688,0 -1.265625,0.3046875 -1.6289063,0.796875 -0.46874997,0.6328125 -0.69140622,1.59375 -0.69140622,2.9296875 0,2.4492187 0.79687502,3.73828124 2.32031252,3.73828124 1.5,0 2.3085937,-1.28906254 2.3085937,-3.66796874 0,-1.40625 -0.2109375,-2.34375 -0.6796875,-3 -0.375,-0.5039063 -0.9609375,-0.796875 -1.6289062,-0.796875 z m 0,0.7851562 c 0.9492187,0 1.4179687,0.9726563 1.4179687,2.9296875 0,2.0507813 -0.46875,3.01171879 -1.4414062,3.01171879 -0.9257813,0 -1.40625,-0.99609379 -1.40625,-2.98828129 0,-1.9804687 0.4804687,-2.953125 1.4296875,-2.953125 z m 4.7167969,5.4023438 H 6.42695 v 1.0429687375 h 1.0429688 z m 4.7841792,-2.765625 c 0.738282,-0.4453125 0.960938,-0.8085938 0.960938,-1.4882813 0,-1.1367187 -0.867188,-1.9335937 -2.121094,-1.9335937 -1.2539061,0 -2.1328123,0.796875 -2.1328123,1.921875 0,0.6914062 0.234375,1.0429687 0.9609375,1.5 -0.8085938,0.4101562 -1.2070313,0.9960937 -1.2070313,1.8046875 0,1.31249999 0.9609375,2.23828124 2.3789061,2.23828124 1.394531,0 2.378906,-0.92578125 2.378906,-2.23828124 0,-0.8085938 -0.410156,-1.3945313 -1.21875,-1.8046875 z m -1.160156,-2.6367188 c 0.75,0 1.21875,0.4453125 1.21875,1.171875 0,0.6796875 -0.480469,1.125 -1.21875,1.125 -0.75,0 -1.2304686,-0.4453125 -1.2304686,-1.1484375 0,-0.703125 0.4804686,-1.1484375 1.2304686,-1.1484375 z m 0,3.0351563 c 0.878906,0 1.476563,0.5859375 1.476563,1.4179687 0,0.8671875 -0.597657,1.44140629 -1.5,1.44140629 -0.855469,0 -1.4648441,-0.58593749 -1.4648441,-1.42968749 0,-0.8554688 0.5976561,-1.4296875 1.4882811,-1.4296875 z m 0,0"
       style="fill:#000000;fill-opacity:1;fill-rule:nonzero;stroke:none"
       aria-label="0.8"
       transform="matrix(1.3333333,0,0,1.3333333,50.555733,153.33333)"
       clip-path="url(#clipPath58)" />
    <path
       id="path59"
       d="m 546.668,2318.33 h 32.5"
       style="fill:none;stroke:#000000;stroke-width:5;stroke-linecap:butt;stroke-linejoin:round;stroke-miterlimit:10;stroke-dasharray:none;stroke-opacity:1"
       transform="matrix(0.13333333,0,0,-0.13333333,0,421.33333)"
       clip-path="url(#clipPath60)" />
    <path
       id="path61"
       d="M 2.5908203,-5.1455 V -9.6875e-4 H 3.4697266 V -7.2314375 H 2.8955078 c -0.3164062,1.1132813 -0.515625,1.265625 -1.875,1.4414063 V -5.1455 Z m 0,0"
       style="fill:#000000;fill-opacity:1;fill-rule:nonzero;stroke:none"
       aria-label="1"
       transform="matrix(1.3333333,0,0,1.3333333,61.666667,117.11067)"
       clip-path="url(#clipPath62)" />
    <path
       id="path63"
       d="m 546.668,2590 h 32.5"
       style="fill:none;stroke:#000000;stroke-width:5;stroke-linecap:butt;stroke-linejoin:round;stroke-miterlimit:10;stroke-dasharray:none;stroke-opacity:1"
       transform="matrix(0.13333333,0,0,-0.13333333,0,421.33333)"
       clip-path="url(#clipPath64)" />
    <path
       id="path65"
       d="M 2.5890594,-5.1435625 V 9.6875e-4 H 3.4679656 V -7.2295 H 2.8937469 c -0.3164063,1.1132812 -0.515625,1.265625 -1.875,1.4414062 v 0.6445313 z M 7.4699188,-1.042 H 6.42695 V 9.6875e-4 h 1.0429688 z m 5.9326172,0.17578125 H 9.6642547 C 9.7580047,-1.463875 10.074411,-1.8505938 10.953317,-2.3779375 l 0.996094,-0.5625 c 0.984375,-0.5507813 1.5,-1.2890625 1.5,-2.1796875 0,-0.5976563 -0.246094,-1.1601563 -0.65625,-1.546875 -0.421875,-0.375 -0.949219,-0.5625 -1.617188,-0.5625 -0.902343,0 -1.5703121,0.328125 -1.9570308,0.9375 -0.2460938,0.3867187 -0.3632813,0.8320312 -0.375,1.5703125 h 0.8789062 c 0.023437,-0.4921875 0.082031,-0.7851563 0.2109375,-1.0195313 0.2226561,-0.4453125 0.6796871,-0.7148437 1.2187501,-0.7148437 0.796875,0 1.394531,0.5742187 1.394531,1.359375 0,0.5742187 -0.328125,1.078125 -0.960937,1.4414062 l -0.914063,0.5390625 c -1.4765623,0.84375 -1.9101561,1.5234375 -1.9921873,3.1054688 h 4.7226563 z m 0,0"
       style="fill:#000000;fill-opacity:1;fill-rule:nonzero;stroke:none"
       aria-label="1.2"
       transform="matrix(1.3333333,0,0,1.3333333,50.555733,80.889333)"
       clip-path="url(#clipPath66)" />
    <path
       id="path67"
       d="m 546.668,2861.67 h 32.5"
       style="fill:none;stroke:#000000;stroke-width:5;stroke-linecap:butt;stroke-linejoin:round;stroke-miterlimit:10;stroke-dasharray:none;stroke-opacity:1"
       transform="matrix(0.13333333,0,0,-0.13333333,0,421.33333)"
       clip-path="url(#clipPath68)" />
    <path
       id="path69"
       d="M 2.5890594,-5.1435547 V 9.765625e-4 H 3.4679656 V -7.2294922 H 2.8937469 c -0.3164063,1.1132813 -0.515625,1.265625 -1.875,1.4414063 v 0.6445312 z m 4.8808594,4.1015625 H 6.42695 V 9.765625e-4 h 1.0429688 z m 4.1396482,-0.703125 V 9.765625e-4 h 0.878906 V -1.7451172 h 1.054688 v -0.796875 h -1.054688 v -4.6875 h -0.644531 l -3.2226561,4.546875 v 0.9375 z m 0,-0.796875 H 9.3947234 l 2.2148436,-3.1875 z m 0,0"
       style="fill:#000000;fill-opacity:1;fill-rule:nonzero;stroke:none"
       aria-label="1.4"
       transform="matrix(1.3333333,0,0,1.3333333,50.555733,44.666667)"
       clip-path="url(#clipPath70)" />
    <path
       id="path71"
       d="m 1089.17,1073.33 h 2172.5"
       style="fill:none;stroke:#0000ff;stroke-width:5;stroke-linecap:butt;stroke-linejoin:round;stroke-miterlimit:10;stroke-dasharray:none;stroke-opacity:1"
       transform="matrix(0.13333333,0,0,-0.13333333,0,421.33333)"
       clip-path="url(#clipPath72)" />
    <path
       id="path73"
       d="M 1089.17,960.832 V 1073.33"
       style="fill:none;stroke:#0000ff;stroke-width:5;stroke-linecap:butt;stroke-linejoin:round;stroke-miterlimit:10;stroke-dasharray:none;stroke-opacity:1"
       transform="matrix(0.13333333,0,0,-0.13333333,0,421.33333)"
       clip-path="url(#clipPath74)" />
    <path
       id="path75"
       d="M 3261.67,960.832 V 1073.33"
       style="fill:none;stroke:#0000ff;stroke-width:5;stroke-linecap:butt;stroke-linejoin:round;stroke-miterlimit:10;stroke-dasharray:none;stroke-opacity:1"
       transform="matrix(0.13333333,0,0,-0.13333333,0,421.33333)"
       clip-path="url(#clipPath76)" />
    <path
       id="path77"
       d="M 1089.17,960.832 V 1073.33"
       style="fill:none;stroke:#0000ff;stroke-width:5;stroke-linecap:butt;stroke-linejoin:round;stroke-miterlimit:10;stroke-dasharray:none;stroke-opacity:1"
       transform="matrix(0.13333333,0,0,-0.13333333,0,421.33333)"
       clip-path="url(#clipPath78)" />
    <path
       id="path79"
       d="M 3261.67,960.832 V 1073.33"
       style="fill:none;stroke:#0000ff;stroke-width:5;stroke-linecap:butt;stroke-linejoin:round;stroke-miterlimit:10;stroke-dasharray:none;stroke-opacity:1"
       transform="matrix(0.13333333,0,0,-0.13333333,0,421.33333)"
       clip-path="url(#clipPath80)" />
    <path
       id="path81"
       d="m 1089.17,960.832 h 2172.5"
       style="fill:none;stroke:#000000;stroke-width:20;stroke-linecap:butt;stroke-linejoin:round;stroke-miterlimit:10;stroke-dasharray:none;stroke-opacity:1"
       transform="matrix(0.13333333,0,0,-0.13333333,0,421.33333)"
       clip-path="url(#clipPath82)" />
    <path
       id="path83"
       d="M 3479.17,960.832 V 2590"
       style="fill:none;stroke:#0000ff;stroke-width:5;stroke-linecap:butt;stroke-linejoin:round;stroke-miterlimit:10;stroke-dasharray:none;stroke-opacity:1"
       transform="matrix(0.13333333,0,0,-0.13333333,0,421.33333)"
       clip-path="url(#clipPath84)" />
    <path
       id="path85"
       d="m 3261.67,960.832 h 217.5"
       style="fill:none;stroke:#0000ff;stroke-width:5;stroke-linecap:butt;stroke-linejoin:round;stroke-miterlimit:10;stroke-dasharray:none;stroke-opacity:1"
       transform="matrix(0.13333333,0,0,-0.13333333,0,421.33333)"
       clip-path="url(#clipPath86)" />
    <path
       id="path87"
       d="m 3261.67,2590 h 217.5"
       style="fill:none;stroke:#0000ff;stroke-width:5;stroke-linecap:butt;stroke-linejoin:round;stroke-miterlimit:10;stroke-dasharray:none;stroke-opacity:1"
       transform="matrix(0.13333333,0,0,-0.13333333,0,421.33333)"
       clip-path="url(#clipPath88)" />
    <path
       id="path89"
       d="m 3261.67,960.832 h 217.5"
       style="fill:none;stroke:#0000ff;stroke-width:5;stroke-linecap:butt;stroke-linejoin:round;stroke-miterlimit:10;stroke-dasharray:none;stroke-opacity:1"
       transform="matrix(0.13333333,0,0,-0.13333333,0,421.33333)"
       clip-path="url(#clipPath90)" />
    <path
       id="path91"
       d="m 3261.67,2590 h 217.5"
       style="fill:none;stroke:#0000ff;stroke-width:5;stroke-linecap:butt;stroke-linejoin:round;stroke-miterlimit:10;stroke-dasharray:none;stroke-opacity:1"
       transform="matrix(0.13333333,0,0,-0.13333333,0,421.33333)"
       clip-path="url(#clipPath92)" />
    <path
       id="path93"
       d="M 3261.67,960.832 V 2590"
       style="fill:none;stroke:#000000;stroke-width:20;stroke-linecap:butt;stroke-linejoin:round;stroke-miterlimit:10;stroke-dasharray:none;stroke-opacity:1"
       transform="matrix(0.13333333,0,0,-0.13333333,0,421.33333)"
       clip-path="url(#clipPath94)" />
    <path
       id="path95"
       d="M 1005,2477.5 3177.5,848.332"
       style="fill:none;stroke:#0000ff;stroke-width:5;stroke-linecap:butt;stroke-linejoin:round;stroke-miterlimit:10;stroke-dasharray:none;stroke-opacity:1"
       transform="matrix(0.13333333,0,0,-0.13333333,0,421.33333)"
       clip-path="url(#clipPath96)" />
    <path
       id="path97"
       d="M 1089.17,2590 1005,2477.5"
       style="fill:none;stroke:#0000ff;stroke-width:5;stroke-linecap:butt;stroke-linejoin:round;stroke-miterlimit:10;stroke-dasharray:none;stroke-opacity:1"
       transform="matrix(0.13333333,0,0,-0.13333333,0,421.33333)"
       clip-path="url(#clipPath98)" />
    <path
       id="path99"
       d="m 3261.67,960.832 -84.17,-112.5"
       style="fill:none;stroke:#0000ff;stroke-width:5;stroke-linecap:butt;stroke-linejoin:round;stroke-miterlimit:10;stroke-dasharray:none;stroke-opacity:1"
       transform="matrix(0.13333333,0,0,-0.13333333,0,421.33333)"
       clip-path="url(#clipPath100)" />
    <path
       id="path101"
       d="M 1089.17,2590 1005,2477.5"
       style="fill:none;stroke:#0000ff;stroke-width:5;stroke-linecap:butt;stroke-linejoin:round;stroke-miterlimit:10;stroke-dasharray:none;stroke-opacity:1"
       transform="matrix(0.13333333,0,0,-0.13333333,0,421.33333)"
       clip-path="url(#clipPath102)" />
    <path
       id="path103"
       d="m 3261.67,960.832 -84.17,-112.5"
       style="fill:none;stroke:#0000ff;stroke-width:5;stroke-linecap:butt;stroke-linejoin:round;stroke-miterlimit:10;stroke-dasharray:none;stroke-opacity:1"
       transform="matrix(0.13333333,0,0,-0.13333333,0,421.33333)"
       clip-path="url(#clipPath104)" />
    <path
       id="path105"
       d="M 1089.17,2590 3261.67,960.832"
       style="fill:none;stroke:#000000;stroke-width:20;stroke-linecap:butt;stroke-linejoin:round;stroke-miterlimit:10;stroke-dasharray:none;stroke-opacity:1"
       transform="matrix(0.13333333,0,0,-0.13333333,0,421.33333)"
       clip-path="url(#clipPath106)" />
    <path
       id="path107"
       d="M 1089.17,553.332 H 1277.5"
       style="fill:none;stroke:#0000ff;stroke-width:5;stroke-linecap:butt;stroke-linejoin:round;stroke-miterlimit:10;stroke-dasharray:none;stroke-opacity:1"
       transform="matrix(0.13333333,0,0,-0.13333333,0,421.33333)"
       clip-path="url(#clipPath108)" />
    <path
       id="path109"
       d="M 1089.17,544.168 V 562.5"
       style="fill:none;stroke:#0000ff;stroke-width:5;stroke-linecap:butt;stroke-linejoin:round;stroke-miterlimit:10;stroke-dasharray:none;stroke-opacity:1"
       transform="matrix(0.13333333,0,0,-0.13333333,0,421.33333)"
       clip-path="url(#clipPath110)" />
    <path
       id="path111"
       d="M 1277.5,544.168 V 562.5"
       style="fill:none;stroke:#0000ff;stroke-width:5;stroke-linecap:butt;stroke-linejoin:round;stroke-miterlimit:10;stroke-dasharray:none;stroke-opacity:1"
       transform="matrix(0.13333333,0,0,-0.13333333,0,421.33333)"
       clip-path="url(#clipPath112)" />
    <path
       id="path113"
       d="m 4.7587812,-7.0896516 h -3.65625 l -0.5273437,3.8554688 h 0.8085937 c 0.4101563,-0.4804688 0.75,-0.65625 1.3007813,-0.65625 0.9492187,0 1.546875,0.65625 1.546875,1.6992187 0,1.0195313 -0.5976563,1.64062504 -1.546875,1.64062504 -0.7734375,0 -1.2421875,-0.38671875 -1.453125,-1.18359374 H 0.35253125 c 0.1171875,0.5742187 0.22265625,0.85546874 0.43359375,1.11328124 0.3984375,0.5390625 1.1132812,0.85546875 1.9101562,0.85546875 1.4296875,0 2.4375,-1.04296875 2.4375,-2.54296879 0,-1.3945312 -0.9375,-2.3554687 -2.296875,-2.3554687 -0.4921875,0 -0.9023437,0.1289062 -1.3007812,0.421875 l 0.2695312,-1.9804688 h 2.953125 z m 3.553711,-0.140625 c -0.6679688,0 -1.265625,0.3046875 -1.6289063,0.796875 -0.46875,0.6328125 -0.6914062,1.59375 -0.6914062,2.9296875 0,2.4492188 0.796875,3.73828129 2.3203125,3.73828129 1.5,0 2.3085938,-1.28906249 2.3085938,-3.66796879 0,-1.40625 -0.210938,-2.34375 -0.6796876,-3 -0.375,-0.5039062 -0.9609375,-0.796875 -1.6289062,-0.796875 z m 0,0.7851563 c 0.9492187,0 1.4179687,0.9726562 1.4179687,2.9296875 0,2.0507812 -0.46875,3.01171874 -1.4414062,3.01171874 -0.9257813,0 -1.40625,-0.99609374 -1.40625,-2.98828124 0,-1.9804688 0.4804687,-2.953125 1.4296875,-2.953125 z m 5.5605468,-0.7851563 c -0.667969,0 -1.265625,0.3046875 -1.628906,0.796875 -0.46875,0.6328125 -0.691406,1.59375 -0.691406,2.9296875 0,2.4492188 0.796875,3.73828129 2.320312,3.73828129 1.5,0 2.308594,-1.28906249 2.308594,-3.66796879 0,-1.40625 -0.210938,-2.34375 -0.679688,-3 -0.375,-0.5039062 -0.960937,-0.796875 -1.628906,-0.796875 z m 0,0.7851563 c 0.949219,0 1.417969,0.9726562 1.417969,2.9296875 0,2.0507812 -0.46875,3.01171874 -1.441406,3.01171874 -0.925782,0 -1.40625,-0.99609374 -1.40625,-2.98828124 0,-1.9804688 0.480468,-2.953125 1.429687,-2.953125 z m 5.560547,-0.7851563 c -0.667969,0 -1.265625,0.3046875 -1.628906,0.796875 -0.46875,0.6328125 -0.691407,1.59375 -0.691407,2.9296875 0,2.4492188 0.796875,3.73828129 2.320313,3.73828129 1.5,0 2.308594,-1.28906249 2.308594,-3.66796879 0,-1.40625 -0.210938,-2.34375 -0.679688,-3 -0.375,-0.5039062 -0.960937,-0.796875 -1.628906,-0.796875 z m 0,0.7851563 c 0.949219,0 1.417969,0.9726562 1.417969,2.9296875 0,2.0507812 -0.46875,3.01171874 -1.441407,3.01171874 -0.925781,0 -1.40625,-0.99609374 -1.40625,-2.98828124 0,-1.9804688 0.480469,-2.953125 1.429688,-2.953125 z m 5.560547,-0.7851563 c -0.667969,0 -1.265625,0.3046875 -1.628906,0.796875 -0.46875,0.6328125 -0.691407,1.59375 -0.691407,2.9296875 0,2.4492188 0.796875,3.73828129 2.320313,3.73828129 1.5,0 2.308594,-1.28906249 2.308594,-3.66796879 0,-1.40625 -0.210938,-2.34375 -0.679688,-3 -0.375,-0.5039062 -0.960937,-0.796875 -1.628906,-0.796875 z m 0,0.7851563 c 0.949219,0 1.417969,0.9726562 1.417969,2.9296875 0,2.0507812 -0.46875,3.01171874 -1.441407,3.01171874 -0.925781,0 -1.40625,-0.99609374 -1.40625,-2.98828124 0,-1.9804688 0.480469,-2.953125 1.429688,-2.953125 z M 65.708,-249.53887 h -0.878906 v 5.96484 l -3.808594,-5.96484 h -1.007813 v 7.28906 h 0.878907 v -5.90625 l 3.761718,5.90625 H 65.708 Z m 3.480469,1.89844 c -1.476563,0 -2.355469,1.05468 -2.355469,2.8125 0,1.76953 0.878906,2.8125 2.367187,2.8125 1.476563,0 2.367188,-1.05469 2.367188,-2.77735 0,-1.8164 -0.855469,-2.84765 -2.378906,-2.84765 z m 0.01172,0.77343 c 0.9375,0 1.5,0.77344 1.5,2.0625 0,1.24219 -0.585937,2.01563 -1.5,2.01563 -0.925781,0 -1.5,-0.77344 -1.5,-2.03906 0,-1.26563 0.574219,-2.03907 1.5,-2.03907 z m 3.521485,-0.62109 v 5.23828 h 0.84375 v -2.71875 c 0,-1.2539 0.527344,-1.8164 1.675781,-1.79297 v -0.84375 c -0.140625,-0.0234 -0.222656,-0.0352 -0.316406,-0.0352 -0.550781,0 -0.960938,0.32812 -1.429688,1.10156 v -0.94922 z m 3.342773,0 v 5.23828 h 0.832032 v -3.29297 c 0,-0.75 0.550781,-1.35937 1.230468,-1.35937 0.621094,0 0.972657,0.375 0.972657,1.04297 v 3.60937 h 0.84375 v -3.29297 c 0,-0.75 0.550781,-1.35937 1.230468,-1.35937 0.609375,0 0.960938,0.38672 0.960938,1.04297 v 3.60937 h 0.84375 v -3.92578 c 0,-0.9375 -0.539063,-1.46484 -1.523438,-1.46484 -0.691406,0 -1.113281,0.21093 -1.605468,0.79687 -0.304688,-0.55078 -0.726563,-0.79687 -1.40625,-0.79687 -0.703125,0 -1.171875,0.25781 -1.617188,0.89062 v -0.73828 z m 12.969727,4.74609 c -0.08203,0.0234 -0.128906,0.0234 -0.175781,0.0234 -0.292969,0 -0.445313,-0.15234 -0.445313,-0.41015 v -3.08204 c 0,-0.92578 -0.679687,-1.42968 -1.96875,-1.42968 -0.773437,0 -1.382812,0.22265 -1.746094,0.60937 -0.234375,0.26953 -0.339843,0.57422 -0.363281,1.08985 h 0.84375 c 0.07031,-0.63282 0.445313,-0.92579 1.230469,-0.92579 0.761719,0 1.171875,0.28125 1.171875,0.77344 v 0.22266 c -0.01172,0.36328 -0.1875,0.49219 -0.867188,0.58594 -1.183593,0.14062 -1.359375,0.1875 -1.6875,0.3164 -0.609375,0.25781 -0.914062,0.71485 -0.914062,1.39453 0,0.94922 0.65625,1.5586 1.722656,1.5586 0.65625,0 1.183594,-0.23438 1.769531,-0.77344 0.05859,0.53906 0.328125,0.77344 0.867188,0.77344 0.175781,0 0.28125,-0.0234 0.5625,-0.0937 z m -1.453125,-1.16015 c 0,0.28125 -0.08203,0.45703 -0.328125,0.67969 -0.339844,0.3164 -0.75,0.46875 -1.242188,0.46875 -0.65625,0 -1.03125,-0.30469 -1.03125,-0.83204 0,-0.55078 0.363282,-0.83203 1.265625,-0.96093 0.878907,-0.11719 1.054688,-0.16407 1.335938,-0.29297 z m 3.193359,-5.63672 h -0.84375 v 7.28906 h 0.84375 z m 6.052735,2.05078 h -0.867188 v -0.82031 c 0,-0.35156 0.1875,-0.52735 0.574219,-0.52735 0.07031,0 0.105469,0 0.292969,0.0117 v -0.6914 c -0.1875,-0.0469 -0.304688,-0.0469 -0.46875,-0.0469 -0.773438,0 -1.230469,0.4336 -1.230469,1.1836 v 0.89062 h -0.703125 v 0.67969 h 0.703125 v 4.55859 h 0.832031 v -4.55859 h 0.867188 z m 2.920898,-0.15234 c -1.476562,0 -2.355469,1.05468 -2.355469,2.8125 0,1.76953 0.878907,2.8125 2.367188,2.8125 1.47656,0 2.36719,-1.05469 2.36719,-2.77735 0,-1.8164 -0.85547,-2.84765 -2.378909,-2.84765 z m 0.01172,0.77343 c 0.937499,0 1.499999,0.77344 1.499999,2.0625 0,1.24219 -0.58594,2.01563 -1.499999,2.01563 -0.925781,0 -1.5,-0.77344 -1.5,-2.03906 0,-1.26563 0.574219,-2.03907 1.5,-2.03907 z m 3.521479,-0.62109 v 5.23828 h 0.84375 v -2.71875 c 0,-1.2539 0.52735,-1.8164 1.67578,-1.79297 v -0.84375 c -0.14062,-0.0234 -0.22265,-0.0352 -0.3164,-0.0352 -0.55078,0 -0.96094,0.32812 -1.42969,1.10156 v -0.94922 z m 7.35059,1.75781 c -0.0469,-0.5039 -0.15235,-0.83203 -0.35156,-1.125 -0.36329,-0.49218 -0.9961,-0.78515 -1.72266,-0.78515 -1.41797,0 -2.33203,1.125 -2.33203,2.85937 0,1.6875 0.90234,2.76563 2.32031,2.76563 1.25391,0 2.03906,-0.75 2.14453,-2.03907 h -0.84375 c -0.14062,0.84375 -0.5625,1.26563 -1.27734,1.26563 -0.91406,0 -1.46485,-0.75 -1.46485,-1.99219 0,-1.3125 0.53907,-2.08594 1.44141,-2.08594 0.70313,0 1.14844,0.41016 1.24219,1.13672 z m 5.41992,1.13672 c 0,-0.79687 -0.0703,-1.27734 -0.21094,-1.66406 -0.33984,-0.85547 -1.14844,-1.38281 -2.12109,-1.38281 -1.46485,0 -2.40235,1.11328 -2.40235,2.83593 0,1.73438 0.90235,2.78907 2.37891,2.78907 1.19531,0 2.02734,-0.67969 2.23828,-1.82813 h -0.83203 c -0.23437,0.69141 -0.70312,1.05469 -1.37109,1.05469 -0.53907,0 -0.98438,-0.24609 -1.26563,-0.67969 -0.19922,-0.30469 -0.26953,-0.59765 -0.28125,-1.125 z m -3.84375,-0.67969 c 0.0703,-0.96093 0.65625,-1.59375 1.5,-1.59375 0.84375,0 1.44141,0.65625 1.44141,1.59375 z m 0,0"
       style="fill:#000000;fill-opacity:1;fill-rule:nonzero;stroke:none"
       aria-label="50000 &#10;Normal force"
       transform="matrix(1.3333333,0,0,1.3333333,172.88933,352.2224)"
       clip-path="url(#clipPath114)" />
  </g>
</svg>
