<?xml version="1.0" encoding="UTF-8" standalone="no"?>
<!-- Created with Inkscape (http://www.inkscape.org/) -->

<svg
   version="1.1"
   id="svg1"
   width="432.26666"
   height="247.02667"
   viewBox="0 0 432.26666 247.02667"
   sodipodi:docname="exs4f1_x.eps"
   xmlns:inkscape="http://www.inkscape.org/namespaces/inkscape"
   xmlns:sodipodi="http://sodipodi.sourceforge.net/DTD/sodipodi-0.dtd"
   xmlns="http://www.w3.org/2000/svg"
   xmlns:svg="http://www.w3.org/2000/svg">
  <defs
     id="defs1" />
  <sodipodi:namedview
     id="namedview1"
     pagecolor="#ffffff"
     bordercolor="#000000"
     borderopacity="0.25"
     inkscape:showpageshadow="2"
     inkscape:pageopacity="0.0"
     inkscape:pagecheckerboard="0"
     inkscape:deskcolor="#d1d1d1">
    <inkscape:page
       x="0"
       y="0"
       inkscape:label="1"
       id="page1"
       width="432.26666"
       height="247.02667"
       margin="0"
       bleed="0" />
  </sodipodi:namedview>
  <g
     id="g1"
     inkscape:groupmode="layer"
     inkscape:label="1">
    <path
       id="path1"
       d="m 2399.25,1624.25 2,-1118"
       style="fill:none;stroke:#231f20;stroke-width:15;stroke-linecap:butt;stroke-linejoin:miter;stroke-miterlimit:3.8637;stroke-dasharray:none;stroke-opacity:1"
       transform="matrix(0.13333333,0,0,-0.13333333,0,247.02667)" />
    <path
       id="path2"
       d="m 149.25,1630.25 h 2256"
       style="fill:none;stroke:#231f20;stroke-width:15;stroke-linecap:butt;stroke-linejoin:miter;stroke-miterlimit:3.8637;stroke-dasharray:none;stroke-opacity:1"
       transform="matrix(0.13333333,0,0,-0.13333333,0,247.02667)" />
    <path
       id="path3"
       d="m 151.25,506.25 h 2256"
       style="fill:none;stroke:#231f20;stroke-width:15;stroke-linecap:butt;stroke-linejoin:miter;stroke-miterlimit:3.8637;stroke-dasharray:none;stroke-opacity:1"
       transform="matrix(0.13333333,0,0,-0.13333333,0,247.02667)" />
    <path
       id="path4"
       d="m 1269.25,1624.25 1,-1111"
       style="fill:none;stroke:#231f20;stroke-width:15;stroke-linecap:butt;stroke-linejoin:miter;stroke-miterlimit:3.8637;stroke-dasharray:none;stroke-opacity:1"
       transform="matrix(0.13333333,0,0,-0.13333333,0,247.02667)" />
    <path
       id="path5"
       d="m 1273.25,506.25 -1125,1123"
       style="fill:none;stroke:#231f20;stroke-width:15;stroke-linecap:butt;stroke-linejoin:miter;stroke-miterlimit:3.8637;stroke-dasharray:none;stroke-opacity:1"
       transform="matrix(0.13333333,0,0,-0.13333333,0,247.02667)" />
    <path
       id="path6"
       d="m 1273.25,1628.25 -1123,-1120"
       style="fill:none;stroke:#231f20;stroke-width:15;stroke-linecap:butt;stroke-linejoin:miter;stroke-miterlimit:3.8637;stroke-dasharray:none;stroke-opacity:1"
       transform="matrix(0.13333333,0,0,-0.13333333,0,247.02667)" />
    <path
       id="path7"
       d="m 2403.25,508.25 -1131,1120"
       style="fill:none;stroke:#231f20;stroke-width:15;stroke-linecap:butt;stroke-linejoin:miter;stroke-miterlimit:3.8637;stroke-dasharray:none;stroke-opacity:1"
       transform="matrix(0.13333333,0,0,-0.13333333,0,247.02667)" />
    <path
       id="path8"
       d="m 2400.25,1627.25 -1129,-1119"
       style="fill:none;stroke:#231f20;stroke-width:15;stroke-linecap:butt;stroke-linejoin:miter;stroke-miterlimit:3.8637;stroke-dasharray:none;stroke-opacity:1"
       transform="matrix(0.13333333,0,0,-0.13333333,0,247.02667)" />
    <path
       id="path9"
       d="m 134.25,508.25 c 0,13.59 11.191,24.785 25,25 13.805,-0.215 25,-11.41 25,-25 0,-14.023 -11.195,-25.215 -25,-25 -13.809,-0.215 -25,10.977 -25,25"
       style="fill:#ffffff;fill-opacity:1;fill-rule:nonzero;stroke:none"
       transform="matrix(0.13333333,0,0,-0.13333333,0,247.02667)" />
    <path
       id="path10"
       d="m 134.25,508.25 c 0,13.59 11.191,24.785 25,25 13.805,-0.215 25,-11.41 25,-25 0,-14.023 -11.195,-25.215 -25,-25 -13.809,-0.215 -25,10.977 -25,25 z"
       style="fill:none;stroke:#231f20;stroke-width:5;stroke-linecap:butt;stroke-linejoin:miter;stroke-miterlimit:3.8637;stroke-dasharray:none;stroke-opacity:1"
       transform="matrix(0.13333333,0,0,-0.13333333,0,247.02667)" />
    <path
       id="path11"
       d="m 124.25,1630.25 c -0.426,13.55 10.766,24.75 25,25 13.379,-0.25 24.574,-11.45 25,-25 -0.426,-14.06 -11.621,-25.25 -25,-25 -14.234,-0.25 -25.426,10.94 -25,25"
       style="fill:#ffffff;fill-opacity:1;fill-rule:nonzero;stroke:none"
       transform="matrix(0.13333333,0,0,-0.13333333,0,247.02667)" />
    <path
       id="path12"
       d="m 124.25,1630.25 c -0.426,13.55 10.766,24.75 25,25 13.379,-0.25 24.574,-11.45 25,-25 -0.426,-14.06 -11.621,-25.25 -25,-25 -14.234,-0.25 -25.426,10.94 -25,25 z"
       style="fill:none;stroke:#231f20;stroke-width:5;stroke-linecap:butt;stroke-linejoin:miter;stroke-miterlimit:3.8637;stroke-dasharray:none;stroke-opacity:1"
       transform="matrix(0.13333333,0,0,-0.13333333,0,247.02667)" />
    <path
       id="path13"
       d="m 1245.25,507.25 c -0.06,13.844 11.13,25.039 25,25 13.74,0.039 24.94,-11.156 25,-25 -0.06,-13.77 -11.26,-24.961 -25,-25 -13.87,0.039 -25.06,11.23 -25,25"
       style="fill:#ffffff;fill-opacity:1;fill-rule:nonzero;stroke:none"
       transform="matrix(0.13333333,0,0,-0.13333333,0,247.02667)" />
    <path
       id="path14"
       d="m 1245.25,507.25 c -0.06,13.844 11.13,25.039 25,25 13.74,0.039 24.94,-11.156 25,-25 -0.06,-13.77 -11.26,-24.961 -25,-25 -13.87,0.039 -25.06,11.23 -25,25 z"
       style="fill:none;stroke:#231f20;stroke-width:5;stroke-linecap:butt;stroke-linejoin:miter;stroke-miterlimit:3.8637;stroke-dasharray:none;stroke-opacity:1"
       transform="matrix(0.13333333,0,0,-0.13333333,0,247.02667)" />
    <path
       id="path15"
       d="m 1246.25,1629.25 c -0.15,13.81 11.04,25 25,25 13.66,0 24.85,-11.19 25,-25 -0.15,-13.8 -11.34,-25 -25,-25 -13.96,0 -25.15,11.2 -25,25"
       style="fill:#ffffff;fill-opacity:1;fill-rule:nonzero;stroke:none"
       transform="matrix(0.13333333,0,0,-0.13333333,0,247.02667)" />
    <path
       id="path16"
       d="m 1246.25,1629.25 c -0.15,13.81 11.04,25 25,25 13.66,0 24.85,-11.19 25,-25 -0.15,-13.8 -11.34,-25 -25,-25 -13.96,0 -25.15,11.2 -25,25 z"
       style="fill:none;stroke:#231f20;stroke-width:5;stroke-linecap:butt;stroke-linejoin:miter;stroke-miterlimit:3.8637;stroke-dasharray:none;stroke-opacity:1"
       transform="matrix(0.13333333,0,0,-0.13333333,0,247.02667)" />
    <path
       id="path17"
       d="m 2373.25,508.25 c 0.29,14.254 11.48,25.445 25,25 14.1,0.445 25.29,-10.746 25,-25 0.29,-13.363 -10.9,-24.555 -25,-25 -13.52,0.445 -24.71,11.637 -25,25"
       style="fill:#ffffff;fill-opacity:1;fill-rule:nonzero;stroke:none"
       transform="matrix(0.13333333,0,0,-0.13333333,0,247.02667)" />
    <path
       id="path18"
       d="m 2373.25,508.25 c 0.29,14.254 11.48,25.445 25,25 14.1,0.445 25.29,-10.746 25,-25 0.29,-13.363 -10.9,-24.555 -25,-25 -13.52,0.445 -24.71,11.637 -25,25 z"
       style="fill:none;stroke:#231f20;stroke-width:5;stroke-linecap:butt;stroke-linejoin:miter;stroke-miterlimit:3.8637;stroke-dasharray:none;stroke-opacity:1"
       transform="matrix(0.13333333,0,0,-0.13333333,0,247.02667)" />
    <path
       id="path19"
       d="m 2374.25,1628.25 c 0.2,13.38 11.4,24.57 25,25 14.01,-0.43 25.2,-11.62 25,-25 0.2,-14.23 -10.99,-25.43 -25,-25 -13.6,-0.43 -24.8,10.77 -25,25"
       style="fill:#ffffff;fill-opacity:1;fill-rule:nonzero;stroke:none"
       transform="matrix(0.13333333,0,0,-0.13333333,0,247.02667)" />
    <path
       id="path20"
       d="m 2374.25,1628.25 c 0.2,13.38 11.4,24.57 25,25 14.01,-0.43 25.2,-11.62 25,-25 0.2,-14.23 -10.99,-25.43 -25,-25 -13.6,-0.43 -24.8,10.77 -25,25 z"
       style="fill:none;stroke:#231f20;stroke-width:5;stroke-linecap:butt;stroke-linejoin:miter;stroke-miterlimit:3.8637;stroke-dasharray:none;stroke-opacity:1"
       transform="matrix(0.13333333,0,0,-0.13333333,0,247.02667)" />
    <path
       id="path21"
       d="m 115.25,1389.25 v 461"
       style="fill:none;stroke:#231f20;stroke-width:5.267;stroke-linecap:butt;stroke-linejoin:miter;stroke-miterlimit:3.8637;stroke-dasharray:none;stroke-opacity:1"
       transform="matrix(0.13333333,0,0,-0.13333333,0,247.02667)" />
    <path
       id="path22"
       d="m 114.25,1392.25 -109,-74"
       style="fill:none;stroke:#231f20;stroke-width:5.621;stroke-linecap:butt;stroke-linejoin:miter;stroke-miterlimit:3.8637;stroke-dasharray:none;stroke-opacity:1"
       transform="matrix(0.13333333,0,0,-0.13333333,0,247.02667)" />
    <path
       id="path23"
       d="m 113.25,1522.25 -109,-74"
       style="fill:none;stroke:#231f20;stroke-width:5.621;stroke-linecap:butt;stroke-linejoin:miter;stroke-miterlimit:3.8637;stroke-dasharray:none;stroke-opacity:1"
       transform="matrix(0.13333333,0,0,-0.13333333,0,247.02667)" />
    <path
       id="path24"
       d="m 112.25,1652.25 -108,-74"
       style="fill:none;stroke:#231f20;stroke-width:5.621;stroke-linecap:butt;stroke-linejoin:miter;stroke-miterlimit:3.8637;stroke-dasharray:none;stroke-opacity:1"
       transform="matrix(0.13333333,0,0,-0.13333333,0,247.02667)" />
    <path
       id="path25"
       d="m 111.25,1782.25 -108,-74"
       style="fill:none;stroke:#231f20;stroke-width:5.621;stroke-linecap:butt;stroke-linejoin:miter;stroke-miterlimit:3.8637;stroke-dasharray:none;stroke-opacity:1"
       transform="matrix(0.13333333,0,0,-0.13333333,0,247.02667)" />
    <path
       id="path26"
       d="m 113.25,1457.25 -108,-74"
       style="fill:none;stroke:#231f20;stroke-width:5.621;stroke-linecap:butt;stroke-linejoin:miter;stroke-miterlimit:3.8637;stroke-dasharray:none;stroke-opacity:1"
       transform="matrix(0.13333333,0,0,-0.13333333,0,247.02667)" />
    <path
       id="path27"
       d="m 113.25,1587.25 -109,-74"
       style="fill:none;stroke:#231f20;stroke-width:5.621;stroke-linecap:butt;stroke-linejoin:miter;stroke-miterlimit:3.8637;stroke-dasharray:none;stroke-opacity:1"
       transform="matrix(0.13333333,0,0,-0.13333333,0,247.02667)" />
    <path
       id="path28"
       d="m 112.25,1717.25 -109,-74"
       style="fill:none;stroke:#231f20;stroke-width:5.621;stroke-linecap:butt;stroke-linejoin:miter;stroke-miterlimit:3.8637;stroke-dasharray:none;stroke-opacity:1"
       transform="matrix(0.13333333,0,0,-0.13333333,0,247.02667)" />
    <path
       id="path29"
       d="m 111.25,1847.25 -108,-74"
       style="fill:none;stroke:#231f20;stroke-width:5.621;stroke-linecap:butt;stroke-linejoin:miter;stroke-miterlimit:3.8637;stroke-dasharray:none;stroke-opacity:1"
       transform="matrix(0.13333333,0,0,-0.13333333,0,247.02667)" />
    <path
       id="path30"
       d="m 129.25,299.25 v 460"
       style="fill:none;stroke:#231f20;stroke-width:5.267;stroke-linecap:butt;stroke-linejoin:miter;stroke-miterlimit:3.8637;stroke-dasharray:none;stroke-opacity:1"
       transform="matrix(0.13333333,0,0,-0.13333333,0,247.02667)" />
    <path
       id="path31"
       d="m 128.25,301.25 -109,-74"
       style="fill:none;stroke:#231f20;stroke-width:5.621;stroke-linecap:butt;stroke-linejoin:miter;stroke-miterlimit:3.8637;stroke-dasharray:none;stroke-opacity:1"
       transform="matrix(0.13333333,0,0,-0.13333333,0,247.02667)" />
    <path
       id="path32"
       d="m 127.25,431.25 -109,-74"
       style="fill:none;stroke:#231f20;stroke-width:5.621;stroke-linecap:butt;stroke-linejoin:miter;stroke-miterlimit:3.8637;stroke-dasharray:none;stroke-opacity:1"
       transform="matrix(0.13333333,0,0,-0.13333333,0,247.02667)" />
    <path
       id="path33"
       d="m 126.25,561.25 -108,-73"
       style="fill:none;stroke:#231f20;stroke-width:5.621;stroke-linecap:butt;stroke-linejoin:miter;stroke-miterlimit:3.8637;stroke-dasharray:none;stroke-opacity:1"
       transform="matrix(0.13333333,0,0,-0.13333333,0,247.02667)" />
    <path
       id="path34"
       d="m 125.25,692.25 -108,-74"
       style="fill:none;stroke:#231f20;stroke-width:5.621;stroke-linecap:butt;stroke-linejoin:miter;stroke-miterlimit:3.8637;stroke-dasharray:none;stroke-opacity:1"
       transform="matrix(0.13333333,0,0,-0.13333333,0,247.02667)" />
    <path
       id="path35"
       d="m 127.25,366.25 -108,-74"
       style="fill:none;stroke:#231f20;stroke-width:5.621;stroke-linecap:butt;stroke-linejoin:miter;stroke-miterlimit:3.8637;stroke-dasharray:none;stroke-opacity:1"
       transform="matrix(0.13333333,0,0,-0.13333333,0,247.02667)" />
    <path
       id="path36"
       d="m 127.25,496.25 -109,-73"
       style="fill:none;stroke:#231f20;stroke-width:5.621;stroke-linecap:butt;stroke-linejoin:miter;stroke-miterlimit:3.8637;stroke-dasharray:none;stroke-opacity:1"
       transform="matrix(0.13333333,0,0,-0.13333333,0,247.02667)" />
    <path
       id="path37"
       d="m 126.25,626.25 -109,-73"
       style="fill:none;stroke:#231f20;stroke-width:5.621;stroke-linecap:butt;stroke-linejoin:miter;stroke-miterlimit:3.8637;stroke-dasharray:none;stroke-opacity:1"
       transform="matrix(0.13333333,0,0,-0.13333333,0,247.02667)" />
    <path
       id="path38"
       d="m 125.25,757.25 -108,-74"
       style="fill:none;stroke:#231f20;stroke-width:5.621;stroke-linecap:butt;stroke-linejoin:miter;stroke-miterlimit:3.8637;stroke-dasharray:none;stroke-opacity:1"
       transform="matrix(0.13333333,0,0,-0.13333333,0,247.02667)" />
    <path
       id="path39"
       d="m 157.25,337.25 v -196"
       style="fill:none;stroke:#231f20;stroke-width:5;stroke-linecap:butt;stroke-linejoin:miter;stroke-miterlimit:3.8637;stroke-dasharray:none;stroke-opacity:1"
       transform="matrix(0.13333333,0,0,-0.13333333,0,247.02667)" />
    <path
       id="path40"
       d="m 1269.25,337.25 v -196"
       style="fill:none;stroke:#231f20;stroke-width:5;stroke-linecap:butt;stroke-linejoin:miter;stroke-miterlimit:3.8637;stroke-dasharray:none;stroke-opacity:1"
       transform="matrix(0.13333333,0,0,-0.13333333,0,247.02667)" />
    <path
       id="path41"
       d="m 2397.25,508.25 v -363"
       style="fill:none;stroke:#231f20;stroke-width:2.5;stroke-linecap:butt;stroke-linejoin:miter;stroke-miterlimit:3.8637;stroke-dasharray:none;stroke-opacity:1"
       transform="matrix(0.13333333,0,0,-0.13333333,0,247.02667)" />
    <path
       id="path42"
       d="m 191.25,238.25 h 1044"
       style="fill:none;stroke:#231f20;stroke-width:2.5;stroke-linecap:butt;stroke-linejoin:miter;stroke-miterlimit:3.8637;stroke-dasharray:none;stroke-opacity:1"
       transform="matrix(0.13333333,0,0,-0.13333333,0,247.02667)" />
    <path
       id="path43"
       d="m 194.25,238.25 v -15 l -38,15 38,15 v -15"
       style="fill:#231f20;fill-opacity:1;fill-rule:evenodd;stroke:none"
       transform="matrix(0.13333333,0,0,-0.13333333,0,247.02667)" />
    <path
       id="path44"
       d="m 1232.25,238.25 v 15 l 38,-15 -38,-15 v 15"
       style="fill:#231f20;fill-opacity:1;fill-rule:evenodd;stroke:none"
       transform="matrix(0.13333333,0,0,-0.13333333,0,247.02667)" />
    <path
       id="path45"
       d="m 1303.25,238.25 h 1061"
       style="fill:none;stroke:#231f20;stroke-width:2.5;stroke-linecap:butt;stroke-linejoin:miter;stroke-miterlimit:3.8637;stroke-dasharray:none;stroke-opacity:1"
       transform="matrix(0.13333333,0,0,-0.13333333,0,247.02667)" />
    <path
       id="path46"
       d="m 1305.25,238.25 v -15 l -37,15 37,15 v -15"
       style="fill:#231f20;fill-opacity:1;fill-rule:evenodd;stroke:none"
       transform="matrix(0.13333333,0,0,-0.13333333,0,247.02667)" />
    <path
       id="path47"
       d="m 2361.25,238.25 v 15 l 38,-15 -38,-15 v 15"
       style="fill:#231f20;fill-opacity:1;fill-rule:evenodd;stroke:none"
       transform="matrix(0.13333333,0,0,-0.13333333,0,247.02667)" />
    <path
       id="path48"
       d="m 4.8052734,-1.6645978 c -0.28125,0.5859609 -0.515625,0.72659153 -1.1953125,0.75002997 H 1.3365234 v -0.0585961 L 3.6333984,-3.28185 c 1.40625,-1.3945871 1.7929688,-2.0039864 1.7929688,-2.8008933 0,-1.1367642 -0.8554688,-2.0274248 -1.9453125,-2.0274248 -0.4335938,0 -0.8789063,0.1054729 -1.2421875,0.3046996 -0.609375,0.3398574 -0.9257813,0.75003 -1.27734376,1.6172522 l 0.24609376,0.082035 c 0.4453125,-0.7851877 0.9609375,-1.125045 1.6875,-1.125045 0.8671875,0 1.5,0.6211186 1.5,1.4531831 0,0.2578228 -0.035156,0.480488 -0.1054688,0.644557 -0.2929687,0.6445571 -0.84375,1.4063063 -1.6289062,2.2383708 L 0.14121094,-0.19969549 V -4.6876875e-4 H 4.4068359 L 5.0044922,-1.5825633 Z M 17.274023,-1.406775 c -0.05859,0.058596 -0.117187,0.1171922 -0.164062,0.1992267 -0.199219,0.23438438 -0.304688,0.36329578 -0.316406,0.375015 -0.269532,0.29298047 -0.386719,0.375015 -0.5625,0.375015 -0.09375,0 -0.140625,-0.0585961 -0.140625,-0.1875075 0,-0.0468769 0.04687,-0.25782281 0.117187,-0.5390841 l 0.820313,-3.0118392 c 0.01172,-0.070315 0.03516,-0.2578228 0.03516,-0.3398573 0,-0.4336111 -0.292969,-0.7617492 -0.691406,-0.7617492 -0.246094,0 -0.480469,0.093754 -0.773438,0.269542 -0.585937,0.3867342 -1.078125,0.9609759 -1.910156,2.2852476 0.316406,-0.9375375 0.480469,-1.6055329 0.480469,-1.8281981 0,-0.4336111 -0.269532,-0.7265915 -0.679688,-0.7265915 -0.726562,0 -1.570312,0.7969068 -2.671875,2.5313512 l 0.691406,-2.5079128 -0.03516,-0.023438 c -0.644531,0.1406306 -0.902344,0.1875075 -1.9218748,0.375015 v 0.1992267 c 0.5507808,0.011719 0.5507808,0.011719 0.6562498,0.070315 0.07031,0.023438 0.117188,0.105473 0.117188,0.1875075 0,0.1406306 -0.292969,1.2539564 -0.7148441,2.7540164 -0.2578125,0.90237984 -0.3046875,1.10160656 -0.46875,1.71100593125 H 10.043555 C 10.617773,-1.8989822 10.805273,-2.3560317 11.203711,-2.9771503 c 0.691406,-1.0312913 1.394531,-1.6875675 1.804687,-1.6875675 0.152344,0 0.234375,0.1054729 0.234375,0.2929804 0,0.1640691 -0.351562,1.5703754 -0.832031,3.2696621 -0.09375,0.33985731 -0.140625,0.51564559 -0.304687,1.10160653125 h 0.902343 C 13.488867,-1.8755438 13.723242,-2.4849431 14.344336,-3.3287269 c 0.585937,-0.8086261 1.183594,-1.3359909 1.535156,-1.3359909 0.128906,0 0.234375,0.1054729 0.234375,0.2461036 0,0.058596 -0.02344,0.1875075 -0.08203,0.4218918 l -0.691406,2.7657357 c -0.128907,0.45704949 -0.164063,0.66799543 -0.164063,0.78518762 0,0.36329578 0.175781,0.55080328 0.480469,0.55080328 0.5625,0 1.101562,-0.39845344 1.734375,-1.2773948 l 0.05859,-0.093754 z M 117.6041,-1.6645978 c -0.28125,0.5859609 -0.51562,0.72659153 -1.19531,0.75002997 h -2.27344 v -0.0585961 L 116.43223,-3.28185 c 1.40625,-1.3945871 1.79297,-2.0039864 1.79297,-2.8008933 0,-1.1367642 -0.85547,-2.0274248 -1.94532,-2.0274248 -0.43359,0 -0.8789,0.1054729 -1.24218,0.3046996 -0.60938,0.3398574 -0.92579,0.75003 -1.27735,1.6172522 l 0.2461,0.082035 c 0.44531,-0.7851877 0.96093,-1.125045 1.6875,-1.125045 0.86718,0 1.5,0.6211186 1.5,1.4531831 0,0.2578228 -0.0352,0.480488 -0.10547,0.644557 -0.29297,0.6445571 -0.84375,1.4063063 -1.62891,2.2383708 l -2.51953,2.69542031 v 0.19922672125 h 4.26562 L 117.80332,-1.5825633 Z m 12.46875,0.2578228 c -0.0586,0.058596 -0.11719,0.1171922 -0.16406,0.1992267 -0.19922,0.23438438 -0.30469,0.36329578 -0.31641,0.375015 -0.26953,0.29298047 -0.38672,0.375015 -0.5625,0.375015 -0.0937,0 -0.14062,-0.0585961 -0.14062,-0.1875075 0,-0.0468769 0.0469,-0.25782281 0.11719,-0.5390841 l 0.82031,-3.0118392 c 0.0117,-0.070315 0.0351,-0.2578228 0.0351,-0.3398573 0,-0.4336111 -0.29296,-0.7617492 -0.6914,-0.7617492 -0.2461,0 -0.48047,0.093754 -0.77344,0.269542 -0.58594,0.3867342 -1.07812,0.9609759 -1.91016,2.2852476 0.31641,-0.9375375 0.48047,-1.6055329 0.48047,-1.8281981 0,-0.4336111 -0.26953,-0.7265915 -0.67968,-0.7265915 -0.72657,0 -1.57032,0.7969068 -2.67188,2.5313512 l 0.69141,-2.5079128 -0.0352,-0.023438 c -0.64453,0.1406306 -0.90234,0.1875075 -1.92187,0.375015 v 0.1992267 c 0.55078,0.011719 0.55078,0.011719 0.65625,0.070315 0.0703,0.023438 0.11718,0.105473 0.11718,0.1875075 0,0.1406306 -0.29297,1.2539564 -0.71484,2.7540164 -0.25781,0.90237984 -0.30469,1.10160656 -0.46875,1.71100593125 h 0.90234 C 123.4166,-1.8989822 123.6041,-2.3560317 124.00254,-2.9771503 c 0.69141,-1.0312913 1.39453,-1.6875675 1.80469,-1.6875675 0.15234,0 0.23437,0.1054729 0.23437,0.2929804 0,0.1640691 -0.35156,1.5703754 -0.83203,3.2696621 -0.0937,0.33985731 -0.14062,0.51564559 -0.30469,1.10160653125 h 0.90235 C 126.2877,-1.8755438 126.52207,-2.4849431 127.14316,-3.3287269 c 0.58594,-0.8086261 1.1836,-1.3359909 1.53516,-1.3359909 0.12891,0 0.23438,0.1054729 0.23438,0.2461036 0,0.058596 -0.0234,0.1875075 -0.082,0.4218918 l -0.6914,2.7657357 c -0.12891,0.45704949 -0.16406,0.66799543 -0.16406,0.78518762 0,0.36329578 0.17578,0.55080328 0.48046,0.55080328 0.5625,0 1.10157,-0.39845344 1.73438,-1.2773948 l 0.0586,-0.093754 z m 0,0"
       style="fill:#231f20;fill-opacity:1;fill-rule:nonzero;stroke:none"
       aria-label="2 m2 m"
       transform="matrix(1.3333333,0,0,1.33328,78.3,236.86)" />
    <path
       id="path49"
       d="m 2575.25,508.25 h 196"
       style="fill:none;stroke:#231f20;stroke-width:5;stroke-linecap:butt;stroke-linejoin:miter;stroke-miterlimit:3.8637;stroke-dasharray:none;stroke-opacity:1"
       transform="matrix(0.13333333,0,0,-0.13333333,0,247.02667)" />
    <path
       id="path50"
       d="m 2575.25,1631.25 h 196"
       style="fill:none;stroke:#231f20;stroke-width:2.5;stroke-linecap:butt;stroke-linejoin:miter;stroke-miterlimit:3.8637;stroke-dasharray:none;stroke-opacity:1"
       transform="matrix(0.13333333,0,0,-0.13333333,0,247.02667)" />
    <path
       id="path51"
       d="m 2674.25,542.25 v 1053"
       style="fill:none;stroke:#231f20;stroke-width:2.5;stroke-linecap:butt;stroke-linejoin:miter;stroke-miterlimit:3.8637;stroke-dasharray:none;stroke-opacity:1"
       transform="matrix(0.13333333,0,0,-0.13333333,0,247.02667)" />
    <path
       id="path52"
       d="m 2674.25,545.25 h 15 l -15,-38 -15,38 h 15"
       style="fill:#231f20;fill-opacity:1;fill-rule:evenodd;stroke:none"
       transform="matrix(0.13333333,0,0,-0.13333333,0,247.02667)" />
    <path
       id="path53"
       d="m 2674.25,1592.25 h -15 l 15,38 15,-38 h -15"
       style="fill:#231f20;fill-opacity:1;fill-rule:evenodd;stroke:none"
       transform="matrix(0.13333333,0,0,-0.13333333,0,247.02667)" />
    <path
       id="path54"
       d="m 4.8042969,-1.6634259 c -0.28125,0.5859609 -0.515625,0.72659155 -1.1953125,0.75002999 H 1.3355469 V -0.971992 l 2.296875,-2.3086861 c 1.40625,-1.394587 1.7929687,-2.0039864 1.7929687,-2.8008933 0,-1.1367642 -0.8554687,-2.0274248 -1.9453125,-2.0274248 -0.4335937,0 -0.8789062,0.1054729 -1.2421875,0.3046997 -0.609375,0.3398573 -0.9257812,0.75003 -1.27734372,1.6172522 l 0.24609372,0.082034 c 0.4453125,-0.7851877 0.9609375,-1.125045 1.6875,-1.125045 0.8671875,0 1.5,0.6211186 1.5,1.4531831 0,0.2578228 -0.035156,0.480488 -0.1054687,0.644557 -0.2929688,0.6445571 -0.84375,1.4063063 -1.6289063,2.2383708 L 0.14023438,-0.19852357 V 7.0315313e-4 H 4.4058594 L 5.0035156,-1.5813914 Z m 12.4687501,0.2578228 c -0.05859,0.058596 -0.117188,0.1171922 -0.164063,0.1992267 -0.199218,0.2343844 -0.304687,0.3632958 -0.316406,0.37501502 -0.269531,0.29298047 -0.386719,0.375015 -0.5625,0.375015 -0.09375,0 -0.140625,-0.0585961 -0.140625,-0.1875075 0,-0.0468769 0.04687,-0.25782281 0.117188,-0.53908402 l 0.820312,-3.0118393 c 0.01172,-0.070315 0.03516,-0.2578228 0.03516,-0.3398573 0,-0.4336111 -0.292968,-0.7617492 -0.691406,-0.7617492 -0.246094,0 -0.480469,0.093754 -0.773437,0.269542 -0.585938,0.3867342 -1.078125,0.9609759 -1.910157,2.2852477 0.316407,-0.9375375 0.480469,-1.605533 0.480469,-1.8281982 0,-0.4336111 -0.269531,-0.7265915 -0.679687,-0.7265915 -0.726563,0 -1.570313,0.7969069 -2.671875,2.5313512 l 0.691406,-2.5079128 -0.03516,-0.023438 c -0.644532,0.1406306 -0.902344,0.1875075 -1.9218754,0.375015 v 0.1992267 c 0.5507814,0.011719 0.5507814,0.011719 0.6562504,0.070315 0.07031,0.023438 0.117187,0.105473 0.117187,0.1875075 0,0.1406306 -0.292969,1.2539564 -0.7148436,2.7540164 -0.2578125,0.90237986 -0.3046875,1.10160658 -0.46875,1.71100595313 H 10.042578 C 10.616797,-1.8978103 10.804297,-2.3548598 11.202734,-2.9759784 c 0.691407,-1.0312913 1.394532,-1.6875675 1.804688,-1.6875675 0.152344,0 0.234375,0.105473 0.234375,0.2929805 0,0.164069 -0.351563,1.5703753 -0.832031,3.269662 -0.09375,0.33985733 -0.140625,0.51564562 -0.304688,1.10160655313 h 0.902344 C 13.487891,-1.8743718 13.722266,-2.4837712 14.343359,-3.327555 c 0.585938,-0.8086261 1.183594,-1.3359909 1.535157,-1.3359909 0.128906,0 0.234375,0.105473 0.234375,0.2461036 0,0.058596 -0.02344,0.1875075 -0.08203,0.4218919 l -0.691406,2.7657356 c -0.128906,0.45704952 -0.164062,0.66799545 -0.164062,0.78518764 0,0.36329578 0.175781,0.55080328 0.480468,0.55080328 0.5625,0 1.101563,-0.39845344 1.734375,-1.27739482 l 0.05859,-0.093754 z m 0,0"
       style="fill:#231f20;fill-opacity:1;fill-rule:nonzero;stroke:none"
       aria-label="2 m"
       transform="matrix(1.3333333,0,0,1.33328,363.63333,104.46)" />
    <path
       id="path55"
       d="m 2401.25,506.25 209,-365"
       style="fill:none;stroke:#231f20;stroke-width:5;stroke-linecap:butt;stroke-linejoin:miter;stroke-miterlimit:3.8637;stroke-dasharray:none;stroke-opacity:1"
       transform="matrix(0.13333333,0,0,-0.13333333,0,247.02667)" />
    <path
       id="path56"
       d="m 2610.25,141.25 16,32 14,-84 -65,54 35,-2"
       style="fill:#231f20;fill-opacity:1;fill-rule:evenodd;stroke:none"
       transform="matrix(0.13333333,0,0,-0.13333333,0,247.02667)" />
    <path
       id="path57"
       d="m 1.7566406,-7.6421807 c 0.6796875,0.082035 0.84375,0.1875075 0.84375,0.5039264 0,0.1757883 -0.046875,0.3984535 -0.1992187,0.960976 l -1.41796877,5.0978601 c -0.2109375,0.71487237 -0.3046875,0.78518768 -0.984375,0.89066065 v 0.1875075 H 2.9402344 v -0.1875075 C 2.1785156,-0.30594974 2.1199219,-0.34110739 2.1199219,-0.76299927 c 0,-0.1289114 0.023437,-0.22266515 0.1523437,-0.67971473 l 0.6328125,-2.3204053 c 0.3046875,0.082035 0.5976563,0.105473 1.1015625,0.105473 0.984375,0 1.8046875,-0.2109459 2.3085938,-0.5742417 0.5976562,-0.4453303 0.9492187,-1.1133258 0.9492187,-1.8164789 0,-1.1484835 -0.9023437,-1.7930405 -2.5429687,-1.7930405 H 1.7566406 Z m 2.109375,0.5039264 c 0.070312,-0.2578228 0.2109375,-0.3398573 0.5507813,-0.3398573 0.46875,0 0.9257812,0.105473 1.1601562,0.2929805 0.3164063,0.2109459 0.4453125,0.5742417 0.4453125,1.1367642 0,0.7734684 -0.28125,1.3359909 -0.8085937,1.6406906 -0.3632813,0.2109459 -0.8320313,0.3046997 -1.5820313,0.3046997 -0.2109375,0 -0.2695312,0 -0.6210937,-0.058596 z m 13.3125004,2.5079128 h -6.046875 v 0.7851877 h 6.046875 z m 0,2.4024399 h -6.046875 v 0.7851876 h 6.046875 z m 8.112304,-5.8830478 c -1.886718,0 -3.703125,2.7305779 -3.703125,5.5549097 0,1.58209449 0.761719,2.63682418 1.933594,2.63682418 0.515625,0 1.019531,-0.17578828 1.523438,-0.55080328 1.207031,-0.8906606 2.121093,-2.8829278 2.121093,-4.605653 0,-1.8985134 -0.703125,-3.0352776 -1.875,-3.0352776 z m -0.07031,0.3281381 c 0.632812,0 0.996094,0.5625225 0.996094,1.5117792 0,1.6172522 -0.480469,3.5978002 -1.160157,4.8165989 -0.457031,0.7969069 -0.949218,1.19536034 -1.5,1.19536034 -0.644531,0 -1.019531,-0.59768016 -1.019531,-1.61725214 0,-1.2773949 0.609375,-3.6446771 1.230469,-4.7580029 0.445312,-0.7734684 0.902344,-1.1484834 1.453125,-1.1484834 z m 2.964844,6.5862009 c -0.363282,0 -0.65625,0.29298051 -0.65625,0.67971472 0,0.35157657 0.292968,0.64455704 0.632812,0.64455704 0.386719,0 0.691406,-0.28126125 0.691406,-0.64455704 0,-0.37501499 -0.304687,-0.67971472 -0.667968,-0.67971472 z m 4.875,-5.9416439 h 2.753906 l 0.28125,-0.8555029 h -3.070313 l -1.253906,2.6133857 v 0.1875075 c 1.160156,0.2461036 1.558594,0.3867343 1.992188,0.7383108 0.386718,0.3164189 0.632812,0.9140991 0.632812,1.5469369 0,1.3125525 -0.972656,2.48447438 -2.050781,2.48447438 -0.246094,0 -0.46875,-0.0937538 -0.808594,-0.35157657 -0.304687,-0.22266515 -0.480469,-0.30469971 -0.679687,-0.30469971 -0.269532,0 -0.480469,0.19922674 -0.480469,0.48048799 0,0.4336111 0.46875,0.67971469 1.277344,0.67971469 1.980468,0 3.574218,-1.53521768 3.574218,-3.44545028 0,-0.7383108 -0.269531,-1.3711486 -0.796875,-1.8633558 -0.445312,-0.4218919 -0.867187,-0.6211186 -1.839843,-0.855503 z m 16.617187,-0.7031531 h -2.003906 l -4.03125,5.9182055 -0.65625,-5.9182055 h -2.179688 v 0.1992267 c 0.597657,0.035158 0.890625,0.1640691 0.890625,0.4453303 0,0.093754 -0.04687,0.2695421 -0.117187,0.4922072 -0.02344,0.046877 -0.05859,0.1640691 -0.105469,0.3515766 l -0.04687,0.1406306 -1.265625,4.4533031 c -0.375,1.25395644 -0.550781,1.48834082 -1.171875,1.57037535 v 0.1875075 h 2.367188 v -0.1875075 c -0.609375,-0.0468769 -0.84375,-0.19922672 -0.84375,-0.52736484 0,-0.14063063 0.04687,-0.42189191 0.105468,-0.64455701 l 1.417969,-5.1916139 0.726563,6.55104325 h 0.210937 l 4.523438,-6.72683155 -1.558594,5.6369442 c -0.1875,0.63283782 -0.421875,0.8086261 -1.207031,0.90237985 v 0.1875075 h 3.28125 v -0.1875075 c -0.820313,-0.0820345 -0.925782,-0.15234984 -0.925782,-0.51564562 0,-0.21094594 0.02344,-0.36329583 0.128907,-0.73831083 l 1.476562,-5.3205253 c 0.210938,-0.7148723 0.28125,-0.7734684 0.984375,-0.8789414 z m 8.238281,0 h -2.378906 v 0.1992267 c 0.679688,0.058596 0.832031,0.1757883 0.832031,0.6093994 0,0.1406306 -0.02344,0.269542 -0.105468,0.5273648 -0.01172,0.035158 -0.02344,0.082035 -0.02344,0.093754 l -1.21875,4.5587761 -2.496094,-5.9885208 h -1.933593 v 0.1992267 c 0.5625,0.046877 0.796875,0.1992267 1.03125,0.6679955 l -1.429688,5.0041064 c -0.457031,1.53521766 -0.550781,1.67584828 -1.230469,1.78132125 v 0.1875075 h 2.367188 v -0.1875075 c -0.621094,-0.0468769 -0.832031,-0.1875075 -0.832031,-0.51564562 0,-0.16406907 0.03516,-0.39845343 0.105468,-0.65627623 l 1.371094,-5.0627025 2.753906,6.59792013 h 0.210938 l 1.734375,-6.03539763 c 0.445312,-1.5586561 0.492187,-1.6172522 1.242187,-1.7813213 z M -21.666211,13.092047 c 0.421875,-0.562522 0.832031,-0.796907 1.335938,-0.796907 0.644531,0 1.066406,0.433611 1.066406,1.089888 0,0.503926 -0.246094,0.937537 -0.761719,1.289114 -0.515625,0.339857 -1.042969,0.527364 -2.109375,0.703153 l 0.01172,0.187507 c 0.679687,0 0.796875,0.01172 1.113281,0.128912 0.726563,0.269542 1.113281,0.914099 1.113281,1.875075 0,0.421892 -0.09375,0.855503 -0.269531,1.148483 -0.269531,0.480488 -0.808594,0.808626 -1.300781,0.808626 -0.234375,0 -0.492188,-0.117192 -0.855469,-0.386734 -0.351562,-0.246104 -0.539062,-0.328138 -0.773437,-0.328138 -0.328125,0 -0.527344,0.164069 -0.527344,0.468769 0,0.457049 0.480469,0.703153 1.347656,0.703153 0.667969,0 1.300781,-0.15235 1.792969,-0.445331 0.949219,-0.550803 1.546875,-1.558656 1.546875,-2.625105 0,-0.878941 -0.351563,-1.418025 -1.148438,-1.79304 v -0.03516 c 1.441407,-0.562522 1.863282,-0.960976 1.863282,-1.769602 0,-0.878941 -0.703125,-1.523498 -1.675782,-1.523498 -0.832031,0 -1.570312,0.468769 -1.957031,1.242237 z m 7.957031,-1.300833 c -1.886718,0 -3.703125,2.730578 -3.703125,5.55491 0,1.582094 0.761719,2.636824 1.933594,2.636824 0.515625,0 1.019531,-0.175789 1.523438,-0.550804 1.207031,-0.89066 2.121093,-2.882927 2.121093,-4.605653 0,-1.898513 -0.703125,-3.035277 -1.875,-3.035277 z m -0.07031,0.328138 c 0.632812,0 0.996094,0.562522 0.996094,1.511779 0,1.617252 -0.480469,3.5978 -1.160157,4.816599 -0.457031,0.796907 -0.949218,1.19536 -1.5,1.19536 -0.644531,0 -1.019531,-0.59768 -1.019531,-1.617252 0,-1.277395 0.609375,-3.644677 1.230469,-4.758003 0.445312,-0.773468 0.902344,-1.148483 1.453125,-1.148483 z m 0,0"
       style="fill:#231f20;fill-opacity:1;fill-rule:nonzero;stroke:none"
       aria-label="P = 0.5 MN&#10;30"
       transform="matrix(1.3333333,0,0,1.33328,351.9,213.12667)" />
    <path
       id="path58"
       d="m 2.6021484,-3.52625 c -0.3398437,0 -0.65625,0.082031 -0.984375,0.2578125 -0.82031246,0.46875 -1.40624996,1.3828125 -1.40624996,2.2382812 0,0.6914063 0.45703125,1.12500005 1.18359376,1.12500005 0.5273437,0 1.0429687,-0.234375 1.5,-0.703125 0.5273437,-0.51562505 0.8554687,-1.19531255 0.8554687,-1.80468755 0,-0.65625 -0.46875,-1.1132812 -1.1484375,-1.1132812 z m -0.09375,0.1640625 c 0.3398438,0 0.5625,0.2929687 0.5625,0.75 0,0.5976562 -0.2578125,1.3945312 -0.609375,1.91015625 -0.3046875,0.421875 -0.609375,0.62109375 -0.9492187,0.62109375 -0.375,0 -0.62109376,-0.28125 -0.62109376,-0.7265625 0,-0.5976563 0.23437496,-1.3007813 0.62109376,-1.8632813 0.3164062,-0.4570312 0.6445312,-0.6914062 0.9960937,-0.6914062 z m 0,0"
       style="fill:#231f20;fill-opacity:1;fill-rule:nonzero;stroke:none"
       aria-label="o"
       transform="matrix(1.3333333,0,0,1.3333333,336.3,234.32667)" />
    <path
       id="path59"
       d="m 2399.25,163.25 c 66.53,2.383 98.99,23.871 159,69"
       style="fill:none;stroke:#231f20;stroke-width:5;stroke-linecap:butt;stroke-linejoin:miter;stroke-miterlimit:3.8637;stroke-dasharray:none;stroke-opacity:1"
       transform="matrix(0.13333333,0,0,-0.13333333,0,247.02667)" />
  </g>
</svg>
