<?xml version="1.0" encoding="UTF-8" standalone="no"?>
<!-- Created with Inkscape (http://www.inkscape.org/) -->

<svg
   version="1.1"
   id="svg1"
   width="392.18668"
   height="239.60001"
   viewBox="0 0 392.18668 239.60001"
   sodipodi:docname="exs4f2_4.eps"
   xmlns:inkscape="http://www.inkscape.org/namespaces/inkscape"
   xmlns:sodipodi="http://sodipodi.sourceforge.net/DTD/sodipodi-0.dtd"
   xmlns="http://www.w3.org/2000/svg"
   xmlns:svg="http://www.w3.org/2000/svg">
  <defs
     id="defs1" />
  <sodipodi:namedview
     id="namedview1"
     pagecolor="#ffffff"
     bordercolor="#000000"
     borderopacity="0.25"
     inkscape:showpageshadow="2"
     inkscape:pageopacity="0.0"
     inkscape:pagecheckerboard="0"
     inkscape:deskcolor="#d1d1d1">
    <inkscape:page
       x="0"
       y="0"
       inkscape:label="1"
       id="page1"
       width="392.18668"
       height="239.60001"
       margin="0"
       bleed="0" />
  </sodipodi:namedview>
  <g
     id="g1"
     inkscape:groupmode="layer"
     inkscape:label="1">
    <path
       id="path1"
       d="m 2.6123047,-5.3780033 v 5.37917523 h 1.546875 V -7.8039058 H 3.1396484 c -0.2460937,0.9258275 -1.0546875,1.4063203 -2.39062496,1.4063203 v 1.0195822 z m 0,0"
       style="fill:#231f20;fill-opacity:1;fill-rule:nonzero;stroke:none"
       aria-label="1"
       transform="matrix(1.3333333,0,0,1.3332667,78.833333,70.1)" />
    <path
       id="path2"
       d="m 2313.25,1192.25 -1,-1119"
       style="fill:none;stroke:#231f20;stroke-width:15;stroke-linecap:butt;stroke-linejoin:miter;stroke-miterlimit:3.8637;stroke-dasharray:none;stroke-opacity:1"
       transform="matrix(0.13333333,0,0,-0.13333333,0,239.6)" />
    <path
       id="path3"
       d="m 60.25,1198.25 h 2256"
       style="fill:none;stroke:#231f20;stroke-width:15;stroke-linecap:butt;stroke-linejoin:miter;stroke-miterlimit:3.8637;stroke-dasharray:none;stroke-opacity:1"
       transform="matrix(0.13333333,0,0,-0.13333333,0,239.6)" />
    <path
       id="path4"
       d="m 63.25,73.25 h 2256"
       style="fill:none;stroke:#231f20;stroke-width:15;stroke-linecap:butt;stroke-linejoin:miter;stroke-miterlimit:3.8637;stroke-dasharray:none;stroke-opacity:1"
       transform="matrix(0.13333333,0,0,-0.13333333,0,239.6)" />
    <path
       id="path5"
       d="m 1183.25,1191.25 -2,-1111"
       style="fill:none;stroke:#231f20;stroke-width:15;stroke-linecap:butt;stroke-linejoin:miter;stroke-miterlimit:3.8637;stroke-dasharray:none;stroke-opacity:1"
       transform="matrix(0.13333333,0,0,-0.13333333,0,239.6)" />
    <path
       id="path6"
       d="m 1185.25,73.25 -1126,1123"
       style="fill:none;stroke:#231f20;stroke-width:15;stroke-linecap:butt;stroke-linejoin:miter;stroke-miterlimit:3.8637;stroke-dasharray:none;stroke-opacity:1"
       transform="matrix(0.13333333,0,0,-0.13333333,0,239.6)" />
    <path
       id="path7"
       d="M 1184.25,1195.25 61.25,76.25"
       style="fill:none;stroke:#231f20;stroke-width:15;stroke-linecap:butt;stroke-linejoin:miter;stroke-miterlimit:3.8637;stroke-dasharray:none;stroke-opacity:1"
       transform="matrix(0.13333333,0,0,-0.13333333,0,239.6)" />
    <path
       id="path8"
       d="m 2314.25,75.25 -1131,1121"
       style="fill:none;stroke:#231f20;stroke-width:15;stroke-linecap:butt;stroke-linejoin:miter;stroke-miterlimit:3.8637;stroke-dasharray:none;stroke-opacity:1"
       transform="matrix(0.13333333,0,0,-0.13333333,0,239.6)" />
    <path
       id="path9"
       d="m 2311.25,1194.25 -1128,-1119"
       style="fill:none;stroke:#231f20;stroke-width:15;stroke-linecap:butt;stroke-linejoin:miter;stroke-miterlimit:3.8637;stroke-dasharray:none;stroke-opacity:1"
       transform="matrix(0.13333333,0,0,-0.13333333,0,239.6)" />
    <path
       id="path10"
       d="M 0.53828125,-1.9532227e-4 H 3.6085938 V -0.16426603 h -0.1875 c -0.5390625,0 -0.7617188,-0.10547402 -0.7617188,-0.35158007 0,-0.10547403 0.035156,-0.26954473 0.140625,-0.5742475 0.011719,-0.082035 0.023437,-0.1289127 0.058594,-0.246106 l 1.5703125,-5.7073166 c 0.058594,-0.1992287 0.070312,-0.2578254 0.070312,-0.3164221 0,-0.046877 -0.023437,-0.082035 -0.058594,-0.082035 0,0 -0.3046875,0.058597 -0.9023437,0.17579 l -0.984375,0.1992287 c -0.023437,0.011719 -0.1054688,0.023439 -0.234375,0.046877 v 0.1640707 l 0.6328125,-0.023439 C 3.1984375,-6.8911649 3.3625,-6.7622522 3.3625,-6.5395848 c 0,0.082035 -0.023437,0.1523514 -0.070312,0.3750188 L 1.76875,-0.75023282 C 1.6398438,-0.34005606 1.4054688,-0.23458204 0.53828125,-0.15254669 Z M -13.494922,-20.336173 c -0.257812,0.539089 -0.480469,0.679721 -1.089844,0.70316 h -2.097656 v -0.0586 l 2.121094,-2.10948 c 1.277344,-1.289127 1.628906,-1.839936 1.628906,-2.578254 0,-1.043021 -0.773437,-1.863374 -1.78125,-1.863374 -0.386719,0 -0.796875,0.105474 -1.125,0.292983 -0.5625,0.304703 -0.867187,0.679722 -1.183594,1.464917 l 0.234375,0.08204 c 0.410157,-0.714879 0.878907,-1.031301 1.535157,-1.031301 0.796875,0 1.382812,0.574247 1.382812,1.336004 0,0.234387 -0.03516,0.445335 -0.105469,0.585967 -0.257812,0.597686 -0.773437,1.289127 -1.488281,2.062603 l -2.308594,2.461061 v 0.187509 h 3.914063 l 0.550781,-1.453198 z m 0,0"
       style="fill:#231f20;fill-opacity:1;fill-rule:nonzero;stroke:none"
       aria-label="1&#10;2"
       transform="matrix(1.3333333,0,0,1.3332667,39.766667,63.566667)" />
    <path
       id="path11"
       d="m 58.25,1533.25 v -260"
       style="fill:none;stroke:#231f20;stroke-width:2.5;stroke-linecap:butt;stroke-linejoin:miter;stroke-miterlimit:3.8637;stroke-dasharray:none;stroke-opacity:1"
       transform="matrix(0.13333333,0,0,-0.13333333,0,239.6)" />
    <path
       id="path12"
       d="m 58.25,1531.25 h -15 l 15,37 15,-37 h -15"
       style="fill:#231f20;fill-opacity:1;fill-rule:evenodd;stroke:none"
       transform="matrix(0.13333333,0,0,-0.13333333,0,239.6)" />
    <path
       id="path13"
       d="m 58.25,1273.25 h 259"
       style="fill:none;stroke:#231f20;stroke-width:2.5;stroke-linecap:butt;stroke-linejoin:miter;stroke-miterlimit:3.8637;stroke-dasharray:none;stroke-opacity:1"
       transform="matrix(0.13333333,0,0,-0.13333333,0,239.6)" />
    <path
       id="path14"
       d="m 315.25,1273.25 v 15 l 37,-15 -37,-15 v 15"
       style="fill:#231f20;fill-opacity:1;fill-rule:evenodd;stroke:none"
       transform="matrix(0.13333333,0,0,-0.13333333,0,239.6)" />
    <path
       id="path15"
       d="m 1.9558594,-6.2333195 c 0.3867187,-0.5273701 0.7617187,-0.7383181 1.21875,-0.7383181 0.5976562,0 0.984375,0.3867381 0.984375,0.9961435 0,0.4687735 -0.234375,0.8555116 -0.703125,1.183653 -0.4804688,0.316422 -0.9492188,0.4804927 -1.921875,0.6445634 v 0.1757901 c 0.6210937,0 0.7265625,0.011719 1.0195312,0.105474 0.6679688,0.2578254 1.0195313,0.8555115 1.0195313,1.7344617 0,0.3867381 -0.082031,0.7851955 -0.234375,1.0430209 -0.2578125,0.44533478 -0.75,0.75003751 -1.2070313,0.75003751 -0.2109375,0 -0.4453125,-0.10547402 -0.7851562,-0.35158007 C 1.0300781,-0.92446028 0.85429688,-0.9947763 0.64335938,-0.9947763 c -0.3046875,0 -0.48046875,0.15235137 -0.48046875,0.42189609 0,0.4218961 0.4453125,0.65628282 1.23046877,0.65628282 0.6210937,0 1.1953125,-0.15235137 1.640625,-0.41017676 0.8671875,-0.50393145 1.4179687,-1.42975895 1.4179687,-2.41418325 0,-0.7969148 -0.3164062,-1.3008462 -1.0429687,-1.640707 v -0.035158 c 1.3242187,-0.5156508 1.7109375,-0.8789502 1.7109375,-1.6289877 0,-0.7969148 -0.65625,-1.394601 -1.546875,-1.394601 -0.7617188,0 -1.4414063,0.4336155 -1.7929688,1.148495 z M -12.918164,-21.550492 h -1.042969 l 1.335938,-4.793208 h -0.457032 l -4.582031,4.746331 -0.222656,0.738318 h 2.882812 l -0.539062,1.957129 h 0.867187 l 0.503907,-1.93369 h 1.101562 z m -1.933594,0 h -2.332031 v -0.04688 l 3.339844,-3.504081 h 0.04687 z m 0,0"
       style="fill:#231f20;fill-opacity:1;fill-rule:nonzero;stroke:none"
       aria-label="3&#10;4"
       transform="matrix(1.3333333,0,0,1.3332667,39.9,215.03333)" />
    <path
       id="path16"
       d="m 58.25,401.25 v -259"
       style="fill:none;stroke:#231f20;stroke-width:2.5;stroke-linecap:butt;stroke-linejoin:miter;stroke-miterlimit:3.8637;stroke-dasharray:none;stroke-opacity:1"
       transform="matrix(0.13333333,0,0,-0.13333333,0,239.6)" />
    <path
       id="path17"
       d="m 58.25,399.25 h -15 l 15,37 15,-37 h -15"
       style="fill:#231f20;fill-opacity:1;fill-rule:evenodd;stroke:none"
       transform="matrix(0.13333333,0,0,-0.13333333,0,239.6)" />
    <path
       id="path18"
       d="m 58.25,142.25 h 259"
       style="fill:none;stroke:#231f20;stroke-width:2.5;stroke-linecap:butt;stroke-linejoin:miter;stroke-miterlimit:3.8637;stroke-dasharray:none;stroke-opacity:1"
       transform="matrix(0.13333333,0,0,-0.13333333,0,239.6)" />
    <path
       id="path19"
       d="m 315.25,142.25 v 15 l 37,-15 -37,-15 v 15"
       style="fill:#231f20;fill-opacity:1;fill-rule:evenodd;stroke:none"
       transform="matrix(0.13333333,0,0,-0.13333333,0,239.6)" />
    <path
       id="path20"
       d="M 0.25800781,0.18692341 C 1.7345703,-0.07090198 2.4728516,-0.36388538 3.3869141,-1.0787649 c 1.2773437,-1.0078629 2.0273437,-2.4727799 2.0273437,-3.9611355 0,-1.4531977 -0.796875,-2.4024639 -1.9921875,-2.4024639 -1.3828125,0 -2.66015624,1.4063203 -2.66015624,2.9532727 0,1.1484949 0.67968754,1.9688484 1.65234374,1.9688484 0.4453125,0 0.8320313,-0.1289127 1.4179688,-0.4922121 l 0.046875,0.023439 c -0.1875,0.5039314 -0.7382813,1.2188109 -1.4179688,1.8282164 -0.796875,0.67972146 -1.3359375,0.96098552 -2.20312499,1.1484949 z M 3.5041016,-7.1493809 c 0.6796875,0 1.0898437,0.5390895 1.0898437,1.4531977 0,0.8555115 -0.28125,1.8750937 -0.609375,2.1915158 -0.28125,0.2929834 -0.7382812,0.4804928 -1.1601562,0.4804928 -0.703125,0 -1.1015625,-0.5508088 -1.1015625,-1.535233 0,-0.8086342 0.328125,-1.6875844 0.796875,-2.1797965 0.2695312,-0.2695448 0.609375,-0.4101768 0.984375,-0.4101768 z M -20.062305,-18.801331 h 3.070313 v -0.16407 h -0.1875 c -0.539063,0 -0.761719,-0.105474 -0.761719,-0.35158 0,-0.105474 0.03516,-0.269545 0.140625,-0.574248 0.01172,-0.08204 0.02344,-0.128913 0.05859,-0.246106 l 1.570312,-5.707317 c 0.05859,-0.199228 0.07031,-0.257825 0.07031,-0.316422 0,-0.04688 -0.02344,-0.08204 -0.05859,-0.08204 0,0 -0.304687,0.0586 -0.902344,0.17579 l -0.984375,0.199229 c -0.02344,0.01172 -0.105468,0.02344 -0.234375,0.04688 v 0.164071 l 0.632813,-0.02344 c 0.246094,-0.01172 0.410156,0.117194 0.410156,0.339861 0,0.08204 -0.02344,0.152351 -0.07031,0.375019 l -1.523438,5.414333 c -0.128906,0.410177 -0.363281,0.515651 -1.230469,0.597686 z m 8.712891,-7.441778 c -1.722656,0 -3.398438,2.507938 -3.398438,5.097911 0,1.453198 0.703125,2.425903 1.769532,2.425903 0.480468,0 0.9375,-0.17579 1.394531,-0.515651 1.113281,-0.808634 1.9570312,-2.636851 1.9570312,-4.218961 0,-1.746181 -0.6562502,-2.789202 -1.7226562,-2.789202 z m -0.05859,0.316422 c 0.574219,0 0.914063,0.503932 0.914063,1.382882 0,1.476636 -0.445313,3.293133 -1.078125,4.40647 -0.410157,0.726599 -0.867188,1.101618 -1.371094,1.101618 -0.585938,0 -0.9375,-0.550809 -0.9375,-1.476637 0,-1.183653 0.5625,-3.35173 1.136719,-4.371312 0.410156,-0.70316 0.820312,-1.043021 1.335937,-1.043021 z m 0,0"
       style="fill:#231f20;fill-opacity:1;fill-rule:nonzero;stroke:none"
       aria-label="9&#10;10"
       transform="matrix(1.3333333,0,0,1.3332667,340.43333,63.7)" />
    <path
       id="path21"
       d="m 2312.25,1536.25 v -260"
       style="fill:none;stroke:#231f20;stroke-width:2.5;stroke-linecap:butt;stroke-linejoin:miter;stroke-miterlimit:3.8637;stroke-dasharray:none;stroke-opacity:1"
       transform="matrix(0.13333333,0,0,-0.13333333,0,239.6)" />
    <path
       id="path22"
       d="m 2312.25,1533.25 h -15 l 15,38 15,-38 h -15"
       style="fill:#231f20;fill-opacity:1;fill-rule:evenodd;stroke:none"
       transform="matrix(0.13333333,0,0,-0.13333333,0,239.6)" />
    <path
       id="path23"
       d="m 2312.25,1276.25 h 260"
       style="fill:none;stroke:#231f20;stroke-width:2.5;stroke-linecap:butt;stroke-linejoin:miter;stroke-miterlimit:3.8637;stroke-dasharray:none;stroke-opacity:1"
       transform="matrix(0.13333333,0,0,-0.13333333,0,239.6)" />
    <path
       id="path24"
       d="m 2569.25,1276.25 v 15 l 38,-15 -38,-15 v 15"
       style="fill:#231f20;fill-opacity:1;fill-rule:evenodd;stroke:none"
       transform="matrix(0.13333333,0,0,-0.13333333,0,239.6)" />
    <path
       id="path25"
       d="m 2.6125,-6.5509135 h 2.53125 l 0.2578125,-0.7734761 h -2.8125 L 1.440625,-4.9336451 v 0.1640707 c 1.0664062,0.2343867 1.4296875,0.3632994 1.828125,0.6914408 0.3515625,0.2812641 0.5859375,0.8320729 0.5859375,1.4180397 0,1.1953722 -0.890625,2.27355114 -1.8867188,2.27355114 -0.234375,0 -0.4335937,-0.0820354 -0.75,-0.31642207 -0.2695312,-0.21094805 -0.4335937,-0.2929834 -0.60937495,-0.2929834 -0.2578125,0 -0.4453125,0.18750937 -0.4453125,0.44533476 0,0.39845743 0.43359375,0.63284414 1.17187495,0.63284414 1.8164063,0 3.2695313,-1.41803967 3.2695313,-3.16422067 0,-0.6797215 -0.2460938,-1.2656883 -0.7265625,-1.7110231 C 3.4679687,-5.1797512 3.08125,-5.3555412 2.190625,-5.5782086 Z M -12.079883,-26.347802 c -1.476562,0.17579 -2.203125,0.433616 -3.152344,1.136776 -1.394531,1.031301 -2.238281,2.589973 -2.238281,4.160364 0,1.41804 0.796875,2.332148 2.015625,2.332148 1.476563,0 2.730469,-1.40632 2.730469,-3.058747 0,-1.125056 -0.785156,-1.945409 -1.875,-1.945409 -0.304688,0 -0.667969,0.09375 -0.960938,0.234386 l -0.04687,-0.02344 c 0.761719,-1.394601 2.25,-2.507938 3.539063,-2.66029 z m -2.871094,3.023589 c 0.761719,0 1.242188,0.550809 1.242188,1.394601 0,0.750037 -0.257813,1.617268 -0.667969,2.191516 -0.328125,0.492212 -0.714844,0.726599 -1.183594,0.726599 -0.679687,0 -1.066406,-0.53909 -1.066406,-1.441479 0,-0.750037 0.210938,-1.664145 0.503906,-2.144638 0.292969,-0.503932 0.65625,-0.726599 1.171875,-0.726599 z m 0,0"
       style="fill:#231f20;fill-opacity:1;fill-rule:nonzero;stroke:none"
       aria-label="5&#10;6"
       transform="matrix(1.3333333,0,0,1.3332667,189.76667,63.433333)" />
    <path
       id="path26"
       d="m 1182.25,1537.25 v -259"
       style="fill:none;stroke:#231f20;stroke-width:2.5;stroke-linecap:butt;stroke-linejoin:miter;stroke-miterlimit:3.8637;stroke-dasharray:none;stroke-opacity:1"
       transform="matrix(0.13333333,0,0,-0.13333333,0,239.6)" />
    <path
       id="path27"
       d="m 1182.25,1535.25 h -15 l 15,37 15,-37 h -15"
       style="fill:#231f20;fill-opacity:1;fill-rule:evenodd;stroke:none"
       transform="matrix(0.13333333,0,0,-0.13333333,0,239.6)" />
    <path
       id="path28"
       d="m 1182.25,1278.25 h 260"
       style="fill:none;stroke:#231f20;stroke-width:2.5;stroke-linecap:butt;stroke-linejoin:miter;stroke-miterlimit:3.8637;stroke-dasharray:none;stroke-opacity:1"
       transform="matrix(0.13333333,0,0,-0.13333333,0,239.6)" />
    <path
       id="path29"
       d="m 1439.25,1278.25 v 15 l 38,-15 -38,-15 v 15"
       style="fill:#231f20;fill-opacity:1;fill-rule:evenodd;stroke:none"
       transform="matrix(0.13333333,0,0,-0.13333333,0,239.6)" />
    <path
       id="path30"
       d="M 0.53867188,-3.9064453e-4 H 3.6089844 V -0.16446135 h -0.1875 c -0.5390625,0 -0.7617188,-0.10547402 -0.7617188,-0.35158008 0,-0.10547402 0.035156,-0.26954472 0.140625,-0.57424747 0.011719,-0.082035 0.023437,-0.1289127 0.058594,-0.246106 l 1.5703125,-5.7073166 c 0.058594,-0.1992288 0.070312,-0.2578254 0.070312,-0.3164221 0,-0.046877 -0.023437,-0.082035 -0.058594,-0.082035 0,0 -0.3046875,0.058597 -0.9023437,0.1757901 l -0.984375,0.1992287 c -0.023437,0.011719 -0.1054688,0.023439 -0.234375,0.046877 v 0.1640707 l 0.6328125,-0.023439 c 0.2460937,-0.011719 0.4101562,0.1171933 0.4101562,0.3398607 0,0.082035 -0.023437,0.1523514 -0.070312,0.3750188 l -1.5234375,5.41433316 c -0.1289062,0.41017675 -0.3632812,0.51565078 -1.23046872,0.59768613 z m 4.69921872,0 H 8.3082031 V -0.16446135 h -0.1875 c -0.5390625,0 -0.7617187,-0.10547402 -0.7617187,-0.35158008 0,-0.10547402 0.035156,-0.26954472 0.140625,-0.57424747 0.011719,-0.082035 0.023437,-0.1289127 0.058594,-0.246106 l 1.5703125,-5.7073166 c 0.058594,-0.1992288 0.070312,-0.2578254 0.070312,-0.3164221 0,-0.046877 -0.023437,-0.082035 -0.058594,-0.082035 0,0 -0.3046875,0.058597 -0.9023438,0.1757901 l -0.984375,0.1992287 c -0.023437,0.011719 -0.1054687,0.023439 -0.234375,0.046877 v 0.1640707 l 0.6328125,-0.023439 c 0.2460938,-0.011719 0.4101563,0.1171933 0.4101563,0.3398607 0,0.082035 -0.023437,0.1523514 -0.070313,0.3750188 L 6.4683594,-0.75042814 C 6.3394531,-0.34025139 6.1050781,-0.23477736 5.2378906,-0.15274201 Z M -17.760156,-18.90075 h 3.070312 v -0.16407 h -0.1875 c -0.539062,0 -0.761718,-0.105474 -0.761718,-0.35158 0,-0.105474 0.03516,-0.269545 0.140625,-0.574248 0.01172,-0.08204 0.02344,-0.128913 0.05859,-0.246106 l 1.570313,-5.707317 c 0.05859,-0.199228 0.07031,-0.257825 0.07031,-0.316422 0,-0.04688 -0.02344,-0.08204 -0.05859,-0.08204 0,0 -0.304688,0.0586 -0.902344,0.17579 l -0.984375,0.199229 c -0.02344,0.01172 -0.105469,0.02344 -0.234375,0.04688 v 0.164071 l 0.632812,-0.02344 c 0.246094,-0.01172 0.410157,0.117193 0.410157,0.339861 0,0.08203 -0.02344,0.152351 -0.07031,0.375019 l -1.523437,5.414333 c -0.128907,0.410177 -0.363282,0.515651 -1.230469,0.597686 z m 9.3662107,-1.535233 c -0.2578125,0.53909 -0.4804688,0.679722 -1.0898438,0.70316 h -2.0976559 v -0.0586 l 2.1210934,-2.109481 c 1.2773438,-1.289127 1.6289063,-1.839935 1.6289063,-2.578254 0,-1.04302 -0.7734375,-1.863374 -1.78125,-1.863374 -0.3867188,0 -0.7968747,0.105474 -1.1249997,0.292983 -0.5625,0.304703 -0.867188,0.679722 -1.183594,1.464917 l 0.234375,0.08204 c 0.410156,-0.71488 0.878906,-1.031302 1.535156,-1.031302 0.7968752,0 1.3828127,0.574248 1.3828127,1.336004 0,0.234387 -0.035156,0.445335 -0.1054688,0.585967 -0.2578125,0.597686 -0.7734375,1.289127 -1.4882809,2.062603 l -2.308594,2.461061 v 0.187509 h 3.9140624 l 0.5507813,-1.453197 z m 0,0"
       style="fill:#231f20;fill-opacity:1;fill-rule:nonzero;stroke:none"
       aria-label="11&#10;12"
       transform="matrix(1.3333333,0,0,1.3332667,341.63333,214.63333)" />
    <path
       id="path31"
       d="m 2341.25,402.25 v -260"
       style="fill:none;stroke:#231f20;stroke-width:2.5;stroke-linecap:butt;stroke-linejoin:miter;stroke-miterlimit:3.8637;stroke-dasharray:none;stroke-opacity:1"
       transform="matrix(0.13333333,0,0,-0.13333333,0,239.6)" />
    <path
       id="path32"
       d="m 2341.25,399.25 h -15 l 15,38 15,-38 h -15"
       style="fill:#231f20;fill-opacity:1;fill-rule:evenodd;stroke:none"
       transform="matrix(0.13333333,0,0,-0.13333333,0,239.6)" />
    <path
       id="path33"
       d="m 2341.25,142.25 h 260"
       style="fill:none;stroke:#231f20;stroke-width:2.5;stroke-linecap:butt;stroke-linejoin:miter;stroke-miterlimit:3.8637;stroke-dasharray:none;stroke-opacity:1"
       transform="matrix(0.13333333,0,0,-0.13333333,0,239.6)" />
    <path
       id="path34"
       d="m 2598.25,142.25 v 15 l 38,-15 -38,-15 v 15"
       style="fill:#231f20;fill-opacity:1;fill-rule:evenodd;stroke:none"
       transform="matrix(0.13333333,0,0,-0.13333333,0,239.6)" />
    <path
       id="path35"
       d="M 5.9064453,-7.2183296 5.8478516,-7.3238037 H 1.7111328 l -0.89062499,1.4883557 0.1640625,0.105474 C 1.4884766,-6.3510988 1.7931641,-6.5151695 2.4376953,-6.5268888 h 2.4492188 l 0.023437,0.035158 -4.04296879,6.58626678 H 1.6408203 Z M -14.279102,-23.106819 c 1.3125,-0.421896 1.804688,-0.902389 1.804688,-1.675865 0,-0.914109 -0.808594,-1.558672 -1.921875,-1.558672 -1.183594,0 -1.980469,0.679721 -1.980469,1.652426 0,0.597686 0.210938,1.019583 0.949219,1.828217 -1.382813,0.445334 -2.144531,1.218811 -2.144531,2.191516 0,0.292983 0.09375,0.621124 0.257812,0.902388 0.363281,0.621125 1.019531,0.949267 1.933594,0.949267 1.359375,0 2.367187,-0.855512 2.367187,-1.980568 0,-0.738318 -0.328125,-1.336004 -1.265625,-2.308709 z m -0.902343,0.421896 c 1.207031,1.253969 1.335937,1.453197 1.335937,2.074322 0,0.902389 -0.621094,1.546953 -1.488281,1.546953 -0.867188,0 -1.488281,-0.644564 -1.488281,-1.546953 0,-0.902389 0.597656,-1.664145 1.640625,-2.074322 z m 0.703125,-0.609406 c -0.855469,-0.808634 -1.042969,-1.089898 -1.042969,-1.546952 0,-0.773476 0.421875,-1.24225 1.125,-1.24225 0.703125,0 1.171875,0.515651 1.171875,1.300847 0,0.69144 -0.292969,1.043021 -1.253906,1.488355 z m 0,0"
       style="fill:#231f20;fill-opacity:1;fill-rule:nonzero;stroke:none"
       aria-label="7&#10;8"
       transform="matrix(1.3333333,0,0,1.3332667,194.43333,214.23333)" />
    <path
       id="path36"
       d="m 1214.25,402.25 v -259"
       style="fill:none;stroke:#231f20;stroke-width:2.5;stroke-linecap:butt;stroke-linejoin:miter;stroke-miterlimit:3.8637;stroke-dasharray:none;stroke-opacity:1"
       transform="matrix(0.13333333,0,0,-0.13333333,0,239.6)" />
    <path
       id="path37"
       d="m 1214.25,400.25 h -15 l 15,37 15,-37 h -15"
       style="fill:#231f20;fill-opacity:1;fill-rule:evenodd;stroke:none"
       transform="matrix(0.13333333,0,0,-0.13333333,0,239.6)" />
    <path
       id="path38"
       d="m 1214.25,143.25 h 259"
       style="fill:none;stroke:#231f20;stroke-width:2.5;stroke-linecap:butt;stroke-linejoin:miter;stroke-miterlimit:3.8637;stroke-dasharray:none;stroke-opacity:1"
       transform="matrix(0.13333333,0,0,-0.13333333,0,239.6)" />
    <path
       id="path39"
       d="m 1471.25,143.25 v 15 l 37,-15 -37,-15 v 15"
       style="fill:#231f20;fill-opacity:1;fill-rule:evenodd;stroke:none"
       transform="matrix(0.13333333,0,0,-0.13333333,0,239.6)" />
    <path
       id="path40"
       d="M 5.6378906,-1.3705763 H 2.3214844 c 0.2109375,-0.4218961 0.4570312,-0.6562829 1.59375,-1.4766364 1.359375,-0.9961435 1.7578125,-1.570391 1.7578125,-2.6485699 0,-1.500075 -1.0546875,-2.4727799 -2.6835938,-2.4727799 -1.6171875,0 -2.55468747,0.9609856 -2.55468747,2.6134119 v 0.2695448 H 1.9113281 v -0.2461061 c 0,-0.8789502 0.4101563,-1.3828816 1.1132813,-1.3828816 0.6796875,0 1.1015625,0.4804927 1.1015625,1.2539689 0,0.8672309 -0.2578125,1.1953723 -2.0039063,2.4259026 C 0.80976563,-2.1323332 0.39960938,-1.4526117 0.32929688,5.859668e-4 H 5.6378906 Z M 114.8918,-117.59709 c 0.58593,0 0.62109,0 0.90234,0.082 0.51563,0.14064 0.84375,0.59769 0.84375,1.16022 0,0.70316 -0.48047,1.18365 -1.16016,1.18365 -0.72656,0 -1.11328,-0.42189 -1.16015,-1.21881 h -1.5 c 0.0117,1.55867 1.03125,2.5431 2.63672,2.5431 1.65234,0 2.73047,-0.98443 2.73047,-2.50794 0,-0.90239 -0.39844,-1.50008 -1.27735,-1.93369 0.71485,-0.44534 1.01953,-0.94927 1.01953,-1.66415 0,-1.28912 -0.97265,-2.1212 -2.47265,-2.1212 -1.13672,0 -2.00391,0.49222 -2.34375,1.34773 -0.15235,0.37502 -0.1875,0.62112 -0.1875,1.2774 h 1.42968 c 0.0117,-0.42189 0.0469,-0.63284 0.11719,-0.83207 0.14063,-0.33986 0.49219,-0.55081 0.94922,-0.55081 0.60938,0 0.96094,0.37502 0.96094,1.0313 0,0.7852 -0.44531,1.17194 -1.35938,1.17194 h -0.1289 z m 3.15234,114.7967547 h -0.80859 v -4.8049278 h -1.81641 l -2.84766,4.7814891 v 1.3008463 h 3.11719 v 1.72274238 h 1.54688 V -1.5229277 h 0.80859 z m -2.35547,0 h -2.03906 l 2.03906,-3.3400108 z m 67.18945,-52.6373977 c -0.082,-0.503931 -0.17578,-0.750037 -0.375,-1.043021 -0.41015,-0.562528 -1.125,-0.890669 -1.96875,-0.890669 -0.97265,0 -1.75781,0.433615 -2.23828,1.207091 -0.45703,0.761757 -0.64453,1.628988 -0.64453,3.058747 0,1.336004 0.16406,2.168077 0.5625,2.800921 0.44531,0.726599 1.26563,1.160215 2.19141,1.160215 1.54687,0 2.60156,-1.160215 2.60156,-2.871238 0,-1.488355 -0.92578,-2.531376 -2.26172,-2.531376 -0.64453,0 -1.0664,0.187509 -1.54687,0.70316 v -0.164071 c 0.0234,-0.726599 0.0586,-0.960985 0.17578,-1.253969 0.19922,-0.574247 0.57422,-0.867231 1.11328,-0.867231 0.50391,0 0.76172,0.199229 0.96094,0.691441 z m -2.51953,2.1212 c 0.72657,0 1.1836,0.550809 1.1836,1.41804 0,0.820353 -0.50391,1.429759 -1.1836,1.429759 -0.70312,0 -1.18359,-0.574248 -1.18359,-1.406321 0,-0.855511 0.48047,-1.441478 1.18359,-1.441478 z m 0,0"
       style="fill:#231f20;fill-opacity:1;fill-rule:nonzero;stroke:none"
       aria-label="2&#10;3&#10;4&#10;6"
       transform="matrix(1.3333333,0,0,1.3332667,79.1,221.3)" />
    <path
       id="path41"
       d="M 5.8163676,-7.804851 H 0.31419295 v 1.3921696 H 4.2088045 C 3.7281929,-5.9154779 2.8001152,-4.5067348 2.4852317,-3.8272235 1.9383288,-2.6836556 1.6731638,-1.6561018 1.4577172,0.00124301 H 3.0155618 C 3.1481444,-2.4516273 3.9602123,-4.3575738 5.8163676,-6.5784158 Z m 0,0"
       style="fill:#231f20;fill-opacity:1;fill-rule:nonzero;stroke:none"
       aria-label="7"
       transform="matrix(0.94280904,-0.94280904,0.94277304,0.94277304,109.36667,117.03333)" />
    <path
       id="path42"
       d="m 0.41556334,-1.8237698 c 0.0331456,1.20986166 1.04408736,2.08825441 2.38648536,2.08825441 1.0109418,0 1.7732913,-0.4143362 2.2207573,-1.20986171 0.4143203,-0.6960848 0.6629126,-1.8727996 0.6629126,-3.1158082 0,-1.1601414 -0.182301,-2.0385341 -0.5469029,-2.6351783 C 4.6416312,-7.525036 3.8792817,-7.972519 2.9346312,-7.972519 c -1.5578446,0 -2.63507757,1.1269944 -2.63507757,2.7511923 0,1.6076245 0.96122327,2.7180455 2.33676697,2.7180455 0.3977475,0 0.7789223,-0.1160141 1.0275145,-0.2983221 0.1325825,-0.099441 0.2154466,-0.1823079 0.4806117,-0.48063 0,1.5081838 -0.4308932,2.2208421 -1.2926796,2.2208421 -0.5469029,0 -0.9115049,-0.2817486 -0.9446505,-0.7623786 z M 2.9014856,-6.712937 c 0.7457767,0 1.1932427,0.5634972 1.1932427,1.4916103 0,0.8618193 -0.4640388,1.44189 -1.1766699,1.44189 -0.6960582,0 -1.1435242,-0.5634972 -1.1435242,-1.4584634 0,-0.9115397 0.4308932,-1.4750369 1.1269514,-1.4750369 z m 5.5684659,5.104622 H 6.81267 v 1.60762443967 h 1.6572815 z m 0,0"
       style="fill:#231f20;fill-opacity:1;fill-rule:nonzero;stroke:none"
       aria-label="9."
       transform="matrix(0.94280904,0.94280904,-0.94277304,0.94277304,124.03333,180.36667)" />
    <path
       id="path43"
       d="M 5.3787109,-7.8048824 H 1.2068359 L 0.51542969,-3.4570088 H 1.8982422 c 0.1757812,-0.3867381 0.5273437,-0.5976861 0.9960937,-0.5976861 0.7851563,0 1.2539063,0.5625281 1.2539063,1.5117943 0,0.9141082 -0.46875,1.4766364 -1.2539063,1.4766364 -0.6679687,0 -1.0429687,-0.3398608 -1.078125,-0.9727049 H 0.29277344 c 0.0234375,1.37116227 1.05468746,2.29698981 2.57812496,2.29698981 1.6757813,0 2.8125,-1.14849492 2.8125,-2.83607931 0,-1.605549 -0.984375,-2.6954472 -2.4257812,-2.6954472 -0.515625,0 -0.9023438,0.1289126 -1.359375,0.4804927 l 0.2578125,-1.6289877 h 3.2226562 z m 0,0"
       style="fill:#231f20;fill-opacity:1;fill-rule:nonzero;stroke:none"
       aria-label="5"
       transform="matrix(1.3333333,0,0,1.3332667,164.56667,155.43333)" />
    <path
       id="path44"
       d="m 4.5078057,-4.2439076 c 0.2651651,-0.149161 0.3811748,-0.2154548 0.4971845,-0.3314689 0.3148835,-0.2983221 0.4971844,-0.7623787 0.4971844,-1.292729 0,-1.2098617 -1.0440873,-2.1048279 -2.4859222,-2.1048279 -1.4584078,0 -2.51906794,0.8949662 -2.51906794,2.1214014 0,0.7458051 0.31488348,1.2264351 1.02751454,1.6076244 -0.91150484,0.4972035 -1.27610677,1.0772741 -1.27610677,1.9888138 0,1.47503685 1.12695147,2.51916407 2.76766017,2.51916407 1.6241359,0 2.7676601,-1.04412722 2.7676601,-2.51916407 0,-0.9115397 -0.3811747,-1.4916103 -1.2761068,-1.9888138 z M 3.0162524,-6.7299248 c 0.6794854,0 1.160097,0.4309097 1.160097,1.0275538 0,0.5966441 -0.4806116,1.0275538 -1.160097,1.0275538 -0.6794855,0 -1.1600971,-0.4309097 -1.1600971,-1.0275538 0,-0.5966441 0.4806116,-1.0275538 1.1600971,-1.0275538 z M 2.9996795,-3.63069 c 0.7623495,0 1.2429612,0.4972034 1.2429612,1.3258758 0,0.7458052 -0.4971845,1.2430086 -1.2429612,1.2430086 -0.7457766,0 -1.2263883,-0.4972034 -1.2263883,-1.2761555 0,-0.7955255 0.4806117,-1.2927289 1.2263883,-1.2927289 z m 0,0"
       style="fill:#231f20;fill-opacity:1;fill-rule:nonzero;stroke:none"
       aria-label="8"
       transform="matrix(0.94280904,-0.94280904,0.94277304,0.94277304,255.76667,118.76667)" />
    <path
       id="path45"
       d="M 2.6182286,-5.3849895 V 0.00138112 H 4.1595004 V -7.8047129 H 3.1485587 c -0.2485923,0.9281131 -1.0606602,1.4087431 -2.40305823,1.4087431 v 1.0109803 z M 9.1168437,-7.972519 c -0.8286407,0 -1.5412718,0.3480424 -2.0218834,1.0109803 -0.447466,0.5966441 -0.6629126,1.591051 -0.6629126,3.0992348 0,1.408743 0.1823009,2.3534296 0.5469029,2.96664715 0.4806116,0.74580516 1.2263883,1.16014136 2.1378931,1.16014136 0.8617864,0 1.5412723,-0.36461586 2.0218833,-1.01098033 0.447466,-0.59664408 0.662913,-1.59105098 0.662913,-3.06608788 0,-1.4253165 -0.182301,-2.40315 -0.546903,-2.9997941 C 10.790698,-7.5581828 10.028349,-7.972519 9.1168437,-7.972519 Z m 0,1.2430086 c 0.3977476,0 0.7126311,0.2320282 0.8949323,0.629791 0.165728,0.3314689 0.248592,1.1767148 0.248592,2.2539889 0,0.8783927 -0.08286,1.740212 -0.198874,2.071681 -0.1657279,0.4474831 -0.4971843,0.7126583 -0.9446503,0.7126583 -0.3977475,0 -0.712631,-0.2154549 -0.894932,-0.6132176 -0.1657281,-0.331469 -0.2485922,-1.1435679 -0.2485922,-2.1876951 0,-0.9115397 0.082864,-1.8065059 0.1988738,-2.1214014 0.1657281,-0.48063 0.5137572,-0.7458051 0.9446504,-0.7458051 z m 0,0"
       style="fill:#231f20;fill-opacity:1;fill-rule:nonzero;stroke:none"
       aria-label="10"
       transform="matrix(0.94280904,0.94280904,-0.94277304,0.94277304,269.9,174.23333)" />
    <path
       id="path46"
       d="M 0.56113281,0 V -6.4921875 H 3.9361328 V 0 Z M 1.1236328,-0.5625 h 2.25 v -5.3671875 h -2.25 z M 113.26328,-0.50097656 V -6.9931641 h 3.375 v 6.49218754 z m 0.5625,-0.56250004 h 2.25 v -5.3671875 h -2.25 z M 0.56113281,112.5 v -6.49219 H 3.9361328 V 112.5 Z m 0.56249999,-0.5625 h 2.25 v -5.36719 h -2.25 z m 225.0380872,0.46289 v -6.49219 h 3.375 v 6.49219 z m 0.5625,-0.5625 h 2.25 v -5.36719 h -2.25 z M 225.66367,-0.09960937 V -6.5917969 h 3.375 v 6.49218753 z m 0.5625,-0.5625 h 2.25 V -6.0292969 h -2.25 z M 112.7623,112.20117 v -6.49219 h 3.375 v 6.49219 z m 0.5625,-0.5625 h 2.25 v -5.36719 h -2.25 z m 0,0"
       style="fill:#231f20;fill-opacity:1;fill-rule:nonzero;stroke:none"
       aria-label="●&#10;●&#10;●&#10;●&#10;●&#10;●"
       transform="matrix(1.3333333,0,0,1.3333333,2.9666667,84.5)" />
    <path
       id="path47"
       d="m 4.8283203,-1.3371762 c -0.1054687,0.1171933 -0.1640625,0.1875093 -0.2695312,0.3281414 -0.2695313,0.36329939 -0.421875,0.48049275 -0.5625,0.48049275 -0.1640625,0 -0.28125,-0.15235137 -0.3632813,-0.49221215 -0.035156,-0.1289127 -0.035156,-0.1523513 -0.046875,-0.1875093 -0.2929687,-1.2305303 -0.4335937,-1.7813391 -0.4335937,-1.9571291 0.5390625,-0.9375469 0.9609375,-1.4531977 1.1835937,-1.4531977 0.070312,0 0.1757813,0.035158 0.28125,0.093755 0.1523438,0.082035 0.234375,0.105474 0.3398438,0.105474 0.234375,0 0.4101562,-0.17579 0.4101562,-0.4336154 0,-0.2578254 -0.2109375,-0.4453348 -0.4921875,-0.4453348 -0.5273437,0 -0.9726562,0.4336155 -1.8164062,1.7227424 L 2.9298828,-4.2318522 C 2.7658203,-5.0522057 2.6251953,-5.2983118 2.3087891,-5.2983118 c -0.28125,0 -0.6679688,0.105474 -1.40625004,0.3515801 -0.0703125,0.023439 -0.0703125,0.023439 -0.12890625,0.046877 l 0.046875,0.1875094 C 1.2892578,-4.8412577 1.3712891,-4.852977 1.4884766,-4.852977 c 0.3046875,0 0.375,0.1171933 0.5390625,0.8320728 l 0.3515625,1.4766364 -0.984375,1.4063203 c -0.2578125,0.35158006 -0.48046879,0.57424744 -0.60937504,0.57424744 -0.0820313,0 -0.19921875,-0.035158 -0.31640625,-0.10547402 -0.15234375,-0.0937547 -0.28125,-0.1289127 -0.38671875,-0.1289127 -0.234375,0 -0.41015625,0.18750938 -0.41015625,0.4218961 0,0.31642207 0.234375,0.50393144 0.609375,0.50393144 0.36328125,0 0.515625,-0.10547402 1.11328129,-0.82035351 0.3164062,-0.39845745 0.5859375,-0.76175685 1.078125,-1.41803965 l 0.3632812,1.44147832 c 0.1523438,0.6211248 0.3046875,0.79691484 0.6914063,0.79691484 0.4570312,0 0.7734375,-0.28126406 1.4648437,-1.35944296 z M -270.82305,-158.01298 c 0.15235,-0.0352 0.2461,-0.0469 0.375,-0.0469 0.49219,0 0.72657,0.19923 0.96094,0.8438 0.32813,0.89067 0.94922,3.4572 0.94922,3.91425 0,0.18751 -0.082,0.38674 -0.25781,0.60941 -0.32813,0.44533 -0.60938,0.7852 -0.75,0.93755 -0.25782,0.25782 -0.38672,0.3633 -0.53907,0.3633 -0.082,0 -0.15234,-0.0352 -0.29296,-0.14064 -0.17579,-0.14063 -0.29297,-0.19922 -0.44532,-0.19922 -0.25781,0 -0.46875,0.19922 -0.46875,0.46877 0,0.31642 0.25782,0.52737 0.6211,0.52737 0.76172,0 2.32031,-1.79306 3.63281,-4.17208 0.82031,-1.47664 1.14844,-2.34387 1.14844,-2.92984 0,-0.3633 -0.29297,-0.668 -0.65625,-0.668 -0.28125,0 -0.46875,0.18751 -0.46875,0.44533 0,0.19923 0.0937,0.31643 0.33984,0.46878 0.22266,0.14063 0.30469,0.2461 0.30469,0.41017 0,0.4805 -0.4336,1.40632 -1.46485,3.10563 l -0.23437,-1.3946 c -0.1875,-1.06646 -0.85547,-3.03531 -1.03125,-3.03531 h -0.0469 c -0.0234,0.0117 -0.0586,0.0117 -0.11718,0.0117 -0.0937,0.0117 -0.53907,0.0937 -1.17188,0.21095 -0.0586,0.0117 -0.21094,0.0469 -0.38672,0.0703 z m 0,0"
       style="fill:#231f20;fill-opacity:1;fill-rule:nonzero;stroke:none"
       aria-label="x&#10;y"
       transform="matrix(1.3333333,0,0,1.3332667,376.43333,220.9)" />
    <path
       id="path48"
       d="m 2376.25,71.25 h 475"
       style="fill:none;stroke:#231f20;stroke-width:2.5;stroke-linecap:butt;stroke-linejoin:miter;stroke-miterlimit:3.8637;stroke-dasharray:none;stroke-opacity:1"
       transform="matrix(0.13333333,0,0,-0.13333333,0,239.6)" />
    <path
       id="path49"
       d="m 2848.25,71.25 v 15 l 38,-15 -38,-15 v 15"
       style="fill:#231f20;fill-opacity:1;fill-rule:evenodd;stroke:none"
       transform="matrix(0.13333333,0,0,-0.13333333,0,239.6)" />
    <path
       id="path50"
       d="m 18.25,1272.25 v 476"
       style="fill:none;stroke:#231f20;stroke-width:2.5;stroke-linecap:butt;stroke-linejoin:miter;stroke-miterlimit:3.8637;stroke-dasharray:none;stroke-opacity:1"
       transform="matrix(0.13333333,0,0,-0.13333333,0,239.6)" />
    <path
       id="path51"
       d="m 18.25,1745.25 h -15 l 15,38 15,-38 h -15"
       style="fill:#231f20;fill-opacity:1;fill-rule:evenodd;stroke:none"
       transform="matrix(0.13333333,0,0,-0.13333333,0,239.6)" />
  </g>
</svg>
