<?xml version="1.0" encoding="UTF-8" standalone="no"?>
<!-- Created with Inkscape (http://www.inkscape.org/) -->

<svg
   version="1.1"
   id="svg1"
   width="560"
   height="189.33333"
   viewBox="0 0 560 189.33333"
   sodipodi:docname="exs5_3.eps"
   xmlns:inkscape="http://www.inkscape.org/namespaces/inkscape"
   xmlns:sodipodi="http://sodipodi.sourceforge.net/DTD/sodipodi-0.dtd"
   xmlns="http://www.w3.org/2000/svg"
   xmlns:svg="http://www.w3.org/2000/svg">
  <defs
     id="defs1">
    <clipPath
       clipPathUnits="userSpaceOnUse"
       id="clipPath2">
      <path
         d="M 0,9 V 1420 H 4200 V 9 Z"
         transform="translate(0,-2.5000001e-5)"
         id="path2" />
    </clipPath>
    <clipPath
       clipPathUnits="userSpaceOnUse"
       id="clipPath4">
      <path
         d="M 0,9 V 1420 H 4200 V 9 Z"
         transform="translate(0,-2.5000001e-5)"
         id="path4" />
    </clipPath>
    <clipPath
       clipPathUnits="userSpaceOnUse"
       id="clipPath6">
      <path
         d="M 0,9 V 1420 H 4200 V 9 Z"
         transform="translate(0,-2.5000001e-5)"
         id="path6" />
    </clipPath>
    <clipPath
       clipPathUnits="userSpaceOnUse"
       id="clipPath8">
      <path
         d="M 0,9 V 1420 H 4200 V 9 Z"
         transform="translate(0,-2.5000001e-5)"
         id="path8" />
    </clipPath>
    <clipPath
       clipPathUnits="userSpaceOnUse"
       id="clipPath10">
      <path
         d="M 0,9 V 1420 H 4200 V 9 Z"
         transform="translate(0,-2.5000001e-5)"
         id="path10" />
    </clipPath>
    <clipPath
       clipPathUnits="userSpaceOnUse"
       id="clipPath12">
      <path
         d="M 0,9 V 1420 H 4200 V 9 Z"
         transform="translate(0,-2.5000001e-5)"
         id="path12" />
    </clipPath>
    <clipPath
       clipPathUnits="userSpaceOnUse"
       id="clipPath14">
      <path
         d="M 0,9 V 1420 H 4200 V 9 Z"
         transform="matrix(0.1,0,0,-0.1,-81.500005,4.3332026)"
         id="path14" />
    </clipPath>
    <clipPath
       clipPathUnits="userSpaceOnUse"
       id="clipPath16">
      <path
         d="M 0,9 V 1420 H 4200 V 9 Z"
         transform="translate(0,-2.5000001e-5)"
         id="path16" />
    </clipPath>
    <clipPath
       clipPathUnits="userSpaceOnUse"
       id="clipPath18">
      <path
         d="M 0,9 V 1420 H 4200 V 9 Z"
         transform="matrix(0.1,0,0,-0.1,-140.75001,4.3332026)"
         id="path18" />
    </clipPath>
    <clipPath
       clipPathUnits="userSpaceOnUse"
       id="clipPath20">
      <path
         d="M 0,9 V 1420 H 4200 V 9 Z"
         transform="translate(0,-2.5000001e-5)"
         id="path20" />
    </clipPath>
    <clipPath
       clipPathUnits="userSpaceOnUse"
       id="clipPath22">
      <path
         d="M 0,9 V 1420 H 4200 V 9 Z"
         transform="matrix(0.1,0,0,-0.1,-200.00001,4.3332026)"
         id="path22" />
    </clipPath>
    <clipPath
       clipPathUnits="userSpaceOnUse"
       id="clipPath24">
      <path
         d="M 0,9 V 1420 H 4200 V 9 Z"
         transform="translate(0,-2.5000001e-5)"
         id="path24" />
    </clipPath>
    <clipPath
       clipPathUnits="userSpaceOnUse"
       id="clipPath26">
      <path
         d="M 0,9 V 1420 H 4200 V 9 Z"
         transform="matrix(0.1,0,0,-0.1,-259.25001,4.3332026)"
         id="path26" />
    </clipPath>
    <clipPath
       clipPathUnits="userSpaceOnUse"
       id="clipPath28">
      <path
         d="M 0,9 V 1420 H 4200 V 9 Z"
         transform="translate(0,-2.5000001e-5)"
         id="path28" />
    </clipPath>
    <clipPath
       clipPathUnits="userSpaceOnUse"
       id="clipPath30">
      <path
         d="M 0,9 V 1420 H 4200 V 9 Z"
         transform="matrix(0.1,0,0,-0.1,-318.50001,4.3332026)"
         id="path30" />
    </clipPath>
    <clipPath
       clipPathUnits="userSpaceOnUse"
       id="clipPath32">
      <path
         d="M 0,9 V 1420 H 4200 V 9 Z"
         transform="translate(0,-2.5000001e-5)"
         id="path32" />
    </clipPath>
    <clipPath
       clipPathUnits="userSpaceOnUse"
       id="clipPath34">
      <path
         d="M 0,9 V 1420 H 4200 V 9 Z"
         transform="matrix(0.1,0,0,-0.1,-375.00001,4.3332026)"
         id="path34" />
    </clipPath>
    <clipPath
       clipPathUnits="userSpaceOnUse"
       id="clipPath36">
      <path
         d="M 0,9 V 1420 H 4200 V 9 Z"
         transform="translate(0,-2.5000001e-5)"
         id="path36" />
    </clipPath>
    <clipPath
       clipPathUnits="userSpaceOnUse"
       id="clipPath38">
      <path
         d="M 0,9 V 1420 H 4200 V 9 Z"
         transform="matrix(0.1,0,0,-0.1,-26.5,12.750003)"
         id="path38" />
    </clipPath>
    <clipPath
       clipPathUnits="userSpaceOnUse"
       id="clipPath40">
      <path
         d="M 0,9 V 1420 H 4200 V 9 Z"
         transform="translate(0,-2.5000001e-5)"
         id="path40" />
    </clipPath>
    <clipPath
       clipPathUnits="userSpaceOnUse"
       id="clipPath42">
      <path
         d="M 0,9 V 1420 H 4200 V 9 Z"
         transform="matrix(0.1,0,0,-0.1,-26.5,39.916803)"
         id="path42" />
    </clipPath>
    <clipPath
       clipPathUnits="userSpaceOnUse"
       id="clipPath44">
      <path
         d="M 0,9 V 1420 H 4200 V 9 Z"
         transform="translate(0,-2.5000001e-5)"
         id="path44" />
    </clipPath>
    <clipPath
       clipPathUnits="userSpaceOnUse"
       id="clipPath46">
      <path
         d="M 0,9 V 1420 H 4200 V 9 Z"
         transform="matrix(0.1,0,0,-0.1,-26.5,67.000002)"
         id="path46" />
    </clipPath>
    <clipPath
       clipPathUnits="userSpaceOnUse"
       id="clipPath48">
      <path
         d="M 0,9 V 1420 H 4200 V 9 Z"
         transform="translate(0,-2.5000001e-5)"
         id="path48" />
    </clipPath>
    <clipPath
       clipPathUnits="userSpaceOnUse"
       id="clipPath50">
      <path
         d="M 0,9 V 1420 H 4200 V 9 Z"
         transform="matrix(0.1,0,0,-0.1,-46.250001,94.083202)"
         id="path50" />
    </clipPath>
    <clipPath
       clipPathUnits="userSpaceOnUse"
       id="clipPath52">
      <path
         d="M 0,9 V 1420 H 4200 V 9 Z"
         transform="translate(0,-2.5000001e-5)"
         id="path52" />
    </clipPath>
    <clipPath
       clipPathUnits="userSpaceOnUse"
       id="clipPath54">
      <path
         d="M 0,9 V 1420 H 4200 V 9 Z"
         transform="matrix(0.1,0,0,-0.1,-32.333201,121.167)"
         id="path54" />
    </clipPath>
    <clipPath
       clipPathUnits="userSpaceOnUse"
       id="clipPath56">
      <path
         d="m 546.668,163.332 h 3259.16 v 1085 H 546.668 Z"
         transform="translate(0,-2.5000001e-5)"
         id="path56" />
    </clipPath>
    <clipPath
       clipPathUnits="userSpaceOnUse"
       id="clipPath58">
      <path
         d="m 546.668,163.332 h 3259.16 v 1085 H 546.668 Z"
         transform="translate(0,-2.5000001e-5)"
         id="path58" />
    </clipPath>
    <clipPath
       clipPathUnits="userSpaceOnUse"
       id="clipPath60">
      <path
         d="M 0,9 H 4200 V 1420 H 0 Z"
         transform="matrix(0.1,0,0,-0.1,-185.583,132.75)"
         id="path60" />
    </clipPath>
    <clipPath
       clipPathUnits="userSpaceOnUse"
       id="clipPath62">
      <path
         d="m 546.668,163.332 h 3259.16 v 1085 H 546.668 Z"
         transform="translate(0,-2.5000001e-5)"
         id="path62" />
    </clipPath>
    <clipPath
       clipPathUnits="userSpaceOnUse"
       id="clipPath64">
      <path
         d="m 546.668,163.332 h 3259.16 v 1085 H 546.668 Z"
         transform="translate(0,-2.5000001e-5)"
         id="path64" />
    </clipPath>
  </defs>
  <sodipodi:namedview
     id="namedview1"
     pagecolor="#ffffff"
     bordercolor="#000000"
     borderopacity="0.25"
     inkscape:showpageshadow="2"
     inkscape:pageopacity="0.0"
     inkscape:pagecheckerboard="0"
     inkscape:deskcolor="#d1d1d1">
    <inkscape:page
       x="0"
       y="0"
       inkscape:label="1"
       id="page1"
       width="560"
       height="189.33333"
       margin="0"
       bleed="0" />
  </sodipodi:namedview>
  <g
     id="g1"
     inkscape:groupmode="layer"
     inkscape:label="1">
    <path
       id="path1"
       d="M 0,9 H 4200 V 1420 H 0 Z"
       style="fill:#ffffff;fill-opacity:1;fill-rule:nonzero;stroke:none"
       transform="matrix(0.13333333,0,0,-0.13333333,0,189.33333)"
       clip-path="url(#clipPath2)" />
    <path
       id="path3"
       d="m 546.668,164.168 h 3258.33 v 1084.16 H 546.668 Z"
       style="fill:#ffffff;fill-opacity:1;fill-rule:evenodd;stroke:none"
       transform="matrix(0.13333333,0,0,-0.13333333,0,189.33333)"
       clip-path="url(#clipPath4)" />
    <path
       id="path5"
       d="M 546.668,164.168 V 1248.33 H 3805 V 164.168 H 546.668"
       style="fill:none;stroke:#ffffff;stroke-width:5;stroke-linecap:butt;stroke-linejoin:round;stroke-miterlimit:10;stroke-dasharray:none;stroke-opacity:1"
       transform="matrix(0.13333333,0,0,-0.13333333,0,189.33333)"
       clip-path="url(#clipPath6)" />
    <path
       id="path7"
       d="M 546.668,164.168 H 3805"
       style="fill:none;stroke:#000000;stroke-width:5;stroke-linecap:butt;stroke-linejoin:round;stroke-miterlimit:10;stroke-dasharray:none;stroke-opacity:1"
       transform="matrix(0.13333333,0,0,-0.13333333,0,189.33333)"
       clip-path="url(#clipPath8)" />
    <path
       id="path9"
       d="M 546.668,164.168 V 1248.33"
       style="fill:none;stroke:#000000;stroke-width:5;stroke-linecap:butt;stroke-linejoin:round;stroke-miterlimit:10;stroke-dasharray:none;stroke-opacity:1"
       transform="matrix(0.13333333,0,0,-0.13333333,0,189.33333)"
       clip-path="url(#clipPath10)" />
    <path
       id="path11"
       d="M 842.5,164.168 V 197.5"
       style="fill:none;stroke:#000000;stroke-width:5;stroke-linecap:butt;stroke-linejoin:round;stroke-miterlimit:10;stroke-dasharray:none;stroke-opacity:1"
       transform="matrix(0.13333333,0,0,-0.13333333,0,189.33333)"
       clip-path="url(#clipPath12)" />
    <path
       id="path13"
       d="m 2.7548828,-7.2312531 c -0.6679687,0 -1.265625,0.3046875 -1.6289062,0.796875 -0.46875004,0.6328125 -0.69140629,1.59375 -0.69140629,2.9296875 0,2.4492187 0.79687499,3.73828123 2.32031249,3.73828123 1.5,0 2.3085938,-1.28906253 2.3085938,-3.66796873 0,-1.40625 -0.2109375,-2.34375 -0.6796875,-3 -0.375,-0.5039063 -0.9609375,-0.796875 -1.6289063,-0.796875 z m 0,0.7851562 c 0.9492188,0 1.4179688,0.9726563 1.4179688,2.9296875 0,2.0507813 -0.46875,3.01171878 -1.4414063,3.01171878 -0.9257812,0 -1.40625,-0.99609378 -1.40625,-2.98828128 0,-1.9804687 0.4804688,-2.953125 1.4296875,-2.953125 z m 0,0"
       style="fill:#000000;fill-opacity:1;fill-rule:nonzero;stroke:none"
       aria-label="0"
       transform="matrix(1.3333333,0,0,1.3333333,108.66667,183.55573)"
       clip-path="url(#clipPath14)" />
    <path
       id="path15"
       d="M 1435,164.168 V 197.5"
       style="fill:none;stroke:#000000;stroke-width:5;stroke-linecap:butt;stroke-linejoin:round;stroke-miterlimit:10;stroke-dasharray:none;stroke-opacity:1"
       transform="matrix(0.13333333,0,0,-0.13333333,0,189.33333)"
       clip-path="url(#clipPath16)" />
    <path
       id="path17"
       d="M 5.0634766,-0.86797187 H 1.3251953 C 1.4189453,-1.4656281 1.7353516,-1.8523469 2.6142578,-2.3796906 l 0.9960938,-0.5625 c 0.984375,-0.5507813 1.5,-1.2890625 1.5,-2.1796875 0,-0.5976563 -0.2460938,-1.1601563 -0.65625,-1.546875 -0.421875,-0.375 -0.9492188,-0.5625 -1.6171875,-0.5625 -0.9023438,0 -1.5703125,0.328125 -1.95703129,0.9375 -0.24609375,0.3867187 -0.36328125,0.8320312 -0.375,1.5703125 H 1.3837891 c 0.023437,-0.4921875 0.082031,-0.7851563 0.2109375,-1.0195313 0.2226562,-0.4453125 0.6796875,-0.7148437 1.21875,-0.7148437 0.796875,0 1.3945312,0.5742187 1.3945312,1.359375 0,0.5742187 -0.328125,1.078125 -0.9609375,1.4414062 l -0.9140625,0.5390625 c -1.47656249,0.84375 -1.91015624,1.5234375 -1.99218749,3.10546878 H 5.0634766 Z m 0,0"
       style="fill:#000000;fill-opacity:1;fill-rule:nonzero;stroke:none"
       aria-label="2"
       transform="matrix(1.3333333,0,0,1.3333333,187.66667,183.55573)"
       clip-path="url(#clipPath18)" />
    <path
       id="path19"
       d="M 2027.5,164.168 V 197.5"
       style="fill:none;stroke:#000000;stroke-width:5;stroke-linecap:butt;stroke-linejoin:round;stroke-miterlimit:10;stroke-dasharray:none;stroke-opacity:1"
       transform="matrix(0.13333333,0,0,-0.13333333,0,189.33333)"
       clip-path="url(#clipPath20)" />
    <path
       id="path21"
       d="M 3.2705078,-1.7468781 V -7.84375e-4 H 4.1494141 V -1.7468781 h 1.0546875 v -0.796875 H 4.1494141 v -4.6875 H 3.5048828 l -3.22265624,4.546875 v 0.9375 z m 0,-0.796875 H 1.0556641 l 2.2148437,-3.1875 z m 0,0"
       style="fill:#000000;fill-opacity:1;fill-rule:nonzero;stroke:none"
       aria-label="4"
       transform="matrix(1.3333333,0,0,1.3333333,266.66667,183.55573)"
       clip-path="url(#clipPath22)" />
    <path
       id="path23"
       d="M 2620,164.168 V 197.5"
       style="fill:none;stroke:#000000;stroke-width:5;stroke-linecap:butt;stroke-linejoin:round;stroke-miterlimit:10;stroke-dasharray:none;stroke-opacity:1"
       transform="matrix(0.13333333,0,0,-0.13333333,0,189.33333)"
       clip-path="url(#clipPath24)" />
    <path
       id="path25"
       d="m 4.9814453,-5.3445344 c -0.1757812,-1.1835937 -0.9375,-1.8867187 -2.015625,-1.8867187 -0.7734375,0 -1.4765625,0.3867187 -1.8984375,1.03125 -0.44531249,0.7148437 -0.63281249,1.59375 -0.63281249,2.90625 0,1.21875 0.1640625,1.9804687 0.59765629,2.62499998 0.375,0.5859375 0.9960937,0.90234375 1.78125,0.90234375 1.3476562,0 2.3203125,-1.01953125 2.3203125,-2.42578123 0,-1.3242188 -0.9023438,-2.2617188 -2.1796875,-2.2617188 -0.6914063,0 -1.2421875,0.2578125 -1.6289063,0.7851563 0.011719,-1.7929688 0.5742188,-2.7773438 1.5820313,-2.7773438 0.6210937,0 1.0546875,0.3984375 1.1953125,1.1015625 z m -2.1328125,1.6640625 c 0.8554688,0 1.3828125,0.5976563 1.3828125,1.5585938 0,0.9140625 -0.5976562,1.57031248 -1.40625,1.57031248 -0.8203125,0 -1.4414062,-0.69140628 -1.4414062,-1.60546878 0,-0.9023437 0.5976562,-1.5234375 1.4648437,-1.5234375 z m 0,0"
       style="fill:#000000;fill-opacity:1;fill-rule:nonzero;stroke:none"
       aria-label="6"
       transform="matrix(1.3333333,0,0,1.3333333,345.66667,183.55573)"
       clip-path="url(#clipPath26)" />
    <path
       id="path27"
       d="M 3212.5,164.168 V 197.5"
       style="fill:none;stroke:#000000;stroke-width:5;stroke-linecap:butt;stroke-linejoin:round;stroke-miterlimit:10;stroke-dasharray:none;stroke-opacity:1"
       transform="matrix(0.13333333,0,0,-0.13333333,0,189.33333)"
       clip-path="url(#clipPath28)" />
    <path
       id="path29"
       d="m 3.9150391,-3.8093781 c 0.7382812,-0.4453125 0.9609375,-0.8085938 0.9609375,-1.4882813 0,-1.1367187 -0.8671875,-1.9335937 -2.1210938,-1.9335937 -1.2539062,0 -2.13281249,0.796875 -2.13281249,1.921875 0,0.6914062 0.234375,1.0429687 0.96093749,1.5 -0.80859374,0.4101562 -1.20703124,0.9960937 -1.20703124,1.8046875 0,1.31249998 0.96093754,2.23828123 2.37890624,2.23828123 1.3945313,0 2.3789063,-0.92578125 2.3789063,-2.23828123 0,-0.8085938 -0.4101563,-1.3945313 -1.21875,-1.8046875 z M 2.7548828,-6.4460969 c 0.75,0 1.21875,0.4453125 1.21875,1.171875 0,0.6796875 -0.4804687,1.125 -1.21875,1.125 -0.75,0 -1.2304687,-0.4453125 -1.2304687,-1.1484375 0,-0.703125 0.4804687,-1.1484375 1.2304687,-1.1484375 z m 0,3.0351563 c 0.8789063,0 1.4765625,0.5859375 1.4765625,1.4179687 0,0.8671875 -0.5976562,1.44140628 -1.5,1.44140628 -0.8554687,0 -1.4648437,-0.58593748 -1.4648437,-1.42968748 0,-0.8554688 0.5976562,-1.4296875 1.4882812,-1.4296875 z m 0,0"
       style="fill:#000000;fill-opacity:1;fill-rule:nonzero;stroke:none"
       aria-label="8"
       transform="matrix(1.3333333,0,0,1.3333333,424.66667,183.55573)"
       clip-path="url(#clipPath30)" />
    <path
       id="path31"
       d="M 3805,164.168 V 197.5"
       style="fill:none;stroke:#000000;stroke-width:5;stroke-linecap:butt;stroke-linejoin:round;stroke-miterlimit:10;stroke-dasharray:none;stroke-opacity:1"
       transform="matrix(0.13333333,0,0,-0.13333333,0,189.33333)"
       clip-path="url(#clipPath32)" />
    <path
       id="path33"
       d="M 2.5898438,-5.1453156 V -7.84375e-4 H 3.46875 V -7.2312531 H 2.8945313 c -0.3164063,1.1132812 -0.515625,1.265625 -1.8750001,1.4414062 v 0.6445313 z m 5.7246093,-2.0859375 c -0.6679687,0 -1.265625,0.3046875 -1.6289062,0.796875 -0.46875,0.6328125 -0.6914063,1.59375 -0.6914063,2.9296875 0,2.4492187 0.796875,3.73828123 2.3203125,3.73828123 1.5,0 2.3085939,-1.28906253 2.3085939,-3.66796873 0,-1.40625 -0.210938,-2.34375 -0.6796876,-3 -0.375,-0.5039063 -0.9609375,-0.796875 -1.6289063,-0.796875 z m 0,0.7851562 c 0.9492188,0 1.4179688,0.9726563 1.4179688,2.9296875 0,2.0507813 -0.46875,3.01171878 -1.4414063,3.01171878 -0.9257812,0 -1.40625,-0.99609378 -1.40625,-2.98828128 0,-1.9804687 0.4804688,-2.953125 1.4296875,-2.953125 z m 0,0"
       style="fill:#000000;fill-opacity:1;fill-rule:nonzero;stroke:none"
       aria-label="10"
       transform="matrix(1.3333333,0,0,1.3333333,500,183.55573)"
       clip-path="url(#clipPath34)" />
    <path
       id="path35"
       d="m 546.668,164.168 h 32.5"
       style="fill:none;stroke:#000000;stroke-width:5;stroke-linecap:butt;stroke-linejoin:round;stroke-miterlimit:10;stroke-dasharray:none;stroke-opacity:1"
       transform="matrix(0.13333333,0,0,-0.13333333,0,189.33333)"
       clip-path="url(#clipPath36)" />
    <path
       id="path37"
       d="M 5.4365234,-2.6728516 H 0.39746094 v 0.703125 H 5.4365234 Z m 3.1582032,-4.5585937 c -0.6679688,0 -1.265625,0.3046875 -1.6289063,0.796875 -0.46875,0.6328125 -0.6914062,1.59375 -0.6914062,2.9296875 0,2.4492187 0.796875,3.73828124 2.3203125,3.73828124 1.5000004,0 2.3085934,-1.28906254 2.3085934,-3.66796874 0,-1.40625 -0.210937,-2.34375 -0.679687,-3 -0.3750002,-0.5039063 -0.9609377,-0.796875 -1.6289064,-0.796875 z m 0,0.7851562 c 0.9492187,0 1.4179684,0.9726563 1.4179684,2.9296875 0,2.0507813 -0.4687497,3.01171879 -1.4414059,3.01171879 -0.9257813,0 -1.40625,-0.99609379 -1.40625,-2.98828129 0,-1.9804687 0.4804687,-2.953125 1.4296875,-2.953125 z m 4.7167964,5.4023438 h -1.042968 v 1.0429687375 h 1.042968 z m 3.621094,-6.1875 c -0.667969,0 -1.265625,0.3046875 -1.628906,0.796875 -0.46875,0.6328125 -0.691406,1.59375 -0.691406,2.9296875 0,2.4492187 0.796875,3.73828124 2.320312,3.73828124 1.5,0 2.308594,-1.28906254 2.308594,-3.66796874 0,-1.40625 -0.210938,-2.34375 -0.679688,-3 -0.375,-0.5039063 -0.960937,-0.796875 -1.628906,-0.796875 z m 0,0.7851562 c 0.949219,0 1.417969,0.9726563 1.417969,2.9296875 0,2.0507813 -0.46875,3.01171879 -1.441406,3.01171879 -0.925782,0 -1.40625,-0.99609379 -1.40625,-2.98828129 0,-1.9804687 0.480468,-2.953125 1.429687,-2.953125 z m 5.021485,3.1171875 h 0.46875 c 0.960937,0 1.476562,0.4453125 1.476562,1.3242188 0,0.9023437 -0.550781,1.45312499 -1.464844,1.45312499 -0.960937,0 -1.441406,-0.49218749 -1.5,-1.54687499 h -0.878906 c 0.04687,0.5742187 0.140625,0.9609375 0.316406,1.27734374 0.363282,0.703125 1.054688,1.0546875 2.027344,1.0546875 1.453125,0 2.402344,-0.87890625 2.402344,-2.25000004 0,-0.9257812 -0.351563,-1.4179687 -1.207031,-1.7226562 0.667968,-0.2695313 0.996093,-0.7734375 0.996093,-1.5 0,-1.2421875 -0.808593,-1.9921875 -2.167968,-1.9921875 -1.429688,0 -2.179688,0.8085937 -2.214844,2.3320312 h 0.878906 c 0.01172,-0.4453125 0.04687,-0.6914062 0.164063,-0.9140625 0.199218,-0.4101562 0.632812,-0.6445312 1.183593,-0.6445312 0.785157,0 1.253907,0.46875 1.253907,1.2539062 0,0.5039063 -0.175782,0.8203125 -0.574219,0.984375 -0.234375,0.1054688 -0.550781,0.140625 -1.160156,0.1523438 z m 0,0"
       style="fill:#000000;fill-opacity:1;fill-rule:nonzero;stroke:none"
       aria-label="−0.03"
       transform="matrix(1.3333333,0,0,1.3333333,35.333333,172.33333)"
       clip-path="url(#clipPath38)" />
    <path
       id="path39"
       d="m 546.668,435.832 h 32.5"
       style="fill:none;stroke:#000000;stroke-width:5;stroke-linecap:butt;stroke-linejoin:round;stroke-miterlimit:10;stroke-dasharray:none;stroke-opacity:1"
       transform="matrix(0.13333333,0,0,-0.13333333,0,189.33333)"
       clip-path="url(#clipPath40)" />
    <path
       id="path41"
       d="M 5.4365234,-2.6730437 H 0.39746094 v 0.703125 H 5.4365234 Z m 3.1582032,-4.5585938 c -0.6679688,0 -1.265625,0.3046875 -1.6289063,0.796875 -0.46875,0.6328125 -0.6914062,1.59375 -0.6914062,2.9296875 0,2.4492188 0.796875,3.73828125 2.3203125,3.73828125 1.5000004,0 2.3085934,-1.28906245 2.3085934,-3.66796875 0,-1.40625 -0.210937,-2.34375 -0.679687,-3 -0.3750002,-0.5039062 -0.9609377,-0.796875 -1.6289064,-0.796875 z m 0,0.7851563 c 0.9492187,0 1.4179684,0.9726562 1.4179684,2.9296875 0,2.0507812 -0.4687497,3.0117187 -1.4414059,3.0117187 -0.9257813,0 -1.40625,-0.9960937 -1.40625,-2.9882812 0,-1.9804688 0.4804687,-2.953125 1.4296875,-2.953125 z m 4.7167964,5.4023437 h -1.042968 v 1.04296875 h 1.042968 z m 3.621094,-6.1875 c -0.667969,0 -1.265625,0.3046875 -1.628906,0.796875 -0.46875,0.6328125 -0.691406,1.59375 -0.691406,2.9296875 0,2.4492188 0.796875,3.73828125 2.320312,3.73828125 1.5,0 2.308594,-1.28906245 2.308594,-3.66796875 0,-1.40625 -0.210938,-2.34375 -0.679688,-3 -0.375,-0.5039062 -0.960937,-0.796875 -1.628906,-0.796875 z m 0,0.7851563 c 0.949219,0 1.417969,0.9726562 1.417969,2.9296875 0,2.0507812 -0.46875,3.0117187 -1.441406,3.0117187 -0.925782,0 -1.40625,-0.9960937 -1.40625,-2.9882812 0,-1.9804688 0.480468,-2.953125 1.429687,-2.953125 z m 7.869141,5.57812495 h -3.738281 c 0.09375,-0.59765625 0.410156,-0.98437495 1.289062,-1.51171875 l 0.996094,-0.5625 c 0.984375,-0.5507812 1.5,-1.2890625 1.5,-2.1796875 0,-0.5976562 -0.246094,-1.1601562 -0.65625,-1.546875 -0.421875,-0.375 -0.949219,-0.5625 -1.617188,-0.5625 -0.902343,0 -1.570312,0.328125 -1.957031,0.9375 -0.246094,0.3867188 -0.363281,0.8320313 -0.375,1.5703125 h 0.878906 c 0.02344,-0.4921875 0.08203,-0.7851562 0.210938,-1.0195312 0.222656,-0.4453125 0.679687,-0.7148438 1.21875,-0.7148438 0.796875,0 1.394531,0.5742188 1.394531,1.359375 0,0.5742188 -0.328125,1.078125 -0.960937,1.4414063 l -0.914063,0.5390625 c -1.476562,0.84375 -1.910156,1.5234375 -1.992187,3.1054687 h 4.722656 z m 0,0"
       style="fill:#000000;fill-opacity:1;fill-rule:nonzero;stroke:none"
       aria-label="−0.02"
       transform="matrix(1.3333333,0,0,1.3333333,35.333333,136.11093)"
       clip-path="url(#clipPath42)" />
    <path
       id="path43"
       d="m 546.668,706.668 h 32.5"
       style="fill:none;stroke:#000000;stroke-width:5;stroke-linecap:butt;stroke-linejoin:round;stroke-miterlimit:10;stroke-dasharray:none;stroke-opacity:1"
       transform="matrix(0.13333333,0,0,-0.13333333,0,189.33333)"
       clip-path="url(#clipPath44)" />
    <path
       id="path45"
       d="M 5.4365234,-2.671875 H 0.39746094 V -1.96875 H 5.4365234 Z m 3.1582032,-4.5585937 c -0.6679688,0 -1.265625,0.3046875 -1.6289063,0.796875 -0.46875,0.6328125 -0.6914062,1.59375 -0.6914062,2.9296875 0,2.4492187 0.796875,3.7382812 2.3203125,3.7382812 1.5000004,0 2.3085934,-1.2890625 2.3085934,-3.6679687 0,-1.40625 -0.210937,-2.34375 -0.679687,-3 C 9.8486328,-6.9375 9.2626953,-7.2304687 8.5947266,-7.2304687 Z m 0,0.7851562 c 0.9492187,0 1.4179684,0.9726563 1.4179684,2.9296875 0,2.0507813 -0.4687497,3.01171875 -1.4414059,3.01171875 -0.9257813,0 -1.40625,-0.99609375 -1.40625,-2.98828125 0,-1.9804687 0.4804687,-2.953125 1.4296875,-2.953125 z m 4.7167964,5.4023438 H 12.268555 V 0 h 1.042968 z m 3.621094,-6.1875 c -0.667969,0 -1.265625,0.3046875 -1.628906,0.796875 -0.46875,0.6328125 -0.691406,1.59375 -0.691406,2.9296875 0,2.4492187 0.796875,3.7382812 2.320312,3.7382812 1.5,0 2.308594,-1.2890625 2.308594,-3.6679687 0,-1.40625 -0.210938,-2.34375 -0.679688,-3 -0.375,-0.5039063 -0.960937,-0.796875 -1.628906,-0.796875 z m 0,0.7851562 c 0.949219,0 1.417969,0.9726563 1.417969,2.9296875 0,2.0507813 -0.46875,3.01171875 -1.441406,3.01171875 -0.925782,0 -1.40625,-0.99609375 -1.40625,-2.98828125 0,-1.9804687 0.480468,-2.953125 1.429687,-2.953125 z m 5.396485,1.3007813 V 0 h 0.878906 v -7.2304687 h -0.574219 c -0.316406,1.1132812 -0.515625,1.265625 -1.875,1.4414062 v 0.6445313 z m 0,0"
       style="fill:#000000;fill-opacity:1;fill-rule:nonzero;stroke:none"
       aria-label="−0.01"
       transform="matrix(1.3333333,0,0,1.3333333,35.333333,100)"
       clip-path="url(#clipPath46)" />
    <path
       id="path47"
       d="m 546.668,977.5 h 32.5"
       style="fill:none;stroke:#000000;stroke-width:5;stroke-linecap:butt;stroke-linejoin:round;stroke-miterlimit:10;stroke-dasharray:none;stroke-opacity:1"
       transform="matrix(0.13333333,0,0,-0.13333333,0,189.33333)"
       clip-path="url(#clipPath48)" />
    <path
       id="path49"
       d="m 2.7548828,-7.2293 c -0.6679687,0 -1.265625,0.3046875 -1.6289062,0.796875 -0.46875004,0.6328125 -0.69140629,1.59375 -0.69140629,2.9296875 0,2.4492188 0.79687499,3.73828125 2.32031249,3.73828125 1.5,0 2.3085938,-1.28906245 2.3085938,-3.66796875 0,-1.40625 -0.2109375,-2.34375 -0.6796875,-3 C 4.0087891,-6.9363312 3.4228516,-7.2293 2.7548828,-7.2293 Z m 0,0.7851563 c 0.9492188,0 1.4179688,0.9726562 1.4179688,2.9296875 0,2.0507812 -0.46875,3.0117187 -1.4414063,3.0117187 -0.9257812,0 -1.40625,-0.9960937 -1.40625,-2.9882812 0,-1.9804688 0.4804688,-2.953125 1.4296875,-2.953125 z m 0,0"
       style="fill:#000000;fill-opacity:1;fill-rule:nonzero;stroke:none"
       aria-label="0"
       transform="matrix(1.3333333,0,0,1.3333333,61.666667,63.889067)"
       clip-path="url(#clipPath50)" />
    <path
       id="path51"
       d="m 546.668,1248.33 h 32.5"
       style="fill:none;stroke:#000000;stroke-width:5;stroke-linecap:butt;stroke-linejoin:round;stroke-miterlimit:10;stroke-dasharray:none;stroke-opacity:1"
       transform="matrix(0.13333333,0,0,-0.13333333,0,189.33333)"
       clip-path="url(#clipPath52)" />
    <path
       id="path53"
       d="m 2.7527375,-7.2304609 c -0.6679687,0 -1.265625,0.3046875 -1.6289062,0.796875 -0.46875005,0.6328125 -0.6914063,1.59375 -0.6914063,2.9296875 0,2.4492187 0.796875,3.73828121 2.3203125,3.73828121 1.5,0 2.3085938,-1.28906251 2.3085938,-3.66796871 0,-1.40625 -0.2109375,-2.34375 -0.6796875,-3 -0.375,-0.5039063 -0.9609375,-0.796875 -1.6289063,-0.796875 z m 0,0.7851562 c 0.9492188,0 1.4179688,0.9726563 1.4179688,2.9296875 0,2.0507813 -0.46875,3.01171876 -1.4414063,3.01171876 -0.9257812,0 -1.40625,-0.99609376 -1.40625,-2.98828126 0,-1.9804687 0.4804688,-2.953125 1.4296875,-2.953125 z m 4.7167969,5.4023438 H 6.4265656 V 7.8125e-6 h 1.0429688 z m 3.6240236,-6.1875 c -0.667969,0 -1.2656252,0.3046875 -1.6289064,0.796875 -0.46875,0.6328125 -0.6914063,1.59375 -0.6914063,2.9296875 0,2.4492187 0.796875,3.73828121 2.3203127,3.73828121 1.5,0 2.308594,-1.28906251 2.308594,-3.66796871 0,-1.40625 -0.210938,-2.34375 -0.679688,-3 -0.375,-0.5039063 -0.960937,-0.796875 -1.628906,-0.796875 z m 0,0.7851562 c 0.949219,0 1.417969,0.9726563 1.417969,2.9296875 0,2.0507813 -0.46875,3.01171876 -1.441407,3.01171876 -0.925781,0 -1.4062497,-0.99609376 -1.4062497,-2.98828126 0,-1.9804687 0.4804687,-2.953125 1.4296877,-2.953125 z m 5.396484,1.3007813 V 7.8125e-6 h 0.878906 V -7.2304609 H 16.79473 c -0.316407,1.1132812 -0.515625,1.265625 -1.875,1.4414062 v 0.6445313 z m 0,0"
       style="fill:#000000;fill-opacity:1;fill-rule:nonzero;stroke:none"
       aria-label="0.01"
       transform="matrix(1.3333333,0,0,1.3333333,43.110933,27.777333)"
       clip-path="url(#clipPath54)" />
    <path
       id="path55"
       d="M 842.5,977.5 H 3508.33"
       style="fill:none;stroke:#0000ff;stroke-width:5;stroke-linecap:butt;stroke-linejoin:round;stroke-miterlimit:10;stroke-dasharray:none;stroke-opacity:1"
       transform="matrix(0.13333333,0,0,-0.13333333,0,189.33333)"
       clip-path="url(#clipPath56)" />
    <path
       id="path57"
       d="M 842.5,977.5 1138.33,726.668 1435,509.168 1730.83,360.832 2027.5,306.668 2323.33,337.5 2620,437.5 2915.83,589.168 3212.5,775 3508.33,977.5"
       style="fill:none;stroke:#0000ff;stroke-width:20;stroke-linecap:butt;stroke-linejoin:round;stroke-miterlimit:10;stroke-dasharray:none;stroke-opacity:1"
       transform="matrix(0.13333333,0,0,-0.13333333,0,189.33333)"
       clip-path="url(#clipPath58)" />
    <path
       id="path59"
       d="M 4.9462969,-7.2900391 H 4.1142656 v 2.7070313 C 3.7744219,-5.1103516 3.2119219,-5.3916016 2.5087969,-5.3916016 c -1.359375,0 -2.25000002,1.0898438 -2.25000002,2.765625 0,1.76953129 0.86718752,2.85937504 2.28515622,2.85937504 0.7148438,0 1.21875,-0.26953125 1.6640625,-0.92578125 v 0.6914062475 h 0.7382813 z m -2.296875,2.6835938 c 0.9023437,0 1.4648437,0.7851562 1.4648437,2.0507812 0,1.2070313 -0.5742187,2.00390629 -1.453125,2.00390629 -0.9257812,0 -1.5351562,-0.80859379 -1.5351562,-2.02734379 0,-1.21875 0.609375,-2.0273437 1.5234375,-2.0273437 z M 7.0586016,-5.2392578 H 6.2265703 v 5.2382812375 h 0.8320313 z m 0,-2.0507813 h -0.84375 v 1.0546875 h 0.84375 z m 5.1035154,3.515625 c -0.01172,-1.03125 -0.691406,-1.6171875 -1.898437,-1.6171875 -1.2304691,0 -2.0156253,0.6328125 -2.0156253,1.6054688 0,0.8203125 0.421875,1.2070312 1.6640625,1.5117187 l 0.7734378,0.1875 c 0.585937,0.140625 0.808593,0.3515625 0.808593,0.7148438 0,0.50390624 -0.480468,0.83203124 -1.21875,0.83203124 -0.4453121,0 -0.8320308,-0.12890625 -1.0312496,-0.3515625 C 9.1035234,-1.0439453 9.0449297,-1.1962891 8.9980547,-1.5595703 H 8.1191484 c 0.035156,1.20703124 0.7148438,1.79296874 2.0859376,1.79296874 1.324219,0 2.167969,-0.65625 2.167969,-1.66406254 0,-0.7851562 -0.445313,-1.2070312 -1.488282,-1.4648437 l -0.796875,-0.1875 c -0.6796871,-0.1523438 -0.9726558,-0.375 -0.9726558,-0.75 0,-0.4804688 0.4335937,-0.7851563 1.1132808,-0.7851563 0.667969,0 1.03125,0.2929688 1.054688,0.84375 z m 1.157227,5.953125 h 0.84375 v -2.73046871 c 0.433594,0.5390625 0.925781,0.78515625 1.605469,0.78515625 1.359375,0 2.238281,-1.08984375 2.238281,-2.76562504 0,-1.7578125 -0.855469,-2.859375 -2.25,-2.859375 -0.703125,0 -1.277344,0.328125 -1.664063,0.9375 v -0.7851562 h -0.773437 z m 2.296875,-6.7851562 c 0.925781,0 1.523437,0.8085937 1.523437,2.0507812 0,1.1953125 -0.609375,2.00390629 -1.523437,2.00390629 -0.890625,0 -1.453125,-0.79687499 -1.453125,-2.02734379 0,-1.2304687 0.5625,-2.0273437 1.453125,-2.0273437 z m 4.248047,-2.6835938 h -0.84375 v 7.2890625375 h 0.84375 z m 6.038086,6.79687504 c -0.08203,0.0234375 -0.128907,0.0234375 -0.175782,0.0234375 -0.292968,0 -0.445312,-0.15234375 -0.445312,-0.41015625 V -3.9619141 c 0,-0.9257812 -0.679688,-1.4296875 -1.96875,-1.4296875 -0.773438,0 -1.382813,0.2226563 -1.746094,0.609375 -0.234375,0.2695313 -0.339844,0.5742188 -0.363281,1.0898438 h 0.84375 c 0.07031,-0.6328125 0.445312,-0.9257813 1.230469,-0.9257813 0.761718,0 1.171875,0.28125 1.171875,0.7734375 v 0.2226563 c -0.01172,0.3632812 -0.1875,0.4921875 -0.867188,0.5859375 -1.183594,0.140625 -1.359375,0.1875 -1.6875,0.3164062 -0.609375,0.2578125 -0.914062,0.7148438 -0.914062,1.3945313 0,0.94921874 0.65625,1.55859374 1.722656,1.55859374 0.65625,0 1.183594,-0.2343750025 1.769531,-0.7734375 0.05859,0.5390624975 0.328125,0.7734375 0.867188,0.7734375 0.175781,0 0.28125,-0.0234375 0.5625,-0.09375 z M 24.449227,-1.6533203 c 0,0.28125 -0.08203,0.4570312 -0.328125,0.67968749 -0.339844,0.31640625 -0.75,0.46875 -1.242188,0.46875 -0.65625,0 -1.03125,-0.3046875 -1.03125,-0.83203129 0,-0.5507812 0.363281,-0.8320312 1.265625,-0.9609375 0.878906,-0.1171875 1.054688,-0.1640625 1.335938,-0.2929687 z m 6.380859,-1.828125 c -0.04687,-0.5039063 -0.152344,-0.8320313 -0.351563,-1.125 -0.363281,-0.4921875 -0.996093,-0.7851563 -1.722656,-0.7851563 -1.417969,0 -2.332031,1.125 -2.332031,2.859375 0,1.68750004 0.902344,2.76562504 2.320312,2.76562504 1.253907,0 2.039063,-0.75 2.144532,-2.03906254 h -0.84375 c -0.140625,0.84375004 -0.5625,1.26562504 -1.277344,1.26562504 -0.914063,0 -1.464844,-0.75000004 -1.464844,-1.99218754 0,-1.3125 0.539063,-2.0859375 1.441406,-2.0859375 0.703125,0 1.148438,0.4101563 1.242188,1.1367188 z m 5.422852,1.1367187 c 0,-0.796875 -0.07031,-1.2773437 -0.210938,-1.6640625 -0.339844,-0.8554687 -1.148437,-1.3828125 -2.121094,-1.3828125 -1.464843,0 -2.402343,1.1132813 -2.402343,2.8359375 0,1.73437504 0.902343,2.78906254 2.378906,2.78906254 1.195312,0 2.027344,-0.6796875 2.238281,-1.82812504 h -0.832031 c -0.234375,0.69140629 -0.703125,1.05468754 -1.371094,1.05468754 -0.539062,0 -0.984375,-0.24609375 -1.265625,-0.67968754 -0.199219,-0.3046875 -0.269531,-0.5976562 -0.28125,-1.125 z m -3.84375,-0.6796875 c 0.07031,-0.9609375 0.65625,-1.59375 1.5,-1.59375 0.84375,0 1.441406,0.65625 1.441406,1.59375 z m 4.974609,-2.2148437 v 5.2382812375 h 0.832031 V -3.2939453 c 0,-0.75 0.550781,-1.359375 1.230469,-1.359375 0.621094,0 0.972656,0.375 0.972656,1.0429687 v 3.6093750375 h 0.84375 V -3.2939453 c 0,-0.75 0.550781,-1.359375 1.230469,-1.359375 0.609375,0 0.960937,0.3867187 0.960937,1.0429687 v 3.6093750375 h 0.84375 V -3.9267578 c 0,-0.9375 -0.539062,-1.4648438 -1.523437,-1.4648438 -0.691406,0 -1.113281,0.2109375 -1.605469,0.796875 -0.304687,-0.5507812 -0.726562,-0.796875 -1.40625,-0.796875 -0.703125,0 -1.171875,0.2578125 -1.617187,0.890625 v -0.7382812 z m 12.758789,2.8945312 c 0,-0.796875 -0.07031,-1.2773437 -0.210938,-1.6640625 -0.339843,-0.8554687 -1.148437,-1.3828125 -2.121093,-1.3828125 -1.464844,0 -2.402344,1.1132813 -2.402344,2.8359375 0,1.73437504 0.902344,2.78906254 2.378906,2.78906254 1.195313,0 2.027344,-0.6796875 2.238281,-1.82812504 h -0.832031 c -0.234375,0.69140629 -0.703125,1.05468754 -1.371094,1.05468754 -0.539062,0 -0.984375,-0.24609375 -1.265625,-0.67968754 -0.199218,-0.3046875 -0.269531,-0.5976562 -0.28125,-1.125 z m -3.84375,-0.6796875 c 0.07031,-0.9609375 0.65625,-1.59375 1.5,-1.59375 0.84375,0 1.441406,0.65625 1.441406,1.59375 z m 4.974609,-2.2148437 v 5.2382812375 h 0.832032 V -2.8955078 c 0,-1.0664063 0.5625,-1.7578125 1.417968,-1.7578125 0.667969,0 1.089844,0.3984375 1.089844,1.0195312 v 3.6328125375 h 0.820313 V -3.9619141 c 0,-0.8671875 -0.644532,-1.4296875 -1.652344,-1.4296875 -0.785156,0 -1.277344,0.3046875 -1.746094,1.03125 v -0.8789062 z m 7.400391,0 h -0.867188 v -1.4414063 h -0.820312 v 1.4414063 h -0.714844 v 0.6796875 h 0.714844 v 3.96093749 c 0,0.5390625 0.351562,0.83203125 1.007812,0.83203125 0.210938,0 0.398438,-0.0234375 0.679688,-0.0703125 v -0.703125 c -0.128906,0.0234375 -0.234375,0.0351563 -0.398438,0.0351563 -0.363281,0 -0.46875,-0.09375 -0.46875,-0.46875 V -4.5595703 h 0.867188 z m 4.620117,1.4648437 c -0.01172,-1.03125 -0.691406,-1.6171875 -1.898437,-1.6171875 -1.230469,0 -2.015625,0.6328125 -2.015625,1.6054688 0,0.8203125 0.421875,1.2070312 1.664062,1.5117187 l 0.773438,0.1875 c 0.585937,0.140625 0.808593,0.3515625 0.808593,0.7148438 0,0.50390624 -0.480468,0.83203124 -1.21875,0.83203124 -0.445312,0 -0.832031,-0.12890625 -1.03125,-0.3515625 C 60.235359,-1.0439453 60.176766,-1.1962891 60.129891,-1.5595703 h -0.878907 c 0.03516,1.20703124 0.714844,1.79296874 2.085938,1.79296874 1.324219,0 2.167969,-0.65625 2.167969,-1.66406254 0,-0.7851562 -0.445313,-1.2070312 -1.488282,-1.4648437 l -0.796875,-0.1875 c -0.679687,-0.1523438 -0.972656,-0.375 -0.972656,-0.75 0,-0.4804688 0.433594,-0.7851563 1.113281,-0.7851563 0.667969,0 1.03125,0.2929688 1.054688,0.84375 z m 0,0"
       style="fill:#000000;fill-opacity:1;fill-rule:nonzero;stroke:none"
       aria-label="displacements"
       transform="matrix(1.3333333,0,0,1.3333333,247.444,12.333333)"
       clip-path="url(#clipPath60)" />
    <path
       id="path61"
       d="M 842.5,977.5 H 3508.33"
       style="fill:none;stroke:#0000ff;stroke-width:5;stroke-linecap:butt;stroke-linejoin:round;stroke-miterlimit:10;stroke-dasharray:none;stroke-opacity:1"
       transform="matrix(0.13333333,0,0,-0.13333333,0,189.33333)"
       clip-path="url(#clipPath62)" />
    <path
       id="path63"
       d="M 842.5,977.5 1138.33,726.668 1435,509.168 1730.83,360.832 2027.5,306.668 2323.33,337.5 2620,437.5 2915.83,589.168 3212.5,775 3508.33,977.5"
       style="fill:none;stroke:#0000ff;stroke-width:20;stroke-linecap:butt;stroke-linejoin:round;stroke-miterlimit:10;stroke-dasharray:none;stroke-opacity:1"
       transform="matrix(0.13333333,0,0,-0.13333333,0,189.33333)"
       clip-path="url(#clipPath64)" />
  </g>
</svg>
