<?xml version="1.0" encoding="UTF-8" standalone="no"?>
<!-- Created with Inkscape (http://www.inkscape.org/) -->

<svg
   version="1.1"
   id="svg1"
   width="560"
   height="190.66667"
   viewBox="0 0 560 190.66667"
   sodipodi:docname="exs5_5.eps"
   xmlns:inkscape="http://www.inkscape.org/namespaces/inkscape"
   xmlns:sodipodi="http://sodipodi.sourceforge.net/DTD/sodipodi-0.dtd"
   xmlns="http://www.w3.org/2000/svg"
   xmlns:svg="http://www.w3.org/2000/svg">
  <defs
     id="defs1">
    <clipPath
       clipPathUnits="userSpaceOnUse"
       id="clipPath2">
      <path
         d="M 0,4 V 1430 H 4200 V 4 Z"
         transform="translate(0,2.5000001e-5)"
         id="path2" />
    </clipPath>
    <clipPath
       clipPathUnits="userSpaceOnUse"
       id="clipPath4">
      <path
         d="M 0,4 V 1430 H 4200 V 4 Z"
         transform="translate(0,2.5000001e-5)"
         id="path4" />
    </clipPath>
    <clipPath
       clipPathUnits="userSpaceOnUse"
       id="clipPath6">
      <path
         d="M 0,4 V 1430 H 4200 V 4 Z"
         transform="translate(0,2.5000001e-5)"
         id="path6" />
    </clipPath>
    <clipPath
       clipPathUnits="userSpaceOnUse"
       id="clipPath8">
      <path
         d="M 0,4 V 1430 H 4200 V 4 Z"
         transform="translate(0,2.5000001e-5)"
         id="path8" />
    </clipPath>
    <clipPath
       clipPathUnits="userSpaceOnUse"
       id="clipPath10">
      <path
         d="M 0,4 V 1430 H 4200 V 4 Z"
         transform="translate(0,2.5000001e-5)"
         id="path10" />
    </clipPath>
    <clipPath
       clipPathUnits="userSpaceOnUse"
       id="clipPath12">
      <path
         d="M 0,4 V 1430 H 4200 V 4 Z"
         transform="translate(0,2.5000001e-5)"
         id="path12" />
    </clipPath>
    <clipPath
       clipPathUnits="userSpaceOnUse"
       id="clipPath14">
      <path
         d="M 0,4 V 1430 H 4200 V 4 Z"
         transform="matrix(0.1,0,0,-0.1,-81.500005,4.0000026)"
         id="path14" />
    </clipPath>
    <clipPath
       clipPathUnits="userSpaceOnUse"
       id="clipPath16">
      <path
         d="M 0,4 V 1430 H 4200 V 4 Z"
         transform="translate(0,2.5000001e-5)"
         id="path16" />
    </clipPath>
    <clipPath
       clipPathUnits="userSpaceOnUse"
       id="clipPath18">
      <path
         d="M 0,4 V 1430 H 4200 V 4 Z"
         transform="matrix(0.1,0,0,-0.1,-140.75001,4.0000026)"
         id="path18" />
    </clipPath>
    <clipPath
       clipPathUnits="userSpaceOnUse"
       id="clipPath20">
      <path
         d="M 0,4 V 1430 H 4200 V 4 Z"
         transform="translate(0,2.5000001e-5)"
         id="path20" />
    </clipPath>
    <clipPath
       clipPathUnits="userSpaceOnUse"
       id="clipPath22">
      <path
         d="M 0,4 V 1430 H 4200 V 4 Z"
         transform="matrix(0.1,0,0,-0.1,-200.00001,4.0000026)"
         id="path22" />
    </clipPath>
    <clipPath
       clipPathUnits="userSpaceOnUse"
       id="clipPath24">
      <path
         d="M 0,4 V 1430 H 4200 V 4 Z"
         transform="translate(0,2.5000001e-5)"
         id="path24" />
    </clipPath>
    <clipPath
       clipPathUnits="userSpaceOnUse"
       id="clipPath26">
      <path
         d="M 0,4 V 1430 H 4200 V 4 Z"
         transform="matrix(0.1,0,0,-0.1,-259.25001,4.0000026)"
         id="path26" />
    </clipPath>
    <clipPath
       clipPathUnits="userSpaceOnUse"
       id="clipPath28">
      <path
         d="M 0,4 V 1430 H 4200 V 4 Z"
         transform="translate(0,2.5000001e-5)"
         id="path28" />
    </clipPath>
    <clipPath
       clipPathUnits="userSpaceOnUse"
       id="clipPath30">
      <path
         d="M 0,4 V 1430 H 4200 V 4 Z"
         transform="matrix(0.1,0,0,-0.1,-318.50001,4.0000026)"
         id="path30" />
    </clipPath>
    <clipPath
       clipPathUnits="userSpaceOnUse"
       id="clipPath32">
      <path
         d="M 0,4 V 1430 H 4200 V 4 Z"
         transform="translate(0,2.5000001e-5)"
         id="path32" />
    </clipPath>
    <clipPath
       clipPathUnits="userSpaceOnUse"
       id="clipPath34">
      <path
         d="M 0,4 V 1430 H 4200 V 4 Z"
         transform="matrix(0.1,0,0,-0.1,-375.00001,4.0000026)"
         id="path34" />
    </clipPath>
    <clipPath
       clipPathUnits="userSpaceOnUse"
       id="clipPath36">
      <path
         d="M 0,4 V 1430 H 4200 V 4 Z"
         transform="translate(0,2.5000001e-5)"
         id="path36" />
    </clipPath>
    <clipPath
       clipPathUnits="userSpaceOnUse"
       id="clipPath38">
      <path
         d="M 0,4 V 1430 H 4200 V 4 Z"
         transform="matrix(0.1,0,0,-0.1,-32.083201,122.167)"
         id="path38" />
    </clipPath>
    <clipPath
       clipPathUnits="userSpaceOnUse"
       id="clipPath40">
      <path
         d="M 0,4 V 1430 H 4200 V 4 Z"
         transform="translate(0,2.5000001e-5)"
         id="path40" />
    </clipPath>
    <clipPath
       clipPathUnits="userSpaceOnUse"
       id="clipPath42">
      <path
         d="M 0,4 V 1430 H 4200 V 4 Z"
         transform="matrix(0.1,0,0,-0.1,-46.250001,103.917)"
         id="path42" />
    </clipPath>
    <clipPath
       clipPathUnits="userSpaceOnUse"
       id="clipPath44">
      <path
         d="M 0,4 V 1430 H 4200 V 4 Z"
         transform="translate(0,2.5000001e-5)"
         id="path44" />
    </clipPath>
    <clipPath
       clipPathUnits="userSpaceOnUse"
       id="clipPath46">
      <path
         d="M 0,4 V 1430 H 4200 V 4 Z"
         transform="matrix(0.1,0,0,-0.1,-37.916801,85.666802)"
         id="path46" />
    </clipPath>
    <clipPath
       clipPathUnits="userSpaceOnUse"
       id="clipPath48">
      <path
         d="M 0,4 V 1430 H 4200 V 4 Z"
         transform="translate(0,2.5000001e-5)"
         id="path48" />
    </clipPath>
    <clipPath
       clipPathUnits="userSpaceOnUse"
       id="clipPath50">
      <path
         d="M 0,4 V 1430 H 4200 V 4 Z"
         transform="matrix(0.1,0,0,-0.1,-46.250001,67.333199)"
         id="path50" />
    </clipPath>
    <clipPath
       clipPathUnits="userSpaceOnUse"
       id="clipPath52">
      <path
         d="M 0,4 V 1430 H 4200 V 4 Z"
         transform="translate(0,2.5000001e-5)"
         id="path52" />
    </clipPath>
    <clipPath
       clipPathUnits="userSpaceOnUse"
       id="clipPath54">
      <path
         d="M 0,4 V 1430 H 4200 V 4 Z"
         transform="matrix(0.1,0,0,-0.1,-37.916801,49.000004)"
         id="path54" />
    </clipPath>
    <clipPath
       clipPathUnits="userSpaceOnUse"
       id="clipPath56">
      <path
         d="M 0,4 V 1430 H 4200 V 4 Z"
         transform="translate(0,2.5000001e-5)"
         id="path56" />
    </clipPath>
    <clipPath
       clipPathUnits="userSpaceOnUse"
       id="clipPath58">
      <path
         d="M 0,4 V 1430 H 4200 V 4 Z"
         transform="matrix(0.1,0,0,-0.1,-46.250001,30.749998)"
         id="path58" />
    </clipPath>
    <clipPath
       clipPathUnits="userSpaceOnUse"
       id="clipPath60">
      <path
         d="M 0,4 V 1430 H 4200 V 4 Z"
         transform="translate(0,2.5000001e-5)"
         id="path60" />
    </clipPath>
    <clipPath
       clipPathUnits="userSpaceOnUse"
       id="clipPath62">
      <path
         d="M 0,4 V 1430 H 4200 V 4 Z"
         transform="matrix(0.1,0,0,-0.1,-37.916801,12.416803)"
         id="path62" />
    </clipPath>
    <clipPath
       clipPathUnits="userSpaceOnUse"
       id="clipPath64">
      <path
         d="m 546.668,160 h 3259.16 V 1258.33 H 546.668 Z"
         transform="translate(0,2.5000001e-5)"
         id="path64" />
    </clipPath>
    <clipPath
       clipPathUnits="userSpaceOnUse"
       id="clipPath66">
      <path
         d="m 546.668,160 h 3259.16 V 1258.33 H 546.668 Z"
         transform="translate(0,2.5000001e-5)"
         id="path66" />
    </clipPath>
    <clipPath
       clipPathUnits="userSpaceOnUse"
       id="clipPath68">
      <path
         d="M 0,4 H 4200 V 1430 H 0 Z"
         transform="matrix(0.1,0,0,-0.1,-199.417,133.75)"
         id="path68" />
    </clipPath>
    <clipPath
       clipPathUnits="userSpaceOnUse"
       id="clipPath70">
      <path
         d="m 546.668,160 h 3259.16 V 1258.33 H 546.668 Z"
         transform="translate(0,2.5000001e-5)"
         id="path70" />
    </clipPath>
    <clipPath
       clipPathUnits="userSpaceOnUse"
       id="clipPath72">
      <path
         d="m 546.668,160 h 3259.16 V 1258.33 H 546.668 Z"
         transform="translate(0,2.5000001e-5)"
         id="path72" />
    </clipPath>
  </defs>
  <sodipodi:namedview
     id="namedview1"
     pagecolor="#ffffff"
     bordercolor="#000000"
     borderopacity="0.25"
     inkscape:showpageshadow="2"
     inkscape:pageopacity="0.0"
     inkscape:pagecheckerboard="0"
     inkscape:deskcolor="#d1d1d1">
    <inkscape:page
       x="0"
       y="0"
       inkscape:label="1"
       id="page1"
       width="560"
       height="190.66667"
       margin="0"
       bleed="0" />
  </sodipodi:namedview>
  <g
     id="g1"
     inkscape:groupmode="layer"
     inkscape:label="1">
    <path
       id="path1"
       d="M 0,4 H 4200 V 1430 H 0 Z"
       style="fill:#ffffff;fill-opacity:1;fill-rule:nonzero;stroke:none"
       transform="matrix(0.13333333,0,0,-0.13333333,0,190.66667)"
       clip-path="url(#clipPath2)" />
    <path
       id="path3"
       d="m 545.832,160.832 h 3259.17 v 1097.5 H 545.832 Z"
       style="fill:#ffffff;fill-opacity:1;fill-rule:evenodd;stroke:none"
       transform="matrix(0.13333333,0,0,-0.13333333,0,190.66667)"
       clip-path="url(#clipPath4)" />
    <path
       id="path5"
       d="M 545.832,1258.33 V 160.832 H 3805 V 1258.33 H 545.832"
       style="fill:none;stroke:#ffffff;stroke-width:5;stroke-linecap:butt;stroke-linejoin:round;stroke-miterlimit:10;stroke-dasharray:none;stroke-opacity:1"
       transform="matrix(0.13333333,0,0,-0.13333333,0,190.66667)"
       clip-path="url(#clipPath6)" />
    <path
       id="path7"
       d="M 545.832,160.832 H 3805"
       style="fill:none;stroke:#000000;stroke-width:5;stroke-linecap:butt;stroke-linejoin:round;stroke-miterlimit:10;stroke-dasharray:none;stroke-opacity:1"
       transform="matrix(0.13333333,0,0,-0.13333333,0,190.66667)"
       clip-path="url(#clipPath8)" />
    <path
       id="path9"
       d="M 545.832,1258.33 V 160.832"
       style="fill:none;stroke:#000000;stroke-width:5;stroke-linecap:butt;stroke-linejoin:round;stroke-miterlimit:10;stroke-dasharray:none;stroke-opacity:1"
       transform="matrix(0.13333333,0,0,-0.13333333,0,190.66667)"
       clip-path="url(#clipPath10)" />
    <path
       id="path11"
       d="m 842.5,160.832 v 33.336"
       style="fill:none;stroke:#000000;stroke-width:5;stroke-linecap:butt;stroke-linejoin:round;stroke-miterlimit:10;stroke-dasharray:none;stroke-opacity:1"
       transform="matrix(0.13333333,0,0,-0.13333333,0,190.66667)"
       clip-path="url(#clipPath12)" />
    <path
       id="path13"
       d="m 2.7548828,-7.2314453 c -0.6679687,0 -1.265625,0.3046875 -1.6289062,0.796875 -0.46875004,0.6328125 -0.69140629,1.59375 -0.69140629,2.9296875 0,2.4492187 0.79687499,3.73828124 2.32031249,3.73828124 1.5,0 2.3085938,-1.28906254 2.3085938,-3.66796874 0,-1.40625 -0.2109375,-2.34375 -0.6796875,-3 -0.375,-0.5039063 -0.9609375,-0.796875 -1.6289063,-0.796875 z m 0,0.7851562 c 0.9492188,0 1.4179688,0.9726563 1.4179688,2.9296875 0,2.0507813 -0.46875,3.01171879 -1.4414063,3.01171879 -0.9257812,0 -1.40625,-0.99609379 -1.40625,-2.98828129 0,-1.9804687 0.4804688,-2.953125 1.4296875,-2.953125 z m 0,0"
       style="fill:#000000;fill-opacity:1;fill-rule:nonzero;stroke:none"
       aria-label="0"
       transform="matrix(1.3333333,0,0,1.3333333,108.66667,185.33333)"
       clip-path="url(#clipPath14)" />
    <path
       id="path15"
       d="m 1435,160.832 v 33.336"
       style="fill:none;stroke:#000000;stroke-width:5;stroke-linecap:butt;stroke-linejoin:round;stroke-miterlimit:10;stroke-dasharray:none;stroke-opacity:1"
       transform="matrix(0.13333333,0,0,-0.13333333,0,190.66667)"
       clip-path="url(#clipPath16)" />
    <path
       id="path17"
       d="M 5.0634766,-0.86816406 H 1.3251953 C 1.4189453,-1.4658203 1.7353516,-1.8525391 2.6142578,-2.3798828 l 0.9960938,-0.5625 c 0.984375,-0.5507813 1.5,-1.2890625 1.5,-2.1796875 0,-0.5976563 -0.2460938,-1.1601563 -0.65625,-1.546875 -0.421875,-0.375 -0.9492188,-0.5625 -1.6171875,-0.5625 -0.9023438,0 -1.5703125,0.328125 -1.95703129,0.9375 -0.24609375,0.3867187 -0.36328125,0.8320312 -0.375,1.5703125 H 1.3837891 c 0.023437,-0.4921875 0.082031,-0.7851563 0.2109375,-1.0195313 0.2226562,-0.4453125 0.6796875,-0.7148437 1.21875,-0.7148437 0.796875,0 1.3945312,0.5742187 1.3945312,1.359375 0,0.5742187 -0.328125,1.078125 -0.9609375,1.4414062 l -0.9140625,0.5390625 c -1.47656249,0.84375 -1.91015624,1.5234375 -1.99218749,3.10546879 H 5.0634766 Z m 0,0"
       style="fill:#000000;fill-opacity:1;fill-rule:nonzero;stroke:none"
       aria-label="2"
       transform="matrix(1.3333333,0,0,1.3333333,187.66667,185.33333)"
       clip-path="url(#clipPath18)" />
    <path
       id="path19"
       d="m 2027.5,160.832 v 33.336"
       style="fill:none;stroke:#000000;stroke-width:5;stroke-linecap:butt;stroke-linejoin:round;stroke-miterlimit:10;stroke-dasharray:none;stroke-opacity:1"
       transform="matrix(0.13333333,0,0,-0.13333333,0,190.66667)"
       clip-path="url(#clipPath20)" />
    <path
       id="path21"
       d="M 3.2705078,-1.7470703 V -9.765625e-4 H 4.1494141 V -1.7470703 h 1.0546875 v -0.796875 H 4.1494141 v -4.6875 H 3.5048828 l -3.22265624,4.546875 v 0.9375 z m 0,-0.796875 H 1.0556641 l 2.2148437,-3.1875 z m 0,0"
       style="fill:#000000;fill-opacity:1;fill-rule:nonzero;stroke:none"
       aria-label="4"
       transform="matrix(1.3333333,0,0,1.3333333,266.66667,185.33333)"
       clip-path="url(#clipPath22)" />
    <path
       id="path23"
       d="m 2620,160.832 v 33.336"
       style="fill:none;stroke:#000000;stroke-width:5;stroke-linecap:butt;stroke-linejoin:round;stroke-miterlimit:10;stroke-dasharray:none;stroke-opacity:1"
       transform="matrix(0.13333333,0,0,-0.13333333,0,190.66667)"
       clip-path="url(#clipPath24)" />
    <path
       id="path25"
       d="m 4.9814453,-5.3447266 c -0.1757812,-1.1835937 -0.9375,-1.8867187 -2.015625,-1.8867187 -0.7734375,0 -1.4765625,0.3867187 -1.8984375,1.03125 -0.44531249,0.7148437 -0.63281249,1.59375 -0.63281249,2.90625 0,1.21875 0.1640625,1.9804687 0.59765629,2.62499999 0.375,0.5859375 0.9960937,0.90234375 1.78125,0.90234375 1.3476562,0 2.3203125,-1.01953125 2.3203125,-2.42578124 0,-1.3242188 -0.9023438,-2.2617188 -2.1796875,-2.2617188 -0.6914063,0 -1.2421875,0.2578125 -1.6289063,0.7851563 0.011719,-1.7929688 0.5742188,-2.7773438 1.5820313,-2.7773438 0.6210937,0 1.0546875,0.3984375 1.1953125,1.1015625 z m -2.1328125,1.6640625 c 0.8554688,0 1.3828125,0.5976563 1.3828125,1.5585938 0,0.9140625 -0.5976562,1.57031249 -1.40625,1.57031249 -0.8203125,0 -1.4414062,-0.69140629 -1.4414062,-1.60546879 0,-0.9023437 0.5976562,-1.5234375 1.4648437,-1.5234375 z m 0,0"
       style="fill:#000000;fill-opacity:1;fill-rule:nonzero;stroke:none"
       aria-label="6"
       transform="matrix(1.3333333,0,0,1.3333333,345.66667,185.33333)"
       clip-path="url(#clipPath26)" />
    <path
       id="path27"
       d="m 3212.5,160.832 v 33.336"
       style="fill:none;stroke:#000000;stroke-width:5;stroke-linecap:butt;stroke-linejoin:round;stroke-miterlimit:10;stroke-dasharray:none;stroke-opacity:1"
       transform="matrix(0.13333333,0,0,-0.13333333,0,190.66667)"
       clip-path="url(#clipPath28)" />
    <path
       id="path29"
       d="m 3.9150391,-3.8095703 c 0.7382812,-0.4453125 0.9609375,-0.8085938 0.9609375,-1.4882813 0,-1.1367187 -0.8671875,-1.9335937 -2.1210938,-1.9335937 -1.2539062,0 -2.13281249,0.796875 -2.13281249,1.921875 0,0.6914062 0.234375,1.0429687 0.96093749,1.5 -0.80859374,0.4101562 -1.20703124,0.9960937 -1.20703124,1.8046875 0,1.31249999 0.96093754,2.23828124 2.37890624,2.23828124 1.3945313,0 2.3789063,-0.92578125 2.3789063,-2.23828124 0,-0.8085938 -0.4101563,-1.3945313 -1.21875,-1.8046875 z M 2.7548828,-6.4462891 c 0.75,0 1.21875,0.4453125 1.21875,1.171875 0,0.6796875 -0.4804687,1.125 -1.21875,1.125 -0.75,0 -1.2304687,-0.4453125 -1.2304687,-1.1484375 0,-0.703125 0.4804687,-1.1484375 1.2304687,-1.1484375 z m 0,3.0351563 c 0.8789063,0 1.4765625,0.5859375 1.4765625,1.4179687 0,0.8671875 -0.5976562,1.44140629 -1.5,1.44140629 -0.8554687,0 -1.4648437,-0.58593749 -1.4648437,-1.42968749 0,-0.8554688 0.5976562,-1.4296875 1.4882812,-1.4296875 z m 0,0"
       style="fill:#000000;fill-opacity:1;fill-rule:nonzero;stroke:none"
       aria-label="8"
       transform="matrix(1.3333333,0,0,1.3333333,424.66667,185.33333)"
       clip-path="url(#clipPath30)" />
    <path
       id="path31"
       d="m 3805,160.832 v 33.336"
       style="fill:none;stroke:#000000;stroke-width:5;stroke-linecap:butt;stroke-linejoin:round;stroke-miterlimit:10;stroke-dasharray:none;stroke-opacity:1"
       transform="matrix(0.13333333,0,0,-0.13333333,0,190.66667)"
       clip-path="url(#clipPath32)" />
    <path
       id="path33"
       d="M 2.5898438,-5.1455078 V -9.765625e-4 H 3.46875 V -7.2314453 H 2.8945313 c -0.3164063,1.1132812 -0.515625,1.265625 -1.8750001,1.4414062 v 0.6445313 z m 5.7246093,-2.0859375 c -0.6679687,0 -1.265625,0.3046875 -1.6289062,0.796875 -0.46875,0.6328125 -0.6914063,1.59375 -0.6914063,2.9296875 0,2.4492187 0.796875,3.73828124 2.3203125,3.73828124 1.5,0 2.3085939,-1.28906254 2.3085939,-3.66796874 0,-1.40625 -0.210938,-2.34375 -0.6796876,-3 -0.375,-0.5039063 -0.9609375,-0.796875 -1.6289063,-0.796875 z m 0,0.7851562 c 0.9492188,0 1.4179688,0.9726563 1.4179688,2.9296875 0,2.0507813 -0.46875,3.01171879 -1.4414063,3.01171879 -0.9257812,0 -1.40625,-0.99609379 -1.40625,-2.98828129 0,-1.9804687 0.4804688,-2.953125 1.4296875,-2.953125 z m 0,0"
       style="fill:#000000;fill-opacity:1;fill-rule:nonzero;stroke:none"
       aria-label="10"
       transform="matrix(1.3333333,0,0,1.3333333,500,185.33333)"
       clip-path="url(#clipPath34)" />
    <path
       id="path35"
       d="m 545.832,1258.33 h 33.336"
       style="fill:none;stroke:#000000;stroke-width:5;stroke-linecap:butt;stroke-linejoin:round;stroke-miterlimit:10;stroke-dasharray:none;stroke-opacity:1"
       transform="matrix(0.13333333,0,0,-0.13333333,0,190.66667)"
       clip-path="url(#clipPath36)" />
    <path
       id="path37"
       d="M 5.4373078,-2.6718672 H 0.39824531 v 0.703125 H 5.4373078 Z m 3.1552735,-4.5585937 c -0.6679688,0 -1.265625,0.3046875 -1.6289063,0.796875 -0.46875,0.6328125 -0.6914062,1.59375 -0.6914062,2.9296875 0,2.4492187 0.796875,3.73828121 2.3203125,3.73828121 1.4999997,0 2.3085937,-1.28906251 2.3085937,-3.66796871 0,-1.40625 -0.210937,-2.34375 -0.679687,-3 -0.3750005,-0.5039063 -0.960938,-0.796875 -1.6289067,-0.796875 z m 0,0.7851562 c 0.9492187,0 1.4179687,0.9726563 1.4179687,2.9296875 0,2.0507813 -0.46875,3.01171876 -1.4414062,3.01171876 -0.9257813,0 -1.40625,-0.99609376 -1.40625,-2.98828126 0,-1.9804687 0.4804687,-2.953125 1.4296875,-2.953125 z m 4.7167967,5.4023438 H 12.266409 V 7.8125e-6 h 1.042969 z m 5.62793,-6.046875 h -3.65625 l -0.527344,3.8554687 h 0.808594 c 0.410156,-0.4804687 0.75,-0.65625 1.300781,-0.65625 0.949219,0 1.546875,0.65625 1.546875,1.6992188 0,1.0195312 -0.597656,1.64062496 -1.546875,1.64062496 -0.773437,0 -1.242187,-0.38671875 -1.453125,-1.18359376 h -0.878906 c 0.117187,0.5742188 0.222656,0.85546876 0.433594,1.11328126 0.398437,0.5390625 1.113281,0.85546875 1.910156,0.85546875 1.429687,0 2.4375,-1.04296875 2.4375,-2.54296871 0,-1.3945313 -0.9375,-2.3554688 -2.296875,-2.3554688 -0.492188,0 -0.902344,0.1289063 -1.300781,0.421875 l 0.269531,-1.9804687 h 2.953125 z m 0,0"
       style="fill:#000000;fill-opacity:1;fill-rule:nonzero;stroke:none"
       aria-label="−0.5"
       transform="matrix(1.3333333,0,0,1.3333333,42.7776,27.777333)"
       clip-path="url(#clipPath38)" />
    <path
       id="path39"
       d="m 545.832,1075.83 h 33.336"
       style="fill:none;stroke:#000000;stroke-width:5;stroke-linecap:butt;stroke-linejoin:round;stroke-miterlimit:10;stroke-dasharray:none;stroke-opacity:1"
       transform="matrix(0.13333333,0,0,-0.13333333,0,190.66667)"
       clip-path="url(#clipPath40)" />
    <path
       id="path41"
       d="m 2.7548828,-7.2314375 c -0.6679687,0 -1.265625,0.3046875 -1.6289062,0.796875 -0.46875004,0.6328125 -0.69140629,1.59375 -0.69140629,2.9296875 0,2.4492188 0.79687499,3.73828125 2.32031249,3.73828125 1.5,0 2.3085938,-1.28906245 2.3085938,-3.66796875 0,-1.40625 -0.2109375,-2.34375 -0.6796875,-3 -0.375,-0.5039062 -0.9609375,-0.796875 -1.6289063,-0.796875 z m 0,0.7851563 c 0.9492188,0 1.4179688,0.9726562 1.4179688,2.9296875 0,2.0507812 -0.46875,3.0117187 -1.4414063,3.0117187 -0.9257812,0 -1.40625,-0.9960937 -1.40625,-2.9882812 0,-1.9804688 0.4804688,-2.953125 1.4296875,-2.953125 z m 0,0"
       style="fill:#000000;fill-opacity:1;fill-rule:nonzero;stroke:none"
       aria-label="0"
       transform="matrix(1.3333333,0,0,1.3333333,61.666667,52.110667)"
       clip-path="url(#clipPath42)" />
    <path
       id="path43"
       d="m 545.832,893.332 h 33.336"
       style="fill:none;stroke:#000000;stroke-width:5;stroke-linecap:butt;stroke-linejoin:round;stroke-miterlimit:10;stroke-dasharray:none;stroke-opacity:1"
       transform="matrix(0.13333333,0,0,-0.13333333,0,190.66667)"
       clip-path="url(#clipPath44)" />
    <path
       id="path45"
       d="m 2.7531219,-7.2296844 c -0.6679688,0 -1.265625,0.3046875 -1.6289063,0.796875 -0.46874997,0.6328125 -0.69140622,1.59375 -0.69140622,2.9296875 0,2.4492188 0.79687502,3.73828128 2.32031252,3.73828128 1.5,0 2.3085937,-1.28906248 2.3085937,-3.66796878 0,-1.40625 -0.2109375,-2.34375 -0.6796875,-3 -0.375,-0.5039062 -0.9609375,-0.796875 -1.6289062,-0.796875 z m 0,0.7851563 c 0.9492187,0 1.4179687,0.9726562 1.4179687,2.9296875 0,2.0507812 -0.46875,3.01171873 -1.4414062,3.01171873 -0.9257813,0 -1.40625,-0.99609373 -1.40625,-2.98828123 0,-1.9804688 0.4804687,-2.953125 1.4296875,-2.953125 z m 4.7167969,5.4023437 H 6.42695 V 7.84375e-4 h 1.0429688 z m 5.6279292,-6.046875 H 9.4415984 l -0.5273437,3.8554688 h 0.8085937 c 0.4101566,-0.4804688 0.7499996,-0.65625 1.3007816,-0.65625 0.949218,0 1.546875,0.65625 1.546875,1.6992187 0,1.0195313 -0.597657,1.64062503 -1.546875,1.64062503 -0.773438,0 -1.2421878,-0.38671875 -1.4531253,-1.18359373 H 8.6915984 c 0.1171875,0.5742187 0.2226563,0.85546873 0.4335938,1.11328123 0.3984375,0.5390625 1.1132808,0.85546875 1.9101558,0.85546875 1.429688,0 2.4375,-1.04296875 2.4375,-2.54296878 0,-1.3945312 -0.9375,-2.3554687 -2.296875,-2.3554687 -0.492187,0 -0.902343,0.1289062 -1.3007808,0.421875 l 0.2695308,-1.9804688 h 2.953125 z m 0,0"
       style="fill:#000000;fill-opacity:1;fill-rule:nonzero;stroke:none"
       aria-label="0.5"
       transform="matrix(1.3333333,0,0,1.3333333,50.555733,76.444267)"
       clip-path="url(#clipPath46)" />
    <path
       id="path47"
       d="m 545.832,710 h 33.336"
       style="fill:none;stroke:#000000;stroke-width:5;stroke-linecap:butt;stroke-linejoin:round;stroke-miterlimit:10;stroke-dasharray:none;stroke-opacity:1"
       transform="matrix(0.13333333,0,0,-0.13333333,0,190.66667)"
       clip-path="url(#clipPath48)" />
    <path
       id="path49"
       d="M 2.5908203,-5.1433625 V 0.00116875 H 3.4697266 V -7.2293 H 2.8955078 c -0.3164062,1.1132813 -0.515625,1.265625 -1.875,1.4414063 v 0.6445312 z m 0,0"
       style="fill:#000000;fill-opacity:1;fill-rule:nonzero;stroke:none"
       aria-label="1"
       transform="matrix(1.3333333,0,0,1.3333333,61.666667,100.88907)"
       clip-path="url(#clipPath50)" />
    <path
       id="path51"
       d="m 545.832,526.668 h 33.336"
       style="fill:none;stroke:#000000;stroke-width:5;stroke-linecap:butt;stroke-linejoin:round;stroke-miterlimit:10;stroke-dasharray:none;stroke-opacity:1"
       transform="matrix(0.13333333,0,0,-0.13333333,0,190.66667)"
       clip-path="url(#clipPath52)" />
    <path
       id="path53"
       d="M 2.5890594,-5.1455078 V -9.765625e-4 H 3.4679656 V -7.2314453 H 2.8937469 c -0.3164063,1.1132812 -0.515625,1.265625 -1.875,1.4414062 v 0.6445313 z m 4.8808594,4.1015625 H 6.42695 v 1.0429687375 h 1.0429688 z m 5.6279292,-6.046875 H 9.4415984 l -0.5273437,3.8554687 h 0.8085937 c 0.4101566,-0.4804687 0.7499996,-0.65625 1.3007816,-0.65625 0.949218,0 1.546875,0.65625 1.546875,1.6992188 0,1.0195312 -0.597657,1.64062499 -1.546875,1.64062499 -0.773438,0 -1.2421878,-0.38671875 -1.4531253,-1.18359379 H 8.6915984 c 0.1171875,0.5742188 0.2226563,0.85546879 0.4335938,1.11328129 0.3984375,0.5390625 1.1132808,0.85546875 1.9101558,0.85546875 1.429688,0 2.4375,-1.04296875 2.4375,-2.54296874 0,-1.3945313 -0.9375,-2.3554688 -2.296875,-2.3554688 -0.492187,0 -0.902343,0.1289063 -1.3007808,0.421875 l 0.2695308,-1.9804687 h 2.953125 z m 0,0"
       style="fill:#000000;fill-opacity:1;fill-rule:nonzero;stroke:none"
       aria-label="1.5"
       transform="matrix(1.3333333,0,0,1.3333333,50.555733,125.33333)"
       clip-path="url(#clipPath54)" />
    <path
       id="path55"
       d="m 545.832,344.168 h 33.336"
       style="fill:none;stroke:#000000;stroke-width:5;stroke-linecap:butt;stroke-linejoin:round;stroke-miterlimit:10;stroke-dasharray:none;stroke-opacity:1"
       transform="matrix(0.13333333,0,0,-0.13333333,0,190.66667)"
       clip-path="url(#clipPath56)" />
    <path
       id="path57"
       d="M 5.0634766,-0.86621094 H 1.3251953 C 1.4189453,-1.4638672 1.7353516,-1.8505859 2.6142578,-2.3779297 l 0.9960938,-0.5625 c 0.984375,-0.5507812 1.5,-1.2890625 1.5,-2.1796875 0,-0.5976562 -0.2460938,-1.1601562 -0.65625,-1.546875 -0.421875,-0.375 -0.9492188,-0.5625 -1.6171875,-0.5625 -0.9023438,0 -1.5703125,0.328125 -1.95703129,0.9375 -0.24609375,0.3867188 -0.36328125,0.8320313 -0.375,1.5703125 H 1.3837891 c 0.023437,-0.4921875 0.082031,-0.7851562 0.2109375,-1.0195312 0.2226562,-0.4453125 0.6796875,-0.7148438 1.21875,-0.7148438 0.796875,0 1.3945312,0.5742188 1.3945312,1.359375 0,0.5742188 -0.328125,1.078125 -0.9609375,1.4414063 l -0.9140625,0.5390625 c -1.47656249,0.84375 -1.91015624,1.5234375 -1.99218749,3.10546871 H 5.0634766 Z m 0,0"
       style="fill:#000000;fill-opacity:1;fill-rule:nonzero;stroke:none"
       aria-label="2"
       transform="matrix(1.3333333,0,0,1.3333333,61.666667,149.66667)"
       clip-path="url(#clipPath58)" />
    <path
       id="path59"
       d="m 545.832,160.832 h 33.336"
       style="fill:none;stroke:#000000;stroke-width:5;stroke-linecap:butt;stroke-linejoin:round;stroke-miterlimit:10;stroke-dasharray:none;stroke-opacity:1"
       transform="matrix(0.13333333,0,0,-0.13333333,0,190.66667)"
       clip-path="url(#clipPath60)" />
    <path
       id="path61"
       d="M 3.3742156,-0.58710625 H 0.88984063 C 0.94843438,-0.98554375 1.1593719,-1.2316375 1.7453094,-1.5832 l 0.65625,-0.375 c 0.6679687,-0.375 1.0078125,-0.8671875 1.0078125,-1.453125 0,-0.3984375 -0.1640625,-0.7734375 -0.4453125,-1.0429687 -0.28125,-0.2460938 -0.6210938,-0.3632813 -1.0664063,-0.3632813 -0.609375,0 -1.05468747,0.2109375 -1.31249997,0.6210938 -0.1640625,0.2578125 -0.234375,0.5507812 -0.2578125,1.0429687 h 0.59765625 c 0.0117188,-0.328125 0.0585938,-0.5273437 0.12890622,-0.6796875 0.1640625,-0.2929687 0.46875,-0.4804687 0.8203125,-0.4804687 0.5273438,0 0.9375,0.3867187 0.9375,0.9140625 0,0.3867187 -0.2226562,0.7148437 -0.6445312,0.9609375 l -0.609375,0.3515625 c -0.99609377,0.5742187 -1.27734377,1.03125 -1.33593752,2.0742187 H 3.3742156 Z M 6.8371063,-0.692575 H 6.1457 v 0.69140625 h 0.6914063 z m 4.6787107,-4.03125 H 9.0783172 l -0.3632813,2.5664063 h 0.5507813 c 0.2695312,-0.328125 0.4921875,-0.4335938 0.8671878,-0.4335938 0.632812,0 1.03125,0.4335938 1.03125,1.125 0,0.6796875 -0.398438,1.1015625 -1.042969,1.1015625 -0.5039063,0 -0.8203126,-0.2578125 -0.9609376,-0.796875 H 8.5744109 c 0.082031,0.38671875 0.140625,0.57421875 0.28125,0.75 0.2695313,0.3515625 0.75,0.5625 1.2890621,0.5625 0.949219,0 1.617188,-0.69140625 1.617188,-1.6875 0,-0.9375 -0.621094,-1.5820312 -1.523438,-1.5820312 -0.3398433,0 -0.6093746,0.09375 -0.8789058,0.2929687 l 0.1875,-1.3242187 h 1.9687498 z m 7.095703,-114.996095 1.171875,-1.6875 h -0.621093 l -0.84375,1.26563 -0.84375,-1.26563 h -0.632813 l 1.171875,1.71094 -1.230469,1.78125 h 0.632813 l 0.878906,-1.33594 0.878906,1.33594 h 0.644532 z m 7.558594,-1.6289 v 3.43359 h 0.585938 v -4.81641 h -0.386719 c -0.199219,0.73828 -0.339844,0.83203 -1.242188,0.96094 v 0.42188 z m 5.663086,-1.38282 c -0.433594,0 -0.832031,0.19922 -1.078125,0.52735 -0.304687,0.42187 -0.46875,1.0664 -0.46875,1.95703 0,1.6289 0.539063,2.48437 1.546875,2.48437 1.007813,0 1.546875,-0.85547 1.546875,-2.44922 0,-0.92578 -0.140625,-1.55859 -0.457031,-1.99218 -0.246094,-0.33985 -0.632813,-0.52735 -1.089844,-0.52735 z m 0,0.51563 c 0.644531,0 0.949219,0.64453 0.949219,1.95703 0,1.37109 -0.304688,2.01562 -0.960938,2.01562 -0.621093,0 -0.925781,-0.66796 -0.925781,-2.0039 0,-1.32422 0.304688,-1.96875 0.9375,-1.96875 z m 5.847656,-3.03809 v 1.17188 h 0.585938 v -1.17188 h 0.703125 v -0.52734 h -0.703125 v -3.11719 H 37.8332 l -2.144531,3.03516 v 0.60937 z m 0,-0.52734 h -1.476562 l 1.476562,-2.1211 z m 0,0"
       style="fill:#000000;fill-opacity:1;fill-rule:nonzero;stroke:none"
       aria-label="2.5&#10;x 10&#10;4"
       transform="matrix(1.3333333,0,0,1.3333333,50.555733,174.11093)"
       clip-path="url(#clipPath62)" />
    <path
       id="path63"
       d="M 842.5,1075.83 H 3508.33"
       style="fill:none;stroke:#0000ff;stroke-width:5;stroke-linecap:butt;stroke-linejoin:round;stroke-miterlimit:10;stroke-dasharray:none;stroke-opacity:1"
       transform="matrix(0.13333333,0,0,-0.13333333,0,190.66667)"
       clip-path="url(#clipPath64)" />
    <path
       id="path65"
       d="M 842.5,1075.83 1138.33,831.668 1435,588.332 1730.83,344.168 2027.5,465.832 2323.33,588.332 2620,710 l 295.83,121.668 296.67,122.5 295.83,121.662"
       style="fill:none;stroke:#0000ff;stroke-width:20;stroke-linecap:butt;stroke-linejoin:round;stroke-miterlimit:10;stroke-dasharray:none;stroke-opacity:1"
       transform="matrix(0.13333333,0,0,-0.13333333,0,190.66667)"
       clip-path="url(#clipPath66)" />
    <path
       id="path67"
       d="M 0.70409375,-5.2392578 V -9.765625e-4 H 1.536125 V -3.2939453 c 0,-0.75 0.5507813,-1.359375 1.2304688,-1.359375 0.6210937,0 0.9726562,0.375 0.9726562,1.0429687 V -9.765625e-4 H 4.583 V -3.2939453 c 0,-0.75 0.5507813,-1.359375 1.2304688,-1.359375 0.609375,0 0.9609375,0.3867187 0.9609375,1.0429687 v 3.6093750375 h 0.84375 V -3.9267578 c 0,-0.9375 -0.5390625,-1.4648438 -1.5234375,-1.4648438 -0.6914063,0 -1.1132813,0.2109375 -1.6054688,0.796875 -0.3046875,-0.5507812 -0.7265625,-0.796875 -1.40625,-0.796875 -0.703125,0 -1.171875,0.2578125 -1.6171875,0.890625 V -5.2392578 Z M 11.04882,-5.3916016 c -1.4765622,0 -2.3554684,1.0546875 -2.3554684,2.8125 0,1.76953129 0.8789062,2.81250004 2.3671874,2.81250004 1.476563,0 2.367188,-1.0546875 2.367188,-2.77734374 0,-1.8164063 -0.855469,-2.8476563 -2.378907,-2.8476563 z m 0.01172,0.7734375 c 0.9375,0 1.5,0.7734375 1.5,2.0625 0,1.2421875 -0.585937,2.01562504 -1.5,2.01562504 -0.925781,0 -1.4999999,-0.77343754 -1.4999999,-2.03906254 0,-1.265625 0.5742189,-2.0390625 1.4999999,-2.0390625 z m 3.533203,-0.6210937 v 5.2382812375 h 0.832031 V -3.2939453 c 0,-0.75 0.550782,-1.359375 1.230469,-1.359375 0.621094,0 0.972656,0.375 0.972656,1.0429687 v 3.6093750375 h 0.84375 V -3.2939453 c 0,-0.75 0.550782,-1.359375 1.230469,-1.359375 0.609375,0 0.960938,0.3867187 0.960938,1.0429687 v 3.6093750375 h 0.84375 V -3.9267578 c 0,-0.9375 -0.539063,-1.4648438 -1.523438,-1.4648438 -0.691406,0 -1.113281,0.2109375 -1.605469,0.796875 -0.304687,-0.5507812 -0.726562,-0.796875 -1.40625,-0.796875 -0.703125,0 -1.171875,0.2578125 -1.617187,0.890625 v -0.7382812 z m 12.758789,2.8945312 c 0,-0.796875 -0.07031,-1.2773437 -0.210937,-1.6640625 -0.339844,-0.8554687 -1.148438,-1.3828125 -2.121094,-1.3828125 -1.464844,0 -2.402344,1.1132813 -2.402344,2.8359375 0,1.73437504 0.902344,2.78906254 2.378907,2.78906254 1.195312,0 2.027343,-0.6796875 2.238281,-1.82812504 h -0.832031 c -0.234375,0.69140629 -0.703125,1.05468754 -1.371094,1.05468754 -0.539063,0 -0.984375,-0.24609375 -1.265625,-0.67968754 -0.199219,-0.3046875 -0.269531,-0.5976562 -0.28125,-1.125 z m -3.84375,-0.6796875 c 0.07031,-0.9609375 0.65625,-1.59375 1.5,-1.59375 0.84375,0 1.441407,0.65625 1.441407,1.59375 z m 4.97461,-2.2148437 v 5.2382812375 h 0.832031 V -2.8955078 c 0,-1.0664063 0.5625,-1.7578125 1.417969,-1.7578125 0.667968,0 1.089843,0.3984375 1.089843,1.0195312 v 3.6328125375 h 0.820313 V -3.9619141 c 0,-0.8671875 -0.644531,-1.4296875 -1.652344,-1.4296875 -0.785156,0 -1.277344,0.3046875 -1.746094,1.03125 v -0.8789062 z m 7.40039,0 h -0.867187 v -1.4414063 h -0.820313 v 1.4414063 h -0.714843 v 0.6796875 h 0.714843 v 3.96093749 c 0,0.5390625 0.351563,0.83203125 1.007813,0.83203125 0.210937,0 0.398437,-0.0234375 0.679687,-0.0703125 v -0.703125 c -0.128906,0.0234375 -0.234375,0.0351563 -0.398437,0.0351563 -0.363281,0 -0.46875,-0.09375 -0.46875,-0.46875 V -4.5595703 h 0.867187 z m 0,0"
       style="fill:#000000;fill-opacity:1;fill-rule:nonzero;stroke:none"
       aria-label="moment"
       transform="matrix(1.3333333,0,0,1.3333333,265.88933,12.333333)"
       clip-path="url(#clipPath68)" />
    <path
       id="path69"
       d="M 842.5,1075.83 H 3508.33"
       style="fill:none;stroke:#0000ff;stroke-width:5;stroke-linecap:butt;stroke-linejoin:round;stroke-miterlimit:10;stroke-dasharray:none;stroke-opacity:1"
       transform="matrix(0.13333333,0,0,-0.13333333,0,190.66667)"
       clip-path="url(#clipPath70)" />
    <path
       id="path71"
       d="M 842.5,1075.83 1138.33,831.668 1435,588.332 1730.83,344.168 2027.5,465.832 2323.33,588.332 2620,710 l 295.83,121.668 296.67,122.5 295.83,121.662"
       style="fill:none;stroke:#0000ff;stroke-width:20;stroke-linecap:butt;stroke-linejoin:round;stroke-miterlimit:10;stroke-dasharray:none;stroke-opacity:1"
       transform="matrix(0.13333333,0,0,-0.13333333,0,190.66667)"
       clip-path="url(#clipPath72)" />
  </g>
</svg>
