<?xml version="1.0" encoding="UTF-8" standalone="no"?>
<!-- Created with Inkscape (http://www.inkscape.org/) -->

<svg
   version="1.1"
   id="svg1"
   width="412"
   height="100"
   viewBox="0 0 412 100"
   sodipodi:docname="exs5_1.eps"
   xmlns:inkscape="http://www.inkscape.org/namespaces/inkscape"
   xmlns:sodipodi="http://sodipodi.sourceforge.net/DTD/sodipodi-0.dtd"
   xmlns="http://www.w3.org/2000/svg"
   xmlns:svg="http://www.w3.org/2000/svg">
  <defs
     id="defs1">
    <clipPath
       clipPathUnits="userSpaceOnUse"
       id="clipPath1">
      <path
         d="M 0,8 V 749 H 3090 V 8 Z"
         transform="matrix(0.1,0,0,-0.100011,-199.28901,1.164188)"
         id="path1" />
    </clipPath>
    <clipPath
       clipPathUnits="userSpaceOnUse"
       id="clipPath3">
      <path
         d="M 0,8 V 749 H 3090 V 8 Z"
         id="path3" />
    </clipPath>
    <clipPath
       clipPathUnits="userSpaceOnUse"
       id="clipPath5">
      <path
         d="M 0,8 V 749 H 3090 V 8 Z"
         id="path5" />
    </clipPath>
    <clipPath
       clipPathUnits="userSpaceOnUse"
       id="clipPath7">
      <path
         d="M 0,8 V 749 H 3090 V 8 Z"
         id="path7" />
    </clipPath>
    <clipPath
       clipPathUnits="userSpaceOnUse"
       id="clipPath9">
      <path
         d="M 0,8 V 749 H 3090 V 8 Z"
         id="path9" />
    </clipPath>
    <clipPath
       clipPathUnits="userSpaceOnUse"
       id="clipPath11">
      <path
         d="M 0,8 V 749 H 3090 V 8 Z"
         id="path11" />
    </clipPath>
    <clipPath
       clipPathUnits="userSpaceOnUse"
       id="clipPath13">
      <path
         d="M 0,8 V 749 H 3090 V 8 Z"
         id="path13" />
    </clipPath>
    <clipPath
       clipPathUnits="userSpaceOnUse"
       id="clipPath15">
      <path
         d="M 0,8 V 749 H 3090 V 8 Z"
         id="path15" />
    </clipPath>
    <clipPath
       clipPathUnits="userSpaceOnUse"
       id="clipPath17">
      <path
         d="M 0,8 V 749 H 3090 V 8 Z"
         id="path17" />
    </clipPath>
    <clipPath
       clipPathUnits="userSpaceOnUse"
       id="clipPath19">
      <path
         d="M 0,8 V 749 H 3090 V 8 Z"
         id="path19" />
    </clipPath>
    <clipPath
       clipPathUnits="userSpaceOnUse"
       id="clipPath21">
      <path
         d="M 0,8 V 749 H 3090 V 8 Z"
         id="path21" />
    </clipPath>
    <clipPath
       clipPathUnits="userSpaceOnUse"
       id="clipPath23">
      <path
         d="M 0,8 V 749 H 3090 V 8 Z"
         id="path23" />
    </clipPath>
    <clipPath
       clipPathUnits="userSpaceOnUse"
       id="clipPath25">
      <path
         d="M 0,8 V 749 H 3090 V 8 Z"
         id="path25" />
    </clipPath>
    <clipPath
       clipPathUnits="userSpaceOnUse"
       id="clipPath27">
      <path
         d="M 0,8 V 749 H 3090 V 8 Z"
         id="path27" />
    </clipPath>
    <clipPath
       clipPathUnits="userSpaceOnUse"
       id="clipPath29">
      <path
         d="M 0,8 V 749 H 3090 V 8 Z"
         id="path29" />
    </clipPath>
    <clipPath
       clipPathUnits="userSpaceOnUse"
       id="clipPath31">
      <path
         d="M 0,8 V 749 H 3090 V 8 Z"
         id="path31" />
    </clipPath>
    <clipPath
       clipPathUnits="userSpaceOnUse"
       id="clipPath33">
      <path
         d="M 0,8 V 749 H 3090 V 8 Z"
         id="path33" />
    </clipPath>
    <clipPath
       clipPathUnits="userSpaceOnUse"
       id="clipPath35">
      <path
         d="M 0,8 V 749 H 3090 V 8 Z"
         id="path35" />
    </clipPath>
    <clipPath
       clipPathUnits="userSpaceOnUse"
       id="clipPath37">
      <path
         d="M 0,8 V 749 H 3090 V 8 Z"
         id="path37" />
    </clipPath>
    <clipPath
       clipPathUnits="userSpaceOnUse"
       id="clipPath39">
      <path
         d="M 0,8 V 749 H 3090 V 8 Z"
         id="path39" />
    </clipPath>
    <clipPath
       clipPathUnits="userSpaceOnUse"
       id="clipPath41">
      <path
         d="M 0,8 V 749 H 3090 V 8 Z"
         id="path41" />
    </clipPath>
    <clipPath
       clipPathUnits="userSpaceOnUse"
       id="clipPath43">
      <path
         d="M 0,8 V 749 H 3090 V 8 Z"
         id="path43" />
    </clipPath>
    <clipPath
       clipPathUnits="userSpaceOnUse"
       id="clipPath45">
      <path
         d="M 0,8 V 749 H 3090 V 8 Z"
         id="path45" />
    </clipPath>
    <clipPath
       clipPathUnits="userSpaceOnUse"
       id="clipPath47">
      <path
         d="M 0,8 V 749 H 3090 V 8 Z"
         id="path47" />
    </clipPath>
    <clipPath
       clipPathUnits="userSpaceOnUse"
       id="clipPath49">
      <path
         d="M 0,8 V 749 H 3090 V 8 Z"
         id="path49" />
    </clipPath>
    <clipPath
       clipPathUnits="userSpaceOnUse"
       id="clipPath51">
      <path
         d="M 0,8 V 749 H 3090 V 8 Z"
         id="path51" />
    </clipPath>
    <clipPath
       clipPathUnits="userSpaceOnUse"
       id="clipPath53">
      <path
         d="M 0,8 V 749 H 3090 V 8 Z"
         id="path53" />
    </clipPath>
    <clipPath
       clipPathUnits="userSpaceOnUse"
       id="clipPath55">
      <path
         d="M 0,8 V 749 H 3090 V 8 Z"
         id="path55" />
    </clipPath>
    <clipPath
       clipPathUnits="userSpaceOnUse"
       id="clipPath57">
      <path
         d="M 0,8 V 749 H 3090 V 8 Z"
         id="path57" />
    </clipPath>
    <clipPath
       clipPathUnits="userSpaceOnUse"
       id="clipPath59">
      <path
         d="M 0,8 V 749 H 3090 V 8 Z"
         id="path59" />
    </clipPath>
    <clipPath
       clipPathUnits="userSpaceOnUse"
       id="clipPath61">
      <path
         d="M 0,8 V 749 H 3090 V 8 Z"
         id="path61" />
    </clipPath>
    <clipPath
       clipPathUnits="userSpaceOnUse"
       id="clipPath63">
      <path
         d="M 0,8 V 749 H 3090 V 8 Z"
         id="path63" />
    </clipPath>
    <clipPath
       clipPathUnits="userSpaceOnUse"
       id="clipPath65">
      <path
         d="M 0,8 V 749 H 3090 V 8 Z"
         id="path65" />
    </clipPath>
    <clipPath
       clipPathUnits="userSpaceOnUse"
       id="clipPath66">
      <path
         d="M 0,8 V 749 H 3090 V 8 Z"
         transform="matrix(0.1,0,0,-0.100011,-54.037102,1.7904267)"
         id="path66" />
    </clipPath>
    <clipPath
       clipPathUnits="userSpaceOnUse"
       id="clipPath67">
      <path
         d="M 0,8 V 749 H 3090 V 8 Z"
         transform="matrix(0.1,0,0,-0.100011,-187.65801,53.889527)"
         id="path67" />
    </clipPath>
    <clipPath
       clipPathUnits="userSpaceOnUse"
       id="clipPath69">
      <path
         d="M 0,8 V 749 H 3090 V 8 Z"
         id="path69" />
    </clipPath>
  </defs>
  <sodipodi:namedview
     id="namedview1"
     pagecolor="#ffffff"
     bordercolor="#000000"
     borderopacity="0.25"
     inkscape:showpageshadow="2"
     inkscape:pageopacity="0.0"
     inkscape:pagecheckerboard="0"
     inkscape:deskcolor="#d1d1d1">
    <inkscape:page
       x="0"
       y="0"
       inkscape:label="1"
       id="page1"
       width="412"
       height="100"
       margin="0"
       bleed="0" />
  </sodipodi:namedview>
  <g
     id="g1"
     inkscape:groupmode="layer"
     inkscape:label="1">
    <text
       id="text1"
       xml:space="preserve"
       transform="matrix(1.3333333,0,0,1.3331867,265.71867,98.44792)"
       clip-path="url(#clipPath1)"><tspan
         id="tspan1"
         style="font-variant:normal;font-weight:normal;font-size:12.0006px;font-family:'Times New Roman';writing-mode:lr-tb;fill:#000000;fill-opacity:1;fill-rule:nonzero;stroke:none"
         x="0"
         y="0">6.0</tspan></text>
    <path
       id="path2"
       d="M 116.25,125.051 H 2990"
       style="fill:none;stroke:#231f20;stroke-width:2.528;stroke-linecap:butt;stroke-linejoin:miter;stroke-miterlimit:3.8637;stroke-dasharray:none;stroke-opacity:1"
       transform="matrix(0.13333333,0,0,-0.13333333,0,100)"
       clip-path="url(#clipPath3)" />
    <path
       id="path4"
       d="m 146.879,351.34 h 2815 v 47.9297 h -2815 z"
       style="fill:none;stroke:#231f20;stroke-width:6.4;stroke-linecap:butt;stroke-linejoin:miter;stroke-miterlimit:3.8637;stroke-dasharray:none;stroke-opacity:1"
       transform="matrix(0.13333333,0,0,-0.13333333,0,100)"
       clip-path="url(#clipPath5)" />
    <path
       id="path6"
       d="m 2905.86,299.66 c 0.16,28.559 23.63,51.68 52.07,51.328 29.49,0.352 52.97,-22.769 53.12,-51.328 -0.15,-28.551 -23.63,-51.68 -53.12,-51.289 -28.44,-0.391 -51.91,22.738 -52.07,51.289"
       style="fill:#ffffff;fill-opacity:1;fill-rule:nonzero;stroke:none"
       transform="matrix(0.13333333,0,0,-0.13333333,0,100)"
       clip-path="url(#clipPath7)" />
    <path
       id="path8"
       d="m 2901.48,296.578 c 0.12,28.391 24.54,51.442 54.11,51.094 30.62,0.348 55.04,-22.703 55.23,-51.094 -0.19,-28.437 -24.61,-51.488 -55.23,-51.098 -29.57,-0.39 -53.99,22.661 -54.11,51.098 z"
       style="fill:none;stroke:#231f20;stroke-width:6.86848;stroke-linecap:butt;stroke-linejoin:miter;stroke-miterlimit:3.8637;stroke-dasharray:none;stroke-opacity:1"
       transform="matrix(0.13333333,0,0,-0.13333333,0,100)"
       clip-path="url(#clipPath9)" />
    <path
       id="path10"
       d="m 91.8789,244.352 58.9801,101.007 60,-104.019 -3.98,3.012 z"
       style="fill:none;stroke:#231f20;stroke-width:6.4;stroke-linecap:butt;stroke-linejoin:miter;stroke-miterlimit:3.8637;stroke-dasharray:none;stroke-opacity:1"
       transform="matrix(0.13333333,0,0,-0.13333333,0,100)"
       clip-path="url(#clipPath11)" />
    <path
       id="path12"
       d="M 1080.86,406.262 V 747.238"
       style="fill:none;stroke:#231f20;stroke-width:6.4;stroke-linecap:butt;stroke-linejoin:miter;stroke-miterlimit:3.8637;stroke-dasharray:none;stroke-opacity:1"
       transform="matrix(0.13333333,0,0,-0.13333333,0,100)"
       clip-path="url(#clipPath13)" />
    <path
       id="path14"
       d="m 1080.86,470.25 25.62,25.578 -25.62,-89.566 -25.59,89.566 z"
       style="fill:#000000;fill-opacity:1;fill-rule:evenodd;stroke:none"
       transform="matrix(0.13333333,0,0,-0.13333333,0,100)"
       clip-path="url(#clipPath15)" />
    <path
       id="path16"
       d="m 1080.86,470.25 25.62,25.582 -25.62,-89.57 -25.59,89.57 z"
       style="fill:none;stroke:#000000;stroke-width:6.4;stroke-linecap:butt;stroke-linejoin:miter;stroke-miterlimit:4;stroke-dasharray:none;stroke-opacity:1"
       transform="matrix(0.13333333,0,0,-0.13333333,0,100)"
       clip-path="url(#clipPath17)" />
    <path
       id="path18"
       d="M 148.672,162.859 V 64.0781"
       style="fill:none;stroke:#231f20;stroke-width:1.6;stroke-linecap:butt;stroke-linejoin:miter;stroke-miterlimit:3.86369;stroke-dasharray:none;stroke-opacity:1"
       transform="matrix(0.13333333,0,0,-0.13333333,0,100)"
       clip-path="url(#clipPath19)" />
    <path
       id="path20"
       d="m 117.73,95.9102 61.532,55.3518 -4.614,-3.082"
       style="fill:none;stroke:#000000;stroke-width:1.6;stroke-linecap:butt;stroke-linejoin:miter;stroke-miterlimit:4;stroke-dasharray:none;stroke-opacity:1"
       transform="matrix(0.13333333,0,0,-0.13333333,0,100)"
       clip-path="url(#clipPath21)" />
    <path
       id="path22"
       d="M 37.1484,241.219 282.148,242.98"
       style="fill:none;stroke:#231f20;stroke-width:5;stroke-linecap:butt;stroke-linejoin:miter;stroke-miterlimit:3.86369;stroke-dasharray:none;stroke-opacity:1"
       transform="matrix(0.13333333,0,0,-0.13333333,0,100)"
       clip-path="url(#clipPath23)" />
    <path
       id="path24"
       d="M 39.0195,242.469 1.94922,184.699"
       style="fill:none;stroke:#231f20;stroke-width:5;stroke-linecap:butt;stroke-linejoin:miter;stroke-miterlimit:3.86369;stroke-dasharray:none;stroke-opacity:1"
       transform="matrix(0.13333333,0,0,-0.13333333,0,100)"
       clip-path="url(#clipPath25)" />
    <path
       id="path26"
       d="M 73.3594,242.469 36.2891,184.699"
       style="fill:none;stroke:#231f20;stroke-width:5;stroke-linecap:butt;stroke-linejoin:miter;stroke-miterlimit:3.86369;stroke-dasharray:none;stroke-opacity:1"
       transform="matrix(0.13333333,0,0,-0.13333333,0,100)"
       clip-path="url(#clipPath27)" />
    <path
       id="path28"
       d="M 107.699,242.43 70.6289,184.66"
       style="fill:none;stroke:#231f20;stroke-width:5;stroke-linecap:butt;stroke-linejoin:miter;stroke-miterlimit:3.86369;stroke-dasharray:none;stroke-opacity:1"
       transform="matrix(0.13333333,0,0,-0.13333333,0,100)"
       clip-path="url(#clipPath29)" />
    <path
       id="path30"
       d="m 142.031,242.43 -37.07,-57.77"
       style="fill:none;stroke:#231f20;stroke-width:5;stroke-linecap:butt;stroke-linejoin:miter;stroke-miterlimit:3.86369;stroke-dasharray:none;stroke-opacity:1"
       transform="matrix(0.13333333,0,0,-0.13333333,0,100)"
       clip-path="url(#clipPath31)" />
    <path
       id="path32"
       d="m 176.371,242.398 -37.07,-57.777"
       style="fill:none;stroke:#231f20;stroke-width:5;stroke-linecap:butt;stroke-linejoin:miter;stroke-miterlimit:3.86369;stroke-dasharray:none;stroke-opacity:1"
       transform="matrix(0.13333333,0,0,-0.13333333,0,100)"
       clip-path="url(#clipPath33)" />
    <path
       id="path34"
       d="M 210.699,242.398 173.59,184.621"
       style="fill:none;stroke:#231f20;stroke-width:5;stroke-linecap:butt;stroke-linejoin:miter;stroke-miterlimit:3.86369;stroke-dasharray:none;stroke-opacity:1"
       transform="matrix(0.13333333,0,0,-0.13333333,0,100)"
       clip-path="url(#clipPath35)" />
    <path
       id="path36"
       d="M 245.039,242.359 207.93,184.578"
       style="fill:none;stroke:#231f20;stroke-width:5;stroke-linecap:butt;stroke-linejoin:miter;stroke-miterlimit:3.86369;stroke-dasharray:none;stroke-opacity:1"
       transform="matrix(0.13333333,0,0,-0.13333333,0,100)"
       clip-path="url(#clipPath37)" />
    <path
       id="path38"
       d="M 279.379,242.359 242.27,184.578"
       style="fill:none;stroke:#231f20;stroke-width:5;stroke-linecap:butt;stroke-linejoin:miter;stroke-miterlimit:3.86369;stroke-dasharray:none;stroke-opacity:1"
       transform="matrix(0.13333333,0,0,-0.13333333,0,100)"
       clip-path="url(#clipPath39)" />
    <path
       id="path40"
       d="M 2953.98,163.328 V 64.5391"
       style="fill:none;stroke:#231f20;stroke-width:1.6;stroke-linecap:butt;stroke-linejoin:miter;stroke-miterlimit:3.86369;stroke-dasharray:none;stroke-opacity:1"
       transform="matrix(0.13333333,0,0,-0.13333333,0,100)"
       clip-path="url(#clipPath41)" />
    <path
       id="path42"
       d="m 2923.05,96.3398 61.52,55.3512 -4.61,-3.043"
       style="fill:none;stroke:#000000;stroke-width:1.6;stroke-linecap:butt;stroke-linejoin:miter;stroke-miterlimit:4;stroke-dasharray:none;stroke-opacity:1"
       transform="matrix(0.13333333,0,0,-0.13333333,0,100)"
       clip-path="url(#clipPath43)" />
    <path
       id="path44"
       d="m 2842.46,241.691 245,1.758"
       style="fill:none;stroke:#231f20;stroke-width:5;stroke-linecap:butt;stroke-linejoin:miter;stroke-miterlimit:3.86369;stroke-dasharray:none;stroke-opacity:1"
       transform="matrix(0.13333333,0,0,-0.13333333,0,100)"
       clip-path="url(#clipPath45)" />
    <path
       id="path46"
       d="m 2844.34,242.941 -37.07,-57.769"
       style="fill:none;stroke:#231f20;stroke-width:5;stroke-linecap:butt;stroke-linejoin:miter;stroke-miterlimit:3.86369;stroke-dasharray:none;stroke-opacity:1"
       transform="matrix(0.13333333,0,0,-0.13333333,0,100)"
       clip-path="url(#clipPath47)" />
    <path
       id="path48"
       d="M 2878.67,242.898 2841.6,185.172"
       style="fill:none;stroke:#231f20;stroke-width:5;stroke-linecap:butt;stroke-linejoin:miter;stroke-miterlimit:3.86369;stroke-dasharray:none;stroke-opacity:1"
       transform="matrix(0.13333333,0,0,-0.13333333,0,100)"
       clip-path="url(#clipPath49)" />
    <path
       id="path50"
       d="m 2913.01,242.898 -37.07,-57.769"
       style="fill:none;stroke:#231f20;stroke-width:5;stroke-linecap:butt;stroke-linejoin:miter;stroke-miterlimit:3.86369;stroke-dasharray:none;stroke-opacity:1"
       transform="matrix(0.13333333,0,0,-0.13333333,0,100)"
       clip-path="url(#clipPath51)" />
    <path
       id="path52"
       d="m 2947.34,242.898 -37.11,-57.769"
       style="fill:none;stroke:#231f20;stroke-width:5;stroke-linecap:butt;stroke-linejoin:miter;stroke-miterlimit:3.86369;stroke-dasharray:none;stroke-opacity:1"
       transform="matrix(0.13333333,0,0,-0.13333333,0,100)"
       clip-path="url(#clipPath53)" />
    <path
       id="path54"
       d="M 2981.68,242.859 2944.57,185.09"
       style="fill:none;stroke:#231f20;stroke-width:5;stroke-linecap:butt;stroke-linejoin:miter;stroke-miterlimit:3.86369;stroke-dasharray:none;stroke-opacity:1"
       transform="matrix(0.13333333,0,0,-0.13333333,0,100)"
       clip-path="url(#clipPath55)" />
    <path
       id="path56"
       d="M 3016.02,242.828 2978.91,185.09"
       style="fill:none;stroke:#231f20;stroke-width:5;stroke-linecap:butt;stroke-linejoin:miter;stroke-miterlimit:3.86369;stroke-dasharray:none;stroke-opacity:1"
       transform="matrix(0.13333333,0,0,-0.13333333,0,100)"
       clip-path="url(#clipPath57)" />
    <path
       id="path58"
       d="m 3050.31,242.828 -37.07,-57.777"
       style="fill:none;stroke:#231f20;stroke-width:5;stroke-linecap:butt;stroke-linejoin:miter;stroke-miterlimit:3.86369;stroke-dasharray:none;stroke-opacity:1"
       transform="matrix(0.13333333,0,0,-0.13333333,0,100)"
       clip-path="url(#clipPath59)" />
    <path
       id="path60"
       d="m 3084.65,242.828 -37.07,-57.777"
       style="fill:none;stroke:#231f20;stroke-width:5;stroke-linecap:butt;stroke-linejoin:miter;stroke-miterlimit:3.86369;stroke-dasharray:none;stroke-opacity:1"
       transform="matrix(0.13333333,0,0,-0.13333333,0,100)"
       clip-path="url(#clipPath61)" />
    <path
       id="path62"
       d="M 1083.67,162.898 V 64.0781"
       style="fill:none;stroke:#231f20;stroke-width:1.6;stroke-linecap:butt;stroke-linejoin:miter;stroke-miterlimit:3.86369;stroke-dasharray:none;stroke-opacity:1"
       transform="matrix(0.13333333,0,0,-0.13333333,0,100)"
       clip-path="url(#clipPath63)" />
    <path
       id="path64"
       d="m 1052.73,95.9102 61.53,55.3518 -4.61,-3.082"
       style="fill:none;stroke:#000000;stroke-width:1.6;stroke-linecap:butt;stroke-linejoin:miter;stroke-miterlimit:4;stroke-dasharray:none;stroke-opacity:1"
       transform="matrix(0.13333333,0,0,-0.13333333,0,100)"
       clip-path="url(#clipPath65)" />
    <text
       id="text65"
       xml:space="preserve"
       transform="matrix(1.3333333,0,0,1.3331867,72.049467,97.613027)"
       clip-path="url(#clipPath66)"><tspan
         id="tspan65"
         style="font-variant:normal;font-weight:normal;font-size:12.0006px;font-family:'Times New Roman';writing-mode:lr-tb;fill:#231f20;fill-opacity:1;fill-rule:nonzero;stroke:none"
         x="0"
         y="0">3.0</tspan><tspan
         id="tspan66"
         style="font-style:italic;font-variant:normal;font-weight:normal;font-size:12.0006px;font-family:'Times New Roman';writing-mode:lr-tb;fill:#231f20;fill-opacity:1;fill-rule:nonzero;stroke:none"
         x="59.46994"
         y="-65.116959">P</tspan></text>
    <text
       id="text66"
       xml:space="preserve"
       transform="matrix(1.3333333,0,0,1.3331867,250.21067,28.1552)"
       clip-path="url(#clipPath67)"><tspan
         id="tspan67"
         style="font-style:italic;font-variant:normal;font-weight:normal;font-size:12.0006px;font-family:'Times New Roman';writing-mode:lr-tb;fill:#231f20;fill-opacity:1;fill-rule:nonzero;stroke:none"
         x="0"
         y="0">E, I</tspan></text>
    <path
       id="path68"
       d="m 1588.48,372.82 267.03,148.832 4.37,4.379"
       style="fill:none;stroke:#000000;stroke-width:4;stroke-linecap:butt;stroke-linejoin:miter;stroke-miterlimit:4;stroke-dasharray:none;stroke-opacity:1"
       transform="matrix(0.13333333,0,0,-0.13333333,0,100)"
       clip-path="url(#clipPath69)" />
  </g>
</svg>
