<?xml version="1.0" encoding="UTF-8" standalone="no"?>
<!-- Created with Inkscape (http://www.inkscape.org/) -->

<svg
   version="1.1"
   id="svg1"
   width="448.26666"
   height="239.05333"
   viewBox="0 0 448.26666 239.05333"
   sodipodi:docname="exs5_x.eps"
   xmlns:inkscape="http://www.inkscape.org/namespaces/inkscape"
   xmlns:sodipodi="http://sodipodi.sourceforge.net/DTD/sodipodi-0.dtd"
   xmlns="http://www.w3.org/2000/svg"
   xmlns:svg="http://www.w3.org/2000/svg">
  <defs
     id="defs1" />
  <sodipodi:namedview
     id="namedview1"
     pagecolor="#ffffff"
     bordercolor="#000000"
     borderopacity="0.25"
     inkscape:showpageshadow="2"
     inkscape:pageopacity="0.0"
     inkscape:pagecheckerboard="0"
     inkscape:deskcolor="#d1d1d1">
    <inkscape:page
       x="0"
       y="0"
       inkscape:label="1"
       id="page1"
       width="448.26666"
       height="239.05333"
       margin="0"
       bleed="0" />
  </sodipodi:namedview>
  <g
     id="g1"
     inkscape:groupmode="layer"
     inkscape:label="1">
    <path
       id="path1"
       d="m 0.28125,0.20006107 c 1.6171875,-0.2695609 2.4140625,-0.597722 3.4101563,-1.37124457 1.3945312,-1.1134037 2.2148437,-2.707329 2.2148437,-4.3246944 0,-1.5822053 -0.8671875,-2.6135687 -2.1796875,-2.6135687 -1.5117187,0 -2.89453125,1.5353251 -2.89453125,3.2112907 0,1.2657642 0.73828125,2.1564872 1.79296875,2.1564872 0.4921875,0 0.9140625,-0.1523605 1.546875,-0.5508419 l 0.046875,0.02344 C 4.0195312,-2.7065086 3.421875,-1.932986 2.6835938,-1.2649438 1.8164062,-0.52658136 1.21875,-0.2101403 0.28125,-0.01089964 Z M 3.8203125,-7.8047256 c 0.7382812,0 1.1835937,0.597722 1.1835937,1.5939253 0,0.9258831 -0.3046875,2.0510068 -0.65625,2.390888 -0.3164062,0.316441 -0.8085937,0.5156817 -1.2656249,0.5156817 -0.7617188,0 -1.1953126,-0.597722 -1.1953126,-1.6642456 0,-0.8907229 0.3398438,-1.8517661 0.8554688,-2.3791679 0.2929688,-0.293001 0.6679688,-0.4570815 1.078125,-0.4570815 z m 13.4531245,6.3991413 c -0.05859,0.0586 -0.117187,0.1172004 -0.164062,0.1992407 -0.199219,0.23440076 -0.304688,0.36332119 -0.316406,0.37504123 -0.269532,0.29300098 -0.386719,0.37504125 -0.5625,0.37504125 -0.09375,0 -0.140625,-0.0586002 -0.140625,-0.18752063 0,-0.0468802 0.04687,-0.25784086 0.117187,-0.53912175 l 0.820313,-3.0120501 c 0.01172,-0.07032 0.03516,-0.2578408 0.03516,-0.3398811 0,-0.4336415 -0.292969,-0.7618026 -0.691406,-0.7618026 -0.246094,0 -0.480469,0.09376 -0.773438,0.2695609 -0.585937,0.3867613 -1.078125,0.9610432 -1.910156,2.2854077 0.316406,-0.9376032 0.480469,-1.6056454 0.480469,-1.8283261 0,-0.4336415 -0.269531,-0.7266425 -0.679688,-0.7266425 -0.726562,0 -1.570312,0.7969627 -2.671875,2.5315285 l 0.691407,-2.5080884 -0.03516,-0.02344 c -0.644531,0.1406405 -0.902343,0.1875207 -1.9218747,0.3750413 v 0.1992407 c 0.5507817,0.01172 0.5507817,0.01172 0.6562497,0.07032 0.07031,0.02344 0.117188,0.1054803 0.117188,0.1875206 0,0.1406405 -0.292969,1.2540442 -0.714844,2.7542092 -0.2578125,0.90244301 -0.3046875,1.10168367 -0.46875,1.71112570273 H 10.04297 C 10.617188,-1.8978259 10.804688,-2.3549074 11.203125,-2.9760695 c 0.691406,-1.0313635 1.394531,-1.6876856 1.804688,-1.6876856 0.152343,0 0.234375,0.1054803 0.234375,0.2930009 0,0.1640806 -0.351563,1.5704853 -0.832032,3.2698909 -0.09375,0.33988116 -0.140625,0.51568175 -0.304687,1.10168370273 h 0.902344 C 13.488281,-1.8743858 13.722656,-2.4838279 14.34375,-3.3276707 c 0.585938,-0.8086827 1.183594,-1.3360844 1.535156,-1.3360844 0.128906,0 0.234375,0.1054803 0.234375,0.2461208 0,0.0586 -0.02344,0.1875206 -0.08203,0.4219214 l -0.691406,2.7659292 c -0.128906,0.45708152 -0.164063,0.66804223 -0.164063,0.78524262 0,0.36332121 0.175782,0.55084183 0.480469,0.55084183 0.5625,0 1.101562,-0.39848132 1.734375,-1.27748425 l 0.05859,-0.09376 z m 0,0"
       style="fill:#231f20;fill-opacity:1;fill-rule:nonzero;stroke:none"
       aria-label="9 m"
       transform="matrix(1.3333333,0,0,1.3331867,183.5,136.62)" />
    <path
       id="path2"
       d="m 230.25,969.25 h 2738"
       style="fill:none;stroke:#231f20;stroke-width:2.5;stroke-linecap:butt;stroke-linejoin:miter;stroke-miterlimit:3.8637;stroke-dasharray:none;stroke-opacity:1"
       transform="matrix(0.13333333,0,0,-0.13333333,0,239.05333)" />
    <path
       id="path3"
       d="m 232.25,969.25 v -15 l -37,15 37,15 v -15"
       style="fill:#231f20;fill-opacity:1;fill-rule:evenodd;stroke:none"
       transform="matrix(0.13333333,0,0,-0.13333333,0,239.05333)" />
    <path
       id="path4"
       d="m 2965.25,969.25 v 15 l 38,-15 -38,-15 v 15"
       style="fill:#231f20;fill-opacity:1;fill-rule:evenodd;stroke:none"
       transform="matrix(0.13333333,0,0,-0.13333333,0,239.05333)" />
    <path
       id="path5"
       d="m 191.25,1332.25 h 2815 v -163 h -2815 v 163"
       style="fill:#d3d2d2;fill-opacity:1;fill-rule:nonzero;stroke:none"
       transform="matrix(0.13333333,0,0,-0.13333333,0,239.05333)" />
    <path
       id="path6"
       d="m 191.25,1332.25 h 2815 v -163 h -2815 z"
       style="fill:none;stroke:#231f20;stroke-width:2.5;stroke-linecap:butt;stroke-linejoin:miter;stroke-miterlimit:3.8637;stroke-dasharray:none;stroke-opacity:1"
       transform="matrix(0.13333333,0,0,-0.13333333,0,239.05333)" />
    <path
       id="path7"
       d="m 191.25,1305.25 h 2815 v -109 h -2815 v 109"
       style="fill:#e9e9e9;fill-opacity:1;fill-rule:nonzero;stroke:none"
       transform="matrix(0.13333333,0,0,-0.13333333,0,239.05333)" />
    <path
       id="path8"
       d="m 191.25,1305.25 h 2815 v -109 h -2815 z"
       style="fill:none;stroke:#231f20;stroke-width:2.5;stroke-linecap:butt;stroke-linejoin:miter;stroke-miterlimit:3.8637;stroke-dasharray:none;stroke-opacity:1"
       transform="matrix(0.13333333,0,0,-0.13333333,0,239.05333)" />
    <path
       id="path9"
       d="m 2872.25,1033.25 h 268"
       style="fill:none;stroke:#a7a5a6;stroke-width:60.001;stroke-linecap:butt;stroke-linejoin:miter;stroke-miterlimit:3.8637;stroke-dasharray:none;stroke-opacity:1"
       transform="matrix(0.13333333,0,0,-0.13333333,0,239.05333)" />
    <path
       id="path10"
       d="m 2950.25,1115.25 c 0.13,27.24 22.22,49.34 49,49 27.73,0.34 49.83,-21.76 50,-49 -0.17,-27.27 -22.27,-49.37 -50,-49 -26.78,-0.37 -48.87,21.73 -49,49"
       style="fill:#ffffff;fill-opacity:1;fill-rule:nonzero;stroke:none"
       transform="matrix(0.13333333,0,0,-0.13333333,0,239.05333)" />
    <path
       id="path11"
       d="m 2950.25,1115.25 c 0.13,27.24 22.22,49.34 49,49 27.73,0.34 49.83,-21.76 50,-49 -0.17,-27.27 -22.27,-49.37 -50,-49 -26.78,-0.37 -48.87,21.73 -49,49 z"
       style="fill:none;stroke:#231f20;stroke-width:10.001;stroke-linecap:butt;stroke-linejoin:miter;stroke-miterlimit:3.8637;stroke-dasharray:none;stroke-opacity:1"
       transform="matrix(0.13333333,0,0,-0.13333333,0,239.05333)" />
    <path
       id="path12"
       d="m 61.25,1030.25 h 268"
       style="fill:none;stroke:#a7a5a6;stroke-width:60.001;stroke-linecap:butt;stroke-linejoin:miter;stroke-miterlimit:3.8637;stroke-dasharray:none;stroke-opacity:1"
       transform="matrix(0.13333333,0,0,-0.13333333,0,239.05333)" />
    <path
       id="path13"
       d="m 136.25,1062.25 59,101 60,-104 -4,3 z"
       style="fill:none;stroke:#231f20;stroke-width:10;stroke-linecap:butt;stroke-linejoin:miter;stroke-miterlimit:3.8637;stroke-dasharray:none;stroke-opacity:1"
       transform="matrix(0.13333333,0,0,-0.13333333,0,239.05333)" />
    <g
       id="g13"
       aria-label="10&#10;11&#10;12&#10;1&#10;2&#10;3"
       transform="matrix(1.3333333,0,0,1.3331867,429.5,186.88667)">
      <path
         id="path14"
         d="M 0.5390625,3.9066797e-5 H 3.609375 V -0.16404148 h -0.1875 c -0.5390625,0 -0.7617187,-0.10548035 -0.7617187,-0.35160117 0,-0.10548035 0.035156,-0.2695609 0.140625,-0.57428195 0.011719,-0.08204 0.023437,-0.1289204 0.058594,-0.2461208 l 1.5703125,-5.707659 C 4.4882812,-7.2429451 4.5,-7.3015453 4.5,-7.3601455 c 0,-0.04688 -0.023437,-0.08204 -0.058594,-0.08204 0,0 -0.3046875,0.0586 -0.9023437,0.1758005 l -0.984375,0.1992407 c -0.023437,0.01172 -0.1054687,0.02344 -0.234375,0.04688 v 0.1640805 l 0.6328125,-0.02344 c 0.2460938,-0.01172 0.4101563,0.1172004 0.4101563,0.3398812 0,0.08204 -0.023437,0.1523605 -0.070312,0.3750412 L 1.7695312,-0.75004343 C 1.640625,-0.33984207 1.40625,-0.23436171 0.5390625,-0.15232144 Z M 9.2519531,-7.4421857 c -1.7226562,0 -3.3984375,2.5080883 -3.3984375,5.098217 0,1.4532848 0.703125,2.42604804 1.7695313,2.42604804 0.4804687,0 0.9375,-0.17580059 1.3945312,-0.51568172 1.1132809,-0.80868272 1.9570309,-2.63700882 1.9570309,-4.21921402 0,-1.7462859 -0.65625,-2.7893693 -1.7226559,-2.7893693 z m -0.058594,0.316441 c 0.5742187,0 0.9140629,0.5039617 0.9140629,1.3829646 0,1.4767249 -0.4453129,3.293331 -1.0781254,4.4067347 -0.4101563,0.72664244 -0.8671875,1.10168369 -1.3710938,1.10168369 -0.5859375,0 -0.9375,-0.55084184 -0.9375,-1.47672489 0,-1.183724 0.5625,-3.3519312 1.1367188,-4.3715746 0.4101562,-0.7032024 0.8203125,-1.0430835 1.3359375,-1.0430835 z M -14.759766,-17.301669 h 3.070313 v -0.16408 h -0.1875 c -0.539063,0 -0.761719,-0.10548 -0.761719,-0.351601 0,-0.105481 0.03516,-0.269561 0.140625,-0.574282 0.01172,-0.08204 0.02344,-0.128921 0.05859,-0.246121 l 1.570312,-5.707659 c 0.05859,-0.199241 0.07031,-0.257841 0.07031,-0.316441 0,-0.04688 -0.02344,-0.08204 -0.05859,-0.08204 0,0 -0.304687,0.0586 -0.902344,0.1758 l -0.984375,0.199241 c -0.02344,0.01172 -0.105468,0.02344 -0.234375,0.04688 v 0.164081 l 0.632813,-0.02344 c 0.246094,-0.01172 0.410156,0.117201 0.410156,0.339882 0,0.08204 -0.02344,0.15236 -0.07031,0.375041 l -1.523438,5.414658 c -0.128906,0.410201 -0.363281,0.515682 -1.230469,0.597722 z m 4.699219,0 h 3.0703126 v -0.16408 h -0.1875 c -0.5390625,0 -0.7617187,-0.10548 -0.7617187,-0.351601 0,-0.105481 0.035156,-0.269561 0.140625,-0.574282 0.011719,-0.08204 0.023437,-0.128921 0.058594,-0.246121 l 1.5703125,-5.707659 c 0.058594,-0.199241 0.070312,-0.257841 0.070312,-0.316441 0,-0.04688 -0.023437,-0.08204 -0.058594,-0.08204 0,0 -0.3046875,0.0586 -0.9023438,0.1758 l -0.984375,0.199241 c -0.023437,0.01172 -0.1054687,0.02344 -0.234375,0.04688 v 0.164081 l 0.6328125,-0.02344 c 0.2460938,-0.01172 0.4101563,0.117201 0.4101563,0.339882 0,0.08204 -0.023437,0.15236 -0.070312,0.375041 l -1.5234375,5.414658 c -0.1289063,0.410201 -0.3632813,0.515682 -1.2304689,0.597722 z M -36.260742,8.9014087 h 3.070312 V 8.7373282 h -0.1875 c -0.539062,0 -0.761718,-0.1054804 -0.761718,-0.3516012 0,-0.1054803 0.03516,-0.2695609 0.140625,-0.5742819 0.01172,-0.08204 0.02344,-0.1289204 0.05859,-0.2461208 l 1.570313,-5.707659 c 0.05859,-0.1992407 0.07031,-0.2578409 0.07031,-0.3164411 0,-0.04688 -0.02344,-0.08204 -0.05859,-0.08204 0,0 -0.304688,0.0586 -0.902344,0.1758006 l -0.984375,0.1992407 c -0.02344,0.01172 -0.105469,0.02344 -0.234375,0.04688 v 0.1640806 l 0.632812,-0.02344 c 0.246094,-0.01172 0.410157,0.1172004 0.410157,0.3398811 0,0.08204 -0.02344,0.1523605 -0.07031,0.3750413 l -1.523437,5.414658 c -0.128907,0.4102014 -0.363282,0.5156818 -1.230469,0.597722 z m 9.36914,-1.5353251 c -0.257812,0.5391218 -0.480468,0.6797623 -1.089843,0.7032024 h -2.097657 v -0.0586 l 2.121094,-2.1096071 c 1.277344,-1.2892043 1.628906,-1.8400461 1.628906,-2.5784086 0,-1.0430834 -0.773437,-1.8634862 -1.78125,-1.8634862 -0.386718,0 -0.796875,0.1054804 -1.125,0.293001 -0.5625,0.304721 -0.867187,0.6797623 -1.183593,1.4650049 l 0.234375,0.08204 c 0.410156,-0.7149224 0.878906,-1.0313635 1.535156,-1.0313635 0.796875,0 1.382812,0.5742819 1.382812,1.3360845 0,0.2344008 -0.03516,0.4453615 -0.105468,0.5860019 -0.257813,0.597722 -0.773438,1.2892043 -1.488282,2.0627269 l -2.308593,2.4612082 v 0.1875206 h 3.914062 l 0.550781,-1.4532848 z m 0,0"
         style="fill:#231f20;fill-opacity:1;fill-rule:nonzero;stroke:none" />
      <path
         id="path15"
         d="m -263.08594,28.523684 v 5.379498 h 1.54688 v -7.805546 h -1.01953 c -0.2461,0.925883 -1.05469,1.406405 -2.39063,1.406405 v 1.019643 z m 104.92383,4.409665 h -3.31641 c 0.21094,-0.421922 0.45704,-0.656322 1.59375,-1.476725 1.35938,-0.996203 1.75782,-1.570485 1.75782,-2.648729 0,-1.500165 -1.05469,-2.472928 -2.6836,-2.472928 -1.61718,0 -2.55468,0.961043 -2.55468,2.613569 v 0.26956 h 1.47656 v -0.24612 c 0,-0.879003 0.41015,-1.382965 1.11328,-1.382965 0.67969,0 1.10156,0.480522 1.10156,1.254044 0,0.867283 -0.25781,1.195444 -2.0039,2.426048 -1.3125,0.902443 -1.72266,1.582206 -1.79297,3.03549 h 5.30859 z m 89.452149,-2.323498 c 0.585938,0 0.621094,0 0.902344,0.08204 0.515625,0.140641 0.84375,0.597722 0.84375,1.160284 0,0.703203 -0.480469,1.183724 -1.160156,1.183724 -0.726563,0 -1.113282,-0.421921 -1.160157,-1.218884 h -1.5 c 0.01172,1.558765 1.03125,2.543249 2.636719,2.543249 1.652344,0 2.730469,-0.984484 2.730469,-2.508089 0,-0.902443 -0.398438,-1.500165 -1.277344,-1.933806 0.714844,-0.445362 1.019531,-0.949323 1.019531,-1.664246 0,-1.289204 -0.972656,-2.121327 -2.472656,-2.121327 -1.136719,0 -2.003906,0.492242 -2.34375,1.347805 -0.152344,0.375041 -0.1875,0.621162 -0.1875,1.277484 h 1.429688 c 0.01172,-0.421921 0.04687,-0.632882 0.117187,-0.832123 0.140625,-0.339881 0.492188,-0.550842 0.949219,-0.550842 0.609375,0 0.960937,0.375042 0.960937,1.031364 0,0.785242 -0.445312,1.172004 -1.359375,1.172004 h -0.128906 z m 0,0"
         style="fill:#231f20;fill-opacity:1;fill-rule:nonzero;stroke:none" />
    </g>
    <path
       id="path16"
       d="m 197.25,241.25 v 0 c 15.184,0.297 27.633,-12.156 28,-28 v 0 c -0.367,-14.875 -12.816,-27.324 -28,-27 v 0 c -15.539,-0.324 -27.988,12.125 -28,27 v 0 c 0.012,15.844 12.461,28.297 28,28"
       style="fill:#231f20;fill-opacity:1;fill-rule:evenodd;stroke:none"
       transform="matrix(0.13333333,0,0,-0.13333333,0,239.05333)" />
    <path
       id="path17"
       d="m 197.25,241.25 v 0 c 15.184,0.297 27.633,-12.156 28,-28 v 0 c -0.367,-14.875 -12.816,-27.324 -28,-27 v 0 c -15.539,-0.324 -27.988,12.125 -28,27 v 0 c 0.012,15.844 12.461,28.297 28,28 z"
       style="fill:none;stroke:#231f20;stroke-width:15;stroke-linecap:butt;stroke-linejoin:miter;stroke-miterlimit:3.8637;stroke-dasharray:none;stroke-opacity:1"
       transform="matrix(0.13333333,0,0,-0.13333333,0,239.05333)" />
    <path
       id="path18"
       d="m 197.25,215.25 h 2805"
       style="fill:none;stroke:#231f20;stroke-width:15;stroke-linecap:butt;stroke-linejoin:miter;stroke-miterlimit:3.8637;stroke-dasharray:none;stroke-opacity:1"
       transform="matrix(0.13333333,0,0,-0.13333333,0,239.05333)" />
    <path
       id="path19"
       d="m 1136.25,241.25 v 0 c 15.46,0.297 27.92,-12.156 28,-28 v 0 c -0.08,-14.875 -12.54,-27.324 -28,-27 v 0 c -15.25,-0.324 -27.7,12.125 -28,27 v 0 c 0.3,15.844 12.75,28.297 28,28"
       style="fill:#231f20;fill-opacity:1;fill-rule:evenodd;stroke:none"
       transform="matrix(0.13333333,0,0,-0.13333333,0,239.05333)" />
    <path
       id="path20"
       d="m 1136.25,241.25 v 0 c 15.46,0.297 27.92,-12.156 28,-28 v 0 c -0.08,-14.875 -12.54,-27.324 -28,-27 v 0 c -15.25,-0.324 -27.7,12.125 -28,27 v 0 c 0.3,15.844 12.75,28.297 28,28 z"
       style="fill:none;stroke:#231f20;stroke-width:15;stroke-linecap:butt;stroke-linejoin:miter;stroke-miterlimit:3.8637;stroke-dasharray:none;stroke-opacity:1"
       transform="matrix(0.13333333,0,0,-0.13333333,0,239.05333)" />
    <path
       id="path21"
       d="m 2075.25,241.25 v 0 c 15.75,0.297 28.2,-12.156 28,-28 v 0 c 0.2,-14.875 -12.25,-27.324 -28,-27 v 0 c -14.97,-0.324 -27.42,12.125 -27,27 v 0 c -0.42,15.844 12.03,28.297 27,28"
       style="fill:#231f20;fill-opacity:1;fill-rule:evenodd;stroke:none"
       transform="matrix(0.13333333,0,0,-0.13333333,0,239.05333)" />
    <path
       id="path22"
       d="m 2075.25,241.25 v 0 c 15.75,0.297 28.2,-12.156 28,-28 v 0 c 0.2,-14.875 -12.25,-27.324 -28,-27 v 0 c -14.97,-0.324 -27.42,12.125 -27,27 v 0 c -0.42,15.844 12.03,28.297 27,28 z"
       style="fill:none;stroke:#231f20;stroke-width:15;stroke-linecap:butt;stroke-linejoin:miter;stroke-miterlimit:3.8637;stroke-dasharray:none;stroke-opacity:1"
       transform="matrix(0.13333333,0,0,-0.13333333,0,239.05333)" />
    <path
       id="path23"
       d="m 3012.25,241.25 v 0 c 14.9,0.297 27.35,-12.156 27,-28 v 0 c 0.35,-14.875 -12.1,-27.324 -27,-27 v 0 c -15.82,-0.324 -28.27,12.125 -28,27 v 0 c -0.27,15.844 12.18,28.297 28,28"
       style="fill:#231f20;fill-opacity:1;fill-rule:evenodd;stroke:none"
       transform="matrix(0.13333333,0,0,-0.13333333,0,239.05333)" />
    <path
       id="path24"
       d="m 3012.25,241.25 v 0 c 14.9,0.297 27.35,-12.156 27,-28 v 0 c 0.35,-14.875 -12.1,-27.324 -27,-27 v 0 c -15.82,-0.324 -28.27,12.125 -28,27 v 0 c -0.27,15.844 12.18,28.297 28,28 z"
       style="fill:none;stroke:#231f20;stroke-width:15;stroke-linecap:butt;stroke-linejoin:miter;stroke-miterlimit:3.8637;stroke-dasharray:none;stroke-opacity:1"
       transform="matrix(0.13333333,0,0,-0.13333333,0,239.05333)" />
    <path
       id="path25"
       d="m 2844.25,419.25 c 28.57,66.672 94.66,113.133 172,113 102.89,0.133 186.51,-79.84 187,-183"
       style="fill:none;stroke:#231f20;stroke-width:2.5;stroke-linecap:butt;stroke-linejoin:miter;stroke-miterlimit:3.8637;stroke-dasharray:none;stroke-opacity:1"
       transform="matrix(0.13333333,0,0,-0.13333333,0,239.05333)" />
    <path
       id="path26"
       d="m 2845.25,422.25 14,-6 -29,-29 1,40 14,-5"
       style="fill:#231f20;fill-opacity:1;fill-rule:evenodd;stroke:none"
       transform="matrix(0.13333333,0,0,-0.13333333,0,239.05333)" />
    <path
       id="path27"
       d="m 3022.25,606.25 v -260"
       style="fill:none;stroke:#231f20;stroke-width:2.5;stroke-linecap:butt;stroke-linejoin:miter;stroke-miterlimit:3.8637;stroke-dasharray:none;stroke-opacity:1"
       transform="matrix(0.13333333,0,0,-0.13333333,0,239.05333)" />
    <path
       id="path28"
       d="m 3022.25,603.25 h -15 l 15,38 15,-38 h -15"
       style="fill:#231f20;fill-opacity:1;fill-rule:evenodd;stroke:none"
       transform="matrix(0.13333333,0,0,-0.13333333,0,239.05333)" />
    <path
       id="path29"
       d="m 3022.25,346.25 h 260"
       style="fill:none;stroke:#231f20;stroke-width:2.5;stroke-linecap:butt;stroke-linejoin:miter;stroke-miterlimit:3.8637;stroke-dasharray:none;stroke-opacity:1"
       transform="matrix(0.13333333,0,0,-0.13333333,0,239.05333)" />
    <path
       id="path30"
       d="m 3279.25,346.25 v 15 l 38,-15 -38,-15 v 15"
       style="fill:#231f20;fill-opacity:1;fill-rule:evenodd;stroke:none"
       transform="matrix(0.13333333,0,0,-0.13333333,0,239.05333)" />
    <path
       id="path31"
       d="m 1894.25,417.25 c 28.48,65.953 94.57,112.414 172,112 102.81,0.414 186.43,-79.559 186,-183"
       style="fill:none;stroke:#231f20;stroke-width:2.5;stroke-linecap:butt;stroke-linejoin:miter;stroke-miterlimit:3.8637;stroke-dasharray:none;stroke-opacity:1"
       transform="matrix(0.13333333,0,0,-0.13333333,0,239.05333)" />
    <path
       id="path32"
       d="m 1895.25,419.25 14,-6 -29,-29 1,41 14,-6"
       style="fill:#231f20;fill-opacity:1;fill-rule:evenodd;stroke:none"
       transform="matrix(0.13333333,0,0,-0.13333333,0,239.05333)" />
    <path
       id="path33"
       d="m 2072.25,603.25 v -260"
       style="fill:none;stroke:#231f20;stroke-width:2.5;stroke-linecap:butt;stroke-linejoin:miter;stroke-miterlimit:3.8637;stroke-dasharray:none;stroke-opacity:1"
       transform="matrix(0.13333333,0,0,-0.13333333,0,239.05333)" />
    <path
       id="path34"
       d="m 2072.25,600.25 h -15 l 15,38 15,-38 h -15"
       style="fill:#231f20;fill-opacity:1;fill-rule:evenodd;stroke:none"
       transform="matrix(0.13333333,0,0,-0.13333333,0,239.05333)" />
    <path
       id="path35"
       d="m 2072.25,343.25 h 260"
       style="fill:none;stroke:#231f20;stroke-width:2.5;stroke-linecap:butt;stroke-linejoin:miter;stroke-miterlimit:3.8637;stroke-dasharray:none;stroke-opacity:1"
       transform="matrix(0.13333333,0,0,-0.13333333,0,239.05333)" />
    <path
       id="path36"
       d="m 2329.25,343.25 v 15 l 38,-15 -38,-15 v 15"
       style="fill:#231f20;fill-opacity:1;fill-rule:evenodd;stroke:none"
       transform="matrix(0.13333333,0,0,-0.13333333,0,239.05333)" />
    <path
       id="path37"
       d="m 944.25,419.25 c 28.883,66.176 94.97,112.637 172,113 103.21,-0.363 186.83,-80.336 187,-184"
       style="fill:none;stroke:#231f20;stroke-width:2.5;stroke-linecap:butt;stroke-linejoin:miter;stroke-miterlimit:3.8637;stroke-dasharray:none;stroke-opacity:1"
       transform="matrix(0.13333333,0,0,-0.13333333,0,239.05333)" />
    <path
       id="path38"
       d="m 945.25,421.25 14,-6 -29,-28 1,40 14,-6"
       style="fill:#231f20;fill-opacity:1;fill-rule:evenodd;stroke:none"
       transform="matrix(0.13333333,0,0,-0.13333333,0,239.05333)" />
    <path
       id="path39"
       d="m 1123.25,605.25 v -260"
       style="fill:none;stroke:#231f20;stroke-width:2.5;stroke-linecap:butt;stroke-linejoin:miter;stroke-miterlimit:3.8637;stroke-dasharray:none;stroke-opacity:1"
       transform="matrix(0.13333333,0,0,-0.13333333,0,239.05333)" />
    <path
       id="path40"
       d="m 1123.25,603.25 h -15 l 15,37 15,-37 h -15"
       style="fill:#231f20;fill-opacity:1;fill-rule:evenodd;stroke:none"
       transform="matrix(0.13333333,0,0,-0.13333333,0,239.05333)" />
    <path
       id="path41"
       d="m 1123.25,345.25 h 259"
       style="fill:none;stroke:#231f20;stroke-width:2.5;stroke-linecap:butt;stroke-linejoin:miter;stroke-miterlimit:3.8637;stroke-dasharray:none;stroke-opacity:1"
       transform="matrix(0.13333333,0,0,-0.13333333,0,239.05333)" />
    <path
       id="path42"
       d="m 1380.25,345.25 v 15 l 37,-15 -37,-15 v 15"
       style="fill:#231f20;fill-opacity:1;fill-rule:evenodd;stroke:none"
       transform="matrix(0.13333333,0,0,-0.13333333,0,239.05333)" />
    <path
       id="path43"
       d="m 16.25,416.25 c 28.2227,66.723 94.313,113.184 171,113 103.551,0.184 187.168,-79.785 187,-183"
       style="fill:none;stroke:#231f20;stroke-width:2.5;stroke-linecap:butt;stroke-linejoin:miter;stroke-miterlimit:3.8637;stroke-dasharray:none;stroke-opacity:1"
       transform="matrix(0.13333333,0,0,-0.13333333,0,239.05333)" />
    <path
       id="path44"
       d="m 16.25,419.25 14,-6 -28,-29 1,40 13,-5"
       style="fill:#231f20;fill-opacity:1;fill-rule:evenodd;stroke:none"
       transform="matrix(0.13333333,0,0,-0.13333333,0,239.05333)" />
    <path
       id="path45"
       d="m 194.25,603.25 v -260"
       style="fill:none;stroke:#231f20;stroke-width:2.5;stroke-linecap:butt;stroke-linejoin:miter;stroke-miterlimit:3.8637;stroke-dasharray:none;stroke-opacity:1"
       transform="matrix(0.13333333,0,0,-0.13333333,0,239.05333)" />
    <path
       id="path46"
       d="m 194.25,600.25 h -15 l 15,38 15,-38 h -15"
       style="fill:#231f20;fill-opacity:1;fill-rule:evenodd;stroke:none"
       transform="matrix(0.13333333,0,0,-0.13333333,0,239.05333)" />
    <path
       id="path47"
       d="m 194.25,343.25 h 260"
       style="fill:none;stroke:#231f20;stroke-width:2.5;stroke-linecap:butt;stroke-linejoin:miter;stroke-miterlimit:3.8637;stroke-dasharray:none;stroke-opacity:1"
       transform="matrix(0.13333333,0,0,-0.13333333,0,239.05333)" />
    <path
       id="path48"
       d="m 451.25,343.25 v 15 l 38,-15 -38,-15 v 15"
       style="fill:#231f20;fill-opacity:1;fill-rule:evenodd;stroke:none"
       transform="matrix(0.13333333,0,0,-0.13333333,0,239.05333)" />
    <path
       id="path49"
       d="m 1125.25,1399.25 v 341"
       style="fill:none;stroke:#231f20;stroke-width:15;stroke-linecap:butt;stroke-linejoin:miter;stroke-miterlimit:3.8637;stroke-dasharray:none;stroke-opacity:1"
       transform="matrix(0.13333333,0,0,-0.13333333,0,239.05333)" />
    <path
       id="path50"
       d="m 1125.25,1395.25 v 241"
       style="fill:none;stroke:#231f20;stroke-width:5;stroke-linecap:butt;stroke-linejoin:miter;stroke-miterlimit:3.8637;stroke-dasharray:none;stroke-opacity:1"
       transform="matrix(0.13333333,0,0,-0.13333333,0,239.05333)" />
    <path
       id="path51"
       d="m 1125.25,1400.25 h 30 l -30,-75 -30,75 h 30"
       style="fill:#231f20;fill-opacity:1;fill-rule:evenodd;stroke:none"
       transform="matrix(0.13333333,0,0,-0.13333333,0,239.05333)" />
    <path
       id="path52"
       d="M 0.42167969,-4.7566354 H 1.4998047 L 0.44511719,0.29376703 c -0.26953125,1.27724797 -0.65625,1.93344877 -1.16015625,1.93344877 -0.15234375,0 -0.24609375,-0.082025 -0.24609375,-0.187486 0,-0.046871 0.0117188,-0.070307 0.046875,-0.1288966 0.046875,-0.070307 0.0585938,-0.1171787 0.0585938,-0.1992038 0,-0.2460753 -0.21093759,-0.4452791 -0.46875009,-0.4452791 -0.2460937,0 -0.4453125,0.2109217 -0.4453125,0.4921506 0,0.4101255 0.4101563,0.726508 0.94921884,0.726508 1.078125,0 1.89843746,-1.1717871 2.40234366,-3.39818259 L 2.4490234,-4.7566354 h 1.3125 l 0.070312,-0.3749719 H 2.5310547 c 0.3515625,-1.8982951 0.796875,-2.7419818 1.4648437,-2.7419818 0.1640625,0 0.2695313,0.058589 0.2695313,0.1640502 0,0.023436 -0.023437,0.058589 -0.058594,0.1054608 -0.058594,0.093743 -0.070312,0.1523323 -0.070312,0.2460753 0,0.2929468 0.1875,0.4804327 0.4453125,0.4804327 0.28125,0 0.5039063,-0.2109217 0.5039063,-0.4804327 0,-0.456997 -0.4453125,-0.7733795 -1.0429688,-0.7733795 -0.5742187,0 -1.0429687,0.2577932 -1.4765625,0.8085331 C 2.20293,-6.8424165 1.968555,-6.2916765 1.6052737,-5.1316073 H 0.50371094 Z M 13.414844,-4.6277388 H 7.3679688 v 0.7850973 h 6.0468752 z m 0,2.4021635 H 7.3679688 v 0.7850974 h 6.0468752 z m 4.605469,2.22639555098 h 3.351562 V -0.17494782 h -0.210937 c -0.585938,0 -0.820313,-0.11717871 -0.820313,-0.38668974 0,-0.10546084 0.03516,-0.29294678 0.140625,-0.62104714 0.02344,-0.093743 0.03516,-0.1523324 0.07031,-0.2695111 l 1.722656,-6.2221895 c 0.05859,-0.2226396 0.07031,-0.2929468 0.07031,-0.3515361 0,-0.046871 -0.02344,-0.082025 -0.05859,-0.082025 0,0 -0.339844,0.058589 -0.984375,0.1874859 l -1.078125,0.2226395 c -0.02344,0.011718 -0.117188,0.023436 -0.257813,0.046871 v 0.1757681 l 0.679688,-0.023436 c 0.28125,-0.011718 0.457031,0.1288965 0.457031,0.3749718 0,0.082025 -0.02344,0.1640502 -0.08203,0.4101255 l -1.652344,5.89408917 c -0.140625,0.44527911 -0.398438,0.56245782 -1.347656,0.65620079 z M 27.524219,-8.1079465 c -1.886719,0 -3.703125,2.7302639 -3.703125,5.5542709 0,1.58191255 0.761719,2.63652095 1.933594,2.63652095 0.515625,0 1.019531,-0.17576807 1.523437,-0.55073994 1.207031,-0.89055821 2.121094,-2.88259631 2.121094,-4.60512331 0,-1.8982951 -0.703125,-3.0349286 -1.875,-3.0349286 z m -0.07031,0.3281003 c 0.632813,0 0.996094,0.5624579 0.996094,1.5116054 0,1.6170662 -0.480469,3.5973864 -1.160156,4.816045 -0.457031,0.79681527 -0.949219,1.19522289 -1.5,1.19522289 -0.644531,0 -1.019531,-0.59761143 -1.019531,-1.61706619 0,-1.277248 0.609375,-3.6442579 1.230468,-4.7574557 0.445313,-0.7733795 0.902344,-1.1483514 1.453125,-1.1483514 z m 9.949219,6.4682649 c -0.433594,0.74994374 -0.503906,0.82025097 -0.726562,0.82025097 -0.246094,0 -0.503907,-0.39840762 -0.960938,-1.54675897 -0.07031,-0.1523323 -0.246094,-0.5858936 -0.445312,-1.0546084 1.769531,-1.5701947 2.121093,-1.81627 2.695312,-1.8514237 v -0.1874859 h -2.191406 v 0.1874859 c 0.515625,0.011718 0.65625,0.058589 0.65625,0.2226396 0,0.2343574 -0.597656,0.8085331 -1.710938,1.6756556 -0.1875,0.1288965 -0.351562,0.2577931 -0.515625,0.3984076 l 1.429688,-5.4839637 -0.05859,-0.058589 c -0.726562,0.1640502 -1.183594,0.2343574 -1.863281,0.3163825 v 0.1992038 c 0.585937,-0.011718 0.796875,0.070307 0.808594,0.2929468 -0.02344,0.2109216 -0.105469,0.5273042 -0.257813,1.0780441 -0.04687,0.1757681 -0.09375,0.3046647 -0.117187,0.3984076 l -0.02344,0.1054609 -1.523437,5.80034615098 h 0.902343 L 34.075,-2.155268 34.578906,-2.5419578 c 0.199219,0.5273042 0.503907,1.2655301 0.726563,1.68737346 0.386719,0.76166162 0.597656,0.98430117 0.949219,0.98430117 0.480468,0 0.773437,-0.29294677 1.324218,-1.30068373 z M 46.4793,-7.8384355 h -2.378906 v 0.1992038 c 0.679687,0.058589 0.832031,0.1757681 0.832031,0.6093293 0,0.1406144 -0.02344,0.269511 -0.105469,0.5273042 -0.01172,0.035154 -0.02344,0.082025 -0.02344,0.093743 l -1.21875,4.5582518 -2.496094,-5.9878321 h -1.933594 v 0.1992038 c 0.5625,0.046871 0.796875,0.1992038 1.03125,0.6679187 l -1.429687,5.0035309 c -0.457032,1.53504112 -0.550782,1.67565557 -1.230469,1.78111641 V 8.2025098e-4 h 2.367187 V -0.18666569 c -0.621093,-0.0468715 -0.832031,-0.18748593 -0.832031,-0.51558632 0,-0.1640502 0.03516,-0.39840759 0.105469,-0.65620079 l 1.371094,-5.0621203 2.753906,6.59716142 h 0.210937 l 1.734375,-6.03470362 c 0.445313,-1.5584769 0.492188,-1.6170662 1.242188,-1.7811164 z m 0,0"
       style="fill:#231f20;fill-opacity:1;fill-rule:nonzero;stroke:none"
       aria-label="f = 10 kN"
       transform="matrix(1.3333333,0,0,1.3334333,162.56667,16.62)" />
    <path
       id="path53"
       d="M 5.9058594,-7.219505 5.8472656,-7.3249853 H 1.7105469 L 0.81992188,-5.8365404 0.98398438,-5.73106 C 1.4878906,-6.3522221 1.7925781,-6.5163027 2.4371094,-6.5280227 h 2.4492187 l 0.023437,0.03516 -4.04296872,6.58666198 H 1.6402344 Z M -13.277734,-21.608783 c 1.3125,-0.421921 1.804687,-0.902443 1.804687,-1.675966 0,-0.914163 -0.808594,-1.558765 -1.921875,-1.558765 -1.183594,0 -1.980469,0.679763 -1.980469,1.652526 0,0.597722 0.210938,1.019643 0.949219,1.828326 -1.382812,0.445361 -2.144531,1.218884 -2.144531,2.191647 0,0.293001 0.09375,0.621162 0.257812,0.902443 0.363282,0.621162 1.019532,0.949323 1.933594,0.949323 1.359375,0 2.367188,-0.855563 2.367188,-1.980686 0,-0.738363 -0.328125,-1.336085 -1.265625,-2.308848 z m -0.902344,0.421921 c 1.207031,1.254045 1.335937,1.453285 1.335937,2.074447 0,0.902443 -0.621093,1.547046 -1.488281,1.547046 -0.867187,0 -1.488281,-0.644603 -1.488281,-1.547046 0,-0.902443 0.597656,-1.664245 1.640625,-2.074447 z m 0.703125,-0.609442 c -0.855469,-0.808682 -1.042969,-1.089963 -1.042969,-1.547045 0,-0.773522 0.421875,-1.242324 1.125,-1.242324 0.703125,0 1.171875,0.515682 1.171875,1.300924 0,0.691483 -0.292969,1.043084 -1.253906,1.488445 z m -24.46582,30.5834424 c 1.476562,-0.2578409 2.214843,-0.5508419 3.128906,-1.2657643 1.277344,-1.0079233 2.027344,-2.4729282 2.027344,-3.9613732 0,-1.4532848 -0.796875,-2.402608 -1.992188,-2.402608 -1.382812,0 -2.660156,1.4064047 -2.660156,2.9534499 0,1.1485638 0.679687,1.9689665 1.652344,1.9689665 0.445312,0 0.832031,-0.1289204 1.417968,-0.4922416 l 0.04687,0.02344 c -0.1875,0.5039616 -0.738281,1.218884 -1.417968,1.8283261 -0.796875,0.6797622 -1.335938,0.9610432 -2.203125,1.1485638 z m 3.246093,-7.3367445 c 0.679688,0 1.089844,0.5391218 1.089844,1.4532848 0,0.8555629 -0.28125,1.8752063 -0.609375,2.1916473 -0.28125,0.293001 -0.738281,0.4805217 -1.160156,0.4805217 -0.703125,0 -1.101563,-0.5508419 -1.101563,-1.5353252 0,-0.8086827 0.328125,-1.6876856 0.796875,-2.1799272 0.269532,-0.2695609 0.609375,-0.4102014 0.984375,-0.4102014 z m -56.223632,-4.500495 h -1.042969 l 1.335937,-4.793496 h -0.457031 l -4.582031,4.7466158 -0.222656,0.7383625 h 2.882812 l -0.539062,1.95724653 h 0.867187 l 0.503906,-1.93380643 h 1.101563 z m -1.933594,0 h -2.332031 v -0.04688 l 3.339843,-3.5042916 h 0.04687 z M -109.18691,-23.85317 h 2.53125 l 0.25781,-0.773523 h -2.8125 l -1.14844,2.390888 v 0.164081 c 1.06641,0.2344 1.42969,0.363321 1.82813,0.691482 0.35156,0.281281 0.58593,0.832123 0.58593,1.418125 0,1.195444 -0.89062,2.273687 -1.88672,2.273687 -0.23437,0 -0.43359,-0.08204 -0.75,-0.316441 -0.26953,-0.210961 -0.43359,-0.293001 -0.60937,-0.293001 -0.25781,0 -0.44531,0.187521 -0.44531,0.445362 0,0.398481 0.43359,0.632882 1.17187,0.632882 1.81641,0 3.26953,-1.418125 3.26953,-3.164411 0,-0.679762 -0.24609,-1.265764 -0.72656,-1.711126 -0.41016,-0.386761 -0.79687,-0.562561 -1.6875,-0.785242 z m -17.99414,25.0076329 c -1.47657,0.1758006 -2.20313,0.4336415 -3.15235,1.1368438 -1.39453,1.0313634 -2.23828,2.5901286 -2.23828,4.1606139 0,1.4181247 0.79688,2.3322877 2.01563,2.3322877 1.47656,0 2.73046,-1.4064046 2.73046,-3.0589302 0,-1.1251237 -0.78515,-1.9455264 -1.875,-1.9455264 -0.30468,0 -0.66796,0.09376 -0.96093,0.2344007 l -0.0469,-0.02344 c 0.76172,-1.3946847 2.25,-2.5080884 3.53906,-2.6604489 z m -2.8711,3.0237701 c 0.76172,0 1.24219,0.5508418 1.24219,1.3946846 0,0.7500825 -0.25781,1.6173654 -0.66797,2.1916473 -0.32812,0.4922417 -0.71484,0.7266425 -1.18359,0.7266425 -0.67969,0 -1.06641,-0.5391218 -1.06641,-1.4415648 0,-0.7500825 0.21094,-1.6642456 0.50391,-2.1447672 0.29297,-0.5039617 0.65625,-0.7266424 1.17187,-0.7266424 z m -58.30957,-4.0785736 h 3.07031 v -0.16408055 h -0.1875 c -0.53906,0 -0.76171,-0.10548035 -0.76171,-0.35160117 0,-0.10548035 0.0352,-0.2695609 0.14062,-0.57428191 0.0117,-0.0820403 0.0234,-0.12892047 0.0586,-0.24612087 l 1.57032,-5.707659 c 0.0586,-0.1992406 0.0703,-0.2578408 0.0703,-0.316441 0,-0.04688 -0.0234,-0.08204 -0.0586,-0.08204 0,0 -0.30469,0.0586 -0.90235,0.1758006 l -0.98437,0.1992406 c -0.0234,0.01172 -0.10547,0.02344 -0.23438,0.04688 v 0.1640805 l 0.63281,-0.02344 c 0.2461,-0.01172 0.41016,0.1172004 0.41016,0.3398811 0,0.08204 -0.0234,0.1523605 -0.0703,0.3750413 l -1.52344,5.414658 c -0.12891,0.41020137 -0.36328,0.51568172 -1.23047,0.59772199 z m -13.03125,-18.7374124 c -0.25781,0.539122 -0.48047,0.679762 -1.08984,0.703202 h -2.09766 v -0.0586 l 2.1211,-2.109607 c 1.27734,-1.289204 1.6289,-1.840046 1.6289,-2.578409 0,-1.043083 -0.77344,-1.863486 -1.78125,-1.863486 -0.38672,0 -0.79687,0.105481 -1.125,0.293001 -0.5625,0.304721 -0.86719,0.679763 -1.18359,1.465005 l 0.23437,0.08204 c 0.41016,-0.714922 0.87891,-1.031363 1.53516,-1.031363 0.79687,0 1.38281,0.574282 1.38281,1.336084 0,0.234401 -0.0352,0.445362 -0.10547,0.586002 -0.25781,0.597722 -0.77343,1.289205 -1.48828,2.062727 l -2.30859,2.461208 v 0.187521 h 3.91406 l 0.55078,-1.453285 z m -21.65039,21.304101 c 0.38672,-0.5274018 0.76172,-0.7383625 1.21875,-0.7383625 0.59766,0 0.98438,0.3867613 0.98438,0.9962033 0,0.4688016 -0.23438,0.8555629 -0.70313,1.183724 -0.48047,0.316441 -0.94922,0.4805216 -1.92187,0.6446021 v 0.1758006 c 0.62109,0 0.72656,0.01172 1.01953,0.1054803 0.66797,0.2578409 1.01953,0.8555629 1.01953,1.7345658 0,0.3867613 -0.082,0.7852426 -0.23438,1.0430835 -0.25781,0.4453615 -0.75,0.7500825 -1.20703,0.7500825 -0.21094,0 -0.44531,-0.1054803 -0.78515,-0.3516012 -0.31641,-0.2344008 -0.49219,-0.304721 -0.70313,-0.304721 -0.30469,0 -0.48047,0.1523605 -0.48047,0.4219214 0,0.4219214 0.44531,0.6563222 1.23047,0.6563222 0.62109,0 1.19531,-0.1523605 1.64063,-0.4102014 0.86718,-0.5039616 1.41796,-1.4298447 1.41796,-2.414328 0,-0.7969627 -0.3164,-1.3009243 -1.04296,-1.6408055 v -0.03516 c 1.32421,-0.5156817 1.71093,-0.8790029 1.71093,-1.6290854 0,-0.7969627 -0.65625,-1.3946847 -1.54687,-1.3946847 -0.76172,0 -1.44141,0.4336415 -1.79297,1.1485639 z m 0,0"
       style="fill:#231f20;fill-opacity:1;fill-rule:nonzero;stroke:none"
       aria-label="7&#10;8&#10;9&#10;4&#10;5&#10;6&#10;1&#10;2&#10;3"
       transform="matrix(1.3333333,0,0,1.3331867,307.63333,186.88667)" />
  </g>
</svg>
