<?xml version="1.0" encoding="UTF-8" standalone="no"?>
<!-- Created with Inkscape (http://www.inkscape.org/) -->

<svg
   version="1.1"
   id="svg1"
   width="269.33334"
   height="189.33333"
   viewBox="0 0 269.33334 189.33333"
   sodipodi:docname="exs6f1.eps"
   xmlns:inkscape="http://www.inkscape.org/namespaces/inkscape"
   xmlns:sodipodi="http://sodipodi.sourceforge.net/DTD/sodipodi-0.dtd"
   xmlns="http://www.w3.org/2000/svg"
   xmlns:svg="http://www.w3.org/2000/svg">
  <defs
     id="defs1" />
  <sodipodi:namedview
     id="namedview1"
     pagecolor="#ffffff"
     bordercolor="#000000"
     borderopacity="0.25"
     inkscape:showpageshadow="2"
     inkscape:pageopacity="0.0"
     inkscape:pagecheckerboard="0"
     inkscape:deskcolor="#d1d1d1">
    <inkscape:page
       x="0"
       y="0"
       inkscape:label="1"
       id="page1"
       width="269.33334"
       height="189.33333"
       margin="0"
       bleed="0" />
  </sodipodi:namedview>
  <g
     id="g1"
     inkscape:groupmode="layer"
     inkscape:label="1">
    <path
       id="path1"
       d="m 1670.18,1245.19 v -89.56 H 173.758 v 89.56 H 1670.18"
       style="fill:#f4f4f4;fill-opacity:1;fill-rule:nonzero;stroke:none"
       transform="matrix(0.13333333,0,0,-0.13333333,0,189.33333)" />
    <path
       id="path2"
       d="m 1670.18,1245.19 v -89.56 H 173.758 v 89.56 z"
       style="fill:none;stroke:#231f20;stroke-width:6.107;stroke-linecap:butt;stroke-linejoin:miter;stroke-miterlimit:3.86369;stroke-dasharray:none;stroke-opacity:1"
       transform="matrix(0.13333333,0,0,-0.13333333,0,189.33333)" />
    <path
       id="path3"
       d="m 1670.08,1244.06 v -14.93 H 176.051 v 14.93 H 1670.08"
       style="fill:#e9e9e9;fill-opacity:1;fill-rule:nonzero;stroke:none"
       transform="matrix(0.13333333,0,0,-0.13333333,0,189.33333)" />
    <path
       id="path4"
       d="m 1670.08,1244.06 v -14.93 H 176.051 v 14.93 z"
       style="fill:none;stroke:#231f20;stroke-width:6.107;stroke-linecap:butt;stroke-linejoin:miter;stroke-miterlimit:3.86369;stroke-dasharray:none;stroke-opacity:1"
       transform="matrix(0.13333333,0,0,-0.13333333,0,189.33333)" />
    <path
       id="path5"
       d="m 1668.2,1170.97 v -14.93 H 174.164 v 14.93 H 1668.2"
       style="fill:#e9e9e9;fill-opacity:1;fill-rule:nonzero;stroke:none"
       transform="matrix(0.13333333,0,0,-0.13333333,0,189.33333)" />
    <path
       id="path6"
       d="m 1668.2,1170.97 v -14.93 H 174.164 v 14.93 z"
       style="fill:none;stroke:#231f20;stroke-width:6.107;stroke-linecap:butt;stroke-linejoin:miter;stroke-miterlimit:3.86369;stroke-dasharray:none;stroke-opacity:1"
       transform="matrix(0.13333333,0,0,-0.13333333,0,189.33333)" />
    <path
       id="path7"
       d="M 105,252.5 H 350"
       style="fill:none;stroke:#231f20;stroke-width:5;stroke-linecap:butt;stroke-linejoin:miter;stroke-miterlimit:3.86369;stroke-dasharray:none;stroke-opacity:1"
       transform="matrix(0.13333333,0,0,-0.13333333,0,189.33333)" />
    <path
       id="path8"
       d="m 106.875,253.75 -37.5,-57.5"
       style="fill:none;stroke:#231f20;stroke-width:5;stroke-linecap:butt;stroke-linejoin:miter;stroke-miterlimit:3.86369;stroke-dasharray:none;stroke-opacity:1"
       transform="matrix(0.13333333,0,0,-0.13333333,0,189.33333)" />
    <path
       id="path9"
       d="m 141.207,253.484 -37.5,-57.5"
       style="fill:none;stroke:#231f20;stroke-width:5;stroke-linecap:butt;stroke-linejoin:miter;stroke-miterlimit:3.86369;stroke-dasharray:none;stroke-opacity:1"
       transform="matrix(0.13333333,0,0,-0.13333333,0,189.33333)" />
    <path
       id="path10"
       d="m 175.539,253.219 -37.5,-57.5"
       style="fill:none;stroke:#231f20;stroke-width:5;stroke-linecap:butt;stroke-linejoin:miter;stroke-miterlimit:3.86369;stroke-dasharray:none;stroke-opacity:1"
       transform="matrix(0.13333333,0,0,-0.13333333,0,189.33333)" />
    <path
       id="path11"
       d="m 209.871,252.953 -37.5,-57.5"
       style="fill:none;stroke:#231f20;stroke-width:5;stroke-linecap:butt;stroke-linejoin:miter;stroke-miterlimit:3.86369;stroke-dasharray:none;stroke-opacity:1"
       transform="matrix(0.13333333,0,0,-0.13333333,0,189.33333)" />
    <path
       id="path12"
       d="m 244.203,252.688 -37.5,-57.5"
       style="fill:none;stroke:#231f20;stroke-width:5;stroke-linecap:butt;stroke-linejoin:miter;stroke-miterlimit:3.86369;stroke-dasharray:none;stroke-opacity:1"
       transform="matrix(0.13333333,0,0,-0.13333333,0,189.33333)" />
    <path
       id="path13"
       d="m 278.531,252.422 -37.5,-57.5"
       style="fill:none;stroke:#231f20;stroke-width:5;stroke-linecap:butt;stroke-linejoin:miter;stroke-miterlimit:3.86369;stroke-dasharray:none;stroke-opacity:1"
       transform="matrix(0.13333333,0,0,-0.13333333,0,189.33333)" />
    <path
       id="path14"
       d="m 312.863,252.152 -37.5,-57.5"
       style="fill:none;stroke:#231f20;stroke-width:5;stroke-linecap:butt;stroke-linejoin:miter;stroke-miterlimit:3.86369;stroke-dasharray:none;stroke-opacity:1"
       transform="matrix(0.13333333,0,0,-0.13333333,0,189.33333)" />
    <path
       id="path15"
       d="m 347.195,251.887 -37.5,-57.5"
       style="fill:none;stroke:#231f20;stroke-width:5;stroke-linecap:butt;stroke-linejoin:miter;stroke-miterlimit:3.86369;stroke-dasharray:none;stroke-opacity:1"
       transform="matrix(0.13333333,0,0,-0.13333333,0,189.33333)" />
    <path
       id="path16"
       d="m 1508.13,239.379 h 245"
       style="fill:none;stroke:#231f20;stroke-width:5;stroke-linecap:butt;stroke-linejoin:miter;stroke-miterlimit:3.86369;stroke-dasharray:none;stroke-opacity:1"
       transform="matrix(0.13333333,0,0,-0.13333333,0,189.33333)" />
    <path
       id="path17"
       d="m 1510.01,240.629 -37.5,-57.5"
       style="fill:none;stroke:#231f20;stroke-width:5;stroke-linecap:butt;stroke-linejoin:miter;stroke-miterlimit:3.86369;stroke-dasharray:none;stroke-opacity:1"
       transform="matrix(0.13333333,0,0,-0.13333333,0,189.33333)" />
    <path
       id="path18"
       d="m 1544.34,240.363 -37.5,-57.5"
       style="fill:none;stroke:#231f20;stroke-width:5;stroke-linecap:butt;stroke-linejoin:miter;stroke-miterlimit:3.86369;stroke-dasharray:none;stroke-opacity:1"
       transform="matrix(0.13333333,0,0,-0.13333333,0,189.33333)" />
    <path
       id="path19"
       d="m 1578.67,240.098 -37.5,-57.5"
       style="fill:none;stroke:#231f20;stroke-width:5;stroke-linecap:butt;stroke-linejoin:miter;stroke-miterlimit:3.86369;stroke-dasharray:none;stroke-opacity:1"
       transform="matrix(0.13333333,0,0,-0.13333333,0,189.33333)" />
    <path
       id="path20"
       d="m 1613,239.828 -37.5,-57.5"
       style="fill:none;stroke:#231f20;stroke-width:5;stroke-linecap:butt;stroke-linejoin:miter;stroke-miterlimit:3.86369;stroke-dasharray:none;stroke-opacity:1"
       transform="matrix(0.13333333,0,0,-0.13333333,0,189.33333)" />
    <path
       id="path21"
       d="m 1647.33,239.563 -37.5,-57.5"
       style="fill:none;stroke:#231f20;stroke-width:5;stroke-linecap:butt;stroke-linejoin:miter;stroke-miterlimit:3.86369;stroke-dasharray:none;stroke-opacity:1"
       transform="matrix(0.13333333,0,0,-0.13333333,0,189.33333)" />
    <path
       id="path22"
       d="m 1681.66,239.297 -37.5,-57.5"
       style="fill:none;stroke:#231f20;stroke-width:5;stroke-linecap:butt;stroke-linejoin:miter;stroke-miterlimit:3.86369;stroke-dasharray:none;stroke-opacity:1"
       transform="matrix(0.13333333,0,0,-0.13333333,0,189.33333)" />
    <path
       id="path23"
       d="m 1716,239.027 -37.5,-57.5"
       style="fill:none;stroke:#231f20;stroke-width:5;stroke-linecap:butt;stroke-linejoin:miter;stroke-miterlimit:3.86369;stroke-dasharray:none;stroke-opacity:1"
       transform="matrix(0.13333333,0,0,-0.13333333,0,189.33333)" />
    <path
       id="path24"
       d="m 1750.33,238.762 -37.5,-57.5"
       style="fill:none;stroke:#231f20;stroke-width:5;stroke-linecap:butt;stroke-linejoin:miter;stroke-miterlimit:3.86369;stroke-dasharray:none;stroke-opacity:1"
       transform="matrix(0.13333333,0,0,-0.13333333,0,189.33333)" />
    <path
       id="path25"
       d="M 1628.13,128.125 V 3.75"
       style="fill:none;stroke:#231f20;stroke-width:2.5;stroke-linecap:butt;stroke-linejoin:miter;stroke-miterlimit:3.86369;stroke-dasharray:none;stroke-opacity:1"
       transform="matrix(0.13333333,0,0,-0.13333333,0,189.33333)" />
    <path
       id="path26"
       d="M 215.32,128.449 V 4.07422"
       style="fill:none;stroke:#231f20;stroke-width:2.5;stroke-linecap:butt;stroke-linejoin:miter;stroke-miterlimit:3.86369;stroke-dasharray:none;stroke-opacity:1"
       transform="matrix(0.13333333,0,0,-0.13333333,0,189.33333)" />
    <path
       id="path27"
       d="M 241.875,62.5 H 1603.13"
       style="fill:none;stroke:#231f20;stroke-width:2.5;stroke-linecap:butt;stroke-linejoin:miter;stroke-miterlimit:3.86369;stroke-dasharray:none;stroke-opacity:1"
       transform="matrix(0.13333333,0,0,-0.13333333,0,189.33333)" />
    <path
       id="path28"
       d="m 242.563,55.625 -22,7.5625 22,7.5625 z"
       style="fill:#231f20;fill-opacity:1;fill-rule:nonzero;stroke:#231f20;stroke-width:2.5;stroke-linecap:butt;stroke-linejoin:miter;stroke-miterlimit:3.86369;stroke-dasharray:none;stroke-opacity:1"
       transform="matrix(0.13333333,0,0,-0.13333333,0,189.33333)" />
    <path
       id="path29"
       d="m 1602.44,69.375 22,-7.5625 -22,-7.5625 z"
       style="fill:#231f20;fill-opacity:1;fill-rule:nonzero;stroke:#231f20;stroke-width:2.5;stroke-linecap:butt;stroke-linejoin:miter;stroke-miterlimit:3.86369;stroke-dasharray:none;stroke-opacity:1"
       transform="matrix(0.13333333,0,0,-0.13333333,0,189.33333)" />
    <path
       id="path30"
       d="m 175,1247.5 h 90 V 254.668 H 175 V 1247.5"
       style="fill:#f4f4f4;fill-opacity:1;fill-rule:nonzero;stroke:none"
       transform="matrix(0.13333333,0,0,-0.13333333,0,189.33333)" />
    <path
       id="path31"
       d="m 175,1247.5 h 90 V 254.668 h -90 z"
       style="fill:none;stroke:#231f20;stroke-width:5;stroke-linecap:butt;stroke-linejoin:miter;stroke-miterlimit:3.86369;stroke-dasharray:none;stroke-opacity:1"
       transform="matrix(0.13333333,0,0,-0.13333333,0,189.33333)" />
    <path
       id="path32"
       d="m 175.625,1247.5 h 15 V 256.25 h -15 v 991.25"
       style="fill:#e9e9e9;fill-opacity:1;fill-rule:nonzero;stroke:none"
       transform="matrix(0.13333333,0,0,-0.13333333,0,189.33333)" />
    <path
       id="path33"
       d="m 175.625,1247.5 h 15 V 256.25 h -15 z"
       style="fill:none;stroke:#231f20;stroke-width:5;stroke-linecap:butt;stroke-linejoin:miter;stroke-miterlimit:3.86369;stroke-dasharray:none;stroke-opacity:1"
       transform="matrix(0.13333333,0,0,-0.13333333,0,189.33333)" />
    <path
       id="path34"
       d="m 249.07,1246.25 h 15 V 255 h -15 v 991.25"
       style="fill:#e9e9e9;fill-opacity:1;fill-rule:nonzero;stroke:none"
       transform="matrix(0.13333333,0,0,-0.13333333,0,189.33333)" />
    <path
       id="path35"
       d="m 249.07,1246.25 h 15 V 255 h -15 z"
       style="fill:none;stroke:#231f20;stroke-width:5;stroke-linecap:butt;stroke-linejoin:miter;stroke-miterlimit:3.86369;stroke-dasharray:none;stroke-opacity:1"
       transform="matrix(0.13333333,0,0,-0.13333333,0,189.33333)" />
    <path
       id="path36"
       d="m 1582.82,1245 h 90 V 252.168 h -90 V 1245"
       style="fill:#f4f4f4;fill-opacity:1;fill-rule:nonzero;stroke:none"
       transform="matrix(0.13333333,0,0,-0.13333333,0,189.33333)" />
    <path
       id="path37"
       d="m 1582.82,1245 h 90 V 252.168 h -90 z"
       style="fill:none;stroke:#231f20;stroke-width:5;stroke-linecap:butt;stroke-linejoin:miter;stroke-miterlimit:3.86369;stroke-dasharray:none;stroke-opacity:1"
       transform="matrix(0.13333333,0,0,-0.13333333,0,189.33333)" />
    <path
       id="path38"
       d="m 1583.45,1245 h 15 V 253.75 h -15 V 1245"
       style="fill:#e9e9e9;fill-opacity:1;fill-rule:nonzero;stroke:none"
       transform="matrix(0.13333333,0,0,-0.13333333,0,189.33333)" />
    <path
       id="path39"
       d="m 1583.45,1245 h 15 V 253.75 h -15 z"
       style="fill:none;stroke:#231f20;stroke-width:5;stroke-linecap:butt;stroke-linejoin:miter;stroke-miterlimit:3.86369;stroke-dasharray:none;stroke-opacity:1"
       transform="matrix(0.13333333,0,0,-0.13333333,0,189.33333)" />
    <path
       id="path40"
       d="m 1656.89,1243.75 h 15 V 252.5 h -15 v 991.25"
       style="fill:#e9e9e9;fill-opacity:1;fill-rule:nonzero;stroke:none"
       transform="matrix(0.13333333,0,0,-0.13333333,0,189.33333)" />
    <path
       id="path41"
       d="m 1656.89,1243.75 h 15 V 252.5 h -15 z"
       style="fill:none;stroke:#231f20;stroke-width:5;stroke-linecap:butt;stroke-linejoin:miter;stroke-miterlimit:3.86369;stroke-dasharray:none;stroke-opacity:1"
       transform="matrix(0.13333333,0,0,-0.13333333,0,189.33333)" />
    <path
       id="path42"
       d="m 1604.42,247.332 c 0,12.77 10.35,23.125 23.12,23.125 12.78,0 23.13,-10.355 23.13,-23.125 0,-12.769 -10.35,-23.125 -23.13,-23.125 -12.77,0 -23.12,10.356 -23.12,23.125"
       style="fill:#ffffff;fill-opacity:1;fill-rule:nonzero;stroke:none"
       transform="matrix(0.13333333,0,0,-0.13333333,0,189.33333)" />
    <path
       id="path43"
       d="m 1604.42,247.332 c 0,12.77 10.35,23.125 23.12,23.125 12.78,0 23.13,-10.355 23.13,-23.125 0,-12.769 -10.35,-23.125 -23.13,-23.125 -12.77,0 -23.12,10.356 -23.12,23.125 z"
       style="fill:none;stroke:#231f20;stroke-width:5;stroke-linecap:butt;stroke-linejoin:miter;stroke-miterlimit:3.86369;stroke-dasharray:none;stroke-opacity:1"
       transform="matrix(0.13333333,0,0,-0.13333333,0,189.33333)" />
    <path
       id="path44"
       d="M 213.918,1277.6 V 1415"
       style="fill:none;stroke:#231f20;stroke-width:2.5;stroke-linecap:butt;stroke-linejoin:miter;stroke-miterlimit:3.86369;stroke-dasharray:none;stroke-opacity:1"
       transform="matrix(0.13333333,0,0,-0.13333333,0,189.33333)" />
    <path
       id="path45"
       d="m 213.918,1277.6 13.75,9.17 -13.75,-36.67 -13.75,36.67 13.75,-9.17"
       style="fill:#231f20;fill-opacity:1;fill-rule:evenodd;stroke:none"
       transform="matrix(0.13333333,0,0,-0.13333333,0,189.33333)" />
    <path
       id="path46"
       d="m 355.172,1277.55 v 137.4"
       style="fill:none;stroke:#231f20;stroke-width:2.5;stroke-linecap:butt;stroke-linejoin:miter;stroke-miterlimit:3.86369;stroke-dasharray:none;stroke-opacity:1"
       transform="matrix(0.13333333,0,0,-0.13333333,0,189.33333)" />
    <path
       id="path47"
       d="m 355.172,1277.55 13.75,9.16 -13.75,-36.66 -13.75,36.66 13.75,-9.16"
       style="fill:#231f20;fill-opacity:1;fill-rule:evenodd;stroke:none"
       transform="matrix(0.13333333,0,0,-0.13333333,0,189.33333)" />
    <path
       id="path48"
       d="m 496.445,1277.49 v 137.4"
       style="fill:none;stroke:#231f20;stroke-width:2.5;stroke-linecap:butt;stroke-linejoin:miter;stroke-miterlimit:3.86369;stroke-dasharray:none;stroke-opacity:1"
       transform="matrix(0.13333333,0,0,-0.13333333,0,189.33333)" />
    <path
       id="path49"
       d="m 496.445,1277.49 13.75,9.17 -13.75,-36.67 -13.75,36.67 13.75,-9.17"
       style="fill:#231f20;fill-opacity:1;fill-rule:evenodd;stroke:none"
       transform="matrix(0.13333333,0,0,-0.13333333,0,189.33333)" />
    <path
       id="path50"
       d="m 637.719,1277.43 v 137.4"
       style="fill:none;stroke:#231f20;stroke-width:2.5;stroke-linecap:butt;stroke-linejoin:miter;stroke-miterlimit:3.86369;stroke-dasharray:none;stroke-opacity:1"
       transform="matrix(0.13333333,0,0,-0.13333333,0,189.33333)" />
    <path
       id="path51"
       d="m 637.719,1277.43 13.75,9.17 -13.75,-36.67 -13.75,36.67 13.75,-9.17"
       style="fill:#231f20;fill-opacity:1;fill-rule:evenodd;stroke:none"
       transform="matrix(0.13333333,0,0,-0.13333333,0,189.33333)" />
    <path
       id="path52"
       d="m 778.969,1277.38 v 137.39"
       style="fill:none;stroke:#231f20;stroke-width:2.5;stroke-linecap:butt;stroke-linejoin:miter;stroke-miterlimit:3.86369;stroke-dasharray:none;stroke-opacity:1"
       transform="matrix(0.13333333,0,0,-0.13333333,0,189.33333)" />
    <path
       id="path53"
       d="m 778.969,1277.38 13.75,9.16 -13.75,-36.66 -13.75,36.66 13.75,-9.16"
       style="fill:#231f20;fill-opacity:1;fill-rule:evenodd;stroke:none"
       transform="matrix(0.13333333,0,0,-0.13333333,0,189.33333)" />
    <path
       id="path54"
       d="m 920.246,1277.32 v 137.4"
       style="fill:none;stroke:#231f20;stroke-width:2.5;stroke-linecap:butt;stroke-linejoin:miter;stroke-miterlimit:3.86369;stroke-dasharray:none;stroke-opacity:1"
       transform="matrix(0.13333333,0,0,-0.13333333,0,189.33333)" />
    <path
       id="path55"
       d="m 920.246,1277.32 13.75,9.17 -13.75,-36.67 -13.75,36.67 13.75,-9.17"
       style="fill:#231f20;fill-opacity:1;fill-rule:evenodd;stroke:none"
       transform="matrix(0.13333333,0,0,-0.13333333,0,189.33333)" />
    <path
       id="path56"
       d="m 1061.52,1277.27 v 137.39"
       style="fill:none;stroke:#231f20;stroke-width:2.5;stroke-linecap:butt;stroke-linejoin:miter;stroke-miterlimit:3.86369;stroke-dasharray:none;stroke-opacity:1"
       transform="matrix(0.13333333,0,0,-0.13333333,0,189.33333)" />
    <path
       id="path57"
       d="m 1061.52,1277.27 13.75,9.16 -13.75,-36.66 -13.75,36.66 13.75,-9.16"
       style="fill:#231f20;fill-opacity:1;fill-rule:evenodd;stroke:none"
       transform="matrix(0.13333333,0,0,-0.13333333,0,189.33333)" />
    <path
       id="path58"
       d="M 1202.77,1277.21 V 1414.6"
       style="fill:none;stroke:#231f20;stroke-width:2.5;stroke-linecap:butt;stroke-linejoin:miter;stroke-miterlimit:3.86369;stroke-dasharray:none;stroke-opacity:1"
       transform="matrix(0.13333333,0,0,-0.13333333,0,189.33333)" />
    <path
       id="path59"
       d="m 1202.77,1277.21 13.75,9.16 -13.75,-36.66 -13.75,36.66 13.75,-9.16"
       style="fill:#231f20;fill-opacity:1;fill-rule:evenodd;stroke:none"
       transform="matrix(0.13333333,0,0,-0.13333333,0,189.33333)" />
    <path
       id="path60"
       d="m 1344.05,1277.15 v 137.4"
       style="fill:none;stroke:#231f20;stroke-width:2.5;stroke-linecap:butt;stroke-linejoin:miter;stroke-miterlimit:3.86369;stroke-dasharray:none;stroke-opacity:1"
       transform="matrix(0.13333333,0,0,-0.13333333,0,189.33333)" />
    <path
       id="path61"
       d="m 1344.05,1277.15 13.75,9.17 -13.75,-36.67 -13.75,36.67 13.75,-9.17"
       style="fill:#231f20;fill-opacity:1;fill-rule:evenodd;stroke:none"
       transform="matrix(0.13333333,0,0,-0.13333333,0,189.33333)" />
    <path
       id="path62"
       d="m 1485.3,1277.09 v 137.4"
       style="fill:none;stroke:#231f20;stroke-width:2.5;stroke-linecap:butt;stroke-linejoin:miter;stroke-miterlimit:3.86369;stroke-dasharray:none;stroke-opacity:1"
       transform="matrix(0.13333333,0,0,-0.13333333,0,189.33333)" />
    <path
       id="path63"
       d="m 1485.3,1277.09 13.75,9.17 -13.75,-36.67 -13.75,36.67 13.75,-9.17"
       style="fill:#231f20;fill-opacity:1;fill-rule:evenodd;stroke:none"
       transform="matrix(0.13333333,0,0,-0.13333333,0,189.33333)" />
    <path
       id="path64"
       d="m 1626.57,1277.04 v 137.39"
       style="fill:none;stroke:#231f20;stroke-width:2.5;stroke-linecap:butt;stroke-linejoin:miter;stroke-miterlimit:3.86369;stroke-dasharray:none;stroke-opacity:1"
       transform="matrix(0.13333333,0,0,-0.13333333,0,189.33333)" />
    <path
       id="path65"
       d="m 1626.57,1277.04 13.75,9.16 -13.75,-36.66 -13.75,36.66 13.75,-9.16"
       style="fill:#231f20;fill-opacity:1;fill-rule:evenodd;stroke:none"
       transform="matrix(0.13333333,0,0,-0.13333333,0,189.33333)" />
    <path
       id="path66"
       d="M 146.5,1202.82 H 9.10547"
       style="fill:none;stroke:#231f20;stroke-width:2.5;stroke-linecap:butt;stroke-linejoin:miter;stroke-miterlimit:3.86369;stroke-dasharray:none;stroke-opacity:1"
       transform="matrix(0.13333333,0,0,-0.13333333,0,189.33333)" />
    <path
       id="path67"
       d="m 146.5,1202.82 -9.168,13.75 36.668,-13.75 -36.668,-13.75 9.168,13.75"
       style="fill:#231f20;fill-opacity:1;fill-rule:evenodd;stroke:none"
       transform="matrix(0.13333333,0,0,-0.13333333,0,189.33333)" />
    <path
       id="path68"
       d="m 1.3935547,-5.9638672 h 2.3554687 c 0.609375,0 1.078125,0.1289063 1.3828125,0.3984375 0.3046875,0.2695313 0.4570313,0.5859375 0.4570313,0.9726563 0,0.2929687 -0.1054688,0.5859375 -0.2929688,0.8789062 -0.1992187,0.28125 -0.4804687,0.515625 -0.8554687,0.6796875 -0.3867188,0.1875 -0.796875,0.2695313 -1.2421875,0.2695313 -0.2695313,0 -0.6210938,-0.046875 -1.0546875,-0.140625 l -0.4921875,1.7226562 c -0.1171875,0.35156251 -0.1640625,0.58593751 -0.1640625,0.70312501 0,0.0820313 0.035156,0.15234375 0.1171875,0.2109375 0.082031,0.0585937 0.2695312,0.09375 0.5625,0.10546875 L 2.1201172,9.765625e-4 h -2.33203126 l 0.0351563,-0.1640625025 c 0.31640625,0 0.5390625,-0.046875 0.65625,-0.1640625 0.1171875,-0.10546875 0.24609375,-0.3984375 0.38671875,-0.87890626 L 1.8505859,-4.6044922 c 0.1171875,-0.4101562 0.1757813,-0.6914062 0.1757813,-0.8203125 0,-0.1054687 -0.046875,-0.1875 -0.1289063,-0.2578125 -0.082031,-0.070312 -0.2695312,-0.1054687 -0.5507812,-0.1171875 z m 0.8320312,2.7773438 c 0.3164063,0.082031 0.5859375,0.1289062 0.7851563,0.1289062 0.3164062,0 0.609375,-0.058594 0.8554687,-0.1992187 0.2695313,-0.140625 0.4570313,-0.328125 0.609375,-0.5976563 0.1523438,-0.2578125 0.2226563,-0.5390625 0.2226563,-0.8203125 0,-0.2929687 -0.09375,-0.5273437 -0.2695313,-0.6914062 -0.1875,-0.1757813 -0.4570312,-0.2695313 -0.8085937,-0.2695313 -0.1992188,0 -0.4335938,0.035156 -0.7148438,0.070312 z m 0,0"
       style="fill:#231f20;fill-opacity:1;fill-rule:nonzero;stroke:none"
       aria-label="P"
       transform="matrix(1.3333333,0,0,1.3333333,5.3333333,25.666667)" />
    <path
       id="path69"
       d="M 943.258,975.754 C 925.527,1009.24 915,1048.56 915,1090.63 c 0,40.79 9.605,79.01 26.363,111.82"
       style="fill:none;stroke:#231f20;stroke-width:2.5;stroke-linecap:butt;stroke-linejoin:miter;stroke-miterlimit:3.86369;stroke-dasharray:none;stroke-opacity:1"
       transform="matrix(0.13333333,0,0,-0.13333333,0,189.33333)" />
    <path
       id="path70"
       d="m 931.25,1198.75 c 0,4.49 3.637,8.13 8.125,8.13 4.488,0 8.125,-3.64 8.125,-8.13 0,-4.49 -3.637,-8.12 -8.125,-8.12 -4.488,0 -8.125,3.63 -8.125,8.12"
       style="fill:#231f20;fill-opacity:1;fill-rule:nonzero;stroke:none"
       transform="matrix(0.13333333,0,0,-0.13333333,0,189.33333)" />
    <path
       id="path71"
       d="m 931.25,1198.75 c 0,4.49 3.637,8.13 8.125,8.13 4.488,0 8.125,-3.64 8.125,-8.13 0,-4.49 -3.637,-8.12 -8.125,-8.12 -4.488,0 -8.125,3.63 -8.125,8.12 z"
       style="fill:none;stroke:#231f20;stroke-width:2.5;stroke-linecap:butt;stroke-linejoin:miter;stroke-miterlimit:3.86369;stroke-dasharray:none;stroke-opacity:1"
       transform="matrix(0.13333333,0,0,-0.13333333,0,189.33333)" />
    <path
       id="path72"
       d="m 1400.08,710.754 c 33.48,17.73 72.8,28.254 114.87,28.254 40.79,0 79.01,-9.606 111.82,-26.36"
       style="fill:none;stroke:#231f20;stroke-width:2.5;stroke-linecap:butt;stroke-linejoin:miter;stroke-miterlimit:3.86369;stroke-dasharray:none;stroke-opacity:1"
       transform="matrix(0.13333333,0,0,-0.13333333,0,189.33333)" />
    <path
       id="path73"
       d="m 1614.95,714.633 c 0,4.488 3.63,8.125 8.12,8.125 4.49,0 8.13,-3.637 8.13,-8.125 0,-4.485 -3.64,-8.125 -8.13,-8.125 -4.49,0 -8.12,3.64 -8.12,8.125"
       style="fill:#231f20;fill-opacity:1;fill-rule:nonzero;stroke:none"
       transform="matrix(0.13333333,0,0,-0.13333333,0,189.33333)" />
    <path
       id="path74"
       d="m 1614.95,714.633 c 0,4.488 3.63,8.125 8.12,8.125 4.49,0 8.13,-3.637 8.13,-8.125 0,-4.485 -3.64,-8.125 -8.13,-8.125 -4.49,0 -8.12,3.64 -8.12,8.125 z"
       style="fill:none;stroke:#231f20;stroke-width:2.5;stroke-linecap:butt;stroke-linejoin:miter;stroke-miterlimit:3.86369;stroke-dasharray:none;stroke-opacity:1"
       transform="matrix(0.13333333,0,0,-0.13333333,0,189.33333)" />
    <path
       id="path75"
       d="m 224.031,710.883 c 33.485,17.73 72.809,28.258 114.871,28.258 40.797,0 79.012,-9.61 111.825,-26.364"
       style="fill:none;stroke:#231f20;stroke-width:2.5;stroke-linecap:butt;stroke-linejoin:miter;stroke-miterlimit:3.86369;stroke-dasharray:none;stroke-opacity:1"
       transform="matrix(0.13333333,0,0,-0.13333333,0,189.33333)" />
    <path
       id="path76"
       d="m 216.508,710.949 c 0,4.489 3.637,8.125 8.125,8.125 4.484,0 8.125,-3.636 8.125,-8.125 0,-4.488 -3.641,-8.125 -8.125,-8.125 -4.488,0 -8.125,3.637 -8.125,8.125"
       style="fill:#231f20;fill-opacity:1;fill-rule:nonzero;stroke:none"
       transform="matrix(0.13333333,0,0,-0.13333333,0,189.33333)" />
    <path
       id="path77"
       d="m 216.508,710.949 c 0,4.489 3.637,8.125 8.125,8.125 4.484,0 8.125,-3.636 8.125,-8.125 0,-4.488 -3.641,-8.125 -8.125,-8.125 -4.488,0 -8.125,3.637 -8.125,8.125 z"
       style="fill:none;stroke:#231f20;stroke-width:2.5;stroke-linecap:butt;stroke-linejoin:miter;stroke-miterlimit:3.86369;stroke-dasharray:none;stroke-opacity:1"
       transform="matrix(0.13333333,0,0,-0.13333333,0,189.33333)" />
    <path
       id="path78"
       d="M 4.7214969,-6.0816625 V -5.9176 c -0.5039063,0.1171875 -0.984375,0.375 -1.453125,0.7382813 -0.46875,0.3867187 -0.8789063,0.8671875 -1.2421875,1.453125 0.3164062,-0.1289063 0.5742187,-0.1992188 0.7734375,-0.1992188 0.375,0 0.6914062,0.140625 0.9492187,0.4101563 0.2695313,0.2695312 0.3984375,0.6210937 0.3984375,1.0898437 0,0.6914063 -0.2226562,1.2890625 -0.6796875,1.78125 -0.4453125,0.50390625 -0.9257812,0.73828125 -1.453125,0.73828125 -0.4804687,0 -0.8320312,-0.1640625 -1.07812497,-0.515625 -0.24609375,-0.3515625 -0.375,-0.76171875 -0.375,-1.21874995 0,-0.5976563 0.140625,-1.1953125 0.421875,-1.78125 0.28124997,-0.5742188 0.65624997,-1.078125 1.12499997,-1.5 0.4804688,-0.4101563 0.9726563,-0.7265625 1.4882813,-0.9257813 0.3046875,-0.1171875 0.6796875,-0.1875 1.125,-0.234375 z m -2.90625,2.7304688 c -0.421875,0.890625 -0.6328125,1.6289062 -0.6328125,2.2382812 0,0.31640625 0.082031,0.55078125 0.234375,0.73828125 C 1.5808719,-0.19885 1.7683719,-0.1051 1.9675906,-0.1051 c 0.3398438,0 0.65625,-0.24609375 0.9492188,-0.7265625 0.2929687,-0.5039062 0.4335937,-1.0664062 0.4335937,-1.7109375 0,-0.3515625 -0.070312,-0.609375 -0.2460937,-0.796875 -0.1757813,-0.1875 -0.375,-0.28125 -0.6210938,-0.28125 -0.1054687,0 -0.1992187,0.023437 -0.2929687,0.058594 -0.09375,0.023437 -0.2226563,0.09375 -0.375,0.2109373 z m 3.4335937,2.55468745 c 0.1171875,0 0.234375,0.046875 0.3164063,0.12890625 0.082031,0.09375 0.1289062,0.19921875 0.1289062,0.31640625 0,0.12890625 -0.046875,0.234375 -0.1289062,0.328125 -0.082031,0.08203125 -0.1992188,0.1171875 -0.3164063,0.1171875 -0.1171875,0 -0.2226562,-0.03515625 -0.3164062,-0.1171875 -0.082031,-0.09375 -0.1289063,-0.19921875 -0.1289063,-0.328125 0,-0.1171875 0.046875,-0.22265625 0.1289063,-0.31640625 0.09375,-0.0820313 0.1992187,-0.12890625 0.3164062,-0.12890625 z M 9.8660281,-6.0816625 c 0.3749999,0 0.6914059,0.1523438 0.9374999,0.46875 0.269531,0.3164063 0.386719,0.8085938 0.386719,1.4765625 0,0.5859375 -0.09375,1.171875 -0.28125,1.78125 -0.1875,0.5976563 -0.457031,1.125 -0.808594,1.55859375 -0.2695311,0.3515625 -0.5624999,0.609375 -0.8554686,0.76171875 -0.1875,0.09375 -0.3867188,0.12890625 -0.609375,0.12890625 -0.3867188,0 -0.703125,-0.15234375 -0.9609375,-0.45703125 -0.2578125,-0.31640625 -0.3867188,-0.8203125 -0.3867188,-1.5 0,-0.6679687 0.1289063,-1.3359375 0.3867188,-2.015625 0.2929687,-0.796875 0.6796875,-1.3945312 1.1484375,-1.8046875 0.3164062,-0.2695312 0.65625,-0.3984375 1.0429687,-0.3984375 z m 0,0.2226563 c -0.1640625,0 -0.3398437,0.058594 -0.515625,0.1992187 -0.1757812,0.1289063 -0.3515625,0.4101563 -0.5390625,0.8320313 -0.1757812,0.421875 -0.3632812,0.9726562 -0.5273437,1.6289062 -0.234375,0.8789063 -0.3398438,1.6171875 -0.3398438,2.2265625 0,0.3046875 0.070312,0.52734375 0.1992188,0.6796875 0.140625,0.15234375 0.2929687,0.234375 0.4804687,0.234375 0.1757813,0 0.328125,-0.0703125 0.4570313,-0.1875 0.3398437,-0.31640625 0.6328125,-0.8554687 0.8671875,-1.6171875 0.3867186,-1.2539062 0.5859376,-2.2734375 0.5859376,-3.046875 0,-0.328125 -0.05859,-0.5625 -0.199219,-0.7148437 -0.128906,-0.1523438 -0.28125,-0.234375 -0.4687499,-0.234375 z m 5.5898439,1.8867187 -0.574219,1.9804688 c 0.269531,-0.46875 0.492188,-0.8203125 0.667969,-1.0546875 0.292969,-0.3632813 0.5625,-0.6210938 0.84375,-0.7851563 0.152344,-0.1054687 0.316406,-0.140625 0.503906,-0.140625 0.140625,0 0.269531,0.035156 0.363281,0.140625 0.09375,0.09375 0.152344,0.2226563 0.152344,0.375 0,0.140625 -0.03516,0.328125 -0.105469,0.5625 l -0.339843,1.0898438 c 0.503906,-0.890625 0.984375,-1.5117188 1.441406,-1.875 0.246094,-0.1992188 0.492187,-0.2929688 0.738281,-0.2929688 0.140625,0 0.257813,0.046875 0.339844,0.1523438 0.09375,0.09375 0.140625,0.2460937 0.140625,0.46875 0,0.1640625 -0.02344,0.3398437 -0.09375,0.5273437 l -0.550781,1.6875 c -0.117188,0.375 -0.175782,0.57421875 -0.175782,0.609375 0,0.046875 0.02344,0.0820312 0.03516,0.1171875 0.02344,0.0117188 0.03516,0.0234375 0.07031,0.0234375 0.02344,0 0.07031,-0.0234375 0.140625,-0.0820313 0.152344,-0.12890625 0.28125,-0.29296875 0.421875,-0.50390625 l 0.140625,0.09375 c -0.07031,0.1171875 -0.199219,0.26953125 -0.363281,0.46875 -0.1875,0.19921875 -0.339844,0.33984375 -0.457031,0.3984375 -0.128907,0.0703125 -0.246094,0.10546875 -0.351563,0.10546875 -0.105469,0 -0.1875,-0.03515625 -0.257812,-0.10546875 -0.05859,-0.05859375 -0.09375,-0.15234375 -0.09375,-0.24609375 0,-0.140625 0.07031,-0.421875 0.199218,-0.84375 l 0.46875,-1.4179688 c 0.105469,-0.328125 0.164063,-0.5039062 0.164063,-0.5390625 0.02344,-0.058594 0.02344,-0.1054687 0.02344,-0.1640625 0,-0.070312 -0.02344,-0.1289062 -0.05859,-0.1757812 -0.03516,-0.035156 -0.08203,-0.058594 -0.128907,-0.058594 -0.128906,0 -0.269531,0.058594 -0.421875,0.1875 -0.433593,0.375 -0.84375,0.890625 -1.21875,1.5703125 -0.257812,0.4335938 -0.492187,1.00781255 -0.703125,1.6992188 h -0.667968 l 0.796875,-2.6601563 c 0.09375,-0.28125 0.140625,-0.46875 0.140625,-0.5742187 0,-0.082031 -0.02344,-0.1289063 -0.05859,-0.1757813 -0.03516,-0.035156 -0.07031,-0.058594 -0.117188,-0.058594 -0.105468,0 -0.199218,0.035156 -0.316406,0.1171875 -0.1875,0.1054687 -0.421875,0.3515625 -0.703125,0.7265625 -0.28125,0.375 -0.503906,0.7382812 -0.65625,1.078125 -0.07031,0.1640625 -0.257812,0.6796875 -0.539062,1.546875 h -0.644532 l 0.820313,-2.8476563 0.105469,-0.3632812 c 0.02344,-0.058594 0.02344,-0.1054688 0.02344,-0.1289063 0,-0.058594 -0.02344,-0.1289062 -0.08203,-0.1757812 -0.05859,-0.046875 -0.128906,-0.070312 -0.222656,-0.070312 -0.03516,0 -0.152344,0.011719 -0.316407,0.046875 l -0.03516,-0.1640625 z m 88.092778,-65.4931645 -1.13672,3.914063 h 0.70312 l -0.15234,0.550781 h -0.71485 l -0.45703,1.59375 h -0.64453 l 0.46875,-1.59375 h -2.167967 l 0.1875,-0.621094 3.574217,-3.84375 z m -0.98438,1.136719 -2.55469,2.777344 h 1.75782 z m 1.85156,4.03125 c 0.11719,0 0.23438,0.04687 0.31641,0.128906 0.082,0.09375 0.12891,0.199219 0.12891,0.316407 0,0.128906 -0.0469,0.234375 -0.12891,0.328125 -0.082,0.08203 -0.19922,0.117187 -0.31641,0.117187 -0.11718,0 -0.22265,-0.03516 -0.3164,-0.117187 -0.082,-0.09375 -0.12891,-0.199219 -0.12891,-0.328125 0,-0.117188 0.0469,-0.222657 0.12891,-0.316407 0.0937,-0.08203 0.19922,-0.128906 0.3164,-0.128906 z m 4.61719,-5.285156 c 0.375,0 0.69141,0.152344 0.9375,0.46875 0.26953,0.316406 0.38672,0.808594 0.38672,1.476562 0,0.585938 -0.0937,1.171875 -0.28125,1.78125 -0.1875,0.597657 -0.45703,1.125 -0.80859,1.558594 -0.26954,0.351563 -0.5625,0.609375 -0.85547,0.761719 -0.1875,0.09375 -0.38672,0.128906 -0.60938,0.128906 -0.38672,0 -0.70312,-0.152344 -0.96094,-0.457031 -0.25781,-0.316406 -0.38671,-0.820313 -0.38671,-1.5 0,-0.667969 0.1289,-1.335938 0.38671,-2.015625 0.29297,-0.796875 0.67969,-1.394531 1.14844,-1.804688 0.31641,-0.269531 0.65625,-0.398437 1.04297,-0.398437 z m 0,0.222656 c -0.16406,0 -0.33984,0.05859 -0.51562,0.199219 -0.17579,0.128906 -0.35157,0.410156 -0.53907,0.832031 -0.17578,0.421875 -0.36328,0.972656 -0.52734,1.628906 -0.23438,0.878907 -0.33984,1.617188 -0.33984,2.226563 0,0.304687 0.0703,0.527344 0.19921,0.679687 0.14063,0.152344 0.29297,0.234375 0.48047,0.234375 0.17578,0 0.32813,-0.07031 0.45703,-0.1875 0.33985,-0.316406 0.63282,-0.855468 0.86719,-1.617187 0.38672,-1.253906 0.58594,-2.273438 0.58594,-3.046875 0,-0.328125 -0.0586,-0.5625 -0.19922,-0.714844 -0.12891,-0.152344 -0.28125,-0.234375 -0.46875,-0.234375 z m 5.58984,1.886719 -0.57421,1.980469 c 0.26953,-0.46875 0.49218,-0.820313 0.66796,-1.054688 0.29297,-0.363281 0.5625,-0.621094 0.84375,-0.785156 0.15235,-0.105469 0.31641,-0.140625 0.50391,-0.140625 0.14063,0 0.26953,0.03516 0.36328,0.140625 0.0937,0.09375 0.15235,0.222656 0.15235,0.375 0,0.140625 -0.0352,0.328125 -0.10547,0.5625 l -0.33985,1.089844 c 0.50391,-0.890625 0.98438,-1.511719 1.44141,-1.875 0.24609,-0.199219 0.49219,-0.292969 0.73828,-0.292969 0.14063,0 0.25781,0.04687 0.33984,0.152344 0.0937,0.09375 0.14063,0.246093 0.14063,0.46875 0,0.164062 -0.0234,0.339843 -0.0937,0.527343 l -0.55078,1.6875 c -0.11719,0.375 -0.17578,0.574219 -0.17578,0.609375 0,0.04687 0.0234,0.08203 0.0352,0.117188 0.0234,0.01172 0.0352,0.02344 0.0703,0.02344 0.0234,0 0.0703,-0.02344 0.14062,-0.08203 0.15234,-0.128906 0.28125,-0.292969 0.42188,-0.503906 l 0.14062,0.09375 c -0.0703,0.117187 -0.19922,0.269531 -0.36328,0.46875 -0.1875,0.199219 -0.33984,0.339844 -0.45703,0.398437 -0.12891,0.07031 -0.2461,0.105469 -0.35156,0.105469 -0.10547,0 -0.1875,-0.03516 -0.25782,-0.105469 -0.0586,-0.05859 -0.0937,-0.152343 -0.0937,-0.246093 0,-0.140625 0.0703,-0.421875 0.19922,-0.84375 l 0.46875,-1.417969 c 0.10547,-0.328125 0.16406,-0.503906 0.16406,-0.539063 0.0234,-0.05859 0.0234,-0.105468 0.0234,-0.164062 0,-0.07031 -0.0234,-0.128906 -0.0586,-0.175781 -0.0352,-0.03516 -0.082,-0.05859 -0.12891,-0.05859 -0.1289,0 -0.26953,0.05859 -0.42187,0.1875 -0.4336,0.375 -0.84375,0.890625 -1.21875,1.570312 -0.25782,0.433594 -0.49219,1.007813 -0.70313,1.699219 h -0.66797 l 0.79688,-2.660156 c 0.0937,-0.28125 0.14062,-0.46875 0.14062,-0.574219 0,-0.08203 -0.0234,-0.128906 -0.0586,-0.175781 -0.0352,-0.03516 -0.0703,-0.05859 -0.11719,-0.05859 -0.10547,0 -0.19922,0.03516 -0.3164,0.117188 -0.1875,0.105468 -0.42188,0.351562 -0.70313,0.726562 -0.28125,0.375 -0.50391,0.738281 -0.65625,1.078125 -0.0703,0.164063 -0.25781,0.679688 -0.53906,1.546875 h -0.64453 l 0.82031,-2.847656 0.10547,-0.363281 c 0.0234,-0.05859 0.0234,-0.105469 0.0234,-0.128907 0,-0.05859 -0.0234,-0.128906 -0.082,-0.175781 -0.0586,-0.04687 -0.1289,-0.07031 -0.22265,-0.07031 -0.0352,0 -0.15235,0.01172 -0.31641,0.04687 l -0.0352,-0.164063 z m 0,0"
       style="fill:#231f20;fill-opacity:1;fill-rule:nonzero;stroke:none"
       aria-label="6.0 m&#10;4.0 m"
       transform="matrix(1.3333333,0,0,1.3333333,109.99373,175.89013)" />
    <path
       id="path79"
       d="m 1796.25,1209.05 h -60.61"
       style="fill:none;stroke:#231f20;stroke-width:2.5;stroke-linecap:butt;stroke-linejoin:miter;stroke-miterlimit:3.86369;stroke-dasharray:none;stroke-opacity:1"
       transform="matrix(0.13333333,0,0,-0.13333333,0,189.33333)" />
    <path
       id="path80"
       d="M 2.8350781,-2.6484687 1.8858594,0.65621875 c -0.046875,0.15234375 -0.070312,0.2578125 -0.070312,0.29296875 0,0.046875 0.011719,0.09375 0.035156,0.1171875 0.023437,0.035156 0.058594,0.058594 0.09375,0.070312 0.058594,0.023437 0.140625,0.035156 0.234375,0.035156 L 2.1553906,1.2890313 H 0.74914062 l 0.0351563,-0.1171875 c 0.1875,-0.011719 0.30468758,-0.023437 0.35156258,-0.046875 0.070312,-0.023437 0.140625,-0.070312 0.1875,-0.14062505 0.046875,-0.0703125 0.09375,-0.2109375 0.1523437,-0.421875 l 0.4101563,-1.453125 c -0.2578125,0.375 -0.5039063,0.64453125 -0.7265625,0.796875 -0.1523438,0.10546875 -0.30468758,0.1640625 -0.44531258,0.1640625 -0.1875,0 -0.33984375,-0.08203125 -0.43359375,-0.24609375 -0.10546875,-0.15234375 -0.15234375,-0.328125 -0.15234375,-0.515625 0,-0.29296875 0.09375,-0.5976562 0.26953125,-0.9257812 0.1875,-0.3164063 0.421875,-0.5859375 0.71484383,-0.796875 0.234375,-0.1640625 0.4453125,-0.234375 0.6328125,-0.234375 0.140625,0 0.2460937,0.035156 0.3398437,0.09375 0.082031,0.070312 0.1523438,0.1757812 0.1992188,0.328125 l 0.09375,-0.328125 z m -0.6679687,0.5625 c 0,-0.1171875 -0.035156,-0.2226563 -0.1054688,-0.3046875 -0.082031,-0.070312 -0.1757812,-0.1171875 -0.2929687,-0.1171875 -0.234375,0 -0.4921875,0.1992187 -0.75,0.609375 -0.28125003,0.4101562 -0.41015628,0.796875 -0.41015628,1.1601562 0,0.140625 0.0351563,0.2578125 0.10546875,0.328125 C 0.78429687,-0.3281562 0.85460937,-0.293 0.96007812,-0.293 1.0772656,-0.293 1.2178906,-0.3633125 1.3702344,-0.49221875 1.6046094,-0.6914375 1.7921094,-0.94925 1.9444531,-1.2656562 2.0967969,-1.5820625 2.1671094,-1.8515937 2.1671094,-2.0859687 Z m 4.40625,0.2988281 c 0.2578125,0 0.46875,0.1054687 0.6328125,0.3164062 0.1757812,0.1992188 0.2578125,0.53906253 0.2578125,0.98437503 0,0.38671875 -0.070312,0.78515625 -0.1875,1.18359375 C 7.1475781,1.0956719 6.9600781,1.4472344 6.7374219,1.7402031 c -0.1875,0.234375 -0.375,0.3984375 -0.5742188,0.5039063 -0.1171875,0.058594 -0.2578125,0.09375 -0.4101562,0.09375 -0.2460938,0 -0.46875,-0.1054688 -0.6328125,-0.3164063 C 4.9444531,1.8105156 4.8624219,1.4823906 4.8624219,1.0253594 c 0,-0.44531252 0.082031,-0.89062502 0.2578125,-1.34765627 0.1992187,-0.52734375 0.4570312,-0.92578123 0.7617187,-1.19531253 0.2109375,-0.1757812 0.4453125,-0.2695312 0.6914063,-0.2695312 z m 0.011719,0.1523437 c -0.1171875,0 -0.234375,0.035156 -0.3515625,0.1289063 -0.1171875,0.09375 -0.234375,0.28125 -0.3632812,0.56249998 -0.1171875,0.28125 -0.234375,0.6328125 -0.3515625,1.078125 -0.1523438,0.5859375 -0.2226563,1.07812502 -0.2226563,1.48828122 0,0.1992188 0.046875,0.3515625 0.1289063,0.4570313 0.09375,0.09375 0.1992187,0.140625 0.3164062,0.140625 0.1289063,0 0.2226563,-0.035156 0.3164063,-0.1171875 0.2226562,-0.2109375 0.4101562,-0.5625 0.5742187,-1.078125 0.2578125,-0.83203127 0.3984375,-1.51171877 0.3984375,-2.0390625 0,-0.2109375 -0.046875,-0.3632813 -0.140625,-0.46875 -0.082031,-0.1054688 -0.1875,-0.1523438 -0.3046875,-0.1523438 z m 0,0"
       style="fill:#231f20;fill-opacity:1;fill-rule:nonzero;stroke:none"
       aria-label="q&#10;0"
       transform="matrix(1.3333333,0,0,1.3333333,221.49333,13.890667)" />
    <path
       id="path81"
       d="m 1796.86,252.449 h -60.61"
       style="fill:none;stroke:#231f20;stroke-width:2.5;stroke-linecap:butt;stroke-linejoin:miter;stroke-miterlimit:3.86369;stroke-dasharray:none;stroke-opacity:1"
       transform="matrix(0.13333333,0,0,-0.13333333,0,189.33333)" />
    <path
       id="path82"
       d="M 1762.54,1185.71 V 278.121"
       style="fill:none;stroke:#231f20;stroke-width:2.5;stroke-linecap:butt;stroke-linejoin:miter;stroke-miterlimit:3.86369;stroke-dasharray:none;stroke-opacity:1"
       transform="matrix(0.13333333,0,0,-0.13333333,0,189.33333)" />
    <path
       id="path83"
       d="m 1755.67,1185.02 7.56,22 7.56,-22 z"
       style="fill:#231f20;fill-opacity:1;fill-rule:nonzero;stroke:#231f20;stroke-width:2.5;stroke-linecap:butt;stroke-linejoin:miter;stroke-miterlimit:3.86369;stroke-dasharray:none;stroke-opacity:1"
       transform="matrix(0.13333333,0,0,-0.13333333,0,189.33333)" />
    <path
       id="path84"
       d="m 1769.42,278.809 -7.57,-22 -7.56,22 z"
       style="fill:#231f20;fill-opacity:1;fill-rule:nonzero;stroke:#231f20;stroke-width:2.5;stroke-linecap:butt;stroke-linejoin:miter;stroke-miterlimit:3.86369;stroke-dasharray:none;stroke-opacity:1"
       transform="matrix(0.13333333,0,0,-0.13333333,0,189.33333)" />
    <g
       id="g84"
       aria-label="A&#10;2&#10;, I&#10;2&#10;, E&#10;A&#10;1&#10;, I&#10;1&#10;, E&#10;A&#10;1&#10;, I&#10;1&#10;, E"
       transform="matrix(1.3333333,0,0,1.3333333,111.97187,72.7208)">
      <path
         id="path85"
         d="m 4.6294984,-6.1040766 -0.4570312,4.96875 c -0.023437,0.22265629 -0.035156,0.37500004 -0.035156,0.45703129 0,0.1171875 0.035156,0.19921875 0.070312,0.26953125 0.058594,0.0820313 0.1289063,0.15234375 0.234375,0.1875 0.082031,0.046875 0.2460938,0.0585938 0.46875,0.0585938 l -0.046875,0.1640625 h -2.34375 l 0.046875,-0.1640625 H 2.672467 c 0.1875,0 0.3398437,-0.046875 0.4570312,-0.12890625 0.09375,-0.046875 0.1523438,-0.140625 0.1992188,-0.26953125 0.035156,-0.09375 0.070312,-0.3046875 0.09375,-0.64453124 l 0.082031,-0.75 H 1.7935609 l -0.609375,0.8203125 c -0.1289062,0.18749999 -0.22265621,0.31640624 -0.24609371,0.39843749 -0.0351563,0.0820313 -0.0585938,0.15234375 -0.0585938,0.22265625 0,0.09375 0.0351563,0.17578125 0.10546875,0.24609375 0.0820312,0.0585937 0.21093746,0.09375 0.38671866,0.10546875 l -0.046875,0.1640625 h -1.76953116 l 0.046875,-0.1640625 c 0.22265625,-0.0117188 0.421875,-0.0820313 0.57421875,-0.2109375 0.1640625,-0.140625 0.421875,-0.43359375 0.73828125,-0.87890624 L 4.4771547,-6.1040766 Z m -0.8789062,1.4648438 -1.7109375,2.3554687 h 1.4882812 z m 0,0"
         style="fill:#231f20;fill-opacity:1;fill-rule:nonzero;stroke:none" />
      <path
         id="path86"
         d="M 8.2418031,1.4955328 7.9722719,2.2689703 h -2.34375 V 2.1635016 c 0.6914062,-0.6328125 1.171875,-1.1484375 1.453125,-1.54687504 0.28125,-0.3984375 0.421875,-0.76171875 0.421875,-1.08984375 0,-0.24609375 -0.082031,-0.45703125 -0.234375,-0.62109371 -0.1523438,-0.1640625 -0.3398438,-0.2460938 -0.5507813,-0.2460938 -0.1875,0 -0.375,0.058594 -0.5273437,0.1757813 -0.1523438,0.1054687 -0.2695313,0.28124996 -0.3398438,0.49218746 H 5.7339906 c 0.058594,-0.36328126 0.1757813,-0.63281246 0.3867188,-0.83203126 0.1992187,-0.1875 0.4570312,-0.28125 0.75,-0.28125 0.328125,0 0.5976562,0.1054688 0.8085937,0.3164063 0.2226563,0.1992187 0.328125,0.4453125 0.328125,0.72656246 0,0.19921875 -0.046875,0.3984375 -0.140625,0.609375 C 7.7144594,0.17131406 7.4800844,0.51115781 7.1636781,0.86272031 6.6714906,1.4017828 6.3785219,1.7181891 6.2613344,1.8236578 h 1.03125 c 0.1992187,0 0.3515625,-0.011719 0.4335937,-0.023437 0.09375,-0.023437 0.1640625,-0.058594 0.2226563,-0.1054687 0.082031,-0.046875 0.140625,-0.1054688 0.1875,-0.1992188 z m 0,0"
         style="fill:#231f20;fill-opacity:1;fill-rule:nonzero;stroke:none" />
      <path
         id="path87"
         d="M 8.4058656,0.98576719 C 8.6285219,0.88029844 8.8043031,0.76311094 8.9449281,0.59904844 c 0.1054688,-0.1171875 0.1523438,-0.22265625 0.1523438,-0.328125 0,-0.0585938 0,-0.09375 -0.023437,-0.140625 -0.011719,-0.03515625 -0.046875,-0.0703125 -0.1171875,-0.15234375 -0.070312,-0.0703125 -0.1171875,-0.1171875 -0.1289063,-0.140625 -0.011719,-0.046875 -0.023437,-0.10546875 -0.023437,-0.1640625 0,-0.12890625 0.046875,-0.234375 0.1289063,-0.328125 0.09375,-0.09375 0.1875,-0.140625 0.3046875,-0.140625 0.1289062,0 0.2226562,0.046875 0.328125,0.15234375 0.082031,0.09375 0.1289062,0.2109375 0.1289062,0.36328125 0,0.2578125 -0.09375,0.52734375 -0.3046875,0.78515625 C 9.1793031,0.77482969 8.8863344,0.98576719 8.4996156,1.1263922 Z m 6.7851564,-1.1484375 -0.04687,0.1640625 h -2.425781 l 0.07031,-0.1640625 c 0.234375,-0.0117188 0.398438,-0.0234375 0.480469,-0.0585938 0.128906,-0.046875 0.222656,-0.1171875 0.28125,-0.2109375 0.09375,-0.12890625 0.199219,-0.375 0.304687,-0.73828119 l 1.03125,-3.5976563 c 0.08203,-0.2929687 0.128907,-0.5273437 0.128907,-0.6796875 0,-0.082031 -0.02344,-0.140625 -0.05859,-0.1992187 -0.03516,-0.046875 -0.09375,-0.082031 -0.164063,-0.1171875 -0.08203,-0.023437 -0.234375,-0.035156 -0.457031,-0.035156 l 0.04687,-0.1640625 h 2.285156 l -0.05859,0.1640625 c -0.175782,0 -0.328125,0.011719 -0.410157,0.058594 -0.140625,0.070312 -0.234375,0.1640625 -0.304687,0.28125 -0.07031,0.1171875 -0.164063,0.3867187 -0.269531,0.7851562 l -1.03125,3.5976563 c -0.09375,0.30468744 -0.140625,0.49218744 -0.140625,0.57421869 0,0.0703125 0.01172,0.12890625 0.05859,0.17578125 0.03516,0.0351563 0.09375,0.0703125 0.175782,0.10546875 0.08203,0.0234375 0.246093,0.046875 0.503906,0.0585938 z m 0,0"
         style="fill:#231f20;fill-opacity:1;fill-rule:nonzero;stroke:none" />
      <path
         id="path88"
         d="m 18.738873,1.4955328 -0.269531,0.7734375 h -2.34375 V 2.1635016 c 0.691406,-0.6328125 1.171875,-1.1484375 1.453125,-1.54687504 0.28125,-0.3984375 0.421875,-0.76171875 0.421875,-1.08984375 0,-0.24609375 -0.08203,-0.45703125 -0.234375,-0.62109371 -0.152344,-0.1640625 -0.339844,-0.2460938 -0.550781,-0.2460938 -0.1875,0 -0.375,0.058594 -0.527344,0.1757813 -0.152344,0.1054687 -0.269531,0.28124996 -0.339844,0.49218746 h -0.117187 c 0.05859,-0.36328126 0.175781,-0.63281246 0.386719,-0.83203126 0.199218,-0.1875 0.457031,-0.28125 0.75,-0.28125 0.328125,0 0.597656,0.1054688 0.808593,0.3164063 0.222657,0.1992187 0.328125,0.4453125 0.328125,0.72656246 0,0.19921875 -0.04687,0.3984375 -0.140625,0.609375 C 18.21153,0.17131406 17.977155,0.51115781 17.660748,0.86272031 17.168561,1.4017828 16.875592,1.7181891 16.758405,1.8236578 h 1.03125 c 0.199218,0 0.351562,-0.011719 0.433593,-0.023437 0.09375,-0.023437 0.164063,-0.058594 0.222657,-0.1054687 0.08203,-0.046875 0.140625,-0.1054688 0.1875,-0.1992188 z m 0,0"
         style="fill:#231f20;fill-opacity:1;fill-rule:nonzero;stroke:none" />
      <path
         id="path89"
         d="m 18.902936,0.98576719 c 0.222656,-0.10546875 0.398437,-0.22265625 0.539062,-0.38671875 0.105469,-0.1171875 0.152344,-0.22265625 0.152344,-0.328125 0,-0.0585938 0,-0.09375 -0.02344,-0.140625 -0.01172,-0.03515625 -0.04687,-0.0703125 -0.117188,-0.15234375 -0.07031,-0.0703125 -0.117187,-0.1171875 -0.128906,-0.140625 -0.01172,-0.046875 -0.02344,-0.10546875 -0.02344,-0.1640625 0,-0.12890625 0.04687,-0.234375 0.128907,-0.328125 0.09375,-0.09375 0.1875,-0.140625 0.304687,-0.140625 0.128906,0 0.222656,0.046875 0.328125,0.15234375 0.08203,0.09375 0.128906,0.2109375 0.128906,0.36328125 0,0.2578125 -0.09375,0.52734375 -0.304687,0.78515625 C 19.676368,0.77482969 19.3834,0.98576719 18.996681,1.1263922 Z m 7.488281,-6.63281249 -0.667969,2.3671875 h 0.5625 c 0.398438,0 0.691407,-0.070312 0.878907,-0.1875 0.164062,-0.1171875 0.328125,-0.3515625 0.457031,-0.6679688 h 0.164062 l -0.621093,2.1445313 h -0.175782 c 0.05859,-0.1757813 0.08203,-0.328125 0.08203,-0.46875 0,-0.1171875 -0.02344,-0.2226563 -0.08203,-0.2929688 -0.04687,-0.082031 -0.117187,-0.140625 -0.210937,-0.1757812 -0.08203,-0.035156 -0.269531,-0.046875 -0.550781,-0.046875 h -0.597657 l -0.585937,2.06249999 c -0.05859,0.1640625 -0.09375,0.29296875 -0.09375,0.38671875 0,0.0585938 0.04687,0.1171875 0.117187,0.1640625 0.04687,0.0351563 0.1875,0.0585938 0.386719,0.0585938 h 0.550781 c 0.5625,0 1.019532,-0.10546875 1.359375,-0.3046875 0.351563,-0.19921875 0.65625,-0.55078124 0.925782,-1.05468744 h 0.164062 l -0.5625,1.66406244 h -4.59375 l 0.05859,-0.1640625 c 0.234375,-0.0117188 0.386719,-0.0234375 0.46875,-0.0585938 0.117187,-0.0585937 0.199219,-0.1171875 0.246094,-0.19921875 0.08203,-0.12890625 0.175781,-0.375 0.28125,-0.76171879 l 1.03125,-3.609375 c 0.08203,-0.28125 0.128906,-0.5039062 0.128906,-0.65625 0,-0.1171875 -0.03516,-0.1992187 -0.117188,-0.2578125 -0.08203,-0.058594 -0.234375,-0.09375 -0.457031,-0.09375 h -0.09375 l 0.05859,-0.1640625 h 4.277344 l -0.363282,1.4414063 h -0.164062 c 0.02344,-0.140625 0.02344,-0.2578125 0.02344,-0.3398438 0,-0.1640625 -0.03516,-0.28125 -0.105468,-0.3984375 -0.09375,-0.1289062 -0.246094,-0.2226562 -0.433594,-0.3046875 -0.140625,-0.046875 -0.46875,-0.082031 -0.972656,-0.082031 z m 3.858399,20.1035153 -0.457032,4.96875 c -0.02344,0.222657 -0.03516,0.375 -0.03516,0.457032 0,0.117187 0.03516,0.199218 0.07031,0.269531 0.05859,0.08203 0.128906,0.152344 0.234375,0.1875 0.08203,0.04687 0.246093,0.05859 0.46875,0.05859 l -0.04687,0.164062 h -2.34375 l 0.04687,-0.164062 h 0.105468 c 0.1875,0 0.339844,-0.04687 0.457032,-0.128907 0.09375,-0.04687 0.152343,-0.140625 0.199218,-0.269531 0.03516,-0.09375 0.07031,-0.304687 0.09375,-0.644531 l 0.08203,-0.75 h -1.710938 l -0.609375,0.820312 c -0.128906,0.1875 -0.222656,0.316407 -0.246094,0.398438 -0.03516,0.08203 -0.05859,0.152344 -0.05859,0.222656 0,0.09375 0.03516,0.175781 0.105468,0.246094 0.08203,0.05859 0.210938,0.09375 0.386719,0.105469 l -0.04687,0.164062 h -1.769531 l 0.04687,-0.164062 c 0.222656,-0.01172 0.421875,-0.08203 0.574219,-0.210938 0.164062,-0.140625 0.421875,-0.433594 0.738281,-0.878906 l 3.5625,-4.851563 z m -0.878907,1.464844 -1.710937,2.355469 h 1.488281 z m 0,0"
         style="fill:#231f20;fill-opacity:1;fill-rule:nonzero;stroke:none" />
      <path
         id="path90"
         d="m 31.811139,19.24358 0.972656,-0.46875 h 0.105469 v 3.351562 c 0,0.222656 0.01172,0.363281 0.02344,0.421875 0.02344,0.05859 0.05859,0.09375 0.117187,0.128906 0.05859,0.02344 0.175781,0.03516 0.363281,0.04687 v 0.105469 h -1.5 v -0.105469 c 0.175782,-0.01172 0.304688,-0.02344 0.363282,-0.04687 0.04687,-0.03516 0.08203,-0.07031 0.105468,-0.117187 0.02344,-0.04687 0.03516,-0.1875 0.03516,-0.433594 v -2.144531 c 0,-0.292969 -0.01172,-0.480469 -0.03516,-0.5625 -0.01172,-0.05859 -0.03516,-0.105469 -0.07031,-0.140625 -0.03516,-0.02344 -0.08203,-0.03516 -0.128906,-0.03516 -0.07031,0 -0.175782,0.02344 -0.304688,0.09375 z m 0,0"
         style="fill:#231f20;fill-opacity:1;fill-rule:nonzero;stroke:none" />
      <path
         id="path91"
         d="m 34.025983,21.546314 c 0.222656,-0.105469 0.398437,-0.222656 0.539062,-0.386719 0.105469,-0.117187 0.152344,-0.222656 0.152344,-0.328125 0,-0.05859 0,-0.09375 -0.02344,-0.140625 -0.01172,-0.03516 -0.04687,-0.07031 -0.117188,-0.152343 -0.07031,-0.07031 -0.117187,-0.117188 -0.128906,-0.140625 -0.01172,-0.04687 -0.02344,-0.105469 -0.02344,-0.164063 0,-0.128906 0.04687,-0.234375 0.128907,-0.328125 0.09375,-0.09375 0.1875,-0.140625 0.304687,-0.140625 0.128906,0 0.222656,0.04687 0.328125,0.152344 0.08203,0.09375 0.128906,0.210937 0.128906,0.363281 0,0.257813 -0.09375,0.527344 -0.304687,0.785156 -0.210938,0.269532 -0.503906,0.480469 -0.890625,0.621094 z m 6.28418,-1.148437 -0.04687,0.164062 h -2.425782 l 0.07031,-0.164062 c 0.234375,-0.01172 0.398437,-0.02344 0.480469,-0.05859 0.128906,-0.04687 0.222656,-0.117188 0.28125,-0.210938 0.09375,-0.128906 0.199218,-0.375 0.304687,-0.738281 l 1.03125,-3.597656 c 0.08203,-0.292969 0.128906,-0.527344 0.128906,-0.679688 0,-0.08203 -0.02344,-0.140625 -0.05859,-0.199218 -0.03516,-0.04687 -0.09375,-0.08203 -0.164063,-0.117188 -0.08203,-0.02344 -0.234375,-0.03516 -0.457031,-0.03516 l 0.04687,-0.164063 h 2.285156 l -0.05859,0.164063 c -0.175781,0 -0.328125,0.01172 -0.410156,0.05859 -0.140625,0.07031 -0.234375,0.164062 -0.304687,0.28125 -0.07031,0.117187 -0.164063,0.386718 -0.269532,0.785156 l -1.03125,3.597656 c -0.09375,0.304688 -0.140625,0.492188 -0.140625,0.574219 0,0.07031 0.01172,0.128906 0.05859,0.175781 0.03516,0.03516 0.09375,0.07031 0.175781,0.105469 0.08203,0.02344 0.246094,0.04687 0.503907,0.05859 z m 0,0"
         style="fill:#231f20;fill-opacity:1;fill-rule:nonzero;stroke:none" />
      <path
         id="path92"
         d="m 41.807233,19.24358 0.972656,-0.46875 h 0.105469 v 3.351562 c 0,0.222656 0.01172,0.363281 0.02344,0.421875 0.02344,0.05859 0.05859,0.09375 0.117188,0.128906 0.05859,0.02344 0.175781,0.03516 0.363281,0.04687 v 0.105469 h -1.5 v -0.105469 c 0.175781,-0.01172 0.304688,-0.02344 0.363281,-0.04687 0.04687,-0.03516 0.08203,-0.07031 0.105469,-0.117187 0.02344,-0.04687 0.03516,-0.1875 0.03516,-0.433594 v -2.144531 c 0,-0.292969 -0.01172,-0.480469 -0.03516,-0.5625 -0.01172,-0.05859 -0.03516,-0.105469 -0.07031,-0.140625 -0.03516,-0.02344 -0.08203,-0.03516 -0.128907,-0.03516 -0.07031,0 -0.175781,0.02344 -0.304687,0.09375 z m 0,0"
         style="fill:#231f20;fill-opacity:1;fill-rule:nonzero;stroke:none" />
      <path
         id="path93"
         d="m 44.022077,21.546314 c 0.222656,-0.105469 0.398437,-0.222656 0.539062,-0.386719 0.105469,-0.117187 0.152344,-0.222656 0.152344,-0.328125 0,-0.05859 0,-0.09375 -0.02344,-0.140625 -0.01172,-0.03516 -0.04687,-0.07031 -0.117187,-0.152343 -0.07031,-0.07031 -0.117188,-0.117188 -0.128906,-0.140625 -0.01172,-0.04687 -0.02344,-0.105469 -0.02344,-0.164063 0,-0.128906 0.04687,-0.234375 0.128906,-0.328125 0.09375,-0.09375 0.1875,-0.140625 0.304688,-0.140625 0.128906,0 0.222656,0.04687 0.328125,0.152344 0.08203,0.09375 0.128906,0.210937 0.128906,0.363281 0,0.257813 -0.09375,0.527344 -0.304687,0.785156 -0.210938,0.269532 -0.503907,0.480469 -0.890625,0.621094 z m 7.488281,-6.632812 -0.667969,2.367187 h 0.5625 c 0.398438,0 0.691406,-0.07031 0.878906,-0.1875 0.164063,-0.117187 0.328125,-0.351562 0.457032,-0.667969 h 0.164062 l -0.621094,2.144532 h -0.175781 c 0.05859,-0.175782 0.08203,-0.328125 0.08203,-0.46875 0,-0.117188 -0.02344,-0.222657 -0.08203,-0.292969 -0.04687,-0.08203 -0.117187,-0.140625 -0.210937,-0.175781 -0.08203,-0.03516 -0.269532,-0.04687 -0.550782,-0.04687 h -0.597656 l -0.585937,2.0625 c -0.05859,0.164062 -0.09375,0.292968 -0.09375,0.386718 0,0.05859 0.04687,0.117188 0.117187,0.164063 0.04687,0.03516 0.1875,0.05859 0.386719,0.05859 h 0.550781 c 0.5625,0 1.019531,-0.105469 1.359375,-0.304688 0.351563,-0.199219 0.65625,-0.550781 0.925781,-1.054687 h 0.164063 l -0.5625,1.664062 h -4.59375 l 0.05859,-0.164062 c 0.234375,-0.01172 0.386718,-0.02344 0.46875,-0.05859 0.117187,-0.05859 0.199218,-0.117188 0.246093,-0.199219 0.08203,-0.128906 0.175782,-0.375 0.28125,-0.761719 l 1.03125,-3.609375 c 0.08203,-0.28125 0.128907,-0.503906 0.128907,-0.65625 0,-0.117187 -0.03516,-0.199218 -0.117188,-0.257812 -0.08203,-0.05859 -0.234375,-0.09375 -0.457031,-0.09375 h -0.09375 l 0.05859,-0.164063 h 4.277343 l -0.363281,1.441407 h -0.164062 c 0.02344,-0.140625 0.02344,-0.257813 0.02344,-0.339844 0,-0.164063 -0.03516,-0.28125 -0.105469,-0.398438 -0.09375,-0.128906 -0.246093,-0.222656 -0.433593,-0.304687 -0.140625,-0.04687 -0.46875,-0.08203 -0.972657,-0.08203 z m -84.023438,-0.451172 -0.457031,4.96875 c -0.02344,0.222656 -0.03516,0.375 -0.03516,0.457031 0,0.117187 0.03516,0.199219 0.07031,0.269531 0.05859,0.08203 0.128907,0.152344 0.234375,0.1875 0.08203,0.04687 0.246094,0.05859 0.46875,0.05859 l -0.04687,0.164062 h -2.34375 l 0.04687,-0.164062 h 0.105469 c 0.1875,0 0.339844,-0.04687 0.457031,-0.128906 0.09375,-0.04687 0.152344,-0.140625 0.199219,-0.269532 0.03516,-0.09375 0.07031,-0.304687 0.09375,-0.644531 l 0.08203,-0.75 h -1.710937 l -0.609375,0.820313 c -0.128906,0.1875 -0.222656,0.316406 -0.246094,0.398437 -0.03516,0.08203 -0.05859,0.152344 -0.05859,0.222656 0,0.09375 0.03516,0.175782 0.105469,0.246094 0.08203,0.05859 0.210938,0.09375 0.386719,0.105469 l -0.04687,0.164062 h -1.769531 l 0.04687,-0.164062 c 0.222656,-0.01172 0.421875,-0.08203 0.574218,-0.210938 0.164063,-0.140625 0.421875,-0.433593 0.738282,-0.878906 l 3.5625,-4.851562 z m -0.878906,1.464843 -1.710937,2.355469 h 1.488281 z m 0,0"
         style="fill:#231f20;fill-opacity:1;fill-rule:nonzero;stroke:none" />
      <path
         id="path94"
         d="m -30.951556,19.249439 0.972656,-0.46875 h 0.105469 v 3.351563 c 0,0.222656 0.01172,0.363281 0.02344,0.421875 0.02344,0.05859 0.05859,0.09375 0.117188,0.128906 0.05859,0.02344 0.175781,0.03516 0.363281,0.04687 v 0.105469 h -1.5 v -0.105469 c 0.175781,-0.01172 0.304688,-0.02344 0.363281,-0.04687 0.04687,-0.03516 0.08203,-0.07031 0.105469,-0.117188 0.02344,-0.04687 0.03516,-0.1875 0.03516,-0.433593 V 19.98772 c 0,-0.292968 -0.01172,-0.480468 -0.03516,-0.5625 -0.01172,-0.05859 -0.03516,-0.105468 -0.07031,-0.140625 -0.03516,-0.02344 -0.08203,-0.03516 -0.128907,-0.03516 -0.07031,0 -0.175781,0.02344 -0.304687,0.09375 z m 0,0"
         style="fill:#231f20;fill-opacity:1;fill-rule:nonzero;stroke:none" />
      <path
         id="path95"
         d="m -28.736712,21.552173 c 0.222656,-0.105468 0.398437,-0.222656 0.539062,-0.386718 0.105469,-0.117188 0.152344,-0.222657 0.152344,-0.328125 0,-0.05859 0,-0.09375 -0.02344,-0.140625 -0.01172,-0.03516 -0.04687,-0.07031 -0.117187,-0.152344 -0.07031,-0.07031 -0.117188,-0.117188 -0.128906,-0.140625 -0.01172,-0.04687 -0.02344,-0.105469 -0.02344,-0.164063 0,-0.128906 0.04687,-0.234375 0.128906,-0.328125 0.09375,-0.09375 0.1875,-0.140625 0.304688,-0.140625 0.128906,0 0.222656,0.04687 0.328125,0.152344 0.08203,0.09375 0.128906,0.210938 0.128906,0.363281 0,0.257813 -0.09375,0.527344 -0.304687,0.785157 -0.210938,0.269531 -0.503907,0.480468 -0.890625,0.621093 z m 6.785156,-1.148437 -0.04687,0.164062 h -2.425781 l 0.07031,-0.164062 c 0.234375,-0.01172 0.398438,-0.02344 0.480469,-0.05859 0.128906,-0.04687 0.222656,-0.117187 0.28125,-0.210937 0.09375,-0.128907 0.199219,-0.375 0.304687,-0.738282 l 1.03125,-3.597656 c 0.08203,-0.292969 0.128907,-0.527344 0.128907,-0.679687 0,-0.08203 -0.02344,-0.140625 -0.05859,-0.199219 -0.03516,-0.04687 -0.09375,-0.08203 -0.164063,-0.117188 -0.08203,-0.02344 -0.234375,-0.03516 -0.457031,-0.03516 l 0.04687,-0.164062 h 2.285156 l -0.05859,0.164062 c -0.175782,0 -0.328125,0.01172 -0.410157,0.05859 -0.140625,0.07031 -0.234375,0.164062 -0.304687,0.28125 -0.07031,0.117187 -0.164063,0.386719 -0.269531,0.785156 l -1.03125,3.597656 c -0.09375,0.304688 -0.140625,0.492188 -0.140625,0.574219 0,0.07031 0.01172,0.128906 0.05859,0.175781 0.03516,0.03516 0.09375,0.07031 0.175782,0.105469 0.08203,0.02344 0.246093,0.04687 0.503906,0.05859 z m 0,0"
         style="fill:#231f20;fill-opacity:1;fill-rule:nonzero;stroke:none" />
      <path
         id="path96"
         d="m -20.454486,19.249439 0.972656,-0.46875 h 0.105469 v 3.351563 c 0,0.222656 0.01172,0.363281 0.02344,0.421875 0.02344,0.05859 0.05859,0.09375 0.117187,0.128906 0.05859,0.02344 0.175781,0.03516 0.363281,0.04687 v 0.105469 h -1.5 v -0.105469 c 0.175782,-0.01172 0.304688,-0.02344 0.363282,-0.04687 0.04687,-0.03516 0.08203,-0.07031 0.105468,-0.117188 0.02344,-0.04687 0.03516,-0.1875 0.03516,-0.433593 V 19.98772 c 0,-0.292968 -0.01172,-0.480468 -0.03516,-0.5625 -0.01172,-0.05859 -0.03516,-0.105468 -0.07031,-0.140625 -0.03516,-0.02344 -0.08203,-0.03516 -0.128906,-0.03516 -0.07031,0 -0.175782,0.02344 -0.304688,0.09375 z m 0,0"
         style="fill:#231f20;fill-opacity:1;fill-rule:nonzero;stroke:none" />
      <path
         id="path97"
         d="m -18.239642,21.552173 c 0.222656,-0.105468 0.398437,-0.222656 0.539062,-0.386718 0.105469,-0.117188 0.152344,-0.222657 0.152344,-0.328125 0,-0.05859 0,-0.09375 -0.02344,-0.140625 -0.01172,-0.03516 -0.04687,-0.07031 -0.117188,-0.152344 -0.07031,-0.07031 -0.117187,-0.117188 -0.128906,-0.140625 -0.01172,-0.04687 -0.02344,-0.105469 -0.02344,-0.164063 0,-0.128906 0.04687,-0.234375 0.128907,-0.328125 0.09375,-0.09375 0.1875,-0.140625 0.304687,-0.140625 0.128906,0 0.222656,0.04687 0.328125,0.152344 0.08203,0.09375 0.128906,0.210938 0.128906,0.363281 0,0.257813 -0.09375,0.527344 -0.304687,0.785157 -0.210938,0.269531 -0.503906,0.480468 -0.890625,0.621093 z m 7.488281,-6.632812 -0.667969,2.367187 h 0.5625 c 0.398438,0 0.691407,-0.07031 0.8789066,-0.1875 0.1640625,-0.117187 0.328125,-0.351562 0.4570312,-0.667968 h 0.1640625 l -0.6210937,2.144531 h -0.1757816 c 0.05859,-0.175781 0.08203,-0.328125 0.08203,-0.46875 0,-0.117188 -0.02344,-0.222656 -0.08203,-0.292969 -0.04687,-0.08203 -0.117187,-0.140625 -0.210937,-0.175781 -0.08203,-0.03516 -0.269531,-0.04687 -0.550781,-0.04687 h -0.597657 l -0.585937,2.0625 c -0.05859,0.164062 -0.09375,0.292969 -0.09375,0.386719 0,0.05859 0.04687,0.117187 0.117187,0.164062 0.04687,0.03516 0.1875,0.05859 0.386719,0.05859 h 0.550781 c 0.5625,0 1.019532,-0.105469 1.3593753,-0.304688 0.3515625,-0.199218 0.65625,-0.550781 0.9257813,-1.054687 h 0.1640625 l -0.5625,1.664062 h -4.5937501 l 0.05859,-0.164062 c 0.234375,-0.01172 0.386719,-0.02344 0.46875,-0.05859 0.117187,-0.05859 0.199219,-0.117187 0.246094,-0.199219 0.08203,-0.128906 0.175781,-0.375 0.28125,-0.761718 l 1.03125,-3.609375 c 0.08203,-0.28125 0.128906,-0.503907 0.128906,-0.65625 0,-0.117188 -0.03516,-0.199219 -0.117188,-0.257813 -0.08203,-0.05859 -0.234375,-0.09375 -0.457031,-0.09375 h -0.09375 l 0.05859,-0.164062 h 4.2773436 l -0.3632813,1.441406 h -0.1640625 c 0.023437,-0.140625 0.023437,-0.257813 0.023437,-0.339844 0,-0.164062 -0.035156,-0.28125 -0.1054687,-0.398437 -0.09375,-0.128907 -0.2460938,-0.222657 -0.4335938,-0.304688 -0.140625,-0.04687 -0.46875,-0.08203 -0.9726562,-0.08203 z m 0,0"
         style="fill:#231f20;fill-opacity:1;fill-rule:nonzero;stroke:none" />
    </g>
  </g>
</svg>
