<?xml version="1.0" encoding="UTF-8" standalone="no"?>
<!-- Created with Inkscape (http://www.inkscape.org/) -->

<svg
   version="1.1"
   id="svg1"
   width="794.66669"
   height="505.33334"
   viewBox="0 0 794.66669 505.33334"
   sodipodi:docname="exs6_3_y.eps"
   xmlns:inkscape="http://www.inkscape.org/namespaces/inkscape"
   xmlns:sodipodi="http://sodipodi.sourceforge.net/DTD/sodipodi-0.dtd"
   xmlns="http://www.w3.org/2000/svg"
   xmlns:svg="http://www.w3.org/2000/svg">
  <defs
     id="defs1">
    <clipPath
       clipPathUnits="userSpaceOnUse"
       id="clipPath37">
      <path
         d="m 774.168,421.668 h 4620.83 v 3080 H 774.168 Z"
         transform="translate(0,-2.5000001e-5)"
         id="path37" />
    </clipPath>
    <clipPath
       clipPathUnits="userSpaceOnUse"
       id="clipPath39">
      <path
         d="m 1483.33,617.5 h 122.5 v 2175 h -122.5 z"
         transform="translate(0,-2.5000001e-5)"
         id="path39" />
    </clipPath>
    <clipPath
       clipPathUnits="userSpaceOnUse"
       id="clipPath41">
      <path
         d="m 1483.33,617.5 h 122.5 v 2175 h -122.5 z"
         transform="translate(0,-2.5000001e-5)"
         id="path41" />
    </clipPath>
    <clipPath
       clipPathUnits="userSpaceOnUse"
       id="clipPath43">
      <path
         d="m 774.168,421.668 h 4620.83 v 3080 H 774.168 Z"
         transform="translate(0,-2.5000001e-5)"
         id="path43" />
    </clipPath>
    <clipPath
       clipPathUnits="userSpaceOnUse"
       id="clipPath45">
      <path
         d="m 4563.33,617.5 h 122.5 v 2175 h -122.5 z"
         transform="translate(0,-2.5000001e-5)"
         id="path45" />
    </clipPath>
    <clipPath
       clipPathUnits="userSpaceOnUse"
       id="clipPath47">
      <path
         d="m 4563.33,617.5 h 122.5 v 2175 h -122.5 z"
         transform="translate(0,-2.5000001e-5)"
         id="path47" />
    </clipPath>
    <clipPath
       clipPathUnits="userSpaceOnUse"
       id="clipPath49">
      <path
         d="m 774.168,421.668 h 4620.83 v 3080 H 774.168 Z"
         transform="translate(0,-2.5000001e-5)"
         id="path49" />
    </clipPath>
    <clipPath
       clipPathUnits="userSpaceOnUse"
       id="clipPath51">
      <path
         d="m 1483.33,2670 h 3202.5 v 122.5 h -3202.5 z"
         transform="translate(0,-2.5000001e-5)"
         id="path51" />
    </clipPath>
    <clipPath
       clipPathUnits="userSpaceOnUse"
       id="clipPath53">
      <path
         d="m 1483.33,2670 h 3202.5 v 122.5 h -3202.5 z"
         transform="translate(0,-2.5000001e-5)"
         id="path53" />
    </clipPath>
    <clipPath
       clipPathUnits="userSpaceOnUse"
       id="clipPath55">
      <path
         d="m 774.168,421.668 h 4620.83 v 3080 H 774.168 Z"
         transform="translate(0,-2.5000001e-5)"
         id="path55" />
    </clipPath>
    <clipPath
       clipPathUnits="userSpaceOnUse"
       id="clipPath57">
      <path
         d="m 1483.33,617.5 h 430.836 V 2780.83 H 1483.33 Z"
         transform="translate(0,-2.5000001e-5)"
         id="path57" />
    </clipPath>
    <clipPath
       clipPathUnits="userSpaceOnUse"
       id="clipPath59">
      <path
         d="m 1483.33,617.5 h 430.836 V 2780.83 H 1483.33 Z"
         transform="translate(0,-2.5000001e-5)"
         id="path59" />
    </clipPath>
    <clipPath
       clipPathUnits="userSpaceOnUse"
       id="clipPath61">
      <path
         d="m 774.168,421.668 h 4620.83 v 3080 H 774.168 Z"
         transform="translate(0,-2.5000001e-5)"
         id="path61" />
    </clipPath>
    <clipPath
       clipPathUnits="userSpaceOnUse"
       id="clipPath63">
      <path
         d="m 4563.33,617.5 h 429.168 V 2780 H 4563.33 Z"
         transform="translate(0,-2.5000001e-5)"
         id="path63" />
    </clipPath>
    <clipPath
       clipPathUnits="userSpaceOnUse"
       id="clipPath65">
      <path
         d="m 4563.33,617.5 h 429.168 V 2780 H 4563.33 Z"
         transform="translate(0,-2.5000001e-5)"
         id="path65" />
    </clipPath>
    <clipPath
       clipPathUnits="userSpaceOnUse"
       id="clipPath67">
      <path
         d="m 774.168,421.668 h 4620.83 v 3080 H 774.168 Z"
         transform="translate(0,-2.5000001e-5)"
         id="path67" />
    </clipPath>
    <clipPath
       clipPathUnits="userSpaceOnUse"
       id="clipPath69">
      <path
         d="M 1791.67,2657.5 H 4992.5 v 123.332 H 1791.67 Z"
         transform="translate(0,-2.5000001e-5)"
         id="path69" />
    </clipPath>
    <clipPath
       clipPathUnits="userSpaceOnUse"
       id="clipPath71">
      <path
         d="M 1791.67,2657.5 H 4992.5 v 123.332 H 1791.67 Z"
         transform="translate(0,-2.5000001e-5)"
         id="path71" />
    </clipPath>
    <clipPath
       clipPathUnits="userSpaceOnUse"
       id="clipPath73">
      <path
         d="m 774.168,421.668 h 4620.83 v 3080 H 774.168 Z"
         transform="translate(0,-2.5000001e-5)"
         id="path73" />
    </clipPath>
    <clipPath
       clipPathUnits="userSpaceOnUse"
       id="clipPath75">
      <path
         d="m 774.168,421.668 h 4620.83 v 3080 H 774.168 Z"
         transform="translate(0,-2.5000001e-5)"
         id="path75" />
    </clipPath>
    <clipPath
       clipPathUnits="userSpaceOnUse"
       id="clipPath77">
      <path
         d="m 774.168,421.668 h 4620.83 v 3080 H 774.168 Z"
         transform="translate(0,-2.5000001e-5)"
         id="path77" />
    </clipPath>
  </defs>
  <sodipodi:namedview
     id="namedview1"
     pagecolor="#ffffff"
     bordercolor="#000000"
     borderopacity="0.25"
     inkscape:showpageshadow="2"
     inkscape:pageopacity="0.0"
     inkscape:pagecheckerboard="0"
     inkscape:deskcolor="#d1d1d1">
    <inkscape:page
       x="0"
       y="0"
       inkscape:label="1"
       id="page1"
       width="794.66669"
       height="505.33334"
       margin="0"
       bleed="0" />
  </sodipodi:namedview>
  <g
     id="g1"
     inkscape:groupmode="layer"
     inkscape:label="1">
    <path
       id="path1"
       d="M 0,0 H 5960 V 3790 H 0 Z"
       style="fill:#ffffff;fill-opacity:1;fill-rule:nonzero;stroke:none"
       transform="matrix(0.13333333,0,0,-0.13333333,0,505.33333)" />
    <path
       id="path2"
       d="m 774.168,422.5 h 4620 v 3079.17 h -4620 z"
       style="fill:#ffffff;fill-opacity:1;fill-rule:evenodd;stroke:none"
       transform="matrix(0.13333333,0,0,-0.13333333,0,505.33333)" />
    <path
       id="path3"
       d="M 774.168,422.5 V 3501.67 H 5394.17 V 422.5 H 774.168"
       style="fill:none;stroke:#ffffff;stroke-width:5;stroke-linecap:butt;stroke-linejoin:round;stroke-miterlimit:10;stroke-dasharray:none;stroke-opacity:1"
       transform="matrix(0.13333333,0,0,-0.13333333,0,505.33333)" />
    <path
       id="path4"
       d="M 774.168,422.5 H 5394.17"
       style="fill:none;stroke:#000000;stroke-width:5;stroke-linecap:butt;stroke-linejoin:round;stroke-miterlimit:10;stroke-dasharray:none;stroke-opacity:1"
       transform="matrix(0.13333333,0,0,-0.13333333,0,505.33333)" />
    <path
       id="path5"
       d="M 774.168,422.5 V 3501.67"
       style="fill:none;stroke:#000000;stroke-width:5;stroke-linecap:butt;stroke-linejoin:round;stroke-miterlimit:10;stroke-dasharray:none;stroke-opacity:1"
       transform="matrix(0.13333333,0,0,-0.13333333,0,505.33333)" />
    <path
       id="path6"
       d="m 1030.83,422.5 v 45.832"
       style="fill:none;stroke:#000000;stroke-width:5;stroke-linecap:butt;stroke-linejoin:round;stroke-miterlimit:10;stroke-dasharray:none;stroke-opacity:1"
       transform="matrix(0.13333333,0,0,-0.13333333,0,505.33333)" />
    <path
       id="path7"
       d="M 5.4375,-2.6716828 H 0.3984375 v 0.703125 H 5.4375 Z M 8.4287109,-5.1443391 V 1.921875e-4 H 9.3076172 V -7.2302766 H 8.7333984 c -0.3164062,1.1132813 -0.515625,1.265625 -1.875,1.4414063 v 0.6445312 z m 0,0"
       style="fill:#000000;fill-opacity:1;fill-rule:nonzero;stroke:none"
       aria-label="−1"
       transform="matrix(1.3333333,0,0,1.3333333,126,465.2224)" />
    <path
       id="path8"
       d="m 1544.17,422.5 v 45.832"
       style="fill:none;stroke:#000000;stroke-width:5;stroke-linecap:butt;stroke-linejoin:round;stroke-miterlimit:10;stroke-dasharray:none;stroke-opacity:1"
       transform="matrix(0.13333333,0,0,-0.13333333,0,505.33333)" />
    <path
       id="path9"
       d="m 2.7538984,-7.2302766 c -0.6679687,0 -1.265625,0.3046875 -1.6289062,0.796875 -0.46875001,0.6328125 -0.69140626,1.59375 -0.69140626,2.9296875 0,2.4492188 0.79687496,3.73828129 2.32031246,3.73828129 1.5,0 2.3085938,-1.28906249 2.3085938,-3.66796879 0,-1.40625 -0.2109375,-2.34375 -0.6796875,-3 -0.375,-0.5039062 -0.9609375,-0.796875 -1.6289063,-0.796875 z m 0,0.7851563 c 0.9492188,0 1.4179688,0.9726562 1.4179688,2.9296875 0,2.0507812 -0.46875,3.01171874 -1.4414063,3.01171874 -0.9257812,0 -1.40625,-0.99609374 -1.40625,-2.98828124 0,-1.9804688 0.4804688,-2.953125 1.4296875,-2.953125 z m 0,0"
       style="fill:#000000;fill-opacity:1;fill-rule:nonzero;stroke:none"
       aria-label="0"
       transform="matrix(1.3333333,0,0,1.3333333,202.22267,465.2224)" />
    <path
       id="path10"
       d="m 2057.5,422.5 v 45.832"
       style="fill:none;stroke:#000000;stroke-width:5;stroke-linecap:butt;stroke-linejoin:round;stroke-miterlimit:10;stroke-dasharray:none;stroke-opacity:1"
       transform="matrix(0.13333333,0,0,-0.13333333,0,505.33333)" />
    <path
       id="path11"
       d="M 2.5908203,-5.1443391 V 1.921875e-4 H 3.4697266 V -7.2302766 H 2.8955078 c -0.3164062,1.1132813 -0.515625,1.265625 -1.875,1.4414063 v 0.6445312 z m 0,0"
       style="fill:#000000;fill-opacity:1;fill-rule:nonzero;stroke:none"
       aria-label="1"
       transform="matrix(1.3333333,0,0,1.3333333,270.66667,465.2224)" />
    <path
       id="path12"
       d="m 2570.83,422.5 v 45.832"
       style="fill:none;stroke:#000000;stroke-width:5;stroke-linecap:butt;stroke-linejoin:round;stroke-miterlimit:10;stroke-dasharray:none;stroke-opacity:1"
       transform="matrix(0.13333333,0,0,-0.13333333,0,505.33333)" />
    <path
       id="path13"
       d="M 5.0615313,-0.86699531 H 1.32325 C 1.417,-1.4646516 1.7334063,-1.8513703 2.6123125,-2.3787141 l 0.9960938,-0.5625 c 0.984375,-0.5507812 1.5,-1.2890625 1.5,-2.1796875 0,-0.5976562 -0.2460938,-1.1601562 -0.65625,-1.546875 -0.421875,-0.375 -0.9492188,-0.5625 -1.6171875,-0.5625 -0.9023438,0 -1.5703125,0.328125 -1.9570313,0.9375 -0.24609375,0.3867188 -0.36328125,0.8320313 -0.375,1.5703125 h 0.8789063 c 0.023437,-0.4921875 0.082031,-0.7851562 0.2109375,-1.0195312 0.2226562,-0.4453125 0.6796875,-0.7148438 1.21875,-0.7148438 0.796875,0 1.3945312,0.5742188 1.3945312,1.359375 0,0.5742188 -0.328125,1.078125 -0.9609375,1.4414063 L 2.3310625,-3.1169953 C 0.8545,-2.2732453 0.42090625,-1.5935578 0.338875,-0.01152656 h 4.7226563 z m 0,0"
       style="fill:#000000;fill-opacity:1;fill-rule:nonzero;stroke:none"
       aria-label="2"
       transform="matrix(1.3333333,0,0,1.3333333,339.11067,465.2224)" />
    <path
       id="path14"
       d="m 3084.17,422.5 v 45.832"
       style="fill:none;stroke:#000000;stroke-width:5;stroke-linecap:butt;stroke-linejoin:round;stroke-miterlimit:10;stroke-dasharray:none;stroke-opacity:1"
       transform="matrix(0.13333333,0,0,-0.13333333,0,505.33333)" />
    <path
       id="path15"
       d="m 2.2138594,-3.3279328 h 0.46875 c 0.9609375,0 1.4765625,0.4453125 1.4765625,1.3242187 0,0.9023438 -0.5507813,1.45312504 -1.4648438,1.45312504 -0.9609375,0 -1.4414062,-0.49218754 -1.5,-1.54687504 H 0.31542187 c 0.046875,0.5742188 0.140625,0.9609375 0.31640625,1.27734379 0.36328125,0.703125 1.05468748,1.0546875 2.02734378,1.0546875 1.453125,0 2.4023437,-0.87890625 2.4023437,-2.24999999 0,-0.9257813 -0.3515625,-1.4179688 -1.2070312,-1.7226563 0.6679687,-0.2695312 0.9960937,-0.7734375 0.9960937,-1.5 0,-1.2421875 -0.8085937,-1.9921875 -2.1679687,-1.9921875 -1.4296875,0 -2.17968753,0.8085938 -2.21484378,2.3320313 H 1.3466719 c 0.011719,-0.4453125 0.046875,-0.6914063 0.1640625,-0.9140625 0.1992187,-0.4101563 0.6328125,-0.6445313 1.1835937,-0.6445313 0.7851563,0 1.2539063,0.46875 1.2539063,1.2539063 0,0.5039062 -0.1757813,0.8203125 -0.5742188,0.984375 -0.234375,0.1054687 -0.5507812,0.140625 -1.1601562,0.1523437 z m 0,0"
       style="fill:#000000;fill-opacity:1;fill-rule:nonzero;stroke:none"
       aria-label="3"
       transform="matrix(1.3333333,0,0,1.3333333,407.556,465.2224)" />
    <path
       id="path16"
       d="m 3597.5,422.5 v 45.832"
       style="fill:none;stroke:#000000;stroke-width:5;stroke-linecap:butt;stroke-linejoin:round;stroke-miterlimit:10;stroke-dasharray:none;stroke-opacity:1"
       transform="matrix(0.13333333,0,0,-0.13333333,0,505.33333)" />
    <path
       id="path17"
       d="M 3.2695313,-1.7459016 V 1.921875e-4 H 4.1484375 V -1.7459016 H 5.203125 v -0.796875 H 4.1484375 v -4.6875 H 3.5039063 L 0.28125,-2.6834016 v 0.9375 z m 0,-0.796875 H 1.0546875 l 2.2148438,-3.1875 z m 0,0"
       style="fill:#000000;fill-opacity:1;fill-rule:nonzero;stroke:none"
       aria-label="4"
       transform="matrix(1.3333333,0,0,1.3333333,476,465.2224)" />
    <path
       id="path18"
       d="m 4110.83,422.5 v 45.832"
       style="fill:none;stroke:#000000;stroke-width:5;stroke-linecap:butt;stroke-linejoin:round;stroke-miterlimit:10;stroke-dasharray:none;stroke-opacity:1"
       transform="matrix(0.13333333,0,0,-0.13333333,0,505.33333)" />
    <path
       id="path19"
       d="m 4.7587969,-7.0896516 h -3.65625 L 0.57520313,-3.2341828 H 1.3837969 c 0.4101562,-0.4804688 0.75,-0.65625 1.3007812,-0.65625 0.9492188,0 1.546875,0.65625 1.546875,1.6992187 0,1.0195313 -0.5976562,1.64062504 -1.546875,1.64062504 -0.7734375,0 -1.2421875,-0.38671875 -1.453125,-1.18359374 H 0.35254688 c 0.1171875,0.5742187 0.22265625,0.85546874 0.43359375,1.11328124 0.39843747,0.5390625 1.11328127,0.85546875 1.91015627,0.85546875 1.4296875,0 2.4375,-1.04296875 2.4375,-2.54296879 0,-1.3945312 -0.9375,-2.3554687 -2.296875,-2.3554687 -0.4921875,0 -0.9023438,0.1289062 -1.3007813,0.421875 l 0.2695313,-1.9804688 h 2.953125 z m 0,0"
       style="fill:#000000;fill-opacity:1;fill-rule:nonzero;stroke:none"
       aria-label="5"
       transform="matrix(1.3333333,0,0,1.3333333,544.444,465.2224)" />
    <path
       id="path20"
       d="m 4624.17,422.5 v 45.832"
       style="fill:none;stroke:#000000;stroke-width:5;stroke-linecap:butt;stroke-linejoin:round;stroke-miterlimit:10;stroke-dasharray:none;stroke-opacity:1"
       transform="matrix(0.13333333,0,0,-0.13333333,0,505.33333)" />
    <path
       id="path21"
       d="m 4.9814375,-5.3435578 c -0.1757812,-1.1835938 -0.9375,-1.8867188 -2.015625,-1.8867188 -0.7734375,0 -1.4765625,0.3867188 -1.8984375,1.03125 -0.4453125,0.7148438 -0.6328125,1.59375 -0.6328125,2.90625 0,1.21875 0.1640625,1.9804688 0.5976563,2.62500004 0.375,0.5859375 0.9960937,0.90234375 1.78125,0.90234375 1.3476562,0 2.3203125,-1.01953125 2.3203125,-2.42578129 0,-1.3242187 -0.9023438,-2.2617187 -2.1796875,-2.2617187 -0.6914063,0 -1.2421875,0.2578125 -1.6289063,0.7851562 0.011719,-1.7929687 0.5742188,-2.7773437 1.5820313,-2.7773437 0.6210937,0 1.0546875,0.3984375 1.1953125,1.1015625 z M 2.848625,-3.6794953 c 0.8554688,0 1.3828125,0.5976562 1.3828125,1.5585937 0,0.9140625 -0.5976562,1.57031254 -1.40625,1.57031254 -0.8203125,0 -1.4414062,-0.69140624 -1.4414062,-1.60546874 0,-0.9023438 0.5976562,-1.5234375 1.4648437,-1.5234375 z m 0,0"
       style="fill:#000000;fill-opacity:1;fill-rule:nonzero;stroke:none"
       aria-label="6"
       transform="matrix(1.3333333,0,0,1.3333333,612.88933,465.2224)" />
    <path
       id="path22"
       d="m 5137.5,422.5 v 45.832"
       style="fill:none;stroke:#000000;stroke-width:5;stroke-linecap:butt;stroke-linejoin:round;stroke-miterlimit:10;stroke-dasharray:none;stroke-opacity:1"
       transform="matrix(0.13333333,0,0,-0.13333333,0,505.33333)" />
    <path
       id="path23"
       d="M 5.2021484,-7.0896516 H 0.45605469 v 0.8671875 H 4.2880859 c -1.6875,2.4140625 -2.3789062,3.890625 -2.90625,6.2226562875 h 0.9375 C 2.7060547,-2.2732453 3.5966797,-4.2185578 5.2021484,-6.3513703 Z m 0,0"
       style="fill:#000000;fill-opacity:1;fill-rule:nonzero;stroke:none"
       aria-label="7"
       transform="matrix(1.3333333,0,0,1.3333333,681.33333,465.2224)" />
    <path
       id="path24"
       d="m 774.168,679.168 h 46.664"
       style="fill:none;stroke:#000000;stroke-width:5;stroke-linecap:butt;stroke-linejoin:round;stroke-miterlimit:10;stroke-dasharray:none;stroke-opacity:1"
       transform="matrix(0.13333333,0,0,-0.13333333,0,505.33333)" />
    <path
       id="path25"
       d="m 2.7527375,-7.2294922 c -0.6679688,0 -1.265625,0.3046875 -1.6289063,0.796875 -0.46874995,0.6328125 -0.6914062,1.59375 -0.6914062,2.9296875 0,2.4492188 0.796875,3.73828126 2.3203125,3.73828126 1.5,0 2.3085937,-1.28906246 2.3085937,-3.66796876 0,-1.40625 -0.2109375,-2.34375 -0.6796875,-3 -0.375,-0.5039062 -0.9609375,-0.796875 -1.6289062,-0.796875 z m 0,0.7851563 c 0.9492187,0 1.4179687,0.9726562 1.4179687,2.9296875 0,2.0507812 -0.46875,3.01171871 -1.4414062,3.01171871 -0.9257813,0 -1.40625,-0.99609371 -1.40625,-2.98828121 0,-1.9804688 0.4804687,-2.953125 1.4296875,-2.953125 z m 0,0"
       style="fill:#000000;fill-opacity:1;fill-rule:nonzero;stroke:none"
       aria-label="0"
       transform="matrix(1.3333333,0,0,1.3333333,92.110933,419.66667)" />
    <path
       id="path26"
       d="m 774.168,1192.5 h 46.664"
       style="fill:none;stroke:#000000;stroke-width:5;stroke-linecap:butt;stroke-linejoin:round;stroke-miterlimit:10;stroke-dasharray:none;stroke-opacity:1"
       transform="matrix(0.13333333,0,0,-0.13333333,0,505.33333)" />
    <path
       id="path27"
       d="M 2.588675,-5.1445391 V -7.8125e-6 H 3.4675812 V -7.2304766 H 2.8933625 c -0.3164063,1.1132813 -0.515625,1.265625 -1.875,1.4414063 v 0.6445312 z m 0,0"
       style="fill:#000000;fill-opacity:1;fill-rule:nonzero;stroke:none"
       aria-label="1"
       transform="matrix(1.3333333,0,0,1.3333333,92.110933,351.22267)" />
    <path
       id="path28"
       d="m 774.168,1705.83 h 46.664"
       style="fill:none;stroke:#000000;stroke-width:5;stroke-linecap:butt;stroke-linejoin:round;stroke-miterlimit:10;stroke-dasharray:none;stroke-opacity:1"
       transform="matrix(0.13333333,0,0,-0.13333333,0,505.33333)" />
    <path
       id="path29"
       d="M 5.0613312,-0.86717969 H 1.32305 C 1.4168,-1.4648359 1.7332062,-1.8515547 2.6121125,-2.3788984 l 0.9960937,-0.5625 c 0.984375,-0.5507813 1.5,-1.2890625 1.5,-2.1796875 0,-0.5976563 -0.2460937,-1.1601563 -0.65625,-1.546875 -0.421875,-0.375 -0.9492187,-0.5625 -1.6171875,-0.5625 -0.9023437,0 -1.5703125,0.328125 -1.9570312,0.9375 -0.24609375,0.3867187 -0.36328125,0.8320312 -0.375,1.5703125 h 0.8789062 c 0.023437,-0.4921875 0.082031,-0.7851563 0.2109375,-1.0195313 0.2226563,-0.4453125 0.6796875,-0.7148437 1.21875,-0.7148437 0.796875,0 1.3945313,0.5742187 1.3945313,1.359375 0,0.5742187 -0.328125,1.078125 -0.9609375,1.4414062 L 2.3308625,-3.1171797 C 0.8543,-2.2734297 0.42070625,-1.5937422 0.338675,-0.01171094 h 4.7226562 z m 0,0"
       style="fill:#000000;fill-opacity:1;fill-rule:nonzero;stroke:none"
       aria-label="2"
       transform="matrix(1.3333333,0,0,1.3333333,92.110933,282.77733)" />
    <path
       id="path30"
       d="m 774.168,2218.33 h 46.664"
       style="fill:none;stroke:#000000;stroke-width:5;stroke-linecap:butt;stroke-linejoin:round;stroke-miterlimit:10;stroke-dasharray:none;stroke-opacity:1"
       transform="matrix(0.13333333,0,0,-0.13333333,0,505.33333)" />
    <path
       id="path31"
       d="m 2.213675,-3.3271406 h 0.46875 c 0.9609375,0 1.4765625,0.4453125 1.4765625,1.3242187 0,0.9023438 -0.5507813,1.45312502 -1.4648438,1.45312502 -0.9609375,0 -1.4414062,-0.49218752 -1.5,-1.54687502 H 0.3152375 c 0.046875,0.5742188 0.140625,0.9609375 0.31640625,1.27734377 0.36328125,0.703125 1.05468745,1.0546875 2.02734375,1.0546875 1.453125,0 2.4023437,-0.87890625 2.4023437,-2.24999997 0,-0.9257813 -0.3515625,-1.4179688 -1.2070312,-1.7226563 0.6679687,-0.2695312 0.9960937,-0.7734375 0.9960937,-1.5 0,-1.2421875 -0.8085937,-1.9921875 -2.1679687,-1.9921875 -1.4296875,0 -2.1796875,0.8085938 -2.21484375,2.3320313 H 1.3464875 c 0.011719,-0.4453125 0.046875,-0.6914063 0.1640625,-0.9140625 0.1992187,-0.4101563 0.6328125,-0.6445313 1.1835937,-0.6445313 0.7851563,0 1.2539063,0.46875 1.2539063,1.2539063 0,0.5039062 -0.1757813,0.8203125 -0.5742188,0.984375 -0.234375,0.1054687 -0.5507812,0.140625 -1.1601562,0.1523437 z m 0,0"
       style="fill:#000000;fill-opacity:1;fill-rule:nonzero;stroke:none"
       aria-label="3"
       transform="matrix(1.3333333,0,0,1.3333333,92.110933,214.444)" />
    <path
       id="path32"
       d="m 774.168,2731.67 h 46.664"
       style="fill:none;stroke:#000000;stroke-width:5;stroke-linecap:butt;stroke-linejoin:round;stroke-miterlimit:10;stroke-dasharray:none;stroke-opacity:1"
       transform="matrix(0.13333333,0,0,-0.13333333,0,505.33333)" />
    <path
       id="path33"
       d="M 3.2683625,-1.7460937 V 0 H 4.1472687 V -1.7460937 H 5.2019562 V -2.5429688 H 4.1472687 V -7.2304687 H 3.5027375 l -3.22265625,4.5468749 v 0.9375001 z m 0,-0.7968751 H 1.0535187 l 2.2148438,-3.1874999 z m 0,0"
       style="fill:#000000;fill-opacity:1;fill-rule:nonzero;stroke:none"
       aria-label="4"
       transform="matrix(1.3333333,0,0,1.3333333,92.110933,146)" />
    <path
       id="path34"
       d="m 774.168,3245 h 46.664"
       style="fill:none;stroke:#000000;stroke-width:5;stroke-linecap:butt;stroke-linejoin:round;stroke-miterlimit:10;stroke-dasharray:none;stroke-opacity:1"
       transform="matrix(0.13333333,0,0,-0.13333333,0,505.33333)" />
    <path
       id="path35"
       d="m 4.7566437,-7.0908281 h -3.65625 L 0.57305,-3.2353594 h 0.8085937 c 0.4101563,-0.4804687 0.75,-0.65625 1.3007813,-0.65625 0.9492187,0 1.546875,0.65625 1.546875,1.6992188 0,1.0195312 -0.5976563,1.64062497 -1.546875,1.64062497 -0.7734375,0 -1.2421875,-0.38671875 -1.453125,-1.18359377 H 0.35039375 c 0.1171875,0.5742188 0.22265625,0.85546877 0.43359375,1.11328127 0.3984375,0.5390625 1.1132812,0.85546875 1.9101562,0.85546875 1.4296875,0 2.4375,-1.04296875 2.4375,-2.54296872 0,-1.3945313 -0.9375,-2.3554688 -2.296875,-2.3554688 -0.4921875,0 -0.9023437,0.1289063 -1.3007812,0.421875 l 0.2695312,-1.9804687 h 2.953125 z m 0,0"
       style="fill:#000000;fill-opacity:1;fill-rule:nonzero;stroke:none"
       aria-label="5"
       transform="matrix(1.3333333,0,0,1.3333333,92.110933,77.556)" />
    <path
       id="path36"
       d="M 1544.17,2731.67 V 679.168"
       style="fill:none;stroke:#000000;stroke-width:5;stroke-linecap:butt;stroke-linejoin:round;stroke-miterlimit:10;stroke-dasharray:60;stroke-dashoffset:0;stroke-opacity:1"
       transform="matrix(0.13333333,0,0,-0.13333333,0,505.33333)"
       clip-path="url(#clipPath37)" />
    <path
       id="path38"
       d="m 1554.17,2731.67 c 0,-5.52 -4.48,-10 -10,-10 -5.52,0 -10,4.48 -10,10 0,5.52 4.48,10 10,10 5.52,0 10,-4.48 10,-10"
       style="fill:#000000;fill-opacity:1;fill-rule:nonzero;stroke:none"
       transform="matrix(0.13333333,0,0,-0.13333333,0,505.33333)"
       clip-path="url(#clipPath39)" />
    <path
       id="path40"
       d="m 1554.17,679.168 c 0,-5.52 -4.48,-10 -10,-10 -5.52,0 -10,4.48 -10,10 0,5.52 4.48,10 10,10 5.52,0 10,-4.48 10,-10"
       style="fill:#000000;fill-opacity:1;fill-rule:nonzero;stroke:none"
       transform="matrix(0.13333333,0,0,-0.13333333,0,505.33333)"
       clip-path="url(#clipPath41)" />
    <path
       id="path42"
       d="M 4624.17,2731.67 V 679.168"
       style="fill:none;stroke:#000000;stroke-width:5;stroke-linecap:butt;stroke-linejoin:round;stroke-miterlimit:10;stroke-dasharray:60;stroke-dashoffset:0;stroke-opacity:1"
       transform="matrix(0.13333333,0,0,-0.13333333,0,505.33333)"
       clip-path="url(#clipPath43)" />
    <path
       id="path44"
       d="m 4634.17,2731.67 c 0,-5.52 -4.48,-10 -10,-10 -5.52,0 -10,4.48 -10,10 0,5.52 4.48,10 10,10 5.52,0 10,-4.48 10,-10"
       style="fill:#000000;fill-opacity:1;fill-rule:nonzero;stroke:none"
       transform="matrix(0.13333333,0,0,-0.13333333,0,505.33333)"
       clip-path="url(#clipPath45)" />
    <path
       id="path46"
       d="m 4634.17,679.168 c 0,-5.52 -4.48,-10 -10,-10 -5.52,0 -10,4.48 -10,10 0,5.52 4.48,10 10,10 5.52,0 10,-4.48 10,-10"
       style="fill:#000000;fill-opacity:1;fill-rule:nonzero;stroke:none"
       transform="matrix(0.13333333,0,0,-0.13333333,0,505.33333)"
       clip-path="url(#clipPath47)" />
    <path
       id="path48"
       d="m 1544.17,2731.67 h 3080"
       style="fill:none;stroke:#000000;stroke-width:5;stroke-linecap:butt;stroke-linejoin:round;stroke-miterlimit:10;stroke-dasharray:60;stroke-dashoffset:0;stroke-opacity:1"
       transform="matrix(0.13333333,0,0,-0.13333333,0,505.33333)"
       clip-path="url(#clipPath49)" />
    <path
       id="path50"
       d="m 1554.17,2731.67 c 0,-5.52 -4.48,-10 -10,-10 -5.52,0 -10,4.48 -10,10 0,5.52 4.48,10 10,10 5.52,0 10,-4.48 10,-10"
       style="fill:#000000;fill-opacity:1;fill-rule:nonzero;stroke:none"
       transform="matrix(0.13333333,0,0,-0.13333333,0,505.33333)"
       clip-path="url(#clipPath51)" />
    <path
       id="path52"
       d="m 4634.17,2731.67 c 0,-5.52 -4.48,-10 -10,-10 -5.52,0 -10,4.48 -10,10 0,5.52 4.48,10 10,10 5.52,0 10,-4.48 10,-10"
       style="fill:#000000;fill-opacity:1;fill-rule:nonzero;stroke:none"
       transform="matrix(0.13333333,0,0,-0.13333333,0,505.33333)"
       clip-path="url(#clipPath53)" />
    <path
       id="path54"
       d="m 1852.5,2720 -41.67,-101.67 -38.33,-102.5 -34.17,-101.66 -30,-102.5 -27.5,-101.67 -24.16,-102.5 -20.84,-101.67 -18.33,-102.5 -15.83,-101.66 -13.34,-101.67 -10.83,-102.5 -9.17,-101.67 -6.66,-102.5 -5.84,-101.66 -4.16,-102.5 -3.34,-101.67 L 1546.67,985 1545,883.332 v -102.5 l -0.83,-101.664"
       style="fill:none;stroke:#0000ff;stroke-width:5;stroke-linecap:butt;stroke-linejoin:round;stroke-miterlimit:10;stroke-dasharray:none;stroke-opacity:1"
       transform="matrix(0.13333333,0,0,-0.13333333,0,505.33333)"
       clip-path="url(#clipPath55)" />
    <path
       id="path56"
       d="m 1882.5,2720 c 0,-16.57 -13.43,-30 -30,-30 -16.57,0 -30,13.43 -30,30 0,16.57 13.43,30 30,30 16.57,0 30,-13.43 30,-30"
       style="fill:none;stroke:#0000ff;stroke-width:5;stroke-linecap:butt;stroke-linejoin:round;stroke-miterlimit:10;stroke-dasharray:none;stroke-opacity:1"
       transform="matrix(0.13333333,0,0,-0.13333333,0,505.33333)"
       clip-path="url(#clipPath57)" />
    <path
       id="path58"
       d="m 1574.17,679.168 c 0,-16.566 -13.44,-30 -30,-30 -16.57,0 -30,13.434 -30,30 0,16.566 13.43,30 30,30 16.56,0 30,-13.434 30,-30"
       style="fill:none;stroke:#0000ff;stroke-width:5;stroke-linecap:butt;stroke-linejoin:round;stroke-miterlimit:10;stroke-dasharray:none;stroke-opacity:1"
       transform="matrix(0.13333333,0,0,-0.13333333,0,505.33333)"
       clip-path="url(#clipPath59)" />
    <path
       id="path60"
       d="m 4930.83,2719.17 34.17,-101.67 26.67,-102.5 19.16,-101.67 12.5,-102.5 6.67,-101.66 V 2107.5 l -5.83,-102.5 -10.84,-101.67 -15,-102.5 -20,-101.66 -24.16,-102.5 -27.5,-101.67 -30.84,-101.67 -34.16,-102.5 -35.84,-101.66 -37.5,-102.5 -40,-101.67 -40.83,-101.668 -41.67,-102.5 -41.66,-101.664"
       style="fill:none;stroke:#0000ff;stroke-width:5;stroke-linecap:butt;stroke-linejoin:round;stroke-miterlimit:10;stroke-dasharray:none;stroke-opacity:1"
       transform="matrix(0.13333333,0,0,-0.13333333,0,505.33333)"
       clip-path="url(#clipPath61)" />
    <path
       id="path62"
       d="m 4960.83,2719.17 c 0,-16.57 -13.43,-30 -30,-30 -16.56,0 -30,13.43 -30,30 0,16.56 13.44,30 30,30 16.57,0 30,-13.44 30,-30"
       style="fill:none;stroke:#0000ff;stroke-width:5;stroke-linecap:butt;stroke-linejoin:round;stroke-miterlimit:10;stroke-dasharray:none;stroke-opacity:1"
       transform="matrix(0.13333333,0,0,-0.13333333,0,505.33333)"
       clip-path="url(#clipPath63)" />
    <path
       id="path64"
       d="m 4654.17,679.168 c 0,-16.566 -13.44,-30 -30,-30 -16.57,0 -30,13.434 -30,30 0,16.566 13.43,30 30,30 16.56,0 30,-13.434 30,-30"
       style="fill:none;stroke:#0000ff;stroke-width:5;stroke-linecap:butt;stroke-linejoin:round;stroke-miterlimit:10;stroke-dasharray:none;stroke-opacity:1"
       transform="matrix(0.13333333,0,0,-0.13333333,0,505.33333)"
       clip-path="url(#clipPath65)" />
    <path
       id="path66"
       d="m 1852.5,2720 154.17,-66.67 153.33,-66.66 154.17,-64.17 154.16,-60 153.34,-53.33 154.16,-45 154.17,-35.84 154.17,-25.83 153.33,-15 154.17,-3.33 154.16,7.5 153.34,19.16 154.16,29.17 154.17,38.33 154.17,46.67 153.33,53.33 154.17,58.34 154.16,61.66 154.17,61.67 153.33,59.17"
       style="fill:none;stroke:#0000ff;stroke-width:5;stroke-linecap:butt;stroke-linejoin:round;stroke-miterlimit:10;stroke-dasharray:none;stroke-opacity:1"
       transform="matrix(0.13333333,0,0,-0.13333333,0,505.33333)"
       clip-path="url(#clipPath67)" />
    <path
       id="path68"
       d="m 1882.5,2720 c 0,-16.57 -13.43,-30 -30,-30 -16.57,0 -30,13.43 -30,30 0,16.57 13.43,30 30,30 16.57,0 30,-13.43 30,-30"
       style="fill:none;stroke:#0000ff;stroke-width:5;stroke-linecap:butt;stroke-linejoin:round;stroke-miterlimit:10;stroke-dasharray:none;stroke-opacity:1"
       transform="matrix(0.13333333,0,0,-0.13333333,0,505.33333)"
       clip-path="url(#clipPath69)" />
    <path
       id="path70"
       d="m 4960.83,2719.17 c 0,-16.57 -13.43,-30 -30,-30 -16.56,0 -30,13.43 -30,30 0,16.56 13.44,30 30,30 16.57,0 30,-13.44 30,-30"
       style="fill:none;stroke:#0000ff;stroke-width:5;stroke-linecap:butt;stroke-linejoin:round;stroke-miterlimit:10;stroke-dasharray:none;stroke-opacity:1"
       transform="matrix(0.13333333,0,0,-0.13333333,0,505.33333)"
       clip-path="url(#clipPath71)" />
    <path
       id="path72"
       d="M 1800.83,679.168 H 2210"
       style="fill:none;stroke:#0000ff;stroke-width:5;stroke-linecap:butt;stroke-linejoin:round;stroke-miterlimit:10;stroke-dasharray:none;stroke-opacity:1"
       transform="matrix(0.13333333,0,0,-0.13333333,0,505.33333)"
       clip-path="url(#clipPath73)" />
    <path
       id="path74"
       d="m 1800.83,658.332 v 40.836"
       style="fill:none;stroke:#0000ff;stroke-width:5;stroke-linecap:butt;stroke-linejoin:round;stroke-miterlimit:10;stroke-dasharray:none;stroke-opacity:1"
       transform="matrix(0.13333333,0,0,-0.13333333,0,505.33333)"
       clip-path="url(#clipPath75)" />
    <path
       id="path76"
       d="m 2210,658.332 v 40.836"
       style="fill:none;stroke:#0000ff;stroke-width:5;stroke-linecap:butt;stroke-linejoin:round;stroke-miterlimit:10;stroke-dasharray:none;stroke-opacity:1"
       transform="matrix(0.13333333,0,0,-0.13333333,0,505.33333)"
       clip-path="url(#clipPath77)" />
    <path
       id="path78"
       d="m 2.7529375,-7.2296844 c -0.6679687,0 -1.265625,0.3046875 -1.6289062,0.796875 -0.46875005,0.6328125 -0.6914063,1.59375 -0.6914063,2.9296875 0,2.4492188 0.796875,3.73828128 2.3203125,3.73828128 1.5,0 2.3085938,-1.28906248 2.3085938,-3.66796878 0,-1.40625 -0.2109375,-2.34375 -0.6796875,-3 -0.375,-0.5039062 -0.9609375,-0.796875 -1.6289063,-0.796875 z m 0,0.7851563 c 0.9492188,0 1.4179688,0.9726562 1.4179688,2.9296875 0,2.0507812 -0.46875,3.01171873 -1.4414063,3.01171873 -0.9257812,0 -1.40625,-0.99609373 -1.40625,-2.98828123 0,-1.9804688 0.4804688,-2.953125 1.4296875,-2.953125 z m 4.7167969,5.4023437 H 6.4267656 V 7.84375e-4 h 1.0429688 z m 3.6240236,-6.1875 c -0.667969,0 -1.2656252,0.3046875 -1.6289064,0.796875 -0.46875,0.6328125 -0.6914063,1.59375 -0.6914063,2.9296875 0,2.4492188 0.796875,3.73828128 2.3203127,3.73828128 1.5,0 2.308594,-1.28906248 2.308594,-3.66796878 0,-1.40625 -0.210938,-2.34375 -0.679688,-3 -0.375,-0.5039062 -0.960937,-0.796875 -1.628906,-0.796875 z m 0,0.7851563 c 0.949219,0 1.417969,0.9726562 1.417969,2.9296875 0,2.0507812 -0.46875,3.01171873 -1.441407,3.01171873 -0.925781,0 -1.4062497,-0.99609373 -1.4062497,-2.98828123 0,-1.9804688 0.4804687,-2.953125 1.4296877,-2.953125 z m 5.396484,1.3007812 V 7.84375e-4 h 0.878906 V -7.2296844 H 16.79493 c -0.316407,1.1132813 -0.515625,1.265625 -1.875,1.4414063 v 0.6445312 z M 51.391609,-293.66523 h 2.8125 c 1.839844,0 2.964844,-1.38281 2.964844,-3.64453 0,-2.26172 -1.125,-3.64453 -2.964844,-3.64453 h -2.8125 z m 0.925782,-0.82031 v -5.64844 h 1.722656 c 1.441406,0 2.203125,0.97266 2.203125,2.83594 0,1.83984 -0.761719,2.8125 -2.203125,2.8125 z m 6.902343,-4.41797 h -0.832031 v 5.23828 h 0.832031 z m 0,-2.05078 h -0.84375 v 1.05468 h 0.84375 z m 5.103516,3.51562 c -0.01172,-1.03125 -0.691406,-1.61719 -1.898437,-1.61719 -1.230469,0 -2.015625,0.63282 -2.015625,1.60547 0,0.82032 0.421875,1.20703 1.664062,1.51172 l 0.773438,0.1875 c 0.585937,0.14063 0.808593,0.35156 0.808593,0.71485 0,0.5039 -0.480468,0.83203 -1.21875,0.83203 -0.445312,0 -0.832031,-0.12891 -1.03125,-0.35157 -0.140625,-0.15234 -0.199218,-0.30468 -0.246093,-0.66796 h -0.878907 c 0.03516,1.20703 0.714844,1.79296 2.085938,1.79296 1.324219,0 2.167969,-0.65625 2.167969,-1.66406 0,-0.78515 -0.445313,-1.20703 -1.488282,-1.46484 l -0.796875,-0.1875 c -0.679687,-0.15235 -0.972656,-0.375 -0.972656,-0.75 0,-0.48047 0.433594,-0.78516 1.113281,-0.78516 0.667969,0 1.03125,0.29297 1.054688,0.84375 z m 1.157227,5.95313 h 0.84375 v -2.73047 c 0.433593,0.53906 0.925781,0.78515 1.605468,0.78515 1.359375,0 2.238282,-1.08984 2.238282,-2.76562 0,-1.75781 -0.855469,-2.85938 -2.25,-2.85938 -0.703125,0 -1.277344,0.32813 -1.664063,0.9375 v -0.78515 h -0.773437 z m 2.296875,-6.78516 c 0.925781,0 1.523437,0.80859 1.523437,2.05078 0,1.19531 -0.609375,2.00391 -1.523437,2.00391 -0.890625,0 -1.453125,-0.79688 -1.453125,-2.02735 0,-1.23046 0.5625,-2.02734 1.453125,-2.02734 z m 4.245117,-2.68359 h -0.84375 v 7.28906 h 0.84375 z m 6.041015,6.79687 c -0.08203,0.0234 -0.128906,0.0234 -0.175781,0.0234 -0.292969,0 -0.445312,-0.15234 -0.445312,-0.41016 v -3.08203 c 0,-0.92578 -0.679688,-1.42969 -1.96875,-1.42969 -0.773438,0 -1.382813,0.22266 -1.746094,0.60938 -0.234375,0.26953 -0.339844,0.57422 -0.363281,1.08984 h 0.84375 c 0.07031,-0.63281 0.445312,-0.92578 1.230468,-0.92578 0.761719,0 1.171875,0.28125 1.171875,0.77344 v 0.22266 c -0.01172,0.36328 -0.1875,0.49218 -0.867187,0.58593 -1.183594,0.14063 -1.359375,0.1875 -1.6875,0.31641 -0.609375,0.25781 -0.914063,0.71484 -0.914063,1.39453 0,0.94922 0.65625,1.55859 1.722657,1.55859 0.65625,0 1.183593,-0.23437 1.769531,-0.77343 0.05859,0.53906 0.328125,0.77343 0.867187,0.77343 0.175782,0 0.28125,-0.0234 0.5625,-0.0937 z m -1.453125,-1.16015 c 0,0.28125 -0.08203,0.45703 -0.328125,0.67968 -0.339843,0.31641 -0.75,0.46875 -1.242187,0.46875 -0.65625,0 -1.03125,-0.30468 -1.03125,-0.83203 0,-0.55078 0.363281,-0.83203 1.265625,-0.96094 0.878906,-0.11718 1.054687,-0.16406 1.335937,-0.29296 z m 6.38086,-1.82813 c -0.04687,-0.50391 -0.152344,-0.83203 -0.351563,-1.125 -0.363281,-0.49219 -0.996093,-0.78516 -1.722656,-0.78516 -1.417969,0 -2.332031,1.125 -2.332031,2.85938 0,1.6875 0.902344,2.76562 2.320312,2.76562 1.253907,0 2.039063,-0.75 2.144532,-2.03906 h -0.84375 c -0.140625,0.84375 -0.5625,1.26563 -1.277344,1.26563 -0.914063,0 -1.464844,-0.75 -1.464844,-1.99219 0,-1.3125 0.539063,-2.08594 1.441406,-2.08594 0.703125,0 1.148438,0.41016 1.242188,1.13672 z m 5.422851,1.13672 c 0,-0.79688 -0.07031,-1.27734 -0.210937,-1.66406 -0.339844,-0.85547 -1.148438,-1.38282 -2.121094,-1.38282 -1.464844,0 -2.402344,1.11329 -2.402344,2.83594 0,1.73438 0.902344,2.78906 2.378907,2.78906 1.195312,0 2.027343,-0.67968 2.238281,-1.82812 h -0.832031 c -0.234375,0.69141 -0.703125,1.05469 -1.371094,1.05469 -0.539063,0 -0.984375,-0.2461 -1.265625,-0.67969 -0.199219,-0.30469 -0.269531,-0.59766 -0.28125,-1.125 z m -3.84375,-0.67969 c 0.07031,-0.96094 0.65625,-1.59375 1.5,-1.59375 0.84375,0 1.441407,0.65625 1.441407,1.59375 z m 4.97168,-2.21484 v 5.23828 h 0.832031 v -3.29297 c 0,-0.75 0.550782,-1.35937 1.230469,-1.35937 0.621094,0 0.972656,0.375 0.972656,1.04296 v 3.60938 h 0.84375 v -3.29297 c 0,-0.75 0.550782,-1.35937 1.230469,-1.35937 0.609375,0 0.960938,0.38671 0.960938,1.04296 v 3.60938 h 0.84375 v -3.92578 c 0,-0.9375 -0.539063,-1.46485 -1.523438,-1.46485 -0.691406,0 -1.113281,0.21094 -1.605469,0.79688 -0.304687,-0.55078 -0.726562,-0.79688 -1.40625,-0.79688 -0.703125,0 -1.171875,0.25782 -1.617187,0.89063 v -0.73828 z m 12.76172,2.89453 c 0,-0.79688 -0.0703,-1.27734 -0.21094,-1.66406 -0.33984,-0.85547 -1.14844,-1.38282 -2.121092,-1.38282 -1.464844,0 -2.402344,1.11329 -2.402344,2.83594 0,1.73438 0.902344,2.78906 2.378906,2.78906 1.19531,0 2.02734,-0.67968 2.23828,-1.82812 h -0.83203 c -0.23437,0.69141 -0.70312,1.05469 -1.371094,1.05469 -0.539062,0 -0.984375,-0.2461 -1.265625,-0.67969 -0.199218,-0.30469 -0.269531,-0.59766 -0.28125,-1.125 z m -3.843751,-0.67969 c 0.07031,-0.96094 0.65625,-1.59375 1.5,-1.59375 0.843751,0 1.441411,0.65625 1.441411,1.59375 z m 4.974611,-2.21484 v 5.23828 h 0.83203 v -2.89453 c 0,-1.06641 0.5625,-1.75781 1.41797,-1.75781 0.66797,0 1.08984,0.39843 1.08984,1.01953 v 3.63281 h 0.82031 v -3.96094 c 0,-0.86719 -0.64453,-1.42969 -1.65234,-1.42969 -0.78516,0 -1.27734,0.30469 -1.74609,1.03125 v -0.8789 z m 7.39746,0 h -0.86719 v -1.44141 h -0.82031 v 1.44141 h -0.71484 v 0.67969 h 0.71484 v 3.96093 c 0,0.53907 0.35156,0.83203 1.00781,0.83203 0.21094,0 0.39844,-0.0234 0.67969,-0.0703 v -0.70312 c -0.12891,0.0234 -0.23438,0.0351 -0.39844,0.0351 -0.36328,0 -0.46875,-0.0937 -0.46875,-0.46875 v -3.58593 h 0.86719 z m 4.62012,1.46484 c -0.0117,-1.03125 -0.69141,-1.61719 -1.89844,-1.61719 -1.23047,0 -2.01563,0.63282 -2.01563,1.60547 0,0.82032 0.42188,1.20703 1.66407,1.51172 l 0.77343,0.1875 c 0.58594,0.14063 0.8086,0.35156 0.8086,0.71485 0,0.5039 -0.48047,0.83203 -1.21875,0.83203 -0.44531,0 -0.83203,-0.12891 -1.03125,-0.35157 -0.14063,-0.15234 -0.19922,-0.30468 -0.2461,-0.66796 h -0.8789 c 0.0352,1.20703 0.71484,1.79296 2.08594,1.79296 1.32421,0 2.16796,-0.65625 2.16796,-1.66406 0,-0.78515 -0.44531,-1.20703 -1.48828,-1.46484 l -0.79687,-0.1875 c -0.67969,-0.15235 -0.97266,-0.375 -0.97266,-0.75 0,-0.48047 0.4336,-0.78516 1.11328,-0.78516 0.66797,0 1.03125,0.29297 1.05469,0.84375 z m 0,0"
       style="fill:#000000;fill-opacity:1;fill-rule:nonzero;stroke:none"
       aria-label="0.01 &#10;Displacements"
       transform="matrix(1.3333333,0,0,1.3333333,300.11067,419.44427)" />
  </g>
</svg>
