<?xml version="1.0" encoding="UTF-8" standalone="no"?>
<!-- Created with Inkscape (http://www.inkscape.org/) -->

<svg
   version="1.1"
   id="svg1"
   width="242.66667"
   height="160"
   viewBox="0 0 242.66667 160"
   sodipodi:docname="exs6_2.eps"
   xmlns:inkscape="http://www.inkscape.org/namespaces/inkscape"
   xmlns:sodipodi="http://sodipodi.sourceforge.net/DTD/sodipodi-0.dtd"
   xmlns="http://www.w3.org/2000/svg"
   xmlns:svg="http://www.w3.org/2000/svg">
  <defs
     id="defs1">
    <clipPath
       clipPathUnits="userSpaceOnUse"
       id="clipPath2">
      <path
         d="M 0,7 V 1198 H 1820 V 7 Z"
         id="path2" />
    </clipPath>
    <clipPath
       clipPathUnits="userSpaceOnUse"
       id="clipPath4">
      <path
         d="M 0,7 V 1198 H 1820 V 7 Z"
         id="path4" />
    </clipPath>
    <clipPath
       clipPathUnits="userSpaceOnUse"
       id="clipPath6">
      <path
         d="M 0,7 V 1198 H 1820 V 7 Z"
         id="path6" />
    </clipPath>
    <clipPath
       clipPathUnits="userSpaceOnUse"
       id="clipPath8">
      <path
         d="M 0,7 V 1198 H 1820 V 7 Z"
         id="path8" />
    </clipPath>
    <clipPath
       clipPathUnits="userSpaceOnUse"
       id="clipPath10">
      <path
         d="M 0,7 V 1198 H 1820 V 7 Z"
         id="path10" />
    </clipPath>
    <clipPath
       clipPathUnits="userSpaceOnUse"
       id="clipPath12">
      <path
         d="M 0,7 V 1198 H 1820 V 7 Z"
         id="path12" />
    </clipPath>
    <clipPath
       clipPathUnits="userSpaceOnUse"
       id="clipPath14">
      <path
         d="M 0,7 V 1198 H 1820 V 7 Z"
         id="path14" />
    </clipPath>
    <clipPath
       clipPathUnits="userSpaceOnUse"
       id="clipPath16">
      <path
         d="M 0,7 V 1198 H 1820 V 7 Z"
         id="path16" />
    </clipPath>
    <clipPath
       clipPathUnits="userSpaceOnUse"
       id="clipPath18">
      <path
         d="M 0,7 V 1198 H 1820 V 7 Z"
         id="path18" />
    </clipPath>
    <clipPath
       clipPathUnits="userSpaceOnUse"
       id="clipPath20">
      <path
         d="M 0,7 V 1198 H 1820 V 7 Z"
         id="path20" />
    </clipPath>
    <clipPath
       clipPathUnits="userSpaceOnUse"
       id="clipPath22">
      <path
         d="M 0,7 V 1198 H 1820 V 7 Z"
         id="path22" />
    </clipPath>
    <clipPath
       clipPathUnits="userSpaceOnUse"
       id="clipPath24">
      <path
         d="M 0,7 V 1198 H 1820 V 7 Z"
         id="path24" />
    </clipPath>
    <clipPath
       clipPathUnits="userSpaceOnUse"
       id="clipPath26">
      <path
         d="M 0,7 V 1198 H 1820 V 7 Z"
         id="path26" />
    </clipPath>
    <clipPath
       clipPathUnits="userSpaceOnUse"
       id="clipPath31">
      <path
         d="M 0,7 V 1198 H 1820 V 7 Z"
         transform="matrix(0.1,0,0,-0.1,-30.431301,11.172998)"
         id="path31" />
    </clipPath>
    <clipPath
       clipPathUnits="userSpaceOnUse"
       id="clipPath32">
      <path
         d="M 0,7 V 1198 H 1820 V 7 Z"
         transform="matrix(0.09998927,-0.00146512,-0.00146512,-0.09998927,-19.023172,48.628833)"
         id="path32" />
    </clipPath>
    <clipPath
       clipPathUnits="userSpaceOnUse"
       id="clipPath34">
      <path
         d="M 0,7 V 1198 H 1820 V 7 Z"
         transform="matrix(0.03310164,1.0674731,0.998823,-0.03537678,0,0)"
         id="path34" />
    </clipPath>
    <clipPath
       clipPathUnits="userSpaceOnUse"
       id="clipPath36">
      <path
         d="M 0,7 V 1198 H 1820 V 7 Z"
         id="path36" />
    </clipPath>
    <clipPath
       clipPathUnits="userSpaceOnUse"
       id="clipPath38">
      <path
         d="M 0,7 V 1198 H 1820 V 7 Z"
         id="path38" />
    </clipPath>
    <clipPath
       clipPathUnits="userSpaceOnUse"
       id="clipPath40">
      <path
         d="M 0,7 V 1198 H 1820 V 7 Z"
         id="path40" />
    </clipPath>
    <clipPath
       clipPathUnits="userSpaceOnUse"
       id="clipPath41">
      <path
         d="M 0,7 V 1198 H 1820 V 7 Z"
         transform="matrix(0.09998927,-0.00146512,-0.00146512,-0.09998927,-160.45591,47.457566)"
         id="path41" />
    </clipPath>
    <clipPath
       clipPathUnits="userSpaceOnUse"
       id="clipPath43">
      <path
         d="M 0,7 V 1198 H 1820 V 7 Z"
         transform="matrix(0.03310164,1.0674731,0.998823,-0.03537678,0,0)"
         id="path43" />
    </clipPath>
    <clipPath
       clipPathUnits="userSpaceOnUse"
       id="clipPath45">
      <path
         d="M 0,7 V 1198 H 1820 V 7 Z"
         id="path45" />
    </clipPath>
    <clipPath
       clipPathUnits="userSpaceOnUse"
       id="clipPath47">
      <path
         d="M 0,7 V 1198 H 1820 V 7 Z"
         id="path47" />
    </clipPath>
    <clipPath
       clipPathUnits="userSpaceOnUse"
       id="clipPath49">
      <path
         d="M 0,7 V 1198 H 1820 V 7 Z"
         id="path49" />
    </clipPath>
    <clipPath
       clipPathUnits="userSpaceOnUse"
       id="clipPath51">
      <path
         d="M 0,7 V 1198 H 1820 V 7 Z"
         id="path51" />
    </clipPath>
    <clipPath
       clipPathUnits="userSpaceOnUse"
       id="clipPath53">
      <path
         d="M 0,7 V 1198 H 1820 V 7 Z"
         id="path53" />
    </clipPath>
    <clipPath
       clipPathUnits="userSpaceOnUse"
       id="clipPath55">
      <path
         d="M 0,7 V 1198 H 1820 V 7 Z"
         id="path55" />
    </clipPath>
    <clipPath
       clipPathUnits="userSpaceOnUse"
       id="clipPath57">
      <path
         d="M 0,7 V 1198 H 1820 V 7 Z"
         id="path57" />
    </clipPath>
    <clipPath
       clipPathUnits="userSpaceOnUse"
       id="clipPath59">
      <path
         d="M 0,7 V 1198 H 1820 V 7 Z"
         id="path59" />
    </clipPath>
    <clipPath
       clipPathUnits="userSpaceOnUse"
       id="clipPath61">
      <path
         d="M 0,7 V 1198 H 1820 V 7 Z"
         id="path61" />
    </clipPath>
    <clipPath
       clipPathUnits="userSpaceOnUse"
       id="clipPath63">
      <path
         d="M 0,7 V 1198 H 1820 V 7 Z"
         id="path63" />
    </clipPath>
    <clipPath
       clipPathUnits="userSpaceOnUse"
       id="clipPath65">
      <path
         d="M 0,7 V 1198 H 1820 V 7 Z"
         id="path65" />
    </clipPath>
    <clipPath
       clipPathUnits="userSpaceOnUse"
       id="clipPath70">
      <path
         d="M 0,7 V 1198 H 1820 V 7 Z"
         transform="matrix(0.1,0,0,-0.1,-27.695701,107.381)"
         id="path70" />
    </clipPath>
    <clipPath
       clipPathUnits="userSpaceOnUse"
       id="clipPath72">
      <path
         d="M 0,7 V 1198 H 1820 V 7 Z"
         id="path72" />
    </clipPath>
    <clipPath
       clipPathUnits="userSpaceOnUse"
       id="clipPath74">
      <path
         d="M 0,7 V 1198 H 1820 V 7 Z"
         id="path74" />
    </clipPath>
    <clipPath
       clipPathUnits="userSpaceOnUse"
       id="clipPath76">
      <path
         d="M 0,7 V 1198 H 1820 V 7 Z"
         id="path76" />
    </clipPath>
    <clipPath
       clipPathUnits="userSpaceOnUse"
       id="clipPath78">
      <path
         d="M 0,7 V 1198 H 1820 V 7 Z"
         id="path78" />
    </clipPath>
    <clipPath
       clipPathUnits="userSpaceOnUse"
       id="clipPath80">
      <path
         d="M 0,7 V 1198 H 1820 V 7 Z"
         id="path80" />
    </clipPath>
    <clipPath
       clipPathUnits="userSpaceOnUse"
       id="clipPath82">
      <path
         d="M 0,7 V 1198 H 1820 V 7 Z"
         id="path82" />
    </clipPath>
    <clipPath
       clipPathUnits="userSpaceOnUse"
       id="clipPath84">
      <path
         d="M 0,7 V 1198 H 1820 V 7 Z"
         id="path84" />
    </clipPath>
    <clipPath
       clipPathUnits="userSpaceOnUse"
       id="clipPath89">
      <path
         d="M 0,7 V 1198 H 1820 V 7 Z"
         transform="matrix(0.1,0,0,-0.1,-168.516,107.143)"
         id="path89" />
    </clipPath>
    <clipPath
       clipPathUnits="userSpaceOnUse"
       id="clipPath91">
      <path
         d="M 0,7 V 1198 H 1820 V 7 Z"
         id="path91" />
    </clipPath>
    <clipPath
       clipPathUnits="userSpaceOnUse"
       id="clipPath93">
      <path
         d="M 0,7 V 1198 H 1820 V 7 Z"
         id="path93" />
    </clipPath>
    <clipPath
       clipPathUnits="userSpaceOnUse"
       id="clipPath95">
      <path
         d="M 0,7 V 1198 H 1820 V 7 Z"
         id="path95" />
    </clipPath>
    <clipPath
       clipPathUnits="userSpaceOnUse"
       id="clipPath97">
      <path
         d="M 0,7 V 1198 H 1820 V 7 Z"
         id="path97" />
    </clipPath>
    <clipPath
       clipPathUnits="userSpaceOnUse"
       id="clipPath99">
      <path
         d="M 0,7 V 1198 H 1820 V 7 Z"
         id="path99" />
    </clipPath>
    <clipPath
       clipPathUnits="userSpaceOnUse"
       id="clipPath101">
      <path
         d="M 0,7 V 1198 H 1820 V 7 Z"
         id="path101" />
    </clipPath>
    <clipPath
       clipPathUnits="userSpaceOnUse"
       id="clipPath103">
      <path
         d="M 0,7 V 1198 H 1820 V 7 Z"
         id="path103" />
    </clipPath>
    <clipPath
       clipPathUnits="userSpaceOnUse"
       id="clipPath105">
      <path
         d="M 0,7 V 1198 H 1820 V 7 Z"
         id="path105" />
    </clipPath>
    <clipPath
       clipPathUnits="userSpaceOnUse"
       id="clipPath110">
      <path
         d="M 0,7 V 1198 H 1820 V 7 Z"
         transform="matrix(0.1,0,0,-0.1,-170.51601,10.143)"
         id="path110" />
    </clipPath>
    <clipPath
       clipPathUnits="userSpaceOnUse"
       id="clipPath111">
      <path
         d="M 0,7 V 1198 H 1820 V 7 Z"
         transform="matrix(0.09993435,0.00362277,0.00362277,-0.09993435,-87.136083,100.58829)"
         id="path111" />
    </clipPath>
    <clipPath
       clipPathUnits="userSpaceOnUse"
       id="clipPath113">
      <path
         d="M 0,7 V 1198 H 1820 V 7 Z"
         transform="matrix(-1.0011571,0.03824168,0.03578229,1.0699681,0,0)"
         id="path113" />
    </clipPath>
    <clipPath
       clipPathUnits="userSpaceOnUse"
       id="clipPath115">
      <path
         d="M 0,7 V 1198 H 1820 V 7 Z"
         id="path115" />
    </clipPath>
    <clipPath
       clipPathUnits="userSpaceOnUse"
       id="clipPath117">
      <path
         d="M 0,7 V 1198 H 1820 V 7 Z"
         id="path117" />
    </clipPath>
    <clipPath
       clipPathUnits="userSpaceOnUse"
       id="clipPath119">
      <path
         d="M 0,7 V 1198 H 1820 V 7 Z"
         id="path119" />
    </clipPath>
    <clipPath
       clipPathUnits="userSpaceOnUse"
       id="clipPath121">
      <path
         d="M 0,7 V 1198 H 1820 V 7 Z"
         id="path121" />
    </clipPath>
  </defs>
  <sodipodi:namedview
     id="namedview1"
     pagecolor="#ffffff"
     bordercolor="#000000"
     borderopacity="0.25"
     inkscape:showpageshadow="2"
     inkscape:pageopacity="0.0"
     inkscape:pagecheckerboard="0"
     inkscape:deskcolor="#d1d1d1">
    <inkscape:page
       x="0"
       y="0"
       inkscape:label="1"
       id="page1"
       width="242.66667"
       height="160"
       margin="0"
       bleed="0" />
  </sodipodi:namedview>
  <g
     id="g1"
     inkscape:groupmode="layer"
     inkscape:label="1">
    <path
       id="path1"
       d="m 1544.02,26.1484 c 0,7.8125 6.37,14.1797 14.18,14.1797 7.85,0 14.22,-6.3672 14.22,-14.1797 0,-7.8476 -6.37,-14.2187 -14.22,-14.2187 -7.81,0 -14.18,6.3711 -14.18,14.2187 z"
       style="fill:#000000;fill-opacity:1;fill-rule:nonzero;stroke:#231f20;stroke-width:3.06839;stroke-linecap:butt;stroke-linejoin:miter;stroke-miterlimit:3.86369;stroke-dasharray:none;stroke-opacity:1"
       transform="matrix(0.13333333,0,0,-0.13333333,0,160)"
       clip-path="url(#clipPath2)" />
    <path
       id="path3"
       d="m 1543.87,990.762 c 0,7.808 6.36,14.178 14.22,14.178 7.81,0 14.18,-6.37 14.18,-14.178 0,-7.852 -6.37,-14.223 -14.18,-14.223 -7.86,0 -14.22,6.371 -14.22,14.223 z"
       style="fill:#000000;fill-opacity:1;fill-rule:nonzero;stroke:#231f20;stroke-width:3.06839;stroke-linecap:butt;stroke-linejoin:miter;stroke-miterlimit:3.86369;stroke-dasharray:none;stroke-opacity:1"
       transform="matrix(0.13333333,0,0,-0.13333333,0,160)"
       clip-path="url(#clipPath4)" />
    <path
       id="path5"
       d="m 135.391,989.738 c 0,7.864 6.328,14.182 14.179,14.182 7.852,0 14.18,-6.318 14.18,-14.182 0,-7.808 -6.328,-14.179 -14.18,-14.179 -7.851,0 -14.179,6.371 -14.179,14.179 z"
       style="fill:#000000;fill-opacity:1;fill-rule:nonzero;stroke:#231f20;stroke-width:3.06839;stroke-linecap:butt;stroke-linejoin:miter;stroke-miterlimit:3.86369;stroke-dasharray:none;stroke-opacity:1"
       transform="matrix(0.13333333,0,0,-0.13333333,0,160)"
       clip-path="url(#clipPath6)" />
    <path
       id="path7"
       d="m 131.879,25.7617 c 0,7.8086 6.359,14.1797 14.172,14.1797 7.859,0 14.219,-6.3711 14.219,-14.1797 0,-7.8515 -6.36,-14.2226 -14.219,-14.2226 -7.813,0 -14.172,6.3711 -14.172,14.2226 z"
       style="fill:#000000;fill-opacity:1;fill-rule:nonzero;stroke:#231f20;stroke-width:3.06839;stroke-linecap:butt;stroke-linejoin:miter;stroke-miterlimit:3.86369;stroke-dasharray:none;stroke-opacity:1"
       transform="matrix(0.13333333,0,0,-0.13333333,0,160)"
       clip-path="url(#clipPath8)" />
    <path
       id="path9"
       d="m 146.051,27.25 2.039,964.02 h 1411.99 l -1.99,-966.02"
       style="fill:none;stroke:#000000;stroke-width:8;stroke-linecap:butt;stroke-linejoin:miter;stroke-miterlimit:4;stroke-dasharray:none;stroke-opacity:1"
       transform="matrix(0.13333333,0,0,-0.13333333,0,160)"
       clip-path="url(#clipPath10)" />
    <path
       id="path11"
       d="m 48.0898,114.59 c 15.9297,37.031 53.0822,63.012 96.0512,63.16 58.238,-0.148 105.238,-44.84 105.039,-102.8516"
       style="fill:none;stroke:#231f20;stroke-width:3.2;stroke-linecap:butt;stroke-linejoin:miter;stroke-miterlimit:3.8637;stroke-dasharray:none;stroke-opacity:1"
       transform="matrix(0.13333333,0,0,-0.13333333,0,160)"
       clip-path="url(#clipPath12)" />
    <path
       id="path13"
       d="M 55.6602,130.211 68.6289,124.238 40.6602,96.2305 41.6406,136.23 55.6602,130.211"
       style="fill:#231f20;fill-opacity:1;fill-rule:evenodd;stroke:none"
       transform="matrix(0.13333333,0,0,-0.13333333,0,160)"
       clip-path="url(#clipPath14)" />
    <path
       id="path15"
       d="M 176.641,240.559 V 59.1992"
       style="fill:none;stroke:#231f20;stroke-width:3.2;stroke-linecap:butt;stroke-linejoin:miter;stroke-miterlimit:3.8637;stroke-dasharray:none;stroke-opacity:1"
       transform="matrix(0.13333333,0,0,-0.13333333,0,160)"
       clip-path="url(#clipPath16)" />
    <path
       id="path17"
       d="m 176.641,208.57 -12.813,-12.808 12.813,44.797 12.808,-44.797 z"
       style="fill:#000000;fill-opacity:1;fill-rule:evenodd;stroke:none"
       transform="matrix(0.13333333,0,0,-0.13333333,0,160)"
       clip-path="url(#clipPath18)" />
    <path
       id="path19"
       d="m 176.641,208.57 -12.813,-12.812 12.813,44.808 12.808,-44.808 z"
       style="fill:none;stroke:#000000;stroke-width:3.2;stroke-linecap:butt;stroke-linejoin:miter;stroke-miterlimit:4;stroke-dasharray:none;stroke-opacity:1"
       transform="matrix(0.13333333,0,0,-0.13333333,0,160)"
       clip-path="url(#clipPath20)" />
    <path
       id="path21"
       d="M 176.641,59.1992 H 355.039"
       style="fill:none;stroke:#231f20;stroke-width:3.2;stroke-linecap:butt;stroke-linejoin:miter;stroke-miterlimit:3.8637;stroke-dasharray:none;stroke-opacity:1"
       transform="matrix(0.13333333,0,0,-0.13333333,0,160)"
       clip-path="url(#clipPath22)" />
    <path
       id="path23"
       d="M 323.051,59.1992 310.23,71.9688 355.039,59.1992 310.23,46.3789 Z"
       style="fill:#000000;fill-opacity:1;fill-rule:evenodd;stroke:none"
       transform="matrix(0.13333333,0,0,-0.13333333,0,160)"
       clip-path="url(#clipPath24)" />
    <path
       id="path25"
       d="M 323.051,59.1992 310.23,71.9688 355.039,59.1992 310.23,46.3867 Z"
       style="fill:none;stroke:#000000;stroke-width:3.2;stroke-linecap:butt;stroke-linejoin:miter;stroke-miterlimit:4;stroke-dasharray:none;stroke-opacity:1"
       transform="matrix(0.13333333,0,0,-0.13333333,0,160)"
       clip-path="url(#clipPath26)" />
    <text
       id="text26"
       xml:space="preserve"
       transform="matrix(1.3333333,0,0,1.3333333,40.575067,145.10267)"
       clip-path="url(#clipPath31)"><tspan
         id="tspan26"
         style="font-style:italic;font-variant:normal;font-weight:normal;font-size:9.6px;font-family:'Times New Roman';writing-mode:lr-tb;fill:#231f20;fill-opacity:1;fill-rule:nonzero;stroke:none"
         x="0"
         y="0">a</tspan><tspan
         id="tspan27"
         style="font-variant:normal;font-weight:normal;font-size:6.4px;font-family:'Times New Roman';writing-mode:lr-tb;fill:#231f20;fill-opacity:1;fill-rule:nonzero;stroke:none"
         x="4.5"
         y="2.26758">1</tspan><tspan
         id="tspan28"
         style="font-style:italic;font-variant:normal;font-weight:normal;font-size:9.6px;font-family:'Times New Roman';writing-mode:lr-tb;fill:#231f20;fill-opacity:1;fill-rule:nonzero;stroke:none"
         x="-10.1844"
         y="-11.01642">a</tspan><tspan
         id="tspan29"
         style="font-variant:normal;font-weight:normal;font-size:6.4px;font-family:'Times New Roman';writing-mode:lr-tb;fill:#231f20;fill-opacity:1;fill-rule:nonzero;stroke:none"
         x="-5.6844001"
         y="-8.7488403">2</tspan><tspan
         id="tspan30"
         style="font-style:italic;font-variant:normal;font-weight:normal;font-size:9.6px;font-family:'Times New Roman';writing-mode:lr-tb;fill:#231f20;fill-opacity:1;fill-rule:nonzero;stroke:none"
         x="-28.9207"
         y="-8.4023561">a</tspan><tspan
         id="tspan31"
         style="font-variant:normal;font-weight:normal;font-size:6.4px;font-family:'Times New Roman';writing-mode:lr-tb;fill:#231f20;fill-opacity:1;fill-rule:nonzero;stroke:none"
         x="-24.4207"
         y="-6.1347761">3</tspan></text>
    <text
       id="text31"
       xml:space="preserve"
       transform="matrix(1.3331902,0.01953493,-0.01953493,1.3331902,26.311467,95.540133)"
       clip-path="url(#clipPath32)"><tspan
         id="tspan32"
         style="font-variant:normal;font-weight:normal;font-size:9.6px;font-family:'Times New Roman';writing-mode:lr-tb;fill:#000000;fill-opacity:1;fill-rule:nonzero;stroke:none"
         x="0"
         y="0">1</tspan></text>
    <path
       id="path33"
       d="m 578.646,223.252 c -0.008,36.026 -27.108,65.205 -60.543,65.212 -33.477,0.021 -60.584,-29.196 -60.576,-65.225 -0.02,-36.025 27.116,-65.205 60.554,-65.225 33.427,-0.006 60.545,29.21 60.565,65.238 z"
       style="fill:none;stroke:#000000;stroke-width:2.67442;stroke-linecap:butt;stroke-linejoin:miter;stroke-miterlimit:4;stroke-dasharray:none;stroke-opacity:1"
       transform="matrix(0.00441911,-0.133344,0.12476853,0.00413491,0,160)"
       clip-path="url(#clipPath34)" />
    <path
       id="path35"
       d="m 225.078,570.488 v 79.723"
       style="fill:none;stroke:#000000;stroke-width:2.88;stroke-linecap:butt;stroke-linejoin:miter;stroke-miterlimit:4;stroke-dasharray:none;stroke-opacity:1"
       transform="matrix(0.13333333,0,0,-0.13333333,0,160)"
       clip-path="url(#clipPath36)" />
    <path
       id="path37"
       d="m 224.059,369.16 v 83.469"
       style="fill:none;stroke:#000000;stroke-width:2.88;stroke-linecap:butt;stroke-linejoin:miter;stroke-miterlimit:4;stroke-dasharray:none;stroke-opacity:1"
       transform="matrix(0.13333333,0,0,-0.13333333,0,160)"
       clip-path="url(#clipPath38)" />
    <path
       id="path39"
       d="m 224.059,397.949 11.531,11.52 -11.531,-40.309 -11.52,40.309 z"
       style="fill:#000000;fill-opacity:1;fill-rule:evenodd;stroke:#000000;stroke-width:2.88;stroke-linecap:butt;stroke-linejoin:miter;stroke-miterlimit:4;stroke-dasharray:none;stroke-opacity:1"
       transform="matrix(0.13333333,0,0,-0.13333333,0,160)"
       clip-path="url(#clipPath40)" />
    <text
       id="text40"
       xml:space="preserve"
       transform="matrix(1.3331902,0.01953493,-0.01953493,1.3331902,214.84533,99.864533)"
       clip-path="url(#clipPath41)"><tspan
         id="tspan40"
         style="font-variant:normal;font-weight:normal;font-size:9.6px;font-family:'Times New Roman';writing-mode:lr-tb;fill:#000000;fill-opacity:1;fill-rule:nonzero;stroke:none"
         x="0"
         y="0">2</tspan></text>
    <path
       id="path42"
       d="m 593.075,1733.79 c -0.019,36.03 -27.115,65.24 -60.593,65.21 -33.427,0.02 -60.546,-29.19 -60.565,-65.22 0.009,-35.99 27.108,-65.21 60.585,-65.23 33.436,0.03 60.546,29.21 60.573,65.24 z"
       style="fill:none;stroke:#000000;stroke-width:2.67442;stroke-linecap:butt;stroke-linejoin:miter;stroke-miterlimit:4;stroke-dasharray:none;stroke-opacity:1"
       transform="matrix(0.00441911,-0.133344,0.12476853,0.00413491,0,160)"
       clip-path="url(#clipPath43)" />
    <path
       id="path44"
       d="m 1639.1,538.031 v 79.758"
       style="fill:none;stroke:#000000;stroke-width:2.88;stroke-linecap:butt;stroke-linejoin:miter;stroke-miterlimit:4;stroke-dasharray:none;stroke-opacity:1"
       transform="matrix(0.13333333,0,0,-0.13333333,0,160)"
       clip-path="url(#clipPath45)" />
    <path
       id="path46"
       d="m 1638.09,336.738 v 83.473"
       style="fill:none;stroke:#000000;stroke-width:2.88;stroke-linecap:butt;stroke-linejoin:miter;stroke-miterlimit:4;stroke-dasharray:none;stroke-opacity:1"
       transform="matrix(0.13333333,0,0,-0.13333333,0,160)"
       clip-path="url(#clipPath47)" />
    <path
       id="path48"
       d="m 1638.09,365.531 11.52,11.52 -11.52,-40.313 -11.53,40.313 z"
       style="fill:#000000;fill-opacity:1;fill-rule:evenodd;stroke:none"
       transform="matrix(0.13333333,0,0,-0.13333333,0,160)"
       clip-path="url(#clipPath49)" />
    <path
       id="path50"
       d="m 1638.09,365.527 11.52,11.52 -11.52,-40.309 -11.53,40.309 z"
       style="fill:none;stroke:#000000;stroke-width:2.88;stroke-linecap:butt;stroke-linejoin:miter;stroke-miterlimit:4;stroke-dasharray:none;stroke-opacity:1"
       transform="matrix(0.13333333,0,0,-0.13333333,0,160)"
       clip-path="url(#clipPath51)" />
    <path
       id="path52"
       d="m 52.7305,1072.67 c 15.9414,37.04 53.0895,63.01 96.0585,63.17 58.242,-0.16 105.231,-44.88 105.039,-102.85"
       style="fill:none;stroke:#231f20;stroke-width:3.2;stroke-linecap:butt;stroke-linejoin:miter;stroke-miterlimit:3.8637;stroke-dasharray:none;stroke-opacity:1"
       transform="matrix(0.13333333,0,0,-0.13333333,0,160)"
       clip-path="url(#clipPath53)" />
    <path
       id="path54"
       d="m 58.2813,1088.3 13.0078,-5.98 -28.0078,-28.01 1.0195,40 13.9805,-6.01"
       style="fill:#231f20;fill-opacity:1;fill-rule:evenodd;stroke:none"
       transform="matrix(0.13333333,0,0,-0.13333333,0,160)"
       clip-path="url(#clipPath55)" />
    <path
       id="path56"
       d="M 149.301,1192.24 V 1021.27"
       style="fill:none;stroke:#231f20;stroke-width:3.1069;stroke-linecap:butt;stroke-linejoin:miter;stroke-miterlimit:3.8637;stroke-dasharray:none;stroke-opacity:1"
       transform="matrix(0.13333333,0,0,-0.13333333,0,160)"
       clip-path="url(#clipPath57)" />
    <path
       id="path58"
       d="m 149.301,1161.15 -12.422,-12.42 12.422,43.51 12.418,-43.51 z"
       style="fill:#000000;fill-opacity:1;fill-rule:evenodd;stroke:none"
       transform="matrix(0.13333333,0,0,-0.13333333,0,160)"
       clip-path="url(#clipPath59)" />
    <path
       id="path60"
       d="m 149.301,1161.15 -12.422,-12.42 12.422,43.52 12.418,-43.52 z"
       style="fill:none;stroke:#000000;stroke-width:3.1069;stroke-linecap:butt;stroke-linejoin:miter;stroke-miterlimit:4;stroke-dasharray:none;stroke-opacity:1"
       transform="matrix(0.13333333,0,0,-0.13333333,0,160)"
       clip-path="url(#clipPath61)" />
    <path
       id="path62"
       d="M 149.301,1021.27 H 327.699"
       style="fill:none;stroke:#231f20;stroke-width:3.2;stroke-linecap:butt;stroke-linejoin:miter;stroke-miterlimit:3.8637;stroke-dasharray:none;stroke-opacity:1"
       transform="matrix(0.13333333,0,0,-0.13333333,0,160)"
       clip-path="url(#clipPath63)" />
    <path
       id="path64"
       d="m 295.66,1021.27 -12.769,12.81 44.808,-12.81 -44.808,-12.81 z"
       style="fill:#000000;fill-opacity:1;fill-rule:evenodd;stroke:#000000;stroke-width:3.2;stroke-linecap:butt;stroke-linejoin:miter;stroke-miterlimit:4;stroke-dasharray:none;stroke-opacity:1"
       transform="matrix(0.13333333,0,0,-0.13333333,0,160)"
       clip-path="url(#clipPath65)" />
    <text
       id="text65"
       xml:space="preserve"
       transform="matrix(1.3333333,0,0,1.3333333,36.9276,16.825333)"
       clip-path="url(#clipPath70)"><tspan
         id="tspan65"
         style="font-style:italic;font-variant:normal;font-weight:normal;font-size:9.6px;font-family:'Times New Roman';writing-mode:lr-tb;fill:#231f20;fill-opacity:1;fill-rule:nonzero;stroke:none"
         x="0"
         y="0">a</tspan><tspan
         id="tspan66"
         style="font-variant:normal;font-weight:normal;font-size:6.4px;font-family:'Times New Roman';writing-mode:lr-tb;fill:#231f20;fill-opacity:1;fill-rule:nonzero;stroke:none"
         x="4.5"
         y="2.26758">4</tspan><tspan
         id="tspan67"
         style="font-style:italic;font-variant:normal;font-weight:normal;font-size:9.6px;font-family:'Times New Roman';writing-mode:lr-tb;fill:#231f20;fill-opacity:1;fill-rule:nonzero;stroke:none"
         x="-10.1844"
         y="-8.0164204">a</tspan><tspan
         id="tspan68"
         style="font-variant:normal;font-weight:normal;font-size:6.4px;font-family:'Times New Roman';writing-mode:lr-tb;fill:#231f20;fill-opacity:1;fill-rule:nonzero;stroke:none"
         x="-5.6844001"
         y="-5.7488399">5</tspan><tspan
         id="tspan69"
         style="font-style:italic;font-variant:normal;font-weight:normal;font-size:9.6px;font-family:'Times New Roman';writing-mode:lr-tb;fill:#231f20;fill-opacity:1;fill-rule:nonzero;stroke:none"
         x="-27.9207"
         y="-7.2023602">a</tspan><tspan
         id="tspan70"
         style="font-variant:normal;font-weight:normal;font-size:6.4px;font-family:'Times New Roman';writing-mode:lr-tb;fill:#231f20;fill-opacity:1;fill-rule:nonzero;stroke:none"
         x="-23.4207"
         y="-4.9347801">6</tspan></text>
    <path
       id="path71"
       d="m 1460.94,1070.29 c 15.94,37.03 53.08,63.01 96.05,63.17 58.24,-0.16 105.24,-44.89 105.04,-102.86"
       style="fill:none;stroke:#231f20;stroke-width:3.2;stroke-linecap:butt;stroke-linejoin:miter;stroke-miterlimit:3.8637;stroke-dasharray:none;stroke-opacity:1"
       transform="matrix(0.13333333,0,0,-0.13333333,0,160)"
       clip-path="url(#clipPath72)" />
    <path
       id="path73"
       d="m 1466.48,1085.92 13.01,-5.98 -28.01,-28.01 1.02,40 13.98,-6.01"
       style="fill:#231f20;fill-opacity:1;fill-rule:evenodd;stroke:none"
       transform="matrix(0.13333333,0,0,-0.13333333,0,160)"
       clip-path="url(#clipPath74)" />
    <path
       id="path75"
       d="M 1557.5,1189.86 V 1018.88"
       style="fill:none;stroke:#231f20;stroke-width:3.1069;stroke-linecap:butt;stroke-linejoin:miter;stroke-miterlimit:3.8637;stroke-dasharray:none;stroke-opacity:1"
       transform="matrix(0.13333333,0,0,-0.13333333,0,160)"
       clip-path="url(#clipPath76)" />
    <path
       id="path77"
       d="m 1557.5,1158.81 -12.42,-12.46 12.42,43.51 12.42,-43.51 z"
       style="fill:#000000;fill-opacity:1;fill-rule:evenodd;stroke:#000000;stroke-width:3.1069;stroke-linecap:butt;stroke-linejoin:miter;stroke-miterlimit:4;stroke-dasharray:none;stroke-opacity:1"
       transform="matrix(0.13333333,0,0,-0.13333333,0,160)"
       clip-path="url(#clipPath78)" />
    <path
       id="path79"
       d="m 1557.5,1018.88 h 178.4"
       style="fill:none;stroke:#231f20;stroke-width:3.2;stroke-linecap:butt;stroke-linejoin:miter;stroke-miterlimit:3.8637;stroke-dasharray:none;stroke-opacity:1"
       transform="matrix(0.13333333,0,0,-0.13333333,0,160)"
       clip-path="url(#clipPath80)" />
    <path
       id="path81"
       d="m 1703.87,1018.88 -12.78,12.82 44.81,-12.82 -44.81,-12.81 z"
       style="fill:#000000;fill-opacity:1;fill-rule:evenodd;stroke:none"
       transform="matrix(0.13333333,0,0,-0.13333333,0,160)"
       clip-path="url(#clipPath82)" />
    <path
       id="path83"
       d="m 1703.87,1018.89 -12.78,12.81 44.81,-12.81 -44.81,-12.82 z"
       style="fill:none;stroke:#000000;stroke-width:3.2;stroke-linecap:butt;stroke-linejoin:miter;stroke-miterlimit:4;stroke-dasharray:none;stroke-opacity:1"
       transform="matrix(0.13333333,0,0,-0.13333333,0,160)"
       clip-path="url(#clipPath84)" />
    <text
       id="text84"
       xml:space="preserve"
       transform="matrix(1.3333333,0,0,1.3333333,224.688,17.142667)"
       clip-path="url(#clipPath89)"><tspan
         id="tspan84"
         style="font-style:italic;font-variant:normal;font-weight:normal;font-size:9.6px;font-family:'Times New Roman';writing-mode:lr-tb;fill:#231f20;fill-opacity:1;fill-rule:nonzero;stroke:none"
         x="0"
         y="0">a</tspan><tspan
         id="tspan85"
         style="font-variant:normal;font-weight:normal;font-size:6.4px;font-family:'Times New Roman';writing-mode:lr-tb;fill:#231f20;fill-opacity:1;fill-rule:nonzero;stroke:none"
         x="4.5"
         y="2.26758">7</tspan><tspan
         id="tspan86"
         style="font-style:italic;font-variant:normal;font-weight:normal;font-size:9.6px;font-family:'Times New Roman';writing-mode:lr-tb;fill:#231f20;fill-opacity:1;fill-rule:nonzero;stroke:none"
         x="-10.1844"
         y="-8.0164204">a</tspan><tspan
         id="tspan87"
         style="font-variant:normal;font-weight:normal;font-size:6.4px;font-family:'Times New Roman';writing-mode:lr-tb;fill:#231f20;fill-opacity:1;fill-rule:nonzero;stroke:none"
         x="-5.6844001"
         y="-5.7488399">8</tspan><tspan
         id="tspan88"
         style="font-style:italic;font-variant:normal;font-weight:normal;font-size:9.6px;font-family:'Times New Roman';writing-mode:lr-tb;fill:#231f20;fill-opacity:1;fill-rule:nonzero;stroke:none"
         x="-27.9207"
         y="-7.2023602">a</tspan><tspan
         id="tspan89"
         style="font-variant:normal;font-weight:normal;font-size:6.4px;font-family:'Times New Roman';writing-mode:lr-tb;fill:#231f20;fill-opacity:1;fill-rule:nonzero;stroke:none"
         x="-23.4207"
         y="-4.9347801">9</tspan></text>
    <path
       id="path90"
       d="m 1480.94,100.289 c 15.94,37.031 53.08,63.012 96.05,63.172 58.24,-0.16 105.24,-44.891 105.04,-102.8594"
       style="fill:none;stroke:#231f20;stroke-width:3.2;stroke-linecap:butt;stroke-linejoin:miter;stroke-miterlimit:3.8637;stroke-dasharray:none;stroke-opacity:1"
       transform="matrix(0.13333333,0,0,-0.13333333,0,160)"
       clip-path="url(#clipPath91)" />
    <path
       id="path92"
       d="m 1486.48,115.922 13.01,-5.981 -28.01,-28.0113 1.02,40.0003 13.98,-6.008"
       style="fill:#231f20;fill-opacity:1;fill-rule:evenodd;stroke:none"
       transform="matrix(0.13333333,0,0,-0.13333333,0,160)"
       clip-path="url(#clipPath93)" />
    <path
       id="path94"
       d="M 1577.5,219.859 V 48.8789"
       style="fill:none;stroke:#231f20;stroke-width:3.1069;stroke-linecap:butt;stroke-linejoin:miter;stroke-miterlimit:3.8637;stroke-dasharray:none;stroke-opacity:1"
       transform="matrix(0.13333333,0,0,-0.13333333,0,160)"
       clip-path="url(#clipPath95)" />
    <path
       id="path96"
       d="m 1577.5,188.809 -12.42,-12.457 12.42,43.507 12.42,-43.507 z"
       style="fill:#000000;fill-opacity:1;fill-rule:evenodd;stroke:none"
       transform="matrix(0.13333333,0,0,-0.13333333,0,160)"
       clip-path="url(#clipPath97)" />
    <path
       id="path98"
       d="m 1577.5,188.809 -12.42,-12.461 12.42,43.511 12.42,-43.511 z"
       style="fill:none;stroke:#000000;stroke-width:3.1069;stroke-linecap:butt;stroke-linejoin:miter;stroke-miterlimit:4;stroke-dasharray:none;stroke-opacity:1"
       transform="matrix(0.13333333,0,0,-0.13333333,0,160)"
       clip-path="url(#clipPath99)" />
    <path
       id="path100"
       d="m 1577.5,48.8789 h 178.4"
       style="fill:none;stroke:#231f20;stroke-width:3.2;stroke-linecap:butt;stroke-linejoin:miter;stroke-miterlimit:3.8637;stroke-dasharray:none;stroke-opacity:1"
       transform="matrix(0.13333333,0,0,-0.13333333,0,160)"
       clip-path="url(#clipPath101)" />
    <path
       id="path102"
       d="m 1723.87,48.8789 -12.78,12.8203 44.81,-12.8203 -44.81,-12.8086 z"
       style="fill:#000000;fill-opacity:1;fill-rule:evenodd;stroke:none"
       transform="matrix(0.13333333,0,0,-0.13333333,0,160)"
       clip-path="url(#clipPath103)" />
    <path
       id="path104"
       d="m 1723.87,48.8867 -12.78,12.8125 44.81,-12.8125 -44.81,-12.8203 z"
       style="fill:none;stroke:#000000;stroke-width:3.2;stroke-linecap:butt;stroke-linejoin:miter;stroke-miterlimit:4;stroke-dasharray:none;stroke-opacity:1"
       transform="matrix(0.13333333,0,0,-0.13333333,0,160)"
       clip-path="url(#clipPath105)" />
    <text
       id="text105"
       xml:space="preserve"
       transform="matrix(1.3333333,0,0,1.3333333,227.35467,146.476)"
       clip-path="url(#clipPath110)"><tspan
         id="tspan105"
         style="font-style:italic;font-variant:normal;font-weight:normal;font-size:9.6px;font-family:'Times New Roman';writing-mode:lr-tb;fill:#231f20;fill-opacity:1;fill-rule:nonzero;stroke:none"
         x="0"
         y="0">a</tspan><tspan
         id="tspan106"
         style="font-variant:normal;font-weight:normal;font-size:6.4px;font-family:'Times New Roman';writing-mode:lr-tb;fill:#231f20;fill-opacity:1;fill-rule:nonzero;stroke:none"
         x="4.5"
         y="2.26758">10</tspan><tspan
         id="tspan107"
         style="font-style:italic;font-variant:normal;font-weight:normal;font-size:9.6px;font-family:'Times New Roman';writing-mode:lr-tb;fill:#231f20;fill-opacity:1;fill-rule:nonzero;stroke:none"
         x="-10.1844"
         y="-8.0164204">a</tspan><tspan
         id="tspan108"
         style="font-variant:normal;font-weight:normal;font-size:6.4px;font-family:'Times New Roman';writing-mode:lr-tb;fill:#231f20;fill-opacity:1;fill-rule:nonzero;stroke:none"
         x="-5.6844001"
         y="-5.7488399">11</tspan><tspan
         id="tspan109"
         style="font-style:italic;font-variant:normal;font-weight:normal;font-size:9.6px;font-family:'Times New Roman';writing-mode:lr-tb;fill:#231f20;fill-opacity:1;fill-rule:nonzero;stroke:none"
         x="-30.120701"
         y="-7.40236">a</tspan><tspan
         id="tspan110"
         style="font-variant:normal;font-weight:normal;font-size:6.4px;font-family:'Times New Roman';writing-mode:lr-tb;fill:#231f20;fill-opacity:1;fill-rule:nonzero;stroke:none"
         x="-25.620701"
         y="-5.1347799">12</tspan></text>
    <text
       id="text110"
       xml:space="preserve"
       transform="matrix(1.3324581,-0.04830363,0.04830363,1.3324581,111.2464,21.761333)"
       clip-path="url(#clipPath111)"><tspan
         id="tspan111"
         style="font-variant:normal;font-weight:normal;font-size:9.59999px;font-family:'Times New Roman';writing-mode:lr-tb;fill:#000000;fill-opacity:1;fill-rule:nonzero;stroke:none"
         x="0"
         y="0">3</tspan></text>
    <path
       id="path112"
       d="m -756.64,1174.62 c 0,36.07 -27.175,65.36 -60.697,65.38 -33.562,-0.01 -60.737,-29.27 -60.727,-65.39 0.01,-36.11 27.177,-65.4 60.696,-65.39 33.563,0.03 60.738,29.29 60.728,65.4 z"
       style="fill:none;stroke:#000000;stroke-width:2.68091;stroke-linecap:butt;stroke-linejoin:miter;stroke-miterlimit:4;stroke-dasharray:none;stroke-opacity:1"
       transform="matrix(-0.13300933,-0.00475388,0.00444815,-0.12445533,0,160)"
       clip-path="url(#clipPath113)" />
    <path
       id="path114"
       d="m 795.27,1066.42 -20.891,0.04 -58.828,0.16"
       style="fill:none;stroke:#000000;stroke-width:2.88;stroke-linecap:butt;stroke-linejoin:miter;stroke-miterlimit:4;stroke-dasharray:none;stroke-opacity:1"
       transform="matrix(0.13333333,0,0,-0.13333333,0,160)"
       clip-path="url(#clipPath115)" />
    <path
       id="path116"
       d="m 996.602,1064.9 -21.872,0.04 -61.64,0.16"
       style="fill:none;stroke:#000000;stroke-width:2.88;stroke-linecap:butt;stroke-linejoin:miter;stroke-miterlimit:4;stroke-dasharray:none;stroke-opacity:1"
       transform="matrix(0.13333333,0,0,-0.13333333,0,160)"
       clip-path="url(#clipPath117)" />
    <path
       id="path118"
       d="m 967.809,1064.98 -11.481,11.52 40.274,-11.6 -40.352,-11.41 z"
       style="fill:#000000;fill-opacity:1;fill-rule:evenodd;stroke:none"
       transform="matrix(0.13333333,0,0,-0.13333333,0,160)"
       clip-path="url(#clipPath119)" />
    <path
       id="path120"
       d="m 967.813,1064.98 -11.489,11.52 40.278,-11.6 -40.352,-11.41 z"
       style="fill:none;stroke:#000000;stroke-width:2.88;stroke-linecap:butt;stroke-linejoin:miter;stroke-miterlimit:4;stroke-dasharray:none;stroke-opacity:1"
       transform="matrix(0.13333333,0,0,-0.13333333,0,160)"
       clip-path="url(#clipPath121)" />
  </g>
</svg>
