<?xml version="1.0" encoding="UTF-8" standalone="no"?>
<!-- Created with Inkscape (http://www.inkscape.org/) -->

<svg
   version="1.1"
   id="svg1"
   width="438.48001"
   height="297.89334"
   viewBox="0 0 438.48001 297.89334"
   sodipodi:docname="exs6f2.eps"
   xmlns:inkscape="http://www.inkscape.org/namespaces/inkscape"
   xmlns:sodipodi="http://sodipodi.sourceforge.net/DTD/sodipodi-0.dtd"
   xmlns="http://www.w3.org/2000/svg"
   xmlns:svg="http://www.w3.org/2000/svg">
  <defs
     id="defs1" />
  <sodipodi:namedview
     id="namedview1"
     pagecolor="#ffffff"
     bordercolor="#000000"
     borderopacity="0.25"
     inkscape:showpageshadow="2"
     inkscape:pageopacity="0.0"
     inkscape:pagecheckerboard="0"
     inkscape:deskcolor="#d1d1d1">
    <inkscape:page
       x="0"
       y="0"
       inkscape:label="1"
       id="page1"
       width="438.48001"
       height="297.89334"
       margin="0"
       bleed="0" />
  </sodipodi:namedview>
  <g
     id="g1"
     inkscape:groupmode="layer"
     inkscape:label="1">
    <path
       id="path1"
       d="m 105.25,167.25 c 28.359,66.238 94.449,112.699 171,113 103.688,-0.301 187.305,-80.273 187,-184"
       style="fill:none;stroke:#231f20;stroke-width:2.5;stroke-linecap:butt;stroke-linejoin:miter;stroke-miterlimit:3.8637;stroke-dasharray:none;stroke-opacity:1"
       transform="matrix(0.13333333,0,0,-0.13333333,0,297.89333)" />
    <path
       id="path2"
       d="m 106.25,169.25 13,-6 -28,-28 1,40 14,-6"
       style="fill:#231f20;fill-opacity:1;fill-rule:evenodd;stroke:none"
       transform="matrix(0.13333333,0,0,-0.13333333,0,297.89333)" />
    <path
       id="path3"
       d="m 283.25,353.25 v -259"
       style="fill:none;stroke:#231f20;stroke-width:2.5;stroke-linecap:butt;stroke-linejoin:miter;stroke-miterlimit:3.8637;stroke-dasharray:none;stroke-opacity:1"
       transform="matrix(0.13333333,0,0,-0.13333333,0,297.89333)" />
    <path
       id="path4"
       d="m 283.25,351.25 h -15 l 15,37 15,-37 h -15"
       style="fill:#231f20;fill-opacity:1;fill-rule:evenodd;stroke:none"
       transform="matrix(0.13333333,0,0,-0.13333333,0,297.89333)" />
    <path
       id="path5"
       d="m 283.25,94.25 h 260"
       style="fill:none;stroke:#231f20;stroke-width:2.5;stroke-linecap:butt;stroke-linejoin:miter;stroke-miterlimit:3.8637;stroke-dasharray:none;stroke-opacity:1"
       transform="matrix(0.13333333,0,0,-0.13333333,0,297.89333)" />
    <path
       id="path6"
       d="m 540.25,94.25 v 15 l 38,-15 -38,-15 v 15"
       style="fill:#231f20;fill-opacity:1;fill-rule:evenodd;stroke:none"
       transform="matrix(0.13333333,0,0,-0.13333333,0,297.89333)" />
    <path
       id="path7"
       d="M 0.53867187,-0.0010548 H 3.6089844 v -0.16408055 h -0.1875 c -0.5390625,0 -0.7617188,-0.10548035 -0.7617188,-0.35160117 0,-0.10548035 0.035156,-0.2695609 0.140625,-0.57428188 0.011719,-0.08204 0.023437,-0.1289205 0.058594,-0.2461209 l 1.5703125,-5.707659 c 0.058594,-0.1992406 0.070312,-0.2578408 0.070312,-0.316441 0,-0.04688 -0.023437,-0.08204 -0.058594,-0.08204 0,0 -0.3046875,0.0586 -0.9023437,0.1758006 l -0.984375,0.1992406 c -0.023437,0.01172 -0.1054688,0.02344 -0.234375,0.04688 v 0.1640805 l 0.6328125,-0.02344 c 0.2460937,-0.01172 0.4101562,0.1172004 0.4101562,0.3398811 0,0.08204 -0.023437,0.1523605 -0.070312,0.3750412 l -1.5234375,5.414658 C 1.6402344,-0.34093594 1.4058594,-0.23545558 0.53867187,-0.15341531 Z M -12.392969,-18.738467 c -0.257812,0.539122 -0.480469,0.679762 -1.089844,0.703202 h -2.097656 v -0.0586 l 2.121094,-2.109607 c 1.277344,-1.289204 1.628906,-1.840046 1.628906,-2.578409 0,-1.043083 -0.773437,-1.863486 -1.78125,-1.863486 -0.386719,0 -0.796875,0.10548 -1.125,0.293001 -0.5625,0.304721 -0.867187,0.679762 -1.183594,1.465005 l 0.234375,0.08204 c 0.410157,-0.714922 0.878907,-1.031363 1.535157,-1.031363 0.796875,0 1.382812,0.574282 1.382812,1.336084 0,0.234401 -0.03516,0.445362 -0.105469,0.586002 -0.257812,0.597722 -0.773437,1.289204 -1.488281,2.062727 l -2.308594,2.461208 v 0.187521 h 3.914063 l 0.550781,-1.453285 z M -37.743555,2.5656338 c 0.386719,-0.5274018 0.761719,-0.7383625 1.21875,-0.7383625 0.597657,0 0.984375,0.3867613 0.984375,0.9962033 0,0.4688016 -0.234375,0.8555629 -0.703125,1.183724 -0.480468,0.316441 -0.949218,0.4805216 -1.921875,0.6446021 v 0.1758006 c 0.621094,0 0.726563,0.01172 1.019532,0.1054803 0.667968,0.2578409 1.019531,0.8555629 1.019531,1.7345658 0,0.3867613 -0.08203,0.7852426 -0.234375,1.0430835 -0.257813,0.4453615 -0.75,0.7500825 -1.207031,0.7500825 -0.210938,0 -0.445313,-0.1054804 -0.785157,-0.3516012 -0.316406,-0.2344008 -0.492187,-0.304721 -0.703125,-0.304721 -0.304687,0 -0.480468,0.1523605 -0.480468,0.4219214 0,0.4219214 0.445312,0.6563222 1.230468,0.6563222 0.621094,0 1.195313,-0.1523605 1.640625,-0.4102014 0.867188,-0.5039616 1.417969,-1.4298447 1.417969,-2.414328 0,-0.7969627 -0.316406,-1.3009243 -1.042969,-1.6408055 v -0.03516 c 1.324219,-0.5156817 1.710938,-0.8790029 1.710938,-1.6290854 0,-0.7969627 -0.65625,-1.3946847 -1.546875,-1.3946847 -0.761719,0 -1.441406,0.4336415 -1.792969,1.1485639 z m 0,0"
       style="fill:#231f20;fill-opacity:1;fill-rule:nonzero;stroke:none"
       aria-label="1&#10;2&#10;3"
       transform="matrix(1.3333333,0,0,1.3331867,67.633333,279.06)" />
    <path
       id="path8"
       d="m 210.25,293.25 h 56 v -44 h -56 v 44"
       style="fill:#ffffff;fill-opacity:1;fill-rule:nonzero;stroke:none"
       transform="matrix(0.13333333,0,0,-0.13333333,0,297.89333)" />
    <path
       id="path9"
       d="M 0.53828125,-0.00144547 H 3.6085938 v -0.16408055 h -0.1875 c -0.5390625,0 -0.7617188,-0.10548035 -0.7617188,-0.35160117 0,-0.10548035 0.035156,-0.2695609 0.140625,-0.57428191 0.011719,-0.08204 0.023437,-0.1289204 0.058594,-0.2461208 l 1.5703125,-5.707659 c 0.058594,-0.1992407 0.070312,-0.2578409 0.070312,-0.3164411 0,-0.04688 -0.023437,-0.08204 -0.058594,-0.08204 0,0 -0.3046875,0.0586 -0.9023437,0.1758006 l -0.984375,0.1992407 c -0.023437,0.01172 -0.1054688,0.02344 -0.234375,0.04688 v 0.1640806 l 0.6328125,-0.02344 C 3.1984375,-6.8928284 3.3625,-6.763908 3.3625,-6.5412273 c 0,0.08204 -0.023437,0.1523605 -0.070312,0.3750413 L 1.76875,-0.75152797 C 1.6398438,-0.3413266 1.4054688,-0.23584625 0.53828125,-0.15380598 Z M 9.2511719,-7.4436703 c -1.7226563,0 -3.3984375,2.5080884 -3.3984375,5.098217 0,1.45328486 0.703125,2.4260481 1.7695312,2.4260481 0.4804688,0 0.9375,-0.17580058 1.3945313,-0.51568172 1.1132811,-0.80868268 1.9570311,-2.63700878 1.9570311,-4.21921408 0,-1.7462858 -0.65625,-2.7893693 -1.7226561,-2.7893693 z m -0.058594,0.3164411 c 0.5742188,0 0.9140631,0.5039617 0.9140631,1.3829646 0,1.4767249 -0.4453131,3.293331 -1.0781256,4.4067347 -0.4101562,0.7266424 -0.8671875,1.10168365 -1.3710937,1.10168365 -0.5859375,0 -0.9375,-0.55084184 -0.9375,-1.47672495 0,-1.1837239 0.5625,-3.3519311 1.1367187,-4.3715745 0.4101563,-0.7032024 0.8203125,-1.0430835 1.3359375,-1.0430835 z M -14.760547,-17.303153 h 3.070313 v -0.164081 h -0.1875 c -0.539063,0 -0.761719,-0.10548 -0.761719,-0.351601 0,-0.10548 0.03516,-0.269561 0.140625,-0.574282 0.01172,-0.08204 0.02344,-0.12892 0.05859,-0.246121 l 1.570312,-5.707659 c 0.05859,-0.19924 0.07031,-0.25784 0.07031,-0.316441 0,-0.04688 -0.02344,-0.08204 -0.05859,-0.08204 0,0 -0.304688,0.0586 -0.902344,0.175801 l -0.984375,0.19924 c -0.02344,0.01172 -0.105469,0.02344 -0.234375,0.04688 v 0.164081 l 0.632813,-0.02344 c 0.246093,-0.01172 0.410156,0.1172 0.410156,0.339881 0,0.08204 -0.02344,0.152361 -0.07031,0.375041 l -1.523437,5.414658 c -0.128906,0.410202 -0.363281,0.515682 -1.230469,0.597722 z m 4.699219,0 h 3.0703124 v -0.164081 h -0.1875 c -0.5390625,0 -0.7617188,-0.10548 -0.7617188,-0.351601 0,-0.10548 0.035156,-0.269561 0.140625,-0.574282 0.011719,-0.08204 0.023437,-0.12892 0.058594,-0.246121 l 1.5703125,-5.707659 c 0.058594,-0.19924 0.070312,-0.25784 0.070312,-0.316441 0,-0.04688 -0.023437,-0.08204 -0.058594,-0.08204 0,0 -0.3046875,0.0586 -0.9023437,0.175801 l -0.984375,0.19924 c -0.023437,0.01172 -0.1054688,0.02344 -0.234375,0.04688 v 0.164081 l 0.6328125,-0.02344 c 0.2460937,-0.01172 0.4101562,0.1172 0.4101562,0.339881 0,0.08204 -0.023437,0.152361 -0.070312,0.375041 l -1.5234375,5.414658 c -0.1289062,0.410202 -0.3632812,0.515682 -1.2304686,0.597722 z M -41.760547,8.8999242 h 3.070313 V 8.7358436 h -0.1875 c -0.539063,0 -0.761719,-0.1054803 -0.761719,-0.3516011 0,-0.1054804 0.03516,-0.2695609 0.140625,-0.5742819 0.01172,-0.08204 0.02344,-0.1289205 0.05859,-0.2461209 l 1.570312,-5.707659 c 0.05859,-0.1992406 0.07031,-0.2578408 0.07031,-0.316441 0,-0.04688 -0.02344,-0.08204 -0.05859,-0.08204 0,0 -0.304688,0.0586 -0.902344,0.1758006 l -0.984375,0.1992406 c -0.02344,0.01172 -0.105469,0.02344 -0.234375,0.04688 v 0.1640805 l 0.632813,-0.02344 c 0.246093,-0.01172 0.410156,0.1172004 0.410156,0.3398811 0,0.08204 -0.02344,0.1523605 -0.07031,0.3750412 l -1.523437,5.4146581 c -0.128906,0.4102014 -0.363281,0.5156817 -1.230469,0.597722 z m 9.366211,-1.5353251 c -0.257812,0.5391218 -0.480469,0.6797622 -1.089844,0.7032023 h -2.097656 v -0.0586 l 2.121094,-2.109607 c 1.277344,-1.2892043 1.628906,-1.8400461 1.628906,-2.5784086 0,-1.0430835 -0.773437,-1.8634862 -1.78125,-1.8634862 -0.386719,0 -0.796875,0.1054803 -1.125,0.293001 -0.5625,0.304721 -0.867187,0.6797622 -1.183594,1.4650049 l 0.234375,0.08204 c 0.410157,-0.7149224 0.878907,-1.0313634 1.535157,-1.0313634 0.796875,0 1.382812,0.5742819 1.382812,1.3360844 0,0.2344008 -0.03516,0.4453615 -0.105469,0.586002 -0.257812,0.597722 -0.773437,1.2892043 -1.488281,2.0627269 l -2.308594,2.4612082 v 0.1875206 h 3.914063 l 0.550781,-1.4532848 z m 0,0"
       style="fill:#231f20;fill-opacity:1;fill-rule:nonzero;stroke:none"
       aria-label="10&#10;11&#10;12"
       transform="matrix(1.3333333,0,0,1.3331867,419.76667,279.19333)" />
    <path
       id="path10"
       d="m 2770.25,168.25 c 29.2,66.652 95.29,113.113 172,113 103.53,0.113 187.14,-79.855 187,-183"
       style="fill:none;stroke:#231f20;stroke-width:2.5;stroke-linecap:butt;stroke-linejoin:miter;stroke-miterlimit:3.8637;stroke-dasharray:none;stroke-opacity:1"
       transform="matrix(0.13333333,0,0,-0.13333333,0,297.89333)" />
    <path
       id="path11"
       d="m 2771.25,171.25 14,-6 -28,-29 1,40 13,-5"
       style="fill:#231f20;fill-opacity:1;fill-rule:evenodd;stroke:none"
       transform="matrix(0.13333333,0,0,-0.13333333,0,297.89333)" />
    <path
       id="path12"
       d="m 2949.25,355.25 v -260"
       style="fill:none;stroke:#231f20;stroke-width:2.5;stroke-linecap:butt;stroke-linejoin:miter;stroke-miterlimit:3.8637;stroke-dasharray:none;stroke-opacity:1"
       transform="matrix(0.13333333,0,0,-0.13333333,0,297.89333)" />
    <path
       id="path13"
       d="m 2949.25,352.25 h -15 l 15,38 15,-38 h -15"
       style="fill:#231f20;fill-opacity:1;fill-rule:evenodd;stroke:none"
       transform="matrix(0.13333333,0,0,-0.13333333,0,297.89333)" />
    <path
       id="path14"
       d="m 2949.25,95.25 h 260"
       style="fill:none;stroke:#231f20;stroke-width:2.5;stroke-linecap:butt;stroke-linejoin:miter;stroke-miterlimit:3.8637;stroke-dasharray:none;stroke-opacity:1"
       transform="matrix(0.13333333,0,0,-0.13333333,0,297.89333)" />
    <path
       id="path15"
       d="m 3206.25,95.25 v 15 l 38,-15 -38,-15 v 15"
       style="fill:#231f20;fill-opacity:1;fill-rule:evenodd;stroke:none"
       transform="matrix(0.13333333,0,0,-0.13333333,0,297.89333)" />
    <path
       id="path16"
       d="m 2867.25,293.25 h 60 v -44 h -60 v 44"
       style="fill:#ffffff;fill-opacity:1;fill-rule:nonzero;stroke:none"
       transform="matrix(0.13333333,0,0,-0.13333333,0,297.89333)" />
    <path
       id="path17"
       d="m 64.25,1971.25 c 28.7539,65.94 94.844,112.39 172,112 103.082,0.39 186.699,-79.57 187,-183"
       style="fill:none;stroke:#231f20;stroke-width:2.5;stroke-linecap:butt;stroke-linejoin:miter;stroke-miterlimit:3.8637;stroke-dasharray:none;stroke-opacity:1"
       transform="matrix(0.13333333,0,0,-0.13333333,0,297.89333)" />
    <path
       id="path18"
       d="m 65.25,1973.25 14,-6 -29,-29 1,41 14,-6"
       style="fill:#231f20;fill-opacity:1;fill-rule:evenodd;stroke:none"
       transform="matrix(0.13333333,0,0,-0.13333333,0,297.89333)" />
    <path
       id="path19"
       d="m 243.25,2157.25 v -260"
       style="fill:none;stroke:#231f20;stroke-width:2.5;stroke-linecap:butt;stroke-linejoin:miter;stroke-miterlimit:3.8637;stroke-dasharray:none;stroke-opacity:1"
       transform="matrix(0.13333333,0,0,-0.13333333,0,297.89333)" />
    <path
       id="path20"
       d="m 243.25,2154.25 h -15 l 15,38 15,-38 h -15"
       style="fill:#231f20;fill-opacity:1;fill-rule:evenodd;stroke:none"
       transform="matrix(0.13333333,0,0,-0.13333333,0,297.89333)" />
    <path
       id="path21"
       d="m 243.25,1897.25 h 259"
       style="fill:none;stroke:#231f20;stroke-width:2.5;stroke-linecap:butt;stroke-linejoin:miter;stroke-miterlimit:3.8637;stroke-dasharray:none;stroke-opacity:1"
       transform="matrix(0.13333333,0,0,-0.13333333,0,297.89333)" />
    <path
       id="path22"
       d="m 500.25,1897.25 v 15 l 37,-15 -37,-15 v 15"
       style="fill:#231f20;fill-opacity:1;fill-rule:evenodd;stroke:none"
       transform="matrix(0.13333333,0,0,-0.13333333,0,297.89333)" />
    <path
       id="path23"
       d="M 4.9806641,-2.6474396 H 3.9376953 l 1.3359375,-4.793496 H 4.8166016 L 0.23457031,-2.6943198 0.01191406,-1.9559573 H 2.8947266 L 2.3556641,0.0012892 h 0.8671875 l 0.5039062,-1.9338064 h 1.1015625 z m -1.9335938,0 H 0.71503906 v -0.04688 L 4.0548828,-6.1986115 h 0.046875 z M -13.385547,-23.453439 h 2.53125 l 0.257813,-0.773523 h -2.8125 l -1.148438,2.390888 v 0.164081 c 1.066406,0.234401 1.429688,0.363321 1.828125,0.691482 0.351563,0.281281 0.585938,0.832123 0.585938,1.418125 0,1.195444 -0.890625,2.273688 -1.886719,2.273688 -0.234375,0 -0.433594,-0.08204 -0.75,-0.316441 -0.269531,-0.210961 -0.433594,-0.293001 -0.609375,-0.293001 -0.257813,0 -0.445313,0.18752 -0.445313,0.445361 0,0.398481 0.433594,0.632882 1.171875,0.632882 1.816407,0 3.269532,-1.418125 3.269532,-3.16441 0,-0.679763 -0.246094,-1.265765 -0.726563,-1.711126 -0.410156,-0.386761 -0.796875,-0.562562 -1.6875,-0.785243 z M -31.280078,1.6538147 c -1.476563,0.1758006 -2.203125,0.4336415 -3.152344,1.1368438 -1.394531,1.0313634 -2.238281,2.5901286 -2.238281,4.1606139 0,1.4181247 0.796875,2.3322877 2.015625,2.3322877 1.476562,0 2.730469,-1.4064046 2.730469,-3.0589302 0,-1.1251237 -0.785157,-1.9455264 -1.875,-1.9455264 -0.304688,0 -0.667969,0.09376 -0.960938,0.2344007 l -0.04687,-0.02344 c 0.761719,-1.3946847 2.25,-2.5080884 3.539063,-2.6604489 z m -2.871094,3.0237701 c 0.761719,0 1.242188,0.5508418 1.242188,1.3946846 0,0.7500825 -0.257813,1.6173654 -0.667969,2.1916473 -0.328125,0.4922417 -0.714844,0.7266425 -1.183594,0.7266425 -0.679687,0 -1.066406,-0.5391218 -1.066406,-1.4415648 0,-0.7500825 0.210937,-1.6642456 0.503906,-2.1447672 0.292969,-0.5039617 0.65625,-0.7266424 1.171875,-0.7266424 z m 0,0"
       style="fill:#231f20;fill-opacity:1;fill-rule:nonzero;stroke:none"
       aria-label="4&#10;5&#10;6"
       transform="matrix(1.3333333,0,0,1.3331867,62.433333,38.26)" />
    <path
       id="path24"
       d="m 2716.25,1972.25 c 28.78,66.04 94.87,112.5 172,113 103.11,-0.5 186.72,-80.47 187,-184"
       style="fill:none;stroke:#231f20;stroke-width:2.5;stroke-linecap:butt;stroke-linejoin:miter;stroke-miterlimit:3.8637;stroke-dasharray:none;stroke-opacity:1"
       transform="matrix(0.13333333,0,0,-0.13333333,0,297.89333)" />
    <path
       id="path25"
       d="m 2717.25,1974.25 14,-6 -29,-29 1,41 14,-6"
       style="fill:#231f20;fill-opacity:1;fill-rule:evenodd;stroke:none"
       transform="matrix(0.13333333,0,0,-0.13333333,0,297.89333)" />
    <path
       id="path26"
       d="m 2895.25,2158.25 v -260"
       style="fill:none;stroke:#231f20;stroke-width:2.5;stroke-linecap:butt;stroke-linejoin:miter;stroke-miterlimit:3.8637;stroke-dasharray:none;stroke-opacity:1"
       transform="matrix(0.13333333,0,0,-0.13333333,0,297.89333)" />
    <path
       id="path27"
       d="m 2895.25,2155.25 h -15 l 15,38 15,-38 h -15"
       style="fill:#231f20;fill-opacity:1;fill-rule:evenodd;stroke:none"
       transform="matrix(0.13333333,0,0,-0.13333333,0,297.89333)" />
    <path
       id="path28"
       d="m 2895.25,1898.25 h 259"
       style="fill:none;stroke:#231f20;stroke-width:2.5;stroke-linecap:butt;stroke-linejoin:miter;stroke-miterlimit:3.8637;stroke-dasharray:none;stroke-opacity:1"
       transform="matrix(0.13333333,0,0,-0.13333333,0,297.89333)" />
    <path
       id="path29"
       d="m 3152.25,1898.25 v 15 l 37,-15 -37,-15 v 15"
       style="fill:#231f20;fill-opacity:1;fill-rule:evenodd;stroke:none"
       transform="matrix(0.13333333,0,0,-0.13333333,0,297.89333)" />
    <path
       id="path30"
       d="M 5.9070313,-7.2186455 5.8484375,-7.3241259 H 1.7117188 l -0.89062505,1.488445 0.1640625,0.1054803 C 1.4890625,-6.3513626 1.79375,-6.5154432 2.4382813,-6.5271632 H 4.8875 l 0.023437,0.03516 -4.04296875,6.58666195 H 1.6414063 Z M -13.179883,-21.610853 c 1.3125,-0.421922 1.804688,-0.902444 1.804688,-1.675966 0,-0.914163 -0.808594,-1.558765 -1.921875,-1.558765 -1.183594,0 -1.980469,0.679762 -1.980469,1.652525 0,0.597722 0.210937,1.019644 0.949219,1.828326 -1.382813,0.445362 -2.144532,1.218884 -2.144532,2.191648 0,0.293001 0.09375,0.621162 0.257813,0.902443 0.363281,0.621162 1.019531,0.949323 1.933594,0.949323 1.359375,0 2.367187,-0.855563 2.367187,-1.980687 0,-0.738362 -0.328125,-1.336084 -1.265625,-2.308847 z m -0.902344,0.421921 c 1.207032,1.254044 1.335938,1.453285 1.335938,2.074447 0,0.902443 -0.621094,1.547045 -1.488281,1.547045 -0.867188,0 -1.488282,-0.644602 -1.488282,-1.547045 0,-0.902443 0.597657,-1.664246 1.640625,-2.074447 z m 0.703125,-0.609442 c -0.855468,-0.808683 -1.042968,-1.089964 -1.042968,-1.547045 0,-0.773523 0.421875,-1.242324 1.125,-1.242324 0.703125,0 1.171875,0.515681 1.171875,1.300924 0,0.691482 -0.292969,1.043083 -1.253907,1.488445 z m -24.46289,30.5863718 c 1.476562,-0.2578408 2.214844,-0.5508418 3.128906,-1.2657642 1.277344,-1.0079234 2.027344,-2.4729282 2.027344,-3.9613732 0,-1.4532848 -0.796875,-2.402608 -1.992188,-2.402608 -1.382812,0 -2.660156,1.4064047 -2.660156,2.9534498 0,1.1485639 0.679688,1.9689666 1.652344,1.9689666 0.445312,0 0.832031,-0.1289204 1.417969,-0.4922416 l 0.04687,0.02344 c -0.1875,0.5039617 -0.738282,1.2188841 -1.417969,1.8283261 -0.796875,0.6797623 -1.335938,0.9610432 -2.203125,1.1485639 z m 3.246094,-7.3367444 c 0.679687,0 1.089843,0.5391218 1.089843,1.4532848 0,0.8555629 -0.28125,1.8752063 -0.609375,2.1916473 -0.28125,0.293001 -0.738281,0.4805216 -1.160156,0.4805216 -0.703125,0 -1.101562,-0.5508418 -1.101562,-1.5353251 0,-0.8086827 0.328125,-1.6876856 0.796875,-2.1799273 0.269531,-0.2695609 0.609375,-0.4102013 0.984375,-0.4102013 z m 0,0"
       style="fill:#231f20;fill-opacity:1;fill-rule:nonzero;stroke:none"
       aria-label="7&#10;8&#10;9"
       transform="matrix(1.3333333,0,0,1.3331867,417.23333,38.393333)" />
    <path
       id="path31"
       d="M 2.8607422,-5.8703906 V 7.03125e-4 H 4.5365234 V -8.5071094 H 3.4232422 c -0.2695313,1.0078125 -1.1367188,1.5234375 -2.60156251,1.5234375 v 1.1132813 z M 308.84023,-0.89871094 h -3.60937 c 0.23437,-0.45703126 0.49219,-0.70312496 1.74609,-1.60546876 1.46485,-1.078125 1.89844,-1.7226562 1.89844,-2.8828125 0,-1.640625 -1.13672,-2.6953125 -2.90625,-2.6953125 -1.76953,0 -2.80078,1.0429688 -2.80078,2.8359375 v 0.3046875 h 1.61719 v -0.28125 c 0,-0.9492187 0.44531,-1.5 1.21875,-1.5 0.73828,0 1.19531,0.515625 1.19531,1.3710938 0,0.9492187 -0.29297,1.3007812 -2.17969,2.6367187 -1.4414,0.984375 -1.88672,1.73437501 -1.95703,3.31640626 h 5.77734 z M 146.60293,-93.309844 c 0.65625,0 0.69141,0 0.98437,0.09375 0.5625,0.152344 0.92579,0.644532 0.92579,1.265625 0,0.761719 -0.52735,1.289063 -1.25391,1.289063 -0.79688,0 -1.23047,-0.457031 -1.27734,-1.335938 h -1.62891 c 0.0117,1.699219 1.11328,2.777344 2.85937,2.777344 1.81641,0 2.97657,-1.078125 2.97657,-2.730469 0,-0.996093 -0.42188,-1.640625 -1.38282,-2.109375 0.77344,-0.492187 1.11329,-1.03125 1.11329,-1.816406 0,-1.417969 -1.05469,-2.308594 -2.70704,-2.308594 -1.23046,0 -2.17968,0.539063 -2.55468,1.464844 -0.15235,0.398438 -0.19922,0.679688 -0.19922,1.382813 h 1.55859 c 0.0117,-0.457032 0.0469,-0.679688 0.12891,-0.890625 0.16406,-0.375 0.53906,-0.609375 1.03125,-0.609375 0.67969,0 1.05469,0.410156 1.05469,1.125 0,0.855468 -0.49219,1.277343 -1.48829,1.277343 h -0.14062 z m 0,0"
       style="fill:#231f20;fill-opacity:1;fill-rule:nonzero;stroke:none"
       aria-label="1&#10;2&#10;3"
       transform="matrix(1.3333333,0,0,1.3333333,4.0333333,163.46)" />
    <path
       id="path32"
       d="m 240.25,1822.25 2659,-3"
       style="fill:none;stroke:#231f20;stroke-width:15.001;stroke-linecap:butt;stroke-linejoin:miter;stroke-miterlimit:3.8637;stroke-dasharray:none;stroke-opacity:1"
       transform="matrix(0.13333333,0,0,-0.13333333,0,297.89333)" />
    <path
       id="path33"
       d="m 240.25,85.25 v 1742"
       style="fill:none;stroke:#231f20;stroke-width:15.001;stroke-linecap:butt;stroke-linejoin:miter;stroke-miterlimit:3.8637;stroke-dasharray:none;stroke-opacity:1"
       transform="matrix(0.13333333,0,0,-0.13333333,0,297.89333)" />
    <path
       id="path34"
       d="m 2898.25,87.25 v 1742"
       style="fill:none;stroke:#231f20;stroke-width:15.001;stroke-linecap:butt;stroke-linejoin:miter;stroke-miterlimit:3.8637;stroke-dasharray:none;stroke-opacity:1"
       transform="matrix(0.13333333,0,0,-0.13333333,0,297.89333)" />
    <path
       id="path35"
       d="M 0.56132813,3.125e-4 V -6.491875 H 3.9363281 V 3.125e-4 Z m 0.56249997,-0.5625 h 2.25 V -5.929375 h -2.25 z M 266.06133,0.19953125 V -6.2926562 h 3.375 v 6.49218745 z m 0.5625,-0.5625 h 2.25 V -5.7301562 h -2.25 z M 266.06133,172.4007 v -6.49218 h 3.375 v 6.49218 z m 0.5625,-0.5625 h 2.25 v -5.36718 h -2.25 z M 0.2625,172.50031 v -6.49219 h 3.375 v 6.49219 z m 0.5625,-0.5625 h 2.25 v -5.36719 h -2.25 z m 0,0"
       style="fill:#231f20;fill-opacity:1;fill-rule:nonzero;stroke:none"
       aria-label="●&#10;●&#10;●&#10;●"
       transform="matrix(1.3333333,0,0,1.3333333,27.9,59.593333)" />
  </g>
</svg>
