<?xml version="1.0" encoding="UTF-8" standalone="no"?>
<!-- Created with Inkscape (http://www.inkscape.org/) -->

<svg
   version="1.1"
   id="svg1"
   width="584.76001"
   height="381.23999"
   viewBox="0 0 584.76001 381.23999"
   sodipodi:docname="exs7f1.eps"
   xmlns:inkscape="http://www.inkscape.org/namespaces/inkscape"
   xmlns:sodipodi="http://sodipodi.sourceforge.net/DTD/sodipodi-0.dtd"
   xmlns="http://www.w3.org/2000/svg"
   xmlns:svg="http://www.w3.org/2000/svg">
  <defs
     id="defs1" />
  <sodipodi:namedview
     id="namedview1"
     pagecolor="#ffffff"
     bordercolor="#000000"
     borderopacity="0.25"
     inkscape:showpageshadow="2"
     inkscape:pageopacity="0.0"
     inkscape:pagecheckerboard="0"
     inkscape:deskcolor="#d1d1d1">
    <inkscape:page
       x="0"
       y="0"
       inkscape:label="1"
       id="page1"
       width="584.76001"
       height="381.23999"
       margin="0"
       bleed="0" />
  </sodipodi:namedview>
  <g
     id="g1"
     inkscape:groupmode="layer"
     inkscape:label="1">
    <path
       id="path1"
       d="m 2.6140625,-5.3804643 v 5.37917517 h 1.546875 V -7.8063669 H 3.1414063 c -0.2460938,0.9258276 -1.0546875,1.4063204 -2.39062505,1.4063204 v 1.0195822 z M 64.878711,-64.308215 h -4.171875 l -0.691406,4.347873 h 1.382812 c 0.175781,-0.386738 0.527344,-0.597686 0.996094,-0.597686 0.785156,0 1.253906,0.562528 1.253906,1.511795 0,0.914108 -0.46875,1.476636 -1.253906,1.476636 -0.667969,0 -1.042969,-0.339861 -1.078125,-0.972705 h -1.523438 c 0.02344,1.371162 1.054688,2.29699 2.578125,2.29699 1.675782,0 2.8125,-1.148495 2.8125,-2.836079 0,-1.605549 -0.984375,-2.695448 -2.425781,-2.695448 -0.515625,0 -0.902344,0.128913 -1.359375,0.480493 l 0.257813,-1.628988 h 3.222656 z m 0,0"
       style="fill:#231f20;fill-opacity:1;fill-rule:nonzero;stroke:none"
       aria-label="1&#10;5"
       transform="matrix(1.3333333,0,0,1.3332667,355.23333,255.74)" />
    <path
       id="path2"
       d="m 2811.25,2424.25 953,1"
       style="fill:none;stroke:#231f20;stroke-width:15;stroke-linecap:butt;stroke-linejoin:miter;stroke-miterlimit:3.8637;stroke-dasharray:none;stroke-opacity:1"
       transform="matrix(0.13333333,0,0,-0.13333333,0,381.24)" />
    <path
       id="path3"
       d="m 2806.25,491.25 v 1936"
       style="fill:none;stroke:#231f20;stroke-width:15;stroke-linecap:butt;stroke-linejoin:miter;stroke-miterlimit:3.8637;stroke-dasharray:none;stroke-opacity:1"
       transform="matrix(0.13333333,0,0,-0.13333333,0,381.24)" />
    <path
       id="path4"
       d="m 3770.25,494.25 v 1935"
       style="fill:none;stroke:#231f20;stroke-width:15;stroke-linecap:butt;stroke-linejoin:miter;stroke-miterlimit:3.8637;stroke-dasharray:none;stroke-opacity:1"
       transform="matrix(0.13333333,0,0,-0.13333333,0,381.24)" />
    <path
       id="path5"
       d="m 2811.25,1455.25 953,1"
       style="fill:none;stroke:#231f20;stroke-width:15;stroke-linecap:butt;stroke-linejoin:miter;stroke-miterlimit:3.8637;stroke-dasharray:none;stroke-opacity:1"
       transform="matrix(0.13333333,0,0,-0.13333333,0,381.24)" />
    <path
       id="path6"
       d="m 3741.25,493.25 v 0 c 0.3,16.133 13.5,29.332 30,29 v 0 c 16.06,0.332 29.26,-12.867 29,-29 v 0 c 0.26,-16.43 -12.94,-29.629 -29,-30 v 0 c -16.5,0.371 -29.7,13.57 -30,30"
       style="fill:#231f20;fill-opacity:1;fill-rule:evenodd;stroke:none"
       transform="matrix(0.13333333,0,0,-0.13333333,0,381.24)" />
    <path
       id="path7"
       d="m 3741.25,493.25 v 0 c 0.3,16.133 13.5,29.332 30,29 v 0 c 16.06,0.332 29.26,-12.867 29,-29 v 0 c 0.26,-16.43 -12.94,-29.629 -29,-30 v 0 c -16.5,0.371 -29.7,13.57 -30,30 z"
       style="fill:none;stroke:#231f20;stroke-width:15;stroke-linecap:butt;stroke-linejoin:miter;stroke-miterlimit:3.8637;stroke-dasharray:none;stroke-opacity:1"
       transform="matrix(0.13333333,0,0,-0.13333333,0,381.24)" />
    <path
       id="path8"
       d="m 2774.25,491.25 v 0 c 0.03,16.008 13.23,29.207 30,29 v 0 c 15.79,0.207 28.99,-12.992 29,-29 v 0 c -0.01,-16.555 -13.21,-29.754 -29,-30 v 0 c -16.77,0.246 -29.97,13.445 -30,30"
       style="fill:#231f20;fill-opacity:1;fill-rule:evenodd;stroke:none"
       transform="matrix(0.13333333,0,0,-0.13333333,0,381.24)" />
    <path
       id="path9"
       d="m 2774.25,491.25 v 0 c 0.03,16.008 13.23,29.207 30,29 v 0 c 15.79,0.207 28.99,-12.992 29,-29 v 0 c -0.01,-16.555 -13.21,-29.754 -29,-30 v 0 c -16.77,0.246 -29.97,13.445 -30,30 z"
       style="fill:none;stroke:#231f20;stroke-width:15;stroke-linecap:butt;stroke-linejoin:miter;stroke-miterlimit:3.8637;stroke-dasharray:none;stroke-opacity:1"
       transform="matrix(0.13333333,0,0,-0.13333333,0,381.24)" />
    <path
       id="path10"
       d="m 3770.25,1457.25 -963,-966"
       style="fill:none;stroke:#231f20;stroke-width:15;stroke-linecap:butt;stroke-linejoin:miter;stroke-miterlimit:3.8637;stroke-dasharray:none;stroke-opacity:1"
       transform="matrix(0.13333333,0,0,-0.13333333,0,381.24)" />
    <path
       id="path11"
       d="m 2808.25,1456.25 960,-963"
       style="fill:none;stroke:#231f20;stroke-width:15;stroke-linecap:butt;stroke-linejoin:miter;stroke-miterlimit:3.8637;stroke-dasharray:none;stroke-opacity:1"
       transform="matrix(0.13333333,0,0,-0.13333333,0,381.24)" />
    <path
       id="path12"
       d="m 3768.25,2426.25 -961,-971"
       style="fill:none;stroke:#231f20;stroke-width:15;stroke-linecap:butt;stroke-linejoin:miter;stroke-miterlimit:3.8637;stroke-dasharray:none;stroke-opacity:1"
       transform="matrix(0.13333333,0,0,-0.13333333,0,381.24)" />
    <path
       id="path13"
       d="m 2808.25,2423.25 960,-968"
       style="fill:none;stroke:#231f20;stroke-width:15;stroke-linecap:butt;stroke-linejoin:miter;stroke-miterlimit:3.8637;stroke-dasharray:none;stroke-opacity:1"
       transform="matrix(0.13333333,0,0,-0.13333333,0,381.24)" />
    <path
       id="path14"
       d="m 2.3919922,-3.4936512 c 0.5859375,0 0.6210937,0 0.9023437,0.082035 0.515625,0.140632 0.84375,0.5976861 0.84375,1.1602143 0,0.7031601 -0.4804687,1.1836529 -1.1601562,1.1836529 -0.7265625,0 -1.1132813,-0.4218961 -1.1601563,-1.2188109 H 0.31777344 c 0.0117188,1.55867164 1.03124996,2.54309586 2.63671876,2.54309586 1.6523437,0 2.7304687,-0.98442422 2.7304687,-2.50793786 0,-0.9023889 -0.3984375,-1.500075 -1.2773437,-1.9336905 0.7148437,-0.4453347 1.0195312,-0.9492662 1.0195312,-1.6641457 0,-1.2891269 -0.9726562,-2.1211998 -2.4726562,-2.1211998 -1.1367188,0 -2.00390626,0.4922121 -2.34375001,1.3477237 -0.15234375,0.3750187 -0.1875,0.6211248 -0.1875,1.2774076 H 1.8529297 c 0.011719,-0.4218961 0.046875,-0.6328442 0.1171875,-0.8320729 0.140625,-0.3398607 0.4921875,-0.5508088 0.9492187,-0.5508088 0.609375,0 0.9609375,0.3750188 0.9609375,1.0313016 0,0.7851955 -0.4453125,1.1719336 -1.359375,1.1719336 H 2.3919922 Z M -113.46543,-97.775709 h -3.31641 c 0.21094,-0.421896 0.45704,-0.656283 1.59375,-1.476636 1.35938,-0.996145 1.75782,-1.570395 1.75782,-2.648575 0,-1.50007 -1.05469,-2.47277 -2.6836,-2.47277 -1.61718,0 -2.55468,0.96098 -2.55468,2.61341 v 0.26954 h 1.47656 v -0.2461 c 0,-0.87895 0.41015,-1.38289 1.11328,-1.38289 0.67969,0 1.10156,0.4805 1.10156,1.25397 0,0.86723 -0.25781,1.19538 -2.0039,2.425905 -1.3125,0.902389 -1.72266,1.582111 -1.79297,3.035308 h 5.30859 z M 5.740625,-99.404697 H 4.9320313 v -4.804923 H 3.115625 l -2.84765625,4.781485 v 1.300846 H 3.3851563 v 1.722742 h 1.546875 v -1.722742 H 5.740625 Z m -2.3554687,0 H 1.3460938 l 2.0390625,-3.340013 z M -54.02207,-158.94185 c -0.08203,-0.50393 -0.175782,-0.75004 -0.375,-1.04302 -0.410157,-0.56253 -1.125,-0.89067 -1.96875,-0.89067 -0.972657,0 -1.757813,0.43361 -2.238282,1.20709 -0.457031,0.76176 -0.644531,1.62899 -0.644531,3.05874 0,1.33601 0.164063,2.16808 0.5625,2.80093 0.445313,0.7266 1.265625,1.16021 2.191406,1.16021 1.546875,0 2.601563,-1.16021 2.601563,-2.87124 0,-1.48835 -0.925781,-2.53137 -2.261719,-2.53137 -0.644531,0 -1.066406,0.18751 -1.546875,0.70316 v -0.16407 c 0.02344,-0.7266 0.05859,-0.96099 0.175781,-1.25397 0.199219,-0.57425 0.574219,-0.86723 1.113282,-0.86723 0.503906,0 0.761718,0.19922 0.960937,0.69144 z m -2.519532,2.1212 c 0.726563,0 1.183594,0.55081 1.183594,1.41804 0,0.82035 -0.503906,1.42976 -1.183594,1.42976 -0.703125,0 -1.183593,-0.57425 -1.183593,-1.40632 0,-0.85552 0.480468,-1.44148 1.183593,-1.44148 z m 0,0"
       style="fill:#231f20;fill-opacity:1;fill-rule:nonzero;stroke:none"
       aria-label="3&#10;24&#10;6"
       transform="matrix(1.3333333,0,0,1.3332667,514.03333,255.74)" />
    <path
       id="path15"
       d="M 5.8185221,-7.8061769 H 0.31634742 v 1.3921697 H 4.210959 C 3.7303473,-5.9168038 2.8022697,-4.5080607 2.4873862,-3.8285494 1.9404833,-2.6849814 1.6753183,-1.6574277 1.4598717,-8.286724e-5 H 3.0177163 C 3.1502988,-2.4529532 3.9623668,-4.3588997 5.8185221,-6.5797417 Z M 72.743693,-72.765806 c 0.265165,-0.149161 0.381175,-0.215455 0.497184,-0.331469 0.314884,-0.298322 0.497185,-0.762379 0.497185,-1.292729 0,-1.209862 -1.044087,-2.104828 -2.485922,-2.104828 -1.458408,0 -2.519068,0.894966 -2.519068,2.121401 0,0.745805 0.314883,1.226435 1.027514,1.607625 -0.911505,0.497203 -1.276107,1.077274 -1.276107,1.988813 0,1.475037 1.126952,2.519165 2.767661,2.519165 1.624136,0 2.76766,-1.044128 2.76766,-2.519165 0,-0.911539 -0.381175,-1.49161 -1.276107,-1.988813 z m -1.491553,-2.486017 c 0.679485,0 1.160097,0.430909 1.160097,1.027553 0,0.596644 -0.480612,1.027554 -1.160097,1.027554 -0.679486,0 -1.160097,-0.43091 -1.160097,-1.027554 0,-0.596644 0.480611,-1.027553 1.160097,-1.027553 z m -0.01657,3.099234 c 0.762349,0 1.242961,0.497204 1.242961,1.325876 0,0.745805 -0.497185,1.243009 -1.242961,1.243009 -0.745777,0 -1.226389,-0.497204 -1.226389,-1.276156 0,-0.795525 0.480612,-1.292729 1.226389,-1.292729 z m 0,0"
       style="fill:#231f20;fill-opacity:1;fill-rule:nonzero;stroke:none"
       aria-label="7&#10;8"
       transform="matrix(0.94280904,-0.94280904,0.94277304,0.94277304,402.16667,276.67333)" />
    <path
       id="path16"
       d="m 3739.25,1458.25 v 0 c 0.17,16.29 13.37,29.49 30,29 v 0 c 15.93,0.49 29.13,-12.71 29,-29 v 0 c 0.13,-16.27 -13.07,-29.47 -29,-29 v 0 c -16.63,-0.47 -29.83,12.73 -30,29"
       style="fill:#231f20;fill-opacity:1;fill-rule:evenodd;stroke:none"
       transform="matrix(0.13333333,0,0,-0.13333333,0,381.24)" />
    <path
       id="path17"
       d="m 3739.25,1458.25 v 0 c 0.17,16.29 13.37,29.49 30,29 v 0 c 15.93,0.49 29.13,-12.71 29,-29 v 0 c 0.13,-16.27 -13.07,-29.47 -29,-29 v 0 c -16.63,-0.47 -29.83,12.73 -30,29 z"
       style="fill:none;stroke:#231f20;stroke-width:15;stroke-linecap:butt;stroke-linejoin:miter;stroke-miterlimit:3.8637;stroke-dasharray:none;stroke-opacity:1"
       transform="matrix(0.13333333,0,0,-0.13333333,0,381.24)" />
    <path
       id="path18"
       d="m 2776.25,1456.25 v 0 c 0.16,16.16 13.36,29.36 30,29 v 0 c 15.92,0.36 29.12,-12.84 29,-29 v 0 c 0.12,-16.4 -13.08,-29.6 -29,-30 v 0 c -16.64,0.4 -29.84,13.6 -30,30"
       style="fill:#231f20;fill-opacity:1;fill-rule:evenodd;stroke:none"
       transform="matrix(0.13333333,0,0,-0.13333333,0,381.24)" />
    <path
       id="path19"
       d="m 2776.25,1456.25 v 0 c 0.16,16.16 13.36,29.36 30,29 v 0 c 15.92,0.36 29.12,-12.84 29,-29 v 0 c 0.12,-16.4 -13.08,-29.6 -29,-30 v 0 c -16.64,0.4 -29.84,13.6 -30,30 z"
       style="fill:none;stroke:#231f20;stroke-width:15;stroke-linecap:butt;stroke-linejoin:miter;stroke-miterlimit:3.8637;stroke-dasharray:none;stroke-opacity:1"
       transform="matrix(0.13333333,0,0,-0.13333333,0,381.24)" />
    <path
       id="path20"
       d="m 2779.25,2429.25 v 0 c -0.48,16.54 12.71,29.73 29,30 v 0 c 16.28,-0.27 29.48,-13.46 29,-30 v 0 c 0.48,-16.03 -12.72,-29.23 -29,-29 v 0 c -16.29,-0.23 -29.48,12.97 -29,29"
       style="fill:#231f20;fill-opacity:1;fill-rule:evenodd;stroke:none"
       transform="matrix(0.13333333,0,0,-0.13333333,0,381.24)" />
    <path
       id="path21"
       d="m 2779.25,2429.25 v 0 c -0.48,16.54 12.71,29.73 29,30 v 0 c 16.28,-0.27 29.48,-13.46 29,-30 v 0 c 0.48,-16.03 -12.72,-29.23 -29,-29 v 0 c -16.29,-0.23 -29.48,12.97 -29,29 z"
       style="fill:none;stroke:#231f20;stroke-width:15;stroke-linecap:butt;stroke-linejoin:miter;stroke-miterlimit:3.8637;stroke-dasharray:none;stroke-opacity:1"
       transform="matrix(0.13333333,0,0,-0.13333333,0,381.24)" />
    <path
       id="path22"
       d="m 0.41492805,-1.8241289 c 0.0331456,1.20986167 1.04408735,2.08825442 2.38648535,2.08825442 1.0109418,0 1.7732913,-0.4143362 2.2207573,-1.20986171 0.4143204,-0.69608481 0.6629126,-1.87279961 0.6629126,-3.11580821 0,-1.1601414 -0.182301,-2.0385341 -0.5469029,-2.6351782 -0.4971845,-0.8286724 -1.259534,-1.2761555 -2.2041844,-1.2761555 -1.5578447,0 -2.63507766,1.1269944 -2.63507766,2.7511923 0,1.6076245 0.96122326,2.7180455 2.33676696,2.7180455 0.3977475,0 0.7789223,-0.1160141 1.0275145,-0.2983221 0.1325825,-0.099441 0.2154466,-0.1823079 0.4806117,-0.48063 0,1.5081838 -0.4308932,2.2208421 -1.2926796,2.2208421 -0.5469029,0 -0.9115049,-0.2817486 -0.9446505,-0.7623786 z M 2.9008503,-6.7132961 c 0.7457767,0 1.1932427,0.5634972 1.1932427,1.4916103 0,0.8618193 -0.4640388,1.44189 -1.1766699,1.44189 -0.6960582,0 -1.1435242,-0.5634972 -1.1435242,-1.4584634 0,-0.9115397 0.4308932,-1.4750369 1.1269514,-1.4750369 z m 5.5684659,5.104622 H 6.8120347 v 1.60762445 H 8.4693162 Z M -72.335587,-73.83576 v 5.38637 h 1.541271 v -7.806094 h -1.010941 c -0.248593,0.928113 -1.06066,1.408743 -2.403059,1.408743 v 1.010981 z m 6.498615,-2.58753 c -0.828641,0 -1.541272,0.348042 -2.021884,1.01098 -0.447466,0.596644 -0.662912,1.591051 -0.662912,3.099235 0,1.408743 0.182301,2.35343 0.546903,2.966647 0.480611,0.745805 1.226388,1.160142 2.137893,1.160142 0.861786,0 1.541272,-0.364616 2.021883,-1.010981 0.447466,-0.596644 0.662913,-1.591051 0.662913,-3.066088 0,-1.425316 -0.182301,-2.40315 -0.546903,-2.999794 -0.464039,-0.745805 -1.226388,-1.160141 -2.137893,-1.160141 z m 0,1.243009 c 0.397747,0 0.712631,0.232028 0.894932,0.629791 0.165728,0.331469 0.248592,1.176714 0.248592,2.253989 0,0.878392 -0.08286,1.740212 -0.198874,2.071681 -0.165728,0.447483 -0.497184,0.712658 -0.94465,0.712658 -0.397748,0 -0.712631,-0.215455 -0.894932,-0.613218 -0.165728,-0.331469 -0.248592,-1.143568 -0.248592,-2.187695 0,-0.91154 0.08286,-1.806506 0.198873,-2.121401 0.165728,-0.48063 0.513758,-0.745805 0.944651,-0.745805 z m 0,0"
       style="fill:#231f20;fill-opacity:1;fill-rule:nonzero;stroke:none"
       aria-label="9.&#10;10"
       transform="matrix(0.94280904,0.94280904,-0.94277304,0.94277304,467.1,270.40667)" />
    <path
       id="path23"
       d="m 2249.25,2501.25 c 28.97,66.28 95.06,112.74 172,113 103.3,-0.26 186.92,-80.23 187,-184"
       style="fill:none;stroke:#231f20;stroke-width:2.5;stroke-linecap:butt;stroke-linejoin:miter;stroke-miterlimit:3.8637;stroke-dasharray:none;stroke-opacity:1"
       transform="matrix(0.13333333,0,0,-0.13333333,0,381.24)" />
    <path
       id="path24"
       d="m 2250.25,2503.25 14,-6 -28,-28 v 40 l 14,-6"
       style="fill:#231f20;fill-opacity:1;fill-rule:evenodd;stroke:none"
       transform="matrix(0.13333333,0,0,-0.13333333,0,381.24)" />
    <path
       id="path25"
       d="m 2428.25,2687.25 v -259"
       style="fill:none;stroke:#231f20;stroke-width:2.5;stroke-linecap:butt;stroke-linejoin:miter;stroke-miterlimit:3.8637;stroke-dasharray:none;stroke-opacity:1"
       transform="matrix(0.13333333,0,0,-0.13333333,0,381.24)" />
    <path
       id="path26"
       d="m 2428.25,2685.25 h -15 l 15,37 15,-37 h -15"
       style="fill:#231f20;fill-opacity:1;fill-rule:evenodd;stroke:none"
       transform="matrix(0.13333333,0,0,-0.13333333,0,381.24)" />
    <path
       id="path27"
       d="m 2428.25,2428.25 h 259"
       style="fill:none;stroke:#231f20;stroke-width:2.5;stroke-linecap:butt;stroke-linejoin:miter;stroke-miterlimit:3.8637;stroke-dasharray:none;stroke-opacity:1"
       transform="matrix(0.13333333,0,0,-0.13333333,0,381.24)" />
    <path
       id="path28"
       d="m 2685.25,2428.25 v 15 l 37,-15 -37,-15 v 15"
       style="fill:#231f20;fill-opacity:1;fill-rule:evenodd;stroke:none"
       transform="matrix(0.13333333,0,0,-0.13333333,0,381.24)" />
    <path
       id="path29"
       d="M 0.54042969,0.00144538 H 3.6107422 v -0.1640707 h -0.1875 c -0.5390625,0 -0.7617188,-0.10547402 -0.7617188,-0.35158008 0,-0.10547402 0.035156,-0.26954472 0.140625,-0.5742475 0.011719,-0.082035 0.023437,-0.1289127 0.058594,-0.246106 l 1.5703125,-5.7073166 c 0.058594,-0.1992287 0.070312,-0.2578254 0.070312,-0.3164221 0,-0.046877 -0.023437,-0.082035 -0.058594,-0.082035 0,0 -0.3046875,0.058597 -0.9023437,0.17579 l -0.984375,0.1992287 c -0.023437,0.011719 -0.1054688,0.023439 -0.234375,0.046877 v 0.1640707 l 0.6328125,-0.023439 c 0.2460937,-0.011719 0.4101562,0.1171933 0.4101562,0.3398607 0,0.082035 -0.023437,0.1523514 -0.070312,0.3750188 L 1.7708984,-0.74859212 C 1.6419922,-0.33841536 1.4076172,-0.23294133 0.54042969,-0.15090598 Z M 7.4574219,-6.2332413 c 0.3867187,-0.5273702 0.7617187,-0.7383182 1.21875,-0.7383182 0.5976562,0 0.984375,0.3867381 0.984375,0.9961436 0,0.4687734 -0.234375,0.8555115 -0.703125,1.1836529 -0.4804688,0.3164221 -0.9492188,0.4804928 -1.921875,0.6445635 v 0.17579 c 0.6210937,0 0.7265625,0.011719 1.0195312,0.105474 0.6679688,0.2578254 1.0195313,0.8555115 1.0195313,1.7344617 0,0.3867381 -0.082031,0.7851956 -0.234375,1.0430209 -0.2578125,0.44533481 -0.75,0.75003754 -1.2070313,0.75003754 -0.2109375,0 -0.4453125,-0.10547402 -0.7851562,-0.35158008 -0.3164063,-0.23438671 -0.4921875,-0.30470273 -0.703125,-0.30470273 -0.3046875,0 -0.4804688,0.15235137 -0.4804688,0.42189609 0,0.4218961 0.4453125,0.65628282 1.2304688,0.65628282 0.6210937,0 1.1953125,-0.15235137 1.640625,-0.41017676 0.8671875,-0.50393145 1.4179687,-1.42975898 1.4179687,-2.41418318 0,-0.7969149 -0.3164062,-1.3008463 -1.0429687,-1.6407071 v -0.035158 c 1.3242191,-0.5156507 1.7109371,-0.8789502 1.7109371,-1.6289877 0,-0.7969148 -0.6562496,-1.3946009 -1.5468746,-1.3946009 -0.7617188,0 -1.4414063,0.4336154 -1.7929688,1.1484949 z M -17.260352,-18.802229 h 3.070313 V -18.9663 h -0.1875 c -0.539063,0 -0.761719,-0.105474 -0.761719,-0.35158 0,-0.105474 0.03516,-0.269545 0.140625,-0.574247 0.01172,-0.08204 0.02344,-0.128913 0.05859,-0.246106 l 1.570312,-5.707317 c 0.05859,-0.199229 0.07031,-0.257825 0.07031,-0.316422 0,-0.04688 -0.02344,-0.08204 -0.05859,-0.08204 0,0 -0.304687,0.0586 -0.902344,0.17579 l -0.984375,0.199228 c -0.02344,0.01172 -0.105468,0.02344 -0.234375,0.04688 v 0.16407 l 0.632813,-0.02344 c 0.246094,-0.01172 0.410156,0.117193 0.410156,0.33986 0,0.08204 -0.02344,0.152352 -0.07031,0.375019 l -1.523438,5.414333 c -0.128906,0.410177 -0.363281,0.515651 -1.230469,0.597687 z m 9.9404301,-2.64857 h -1.0429687 l 1.3359375,-4.793208 h -0.4570313 l -4.5820316,4.746331 -0.222656,0.738318 h 2.8828126 l -0.5390625,1.957129 h 0.8671875 l 0.5039063,-1.933691 h 1.1015625 z m -1.9335937,0 h -2.3320314 v -0.04688 l 3.3398439,-3.504082 h 0.046875 z M -36.760352,8.5008938 h 3.070313 V 8.3368231 h -0.1875 c -0.539063,0 -0.761719,-0.1054741 -0.761719,-0.3515801 0,-0.105474 0.03516,-0.2695447 0.140625,-0.5742475 0.01172,-0.082035 0.02344,-0.1289127 0.05859,-0.246106 l 1.570312,-5.7073166 c 0.05859,-0.1992287 0.07031,-0.2578254 0.07031,-0.3164221 0,-0.046877 -0.02344,-0.082035 -0.05859,-0.082035 0,0 -0.304687,0.058597 -0.902344,0.17579 l -0.984375,0.1992287 c -0.02344,0.011719 -0.105468,0.023439 -0.234375,0.046877 v 0.1640708 l 0.632813,-0.023439 c 0.246094,-0.011719 0.410156,0.1171933 0.410156,0.3398607 0,0.082035 -0.02344,0.1523514 -0.07031,0.3750188 l -1.523438,5.4143332 c -0.128906,0.4101767 -0.363281,0.5156508 -1.230469,0.5976861 z m 7.573243,-6.5511088 h 2.53125 l 0.257812,-0.7734762 h -2.8125 l -1.148437,2.3907445 V 3.731124 c 1.066406,0.2343868 1.429687,0.3632995 1.828125,0.6914409 0.351562,0.281264 0.585937,0.8320728 0.585937,1.4180396 0,1.1953723 -0.890625,2.2735512 -1.886719,2.2735512 -0.234375,0 -0.433593,-0.082035 -0.75,-0.3164221 -0.269531,-0.210948 -0.433593,-0.2929834 -0.609375,-0.2929834 -0.257812,0 -0.445312,0.1875094 -0.445312,0.4453348 0,0.3984574 0.433594,0.6328441 1.171875,0.6328441 1.816406,0 3.269531,-1.4180396 3.269531,-3.1642207 0,-0.6797215 -0.246094,-1.2656883 -0.726562,-1.711023 -0.410157,-0.3867381 -0.796875,-0.5625281 -1.6875,-0.7851955 z M 8.6058594,89.285206 8.5472656,89.179732 H 4.4105469 l -0.890625,1.488356 0.1640625,0.105474 c 0.5039062,-0.621125 0.8085937,-0.785196 1.453125,-0.796915 h 2.4492187 l 0.023437,0.03516 -4.0429687,6.586267 h 0.773438 z M -11.480078,73.396717 c 1.3125,-0.421897 1.8046874,-0.902389 1.8046874,-1.675866 0,-0.914108 -0.8085934,-1.558671 -1.9218754,-1.558671 -1.183593,0 -1.980468,0.679721 -1.980468,1.652426 0,0.597686 0.210937,1.019582 0.949218,1.828217 -1.382812,0.445334 -2.144531,1.218811 -2.144531,2.191515 0,0.292984 0.09375,0.621125 0.257813,0.902389 0.363281,0.621125 1.019531,0.949266 1.933593,0.949266 1.359375,0 2.367188,-0.855511 2.367188,-1.980567 0,-0.738318 -0.328125,-1.336005 -1.265625,-2.308709 z m -0.902344,0.421896 c 1.207031,1.253969 1.335938,1.453197 1.335938,2.074322 0,0.902389 -0.621094,1.546952 -1.488282,1.546952 -0.867187,0 -1.488281,-0.644563 -1.488281,-1.546952 0,-0.902389 0.597656,-1.664146 1.640625,-2.074322 z m 0.703125,-0.609406 c -0.855469,-0.808634 -1.042969,-1.089898 -1.042969,-1.546952 0,-0.773476 0.421875,-1.24225 1.125,-1.24225 0.703125,0 1.171875,0.515651 1.171875,1.300846 0,0.691441 -0.292968,1.043021 -1.253906,1.488356 z m -24.662109,32.483073 c 1.476562,-0.25783 2.214844,-0.55081 3.128906,-1.26569 1.277344,-1.00786 2.027344,-2.47278 2.027344,-3.96114 0,-1.453195 -0.796875,-2.402461 -1.992188,-2.402461 -1.382812,0 -2.660156,1.40632 -2.660156,2.953271 0,1.1485 0.679688,1.96885 1.652344,1.96885 0.445312,0 0.832031,-0.12891 1.417969,-0.49221 l 0.04687,0.0234 c -0.1875,0.50393 -0.738282,1.21881 -1.417969,1.82821 -0.796875,0.67972 -1.335938,0.96099 -2.203125,1.1485 z m 3.246094,-7.336308 c 0.679687,0 1.089843,0.53909 1.089843,1.453198 0,0.85551 -0.28125,1.87509 -0.609375,2.19152 -0.28125,0.29298 -0.738281,0.48049 -1.160156,0.48049 -0.703125,0 -1.101562,-0.55081 -1.101562,-1.53523 0,-0.80864 0.328125,-1.687589 0.796875,-2.179801 0.269531,-0.269545 0.609375,-0.410177 0.984375,-0.410177 z M 3.2386719,192.9105 h 3.0703125 v -0.16407 h -0.1875 c -0.5390625,0 -0.7617188,-0.10547 -0.7617188,-0.35158 0,-0.10547 0.035156,-0.26954 0.140625,-0.57424 0.011719,-0.082 0.023437,-0.12892 0.058594,-0.24611 l 1.5703125,-5.70732 c 0.058594,-0.19923 0.070312,-0.25782 0.070312,-0.31642 0,-0.0469 -0.023437,-0.082 -0.058594,-0.082 0,0 -0.3046875,0.0586 -0.9023437,0.17579 l -0.984375,0.19922 c -0.023437,0.0117 -0.1054688,0.0234 -0.234375,0.0469 v 0.16407 l 0.6328125,-0.0234 c 0.2460937,-0.0117 0.4101562,0.1172 0.4101562,0.33986 0,0.082 -0.023437,0.15236 -0.070312,0.37502 l -1.5234375,5.41434 c -0.1289062,0.41017 -0.3632812,0.51565 -1.2304687,0.59768 z M -10.694922,172.47491 c -0.257812,0.53909 -0.480469,0.67972 -1.089844,0.70316 h -2.097656 v -0.0586 l 2.121094,-2.10948 c 1.277344,-1.28913 1.628906,-1.83994 1.628906,-2.57826 0,-1.04302 -0.773437,-1.86337 -1.78125,-1.86337 -0.386719,0 -0.796875,0.10547 -1.125,0.29298 -0.5625,0.3047 -0.867187,0.67972 -1.183594,1.46492 l 0.234375,0.082 c 0.410157,-0.71488 0.878907,-1.0313 1.535157,-1.0313 0.796875,0 1.382812,0.57425 1.382812,1.33601 0,0.23438 -0.03516,0.44533 -0.105469,0.58596 -0.257812,0.59769 -0.773437,1.28913 -1.488281,2.06261 l -2.308594,2.46106 v 0.18751 h 3.914063 l 0.550781,-1.4532 z m -23.947265,24.10082 c 0.386718,-0.52737 0.761718,-0.73832 1.21875,-0.73832 0.597656,0 0.984375,0.38674 0.984375,0.99614 0,0.46878 -0.234375,0.85551 -0.703125,1.18366 -0.480469,0.31642 -0.949219,0.48049 -1.921875,0.64456 v 0.17579 c 0.621093,0 0.726562,0.0117 1.019531,0.10547 0.667969,0.25783 1.019531,0.85551 1.019531,1.73446 0,0.38674 -0.08203,0.7852 -0.234375,1.04303 -0.257812,0.44533 -0.75,0.75003 -1.207031,0.75003 -0.210938,0 -0.445313,-0.10547 -0.785156,-0.35158 -0.316407,-0.23438 -0.492188,-0.3047 -0.703125,-0.3047 -0.304688,0 -0.480469,0.15235 -0.480469,0.4219 0,0.42189 0.445312,0.65628 1.230469,0.65628 0.621093,0 1.195312,-0.15235 1.640625,-0.41018 0.867187,-0.50393 1.417968,-1.42976 1.417968,-2.41418 0,-0.79692 -0.316406,-1.30085 -1.042968,-1.64071 v -0.0352 c 1.324218,-0.51565 1.710937,-0.87895 1.710937,-1.62898 0,-0.79692 -0.65625,-1.3946 -1.546875,-1.3946 -0.761719,0 -1.441406,0.43361 -1.792969,1.14849 z M 159.93887,-0.1010988 h 3.07031 v -0.16407071 h -0.1875 c -0.53906,0 -0.76172,-0.10547402 -0.76172,-0.35158008 0,-0.10547402 0.0352,-0.26954472 0.14063,-0.57424741 0.0117,-0.082035 0.0234,-0.1289127 0.0586,-0.2461061 l 1.57031,-5.7073166 c 0.0586,-0.1992287 0.0703,-0.2578254 0.0703,-0.3164221 0,-0.046877 -0.0234,-0.082035 -0.0586,-0.082035 0,0 -0.30469,0.058597 -0.90234,0.17579 l -0.98438,0.1992287 c -0.0234,0.011719 -0.10547,0.023439 -0.23437,0.046877 v 0.1640707 l 0.63281,-0.023439 c 0.24609,-0.011719 0.41016,0.1171934 0.41016,0.3398607 0,0.082035 -0.0234,0.1523514 -0.0703,0.3750188 l -1.52343,5.4143332 c -0.12891,0.41017675 -0.36329,0.51565078 -1.23047,0.59768613 z m 10.68164,-7.5472523 c -1.47656,0.17579 -2.20313,0.4336154 -3.15235,1.1367755 -1.39453,1.0313016 -2.23828,2.5899733 -2.23828,4.1603643 0,1.41803964 0.79688,2.33214785 2.01563,2.33214785 1.47656,0 2.73047,-1.40632035 2.73047,-3.05874665 0,-1.1250563 -0.78516,-1.9454098 -1.875,-1.9454098 -0.30469,0 -0.66797,0.093755 -0.96094,0.2343867 l -0.0469,-0.023439 c 0.76172,-1.3946009 2.25,-2.5079378 3.53907,-2.6602892 z m -2.8711,3.0235886 c 0.76172,0 1.24219,0.5508088 1.24219,1.394601 0,0.7500375 -0.25781,1.6172684 -0.66797,2.1915158 -0.32812,0.49221213 -0.71484,0.72659885 -1.18359,0.72659885 -0.67969,0 -1.06641,-0.53908945 -1.06641,-1.44147835 0,-0.7500375 0.21094,-1.6641457 0.50391,-2.1446384 0.29297,-0.5039315 0.65625,-0.7265989 1.17187,-0.7265989 z M 142.83828,-18.901843 h 3.07031 v -0.164071 h -0.1875 c -0.53906,0 -0.76171,-0.105474 -0.76171,-0.35158 0,-0.105474 0.0351,-0.269545 0.14062,-0.574248 0.0117,-0.08204 0.0234,-0.128912 0.0586,-0.246106 l 1.57032,-5.707316 c 0.0586,-0.199229 0.0703,-0.257826 0.0703,-0.316422 0,-0.04688 -0.0234,-0.08204 -0.0586,-0.08204 0,0 -0.30469,0.0586 -0.90235,0.17579 l -0.98437,0.199229 c -0.0234,0.01172 -0.10547,0.02344 -0.23438,0.04688 v 0.164071 l 0.63281,-0.02344 c 0.2461,-0.01172 0.41016,0.117194 0.41016,0.339861 0,0.08204 -0.0234,0.152351 -0.0703,0.375019 l -1.52344,5.414333 c -0.12891,0.410177 -0.36328,0.515651 -1.23047,0.597686 z m 10.86914,-7.219111 -0.0586,-0.105474 h -4.13672 l -0.89063,1.488355 0.16407,0.105474 c 0.5039,-0.621125 0.80859,-0.785195 1.45312,-0.796915 h 2.44922 l 0.0234,0.03516 -4.04297,6.586267 h 0.77344 z m -30.2666,34.5222334 h 3.07031 V 8.2372087 h -0.1875 c -0.53906,0 -0.76172,-0.105474 -0.76172,-0.3515801 0,-0.105474 0.0352,-0.2695447 0.14063,-0.5742474 0.0117,-0.082035 0.0234,-0.1289127 0.0586,-0.2461061 l 1.57032,-5.7073166 c 0.0586,-0.1992287 0.0703,-0.2578254 0.0703,-0.3164221 0,-0.0468773 -0.0234,-0.0820353 -0.0586,-0.0820353 0,0 -0.30468,0.0585967 -0.90234,0.17579 l -0.98437,0.1992287 c -0.0234,0.011719 -0.10547,0.023439 -0.23438,0.046877 v 0.1640707 l 0.63281,-0.023439 c 0.2461,-0.011719 0.41016,0.1171934 0.41016,0.3398608 0,0.082035 -0.0234,0.1523513 -0.0703,0.3750187 l -1.52344,5.4143332 c -0.12891,0.4101768 -0.36328,0.5156508 -1.23047,0.5976862 z m 8.58106,-4.2072416 c 1.3125,-0.4218961 1.80468,-0.9023889 1.80468,-1.675865 0,-0.9141082 -0.80859,-1.5586717 -1.92187,-1.5586717 -1.1836,0 -1.98047,0.6797215 -1.98047,1.6524264 0,0.5976861 0.21094,1.0195822 0.94922,1.8282164 -1.38281,0.4453347 -2.14453,1.2188109 -2.14453,2.1915158 0,0.2929834 0.0937,0.6211248 0.25781,0.9023889 0.36328,0.6211248 1.01953,0.9492662 1.93359,0.9492662 1.35938,0 2.36719,-0.8555116 2.36719,-1.9805678 0,-0.7383182 -0.32812,-1.3360043 -1.26562,-2.3087092 z m -0.90235,0.4218961 c 1.20703,1.253969 1.33594,1.4531977 1.33594,2.0743225 0,0.9023888 -0.62109,1.5469523 -1.48828,1.5469523 -0.86719,0 -1.48828,-0.6445635 -1.48828,-1.5469523 0,-0.9023889 0.59765,-1.6641457 1.64062,-2.0743225 z m 0.70313,-0.6094055 c -0.85547,-0.8086341 -1.04297,-1.0898982 -1.04297,-1.5469523 0,-0.7734762 0.42187,-1.2422496 1.125,-1.2422496 0.70312,0 1.17187,0.5156508 1.17187,1.3008463 0,0.6914408 -0.29297,1.0430209 -1.2539,1.4883556 z m 28.91601,92.2985596 h 3.07031 v -0.16407 h -0.1875 c -0.53906,0 -0.76171,-0.105474 -0.76171,-0.35158 0,-0.105474 0.0352,-0.269545 0.14062,-0.574248 0.0117,-0.08204 0.0234,-0.128912 0.0586,-0.246106 l 1.57032,-5.707316 c 0.0586,-0.199229 0.0703,-0.257826 0.0703,-0.316423 0,-0.04688 -0.0234,-0.08204 -0.0586,-0.08204 0,0 -0.30469,0.0586 -0.90235,0.17579 l -0.98437,0.199229 c -0.0234,0.01172 -0.10547,0.02344 -0.23438,0.04688 v 0.164071 l 0.63281,-0.02344 c 0.2461,-0.01172 0.41016,0.117194 0.41016,0.339861 0,0.08204 -0.0234,0.152351 -0.0703,0.375019 l -1.52344,5.414333 c -0.12891,0.410177 -0.36328,0.515651 -1.23047,0.597686 z m 8.71289,-7.441778 c -1.72265,0 -3.39843,2.507938 -3.39843,5.097911 0,1.453198 0.70312,2.425903 1.76953,2.425903 0.48047,0 0.9375,-0.17579 1.39453,-0.515651 1.11328,-0.808634 1.95703,-2.636851 1.95703,-4.218961 0,-1.746181 -0.65625,-2.789202 -1.72266,-2.789202 z m -0.0586,0.316422 c 0.57422,0 0.91406,0.503932 0.91406,1.382882 0,1.476636 -0.44531,3.293133 -1.07812,4.40647 -0.41016,0.726599 -0.86719,1.101618 -1.3711,1.101618 -0.58593,0 -0.9375,-0.550809 -0.9375,-1.476637 0,-1.183653 0.5625,-3.35173 1.13672,-4.371312 0.41016,-0.70316 0.82031,-1.043021 1.33594,-1.043021 z M 143.23965,77.504344 h 3.07031 v -0.164071 h -0.1875 c -0.53906,0 -0.76172,-0.105474 -0.76172,-0.35158 0,-0.105474 0.0352,-0.269545 0.14063,-0.574247 0.0117,-0.08204 0.0234,-0.128913 0.0586,-0.246107 l 1.57031,-5.707316 c 0.0586,-0.199229 0.0703,-0.257826 0.0703,-0.316422 0,-0.04688 -0.0234,-0.08204 -0.0586,-0.08204 0,0 -0.30469,0.0586 -0.90234,0.17579 l -0.98438,0.199229 c -0.0234,0.01172 -0.10547,0.02344 -0.23437,0.04688 v 0.16407 l 0.63281,-0.02344 c 0.24609,-0.01172 0.41016,0.117193 0.41016,0.33986 0,0.08204 -0.0234,0.152352 -0.0703,0.375019 l -1.52343,5.414333 c -0.12891,0.410177 -0.36328,0.515651 -1.23047,0.597686 z m 4.69922,0 h 3.07031 v -0.164071 h -0.1875 c -0.53906,0 -0.76172,-0.105474 -0.76172,-0.35158 0,-0.105474 0.0352,-0.269545 0.14063,-0.574247 0.0117,-0.08204 0.0234,-0.128913 0.0586,-0.246107 l 1.57031,-5.707316 c 0.0586,-0.199229 0.0703,-0.257826 0.0703,-0.316422 0,-0.04688 -0.0234,-0.08204 -0.0586,-0.08204 0,0 -0.30469,0.0586 -0.90234,0.17579 l -0.98438,0.199229 c -0.0234,0.01172 -0.10547,0.02344 -0.23437,0.04688 v 0.16407 l 0.63281,-0.02344 c 0.24609,-0.01172 0.41016,0.117193 0.41016,0.33986 0,0.08204 -0.0234,0.152352 -0.0703,0.375019 l -1.52343,5.414333 c -0.12891,0.410177 -0.36329,0.515651 -1.23047,0.597686 z m -25.19824,27.900806 h 3.07031 v -0.16407 h -0.1875 c -0.53906,0 -0.76172,-0.10547 -0.76172,-0.35158 0,-0.10547 0.0352,-0.26954 0.14062,-0.57425 0.0117,-0.082 0.0234,-0.12891 0.0586,-0.2461 l 1.57031,-5.707318 c 0.0586,-0.199229 0.0703,-0.257825 0.0703,-0.316422 0,-0.04688 -0.0234,-0.08204 -0.0586,-0.08204 0,0 -0.30469,0.0586 -0.90234,0.175791 l -0.98438,0.199228 c -0.0234,0.01172 -0.10547,0.02344 -0.23437,0.04688 v 0.16407 l 0.63281,-0.02344 c 0.24609,-0.01172 0.41015,0.117193 0.41015,0.33986 0,0.08204 -0.0234,0.152352 -0.0703,0.375019 l -1.52344,5.414342 c -0.1289,0.41017 -0.36328,0.51565 -1.23046,0.59768 z m 9.36621,-1.53523 c -0.25782,0.53909 -0.48047,0.67972 -1.08985,0.70316 h -2.09765 v -0.0586 l 2.12109,-2.10948 c 1.27734,-1.28912 1.62891,-1.83993 1.62891,-2.578251 0,-1.043021 -0.77344,-1.863375 -1.78125,-1.863375 -0.38672,0 -0.79688,0.105475 -1.125,0.292984 -0.5625,0.304703 -0.86719,0.679721 -1.1836,1.464917 l 0.23438,0.08203 c 0.41015,-0.714879 0.8789,-1.031301 1.53515,-1.031301 0.79688,0 1.38282,0.574247 1.38282,1.336006 0,0.23439 -0.0352,0.44534 -0.10547,0.58597 -0.25782,0.59769 -0.77344,1.28913 -1.48828,2.0626 l -2.3086,2.46106 v 0.18751 h 3.91406 l 0.55079,-1.45319 z m 35.77441,86.18986 h -1.04297 l 1.33594,-4.79321 h -0.45703 l -4.58203,4.74633 -0.22266,0.73832 h 2.88281 l -0.53906,1.95713 h 0.86719 l 0.5039,-1.93369 h 1.10157 z m -1.93359,0 h -2.33203 v -0.0469 l 3.33984,-3.50408 h 0.0469 z m -18.23438,-22.70329 h 2.53125 l 0.25781,-0.77347 h -2.8125 l -1.14843,2.39074 v 0.16407 c 1.0664,0.23439 1.42968,0.3633 1.82812,0.69144 0.35156,0.28127 0.58594,0.83208 0.58594,1.41804 0,1.19537 -0.89063,2.27355 -1.88672,2.27355 -0.23437,0 -0.43359,-0.082 -0.75,-0.31642 -0.26953,-0.21095 -0.43359,-0.29298 -0.60937,-0.29298 -0.25782,0 -0.44532,0.18751 -0.44532,0.44533 0,0.39846 0.4336,0.63285 1.17188,0.63285 1.8164,0 3.26953,-1.41804 3.26953,-3.16422 0,-0.67973 -0.24609,-1.26569 -0.72656,-1.71103 -0.41016,-0.38674 -0.79688,-0.56253 -1.6875,-0.78519 z m -17.49316,27.60783 c -1.47657,0.17579 -2.20313,0.43361 -3.15235,1.13677 -1.39453,1.03131 -2.23828,2.58998 -2.23828,4.16037 0,1.41804 0.79688,2.33215 2.01563,2.33215 1.47656,0 2.73047,-1.40632 2.73047,-3.05875 0,-1.12506 -0.78516,-1.94541 -1.875,-1.94541 -0.30469,0 -0.66797,0.0937 -0.96094,0.23439 l -0.0469,-0.0234 c 0.76172,-1.3946 2.25,-2.50794 3.53907,-2.66029 z m -2.8711,3.02359 c 0.76172,0 1.24219,0.55081 1.24219,1.3946 0,0.75004 -0.25781,1.61727 -0.66797,2.19151 -0.32812,0.49222 -0.71484,0.7266 -1.18359,0.7266 -0.67969,0 -1.06641,-0.53909 -1.06641,-1.44148 0,-0.75003 0.21094,-1.66414 0.50391,-2.14463 0.29297,-0.50394 0.65625,-0.7266 1.17187,-0.7266 z m 0,0"
       style="fill:#231f20;fill-opacity:1;fill-rule:nonzero;stroke:none"
       aria-label="13&#10;14&#10;15&#10;7&#10;8&#10;9&#10;1&#10;2&#10;3&#10;16&#10;17&#10;18&#10;10&#10;11&#10;12&#10;4&#10;5&#10;6"
       transform="matrix(1.3333333,0,0,1.3332667,352.03333,52.806667)" />
    <path
       id="path30"
       d="m 2248.25,1529.25 c 28.68,66.25 94.77,112.71 172,113 103.01,-0.29 186.62,-80.27 187,-184"
       style="fill:none;stroke:#231f20;stroke-width:2.5;stroke-linecap:butt;stroke-linejoin:miter;stroke-miterlimit:3.8637;stroke-dasharray:none;stroke-opacity:1"
       transform="matrix(0.13333333,0,0,-0.13333333,0,381.24)" />
    <path
       id="path31"
       d="m 2249.25,1531.25 14,-6 -29,-28 1,40 14,-6"
       style="fill:#231f20;fill-opacity:1;fill-rule:evenodd;stroke:none"
       transform="matrix(0.13333333,0,0,-0.13333333,0,381.24)" />
    <path
       id="path32"
       d="m 2426.25,1715.25 v -259"
       style="fill:none;stroke:#231f20;stroke-width:2.5;stroke-linecap:butt;stroke-linejoin:miter;stroke-miterlimit:3.8637;stroke-dasharray:none;stroke-opacity:1"
       transform="matrix(0.13333333,0,0,-0.13333333,0,381.24)" />
    <path
       id="path33"
       d="m 2426.25,1713.25 h -15 l 15,37 15,-37 h -15"
       style="fill:#231f20;fill-opacity:1;fill-rule:evenodd;stroke:none"
       transform="matrix(0.13333333,0,0,-0.13333333,0,381.24)" />
    <path
       id="path34"
       d="m 2426.25,1456.25 h 260"
       style="fill:none;stroke:#231f20;stroke-width:2.5;stroke-linecap:butt;stroke-linejoin:miter;stroke-miterlimit:3.8637;stroke-dasharray:none;stroke-opacity:1"
       transform="matrix(0.13333333,0,0,-0.13333333,0,381.24)" />
    <path
       id="path35"
       d="m 2684.25,1456.25 v 15 l 37,-15 -37,-15 v 15"
       style="fill:#231f20;fill-opacity:1;fill-rule:evenodd;stroke:none"
       transform="matrix(0.13333333,0,0,-0.13333333,0,381.24)" />
    <path
       id="path36"
       d="m 2249.25,561.25 c 28.71,66.563 94.8,113.023 172,113 103.04,0.023 186.65,-79.945 187,-183"
       style="fill:none;stroke:#231f20;stroke-width:2.5;stroke-linecap:butt;stroke-linejoin:miter;stroke-miterlimit:3.8637;stroke-dasharray:none;stroke-opacity:1"
       transform="matrix(0.13333333,0,0,-0.13333333,0,381.24)" />
    <path
       id="path37"
       d="m 2250.25,563.25 14,-5 -29,-29 1,40 14,-6"
       style="fill:#231f20;fill-opacity:1;fill-rule:evenodd;stroke:none"
       transform="matrix(0.13333333,0,0,-0.13333333,0,381.24)" />
    <path
       id="path38"
       d="m 2428.25,747.25 v -259"
       style="fill:none;stroke:#231f20;stroke-width:2.5;stroke-linecap:butt;stroke-linejoin:miter;stroke-miterlimit:3.8637;stroke-dasharray:none;stroke-opacity:1"
       transform="matrix(0.13333333,0,0,-0.13333333,0,381.24)" />
    <path
       id="path39"
       d="m 2428.25,745.25 h -15 l 15,37 15,-37 h -15"
       style="fill:#231f20;fill-opacity:1;fill-rule:evenodd;stroke:none"
       transform="matrix(0.13333333,0,0,-0.13333333,0,381.24)" />
    <path
       id="path40"
       d="m 2428.25,488.25 h 259"
       style="fill:none;stroke:#231f20;stroke-width:2.5;stroke-linecap:butt;stroke-linejoin:miter;stroke-miterlimit:3.8637;stroke-dasharray:none;stroke-opacity:1"
       transform="matrix(0.13333333,0,0,-0.13333333,0,381.24)" />
    <path
       id="path41"
       d="m 2685.25,488.25 v 15 l 37,-15 -37,-15 v 15"
       style="fill:#231f20;fill-opacity:1;fill-rule:evenodd;stroke:none"
       transform="matrix(0.13333333,0,0,-0.13333333,0,381.24)" />
    <path
       id="path42"
       d="m 3846.25,561.25 c 29.14,66.563 95.23,113.023 172,113 103.47,0.023 187.09,-79.945 187,-183"
       style="fill:none;stroke:#231f20;stroke-width:2.5;stroke-linecap:butt;stroke-linejoin:miter;stroke-miterlimit:3.8637;stroke-dasharray:none;stroke-opacity:1"
       transform="matrix(0.13333333,0,0,-0.13333333,0,381.24)" />
    <path
       id="path43"
       d="m 3847.25,563.25 14,-5 -28,-29 1,40 13,-6"
       style="fill:#231f20;fill-opacity:1;fill-rule:evenodd;stroke:none"
       transform="matrix(0.13333333,0,0,-0.13333333,0,381.24)" />
    <path
       id="path44"
       d="m 4025.25,747.25 v -259"
       style="fill:none;stroke:#231f20;stroke-width:2.5;stroke-linecap:butt;stroke-linejoin:miter;stroke-miterlimit:3.8637;stroke-dasharray:none;stroke-opacity:1"
       transform="matrix(0.13333333,0,0,-0.13333333,0,381.24)" />
    <path
       id="path45"
       d="m 4025.25,745.25 h -15 l 15,37 15,-37 h -15"
       style="fill:#231f20;fill-opacity:1;fill-rule:evenodd;stroke:none"
       transform="matrix(0.13333333,0,0,-0.13333333,0,381.24)" />
    <path
       id="path46"
       d="m 4025.25,488.25 h 260"
       style="fill:none;stroke:#231f20;stroke-width:2.5;stroke-linecap:butt;stroke-linejoin:miter;stroke-miterlimit:3.8637;stroke-dasharray:none;stroke-opacity:1"
       transform="matrix(0.13333333,0,0,-0.13333333,0,381.24)" />
    <path
       id="path47"
       d="m 4282.25,488.25 v 15 l 38,-15 -38,-15 v 15"
       style="fill:#231f20;fill-opacity:1;fill-rule:evenodd;stroke:none"
       transform="matrix(0.13333333,0,0,-0.13333333,0,381.24)" />
    <path
       id="path48"
       d="m 3846.25,1528.25 c 29,66.25 95.09,112.71 172,113 103.33,-0.29 186.95,-80.26 187,-184"
       style="fill:none;stroke:#231f20;stroke-width:2.5;stroke-linecap:butt;stroke-linejoin:miter;stroke-miterlimit:3.8637;stroke-dasharray:none;stroke-opacity:1"
       transform="matrix(0.13333333,0,0,-0.13333333,0,381.24)" />
    <path
       id="path49"
       d="m 3847.25,1530.25 14,-6 -28,-28 v 40 l 14,-6"
       style="fill:#231f20;fill-opacity:1;fill-rule:evenodd;stroke:none"
       transform="matrix(0.13333333,0,0,-0.13333333,0,381.24)" />
    <path
       id="path50"
       d="m 4025.25,1714.25 v -259"
       style="fill:none;stroke:#231f20;stroke-width:2.5;stroke-linecap:butt;stroke-linejoin:miter;stroke-miterlimit:3.8637;stroke-dasharray:none;stroke-opacity:1"
       transform="matrix(0.13333333,0,0,-0.13333333,0,381.24)" />
    <path
       id="path51"
       d="m 4025.25,1712.25 h -15 l 15,37 15,-37 h -15"
       style="fill:#231f20;fill-opacity:1;fill-rule:evenodd;stroke:none"
       transform="matrix(0.13333333,0,0,-0.13333333,0,381.24)" />
    <path
       id="path52"
       d="m 4025.25,1455.25 h 259"
       style="fill:none;stroke:#231f20;stroke-width:2.5;stroke-linecap:butt;stroke-linejoin:miter;stroke-miterlimit:3.8637;stroke-dasharray:none;stroke-opacity:1"
       transform="matrix(0.13333333,0,0,-0.13333333,0,381.24)" />
    <path
       id="path53"
       d="m 4282.25,1455.25 v 15 l 37,-15 -37,-15 v 15"
       style="fill:#231f20;fill-opacity:1;fill-rule:evenodd;stroke:none"
       transform="matrix(0.13333333,0,0,-0.13333333,0,381.24)" />
    <path
       id="path54"
       d="m 3847.25,2500.25 c 28.26,65.91 94.35,112.37 171,112 103.59,0.37 187.2,-79.6 187,-183"
       style="fill:none;stroke:#231f20;stroke-width:2.5;stroke-linecap:butt;stroke-linejoin:miter;stroke-miterlimit:3.8637;stroke-dasharray:none;stroke-opacity:1"
       transform="matrix(0.13333333,0,0,-0.13333333,0,381.24)" />
    <path
       id="path55"
       d="m 3848.25,2502.25 13,-6 -28,-29 1,41 14,-6"
       style="fill:#231f20;fill-opacity:1;fill-rule:evenodd;stroke:none"
       transform="matrix(0.13333333,0,0,-0.13333333,0,381.24)" />
    <path
       id="path56"
       d="m 4025.25,2686.25 v -260"
       style="fill:none;stroke:#231f20;stroke-width:2.5;stroke-linecap:butt;stroke-linejoin:miter;stroke-miterlimit:3.8637;stroke-dasharray:none;stroke-opacity:1"
       transform="matrix(0.13333333,0,0,-0.13333333,0,381.24)" />
    <path
       id="path57"
       d="m 4025.25,2683.25 h -15 l 15,38 15,-38 h -15"
       style="fill:#231f20;fill-opacity:1;fill-rule:evenodd;stroke:none"
       transform="matrix(0.13333333,0,0,-0.13333333,0,381.24)" />
    <path
       id="path58"
       d="m 4025.25,2426.25 h 260"
       style="fill:none;stroke:#231f20;stroke-width:2.5;stroke-linecap:butt;stroke-linejoin:miter;stroke-miterlimit:3.8637;stroke-dasharray:none;stroke-opacity:1"
       transform="matrix(0.13333333,0,0,-0.13333333,0,381.24)" />
    <path
       id="path59"
       d="m 4282.25,2426.25 v 15 l 38,-15 -38,-15 v 15"
       style="fill:#231f20;fill-opacity:1;fill-rule:evenodd;stroke:none"
       transform="matrix(0.13333333,0,0,-0.13333333,0,381.24)" />
    <path
       id="path60"
       d="m 4.8275391,-1.3373737 c -0.1054688,0.1172004 -0.1640625,0.1875207 -0.2695313,0.3281611 -0.2695312,0.36332125 -0.421875,0.48052164 -0.5625,0.48052164 -0.1640625,0 -0.28125,-0.15236051 -0.3632812,-0.49224164 -0.035156,-0.1289204 -0.035156,-0.1523605 -0.046875,-0.1875206 -0.2929688,-1.2306041 -0.4335938,-1.781446 -0.4335938,-1.9572466 0.5390625,-0.9376031 0.9609375,-1.4532848 1.1835938,-1.4532848 0.070312,0 0.1757812,0.03516 0.28125,0.09376 0.1523437,0.08204 0.234375,0.1054804 0.3398437,0.1054804 0.234375,0 0.4101563,-0.1758006 0.4101563,-0.4336415 0,-0.2578408 -0.2109375,-0.4453615 -0.4921875,-0.4453615 -0.5273438,0 -0.9726563,0.4336415 -1.8164063,1.7228458 L 2.9291016,-4.2322233 C 2.7650391,-5.052626 2.6244141,-5.2987469 2.3080078,-5.2987469 c -0.28125,0 -0.6679687,0.1054804 -1.40624999,0.3516012 -0.0703125,0.02344 -0.0703125,0.02344 -0.12890625,0.04688 l 0.046875,0.1875206 C 1.2884766,-4.8416653 1.3705078,-4.8533854 1.4876953,-4.8533854 c 0.3046875,0 0.375,0.1172004 0.5390625,0.8321228 l 0.3515625,1.4767249 -0.984375,1.4064047 c -0.2578125,0.35160118 -0.48046874,0.57428192 -0.60937499,0.57428192 -0.0820313,0 -0.19921875,-0.0351601 -0.31640625,-0.10548035 -0.15234375,-0.0937603 -0.28125,-0.12892043 -0.38671875,-0.12892043 -0.234375,0 -0.41015625,0.18752062 -0.41015625,0.42192141 0,0.31644105 0.234375,0.50396168 0.609375,0.50396168 0.36328125,0 0.515625,-0.10548036 1.11328124,-0.82040274 C 1.7103516,-1.0912528 1.9798828,-1.454574 2.4720703,-2.1108962 l 0.3632813,1.44156477 c 0.1523437,0.62116207 0.3046875,0.79696266 0.6914062,0.79696266 0.4570313,0 0.7734375,-0.28128094 1.4648438,-1.35952453 z m 0,0"
       style="fill:#231f20;fill-opacity:1;fill-rule:nonzero;stroke:none"
       aria-label="x"
       transform="matrix(1.3333333,0,0,1.3331867,266.7,371.74)" />
    <path
       id="path61"
       d="m 631.25,491.25 v 1977 h 91 v -1977 h -91"
       style="fill:#d3d2d2;fill-opacity:1;fill-rule:nonzero;stroke:none"
       transform="matrix(0.13333333,0,0,-0.13333333,0,381.24)" />
    <path
       id="path62"
       d="m 631.25,491.25 v 1977 h 91 v -1977 z"
       style="fill:none;stroke:#231f20;stroke-width:2.5;stroke-linecap:butt;stroke-linejoin:miter;stroke-miterlimit:3.8637;stroke-dasharray:none;stroke-opacity:1"
       transform="matrix(0.13333333,0,0,-0.13333333,0,381.24)" />
    <path
       id="path63"
       d="m 646.25,491.25 v 1977 h 60 v -1977 h -60"
       style="fill:#e9e9e9;fill-opacity:1;fill-rule:nonzero;stroke:none"
       transform="matrix(0.13333333,0,0,-0.13333333,0,381.24)" />
    <path
       id="path64"
       d="m 646.25,491.25 v 1977 h 60 v -1977 z"
       style="fill:none;stroke:#231f20;stroke-width:2.5;stroke-linecap:butt;stroke-linejoin:miter;stroke-miterlimit:3.8637;stroke-dasharray:none;stroke-opacity:1"
       transform="matrix(0.13333333,0,0,-0.13333333,0,381.24)" />
    <path
       id="path65"
       d="m 1593.25,491.25 v 1977 h 90 v -1977 h -90"
       style="fill:#d3d2d2;fill-opacity:1;fill-rule:nonzero;stroke:none"
       transform="matrix(0.13333333,0,0,-0.13333333,0,381.24)" />
    <path
       id="path66"
       d="m 1593.25,491.25 v 1977 h 90 v -1977 z"
       style="fill:none;stroke:#231f20;stroke-width:2.5;stroke-linecap:butt;stroke-linejoin:miter;stroke-miterlimit:3.8637;stroke-dasharray:none;stroke-opacity:1"
       transform="matrix(0.13333333,0,0,-0.13333333,0,381.24)" />
    <path
       id="path67"
       d="m 1608.25,491.25 v 1977 h 60 v -1977 h -60"
       style="fill:#e9e9e9;fill-opacity:1;fill-rule:nonzero;stroke:none"
       transform="matrix(0.13333333,0,0,-0.13333333,0,381.24)" />
    <path
       id="path68"
       d="m 1608.25,491.25 v 1977 h 60 v -1977 z"
       style="fill:none;stroke:#231f20;stroke-width:2.5;stroke-linecap:butt;stroke-linejoin:miter;stroke-miterlimit:3.8637;stroke-dasharray:none;stroke-opacity:1"
       transform="matrix(0.13333333,0,0,-0.13333333,0,381.24)" />
    <path
       id="path69"
       d="m 725.25,1496.25 h 869 v -91 h -869 v 91"
       style="fill:#d3d2d2;fill-opacity:1;fill-rule:nonzero;stroke:none"
       transform="matrix(0.13333333,0,0,-0.13333333,0,381.24)" />
    <path
       id="path70"
       d="m 725.25,1496.25 h 869 v -91 h -869 z"
       style="fill:none;stroke:#231f20;stroke-width:2.5;stroke-linecap:butt;stroke-linejoin:miter;stroke-miterlimit:3.8637;stroke-dasharray:none;stroke-opacity:1"
       transform="matrix(0.13333333,0,0,-0.13333333,0,381.24)" />
    <path
       id="path71"
       d="m 725.25,1481.25 h 869 v -61 h -869 v 61"
       style="fill:#e9e9e9;fill-opacity:1;fill-rule:nonzero;stroke:none"
       transform="matrix(0.13333333,0,0,-0.13333333,0,381.24)" />
    <path
       id="path72"
       d="m 725.25,1481.25 h 869 v -61 h -869 z"
       style="fill:none;stroke:#231f20;stroke-width:2.5;stroke-linecap:butt;stroke-linejoin:miter;stroke-miterlimit:3.8637;stroke-dasharray:none;stroke-opacity:1"
       transform="matrix(0.13333333,0,0,-0.13333333,0,381.24)" />
    <path
       id="path73"
       d="m 723.25,2468.25 h 869 v -90 h -869 v 90"
       style="fill:#d3d2d2;fill-opacity:1;fill-rule:nonzero;stroke:none"
       transform="matrix(0.13333333,0,0,-0.13333333,0,381.24)" />
    <path
       id="path74"
       d="m 723.25,2468.25 h 869 v -90 h -869 z"
       style="fill:none;stroke:#231f20;stroke-width:2.5;stroke-linecap:butt;stroke-linejoin:miter;stroke-miterlimit:3.8637;stroke-dasharray:none;stroke-opacity:1"
       transform="matrix(0.13333333,0,0,-0.13333333,0,381.24)" />
    <path
       id="path75"
       d="m 723.25,2453.25 h 869 v -60 h -869 v 60"
       style="fill:#e9e9e9;fill-opacity:1;fill-rule:nonzero;stroke:none"
       transform="matrix(0.13333333,0,0,-0.13333333,0,381.24)" />
    <path
       id="path76"
       d="m 723.25,2453.25 h 869 v -60 h -869 z"
       style="fill:none;stroke:#231f20;stroke-width:2.5;stroke-linecap:butt;stroke-linejoin:miter;stroke-miterlimit:3.8637;stroke-dasharray:none;stroke-opacity:1"
       transform="matrix(0.13333333,0,0,-0.13333333,0,381.24)" />
    <path
       id="path77"
       d="m 676.25,2424.25 965,-965"
       style="fill:none;stroke:#231f20;stroke-width:20;stroke-linecap:round;stroke-linejoin:miter;stroke-miterlimit:3.8637;stroke-dasharray:none;stroke-opacity:1"
       transform="matrix(0.13333333,0,0,-0.13333333,0,381.24)" />
    <path
       id="path78"
       d="m 677.25,1456.25 964,965"
       style="fill:none;stroke:#231f20;stroke-width:20;stroke-linecap:butt;stroke-linejoin:miter;stroke-miterlimit:3.8637;stroke-dasharray:none;stroke-opacity:1"
       transform="matrix(0.13333333,0,0,-0.13333333,0,381.24)" />
    <path
       id="path79"
       d="m 673.25,1452.25 965,-965"
       style="fill:none;stroke:#231f20;stroke-width:20;stroke-linecap:round;stroke-linejoin:miter;stroke-miterlimit:3.8637;stroke-dasharray:none;stroke-opacity:1"
       transform="matrix(0.13333333,0,0,-0.13333333,0,381.24)" />
    <path
       id="path80"
       d="m 676.25,492.25 965,965"
       style="fill:none;stroke:#231f20;stroke-width:20;stroke-linecap:round;stroke-linejoin:miter;stroke-miterlimit:3.8637;stroke-dasharray:none;stroke-opacity:1"
       transform="matrix(0.13333333,0,0,-0.13333333,0,381.24)" />
    <path
       id="path81"
       d="m 346.25,486.25 h 1586 v -126 h -1586 v 126"
       style="fill:#a7a5a6;fill-opacity:1;fill-rule:nonzero;stroke:none"
       transform="matrix(0.13333333,0,0,-0.13333333,0,381.24)" />
    <path
       id="path82"
       d="m 571.25,2426.25 h -291"
       style="fill:none;stroke:#231f20;stroke-width:5;stroke-linecap:butt;stroke-linejoin:miter;stroke-miterlimit:3.8637;stroke-dasharray:none;stroke-opacity:1"
       transform="matrix(0.13333333,0,0,-0.13333333,0,381.24)" />
    <path
       id="path83"
       d="m 571.25,2426.25 -20,30 80,-30 -80,-30 20,30"
       style="fill:#231f20;fill-opacity:1;fill-rule:evenodd;stroke:none"
       transform="matrix(0.13333333,0,0,-0.13333333,0,381.24)" />
    <path
       id="path84"
       d="m 367.25,185.25 h 1581"
       style="fill:none;stroke:#231f20;stroke-width:2.5;stroke-linecap:butt;stroke-linejoin:miter;stroke-miterlimit:3.8637;stroke-dasharray:none;stroke-opacity:1"
       transform="matrix(0.13333333,0,0,-0.13333333,0,381.24)" />
    <path
       id="path85"
       d="m 1946.25,185.25 v 15 l 37,-15 -37,-15 v 15"
       style="fill:#231f20;fill-opacity:1;fill-rule:evenodd;stroke:none"
       transform="matrix(0.13333333,0,0,-0.13333333,0,381.24)" />
    <path
       id="path86"
       d="m 676.25,210.25 v -53"
       style="fill:none;stroke:#231f20;stroke-width:2.5;stroke-linecap:butt;stroke-linejoin:miter;stroke-miterlimit:3.8637;stroke-dasharray:none;stroke-opacity:1"
       transform="matrix(0.13333333,0,0,-0.13333333,0,381.24)" />
    <path
       id="path87"
       d="m 1640.25,210.25 v -53"
       style="fill:none;stroke:#231f20;stroke-width:2.5;stroke-linecap:butt;stroke-linejoin:miter;stroke-miterlimit:3.8637;stroke-dasharray:none;stroke-opacity:1"
       transform="matrix(0.13333333,0,0,-0.13333333,0,381.24)" />
    <path
       id="path88"
       d="M 0.58535156,0.00125014 H 3.9369141 V -0.17455045 H 3.7259766 c -0.5859375,0 -0.8203125,-0.11720039 -0.8203125,-0.38676129 0,-0.10548035 0.035156,-0.29300097 0.140625,-0.62116206 0.023437,-0.09376 0.035156,-0.1523605 0.070312,-0.2695609 l 1.7226562,-6.2233407 c 0.058594,-0.2226808 0.070312,-0.293001 0.070312,-0.3516012 0,-0.04688 -0.023437,-0.08204 -0.058594,-0.08204 0,0 -0.3398438,0.0586 -0.984375,0.1875206 l -1.078125,0.2226808 c -0.023437,0.01172 -0.1171875,0.02344 -0.2578125,0.04688 v 0.1758006 l 0.6796875,-0.02344 c 0.28125,-0.01172 0.4570312,0.1289205 0.4570312,0.3750413 0,0.08204 -0.023437,0.1640805 -0.082031,0.4102014 l -1.6523438,5.8951796 c -0.140625,0.44536149 -0.3984375,0.56256188 -1.34765624,0.65632219 z M -92.109961,-9.7117322 c -1.886719,0 -3.703125,2.7307691 -3.703125,5.5552985 0,1.5822053 0.761719,2.6370088 1.933594,2.6370088 0.515625,0 1.019531,-0.1758006 1.523437,-0.5508419 1.207032,-0.8907229 2.121094,-2.8831296 2.121094,-4.6059753 0,-1.8986463 -0.703125,-3.0354901 -1.875,-3.0354901 z m -0.07031,0.3281611 c 0.632812,0 0.996093,0.5625618 0.996093,1.511885 0,1.6173654 -0.480468,3.598052 -1.160156,4.8169361 -0.457031,0.7969626 -0.949219,1.1954439 -1.5,1.1954439 -0.644531,0 -1.019531,-0.597722 -1.019531,-1.6173654 0,-1.2774842 0.609375,-3.6449321 1.230469,-4.7583358 0.445312,-0.7735226 0.902343,-1.1485638 1.453125,-1.1485638 z m 0,0"
       style="fill:#231f20;fill-opacity:1;fill-rule:nonzero;stroke:none"
       aria-label="1&#10;0"
       transform="matrix(1.3333333,0,0,1.3331867,220.7,373.87333)" />
    <path
       id="path89"
       d="m 181.25,275.25 v 2425"
       style="fill:none;stroke:#231f20;stroke-width:2.5;stroke-linecap:butt;stroke-linejoin:miter;stroke-miterlimit:3.8637;stroke-dasharray:none;stroke-opacity:1"
       transform="matrix(0.13333333,0,0,-0.13333333,0,381.24)" />
    <path
       id="path90"
       d="m 181.25,2698.25 h -15 l 15,37 15,-37 h -15"
       style="fill:#231f20;fill-opacity:1;fill-rule:evenodd;stroke:none"
       transform="matrix(0.13333333,0,0,-0.13333333,0,381.24)" />
    <path
       id="path91"
       d="m 156.25,489.25 h 53"
       style="fill:none;stroke:#231f20;stroke-width:2.5;stroke-linecap:butt;stroke-linejoin:miter;stroke-miterlimit:3.8637;stroke-dasharray:none;stroke-opacity:1"
       transform="matrix(0.13333333,0,0,-0.13333333,0,381.24)" />
    <path
       id="path92"
       d="m 156.25,1453.25 h 53"
       style="fill:none;stroke:#231f20;stroke-width:2.5;stroke-linecap:butt;stroke-linejoin:miter;stroke-miterlimit:3.8637;stroke-dasharray:none;stroke-opacity:1"
       transform="matrix(0.13333333,0,0,-0.13333333,0,381.24)" />
    <path
       id="path93"
       d="m 156.25,2418.25 h 53"
       style="fill:none;stroke:#231f20;stroke-width:2.5;stroke-linecap:butt;stroke-linejoin:miter;stroke-miterlimit:3.8637;stroke-dasharray:none;stroke-opacity:1"
       transform="matrix(0.13333333,0,0,-0.13333333,0,381.24)" />
    <path
       id="path94"
       d="m 4.0902344,-8.1111656 c -1.8867188,0 -3.70312503,2.7307691 -3.70312503,5.5552985 0,1.58220532 0.76171873,2.63700884 1.93359373,2.63700884 0.515625,0 1.0195313,-0.17580059 1.5234375,-0.55084184 1.2070313,-0.890723 2.1210938,-2.8831296 2.1210938,-4.6059754 0,-1.8986463 -0.703125,-3.0354901 -1.875,-3.0354901 z m -0.070312,0.3281611 c 0.6328125,0 0.9960937,0.5625619 0.9960937,1.5118851 0,1.6173654 -0.4804687,3.598052 -1.1601562,4.816936 -0.4570313,0.79696268 -0.9492188,1.195444 -1.5,1.195444 -0.6445313,0 -1.0195313,-0.59772199 -1.0195313,-1.6173654 0,-1.2774842 0.609375,-3.6449321 1.2304688,-4.7583358 0.4453125,-0.7735226 0.9023437,-1.1485639 1.453125,-1.1485639 z M -0.415625,-98.709998 h 3.3515625 v -0.1758 H 2.725 c -0.5859375,0 -0.8203125,-0.117201 -0.8203125,-0.386761 0,-0.105481 0.035156,-0.293001 0.140625,-0.621162 0.023437,-0.09376 0.035156,-0.152359 0.070312,-0.269559 l 1.7226562,-6.22334 c 0.058594,-0.22268 0.070312,-0.293 0.070312,-0.3516 0,-0.0469 -0.023437,-0.082 -0.058594,-0.082 0,0 -0.3398438,0.0586 -0.984375,0.18752 l -1.078125,0.22268 c -0.023437,0.0117 -0.1171875,0.0234 -0.2578125,0.0469 v 0.1758 l 0.6796875,-0.0234 c 0.28125,-0.0117 0.4570312,0.12892 0.4570312,0.37504 0,0.082 -0.023437,0.16408 -0.082031,0.4102 l -1.65234375,5.89518 c -0.140625,0.445361 -0.3984375,0.562562 -1.34765625,0.656322 z m -0.17871094,-97.876972 c -0.28125,0.586 -0.51562496,0.72664 -1.19531246,0.75008 h -2.2734375 v -0.0586 l 2.296875,-2.30885 c 1.40624996,-1.39468 1.79296871,-2.00413 1.79296871,-2.80109 0,-1.13684 -0.85546875,-2.02757 -1.94531251,-2.02757 -0.4335937,0 -0.8789062,0.10549 -1.2421875,0.30473 -0.609375,0.33988 -0.9257812,0.75008 -1.2773437,1.61736 l 0.2460937,0.082 c 0.4453125,-0.78524 0.9609375,-1.12512 1.6875,-1.12512 0.8671875,0 1.5,0.62116 1.5,1.45328 0,0.25784 -0.035156,0.48052 -0.1054687,0.6446 -0.2929688,0.64461 -0.84375,1.40641 -1.6289063,2.23853 l -2.5195312,2.69561 v 0.19924 h 4.26562496 l 0.59765625,-1.5822 z m 34.55273394,-7.87587 c 0.679688,0.082 0.84375,0.18752 0.84375,0.50396 0,0.1758 -0.04687,0.39848 -0.199218,0.96104 l -1.417969,5.09822 c -0.210938,0.71492 -0.304688,0.78524 -0.984375,0.89072 v 0.18753 h 2.941406 v -0.18753 c -0.761719,-0.1172 -0.820312,-0.15236 -0.820312,-0.57428 0,-0.12892 0.02344,-0.22268 0.152343,-0.67976 l 0.632813,-2.32057 c 0.304687,0.082 0.597656,0.10548 1.101562,0.10548 0.984375,0 1.804688,-0.21096 2.308594,-0.57428 0.597656,-0.44536 0.949219,-1.1134 0.949219,-1.8166 0,-1.14857 -0.902344,-1.79317 -2.542969,-1.79317 h -2.964844 z m 2.109375,0.50396 c 0.07031,-0.25784 0.210938,-0.33988 0.550782,-0.33988 0.46875,0 0.925781,0.10548 1.160156,0.293 0.316406,0.21096 0.445312,0.57428 0.445312,1.13685 0,0.77352 -0.28125,1.33608 -0.808593,1.6408 -0.363282,0.21096 -0.832032,0.30472 -1.582032,0.30472 -0.210937,0 -0.269531,0 -0.621093,-0.0586 z m -37.4912105,-23.67155 c 0.1523437,-0.0352 0.2460937,-0.0469 0.375,-0.0469 0.4921875,0 0.7265625,0.19924 0.9609375,0.84385 0.328125,0.89072 0.94921875,3.45741 0.94921875,3.91449 0,0.18752 -0.0820313,0.38676 -0.2578125,0.60944 -0.328125,0.44536 -0.609375,0.78524 -0.75,0.9376 -0.2578125,0.25784 -0.38671875,0.36332 -0.5390625,0.36332 -0.0820313,0 -0.15234375,-0.0352 -0.29296875,-0.14064 -0.1757813,-0.14064 -0.2929688,-0.19924 -0.4453125,-0.19924 -0.2578125,0 -0.46875,0.19924 -0.46875,0.46881 0,0.31644 0.2578125,0.5274 0.6210937,0.5274 0.7617188,0 2.3203125,-1.79317 3.6328125,-4.17234 0.8203125,-1.47672 1.1484375,-2.344 1.1484375,-2.93001 0,-0.36332 -0.2929687,-0.66804 -0.65625,-0.66804 -0.28125,0 -0.46875,0.18752 -0.46875,0.44536 0,0.19924 0.09375,0.31644 0.3398438,0.4688 0.2226562,0.14064 0.3046875,0.24613 0.3046875,0.41021 0,0.48052 -0.4335938,1.4064 -1.4648438,3.10581 l -0.234375,-1.39469 c -0.1875,-1.06652 -0.8554687,-3.03549 -1.03124995,-3.03549 h -0.046875 c -0.0234375,0.0117 -0.0585937,0.0117 -0.1171875,0.0117 -0.09375,0.0117 -0.5390625,0.0938 -1.17187505,0.21096 -0.058594,0.0117 -0.2109375,0.0469 -0.3867187,0.0703 z m 0,0"
       style="fill:#231f20;fill-opacity:1;fill-rule:nonzero;stroke:none"
       aria-label="0&#10;1&#10;2&#10;P&#10;y"
       transform="matrix(1.3333333,0,0,1.3331867,11.366667,313.60667)" />
    <path
       id="path95"
       d="m 3739.25,2423.25 v 0 c -0.38,16.54 12.81,29.73 29,30 v 0 c 16.38,-0.27 29.58,-13.46 30,-30 v 0 c -0.42,-16.03 -13.62,-29.23 -30,-29 v 0 c -16.19,-0.23 -29.38,12.97 -29,29"
       style="fill:#231f20;fill-opacity:1;fill-rule:evenodd;stroke:none"
       transform="matrix(0.13333333,0,0,-0.13333333,0,381.24)" />
    <path
       id="path96"
       d="m 3739.25,2423.25 v 0 c -0.38,16.54 12.81,29.73 29,30 v 0 c 16.38,-0.27 29.58,-13.46 30,-30 v 0 c -0.42,-16.03 -13.62,-29.23 -30,-29 v 0 c -16.19,-0.23 -29.38,12.97 -29,29 z"
       style="fill:none;stroke:#231f20;stroke-width:15;stroke-linecap:butt;stroke-linejoin:miter;stroke-miterlimit:3.8637;stroke-dasharray:none;stroke-opacity:1"
       transform="matrix(0.13333333,0,0,-0.13333333,0,381.24)" />
  </g>
</svg>
