<?xml version="1.0" encoding="UTF-8" standalone="no"?>
<!-- Created with Inkscape (http://www.inkscape.org/) -->

<svg
   version="1.1"
   id="svg1"
   width="248"
   height="126.66667"
   viewBox="0 0 248 126.66667"
   sodipodi:docname="exs7_1.eps"
   xmlns:inkscape="http://www.inkscape.org/namespaces/inkscape"
   xmlns:sodipodi="http://sodipodi.sourceforge.net/DTD/sodipodi-0.dtd"
   xmlns="http://www.w3.org/2000/svg"
   xmlns:svg="http://www.w3.org/2000/svg">
  <defs
     id="defs1">
    <clipPath
       clipPathUnits="userSpaceOnUse"
       id="clipPath2">
      <path
         d="M 0,4 V 945 H 1860 V 4 Z"
         transform="translate(0,2.5000001e-5)"
         id="path2" />
    </clipPath>
    <clipPath
       clipPathUnits="userSpaceOnUse"
       id="clipPath4">
      <path
         d="M 0,4 V 945 H 1860 V 4 Z"
         transform="translate(0,2.5000001e-5)"
         id="path4" />
    </clipPath>
    <clipPath
       clipPathUnits="userSpaceOnUse"
       id="clipPath6">
      <path
         d="M 0,4 V 945 H 1860 V 4 Z"
         transform="translate(0,2.5000001e-5)"
         id="path6" />
    </clipPath>
    <clipPath
       clipPathUnits="userSpaceOnUse"
       id="clipPath8">
      <path
         d="M 0,4 V 945 H 1860 V 4 Z"
         transform="translate(0,2.5000001e-5)"
         id="path8" />
    </clipPath>
    <clipPath
       clipPathUnits="userSpaceOnUse"
       id="clipPath10">
      <path
         d="M 0,4 V 945 H 1860 V 4 Z"
         transform="translate(0,2.5000001e-5)"
         id="path10" />
    </clipPath>
    <clipPath
       clipPathUnits="userSpaceOnUse"
       id="clipPath12">
      <path
         d="M 0,4 V 945 H 1860 V 4 Z"
         transform="translate(0,2.5000001e-5)"
         id="path12" />
    </clipPath>
    <clipPath
       clipPathUnits="userSpaceOnUse"
       id="clipPath14">
      <path
         d="M 0,4 V 945 H 1860 V 4 Z"
         transform="translate(0,2.5000001e-5)"
         id="path14" />
    </clipPath>
    <clipPath
       clipPathUnits="userSpaceOnUse"
       id="clipPath16">
      <path
         d="M 0,4 V 945 H 1860 V 4 Z"
         transform="translate(0,2.5000001e-5)"
         id="path16" />
    </clipPath>
    <clipPath
       clipPathUnits="userSpaceOnUse"
       id="clipPath18">
      <path
         d="M 0,4 V 945 H 1860 V 4 Z"
         transform="translate(0,2.5000001e-5)"
         id="path18" />
    </clipPath>
    <clipPath
       clipPathUnits="userSpaceOnUse"
       id="clipPath20">
      <path
         d="M 0,4 V 945 H 1860 V 4 Z"
         transform="translate(0,2.5000001e-5)"
         id="path20" />
    </clipPath>
    <clipPath
       clipPathUnits="userSpaceOnUse"
       id="clipPath22">
      <path
         d="M 0,4 V 945 H 1860 V 4 Z"
         transform="translate(0,2.5000001e-5)"
         id="path22" />
    </clipPath>
    <clipPath
       clipPathUnits="userSpaceOnUse"
       id="clipPath24">
      <path
         d="M 0,4 V 945 H 1860 V 4 Z"
         transform="translate(0,2.5000001e-5)"
         id="path24" />
    </clipPath>
    <clipPath
       clipPathUnits="userSpaceOnUse"
       id="clipPath26">
      <path
         d="M 0,4 V 945 H 1860 V 4 Z"
         transform="translate(0,2.5000001e-5)"
         id="path26" />
    </clipPath>
    <clipPath
       clipPathUnits="userSpaceOnUse"
       id="clipPath28">
      <path
         d="M 0,4 V 945 H 1860 V 4 Z"
         transform="translate(0,2.5000001e-5)"
         id="path28" />
    </clipPath>
    <clipPath
       clipPathUnits="userSpaceOnUse"
       id="clipPath30">
      <path
         d="M 0,4 V 945 H 1860 V 4 Z"
         transform="translate(0,2.5000001e-5)"
         id="path30" />
    </clipPath>
    <clipPath
       clipPathUnits="userSpaceOnUse"
       id="clipPath32">
      <path
         d="M 0,4 V 945 H 1860 V 4 Z"
         transform="translate(0,2.5000001e-5)"
         id="path32" />
    </clipPath>
    <clipPath
       clipPathUnits="userSpaceOnUse"
       id="clipPath34">
      <path
         d="M 0,4 V 945 H 1860 V 4 Z"
         transform="translate(0,2.5000001e-5)"
         id="path34" />
    </clipPath>
    <clipPath
       clipPathUnits="userSpaceOnUse"
       id="clipPath36">
      <path
         d="M 0,4 V 945 H 1860 V 4 Z"
         transform="translate(0,2.5000001e-5)"
         id="path36" />
    </clipPath>
    <clipPath
       clipPathUnits="userSpaceOnUse"
       id="clipPath37">
      <path
         d="M 0,4 V 945 H 1860 V 4 Z"
         transform="matrix(0.1,0,0,-0.1,-91.519105,86.828902)"
         id="path37" />
    </clipPath>
    <clipPath
       clipPathUnits="userSpaceOnUse"
       id="clipPath39">
      <path
         d="M 0,4 V 945 H 1860 V 4 Z"
         transform="translate(0,2.5000001e-5)"
         id="path39" />
    </clipPath>
    <clipPath
       clipPathUnits="userSpaceOnUse"
       id="clipPath41">
      <path
         d="M 0,4 V 945 H 1860 V 4 Z"
         transform="translate(0,2.5000001e-5)"
         id="path41" />
    </clipPath>
    <clipPath
       clipPathUnits="userSpaceOnUse"
       id="clipPath51">
      <path
         d="M 0,4 V 945 H 1860 V 4 Z"
         transform="matrix(0.1,0,0,-0.1,-122.707,49.169101)"
         id="path51" />
    </clipPath>
    <clipPath
       clipPathUnits="userSpaceOnUse"
       id="clipPath53">
      <path
         d="M 0,4 V 945 H 1860 V 4 Z"
         transform="translate(0,2.5000001e-5)"
         id="path53" />
    </clipPath>
    <clipPath
       clipPathUnits="userSpaceOnUse"
       id="clipPath55">
      <path
         d="M 0,4 V 945 H 1860 V 4 Z"
         transform="translate(0,2.5000001e-5)"
         id="path55" />
    </clipPath>
    <clipPath
       clipPathUnits="userSpaceOnUse"
       id="clipPath57">
      <path
         d="M 0,4 V 945 H 1860 V 4 Z"
         transform="translate(0,2.5000001e-5)"
         id="path57" />
    </clipPath>
    <clipPath
       clipPathUnits="userSpaceOnUse"
       id="clipPath59">
      <path
         d="M 0,4 V 945 H 1860 V 4 Z"
         transform="translate(0,2.5000001e-5)"
         id="path59" />
    </clipPath>
    <clipPath
       clipPathUnits="userSpaceOnUse"
       id="clipPath61">
      <path
         d="M 0,4 V 945 H 1860 V 4 Z"
         transform="translate(0,2.5000001e-5)"
         id="path61" />
    </clipPath>
    <clipPath
       clipPathUnits="userSpaceOnUse"
       id="clipPath63">
      <path
         d="M 0,4 V 945 H 1860 V 4 Z"
         transform="translate(0,2.5000001e-5)"
         id="path63" />
    </clipPath>
    <clipPath
       clipPathUnits="userSpaceOnUse"
       id="clipPath64">
      <path
         d="M 0,4 V 945 H 1860 V 4 Z"
         transform="matrix(0.1,0,0,-0.1,-163.24,51.662901)"
         id="path64" />
    </clipPath>
    <clipPath
       clipPathUnits="userSpaceOnUse"
       id="clipPath66">
      <path
         d="M 0,4 V 945 H 1860 V 4 Z"
         transform="translate(0,2.5000001e-5)"
         id="path66" />
    </clipPath>
    <clipPath
       clipPathUnits="userSpaceOnUse"
       id="clipPath68">
      <path
         d="M 0,4 V 945 H 1860 V 4 Z"
         transform="translate(0,2.5000001e-5)"
         id="path68" />
    </clipPath>
    <clipPath
       clipPathUnits="userSpaceOnUse"
       id="clipPath70">
      <path
         d="M 0,4 V 945 H 1860 V 4 Z"
         transform="translate(0,2.5000001e-5)"
         id="path70" />
    </clipPath>
    <clipPath
       clipPathUnits="userSpaceOnUse"
       id="clipPath72">
      <path
         d="M 0,4 V 945 H 1860 V 4 Z"
         transform="translate(0,2.5000001e-5)"
         id="path72" />
    </clipPath>
    <clipPath
       clipPathUnits="userSpaceOnUse"
       id="clipPath74">
      <path
         d="M 0,4 V 945 H 1860 V 4 Z"
         transform="translate(0,2.5000001e-5)"
         id="path74" />
    </clipPath>
    <clipPath
       clipPathUnits="userSpaceOnUse"
       id="clipPath76">
      <path
         d="M 0,4 V 945 H 1860 V 4 Z"
         transform="translate(0,2.5000001e-5)"
         id="path76" />
    </clipPath>
    <clipPath
       clipPathUnits="userSpaceOnUse"
       id="clipPath78">
      <path
         d="M 0,4 V 945 H 1860 V 4 Z"
         transform="translate(0,2.5000001e-5)"
         id="path78" />
    </clipPath>
    <clipPath
       clipPathUnits="userSpaceOnUse"
       id="clipPath80">
      <path
         d="M 0,4 V 945 H 1860 V 4 Z"
         transform="translate(0,2.5000001e-5)"
         id="path80" />
    </clipPath>
    <clipPath
       clipPathUnits="userSpaceOnUse"
       id="clipPath82">
      <path
         d="M 0,4 V 945 H 1860 V 4 Z"
         transform="translate(0,2.5000001e-5)"
         id="path82" />
    </clipPath>
    <clipPath
       clipPathUnits="userSpaceOnUse"
       id="clipPath84">
      <path
         d="M 0,4 V 945 H 1860 V 4 Z"
         transform="translate(0,2.5000001e-5)"
         id="path84" />
    </clipPath>
    <clipPath
       clipPathUnits="userSpaceOnUse"
       id="clipPath86">
      <path
         d="M 0,4 V 945 H 1860 V 4 Z"
         transform="translate(0,2.5000001e-5)"
         id="path86" />
    </clipPath>
    <clipPath
       clipPathUnits="userSpaceOnUse"
       id="clipPath88">
      <path
         d="M 0,4 V 945 H 1860 V 4 Z"
         transform="translate(0,2.5000001e-5)"
         id="path88" />
    </clipPath>
    <clipPath
       clipPathUnits="userSpaceOnUse"
       id="clipPath90">
      <path
         d="M 0,4 V 945 H 1860 V 4 Z"
         transform="translate(0,2.5000001e-5)"
         id="path90" />
    </clipPath>
    <clipPath
       clipPathUnits="userSpaceOnUse"
       id="clipPath92">
      <path
         d="M 0,4 V 945 H 1860 V 4 Z"
         transform="translate(0,2.5000001e-5)"
         id="path92" />
    </clipPath>
    <clipPath
       clipPathUnits="userSpaceOnUse"
       id="clipPath94">
      <path
         d="M 0,4 V 945 H 1860 V 4 Z"
         transform="translate(0,2.5000001e-5)"
         id="path94" />
    </clipPath>
    <clipPath
       clipPathUnits="userSpaceOnUse"
       id="clipPath96">
      <path
         d="M 0,4 V 945 H 1860 V 4 Z"
         transform="translate(0,2.5000001e-5)"
         id="path96" />
    </clipPath>
    <clipPath
       clipPathUnits="userSpaceOnUse"
       id="clipPath98">
      <path
         d="M 0,4 V 945 H 1860 V 4 Z"
         transform="translate(0,2.5000001e-5)"
         id="path98" />
    </clipPath>
    <clipPath
       clipPathUnits="userSpaceOnUse"
       id="clipPath100">
      <path
         d="M 0,4 V 945 H 1860 V 4 Z"
         transform="translate(0,2.5000001e-5)"
         id="path100" />
    </clipPath>
    <clipPath
       clipPathUnits="userSpaceOnUse"
       id="clipPath102">
      <path
         d="M 0,4 V 945 H 1860 V 4 Z"
         transform="translate(0,2.5000001e-5)"
         id="path102" />
    </clipPath>
    <clipPath
       clipPathUnits="userSpaceOnUse"
       id="clipPath104">
      <path
         d="M 0,4 V 945 H 1860 V 4 Z"
         transform="translate(0,2.5000001e-5)"
         id="path104" />
    </clipPath>
    <clipPath
       clipPathUnits="userSpaceOnUse"
       id="clipPath106">
      <path
         d="M 0,4 V 945 H 1860 V 4 Z"
         transform="translate(0,2.5000001e-5)"
         id="path106" />
    </clipPath>
    <clipPath
       clipPathUnits="userSpaceOnUse"
       id="clipPath107">
      <path
         d="M 0,4 V 945 H 1860 V 4 Z"
         transform="matrix(0.1,0,0,-0.1,-19.5625,8.6343802)"
         id="path107" />
    </clipPath>
  </defs>
  <sodipodi:namedview
     id="namedview1"
     pagecolor="#ffffff"
     bordercolor="#000000"
     borderopacity="0.25"
     inkscape:showpageshadow="2"
     inkscape:pageopacity="0.0"
     inkscape:pagecheckerboard="0"
     inkscape:deskcolor="#d1d1d1">
    <inkscape:page
       x="0"
       y="0"
       inkscape:label="1"
       id="page1"
       width="248"
       height="126.66667"
       margin="0"
       bleed="0" />
  </sodipodi:namedview>
  <g
     id="g1"
     inkscape:groupmode="layer"
     inkscape:label="1">
    <path
       id="path1"
       d="m 59.6094,671.41 0.7422,245"
       style="fill:none;stroke:#231f20;stroke-width:5;stroke-linecap:butt;stroke-linejoin:miter;stroke-miterlimit:3.86369;stroke-dasharray:none;stroke-opacity:1"
       transform="matrix(0.13333333,0,0,-0.13333333,0,126.66667)"
       clip-path="url(#clipPath2)" />
    <path
       id="path3"
       d="M 60.8594,673.281 3.23828,635.98"
       style="fill:none;stroke:#231f20;stroke-width:5;stroke-linecap:butt;stroke-linejoin:miter;stroke-miterlimit:3.86369;stroke-dasharray:none;stroke-opacity:1"
       transform="matrix(0.13333333,0,0,-0.13333333,0,126.66667)"
       clip-path="url(#clipPath4)" />
    <path
       id="path5"
       d="M 60.6992,707.621 3.08984,670.309"
       style="fill:none;stroke:#231f20;stroke-width:5;stroke-linecap:butt;stroke-linejoin:miter;stroke-miterlimit:3.86369;stroke-dasharray:none;stroke-opacity:1"
       transform="matrix(0.13333333,0,0,-0.13333333,0,126.66667)"
       clip-path="url(#clipPath6)" />
    <path
       id="path7"
       d="M 60.5508,741.949 2.92969,704.648"
       style="fill:none;stroke:#231f20;stroke-width:5;stroke-linecap:butt;stroke-linejoin:miter;stroke-miterlimit:3.86369;stroke-dasharray:none;stroke-opacity:1"
       transform="matrix(0.13333333,0,0,-0.13333333,0,126.66667)"
       clip-path="url(#clipPath8)" />
    <path
       id="path9"
       d="M 60.3906,776.289 2.76953,738.98"
       style="fill:none;stroke:#231f20;stroke-width:5;stroke-linecap:butt;stroke-linejoin:miter;stroke-miterlimit:3.86369;stroke-dasharray:none;stroke-opacity:1"
       transform="matrix(0.13333333,0,0,-0.13333333,0,126.66667)"
       clip-path="url(#clipPath10)" />
    <path
       id="path11"
       d="M 60.2305,810.629 2.62109,773.281"
       style="fill:none;stroke:#231f20;stroke-width:5;stroke-linecap:butt;stroke-linejoin:miter;stroke-miterlimit:3.86369;stroke-dasharray:none;stroke-opacity:1"
       transform="matrix(0.13333333,0,0,-0.13333333,0,126.66667)"
       clip-path="url(#clipPath12)" />
    <path
       id="path13"
       d="M 60.0781,844.961 2.46094,807.621"
       style="fill:none;stroke:#231f20;stroke-width:5;stroke-linecap:butt;stroke-linejoin:miter;stroke-miterlimit:3.86369;stroke-dasharray:none;stroke-opacity:1"
       transform="matrix(0.13333333,0,0,-0.13333333,0,126.66667)"
       clip-path="url(#clipPath14)" />
    <path
       id="path15"
       d="M 59.9219,879.301 2.30078,841.949"
       style="fill:none;stroke:#231f20;stroke-width:5;stroke-linecap:butt;stroke-linejoin:miter;stroke-miterlimit:3.86369;stroke-dasharray:none;stroke-opacity:1"
       transform="matrix(0.13333333,0,0,-0.13333333,0,126.66667)"
       clip-path="url(#clipPath16)" />
    <path
       id="path17"
       d="M 59.7695,913.629 2.14844,876.289"
       style="fill:none;stroke:#231f20;stroke-width:5;stroke-linecap:butt;stroke-linejoin:miter;stroke-miterlimit:3.86369;stroke-dasharray:none;stroke-opacity:1"
       transform="matrix(0.13333333,0,0,-0.13333333,0,126.66667)"
       clip-path="url(#clipPath18)" />
    <path
       id="path19"
       d="M 1474.96,134.262 V 9.87891"
       style="fill:none;stroke:#231f20;stroke-width:2.5;stroke-linecap:butt;stroke-linejoin:miter;stroke-miterlimit:3.86369;stroke-dasharray:none;stroke-opacity:1"
       transform="matrix(0.13333333,0,0,-0.13333333,0,126.66667)"
       clip-path="url(#clipPath20)" />
    <path
       id="path21"
       d="M 62.1484,134.57 V 10.1992"
       style="fill:none;stroke:#231f20;stroke-width:2.5;stroke-linecap:butt;stroke-linejoin:miter;stroke-miterlimit:3.86369;stroke-dasharray:none;stroke-opacity:1"
       transform="matrix(0.13333333,0,0,-0.13333333,0,126.66667)"
       clip-path="url(#clipPath22)" />
    <path
       id="path23"
       d="M 43.1289,68.6289 H 1491.52"
       style="fill:none;stroke:#231f20;stroke-width:2.57878;stroke-linecap:butt;stroke-linejoin:miter;stroke-miterlimit:3.86369;stroke-dasharray:none;stroke-opacity:1"
       transform="matrix(0.13333333,0,0,-0.13333333,0,126.66667)"
       clip-path="url(#clipPath24)" />
    <path
       id="path25"
       d="M 870.941,842.852 V 944.02"
       style="fill:none;stroke:#231f20;stroke-width:2.14549;stroke-linecap:butt;stroke-linejoin:miter;stroke-miterlimit:3.86369;stroke-dasharray:none;stroke-opacity:1"
       transform="matrix(0.13333333,0,0,-0.13333333,0,126.66667)"
       clip-path="url(#clipPath26)" />
    <path
       id="path27"
       d="m 870.941,842.539 13.75,9.18 -13.75,-36.68 -13.75,36.68 13.75,-9.18"
       style="fill:#231f20;fill-opacity:1;fill-rule:evenodd;stroke:none"
       transform="matrix(0.13333333,0,0,-0.13333333,0,126.66667)"
       clip-path="url(#clipPath28)" />
    <path
       id="path29"
       d="m 1199.8,566.602 c 17.74,32.66 28.29,70.976 28.29,111.988 0,39.769 -9.61,77.039 -26.37,109.031"
       style="fill:none;stroke:#231f20;stroke-width:2.46844;stroke-linecap:butt;stroke-linejoin:miter;stroke-miterlimit:3.86369;stroke-dasharray:none;stroke-opacity:1"
       transform="matrix(0.13333333,0,0,-0.13333333,0,126.66667)"
       clip-path="url(#clipPath30)" />
    <path
       id="path31"
       d="m 334.801,556.051 c 42.39,-3.942 89.07,-20.422 135.59,-51.051 45.121,-29.691 84.488,-68.551 115.699,-111.762"
       style="fill:none;stroke:#231f20;stroke-width:3.05671;stroke-linecap:butt;stroke-linejoin:miter;stroke-miterlimit:3.86369;stroke-dasharray:none;stroke-opacity:1"
       transform="matrix(0.13333333,0,0,-0.13333333,0,126.66667)"
       clip-path="url(#clipPath32)" />
    <path
       id="path33"
       d="m 423.32,461.84 c 30.43,6.09 61.719,3.59 90.352,-9.57 27.808,-12.782 49.687,-33.719 64.848,-59.649"
       style="fill:none;stroke:#231f20;stroke-width:2.19559;stroke-linecap:butt;stroke-linejoin:miter;stroke-miterlimit:3.86369;stroke-dasharray:none;stroke-opacity:1"
       transform="matrix(0.13333333,0,0,-0.13333333,0,126.66667)"
       clip-path="url(#clipPath34)" />
    <path
       id="path35"
       d="m 1639.06,787.191 h -60.62"
       style="fill:none;stroke:#231f20;stroke-width:2.5;stroke-linecap:butt;stroke-linejoin:miter;stroke-miterlimit:3.86369;stroke-dasharray:none;stroke-opacity:1"
       transform="matrix(0.13333333,0,0,-0.13333333,0,126.66667)"
       clip-path="url(#clipPath36)" />
    <text
       id="text36"
       xml:space="preserve"
       transform="matrix(1.3333333,0,0,1.3333333,122.02547,10.8948)"
       clip-path="url(#clipPath37)"><tspan
         id="tspan36"
         style="font-style:italic;font-variant:normal;font-weight:normal;font-size:9.6px;font-family:'Times New Roman';writing-mode:lr-tb;fill:#231f20;fill-opacity:1;fill-rule:nonzero;stroke:none"
         x="0"
         y="0">q</tspan><tspan
         id="tspan37"
         style="font-variant:normal;font-weight:normal;font-size:6.4px;font-family:'Times New Roman';writing-mode:lr-tb;fill:#231f20;fill-opacity:1;fill-rule:nonzero;stroke:none"
         x="4.5"
         y="2.26758">0</tspan></text>
    <path
       id="path38"
       d="m 1633.67,290.59 h -60.62"
       style="fill:none;stroke:#231f20;stroke-width:2.5;stroke-linecap:butt;stroke-linejoin:miter;stroke-miterlimit:3.86369;stroke-dasharray:none;stroke-opacity:1"
       transform="matrix(0.13333333,0,0,-0.13333333,0,126.66667)"
       clip-path="url(#clipPath39)" />
    <path
       id="path40"
       d="M 1604.8,811.559 V 262.27"
       style="fill:none;stroke:#231f20;stroke-width:2.32213;stroke-linecap:butt;stroke-linejoin:miter;stroke-miterlimit:3.86369;stroke-dasharray:none;stroke-opacity:1"
       transform="matrix(0.13333333,0,0,-0.13333333,0,126.66667)"
       clip-path="url(#clipPath41)" />
    <text
       id="text41"
       xml:space="preserve"
       transform="matrix(1.3333333,0,0,1.3333333,163.60933,61.107867)"
       clip-path="url(#clipPath51)"><tspan
         id="tspan41"
         style="font-style:italic;font-variant:normal;font-weight:normal;font-size:9.6px;font-family:'Times New Roman';writing-mode:lr-tb;fill:#231f20;fill-opacity:1;fill-rule:nonzero;stroke:none"
         x="0"
         y="0">A</tspan><tspan
         id="tspan42"
         style="font-variant:normal;font-weight:normal;font-size:6.4px;font-family:'Times New Roman';writing-mode:lr-tb;fill:#231f20;fill-opacity:1;fill-rule:nonzero;stroke:none"
         x="5.4988298"
         y="2.26758">1</tspan><tspan
         id="tspan43"
         style="font-variant:normal;font-weight:normal;font-size:9.6px;font-family:'Times New Roman';writing-mode:lr-tb;fill:#231f20;fill-opacity:1;fill-rule:nonzero;stroke:none"
         x="8.4988298"
         dx="0 -0.15000001"
         y="0">, </tspan><tspan
         id="tspan44"
         style="font-style:italic;font-variant:normal;font-weight:normal;font-size:9.6px;font-family:'Times New Roman';writing-mode:lr-tb;fill:#231f20;fill-opacity:1;fill-rule:nonzero;stroke:none"
         x="12.99883"
         y="0">I</tspan><tspan
         id="tspan45"
         style="font-variant:normal;font-weight:normal;font-size:6.4px;font-family:'Times New Roman';writing-mode:lr-tb;fill:#231f20;fill-opacity:1;fill-rule:nonzero;stroke:none"
         x="15.99571"
         y="2.26758">1</tspan><tspan
         id="tspan46"
         style="font-style:italic;font-variant:normal;font-weight:normal;font-size:9.6px;font-family:'Times New Roman';writing-mode:lr-tb;fill:#231f20;fill-opacity:1;fill-rule:nonzero;stroke:none"
         x="-10.70269"
         y="-0.42422">E</tspan><tspan
         id="tspan47"
         style="font-variant:normal;font-weight:normal;font-size:9.6px;font-family:'Times New Roman';writing-mode:lr-tb;fill:#231f20;fill-opacity:1;fill-rule:nonzero;stroke:none"
         x="-4.83394"
         y="-0.42422">,</tspan><tspan
         id="tspan48"
         style="font-style:italic;font-variant:normal;font-weight:normal;font-size:9.6px;font-family:'Times New Roman';writing-mode:lr-tb;fill:#231f20;fill-opacity:1;fill-rule:nonzero;stroke:none"
         x="-52.089039"
         y="14.47348">A</tspan><tspan
         id="tspan49"
         style="font-variant:normal;font-weight:normal;font-size:6.4px;font-family:'Times New Roman';writing-mode:lr-tb;fill:#231f20;fill-opacity:1;fill-rule:nonzero;stroke:none"
         x="-46.59021"
         y="16.741449">2</tspan><tspan
         id="tspan50"
         style="font-style:italic;font-variant:normal;font-weight:normal;font-size:9.6px;font-family:'Times New Roman';writing-mode:lr-tb;fill:#231f20;fill-opacity:1;fill-rule:nonzero;stroke:none"
         x="-62.791809"
         y="14.61528">E</tspan><tspan
         id="tspan51"
         style="font-variant:normal;font-weight:normal;font-size:9.6px;font-family:'Times New Roman';writing-mode:lr-tb;fill:#231f20;fill-opacity:1;fill-rule:nonzero;stroke:none"
         x="-56.923061"
         y="14.61528">,</tspan></text>
    <path
       id="path52"
       d="m 1481.33,773.52 0.04,28.71 L 61.0195,802.031 60.8984,771.48 c 488.7496,2.739 979.4116,3.68 1420.4316,2.04 z"
       style="fill:none;stroke:#000000;stroke-width:4.92363;stroke-linecap:butt;stroke-linejoin:miter;stroke-miterlimit:4;stroke-dasharray:none;stroke-opacity:1"
       transform="matrix(0.13333333,0,0,-0.13333333,0,126.66667)"
       clip-path="url(#clipPath53)" />
    <path
       id="path54"
       d="m 1584.02,766.09 41.49,40.551"
       style="fill:none;stroke:#000000;stroke-width:2.54153;stroke-linecap:butt;stroke-linejoin:miter;stroke-miterlimit:4;stroke-dasharray:none;stroke-opacity:1"
       transform="matrix(0.13333333,0,0,-0.13333333,0,126.66667)"
       clip-path="url(#clipPath55)" />
    <path
       id="path56"
       d="m 1589.77,274.059 32.38,33.601"
       style="fill:none;stroke:#000000;stroke-width:2.04486;stroke-linecap:butt;stroke-linejoin:miter;stroke-miterlimit:4;stroke-dasharray:none;stroke-opacity:1"
       transform="matrix(0.13333333,0,0,-0.13333333,0,126.66667)"
       clip-path="url(#clipPath57)" />
    <path
       id="path58"
       d="m 1452.34,46.8398 41.49,40.5821"
       style="fill:none;stroke:#000000;stroke-width:2.54153;stroke-linecap:butt;stroke-linejoin:miter;stroke-miterlimit:4;stroke-dasharray:none;stroke-opacity:1"
       transform="matrix(0.13333333,0,0,-0.13333333,0,126.66667)"
       clip-path="url(#clipPath59)" />
    <path
       id="path60"
       d="M 40.9414,47.5391 82.4219,88.0898"
       style="fill:none;stroke:#000000;stroke-width:2.54153;stroke-linecap:butt;stroke-linejoin:miter;stroke-miterlimit:4;stroke-dasharray:none;stroke-opacity:1"
       transform="matrix(0.13333333,0,0,-0.13333333,0,126.66667)"
       clip-path="url(#clipPath61)" />
    <path
       id="path62"
       d="m 528.789,811.961 h 951.602 v 131.91 H 528.789 Z"
       style="fill:none;stroke:#000000;stroke-width:1.96101;stroke-linecap:butt;stroke-linejoin:miter;stroke-miterlimit:4;stroke-dasharray:none;stroke-opacity:1"
       transform="matrix(0.13333333,0,0,-0.13333333,0,126.66667)"
       clip-path="url(#clipPath63)" />
    <text
       id="text63"
       xml:space="preserve"
       transform="matrix(1.3333333,0,0,1.3333333,217.65333,57.7828)"
       clip-path="url(#clipPath64)"><tspan
         id="tspan63"
         style="font-variant:normal;font-weight:normal;font-size:9.6px;font-family:'Times New Roman';writing-mode:lr-tb;fill:#231f20;fill-opacity:1;fill-rule:nonzero;stroke:none"
         x="0"
         y="0">2.0 m</tspan><tspan
         id="tspan64"
         style="font-variant:normal;font-weight:normal;font-size:9.6px;font-family:'Times New Roman';writing-mode:lr-tb;fill:#231f20;fill-opacity:1;fill-rule:nonzero;stroke:none"
         x="-99.114502"
         y="42.613701">2.0 m</tspan></text>
    <path
       id="path65"
       d="m 58.9102,177.34 0.7812,245"
       style="fill:none;stroke:#231f20;stroke-width:5;stroke-linecap:butt;stroke-linejoin:miter;stroke-miterlimit:3.86369;stroke-dasharray:none;stroke-opacity:1"
       transform="matrix(0.13333333,0,0,-0.13333333,0,126.66667)"
       clip-path="url(#clipPath66)" />
    <path
       id="path67"
       d="M 60.1992,179.219 2.57813,141.91"
       style="fill:none;stroke:#231f20;stroke-width:5;stroke-linecap:butt;stroke-linejoin:miter;stroke-miterlimit:3.86369;stroke-dasharray:none;stroke-opacity:1"
       transform="matrix(0.13333333,0,0,-0.13333333,0,126.66667)"
       clip-path="url(#clipPath68)" />
    <path
       id="path69"
       d="M 60,213.551 2.42188,176.25"
       style="fill:none;stroke:#231f20;stroke-width:5;stroke-linecap:butt;stroke-linejoin:miter;stroke-miterlimit:3.86369;stroke-dasharray:none;stroke-opacity:1"
       transform="matrix(0.13333333,0,0,-0.13333333,0,126.66667)"
       clip-path="url(#clipPath70)" />
    <path
       id="path71"
       d="M 59.8398,247.891 2.23047,210.551"
       style="fill:none;stroke:#231f20;stroke-width:5;stroke-linecap:butt;stroke-linejoin:miter;stroke-miterlimit:3.86369;stroke-dasharray:none;stroke-opacity:1"
       transform="matrix(0.13333333,0,0,-0.13333333,0,126.66667)"
       clip-path="url(#clipPath72)" />
    <path
       id="path73"
       d="M 59.6914,282.23 2.07031,244.879"
       style="fill:none;stroke:#231f20;stroke-width:5;stroke-linecap:butt;stroke-linejoin:miter;stroke-miterlimit:3.86369;stroke-dasharray:none;stroke-opacity:1"
       transform="matrix(0.13333333,0,0,-0.13333333,0,126.66667)"
       clip-path="url(#clipPath74)" />
    <path
       id="path75"
       d="M 59.5313,316.559 1.91016,279.219"
       style="fill:none;stroke:#231f20;stroke-width:5;stroke-linecap:butt;stroke-linejoin:miter;stroke-miterlimit:3.86369;stroke-dasharray:none;stroke-opacity:1"
       transform="matrix(0.13333333,0,0,-0.13333333,0,126.66667)"
       clip-path="url(#clipPath76)" />
    <path
       id="path77"
       d="M 59.3789,350.898 1.76172,313.551"
       style="fill:none;stroke:#231f20;stroke-width:5;stroke-linecap:butt;stroke-linejoin:miter;stroke-miterlimit:3.86369;stroke-dasharray:none;stroke-opacity:1"
       transform="matrix(0.13333333,0,0,-0.13333333,0,126.66667)"
       clip-path="url(#clipPath78)" />
    <path
       id="path79"
       d="M 59.2188,385.199 1.60156,347.891"
       style="fill:none;stroke:#231f20;stroke-width:5;stroke-linecap:butt;stroke-linejoin:miter;stroke-miterlimit:3.86369;stroke-dasharray:none;stroke-opacity:1"
       transform="matrix(0.13333333,0,0,-0.13333333,0,126.66667)"
       clip-path="url(#clipPath80)" />
    <path
       id="path81"
       d="M 59.0586,419.531 1.44922,382.23"
       style="fill:none;stroke:#231f20;stroke-width:5;stroke-linecap:butt;stroke-linejoin:miter;stroke-miterlimit:3.86369;stroke-dasharray:none;stroke-opacity:1"
       transform="matrix(0.13333333,0,0,-0.13333333,0,126.66667)"
       clip-path="url(#clipPath82)" />
    <path
       id="path83"
       d="m 73.9492,293.129 c 0,8.902 -7.2304,16.133 -16.1406,16.133 -8.8984,0 -16.1289,-7.231 -16.1289,-16.133 0,-8.91 7.2305,-16.141 16.1289,-16.141 8.9102,0 16.1406,7.231 16.1406,16.141"
       style="fill:#ffffff;fill-opacity:1;fill-rule:nonzero;stroke:none"
       transform="matrix(0.13333333,0,0,-0.13333333,0,126.66667)"
       clip-path="url(#clipPath84)" />
    <path
       id="path85"
       d="m 74.6094,293.129 c 0,9.293 -7.5,16.793 -16.8008,16.793 -9.2891,0 -16.7891,-7.5 -16.7891,-16.793 0,-9.301 7.5,-16.801 16.7891,-16.801 9.3008,0 16.8008,7.5 16.8008,16.801 z"
       style="fill:none;stroke:#231f20;stroke-width:4.8;stroke-linecap:butt;stroke-linejoin:miter;stroke-miterlimit:3.86369;stroke-dasharray:none;stroke-opacity:1"
       transform="matrix(0.13333333,0,0,-0.13333333,0,126.66667)"
       clip-path="url(#clipPath86)" />
    <path
       id="path87"
       d="m 540.941,756.129 c 0,8.91 -7.23,16.141 -16.14,16.141 -8.903,0 -16.129,-7.231 -16.129,-16.141 0,-8.899 7.226,-16.129 16.129,-16.129 8.91,0 16.14,7.23 16.14,16.129"
       style="fill:#ffffff;fill-opacity:1;fill-rule:nonzero;stroke:none"
       transform="matrix(0.13333333,0,0,-0.13333333,0,126.66667)"
       clip-path="url(#clipPath88)" />
    <path
       id="path89"
       d="m 541.602,756.129 c 0,9.262 -7.5,16.801 -16.801,16.801 -9.289,0 -16.789,-7.539 -16.789,-16.801 0,-9.289 7.5,-16.789 16.789,-16.789 9.301,0 16.801,7.5 16.801,16.789 z"
       style="fill:none;stroke:#231f20;stroke-width:4.8;stroke-linecap:butt;stroke-linejoin:miter;stroke-miterlimit:3.86369;stroke-dasharray:none;stroke-opacity:1"
       transform="matrix(0.13333333,0,0,-0.13333333,0,126.66667)"
       clip-path="url(#clipPath90)" />
    <path
       id="path91"
       d="m 1012.93,756.129 c 0,8.91 -7.23,16.141 -16.129,16.141 -8.91,0 -16.102,-7.231 -16.102,-16.141 0,-8.899 7.192,-16.129 16.102,-16.129 8.899,0 16.129,7.23 16.129,16.129"
       style="fill:#ffffff;fill-opacity:1;fill-rule:nonzero;stroke:none"
       transform="matrix(0.13333333,0,0,-0.13333333,0,126.66667)"
       clip-path="url(#clipPath92)" />
    <path
       id="path93"
       d="m 1013.63,756.129 c 0,9.262 -7.54,16.801 -16.829,16.801 -9.262,0 -16.801,-7.539 -16.801,-16.801 0,-9.289 7.539,-16.789 16.801,-16.789 9.289,0 16.829,7.5 16.829,16.789 z"
       style="fill:none;stroke:#231f20;stroke-width:4.8;stroke-linecap:butt;stroke-linejoin:miter;stroke-miterlimit:3.86369;stroke-dasharray:none;stroke-opacity:1"
       transform="matrix(0.13333333,0,0,-0.13333333,0,126.66667)"
       clip-path="url(#clipPath94)" />
    <path
       id="path95"
       d="M 530.309,135.941 V 11.5586"
       style="fill:none;stroke:#231f20;stroke-width:2.5;stroke-linecap:butt;stroke-linejoin:miter;stroke-miterlimit:3.86369;stroke-dasharray:none;stroke-opacity:1"
       transform="matrix(0.13333333,0,0,-0.13333333,0,126.66667)"
       clip-path="url(#clipPath96)" />
    <path
       id="path97"
       d="m 509.102,48.9102 41.488,40.539"
       style="fill:none;stroke:#000000;stroke-width:2.54153;stroke-linecap:butt;stroke-linejoin:miter;stroke-miterlimit:4;stroke-dasharray:none;stroke-opacity:1"
       transform="matrix(0.13333333,0,0,-0.13333333,0,126.66667)"
       clip-path="url(#clipPath98)" />
    <path
       id="path99"
       d="M 999.262,134.301 V 9.92188"
       style="fill:none;stroke:#231f20;stroke-width:2.5;stroke-linecap:butt;stroke-linejoin:miter;stroke-miterlimit:3.86369;stroke-dasharray:none;stroke-opacity:1"
       transform="matrix(0.13333333,0,0,-0.13333333,0,126.66667)"
       clip-path="url(#clipPath100)" />
    <path
       id="path101"
       d="m 978.09,47.2695 41.48,40.5821"
       style="fill:none;stroke:#000000;stroke-width:2.54153;stroke-linecap:butt;stroke-linejoin:miter;stroke-miterlimit:4;stroke-dasharray:none;stroke-opacity:1"
       transform="matrix(0.13333333,0,0,-0.13333333,0,126.66667)"
       clip-path="url(#clipPath102)" />
    <path
       id="path103"
       d="m 70.8203,304.137 443.9807,440"
       style="fill:none;stroke:#000000;stroke-width:8;stroke-linecap:butt;stroke-linejoin:miter;stroke-miterlimit:4;stroke-dasharray:none;stroke-opacity:1"
       transform="matrix(0.13333333,0,0,-0.13333333,0,126.66667)"
       clip-path="url(#clipPath104)" />
    <path
       id="path105"
       d="M 984.801,748.129 70.8203,296.137"
       style="fill:none;stroke:#000000;stroke-width:8;stroke-linecap:butt;stroke-linejoin:miter;stroke-miterlimit:4;stroke-dasharray:none;stroke-opacity:1"
       transform="matrix(0.13333333,0,0,-0.13333333,0,126.66667)"
       clip-path="url(#clipPath106)" />
    <text
       id="text106"
       xml:space="preserve"
       transform="matrix(1.3333333,0,0,1.3333333,26.083333,115.15416)"
       clip-path="url(#clipPath107)"><tspan
         id="tspan106"
         style="font-variant:normal;font-weight:normal;font-size:9.6px;font-family:'Times New Roman';writing-mode:lr-tb;fill:#231f20;fill-opacity:1;fill-rule:nonzero;stroke:none"
         x="0"
         y="0">2.0 m</tspan><tspan
         id="tspan107"
         style="font-variant:normal;font-weight:normal;font-size:9.6px;font-family:'Times New Roman';writing-mode:lr-tb;fill:#231f20;fill-opacity:1;fill-rule:nonzero;stroke:none"
         x="94.199997"
         y="0.2">2.0 m</tspan></text>
  </g>
</svg>
