<?xml version="1.0" encoding="UTF-8" standalone="no"?>
<!-- Created with Inkscape (http://www.inkscape.org/) -->

<svg
   version="1.1"
   id="svg1"
   width="622.66669"
   height="498.66666"
   viewBox="0 0 622.66669 498.66666"
   sodipodi:docname="exs7f2.eps"
   xmlns:inkscape="http://www.inkscape.org/namespaces/inkscape"
   xmlns:sodipodi="http://sodipodi.sourceforge.net/DTD/sodipodi-0.dtd"
   xmlns="http://www.w3.org/2000/svg"
   xmlns:svg="http://www.w3.org/2000/svg">
  <defs
     id="defs1">
    <clipPath
       clipPathUnits="userSpaceOnUse"
       id="clipPath2">
      <path
         d="M 2,9 V 3740 H 4670 V 9 Z"
         transform="translate(0,2.5000001e-5)"
         id="path2" />
    </clipPath>
    <clipPath
       clipPathUnits="userSpaceOnUse"
       id="clipPath4">
      <path
         d="M 2,9 V 3740 H 4670 V 9 Z"
         transform="translate(0,2.5000001e-5)"
         id="path4" />
    </clipPath>
    <clipPath
       clipPathUnits="userSpaceOnUse"
       id="clipPath6">
      <path
         d="M 2,9 V 3740 H 4670 V 9 Z"
         transform="translate(0,2.5000001e-5)"
         id="path6" />
    </clipPath>
    <clipPath
       clipPathUnits="userSpaceOnUse"
       id="clipPath8">
      <path
         d="M 2,9 V 3740 H 4670 V 9 Z"
         transform="translate(0,2.5000001e-5)"
         id="path8" />
    </clipPath>
    <clipPath
       clipPathUnits="userSpaceOnUse"
       id="clipPath10">
      <path
         d="M 2,9 V 3740 H 4670 V 9 Z"
         transform="translate(0,2.5000001e-5)"
         id="path10" />
    </clipPath>
    <clipPath
       clipPathUnits="userSpaceOnUse"
       id="clipPath12">
      <path
         d="M 2,9 V 3740 H 4670 V 9 Z"
         transform="translate(0,2.5000001e-5)"
         id="path12" />
    </clipPath>
    <clipPath
       clipPathUnits="userSpaceOnUse"
       id="clipPath14">
      <path
         d="M 2,9 V 3740 H 4670 V 9 Z"
         transform="matrix(0.1,0,0,-0.1,-47.666801,3.2500026)"
         id="path14" />
    </clipPath>
    <clipPath
       clipPathUnits="userSpaceOnUse"
       id="clipPath16">
      <path
         d="M 2,9 V 3740 H 4670 V 9 Z"
         transform="translate(0,2.5000001e-5)"
         id="path16" />
    </clipPath>
    <clipPath
       clipPathUnits="userSpaceOnUse"
       id="clipPath18">
      <path
         d="M 2,9 V 3740 H 4670 V 9 Z"
         transform="matrix(0.1,0,0,-0.1,-144.08301,3.2500026)"
         id="path18" />
    </clipPath>
    <clipPath
       clipPathUnits="userSpaceOnUse"
       id="clipPath20">
      <path
         d="M 2,9 V 3740 H 4670 V 9 Z"
         transform="translate(0,2.5000001e-5)"
         id="path20" />
    </clipPath>
    <clipPath
       clipPathUnits="userSpaceOnUse"
       id="clipPath22">
      <path
         d="M 2,9 V 3740 H 4670 V 9 Z"
         transform="matrix(0.1,0,0,-0.1,-226.417,3.2500026)"
         id="path22" />
    </clipPath>
    <clipPath
       clipPathUnits="userSpaceOnUse"
       id="clipPath24">
      <path
         d="M 2,9 V 3740 H 4670 V 9 Z"
         transform="translate(0,2.5000001e-5)"
         id="path24" />
    </clipPath>
    <clipPath
       clipPathUnits="userSpaceOnUse"
       id="clipPath26">
      <path
         d="M 2,9 V 3740 H 4670 V 9 Z"
         transform="matrix(0.1,0,0,-0.1,-317.00001,3.2500026)"
         id="path26" />
    </clipPath>
    <clipPath
       clipPathUnits="userSpaceOnUse"
       id="clipPath28">
      <path
         d="M 2,9 V 3740 H 4670 V 9 Z"
         transform="translate(0,2.5000001e-5)"
         id="path28" />
    </clipPath>
    <clipPath
       clipPathUnits="userSpaceOnUse"
       id="clipPath30">
      <path
         d="M 2,9 V 3740 H 4670 V 9 Z"
         transform="matrix(0.1,0,0,-0.1,-399.25001,3.2500026)"
         id="path30" />
    </clipPath>
    <clipPath
       clipPathUnits="userSpaceOnUse"
       id="clipPath32">
      <path
         d="M 2,9 V 3740 H 4670 V 9 Z"
         transform="translate(0,2.5000001e-5)"
         id="path32" />
    </clipPath>
    <clipPath
       clipPathUnits="userSpaceOnUse"
       id="clipPath34">
      <path
         d="M 2,9 V 3740 H 4670 V 9 Z"
         transform="matrix(0.1,0,0,-0.1,-8.5832005,11.666803)"
         id="path34" />
    </clipPath>
    <clipPath
       clipPathUnits="userSpaceOnUse"
       id="clipPath36">
      <path
         d="M 2,9 V 3740 H 4670 V 9 Z"
         transform="translate(0,2.5000001e-5)"
         id="path36" />
    </clipPath>
    <clipPath
       clipPathUnits="userSpaceOnUse"
       id="clipPath38">
      <path
         d="M 2,9 V 3740 H 4670 V 9 Z"
         transform="matrix(0.1,0,0,-0.1,-0.25,46.250001)"
         id="path38" />
    </clipPath>
    <clipPath
       clipPathUnits="userSpaceOnUse"
       id="clipPath40">
      <path
         d="M 2,9 V 3740 H 4670 V 9 Z"
         transform="translate(0,2.5000001e-5)"
         id="path40" />
    </clipPath>
    <clipPath
       clipPathUnits="userSpaceOnUse"
       id="clipPath42">
      <path
         d="M 2,9 V 3740 H 4670 V 9 Z"
         transform="matrix(0.1,0,0,-0.1,-0.25,80.8332)"
         id="path42" />
    </clipPath>
    <clipPath
       clipPathUnits="userSpaceOnUse"
       id="clipPath44">
      <path
         d="M 2,9 V 3740 H 4670 V 9 Z"
         transform="translate(0,2.5000001e-5)"
         id="path44" />
    </clipPath>
    <clipPath
       clipPathUnits="userSpaceOnUse"
       id="clipPath46">
      <path
         d="M 2,9 V 3740 H 4670 V 9 Z"
         transform="matrix(0.1,0,0,-0.1,-0.25,115.41701)"
         id="path46" />
    </clipPath>
    <clipPath
       clipPathUnits="userSpaceOnUse"
       id="clipPath48">
      <path
         d="M 2,9 V 3740 H 4670 V 9 Z"
         transform="translate(0,2.5000001e-5)"
         id="path48" />
    </clipPath>
    <clipPath
       clipPathUnits="userSpaceOnUse"
       id="clipPath50">
      <path
         d="M 2,9 V 3740 H 4670 V 9 Z"
         transform="matrix(0.1,0,0,-0.1,-0.25,150)"
         id="path50" />
    </clipPath>
    <clipPath
       clipPathUnits="userSpaceOnUse"
       id="clipPath52">
      <path
         d="M 2,9 V 3740 H 4670 V 9 Z"
         transform="translate(0,2.5000001e-5)"
         id="path52" />
    </clipPath>
    <clipPath
       clipPathUnits="userSpaceOnUse"
       id="clipPath54">
      <path
         d="M 2,9 V 3740 H 4670 V 9 Z"
         transform="matrix(0.1,0,0,-0.1,-8.5832005,184.583)"
         id="path54" />
    </clipPath>
    <clipPath
       clipPathUnits="userSpaceOnUse"
       id="clipPath56">
      <path
         d="M 2,9 V 3740 H 4670 V 9 Z"
         transform="translate(0,2.5000001e-5)"
         id="path56" />
    </clipPath>
    <clipPath
       clipPathUnits="userSpaceOnUse"
       id="clipPath58">
      <path
         d="M 2,9 V 3740 H 4670 V 9 Z"
         transform="matrix(0.1,0,0,-0.1,-0.25,219.16701)"
         id="path58" />
    </clipPath>
    <clipPath
       clipPathUnits="userSpaceOnUse"
       id="clipPath60">
      <path
         d="M 2,9 V 3740 H 4670 V 9 Z"
         transform="translate(0,2.5000001e-5)"
         id="path60" />
    </clipPath>
    <clipPath
       clipPathUnits="userSpaceOnUse"
       id="clipPath62">
      <path
         d="M 2,9 V 3740 H 4670 V 9 Z"
         transform="matrix(0.1,0,0,-0.1,-0.25,253.75001)"
         id="path62" />
    </clipPath>
    <clipPath
       clipPathUnits="userSpaceOnUse"
       id="clipPath64">
      <path
         d="M 2,9 V 3740 H 4670 V 9 Z"
         transform="translate(0,2.5000001e-5)"
         id="path64" />
    </clipPath>
    <clipPath
       clipPathUnits="userSpaceOnUse"
       id="clipPath66">
      <path
         d="M 2,9 V 3740 H 4670 V 9 Z"
         transform="matrix(0.1,0,0,-0.1,-0.25,288.333)"
         id="path66" />
    </clipPath>
    <clipPath
       clipPathUnits="userSpaceOnUse"
       id="clipPath68">
      <path
         d="M 2,9 V 3740 H 4670 V 9 Z"
         transform="translate(0,2.5000001e-5)"
         id="path68" />
    </clipPath>
    <clipPath
       clipPathUnits="userSpaceOnUse"
       id="clipPath70">
      <path
         d="M 2,9 V 3740 H 4670 V 9 Z"
         transform="matrix(0.1,0,0,-0.1,-0.25,322.91701)"
         id="path70" />
    </clipPath>
    <clipPath
       clipPathUnits="userSpaceOnUse"
       id="clipPath72">
      <path
         d="M 2,9 V 3740 H 4670 V 9 Z"
         transform="translate(0,2.5000001e-5)"
         id="path72" />
    </clipPath>
    <clipPath
       clipPathUnits="userSpaceOnUse"
       id="clipPath74">
      <path
         d="M 2,9 V 3740 H 4670 V 9 Z"
         transform="matrix(0.1,0,0,-0.1,-8.5832005,357.50001)"
         id="path74" />
    </clipPath>
    <clipPath
       clipPathUnits="userSpaceOnUse"
       id="clipPath76">
      <path
         d="M 170,152.5 H 4636.67 V 3675.83 H 170 Z"
         transform="translate(0,2.5000001e-5)"
         id="path76" />
    </clipPath>
    <clipPath
       clipPathUnits="userSpaceOnUse"
       id="clipPath78">
      <path
         d="M 170,152.5 H 4636.67 V 3675.83 H 170 Z"
         transform="translate(0,2.5000001e-5)"
         id="path78" />
    </clipPath>
    <clipPath
       clipPathUnits="userSpaceOnUse"
       id="clipPath80">
      <path
         d="M 170,152.5 H 4636.67 V 3675.83 H 170 Z"
         transform="translate(0,2.5000001e-5)"
         id="path80" />
    </clipPath>
    <clipPath
       clipPathUnits="userSpaceOnUse"
       id="clipPath82">
      <path
         d="M 170,152.5 H 4636.67 V 3675.83 H 170 Z"
         transform="translate(0,2.5000001e-5)"
         id="path82" />
    </clipPath>
    <clipPath
       clipPathUnits="userSpaceOnUse"
       id="clipPath84">
      <path
         d="M 170,152.5 H 4636.67 V 3675.83 H 170 Z"
         transform="translate(0,2.5000001e-5)"
         id="path84" />
    </clipPath>
    <clipPath
       clipPathUnits="userSpaceOnUse"
       id="clipPath86">
      <path
         d="M 170,152.5 H 4636.67 V 3675.83 H 170 Z"
         transform="translate(0,2.5000001e-5)"
         id="path86" />
    </clipPath>
    <clipPath
       clipPathUnits="userSpaceOnUse"
       id="clipPath88">
      <path
         d="M 2,9 H 4670 V 3740 H 2 Z"
         transform="translate(0,2.5000001e-5)"
         id="path88" />
    </clipPath>
    <clipPath
       clipPathUnits="userSpaceOnUse"
       id="clipPath90">
      <path
         d="M 2,9 H 4670 V 3740 H 2 Z"
         transform="translate(0,2.5000001e-5)"
         id="path90" />
    </clipPath>
    <clipPath
       clipPathUnits="userSpaceOnUse"
       id="clipPath92">
      <path
         d="M 2,9 H 4670 V 3740 H 2 Z"
         transform="translate(0,2.5000001e-5)"
         id="path92" />
    </clipPath>
    <clipPath
       clipPathUnits="userSpaceOnUse"
       id="clipPath94">
      <path
         d="M 2,9 H 4670 V 3740 H 2 Z"
         transform="translate(0,2.5000001e-5)"
         id="path94" />
    </clipPath>
    <clipPath
       clipPathUnits="userSpaceOnUse"
       id="clipPath96">
      <path
         d="M 2,9 H 4670 V 3740 H 2 Z"
         transform="translate(0,2.5000001e-5)"
         id="path96" />
    </clipPath>
    <clipPath
       clipPathUnits="userSpaceOnUse"
       id="clipPath98">
      <path
         d="M 2,9 H 4670 V 3740 H 2 Z"
         transform="translate(0,2.5000001e-5)"
         id="path98" />
    </clipPath>
    <clipPath
       clipPathUnits="userSpaceOnUse"
       id="clipPath100">
      <path
         d="M 2,9 H 4670 V 3740 H 2 Z"
         transform="translate(0,2.5000001e-5)"
         id="path100" />
    </clipPath>
    <clipPath
       clipPathUnits="userSpaceOnUse"
       id="clipPath102">
      <path
         d="M 2,9 H 4670 V 3740 H 2 Z"
         transform="translate(0,2.5000001e-5)"
         id="path102" />
    </clipPath>
    <clipPath
       clipPathUnits="userSpaceOnUse"
       id="clipPath104">
      <path
         d="M 2,9 H 4670 V 3740 H 2 Z"
         transform="translate(0,2.5000001e-5)"
         id="path104" />
    </clipPath>
    <clipPath
       clipPathUnits="userSpaceOnUse"
       id="clipPath106">
      <path
         d="M 2,9 H 4670 V 3740 H 2 Z"
         transform="translate(0,2.5000001e-5)"
         id="path106" />
    </clipPath>
    <clipPath
       clipPathUnits="userSpaceOnUse"
       id="clipPath108">
      <path
         d="M 2,9 H 4670 V 3740 H 2 Z"
         transform="translate(0,2.5000001e-5)"
         id="path108" />
    </clipPath>
    <clipPath
       clipPathUnits="userSpaceOnUse"
       id="clipPath110">
      <path
         d="M 2,9 H 4670 V 3740 H 2 Z"
         transform="translate(0,2.5000001e-5)"
         id="path110" />
    </clipPath>
    <clipPath
       clipPathUnits="userSpaceOnUse"
       id="clipPath112">
      <path
         d="M 170,152.5 H 4636.67 V 3675.83 H 170 Z"
         transform="translate(0,2.5000001e-5)"
         id="path112" />
    </clipPath>
    <clipPath
       clipPathUnits="userSpaceOnUse"
       id="clipPath114">
      <path
         d="M 170,152.5 H 4636.67 V 3675.83 H 170 Z"
         transform="translate(0,2.5000001e-5)"
         id="path114" />
    </clipPath>
    <clipPath
       clipPathUnits="userSpaceOnUse"
       id="clipPath116">
      <path
         d="M 170,152.5 H 4636.67 V 3675.83 H 170 Z"
         transform="translate(0,2.5000001e-5)"
         id="path116" />
    </clipPath>
    <clipPath
       clipPathUnits="userSpaceOnUse"
       id="clipPath118">
      <path
         d="M 170,152.5 H 4636.67 V 3675.83 H 170 Z"
         transform="translate(0,2.5000001e-5)"
         id="path118" />
    </clipPath>
    <clipPath
       clipPathUnits="userSpaceOnUse"
       id="clipPath120">
      <path
         d="M 2,9 H 4670 V 3740 H 2 Z"
         transform="translate(0,2.5000001e-5)"
         id="path120" />
    </clipPath>
    <clipPath
       clipPathUnits="userSpaceOnUse"
       id="clipPath122">
      <path
         d="M 2,9 H 4670 V 3740 H 2 Z"
         transform="translate(0,2.5000001e-5)"
         id="path122" />
    </clipPath>
    <clipPath
       clipPathUnits="userSpaceOnUse"
       id="clipPath124">
      <path
         d="M 2,9 H 4670 V 3740 H 2 Z"
         transform="translate(0,2.5000001e-5)"
         id="path124" />
    </clipPath>
    <clipPath
       clipPathUnits="userSpaceOnUse"
       id="clipPath126">
      <path
         d="M 2,9 H 4670 V 3740 H 2 Z"
         transform="translate(0,2.5000001e-5)"
         id="path126" />
    </clipPath>
    <clipPath
       clipPathUnits="userSpaceOnUse"
       id="clipPath128">
      <path
         d="M 2,9 H 4670 V 3740 H 2 Z"
         transform="translate(0,2.5000001e-5)"
         id="path128" />
    </clipPath>
    <clipPath
       clipPathUnits="userSpaceOnUse"
       id="clipPath130">
      <path
         d="M 2,9 H 4670 V 3740 H 2 Z"
         transform="translate(0,2.5000001e-5)"
         id="path130" />
    </clipPath>
    <clipPath
       clipPathUnits="userSpaceOnUse"
       id="clipPath132">
      <path
         d="M 2,9 H 4670 V 3740 H 2 Z"
         transform="translate(0,2.5000001e-5)"
         id="path132" />
    </clipPath>
    <clipPath
       clipPathUnits="userSpaceOnUse"
       id="clipPath134">
      <path
         d="M 2,9 H 4670 V 3740 H 2 Z"
         transform="translate(0,2.5000001e-5)"
         id="path134" />
    </clipPath>
    <clipPath
       clipPathUnits="userSpaceOnUse"
       id="clipPath136">
      <path
         d="M 170,152.5 H 4636.67 V 3675.83 H 170 Z"
         transform="translate(0,2.5000001e-5)"
         id="path136" />
    </clipPath>
    <clipPath
       clipPathUnits="userSpaceOnUse"
       id="clipPath138">
      <path
         d="M 170,152.5 H 4636.67 V 3675.83 H 170 Z"
         transform="translate(0,2.5000001e-5)"
         id="path138" />
    </clipPath>
    <clipPath
       clipPathUnits="userSpaceOnUse"
       id="clipPath140">
      <path
         d="M 170,152.5 H 4636.67 V 3675.83 H 170 Z"
         transform="translate(0,2.5000001e-5)"
         id="path140" />
    </clipPath>
    <clipPath
       clipPathUnits="userSpaceOnUse"
       id="clipPath142">
      <path
         d="M 170,152.5 H 4636.67 V 3675.83 H 170 Z"
         transform="translate(0,2.5000001e-5)"
         id="path142" />
    </clipPath>
    <clipPath
       clipPathUnits="userSpaceOnUse"
       id="clipPath144">
      <path
         d="M 170,152.5 H 4636.67 V 3675.83 H 170 Z"
         transform="translate(0,2.5000001e-5)"
         id="path144" />
    </clipPath>
    <clipPath
       clipPathUnits="userSpaceOnUse"
       id="clipPath146">
      <path
         d="M 170,152.5 H 4636.67 V 3675.83 H 170 Z"
         transform="translate(0,2.5000001e-5)"
         id="path146" />
    </clipPath>
    <clipPath
       clipPathUnits="userSpaceOnUse"
       id="clipPath148">
      <path
         d="M 2,9 H 4670 V 3740 H 2 Z"
         transform="translate(0,2.5000001e-5)"
         id="path148" />
    </clipPath>
    <clipPath
       clipPathUnits="userSpaceOnUse"
       id="clipPath150">
      <path
         d="M 2,9 H 4670 V 3740 H 2 Z"
         transform="translate(0,2.5000001e-5)"
         id="path150" />
    </clipPath>
    <clipPath
       clipPathUnits="userSpaceOnUse"
       id="clipPath152">
      <path
         d="M 2,9 H 4670 V 3740 H 2 Z"
         transform="translate(0,2.5000001e-5)"
         id="path152" />
    </clipPath>
    <clipPath
       clipPathUnits="userSpaceOnUse"
       id="clipPath154">
      <path
         d="M 2,9 H 4670 V 3740 H 2 Z"
         transform="translate(0,2.5000001e-5)"
         id="path154" />
    </clipPath>
    <clipPath
       clipPathUnits="userSpaceOnUse"
       id="clipPath156">
      <path
         d="M 2,9 H 4670 V 3740 H 2 Z"
         transform="translate(0,2.5000001e-5)"
         id="path156" />
    </clipPath>
    <clipPath
       clipPathUnits="userSpaceOnUse"
       id="clipPath158">
      <path
         d="M 2,9 H 4670 V 3740 H 2 Z"
         transform="translate(0,2.5000001e-5)"
         id="path158" />
    </clipPath>
    <clipPath
       clipPathUnits="userSpaceOnUse"
       id="clipPath160">
      <path
         d="M 2,9 H 4670 V 3740 H 2 Z"
         transform="translate(0,2.5000001e-5)"
         id="path160" />
    </clipPath>
    <clipPath
       clipPathUnits="userSpaceOnUse"
       id="clipPath162">
      <path
         d="M 2,9 H 4670 V 3740 H 2 Z"
         transform="translate(0,2.5000001e-5)"
         id="path162" />
    </clipPath>
    <clipPath
       clipPathUnits="userSpaceOnUse"
       id="clipPath164">
      <path
         d="M 2,9 H 4670 V 3740 H 2 Z"
         transform="translate(0,2.5000001e-5)"
         id="path164" />
    </clipPath>
    <clipPath
       clipPathUnits="userSpaceOnUse"
       id="clipPath166">
      <path
         d="M 2,9 H 4670 V 3740 H 2 Z"
         transform="translate(0,2.5000001e-5)"
         id="path166" />
    </clipPath>
    <clipPath
       clipPathUnits="userSpaceOnUse"
       id="clipPath168">
      <path
         d="M 2,9 H 4670 V 3740 H 2 Z"
         transform="translate(0,2.5000001e-5)"
         id="path168" />
    </clipPath>
    <clipPath
       clipPathUnits="userSpaceOnUse"
       id="clipPath170">
      <path
         d="M 2,9 H 4670 V 3740 H 2 Z"
         transform="translate(0,2.5000001e-5)"
         id="path170" />
    </clipPath>
    <clipPath
       clipPathUnits="userSpaceOnUse"
       id="clipPath172">
      <path
         d="M 170,152.5 H 4636.67 V 3675.83 H 170 Z"
         transform="translate(0,2.5000001e-5)"
         id="path172" />
    </clipPath>
    <clipPath
       clipPathUnits="userSpaceOnUse"
       id="clipPath174">
      <path
         d="M 170,152.5 H 4636.67 V 3675.83 H 170 Z"
         transform="translate(0,2.5000001e-5)"
         id="path174" />
    </clipPath>
    <clipPath
       clipPathUnits="userSpaceOnUse"
       id="clipPath176">
      <path
         d="M 170,152.5 H 4636.67 V 3675.83 H 170 Z"
         transform="translate(0,2.5000001e-5)"
         id="path176" />
    </clipPath>
    <clipPath
       clipPathUnits="userSpaceOnUse"
       id="clipPath178">
      <path
         d="M 170,152.5 H 4636.67 V 3675.83 H 170 Z"
         transform="translate(0,2.5000001e-5)"
         id="path178" />
    </clipPath>
    <clipPath
       clipPathUnits="userSpaceOnUse"
       id="clipPath180">
      <path
         d="M 2,9 H 4670 V 3740 H 2 Z"
         transform="translate(0,2.5000001e-5)"
         id="path180" />
    </clipPath>
    <clipPath
       clipPathUnits="userSpaceOnUse"
       id="clipPath182">
      <path
         d="M 2,9 H 4670 V 3740 H 2 Z"
         transform="translate(0,2.5000001e-5)"
         id="path182" />
    </clipPath>
    <clipPath
       clipPathUnits="userSpaceOnUse"
       id="clipPath184">
      <path
         d="M 2,9 H 4670 V 3740 H 2 Z"
         transform="translate(0,2.5000001e-5)"
         id="path184" />
    </clipPath>
    <clipPath
       clipPathUnits="userSpaceOnUse"
       id="clipPath186">
      <path
         d="M 2,9 H 4670 V 3740 H 2 Z"
         transform="translate(0,2.5000001e-5)"
         id="path186" />
    </clipPath>
    <clipPath
       clipPathUnits="userSpaceOnUse"
       id="clipPath188">
      <path
         d="M 2,9 H 4670 V 3740 H 2 Z"
         transform="translate(0,2.5000001e-5)"
         id="path188" />
    </clipPath>
    <clipPath
       clipPathUnits="userSpaceOnUse"
       id="clipPath190">
      <path
         d="M 2,9 H 4670 V 3740 H 2 Z"
         transform="translate(0,2.5000001e-5)"
         id="path190" />
    </clipPath>
    <clipPath
       clipPathUnits="userSpaceOnUse"
       id="clipPath192">
      <path
         d="M 2,9 H 4670 V 3740 H 2 Z"
         transform="translate(0,2.5000001e-5)"
         id="path192" />
    </clipPath>
    <clipPath
       clipPathUnits="userSpaceOnUse"
       id="clipPath194">
      <path
         d="M 2,9 H 4670 V 3740 H 2 Z"
         transform="translate(0,2.5000001e-5)"
         id="path194" />
    </clipPath>
  </defs>
  <sodipodi:namedview
     id="namedview1"
     pagecolor="#ffffff"
     bordercolor="#000000"
     borderopacity="0.25"
     inkscape:showpageshadow="2"
     inkscape:pageopacity="0.0"
     inkscape:pagecheckerboard="0"
     inkscape:deskcolor="#d1d1d1">
    <inkscape:page
       x="0"
       y="0"
       inkscape:label="1"
       id="page1"
       width="622.66669"
       height="498.66666"
       margin="0"
       bleed="0" />
  </sodipodi:namedview>
  <g
     id="g1"
     inkscape:groupmode="layer"
     inkscape:label="1">
    <path
       id="path1"
       d="M -580,-322.5 H 5185.83 V 4000 H -580 Z"
       style="fill:#ffffff;fill-opacity:1;fill-rule:nonzero;stroke:none"
       transform="matrix(0.13333333,0,0,-0.13333333,0,498.66667)"
       clip-path="url(#clipPath2)" />
    <path
       id="path3"
       d="m 170,153.332 h 4465.83 v 3522.5 H 170 Z"
       style="fill:#ffffff;fill-opacity:1;fill-rule:evenodd;stroke:none"
       transform="matrix(0.13333333,0,0,-0.13333333,0,498.66667)"
       clip-path="url(#clipPath4)" />
    <path
       id="path5"
       d="M 170,153.332 V 3675.83 H 4635.83 V 153.332 H 170"
       style="fill:none;stroke:#ffffff;stroke-width:5;stroke-linecap:butt;stroke-linejoin:round;stroke-miterlimit:10;stroke-dasharray:none;stroke-opacity:1"
       transform="matrix(0.13333333,0,0,-0.13333333,0,498.66667)"
       clip-path="url(#clipPath6)" />
    <path
       id="path7"
       d="M 170,153.332 H 4635.83"
       style="fill:none;stroke:#000000;stroke-width:5;stroke-linecap:butt;stroke-linejoin:round;stroke-miterlimit:10;stroke-dasharray:none;stroke-opacity:1"
       transform="matrix(0.13333333,0,0,-0.13333333,0,498.66667)"
       clip-path="url(#clipPath8)" />
    <path
       id="path9"
       d="M 170,153.332 V 3675.83"
       style="fill:none;stroke:#000000;stroke-width:5;stroke-linecap:butt;stroke-linejoin:round;stroke-miterlimit:10;stroke-dasharray:none;stroke-opacity:1"
       transform="matrix(0.13333333,0,0,-0.13333333,0,498.66667)"
       clip-path="url(#clipPath10)" />
    <path
       id="path11"
       d="m 604.168,153.332 v 45"
       style="fill:none;stroke:#000000;stroke-width:5;stroke-linecap:butt;stroke-linejoin:round;stroke-miterlimit:10;stroke-dasharray:none;stroke-opacity:1"
       transform="matrix(0.13333333,0,0,-0.13333333,0,498.66667)"
       clip-path="url(#clipPath12)" />
    <path
       id="path13"
       d="M 5.4367156,-2.6728516 H 0.39765312 v 0.703125 H 5.4367156 Z m 3.1582031,-4.5585937 c -0.6679687,0 -1.265625,0.3046875 -1.6289062,0.796875 -0.46875,0.6328125 -0.6914063,1.59375 -0.6914063,2.9296875 0,2.4492187 0.796875,3.73828124 2.3203125,3.73828124 1.5000003,0 2.3085933,-1.28906254 2.3085933,-3.66796874 0,-1.40625 -0.210937,-2.34375 -0.679687,-3 -0.375,-0.5039063 -0.9609375,-0.796875 -1.6289063,-0.796875 z m 0,0.7851562 c 0.9492188,0 1.4179683,0.9726563 1.4179683,2.9296875 0,2.0507813 -0.4687495,3.01171879 -1.4414058,3.01171879 -0.9257812,0 -1.40625,-0.99609379 -1.40625,-2.98828129 0,-1.9804687 0.4804688,-2.953125 1.4296875,-2.953125 z m 4.7138673,5.4023438 h -1.042969 v 1.0429687375 h 1.042969 z m 5.62793,-6.046875 h -3.65625 l -0.527344,3.8554687 h 0.808594 c 0.410156,-0.4804687 0.75,-0.65625 1.300781,-0.65625 0.949219,0 1.546875,0.65625 1.546875,1.6992188 0,1.0195312 -0.597656,1.64062499 -1.546875,1.64062499 -0.773438,0 -1.242188,-0.38671875 -1.453125,-1.18359379 h -0.878906 c 0.117187,0.5742188 0.222656,0.85546879 0.433593,1.11328129 0.398438,0.5390625 1.113282,0.85546875 1.910157,0.85546875 1.429687,0 2.4375,-1.04296875 2.4375,-2.54296874 0,-1.3945313 -0.9375,-2.3554688 -2.296875,-2.3554688 -0.492188,0 -0.902344,0.1289063 -1.300782,0.421875 l 0.269532,-1.9804687 h 2.953125 z m 0,0"
       style="fill:#000000;fill-opacity:1;fill-rule:nonzero;stroke:none"
       aria-label="−0.5"
       transform="matrix(1.3333333,0,0,1.3333333,63.555733,494.33333)"
       clip-path="url(#clipPath14)" />
    <path
       id="path15"
       d="m 1468.33,153.332 v 45"
       style="fill:none;stroke:#000000;stroke-width:5;stroke-linecap:butt;stroke-linejoin:round;stroke-miterlimit:10;stroke-dasharray:none;stroke-opacity:1"
       transform="matrix(0.13333333,0,0,-0.13333333,0,498.66667)"
       clip-path="url(#clipPath16)" />
    <path
       id="path17"
       d="m 2.7529375,-7.2314453 c -0.6679687,0 -1.265625,0.3046875 -1.6289062,0.796875 -0.46875005,0.6328125 -0.6914063,1.59375 -0.6914063,2.9296875 0,2.4492187 0.796875,3.73828124 2.3203125,3.73828124 1.5,0 2.3085938,-1.28906254 2.3085938,-3.66796874 0,-1.40625 -0.2109375,-2.34375 -0.6796875,-3 -0.375,-0.5039063 -0.9609375,-0.796875 -1.6289063,-0.796875 z m 0,0.7851562 c 0.9492188,0 1.4179688,0.9726563 1.4179688,2.9296875 0,2.0507813 -0.46875,3.01171879 -1.4414063,3.01171879 -0.9257812,0 -1.40625,-0.99609379 -1.40625,-2.98828129 0,-1.9804687 0.4804688,-2.953125 1.4296875,-2.953125 z m 0,0"
       style="fill:#000000;fill-opacity:1;fill-rule:nonzero;stroke:none"
       aria-label="0"
       transform="matrix(1.3333333,0,0,1.3333333,192.11067,494.33333)"
       clip-path="url(#clipPath18)" />
    <path
       id="path19"
       d="m 2333.33,153.332 v 45"
       style="fill:none;stroke:#000000;stroke-width:5;stroke-linecap:butt;stroke-linejoin:round;stroke-miterlimit:10;stroke-dasharray:none;stroke-opacity:1"
       transform="matrix(0.13333333,0,0,-0.13333333,0,498.66667)"
       clip-path="url(#clipPath20)" />
    <path
       id="path21"
       d="m 2.754875,-7.2314453 c -0.6679687,0 -1.265625,0.3046875 -1.6289062,0.796875 -0.46875005,0.6328125 -0.6914063,1.59375 -0.6914063,2.9296875 0,2.4492187 0.796875,3.73828124 2.3203125,3.73828124 1.5,0 2.3085938,-1.28906254 2.3085938,-3.66796874 0,-1.40625 -0.2109375,-2.34375 -0.6796875,-3 -0.375,-0.5039063 -0.9609375,-0.796875 -1.6289063,-0.796875 z m 0,0.7851562 c 0.9492188,0 1.4179688,0.9726563 1.4179688,2.9296875 0,2.0507813 -0.46875,3.01171879 -1.4414063,3.01171879 -0.9257812,0 -1.40625,-0.99609379 -1.40625,-2.98828129 0,-1.9804687 0.4804688,-2.953125 1.4296875,-2.953125 z m 4.7138672,5.4023438 H 6.4257734 v 1.0429687375 h 1.0429688 z m 5.6279298,-6.046875 H 9.4404219 l -0.5273438,3.8554687 h 0.8085938 c 0.4101561,-0.4804687 0.7500001,-0.65625 1.3007811,-0.65625 0.949219,0 1.546875,0.65625 1.546875,1.6992188 0,1.0195312 -0.597656,1.64062499 -1.546875,1.64062499 -0.773437,0 -1.2421874,-0.38671875 -1.4531249,-1.18359379 H 8.6904219 c 0.1171875,0.5742188 0.2226562,0.85546879 0.4335937,1.11328129 0.3984375,0.5390625 1.1132814,0.85546875 1.9101564,0.85546875 1.429687,0 2.4375,-1.04296875 2.4375,-2.54296874 0,-1.3945313 -0.9375,-2.3554688 -2.296875,-2.3554688 -0.492188,0 -0.902344,0.1289063 -1.3007814,0.421875 l 0.2695314,-1.9804687 h 2.953125 z m 0,0"
       style="fill:#000000;fill-opacity:1;fill-rule:nonzero;stroke:none"
       aria-label="0.5"
       transform="matrix(1.3333333,0,0,1.3333333,301.88933,494.33333)"
       clip-path="url(#clipPath22)" />
    <path
       id="path23"
       d="m 3197.5,153.332 v 45"
       style="fill:none;stroke:#000000;stroke-width:5;stroke-linecap:butt;stroke-linejoin:round;stroke-miterlimit:10;stroke-dasharray:none;stroke-opacity:1"
       transform="matrix(0.13333333,0,0,-0.13333333,0,498.66667)"
       clip-path="url(#clipPath24)" />
    <path
       id="path25"
       d="M 2.5908203,-5.1455078 V -9.765625e-4 H 3.4697266 V -7.2314453 H 2.8955078 c -0.3164062,1.1132812 -0.515625,1.265625 -1.875,1.4414062 v 0.6445313 z m 0,0"
       style="fill:#000000;fill-opacity:1;fill-rule:nonzero;stroke:none"
       aria-label="1"
       transform="matrix(1.3333333,0,0,1.3333333,422.66667,494.33333)"
       clip-path="url(#clipPath26)" />
    <path
       id="path27"
       d="m 4061.67,153.332 v 45"
       style="fill:none;stroke:#000000;stroke-width:5;stroke-linecap:butt;stroke-linejoin:round;stroke-miterlimit:10;stroke-dasharray:none;stroke-opacity:1"
       transform="matrix(0.13333333,0,0,-0.13333333,0,498.66667)"
       clip-path="url(#clipPath28)" />
    <path
       id="path29"
       d="M 2.5888672,-5.1455078 V -9.765625e-4 H 3.4677734 V -7.2314453 H 2.8935547 c -0.3164063,1.1132812 -0.515625,1.265625 -1.875,1.4414062 v 0.6445313 z m 4.8808594,4.1015625 H 6.4267578 v 1.0429687375 h 1.0429688 z m 5.6279294,-6.046875 H 9.4414063 l -0.5273438,3.8554687 h 0.8085938 c 0.4101567,-0.4804687 0.7499997,-0.65625 1.3007817,-0.65625 0.949218,0 1.546875,0.65625 1.546875,1.6992188 0,1.0195312 -0.597657,1.64062499 -1.546875,1.64062499 -0.773438,0 -1.242188,-0.38671875 -1.4531255,-1.18359379 H 8.6914063 c 0.1171875,0.5742188 0.2226562,0.85546879 0.4335937,1.11328129 0.3984375,0.5390625 1.113281,0.85546875 1.910156,0.85546875 1.429688,0 2.4375,-1.04296875 2.4375,-2.54296874 0,-1.3945313 -0.9375,-2.3554688 -2.296875,-2.3554688 -0.492187,0 -0.902343,0.1289063 -1.300781,0.421875 l 0.269531,-1.9804687 h 2.953125 z m 0,0"
       style="fill:#000000;fill-opacity:1;fill-rule:nonzero;stroke:none"
       aria-label="1.5"
       transform="matrix(1.3333333,0,0,1.3333333,532.33333,494.33333)"
       clip-path="url(#clipPath30)" />
    <path
       id="path31"
       d="m 170,153.332 h 44.168"
       style="fill:none;stroke:#000000;stroke-width:5;stroke-linecap:butt;stroke-linejoin:round;stroke-miterlimit:10;stroke-dasharray:none;stroke-opacity:1"
       transform="matrix(0.13333333,0,0,-0.13333333,0,498.66667)"
       clip-path="url(#clipPath32)" />
    <path
       id="path33"
       d="m 2.7546906,-7.2316375 c -0.6679687,0 -1.265625,0.3046875 -1.6289062,0.796875 -0.46875002,0.6328125 -0.69140627,1.59375 -0.69140627,2.9296875 0,2.4492188 0.79687497,3.73828125 2.32031247,3.73828125 1.5,0 2.3085938,-1.28906245 2.3085938,-3.66796875 0,-1.40625 -0.2109375,-2.34375 -0.6796875,-3 -0.375,-0.5039062 -0.9609375,-0.796875 -1.6289063,-0.796875 z m 0,0.7851563 c 0.9492188,0 1.4179688,0.9726562 1.4179688,2.9296875 0,2.0507812 -0.46875,3.0117187 -1.4414063,3.0117187 -0.9257812,0 -1.40625,-0.9960937 -1.40625,-2.9882812 0,-1.9804688 0.4804688,-2.953125 1.4296875,-2.953125 z m 0,0"
       style="fill:#000000;fill-opacity:1;fill-rule:nonzero;stroke:none"
       aria-label="0"
       transform="matrix(1.3333333,0,0,1.3333333,11.444267,483.11093)"
       clip-path="url(#clipPath34)" />
    <path
       id="path35"
       d="m 170,499.168 h 44.168"
       style="fill:none;stroke:#000000;stroke-width:5;stroke-linecap:butt;stroke-linejoin:round;stroke-miterlimit:10;stroke-dasharray:none;stroke-opacity:1"
       transform="matrix(0.13333333,0,0,-0.13333333,0,498.66667)"
       clip-path="url(#clipPath36)" />
    <path
       id="path37"
       d="m 2.7529297,-7.2304687 c -0.6679688,0 -1.265625,0.3046875 -1.6289063,0.796875 -0.46874996,0.6328125 -0.69140621,1.59375 -0.69140621,2.9296875 0,2.4492187 0.79687501,3.7382812 2.32031251,3.7382812 1.5,0 2.3085937,-1.2890625 2.3085937,-3.6679687 0,-1.40625 -0.2109375,-2.34375 -0.6796875,-3 -0.375,-0.5039063 -0.9609375,-0.796875 -1.6289062,-0.796875 z m 0,0.7851562 c 0.9492187,0 1.4179687,0.9726563 1.4179687,2.9296875 0,2.0507813 -0.46875,3.01171875 -1.4414062,3.01171875 -0.9257813,0 -1.40625,-0.99609375 -1.40625,-2.98828125 0,-1.9804687 0.4804687,-2.953125 1.4296875,-2.953125 z m 4.7167969,5.4023438 H 6.4267578 V 0 h 1.0429688 z m 5.9326174,0.1757812 H 9.6640625 c 0.09375,-0.5976562 0.4101565,-0.984375 1.2890625,-1.5117187 l 0.996094,-0.5625 c 0.984375,-0.5507813 1.5,-1.2890625 1.5,-2.1796875 0,-0.5976563 -0.246094,-1.1601563 -0.65625,-1.546875 -0.421875,-0.375 -0.949219,-0.5625 -1.617188,-0.5625 -0.902343,0 -1.5703122,0.328125 -1.957031,0.9375 -0.2460937,0.3867187 -0.3632812,0.8320312 -0.375,1.5703125 h 0.8789063 c 0.023437,-0.4921875 0.082031,-0.7851563 0.2109375,-1.0195313 0.2226562,-0.4453125 0.6796872,-0.7148437 1.2187502,-0.7148437 0.796875,0 1.394531,0.5742187 1.394531,1.359375 0,0.5742187 -0.328125,1.078125 -0.960937,1.4414062 l -0.914063,0.5390625 c -1.4765625,0.84375 -1.9101562,1.5234375 -1.9921875,3.10546875 h 4.7226565 z m 0,0"
       style="fill:#000000;fill-opacity:1;fill-rule:nonzero;stroke:none"
       aria-label="0.2"
       transform="matrix(1.3333333,0,0,1.3333333,0.33333333,437)"
       clip-path="url(#clipPath38)" />
    <path
       id="path39"
       d="m 170,845 h 44.168"
       style="fill:none;stroke:#000000;stroke-width:5;stroke-linecap:butt;stroke-linejoin:round;stroke-miterlimit:10;stroke-dasharray:none;stroke-opacity:1"
       transform="matrix(0.13333333,0,0,-0.13333333,0,498.66667)"
       clip-path="url(#clipPath40)" />
    <path
       id="path41"
       d="m 2.7529297,-7.2293 c -0.6679688,0 -1.265625,0.3046875 -1.6289063,0.796875 -0.46874996,0.6328125 -0.69140621,1.59375 -0.69140621,2.9296875 0,2.4492188 0.79687501,3.73828125 2.32031251,3.73828125 1.5,0 2.3085937,-1.28906245 2.3085937,-3.66796875 0,-1.40625 -0.2109375,-2.34375 -0.6796875,-3 C 4.0068359,-6.9363312 3.4208984,-7.2293 2.7529297,-7.2293 Z m 0,0.7851563 c 0.9492187,0 1.4179687,0.9726562 1.4179687,2.9296875 0,2.0507812 -0.46875,3.0117187 -1.4414062,3.0117187 -0.9257813,0 -1.40625,-0.9960937 -1.40625,-2.9882812 0,-1.9804688 0.4804687,-2.953125 1.4296875,-2.953125 z M 7.4697266,-1.0418 H 6.4267578 v 1.04296875 h 1.0429688 z m 4.1396484,-0.703125 v 1.74609375 h 0.878906 V -1.744925 h 1.054688 V -2.5418 H 12.488281 V -7.2293 H 11.84375 l -3.2226562,4.546875 v 0.9375 z m 0,-0.796875 H 9.3945313 l 2.2148437,-3.1875 z m 0,0"
       style="fill:#000000;fill-opacity:1;fill-rule:nonzero;stroke:none"
       aria-label="0.4"
       transform="matrix(1.3333333,0,0,1.3333333,0.33333333,390.88907)"
       clip-path="url(#clipPath42)" />
    <path
       id="path43"
       d="m 170,1190.83 h 44.168"
       style="fill:none;stroke:#000000;stroke-width:5;stroke-linecap:butt;stroke-linejoin:round;stroke-miterlimit:10;stroke-dasharray:none;stroke-opacity:1"
       transform="matrix(0.13333333,0,0,-0.13333333,0,498.66667)"
       clip-path="url(#clipPath44)" />
    <path
       id="path45"
       d="m 2.7529297,-7.2304609 c -0.6679688,0 -1.265625,0.3046875 -1.6289063,0.796875 -0.46874996,0.6328125 -0.69140621,1.59375 -0.69140621,2.9296875 0,2.4492187 0.79687501,3.73828121 2.32031251,3.73828121 1.5,0 2.3085937,-1.28906251 2.3085937,-3.66796871 0,-1.40625 -0.2109375,-2.34375 -0.6796875,-3 -0.375,-0.5039063 -0.9609375,-0.796875 -1.6289062,-0.796875 z m 0,0.7851562 c 0.9492187,0 1.4179687,0.9726563 1.4179687,2.9296875 0,2.0507813 -0.46875,3.01171876 -1.4414062,3.01171876 -0.9257813,0 -1.40625,-0.99609376 -1.40625,-2.98828126 0,-1.9804687 0.4804687,-2.953125 1.4296875,-2.953125 z m 4.7167969,5.4023438 H 6.4267578 V 7.8125e-6 h 1.0429688 z m 5.8505864,-4.3007813 c -0.175782,-1.1835937 -0.9375,-1.8867187 -2.015625,-1.8867187 -0.773438,0 -1.476563,0.3867187 -1.898438,1.03125 -0.4453125,0.7148437 -0.6328125,1.59375 -0.6328125,2.90625 0,1.21875 0.1640625,1.9804687 0.5976563,2.62499996 0.375,0.5859375 0.9960942,0.90234375 1.7812502,0.90234375 1.347656,0 2.320312,-1.01953125 2.320312,-2.42578121 0,-1.3242188 -0.902343,-2.2617188 -2.179687,-2.2617188 -0.691406,0 -1.242188,0.2578125 -1.6289065,0.7851563 0.011719,-1.7929688 0.5742185,-2.7773438 1.5820315,-2.7773438 0.621094,0 1.054687,0.3984375 1.195312,1.1015625 z M 11.1875,-3.6796797 c 0.855469,0 1.382813,0.5976563 1.382813,1.5585938 0,0.9140625 -0.597657,1.57031246 -1.40625,1.57031246 -0.820313,0 -1.4414067,-0.69140626 -1.4414067,-1.60546876 0,-0.9023437 0.5976567,-1.5234375 1.4648437,-1.5234375 z m 0,0"
       style="fill:#000000;fill-opacity:1;fill-rule:nonzero;stroke:none"
       aria-label="0.6"
       transform="matrix(1.3333333,0,0,1.3333333,0.33333333,344.77733)"
       clip-path="url(#clipPath46)" />
    <path
       id="path47"
       d="m 170,1536.67 h 44.168"
       style="fill:none;stroke:#000000;stroke-width:5;stroke-linecap:butt;stroke-linejoin:round;stroke-miterlimit:10;stroke-dasharray:none;stroke-opacity:1"
       transform="matrix(0.13333333,0,0,-0.13333333,0,498.66667)"
       clip-path="url(#clipPath48)" />
    <path
       id="path49"
       d="m 2.7529297,-7.2294922 c -0.6679688,0 -1.265625,0.3046875 -1.6289063,0.796875 -0.46874996,0.6328125 -0.69140621,1.59375 -0.69140621,2.9296875 0,2.4492188 0.79687501,3.73828126 2.32031251,3.73828126 1.5,0 2.3085937,-1.28906246 2.3085937,-3.66796876 0,-1.40625 -0.2109375,-2.34375 -0.6796875,-3 -0.375,-0.5039062 -0.9609375,-0.796875 -1.6289062,-0.796875 z m 0,0.7851563 c 0.9492187,0 1.4179687,0.9726562 1.4179687,2.9296875 0,2.0507812 -0.46875,3.01171871 -1.4414062,3.01171871 -0.9257813,0 -1.40625,-0.99609371 -1.40625,-2.98828121 0,-1.9804688 0.4804687,-2.953125 1.4296875,-2.953125 z m 4.7167969,5.4023437 H 6.4267578 V 9.765625e-4 h 1.0429688 z m 4.7841794,-2.765625 c 0.738282,-0.4453125 0.960938,-0.8085937 0.960938,-1.4882812 0,-1.1367188 -0.867188,-1.9335938 -2.121094,-1.9335938 -1.2539062,0 -2.1328125,0.796875 -2.1328125,1.921875 0,0.6914063 0.234375,1.0429688 0.9609375,1.5 -0.8085937,0.4101563 -1.2070312,0.9960938 -1.2070312,1.8046875 0,1.31250001 0.9609375,2.23828126 2.3789062,2.23828126 1.394531,0 2.378906,-0.92578125 2.378906,-2.23828126 0,-0.8085937 -0.410156,-1.3945312 -1.21875,-1.8046875 z M 11.09375,-6.4443359 c 0.75,0 1.21875,0.4453125 1.21875,1.171875 0,0.6796875 -0.480469,1.125 -1.21875,1.125 -0.75,0 -1.2304687,-0.4453125 -1.2304687,-1.1484375 0,-0.703125 0.4804687,-1.1484375 1.2304687,-1.1484375 z m 0,3.0351562 c 0.878906,0 1.476563,0.5859375 1.476563,1.4179688 0,0.8671875 -0.597657,1.44140621 -1.5,1.44140621 -0.855469,0 -1.4648442,-0.58593751 -1.4648442,-1.42968751 0,-0.8554687 0.5976562,-1.4296875 1.4882812,-1.4296875 z m 0,0"
       style="fill:#000000;fill-opacity:1;fill-rule:nonzero;stroke:none"
       aria-label="0.8"
       transform="matrix(1.3333333,0,0,1.3333333,0.33333333,298.66667)"
       clip-path="url(#clipPath50)" />
    <path
       id="path51"
       d="m 170,1882.5 h 44.168"
       style="fill:none;stroke:#000000;stroke-width:5;stroke-linecap:butt;stroke-linejoin:round;stroke-miterlimit:10;stroke-dasharray:none;stroke-opacity:1"
       transform="matrix(0.13333333,0,0,-0.13333333,0,498.66667)"
       clip-path="url(#clipPath52)" />
    <path
       id="path53"
       d="M 2.5906281,-5.1455156 V -9.84375e-4 H 3.4695344 V -7.2314531 H 2.8953156 c -0.3164062,1.1132812 -0.515625,1.265625 -1.875,1.4414062 v 0.6445313 z m 0,0"
       style="fill:#000000;fill-opacity:1;fill-rule:nonzero;stroke:none"
       aria-label="1"
       transform="matrix(1.3333333,0,0,1.3333333,11.444267,252.556)"
       clip-path="url(#clipPath54)" />
    <path
       id="path55"
       d="m 170,2228.33 h 44.168"
       style="fill:none;stroke:#000000;stroke-width:5;stroke-linecap:butt;stroke-linejoin:round;stroke-miterlimit:10;stroke-dasharray:none;stroke-opacity:1"
       transform="matrix(0.13333333,0,0,-0.13333333,0,498.66667)"
       clip-path="url(#clipPath56)" />
    <path
       id="path57"
       d="M 2.5888672,-5.1435469 V 9.84375e-4 H 3.4677734 V -7.2294844 H 2.8935547 c -0.3164063,1.1132813 -0.515625,1.265625 -1.875,1.4414063 v 0.6445312 z m 4.8808594,4.1015625 H 6.4267578 V 9.84375e-4 h 1.0429688 z m 5.9326174,0.17578128 H 9.6640625 C 9.7578125,-1.4638594 10.074219,-1.8505781 10.953125,-2.3779219 l 0.996094,-0.5625 c 0.984375,-0.5507812 1.5,-1.2890625 1.5,-2.1796875 0,-0.5976562 -0.246094,-1.1601562 -0.65625,-1.546875 -0.421875,-0.375 -0.949219,-0.5625 -1.617188,-0.5625 -0.902343,0 -1.5703122,0.328125 -1.957031,0.9375 -0.2460937,0.3867188 -0.3632812,0.8320313 -0.375,1.5703125 h 0.8789063 c 0.023437,-0.4921875 0.082031,-0.7851562 0.2109375,-1.0195312 0.2226562,-0.4453125 0.6796872,-0.7148438 1.2187502,-0.7148438 0.796875,0 1.394531,0.5742188 1.394531,1.359375 0,0.5742188 -0.328125,1.078125 -0.960937,1.4414063 l -0.914063,0.5390625 c -1.4765625,0.84375 -1.9101562,1.5234375 -1.9921875,3.10546873 h 4.7226565 z m 0,0"
       style="fill:#000000;fill-opacity:1;fill-rule:nonzero;stroke:none"
       aria-label="1.2"
       transform="matrix(1.3333333,0,0,1.3333333,0.33333333,206.444)"
       clip-path="url(#clipPath58)" />
    <path
       id="path59"
       d="m 170,2574.17 h 44.168"
       style="fill:none;stroke:#000000;stroke-width:5;stroke-linecap:butt;stroke-linejoin:round;stroke-miterlimit:10;stroke-dasharray:none;stroke-opacity:1"
       transform="matrix(0.13333333,0,0,-0.13333333,0,498.66667)"
       clip-path="url(#clipPath60)" />
    <path
       id="path61"
       d="M 2.5888672,-5.1455078 V -9.765625e-4 H 3.4677734 V -7.2314453 H 2.8935547 c -0.3164063,1.1132812 -0.515625,1.265625 -1.875,1.4414062 v 0.6445313 z m 4.8808594,4.1015625 H 6.4267578 v 1.0429687375 h 1.0429688 z m 4.1396484,-0.703125 v 1.7460937375 h 0.878906 V -1.7470703 h 1.054688 v -0.796875 h -1.054688 v -4.6875 H 11.84375 l -3.2226562,4.546875 v 0.9375 z m 0,-0.796875 H 9.3945313 l 2.2148437,-3.1875 z m 0,0"
       style="fill:#000000;fill-opacity:1;fill-rule:nonzero;stroke:none"
       aria-label="1.4"
       transform="matrix(1.3333333,0,0,1.3333333,0.33333333,160.33333)"
       clip-path="url(#clipPath62)" />
    <path
       id="path63"
       d="m 170,2920 h 44.168"
       style="fill:none;stroke:#000000;stroke-width:5;stroke-linecap:butt;stroke-linejoin:round;stroke-miterlimit:10;stroke-dasharray:none;stroke-opacity:1"
       transform="matrix(0.13333333,0,0,-0.13333333,0,498.66667)"
       clip-path="url(#clipPath64)" />
    <path
       id="path65"
       d="M 2.5888672,-5.1445391 V -7.8125e-6 H 3.4677734 V -7.2304766 H 2.8935547 c -0.3164063,1.1132813 -0.515625,1.265625 -1.875,1.4414063 v 0.6445312 z m 4.8808594,4.1015625 H 6.4267578 V -7.8125e-6 h 1.0429688 z m 5.8505864,-4.3007812 c -0.175782,-1.1835938 -0.9375,-1.8867188 -2.015625,-1.8867188 -0.773438,0 -1.476563,0.3867188 -1.898438,1.03125 -0.4453125,0.7148438 -0.6328125,1.59375 -0.6328125,2.90625 0,1.21875 0.1640625,1.9804688 0.5976563,2.62500004 0.375,0.5859375 0.9960942,0.90234375 1.7812502,0.90234375 1.347656,0 2.320312,-1.01953125 2.320312,-2.42578129 0,-1.3242187 -0.902343,-2.2617187 -2.179687,-2.2617187 -0.691406,0 -1.242188,0.2578125 -1.6289065,0.7851562 0.011719,-1.7929687 0.5742185,-2.7773437 1.5820315,-2.7773437 0.621094,0 1.054687,0.3984375 1.195312,1.1015625 z M 11.1875,-3.6796953 c 0.855469,0 1.382813,0.5976562 1.382813,1.5585937 0,0.9140625 -0.597657,1.57031254 -1.40625,1.57031254 -0.820313,0 -1.4414067,-0.69140624 -1.4414067,-1.60546874 0,-0.9023438 0.5976567,-1.5234375 1.4648437,-1.5234375 z m 0,0"
       style="fill:#000000;fill-opacity:1;fill-rule:nonzero;stroke:none"
       aria-label="1.6"
       transform="matrix(1.3333333,0,0,1.3333333,0.33333333,114.22267)"
       clip-path="url(#clipPath66)" />
    <path
       id="path67"
       d="m 170,3265.83 h 44.168"
       style="fill:none;stroke:#000000;stroke-width:5;stroke-linecap:butt;stroke-linejoin:round;stroke-miterlimit:10;stroke-dasharray:none;stroke-opacity:1"
       transform="matrix(0.13333333,0,0,-0.13333333,0,498.66667)"
       clip-path="url(#clipPath68)" />
    <path
       id="path69"
       d="M 2.5888672,-5.1455 V -9.6875e-4 H 3.4677734 V -7.2314375 H 2.8935547 c -0.3164063,1.1132812 -0.515625,1.265625 -1.875,1.4414062 V -5.1455 Z m 4.8808594,4.1015625 H 6.4267578 v 1.04296875 h 1.0429688 z m 4.7841794,-2.765625 c 0.738282,-0.4453125 0.960938,-0.8085938 0.960938,-1.4882813 0,-1.1367187 -0.867188,-1.9335937 -2.121094,-1.9335937 -1.2539062,0 -2.1328125,0.796875 -2.1328125,1.921875 0,0.6914062 0.234375,1.0429687 0.9609375,1.5 -0.8085937,0.4101562 -1.2070312,0.9960937 -1.2070312,1.8046875 0,1.3125 0.9609375,2.23828125 2.3789062,2.23828125 1.394531,0 2.378906,-0.92578125 2.378906,-2.23828125 0,-0.8085938 -0.410156,-1.3945313 -1.21875,-1.8046875 z M 11.09375,-6.4462813 c 0.75,0 1.21875,0.4453125 1.21875,1.171875 0,0.6796875 -0.480469,1.125 -1.21875,1.125 -0.75,0 -1.2304687,-0.4453125 -1.2304687,-1.1484375 0,-0.703125 0.4804687,-1.1484375 1.2304687,-1.1484375 z m 0,3.0351563 c 0.878906,0 1.476563,0.5859375 1.476563,1.4179687 0,0.8671875 -0.597657,1.4414063 -1.5,1.4414063 -0.855469,0 -1.4648442,-0.5859375 -1.4648442,-1.4296875 0,-0.8554688 0.5976562,-1.4296875 1.4882812,-1.4296875 z m 0,0"
       style="fill:#000000;fill-opacity:1;fill-rule:nonzero;stroke:none"
       aria-label="1.8"
       transform="matrix(1.3333333,0,0,1.3333333,0.33333333,68.110667)"
       clip-path="url(#clipPath70)" />
    <path
       id="path71"
       d="m 170,3611.67 h 44.168"
       style="fill:none;stroke:#000000;stroke-width:5;stroke-linecap:butt;stroke-linejoin:round;stroke-miterlimit:10;stroke-dasharray:none;stroke-opacity:1"
       transform="matrix(0.13333333,0,0,-0.13333333,0,498.66667)"
       clip-path="url(#clipPath72)" />
    <path
       id="path73"
       d="M 5.0632844,-0.8671875 H 1.3250031 c 0.09375,-0.5976562 0.4101563,-0.984375 1.2890625,-1.5117188 l 0.9960938,-0.5625 c 0.984375,-0.5507812 1.5,-1.2890624 1.5,-2.1796874 0,-0.5976563 -0.2460938,-1.1601563 -0.65625,-1.546875 -0.421875,-0.375 -0.9492188,-0.5625 -1.6171875,-0.5625 -0.9023438,0 -1.5703125,0.328125 -1.95703127,0.9375 -0.24609375,0.3867187 -0.36328125,0.8320312 -0.375,1.5703125 H 1.3835969 c 0.023437,-0.4921875 0.082031,-0.7851563 0.2109375,-1.0195313 0.2226562,-0.4453125 0.6796875,-0.7148437 1.21875,-0.7148437 0.796875,0 1.3945312,0.5742187 1.3945312,1.359375 0,0.5742187 -0.328125,1.078125 -0.9609375,1.4414062 L 2.3328156,-3.1171875 C 0.85625313,-2.2734375 0.42265938,-1.59375 0.34062813,-0.01171875 H 5.0632844 Z m 0,0"
       style="fill:#000000;fill-opacity:1;fill-rule:nonzero;stroke:none"
       aria-label="2"
       transform="matrix(1.3333333,0,0,1.3333333,11.444267,22)"
       clip-path="url(#clipPath74)" />
    <path
       id="path75"
       d="M 1468.33,153.332 V 1882.5"
       style="fill:none;stroke:#000000;stroke-width:5;stroke-linecap:butt;stroke-linejoin:round;stroke-miterlimit:10;stroke-dasharray:none;stroke-opacity:1"
       transform="matrix(0.13333333,0,0,-0.13333333,0,498.66667)"
       clip-path="url(#clipPath76)" />
    <path
       id="path77"
       d="M 1468.33,1882.5 V 3611.67"
       style="fill:none;stroke:#000000;stroke-width:5;stroke-linecap:butt;stroke-linejoin:round;stroke-miterlimit:10;stroke-dasharray:none;stroke-opacity:1"
       transform="matrix(0.13333333,0,0,-0.13333333,0,498.66667)"
       clip-path="url(#clipPath78)" />
    <path
       id="path79"
       d="M 3197.5,153.332 V 1882.5"
       style="fill:none;stroke:#000000;stroke-width:5;stroke-linecap:butt;stroke-linejoin:round;stroke-miterlimit:10;stroke-dasharray:none;stroke-opacity:1"
       transform="matrix(0.13333333,0,0,-0.13333333,0,498.66667)"
       clip-path="url(#clipPath80)" />
    <path
       id="path81"
       d="M 3197.5,1882.5 V 3611.67"
       style="fill:none;stroke:#000000;stroke-width:5;stroke-linecap:butt;stroke-linejoin:round;stroke-miterlimit:10;stroke-dasharray:none;stroke-opacity:1"
       transform="matrix(0.13333333,0,0,-0.13333333,0,498.66667)"
       clip-path="url(#clipPath82)" />
    <path
       id="path83"
       d="M 1468.33,1882.5 H 3197.5"
       style="fill:none;stroke:#000000;stroke-width:5;stroke-linecap:butt;stroke-linejoin:round;stroke-miterlimit:10;stroke-dasharray:none;stroke-opacity:1"
       transform="matrix(0.13333333,0,0,-0.13333333,0,498.66667)"
       clip-path="url(#clipPath84)" />
    <path
       id="path85"
       d="M 1468.33,3611.67 H 3197.5"
       style="fill:none;stroke:#000000;stroke-width:5;stroke-linecap:butt;stroke-linejoin:round;stroke-miterlimit:10;stroke-dasharray:none;stroke-opacity:1"
       transform="matrix(0.13333333,0,0,-0.13333333,0,498.66667)"
       clip-path="url(#clipPath86)" />
    <path
       id="path87"
       d="m 1498.33,153.332 c 0,-16.566 -13.43,-30 -30,-30 -16.56,0 -30,13.434 -30,30 0,16.566 13.44,30 30,30 16.57,0 30,-13.434 30,-30"
       style="fill:none;stroke:#000000;stroke-width:5;stroke-linecap:butt;stroke-linejoin:round;stroke-miterlimit:10;stroke-dasharray:none;stroke-opacity:1"
       transform="matrix(0.13333333,0,0,-0.13333333,0,498.66667)"
       clip-path="url(#clipPath88)" />
    <path
       id="path89"
       d="m 1498.33,1882.5 c 0,-16.57 -13.43,-30 -30,-30 -16.56,0 -30,13.43 -30,30 0,16.57 13.44,30 30,30 16.57,0 30,-13.43 30,-30"
       style="fill:none;stroke:#000000;stroke-width:5;stroke-linecap:butt;stroke-linejoin:round;stroke-miterlimit:10;stroke-dasharray:none;stroke-opacity:1"
       transform="matrix(0.13333333,0,0,-0.13333333,0,498.66667)"
       clip-path="url(#clipPath90)" />
    <path
       id="path91"
       d="m 1498.33,1882.5 c 0,-16.57 -13.43,-30 -30,-30 -16.56,0 -30,13.43 -30,30 0,16.57 13.44,30 30,30 16.57,0 30,-13.43 30,-30"
       style="fill:none;stroke:#000000;stroke-width:5;stroke-linecap:butt;stroke-linejoin:round;stroke-miterlimit:10;stroke-dasharray:none;stroke-opacity:1"
       transform="matrix(0.13333333,0,0,-0.13333333,0,498.66667)"
       clip-path="url(#clipPath92)" />
    <path
       id="path93"
       d="m 1498.33,3611.67 c 0,-16.57 -13.43,-30 -30,-30 -16.56,0 -30,13.43 -30,30 0,16.56 13.44,30 30,30 16.57,0 30,-13.44 30,-30"
       style="fill:none;stroke:#000000;stroke-width:5;stroke-linecap:butt;stroke-linejoin:round;stroke-miterlimit:10;stroke-dasharray:none;stroke-opacity:1"
       transform="matrix(0.13333333,0,0,-0.13333333,0,498.66667)"
       clip-path="url(#clipPath94)" />
    <path
       id="path95"
       d="m 3227.5,153.332 c 0,-16.566 -13.43,-30 -30,-30 -16.57,0 -30,13.434 -30,30 0,16.566 13.43,30 30,30 16.57,0 30,-13.434 30,-30"
       style="fill:none;stroke:#000000;stroke-width:5;stroke-linecap:butt;stroke-linejoin:round;stroke-miterlimit:10;stroke-dasharray:none;stroke-opacity:1"
       transform="matrix(0.13333333,0,0,-0.13333333,0,498.66667)"
       clip-path="url(#clipPath96)" />
    <path
       id="path97"
       d="m 3227.5,1882.5 c 0,-16.57 -13.43,-30 -30,-30 -16.57,0 -30,13.43 -30,30 0,16.57 13.43,30 30,30 16.57,0 30,-13.43 30,-30"
       style="fill:none;stroke:#000000;stroke-width:5;stroke-linecap:butt;stroke-linejoin:round;stroke-miterlimit:10;stroke-dasharray:none;stroke-opacity:1"
       transform="matrix(0.13333333,0,0,-0.13333333,0,498.66667)"
       clip-path="url(#clipPath98)" />
    <path
       id="path99"
       d="m 3227.5,1882.5 c 0,-16.57 -13.43,-30 -30,-30 -16.57,0 -30,13.43 -30,30 0,16.57 13.43,30 30,30 16.57,0 30,-13.43 30,-30"
       style="fill:none;stroke:#000000;stroke-width:5;stroke-linecap:butt;stroke-linejoin:round;stroke-miterlimit:10;stroke-dasharray:none;stroke-opacity:1"
       transform="matrix(0.13333333,0,0,-0.13333333,0,498.66667)"
       clip-path="url(#clipPath100)" />
    <path
       id="path101"
       d="m 3227.5,3611.67 c 0,-16.57 -13.43,-30 -30,-30 -16.57,0 -30,13.43 -30,30 0,16.56 13.43,30 30,30 16.57,0 30,-13.44 30,-30"
       style="fill:none;stroke:#000000;stroke-width:5;stroke-linecap:butt;stroke-linejoin:round;stroke-miterlimit:10;stroke-dasharray:none;stroke-opacity:1"
       transform="matrix(0.13333333,0,0,-0.13333333,0,498.66667)"
       clip-path="url(#clipPath102)" />
    <path
       id="path103"
       d="m 1498.33,1882.5 c 0,-16.57 -13.43,-30 -30,-30 -16.56,0 -30,13.43 -30,30 0,16.57 13.44,30 30,30 16.57,0 30,-13.43 30,-30"
       style="fill:none;stroke:#000000;stroke-width:5;stroke-linecap:butt;stroke-linejoin:round;stroke-miterlimit:10;stroke-dasharray:none;stroke-opacity:1"
       transform="matrix(0.13333333,0,0,-0.13333333,0,498.66667)"
       clip-path="url(#clipPath104)" />
    <path
       id="path105"
       d="m 3227.5,1882.5 c 0,-16.57 -13.43,-30 -30,-30 -16.57,0 -30,13.43 -30,30 0,16.57 13.43,30 30,30 16.57,0 30,-13.43 30,-30"
       style="fill:none;stroke:#000000;stroke-width:5;stroke-linecap:butt;stroke-linejoin:round;stroke-miterlimit:10;stroke-dasharray:none;stroke-opacity:1"
       transform="matrix(0.13333333,0,0,-0.13333333,0,498.66667)"
       clip-path="url(#clipPath106)" />
    <path
       id="path107"
       d="m 1498.33,3611.67 c 0,-16.57 -13.43,-30 -30,-30 -16.56,0 -30,13.43 -30,30 0,16.56 13.44,30 30,30 16.57,0 30,-13.44 30,-30"
       style="fill:none;stroke:#000000;stroke-width:5;stroke-linecap:butt;stroke-linejoin:round;stroke-miterlimit:10;stroke-dasharray:none;stroke-opacity:1"
       transform="matrix(0.13333333,0,0,-0.13333333,0,498.66667)"
       clip-path="url(#clipPath108)" />
    <path
       id="path109"
       d="m 3227.5,3611.67 c 0,-16.57 -13.43,-30 -30,-30 -16.57,0 -30,13.43 -30,30 0,16.56 13.43,30 30,30 16.57,0 30,-13.44 30,-30"
       style="fill:none;stroke:#000000;stroke-width:5;stroke-linecap:butt;stroke-linejoin:round;stroke-miterlimit:10;stroke-dasharray:none;stroke-opacity:1"
       transform="matrix(0.13333333,0,0,-0.13333333,0,498.66667)"
       clip-path="url(#clipPath110)" />
    <path
       id="path111"
       d="M 1468.33,153.332 3197.5,1882.5"
       style="fill:none;stroke:#000000;stroke-width:5;stroke-linecap:butt;stroke-linejoin:round;stroke-miterlimit:10;stroke-dasharray:none;stroke-opacity:1"
       transform="matrix(0.13333333,0,0,-0.13333333,0,498.66667)"
       clip-path="url(#clipPath112)" />
    <path
       id="path113"
       d="M 1468.33,1882.5 3197.5,3611.67"
       style="fill:none;stroke:#000000;stroke-width:5;stroke-linecap:butt;stroke-linejoin:round;stroke-miterlimit:10;stroke-dasharray:none;stroke-opacity:1"
       transform="matrix(0.13333333,0,0,-0.13333333,0,498.66667)"
       clip-path="url(#clipPath114)" />
    <path
       id="path115"
       d="M 1468.33,1882.5 3197.5,153.332"
       style="fill:none;stroke:#000000;stroke-width:5;stroke-linecap:butt;stroke-linejoin:round;stroke-miterlimit:10;stroke-dasharray:none;stroke-opacity:1"
       transform="matrix(0.13333333,0,0,-0.13333333,0,498.66667)"
       clip-path="url(#clipPath116)" />
    <path
       id="path117"
       d="M 1468.33,3611.67 3197.5,1882.5"
       style="fill:none;stroke:#000000;stroke-width:5;stroke-linecap:butt;stroke-linejoin:round;stroke-miterlimit:10;stroke-dasharray:none;stroke-opacity:1"
       transform="matrix(0.13333333,0,0,-0.13333333,0,498.66667)"
       clip-path="url(#clipPath118)" />
    <path
       id="path119"
       d="m 1498.33,153.332 c 0,-16.566 -13.43,-30 -30,-30 -16.56,0 -30,13.434 -30,30 0,16.566 13.44,30 30,30 16.57,0 30,-13.434 30,-30"
       style="fill:none;stroke:#000000;stroke-width:5;stroke-linecap:butt;stroke-linejoin:round;stroke-miterlimit:10;stroke-dasharray:none;stroke-opacity:1"
       transform="matrix(0.13333333,0,0,-0.13333333,0,498.66667)"
       clip-path="url(#clipPath120)" />
    <path
       id="path121"
       d="m 3227.5,1882.5 c 0,-16.57 -13.43,-30 -30,-30 -16.57,0 -30,13.43 -30,30 0,16.57 13.43,30 30,30 16.57,0 30,-13.43 30,-30"
       style="fill:none;stroke:#000000;stroke-width:5;stroke-linecap:butt;stroke-linejoin:round;stroke-miterlimit:10;stroke-dasharray:none;stroke-opacity:1"
       transform="matrix(0.13333333,0,0,-0.13333333,0,498.66667)"
       clip-path="url(#clipPath122)" />
    <path
       id="path123"
       d="m 1498.33,1882.5 c 0,-16.57 -13.43,-30 -30,-30 -16.56,0 -30,13.43 -30,30 0,16.57 13.44,30 30,30 16.57,0 30,-13.43 30,-30"
       style="fill:none;stroke:#000000;stroke-width:5;stroke-linecap:butt;stroke-linejoin:round;stroke-miterlimit:10;stroke-dasharray:none;stroke-opacity:1"
       transform="matrix(0.13333333,0,0,-0.13333333,0,498.66667)"
       clip-path="url(#clipPath124)" />
    <path
       id="path125"
       d="m 3227.5,3611.67 c 0,-16.57 -13.43,-30 -30,-30 -16.57,0 -30,13.43 -30,30 0,16.56 13.43,30 30,30 16.57,0 30,-13.44 30,-30"
       style="fill:none;stroke:#000000;stroke-width:5;stroke-linecap:butt;stroke-linejoin:round;stroke-miterlimit:10;stroke-dasharray:none;stroke-opacity:1"
       transform="matrix(0.13333333,0,0,-0.13333333,0,498.66667)"
       clip-path="url(#clipPath126)" />
    <path
       id="path127"
       d="m 1498.33,1882.5 c 0,-16.57 -13.43,-30 -30,-30 -16.56,0 -30,13.43 -30,30 0,16.57 13.44,30 30,30 16.57,0 30,-13.43 30,-30"
       style="fill:none;stroke:#000000;stroke-width:5;stroke-linecap:butt;stroke-linejoin:round;stroke-miterlimit:10;stroke-dasharray:none;stroke-opacity:1"
       transform="matrix(0.13333333,0,0,-0.13333333,0,498.66667)"
       clip-path="url(#clipPath128)" />
    <path
       id="path129"
       d="m 3227.5,153.332 c 0,-16.566 -13.43,-30 -30,-30 -16.57,0 -30,13.434 -30,30 0,16.566 13.43,30 30,30 16.57,0 30,-13.434 30,-30"
       style="fill:none;stroke:#000000;stroke-width:5;stroke-linecap:butt;stroke-linejoin:round;stroke-miterlimit:10;stroke-dasharray:none;stroke-opacity:1"
       transform="matrix(0.13333333,0,0,-0.13333333,0,498.66667)"
       clip-path="url(#clipPath130)" />
    <path
       id="path131"
       d="m 1498.33,3611.67 c 0,-16.57 -13.43,-30 -30,-30 -16.56,0 -30,13.43 -30,30 0,16.56 13.44,30 30,30 16.57,0 30,-13.44 30,-30"
       style="fill:none;stroke:#000000;stroke-width:5;stroke-linecap:butt;stroke-linejoin:round;stroke-miterlimit:10;stroke-dasharray:none;stroke-opacity:1"
       transform="matrix(0.13333333,0,0,-0.13333333,0,498.66667)"
       clip-path="url(#clipPath132)" />
    <path
       id="path133"
       d="m 3227.5,1882.5 c 0,-16.57 -13.43,-30 -30,-30 -16.57,0 -30,13.43 -30,30 0,16.57 13.43,30 30,30 16.57,0 30,-13.43 30,-30"
       style="fill:none;stroke:#000000;stroke-width:5;stroke-linecap:butt;stroke-linejoin:round;stroke-miterlimit:10;stroke-dasharray:none;stroke-opacity:1"
       transform="matrix(0.13333333,0,0,-0.13333333,0,498.66667)"
       clip-path="url(#clipPath134)" />
    <path
       id="path135"
       d="M 1468.33,153.332 V 242.5 l 0.84,88.332 0.83,89.168 0.83,88.332 1.67,88.336 1.67,89.164 2.5,88.336 1.66,89.164 2.5,88.336 3.34,88.332 2.5,89.17 3.33,88.33 3.33,88.33 4.17,89.17 3.33,88.33 4.17,89.17 4.17,88.33 5,88.34 4.16,89.16 5,88.34"
       style="fill:none;stroke:#000000;stroke-width:5;stroke-linecap:butt;stroke-linejoin:round;stroke-miterlimit:10;stroke-dasharray:60;stroke-dashoffset:0;stroke-opacity:1"
       transform="matrix(0.13333333,0,0,-0.13333333,0,498.66667)"
       clip-path="url(#clipPath136)" />
    <path
       id="path137"
       d="m 1523.33,1926.67 5,87.5 5,87.5 5,87.5 5,87.5 5.84,87.5 5.83,87.5 5.83,87.5 5.84,87.5 5.83,87.5 5.83,87.5 6.67,87.5 5.83,87.5 6.67,87.5 5.83,87.5 6.67,87.5 5.83,87.5 6.67,87.5 6.67,87.5 5.83,87.5 6.67,86.66"
       style="fill:none;stroke:#000000;stroke-width:5;stroke-linecap:butt;stroke-linejoin:round;stroke-miterlimit:10;stroke-dasharray:60;stroke-dashoffset:0;stroke-opacity:1"
       transform="matrix(0.13333333,0,0,-0.13333333,0,498.66667)"
       clip-path="url(#clipPath138)" />
    <path
       id="path139"
       d="m 3197.5,153.332 v 85 l 0.83,84.168 v 84.168 l 0.84,85 1.66,84.164 0.84,84.168 1.66,84.168 1.67,85 2.5,84.164 1.67,84.168 2.5,85 2.5,84.17 3.33,84.16 2.5,84.17 3.33,85 3.34,84.17 3.33,84.16 3.33,84.17 4.17,85 4.17,84.17"
       style="fill:none;stroke:#000000;stroke-width:5;stroke-linecap:butt;stroke-linejoin:round;stroke-miterlimit:10;stroke-dasharray:60;stroke-dashoffset:0;stroke-opacity:1"
       transform="matrix(0.13333333,0,0,-0.13333333,0,498.66667)"
       clip-path="url(#clipPath140)" />
    <path
       id="path141"
       d="m 3241.67,1841.67 3.33,85.83 4.17,85.83 4.16,86.67 5,85.83 4.17,85.84 4.17,85.83 5,85.83 4.16,86.67 5,85.83 5,85.84 5,85.83 5,85.83 5,86.67 5,85.83 5,85.84 5,85.83 5.84,85.83 5,86.67 5,85.83 5.83,85.84"
       style="fill:none;stroke:#000000;stroke-width:5;stroke-linecap:butt;stroke-linejoin:round;stroke-miterlimit:10;stroke-dasharray:60;stroke-dashoffset:0;stroke-opacity:1"
       transform="matrix(0.13333333,0,0,-0.13333333,0,498.66667)"
       clip-path="url(#clipPath142)" />
    <path
       id="path143"
       d="m 1523.33,1926.67 85.84,-5 85.83,-4.17 85.83,-5 85.84,-4.17 85.83,-5 85.83,-4.16 85.84,-4.17 86.66,-4.17 85.84,-4.16 85.83,-4.17 85.83,-4.17 85.84,-4.16 85.83,-4.17 85.83,-4.17 85.84,-4.16 85.83,-4.17 85.83,-4.17 85.84,-4.16 86.66,-3.34 85.84,-4.16"
       style="fill:none;stroke:#000000;stroke-width:5;stroke-linecap:butt;stroke-linejoin:round;stroke-miterlimit:10;stroke-dasharray:60;stroke-dashoffset:0;stroke-opacity:1"
       transform="matrix(0.13333333,0,0,-0.13333333,0,498.66667)"
       clip-path="url(#clipPath144)" />
    <path
       id="path145"
       d="m 1641.67,3675.83 84.16,-5.83 85,-5.83 85,-6.67 85,-5.83 84.17,-5.84 85,-5.83 85,-5.83 85,-5.84 84.17,-5.83 85,-5.83 85,-5.84 85,-5 85,-5.83 84.16,-5.83 85,-5 85,-5.84 85,-5.83 84.17,-5 85,-5.83 85,-5"
       style="fill:none;stroke:#000000;stroke-width:5;stroke-linecap:butt;stroke-linejoin:round;stroke-miterlimit:10;stroke-dasharray:60;stroke-dashoffset:0;stroke-opacity:1"
       transform="matrix(0.13333333,0,0,-0.13333333,0,498.66667)"
       clip-path="url(#clipPath146)" />
    <path
       id="path147"
       d="m 1498.33,153.332 c 0,-16.566 -13.43,-30 -30,-30 -16.56,0 -30,13.434 -30,30 0,16.566 13.44,30 30,30 16.57,0 30,-13.434 30,-30"
       style="fill:none;stroke:#000000;stroke-width:5;stroke-linecap:butt;stroke-linejoin:round;stroke-miterlimit:10;stroke-dasharray:none;stroke-opacity:1"
       transform="matrix(0.13333333,0,0,-0.13333333,0,498.66667)"
       clip-path="url(#clipPath148)" />
    <path
       id="path149"
       d="m 1553.33,1926.67 c 0,-16.57 -13.43,-30 -30,-30 -16.56,0 -30,13.43 -30,30 0,16.56 13.44,30 30,30 16.57,0 30,-13.44 30,-30"
       style="fill:none;stroke:#000000;stroke-width:5;stroke-linecap:butt;stroke-linejoin:round;stroke-miterlimit:10;stroke-dasharray:none;stroke-opacity:1"
       transform="matrix(0.13333333,0,0,-0.13333333,0,498.66667)"
       clip-path="url(#clipPath150)" />
    <path
       id="path151"
       d="m 1553.33,1926.67 c 0,-16.57 -13.43,-30 -30,-30 -16.56,0 -30,13.43 -30,30 0,16.56 13.44,30 30,30 16.57,0 30,-13.44 30,-30"
       style="fill:none;stroke:#000000;stroke-width:5;stroke-linecap:butt;stroke-linejoin:round;stroke-miterlimit:10;stroke-dasharray:none;stroke-opacity:1"
       transform="matrix(0.13333333,0,0,-0.13333333,0,498.66667)"
       clip-path="url(#clipPath152)" />
    <path
       id="path153"
       d="m 1671.67,3675.83 c 0,-16.56 -13.44,-30 -30,-30 -16.57,0 -30,13.44 -30,30 0,16.57 13.43,30 30,30 16.56,0 30,-13.43 30,-30"
       style="fill:none;stroke:#000000;stroke-width:5;stroke-linecap:butt;stroke-linejoin:round;stroke-miterlimit:10;stroke-dasharray:none;stroke-opacity:1"
       transform="matrix(0.13333333,0,0,-0.13333333,0,498.66667)"
       clip-path="url(#clipPath154)" />
    <path
       id="path155"
       d="m 3227.5,153.332 c 0,-16.566 -13.43,-30 -30,-30 -16.57,0 -30,13.434 -30,30 0,16.566 13.43,30 30,30 16.57,0 30,-13.434 30,-30"
       style="fill:none;stroke:#000000;stroke-width:5;stroke-linecap:butt;stroke-linejoin:round;stroke-miterlimit:10;stroke-dasharray:none;stroke-opacity:1"
       transform="matrix(0.13333333,0,0,-0.13333333,0,498.66667)"
       clip-path="url(#clipPath156)" />
    <path
       id="path157"
       d="m 3271.67,1841.67 c 0,-16.57 -13.44,-30 -30,-30 -16.57,0 -30,13.43 -30,30 0,16.56 13.43,30 30,30 16.56,0 30,-13.44 30,-30"
       style="fill:none;stroke:#000000;stroke-width:5;stroke-linecap:butt;stroke-linejoin:round;stroke-miterlimit:10;stroke-dasharray:none;stroke-opacity:1"
       transform="matrix(0.13333333,0,0,-0.13333333,0,498.66667)"
       clip-path="url(#clipPath158)" />
    <path
       id="path159"
       d="m 3271.67,1841.67 c 0,-16.57 -13.44,-30 -30,-30 -16.57,0 -30,13.43 -30,30 0,16.56 13.43,30 30,30 16.56,0 30,-13.44 30,-30"
       style="fill:none;stroke:#000000;stroke-width:5;stroke-linecap:butt;stroke-linejoin:round;stroke-miterlimit:10;stroke-dasharray:none;stroke-opacity:1"
       transform="matrix(0.13333333,0,0,-0.13333333,0,498.66667)"
       clip-path="url(#clipPath160)" />
    <path
       id="path161"
       d="m 3367.5,3561.67 c 0,-16.57 -13.43,-30 -30,-30 -16.57,0 -30,13.43 -30,30 0,16.56 13.43,30 30,30 16.57,0 30,-13.44 30,-30"
       style="fill:none;stroke:#000000;stroke-width:5;stroke-linecap:butt;stroke-linejoin:round;stroke-miterlimit:10;stroke-dasharray:none;stroke-opacity:1"
       transform="matrix(0.13333333,0,0,-0.13333333,0,498.66667)"
       clip-path="url(#clipPath162)" />
    <path
       id="path163"
       d="m 1553.33,1926.67 c 0,-16.57 -13.43,-30 -30,-30 -16.56,0 -30,13.43 -30,30 0,16.56 13.44,30 30,30 16.57,0 30,-13.44 30,-30"
       style="fill:none;stroke:#000000;stroke-width:5;stroke-linecap:butt;stroke-linejoin:round;stroke-miterlimit:10;stroke-dasharray:none;stroke-opacity:1"
       transform="matrix(0.13333333,0,0,-0.13333333,0,498.66667)"
       clip-path="url(#clipPath164)" />
    <path
       id="path165"
       d="m 3271.67,1841.67 c 0,-16.57 -13.44,-30 -30,-30 -16.57,0 -30,13.43 -30,30 0,16.56 13.43,30 30,30 16.56,0 30,-13.44 30,-30"
       style="fill:none;stroke:#000000;stroke-width:5;stroke-linecap:butt;stroke-linejoin:round;stroke-miterlimit:10;stroke-dasharray:none;stroke-opacity:1"
       transform="matrix(0.13333333,0,0,-0.13333333,0,498.66667)"
       clip-path="url(#clipPath166)" />
    <path
       id="path167"
       d="m 1671.67,3675.83 c 0,-16.56 -13.44,-30 -30,-30 -16.57,0 -30,13.44 -30,30 0,16.57 13.43,30 30,30 16.56,0 30,-13.43 30,-30"
       style="fill:none;stroke:#000000;stroke-width:5;stroke-linecap:butt;stroke-linejoin:round;stroke-miterlimit:10;stroke-dasharray:none;stroke-opacity:1"
       transform="matrix(0.13333333,0,0,-0.13333333,0,498.66667)"
       clip-path="url(#clipPath168)" />
    <path
       id="path169"
       d="m 3367.5,3561.67 c 0,-16.57 -13.43,-30 -30,-30 -16.57,0 -30,13.43 -30,30 0,16.56 13.43,30 30,30 16.57,0 30,-13.44 30,-30"
       style="fill:none;stroke:#000000;stroke-width:5;stroke-linecap:butt;stroke-linejoin:round;stroke-miterlimit:10;stroke-dasharray:none;stroke-opacity:1"
       transform="matrix(0.13333333,0,0,-0.13333333,0,498.66667)"
       clip-path="url(#clipPath170)" />
    <path
       id="path171"
       d="M 1468.33,153.332 3241.67,1841.67"
       style="fill:none;stroke:#000000;stroke-width:5;stroke-linecap:butt;stroke-linejoin:round;stroke-miterlimit:10;stroke-dasharray:60;stroke-dashoffset:0;stroke-opacity:1"
       transform="matrix(0.13333333,0,0,-0.13333333,0,498.66667)"
       clip-path="url(#clipPath172)" />
    <path
       id="path173"
       d="m 1523.33,1926.67 1814.17,1635"
       style="fill:none;stroke:#000000;stroke-width:5;stroke-linecap:butt;stroke-linejoin:round;stroke-miterlimit:10;stroke-dasharray:60;stroke-dashoffset:0;stroke-opacity:1"
       transform="matrix(0.13333333,0,0,-0.13333333,0,498.66667)"
       clip-path="url(#clipPath174)" />
    <path
       id="path175"
       d="M 1523.33,1926.67 3197.5,153.332"
       style="fill:none;stroke:#000000;stroke-width:5;stroke-linecap:butt;stroke-linejoin:round;stroke-miterlimit:10;stroke-dasharray:60;stroke-dashoffset:0;stroke-opacity:1"
       transform="matrix(0.13333333,0,0,-0.13333333,0,498.66667)"
       clip-path="url(#clipPath176)" />
    <path
       id="path177"
       d="m 1641.67,3675.83 1600,-1834.16"
       style="fill:none;stroke:#000000;stroke-width:5;stroke-linecap:butt;stroke-linejoin:round;stroke-miterlimit:10;stroke-dasharray:60;stroke-dashoffset:0;stroke-opacity:1"
       transform="matrix(0.13333333,0,0,-0.13333333,0,498.66667)"
       clip-path="url(#clipPath178)" />
    <path
       id="path179"
       d="m 1498.33,153.332 c 0,-16.566 -13.43,-30 -30,-30 -16.56,0 -30,13.434 -30,30 0,16.566 13.44,30 30,30 16.57,0 30,-13.434 30,-30"
       style="fill:none;stroke:#000000;stroke-width:5;stroke-linecap:butt;stroke-linejoin:round;stroke-miterlimit:10;stroke-dasharray:none;stroke-opacity:1"
       transform="matrix(0.13333333,0,0,-0.13333333,0,498.66667)"
       clip-path="url(#clipPath180)" />
    <path
       id="path181"
       d="m 3271.67,1841.67 c 0,-16.57 -13.44,-30 -30,-30 -16.57,0 -30,13.43 -30,30 0,16.56 13.43,30 30,30 16.56,0 30,-13.44 30,-30"
       style="fill:none;stroke:#000000;stroke-width:5;stroke-linecap:butt;stroke-linejoin:round;stroke-miterlimit:10;stroke-dasharray:none;stroke-opacity:1"
       transform="matrix(0.13333333,0,0,-0.13333333,0,498.66667)"
       clip-path="url(#clipPath182)" />
    <path
       id="path183"
       d="m 1553.33,1926.67 c 0,-16.57 -13.43,-30 -30,-30 -16.56,0 -30,13.43 -30,30 0,16.56 13.44,30 30,30 16.57,0 30,-13.44 30,-30"
       style="fill:none;stroke:#000000;stroke-width:5;stroke-linecap:butt;stroke-linejoin:round;stroke-miterlimit:10;stroke-dasharray:none;stroke-opacity:1"
       transform="matrix(0.13333333,0,0,-0.13333333,0,498.66667)"
       clip-path="url(#clipPath184)" />
    <path
       id="path185"
       d="m 3367.5,3561.67 c 0,-16.57 -13.43,-30 -30,-30 -16.57,0 -30,13.43 -30,30 0,16.56 13.43,30 30,30 16.57,0 30,-13.44 30,-30"
       style="fill:none;stroke:#000000;stroke-width:5;stroke-linecap:butt;stroke-linejoin:round;stroke-miterlimit:10;stroke-dasharray:none;stroke-opacity:1"
       transform="matrix(0.13333333,0,0,-0.13333333,0,498.66667)"
       clip-path="url(#clipPath186)" />
    <path
       id="path187"
       d="m 1553.33,1926.67 c 0,-16.57 -13.43,-30 -30,-30 -16.56,0 -30,13.43 -30,30 0,16.56 13.44,30 30,30 16.57,0 30,-13.44 30,-30"
       style="fill:none;stroke:#000000;stroke-width:5;stroke-linecap:butt;stroke-linejoin:round;stroke-miterlimit:10;stroke-dasharray:none;stroke-opacity:1"
       transform="matrix(0.13333333,0,0,-0.13333333,0,498.66667)"
       clip-path="url(#clipPath188)" />
    <path
       id="path189"
       d="m 3227.5,153.332 c 0,-16.566 -13.43,-30 -30,-30 -16.57,0 -30,13.434 -30,30 0,16.566 13.43,30 30,30 16.57,0 30,-13.434 30,-30"
       style="fill:none;stroke:#000000;stroke-width:5;stroke-linecap:butt;stroke-linejoin:round;stroke-miterlimit:10;stroke-dasharray:none;stroke-opacity:1"
       transform="matrix(0.13333333,0,0,-0.13333333,0,498.66667)"
       clip-path="url(#clipPath190)" />
    <path
       id="path191"
       d="m 1671.67,3675.83 c 0,-16.56 -13.44,-30 -30,-30 -16.57,0 -30,13.44 -30,30 0,16.57 13.43,30 30,30 16.56,0 30,-13.43 30,-30"
       style="fill:none;stroke:#000000;stroke-width:5;stroke-linecap:butt;stroke-linejoin:round;stroke-miterlimit:10;stroke-dasharray:none;stroke-opacity:1"
       transform="matrix(0.13333333,0,0,-0.13333333,0,498.66667)"
       clip-path="url(#clipPath192)" />
    <path
       id="path193"
       d="m 3271.67,1841.67 c 0,-16.57 -13.44,-30 -30,-30 -16.57,0 -30,13.43 -30,30 0,16.56 13.43,30 30,30 16.56,0 30,-13.44 30,-30"
       style="fill:none;stroke:#000000;stroke-width:5;stroke-linecap:butt;stroke-linejoin:round;stroke-miterlimit:10;stroke-dasharray:none;stroke-opacity:1"
       transform="matrix(0.13333333,0,0,-0.13333333,0,498.66667)"
       clip-path="url(#clipPath194)" />
  </g>
</svg>
