<?xml version="1.0" encoding="UTF-8" standalone="no"?>
<!-- Created with Inkscape (http://www.inkscape.org/) -->

<svg
   version="1.1"
   id="svg1"
   width="488.98666"
   height="262.10666"
   viewBox="0 0 488.98666 262.10666"
   sodipodi:docname="exs8f1.eps"
   xmlns:inkscape="http://www.inkscape.org/namespaces/inkscape"
   xmlns:sodipodi="http://sodipodi.sourceforge.net/DTD/sodipodi-0.dtd"
   xmlns="http://www.w3.org/2000/svg"
   xmlns:svg="http://www.w3.org/2000/svg">
  <defs
     id="defs1" />
  <sodipodi:namedview
     id="namedview1"
     pagecolor="#ffffff"
     bordercolor="#000000"
     borderopacity="0.25"
     inkscape:showpageshadow="2"
     inkscape:pageopacity="0.0"
     inkscape:pagecheckerboard="0"
     inkscape:deskcolor="#d1d1d1">
    <inkscape:page
       x="0"
       y="0"
       inkscape:label="1"
       id="page1"
       width="488.98666"
       height="262.10666"
       margin="0"
       bleed="0" />
  </sodipodi:namedview>
  <g
     id="g1"
     inkscape:groupmode="layer"
     inkscape:label="1">
    <path
       id="path1"
       d="m 2744.25,558.25 h 354 v -354 h -354 z"
       style="fill:none;stroke:#231f20;stroke-width:2.5;stroke-linecap:butt;stroke-linejoin:miter;stroke-miterlimit:3.8637;stroke-dasharray:none;stroke-opacity:1"
       transform="matrix(0.13333333,0,0,-0.13333333,0,262.10667)" />
    <path
       id="path2"
       d="m 3098.25,558.25 h 354 v -354 h -354 z"
       style="fill:none;stroke:#231f20;stroke-width:2.5;stroke-linecap:butt;stroke-linejoin:miter;stroke-miterlimit:3.8637;stroke-dasharray:none;stroke-opacity:1"
       transform="matrix(0.13333333,0,0,-0.13333333,0,262.10667)" />
    <path
       id="path3"
       d="m 2744.25,912.25 h 354 v -354 h -354 z"
       style="fill:none;stroke:#231f20;stroke-width:2.5;stroke-linecap:butt;stroke-linejoin:miter;stroke-miterlimit:3.8637;stroke-dasharray:none;stroke-opacity:1"
       transform="matrix(0.13333333,0,0,-0.13333333,0,262.10667)" />
    <path
       id="path4"
       d="m 3098.25,912.25 h 354 v -354 h -354 z"
       style="fill:none;stroke:#231f20;stroke-width:2.5;stroke-linecap:butt;stroke-linejoin:miter;stroke-miterlimit:3.8637;stroke-dasharray:none;stroke-opacity:1"
       transform="matrix(0.13333333,0,0,-0.13333333,0,262.10667)" />
    <path
       id="path5"
       d="m 2744.25,1267.25 h 354 v -355 h -354 z"
       style="fill:none;stroke:#231f20;stroke-width:2.5;stroke-linecap:butt;stroke-linejoin:miter;stroke-miterlimit:3.8637;stroke-dasharray:none;stroke-opacity:1"
       transform="matrix(0.13333333,0,0,-0.13333333,0,262.10667)" />
    <path
       id="path6"
       d="m 3098.25,1267.25 h 354 v -355 h -354 z"
       style="fill:none;stroke:#231f20;stroke-width:2.5;stroke-linecap:butt;stroke-linejoin:miter;stroke-miterlimit:3.8637;stroke-dasharray:none;stroke-opacity:1"
       transform="matrix(0.13333333,0,0,-0.13333333,0,262.10667)" />
    <path
       id="path7"
       d="m 2744.25,1621.25 h 354 v -354 h -354 z"
       style="fill:none;stroke:#231f20;stroke-width:2.5;stroke-linecap:butt;stroke-linejoin:miter;stroke-miterlimit:3.8637;stroke-dasharray:none;stroke-opacity:1"
       transform="matrix(0.13333333,0,0,-0.13333333,0,262.10667)" />
    <path
       id="path8"
       d="m 3098.25,1621.25 h 354 v -354 h -354 z"
       style="fill:none;stroke:#231f20;stroke-width:2.5;stroke-linecap:butt;stroke-linejoin:miter;stroke-miterlimit:3.8637;stroke-dasharray:none;stroke-opacity:1"
       transform="matrix(0.13333333,0,0,-0.13333333,0,262.10667)" />
    <path
       id="path9"
       d="m 2730.25,1618.25 c -0.39,9.41 7.54,17.34 17,17 10.11,0.34 18.04,-7.59 18,-17 0.04,-10.16 -7.89,-18.09 -18,-18 -9.46,-0.09 -17.39,7.84 -17,18"
       style="fill:#231f20;fill-opacity:1;fill-rule:nonzero;stroke:none"
       transform="matrix(0.13333333,0,0,-0.13333333,0,262.10667)" />
    <path
       id="path10"
       d="m 3084.25,1618.25 c -0.06,9.41 7.87,17.34 18,17 9.44,0.34 17.38,-7.59 17,-17 0.38,-10.16 -7.56,-18.09 -17,-18 -10.13,-0.09 -18.06,7.84 -18,18"
       style="fill:#231f20;fill-opacity:1;fill-rule:nonzero;stroke:none"
       transform="matrix(0.13333333,0,0,-0.13333333,0,262.10667)" />
    <path
       id="path11"
       d="m 3438.25,1618.25 c 0.27,9.41 8.2,17.34 18,17 9.77,0.34 17.7,-7.59 18,-17 -0.3,-10.16 -8.23,-18.09 -18,-18 -9.8,-0.09 -17.73,7.84 -18,18"
       style="fill:#231f20;fill-opacity:1;fill-rule:nonzero;stroke:none"
       transform="matrix(0.13333333,0,0,-0.13333333,0,262.10667)" />
    <path
       id="path12"
       d="m 2730.25,1263.25 c -0.39,10.07 7.54,18.01 17,18 10.11,0.01 18.04,-7.93 18,-18 0.04,-9.49 -7.89,-17.43 -18,-17 -9.46,-0.43 -17.39,7.51 -17,17"
       style="fill:#231f20;fill-opacity:1;fill-rule:nonzero;stroke:none"
       transform="matrix(0.13333333,0,0,-0.13333333,0,262.10667)" />
    <path
       id="path13"
       d="m 3084.25,1263.25 c -0.06,10.07 7.87,18.01 18,18 9.44,0.01 17.38,-7.93 17,-18 0.38,-9.49 -7.56,-17.43 -17,-17 -10.13,-0.43 -18.06,7.51 -18,17"
       style="fill:#231f20;fill-opacity:1;fill-rule:nonzero;stroke:none"
       transform="matrix(0.13333333,0,0,-0.13333333,0,262.10667)" />
    <path
       id="path14"
       d="m 3438.25,1263.25 c 0.27,10.07 8.2,18.01 18,18 9.77,0.01 17.7,-7.93 18,-18 -0.3,-9.49 -8.23,-17.43 -18,-17 -9.8,-0.43 -17.73,7.51 -18,17"
       style="fill:#231f20;fill-opacity:1;fill-rule:nonzero;stroke:none"
       transform="matrix(0.13333333,0,0,-0.13333333,0,262.10667)" />
    <path
       id="path15"
       d="m 2730.25,909.25 c -0.39,9.746 7.54,17.676 17,18 10.11,-0.324 18.04,-8.254 18,-18 0.04,-9.824 -7.89,-17.758 -18,-18 -9.46,0.242 -17.39,8.176 -17,18"
       style="fill:#231f20;fill-opacity:1;fill-rule:nonzero;stroke:none"
       transform="matrix(0.13333333,0,0,-0.13333333,0,262.10667)" />
    <path
       id="path16"
       d="m 3084.25,909.25 c -0.06,9.746 7.87,17.676 18,18 9.44,-0.324 17.38,-8.254 17,-18 0.38,-9.824 -7.56,-17.758 -17,-18 -10.13,0.242 -18.06,8.176 -18,18"
       style="fill:#231f20;fill-opacity:1;fill-rule:nonzero;stroke:none"
       transform="matrix(0.13333333,0,0,-0.13333333,0,262.10667)" />
    <path
       id="path17"
       d="m 3438.25,909.25 c 0.27,9.746 8.2,17.676 18,18 9.77,-0.324 17.7,-8.254 18,-18 -0.3,-9.824 -8.23,-17.758 -18,-18 -9.8,0.242 -17.73,8.176 -18,18"
       style="fill:#231f20;fill-opacity:1;fill-rule:nonzero;stroke:none"
       transform="matrix(0.13333333,0,0,-0.13333333,0,262.10667)" />
    <path
       id="path18"
       d="m 2730.25,555.25 c -0.39,9.414 7.54,17.344 17,17 10.11,0.344 18.04,-7.586 18,-17 0.04,-10.156 -7.89,-18.086 -18,-18 -9.46,-0.086 -17.39,7.844 -17,18"
       style="fill:#231f20;fill-opacity:1;fill-rule:nonzero;stroke:none"
       transform="matrix(0.13333333,0,0,-0.13333333,0,262.10667)" />
    <path
       id="path19"
       d="m 3084.25,555.25 c -0.06,9.414 7.87,17.344 18,17 9.44,0.344 17.38,-7.586 17,-17 0.38,-10.156 -7.56,-18.086 -17,-18 -10.13,-0.086 -18.06,7.844 -18,18"
       style="fill:#231f20;fill-opacity:1;fill-rule:nonzero;stroke:none"
       transform="matrix(0.13333333,0,0,-0.13333333,0,262.10667)" />
    <path
       id="path20"
       d="m 3438.25,555.25 c 0.27,9.414 8.2,17.344 18,17 9.77,0.344 17.7,-7.586 18,-17 -0.3,-10.156 -8.23,-18.086 -18,-18 -9.8,-0.086 -17.73,7.844 -18,18"
       style="fill:#231f20;fill-opacity:1;fill-rule:nonzero;stroke:none"
       transform="matrix(0.13333333,0,0,-0.13333333,0,262.10667)" />
    <path
       id="path21"
       d="m 2730.25,200.25 c -0.39,10.082 7.54,18.012 17,18 10.11,0.012 18.04,-7.918 18,-18 0.04,-9.488 -7.89,-17.418 -18,-17 -9.46,-0.418 -17.39,7.512 -17,17"
       style="fill:#231f20;fill-opacity:1;fill-rule:nonzero;stroke:none"
       transform="matrix(0.13333333,0,0,-0.13333333,0,262.10667)" />
    <path
       id="path22"
       d="m 3084.25,200.25 c -0.06,10.082 7.87,18.012 18,18 9.44,0.012 17.38,-7.918 17,-18 0.38,-9.488 -7.56,-17.418 -17,-17 -10.13,-0.418 -18.06,7.512 -18,17"
       style="fill:#231f20;fill-opacity:1;fill-rule:nonzero;stroke:none"
       transform="matrix(0.13333333,0,0,-0.13333333,0,262.10667)" />
    <path
       id="path23"
       d="m 3438.25,200.25 c 0.27,10.082 8.2,18.012 18,18 9.77,0.012 17.7,-7.918 18,-18 -0.3,-9.488 -8.23,-17.418 -18,-17 -9.8,-0.418 -17.73,7.512 -18,17"
       style="fill:#231f20;fill-opacity:1;fill-rule:nonzero;stroke:none"
       transform="matrix(0.13333333,0,0,-0.13333333,0,262.10667)" />
    <g
       id="g23"
       aria-label="123&#10;456&#10;789&#10;101112&#10;131415&#10;12&#10;34&#10;56&#10;78"
       transform="matrix(1.3333333,0,0,1.3332667,370.43333,230.20667)">
      <path
         id="path24"
         d="M 0.53925781,2.7345117e-4 H 3.6095703 V -0.16379725 h -0.1875 c -0.5390625,0 -0.7617187,-0.10547403 -0.7617187,-0.35158008 0,-0.10547402 0.035156,-0.26954473 0.140625,-0.57424747 0.011719,-0.082035 0.023437,-0.1289127 0.058594,-0.246106 l 1.5703125,-5.7073166 c 0.058594,-0.1992288 0.070312,-0.2578254 0.070312,-0.3164221 0,-0.046877 -0.023437,-0.082035 -0.058594,-0.082035 0,0 -0.3046875,0.058597 -0.9023438,0.1757901 l -0.984375,0.1992287 c -0.023437,0.011719 -0.1054687,0.023439 -0.234375,0.046877 v 0.1640707 l 0.6328125,-0.023439 c 0.2460938,-0.011719 0.4101563,0.1171933 0.4101563,0.3398607 0,0.082035 -0.023437,0.1523514 -0.070312,0.3750187 L 1.7697266,-0.74976405 C 1.6408203,-0.33958729 1.4064453,-0.23411327 0.53925781,-0.15207792 Z M 39.805859,-1.5349596 c -0.257812,0.5390895 -0.480468,0.67972153 -1.089843,0.7031602 h -2.097657 v -0.0585967 l 2.121094,-2.1094804 c 1.277344,-1.289127 1.628906,-1.8399358 1.628906,-2.578254 0,-1.0430209 -0.773437,-1.8633744 -1.78125,-1.8633744 -0.386718,0 -0.796875,0.1054741 -1.125,0.2929834 -0.5625,0.3047028 -0.867187,0.6797215 -1.183593,1.464917 l 0.234375,0.082035 c 0.410156,-0.7148795 0.878906,-1.0313016 1.535156,-1.0313016 0.796875,0 1.382812,0.5742475 1.382812,1.3360043 0,0.2343867 -0.03516,0.4453348 -0.105468,0.5859668 -0.257813,0.5976861 -0.773438,1.289127 -1.488282,2.0626031 l -2.308593,2.46106056 V 2.7345117e-4 h 3.914062 L 39.993359,-1.4529242 Z m 32.950196,-4.6994537 c 0.386718,-0.5273701 0.761718,-0.7383181 1.21875,-0.7383181 0.597656,0 0.984375,0.3867381 0.984375,0.9961435 0,0.4687735 -0.234375,0.8555115 -0.703125,1.183653 -0.480469,0.316422 -0.949219,0.4804927 -1.921875,0.6445634 v 0.1757901 c 0.621093,0 0.726562,0.011719 1.019531,0.105474 0.667969,0.2578254 1.019531,0.8555115 1.019531,1.7344617 0,0.3867381 -0.08203,0.7851955 -0.234375,1.0430209 -0.257812,0.44533477 -0.75,0.75003751 -1.207031,0.75003751 -0.210938,0 -0.445313,-0.10547402 -0.785156,-0.35158008 -0.316407,-0.23438672 -0.492188,-0.30470273 -0.703125,-0.30470273 -0.304688,0 -0.480469,0.15235136 -0.480469,0.42189609 0,0.42189609 0.445312,0.65628281 1.230469,0.65628281 0.621093,0 1.195312,-0.15235136 1.640625,-0.41017676 0.867187,-0.50393144 1.417968,-1.42975894 1.417968,-2.41418324 0,-0.7969148 -0.316406,-1.3008462 -1.042968,-1.640707 v -0.035158 c 1.324218,-0.5156508 1.710937,-0.8789502 1.710937,-1.6289877 0,-0.7969148 -0.65625,-1.394601 -1.546875,-1.394601 -0.761719,0 -1.441406,0.4336155 -1.792969,1.148495 z M 4.9806641,-38.149095 H 3.9376953 l 1.3359375,-4.793208 H 4.8166016 l -4.58203129,4.746331 -0.22265625,0.738318 H 2.8947266 l -0.5390625,1.957129 h 0.8671875 l 0.5039062,-1.93369 h 1.1015625 z m -1.9335938,0 H 0.71503906 v -0.04688 l 3.33984374,-3.504082 h 0.046875 z m 34.9658207,-3.902539 h 2.53125 l 0.257812,-0.773476 h -2.8125 l -1.148437,2.390745 v 0.16407 c 1.066406,0.234387 1.429687,0.3633 1.828125,0.691441 0.351562,0.281264 0.585937,0.832073 0.585937,1.41804 0,1.195372 -0.890625,2.273551 -1.886719,2.273551 -0.234375,0 -0.433593,-0.08204 -0.75,-0.316422 -0.269531,-0.210948 -0.433593,-0.292983 -0.609375,-0.292983 -0.257812,0 -0.445312,0.187509 -0.445312,0.445334 0,0.398458 0.433594,0.632844 1.171875,0.632844 1.816406,0 3.269531,-1.418039 3.269531,-3.16422 0,-0.679722 -0.246094,-1.265689 -0.726562,-1.711023 -0.410157,-0.386738 -0.796875,-0.562528 -1.6875,-0.785196 z m 38.504882,-0.996143 c -1.476562,0.17579 -2.203125,0.433615 -3.152343,1.136775 -1.394532,1.031302 -2.238282,2.589974 -2.238282,4.160365 0,1.418039 0.796875,2.332147 2.015625,2.332147 1.476563,0 2.730469,-1.40632 2.730469,-3.058746 0,-1.125057 -0.785156,-1.94541 -1.875,-1.94541 -0.304687,0 -0.667969,0.09376 -0.960937,0.234387 l -0.04687,-0.02344 c 0.761718,-1.394601 2.25,-2.507938 3.539062,-2.660289 z m -2.871093,3.023588 c 0.761718,0 1.242187,0.550809 1.242187,1.394601 0,0.750038 -0.257812,1.617269 -0.667969,2.191516 -0.328125,0.492212 -0.714843,0.726599 -1.183593,0.726599 -0.679688,0 -1.066407,-0.539089 -1.066407,-1.441478 0,-0.750038 0.210938,-1.664146 0.503907,-2.144639 0.292968,-0.503931 0.65625,-0.726599 1.171875,-0.726599 z M 5.9064453,-78.12375 5.8478516,-78.229224 H 1.7111328 l -0.89062499,1.488356 0.1640625,0.105474 C 1.4884766,-77.256519 1.7931641,-77.42059 2.4376953,-77.432309 h 2.4492188 l 0.023437,0.03516 -4.04296879,6.586267 H 1.6408203 Z m 33.1142577,3.01187 c 1.3125,-0.421897 1.804688,-0.902389 1.804688,-1.675865 0,-0.914109 -0.808594,-1.558672 -1.921875,-1.558672 -1.183594,0 -1.980469,0.679721 -1.980469,1.652426 0,0.597686 0.210937,1.019582 0.949219,1.828217 -1.382813,0.445334 -2.144532,1.218811 -2.144532,2.191515 0,0.292984 0.09375,0.621125 0.257813,0.902389 0.363281,0.621125 1.019531,0.949267 1.933594,0.949267 1.359375,0 2.367187,-0.855512 2.367187,-1.980568 0,-0.738318 -0.328125,-1.336005 -1.265625,-2.308709 z m -0.902344,0.421896 c 1.207032,1.253969 1.335938,1.453197 1.335938,2.074322 0,0.902389 -0.621094,1.546952 -1.488281,1.546952 -0.867188,0 -1.488282,-0.644563 -1.488282,-1.546952 0,-0.902389 0.597657,-1.664146 1.640625,-2.074322 z m 0.703125,-0.609406 c -0.855468,-0.808634 -1.042968,-1.089898 -1.042968,-1.546952 0,-0.773476 0.421875,-1.24225 1.125,-1.24225 0.703125,0 1.171875,0.515651 1.171875,1.300847 0,0.69144 -0.292969,1.04302 -1.253907,1.488355 z m 32.235352,4.582261 c 1.476562,-0.257826 2.214844,-0.550809 3.128906,-1.265689 1.277344,-1.007863 2.027344,-2.47278 2.027344,-3.961135 0,-1.453198 -0.796875,-2.402464 -1.992188,-2.402464 -1.382812,0 -2.660156,1.40632 -2.660156,2.953273 0,1.148494 0.679688,1.968848 1.652344,1.968848 0.445312,0 0.832031,-0.128913 1.417969,-0.492212 l 0.04687,0.02344 c -0.1875,0.503931 -0.738282,1.21881 -1.417969,1.828216 -0.796875,0.679721 -1.335938,0.960985 -2.203125,1.148495 z m 3.246094,-7.336305 c 0.679687,0 1.089843,0.53909 1.089843,1.453198 0,0.855511 -0.28125,1.875094 -0.609375,2.191516 -0.28125,0.292983 -0.738281,0.480493 -1.160156,0.480493 -0.703125,0 -1.101562,-0.550809 -1.101562,-1.535233 0,-0.808635 0.328125,-1.687585 0.796875,-2.179797 0.269531,-0.269545 0.609375,-0.410177 0.984375,-0.410177 z M 0.53925781,-106.30582 H 3.6095703 v -0.16407 h -0.1875 c -0.5390625,0 -0.7617187,-0.10548 -0.7617187,-0.35158 0,-0.10548 0.035156,-0.26955 0.140625,-0.57425 0.011719,-0.082 0.023437,-0.12891 0.058594,-0.24611 l 1.5703125,-5.70731 c 0.058594,-0.19923 0.070312,-0.25783 0.070312,-0.31643 0,-0.0469 -0.023437,-0.082 -0.058594,-0.082 0,0 -0.3046875,0.0586 -0.9023438,0.17579 l -0.984375,0.19923 c -0.023437,0.0117 -0.1054687,0.0234 -0.234375,0.0469 v 0.16408 l 0.6328125,-0.0234 c 0.2460938,-0.0117 0.4101563,0.11719 0.4101563,0.33986 0,0.082 -0.023437,0.15235 -0.070312,0.37502 l -1.5234375,5.41433 c -0.1289063,0.41018 -0.3632813,0.51565 -1.23046879,0.59769 z m 8.70996099,-7.44178 c -1.7226563,0 -3.3984375,2.50794 -3.3984375,5.09791 0,1.4532 0.703125,2.4259 1.7695312,2.4259 0.4804688,0 0.9375,-0.17579 1.3945313,-0.51565 1.1132812,-0.80863 1.9570312,-2.63685 1.9570312,-4.21896 0,-1.74618 -0.65625,-2.7892 -1.7226562,-2.7892 z m -0.058594,0.31642 c 0.5742188,0 0.9140632,0.50393 0.9140632,1.38288 0,1.47664 -0.4453132,3.29314 -1.0781257,4.40647 -0.4101562,0.7266 -0.8671875,1.10162 -1.3710937,1.10162 -0.5859375,0 -0.9375,-0.55081 -0.9375,-1.47664 0,-1.18365 0.5625,-3.35173 1.1367187,-4.37131 0.4101563,-0.70316 0.8203125,-1.04302 1.3359375,-1.04302 z m 26.7480472,7.12536 h 3.070312 v -0.16407 h -0.1875 c -0.539062,0 -0.761718,-0.10548 -0.761718,-0.35158 0,-0.10548 0.03516,-0.26955 0.140625,-0.57425 0.01172,-0.082 0.02344,-0.12891 0.05859,-0.24611 l 1.570313,-5.70731 c 0.05859,-0.19923 0.07031,-0.25783 0.07031,-0.31643 0,-0.0469 -0.02344,-0.082 -0.05859,-0.082 0,0 -0.304688,0.0586 -0.902344,0.17579 l -0.984375,0.19923 c -0.02344,0.0117 -0.105469,0.0234 -0.234375,0.0469 v 0.16408 l 0.632812,-0.0234 c 0.246094,-0.0117 0.410157,0.11719 0.410157,0.33986 0,0.082 -0.02344,0.15235 -0.07031,0.37502 l -1.523437,5.41433 c -0.128907,0.41018 -0.363282,0.51565 -1.230469,0.59769 z m 4.699219,0 h 3.070312 v -0.16407 h -0.1875 c -0.539062,0 -0.761719,-0.10548 -0.761719,-0.35158 0,-0.10548 0.03516,-0.26955 0.140625,-0.57425 0.01172,-0.082 0.02344,-0.12891 0.05859,-0.24611 l 1.570313,-5.70731 c 0.05859,-0.19923 0.07031,-0.25783 0.07031,-0.31643 0,-0.0469 -0.02344,-0.082 -0.05859,-0.082 0,0 -0.304687,0.0586 -0.902343,0.17579 l -0.984375,0.19923 c -0.02344,0.0117 -0.105469,0.0234 -0.234375,0.0469 v 0.16408 l 0.632812,-0.0234 c 0.246094,-0.0117 0.410156,0.11719 0.410156,0.33986 0,0.082 -0.02344,0.15235 -0.07031,0.37502 l -1.523438,5.41433 c -0.128906,0.41018 -0.363281,0.51565 -1.230468,0.59769 z m 30.700195,0 h 3.070312 v -0.16407 h -0.1875 c -0.539062,0 -0.761718,-0.10548 -0.761718,-0.35158 0,-0.10548 0.03516,-0.26955 0.140625,-0.57425 0.01172,-0.082 0.02344,-0.12891 0.05859,-0.24611 l 1.570313,-5.70731 c 0.05859,-0.19923 0.07031,-0.25783 0.07031,-0.31643 0,-0.0469 -0.02344,-0.082 -0.05859,-0.082 0,0 -0.304688,0.0586 -0.902344,0.17579 l -0.984375,0.19923 c -0.02344,0.0117 -0.105469,0.0234 -0.234375,0.0469 v 0.16408 l 0.632812,-0.0234 c 0.246094,-0.0117 0.410157,0.11719 0.410157,0.33986 0,0.082 -0.02344,0.15235 -0.07031,0.37502 l -1.523437,5.41433 c -0.128907,0.41018 -0.363282,0.51565 -1.230469,0.59769 z m 9.369141,-1.53524 c -0.257813,0.53909 -0.480469,0.67973 -1.089844,0.70316 h -2.097656 v -0.0586 l 2.121093,-2.10948 c 1.277344,-1.28913 1.628907,-1.83994 1.628907,-2.57826 0,-1.04302 -0.773438,-1.86337 -1.78125,-1.86337 -0.386719,0 -0.796875,0.10547 -1.125,0.29298 -0.5625,0.3047 -0.867188,0.67972 -1.183594,1.46492 l 0.234375,0.082 c 0.410156,-0.71487 0.878906,-1.0313 1.535156,-1.0313 0.796875,0 1.382813,0.57425 1.382813,1.33601 0,0.23438 -0.03516,0.44533 -0.105469,0.58596 -0.257813,0.59769 -0.773438,1.28913 -1.488281,2.06261 l -2.308594,2.46106 v 0.18751 h 3.914062 l 0.550782,-1.4532 z M 0.53925781,-141.80662 H 3.6095703 v -0.16407 h -0.1875 c -0.5390625,0 -0.7617187,-0.10548 -0.7617187,-0.35158 0,-0.10548 0.035156,-0.26955 0.140625,-0.57425 0.011719,-0.082 0.023437,-0.12891 0.058594,-0.24611 l 1.5703125,-5.70731 c 0.058594,-0.19923 0.070312,-0.25783 0.070312,-0.31642 0,-0.0469 -0.023437,-0.082 -0.058594,-0.082 0,0 -0.3046875,0.0586 -0.9023438,0.17579 l -0.984375,0.19923 c -0.023437,0.0117 -0.1054687,0.0234 -0.234375,0.0469 v 0.16407 l 0.6328125,-0.0234 c 0.2460938,-0.0117 0.4101563,0.11719 0.4101563,0.33986 0,0.082 -0.023437,0.15235 -0.070312,0.37502 l -1.5234375,5.41433 c -0.1289063,0.41018 -0.3632813,0.51565 -1.23046879,0.59769 z M 7.45625,-148.04131 c 0.3867188,-0.52737 0.7617188,-0.73832 1.21875,-0.73832 0.5976563,0 0.984375,0.38674 0.984375,0.99615 0,0.46877 -0.234375,0.85551 -0.703125,1.18365 -0.4804687,0.31642 -0.9492187,0.48049 -1.921875,0.64456 v 0.17579 c 0.6210938,0 0.7265625,0.0117 1.0195313,0.10548 0.6679687,0.25782 1.0195312,0.85551 1.0195312,1.73446 0,0.38674 -0.082031,0.7852 -0.234375,1.04302 -0.2578125,0.44534 -0.75,0.75004 -1.2070312,0.75004 -0.2109375,0 -0.4453125,-0.10548 -0.7851563,-0.35158 -0.3164062,-0.23439 -0.4921875,-0.3047 -0.703125,-0.3047 -0.3046875,0 -0.4804687,0.15235 -0.4804687,0.42189 0,0.4219 0.4453125,0.65628 1.2304687,0.65628 0.6210938,0 1.1953125,-0.15235 1.640625,-0.41017 0.8671875,-0.50393 1.4179688,-1.42976 1.4179688,-2.41419 0,-0.79691 -0.3164063,-1.30084 -1.0429688,-1.6407 v -0.0352 c 1.324219,-0.51565 1.710938,-0.87895 1.710938,-1.62899 0,-0.79691 -0.6562505,-1.3946 -1.5468755,-1.3946 -0.7617187,0 -1.4414062,0.43362 -1.7929687,1.1485 z m 28.482422,6.23469 h 3.070312 v -0.16407 h -0.1875 c -0.539062,0 -0.761718,-0.10548 -0.761718,-0.35158 0,-0.10548 0.03516,-0.26955 0.140625,-0.57425 0.01172,-0.082 0.02344,-0.12891 0.05859,-0.24611 l 1.570313,-5.70731 c 0.05859,-0.19923 0.07031,-0.25783 0.07031,-0.31642 0,-0.0469 -0.02344,-0.082 -0.05859,-0.082 0,0 -0.304688,0.0586 -0.902344,0.17579 l -0.984375,0.19923 c -0.02344,0.0117 -0.105469,0.0234 -0.234375,0.0469 v 0.16407 l 0.632812,-0.0234 c 0.246094,-0.0117 0.410157,0.11719 0.410157,0.33986 0,0.082 -0.02344,0.15235 -0.07031,0.37502 l -1.523437,5.41433 c -0.128907,0.41018 -0.363282,0.51565 -1.230469,0.59769 z m 9.943359,-2.64857 H 44.839063 L 46.175,-149.2484 h -0.457031 l -4.582031,4.74633 -0.222657,0.73832 h 2.882813 l -0.539063,1.95713 h 0.867188 l 0.503906,-1.93369 h 1.101563 z m -1.933593,0 h -2.332032 v -0.0469 l 3.339844,-3.50408 h 0.04687 z m 27.389648,2.64857 h 3.070312 v -0.16407 h -0.1875 c -0.539062,0 -0.761718,-0.10548 -0.761718,-0.35158 0,-0.10548 0.03516,-0.26955 0.140625,-0.57425 0.01172,-0.082 0.02344,-0.12891 0.05859,-0.24611 l 1.570313,-5.70731 c 0.05859,-0.19923 0.07031,-0.25783 0.07031,-0.31642 0,-0.0469 -0.02344,-0.082 -0.05859,-0.082 0,0 -0.304688,0.0586 -0.902344,0.17579 l -0.984375,0.19923 c -0.02344,0.0117 -0.105469,0.0234 -0.234375,0.0469 v 0.16407 l 0.632812,-0.0234 c 0.246094,-0.0117 0.410157,0.11719 0.410157,0.33986 0,0.082 -0.02344,0.15235 -0.07031,0.37502 l -1.523437,5.41433 c -0.128907,0.41018 -0.363282,0.51565 -1.230469,0.59769 z m 7.576172,-6.55111 h 2.53125 l 0.257812,-0.77348 h -2.8125 l -1.148437,2.39075 v 0.16407 c 1.066406,0.23439 1.429687,0.3633 1.828125,0.69144 0.351562,0.28126 0.585937,0.83207 0.585937,1.41804 0,1.19537 -0.890625,2.27355 -1.886718,2.27355 -0.234375,0 -0.433594,-0.082 -0.75,-0.31642 -0.269532,-0.21095 -0.433594,-0.29298 -0.609375,-0.29298 -0.257813,0 -0.445313,0.1875 -0.445313,0.44533 0,0.39846 0.433594,0.63284 1.171875,0.63284 1.816406,0 3.269531,-1.41804 3.269531,-3.16422 0,-0.67972 -0.246093,-1.26568 -0.726562,-1.71102 -0.410156,-0.38674 -0.796875,-0.56253 -1.6875,-0.7852 z m 0,0"
         style="fill:#231f20;fill-opacity:1;fill-rule:nonzero;stroke:none" />
      <path
         id="path25"
         d="m 14.314648,-17.379502 v 5.379175 h 1.546875 v -7.805077 h -1.019531 c -0.246094,0.925827 -1.054687,1.40632 -2.390625,1.40632 v 1.019582 z m 38.522461,4.008013 h -3.316406 c 0.210938,-0.421896 0.457031,-0.656283 1.59375,-1.476636 1.359375,-0.996144 1.757813,-1.570391 1.757813,-2.64857 0,-1.500075 -1.054688,-2.47278 -2.683594,-2.47278 -1.617188,0 -2.554688,0.960986 -2.554688,2.613412 v 0.269545 h 1.476563 v -0.246106 c 0,-0.878951 0.410156,-1.382882 1.113281,-1.382882 0.679688,0 1.101563,0.480493 1.101563,1.253969 0,0.867231 -0.257813,1.195372 -2.003907,2.425902 -1.3125,0.902389 -1.722656,1.582111 -1.792968,3.035308 h 5.308593 z M 14.091992,-50.893873 c 0.585938,0 0.621094,0 0.902344,0.08204 0.515625,0.140632 0.84375,0.597686 0.84375,1.160214 0,0.70316 -0.480469,1.183653 -1.160156,1.183653 -0.726563,0 -1.113282,-0.421896 -1.160157,-1.218811 h -1.5 c 0.01172,1.558672 1.03125,2.543096 2.636719,2.543096 1.652344,0 2.730469,-0.984424 2.730469,-2.507938 0,-0.902389 -0.398438,-1.500075 -1.277344,-1.933691 0.714844,-0.445334 1.019531,-0.949266 1.019531,-1.664145 0,-1.289127 -0.972656,-2.1212 -2.472656,-2.1212 -1.136719,0 -2.003906,0.492212 -2.34375,1.347724 -0.152344,0.375018 -0.1875,0.621124 -0.1875,1.277407 h 1.429688 c 0.01172,-0.421896 0.04687,-0.632844 0.117187,-0.832073 0.140625,-0.33986 0.492188,-0.550808 0.949219,-0.550808 0.609375,0 0.960937,0.375018 0.960937,1.031301 0,0.785196 -0.445312,1.171934 -1.359375,1.171934 h -0.128906 z m 38.850586,0.492212 h -0.808594 v -4.804927 h -1.816406 l -2.847656,4.781489 v 1.300846 h 3.117187 v 1.722742 h 1.546875 v -1.722742 h 0.808594 z m -2.355469,0 h -2.039062 l 2.039062,-3.34001 z M 17.080273,-90.710317 h -4.171875 l -0.691406,4.347874 h 1.382813 c 0.175781,-0.386738 0.527343,-0.597686 0.996093,-0.597686 0.785157,0 1.253907,0.562528 1.253907,1.511794 0,0.914108 -0.46875,1.476637 -1.253907,1.476637 -0.667968,0 -1.042968,-0.339861 -1.078125,-0.972705 h -1.523437 c 0.02344,1.371162 1.054687,2.29699 2.578125,2.29699 1.675781,0 2.8125,-1.148495 2.8125,-2.83608 0,-1.605549 -0.984375,-2.695447 -2.425781,-2.695447 -0.515625,0 -0.902344,0.128913 -1.359375,0.480493 l 0.257812,-1.628988 h 3.222656 z m 35.698243,1.76962 c -0.08203,-0.503931 -0.175782,-0.750037 -0.375,-1.043021 -0.410157,-0.562528 -1.125,-0.890669 -1.96875,-0.890669 -0.972657,0 -1.757813,0.433615 -2.238282,1.207091 -0.457031,0.761757 -0.644531,1.628988 -0.644531,3.058747 0,1.336004 0.164063,2.168077 0.5625,2.800921 0.445313,0.726599 1.265625,1.160215 2.191406,1.160215 1.546875,0 2.601563,-1.160215 2.601563,-2.871238 0,-1.488355 -0.925781,-2.531376 -2.261719,-2.531376 -0.644531,0 -1.066406,0.187509 -1.546875,0.70316 v -0.164071 c 0.02344,-0.726599 0.05859,-0.960985 0.175781,-1.253969 0.199219,-0.574247 0.574219,-0.867231 1.113282,-0.867231 0.503906,0 0.761718,0.199229 0.960937,0.691441 z m -2.519532,2.1212 c 0.726563,0 1.183594,0.550809 1.183594,1.41804 0,0.820353 -0.503906,1.429759 -1.183594,1.429759 -0.703125,0 -1.183593,-0.574248 -1.183593,-1.406321 0,-0.855511 0.480468,-1.441478 1.183593,-1.441478 z M 17.513867,-126.1115 h -5.496094 v 1.38288 h 3.890625 c -0.480468,0.50393 -1.40625,1.92197 -1.722656,2.60169 -0.539062,1.13678 -0.808594,2.15636 -1.019531,3.82051 h 1.546875 c 0.140625,-2.46106 0.949219,-4.3596 2.800781,-6.58627 z m 34.186524,3.56268 c 0.269531,-0.15235 0.386718,-0.22267 0.503906,-0.33986 0.316406,-0.29299 0.503906,-0.76176 0.503906,-1.27741 0,-1.21881 -1.054687,-2.10948 -2.496094,-2.10948 -1.453125,0 -2.507812,0.89067 -2.507812,2.1212 0,0.75004 0.304687,1.23053 1.019531,1.60555 -0.902344,0.49221 -1.277344,1.07818 -1.277344,1.99228 0,1.47664 1.125,2.50794 2.765625,2.50794 1.628907,0 2.765625,-1.0313 2.765625,-2.50794 0,-0.9141 -0.375,-1.50007 -1.277343,-1.99228 z m -1.476563,-2.4845 c 0.679688,0 1.160156,0.42189 1.160156,1.0313 0,0.58597 -0.480468,1.01958 -1.160156,1.01958 -0.691406,0 -1.160156,-0.42189 -1.160156,-1.0313 0,-0.59769 0.46875,-1.01958 1.160156,-1.01958 z m -0.02344,3.0939 c 0.761718,0 1.242187,0.50393 1.242187,1.32429 0,0.75004 -0.492187,1.24225 -1.242187,1.24225 -0.75,0 -1.21875,-0.49221 -1.21875,-1.26569 0,-0.79692 0.46875,-1.30085 1.21875,-1.30085 z m 0,0"
         style="fill:#231f20;fill-opacity:1;fill-rule:nonzero;stroke:none" />
    </g>
    <path
       id="path26"
       d="m 416.25,1904.25 v -1701 h 1701"
       style="fill:none;stroke:#231f20;stroke-width:2.5;stroke-linecap:butt;stroke-linejoin:miter;stroke-miterlimit:3.8637;stroke-dasharray:none;stroke-opacity:1"
       transform="matrix(0.13333333,0,0,-0.13333333,0,262.10667)" />
    <path
       id="path27"
       d="m 416.25,1901.25 h -15 l 15,38 15,-38 h -15"
       style="fill:#231f20;fill-opacity:1;fill-rule:evenodd;stroke:none"
       transform="matrix(0.13333333,0,0,-0.13333333,0,262.10667)" />
    <path
       id="path28"
       d="m 2114.25,203.25 v 15 l 38,-15 -38,-15 v 15"
       style="fill:#231f20;fill-opacity:1;fill-rule:evenodd;stroke:none"
       transform="matrix(0.13333333,0,0,-0.13333333,0,262.10667)" />
    <path
       id="path29"
       d="m 416.25,1620.25 h 1417 v -1417 h -1417 v 1417"
       style="fill:#e9e9e9;fill-opacity:1;fill-rule:nonzero;stroke:none"
       transform="matrix(0.13333333,0,0,-0.13333333,0,262.10667)" />
    <path
       id="path30"
       d="m 416.25,1620.25 h 1417 v -1417 h -1417 z"
       style="fill:none;stroke:#231f20;stroke-width:5;stroke-linecap:butt;stroke-linejoin:miter;stroke-miterlimit:3.8637;stroke-dasharray:none;stroke-opacity:1"
       transform="matrix(0.13333333,0,0,-0.13333333,0,262.10667)" />
    <g
       id="g30"
       aria-label="x&#10;y&#10;c = 0&#10;c = 0&#10;c = 10&#10;-3&#10; kg/m&#10;3&#10;c = 0&#10;0.1 m&#10;0.1 m"
       transform="matrix(1.3333333,0,0,1.3333333,279.23333,255.00667)">
      <path
         id="path31"
         d="m 4.8289062,-1.3350781 c -0.1054687,0.1171875 -0.1640625,0.1875 -0.2695312,0.328125 -0.2695313,0.36328122 -0.421875,0.48046872 -0.5625,0.48046872 -0.1640625,0 -0.28125,-0.15234375 -0.3632813,-0.49218752 -0.035156,-0.1289062 -0.035156,-0.1523437 -0.046875,-0.1875 C 3.29375,-2.4366406 3.153125,-2.9874219 3.153125,-3.1632031 c 0.5390625,-0.9375 0.9609375,-1.453125 1.1835937,-1.453125 0.070312,0 0.1757813,0.035156 0.28125,0.09375 0.1523438,0.082031 0.234375,0.1054687 0.3398438,0.1054687 0.234375,0 0.4101562,-0.1757812 0.4101562,-0.4335937 0,-0.2578125 -0.2109375,-0.4453125 -0.4921875,-0.4453125 -0.5273437,0 -0.9726562,0.4335937 -1.8164062,1.7226562 l -0.1289063,-0.65625 C 2.7664062,-5.0499219 2.6257812,-5.2960156 2.309375,-5.2960156 c -0.28125,0 -0.6679688,0.1054687 -1.40625,0.3515625 -0.0703125,0.023437 -0.0703125,0.023437 -0.12890625,0.046875 l 0.046875,0.1875 c 0.46874995,-0.1289063 0.55078125,-0.140625 0.66796875,-0.140625 0.3046875,0 0.375,0.1171875 0.5390625,0.8320312 l 0.3515625,1.4765625 -0.984375,1.40625 c -0.2578125,0.35156252 -0.48046875,0.57421877 -0.609375,0.57421877 -0.0820313,0 -0.19921875,-0.0351563 -0.31640625,-0.10546875 -0.15234375,-0.09375 -0.28125,-0.12890625 -0.38671875,-0.12890625 -0.234375,0 -0.41015625,0.1875 -0.41015625,0.421875 0,0.31640625 0.234375,0.50390625 0.609375,0.50390625 0.36328125,0 0.515625,-0.10546875 1.11328125,-0.8203125 C 1.7117187,-1.0889844 1.98125,-1.4522656 2.4734375,-2.1085156 l 0.3632812,1.44140622 c 0.1523438,0.62109375 0.3046875,0.796875 0.6914063,0.796875 0.4570312,0 0.7734375,-0.28125 1.4648437,-1.35937502 z M -181.6252,-183.40344 c 0.15235,-0.0352 0.2461,-0.0469 0.375,-0.0469 0.49219,0 0.72657,0.19922 0.96094,0.84375 0.32813,0.89062 0.94922,3.45703 0.94922,3.91406 0,0.1875 -0.082,0.38672 -0.25781,0.60937 -0.32813,0.44532 -0.60938,0.78516 -0.75,0.9375 -0.25781,0.25782 -0.38672,0.36329 -0.53906,0.36329 -0.082,0 -0.15235,-0.0352 -0.29297,-0.14063 -0.17578,-0.14062 -0.29297,-0.19922 -0.44532,-0.19922 -0.25781,0 -0.46875,0.19922 -0.46875,0.46875 0,0.31641 0.25782,0.52735 0.6211,0.52735 0.76172,0 2.32031,-1.79297 3.63281,-4.17188 0.82031,-1.47656 1.14844,-2.34375 1.14844,-2.92969 0,-0.36328 -0.29297,-0.66797 -0.65625,-0.66797 -0.28125,0 -0.46875,0.1875 -0.46875,0.44532 0,0.19922 0.0937,0.3164 0.33984,0.46875 0.22266,0.14062 0.30469,0.24609 0.30469,0.41015 0,0.48047 -0.43359,1.40625 -1.46484,3.10547 l -0.23438,-1.39453 c -0.1875,-1.06641 -0.85547,-3.03516 -1.03125,-3.03516 h -0.0469 c -0.0234,0.0117 -0.0586,0.0117 -0.11719,0.0117 -0.0937,0.0117 -0.53906,0.0937 -1.17188,0.21094 -0.0586,0.0117 -0.21093,0.0469 -0.38672,0.0703 z m 79.62012,181.7255884 c -0.65625,0.71484379 -1.125,0.97265629 -1.71094,0.97265629 -0.67968,0 -1.08984,-0.50390629 -1.08984,-1.35937499 0,-1.0195313 0.42188,-2.109375 1.08984,-2.8007813 0.35157,-0.3632812 0.83204,-0.5742187 1.3125,-0.5742187 0.26954,0 0.4336,0.09375 0.4336,0.234375 0,0.070312 -0.0234,0.1289062 -0.0703,0.234375 -0.082,0.1523437 -0.10547,0.2226562 -0.10547,0.3515625 0,0.28125 0.17578,0.4453125 0.46875,0.4453125 0.33984,0 0.57422,-0.2226563 0.57422,-0.5507813 0,-0.5625 -0.52735,-0.9726562 -1.25391,-0.9726562 -1.80469,0 -3.48047,1.7578125 -3.48047,3.6328125 0,1.13671874 0.64453,1.79296874 1.75781,1.79296874 0.90235,0 1.53516,-0.3515625 2.27344,-1.27734374 z m 0,0"
         style="fill:#231f20;fill-opacity:1;fill-rule:nonzero;stroke:none" />
      <path
         id="path32"
         d="m -91.39082,-5.0294141 h -6.046875 v 0.7851563 h 6.046875 z m 0,2.4023438 h -6.046875 v 0.7851562 h 6.046875 z m 6.404297,-5.8828125 c -0.65625,0 -1.160157,0.1875 -1.605469,0.6210937 -0.703125,0.6679688 -1.148438,2.0507813 -1.148438,3.4570313 0,1.3242187 0.386719,2.7070312 0.949219,3.3867187 0.445313,0.52734379 1.066406,0.80859379 1.757813,0.80859379 0.609375,0 1.125,-0.19921875 1.558593,-0.62109375 0.703125,-0.65625004 1.148438,-2.05078124 1.148438,-3.50390624 0,-2.4609375 -1.089844,-4.1484375 -2.660156,-4.1484375 z m -0.03516,0.3046875 c 1.007813,0 1.546875,1.359375 1.546875,3.8671875 0,2.5078125 -0.527343,3.79687499 -1.558593,3.79687499 -1.03125,0 -1.558594,-1.28906249 -1.558594,-3.78515629 0,-2.5546875 0.539062,-3.8789062 1.570312,-3.8789062 z m 0,0"
         style="fill:#231f20;fill-opacity:1;fill-rule:nonzero;stroke:none" />
      <path
         id="path33"
         d="m -198.70527,-83.876094 c -0.65625,0.714844 -1.125,0.972656 -1.71094,0.972656 -0.67969,0 -1.08984,-0.503906 -1.08984,-1.359375 0,-1.019531 0.42187,-2.109375 1.08984,-2.800781 0.35156,-0.363281 0.83203,-0.574219 1.3125,-0.574219 0.26953,0 0.43359,0.09375 0.43359,0.234375 0,0.07031 -0.0234,0.128907 -0.0703,0.234375 -0.082,0.152344 -0.10547,0.222657 -0.10547,0.351563 0,0.28125 0.17578,0.445312 0.46875,0.445312 0.33985,0 0.57422,-0.222656 0.57422,-0.550781 0,-0.5625 -0.52734,-0.972656 -1.25391,-0.972656 -1.80468,0 -3.48046,1.757812 -3.48046,3.632812 0,1.136719 0.64453,1.792969 1.75781,1.792969 0.90234,0 1.53515,-0.351562 2.27344,-1.277344 z m 0,0"
         style="fill:#231f20;fill-opacity:1;fill-rule:nonzero;stroke:none" />
      <path
         id="path34"
         d="m -188.09102,-87.227656 h -6.04687 v 0.785156 h 6.04687 z m 0,2.402343 h -6.04687 v 0.785157 h 6.04687 z m 6.40723,-5.882812 c -0.65625,0 -1.16016,0.1875 -1.60547,0.621094 -0.70312,0.667968 -1.14844,2.050781 -1.14844,3.457031 0,1.324219 0.38672,2.707031 0.94922,3.386719 0.44532,0.527343 1.06641,0.808593 1.75782,0.808593 0.60937,0 1.125,-0.199218 1.55859,-0.621093 0.70312,-0.65625 1.14844,-2.050782 1.14844,-3.503907 0,-2.460937 -1.08985,-4.148437 -2.66016,-4.148437 z m -0.0352,0.304687 c 1.00782,0 1.54688,1.359375 1.54688,3.867188 0,2.507812 -0.52734,3.796875 -1.55859,3.796875 -1.03125,0 -1.5586,-1.289063 -1.5586,-3.785156 0,-2.554688 0.53906,-3.878907 1.57031,-3.878907 z m 0,0"
         style="fill:#231f20;fill-opacity:1;fill-rule:nonzero;stroke:none" />
      <path
         id="path35"
         d="m -134.10566,-165.97766 c -0.65625,0.71485 -1.125,0.97266 -1.71094,0.97266 -0.67969,0 -1.08985,-0.50391 -1.08985,-1.35938 0,-1.01953 0.42188,-2.10937 1.08985,-2.80078 0.35156,-0.36328 0.83203,-0.57422 1.3125,-0.57422 0.26953,0 0.43359,0.0937 0.43359,0.23438 0,0.0703 -0.0234,0.12891 -0.0703,0.23437 -0.082,0.15235 -0.10547,0.22266 -0.10547,0.35157 0,0.28125 0.17578,0.44531 0.46875,0.44531 0.33984,0 0.57422,-0.22266 0.57422,-0.55078 0,-0.5625 -0.52734,-0.97266 -1.25391,-0.97266 -1.80468,0 -3.48047,1.75781 -3.48047,3.63281 0,1.13672 0.64454,1.79297 1.75782,1.79297 0.90234,0 1.53515,-0.35156 2.27343,-1.27734 z m 11.21191,-3.35156 h -6.04687 v 0.78516 h 6.04687 z m 0,2.40234 h -6.04687 v 0.78516 h 6.04687 z m 0,0"
         style="fill:#231f20;fill-opacity:1;fill-rule:nonzero;stroke:none" />
      <path
         id="path36"
         d="m -117.95137,-164.70031 h 2.20313 v -0.11719 c -0.60938,0 -0.75,-0.0937 -0.76172,-0.48047 v -4.79297 l -0.0586,-0.0234 -1.44141,0.72657 v 0.11718 c 0.30469,-0.11718 0.50391,-0.17578 0.57422,-0.17578 0.16406,0 0.23437,0.11719 0.23437,0.375 v 3.6211 c -0.0117,0.51562 -0.14062,0.62109 -0.75,0.63281 z m 7.07813,-5.41407 c -0.4336,0 -0.77344,0.12891 -1.06641,0.42188 -0.46875,0.44531 -0.77344,1.37109 -0.77344,2.30859 0,0.87891 0.26954,1.80469 0.64454,2.25 0.29296,0.35157 0.70312,0.55078 1.17187,0.55078 0.41016,0 0.75,-0.14062 1.04297,-0.42187 0.45703,-0.44531 0.76172,-1.37109 0.76172,-2.33203 0,-1.64063 -0.72656,-2.77735 -1.78125,-2.77735 z m -0.0234,0.21094 c 0.67969,0 1.04297,0.90235 1.04297,2.57813 0,1.67578 -0.36328,2.53125 -1.04297,2.53125 -0.69141,0 -1.04297,-0.85547 -1.04297,-2.51953 0,-1.71094 0.36328,-2.58985 1.04297,-2.58985 z m 5.31445,-1.86035 v 0.50391 h 1.96875 v -0.50391 z m 3.56543,-0.57422 c 0.48047,0 0.66797,0.0117 0.84375,0.082 0.50391,0.1875 0.8086,0.63282 0.8086,1.1836 0,0.67968 -0.44532,1.19531 -1.04297,1.19531 -0.22266,0 -0.375,-0.0586 -0.67969,-0.24609 -0.22266,-0.14063 -0.36328,-0.19922 -0.50391,-0.19922 -0.17578,0 -0.30468,0.10547 -0.30468,0.28125 0,0.28125 0.35156,0.45703 0.91406,0.45703 0.59766,0 1.23047,-0.21094 1.61719,-0.53906 0.374997,-0.32813 0.574216,-0.79688 0.574216,-1.33594 0,-0.41016 -0.128907,-0.78516 -0.351566,-1.03125 -0.16406,-0.17578 -0.3164,-0.26953 -0.65625,-0.42188 0.53907,-0.375 0.73828,-0.66797 0.73828,-1.10156 0,-0.65625 -0.5039,-1.10156 -1.24218,-1.10156 -0.41016,0 -0.76172,0.14062 -1.04297,0.39844 -0.2461,0.22265 -0.36328,0.42187 -0.52735,0.90234 l 0.11719,0.0352 c 0.31641,-0.59766 0.67969,-0.85547 1.1836,-0.85547 0.52734,0 0.8789,0.35156 0.8789,0.85547 0,0.29296 -0.11719,0.57421 -0.3164,0.78515 -0.2461,0.23438 -0.46875,0.35156 -1.00782,0.55078 z m 5.874027,7.6377 h 1.875 v -0.11719 l -0.164063,-0.0117 c -0.339844,-0.0234 -0.433594,-0.10547 -0.445312,-0.41016 v -1.46484 l 1.125,1.48828 c 0.03516,0.0469 0.05859,0.082 0.08203,0.10547 0.05859,0.082 0.08203,0.12891 0.08203,0.17578 0,0.0703 -0.07031,0.11719 -0.164062,0.11719 h -0.152344 v 0.11719 h 1.746094 v -0.11719 c -0.351563,-0.0234 -0.597657,-0.17578 -0.9375,-0.58594 l -1.21875,-1.55859 0.222656,-0.21094 c 1.007812,-0.90234 1.21875,-1.01953 1.734375,-1.00781 v -0.11719 h -1.628906 v 0.10547 c 0.304687,0.0117 0.398437,0.0469 0.398437,0.15234 0,0.0703 -0.07031,0.17578 -0.1875,0.26953 l -1.101562,0.98438 v -3.36328 l -0.02344,-0.0117 c -0.316406,0.0937 -0.550781,0.16406 -1.007812,0.28125 l -0.234375,0.0703 v 0.11719 c 0.105468,0 0.175781,-0.0117 0.257812,-0.0117 0.269531,0 0.339844,0.10547 0.339844,0.49219 v 3.85547 c -0.01172,0.42187 -0.03516,0.44531 -0.597656,0.53906 z m 9.703125,-3.10547 v -0.31641 h -0.621094 c -0.164063,0 -0.269531,-0.0234 -0.433594,-0.0703 l -0.175781,-0.0703 c -0.210938,-0.082 -0.433594,-0.11719 -0.644531,-0.11719 -0.738282,0 -1.335938,0.5625 -1.335938,1.30078 0,0.50391 0.210938,0.80859 0.75,1.07813 l -0.210937,0.1875 c -0.164063,0.16406 -0.269532,0.24609 -0.292969,0.28125 -0.164063,0.17578 -0.210938,0.26953 -0.210938,0.39843 0,0.17578 0.08203,0.26953 0.421875,0.42188 -0.574218,0.42187 -0.785156,0.67969 -0.785156,0.98437 0,0.42188 0.621094,0.77344 1.382813,0.77344 0.609375,0 1.230468,-0.21094 1.640625,-0.55078 0.304687,-0.24609 0.445312,-0.50391 0.445312,-0.80859 0,-0.49219 -0.375,-0.82032 -0.972656,-0.85547 l -1.03125,-0.0469 c -0.433594,-0.0117 -0.621094,-0.082 -0.621094,-0.21094 0,-0.16406 0.257813,-0.44531 0.480469,-0.5039 0.28125,0.0234 0.433594,0.0351 0.457031,0.0351 0.292969,0 0.609375,-0.11718 0.867188,-0.32812 0.257812,-0.23438 0.375,-0.50391 0.375,-0.91406 0,-0.22266 -0.03516,-0.41016 -0.152344,-0.66797 z m -2.589844,3.11719 c 0.28125,0.0586 0.902344,0.10546 1.3125,0.10546 0.714844,0 0.984375,0.10547 0.984375,0.39844 0,0.45703 -0.609375,0.77344 -1.511719,0.77344 -0.714844,0 -1.171875,-0.23438 -1.171875,-0.58594 0,-0.1875 0.07031,-0.30469 0.386719,-0.6914 z m 0.04687,-2.71875 c 0,-0.46875 0.222656,-0.75 0.585937,-0.75 0.257813,0 0.457032,0.14062 0.585938,0.375 0.152344,0.28125 0.246094,0.64453 0.246094,0.96093 0,0.44532 -0.222657,0.72657 -0.597657,0.72657 -0.492187,0 -0.820312,-0.51563 -0.820312,-1.28907 z m 7.078125,-2.70704 h -0.539063 l -1.828125,5.53125 h 0.539063 z m 1.168945,5.41407 h 1.78125 v -0.11719 c -0.410156,-0.0117 -0.539062,-0.0937 -0.550781,-0.42188 v -2.25 c 0,-0.0234 0.07031,-0.10546 0.117187,-0.15234 0.199219,-0.1875 0.550782,-0.32812 0.832032,-0.32812 0.351562,0 0.527343,0.28125 0.527343,0.84375 v 1.73437 c -0.02344,0.45703 -0.09375,0.55078 -0.550781,0.57422 v 0.11719 h 1.792969 v -0.11719 c -0.445313,0 -0.550781,-0.12891 -0.574219,-0.64453 v -2.01563 c 0.246094,-0.33984 0.492188,-0.49218 0.878906,-0.49218 0.457032,0 0.597657,0.22265 0.597657,0.8789 v 1.69922 c -0.02344,0.46875 -0.07031,0.52734 -0.527344,0.57422 v 0.11719 h 1.746094 v -0.11719 l -0.199219,-0.0234 c -0.257813,-0.0352 -0.351563,-0.15234 -0.351563,-0.46875 v -1.65234 c 0,-0.9375 -0.304687,-1.41797 -0.925781,-1.41797 -0.46875,0 -0.867187,0.21094 -1.300781,0.66797 -0.152344,-0.45703 -0.421875,-0.66797 -0.855469,-0.66797 -0.351562,0 -0.574219,0.10547 -1.242187,0.60937 v -0.59765 l -0.04687,-0.0117 c -0.433594,0.15234 -0.703125,0.23437 -1.125,0.36328 v 0.12891 c 0.09375,-0.0234 0.164062,-0.0352 0.257812,-0.0352 0.210938,0 0.28125,0.12891 0.28125,0.51563 v 2.02734 c -0.02344,0.44531 -0.128906,0.5625 -0.5625,0.5625 z m 10.453125,-7.6377 c 0.480469,0 0.667969,0.0117 0.84375,0.082 0.503906,0.1875 0.808594,0.63282 0.808594,1.1836 0,0.67968 -0.445313,1.19531 -1.042969,1.19531 -0.222656,0 -0.375,-0.0586 -0.679687,-0.24609 -0.222657,-0.14063 -0.363282,-0.19922 -0.503907,-0.19922 -0.175781,0 -0.304687,0.10547 -0.304687,0.28125 0,0.28125 0.351562,0.45703 0.914062,0.45703 0.597657,0 1.230469,-0.21094 1.617188,-0.53906 0.375,-0.32813 0.574219,-0.79688 0.574219,-1.33594 0,-0.41016 -0.128907,-0.78516 -0.351563,-1.03125 -0.164062,-0.17578 -0.316406,-0.26953 -0.65625,-0.42188 0.539063,-0.375 0.738281,-0.66797 0.738281,-1.10156 0,-0.65625 -0.503906,-1.10156 -1.242187,-1.10156 -0.410156,0 -0.761719,0.14062 -1.042969,0.39844 -0.246094,0.22265 -0.363281,0.42187 -0.527344,0.90234 l 0.117188,0.0352 c 0.316406,-0.59766 0.679687,-0.85547 1.183594,-0.85547 0.527343,0 0.878906,0.35156 0.878906,0.85547 0,0.29296 -0.117188,0.57421 -0.316406,0.78515 -0.246094,0.23438 -0.46875,0.35156 -1.007813,0.55078 z m 0,0"
         style="fill:#231f20;fill-opacity:1;fill-rule:nonzero;stroke:none" />
      <path
         id="path37"
         d="m -9.8048828,-83.876094 c -0.6562502,0.714844 -1.1250002,0.972656 -1.7109372,0.972656 -0.679688,0 -1.089844,-0.503906 -1.089844,-1.359375 0,-1.019531 0.421875,-2.109375 1.089844,-2.800781 0.351562,-0.363281 0.832031,-0.574219 1.3125,-0.574219 0.2695309,0 0.4335934,0.09375 0.4335934,0.234375 0,0.07031 -0.023437,0.128907 -0.070312,0.234375 -0.082031,0.152344 -0.1054687,0.222657 -0.1054687,0.351563 0,0.28125 0.1757812,0.445312 0.46875,0.445312 0.3398437,0 0.5742187,-0.222656 0.5742187,-0.550781 0,-0.5625 -0.5273437,-0.972656 -1.2539054,-0.972656 -1.804689,0 -3.480469,1.757812 -3.480469,3.632812 0,1.136719 0.644531,1.792969 1.757812,1.792969 0.902343,0 1.535157,-0.351562 2.2734374,-1.277344 z m 0,0"
         style="fill:#231f20;fill-opacity:1;fill-rule:nonzero;stroke:none" />
      <path
         id="path38"
         d="M 0.70976562,-87.227656 H -5.3371094 v 0.785156 h 6.04687502 z m 0,2.402343 H -5.3371094 v 0.785157 h 6.04687502 z m 6.40429688,-5.882812 c -0.65625,0 -1.1601563,0.1875 -1.6054688,0.621094 -0.703125,0.667968 -1.1484375,2.050781 -1.1484375,3.457031 0,1.324219 0.3867188,2.707031 0.9492188,3.386719 0.4453125,0.527343 1.0664062,0.808593 1.7578125,0.808593 0.609375,0 1.125,-0.199218 1.5585937,-0.621093 0.703125,-0.65625 1.1484375,-2.050782 1.1484375,-3.503907 0,-2.460937 -1.0898437,-4.148437 -2.6601562,-4.148437 z m -0.035156,0.304687 c 1.0078125,0 1.546875,1.359375 1.546875,3.867188 0,2.507812 -0.5273437,3.796875 -1.5585937,3.796875 -1.03125,0 -1.5585938,-1.289063 -1.5585938,-3.785156 0,-2.554688 0.5390625,-3.878907 1.5703125,-3.878907 z M -39.55293,-8.5098828 c -0.65625,0 -1.160156,0.1875 -1.605468,0.6210937 -0.703125,0.6679688 -1.148438,2.0507813 -1.148438,3.4570313 0,1.3242187 0.386719,2.7070312 0.949219,3.3867187 0.445312,0.52734379 1.066406,0.80859379 1.757812,0.80859379 0.609375,0 1.125,-0.19921875 1.558594,-0.62109375 0.703125,-0.65625004 1.148438,-2.05078124 1.148438,-3.50390624 0,-2.4609375 -1.089844,-4.1484375 -2.660157,-4.1484375 z m -0.03516,0.3046875 c 1.007813,0 1.546875,1.359375 1.546875,3.8671875 0,2.5078125 -0.527344,3.79687499 -1.558594,3.79687499 -1.03125,0 -1.558593,-1.28906249 -1.558593,-3.78515629 0,-2.5546875 0.539062,-3.8789062 1.570312,-3.8789062 z m 4.488281,6.609375 c -0.363281,0 -0.65625,0.2929687 -0.65625,0.67968749 0,0.3515625 0.292969,0.64453125 0.644532,0.64453125 0.375,0 0.679687,-0.28125 0.679687,-0.64453125 0,-0.37499999 -0.304687,-0.67968749 -0.667969,-0.67968749 z m 2.917969,1.19531249 h 3.304688 v -0.17578125 c -0.914063,0 -1.125,-0.140625 -1.136719,-0.71484374 v -7.1953125 l -0.09375,-0.023437 -2.15625,1.0898437 v 0.1640625 c 0.46875,-0.1757812 0.75,-0.2578125 0.855469,-0.2578125 0.257812,0 0.363281,0.1757813 0.363281,0.5625 v 5.4375 c -0.02344,0.75000004 -0.222656,0.92578129 -1.136719,0.93750004 z m 7.769531,0 h 2.671875 v -0.17578125 c -0.621093,-0.0117188 -0.808593,-0.15234375 -0.820312,-0.63281254 v -3.375 c 0,-0.023437 0.09375,-0.1523437 0.175781,-0.234375 0.304688,-0.2695312 0.820313,-0.4804687 1.242188,-0.4804687 0.527343,0 0.785156,0.421875 0.785156,1.265625 v 2.6015625 c -0.02344,0.67968749 -0.140625,0.82031249 -0.808594,0.85546874 v 0.17578125 h 2.683594 v -0.17578125 c -0.667969,0 -0.832031,-0.19921875 -0.855469,-0.96093754 v -3.0234375 c 0.351563,-0.515625 0.738281,-0.7382812 1.300781,-0.7382812 0.679688,0 0.902344,0.328125 0.902344,1.3242187 v 2.53125 c -0.02344,0.70312504 -0.09375,0.78515629 -0.796875,0.86718754 v 0.17578125 h 2.636719 v -0.17578125 l -0.316406,-0.0234375 c -0.386719,-0.0703125 -0.515625,-0.24609375 -0.515625,-0.71484374 v -2.4726563 c 0,-1.4179687 -0.46875,-2.1328125 -1.394532,-2.1328125 -0.691406,0 -1.300781,0.3164063 -1.957031,1.0078125 -0.210937,-0.6796875 -0.621094,-1.0078125 -1.265625,-1.0078125 -0.539062,0 -0.867187,0.1523438 -1.863281,0.9257813 v -0.9023438 l -0.08203,-0.023437 c -0.632813,0.2226563 -1.042969,0.3632813 -1.6875,0.5390625 v 0.1992188 c 0.152343,-0.035156 0.257812,-0.046875 0.386718,-0.046875 0.316407,0 0.421875,0.1992187 0.421875,0.7734375 v 3.0351562 c -0.02344,0.66796879 -0.175781,0.84375004 -0.84375,0.84375004 z M -203.35176,-162.91027 c -0.65625,0 -1.16015,0.1875 -1.60547,0.62109 -0.70312,0.66797 -1.14843,2.05078 -1.14843,3.45703 0,1.32422 0.38671,2.70703 0.94921,3.38672 0.44532,0.52734 1.06641,0.80859 1.75782,0.80859 0.60937,0 1.125,-0.19921 1.55859,-0.62109 0.70313,-0.65625 1.14844,-2.05078 1.14844,-3.50391 0,-2.46093 -1.08985,-4.14843 -2.66016,-4.14843 z m -0.0351,0.30468 c 1.00781,0 1.54687,1.35938 1.54687,3.86719 0,2.50781 -0.52734,3.79688 -1.55859,3.79688 -1.03125,0 -1.5586,-1.28907 -1.5586,-3.78516 0,-2.55469 0.53907,-3.87891 1.57032,-3.87891 z m 4.48828,6.60938 c -0.36328,0 -0.65625,0.29297 -0.65625,0.67969 0,0.35156 0.29297,0.64453 0.64453,0.64453 0.375,0 0.67969,-0.28125 0.67969,-0.64453 0,-0.375 -0.30469,-0.67969 -0.66797,-0.67969 z m 2.91797,1.19531 h 3.30468 v -0.17578 c -0.91406,0 -1.125,-0.14062 -1.13672,-0.71484 v -7.19532 l -0.0937,-0.0234 -2.15625,1.08984 v 0.16406 c 0.46875,-0.17578 0.75,-0.25781 0.85547,-0.25781 0.25782,0 0.36328,0.17578 0.36328,0.5625 v 5.4375 c -0.0234,0.75 -0.22265,0.92578 -1.13671,0.9375 z m 7.76953,0 h 2.67187 v -0.17578 c -0.62109,-0.0117 -0.80859,-0.15234 -0.82031,-0.63281 v -3.375 c 0,-0.0234 0.0937,-0.15235 0.17578,-0.23438 0.30469,-0.26953 0.82031,-0.48047 1.24219,-0.48047 0.52734,0 0.78515,0.42188 0.78515,1.26563 v 2.60156 c -0.0234,0.67969 -0.14062,0.82031 -0.80859,0.85547 v 0.17578 h 2.68359 v -0.17578 c -0.66796,0 -0.83203,-0.19922 -0.85546,-0.96094 v -3.02343 c 0.35156,-0.51563 0.73828,-0.73829 1.30078,-0.73829 0.67968,0 0.90234,0.32813 0.90234,1.32422 v 2.53125 c -0.0234,0.70313 -0.0937,0.78516 -0.79687,0.86719 v 0.17578 h 2.63671 v -0.17578 l -0.3164,-0.0234 c -0.38672,-0.0703 -0.51563,-0.24609 -0.51563,-0.71484 v -2.47266 c 0,-1.41797 -0.46875,-2.13281 -1.39453,-2.13281 -0.6914,0 -1.30078,0.31641 -1.95703,1.00781 -0.21094,-0.67968 -0.62109,-1.00781 -1.26562,-1.00781 -0.53907,0 -0.86719,0.15234 -1.86329,0.92578 v -0.90234 l -0.082,-0.0234 c -0.63281,0.22266 -1.04297,0.36328 -1.6875,0.53906 v 0.19922 c 0.15235,-0.0351 0.25782,-0.0469 0.38672,-0.0469 0.31641,0 0.42188,0.19922 0.42188,0.77343 v 3.03516 c -0.0234,0.66797 -0.17578,0.84375 -0.84375,0.84375 z m 0,0"
         style="fill:#231f20;fill-opacity:1;fill-rule:nonzero;stroke:none" />
    </g>
    <path
       id="path39"
       d="m 1833.25,231.25 v -85"
       style="fill:none;stroke:#231f20;stroke-width:2.5;stroke-linecap:butt;stroke-linejoin:miter;stroke-miterlimit:3.8637;stroke-dasharray:none;stroke-opacity:1"
       transform="matrix(0.13333333,0,0,-0.13333333,0,262.10667)" />
    <path
       id="path40"
       d="m 501.25,1620.25 h -170"
       style="fill:none;stroke:#231f20;stroke-width:2.5;stroke-linecap:butt;stroke-linejoin:miter;stroke-miterlimit:3.8637;stroke-dasharray:none;stroke-opacity:1"
       transform="matrix(0.13333333,0,0,-0.13333333,0,262.10667)" />
  </g>
</svg>
