<?xml version="1.0" encoding="UTF-8" standalone="no"?>
<!-- Created with Inkscape (http://www.inkscape.org/) -->

<svg
   version="1.1"
   id="svg1"
   width="408"
   height="221.33333"
   viewBox="0 0 408 221.33333"
   sodipodi:docname="EXTRA.EPS"
   xmlns:inkscape="http://www.inkscape.org/namespaces/inkscape"
   xmlns:sodipodi="http://sodipodi.sourceforge.net/DTD/sodipodi-0.dtd"
   xmlns="http://www.w3.org/2000/svg"
   xmlns:svg="http://www.w3.org/2000/svg">
  <defs
     id="defs1" />
  <sodipodi:namedview
     id="namedview1"
     pagecolor="#ffffff"
     bordercolor="#000000"
     borderopacity="0.25"
     inkscape:showpageshadow="2"
     inkscape:pageopacity="0.0"
     inkscape:pagecheckerboard="0"
     inkscape:deskcolor="#d1d1d1">
    <inkscape:page
       x="0"
       y="0"
       inkscape:label="1"
       id="page1"
       width="408"
       height="221.33333"
       margin="0"
       bleed="0" />
  </sodipodi:namedview>
  <g
     id="g1"
     inkscape:groupmode="layer"
     inkscape:label="1">
    <path
       id="path1"
       d="M 31.6133,1654.14 H 3.625 V 7.5 h 27.9883"
       style="fill:none;stroke:#231f20;stroke-width:5;stroke-linecap:butt;stroke-linejoin:miter;stroke-miterlimit:3.86369;stroke-dasharray:none;stroke-opacity:1"
       transform="matrix(0.13333333,0,0,-0.13333333,0,221.33333)" />
    <path
       id="path2"
       d="m 327.605,7.5 h 36.821 l 1.172,1646.64 H 334.77"
       style="fill:none;stroke:#231f20;stroke-width:5;stroke-linecap:butt;stroke-linejoin:miter;stroke-miterlimit:3.86369;stroke-dasharray:none;stroke-opacity:1"
       transform="matrix(0.13333333,0,0,-0.13333333,0,221.33333)" />
    <path
       id="path3"
       d="m 473.773,821.73 c 56.016,19.684 113.825,28.098 187.672,23.989 47.5,-2.645 84.875,-7.512 116.313,-14.93"
       style="fill:none;stroke:#231f20;stroke-width:2.5;stroke-linecap:butt;stroke-linejoin:miter;stroke-miterlimit:3.86371;stroke-dasharray:none;stroke-opacity:1"
       transform="matrix(0.13333333,0,0,-0.13333333,0,221.33333)" />
    <path
       id="path4"
       d="m 775.324,831.352 3.371,14.617 33.164,-23.055 -39.914,-6.176 3.379,14.614"
       style="fill:#231f20;fill-opacity:1;fill-rule:evenodd;stroke:none"
       transform="matrix(0.13333333,0,0,-0.13333333,0,221.33333)" />
    <path
       id="path5"
       d="m 939.398,1207.73 h -28 V 459.57 h 28"
       style="fill:none;stroke:#231f20;stroke-width:5;stroke-linecap:butt;stroke-linejoin:miter;stroke-miterlimit:3.86369;stroke-dasharray:none;stroke-opacity:1"
       transform="matrix(0.13333333,0,0,-0.13333333,0,221.33333)" />
    <path
       id="path6"
       d="m 1070.74,459.57 h 28 v 748.16 h -28"
       style="fill:none;stroke:#231f20;stroke-width:5;stroke-linecap:butt;stroke-linejoin:miter;stroke-miterlimit:3.86369;stroke-dasharray:none;stroke-opacity:1"
       transform="matrix(0.13333333,0,0,-0.13333333,0,221.33333)" />
    <g
       id="g6"
       aria-label="=&#10;a&#10;i&#10;a&#10;j&#10;a&#10;m&#10;a&#10;n&#10;a&#10;i&#10;a&#10;j&#10;a&#10;m&#10;a&#10;n"
       transform="matrix(1.3333333,0,0,1.3333333,153.16133,93.169733)">
      <path
         id="path7"
         d="M 0.22177344,-5.2981984 H 6.6319297 v 0.7617187 H 0.22177344 Z m 0,1.9101562 H 6.6319297 v 0.7617188 H 0.22177344 Z m 0,0"
         style="fill:#231f20;fill-opacity:1;fill-rule:nonzero;stroke:none" />
      <path
         id="path8"
         d="m -96.358305,-22.606792 -0.75,2.648437 -0.09375,0.363282 c -0.01172,0.02344 -0.01172,0.04687 -0.01172,0.08203 0,0.03516 0.01172,0.07031 0.02344,0.09375 0.02344,0.02344 0.03516,0.02344 0.05859,0.02344 0.02344,0 0.05859,-0.01172 0.09375,-0.04687 0.07031,-0.07031 0.164062,-0.222656 0.28125,-0.457031 l 0.140625,0.09375 c -0.152344,0.257813 -0.304688,0.457031 -0.46875,0.574219 -0.164063,0.128906 -0.304688,0.199219 -0.445313,0.199219 -0.09375,0 -0.164062,-0.03516 -0.210937,-0.08203 -0.05859,-0.05859 -0.08203,-0.140625 -0.08203,-0.246093 0,-0.128907 0.02344,-0.292969 0.08203,-0.503907 l 0.09375,-0.292968 c -0.375,0.433593 -0.726563,0.75 -1.042969,0.925781 -0.222656,0.128906 -0.445312,0.199219 -0.667969,0.199219 -0.199218,0 -0.386718,-0.08203 -0.539062,-0.234375 -0.15234,-0.152344 -0.22265,-0.375 -0.22265,-0.644532 0,-0.410156 0.1289,-0.84375 0.398431,-1.289062 0.269531,-0.457031 0.609375,-0.820313 1.03125,-1.089844 0.316406,-0.210937 0.621094,-0.316406 0.914063,-0.316406 0.175781,0 0.316406,0.03516 0.433593,0.105469 0.105469,0.08203 0.199219,0.210937 0.257813,0.386718 l 0.117187,-0.398437 z m -1.441406,0.1875 c -0.175781,0 -0.375,0.08203 -0.574219,0.234375 -0.292968,0.222656 -0.550781,0.539062 -0.773437,0.972656 -0.222656,0.421875 -0.339844,0.808594 -0.339844,1.148438 0,0.175781 0.04687,0.316406 0.152344,0.421875 0.105469,0.09375 0.222656,0.152343 0.351562,0.152343 0.316407,0 0.667969,-0.210937 1.042969,-0.621093 0.457031,-0.550782 0.679688,-1.113282 0.667969,-1.6875 0,-0.222657 -0.04687,-0.375 -0.140625,-0.46875 -0.09375,-0.105469 -0.222656,-0.152344 -0.386719,-0.152344 z m 5.285156,1.019531 c 0.117188,0 0.199219,0.04687 0.28125,0.117188 0.07031,0.08203 0.105469,0.164062 0.105469,0.28125 0,0.105468 -0.03516,0.199218 -0.105469,0.28125 -0.08203,0.07031 -0.175781,0.105468 -0.28125,0.105468 -0.105468,0 -0.199218,-0.03516 -0.28125,-0.105468 -0.07031,-0.08203 -0.105468,-0.175782 -0.105468,-0.28125 0,-0.117188 0.03516,-0.199219 0.105468,-0.28125 0.08203,-0.07031 0.164063,-0.117188 0.28125,-0.117188 z m 0.164063,1.558594 -0.808594,2.765625 c -0.05859,0.1875 -0.09375,0.304687 -0.09375,0.339844 0,0.03516 0.02344,0.07031 0.04687,0.09375 0.01172,0.03516 0.04687,0.03516 0.07031,0.03516 0.03516,0 0.08203,-0.01172 0.128906,-0.04687 0.128906,-0.128906 0.269531,-0.28125 0.398437,-0.503906 l 0.140625,0.09375 c -0.164062,0.257812 -0.363281,0.480468 -0.585937,0.65625 -0.175781,0.140625 -0.339844,0.210937 -0.492188,0.210937 -0.105468,0 -0.1875,-0.03516 -0.246093,-0.105469 -0.07031,-0.05859 -0.09375,-0.128906 -0.09375,-0.222656 0,-0.105469 0.02344,-0.269531 0.09375,-0.492187 l 0.550781,-1.769532 c 0.08203,-0.292968 0.117187,-0.46875 0.128906,-0.539062 0,-0.05859 -0.02344,-0.105469 -0.07031,-0.140625 -0.03516,-0.03516 -0.09375,-0.04687 -0.164063,-0.04687 -0.05859,0 -0.175781,0 -0.351562,0.03516 v -0.152344 z m -4.007813,14.1328123 -0.75,2.6484375 -0.09375,0.3632813 c -0.01172,0.023437 -0.01172,0.046875 -0.01172,0.082031 0,0.035156 0.01172,0.070312 0.02344,0.09375 0.02344,0.023437 0.03516,0.023437 0.05859,0.023437 0.02344,0 0.05859,-0.011719 0.09375,-0.046875 0.07031,-0.070312 0.164062,-0.2226562 0.28125,-0.4570312 l 0.140625,0.09375 c -0.152344,0.2578125 -0.304688,0.4570312 -0.46875,0.5742187 -0.164063,0.1289063 -0.304688,0.1992188 -0.445313,0.1992188 -0.09375,0 -0.164062,-0.035156 -0.210937,-0.082031 -0.05859,-0.058594 -0.08203,-0.140625 -0.08203,-0.2460937 0,-0.1289063 0.02344,-0.2929688 0.08203,-0.5039063 l 0.09375,-0.2929687 c -0.375,0.4335937 -0.726563,0.75 -1.042969,0.9257812 -0.222656,0.1289063 -0.445312,0.1992188 -0.667969,0.1992188 -0.199218,0 -0.386718,-0.082031 -0.539062,-0.234375 -0.15234,-0.1523438 -0.22265,-0.375 -0.22265,-0.6445313 0,-0.4101562 0.1289,-0.84375 0.398431,-1.2890625 0.269531,-0.4570312 0.609375,-0.8203125 1.03125,-1.0898437 0.316406,-0.2109375 0.621094,-0.3164063 0.914063,-0.3164063 0.175781,0 0.316406,0.035156 0.433593,0.1054688 0.105469,0.082031 0.199219,0.2109375 0.257813,0.3867187 l 0.117187,-0.3984375 z m -1.441406,0.1875 c -0.175781,0 -0.375,0.082031 -0.574219,0.234375 -0.292968,0.2226563 -0.550781,0.5390625 -0.773437,0.9726563 -0.222656,0.421875 -0.339844,0.8085937 -0.339844,1.1484375 0,0.1757812 0.04687,0.3164062 0.152344,0.421875 0.105469,0.09375 0.222656,0.1523437 0.351562,0.1523437 0.316407,0 0.667969,-0.2109375 1.042969,-0.6210937 0.457031,-0.5507813 0.679688,-1.1132813 0.667969,-1.6875 0,-0.2226563 -0.04687,-0.375 -0.140625,-0.46875 -0.09375,-0.1054688 -0.222656,-0.1523438 -0.386719,-0.1523438 z m 5.332031,1.0429688 c 0.105469,0 0.199219,0.035156 0.28125,0.1054687 0.07031,0.082031 0.117188,0.1757813 0.117188,0.28125 0,0.1171875 -0.04687,0.2109375 -0.117188,0.2929688 -0.08203,0.070312 -0.175781,0.1054687 -0.28125,0.1054687 -0.105468,0 -0.210937,-0.035156 -0.28125,-0.1054687 -0.08203,-0.082031 -0.117187,-0.1757813 -0.117187,-0.2929688 0,-0.1054687 0.03516,-0.1992187 0.117187,-0.28125 0.07031,-0.070312 0.175782,-0.1054687 0.28125,-0.1054687 z m 0.04687,1.546875 -1.007812,3.50390621 c -0.175781,0.62109379 -0.421875,1.07812499 -0.738281,1.34765629 -0.304688,0.28125 -0.644532,0.421875 -1.007813,0.421875 -0.164062,0 -0.292969,-0.046875 -0.375,-0.1171875 -0.08203,-0.082031 -0.128906,-0.1640625 -0.128906,-0.2695313 0,-0.082031 0.03516,-0.1523437 0.09375,-0.2226562 0.07031,-0.046875 0.140625,-0.082031 0.222656,-0.082031 0.08203,0 0.140625,0.023437 0.199219,0.070312 0.04687,0.035156 0.07031,0.082031 0.07031,0.140625 0,0.058594 -0.03516,0.1171875 -0.09375,0.1757813 -0.04687,0.023437 -0.05859,0.046875 -0.05859,0.070312 l 0.01172,0.011719 c 0,0.011719 0.01172,0.011719 0.03516,0.023437 0.01172,0.011719 0.03516,0.011719 0.07031,0.011719 0.199219,0 0.386719,-0.070312 0.539063,-0.1992188 0.140625,-0.140625 0.28125,-0.3984375 0.398437,-0.8085937 l 0.867188,-3 c 0.09375,-0.2929688 0.128906,-0.4570313 0.128906,-0.4804688 0,-0.070312 -0.03516,-0.1289062 -0.09375,-0.1757812 -0.04687,-0.046875 -0.117188,-0.070312 -0.199219,-0.070312 -0.03516,0 -0.07031,0 -0.128906,0.011719 -0.02344,0.011719 -0.07031,0.011719 -0.140625,0.023437 v -0.140625 z m -4.201172,30.1464839 -0.75,2.648438 -0.09375,0.363281 c -0.01172,0.02344 -0.01172,0.04687 -0.01172,0.08203 0,0.03516 0.01172,0.07031 0.02344,0.09375 0.02344,0.02344 0.03516,0.02344 0.05859,0.02344 0.02344,0 0.05859,-0.01172 0.09375,-0.04687 0.07031,-0.07031 0.164062,-0.222656 0.28125,-0.457031 l 0.140625,0.09375 c -0.152344,0.257812 -0.304688,0.457031 -0.46875,0.574218 -0.164063,0.128907 -0.304688,0.199219 -0.445313,0.199219 -0.09375,0 -0.164062,-0.03516 -0.210937,-0.08203 -0.05859,-0.05859 -0.08203,-0.140625 -0.08203,-0.246094 0,-0.128906 0.02344,-0.292969 0.08203,-0.503906 l 0.09375,-0.292969 c -0.375,0.433594 -0.726563,0.75 -1.042969,0.925781 -0.222656,0.128907 -0.445312,0.199219 -0.667969,0.199219 -0.199218,0 -0.386725,-0.08203 -0.539065,-0.234375 -0.15234,-0.152344 -0.22266,-0.375 -0.22266,-0.644531 0,-0.410156 0.12891,-0.84375 0.398444,-1.289063 0.269531,-0.457031 0.609375,-0.820312 1.03125,-1.089843 0.316406,-0.210938 0.621094,-0.316407 0.914063,-0.316407 0.175781,0 0.316406,0.03516 0.433593,0.105469 0.105469,0.08203 0.199219,0.210938 0.257813,0.386719 l 0.117187,-0.398438 z m -1.441406,0.1875 c -0.175781,0 -0.375,0.08203 -0.574219,0.234375 -0.292968,0.222657 -0.550781,0.539063 -0.773437,0.972657 -0.222656,0.421875 -0.339844,0.808593 -0.339844,1.148437 0,0.175781 0.04687,0.316406 0.152344,0.421875 0.105469,0.09375 0.222656,0.152344 0.351562,0.152344 0.316407,0 0.667969,-0.210938 1.042969,-0.621094 0.457031,-0.550781 0.679688,-1.113281 0.667969,-1.6875 0,-0.222656 -0.04687,-0.375 -0.140625,-0.46875 -0.09375,-0.105469 -0.222656,-0.152344 -0.386719,-0.152344 z m 5.226563,2.589844 -0.503907,1.757813 c 0.234375,-0.398438 0.433594,-0.714844 0.597657,-0.925782 0.257812,-0.328125 0.503906,-0.5625 0.738281,-0.703125 0.152344,-0.08203 0.292969,-0.128906 0.445312,-0.128906 0.128907,0 0.246094,0.04687 0.328125,0.128906 0.09375,0.09375 0.140625,0.199219 0.140625,0.339844 0,0.128906 -0.03516,0.28125 -0.09375,0.492188 l -0.304687,0.972656 c 0.445312,-0.785156 0.878906,-1.347656 1.277344,-1.664063 0.222656,-0.175781 0.445312,-0.269531 0.65625,-0.269531 0.128906,0 0.234375,0.04687 0.316406,0.140625 0.08203,0.08203 0.117187,0.222656 0.117187,0.410156 0,0.152344 -0.02344,0.304688 -0.08203,0.480469 l -0.480469,1.5 c -0.105468,0.328125 -0.164062,0.515625 -0.164062,0.539063 0,0.04687 0.01172,0.07031 0.03516,0.105468 0.01172,0.01172 0.02344,0.02344 0.04687,0.02344 0.03516,0 0.07031,-0.02344 0.128906,-0.08203 0.140625,-0.105469 0.257813,-0.257813 0.386719,-0.445313 l 0.117188,0.08203 c -0.05859,0.105469 -0.175782,0.246094 -0.328125,0.421875 -0.152344,0.175782 -0.292969,0.304688 -0.398438,0.351563 -0.117187,0.07031 -0.222656,0.105469 -0.316406,0.105469 -0.09375,0 -0.164063,-0.03516 -0.222656,-0.105469 -0.05859,-0.04687 -0.09375,-0.128906 -0.09375,-0.222656 0,-0.117188 0.07031,-0.375 0.1875,-0.75 L -89.8837,31.2936 c 0.08203,-0.292968 0.140625,-0.445312 0.140625,-0.480468 0.01172,-0.04687 0.01172,-0.09375 0.01172,-0.152344 0,-0.05859 -0.01172,-0.117188 -0.04687,-0.140625 -0.03516,-0.04687 -0.07031,-0.05859 -0.105468,-0.05859 -0.128907,0 -0.246094,0.05859 -0.386719,0.164063 -0.375,0.328125 -0.75,0.796875 -1.078125,1.394531 -0.234375,0.386719 -0.433594,0.890625 -0.632813,1.511719 h -0.585937 l 0.714844,-2.355469 c 0.07031,-0.257813 0.117187,-0.433594 0.117187,-0.515625 0,-0.07031 -0.02344,-0.117188 -0.04687,-0.164063 -0.03516,-0.03516 -0.07031,-0.04687 -0.117187,-0.04687 -0.08203,0 -0.175782,0.03516 -0.28125,0.09375 -0.152344,0.09375 -0.363282,0.328125 -0.609375,0.65625 -0.257813,0.328125 -0.457032,0.65625 -0.597657,0.960938 -0.05859,0.140625 -0.222656,0.597656 -0.46875,1.371094 h -0.574218 l 0.726562,-2.53125 0.09375,-0.328125 c 0.01172,-0.04687 0.02344,-0.08203 0.02344,-0.105469 0,-0.05859 -0.02344,-0.117188 -0.08203,-0.152344 -0.04687,-0.04687 -0.105468,-0.08203 -0.199218,-0.08203 -0.03516,0 -0.128907,0.02344 -0.28125,0.05859 l -0.03516,-0.152344 z m -3.785157,14.124024 -0.75,2.648437 -0.09375,0.363281 c -0.01172,0.02344 -0.01172,0.04687 -0.01172,0.08203 0,0.03516 0.01172,0.07031 0.02344,0.09375 0.02344,0.02344 0.03516,0.02344 0.05859,0.02344 0.02344,0 0.05859,-0.01172 0.09375,-0.04687 0.07031,-0.07031 0.164062,-0.222656 0.28125,-0.457031 l 0.140625,0.09375 c -0.152344,0.257812 -0.304688,0.457031 -0.46875,0.574219 -0.164063,0.128906 -0.304688,0.199218 -0.445313,0.199218 -0.09375,0 -0.164062,-0.03516 -0.210937,-0.08203 -0.05859,-0.05859 -0.08203,-0.140625 -0.08203,-0.246094 0,-0.128906 0.02344,-0.292968 0.08203,-0.503906 l 0.09375,-0.292969 c -0.375,0.433594 -0.726563,0.75 -1.042969,0.925782 -0.222656,0.128906 -0.445312,0.199218 -0.667969,0.199218 -0.199218,0 -0.386725,-0.08203 -0.539065,-0.234375 -0.15234,-0.152343 -0.22266,-0.375 -0.22266,-0.644531 0,-0.410156 0.12891,-0.84375 0.398444,-1.289062 0.269531,-0.457032 0.609375,-0.820313 1.03125,-1.089844 0.316406,-0.210938 0.621094,-0.316406 0.914063,-0.316406 0.175781,0 0.316406,0.03516 0.433593,0.105468 0.105469,0.08203 0.199219,0.210938 0.257813,0.386719 l 0.117187,-0.398437 z m -1.441406,0.1875 c -0.175781,0 -0.375,0.08203 -0.574219,0.234375 -0.292968,0.222656 -0.550781,0.539062 -0.773437,0.972656 -0.222656,0.421875 -0.339844,0.808594 -0.339844,1.148437 0,0.175782 0.04687,0.316407 0.152344,0.421875 0.105469,0.09375 0.222656,0.152344 0.351562,0.152344 0.316407,0 0.667969,-0.210937 1.042969,-0.621094 0.457031,-0.550781 0.679688,-1.113281 0.667969,-1.6875 0,-0.222656 -0.04687,-0.375 -0.140625,-0.46875 -0.09375,-0.105468 -0.222656,-0.152343 -0.386719,-0.152343 z m 5.25,2.586914 -0.503906,1.769531 c 0.527344,-0.714844 0.914062,-1.195313 1.195312,-1.429688 0.28125,-0.222656 0.539063,-0.339843 0.796875,-0.339843 0.140625,0 0.257813,0.04687 0.351563,0.140625 0.08203,0.105468 0.128906,0.222656 0.128906,0.375 0,0.152343 -0.04687,0.363281 -0.128906,0.609375 l -0.527344,1.640625 c -0.07031,0.1875 -0.105469,0.304687 -0.105469,0.339843 0,0.03516 0.01172,0.07031 0.03516,0.09375 0.01172,0.02344 0.04687,0.02344 0.05859,0.02344 0.03516,0 0.05859,-0.01172 0.105469,-0.04687 0.117188,-0.105469 0.257813,-0.269531 0.398438,-0.492188 l 0.117187,0.08203 c -0.234375,0.328125 -0.445312,0.574218 -0.65625,0.714843 -0.140625,0.09375 -0.269531,0.152344 -0.386719,0.152344 -0.09375,0 -0.164062,-0.03516 -0.210937,-0.09375 -0.05859,-0.05859 -0.09375,-0.140625 -0.09375,-0.234375 0,-0.117187 0.05859,-0.328125 0.152344,-0.632812 l 0.527343,-1.570313 c 0.05859,-0.199219 0.105469,-0.351562 0.105469,-0.457031 0,-0.05859 -0.02344,-0.09375 -0.05859,-0.128906 -0.04687,-0.03516 -0.09375,-0.04687 -0.140625,-0.04687 -0.08203,0 -0.175781,0.02344 -0.28125,0.09375 -0.210937,0.105468 -0.421875,0.304687 -0.65625,0.574218 -0.222656,0.269532 -0.46875,0.621094 -0.714843,1.03125 -0.140625,0.222657 -0.246094,0.46875 -0.339844,0.726563 l -0.175781,0.644531 h -0.585938 l 0.703125,-2.460937 c 0.08203,-0.28125 0.128906,-0.457032 0.128906,-0.515625 0,-0.05859 -0.02344,-0.117188 -0.07031,-0.152344 -0.04687,-0.03516 -0.105469,-0.07031 -0.175781,-0.07031 -0.02344,0 -0.08203,0.01172 -0.152344,0.02344 l -0.152344,0.02344 -0.03516,-0.140625 z m 77.317383,-61.259766 -0.75,2.648438 -0.09375,0.363281 c -0.01172,0.02344 -0.01172,0.04687 -0.01172,0.08203 0,0.03516 0.01172,0.07031 0.02344,0.09375 0.02344,0.02344 0.03516,0.02344 0.05859,0.02344 0.02344,0 0.05859,-0.01172 0.09375,-0.04687 0.07031,-0.07031 0.164062,-0.222657 0.28125,-0.457032 l 0.140625,0.09375 c -0.152344,0.257813 -0.304688,0.457032 -0.46875,0.574219 -0.164063,0.128906 -0.304688,0.199219 -0.445313,0.199219 -0.09375,0 -0.164062,-0.03516 -0.210937,-0.08203 -0.05859,-0.05859 -0.08203,-0.140625 -0.08203,-0.246094 0,-0.128906 0.02344,-0.292969 0.08203,-0.503906 l 0.09375,-0.292969 c -0.375,0.433594 -0.726563,0.75 -1.042969,0.925781 -0.222656,0.128906 -0.445313,0.199219 -0.667969,0.199219 -0.199219,0 -0.386719,-0.08203 -0.539062,-0.234375 -0.152344,-0.152344 -0.222657,-0.375 -0.222657,-0.644531 0,-0.410157 0.128907,-0.84375 0.398438,-1.289063 0.269531,-0.457031 0.609375,-0.820312 1.03125,-1.089844 0.316406,-0.210937 0.621094,-0.316406 0.914062,-0.316406 0.175782,0 0.316407,0.03516 0.433594,0.105469 0.105469,0.08203 0.199219,0.210937 0.257813,0.386719 l 0.117187,-0.398438 z m -1.441406,0.1875 c -0.175781,0 -0.375,0.08203 -0.574219,0.234375 -0.292969,0.222656 -0.550781,0.539063 -0.773437,0.972656 -0.222657,0.421875 -0.339844,0.808594 -0.339844,1.148438 0,0.175781 0.04687,0.316406 0.152344,0.421875 0.105468,0.09375 0.222656,0.152344 0.351562,0.152344 0.316406,0 0.667969,-0.210938 1.042969,-0.621094 0.457031,-0.550781 0.679687,-1.113281 0.667969,-1.6875 0,-0.222656 -0.04687,-0.375 -0.140625,-0.46875 -0.09375,-0.105469 -0.222657,-0.152344 -0.386719,-0.152344 z m 5.285156,1.019531 c 0.117188,0 0.199219,0.04687 0.28125,0.117188 0.07031,0.08203 0.105469,0.164062 0.105469,0.28125 0,0.105469 -0.03516,0.199219 -0.105469,0.28125 -0.08203,0.07031 -0.175781,0.105469 -0.28125,0.105469 -0.105469,0 -0.199219,-0.03516 -0.28125,-0.105469 -0.07031,-0.08203 -0.105469,-0.175781 -0.105469,-0.28125 0,-0.117188 0.03516,-0.199219 0.105469,-0.28125 0.08203,-0.07031 0.164063,-0.117188 0.28125,-0.117188 z m 0.164063,1.558594 -0.808594,2.7656251 c -0.05859,0.1875 -0.09375,0.3046875 -0.09375,0.3398437 0,0.035156 0.02344,0.070312 0.04687,0.09375 0.01172,0.035156 0.04687,0.035156 0.07031,0.035156 0.03516,0 0.08203,-0.011719 0.128907,-0.046875 0.128906,-0.1289063 0.269531,-0.28125 0.398437,-0.5039063 l 0.140625,0.09375 c -0.164062,0.2578125 -0.363281,0.4804688 -0.585937,0.65625 -0.175782,0.140625 -0.339844,0.2109375 -0.492188,0.2109375 -0.105469,0 -0.1875,-0.035156 -0.246094,-0.1054687 -0.07031,-0.058594 -0.09375,-0.1289063 -0.09375,-0.2226563 0,-0.1054687 0.02344,-0.2695312 0.09375,-0.4921875 l 0.550782,-1.7695305 c 0.08203,-0.292969 0.117187,-0.46875 0.128906,-0.539063 0,-0.05859 -0.02344,-0.105469 -0.07031,-0.140625 -0.03516,-0.03516 -0.09375,-0.04687 -0.164062,-0.04687 -0.05859,0 -0.175781,0 -0.351563,0.03516 v -0.152343 z M -15.496,2.5299266 l -0.75,2.6484375 -0.09375,0.3632812 c -0.01172,0.023437 -0.01172,0.046875 -0.01172,0.082031 0,0.035156 0.01172,0.070312 0.02344,0.09375 0.02344,0.023437 0.03516,0.023437 0.05859,0.023437 0.02344,0 0.05859,-0.011719 0.09375,-0.046875 0.07031,-0.070312 0.164062,-0.2226563 0.28125,-0.4570313 l 0.140625,0.09375 c -0.152344,0.2578125 -0.304688,0.4570313 -0.46875,0.5742188 -0.164063,0.1289062 -0.304688,0.1992187 -0.445313,0.1992187 -0.09375,0 -0.164062,-0.035156 -0.210937,-0.082031 -0.05859,-0.058594 -0.08203,-0.140625 -0.08203,-0.2460938 0,-0.1289062 0.02344,-0.2929687 0.08203,-0.5039062 l 0.09375,-0.2929688 c -0.375,0.4335938 -0.726563,0.75 -1.042969,0.9257813 -0.222656,0.1289062 -0.445313,0.1992187 -0.667969,0.1992187 -0.199219,0 -0.386719,-0.082031 -0.539062,-0.234375 -0.152344,-0.1523437 -0.222657,-0.375 -0.222657,-0.6445312 0,-0.4101563 0.128907,-0.84375 0.398438,-1.2890625 0.269531,-0.4570313 0.609375,-0.8203125 1.03125,-1.0898438 0.316406,-0.2109375 0.621094,-0.3164062 0.914062,-0.3164062 0.175782,0 0.316407,0.035156 0.433594,0.1054687 0.105469,0.082031 0.199219,0.2109375 0.257813,0.3867188 l 0.117187,-0.3984375 z m -1.441406,0.1875 c -0.175781,0 -0.375,0.082031 -0.574219,0.234375 -0.292969,0.2226562 -0.550781,0.5390625 -0.773437,0.9726562 -0.222657,0.421875 -0.339844,0.8085938 -0.339844,1.1484375 0,0.1757813 0.04687,0.3164063 0.152344,0.421875 0.105468,0.09375 0.222656,0.1523438 0.351562,0.1523438 0.316406,0 0.667969,-0.2109375 1.042969,-0.6210938 0.457031,-0.5507812 0.679687,-1.1132812 0.667969,-1.6875 0,-0.2226562 -0.04687,-0.375 -0.140625,-0.46875 -0.09375,-0.1054687 -0.222657,-0.1523437 -0.386719,-0.1523437 z m 5.332031,1.0429687 c 0.105469,0 0.199219,0.035156 0.28125,0.1054688 0.07031,0.082031 0.117188,0.1757812 0.117188,0.28125 0,0.1171875 -0.04687,0.2109375 -0.117188,0.2929687 -0.08203,0.070312 -0.175781,0.1054688 -0.28125,0.1054688 -0.105469,0 -0.210937,-0.035156 -0.28125,-0.1054688 -0.08203,-0.082031 -0.117187,-0.1757812 -0.117187,-0.2929687 0,-0.1054688 0.03516,-0.1992188 0.117187,-0.28125 0.07031,-0.070312 0.175781,-0.1054688 0.28125,-0.1054688 z m 0.04687,1.546875 -1.007812,3.5039063 c -0.175782,0.6210937 -0.421875,1.078125 -0.738282,1.3476564 -0.304687,0.28125 -0.644531,0.421875 -1.007812,0.421875 -0.164063,0 -0.292969,-0.04687 -0.375,-0.117188 -0.08203,-0.08203 -0.128906,-0.164062 -0.128906,-0.269531 0,-0.08203 0.03516,-0.152344 0.09375,-0.2226562 0.07031,-0.046875 0.140625,-0.082031 0.222656,-0.082031 0.08203,0 0.140625,0.023437 0.199219,0.070312 0.04687,0.035156 0.07031,0.082031 0.07031,0.1406252 0,0.05859 -0.03516,0.117188 -0.09375,0.175781 -0.04687,0.02344 -0.05859,0.04687 -0.05859,0.07031 l 0.01172,0.01172 c 0,0.01172 0.01172,0.01172 0.03516,0.02344 0.01172,0.01172 0.03516,0.01172 0.07031,0.01172 0.199219,0 0.386719,-0.07031 0.539062,-0.199219 0.140625,-0.140625 0.28125,-0.3984377 0.398438,-0.808594 l 0.867187,-3 c 0.09375,-0.2929687 0.128907,-0.4570312 0.128907,-0.4804687 0,-0.070312 -0.03516,-0.1289063 -0.09375,-0.1757813 -0.04687,-0.046875 -0.117188,-0.070312 -0.199219,-0.070312 -0.03516,0 -0.07031,0 -0.128906,0.011719 -0.02344,0.011719 -0.07031,0.011719 -0.140625,0.023437 V 5.553366 Z m -4.201172,14.5546877 -0.75,2.648437 -0.09375,0.363282 c -0.01172,0.02344 -0.01172,0.04687 -0.01172,0.08203 0,0.03516 0.01172,0.07031 0.02344,0.09375 0.02344,0.02344 0.03516,0.02344 0.05859,0.02344 0.02344,0 0.05859,-0.01172 0.09375,-0.04687 0.07031,-0.07031 0.164062,-0.222656 0.28125,-0.457031 l 0.140625,0.09375 c -0.152344,0.257813 -0.304688,0.457031 -0.46875,0.574219 -0.164063,0.128906 -0.304688,0.199219 -0.445313,0.199219 -0.09375,0 -0.164062,-0.03516 -0.210937,-0.08203 -0.05859,-0.05859 -0.08203,-0.140625 -0.08203,-0.246093 0,-0.128907 0.02344,-0.292969 0.08203,-0.503907 l 0.09375,-0.292968 c -0.375,0.433593 -0.726563,0.75 -1.042969,0.925781 -0.222656,0.128906 -0.445313,0.199219 -0.667969,0.199219 -0.199219,0 -0.386719,-0.08203 -0.539062,-0.234375 -0.152344,-0.152344 -0.222657,-0.375 -0.222657,-0.644532 0,-0.410156 0.128907,-0.84375 0.398438,-1.289062 0.269531,-0.457031 0.609375,-0.820313 1.03125,-1.089844 0.316406,-0.210937 0.621094,-0.316406 0.914062,-0.316406 0.175782,0 0.316407,0.03516 0.433594,0.105469 0.105469,0.08203 0.199219,0.210937 0.257813,0.386718 l 0.117187,-0.398437 z m -1.441406,0.1875 c -0.175781,0 -0.375,0.08203 -0.574219,0.234375 -0.292969,0.222656 -0.550781,0.539062 -0.773437,0.972656 -0.222657,0.421875 -0.339844,0.808594 -0.339844,1.148438 0,0.175781 0.04687,0.316406 0.152344,0.421875 0.105468,0.09375 0.222656,0.152343 0.351562,0.152343 0.316406,0 0.667969,-0.210937 1.042969,-0.621093 0.457031,-0.550782 0.679687,-1.113282 0.667969,-1.6875 0,-0.222657 -0.04687,-0.375 -0.140625,-0.46875 -0.09375,-0.105469 -0.222657,-0.152344 -0.386719,-0.152344 z m 5.226562,2.589844 -0.503906,1.757812 c 0.234375,-0.398437 0.433594,-0.714844 0.597656,-0.925781 0.257813,-0.328125 0.503907,-0.5625 0.738282,-0.703125 0.152343,-0.08203 0.292968,-0.128906 0.445312,-0.128906 0.128906,0 0.246094,0.04687 0.328125,0.128906 0.09375,0.09375 0.140625,0.199219 0.140625,0.339844 0,0.128906 -0.03516,0.28125 -0.09375,0.492187 l -0.304687,0.972656 c 0.445312,-0.785156 0.8789059,-1.347656 1.2773434,-1.664062 0.2226562,-0.175781 0.4453125,-0.269531 0.65625,-0.269531 0.1289062,0 0.234375,0.04687 0.3164062,0.140625 0.082031,0.08203 0.1171875,0.222656 0.1171875,0.410156 0,0.152344 -0.023437,0.304687 -0.082031,0.480469 l -0.4804688,1.5 c -0.1054687,0.328125 -0.1640625,0.515625 -0.1640625,0.539062 0,0.04687 0.011719,0.07031 0.035156,0.105469 0.011719,0.01172 0.023437,0.02344 0.046875,0.02344 0.035156,0 0.070312,-0.02344 0.1289062,-0.08203 0.140625,-0.105469 0.2578125,-0.257812 0.3867188,-0.445312 l 0.1171875,0.08203 c -0.058594,0.105469 -0.1757813,0.246094 -0.328125,0.421875 -0.1523438,0.175781 -0.2929688,0.304687 -0.3984375,0.351562 -0.1171875,0.07031 -0.2226563,0.105469 -0.3164063,0.105469 -0.09375,0 -0.1640625,-0.03516 -0.2226562,-0.105469 -0.058594,-0.04687 -0.09375,-0.128906 -0.09375,-0.222656 0,-0.117187 0.070312,-0.375 0.1875,-0.75 l 0.421875,-1.253906 c 0.082031,-0.292969 0.140625,-0.445313 0.140625,-0.480469 0.011719,-0.04687 0.011719,-0.09375 0.011719,-0.152344 0,-0.05859 -0.011719,-0.117187 -0.046875,-0.140625 -0.035156,-0.04687 -0.070312,-0.05859 -0.1054687,-0.05859 -0.1289063,0 -0.2460938,0.05859 -0.3867188,0.164062 -0.375,0.328125 -0.7499998,0.796875 -1.0781248,1.394531 -0.234375,0.386719 -0.433594,0.890625 -0.632813,1.511719 h -0.585937 l 0.714843,-2.355469 c 0.07031,-0.257812 0.117188,-0.433593 0.117188,-0.515625 0,-0.07031 -0.02344,-0.117187 -0.04687,-0.164062 -0.03516,-0.03516 -0.07031,-0.04687 -0.117188,-0.04687 -0.08203,0 -0.175781,0.03516 -0.28125,0.09375 -0.152343,0.09375 -0.363281,0.328125 -0.609375,0.65625 -0.257812,0.328125 -0.457031,0.65625 -0.597656,0.960937 -0.05859,0.140625 -0.222656,0.597657 -0.46875,1.371094 h -0.574219 l 0.726563,-2.53125 0.09375,-0.328125 c 0.01172,-0.04687 0.02344,-0.08203 0.02344,-0.105469 0,-0.05859 -0.02344,-0.117187 -0.08203,-0.152343 -0.04687,-0.04687 -0.105469,-0.08203 -0.199219,-0.08203 -0.03516,0 -0.128906,0.02344 -0.28125,0.05859 l -0.03516,-0.152344 z m -3.785156,14.124023 -0.75,2.648437 -0.09375,0.363282 c -0.01172,0.02344 -0.01172,0.04687 -0.01172,0.08203 0,0.03516 0.01172,0.07031 0.02344,0.09375 0.02344,0.02344 0.03516,0.02344 0.05859,0.02344 0.02344,0 0.05859,-0.01172 0.09375,-0.04687 0.07031,-0.07031 0.164062,-0.222656 0.28125,-0.457031 l 0.140625,0.09375 c -0.152344,0.257813 -0.304688,0.457031 -0.46875,0.574219 -0.164063,0.128906 -0.304688,0.199219 -0.445313,0.199219 -0.09375,0 -0.164062,-0.03516 -0.210937,-0.08203 -0.05859,-0.05859 -0.08203,-0.140625 -0.08203,-0.246093 0,-0.128907 0.02344,-0.292969 0.08203,-0.503907 l 0.09375,-0.292968 c -0.375,0.433593 -0.726563,0.75 -1.042969,0.925781 -0.222656,0.128906 -0.445313,0.199219 -0.667969,0.199219 -0.199219,0 -0.386719,-0.08203 -0.539062,-0.234375 -0.152344,-0.152344 -0.222657,-0.375 -0.222657,-0.644532 0,-0.410156 0.128907,-0.84375 0.398438,-1.289062 0.269531,-0.457031 0.609375,-0.820313 1.03125,-1.089844 0.316406,-0.210937 0.621094,-0.316406 0.914062,-0.316406 0.175782,0 0.316407,0.03516 0.433594,0.105469 0.105469,0.08203 0.199219,0.210937 0.257813,0.386718 l 0.117187,-0.398437 z m -1.441406,0.1875 c -0.175781,0 -0.375,0.08203 -0.574219,0.234375 -0.292969,0.222656 -0.550781,0.539062 -0.773437,0.972656 -0.222657,0.421875 -0.339844,0.808594 -0.339844,1.148438 0,0.175781 0.04687,0.316406 0.152344,0.421875 0.105468,0.09375 0.222656,0.152343 0.351562,0.152343 0.316406,0 0.667969,-0.210937 1.042969,-0.621093 0.457031,-0.550782 0.679687,-1.113282 0.667969,-1.6875 0,-0.222657 -0.04687,-0.375 -0.140625,-0.46875 -0.09375,-0.105469 -0.222657,-0.152344 -0.386719,-0.152344 z m 5.25,2.586914 -0.503906,1.769531 c 0.527343,-0.714843 0.914062,-1.195312 1.195312,-1.429687 0.28125,-0.222656 0.539063,-0.339844 0.796875,-0.339844 0.140625,0 0.257813,0.04687 0.351563,0.140625 0.08203,0.105469 0.1289059,0.222656 0.1289059,0.375 0,0.152344 -0.046875,0.363281 -0.1289059,0.609375 l -0.527344,1.640625 c -0.07031,0.1875 -0.105469,0.304688 -0.105469,0.339844 0,0.03516 0.01172,0.07031 0.03516,0.09375 0.01172,0.02344 0.04687,0.02344 0.05859,0.02344 0.03516,0 0.05859,-0.01172 0.105469,-0.04687 0.117187,-0.105468 0.257812,-0.269531 0.398437,-0.492187 l 0.117188,0.08203 c -0.234375,0.328125 -0.445313,0.574219 -0.65625,0.714844 -0.140625,0.09375 -0.269531,0.152344 -0.386719,0.152344 -0.09375,0 -0.164062,-0.03516 -0.210937,-0.09375 -0.05859,-0.05859 -0.09375,-0.140625 -0.09375,-0.234375 0,-0.117188 0.05859,-0.328125 0.152343,-0.632813 l 0.527344,-1.570312 c 0.05859,-0.199219 0.105469,-0.351563 0.105469,-0.457032 0,-0.05859 -0.02344,-0.09375 -0.05859,-0.128906 -0.04687,-0.03516 -0.09375,-0.04687 -0.140625,-0.04687 -0.08203,0 -0.175781,0.02344 -0.28125,0.09375 -0.210937,0.105469 -0.421875,0.304688 -0.65625,0.574219 -0.222656,0.269531 -0.46875,0.621094 -0.714844,1.03125 -0.140625,0.222656 -0.246093,0.46875 -0.339843,0.726562 l -0.175782,0.644532 h -0.585937 l 0.703125,-2.460938 c 0.08203,-0.28125 0.128906,-0.457031 0.128906,-0.515625 0,-0.05859 -0.02344,-0.117187 -0.07031,-0.152344 -0.04687,-0.03516 -0.105469,-0.07031 -0.175782,-0.07031 -0.02344,0 -0.08203,0.01172 -0.152343,0.02344 l -0.152344,0.02344 -0.03516,-0.140625 z m 0,0"
         style="fill:#231f20;fill-opacity:1;fill-rule:nonzero;stroke:none" />
    </g>
    <path
       id="path9"
       d="m 1300.79,1211.57 h -28 V 463.41 h 28"
       style="fill:none;stroke:#231f20;stroke-width:5;stroke-linecap:butt;stroke-linejoin:miter;stroke-miterlimit:3.86369;stroke-dasharray:none;stroke-opacity:1"
       transform="matrix(0.13333333,0,0,-0.13333333,0,221.33333)" />
    <path
       id="path10"
       d="m 1432.13,463.41 h 28 v 748.16 h -28"
       style="fill:none;stroke:#231f20;stroke-width:5;stroke-linecap:butt;stroke-linejoin:miter;stroke-miterlimit:3.86369;stroke-dasharray:none;stroke-opacity:1"
       transform="matrix(0.13333333,0,0,-0.13333333,0,221.33333)" />
    <g
       id="g10"
       aria-label="u&#10;1&#10;u&#10;2&#10;u&#10;3&#10;u&#10;4&#10;edof = [eln   i   j   m   n ]&#10;ed = [ u&#10;1&#10;   u&#10;2&#10;   u&#10;3 &#10;  u&#10;4&#10; ]&#10;.&#10;.&#10;."
       transform="matrix(1.3333333,0,0,1.3333333,174.90667,78.744)">
      <path
         id="path11"
         d="m 3.8551562,-3.4466719 -0.7148437,2.3671875 c -0.09375,0.35156253 -0.1523438,0.57421878 -0.1523438,0.66796878 0,0.046875 0,0.0703125 0.011719,0.09375 0.011719,0.0234375 0.035156,0.0234375 0.058594,0.0234375 0.035156,0 0.070312,-0.0117188 0.1054688,-0.046875 0.046875,-0.0351563 0.1523437,-0.19921875 0.3164062,-0.48046875 l 0.1171875,0.09375 c -0.1757812,0.3046875 -0.3632812,0.5390625 -0.5507812,0.6796875 -0.1289063,0.08203125 -0.2578125,0.140625 -0.3632813,0.140625 -0.09375,0 -0.1640625,-0.03515625 -0.2226562,-0.09375 -0.046875,-0.05859375 -0.070312,-0.12890625 -0.070312,-0.2109375 0,-0.09375 0.011719,-0.2109375 0.046875,-0.3515625 0.046875,-0.1875 0.1757812,-0.59765623 0.375,-1.24218753 -0.46875,0.7265625 -0.8554688,1.21875003 -1.1601563,1.48828128 -0.3046875,0.26953125 -0.5976562,0.41015625 -0.8554687,0.41015625 -0.12890625,0 -0.234375,-0.046875 -0.3046875,-0.12890625 -0.09375,-0.08203125 -0.12890625,-0.1875 -0.12890625,-0.3046875 0,-0.19921875 0.0585938,-0.50390625 0.19921875,-0.91406248 l 0.41015625,-1.2070313 c 0.10546875,-0.28125 0.15234375,-0.4570312 0.15234375,-0.5273437 0,-0.035156 -0.023437,-0.058594 -0.046875,-0.082031 -0.023437,-0.023437 -0.058594,-0.035156 -0.0820313,-0.035156 -0.0703125,0 -0.12890625,0.011719 -0.19921875,0.058594 -0.0585938,0.035156 -0.2109375,0.1757813 -0.4453125,0.4335938 L 0.2340625,-2.6966719 C 0.445,-3.0013594 0.66765625,-3.2240156 0.90203125,-3.3763594 1.0895312,-3.4818281 1.2535937,-3.5404219 1.4059375,-3.5404219 c 0.1054687,0 0.1992187,0.046875 0.2578125,0.1171875 0.070312,0.070312 0.09375,0.1640625 0.09375,0.28125 0,0.140625 -0.058594,0.3867188 -0.1757813,0.7382813 L 1.148125,-1.1497969 c -0.1054688,0.33984378 -0.17578125,0.55078128 -0.17578125,0.64453128 0,0.046875 0.0234375,0.0820312 0.0585938,0.1171875 0.035156,0.0234375 0.070312,0.046875 0.140625,0.046875 0.082031,0 0.1992187,-0.046875 0.3398437,-0.12890625 0.140625,-0.09375 0.3398438,-0.28125 0.5742189,-0.57421873 0.2460936,-0.3046875 0.4335936,-0.5859375 0.5976561,-0.84375 C 2.835625,-2.1341719 2.9996875,-2.5560469 3.16375,-3.1185469 l 0.1054687,-0.328125 z M 9.3395312,-2.5794844 8.085625,1.8150469 C 8.003594,2.0611406 7.9684375,2.2486406 7.9684375,2.3658281 c 0,0.09375 0.035156,0.1757813 0.09375,0.2226563 0.070312,0.046875 0.2226562,0.082031 0.4804687,0.1054687 l -0.046875,0.140625 H 6.491875 L 6.53875,2.6939531 C 6.7496875,2.6822344 6.8903125,2.6705156 6.960625,2.6470781 7.0778125,2.6002031 7.148125,2.5298906 7.2067187,2.4478594 7.3004687,2.3306719 7.3825,2.1197344 7.47625,1.8150469 l 0.9023437,-3.1640625 c 0.058594,-0.1875 0.082031,-0.2929688 0.082031,-0.328125 0.011719,-0.046875 0.023437,-0.09375 0.023437,-0.1523438 0,-0.082031 -0.023437,-0.1523437 -0.070312,-0.1992187 -0.058594,-0.058594 -0.1289063,-0.082031 -0.2109375,-0.082031 -0.070312,0 -0.1757813,0.011719 -0.3164063,0.046875 l -0.058594,-0.140625 1.3242187,-0.375 z M 3.8551562,13.454695 3.1403125,15.821883 c -0.09375,0.351562 -0.1523438,0.574219 -0.1523438,0.667969 0,0.04687 0,0.07031 0.011719,0.09375 0.011719,0.02344 0.035156,0.02344 0.058594,0.02344 0.035156,0 0.070312,-0.01172 0.1054688,-0.04687 0.046875,-0.03516 0.1523437,-0.199219 0.3164062,-0.480469 l 0.1171875,0.09375 C 3.421563,16.478141 3.234063,16.712516 3.046563,16.853141 c -0.1289063,0.08203 -0.2578125,0.140625 -0.3632813,0.140625 -0.09375,0 -0.1640625,-0.03516 -0.2226562,-0.09375 -0.046875,-0.05859 -0.070312,-0.128906 -0.070312,-0.210938 0,-0.09375 0.011719,-0.210937 0.046875,-0.351562 0.046875,-0.1875 0.1757812,-0.597656 0.375,-1.242188 -0.46875,0.726563 -0.8554688,1.21875 -1.1601563,1.488282 -0.3046875,0.269531 -0.5976562,0.410156 -0.8554687,0.410156 -0.12890625,0 -0.234375,-0.04687 -0.3046875,-0.128906 -0.09375,-0.08203 -0.12890625,-0.1875 -0.12890625,-0.304688 0,-0.199219 0.0585938,-0.503906 0.19921875,-0.914062 L 0.97234375,14.43907 C 1.0778125,14.15782 1.1246875,13.982039 1.1246875,13.911727 c 0,-0.03516 -0.023437,-0.05859 -0.046875,-0.08203 -0.023437,-0.02344 -0.058594,-0.03516 -0.0820313,-0.03516 -0.0703125,0 -0.12890625,0.01172 -0.19921875,0.05859 -0.0585938,0.03516 -0.2109375,0.175781 -0.4453125,0.433594 L 0.2340625,14.204695 C 0.445,13.900008 0.66765625,13.677352 0.90203125,13.525008 1.0895312,13.419539 1.2535937,13.360945 1.4059375,13.360945 c 0.1054687,0 0.1992187,0.04687 0.2578125,0.117188 0.070312,0.07031 0.09375,0.164062 0.09375,0.28125 0,0.140625 -0.058594,0.386719 -0.1757813,0.738281 L 1.148125,15.75157 c -0.1054688,0.339844 -0.17578125,0.550782 -0.17578125,0.644532 0,0.04687 0.0234375,0.08203 0.0585938,0.117187 0.035156,0.02344 0.070312,0.04687 0.140625,0.04687 0.082031,0 0.1992187,-0.04687 0.3398437,-0.128906 0.140625,-0.09375 0.3398438,-0.28125 0.5742189,-0.574219 0.2460936,-0.304687 0.4335936,-0.585937 0.5976561,-0.84375 C 2.835625,14.767195 2.9996875,14.34532 3.16375,13.78282 l 0.1054687,-0.328125 z m 4.921875,6.278321 H 6.1285937 V 19.592391 C 7.47625,18.408797 8.3551562,17.483016 8.78875,16.815047 c 0.1992187,-0.304688 0.3046875,-0.632813 0.3046875,-0.972656 0,-0.269532 -0.082031,-0.492188 -0.2578125,-0.667969 -0.1640625,-0.164063 -0.375,-0.246094 -0.6445313,-0.246094 -0.3632812,0 -0.6679687,0.175781 -0.9023437,0.527344 l -0.140625,-0.07031 c 0.140625,-0.339843 0.328125,-0.597656 0.5859375,-0.785156 0.2578125,-0.1875 0.5273437,-0.28125 0.8320312,-0.28125 0.328125,0 0.609375,0.117188 0.84375,0.351563 0.234375,0.222656 0.3398438,0.503906 0.3398438,0.832031 0,0.234375 -0.035156,0.445312 -0.1171875,0.644531 -0.1289063,0.304688 -0.3632813,0.644531 -0.6914063,1.019531 -0.515625,0.585938 -1.1953125,1.242188 -2.0507812,2.003907 h 1.3476562 c 0.2109375,0 0.3867188,-0.05859 0.5273438,-0.140625 0.1289062,-0.09375 0.234375,-0.199219 0.2929687,-0.351563 H 9.2223437 Z M 3.5914844,30.786727 2.8766406,33.153914 c -0.09375,0.351563 -0.1523437,0.574219 -0.1523437,0.667969 0,0.04687 0,0.07031 0.011719,0.09375 0.011719,0.02344 0.035156,0.02344 0.058594,0.02344 0.035156,0 0.070312,-0.01172 0.1054687,-0.04687 0.046875,-0.03516 0.1523438,-0.199218 0.3164063,-0.480468 l 0.1171875,0.09375 c -0.1757813,0.304687 -0.3632813,0.539062 -0.5507813,0.679687 -0.1289062,0.08203 -0.2578125,0.140625 -0.3632812,0.140625 -0.09375,0 -0.1640625,-0.03516 -0.2226563,-0.09375 -0.046875,-0.05859 -0.070312,-0.128906 -0.070312,-0.210937 0,-0.09375 0.011719,-0.210938 0.046875,-0.351563 0.046875,-0.1875 0.1757813,-0.597656 0.375,-1.242187 -0.46875,0.726562 -0.8554687,1.21875 -1.1601562,1.488281 -0.3046875,0.269531 -0.59765628,0.410156 -0.85546878,0.410156 -0.12890625,0 -0.234375,-0.04687 -0.3046875,-0.128906 -0.09375,-0.08203 -0.12890625,-0.1875 -0.12890625,-0.304688 0,-0.199218 0.05859375,-0.503906 0.19921875,-0.914062 L 0.70867287,31.77111 c 0.10546875,-0.28125 0.15234375,-0.457032 0.15234375,-0.527344 0,-0.03516 -0.0234375,-0.05859 -0.046875,-0.08203 -0.0234375,-0.02344 -0.0585938,-0.03516 -0.0820313,-0.03516 -0.0703125,0 -0.12890625,0.01172 -0.19921875,0.05859 -0.0585938,0.03516 -0.2109375,0.175781 -0.4453125,0.433594 l -0.1171875,-0.08203 c 0.2109375,-0.304688 0.43359375,-0.527344 0.66796875,-0.679688 0.1875,-0.105469 0.3515625,-0.164062 0.50390618,-0.164062 0.1054688,0 0.1992188,0.04687 0.2578125,0.117187 0.070312,0.07031 0.09375,0.164063 0.09375,0.28125 0,0.140625 -0.058594,0.386719 -0.1757812,0.738281 l -0.43359373,1.253907 c -0.10546875,0.339843 -0.17578125,0.550781 -0.17578125,0.644531 0,0.04687 0.0234375,0.08203 0.0585938,0.117187 0.0351563,0.02344 0.0703125,0.04687 0.140625,0.04687 0.0820313,0 0.19921878,-0.04687 0.33984378,-0.128906 0.140625,-0.09375 0.3398437,-0.28125 0.5742187,-0.574219 0.2460938,-0.304687 0.4335938,-0.585937 0.5976563,-0.84375 0.1523437,-0.246093 0.3164062,-0.667968 0.4804687,-1.230468 l 0.1054688,-0.328125 z m 3.3632812,3.383789 v -0.117188 c 0.6328125,-0.09375 1.1015625,-0.28125 1.4179688,-0.5625 0.2226562,-0.199219 0.328125,-0.433594 0.328125,-0.703125 0,-0.210937 -0.058594,-0.386719 -0.1875,-0.515625 -0.140625,-0.140625 -0.2929688,-0.199219 -0.46875,-0.199219 -0.3046875,0 -0.5507813,0.175782 -0.7851563,0.539063 l -0.140625,-0.04687 c 0.140625,-0.304688 0.3164063,-0.527344 0.5273438,-0.679688 0.2109375,-0.152343 0.4453125,-0.234375 0.6914062,-0.234375 0.3164063,0 0.5625,0.09375 0.7382813,0.28125 0.1992187,0.175782 0.2929687,0.410157 0.2929687,0.691407 0,0.234375 -0.082031,0.46875 -0.2578125,0.691406 -0.1875,0.222656 -0.4921875,0.421875 -0.9375,0.597656 0.28125,0.105469 0.4804688,0.269531 0.6210938,0.480469 0.140625,0.210937 0.2109375,0.457031 0.2109375,0.761719 0,0.316406 -0.1054688,0.644531 -0.28125,0.972656 -0.1992188,0.328125 -0.4453125,0.574219 -0.7734375,0.761719 -0.328125,0.175781 -0.6796875,0.269531 -1.0429688,0.269531 -0.328125,0 -0.5742187,-0.05859 -0.7382812,-0.175781 -0.1171875,-0.08203 -0.1640625,-0.175782 -0.1640625,-0.28125 0,-0.08203 0.023437,-0.164063 0.09375,-0.234375 0.070312,-0.05859 0.1523437,-0.09375 0.2460937,-0.09375 0.070312,0 0.140625,0.01172 0.1992188,0.03516 0.046875,0.01172 0.140625,0.05859 0.3164062,0.164062 0.1523438,0.08203 0.28125,0.152344 0.375,0.175782 0.09375,0.02344 0.1875,0.04687 0.28125,0.04687 0.234375,0 0.4335938,-0.140625 0.5742188,-0.410157 0.1523437,-0.269531 0.234375,-0.5625 0.234375,-0.878906 0,-0.246094 -0.046875,-0.46875 -0.1523438,-0.65625 C 8.0680469,34.650984 7.9157031,34.498641 7.6930469,34.381453 7.4703906,34.252547 7.2242969,34.182234 6.9547656,34.170516 Z M 3.5914844,47.685164 2.8766406,50.052352 c -0.09375,0.351562 -0.1523437,0.574218 -0.1523437,0.667968 0,0.04687 0,0.07031 0.011719,0.09375 0.011719,0.02344 0.035156,0.02344 0.058594,0.02344 0.035156,0 0.070312,-0.01172 0.1054687,-0.04687 0.046875,-0.03516 0.1523438,-0.199219 0.3164063,-0.480469 l 0.1171875,0.09375 c -0.1757813,0.304688 -0.3632813,0.539063 -0.5507813,0.679688 -0.1289062,0.08203 -0.2578125,0.140625 -0.3632812,0.140625 -0.09375,0 -0.1640625,-0.03516 -0.2226563,-0.09375 -0.046875,-0.05859 -0.070312,-0.128907 -0.070312,-0.210938 0,-0.09375 0.011719,-0.210937 0.046875,-0.351562 0.046875,-0.1875 0.1757813,-0.597657 0.375,-1.242188 -0.46875,0.726563 -0.8554687,1.21875 -1.1601562,1.488281 -0.3046875,0.269532 -0.59765628,0.410157 -0.85546878,0.410157 -0.12890625,0 -0.234375,-0.04687 -0.3046875,-0.128907 -0.09375,-0.08203 -0.12890625,-0.1875 -0.12890625,-0.304687 0,-0.199219 0.05859375,-0.503906 0.19921875,-0.914063 l 0.41015625,-1.207031 c 0.10546875,-0.28125 0.15234375,-0.457031 0.15234375,-0.527344 0,-0.03516 -0.0234375,-0.05859 -0.046875,-0.08203 -0.0234375,-0.02344 -0.0585938,-0.03516 -0.0820313,-0.03516 -0.0703125,0 -0.12890625,0.01172 -0.19921875,0.05859 -0.0585938,0.03516 -0.2109375,0.175781 -0.4453125,0.433593 l -0.1171875,-0.08203 c 0.2109375,-0.304687 0.43359375,-0.527344 0.66796875,-0.679687 0.1875,-0.105469 0.3515625,-0.164063 0.50390618,-0.164063 0.1054688,0 0.1992188,0.04687 0.2578125,0.117188 0.070312,0.07031 0.09375,0.164062 0.09375,0.28125 0,0.140625 -0.058594,0.386718 -0.1757812,0.738281 L 0.88445407,49.98204 c -0.10546875,0.339844 -0.17578125,0.550781 -0.17578125,0.644531 0,0.04687 0.0234375,0.08203 0.0585938,0.117188 0.0351563,0.02344 0.0703125,0.04687 0.140625,0.04687 0.0820313,0 0.19921878,-0.04687 0.33984378,-0.128906 0.140625,-0.09375 0.3398437,-0.28125 0.5742187,-0.574219 0.2460938,-0.304688 0.4335938,-0.585938 0.5976563,-0.84375 0.1523437,-0.246094 0.3164062,-0.667969 0.4804687,-1.230469 L 3.0055479,47.68516 Z m 6.046875,0.972656 -1.0078125,3.480469 h 0.6210937 l -0.140625,0.492188 H 8.4782031 L 8.0680469,54.060164 H 7.4938281 l 0.421875,-1.429687 H 5.9821094 L 6.1578906,52.079695 9.3336719,48.65782 Z m -0.8789063,1.007813 -2.2734375,2.472656 h 1.5585938 z m 0,0"
         style="fill:#231f20;fill-opacity:1;fill-rule:nonzero;stroke:none" />
      <path
         id="path12"
         d="m 58.162773,14.178328 1.089844,0.140625 c -0.164062,0.644531 -0.492187,1.136719 -0.949219,1.476563 -0.46875,0.351562 -1.054687,0.527343 -1.769531,0.527343 -0.914062,0 -1.628906,-0.269531 -2.167969,-0.832031 -0.539062,-0.574219 -0.796875,-1.347656 -0.796875,-2.355469 0,-1.042968 0.257813,-1.863281 0.796875,-2.4375 0.550782,-0.574218 1.242188,-0.8671871 2.109375,-0.8671871 0.820313,0 1.5,0.2929691 2.027344,0.8554691 0.527344,0.5625 0.785156,1.359375 0.785156,2.390625 0,0.05859 0,0.152343 0,0.269531 h -4.640625 c 0.03516,0.691406 0.234375,1.207031 0.574219,1.570312 0.351563,0.363282 0.785156,0.550782 1.3125,0.550782 0.386719,0 0.703125,-0.117188 0.984375,-0.316407 0.269531,-0.199218 0.492188,-0.527343 0.644531,-0.972656 z m -3.457031,-1.6875 h 3.46875 c -0.04687,-0.527344 -0.175781,-0.914062 -0.398437,-1.183594 -0.328125,-0.410156 -0.761719,-0.609375 -1.300782,-0.609375 -0.480468,0 -0.890625,0.164063 -1.21875,0.492188 -0.328125,0.328125 -0.515625,0.761719 -0.550781,1.300781 z m 9.905274,3.703125 v -0.796875 c -0.398438,0.621094 -0.972657,0.925781 -1.746094,0.925781 -0.492188,0 -0.949219,-0.128906 -1.371094,-0.410156 -0.410156,-0.269531 -0.726562,-0.65625 -0.960937,-1.136719 -0.222657,-0.492187 -0.339844,-1.054687 -0.339844,-1.6875 0,-0.621093 0.105469,-1.195312 0.304687,-1.699218 0.210938,-0.503907 0.515625,-0.878907 0.925782,-1.148438 0.421875,-0.2695311 0.878906,-0.4101561 1.394531,-0.4101561 0.375,0 0.703125,0.082031 0.996094,0.2460941 0.304687,0.152343 0.539062,0.351562 0.714843,0.621093 V 7.6041094 h 1.066407 v 8.5898436 z m -3.339844,-3.105469 c 0,0.785157 0.164062,1.394532 0.503906,1.78125 0.339844,0.398438 0.726563,0.597657 1.183594,0.597657 0.46875,0 0.867187,-0.199219 1.195312,-0.574219 0.316407,-0.363281 0.480469,-0.9375 0.480469,-1.710938 0,-0.855468 -0.175781,-1.476562 -0.492187,-1.875 -0.339844,-0.398437 -0.738282,-0.597656 -1.21875,-0.597656 -0.480469,0 -0.855469,0.1875 -1.183594,0.574219 -0.316406,0.386719 -0.46875,0.984375 -0.46875,1.804687 z m 5.592773,-0.01172 c 0,-1.148438 0.316407,-1.992188 0.960938,-2.542969 0.539062,-0.46875 1.183594,-0.7031251 1.957031,-0.7031251 0.855469,0 1.558594,0.2812501 2.097656,0.8437501 0.539063,0.5625 0.808594,1.335937 0.808594,2.320312 0,0.796875 -0.117187,1.417969 -0.351562,1.875 -0.246094,0.46875 -0.585938,0.820313 -1.042969,1.066407 -0.46875,0.257812 -0.960938,0.386718 -1.511719,0.386718 -0.867187,0 -1.582031,-0.269531 -2.121094,-0.832031 -0.539062,-0.5625 -0.796875,-1.359375 -0.796875,-2.414062 z m 1.078125,0.01172 c 0,0.785157 0.175782,1.394532 0.527344,1.78125 0.351563,0.398438 0.785156,0.597657 1.3125,0.597657 0.527344,0 0.960938,-0.210938 1.300781,-0.609375 0.351563,-0.386719 0.527344,-0.996094 0.527344,-1.804688 0,-0.773437 -0.175781,-1.359375 -0.527344,-1.757812 -0.339843,-0.398438 -0.773437,-0.585938 -1.300781,-0.585938 -0.527344,0 -0.960937,0.1875 -1.3125,0.585938 -0.351562,0.398437 -0.527344,0.996093 -0.527344,1.792968 z m 6.240235,3.105469 v -5.414062 h -0.9375 V 9.9712969 h 0.9375 V 9.3033281 c 0,-0.421875 0.03516,-0.7265625 0.105468,-0.9375 0.117188,-0.2578125 0.28125,-0.4921875 0.539063,-0.65625 0.257812,-0.1640625 0.621094,-0.2460937 1.078125,-0.2460937 0.292969,0 0.621094,0.035156 0.972656,0.1054687 l -0.152344,0.9257813 c -0.210937,-0.035156 -0.433593,-0.070312 -0.621093,-0.070312 -0.328125,0 -0.539063,0.082031 -0.667969,0.2109375 -0.152344,0.1289062 -0.210938,0.3867187 -0.210938,0.75 v 0.5859375 h 1.21875 v 0.8085946 h -1.207031 v 5.414062 z m 11.967773,-5.050781 h -5.671875 v -0.984375 h 5.671875 z m 0,2.601562 h -5.671875 v -0.984375 h 5.671875 z m 0,0"
         style="fill:#231f20;fill-opacity:1;fill-rule:nonzero;stroke:none" />
      <path
         id="path13"
         d="M 93.380547,18.572859 H 90.802422 V 8.0611406 h 2.578125 v 0.46875 h -1.699219 v 9.5742184 h 1.699219 z m 0,0"
         style="fill:#231f20;fill-opacity:1;fill-rule:nonzero;stroke:none" />
      <path
         id="path14"
         d="m 95.185234,13.990828 c -0.02344,0.1875 -0.03516,0.351563 -0.03516,0.480469 0,0.339844 0.117188,0.632812 0.363281,0.878906 0.257813,0.246094 0.574219,0.363281 0.914063,0.363281 0.292969,0 0.5625,-0.05859 0.832031,-0.164062 0.257813,-0.128906 0.65625,-0.375 1.183594,-0.773438 l 0.128906,0.175782 c -0.9375,0.914062 -1.816406,1.371093 -2.660156,1.371093 -0.574219,0 -1.007813,-0.175781 -1.289063,-0.539062 -0.292968,-0.363281 -0.433593,-0.75 -0.433593,-1.183594 0,-0.574219 0.175781,-1.183594 0.539062,-1.792969 0.363281,-0.597656 0.796875,-1.078125 1.359375,-1.417968 0.539063,-0.328125 1.101563,-0.503907 1.664063,-0.503907 0.421875,0 0.714843,0.09375 0.925781,0.257813 0.199219,0.164062 0.292969,0.375 0.292969,0.597656 0,0.328125 -0.128907,0.632813 -0.386719,0.9375 -0.351563,0.386719 -0.855469,0.691406 -1.535156,0.9375 -0.433594,0.152344 -1.066407,0.28125 -1.863282,0.375 z m 0.04687,-0.292969 c 0.585938,-0.07031 1.066407,-0.175781 1.441407,-0.339843 0.492187,-0.210938 0.855468,-0.480469 1.101562,-0.773438 0.246094,-0.304687 0.375,-0.574219 0.375,-0.855469 0,-0.164062 -0.04687,-0.304687 -0.164062,-0.398437 -0.105469,-0.105469 -0.257813,-0.152344 -0.457032,-0.152344 -0.398437,0 -0.832031,0.210938 -1.289062,0.632813 -0.457031,0.433593 -0.796875,1.054687 -1.007813,1.886718 z m 7.543936,-5.8476559 -2.0625,7.0078129 c -0.0937,0.351562 -0.14062,0.5625 -0.14062,0.644531 0,0.05859 0.0117,0.105469 0.0469,0.152344 0.0352,0.03516 0.0703,0.04687 0.11719,0.04687 0.0703,0 0.14063,-0.02344 0.22266,-0.09375 0.17578,-0.175782 0.36328,-0.421875 0.57422,-0.773438 l 0.17578,0.1875 c -0.35156,0.515625 -0.67969,0.867188 -0.97266,1.089844 -0.22265,0.140625 -0.43359,0.210937 -0.63281,0.210937 -0.128902,0 -0.257808,-0.04687 -0.351558,-0.140625 -0.09375,-0.105468 -0.140625,-0.210937 -0.140625,-0.351562 0,-0.140625 0.05859,-0.433594 0.1875,-0.867188 l 1.652343,-5.5312496 c 0.1289,-0.4335938 0.1875,-0.6914063 0.1875,-0.7617188 0,-0.09375 -0.0352,-0.1640625 -0.10547,-0.234375 -0.0703,-0.058594 -0.19922,-0.082031 -0.35157,-0.082031 -0.0937,0 -0.22265,0.011719 -0.42187,0.035156 V 8.1783281 Z m 2.34082,3.0351559 -0.75,2.660157 c 0.77344,-1.078125 1.3711,-1.804688 1.78125,-2.144532 0.42188,-0.339843 0.82032,-0.515625 1.20704,-0.515625 0.19921,0 0.38671,0.08203 0.51562,0.222657 0.12892,0.140625 0.19922,0.316406 0.19922,0.550781 0,0.222656 -0.0703,0.539062 -0.1875,0.925781 l -0.80859,2.449219 c -0.0937,0.28125 -0.14063,0.457031 -0.14063,0.515625 0,0.04687 0.0117,0.09375 0.0469,0.128906 0.0234,0.03516 0.0586,0.04687 0.082,0.04687 0.0469,0 0.0937,-0.02344 0.15234,-0.07031 0.1875,-0.152344 0.38672,-0.410157 0.60938,-0.75 l 0.17578,0.128906 c -0.35157,0.503906 -0.66797,0.855469 -0.98438,1.078125 -0.21094,0.140625 -0.41015,0.210937 -0.57422,0.210937 -0.14062,0 -0.25781,-0.04687 -0.32812,-0.128906 -0.082,-0.08203 -0.12891,-0.199219 -0.12891,-0.351562 0,-0.175782 0.082,-0.503907 0.22266,-0.960938 l 0.78515,-2.34375 c 0.0937,-0.292969 0.15235,-0.515625 0.15235,-0.691406 0,-0.08203 -0.0352,-0.140625 -0.082,-0.1875 -0.0586,-0.04687 -0.12891,-0.07031 -0.19922,-0.07031 -0.11718,0 -0.26953,0.04687 -0.4336,0.140625 -0.3164,0.164063 -0.63281,0.457032 -0.98437,0.867188 -0.33983,0.410156 -0.69141,0.925781 -1.06641,1.546875 -0.21093,0.328125 -0.375,0.691406 -0.5039,1.078125 l -0.28125,0.972656 h -0.87891 l 1.06641,-3.679687 c 0.1289,-0.433594 0.1875,-0.703125 0.1875,-0.785157 0,-0.08203 -0.0352,-0.164062 -0.0937,-0.222656 -0.0703,-0.07031 -0.16407,-0.105469 -0.26953,-0.105469 -0.0352,0 -0.11719,0.01172 -0.23438,0.02344 l -0.22266,0.04687 -0.0586,-0.222656 z m 15.04688,-2.3437496 c 0.17578,0 0.30469,0.058594 0.42187,0.1640625 0.10547,0.1171875 0.17579,0.2578125 0.17579,0.421875 0,0.1523437 -0.0703,0.2929687 -0.17579,0.421875 -0.11718,0.1054687 -0.25781,0.1640625 -0.42187,0.1640625 -0.15234,0 -0.29297,-0.058594 -0.41016,-0.1640625 -0.11718,-0.1289063 -0.17578,-0.2695313 -0.17578,-0.421875 0,-0.1640625 0.0586,-0.3046875 0.17578,-0.421875 0.11719,-0.1054688 0.2461,-0.1640625 0.41016,-0.1640625 z m 0.25781,2.3203126 -1.23046,4.160156 c -0.082,0.28125 -0.1289,0.457031 -0.1289,0.503906 0,0.05859 0.0234,0.105469 0.0586,0.140625 0.0234,0.04687 0.0703,0.05859 0.11719,0.05859 0.0586,0 0.11719,-0.02344 0.1875,-0.08203 0.19922,-0.175781 0.41015,-0.421875 0.60937,-0.75 l 0.21094,0.140625 c -0.25781,0.386719 -0.5625,0.726562 -0.89062,0.996094 -0.26954,0.199218 -0.50391,0.292968 -0.73829,0.292968 -0.15234,0 -0.26953,-0.04687 -0.36328,-0.140625 -0.10547,-0.09375 -0.15234,-0.199218 -0.15234,-0.351562 0,-0.140625 0.0469,-0.398438 0.16406,-0.726563 l 0.8086,-2.648437 c 0.11718,-0.433594 0.1875,-0.703125 0.19921,-0.808594 0,-0.08203 -0.0352,-0.152344 -0.10546,-0.222656 -0.0586,-0.04687 -0.14063,-0.07031 -0.2461,-0.07031 -0.082,0 -0.26953,0.01172 -0.52734,0.05859 v -0.222656 z m 12.15821,-2.2968751 c 0.15235,0 0.29296,0.058594 0.41015,0.1640625 0.11719,0.1171875 0.17578,0.2695312 0.17578,0.421875 0,0.1640625 -0.0586,0.3164062 -0.17578,0.4335937 -0.11719,0.1054688 -0.25781,0.1640625 -0.41015,0.1640625 -0.17579,0 -0.3164,-0.058594 -0.4336,-0.1640625 -0.11719,-0.1171875 -0.17578,-0.2695312 -0.17578,-0.4335937 0,-0.1523438 0.0586,-0.3046875 0.17578,-0.421875 0.11719,-0.1054688 0.25781,-0.1640625 0.4336,-0.1640625 z m 0.0703,2.3203121 -1.51171,5.25 c -0.26954,0.9375 -0.64454,1.617188 -1.11329,2.027344 -0.46875,0.421875 -0.97265,0.621094 -1.52343,0.621094 -0.23438,0 -0.42188,-0.05859 -0.55078,-0.164063 -0.12891,-0.117187 -0.1875,-0.257812 -0.1875,-0.410156 0,-0.117187 0.0469,-0.222656 0.14062,-0.328125 0.0937,-0.08203 0.21094,-0.128906 0.32813,-0.128906 0.11718,0 0.21093,0.03516 0.29296,0.105469 0.082,0.05859 0.11719,0.140625 0.11719,0.210937 0,0.09375 -0.0469,0.1875 -0.15235,0.257813 -0.0586,0.03516 -0.082,0.07031 -0.082,0.105468 l 0.0117,0.03516 c 0.0117,0.01172 0.0234,0.02344 0.0469,0.03516 0.0234,0.01172 0.0586,0.01172 0.11719,0.01172 0.30469,0 0.58594,-0.105469 0.8086,-0.304688 0.22265,-0.199219 0.42187,-0.597656 0.59765,-1.207031 l 1.30078,-4.5 c 0.12891,-0.433594 0.1875,-0.691406 0.1875,-0.726563 0,-0.09375 -0.0469,-0.175781 -0.1289,-0.246093 -0.082,-0.07031 -0.17578,-0.117188 -0.31641,-0.117188 -0.0469,0 -0.10547,0 -0.17578,0.01172 -0.0469,0.01172 -0.11719,0.03516 -0.21094,0.04687 v -0.222656 z m 12.10255,0 -0.75,2.648438 c 0.33984,-0.621094 0.64453,-1.078125 0.87889,-1.394531 0.38672,-0.492188 0.76172,-0.84375 1.125,-1.054688 0.21094,-0.128906 0.43361,-0.199219 0.66797,-0.199219 0.1875,0 0.36328,0.07031 0.49219,0.199219 0.12891,0.128906 0.19922,0.292969 0.19922,0.503906 0,0.1875 -0.0469,0.433594 -0.14063,0.738282 l -0.45703,1.464843 c 0.67969,-1.183593 1.32422,-2.027343 1.92188,-2.507812 0.33984,-0.257813 0.65625,-0.398438 0.98437,-0.398438 0.1875,0 0.35156,0.08203 0.46875,0.210938 0.11719,0.128906 0.17578,0.328125 0.17578,0.621094 0,0.234375 -0.0351,0.457031 -0.11717,0.703125 l -0.72658,2.261718 c -0.16406,0.492188 -0.24609,0.773438 -0.24609,0.820313 0,0.05859 0.0234,0.09375 0.0469,0.140625 0.0234,0.02344 0.0469,0.03516 0.082,0.03516 0.0351,0 0.10546,-0.03516 0.19921,-0.105469 0.19922,-0.175781 0.38672,-0.398437 0.5625,-0.679687 l 0.1875,0.128906 c -0.0937,0.152344 -0.25781,0.351563 -0.49218,0.621094 -0.23438,0.269531 -0.44532,0.457031 -0.60938,0.539062 -0.16406,0.09375 -0.32812,0.140625 -0.46875,0.140625 -0.1289,0 -0.23437,-0.04687 -0.32812,-0.140625 -0.0937,-0.08203 -0.14063,-0.199218 -0.14063,-0.339843 0,-0.175782 0.0937,-0.5625 0.28125,-1.125 l 0.6211,-1.886719 c 0.1289,-0.433594 0.21093,-0.667969 0.21093,-0.714844 0.0352,-0.07031 0.0352,-0.140625 0.0352,-0.222656 0,-0.09375 -0.0352,-0.175781 -0.082,-0.222656 -0.0469,-0.05859 -0.10546,-0.08203 -0.16406,-0.08203 -0.17579,0 -0.36329,0.08203 -0.5625,0.246094 -0.57422,0.492188 -1.125,1.195313 -1.6289,2.085938 -0.33985,0.597656 -0.65625,1.347656 -0.9375,2.273437 h -0.89063 l 1.06641,-3.539062 c 0.11718,-0.386719 0.17578,-0.632813 0.17578,-0.773438 0,-0.105469 -0.0234,-0.175781 -0.0703,-0.234375 -0.0469,-0.04687 -0.0937,-0.07031 -0.16407,-0.07031 -0.1289,0 -0.26953,0.04687 -0.42187,0.140625 -0.23438,0.140625 -0.55078,0.480468 -0.92578,0.972656 -0.375,0.503906 -0.66797,0.984375 -0.87891,1.441406 -0.10546,0.210938 -0.33984,0.902344 -0.71484,2.0625 h -0.86719 l 1.10157,-3.796875 0.14062,-0.492187 c 0.0234,-0.07031 0.0352,-0.128907 0.0352,-0.164063 0,-0.08203 -0.0352,-0.164062 -0.11719,-0.222656 -0.0703,-0.08203 -0.17578,-0.117188 -0.30469,-0.117188 -0.0469,0 -0.1875,0.02344 -0.42187,0.08203 l -0.0469,-0.222657 z m 17.69824,0 -0.75,2.660157 c 0.77343,-1.078125 1.37109,-1.804688 1.78125,-2.144532 0.42187,-0.339843 0.82031,-0.515625 1.20703,-0.515625 0.19922,0 0.38672,0.08203 0.51562,0.222657 0.1289,0.140625 0.19921,0.316406 0.19921,0.550781 0,0.222656 -0.0703,0.539062 -0.1875,0.925781 l -0.80859,2.449219 c -0.0937,0.28125 -0.14062,0.457031 -0.14062,0.515625 0,0.04687 0.0117,0.09375 0.0469,0.128906 0.0234,0.03516 0.0586,0.04687 0.082,0.04687 0.0469,0 0.0937,-0.02344 0.15235,-0.07031 0.1875,-0.152344 0.38671,-0.410157 0.60937,-0.75 l 0.17578,0.128906 c -0.35156,0.503906 -0.66797,0.855469 -0.98437,1.078125 -0.21094,0.140625 -0.41016,0.210937 -0.57422,0.210937 -0.14063,0 -0.25781,-0.04687 -0.32813,-0.128906 -0.082,-0.08203 -0.1289,-0.199219 -0.1289,-0.351562 0,-0.175782 0.082,-0.503907 0.22265,-0.960938 l 0.78516,-2.34375 c 0.0937,-0.292969 0.15234,-0.515625 0.15234,-0.691406 0,-0.08203 -0.0351,-0.140625 -0.082,-0.1875 -0.0586,-0.04687 -0.12889,-0.07031 -0.19922,-0.07031 -0.11717,0 -0.26953,0.04687 -0.43359,0.140625 -0.31641,0.164063 -0.63281,0.457032 -0.98438,0.867188 -0.33984,0.410156 -0.69139,0.925781 -1.06639,1.546875 -0.21094,0.328125 -0.375,0.691406 -0.50391,1.078125 l -0.28125,0.972656 h -0.8789 l 1.0664,-3.679687 c 0.12891,-0.433594 0.1875,-0.703125 0.1875,-0.785157 0,-0.08203 -0.0352,-0.164062 -0.0937,-0.222656 -0.0703,-0.07031 -0.16407,-0.105469 -0.26953,-0.105469 -0.0352,0 -0.11719,0.01172 -0.23438,0.02344 l -0.22266,0.04687 -0.0586,-0.222656 z m 0,0"
         style="fill:#231f20;fill-opacity:1;fill-rule:nonzero;stroke:none" />
      <path
         id="path15"
         d="m 169.25945,8.0611406 h 2.57813 V 18.572859 h -2.57813 v -0.46875 h 1.69922 V 8.5298906 h -1.69922 z m 0,0"
         style="fill:#231f20;fill-opacity:1;fill-rule:nonzero;stroke:none" />
      <path
         id="path16"
         d="m 68.358086,31.425398 1.089844,0.140625 c -0.164063,0.644532 -0.492188,1.136719 -0.949219,1.476563 -0.46875,0.351562 -1.054688,0.527344 -1.769531,0.527344 -0.914063,0 -1.628907,-0.269532 -2.167969,-0.832032 -0.539063,-0.574218 -0.796875,-1.347656 -0.796875,-2.355468 0,-1.042969 0.257812,-1.863282 0.796875,-2.4375 0.550781,-0.574219 1.242187,-0.867188 2.109375,-0.867188 0.820312,0 1.5,0.292969 2.027344,0.855469 0.527343,0.5625 0.785156,1.359375 0.785156,2.390625 0,0.05859 0,0.152344 0,0.269531 h -4.640625 c 0.03516,0.691406 0.234375,1.207031 0.574219,1.570313 0.351562,0.363281 0.785156,0.550781 1.3125,0.550781 0.386718,0 0.703125,-0.117188 0.984375,-0.316406 0.269531,-0.199219 0.492187,-0.527344 0.644531,-0.972657 z m -3.457031,-1.6875 h 3.46875 c -0.04687,-0.527343 -0.175782,-0.914062 -0.398438,-1.183593 -0.328125,-0.410157 -0.761719,-0.609375 -1.300781,-0.609375 -0.480469,0 -0.890625,0.164062 -1.21875,0.492187 -0.328125,0.328125 -0.515625,0.761719 -0.550781,1.300781 z m 9.905273,3.703125 v -0.796875 c -0.398437,0.621094 -0.972656,0.925782 -1.746094,0.925782 -0.492187,0 -0.949218,-0.128907 -1.371093,-0.410157 -0.410157,-0.269531 -0.726563,-0.65625 -0.960938,-1.136718 -0.222656,-0.492188 -0.339844,-1.054688 -0.339844,-1.6875 0,-0.621094 0.105469,-1.195313 0.304688,-1.699219 0.210937,-0.503906 0.515625,-0.878906 0.925781,-1.148438 0.421875,-0.269531 0.878906,-0.410156 1.394531,-0.410156 0.375,0 0.703125,0.08203 0.996094,0.246094 0.304688,0.152344 0.539063,0.351562 0.714844,0.621094 v -3.09375 h 1.066406 v 8.589843 z m -3.339844,-3.105468 c 0,0.785156 0.164063,1.394531 0.503907,1.78125 0.339843,0.398437 0.726562,0.597656 1.183593,0.597656 0.46875,0 0.867188,-0.199219 1.195313,-0.574219 0.316406,-0.363281 0.480469,-0.9375 0.480469,-1.710937 0,-0.855469 -0.175782,-1.476563 -0.492188,-1.875 -0.339844,-0.398438 -0.738281,-0.597657 -1.21875,-0.597657 -0.480469,0 -0.855469,0.1875 -1.183594,0.574219 -0.316406,0.386719 -0.46875,0.984375 -0.46875,1.804688 z m 14.871094,-1.945313 h -5.671875 v -0.984375 h 5.671875 z m 0,2.601563 H 80.665703 V 30.00743 h 5.671875 z m 0,0"
         style="fill:#231f20;fill-opacity:1;fill-rule:nonzero;stroke:none" />
      <path
         id="path17"
         d="M 93.904961,35.81993 H 91.326836 V 25.308211 h 2.578125 v 0.46875 h -1.699219 v 9.574219 h 1.699219 z m 0,0"
         style="fill:#231f20;fill-opacity:1;fill-rule:nonzero;stroke:none" />
      <path
         id="path18"
         d="m 101.19402,29.995711 -0.71484,2.367187 c -0.0937,0.351563 -0.15234,0.574219 -0.15234,0.667969 0,0.04687 0,0.07031 0.0117,0.09375 0.0117,0.02344 0.0352,0.02344 0.0586,0.02344 0.0352,0 0.0703,-0.01172 0.10547,-0.04687 0.0469,-0.03516 0.15234,-0.199219 0.3164,-0.480469 l 0.11719,0.09375 c -0.17578,0.304687 -0.36328,0.539062 -0.55078,0.679687 -0.12891,0.08203 -0.25781,0.140625 -0.36328,0.140625 -0.09375,0 -0.164064,-0.03516 -0.222658,-0.09375 -0.04687,-0.05859 -0.07031,-0.128906 -0.07031,-0.210937 0,-0.09375 0.01172,-0.210938 0.04687,-0.351563 0.04687,-0.1875 0.175781,-0.597656 0.374998,-1.242187 -0.468748,0.726562 -0.855467,1.21875 -1.160155,1.488281 -0.304687,0.269531 -0.597656,0.410156 -0.855468,0.410156 -0.128907,0 -0.234375,-0.04687 -0.304688,-0.128906 -0.09375,-0.08203 -0.128906,-0.1875 -0.128906,-0.304687 0,-0.199219 0.05859,-0.503907 0.199219,-0.914063 l 0.410156,-1.207031 c 0.105469,-0.28125 0.152344,-0.457031 0.152344,-0.527344 0,-0.03516 -0.02344,-0.05859 -0.04687,-0.08203 -0.02344,-0.02344 -0.05859,-0.03516 -0.08203,-0.03516 -0.07031,0 -0.128906,0.01172 -0.199218,0.05859 -0.05859,0.03516 -0.210938,0.175782 -0.445313,0.433594 l -0.117187,-0.08203 c 0.210937,-0.304688 0.433593,-0.527344 0.667968,-0.679688 0.1875,-0.105468 0.351563,-0.164062 0.503907,-0.164062 0.105468,0 0.199218,0.04687 0.257812,0.117187 0.07031,0.07031 0.09375,0.164063 0.09375,0.28125 0,0.140625 -0.05859,0.386719 -0.175781,0.738282 l -0.433594,1.253906 c -0.105469,0.339844 -0.175781,0.550781 -0.175781,0.644531 0,0.04687 0.02344,0.08203 0.05859,0.117188 0.03516,0.02344 0.07031,0.04687 0.140625,0.04687 0.08203,0 0.199218,-0.04687 0.339843,-0.128907 0.140625,-0.09375 0.339844,-0.28125 0.574219,-0.574218 0.246094,-0.304688 0.433594,-0.585938 0.597658,-0.84375 0.15234,-0.246094 0.3164,-0.667969 0.48047,-1.230469 l 0.10547,-0.328125 z m 5.48438,0.867187 -1.25391,4.394532 c -0.082,0.246093 -0.11719,0.433593 -0.11719,0.550781 0,0.09375 0.0352,0.175781 0.0937,0.222656 0.0703,0.04687 0.22266,0.08203 0.48047,0.105469 l -0.0469,0.140625 h -2.00391 l 0.0469,-0.140625 c 0.21093,-0.01172 0.35156,-0.02344 0.42187,-0.04687 0.11719,-0.04687 0.1875,-0.117188 0.2461,-0.199219 0.0937,-0.117187 0.17578,-0.328125 0.26953,-0.632812 l 0.90234,-3.164063 c 0.0586,-0.1875 0.082,-0.292969 0.082,-0.328125 0.0117,-0.04687 0.0234,-0.09375 0.0234,-0.152344 0,-0.08203 -0.0234,-0.152343 -0.0703,-0.199218 -0.0586,-0.05859 -0.12891,-0.08203 -0.21094,-0.08203 -0.0703,0 -0.17578,0.01172 -0.31641,0.04687 l -0.0586,-0.140625 1.32422,-0.375 z m 13.51465,-0.867187 -0.71485,2.367187 c -0.0937,0.351563 -0.15234,0.574219 -0.15234,0.667969 0,0.04687 0,0.07031 0.0117,0.09375 0.0117,0.02344 0.0352,0.02344 0.0586,0.02344 0.0352,0 0.0703,-0.01172 0.10547,-0.04687 0.0469,-0.03516 0.15234,-0.199219 0.31641,-0.480469 l 0.11718,0.09375 c -0.17578,0.304687 -0.36328,0.539062 -0.55078,0.679687 -0.1289,0.08203 -0.25781,0.140625 -0.36328,0.140625 -0.0937,0 -0.16406,-0.03516 -0.22265,-0.09375 -0.0469,-0.05859 -0.0703,-0.128906 -0.0703,-0.210937 0,-0.09375 0.0117,-0.210938 0.0469,-0.351563 0.0469,-0.1875 0.17578,-0.597656 0.375,-1.242187 -0.46875,0.726562 -0.85547,1.21875 -1.16016,1.488281 -0.30469,0.269531 -0.59765,0.410156 -0.85547,0.410156 -0.1289,0 -0.23437,-0.04687 -0.30468,-0.128906 -0.0937,-0.08203 -0.12891,-0.1875 -0.12891,-0.304687 0,-0.199219 0.0586,-0.503907 0.19922,-0.914063 l 0.41015,-1.207031 c 0.10547,-0.28125 0.15235,-0.457031 0.15235,-0.527344 0,-0.03516 -0.0234,-0.05859 -0.0469,-0.08203 -0.0234,-0.02344 -0.0586,-0.03516 -0.082,-0.03516 -0.0703,0 -0.1289,0.01172 -0.19922,0.05859 -0.0586,0.03516 -0.21093,0.175782 -0.44531,0.433594 l -0.11719,-0.08203 c 0.21094,-0.304688 0.4336,-0.527344 0.66797,-0.679688 0.1875,-0.105468 0.35156,-0.164062 0.50391,-0.164062 0.10547,0 0.19922,0.04687 0.25781,0.117187 0.0703,0.07031 0.0937,0.164063 0.0937,0.28125 0,0.140625 -0.0586,0.386719 -0.17578,0.738282 l -0.43359,1.253906 c -0.10547,0.339844 -0.17579,0.550781 -0.17579,0.644531 0,0.04687 0.0234,0.08203 0.0586,0.117188 0.0352,0.02344 0.0703,0.04687 0.14062,0.04687 0.082,0 0.19922,-0.04687 0.33985,-0.128907 0.14062,-0.09375 0.33984,-0.28125 0.57422,-0.574218 0.24609,-0.304688 0.43359,-0.585938 0.59765,-0.84375 0.15235,-0.246094 0.31641,-0.667969 0.48047,-1.230469 l 0.10547,-0.328125 z m 4.92187,6.28125 h -2.64844 v -0.140625 c 1.34766,-1.183594 2.22657,-2.109375 2.66016,-2.777344 0.19922,-0.304687 0.30469,-0.632812 0.30469,-0.972656 0,-0.269531 -0.082,-0.492188 -0.25781,-0.667969 -0.16407,-0.164062 -0.375,-0.246094 -0.64454,-0.246094 -0.36328,0 -0.66796,0.175782 -0.90234,0.527344 l -0.14062,-0.07031 c 0.14062,-0.339844 0.32812,-0.597657 0.58593,-0.785157 0.25782,-0.1875 0.52735,-0.28125 0.83203,-0.28125 0.32813,0 0.60938,0.117188 0.84375,0.351563 0.23438,0.222656 0.33985,0.503906 0.33985,0.832031 0,0.234375 -0.0352,0.445313 -0.11719,0.644531 -0.12891,0.304688 -0.36328,0.644532 -0.69141,1.019532 -0.51562,0.585937 -1.19531,1.242187 -2.05078,2.003906 h 1.34766 c 0.21094,0 0.38672,-0.05859 0.52734,-0.140625 0.12891,-0.09375 0.23438,-0.199219 0.29297,-0.351563 h 0.16406 z m 14.08008,-6.28125 -0.71484,2.367187 c -0.0937,0.351563 -0.15235,0.574219 -0.15235,0.667969 0,0.04687 0,0.07031 0.0117,0.09375 0.0117,0.02344 0.0352,0.02344 0.0586,0.02344 0.0352,0 0.0703,-0.01172 0.10547,-0.04687 0.0469,-0.03516 0.15235,-0.199219 0.31641,-0.480469 l 0.11719,0.09375 c -0.17578,0.304687 -0.36328,0.539062 -0.55078,0.679687 -0.12891,0.08203 -0.25782,0.140625 -0.36329,0.140625 -0.0937,0 -0.16406,-0.03516 -0.22265,-0.09375 -0.0469,-0.05859 -0.0703,-0.128906 -0.0703,-0.210937 0,-0.09375 0.0117,-0.210938 0.0469,-0.351563 0.0469,-0.1875 0.17578,-0.597656 0.375,-1.242187 -0.46875,0.726562 -0.85547,1.21875 -1.16016,1.488281 -0.30468,0.269531 -0.59765,0.410156 -0.85546,0.410156 -0.12891,0 -0.23438,-0.04687 -0.30469,-0.128906 -0.0937,-0.08203 -0.12891,-0.1875 -0.12891,-0.304687 0,-0.199219 0.0586,-0.503907 0.19922,-0.914063 l 0.41016,-1.207031 c 0.10547,-0.28125 0.15234,-0.457031 0.15234,-0.527344 0,-0.03516 -0.0234,-0.05859 -0.0469,-0.08203 -0.0234,-0.02344 -0.0586,-0.03516 -0.082,-0.03516 -0.0703,0 -0.1289,0.01172 -0.19921,0.05859 -0.0586,0.03516 -0.21094,0.175782 -0.44532,0.433594 l -0.11718,-0.08203 c 0.21093,-0.304688 0.43359,-0.527344 0.66796,-0.679688 0.1875,-0.105468 0.35157,-0.164062 0.50391,-0.164062 0.10547,0 0.19922,0.04687 0.25781,0.117187 0.0703,0.07031 0.0937,0.164063 0.0937,0.28125 0,0.140625 -0.0586,0.386719 -0.17578,0.738282 l -0.43359,1.253906 c -0.10547,0.339844 -0.17578,0.550781 -0.17578,0.644531 0,0.04687 0.0234,0.08203 0.0586,0.117188 0.0352,0.02344 0.0703,0.04687 0.14063,0.04687 0.082,0 0.19921,-0.04687 0.33984,-0.128907 0.14062,-0.09375 0.33984,-0.28125 0.57422,-0.574218 0.24609,-0.304688 0.43359,-0.585938 0.59765,-0.84375 0.15235,-0.246094 0.31641,-0.667969 0.48047,-1.230469 l 0.10547,-0.328125 z m 3.36328,3.386719 v -0.117188 c 0.63281,-0.09375 1.10156,-0.28125 1.41797,-0.5625 0.22266,-0.199219 0.32812,-0.433594 0.32812,-0.703125 0,-0.210937 -0.0586,-0.386719 -0.1875,-0.515625 -0.14062,-0.140625 -0.29296,-0.199219 -0.46875,-0.199219 -0.30468,0 -0.55078,0.175782 -0.78515,0.539063 l -0.14063,-0.04687 c 0.14063,-0.304688 0.31641,-0.527344 0.52735,-0.679688 0.21093,-0.152343 0.44531,-0.234375 0.6914,-0.234375 0.31641,0 0.5625,0.09375 0.73828,0.28125 0.19922,0.175782 0.29297,0.410157 0.29297,0.691407 0,0.234375 -0.082,0.46875 -0.25781,0.691406 -0.1875,0.222656 -0.49219,0.421875 -0.9375,0.597656 0.28125,0.105469 0.48047,0.269531 0.62109,0.480469 0.14063,0.210937 0.21094,0.457031 0.21094,0.761719 0,0.316406 -0.10547,0.644531 -0.28125,0.972656 -0.19922,0.328125 -0.44531,0.574219 -0.77344,0.761719 -0.32812,0.175781 -0.67968,0.269531 -1.04296,0.269531 -0.32813,0 -0.57422,-0.05859 -0.73829,-0.175781 -0.11718,-0.08203 -0.16406,-0.175782 -0.16406,-0.28125 0,-0.08203 0.0234,-0.164063 0.0937,-0.234375 0.0703,-0.05859 0.15235,-0.09375 0.2461,-0.09375 0.0703,0 0.14062,0.01172 0.19921,0.03516 0.0469,0.01172 0.14063,0.05859 0.31641,0.164062 0.15234,0.08203 0.28125,0.152344 0.375,0.175782 0.0937,0.02344 0.1875,0.04687 0.28125,0.04687 0.23438,0 0.43359,-0.140625 0.57422,-0.410157 0.15234,-0.269531 0.23437,-0.5625 0.23437,-0.878906 0,-0.246094 -0.0469,-0.46875 -0.15234,-0.65625 -0.10547,-0.199219 -0.25781,-0.351562 -0.48047,-0.46875 -0.22265,-0.128906 -0.46875,-0.199219 -0.73828,-0.210937 z m 14.63672,-3.386719 -0.71484,2.367187 c -0.0937,0.351563 -0.15235,0.574219 -0.15235,0.667969 0,0.04687 0,0.07031 0.0117,0.09375 0.0117,0.02344 0.0352,0.02344 0.0586,0.02344 0.0352,0 0.0703,-0.01172 0.10547,-0.04687 0.0469,-0.03516 0.15235,-0.199219 0.31641,-0.480469 l 0.11719,0.09375 c -0.17578,0.304687 -0.36328,0.539062 -0.55078,0.679687 -0.12891,0.08203 -0.25782,0.140625 -0.36329,0.140625 -0.0937,0 -0.16406,-0.03516 -0.22265,-0.09375 -0.0469,-0.05859 -0.0703,-0.128906 -0.0703,-0.210937 0,-0.09375 0.0117,-0.210938 0.0469,-0.351563 0.0469,-0.1875 0.17578,-0.597656 0.375,-1.242187 -0.46875,0.726562 -0.85547,1.21875 -1.16016,1.488281 -0.30468,0.269531 -0.59765,0.410156 -0.85546,0.410156 -0.12891,0 -0.23438,-0.04687 -0.30469,-0.128906 -0.0937,-0.08203 -0.12891,-0.1875 -0.12891,-0.304687 0,-0.199219 0.0586,-0.503907 0.19922,-0.914063 l 0.41016,-1.207031 c 0.10547,-0.28125 0.15234,-0.457031 0.15234,-0.527344 0,-0.03516 -0.0234,-0.05859 -0.0469,-0.08203 -0.0234,-0.02344 -0.0586,-0.03516 -0.082,-0.03516 -0.0703,0 -0.1289,0.01172 -0.19921,0.05859 -0.0586,0.03516 -0.21094,0.175782 -0.44532,0.433594 l -0.11718,-0.08203 c 0.21093,-0.304688 0.43359,-0.527344 0.66796,-0.679688 0.1875,-0.105468 0.35157,-0.164062 0.50391,-0.164062 0.10547,0 0.19922,0.04687 0.25781,0.117187 0.0703,0.07031 0.0937,0.164063 0.0937,0.28125 0,0.140625 -0.0586,0.386719 -0.17578,0.738282 l -0.43359,1.253906 c -0.10547,0.339844 -0.17578,0.550781 -0.17578,0.644531 0,0.04687 0.0234,0.08203 0.0586,0.117188 0.0352,0.02344 0.0703,0.04687 0.14063,0.04687 0.082,0 0.19921,-0.04687 0.33984,-0.128907 0.14062,-0.09375 0.33984,-0.28125 0.57422,-0.574218 0.24609,-0.304688 0.43359,-0.585938 0.59765,-0.84375 0.15235,-0.246094 0.31641,-0.667969 0.48047,-1.230469 l 0.10547,-0.328125 z m 6.04687,0.972656 -1.00781,3.480469 h 0.6211 l -0.14063,0.492187 h -0.63281 l -0.41016,1.429688 h -0.57422 l 0.42188,-1.429688 h -1.9336 l 0.17579,-0.550781 3.17578,-3.421875 z m -0.8789,1.007813 -2.27344,2.472656 h 1.55859 z m 0,0"
         style="fill:#231f20;fill-opacity:1;fill-rule:nonzero;stroke:none" />
      <path
         id="path19"
         d="m 166.78387,25.308211 h 2.57812 V 35.81993 h -2.57812 v -0.46875 h 1.69922 v -9.574219 h -1.69922 z m 0,0"
         style="fill:#231f20;fill-opacity:1;fill-rule:nonzero;stroke:none" />
      <path
         id="path20"
         d="m -111.56574,70.902938 c 0.25781,0 0.46875,0.09375 0.65625,0.246093 0.16406,0.1875 0.24609,0.398438 0.24609,0.632813 0,0.257812 -0.082,0.46875 -0.26953,0.644531 -0.16406,0.164063 -0.375,0.257813 -0.63281,0.257813 -0.22266,0 -0.44531,-0.09375 -0.6211,-0.257813 -0.16406,-0.175781 -0.25781,-0.386719 -0.25781,-0.644531 0,-0.234375 0.0937,-0.445313 0.25781,-0.632813 0.17579,-0.152343 0.39844,-0.246093 0.6211,-0.246093 z m 0,8.000976 c 0.25781,0 0.46875,0.09375 0.65625,0.246094 0.16406,0.1875 0.24609,0.398437 0.24609,0.632812 0,0.257813 -0.082,0.46875 -0.26953,0.644532 -0.16406,0.164062 -0.375,0.257812 -0.63281,0.257812 -0.22266,0 -0.44531,-0.09375 -0.6211,-0.257812 -0.16406,-0.175782 -0.25781,-0.386719 -0.25781,-0.644532 0,-0.234375 0.0937,-0.445312 0.25781,-0.632812 0.17579,-0.152344 0.39844,-0.246094 0.6211,-0.246094 z m 0,7.998047 c 0.25781,0 0.46875,0.09375 0.65625,0.246094 0.16406,0.1875 0.24609,0.398437 0.24609,0.632812 0,0.257813 -0.082,0.46875 -0.26953,0.644531 -0.16406,0.164063 -0.375,0.257813 -0.63281,0.257813 -0.22266,0 -0.44531,-0.09375 -0.6211,-0.257813 -0.16406,-0.175781 -0.25781,-0.386718 -0.25781,-0.644531 0,-0.234375 0.0937,-0.445312 0.25781,-0.632812 0.17579,-0.152344 0.39844,-0.246094 0.6211,-0.246094 z m 0,0"
         style="fill:#231f20;fill-opacity:1;fill-rule:nonzero;stroke:none" />
    </g>
    <path
       id="path21"
       d="m 1.4890375,-1.5823281 c 0.2578125,0 0.46875,0.09375 0.65625,0.2460937 0.1640625,0.1875 0.2460937,0.39843752 0.2460937,0.63281252 0,0.2578125 -0.082031,0.46875 -0.2695312,0.64453125 -0.1640625,0.1640625 -0.375,0.2578125 -0.6328125,0.2578125 -0.2226563,0 -0.4453125,-0.09375 -0.62109375,-0.2578125 -0.1640625,-0.17578125 -0.2578125,-0.38671875 -0.2578125,-0.64453125 0,-0.234375 0.09375,-0.44531252 0.2578125,-0.63281252 C 1.043725,-1.4885781 1.2663812,-1.5823281 1.4890375,-1.5823281 Z m 0,8.0009765 c 0.2578125,0 0.46875,0.09375 0.65625,0.2460938 0.1640625,0.1875 0.2460937,0.3984375 0.2460937,0.6328125 0,0.2578125 -0.082031,0.46875 -0.2695312,0.6445312 -0.1640625,0.1640625 -0.375,0.2578125 -0.6328125,0.2578125 -0.2226563,0 -0.4453125,-0.09375 -0.62109375,-0.2578125 -0.1640625,-0.1757812 -0.2578125,-0.3867187 -0.2578125,-0.6445312 0,-0.234375 0.09375,-0.4453125 0.2578125,-0.6328125 C 1.043725,6.5123984 1.2663812,6.4186484 1.4890375,6.4186484 Z m 0,7.9980466 c 0.2578125,0 0.46875,0.09375 0.65625,0.246094 0.1640625,0.1875 0.2460937,0.398438 0.2460937,0.632813 0,0.257812 -0.082031,0.46875 -0.2695312,0.644531 -0.1640625,0.164062 -0.375,0.257812 -0.6328125,0.257812 -0.2226563,0 -0.4453125,-0.09375 -0.62109375,-0.257812 -0.1640625,-0.175781 -0.2578125,-0.386719 -0.2578125,-0.644531 0,-0.234375 0.09375,-0.445313 0.2578125,-0.632813 C 1.043725,14.510445 1.2663812,14.416695 1.4890375,14.416695 Z M 1.1111078,-53.713188 c 0.2578125,0 0.46875,0.09375 0.65625,0.246094 0.1640625,0.1875 0.2460938,0.398438 0.2460938,0.632813 0,0.257812 -0.082031,0.46875 -0.2695313,0.644531 -0.1640625,0.164062 -0.375,0.257812 -0.6328125,0.257812 -0.22265624,0 -0.44531249,-0.09375 -0.62109374,-0.257812 -0.1640625,-0.175781 -0.2578125,-0.386719 -0.2578125,-0.644531 0,-0.234375 0.09375,-0.445313 0.2578125,-0.632813 0.17578125,-0.152344 0.3984375,-0.246094 0.62109374,-0.246094 z m 0,8.000977 c 0.2578125,0 0.46875,0.09375 0.65625,0.246094 0.1640625,0.1875 0.2460938,0.398437 0.2460938,0.632812 0,0.257813 -0.082031,0.46875 -0.2695313,0.644532 -0.1640625,0.164062 -0.375,0.257812 -0.6328125,0.257812 -0.22265624,0 -0.44531249,-0.09375 -0.62109374,-0.257812 -0.1640625,-0.175782 -0.2578125,-0.386719 -0.2578125,-0.644532 0,-0.234375 0.09375,-0.445312 0.2578125,-0.632812 0.17578125,-0.152344 0.3984375,-0.246094 0.62109374,-0.246094 z m 0,0"
       style="fill:#231f20;fill-opacity:1;fill-rule:nonzero;stroke:none"
       aria-label=".&#10;.&#10;.&#10;.&#10;."
       transform="matrix(-1.3333333,0,0,-1.3333333,27.454133,45.538667)" />
  </g>
</svg>
