<?xml version="1.0" encoding="UTF-8" standalone="no"?>
<!-- Created with Inkscape (http://www.inkscape.org/) -->

<svg
   version="1.1"
   id="svg1"
   width="343.67999"
   height="202.53333"
   viewBox="0 0 343.67999 202.53333"
   sodipodi:docname="f14.eps"
   xmlns:inkscape="http://www.inkscape.org/namespaces/inkscape"
   xmlns:sodipodi="http://sodipodi.sourceforge.net/DTD/sodipodi-0.dtd"
   xmlns="http://www.w3.org/2000/svg"
   xmlns:svg="http://www.w3.org/2000/svg">
  <defs
     id="defs1" />
  <sodipodi:namedview
     id="namedview1"
     pagecolor="#ffffff"
     bordercolor="#000000"
     borderopacity="0.25"
     inkscape:showpageshadow="2"
     inkscape:pageopacity="0.0"
     inkscape:pagecheckerboard="0"
     inkscape:deskcolor="#d1d1d1">
    <inkscape:page
       x="0"
       y="0"
       inkscape:label="1"
       id="page1"
       width="343.67999"
       height="202.53333"
       margin="0"
       bleed="0" />
  </sodipodi:namedview>
  <g
     id="g1"
     inkscape:groupmode="layer"
     inkscape:label="1">
    <path
       id="path1"
       d="m 1948.25,1290.25 -1049,29 -359,-741 1606,-280 -198,992"
       style="fill:#e9e9e9;fill-opacity:1;fill-rule:nonzero;stroke:none"
       transform="matrix(0.13333333,0,0,-0.13333333,0,202.53333)" />
    <path
       id="path2"
       d="m 1948.25,1290.25 -1049,29 -359,-741 1606,-280 z"
       style="fill:none;stroke:#231f20;stroke-width:5;stroke-linecap:butt;stroke-linejoin:miter;stroke-miterlimit:3.8637;stroke-dasharray:none;stroke-opacity:1"
       transform="matrix(0.13333333,0,0,-0.13333333,0,202.53333)" />
    <g
       id="g2"
       aria-label="T&#10;2&#10;T&#10;4&#10;T&#10;1&#10;●&#10;(x&#10;1&#10;,y&#10;1&#10;)&#10;●&#10;●&#10;(x&#10;4&#10;,y&#10;4&#10;)&#10;(x&#10;2&#10;,y&#10;2&#10;)&#10;T&#10;3&#10;●&#10;(x&#10;3&#10;,y&#10;3&#10;)&#10;x&#10;y"
       transform="matrix(1.3333333,0,0,1.3333333,281.9,182.1)">
      <path
         id="path3"
         d="M 5.0613281,-5.2253906 H 0.80742188 l -0.33984375,1.2304687 0.15234375,0.035156 C 1.0417969,-4.8269531 1.2996094,-4.9558594 2.5183594,-4.9441406 l -1.1484375,4.23046873 c -0.1289063,0.421875 -0.328125,0.55078125 -0.85546877,0.5859375 V 0.00117188 H 2.8347656 v -0.12890625 c -0.6796875,-0.0585938 -0.7148437,-0.0703125 -0.7148437,-0.36328125 0,-0.10546875 0.011719,-0.17578125 0.09375,-0.46875 L 3.3269531,-4.9441406 h 0.4453125 c 0.5742188,0 0.8320313,0.1992187 0.8320313,0.6445312 0,0.1054688 -0.011719,0.2226563 -0.023437,0.3632813 l 0.1289062,0.011719 z M 9.8982422,1.8878906 C 9.7107422,2.2863281 9.5583984,2.3800781 9.1130859,2.3917969 H 7.5896484 V 2.3566406 L 9.1248047,0.82148438 c 0.9375003,-0.9375 1.1953123,-1.34765625 1.1953123,-1.87499998 0,-0.7617188 -0.5742186,-1.359375 -1.3007811,-1.359375 -0.2929687,0 -0.5859375,0.070312 -0.8203125,0.2109375 -0.4101562,0.2226562 -0.6328125,0.4921875 -0.8554687,1.078125 l 0.1640625,0.046875 c 0.2929687,-0.515625 0.6445312,-0.75 1.125,-0.75 0.5742187,0 0.9960937,0.421875 0.9960937,0.97265623 0,0.17578125 -0.023437,0.328125 -0.070312,0.43359375 -0.1992187,0.43359375 -0.5625,0.9375 -1.078125,1.48828122 l -1.6875,1.7929688 v 0.140625 H 9.6404297 L 10.038867,1.9464844 Z M -116.33613,-129.12773 h -4.25391 l -0.33984,1.23046 0.15234,0.0352 c 0.42188,-0.86719 0.67969,-0.99609 1.89844,-0.98437 l -1.14844,4.23046 c -0.12891,0.42188 -0.32812,0.55079 -0.85547,0.58594 v 0.12891 h 2.32031 v -0.12891 c -0.67968,-0.0586 -0.71484,-0.0703 -0.71484,-0.36328 0,-0.10547 0.0117,-0.17578 0.0937,-0.46875 l 1.11328,-3.98437 h 0.44531 c 0.57422,0 0.83204,0.19921 0.83204,0.64453 0,0.10547 -0.0117,0.22265 -0.0234,0.36328 l 0.1289,0.0117 z m 5.25586,6.29296 h -0.75 l 0.96093,-3.48046 h -0.32812 l -3.33984,3.45703 -0.15235,0.52734 h 2.09766 l -0.39844,1.42969 h 0.63281 l 0.375,-1.40625 h 0.79688 z m -1.40625,0 h -1.69922 v -0.0234 l 2.4375,-2.55469 h 0.0352 z m -45.35157,90.50684 h -4.2539 l -0.33985,1.230469 0.15235,0.03516 c 0.42187,-0.867187 0.67969,-0.996093 1.89844,-0.984375 l -1.14844,4.230469 c -0.12891,0.421875 -0.32813,0.550781 -0.85547,0.585938 v 0.128906 h 2.32031 v -0.128906 c -0.67969,-0.05859 -0.71484,-0.07031 -0.71484,-0.363282 0,-0.105468 0.0117,-0.175781 0.0937,-0.46875 l 1.11328,-3.984375 h 0.44531 c 0.57422,0 0.83203,0.199219 0.83203,0.644532 0,0.105468 -0.0117,0.222656 -0.0234,0.363281 l 0.1289,0.01172 z m 2.02442,8.226563 h 2.23828 v -0.117188 h -0.14063 c -0.38671,0 -0.55078,-0.07031 -0.55078,-0.257812 0,-0.07031 0.0234,-0.1875 0.0937,-0.421875 0.0234,-0.04687 0.0352,-0.09375 0.0586,-0.175781 l 1.13672,-4.148438 c 0.0469,-0.140625 0.0469,-0.199219 0.0469,-0.234375 0,-0.03516 -0.0117,-0.05859 -0.0352,-0.05859 0,0 -0.22265,0.04687 -0.65625,0.128907 l -0.72656,0.152343 c -0.0117,0 -0.0703,0.01172 -0.16406,0.02344 v 0.117187 l 0.45703,-0.01172 c 0.1875,-0.01172 0.30469,0.09375 0.30469,0.246093 0,0.05859 -0.0117,0.117188 -0.0586,0.28125 l -1.10156,3.9375 c -0.0937,0.292969 -0.26953,0.375 -0.90234,0.421875 z m 0,0"
         style="fill:#231f20;fill-opacity:1;fill-rule:nonzero;stroke:none" />
      <path
         id="path4"
         d="m -160.33711,-39.101367 v -6.492188 h 3.375 v 6.492188 z m 0.5625,-0.5625 h 2.25 v -5.367188 h -2.25 z m 0,0"
         style="fill:#231f20;fill-opacity:1;fill-rule:nonzero;stroke:none" />
      <path
         id="path5"
         d="m -184.38984,-49.402148 c -0.44532,-1.21875 -0.57422,-1.957032 -0.57422,-3.117188 0,-1.453125 0.32812,-3.164062 0.89062,-4.5 0.39844,-0.949219 0.77344,-1.511719 1.5586,-2.332031 l -0.16407,-0.175781 c -1.55859,1.417968 -2.16796,2.203125 -2.67187,3.457031 -0.31641,0.75 -0.44531,1.488281 -0.44531,2.414062 0,0.925782 0.14062,1.816407 0.41015,2.648438 0.16407,0.503906 0.35157,0.890625 0.77344,1.675781 z m 6.91406,-3.433594 c -0.10547,0.117187 -0.16406,0.1875 -0.26953,0.328125 -0.26953,0.363281 -0.42188,0.480469 -0.5625,0.480469 -0.16406,0 -0.28125,-0.152344 -0.36328,-0.492188 -0.0352,-0.128906 -0.0352,-0.152344 -0.0469,-0.1875 -0.29297,-1.230469 -0.43359,-1.78125 -0.43359,-1.957031 0.53906,-0.9375 0.96094,-1.453125 1.18359,-1.453125 0.0703,0 0.17578,0.03516 0.28125,0.09375 0.15235,0.08203 0.23438,0.105469 0.33985,0.105469 0.23437,0 0.41015,-0.175782 0.41015,-0.433594 0,-0.257813 -0.21094,-0.445313 -0.49219,-0.445313 -0.52734,0 -0.97265,0.433594 -1.8164,1.722657 l -0.12891,-0.65625 c -0.16406,-0.820313 -0.30469,-1.066407 -0.62109,-1.066407 -0.28125,0 -0.66797,0.105469 -1.40625,0.351563 -0.0703,0.02344 -0.0703,0.02344 -0.12891,0.04687 l 0.0469,0.1875 c 0.46875,-0.128906 0.55078,-0.140625 0.66797,-0.140625 0.30468,0 0.375,0.117187 0.53906,0.832031 l 0.35156,1.476563 -0.98437,1.40625 c -0.25782,0.351562 -0.48047,0.574218 -0.60938,0.574218 -0.082,0 -0.19922,-0.03516 -0.31641,-0.105468 -0.15234,-0.09375 -0.28125,-0.128907 -0.38671,-0.128907 -0.23438,0 -0.41016,0.1875 -0.41016,0.421875 0,0.316407 0.23437,0.503907 0.60937,0.503907 0.36329,0 0.51563,-0.105469 1.11329,-0.820313 0.3164,-0.398437 0.58593,-0.761719 1.07812,-1.417969 l 0.36328,1.441407 c 0.15235,0.621093 0.30469,0.796875 0.69141,0.796875 0.45703,0 0.77344,-0.28125 1.46484,-1.359375 z m 1.16308,4.335937 h 3.35157 v -0.175781 h -0.21094 c -0.58594,0 -0.82031,-0.117187 -0.82031,-0.386719 0,-0.105468 0.0351,-0.292968 0.14062,-0.621093 0.0234,-0.09375 0.0352,-0.152344 0.0703,-0.269532 l 1.72266,-6.222656 c 0.0586,-0.222656 0.0703,-0.292969 0.0703,-0.351562 0,-0.04687 -0.0234,-0.08203 -0.0586,-0.08203 0,0 -0.33984,0.05859 -0.98438,0.1875 l -1.07812,0.222657 c -0.0234,0.01172 -0.11719,0.02344 -0.25781,0.04687 v 0.175781 l 0.67968,-0.02344 c 0.28125,-0.01172 0.45704,0.128907 0.45704,0.375 0,0.08203 -0.0234,0.164063 -0.082,0.410157 l -1.65234,5.894531 c -0.14062,0.445312 -0.39844,0.5625 -1.34766,0.65625 z m 3.47168,-1.453125 c 1.01954,-0.5625 1.5586,-1.230468 1.5586,-1.910156 0,-0.480469 -0.29297,-0.84375 -0.69141,-0.84375 -0.35156,0 -0.60937,0.234375 -0.60937,0.550781 0,0.222657 0.0703,0.339844 0.29297,0.550782 0.1875,0.164062 0.24609,0.257812 0.24609,0.386718 0,0.316407 -0.26953,0.644532 -0.90234,1.066407 z m 3.11719,-6.351562 c 0.15235,-0.03516 0.2461,-0.04687 0.375,-0.04687 0.49219,0 0.72656,0.199219 0.96094,0.84375 0.32812,0.890625 0.94922,3.457031 0.94922,3.914062 0,0.1875 -0.082,0.386719 -0.25781,0.609375 -0.32813,0.445313 -0.60938,0.785157 -0.75,0.9375 -0.25782,0.257813 -0.38672,0.363282 -0.53907,0.363282 -0.082,0 -0.15234,-0.03516 -0.29297,-0.140625 -0.17578,-0.140625 -0.29296,-0.199219 -0.44531,-0.199219 -0.25781,0 -0.46875,0.199219 -0.46875,0.46875 0,0.316406 0.25781,0.527344 0.6211,0.527344 0.76171,0 2.32031,-1.792969 3.63281,-4.171875 0.82031,-1.476563 1.14844,-2.34375 1.14844,-2.929688 0,-0.363281 -0.29297,-0.667969 -0.65625,-0.667969 -0.28125,0 -0.46875,0.1875 -0.46875,0.445313 0,0.199219 0.0937,0.316406 0.33984,0.46875 0.22266,0.140625 0.30469,0.246094 0.30469,0.410156 0,0.480469 -0.4336,1.40625 -1.46485,3.105469 l -0.23437,-1.394531 c -0.1875,-1.066407 -0.85547,-3.035157 -1.03125,-3.035157 h -0.0469 c -0.0234,0.01172 -0.0586,0.01172 -0.11718,0.01172 -0.0937,0.01172 -0.53907,0.09375 -1.17188,0.210938 -0.0586,0.01172 -0.21094,0.04687 -0.38672,0.07031 z m 5.70996,7.804687 h 3.35157 v -0.175781 h -0.21094 c -0.58594,0 -0.82031,-0.117187 -0.82031,-0.386719 0,-0.105468 0.0351,-0.292968 0.14062,-0.621093 0.0234,-0.09375 0.0352,-0.152344 0.0703,-0.269532 l 1.72266,-6.222656 c 0.0586,-0.222656 0.0703,-0.292969 0.0703,-0.351562 0,-0.04687 -0.0234,-0.08203 -0.0586,-0.08203 0,0 -0.33985,0.05859 -0.98438,0.1875 l -1.07812,0.222657 c -0.0234,0.01172 -0.11719,0.02344 -0.25781,0.04687 v 0.175781 l 0.67968,-0.02344 c 0.28125,-0.01172 0.45703,0.128907 0.45703,0.375 0,0.08203 -0.0234,0.164063 -0.082,0.410157 l -1.65234,5.894531 c -0.14063,0.445312 -0.39844,0.5625 -1.34766,0.65625 z m 3.76465,-0.84375 c 1.48828,-1.289062 2.09766,-2.074218 2.63672,-3.363281 0.33984,-0.796875 0.48047,-1.558594 0.48047,-2.449219 0,-0.691406 -0.0937,-1.441406 -0.26953,-2.167968 -0.19922,-0.808594 -0.375,-1.242188 -0.91406,-2.203125 l -0.23438,0.05859 c 0.41016,0.972657 0.58594,1.945313 0.58594,3.140625 0,1.523438 -0.41016,3.457032 -1.00781,4.757813 -0.33985,0.773437 -0.70313,1.277344 -1.44141,2.050781 z m 0,0"
         style="fill:#231f20;fill-opacity:1;fill-rule:nonzero;stroke:none" />
      <path
         id="path6"
         d="m -124.43672,-113.09941 v -6.49219 h 3.375 v 6.49219 z m 0.5625,-0.5625 h 2.25 v -5.36719 h -2.25 z M 0.16289063,-11.401172 v -6.492187 H 3.5378906 v 6.492187 z m 0.5625,-0.5625 H 2.9753906 v -5.367187 H 0.72539063 Z m 0,0"
         style="fill:#231f20;fill-opacity:1;fill-rule:nonzero;stroke:none" />
      <path
         id="path7"
         d="m -161.92207,-107.59453 c -0.30469,-0.82031 -0.38672,-1.3125 -0.38672,-2.08594 0,-0.97265 0.22266,-2.10937 0.59766,-3 0.26953,-0.63281 0.51562,-1.00781 1.03125,-1.55859 l -0.10547,-0.11719 c -1.04297,0.94922 -1.44141,1.47656 -1.78125,2.30859 -0.21094,0.50391 -0.29297,0.98438 -0.29297,1.60547 0,0.6211 0.0937,1.21875 0.26953,1.76953 0.10547,0.33985 0.23438,0.59766 0.51563,1.125 z m 5.94141,-2.29688 c -0.0703,0.0703 -0.10547,0.11719 -0.17579,0.22266 -0.1875,0.23438 -0.28125,0.31641 -0.38671,0.31641 -0.10547,0 -0.17579,-0.10547 -0.23438,-0.32813 -0.0234,-0.0937 -0.0234,-0.10547 -0.0352,-0.1289 -0.19921,-0.82032 -0.28125,-1.1836 -0.28125,-1.30079 0.35157,-0.63281 0.63282,-0.97265 0.78516,-0.97265 0.0469,0 0.11719,0.0234 0.1875,0.0703 0.0937,0.0469 0.15234,0.0703 0.22266,0.0703 0.16406,0 0.26953,-0.1289 0.26953,-0.29297 0,-0.17578 -0.12891,-0.29296 -0.32813,-0.29296 -0.35156,0 -0.64453,0.28125 -1.20703,1.13671 l -0.082,-0.43359 c -0.11719,-0.55078 -0.19922,-0.70312 -0.42187,-0.70312 -0.1875,0 -0.4336,0.0586 -0.9375,0.23437 -0.0469,0.0117 -0.0469,0.0117 -0.082,0.0234 l 0.0234,0.1289 c 0.31641,-0.082 0.375,-0.0937 0.45703,-0.0937 0.19922,0 0.2461,0.0703 0.35157,0.55079 l 0.23437,0.98437 -0.65625,0.9375 c -0.16406,0.24609 -0.31641,0.38672 -0.41016,0.38672 -0.0469,0 -0.1289,-0.0234 -0.19921,-0.0703 -0.10547,-0.0586 -0.1875,-0.082 -0.25782,-0.082 -0.16406,0 -0.26953,0.11718 -0.26953,0.28125 0,0.21093 0.15235,0.33984 0.39844,0.33984 0.24609,0 0.33984,-0.082 0.73828,-0.5625 0.22266,-0.25781 0.39844,-0.50391 0.72656,-0.9375 l 0.23438,0.96094 c 0.10547,0.41015 0.21094,0.53906 0.46875,0.53906 0.30469,0 0.51562,-0.19922 0.97265,-0.91406 z m 5.80078,1.95704 h -0.75 l 0.96093,-3.48047 h -0.32812 l -3.33984,3.45703 -0.15235,0.52734 h 2.09766 l -0.39844,1.42969 h 0.63281 l 0.375,-1.40625 h 0.79688 z m -1.40625,0 h -1.69922 v -0.0234 l 2.4375,-2.55469 h 0.0351 z m 1.82226,-0.0352 c 0.67969,-0.375 1.04297,-0.82031 1.04297,-1.26563 0,-0.32812 -0.19922,-0.57421 -0.45703,-0.57421 -0.23437,0 -0.41016,0.16406 -0.41016,0.36328 0,0.15234 0.0469,0.23437 0.19922,0.375 0.11719,0.10547 0.15235,0.17578 0.15235,0.25781 0,0.21094 -0.17578,0.43359 -0.59766,0.70312 z m 3.08203,-4.23047 c 0.0937,-0.0234 0.16407,-0.0352 0.2461,-0.0352 0.32812,0 0.48047,0.12891 0.64453,0.5625 0.21094,0.58594 0.63281,2.3086 0.63281,2.61329 0,0.11718 -0.0586,0.24609 -0.16406,0.39843 -0.22266,0.30469 -0.41016,0.52735 -0.50391,0.63282 -0.17578,0.17578 -0.25781,0.23437 -0.36328,0.23437 -0.0586,0 -0.10547,-0.0234 -0.1875,-0.082 -0.1289,-0.10547 -0.21094,-0.14063 -0.30469,-0.14063 -0.17578,0 -0.30468,0.14063 -0.30468,0.31641 0,0.19922 0.16406,0.35156 0.39843,0.35156 0.51563,0 1.5586,-1.19531 2.42579,-2.78906 0.55078,-0.98437 0.77343,-1.55859 0.77343,-1.95703 0,-0.23438 -0.19922,-0.43359 -0.44531,-0.43359 -0.17578,0 -0.30469,0.11718 -0.30469,0.29296 0,0.12891 0.0586,0.21094 0.22266,0.31641 0.15234,0.082 0.21094,0.15234 0.21094,0.26953 0,0.31641 -0.29297,0.9375 -0.98438,2.07422 l -0.15234,-0.92578 c -0.12891,-0.71484 -0.57422,-2.02734 -0.69141,-2.02734 h -0.0351 c -0.0117,0 -0.0352,0 -0.0703,0 -0.0586,0.0117 -0.36328,0.0586 -0.78515,0.14062 -0.0352,0.0117 -0.14063,0.0352 -0.25782,0.0469 z m 8.80372,4.26563 h -0.75 l 0.96093,-3.48047 h -0.32812 l -3.33985,3.45703 -0.15234,0.52734 h 2.09766 l -0.39844,1.42969 h 0.63281 l 0.375,-1.40625 h 0.79688 z m -1.40625,0 h -1.69922 v -0.0234 l 2.4375,-2.55469 h 0.0351 z m 2.01855,0.375 c 0.98437,-0.86719 1.39453,-1.38282 1.75781,-2.25 0.22266,-0.52735 0.31641,-1.03125 0.31641,-1.62891 0,-0.45703 -0.0586,-0.96094 -0.17578,-1.44141 -0.12891,-0.55078 -0.2461,-0.83203 -0.60938,-1.47656 l -0.15234,0.0352 c 0.26953,0.65625 0.38672,1.30078 0.38672,2.09765 0,1.01953 -0.26953,2.3086 -0.66797,3.17578 -0.23438,0.51563 -0.46875,0.85547 -0.96094,1.3711 z m 147.442383,85.166011 c -0.304688,-0.820313 -0.3867192,-1.3125 -0.3867192,-2.085938 0,-0.972656 0.2226562,-2.109375 0.5976562,-3 0.269531,-0.632812 0.515625,-1.007812 1.03125,-1.558594 l -0.105469,-0.117187 c -1.042968,0.949219 -1.441406,1.476562 -1.7812497,2.308594 -0.2109375,0.503906 -0.2929688,0.984375 -0.2929688,1.605468 0,0.621094 0.09375,1.21875 0.2695313,1.769532 0.1054687,0.339843 0.234375,0.597656 0.5156252,1.125 z m 5.941406,-2.296875 c -0.07031,0.07031 -0.105469,0.117187 -0.175781,0.222656 -0.1875,0.234375 -0.28125,0.316406 -0.386719,0.316406 -0.105469,0 -0.175781,-0.105469 -0.234375,-0.328125 -0.02344,-0.09375 -0.02344,-0.105469 -0.03516,-0.128906 -0.199219,-0.820313 -0.28125,-1.183594 -0.28125,-1.300781 0.351562,-0.632813 0.632812,-0.972657 0.785156,-0.972657 0.04687,0 0.117187,0.02344 0.1875,0.07031 0.09375,0.04687 0.152344,0.07031 0.222656,0.07031 0.164063,0 0.269531,-0.128906 0.269531,-0.292968 0,-0.175782 -0.128906,-0.292969 -0.328125,-0.292969 -0.351562,0 -0.644531,0.28125 -1.207031,1.136719 l -0.08203,-0.433594 c -0.117188,-0.550781 -0.199219,-0.703125 -0.421875,-0.703125 -0.1875,0 -0.433594,0.05859 -0.9375,0.234375 -0.04687,0.01172 -0.04687,0.01172 -0.08203,0.02344 l 0.02344,0.128907 c 0.316406,-0.08203 0.375,-0.09375 0.457031,-0.09375 0.199219,0 0.246094,0.07031 0.351563,0.550781 l 0.234375,0.984375 -0.65625,0.9375 c -0.164063,0.246094 -0.316406,0.386719 -0.410156,0.386719 -0.04687,0 -0.128907,-0.02344 -0.199219,-0.07031 -0.105469,-0.05859 -0.1875,-0.08203 -0.257813,-0.08203 -0.164062,0 -0.269531,0.117187 -0.269531,0.28125 0,0.210937 0.152344,0.339844 0.398438,0.339844 0.246093,0 0.339843,-0.08203 0.738281,-0.5625 0.222656,-0.257813 0.398437,-0.503907 0.726562,-0.9375 l 0.234375,0.960937 c 0.105469,0.410156 0.210938,0.539063 0.46875,0.539063 0.304688,0 0.515625,-0.199219 0.972657,-0.914063 z m 5.282226,2.777343 c -0.1875,0.398438 -0.339843,0.492188 -0.785156,0.503907 h -1.523437 v -0.03516 l 1.535156,-1.535156 c 0.9375,-0.9375 1.195312,-1.347656 1.195312,-1.875 0,-0.761719 -0.574218,-1.359375 -1.300781,-1.359375 -0.292969,0 -0.585937,0.07031 -0.820312,0.210938 -0.410157,0.222656 -0.632813,0.492187 -0.855469,1.078125 l 0.164062,0.04687 c 0.292969,-0.515625 0.644532,-0.75 1.125,-0.75 0.574219,0 0.996094,0.421875 0.996094,0.972656 0,0.175781 -0.02344,0.328125 -0.07031,0.433594 -0.199219,0.433593 -0.5625,0.9375 -1.078125,1.488281 l -1.6875,1.792969 v 0.140625 h 2.847656 l 0.398437,-1.054688 z m 0.934571,-0.855468 c 0.679687,-0.375 1.042968,-0.820313 1.042968,-1.265625 0,-0.328125 -0.199218,-0.574219 -0.457031,-0.574219 -0.234375,0 -0.410156,0.164062 -0.410156,0.363281 0,0.152344 0.04687,0.234375 0.199219,0.375 0.117187,0.105469 0.152343,0.175781 0.152343,0.257813 0,0.210937 -0.175781,0.433593 -0.597656,0.703125 z m 3.082031,-4.230469 c 0.09375,-0.02344 0.164062,-0.03516 0.246094,-0.03516 0.328125,0 0.480468,0.128906 0.644531,0.5625 0.210937,0.585937 0.632812,2.308593 0.632812,2.613281 0,0.117187 -0.05859,0.246094 -0.164062,0.398437 -0.222656,0.304688 -0.410156,0.527344 -0.503906,0.632813 -0.175782,0.175781 -0.257813,0.234375 -0.363282,0.234375 -0.05859,0 -0.105468,-0.02344 -0.1875,-0.08203 -0.128906,-0.105469 -0.210937,-0.140625 -0.304687,-0.140625 -0.175781,0 -0.304688,0.140625 -0.304688,0.316406 0,0.199219 0.164063,0.351562 0.398438,0.351562 0.515625,0 1.558594,-1.195312 2.425781,-2.789062 0.550781,-0.984375 0.773438,-1.558594 0.773438,-1.957031 0,-0.234375 -0.199219,-0.433594 -0.445313,-0.433594 -0.175781,0 -0.304687,0.117187 -0.304687,0.292969 0,0.128906 0.05859,0.210937 0.222656,0.316406 0.152344,0.08203 0.210937,0.152344 0.210937,0.269531 0,0.316406 -0.292968,0.9375 -0.984375,2.074219 l -0.152343,-0.925781 c -0.128907,-0.714844 -0.574219,-2.027344 -0.691407,-2.027344 h -0.03516 c -0.01172,0 -0.03516,0 -0.07031,0 -0.05859,0.01172 -0.363282,0.05859 -0.785157,0.140625 -0.03516,0.01172 -0.140625,0.03516 -0.257812,0.04687 z m 8.381836,5.085937 c -0.1875,0.398438 -0.339844,0.492188 -0.785156,0.503907 h -1.523438 v -0.03516 l 1.535156,-1.535156 c 0.9375,-0.9375 1.195313,-1.347656 1.195313,-1.875 0,-0.761719 -0.574219,-1.359375 -1.300781,-1.359375 -0.292969,0 -0.585938,0.07031 -0.820313,0.210938 -0.410156,0.222656 -0.632812,0.492187 -0.855469,1.078125 l 0.164063,0.04687 c 0.292969,-0.515625 0.644531,-0.75 1.125,-0.75 0.574219,0 0.996094,0.421875 0.996094,0.972656 0,0.175781 -0.02344,0.328125 -0.07031,0.433594 -0.199219,0.433593 -0.5625,0.9375 -1.078125,1.488281 l -1.6875,1.792969 v 0.140625 h 2.847656 l 0.398438,-1.054688 z m 1.037109,-0.445312 c 0.984375,-0.867188 1.394531,-1.382813 1.757813,-2.25 0.222656,-0.527344 0.316406,-1.03125 0.316406,-1.628906 0,-0.457032 -0.05859,-0.960938 -0.175781,-1.441407 -0.128907,-0.550781 -0.246094,-0.832031 -0.609375,-1.476562 l -0.152344,0.03516 c 0.269531,0.65625 0.386719,1.300781 0.386719,2.097656 0,1.019532 -0.269532,2.308594 -0.667969,3.175782 -0.234375,0.515625 -0.46875,0.855468 -0.960938,1.371093 z m -46.87207,-105.067387 h -4.253906 l -0.339844,1.23047 0.152344,0.0352 c 0.421875,-0.86719 0.679687,-0.99609 1.898437,-0.98438 l -1.148437,4.23047 c -0.128907,0.42188 -0.328125,0.55078 -0.855469,0.58594 v 0.12891 h 2.320312 v -0.12891 c -0.679687,-0.0586 -0.714843,-0.0703 -0.714843,-0.36328 0,-0.10547 0.01172,-0.17578 0.09375,-0.46875 l 1.113281,-3.98438 h 0.445312 c 0.574219,0 0.832032,0.19922 0.832032,0.64454 0,0.10546 -0.01172,0.22265 -0.02344,0.36328 l 0.128906,0.0117 z m 3.0673827,3.69141 c 0.2695312,-0.375 0.5507812,-0.53906 0.8789062,-0.53906 0.4335938,0 0.7148438,0.29297 0.7148438,0.72656 0,0.33984 -0.1640625,0.62109 -0.515625,0.85547 -0.3398438,0.23437 -0.6796875,0.35156 -1.3945313,0.48047 l 0.011719,0.11719 c 0.4453125,0 0.5273437,0.0117 0.7265625,0.082 0.4921875,0.1875 0.75,0.62109 0.75,1.2539 0,0.28125 -0.058594,0.57422 -0.1757813,0.76172 -0.1875,0.32813 -0.5390625,0.55078 -0.8671875,0.55078 -0.1523437,0 -0.3398437,-0.082 -0.5742187,-0.25781 -0.234375,-0.16406 -0.3632813,-0.22266 -0.515625,-0.22266 -0.2226564,0 -0.3515624,0.10547 -0.3515624,0.30469 0,0.30469 0.3281249,0.48047 0.9023436,0.48047 0.4453125,0 0.8671875,-0.10547 1.1953125,-0.29297 0.6210938,-0.375 1.03125,-1.04297 1.03125,-1.75781 0,-0.58594 -0.234375,-0.94922 -0.7617187,-1.19531 v -0.0234 c 0.9609375,-0.375 1.2421875,-0.64453 1.2421875,-1.18359 0,-0.58594 -0.4804688,-1.01954 -1.125,-1.01954 -0.5507813,0 -1.0429688,0.31641 -1.3007813,0.83204 z m 0,0"
         style="fill:#231f20;fill-opacity:1;fill-rule:nonzero;stroke:none" />
      <path
         id="path8"
         d="m -19.838086,-110.79961 v -6.49219 h 3.375 v 6.49219 z m 0.5625,-0.5625 h 2.25 v -5.36719 h -2.25 z m 0,0"
         style="fill:#231f20;fill-opacity:1;fill-rule:nonzero;stroke:none" />
      <path
         id="path9"
         d="m -5.7902344,-103.60137 c -0.4453125,-1.21875 -0.5742187,-1.95703 -0.5742187,-3.11718 0,-1.45313 0.328125,-3.16407 0.890625,-4.5 0.3984375,-0.94922 0.7734375,-1.51172 1.5585937,-2.33204 l -0.1640625,-0.17578 c -1.5585937,1.41797 -2.1679687,2.20313 -2.671875,3.45703 -0.3164062,0.75 -0.4453125,1.48829 -0.4453125,2.41407 0,0.92578 0.140625,1.8164 0.4101563,2.64843 0.1640625,0.50391 0.3515625,0.89063 0.7734375,1.67579 z m 6.9140625,-3.43359 c -0.1054687,0.11719 -0.16406247,0.1875 -0.26953122,0.32812 -0.26953125,0.36329 -0.421875,0.48047 -0.5625,0.48047 -0.1640625,0 -0.28125,-0.15234 -0.36328125,-0.49218 -0.03515625,-0.12891 -0.03515625,-0.15235 -0.046875,-0.1875 -0.29296875,-1.23047 -0.43359375,-1.78125 -0.43359375,-1.95704 0.5390625,-0.9375 0.9609375,-1.45312 1.18359375,-1.45312 0.0703125,0 0.17578125,0.0352 0.28125,0.0937 0.15234377,0.082 0.23437497,0.10547 0.33984377,0.10547 0.234375,0 0.4101562,-0.17578 0.4101562,-0.4336 0,-0.25781 -0.2109375,-0.44531 -0.4921875,-0.44531 -0.52734372,0 -0.97265622,0.4336 -1.81640622,1.72266 l -0.12890625,-0.65625 c -0.1640625,-0.82031 -0.30468753,-1.06641 -0.62109373,-1.06641 -0.28125,0 -0.6679688,0.10547 -1.40625,0.35156 -0.070312,0.0234 -0.070312,0.0234 -0.1289063,0.0469 l 0.046875,0.1875 c 0.46875,-0.12891 0.5507813,-0.14063 0.6679688,-0.14063 0.3046875,0 0.375,0.11719 0.5390625,0.83204 l 0.3515625,1.47656 -0.984375,1.40625 c -0.2578125,0.35156 -0.4804688,0.57422 -0.609375,0.57422 -0.082031,0 -0.1992188,-0.0352 -0.3164063,-0.10547 -0.1523437,-0.0937 -0.28125,-0.12891 -0.3867187,-0.12891 -0.234375,0 -0.4101563,0.1875 -0.4101563,0.42188 0,0.3164 0.234375,0.5039 0.609375,0.5039 0.3632813,0 0.515625,-0.10547 1.1132813,-0.82031 0.3164062,-0.39844 0.5859375,-0.76172 1.078125,-1.41797 l 0.36328123,1.44141 c 0.15234375,0.62109 0.3046875,0.79687 0.69140625,0.79687 0.45703125,0 0.7734375,-0.28125 1.46484372,-1.35937 z m 2.6103516,-2.47266 c 0.421875,-0.5625 0.8320312,-0.79687 1.3359375,-0.79687 0.6445312,0 1.0664062,0.43359 1.0664062,1.08984 0,0.50391 -0.2460937,0.9375 -0.7617187,1.28906 -0.515625,0.33985 -1.0429688,0.52735 -2.109375,0.70313 l 0.011719,0.1875 c 0.6796875,0 0.796875,0.0117 1.1132813,0.12891 0.7265625,0.26953 1.1132812,0.91406 1.1132812,1.875 0,0.42187 -0.09375,0.85546 -0.2695312,1.14843 -0.2695313,0.48047 -0.8085938,0.8086 -1.3007813,0.8086 -0.234375,0 -0.4921875,-0.11719 -0.8554687,-0.38672 -0.3515625,-0.2461 -0.5390625,-0.32813 -0.7734375,-0.32813 -0.328125,0 -0.5273438,0.16407 -0.5273438,0.46875 0,0.45703 0.4804688,0.70313 1.3476563,0.70313 0.6679687,0 1.3007812,-0.15235 1.7929687,-0.44531 0.9492188,-0.55079 1.546875,-1.5586 1.546875,-2.625 0,-0.87891 -0.3515625,-1.41797 -1.1484375,-1.79297 v -0.0352 c 1.4414063,-0.5625 1.8632813,-0.96094 1.8632813,-1.76953 0,-0.87891 -0.703125,-1.52344 -1.6757813,-1.52344 -0.8320312,0 -1.5703125,0.46875 -1.9570312,1.24219 z m 2.0244141,5.35547 c 1.0195312,-0.5625 1.5585937,-1.23047 1.5585937,-1.91015 0,-0.48047 -0.2929687,-0.84375 -0.6914062,-0.84375 -0.3515625,0 -0.609375,0.23437 -0.609375,0.55078 0,0.22265 0.070312,0.33984 0.2929687,0.55078 0.1875,0.16406 0.2460938,0.25781 0.2460938,0.38672 0,0.3164 -0.2695313,0.64453 -0.9023438,1.0664 z m 3.1171875,-6.35156 c 0.1523437,-0.0352 0.2460937,-0.0469 0.375,-0.0469 0.4921875,0 0.7265625,0.19922 0.9609377,0.84375 0.328125,0.89063 0.949219,3.45704 0.949219,3.91407 0,0.1875 -0.08203,0.38672 -0.257813,0.60937 -0.328125,0.44531 -0.609375,0.78516 -0.75,0.9375 -0.2578125,0.25781 -0.3867187,0.36328 -0.5390625,0.36328 -0.082031,0 -0.1523437,-0.0352 -0.2929687,-0.14062 -0.1757813,-0.14063 -0.2929688,-0.19922 -0.4453125,-0.19922 -0.2578125,0 -0.46875,0.19922 -0.46875,0.46875 0,0.31641 0.2578125,0.52734 0.6210937,0.52734 0.7617188,0 2.320313,-1.79297 3.632813,-4.17187 0.820312,-1.47656 1.148437,-2.34375 1.148437,-2.92969 0,-0.36328 -0.292969,-0.66797 -0.65625,-0.66797 -0.28125,0 -0.46875,0.1875 -0.46875,0.44531 0,0.19922 0.09375,0.31641 0.339844,0.46875 0.222656,0.14063 0.304687,0.2461 0.304687,0.41016 0,0.48047 -0.433593,1.40625 -1.464843,3.10547 l -0.234375,-1.39453 c -0.1875,-1.06641 -0.855469,-3.03516 -1.03125,-3.03516 h -0.04687 c -0.02344,0.0117 -0.05859,0.0117 -0.117188,0.0117 -0.09375,0.0117 -0.5390625,0.0937 -1.171875,0.21094 -0.058594,0.0117 -0.2109375,0.0469 -0.3867187,0.0703 z m 7.2568357,0.99609 c 0.421875,-0.5625 0.832031,-0.79687 1.335938,-0.79687 0.644531,0 1.066406,0.43359 1.066406,1.08984 0,0.50391 -0.246094,0.9375 -0.761719,1.28906 -0.515625,0.33985 -1.042969,0.52735 -2.109375,0.70313 l 0.01172,0.1875 c 0.679687,0 0.796875,0.0117 1.113281,0.12891 0.726563,0.26953 1.113281,0.91406 1.113281,1.875 0,0.42187 -0.09375,0.85546 -0.269531,1.14843 -0.269531,0.48047 -0.808594,0.8086 -1.300781,0.8086 -0.234375,0 -0.492188,-0.11719 -0.855469,-0.38672 -0.351562,-0.2461 -0.539062,-0.32813 -0.773437,-0.32813 -0.328125,0 -0.527344,0.16407 -0.527344,0.46875 0,0.45703 0.480469,0.70313 1.347656,0.70313 0.667969,0 1.300781,-0.15235 1.792969,-0.44531 0.949219,-0.55079 1.546875,-1.5586 1.546875,-2.625 0,-0.87891 -0.351563,-1.41797 -1.148438,-1.79297 v -0.0352 c 1.441407,-0.5625 1.863282,-0.96094 1.863282,-1.76953 0,-0.87891 -0.703125,-1.52344 -1.675782,-1.52344 -0.832031,0 -1.570312,0.46875 -1.957031,1.24219 z m 2.217774,5.96485 c 1.488281,-1.28907 2.097656,-2.07422 2.636718,-3.36328 0.339844,-0.79688 0.480469,-1.5586 0.480469,-2.44922 0,-0.69141 -0.09375,-1.44141 -0.269531,-2.16797 -0.199219,-0.8086 -0.375,-1.24219 -0.914063,-2.20313 l -0.234375,0.0586 c 0.410157,0.97265 0.585938,1.94531 0.585938,3.14062 0,1.52344 -0.410156,3.45703 -1.007813,4.75781 -0.339843,0.77344 -0.703125,1.27735 -1.441406,2.05079 z M -123.67207,8.6642578 c -0.10547,0.1171875 -0.16406,0.1875 -0.26953,0.328125 -0.26953,0.3632813 -0.42188,0.4804688 -0.5625,0.4804688 -0.16406,0 -0.28125,-0.1523438 -0.36328,-0.4921875 -0.0352,-0.1289063 -0.0352,-0.1523438 -0.0469,-0.1875 -0.29297,-1.2304688 -0.43359,-1.78125 -0.43359,-1.9570313 0.53906,-0.9375 0.96094,-1.453125 1.18359,-1.453125 0.0703,0 0.17578,0.035156 0.28125,0.09375 0.15235,0.082031 0.23438,0.1054688 0.33985,0.1054688 0.23437,0 0.41015,-0.1757813 0.41015,-0.4335938 0,-0.2578125 -0.21094,-0.4453125 -0.49219,-0.4453125 -0.52734,0 -0.97265,0.4335938 -1.8164,1.7226563 l -0.12891,-0.65625 c -0.16406,-0.8203125 -0.30469,-1.0664063 -0.62109,-1.0664063 -0.28125,0 -0.66797,0.1054688 -1.40625,0.3515625 -0.0703,0.023437 -0.0703,0.023437 -0.12891,0.046875 l 0.0469,0.1875 c 0.46875,-0.1289062 0.55078,-0.140625 0.66797,-0.140625 0.30468,0 0.375,0.1171875 0.53906,0.8320313 l 0.35156,1.4765625 -0.98437,1.40625 c -0.25782,0.3515625 -0.48047,0.5742187 -0.60938,0.5742187 -0.082,0 -0.19922,-0.035156 -0.31641,-0.1054687 -0.15234,-0.09375 -0.28125,-0.1289063 -0.38671,-0.1289063 -0.23438,0 -0.41016,0.1875 -0.41016,0.421875 0,0.3164063 0.23437,0.5039067 0.60937,0.5039067 0.36329,0 0.51563,-0.105469 1.11329,-0.8203129 0.3164,-0.3984375 0.58593,-0.7617188 1.07812,-1.4179688 l 0.36328,1.4414063 c 0.15235,0.6210937 0.30469,0.7968754 0.69141,0.7968754 0.45703,0 0.77344,-0.2812504 1.46484,-1.3593754 z m -84.55078,-83.4697268 c 0.15234,-0.03516 0.24609,-0.04687 0.375,-0.04687 0.49219,0 0.72656,0.199219 0.96094,0.84375 0.32812,0.890625 0.94921,3.457032 0.94921,3.914063 0,0.1875 -0.082,0.386719 -0.25781,0.609375 -0.32812,0.445312 -0.60937,0.785156 -0.75,0.9375 -0.25781,0.257812 -0.38672,0.363281 -0.53906,0.363281 -0.082,0 -0.15234,-0.03516 -0.29297,-0.140625 -0.17578,-0.140625 -0.29297,-0.199219 -0.44531,-0.199219 -0.25781,0 -0.46875,0.199219 -0.46875,0.46875 0,0.316407 0.25781,0.527344 0.62109,0.527344 0.76172,0 2.32031,-1.792969 3.63281,-4.171875 0.82032,-1.476562 1.14844,-2.34375 1.14844,-2.929687 0,-0.363282 -0.29297,-0.667969 -0.65625,-0.667969 -0.28125,0 -0.46875,0.1875 -0.46875,0.445312 0,0.199219 0.0937,0.316407 0.33985,0.46875 0.22265,0.140625 0.30468,0.246094 0.30468,0.410157 0,0.480468 -0.43359,1.40625 -1.46484,3.105468 l -0.23438,-1.394531 c -0.1875,-1.066406 -0.85546,-3.035156 -1.03125,-3.035156 h -0.0469 c -0.0234,0.01172 -0.0586,0.01172 -0.11719,0.01172 -0.0937,0.01172 -0.53906,0.09375 -1.17187,0.210937 -0.0586,0.01172 -0.21094,0.04687 -0.38672,0.07031 z m 0,0"
         style="fill:#231f20;fill-opacity:1;fill-rule:nonzero;stroke:none" />
    </g>
    <path
       id="path10"
       d="m 161.25,889.25 v -714"
       style="fill:none;stroke:#231f20;stroke-width:2.5;stroke-linecap:butt;stroke-linejoin:miter;stroke-miterlimit:3.8637;stroke-dasharray:none;stroke-opacity:1"
       transform="matrix(0.13333333,0,0,-0.13333333,0,202.53333)" />
    <path
       id="path11"
       d="m 161.25,886.25 h -15 l 15,38 15,-38 h -15"
       style="fill:#231f20;fill-opacity:1;fill-rule:evenodd;stroke:none"
       transform="matrix(0.13333333,0,0,-0.13333333,0,202.53333)" />
    <path
       id="path12"
       d="m 161.25,175.25 h 714"
       style="fill:none;stroke:#231f20;stroke-width:2.5;stroke-linecap:butt;stroke-linejoin:miter;stroke-miterlimit:3.8637;stroke-dasharray:none;stroke-opacity:1"
       transform="matrix(0.13333333,0,0,-0.13333333,0,202.53333)" />
    <path
       id="path13"
       d="m 872.25,175.25 v 15 l 38,-15 -38,-15 v 15"
       style="fill:#231f20;fill-opacity:1;fill-rule:evenodd;stroke:none"
       transform="matrix(0.13333333,0,0,-0.13333333,0,202.53333)" />
    <path
       id="path14"
       d="M 0.56191406,-7.8125e-4 V -6.4929688 H 3.9369141 v 6.49218755 z m 0.56250004,-0.5625 h 2.25 V -5.9304688 h -2.25 z m 0,0"
       style="fill:#231f20;fill-opacity:1;fill-rule:nonzero;stroke:none"
       aria-label="●"
       transform="matrix(1.3333333,0,0,1.3333333,170.7,76.766667)" />
    <path
       id="path15"
       d="m 899.25,1319.25 420,-344"
       style="fill:none;stroke:#231f20;stroke-width:5;stroke-linecap:butt;stroke-linejoin:miter;stroke-miterlimit:3.8637;stroke-dasharray:none;stroke-opacity:1"
       transform="matrix(0.13333333,0,0,-0.13333333,0,202.53333)" />
    <path
       id="path16"
       d="m 1319.25,975.25 827,-677"
       style="fill:none;stroke:#231f20;stroke-width:5;stroke-linecap:butt;stroke-linejoin:miter;stroke-miterlimit:3.8637;stroke-dasharray:none;stroke-opacity:1"
       transform="matrix(0.13333333,0,0,-0.13333333,0,202.53333)" />
    <path
       id="path17"
       d="m 540.25,578.25 781,397"
       style="fill:none;stroke:#231f20;stroke-width:5;stroke-linecap:butt;stroke-linejoin:miter;stroke-miterlimit:3.8637;stroke-dasharray:none;stroke-opacity:1"
       transform="matrix(0.13333333,0,0,-0.13333333,0,202.53333)" />
    <path
       id="path18"
       d="m 1321.25,975.25 624,318"
       style="fill:none;stroke:#231f20;stroke-width:5;stroke-linecap:butt;stroke-linejoin:miter;stroke-miterlimit:3.8637;stroke-dasharray:none;stroke-opacity:1"
       transform="matrix(0.13333333,0,0,-0.13333333,0,202.53333)" />
    <path
       id="path19"
       d="m 1201.25,891.25 h 181 v -181 h -181 v 181"
       style="fill:#ffffff;fill-opacity:1;fill-rule:nonzero;stroke:none"
       transform="matrix(0.13333333,0,0,-0.13333333,0,202.53333)" />
    <path
       id="path20"
       d="m 1201.25,891.25 h 181 v -181 h -181 z"
       style="fill:none;stroke:#ffffff;stroke-width:5;stroke-linecap:butt;stroke-linejoin:miter;stroke-miterlimit:3.8637;stroke-dasharray:none;stroke-opacity:1"
       transform="matrix(0.13333333,0,0,-0.13333333,0,202.53333)" />
    <path
       id="path21"
       d="M 5.0636719,-5.2263672 H 0.80976563 l -0.33984375,1.2304688 0.15234375,0.035156 C 1.0441406,-4.8279297 1.3019531,-4.9568359 2.5207031,-4.9451172 l -1.1484375,4.23046876 c -0.1289062,0.421875 -0.328125,0.55078125 -0.85546872,0.5859375 V 1.953125e-4 H 2.8371094 V -0.12871094 c -0.6796875,-0.0585938 -0.7148438,-0.0703125 -0.7148438,-0.36328125 0,-0.10546875 0.011719,-0.17578125 0.09375,-0.46875 L 3.3292969,-4.9451172 h 0.4453125 c 0.5742187,0 0.8320312,0.1992188 0.8320312,0.6445313 0,0.1054687 -0.011719,0.2226562 -0.023437,0.3632812 l 0.1289063,0.011719 z m 3.5478515,3.46875 h 1.8398436 l 0.175781,-0.5742187 H 8.5880859 l -0.84375,1.74609371 v 0.1171875 c 0.7851563,0.17578125 1.0429688,0.26953125 1.3359375,0.50390625 0.2578125,0.19921875 0.421875,0.609375 0.421875,1.03125004 0,0.8671875 -0.6445312,1.6523437 -1.3710937,1.6523437 -0.1640625,0 -0.3046875,-0.058594 -0.5390625,-0.234375 C 7.3927734,2.3322266 7.2638672,2.2853516 7.1466797,2.2853516 c -0.1875,0 -0.328125,0.1289062 -0.328125,0.3164062 0,0.28125 0.3164062,0.4570313 0.8554687,0.4570313 1.3125,0 2.3789066,-1.03125 2.3789066,-2.29687504 0,-0.50390625 -0.1875003,-0.92578125 -0.5273441,-1.25390625 -0.3046875,-0.28125 -0.5859375,-0.41015625 -1.2304687,-0.56250001 z m 0,0"
       style="fill:#231f20;fill-opacity:1;fill-rule:nonzero;stroke:none"
       aria-label="T&#10;5"
       transform="matrix(1.3333333,0,0,1.3333333,165.1,99.433333)" />
  </g>
</svg>
