<?xml version="1.0" encoding="UTF-8" standalone="no"?>
<!-- Created with Inkscape (http://www.inkscape.org/) -->

<svg
   version="1.1"
   id="svg1"
   width="400.53333"
   height="303.09332"
   viewBox="0 0 400.53333 303.09332"
   sodipodi:docname="F32.EPS"
   xmlns:inkscape="http://www.inkscape.org/namespaces/inkscape"
   xmlns:sodipodi="http://sodipodi.sourceforge.net/DTD/sodipodi-0.dtd"
   xmlns="http://www.w3.org/2000/svg"
   xmlns:svg="http://www.w3.org/2000/svg">
  <defs
     id="defs1" />
  <sodipodi:namedview
     id="namedview1"
     pagecolor="#ffffff"
     bordercolor="#000000"
     borderopacity="0.25"
     inkscape:showpageshadow="2"
     inkscape:pageopacity="0.0"
     inkscape:pagecheckerboard="0"
     inkscape:deskcolor="#d1d1d1">
    <inkscape:page
       x="0"
       y="0"
       inkscape:label="1"
       id="page1"
       width="400.53333"
       height="303.09332"
       margin="0"
       bleed="0" />
  </sodipodi:namedview>
  <g
     id="g1"
     inkscape:groupmode="layer"
     inkscape:label="1">
    <path
       id="path1"
       d="m 1.25,923.25 h 2835"
       style="fill:none;stroke:#231f20;stroke-width:2.5;stroke-linecap:butt;stroke-linejoin:miter;stroke-miterlimit:3.8637;stroke-dasharray:none;stroke-opacity:1"
       transform="matrix(0.13333333,0,0,-0.13333333,0,303.09333)" />
    <path
       id="path2"
       d="m 2833.25,923.25 v 15 l 38,-15 -38,-15 v 15"
       style="fill:#231f20;fill-opacity:1;fill-rule:evenodd;stroke:none"
       transform="matrix(0.13333333,0,0,-0.13333333,0,303.09333)" />
    <path
       id="path3"
       d="m 299.25,220.25 v 1984"
       style="fill:none;stroke:#231f20;stroke-width:2.5;stroke-linecap:butt;stroke-linejoin:miter;stroke-miterlimit:3.8637;stroke-dasharray:none;stroke-opacity:1"
       transform="matrix(0.13333333,0,0,-0.13333333,0,303.09333)" />
    <path
       id="path4"
       d="m 299.25,2202.25 h -15 l 15,37 15,-37 h -15"
       style="fill:#231f20;fill-opacity:1;fill-rule:evenodd;stroke:none"
       transform="matrix(0.13333333,0,0,-0.13333333,0,303.09333)" />
    <g
       id="g4"
       aria-label="●&#10;●&#10;●&#10;●&#10;●&#10;t&#10;g(t)&#10;●&#10;(t&#10;2&#10;,g(t&#10;2&#10;))&#10;(t&#10;1&#10;,g(t&#10;1&#10;))&#10;(t&#10;3&#10;,g(t&#10;3&#10;))&#10;(t&#10;4&#10;,g(t&#10;4&#10;))&#10;(t&#10;5&#10;,g(t&#10;5&#10;))&#10;(t&#10;N&#10;,g(t&#10;N&#10;))&#10;●"
       transform="matrix(1.3333333,0,0,1.3333333,108.83333,113.46)">
      <path
         id="path5"
         d="M 0.56152344,7.03125e-4 V -6.4914844 H 3.9365234 V 7.03125e-4 Z M 1.1240234,-0.56179688 h 2.25 V -5.9289844 h -2.25 z M 80.161133,-38.199492 v -6.492188 h 3.375 v 6.492188 z m 0.5625,-0.5625 h 2.25 v -5.367188 h -2.25 z M 111.46191,120.90012 v -6.49219 h 3.375 v 6.49219 z m 0.5625,-0.5625 h 2.25 v -5.36719 h -2.25 z M 40.361328,83.101289 v -6.492187 h 3.375 v 6.492187 z m 0.5625,-0.5625 h 2.25 v -5.367187 h -2.25 z m 110.238282,-62.4375 v -6.492187 h 3.375 v 6.492187 z m 0.5625,-0.5625 h 2.25 v -5.367187 h -2.25 z m 0,0"
         style="fill:#231f20;fill-opacity:1;fill-rule:nonzero;stroke:none" />
      <path
         id="path6"
         d="m 200.55078,39.566133 h -0.96094 l 0.33985,-1.242188 c 0.0117,-0.02344 0.0117,-0.04687 0.0117,-0.07031 0,-0.07031 -0.0234,-0.105469 -0.0937,-0.105469 -0.0703,0 -0.11719,0.01172 -0.1875,0.105469 -0.46875,0.597656 -1.20704,1.21875 -1.59375,1.324219 -0.29297,0.09375 -0.38672,0.164062 -0.38672,0.292968 0,0.01172 0,0.03516 0.0117,0.07031 h 0.89062 l -0.86719,3.304687 c -0.0234,0.105469 -0.0352,0.152344 -0.0703,0.257813 -0.11719,0.386719 -0.19922,0.761719 -0.19922,0.878906 0,0.257813 0.2461,0.445313 0.57422,0.445313 0.55078,0 0.94922,-0.328125 1.69922,-1.453125 l -0.15234,-0.08203 c -0.58594,0.761719 -0.77344,0.949219 -0.97266,0.949219 -0.10547,0 -0.17578,-0.08203 -0.17578,-0.234375 0,-0.01172 0,-0.01172 0.0117,-0.07031 l 1.05468,-3.996094 h 1.00782 z M -38.139648,-77.562773 h -0.726563 c -0.03516,0 -0.09375,-0.02344 -0.199219,-0.09375 -0.316406,-0.210938 -0.714843,-0.339844 -1.171875,-0.339844 -1.335937,0 -2.414062,0.925781 -2.414062,2.0625 0,0.621094 0.257812,0.972656 0.949219,1.289062 -0.703125,0.480469 -0.925782,0.726563 -0.925782,1.007813 0,0.152344 0.105469,0.304687 0.328125,0.46875 -1.183593,0.785156 -1.40625,1.019531 -1.40625,1.570312 0,0.832032 0.796875,1.371094 2.003907,1.371094 1.511718,0 2.519531,-0.703125 2.519531,-1.757812 0,-0.75 -0.5625,-1.265625 -1.710938,-1.582032 -0.527343,-0.128906 -0.84375,-0.316406 -0.84375,-0.503906 0,-0.175781 0.28125,-0.492187 0.433594,-0.492187 0.02344,0 0.04687,0 0.08203,0.01172 0.105469,0.02344 0.246094,0.03516 0.375,0.03516 1.101563,0 2.214844,-0.972657 2.214844,-1.898438 0,-0.210937 -0.03516,-0.410156 -0.105469,-0.679687 h 0.597657 z m -3.878907,4.523437 c 0.01172,0 0.03516,0.01172 0.05859,0.02344 0.03516,0.01172 0.152344,0.04687 0.339844,0.117187 1.289062,0.398438 1.722656,0.726563 1.722656,1.277344 0,0.644531 -0.703125,1.125 -1.617187,1.125 -0.960938,0 -1.523438,-0.445313 -1.523438,-1.21875 0,-0.292969 0.07031,-0.492188 0.257813,-0.714844 0.164062,-0.222656 0.65625,-0.609375 0.761718,-0.609375 z m 1.769532,-4.6875 c 0.445312,0 0.667968,0.292969 0.667968,0.855469 0,0.433594 -0.140625,0.949219 -0.363281,1.347656 -0.269531,0.492188 -0.644531,0.761719 -1.042969,0.761719 -0.457031,0 -0.726562,-0.339844 -0.726562,-0.902344 0,-1.101562 0.691406,-2.0625 1.464844,-2.0625 z m 4.359375,7.125 c -0.445313,-1.21875 -0.574219,-1.957031 -0.574219,-3.117187 0,-1.453125 0.328125,-3.164063 0.890625,-4.5 0.398437,-0.949219 0.773437,-1.511719 1.558594,-2.332032 l -0.164063,-0.175781 c -1.558594,1.417969 -2.167969,2.203125 -2.671875,3.457031 -0.316406,0.75 -0.445312,1.488282 -0.445312,2.414063 0,0.925781 0.140625,1.816406 0.410156,2.648437 0.164062,0.503907 0.351562,0.890625 0.773437,1.675782 z m 5.636718,-7.230469 h -0.960937 l 0.339844,-1.242187 c 0.01172,-0.02344 0.01172,-0.04687 0.01172,-0.07031 0,-0.07031 -0.02344,-0.105468 -0.09375,-0.105468 -0.07031,0 -0.117187,0.01172 -0.1875,0.105468 -0.46875,0.597657 -1.207031,1.21875 -1.59375,1.324219 -0.292968,0.09375 -0.386718,0.164063 -0.386718,0.292969 0,0.01172 0,0.03516 0.01172,0.07031 h 0.890625 l -0.867187,3.304688 c -0.02344,0.105469 -0.03516,0.152344 -0.07031,0.257812 -0.117187,0.386719 -0.199218,0.761719 -0.199218,0.878907 0,0.257812 0.246093,0.445312 0.574218,0.445312 0.550782,0 0.949219,-0.328125 1.699219,-1.453125 l -0.152344,-0.08203 c -0.585937,0.761719 -0.773437,0.949219 -0.972656,0.949219 -0.105469,0 -0.175781,-0.08203 -0.175781,-0.234375 0,-0.01172 0,-0.01172 0.01172,-0.07031 l 1.054687,-3.996094 h 1.007813 z m 0.137696,7.289063 c 1.488281,-1.289063 2.097656,-2.074219 2.636718,-3.363281 0.339844,-0.796875 0.480469,-1.558594 0.480469,-2.449219 0,-0.691406 -0.09375,-1.441406 -0.269531,-2.167969 -0.199219,-0.808594 -0.375,-1.242187 -0.914063,-2.203125 l -0.234375,0.05859 c 0.410157,0.972656 0.585938,1.945312 0.585938,3.140625 0,1.523437 -0.410156,3.457031 -1.007813,4.757812 -0.339843,0.773438 -0.703125,1.277344 -1.441406,2.050782 z m 0,0"
         style="fill:#231f20;fill-opacity:1;fill-rule:nonzero;stroke:none" />
      <path
         id="path7"
         d="m -54.838867,53.101289 v -6.492187 h 3.375 v 6.492187 z m 0.5625,-0.5625 h 2.25 v -5.367187 h -2.25 z m 0,0"
         style="fill:#231f20;fill-opacity:1;fill-rule:nonzero;stroke:none" />
      <path
         id="path8"
         d="m -6.8886719,-15.602813 c -0.4453125,-1.21875 -0.5742187,-1.957031 -0.5742187,-3.117187 0,-1.453125 0.328125,-3.164063 0.890625,-4.5 0.3984375,-0.949219 0.7734375,-1.511719 1.5585937,-2.332031 l -0.1640625,-0.175782 c -1.5585937,1.417969 -2.1679687,2.203125 -2.671875,3.457032 -0.3164062,0.75 -0.4453125,1.488281 -0.4453125,2.414062 0,0.925781 0.140625,1.816406 0.4101563,2.648438 0.1640625,0.503906 0.3515625,0.890625 0.7734375,1.675781 z m 5.6367188,-7.230468 h -0.9609375 l 0.3398437,-1.242188 c 0.011719,-0.02344 0.011719,-0.04687 0.011719,-0.07031 0,-0.07031 -0.023437,-0.105469 -0.09375,-0.105469 -0.070313,0 -0.1171875,0.01172 -0.1875,0.105469 -0.46875,0.597656 -1.2070313,1.21875 -1.59375,1.324218 -0.2929688,0.09375 -0.3867188,0.164063 -0.3867188,0.292969 0,0.01172 0,0.03516 0.011719,0.07031 h 0.890625 l -0.8671875,3.304687 c -0.023437,0.105469 -0.035156,0.152344 -0.070312,0.257813 -0.1171875,0.386718 -0.1992188,0.761718 -0.1992188,0.878906 0,0.257812 0.2460938,0.445312 0.5742188,0.445312 0.5507812,0 0.9492187,-0.328125 1.6992187,-1.453125 l -0.1523437,-0.08203 c -0.5859375,0.761719 -0.7734375,0.949219 -0.9726563,0.949219 -0.1054687,0 -0.1757812,-0.08203 -0.1757812,-0.234375 0,-0.01172 0,-0.01172 0.011719,-0.07031 l 1.0546875,-3.996093 h 1.0078125 z m 4.555664,6.46875 c -0.28125,0.585937 -0.515625,0.726562 -1.1953125,0.75 h -2.27343746 v -0.05859 l 2.29687496,-2.308594 c 1.40625,-1.394531 1.7929688,-2.003906 1.7929688,-2.800781 0,-1.136719 -0.8554688,-2.027344 -1.9453125,-2.027344 -0.4335938,0 -0.8789063,0.105469 -1.24218751,0.304688 -0.609375,0.339843 -0.92578125,0.75 -1.27734375,1.617187 l 0.24609375,0.08203 c 0.4453125,-0.785156 0.9609375,-1.125 1.68750001,-1.125 0.8671875,0 1.5,0.621094 1.5,1.453125 0,0.257813 -0.035156,0.480469 -0.1054688,0.644532 -0.2929687,0.644531 -0.84375,1.40625 -1.6289062,2.238281 l -2.5195313,2.695312 v 0.199219 h 4.265625 L 3.5029297,-16.2825 Z m -0.7441406,0.210937 c 1.0195313,-0.5625 1.5585938,-1.230469 1.5585938,-1.910156 0,-0.480469 -0.2929688,-0.84375 -0.6914063,-0.84375 -0.3515625,0 -0.609375,0.234375 -0.609375,0.550781 0,0.222656 0.070312,0.339844 0.2929688,0.550781 0.1875,0.164063 0.2460937,0.257813 0.2460937,0.386719 0,0.316406 -0.2695312,0.644531 -0.9023437,1.066406 z M 11.161133,-22.56375 H 10.43457 c -0.03516,0 -0.09375,-0.02344 -0.199218,-0.09375 -0.3164067,-0.210938 -0.7148442,-0.339844 -1.1718754,-0.339844 -1.3359375,0 -2.4140625,0.925781 -2.4140625,2.0625 0,0.621094 0.2578125,0.972656 0.9492187,1.289063 -0.703125,0.480468 -0.9257812,0.726562 -0.9257812,1.007812 0,0.152344 0.1054687,0.304688 0.328125,0.46875 -1.1835938,0.785156 -1.40625,1.019531 -1.40625,1.570313 0,0.832031 0.796875,1.371093 2.0039062,1.371093 1.5117188,0 2.5195312,-0.703125 2.5195312,-1.757812 0,-0.75 -0.5624999,-1.265625 -1.7109374,-1.582031 -0.5273438,-0.128907 -0.84375,-0.316407 -0.84375,-0.503907 0,-0.175781 0.28125,-0.492187 0.4335937,-0.492187 0.023438,0 0.046875,0 0.082031,0.01172 0.1054687,0.02344 0.2460937,0.03516 0.375,0.03516 1.1015625,0 2.2148437,-0.972656 2.2148437,-1.898438 0,-0.210937 -0.03516,-0.410156 -0.105468,-0.679687 h 0.597656 z m -3.8789064,4.523437 c 0.011719,0 0.035156,0.01172 0.058594,0.02344 0.035156,0.01172 0.1523438,0.04687 0.3398438,0.117187 1.2890625,0.398438 1.7226562,0.726563 1.7226562,1.277344 0,0.644531 -0.703125,1.125 -1.6171875,1.125 -0.9609375,0 -1.5234375,-0.445312 -1.5234375,-1.21875 0,-0.292969 0.070312,-0.492187 0.2578125,-0.714844 0.1640625,-0.222656 0.65625,-0.609375 0.7617188,-0.609375 z m 1.7695312,-4.6875 c 0.4453125,0 0.6679688,0.292969 0.6679688,0.855469 0,0.433594 -0.140625,0.949219 -0.3632813,1.347656 -0.2695312,0.492188 -0.6445312,0.761719 -1.0429687,0.761719 -0.4570313,0 -0.7265625,-0.339844 -0.7265625,-0.902344 0,-1.101562 0.6914062,-2.0625 1.4648437,-2.0625 z m 4.3593752,7.125 c -0.445313,-1.21875 -0.574219,-1.957031 -0.574219,-3.117187 0,-1.453125 0.328125,-3.164063 0.890625,-4.5 0.398438,-0.949219 0.773438,-1.511719 1.558594,-2.332031 l -0.164063,-0.175782 c -1.558593,1.417969 -2.167968,2.203125 -2.671875,3.457032 -0.316406,0.75 -0.445312,1.488281 -0.445312,2.414062 0,0.925781 0.140625,1.816406 0.410156,2.648438 0.164063,0.503906 0.351563,0.890625 0.773438,1.675781 z m 5.636719,-7.230468 h -0.960938 l 0.339844,-1.242188 c 0.01172,-0.02344 0.01172,-0.04687 0.01172,-0.07031 0,-0.07031 -0.02344,-0.105469 -0.09375,-0.105469 -0.07031,0 -0.117188,0.01172 -0.1875,0.105469 -0.46875,0.597656 -1.207032,1.21875 -1.59375,1.324218 -0.292969,0.09375 -0.386719,0.164063 -0.386719,0.292969 0,0.01172 0,0.03516 0.01172,0.07031 h 0.890625 l -0.867188,3.304687 c -0.02344,0.105469 -0.03516,0.152344 -0.07031,0.257813 -0.117188,0.386718 -0.199219,0.761718 -0.199219,0.878906 0,0.257812 0.246094,0.445312 0.574219,0.445312 0.550781,0 0.949218,-0.328125 1.699218,-1.453125 l -0.152343,-0.08203 c -0.585938,0.761719 -0.773438,0.949219 -0.972657,0.949219 -0.105468,0 -0.175781,-0.08203 -0.175781,-0.234375 0,-0.01172 0,-0.01172 0.01172,-0.07031 l 1.054687,-3.996093 h 1.007813 z m 4.658203,6.46875 c -0.28125,0.585937 -0.515625,0.726562 -1.195313,0.75 h -2.273437 v -0.05859 l 2.296875,-2.308594 c 1.40625,-1.394531 1.792968,-2.003906 1.792968,-2.800781 0,-1.136719 -0.855468,-2.027344 -1.945312,-2.027344 -0.433594,0 -0.878906,0.105469 -1.242188,0.304688 -0.609375,0.339843 -0.925781,0.75 -1.277343,1.617187 l 0.246093,0.08203 c 0.445313,-0.785156 0.960938,-1.125 1.6875,-1.125 0.867188,0 1.5,0.621094 1.5,1.453125 0,0.257813 -0.03516,0.480469 -0.105468,0.644532 -0.292969,0.644531 -0.84375,1.40625 -1.628907,2.238281 l -2.519531,2.695312 v 0.199219 h 4.265625 l 0.597656,-1.582031 z m -0.454102,0.820312 c 1.488281,-1.289062 2.097656,-2.074219 2.636719,-3.363281 0.339844,-0.796875 0.480469,-1.558594 0.480469,-2.449219 0,-0.691406 -0.09375,-1.441406 -0.269532,-2.167969 -0.199218,-0.808593 -0.375,-1.242187 -0.914062,-2.203125 l -0.234375,0.05859 c 0.410156,0.972656 0.585937,1.945313 0.585937,3.140625 0,1.523438 -0.410156,3.457031 -1.007812,4.757813 -0.339844,0.773437 -0.703125,1.277343 -1.441406,2.050781 z m 3.996094,0 c 1.488281,-1.289062 2.097656,-2.074219 2.636719,-3.363281 0.339843,-0.796875 0.480468,-1.558594 0.480468,-2.449219 0,-0.691406 -0.09375,-1.441406 -0.269531,-2.167969 -0.199219,-0.808593 -0.375,-1.242187 -0.914062,-2.203125 l -0.234375,0.05859 c 0.410156,0.972656 0.585937,1.945313 0.585937,3.140625 0,1.523438 -0.410156,3.457031 -1.007812,4.757813 -0.339844,0.773437 -0.703125,1.277343 -1.441407,2.050781 z m -74.138672,80.44043 c -0.445312,-1.21875 -0.574219,-1.957031 -0.574219,-3.117188 0,-1.453125 0.328125,-3.164062 0.890625,-4.5 0.398438,-0.949218 0.773438,-1.511718 1.558594,-2.332031 l -0.164062,-0.175781 c -1.558594,1.417969 -2.167969,2.203125 -2.671875,3.457031 -0.316407,0.75 -0.445313,1.488281 -0.445313,2.414063 0,0.925781 0.140625,1.816406 0.410156,2.648437 0.164063,0.503906 0.351563,0.890625 0.773438,1.675781 z m 5.636719,-7.230469 h -0.960938 L -41.875,56.423555 c 0.01172,-0.02344 0.01172,-0.04687 0.01172,-0.07031 0,-0.07031 -0.02344,-0.105469 -0.09375,-0.105469 -0.07031,0 -0.117188,0.01172 -0.1875,0.105469 -0.46875,0.597656 -1.207031,1.21875 -1.59375,1.324219 -0.292969,0.09375 -0.386719,0.164062 -0.386719,0.292969 0,0.01172 0,0.03516 0.01172,0.07031 h 0.890625 l -0.867188,3.304688 c -0.02344,0.105468 -0.03516,0.152343 -0.07031,0.257812 -0.117188,0.386719 -0.199219,0.761719 -0.199219,0.878906 0,0.257813 0.246094,0.445313 0.574219,0.445313 0.550781,0 0.949219,-0.328125 1.699219,-1.453125 l -0.152344,-0.08203 c -0.585938,0.761718 -0.773438,0.949218 -0.972656,0.949218 -0.105469,0 -0.175782,-0.08203 -0.175782,-0.234375 0,-0.01172 0,-0.01172 0.01172,-0.07031 l 1.054688,-3.996094 h 1.007812 z m 0.439453,8.132813 h 3.351562 v -0.175782 h -0.210937 c -0.585938,0 -0.820313,-0.117187 -0.820313,-0.386718 0,-0.105469 0.03516,-0.292969 0.140625,-0.621094 0.02344,-0.09375 0.03516,-0.152344 0.07031,-0.269531 l 1.722656,-6.222657 c 0.05859,-0.222656 0.07031,-0.292968 0.07031,-0.351562 0,-0.04687 -0.02344,-0.08203 -0.05859,-0.08203 0,0 -0.339844,0.05859 -0.984375,0.1875 l -1.078125,0.222656 c -0.02344,0.01172 -0.117188,0.02344 -0.257813,0.04687 v 0.175781 l 0.679688,-0.02344 c 0.28125,-0.01172 0.457031,0.128906 0.457031,0.375 0,0.08203 -0.02344,0.164062 -0.08203,0.410156 l -1.652344,5.894531 c -0.140625,0.445313 -0.398437,0.5625 -1.347656,0.65625 z m 3.47168,-1.453125 c 1.019531,-0.5625 1.558593,-1.230469 1.558593,-1.910157 0,-0.480468 -0.292968,-0.84375 -0.691406,-0.84375 -0.351562,0 -0.609375,0.234375 -0.609375,0.550782 0,0.222656 0.07031,0.339843 0.292969,0.550781 0.1875,0.164062 0.246094,0.257812 0.246094,0.386719 0,0.316406 -0.269532,0.644531 -0.902344,1.066406 z m 8.601562,-6.410157 h -0.726562 c -0.03516,0 -0.09375,-0.02344 -0.199219,-0.09375 -0.316406,-0.210937 -0.714844,-0.339843 -1.171875,-0.339843 -1.335938,0 -2.414063,0.925781 -2.414063,2.0625 0,0.621093 0.257813,0.972656 0.949219,1.289062 -0.703125,0.480469 -0.925781,0.726563 -0.925781,1.007813 0,0.152343 0.105469,0.304687 0.328125,0.46875 -1.183594,0.785156 -1.40625,1.019531 -1.40625,1.570312 0,0.832031 0.796875,1.371094 2.003906,1.371094 1.511719,0 2.519531,-0.703125 2.519531,-1.757813 0,-0.75 -0.5625,-1.265625 -1.710937,-1.582031 -0.527344,-0.128906 -0.84375,-0.316406 -0.84375,-0.503906 0,-0.175781 0.28125,-0.492188 0.433594,-0.492188 0.02344,0 0.04687,0 0.08203,0.01172 0.105469,0.02344 0.246094,0.03516 0.375,0.03516 1.101562,0 2.214844,-0.972656 2.214844,-1.898437 0,-0.210938 -0.03516,-0.410156 -0.105469,-0.679688 h 0.597656 z m -3.878906,4.523438 c 0.01172,0 0.03516,0.01172 0.05859,0.02344 0.03516,0.01172 0.152343,0.04687 0.339843,0.117188 1.289063,0.398437 1.722657,0.726562 1.722657,1.277344 0,0.644531 -0.703125,1.125 -1.617188,1.125 -0.960937,0 -1.523437,-0.445313 -1.523437,-1.21875 0,-0.292969 0.07031,-0.492188 0.257812,-0.714844 0.164063,-0.222656 0.65625,-0.609375 0.761719,-0.609375 z m 1.769531,-4.6875 c 0.445313,0 0.667969,0.292969 0.667969,0.855469 0,0.433593 -0.140625,0.949218 -0.363281,1.347656 -0.269532,0.492187 -0.644532,0.761719 -1.042969,0.761719 -0.457031,0 -0.726563,-0.339844 -0.726563,-0.902344 0,-1.101563 0.691407,-2.0625 1.464844,-2.0625 z m 4.359375,7.125 c -0.445312,-1.21875 -0.574219,-1.957031 -0.574219,-3.117188 0,-1.453125 0.328125,-3.164062 0.890625,-4.5 0.398438,-0.949218 0.773438,-1.511718 1.558594,-2.332031 l -0.164062,-0.175781 c -1.558594,1.417969 -2.167969,2.203125 -2.671875,3.457031 -0.316407,0.75 -0.445313,1.488281 -0.445313,2.414063 0,0.925781 0.140625,1.816406 0.410156,2.648437 0.164063,0.503906 0.351563,0.890625 0.773438,1.675781 z m 5.636719,-7.230469 h -0.960938 l 0.339844,-1.242187 c 0.01172,-0.02344 0.01172,-0.04687 0.01172,-0.07031 0,-0.07031 -0.02344,-0.105469 -0.09375,-0.105469 -0.07031,0 -0.117188,0.01172 -0.1875,0.105469 -0.46875,0.597656 -1.207031,1.21875 -1.59375,1.324219 -0.292969,0.09375 -0.386719,0.164062 -0.386719,0.292969 0,0.01172 0,0.03516 0.01172,0.07031 h 0.890625 l -0.867188,3.304688 c -0.02344,0.105468 -0.03516,0.152343 -0.07031,0.257812 -0.117188,0.386719 -0.199219,0.761719 -0.199219,0.878906 0,0.257813 0.246094,0.445313 0.574219,0.445313 0.550781,0 0.949219,-0.328125 1.699219,-1.453125 l -0.152344,-0.08203 c -0.585938,0.761718 -0.773438,0.949218 -0.972656,0.949218 -0.105469,0 -0.175782,-0.08203 -0.175782,-0.234375 0,-0.01172 0,-0.01172 0.01172,-0.07031 l 1.054688,-3.996094 h 1.007812 z m 0.339844,8.132813 h 3.351562 v -0.175782 h -0.210937 c -0.585938,0 -0.820313,-0.117187 -0.820313,-0.386718 0,-0.105469 0.03516,-0.292969 0.140625,-0.621094 0.02344,-0.09375 0.03516,-0.152344 0.07031,-0.269531 l 1.722656,-6.222657 c 0.05859,-0.222656 0.07031,-0.292968 0.07031,-0.351562 0,-0.04687 -0.02344,-0.08203 -0.05859,-0.08203 0,0 -0.339844,0.05859 -0.984375,0.1875 l -1.078125,0.222656 c -0.02344,0.01172 -0.117188,0.02344 -0.257813,0.04687 v 0.175781 l 0.679688,-0.02344 c 0.28125,-0.01172 0.457031,0.128906 0.457031,0.375 0,0.08203 -0.02344,0.164062 -0.08203,0.410156 l -1.652344,5.894531 c -0.140625,0.445313 -0.398438,0.5625 -1.347656,0.65625 z m 3.767578,-0.84375 c 1.488281,-1.289063 2.097656,-2.074219 2.636718,-3.363282 0.339844,-0.796875 0.480469,-1.558593 0.480469,-2.449218 0,-0.691407 -0.09375,-1.441407 -0.269531,-2.167969 -0.199219,-0.808594 -0.375,-1.242188 -0.914063,-2.203125 l -0.234375,0.05859 c 0.410157,0.972656 0.585938,1.945312 0.585938,3.140625 0,1.523437 -0.410156,3.457031 -1.007813,4.757812 -0.339843,0.773438 -0.703125,1.277344 -1.441406,2.050781 z m 3.996093,0 c 1.488282,-1.289063 2.097657,-2.074219 2.636719,-3.363282 0.3398439,-0.796875 0.4804689,-1.558593 0.4804689,-2.449218 0,-0.691407 -0.09375,-1.441407 -0.2695312,-2.167969 -0.1992187,-0.808594 -0.3749997,-1.242188 -0.9140627,-2.203125 l -0.234375,0.05859 c 0.410156,0.972656 0.585938,1.945312 0.585938,3.140625 0,1.523437 -0.410157,3.457031 -1.007813,4.757812 -0.339844,0.773438 -0.703125,1.277344 -1.441406,2.050781 z M 30.30957,95.898164 c -0.445312,-1.21875 -0.574218,-1.957031 -0.574218,-3.117187 0,-1.453125 0.328125,-3.164063 0.890625,-4.5 0.398437,-0.949219 0.773437,-1.511719 1.558593,-2.332032 l -0.164062,-0.175781 c -1.558594,1.417969 -2.167969,2.203125 -2.671875,3.457031 -0.316406,0.75 -0.445313,1.488282 -0.445313,2.414063 0,0.925781 0.140625,1.816406 0.410157,2.648437 0.164062,0.503907 0.351562,0.890625 0.773437,1.675782 z m 5.636719,-7.230469 h -0.960937 l 0.339843,-1.242187 c 0.01172,-0.02344 0.01172,-0.04687 0.01172,-0.07031 0,-0.07031 -0.02344,-0.105468 -0.09375,-0.105468 -0.07031,0 -0.117187,0.01172 -0.1875,0.105468 -0.46875,0.597657 -1.207031,1.21875 -1.59375,1.324219 -0.292969,0.09375 -0.386719,0.164063 -0.386719,0.292969 0,0.01172 0,0.03516 0.01172,0.07031 h 0.890625 l -0.867187,3.304688 c -0.02344,0.105469 -0.03516,0.152344 -0.07031,0.257812 -0.117187,0.386719 -0.199219,0.761719 -0.199219,0.878907 0,0.257812 0.246094,0.445312 0.574219,0.445312 0.550781,0 0.949219,-0.328125 1.699219,-1.453125 l -0.152344,-0.08203 c -0.585937,0.761719 -0.773437,0.949219 -0.972656,0.949219 -0.105469,0 -0.175781,-0.08203 -0.175781,-0.234375 0,-0.01172 0,-0.01172 0.01172,-0.07031 L 34.87989,89.0427 h 1.007812 z m 1.986328,1.324219 c 0.421875,-0.5625 0.832031,-0.796875 1.335938,-0.796875 0.644531,0 1.066406,0.433594 1.066406,1.089844 0,0.503906 -0.246094,0.9375 -0.761719,1.289062 -0.515625,0.339844 -1.042969,0.527344 -2.109375,0.703125 l 0.01172,0.1875 c 0.679687,0 0.796875,0.01172 1.113281,0.128907 0.726563,0.269531 1.113281,0.914062 1.113281,1.875 0,0.421875 -0.09375,0.855468 -0.269531,1.148437 -0.269531,0.480469 -0.808594,0.808594 -1.300781,0.808594 -0.234375,0 -0.492188,-0.117188 -0.855469,-0.386719 -0.351562,-0.246094 -0.539062,-0.328125 -0.773437,-0.328125 -0.328125,0 -0.527344,0.164063 -0.527344,0.46875 0,0.457031 0.480469,0.703125 1.347656,0.703125 0.667969,0 1.300781,-0.152344 1.792969,-0.445312 0.949219,-0.550782 1.546875,-1.558594 1.546875,-2.625 0,-0.878907 -0.351563,-1.417969 -1.148438,-1.792969 v -0.03516 c 1.441407,-0.5625 1.863282,-0.960938 1.863282,-1.769532 0,-0.878906 -0.703125,-1.523437 -1.675782,-1.523437 -0.832031,0 -1.570312,0.46875 -1.957031,1.242187 z m 1.924805,5.355469 c 1.019531,-0.5625 1.558594,-1.230469 1.558594,-1.910156 0,-0.480469 -0.292969,-0.84375 -0.691407,-0.84375 -0.351562,0 -0.609375,0.234375 -0.609375,0.550781 0,0.222656 0.07031,0.339844 0.292969,0.550781 0.1875,0.164063 0.246094,0.257813 0.246094,0.386719 0,0.316406 -0.269531,0.644531 -0.902344,1.066406 z m 8.601562,-6.410156 h -0.726562 c -0.03516,0 -0.09375,-0.02344 -0.199219,-0.09375 -0.316406,-0.210938 -0.714844,-0.339844 -1.171875,-0.339844 -1.335937,0 -2.414062,0.925781 -2.414062,2.0625 0,0.621094 0.257812,0.972656 0.949218,1.289062 -0.703125,0.480469 -0.925781,0.726563 -0.925781,1.007813 0,0.152344 0.105469,0.304687 0.328125,0.46875 -1.183594,0.785156 -1.40625,1.019531 -1.40625,1.570312 0,0.832032 0.796875,1.371094 2.003906,1.371094 1.511719,0 2.519532,-0.703125 2.519532,-1.757812 0,-0.75 -0.5625,-1.265625 -1.710938,-1.582032 -0.527344,-0.128906 -0.84375,-0.316406 -0.84375,-0.503906 0,-0.175781 0.28125,-0.492187 0.433594,-0.492187 0.02344,0 0.04687,0 0.08203,0.01172 0.105469,0.02344 0.246094,0.03516 0.375,0.03516 1.101563,0 2.214844,-0.972657 2.214844,-1.898438 0,-0.210937 -0.03516,-0.410156 -0.105469,-0.679687 h 0.597656 z m -3.878906,4.523437 c 0.01172,0 0.03516,0.01172 0.05859,0.02344 0.03516,0.01172 0.152344,0.04687 0.339844,0.117187 1.289062,0.398438 1.722656,0.726563 1.722656,1.277344 0,0.644531 -0.703125,1.125 -1.617188,1.125 -0.960937,0 -1.523437,-0.445313 -1.523437,-1.21875 0,-0.292969 0.07031,-0.492188 0.257812,-0.714844 0.164063,-0.222656 0.65625,-0.609375 0.761719,-0.609375 z m 1.769531,-4.6875 c 0.445313,0 0.667969,0.292969 0.667969,0.855469 0,0.433594 -0.140625,0.949219 -0.363281,1.347656 -0.269531,0.492188 -0.644531,0.761719 -1.042969,0.761719 -0.457031,0 -0.726562,-0.339844 -0.726562,-0.902344 0,-1.101562 0.691406,-2.0625 1.464843,-2.0625 z m 4.359375,7.125 c -0.445312,-1.21875 -0.574218,-1.957031 -0.574218,-3.117187 0,-1.453125 0.328125,-3.164063 0.890625,-4.5 0.398437,-0.949219 0.773437,-1.511719 1.558593,-2.332032 l -0.164062,-0.175781 c -1.558594,1.417969 -2.167969,2.203125 -2.671875,3.457031 -0.316406,0.75 -0.445313,1.488282 -0.445313,2.414063 0,0.925781 0.140625,1.816406 0.410157,2.648437 0.164062,0.503907 0.351562,0.890625 0.773437,1.675782 z m 5.636719,-7.230469 h -0.960937 l 0.339843,-1.242187 c 0.01172,-0.02344 0.01172,-0.04687 0.01172,-0.07031 0,-0.07031 -0.02344,-0.105468 -0.09375,-0.105468 -0.07031,0 -0.117187,0.01172 -0.1875,0.105468 -0.46875,0.597657 -1.207031,1.21875 -1.59375,1.324219 -0.292969,0.09375 -0.386719,0.164063 -0.386719,0.292969 0,0.01172 0,0.03516 0.01172,0.07031 h 0.890625 l -0.867187,3.304688 c -0.02344,0.105469 -0.03516,0.152344 -0.07031,0.257812 -0.117187,0.386719 -0.199219,0.761719 -0.199219,0.878907 0,0.257812 0.246094,0.445312 0.574219,0.445312 0.550781,0 0.949219,-0.328125 1.699219,-1.453125 l -0.152344,-0.08203 c -0.585937,0.761719 -0.773437,0.949219 -0.972656,0.949219 -0.105469,0 -0.175781,-0.08203 -0.175781,-0.234375 0,-0.01172 0,-0.01172 0.01172,-0.07031 L 55.279304,89.0427 h 1.007812 z m 1.886719,1.324219 c 0.421875,-0.5625 0.832031,-0.796875 1.335937,-0.796875 0.644532,0 1.066407,0.433594 1.066407,1.089844 0,0.503906 -0.246094,0.9375 -0.761719,1.289062 -0.515625,0.339844 -1.042969,0.527344 -2.109375,0.703125 l 0.01172,0.1875 c 0.679687,0 0.796875,0.01172 1.113281,0.128907 0.726562,0.269531 1.113281,0.914062 1.113281,1.875 0,0.421875 -0.09375,0.855468 -0.269531,1.148437 -0.269531,0.480469 -0.808594,0.808594 -1.300781,0.808594 -0.234375,0 -0.492188,-0.117188 -0.855469,-0.386719 -0.351563,-0.246094 -0.539063,-0.328125 -0.773438,-0.328125 -0.328125,0 -0.527343,0.164063 -0.527343,0.46875 0,0.457031 0.480468,0.703125 1.347656,0.703125 0.667969,0 1.300781,-0.152344 1.792969,-0.445312 0.949218,-0.550782 1.546875,-1.558594 1.546875,-2.625 0,-0.878907 -0.351563,-1.417969 -1.148438,-1.792969 v -0.03516 c 1.441406,-0.5625 1.863281,-0.960938 1.863281,-1.769532 0,-0.878906 -0.703125,-1.523437 -1.675781,-1.523437 -0.832031,0 -1.570312,0.46875 -1.957031,1.242187 z m 2.217773,5.964844 c 1.488282,-1.289063 2.097657,-2.074219 2.636719,-3.363281 0.339844,-0.796875 0.480469,-1.558594 0.480469,-2.449219 0,-0.691406 -0.09375,-1.441406 -0.269531,-2.167969 -0.199219,-0.808594 -0.375,-1.242187 -0.914063,-2.203125 l -0.234375,0.05859 c 0.410156,0.972656 0.585938,1.945312 0.585938,3.140625 0,1.523437 -0.410157,3.457031 -1.007813,4.757812 -0.339844,0.773438 -0.703125,1.277344 -1.441406,2.050782 z m 3.996094,0 c 1.488281,-1.289063 2.097656,-2.074219 2.636719,-3.363281 0.339844,-0.796875 0.480469,-1.558594 0.480469,-2.449219 0,-0.691406 -0.09375,-1.441406 -0.269532,-2.167969 -0.199218,-0.808594 -0.375,-1.242187 -0.914062,-2.203125 l -0.234375,0.05859 c 0.410156,0.972656 0.585937,1.945312 0.585937,3.140625 0,1.523437 -0.410156,3.457031 -1.007812,4.757812 -0.339844,0.773438 -0.703125,1.277344 -1.441406,2.050782 z M 64.80957,-49.103789 c -0.445312,-1.21875 -0.574218,-1.957031 -0.574218,-3.117188 0,-1.453125 0.328125,-3.164062 0.890625,-4.5 0.398437,-0.949218 0.773437,-1.511718 1.558593,-2.332031 l -0.164062,-0.175781 c -1.558594,1.417969 -2.167969,2.203125 -2.671875,3.457031 -0.316406,0.75 -0.445313,1.488281 -0.445313,2.414063 0,0.925781 0.140625,1.816406 0.410157,2.648437 0.164062,0.503906 0.351562,0.890625 0.773437,1.675781 z m 5.636719,-7.230469 h -0.960937 l 0.339843,-1.242187 c 0.01172,-0.02344 0.01172,-0.04687 0.01172,-0.07031 0,-0.07031 -0.02344,-0.105469 -0.09375,-0.105469 -0.07031,0 -0.117187,0.01172 -0.1875,0.105469 -0.46875,0.597656 -1.207031,1.21875 -1.59375,1.324219 -0.292969,0.09375 -0.386719,0.164062 -0.386719,0.292969 0,0.01172 0,0.03516 0.01172,0.07031 h 0.890625 l -0.867187,3.304688 c -0.02344,0.105468 -0.03516,0.152343 -0.07031,0.257812 -0.117187,0.386719 -0.199219,0.761719 -0.199219,0.878906 0,0.257813 0.246094,0.445313 0.574219,0.445313 0.550781,0 0.949219,-0.328125 1.699219,-1.453125 l -0.152344,-0.08203 c -0.585937,0.761718 -0.773437,0.949218 -0.972656,0.949218 -0.105469,0 -0.175781,-0.08203 -0.175781,-0.234375 0,-0.01172 0,-0.01172 0.01172,-0.07031 l 1.054688,-3.996094 h 1.007812 z m 5.291016,5.238281 h -1.136719 l 1.441406,-5.214843 h -0.480469 l -5.003906,5.167968 -0.246094,0.808594 h 3.140625 l -0.585937,2.132813 h 0.949219 l 0.550781,-2.109375 h 1.207031 z m -2.109375,0 h -2.542969 v -0.04687 l 3.644531,-3.820312 h 0.04687 z m 0.729492,1.441407 c 1.019531,-0.5625 1.558594,-1.230469 1.558594,-1.910157 0,-0.480468 -0.292969,-0.84375 -0.691407,-0.84375 -0.351562,0 -0.609375,0.234375 -0.609375,0.550782 0,0.222656 0.07031,0.339843 0.292969,0.550781 0.1875,0.164062 0.246094,0.257812 0.246094,0.386719 0,0.316406 -0.269531,0.644531 -0.902344,1.066406 z m 8.601562,-6.410157 h -0.726562 c -0.03516,0 -0.09375,-0.02344 -0.199219,-0.09375 -0.316406,-0.210937 -0.714844,-0.339843 -1.171875,-0.339843 -1.335937,0 -2.414062,0.925781 -2.414062,2.0625 0,0.621093 0.257812,0.972656 0.949218,1.289062 -0.703125,0.480469 -0.925781,0.726563 -0.925781,1.007813 0,0.152343 0.105469,0.304687 0.328125,0.46875 -1.183594,0.785156 -1.40625,1.019531 -1.40625,1.570312 0,0.832031 0.796875,1.371094 2.003906,1.371094 1.511719,0 2.519532,-0.703125 2.519532,-1.757813 0,-0.75 -0.5625,-1.265625 -1.710938,-1.582031 -0.527344,-0.128906 -0.84375,-0.316406 -0.84375,-0.503906 0,-0.175781 0.28125,-0.492188 0.433594,-0.492188 0.02344,0 0.04687,0 0.08203,0.01172 0.105469,0.02344 0.246094,0.03516 0.375,0.03516 1.101563,0 2.214844,-0.972656 2.214844,-1.898437 0,-0.210938 -0.03516,-0.410156 -0.105469,-0.679688 h 0.597656 z m -3.878906,4.523438 c 0.01172,0 0.03516,0.01172 0.05859,0.02344 0.03516,0.01172 0.152344,0.04687 0.339844,0.117188 1.289062,0.398437 1.722656,0.726562 1.722656,1.277344 0,0.644531 -0.703125,1.125 -1.617188,1.125 -0.960937,0 -1.523437,-0.445313 -1.523437,-1.21875 0,-0.292969 0.07031,-0.492188 0.257812,-0.714844 0.164063,-0.222656 0.65625,-0.609375 0.761719,-0.609375 z m 1.769531,-4.6875 c 0.445313,0 0.667969,0.292969 0.667969,0.855469 0,0.433593 -0.140625,0.949218 -0.363281,1.347656 -0.269531,0.492187 -0.644531,0.761719 -1.042969,0.761719 -0.457031,0 -0.726562,-0.339844 -0.726562,-0.902344 0,-1.101563 0.691406,-2.0625 1.464843,-2.0625 z m 4.359375,7.125 c -0.445312,-1.21875 -0.574218,-1.957031 -0.574218,-3.117188 0,-1.453125 0.328125,-3.164062 0.890625,-4.5 0.398437,-0.949218 0.773437,-1.511718 1.558593,-2.332031 l -0.164062,-0.175781 c -1.558594,1.417969 -2.167969,2.203125 -2.671875,3.457031 -0.316406,0.75 -0.445313,1.488281 -0.445313,2.414063 0,0.925781 0.140625,1.816406 0.410157,2.648437 0.164062,0.503906 0.351562,0.890625 0.773437,1.675781 z m 5.636719,-7.230469 h -0.960937 l 0.339843,-1.242187 c 0.01172,-0.02344 0.01172,-0.04687 0.01172,-0.07031 0,-0.07031 -0.02344,-0.105469 -0.09375,-0.105469 -0.07031,0 -0.117187,0.01172 -0.1875,0.105469 -0.46875,0.597656 -1.207031,1.21875 -1.59375,1.324219 -0.292969,0.09375 -0.386719,0.164062 -0.386719,0.292969 0,0.01172 0,0.03516 0.01172,0.07031 h 0.890625 l -0.867187,3.304688 c -0.02344,0.105468 -0.03516,0.152343 -0.07031,0.257812 -0.117187,0.386719 -0.199219,0.761719 -0.199219,0.878906 0,0.257813 0.246094,0.445313 0.574219,0.445313 0.550781,0 0.949219,-0.328125 1.699219,-1.453125 l -0.152344,-0.08203 c -0.585937,0.761718 -0.773437,0.949218 -0.972656,0.949218 -0.105469,0 -0.175781,-0.08203 -0.175781,-0.234375 0,-0.01172 0,-0.01172 0.01172,-0.07031 l 1.054688,-3.996094 h 1.007812 z m 5.191406,5.238281 h -1.136718 l 1.441406,-5.214843 h -0.480469 l -5.003906,5.167968 -0.246094,0.808594 h 3.140625 l -0.585937,2.132813 h 0.949218 l 0.550782,-2.109375 h 1.207031 z m -2.109375,0 h -2.542968 v -0.04687 l 3.644531,-3.820312 h 0.04687 z m 1.022461,2.050782 c 1.488282,-1.289063 2.097657,-2.074219 2.636719,-3.363282 0.339844,-0.796875 0.480469,-1.558593 0.480469,-2.449218 0,-0.691407 -0.09375,-1.441407 -0.269531,-2.167969 -0.199219,-0.808594 -0.375,-1.242188 -0.914063,-2.203125 l -0.234375,0.05859 c 0.410156,0.972656 0.585938,1.945312 0.585938,3.140625 0,1.523437 -0.410157,3.457031 -1.007813,4.757812 -0.339844,0.773438 -0.703125,1.277344 -1.441406,2.050781 z m 3.996094,0 c 1.488281,-1.289063 2.097661,-2.074219 2.636721,-3.363282 0.33984,-0.796875 0.48047,-1.558593 0.48047,-2.449218 0,-0.691407 -0.0937,-1.441407 -0.26953,-2.167969 -0.19922,-0.808594 -0.375,-1.242188 -0.91407,-2.203125 l -0.23437,0.05859 c 0.41015,0.972656 0.58594,1.945312 0.58594,3.140625 0,1.523437 -0.41016,3.457031 -1.00782,4.757812 -0.339841,0.773438 -0.703122,1.277344 -1.441403,2.050781 z M 98.811523,136.59738 c -0.445312,-1.21875 -0.574218,-1.95703 -0.574218,-3.11718 0,-1.45313 0.328125,-3.16407 0.890625,-4.5 0.398437,-0.94922 0.773437,-1.51172 1.55859,-2.33204 l -0.16406,-0.17578 c -1.558593,1.41797 -2.167968,2.20313 -2.671874,3.45703 -0.316406,0.75 -0.445313,1.48829 -0.445313,2.41407 0,0.92578 0.140625,1.8164 0.410157,2.64843 0.164062,0.50391 0.351562,0.89063 0.773437,1.67579 z m 5.636717,-7.23047 h -0.96094 l 0.33985,-1.24218 c 0.0117,-0.0234 0.0117,-0.0469 0.0117,-0.0703 0,-0.0703 -0.0234,-0.10546 -0.0937,-0.10546 -0.0703,0 -0.11719,0.0117 -0.1875,0.10546 -0.46875,0.59766 -1.20703,1.21875 -1.59375,1.32422 -0.29297,0.0937 -0.38672,0.16407 -0.38672,0.29297 0,0.0117 0,0.0352 0.0117,0.0703 h 0.89062 l -0.86719,3.30469 c -0.0234,0.10547 -0.0352,0.15235 -0.0703,0.25781 -0.11719,0.38672 -0.19922,0.76172 -0.19922,0.87891 0,0.25781 0.2461,0.44531 0.57422,0.44531 0.55078,0 0.94922,-0.32812 1.69922,-1.45312 l -0.15234,-0.082 c -0.58594,0.76172 -0.77344,0.94922 -0.97266,0.94922 -0.10547,0 -0.17578,-0.082 -0.17578,-0.23438 0,-0.0117 0,-0.0117 0.0117,-0.0703 l 1.05469,-3.9961 h 1.00781 z m 2.70996,0.9961 h 2.75391 l 0.28125,-0.85547 h -3.07031 l -1.25391,2.61328 v 0.1875 c 1.16016,0.24609 1.55859,0.38672 1.99219,0.73828 0.38672,0.31641 0.63281,0.91406 0.63281,1.54688 0,1.3125 -0.97266,2.48437 -2.05078,2.48437 -0.24609,0 -0.46875,-0.0937 -0.80859,-0.35156 -0.30469,-0.22266 -0.48047,-0.30469 -0.67969,-0.30469 -0.26953,0 -0.48047,0.19922 -0.48047,0.48047 0,0.43359 0.46875,0.67969 1.27734,0.67969 1.98047,0 3.57422,-1.53516 3.57422,-3.44531 0,-0.73829 -0.26953,-1.3711 -0.79687,-1.86329 -0.44532,-0.42187 -0.86719,-0.62109 -1.83985,-0.85546 z m 1.20118,5.68359 c 1.01953,-0.5625 1.55859,-1.23047 1.55859,-1.91015 0,-0.48047 -0.29297,-0.84375 -0.69141,-0.84375 -0.35156,0 -0.60937,0.23437 -0.60937,0.55078 0,0.22265 0.0703,0.33984 0.29297,0.55078 0.1875,0.16406 0.24609,0.25781 0.24609,0.38672 0,0.3164 -0.26953,0.64453 -0.90234,1.0664 z m 8.60156,-6.41015 h -0.72656 c -0.0352,0 -0.0937,-0.0234 -0.19922,-0.0937 -0.31641,-0.21094 -0.71485,-0.33985 -1.17188,-0.33985 -1.33594,0 -2.41406,0.92578 -2.41406,2.0625 0,0.6211 0.25781,0.97266 0.94922,1.28906 -0.70313,0.48047 -0.92578,0.72657 -0.92578,1.00782 0,0.15234 0.10547,0.30468 0.32812,0.46875 -1.18359,0.78515 -1.40625,1.01953 -1.40625,1.57031 0,0.83203 0.79688,1.37109 2.00391,1.37109 1.51172,0 2.51953,-0.70312 2.51953,-1.75781 0,-0.75 -0.5625,-1.26562 -1.71094,-1.58203 -0.52734,-0.12891 -0.84375,-0.31641 -0.84375,-0.50391 0,-0.17578 0.28125,-0.49218 0.4336,-0.49218 0.0234,0 0.0469,0 0.082,0.0117 0.10547,0.0234 0.24609,0.0352 0.375,0.0352 1.10156,0 2.21484,-0.97266 2.21484,-1.89844 0,-0.21093 -0.0352,-0.41015 -0.10547,-0.67968 h 0.59766 z m -3.87891,4.52343 c 0.0117,0 0.0352,0.0117 0.0586,0.0234 0.0352,0.0117 0.15234,0.0469 0.33984,0.11719 1.28906,0.39844 1.72266,0.72656 1.72266,1.27734 0,0.64453 -0.70313,1.125 -1.61719,1.125 -0.96094,0 -1.52344,-0.44531 -1.52344,-1.21875 0,-0.29297 0.0703,-0.49219 0.25781,-0.71484 0.16407,-0.22266 0.65625,-0.60938 0.76172,-0.60938 z m 1.76953,-4.6875 c 0.44532,0 0.66797,0.29297 0.66797,0.85547 0,0.4336 -0.14062,0.94922 -0.36328,1.34766 -0.26953,0.49219 -0.64453,0.76172 -1.04297,0.76172 -0.45703,0 -0.72656,-0.33985 -0.72656,-0.90235 0,-1.10156 0.69141,-2.0625 1.46484,-2.0625 z m 4.35938,7.125 c -0.44531,-1.21875 -0.57422,-1.95703 -0.57422,-3.11718 0,-1.45313 0.32812,-3.16407 0.89062,-4.5 0.39844,-0.94922 0.77344,-1.51172 1.5586,-2.33204 l -0.16406,-0.17578 c -1.5586,1.41797 -2.16797,2.20313 -2.67188,3.45703 -0.31641,0.75 -0.44531,1.48829 -0.44531,2.41407 0,0.92578 0.14062,1.8164 0.41015,2.64843 0.16407,0.50391 0.35157,0.89063 0.77344,1.67579 z m 5.63672,-7.23047 h -0.96094 l 0.33984,-1.24218 c 0.0117,-0.0234 0.0117,-0.0469 0.0117,-0.0703 0,-0.0703 -0.0234,-0.10546 -0.0937,-0.10546 -0.0703,0 -0.11719,0.0117 -0.1875,0.10546 -0.46875,0.59766 -1.20703,1.21875 -1.59375,1.32422 -0.29297,0.0937 -0.38672,0.16407 -0.38672,0.29297 0,0.0117 0,0.0352 0.0117,0.0703 h 0.89063 l -0.86719,3.30469 c -0.0234,0.10547 -0.0352,0.15235 -0.0703,0.25781 -0.11719,0.38672 -0.19922,0.76172 -0.19922,0.87891 0,0.25781 0.24609,0.44531 0.57422,0.44531 0.55078,0 0.94922,-0.32812 1.69922,-1.45312 l -0.15235,-0.082 c -0.58594,0.76172 -0.77344,0.94922 -0.97265,0.94922 -0.10547,0 -0.17579,-0.082 -0.17579,-0.23438 0,-0.0117 0,-0.0117 0.0117,-0.0703 l 1.05469,-3.9961 h 1.00781 z m 2.61035,0.9961 h 2.7539 l 0.28125,-0.85547 h -3.07031 l -1.2539,2.61328 v 0.1875 c 1.16015,0.24609 1.55859,0.38672 1.99218,0.73828 0.38672,0.31641 0.63282,0.91406 0.63282,1.54688 0,1.3125 -0.97266,2.48437 -2.05079,2.48437 -0.24609,0 -0.46875,-0.0937 -0.80859,-0.35156 -0.30469,-0.22266 -0.48047,-0.30469 -0.67969,-0.30469 -0.26953,0 -0.48047,0.19922 -0.48047,0.48047 0,0.43359 0.46875,0.67969 1.27735,0.67969 1.98047,0 3.57422,-1.53516 3.57422,-3.44531 0,-0.73829 -0.26953,-1.3711 -0.79688,-1.86329 -0.44531,-0.42187 -0.86719,-0.62109 -1.83984,-0.85546 z m 1.49414,6.29297 c 1.48828,-1.28907 2.09765,-2.07422 2.63672,-3.36328 0.33984,-0.79688 0.48047,-1.5586 0.48047,-2.44922 0,-0.69141 -0.0937,-1.44141 -0.26954,-2.16797 -0.19921,-0.8086 -0.375,-1.24219 -0.91406,-2.20313 l -0.23437,0.0586 c 0.41015,0.97265 0.58593,1.94531 0.58593,3.14062 0,1.52344 -0.41015,3.45703 -1.00781,4.75781 -0.33984,0.77344 -0.70312,1.27735 -1.4414,2.05079 z m 3.99609,0 c 1.48828,-1.28907 2.09766,-2.07422 2.63672,-3.36328 0.33984,-0.79688 0.48047,-1.5586 0.48047,-2.44922 0,-0.69141 -0.0937,-1.44141 -0.26953,-2.16797 -0.19922,-0.8086 -0.375,-1.24219 -0.91406,-2.20313 l -0.23438,0.0586 c 0.41016,0.97265 0.58594,1.94531 0.58594,3.14062 0,1.52344 -0.41016,3.45703 -1.00781,4.75781 -0.33985,0.77344 -0.70313,1.27735 -1.44141,2.05079 z m 39.86133,-36.758793 c -0.44531,-1.21875 -0.57422,-1.957031 -0.57422,-3.117187 0,-1.453125 0.32813,-3.164063 0.89063,-4.5 0.39843,-0.949219 0.77343,-1.511719 1.55859,-2.332031 l -0.16406,-0.175782 c -1.5586,1.417969 -2.16797,2.203125 -2.67188,3.457032 -0.3164,0.75 -0.44531,1.488281 -0.44531,2.414062 0,0.925781 0.14063,1.816406 0.41016,2.648438 0.16406,0.503906 0.35156,0.890625 0.77343,1.675781 z m 5.63672,-7.230468 h -0.96094 l 0.33985,-1.242188 c 0.0117,-0.02344 0.0117,-0.04687 0.0117,-0.07031 0,-0.07031 -0.0234,-0.105469 -0.0937,-0.105469 -0.0703,0 -0.11718,0.01172 -0.1875,0.105469 -0.46875,0.597656 -1.20703,1.21875 -1.59375,1.324218 -0.29296,0.09375 -0.38671,0.164063 -0.38671,0.292969 0,0.01172 0,0.03516 0.0117,0.07031 h 0.89063 l -0.86719,3.304687 c -0.0234,0.105469 -0.0352,0.152344 -0.0703,0.257813 -0.11719,0.386718 -0.19922,0.761718 -0.19922,0.878906 0,0.257812 0.24609,0.445312 0.57422,0.445312 0.55078,0 0.94922,-0.328125 1.69922,-1.453125 l -0.15235,-0.08203 c -0.58593,0.761719 -0.77343,0.949219 -0.97265,0.949219 -0.10547,0 -0.17578,-0.08203 -0.17578,-0.234375 0,-0.01172 0,-0.01172 0.0117,-0.07031 l 1.05468,-3.996093 h 1.00782 z m 8.57226,0.292968 h -2.3789 v 0.199219 c 0.67969,0.05859 0.83203,0.175781 0.83203,0.609375 0,0.140625 -0.0234,0.269531 -0.10547,0.527344 -0.0117,0.03516 -0.0234,0.08203 -0.0234,0.09375 l -1.21875,4.558594 -2.49609,-5.988282 h -1.93359 v 0.199219 c 0.5625,0.04687 0.79687,0.199219 1.03125,0.667969 l -1.42969,5.003906 c -0.45703,1.535159 -0.55078,1.675779 -1.23047,1.781249 v 0.1875 h 2.36719 v -0.1875 c -0.6211,-0.0469 -0.83203,-0.1875 -0.83203,-0.51562 0,-0.164066 0.0351,-0.398441 0.10546,-0.656254 l 1.3711,-5.0625 2.7539,6.597654 h 0.21094 l 1.73438,-6.035154 c 0.44531,-1.558594 0.49218,-1.617187 1.24218,-1.78125 z m -3.36035,6.386719 c 1.01953,-0.5625 1.5586,-1.230469 1.5586,-1.910156 0,-0.480469 -0.29297,-0.84375 -0.69141,-0.84375 -0.35156,0 -0.60937,0.234375 -0.60937,0.550781 0,0.222656 0.0703,0.339844 0.29296,0.550781 0.1875,0.164063 0.2461,0.257813 0.2461,0.386719 0,0.316406 -0.26953,0.644531 -0.90235,1.066406 z m 8.60157,-6.410156 h -0.72657 c -0.0351,0 -0.0937,-0.02344 -0.19922,-0.09375 -0.3164,-0.210938 -0.71484,-0.339844 -1.17187,-0.339844 -1.33594,0 -2.41406,0.925781 -2.41406,2.0625 0,0.621094 0.25781,0.972656 0.94922,1.289063 -0.70313,0.480468 -0.92579,0.726562 -0.92579,1.007812 0,0.152344 0.10547,0.304688 0.32813,0.46875 -1.18359,0.785156 -1.40625,1.019531 -1.40625,1.570313 0,0.832031 0.79687,1.371096 2.00391,1.371096 1.51171,0 2.51953,-0.703128 2.51953,-1.757815 0,-0.75 -0.5625,-1.265625 -1.71094,-1.582031 -0.52734,-0.128907 -0.84375,-0.316407 -0.84375,-0.503907 0,-0.175781 0.28125,-0.492187 0.43359,-0.492187 0.0234,0 0.0469,0 0.082,0.01172 0.10547,0.02344 0.2461,0.03516 0.375,0.03516 1.10157,0 2.21485,-0.972656 2.21485,-1.898438 0,-0.210937 -0.0352,-0.410156 -0.10547,-0.679687 h 0.59766 z m -3.87891,4.523437 c 0.0117,0 0.0352,0.01172 0.0586,0.02344 0.0352,0.01172 0.15235,0.04687 0.33985,0.117187 1.28906,0.398438 1.72265,0.726563 1.72265,1.277344 0,0.644531 -0.70312,1.125002 -1.61718,1.125002 -0.96094,0 -1.52344,-0.445314 -1.52344,-1.218752 0,-0.292969 0.0703,-0.492187 0.25781,-0.714844 0.16406,-0.222656 0.65625,-0.609375 0.76172,-0.609375 z m 1.76953,-4.6875 c 0.44531,0 0.66797,0.292969 0.66797,0.855469 0,0.433594 -0.14063,0.949219 -0.36328,1.347656 -0.26953,0.492188 -0.64453,0.761719 -1.04297,0.761719 -0.45703,0 -0.72656,-0.339844 -0.72656,-0.902344 0,-1.101562 0.6914,-2.0625 1.46484,-2.0625 z m 4.35938,7.125 c -0.44532,-1.21875 -0.57422,-1.957031 -0.57422,-3.117187 0,-1.453125 0.32812,-3.164063 0.89062,-4.5 0.39844,-0.949219 0.77344,-1.511719 1.5586,-2.332031 l -0.16407,-0.175782 c -1.55859,1.417969 -2.16797,2.203125 -2.67187,3.457032 -0.31641,0.75 -0.44531,1.488281 -0.44531,2.414062 0,0.925781 0.14062,1.816406 0.41015,2.648438 0.16406,0.503906 0.35156,0.890625 0.77344,1.675781 z m 5.63671,-7.230468 h -0.96093 l 0.33984,-1.242188 c 0.0117,-0.02344 0.0117,-0.04687 0.0117,-0.07031 0,-0.07031 -0.0234,-0.105469 -0.0937,-0.105469 -0.0703,0 -0.11719,0.01172 -0.1875,0.105469 -0.46875,0.597656 -1.20703,1.21875 -1.59375,1.324218 -0.29297,0.09375 -0.38672,0.164063 -0.38672,0.292969 0,0.01172 0,0.03516 0.0117,0.07031 h 0.89062 l -0.86718,3.304687 c -0.0234,0.105469 -0.0352,0.152344 -0.0703,0.257813 -0.11718,0.386718 -0.19921,0.761718 -0.19921,0.878906 0,0.257812 0.24609,0.445312 0.57421,0.445312 0.55079,0 0.94922,-0.328125 1.69922,-1.453125 l -0.15234,-0.08203 C 198.5762,97.155 198.3887,97.3425 198.18948,97.3425 c -0.10547,0 -0.17578,-0.08203 -0.17578,-0.234375 0,-0.01172 0,-0.01172 0.0117,-0.07031 l 1.05469,-3.996093 h 1.00781 z m 8.57227,0.292968 h -2.37891 v 0.199219 c 0.67969,0.05859 0.83203,0.175781 0.83203,0.609375 0,0.140625 -0.0234,0.269531 -0.10546,0.527344 -0.0117,0.03516 -0.0234,0.08203 -0.0234,0.09375 l -1.21875,4.558594 -2.4961,-5.988282 h -1.93359 v 0.199219 c 0.5625,0.04687 0.79688,0.199219 1.03125,0.667969 l -1.42969,5.003906 c -0.45703,1.535159 -0.55078,1.675779 -1.23047,1.781249 v 0.1875 h 2.36719 v -0.1875 c -0.62109,-0.0469 -0.83203,-0.1875 -0.83203,-0.51562 0,-0.164066 0.0352,-0.398441 0.10547,-0.656254 l 1.37109,-5.0625 2.75391,6.597654 h 0.21094 l 1.73437,-6.035154 c 0.44531,-1.558594 0.49219,-1.617187 1.24219,-1.78125 z m -3.06738,6.996094 c 1.48828,-1.289062 2.09765,-2.074219 2.63672,-3.363281 0.33984,-0.796875 0.48046,-1.558594 0.48046,-2.449219 0,-0.691406 -0.0937,-1.441406 -0.26953,-2.167969 -0.19922,-0.808593 -0.375,-1.242187 -0.91406,-2.203125 l -0.23437,0.05859 c 0.41015,0.972656 0.58593,1.945313 0.58593,3.140625 0,1.523438 -0.41015,3.457031 -1.00781,4.757813 -0.33984,0.773437 -0.70312,1.277343 -1.44141,2.050781 z m 3.99609,0 c 1.48828,-1.289062 2.09766,-2.074219 2.63672,-3.363281 0.33984,-0.796875 0.48047,-1.558594 0.48047,-2.449219 0,-0.691406 -0.0937,-1.441406 -0.26953,-2.167969 -0.19922,-0.808593 -0.375,-1.242187 -0.91407,-2.203125 l -0.23437,0.05859 c 0.41016,0.972656 0.58594,1.945313 0.58594,3.140625 0,1.523438 -0.41016,3.457031 -1.00782,4.757813 -0.33984,0.773437 -0.70312,1.277343 -1.4414,2.050781 z m 0,0"
         style="fill:#231f20;fill-opacity:1;fill-rule:nonzero;stroke:none" />
      <path
         id="path9"
         d="m 192.2627,79.500703 v -6.492187 h 3.375 v 6.492187 z m 0.5625,-0.5625 h 2.25 v -5.367187 h -2.25 z m 0,0"
         style="fill:#231f20;fill-opacity:1;fill-rule:nonzero;stroke:none" />
    </g>
    <path
       id="path10"
       d="m 294.25,920.25 557,542 397,-851 397,1247 312,-1615"
       style="fill:none;stroke:#231f20;stroke-width:5;stroke-linecap:butt;stroke-linejoin:miter;stroke-miterlimit:3.8637;stroke-dasharray:none;stroke-opacity:1"
       transform="matrix(0.13333333,0,0,-0.13333333,0,303.09333)" />
    <path
       id="path11"
       d="m 2354.25,1263.25 425,-623"
       style="fill:none;stroke:#231f20;stroke-width:5;stroke-linecap:butt;stroke-linejoin:miter;stroke-miterlimit:3.8637;stroke-dasharray:none;stroke-opacity:1"
       transform="matrix(0.13333333,0,0,-0.13333333,0,303.09333)" />
    <path
       id="path12"
       d="m 1957.25,243.25 78,201"
       style="fill:none;stroke:#231f20;stroke-width:5;stroke-linecap:butt;stroke-linejoin:miter;stroke-miterlimit:3.8637;stroke-dasharray:20, 20;stroke-dashoffset:0;stroke-opacity:1"
       transform="matrix(0.13333333,0,0,-0.13333333,0,303.09333)" />
    <path
       id="path13"
       d="m 2293.25,1106.25 61,157"
       style="fill:none;stroke:#231f20;stroke-width:5;stroke-linecap:butt;stroke-linejoin:miter;stroke-miterlimit:3.8637;stroke-dasharray:20, 20;stroke-dashoffset:0;stroke-opacity:1"
       transform="matrix(0.13333333,0,0,-0.13333333,0,303.09333)" />
  </g>
</svg>
