<?xml version="1.0" encoding="UTF-8" standalone="no"?>
<!-- Created with Inkscape (http://www.inkscape.org/) -->

<svg
   version="1.1"
   id="svg1"
   width="278.45334"
   height="177.52"
   viewBox="0 0 278.45334 177.52"
   sodipodi:docname="FLW2I4.EPS"
   xmlns:inkscape="http://www.inkscape.org/namespaces/inkscape"
   xmlns:sodipodi="http://sodipodi.sourceforge.net/DTD/sodipodi-0.dtd"
   xmlns="http://www.w3.org/2000/svg"
   xmlns:svg="http://www.w3.org/2000/svg">
  <defs
     id="defs1" />
  <sodipodi:namedview
     id="namedview1"
     pagecolor="#ffffff"
     bordercolor="#000000"
     borderopacity="0.25"
     inkscape:showpageshadow="2"
     inkscape:pageopacity="0.0"
     inkscape:pagecheckerboard="0"
     inkscape:deskcolor="#d1d1d1">
    <inkscape:page
       x="0"
       y="0"
       inkscape:label="1"
       id="page1"
       width="278.45334"
       height="177.52"
       margin="0"
       bleed="0" />
  </sodipodi:namedview>
  <g
     id="g1"
     inkscape:groupmode="layer"
     inkscape:label="1">
    <path
       id="path1"
       d="m 1627.25,1061.25 -1049,29 -359,-741 1607,-280 z"
       style="fill:none;stroke:#231f20;stroke-width:5;stroke-linecap:butt;stroke-linejoin:miter;stroke-miterlimit:3.8637;stroke-dasharray:none;stroke-opacity:1"
       transform="matrix(0.13333333,0,0,-0.13333333,0,177.52)" />
    <g
       id="g2"
       aria-label="●&#10;●&#10;●&#10;●&#10;T&#10;4T&#10;3&#10;T&#10;1&#10;T&#10;2"
       transform="matrix(1.3333333,0,0,1.3333333,24.566667,135.48667)">
      <path
         id="path2"
         d="M 0.56230469,0.00121094 V -6.4909766 H 3.9373047 v 6.49218754 z m 0.56250001,-0.5625 h 2.25 V -5.9284766 h -2.25 z M 36.562305,-73.999766 v -6.492187 h 3.375 v 6.492187 z m 0.5625,-0.5625 h 2.25 v -5.367187 h -2.25 z M 161.0623,27.701406 v -6.492187 h 3.375 v 6.492187 z m 0.5625,-0.5625 h 2.25 v -5.367187 h -2.25 z M 141.16387,-71.79957 v -6.492188 h 3.375 v 6.492188 z m 0.5625,-0.5625 h 2.25 v -5.367188 h -2.25 z m 0,0"
         style="fill:#231f20;fill-opacity:1;fill-rule:nonzero;stroke:none" />
      <path
         id="path3"
         d="m 40.063281,-94.226328 h -4.253906 l -0.339844,1.230469 0.152344,0.03516 c 0.421875,-0.867188 0.679688,-0.996094 1.898438,-0.984375 l -1.148438,4.230469 c -0.128906,0.421875 -0.328125,0.550781 -0.855469,0.585937 v 0.128906 h 2.320313 v -0.128906 c -0.679688,-0.05859 -0.714844,-0.07031 -0.714844,-0.363281 0,-0.105469 0.01172,-0.175781 0.09375,-0.46875 l 1.113281,-3.984375 h 0.445313 c 0.574219,0 0.832031,0.199219 0.832031,0.644531 0,0.105469 -0.01172,0.222656 -0.02344,0.363281 l 0.128906,0.01172 z m 5.258789,6.292969 h -0.75 l 0.960938,-3.480469 h -0.328125 l -3.339844,3.457031 -0.152344,0.527344 h 2.097657 l -0.398438,1.429687 h 0.632813 l 0.375,-1.40625 h 0.796875 z m -1.40625,0 h -1.699218 v -0.02344 l 2.4375,-2.554687 h 0.03516 z m 88.34766,-3.292969 h -4.25391 l -0.33984,1.230469 0.15234,0.03516 c 0.42188,-0.867188 0.67969,-0.996094 1.89844,-0.984375 l -1.14844,4.230469 c -0.12891,0.421875 -0.32812,0.550781 -0.85547,0.585937 v 0.128906 h 2.32031 v -0.128906 c -0.67968,-0.05859 -0.71484,-0.07031 -0.71484,-0.363281 0,-0.105469 0.0117,-0.175781 0.0937,-0.46875 l 1.11328,-3.984375 h 0.44531 c 0.57422,0 0.83204,0.199219 0.83204,0.644531 0,0.105469 -0.0117,0.222656 -0.0234,0.363281 l 0.1289,0.01172 z m 2.96484,3.691406 c 0.26953,-0.375 0.55078,-0.539062 0.87891,-0.539062 0.43359,0 0.71484,0.292968 0.71484,0.726562 0,0.339844 -0.16406,0.621094 -0.51562,0.855469 -0.33985,0.234375 -0.67969,0.351562 -1.39454,0.480469 l 0.0117,0.117187 c 0.44532,0 0.52735,0.01172 0.72657,0.08203 0.49218,0.1875 0.75,0.621094 0.75,1.253907 0,0.28125 -0.0586,0.574218 -0.17579,0.761718 -0.1875,0.328125 -0.53906,0.550782 -0.86718,0.550782 -0.15235,0 -0.33985,-0.08203 -0.57422,-0.257813 -0.23438,-0.164062 -0.36328,-0.222656 -0.51563,-0.222656 -0.22265,0 -0.35156,0.105469 -0.35156,0.304687 0,0.304688 0.32813,0.480469 0.90234,0.480469 0.44532,0 0.86719,-0.105469 1.19532,-0.292969 0.62109,-0.375 1.03125,-1.042968 1.03125,-1.757812 0,-0.585938 -0.23438,-0.949219 -0.76172,-1.195313 v -0.02344 c 0.96094,-0.375 1.24219,-0.644531 1.24219,-1.183594 0,-0.585937 -0.48047,-1.019531 -1.125,-1.019531 -0.55079,0 -1.04297,0.316406 -1.30079,0.832031 z m -145.564453,70.608399 h -4.253906 l -0.339844,1.230468 0.152344,0.03516 c 0.421875,-0.867188 0.679687,-0.996094 1.898437,-0.984375 l -1.148437,4.230468 c -0.128906,0.421875 -0.328125,0.550782 -0.855469,0.585938 v 0.128906 h 2.320313 v -0.128906 c -0.679688,-0.05859 -0.714844,-0.07031 -0.714844,-0.363281 0,-0.105469 0.01172,-0.175782 0.09375,-0.46875 l 1.113281,-3.984375 h 0.445313 c 0.574218,0 0.832031,0.199218 0.832031,0.644531 0,0.105469 -0.01172,0.222656 -0.02344,0.363281 l 0.128907,0.01172 z m 2.0214846,8.2265621 h 2.2382812 v -0.1171875 h -0.140625 c -0.3867187,0 -0.5507812,-0.070312 -0.5507812,-0.2578125 0,-0.070312 0.023437,-0.1875 0.09375,-0.421875 0.023437,-0.046875 0.035156,-0.09375 0.058594,-0.1757813 l 1.1367188,-4.1484378 c 0.046875,-0.140625 0.046875,-0.199218 0.046875,-0.234375 0,-0.03516 -0.011719,-0.05859 -0.035156,-0.05859 0,0 -0.2226562,0.04687 -0.65625,0.128906 l -0.7265625,0.152344 c -0.011719,0 -0.070312,0.01172 -0.1640625,0.02344 v 0.117188 l 0.4570313,-0.01172 c 0.1875,-0.01172 0.3046875,0.09375 0.3046875,0.246094 0,0.05859 -0.011719,0.117187 -0.058594,0.28125 l -1.1015625,3.9374996 c -0.09375,0.2929687 -0.2695312,0.375 -0.9023437,0.421875 z M 178.46172,10.674063 h -4.25391 l -0.33984,1.230468 0.15234,0.03516 c 0.42188,-0.867188 0.67969,-0.996094 1.89844,-0.984375 l -1.14844,4.230468 c -0.1289,0.421875 -0.32812,0.550782 -0.85547,0.585938 v 0.128906 h 2.32032 v -0.128906 c -0.67969,-0.05859 -0.71485,-0.07031 -0.71485,-0.363281 0,-0.105469 0.0117,-0.175782 0.0937,-0.46875 l 1.11328,-3.984375 h 0.44532 c 0.57421,0 0.83203,0.199218 0.83203,0.644531 0,0.105469 -0.0117,0.222656 -0.0234,0.363281 l 0.12891,0.01172 z m 4.83691,7.113281 c -0.1875,0.398437 -0.33984,0.492187 -0.78515,0.503906 h -1.52344 v -0.03516 l 1.53516,-1.535156 c 0.9375,-0.9375 1.19531,-1.347657 1.19531,-1.875 0,-0.761719 -0.57422,-1.359375 -1.30078,-1.359375 -0.29297,0 -0.58594,0.07031 -0.82032,0.210937 -0.41015,0.222656 -0.63281,0.492188 -0.85546,1.078125 l 0.16406,0.04687 c 0.29297,-0.515625 0.64453,-0.75 1.125,-0.75 0.57422,0 0.99609,0.421875 0.99609,0.972656 0,0.175782 -0.0234,0.328125 -0.0703,0.433594 -0.19922,0.433594 -0.5625,0.9375 -1.07813,1.488281 L 180.19316,18.76 v 0.140625 h 2.84766 l 0.39844,-1.054687 z m 0,0"
         style="fill:#231f20;fill-opacity:1;fill-rule:nonzero;stroke:none" />
    </g>
  </g>
</svg>
