<?xml version="1.0" encoding="UTF-8" standalone="no"?>
<!-- Created with Inkscape (http://www.inkscape.org/) -->

<svg
   version="1.1"
   id="svg1"
   width="311.48001"
   height="214.42667"
   viewBox="0 0 311.48001 214.42667"
   sodipodi:docname="FLW2TE.EPS"
   xmlns:inkscape="http://www.inkscape.org/namespaces/inkscape"
   xmlns:sodipodi="http://sodipodi.sourceforge.net/DTD/sodipodi-0.dtd"
   xmlns="http://www.w3.org/2000/svg"
   xmlns:svg="http://www.w3.org/2000/svg">
  <defs
     id="defs1" />
  <sodipodi:namedview
     id="namedview1"
     pagecolor="#ffffff"
     bordercolor="#000000"
     borderopacity="0.25"
     inkscape:showpageshadow="2"
     inkscape:pageopacity="0.0"
     inkscape:pagecheckerboard="0"
     inkscape:deskcolor="#d1d1d1">
    <inkscape:page
       x="0"
       y="0"
       inkscape:label="1"
       id="page1"
       width="311.48001"
       height="214.42667"
       margin="0"
       bleed="0" />
  </sodipodi:namedview>
  <g
     id="g1"
     inkscape:groupmode="layer"
     inkscape:label="1">
    <path
       id="path1"
       d="M 5.0615234,-5.2276172 H 0.80761719 l -0.33984375,1.2304688 0.15234375,0.035156 C 1.0419922,-4.8291797 1.2998047,-4.9580859 2.5185547,-4.9463672 l -1.1484375,4.23046876 c -0.1289063,0.421875 -0.328125,0.55078125 -0.85546876,0.5859375 v 0.12890625 H 2.8349609 v -0.12890625 c -0.6796875,-0.0585938 -0.7148437,-0.0703125 -0.7148437,-0.36328125 0,-0.10546875 0.011719,-0.17578125 0.09375,-0.46875 L 3.3271484,-4.9463672 h 0.4453125 c 0.5742188,0 0.8320313,0.1992188 0.8320313,0.6445313 0,0.1054687 -0.011719,0.2226562 -0.023437,0.3632812 l 0.1289062,0.011719 z M 9.7988281,1.8856641 C 9.6113281,2.2841016 9.4589844,2.3778516 9.0136719,2.3895703 H 7.4902344 V 2.3544141 L 9.0253906,0.81925781 c 0.9375,-0.9375 1.1953124,-1.34765625 1.1953124,-1.87500001 0,-0.7617187 -0.5742186,-1.359375 -1.3007811,-1.359375 -0.2929688,0 -0.5859375,0.070312 -0.8203125,0.2109375 -0.4101563,0.2226563 -0.6328125,0.4921875 -0.8554688,1.078125 l 0.1640625,0.046875 c 0.2929688,-0.515625 0.6445313,-0.75 1.125,-0.75 0.5742188,0 0.9960938,0.421875 0.9960938,0.97265626 0,0.17578125 -0.023437,0.328125 -0.070312,0.43359375 -0.1992188,0.43359375 -0.5625,0.9375 -1.078125,1.48828129 l -1.6875,1.7929687 v 0.140625 H 9.5410156 L 9.9394531,1.9442578 Z M -120.33789,-65.426836 h -4.25391 l -0.33984,1.230469 0.15234,0.03516 c 0.42188,-0.867187 0.67969,-0.996094 1.89844,-0.984375 l -1.14844,4.230469 c -0.1289,0.421875 -0.32812,0.550781 -0.85547,0.585937 v 0.128907 h 2.32032 v -0.128907 c -0.67969,-0.05859 -0.71485,-0.07031 -0.71485,-0.363281 0,-0.105469 0.0117,-0.175781 0.0937,-0.46875 l 1.11328,-3.984375 h 0.44532 c 0.57422,0 0.83203,0.199219 0.83203,0.644531 0,0.105469 -0.0117,0.222657 -0.0234,0.363282 l 0.12891,0.01172 z m 3.06738,3.691406 c 0.26953,-0.375 0.55078,-0.539062 0.87891,-0.539062 0.43359,0 0.71484,0.292969 0.71484,0.726562 0,0.339844 -0.16406,0.621094 -0.51562,0.855469 -0.33985,0.234375 -0.67969,0.351563 -1.39453,0.480469 l 0.0117,0.117187 c 0.44532,0 0.52735,0.01172 0.72657,0.08203 0.49218,0.1875 0.75,0.621093 0.75,1.253906 0,0.28125 -0.0586,0.574219 -0.17578,0.761719 -0.1875,0.328125 -0.53907,0.550781 -0.86719,0.550781 -0.15235,0 -0.33985,-0.08203 -0.57422,-0.257813 -0.23438,-0.164062 -0.36328,-0.222656 -0.51563,-0.222656 -0.22265,0 -0.35156,0.105469 -0.35156,0.304688 0,0.304687 0.32813,0.480468 0.90235,0.480468 0.44531,0 0.86718,-0.105468 1.19531,-0.292968 0.62109,-0.375 1.03125,-1.042969 1.03125,-1.757813 0,-0.585937 -0.23438,-0.949219 -0.76172,-1.195312 v -0.02344 c 0.96094,-0.375 1.24219,-0.644531 1.24219,-1.183594 0,-0.585937 -0.48047,-1.019531 -1.125,-1.019531 -0.55078,0 -1.04297,0.316406 -1.30078,0.832031 z m -63.66797,89.308594 h -4.2539 l -0.33985,1.230469 0.15235,0.03516 c 0.42187,-0.867187 0.67968,-0.996094 1.89843,-0.984375 l -1.14843,4.230469 c -0.12891,0.421875 -0.32813,0.550781 -0.85547,0.585937 v 0.128907 h 2.32031 V 32.67082 c -0.67969,-0.05859 -0.71484,-0.07031 -0.71484,-0.363281 0,-0.105469 0.0117,-0.175781 0.0937,-0.46875 l 1.11328,-3.984375 h 0.44531 c 0.57422,0 0.83203,0.199219 0.83203,0.644531 0,0.105469 -0.0117,0.222657 -0.0234,0.363282 l 0.12891,0.01172 z m 2.02442,8.226563 h 2.23828 v -0.117188 h -0.14063 c -0.38671,0 -0.55078,-0.07031 -0.55078,-0.257812 0,-0.07031 0.0234,-0.1875 0.0937,-0.421875 0.0234,-0.04687 0.0352,-0.09375 0.0586,-0.175782 l 1.13672,-4.148437 c 0.0469,-0.140625 0.0469,-0.199219 0.0469,-0.234375 0,-0.03516 -0.0117,-0.05859 -0.0352,-0.05859 0,0 -0.22265,0.04687 -0.65625,0.128906 l -0.72656,0.152344 c -0.0117,0 -0.0703,0.01172 -0.16406,0.02344 v 0.117187 l 0.45703,-0.01172 c 0.1875,-0.01172 0.30469,0.09375 0.30469,0.246094 0,0.05859 -0.0117,0.117188 -0.0586,0.28125 l -1.10156,3.9375 c -0.0937,0.292969 -0.26953,0.375 -0.90234,0.421875 z m 0,0"
       style="fill:#231f20;fill-opacity:1;fill-rule:nonzero;stroke:none"
       aria-label="T&#10;2&#10;T&#10;3&#10;T&#10;1"
       transform="matrix(1.3333333,0,0,1.3333333,288.83333,97.06)" />
    <path
       id="path2"
       d="m 534.25,513.25 1610,283 -1241,567 z"
       style="fill:#e9e9e9;fill-opacity:1;fill-rule:nonzero;stroke:#231f20;stroke-width:5;stroke-linecap:butt;stroke-linejoin:miter;stroke-miterlimit:3.8637;stroke-dasharray:none;stroke-opacity:1"
       transform="matrix(0.13333333,0,0,-0.13333333,0,214.42667)" />
    <g
       id="g2"
       aria-label="●&#10;(x&#10;1&#10;,y&#10;1&#10;)&#10;●&#10;●&#10;(x&#10;3&#10;,y&#10;3&#10;)&#10;(x&#10;2&#10;,y&#10;2&#10;)&#10;x&#10;y"
       transform="matrix(1.3333333,0,0,1.3333333,66.566667,150.66)">
      <path
         id="path3"
         d="M 0.56230469,1.171875e-4 V -6.4920703 H 3.9373047 V 1.171875e-4 Z M 1.1248047,-0.56238281 h 2.25 V -5.9295703 h -2.25 z m 0,0"
         style="fill:#231f20;fill-opacity:1;fill-rule:nonzero;stroke:none" />
      <path
         id="path4"
         d="m -10.690625,14.797969 c -0.445312,-1.21875 -0.574219,-1.957032 -0.574219,-3.117188 0,-1.453125 0.328125,-3.1640623 0.890625,-4.4999998 C -9.9757812,6.2315625 -9.6007812,5.6690625 -8.815625,4.84875 L -8.9796875,4.6729687 C -10.538281,6.0909375 -11.147656,6.8760937 -11.651562,8.13 c -0.316407,0.75 -0.445313,1.4882812 -0.445313,2.414062 0,0.925782 0.140625,1.816407 0.410156,2.648438 0.164063,0.503906 0.351563,0.890625 0.773438,1.675781 z m 6.9140625,-3.433594 c -0.1054687,0.117187 -0.1640625,0.1875 -0.2695312,0.328125 -0.2695313,0.363281 -0.421875,0.480469 -0.5625,0.480469 -0.1640625,0 -0.28125,-0.152344 -0.3632813,-0.492188 -0.035156,-0.128906 -0.035156,-0.152344 -0.046875,-0.1875 -0.2929687,-1.230469 -0.4335937,-1.7812498 -0.4335937,-1.957031 0.5390625,-0.9375 0.9609375,-1.453125 1.1835937,-1.453125 0.070312,0 0.1757813,0.035156 0.28125,0.09375 0.1523438,0.082031 0.234375,0.1054687 0.3398438,0.1054687 0.234375,0 0.4101562,-0.1757812 0.4101562,-0.4335937 0,-0.2578125 -0.2109375,-0.4453125 -0.4921875,-0.4453125 -0.5273437,0 -0.9726562,0.4335937 -1.8164062,1.7226562 L -5.675,8.4698437 C -5.8390625,7.6495312 -5.9796875,7.4034375 -6.2960937,7.4034375 c -0.28125,0 -0.6679688,0.1054687 -1.40625,0.3515625 -0.070312,0.023437 -0.070312,0.023437 -0.1289063,0.046875 l 0.046875,0.1875 c 0.46875,-0.1289063 0.5507813,-0.140625 0.6679688,-0.140625 0.3046875,0 0.375,0.1171875 0.5390625,0.8320312 l 0.3515625,1.4765628 -0.984375,1.40625 c -0.2578125,0.351562 -0.4804688,0.574218 -0.609375,0.574218 -0.082031,0 -0.1992188,-0.03516 -0.3164063,-0.105468 -0.1523437,-0.09375 -0.28125,-0.128907 -0.3867187,-0.128907 -0.234375,0 -0.4101563,0.1875 -0.4101563,0.421875 0,0.316407 0.234375,0.503907 0.609375,0.503907 0.3632813,0 0.515625,-0.105469 1.1132813,-0.820313 0.3164062,-0.398437 0.5859375,-0.761719 1.078125,-1.417969 l 0.3632812,1.441407 c 0.1523438,0.621093 0.3046875,0.796875 0.6914063,0.796875 0.4570312,0 0.7734375,-0.28125 1.4648437,-1.359375 z m 1.1630859,4.335937 h 3.35156254 v -0.175781 h -0.2109375 c -0.5859375,0 -0.8203125,-0.117187 -0.8203125,-0.386719 0,-0.105468 0.0351563,-0.292968 0.140625,-0.621093 0.0234375,-0.09375 0.0351563,-0.152344 0.0703125,-0.269532 L 1.6404297,8.0245312 c 0.058594,-0.2226562 0.070312,-0.2929687 0.070312,-0.3515625 0,-0.046875 -0.023437,-0.082031 -0.058594,-0.082031 0,0 -0.3398437,0.058594 -0.98437496,0.1875 l -1.078125,0.2226562 c -0.0234375,0.011719 -0.1171875,0.023437 -0.2578125,0.046875 V 8.22375 l 0.6796875,-0.023437 c 0.28125,-0.011719 0.45703125,0.1289062 0.45703125,0.375 0,0.082031 -0.0234375,0.1640625 -0.0820313,0.4101562 L -1.2658203,14.88 c -0.140625,0.445312 -0.3984375,0.5625 -1.3476563,0.65625 z m 3.47167973,-1.453125 c 1.01953127,-0.5625 1.55859377,-1.230468 1.55859377,-1.910156 0,-0.480469 -0.2929688,-0.84375 -0.6914063,-0.84375 -0.3515625,0 -0.609375,0.234375 -0.609375,0.550781 0,0.222657 0.070312,0.339844 0.2929688,0.550782 0.1875,0.164062 0.2460937,0.257812 0.2460937,0.386718 0,0.316407 -0.2695312,0.644532 -0.90234372,1.066407 z M 3.9753906,7.895625 c 0.1523438,-0.035156 0.2460938,-0.046875 0.375,-0.046875 0.4921875,0 0.7265625,0.1992187 0.9609375,0.84375 0.328125,0.890625 0.9492188,3.457031 0.9492188,3.914062 0,0.1875 -0.082031,0.386719 -0.2578125,0.609375 -0.328125,0.445313 -0.609375,0.785157 -0.75,0.9375 -0.2578125,0.257813 -0.3867188,0.363282 -0.5390625,0.363282 -0.082031,0 -0.1523438,-0.03516 -0.2929688,-0.140625 -0.1757812,-0.140625 -0.2929687,-0.199219 -0.4453125,-0.199219 -0.2578125,0 -0.46875,0.199219 -0.46875,0.46875 0,0.316406 0.2578125,0.527344 0.6210938,0.527344 0.7617187,0 2.3203125,-1.792969 3.6328125,-4.171875 0.8203125,-1.4765628 1.1484375,-2.3437503 1.1484375,-2.9296878 0,-0.3632812 -0.2929688,-0.6679687 -0.65625,-0.6679687 -0.28125,0 -0.46875,0.1875 -0.46875,0.4453125 0,0.1992187 0.09375,0.3164062 0.3398437,0.46875 0.2226563,0.140625 0.3046875,0.2460937 0.3046875,0.4101562 0,0.4804688 -0.4335937,1.4062498 -1.4648437,3.1054688 L 6.7292969,10.438594 C 6.5417969,9.3721875 5.8738281,7.4034375 5.6980469,7.4034375 h -0.046875 c -0.023437,0.011719 -0.058594,0.011719 -0.1171875,0.011719 -0.09375,0.011719 -0.5390625,0.09375 -1.171875,0.2109375 -0.058594,0.011719 -0.2109375,0.046875 -0.3867188,0.070312 z m 5.709961,7.804687 h 3.3515624 v -0.175781 h -0.210937 c -0.585938,0 -0.820313,-0.117187 -0.820313,-0.386719 0,-0.105468 0.03516,-0.292968 0.140625,-0.621093 0.02344,-0.09375 0.03516,-0.152344 0.07031,-0.269532 l 1.722656,-6.2226558 c 0.05859,-0.2226562 0.07031,-0.2929687 0.07031,-0.3515625 0,-0.046875 -0.02344,-0.082031 -0.05859,-0.082031 0,0 -0.339844,0.058594 -0.984375,0.1875 l -1.078125,0.2226562 c -0.02344,0.011719 -0.117188,0.023437 -0.257813,0.046875 V 8.22375 L 12.31035,8.200313 c 0.28125,-0.011719 0.457031,0.1289062 0.457031,0.375 0,0.082031 -0.02344,0.1640625 -0.08203,0.4101562 L 11.033008,14.88 c -0.140625,0.445312 -0.398438,0.5625 -1.3476564,0.65625 z m 3.7675784,-0.84375 c 1.488281,-1.289062 2.097656,-2.074218 2.636718,-3.363281 0.339844,-0.796875 0.480469,-1.5585935 0.480469,-2.4492185 0,-0.6914063 -0.09375,-1.4414063 -0.269531,-2.1679688 -0.199219,-0.8085937 -0.375,-1.2421875 -0.914063,-2.203125 l -0.234375,0.058594 c 0.410157,0.9726562 0.585938,1.9453125 0.585938,3.140625 0,1.5234375 -0.410156,3.4570313 -1.007813,4.7578123 -0.339843,0.773437 -0.703125,1.277344 -1.441406,2.050781 z m 0,0"
         style="fill:#231f20;fill-opacity:1;fill-rule:nonzero;stroke:none" />
      <path
         id="path5"
         d="m 37.663867,-84.899297 v -6.492187 h 3.375 v 6.492187 z m 0.5625,-0.5625 h 2.25 v -5.367187 h -2.25 z m 123.336913,57.260742 v -6.492187 h 3.375 v 6.492187 z m 0.5625,-0.5625 h 2.25 v -5.367187 h -2.25 z m 0,0"
         style="fill:#231f20;fill-opacity:1;fill-rule:nonzero;stroke:none" />
      <path
         id="path6"
         d="m -0.38984375,-79.801641 c -0.4453125,-1.21875 -0.57421875,-1.957031 -0.57421875,-3.117187 0,-1.453125 0.328125,-3.164063 0.890625,-4.5 C 0.325,-88.368047 0.7,-88.930547 1.4851563,-89.750859 l -0.1640625,-0.175782 c -1.5585938,1.417969 -2.1679688,2.203125 -2.671875,3.457032 -0.3164063,0.75 -0.4453125,1.488281 -0.4453125,2.414062 0,0.925781 0.140625,1.816406 0.4101562,2.648438 0.1640625,0.503906 0.3515625,0.890625 0.7734375,1.675781 z m 6.91406255,-3.433593 c -0.1054688,0.117187 -0.1640625,0.1875 -0.2695313,0.328125 -0.2695312,0.363281 -0.421875,0.480468 -0.5625,0.480468 -0.1640625,0 -0.28125,-0.152343 -0.3632812,-0.492187 -0.035156,-0.128906 -0.035156,-0.152344 -0.046875,-0.1875 -0.2929688,-1.230469 -0.4335938,-1.78125 -0.4335938,-1.957031 0.5390625,-0.9375 0.9609375,-1.453125 1.1835938,-1.453125 0.070312,0 0.1757812,0.03516 0.28125,0.09375 0.1523437,0.08203 0.234375,0.105468 0.3398437,0.105468 0.234375,0 0.4101563,-0.175781 0.4101563,-0.433593 0,-0.257813 -0.2109375,-0.445313 -0.4921875,-0.445313 -0.5273438,0 -0.9726563,0.433594 -1.8164063,1.722656 l -0.1289062,-0.65625 c -0.1640625,-0.820312 -0.3046875,-1.066406 -0.6210938,-1.066406 -0.28125,0 -0.6679687,0.105469 -1.40625,0.351563 -0.070312,0.02344 -0.070312,0.02344 -0.1289062,0.04687 l 0.046875,0.1875 c 0.46875,-0.128907 0.5507812,-0.140625 0.6679687,-0.140625 0.3046875,0 0.375,0.117187 0.5390625,0.832031 l 0.3515625,1.476562 -0.984375,1.40625 c -0.2578125,0.351563 -0.4804687,0.574219 -0.609375,0.574219 -0.082031,0 -0.1992187,-0.03516 -0.3164062,-0.105469 -0.1523438,-0.09375 -0.28125,-0.128906 -0.3867188,-0.128906 -0.234375,0 -0.4101562,0.1875 -0.4101562,0.421875 0,0.316406 0.234375,0.503906 0.609375,0.503906 0.3632812,0 0.515625,-0.105468 1.1132812,-0.820312 0.3164063,-0.398438 0.5859375,-0.761719 1.078125,-1.417969 l 0.3632813,1.441406 c 0.1523437,0.621094 0.3046875,0.796875 0.6914062,0.796875 0.4570313,0 0.7734375,-0.28125 1.4648438,-1.359375 z m 2.7099609,-2.472657 c 0.421875,-0.5625 0.8320313,-0.796875 1.3359373,-0.796875 0.644531,0 1.066406,0.433594 1.066406,1.089844 0,0.503906 -0.246093,0.9375 -0.761718,1.289063 -0.515625,0.339843 -1.0429691,0.527343 -2.1093753,0.703125 l 0.011719,0.1875 c 0.6796875,0 0.796875,0.01172 1.1132813,0.128906 0.726562,0.269531 1.113281,0.914062 1.113281,1.875 0,0.421875 -0.09375,0.855469 -0.269531,1.148437 -0.269532,0.480469 -0.8085938,0.808594 -1.3007813,0.808594 -0.234375,0 -0.4921875,-0.117187 -0.8554687,-0.386719 -0.3515625,-0.246093 -0.5390625,-0.328125 -0.7734375,-0.328125 -0.328125,0 -0.5273438,0.164063 -0.5273438,0.46875 0,0.457032 0.4804688,0.703125 1.3476563,0.703125 0.6679687,0 1.3007812,-0.152343 1.792968,-0.445312 0.949219,-0.550781 1.546875,-1.558594 1.546875,-2.625 0,-0.878906 -0.351562,-1.417969 -1.148437,-1.792969 v -0.03516 c 1.441406,-0.5625 1.863281,-0.960938 1.863281,-1.769531 0,-0.878907 -0.703125,-1.523438 -1.675781,-1.523438 -0.832031,0 -1.5703123,0.46875 -1.957031,1.242188 z m 1.9248043,5.355469 c 1.019532,-0.5625 1.558594,-1.230469 1.558594,-1.910156 0,-0.480469 -0.292969,-0.84375 -0.691406,-0.84375 -0.351563,0 -0.609375,0.234375 -0.609375,0.550781 0,0.222656 0.07031,0.339844 0.292969,0.550781 0.1875,0.164063 0.246093,0.257813 0.246093,0.386719 0,0.316406 -0.269531,0.644531 -0.902343,1.066406 z m 3.117188,-6.351562 c 0.152344,-0.03516 0.246094,-0.04687 0.375,-0.04687 0.492187,0 0.726562,0.199218 0.960937,0.84375 0.328125,0.890625 0.949219,3.457031 0.949219,3.914062 0,0.1875 -0.08203,0.386719 -0.257812,0.609375 -0.328125,0.445313 -0.609375,0.785156 -0.75,0.9375 -0.257813,0.257813 -0.386719,0.363281 -0.539063,0.363281 -0.08203,0 -0.152344,-0.03516 -0.292969,-0.140625 -0.175781,-0.140625 -0.292968,-0.199218 -0.445312,-0.199218 -0.257813,0 -0.46875,0.199218 -0.46875,0.46875 0,0.316406 0.257812,0.527343 0.621094,0.527343 0.761718,0 2.320312,-1.792968 3.632812,-4.171875 0.820313,-1.476562 1.148438,-2.34375 1.148438,-2.929687 0,-0.363281 -0.292969,-0.667969 -0.65625,-0.667969 -0.28125,0 -0.46875,0.1875 -0.46875,0.445313 0,0.199218 0.09375,0.316406 0.339843,0.46875 0.222657,0.140625 0.304688,0.246093 0.304688,0.410156 0,0.480469 -0.433594,1.40625 -1.464844,3.105469 l -0.234375,-1.394532 c -0.1875,-1.066406 -0.855469,-3.035156 -1.03125,-3.035156 h -0.04687 c -0.02344,0.01172 -0.05859,0.01172 -0.117187,0.01172 -0.09375,0.01172 -0.539063,0.09375 -1.171875,0.210937 -0.05859,0.01172 -0.210938,0.04687 -0.386719,0.07031 z m 7.256836,0.996093 c 0.421875,-0.5625 0.832031,-0.796875 1.335937,-0.796875 0.644532,0 1.066407,0.433594 1.066407,1.089844 0,0.503906 -0.246094,0.9375 -0.761719,1.289063 -0.515625,0.339843 -1.042969,0.527343 -2.109375,0.703125 l 0.01172,0.1875 c 0.679687,0 0.796875,0.01172 1.113281,0.128906 0.726562,0.269531 1.113281,0.914062 1.113281,1.875 0,0.421875 -0.09375,0.855469 -0.269531,1.148437 -0.269531,0.480469 -0.808594,0.808594 -1.300781,0.808594 -0.234375,0 -0.492188,-0.117187 -0.855469,-0.386719 -0.351563,-0.246093 -0.539063,-0.328125 -0.773438,-0.328125 -0.328125,0 -0.527343,0.164063 -0.527343,0.46875 0,0.457032 0.480468,0.703125 1.347656,0.703125 0.667969,0 1.300781,-0.152343 1.792969,-0.445312 0.949218,-0.550781 1.546875,-1.558594 1.546875,-2.625 0,-0.878906 -0.351563,-1.417969 -1.148438,-1.792969 v -0.03516 c 1.441406,-0.5625 1.863281,-0.960938 1.863281,-1.769531 0,-0.878907 -0.703125,-1.523438 -1.675781,-1.523438 -0.832031,0 -1.570312,0.46875 -1.957031,1.242188 z m 2.217773,5.964844 c 1.488282,-1.289062 2.097657,-2.074219 2.636719,-3.363281 0.339844,-0.796875 0.480469,-1.558594 0.480469,-2.449219 0,-0.691406 -0.09375,-1.441406 -0.269531,-2.167969 -0.199219,-0.808593 -0.375,-1.242187 -0.914063,-2.203125 L 25.45,-89.868047 c 0.410156,0.972656 0.585938,1.945313 0.585938,3.140625 0,1.523438 -0.410157,3.457031 -1.007813,4.757813 -0.339844,0.773437 -0.703125,1.277343 -1.441406,2.050781 z m 121.160159,69.041016 c -0.44532,-1.21875 -0.57422,-1.957032 -0.57422,-3.117188 0,-1.453125 0.32812,-3.164062 0.89062,-4.5 0.39844,-0.949219 0.77344,-1.511719 1.5586,-2.332031 l -0.16407,-0.175781 c -1.55859,1.417968 -2.16796,2.203125 -2.67187,3.457031 -0.31641,0.75 -0.44531,1.488281 -0.44531,2.414062 0,0.925782 0.14062,1.816407 0.41015,2.648438 0.16407,0.503906 0.35157,0.890625 0.77344,1.675781 z m 6.91406,-3.433594 c -0.10547,0.117187 -0.16406,0.1875 -0.26953,0.328125 -0.26953,0.363281 -0.42188,0.480469 -0.5625,0.480469 -0.16406,0 -0.28125,-0.152344 -0.36328,-0.492188 -0.0352,-0.128906 -0.0352,-0.152344 -0.0469,-0.1875 -0.29297,-1.230469 -0.43359,-1.78125 -0.43359,-1.957031 0.53906,-0.9375 0.96094,-1.453125 1.18359,-1.453125 0.0703,0 0.17578,0.03516 0.28125,0.09375 0.15235,0.08203 0.23438,0.105469 0.33985,0.105469 0.23437,0 0.41015,-0.175782 0.41015,-0.433594 0,-0.257813 -0.21094,-0.445313 -0.49219,-0.445313 -0.52734,0 -0.97265,0.433594 -1.8164,1.722657 l -0.12891,-0.65625 c -0.16406,-0.820313 -0.30469,-1.066407 -0.62109,-1.066407 -0.28125,0 -0.66797,0.105469 -1.40625,0.351563 -0.0703,0.02344 -0.0703,0.02344 -0.12891,0.04687 l 0.0469,0.1875 c 0.46875,-0.128906 0.55078,-0.140625 0.66797,-0.140625 0.30468,0 0.375,0.117187 0.53906,0.832031 l 0.35156,1.476563 -0.98437,1.40625 c -0.25782,0.351562 -0.48047,0.574218 -0.60938,0.574218 -0.082,0 -0.19922,-0.03516 -0.31641,-0.105468 -0.15234,-0.09375 -0.28125,-0.128907 -0.38671,-0.128907 -0.23438,0 -0.41016,0.1875 -0.41016,0.421875 0,0.316407 0.23437,0.503907 0.60937,0.503907 0.36329,0 0.51563,-0.105469 1.11329,-0.820313 0.3164,-0.398437 0.58593,-0.761719 1.07812,-1.417969 l 0.36328,1.441407 c 0.15235,0.621093 0.30469,0.796875 0.69141,0.796875 0.45703,0 0.77344,-0.28125 1.46484,-1.359375 z m 5.2793,2.671875 c -0.28125,0.585937 -0.51563,0.726562 -1.19532,0.75 h -2.27343 v -0.05859 l 2.29687,-2.308594 c 1.40625,-1.394531 1.79297,-2.003906 1.79297,-2.800781 0,-1.136719 -0.85547,-2.027344 -1.94531,-2.027344 -0.4336,0 -0.87891,0.105469 -1.24219,0.304688 -0.60937,0.339844 -0.92578,0.75 -1.27734,1.617187 l 0.24609,0.08203 c 0.44531,-0.785157 0.96094,-1.125 1.6875,-1.125 0.86719,0 1.5,0.621093 1.5,1.453125 0,0.257812 -0.0352,0.480468 -0.10547,0.644531 -0.29297,0.644531 -0.84375,1.40625 -1.6289,2.238281 l -2.51954,2.6953127 v 0.1992188 h 4.26563 l 0.59766,-1.5820315 z m -0.74707,0.210937 c 1.01953,-0.5625 1.55859,-1.230468 1.55859,-1.910156 0,-0.480469 -0.29297,-0.84375 -0.69141,-0.84375 -0.35156,0 -0.60937,0.234375 -0.60937,0.550781 0,0.222657 0.0703,0.339844 0.29297,0.550782 0.1875,0.164062 0.24609,0.257812 0.24609,0.386718 0,0.316407 -0.26953,0.644532 -0.90234,1.066407 z m 3.11718,-6.351562 c 0.15235,-0.03516 0.2461,-0.04687 0.375,-0.04687 0.49219,0 0.72657,0.199219 0.96094,0.84375 0.32813,0.890625 0.94922,3.457031 0.94922,3.914062 0,0.1875 -0.082,0.386719 -0.25781,0.609375 -0.32813,0.445313 -0.60938,0.785157 -0.75,0.9375 -0.25781,0.257813 -0.38672,0.363282 -0.53906,0.363282 -0.082,0 -0.15235,-0.03516 -0.29297,-0.140625 -0.17578,-0.140625 -0.29297,-0.199219 -0.44532,-0.199219 -0.25781,0 -0.46875,0.199219 -0.46875,0.46875 0,0.316406 0.25782,0.527344 0.6211,0.527344 0.76172,0 2.32031,-1.792969 3.63281,-4.171875 0.82031,-1.476563 1.14844,-2.34375 1.14844,-2.929688 0,-0.363281 -0.29297,-0.667969 -0.65625,-0.667969 -0.28125,0 -0.46875,0.1875 -0.46875,0.445313 0,0.199219 0.0937,0.316406 0.33984,0.46875 0.22266,0.140625 0.30469,0.246094 0.30469,0.410156 0,0.480469 -0.43359,1.40625 -1.46484,3.105469 l -0.23438,-1.394531 c -0.1875,-1.066407 -0.85547,-3.035157 -1.03125,-3.035157 h -0.0469 c -0.0234,0.01172 -0.0586,0.01172 -0.11719,0.01172 -0.0937,0.01172 -0.53906,0.09375 -1.17188,0.210938 -0.0586,0.01172 -0.21093,0.04687 -0.38672,0.07031 z m 9.93164,6.140625 c -0.28125,0.585937 -0.51562,0.726562 -1.19531,0.75 h -2.27344 v -0.05859 l 2.29688,-2.308594 c 1.40625,-1.394531 1.79297,-2.003906 1.79297,-2.800781 0,-1.136719 -0.85547,-2.027344 -1.94531,-2.027344 -0.4336,0 -0.87891,0.105469 -1.24219,0.304688 -0.60938,0.339844 -0.92578,0.75 -1.27735,1.617187 l 0.2461,0.08203 c 0.44531,-0.785157 0.96094,-1.125 1.6875,-1.125 0.86719,0 1.5,0.621093 1.5,1.453125 0,0.257812 -0.0352,0.480468 -0.10547,0.644531 -0.29297,0.644531 -0.84375,1.40625 -1.62891,2.238281 l -2.51953,2.6953127 v 0.1992188 h 4.26563 l 0.59765,-1.5820315 z m -0.35449,0.820312 c 1.48828,-1.289062 2.09766,-2.074218 2.63672,-3.363281 0.33984,-0.796875 0.48047,-1.558594 0.48047,-2.449219 0,-0.691406 -0.0937,-1.441406 -0.26953,-2.167968 -0.19922,-0.808594 -0.375,-1.242188 -0.91406,-2.203125 l -0.23438,0.05859 c 0.41016,0.972657 0.58594,1.945313 0.58594,3.140625 0,1.523438 -0.41016,3.457032 -1.00781,4.757813 -0.33985,0.773437 -0.70313,1.277344 -1.44141,2.050781 z M 37.82793,41.165156 c -0.105469,0.117188 -0.164063,0.1875 -0.269532,0.328125 -0.269531,0.363281 -0.421875,0.480469 -0.5625,0.480469 -0.164062,0 -0.28125,-0.152344 -0.363281,-0.492188 -0.03516,-0.128906 -0.03516,-0.152343 -0.04687,-0.1875 -0.292969,-1.230468 -0.433594,-1.78125 -0.433594,-1.957031 0.539063,-0.9375 0.960938,-1.453125 1.183594,-1.453125 0.07031,0 0.175781,0.03516 0.28125,0.09375 0.152344,0.08203 0.234375,0.105469 0.339844,0.105469 0.234375,0 0.410156,-0.175781 0.410156,-0.433594 0,-0.257812 -0.210937,-0.445312 -0.492187,-0.445312 -0.527344,0 -0.972657,0.433593 -1.816407,1.722656 l -0.128906,-0.65625 c -0.164062,-0.820313 -0.304687,-1.066406 -0.621094,-1.066406 -0.28125,0 -0.667968,0.105468 -1.40625,0.351562 -0.07031,0.02344 -0.07031,0.02344 -0.128906,0.04687 l 0.04687,0.1875 c 0.46875,-0.128906 0.550781,-0.140625 0.667969,-0.140625 0.304687,0 0.375,0.117188 0.539062,0.832031 l 0.351563,1.476563 -0.984375,1.40625 c -0.257813,0.351562 -0.480469,0.574219 -0.609375,0.574219 -0.08203,0 -0.199219,-0.03516 -0.316406,-0.105469 -0.152344,-0.09375 -0.28125,-0.128906 -0.386719,-0.128906 -0.234375,0 -0.410156,0.1875 -0.410156,0.421875 0,0.316406 0.234375,0.503906 0.609375,0.503906 0.363281,0 0.515625,-0.105469 1.113281,-0.820313 0.316406,-0.398437 0.585937,-0.761718 1.078125,-1.417968 l 0.363281,1.441406 c 0.152344,0.621099 0.304688,0.79688 0.691406,0.79688 0.457032,0 0.773438,-0.28125 1.464844,-1.359375 z M -46.722852,-42.30457 c 0.152344,-0.03516 0.246094,-0.04687 0.375,-0.04687 0.492188,0 0.726563,0.199218 0.960938,0.84375 0.328125,0.890625 0.949219,3.457031 0.949219,3.914062 0,0.1875 -0.08203,0.386719 -0.257813,0.609375 -0.328125,0.445313 -0.609375,0.785156 -0.75,0.9375 -0.257812,0.257813 -0.386719,0.363281 -0.539062,0.363281 -0.08203,0 -0.152344,-0.03516 -0.292969,-0.140625 -0.175781,-0.140625 -0.292969,-0.199218 -0.445313,-0.199218 -0.257812,0 -0.46875,0.199218 -0.46875,0.46875 0,0.316406 0.257813,0.527343 0.621094,0.527343 0.761719,0 2.320313,-1.792968 3.632813,-4.171875 0.820312,-1.476562 1.148437,-2.34375 1.148437,-2.929687 0,-0.363281 -0.292969,-0.667969 -0.65625,-0.667969 -0.28125,0 -0.46875,0.1875 -0.46875,0.445313 0,0.199218 0.09375,0.316406 0.339844,0.46875 0.222656,0.140625 0.304687,0.246093 0.304687,0.410156 0,0.480469 -0.433593,1.40625 -1.464843,3.105469 l -0.234375,-1.394532 c -0.1875,-1.066406 -0.855469,-3.035156 -1.03125,-3.035156 h -0.04687 c -0.02344,0.01172 -0.05859,0.01172 -0.117188,0.01172 -0.09375,0.01172 -0.539062,0.09375 -1.171875,0.210937 -0.05859,0.01172 -0.210937,0.04687 -0.386719,0.07031 z m 0,0"
         style="fill:#231f20;fill-opacity:1;fill-rule:nonzero;stroke:none" />
    </g>
    <path
       id="path7"
       d="m 161.25,889.25 v -714"
       style="fill:none;stroke:#231f20;stroke-width:2.5;stroke-linecap:butt;stroke-linejoin:miter;stroke-miterlimit:3.8637;stroke-dasharray:none;stroke-opacity:1"
       transform="matrix(0.13333333,0,0,-0.13333333,0,214.42667)" />
    <path
       id="path8"
       d="m 161.25,886.25 h -15 l 15,38 15,-38 h -15"
       style="fill:#231f20;fill-opacity:1;fill-rule:evenodd;stroke:none"
       transform="matrix(0.13333333,0,0,-0.13333333,0,214.42667)" />
    <path
       id="path9"
       d="m 161.25,175.25 h 714"
       style="fill:none;stroke:#231f20;stroke-width:2.5;stroke-linecap:butt;stroke-linejoin:miter;stroke-miterlimit:3.8637;stroke-dasharray:none;stroke-opacity:1"
       transform="matrix(0.13333333,0,0,-0.13333333,0,214.42667)" />
    <path
       id="path10"
       d="m 872.25,175.25 v 15 l 38,-15 -38,-15 v 15"
       style="fill:#231f20;fill-opacity:1;fill-rule:evenodd;stroke:none"
       transform="matrix(0.13333333,0,0,-0.13333333,0,214.42667)" />
  </g>
</svg>
