<?xml version="1.0" encoding="UTF-8" standalone="no"?>
<!-- Created with Inkscape (http://www.inkscape.org/) -->

<svg
   version="1.1"
   id="svg1"
   width="216.50667"
   height="181.96001"
   viewBox="0 0 216.50667 181.96001"
   sodipodi:docname="FLW2I8.EPS"
   xmlns:inkscape="http://www.inkscape.org/namespaces/inkscape"
   xmlns:sodipodi="http://sodipodi.sourceforge.net/DTD/sodipodi-0.dtd"
   xmlns="http://www.w3.org/2000/svg"
   xmlns:svg="http://www.w3.org/2000/svg">
  <defs
     id="defs1" />
  <sodipodi:namedview
     id="namedview1"
     pagecolor="#ffffff"
     bordercolor="#000000"
     borderopacity="0.25"
     inkscape:showpageshadow="2"
     inkscape:pageopacity="0.0"
     inkscape:pagecheckerboard="0"
     inkscape:deskcolor="#d1d1d1">
    <inkscape:page
       x="0"
       y="0"
       inkscape:label="1"
       id="page1"
       width="216.50667"
       height="181.96001"
       margin="0"
       bleed="0" />
  </sodipodi:namedview>
  <g
     id="g1"
     inkscape:groupmode="layer"
     inkscape:label="1">
    <path
       id="path1"
       d="m 279.25,971.25 c 0.402,0.363 305.727,141.82 515,180 152.223,28.71 396.51,28.82 397,29 -0.49,-0.18 181.74,-202.727 198,-397 28.28,-340.184 -113.45,-566.957 -113,-567 -0.45,0.043 -255.57,85.082 -567,142 -254.715,46.016 -624.0078,-0.227 -624,0 -0.0078,-0.227 85.035,169.855 142,312 43.441,108.875 52.402,301.363 52,301 z"
       style="fill:none;stroke:#231f20;stroke-width:5;stroke-linecap:butt;stroke-linejoin:miter;stroke-miterlimit:3.8637;stroke-dasharray:none;stroke-opacity:1"
       transform="matrix(0.13333333,0,0,-0.13333333,0,181.96)" />
    <g
       id="g2"
       aria-label="●&#10;●&#10;●&#10;●&#10;●&#10;●&#10;●&#10;●&#10;T&#10;4&#10;T&#10;3&#10;T&#10;1&#10;T&#10;2&#10;T&#10;7&#10;T&#10;6&#10;T&#10;8&#10;T&#10;5"
       transform="matrix(1.3333333,0,0,1.3333333,165.1,156.99333)">
      <path
         id="path2"
         d="M 0.56367188,-8.59375e-4 V -6.4930469 H 3.9386719 V -8.59375e-4 Z M 1.1261719,-0.56335937 h 2.25 V -5.9305469 h -2.25 z M -117.73711,-14.201055 v -6.492187 h 3.375 v 6.492187 z m 0.5625,-0.5625 h 2.25 v -5.367187 h -2.25 z m 18.937501,-59.935547 v -6.492187 h 3.375 v 6.492187 z m 0.5625,-0.5625 h 2.25 v -5.367187 h -2.25 z m 88.7373043,-20.4375 v -6.492188 h 3.375 v 6.492188 z m 0.5625,-0.5625 h 2.25 v -5.367188 h -2.25 z m 20.4374997,40.661133 v -6.492187 h 3.375 v 6.492187 z m 0.5625,-0.5625 h 2.25 v -5.367187 h -2.25 z m -67.96289,-34.936523 v -6.492188 h 3.375 v 6.492188 z m 0.5625,-0.5625 h 2.25 v -5.367188 h -2.25 z m 4.338867,78.861328 v -6.492188 h 3.375 v 6.492188 z m 0.5625,-0.5625 h 2.25 v -5.367188 h -2.25 z m -52.863282,-34.637695 v -6.492188 h 3.375001 v 6.492188 z m 0.5625,-0.5625 h 2.250001 v -5.367188 h -2.250001 z m 0,0"
         style="fill:#231f20;fill-opacity:1;fill-rule:nonzero;stroke:none" />
      <path
         id="path3"
         d="m -94.536914,-91.726445 h -4.253906 l -0.339844,1.230468 0.152344,0.03516 c 0.421875,-0.867188 0.679687,-0.996094 1.898437,-0.984375 l -1.148437,4.230468 c -0.128907,0.421875 -0.328125,0.550782 -0.855469,0.585938 v 0.128906 h 2.320312 v -0.128906 c -0.679687,-0.05859 -0.714843,-0.07031 -0.714843,-0.363281 0,-0.105469 0.01172,-0.175782 0.09375,-0.46875 l 1.113281,-3.984375 h 0.445312 c 0.574219,0 0.832032,0.199218 0.832032,0.644531 0,0.105469 -0.01172,0.222656 -0.02344,0.363281 l 0.128906,0.01172 z m 5.258789,6.292968 h -0.75 l 0.960938,-3.480468 h -0.328125 l -3.339844,3.457031 -0.152344,0.527344 h 2.097656 l -0.398437,1.429687 h 0.632812 l 0.375,-1.40625 h 0.796875 z m -1.40625,0 h -1.699219 v -0.02344 l 2.4375,-2.554688 h 0.03516 z m 87.7470703,-24.893553 h -4.2539062 l -0.3398438,1.23047 0.1523438,0.0352 c 0.421875,-0.86718 0.6796875,-0.99609 1.8984375,-0.98437 l -1.1484375,4.23047 c -0.1289063,0.42187 -0.328125,0.55078 -0.8554688,0.58594 v 0.1289 h 2.3203125 v -0.1289 c -0.6796875,-0.0586 -0.7148437,-0.0703 -0.7148437,-0.36329 0,-0.10546 0.011719,-0.17578 0.09375,-0.46875 l 1.1132812,-3.98437 h 0.4453125 c 0.5742188,0 0.8320313,0.19922 0.8320313,0.64453 0,0.10547 -0.011719,0.22266 -0.023437,0.36328 l 0.1289062,0.0117 z m 3.06738283,3.69141 c 0.26953125,-0.375 0.55078125,-0.53907 0.87890627,-0.53907 0.4335937,0 0.7148437,0.29297 0.7148437,0.72657 0,0.33984 -0.1640625,0.62109 -0.515625,0.85546 -0.33984372,0.23438 -0.67968747,0.35157 -1.39453122,0.48047 l 0.0117188,0.11719 c 0.4453125,0 0.52734375,0.0117 0.7265625,0.082 0.49218752,0.1875 0.75000002,0.6211 0.75000002,1.25391 0,0.28125 -0.058594,0.57422 -0.1757812,0.76172 -0.18750007,0.32812 -0.53906257,0.55078 -0.86718757,0.55078 -0.15234375,0 -0.33984375,-0.082 -0.57421875,-0.25781 -0.234375,-0.16407 -0.36328125,-0.22266 -0.515625,-0.22266 -0.22265618,0 -0.35156248,0.10547 -0.35156248,0.30469 0,0.30468 0.32812498,0.48047 0.90234373,0.48047 0.4453125,0 0.8671875,-0.10547 1.1953125,-0.29297 0.62109377,-0.375 1.03125007,-1.04297 1.03125007,-1.75782 0,-0.58593 -0.234375,-0.94921 -0.7617188,-1.19531 v -0.0234 c 0.9609375,-0.375 1.2421875,-0.64453 1.2421875,-1.18359 0,-0.58594 -0.4804687,-1.01953 -1.125,-1.01953 -0.55078127,0 -1.04296877,0.31641 -1.30078127,0.83203 z M -115.73613,-8.52625 h -4.25391 l -0.33984,1.2304688 0.15234,0.035156 c 0.42188,-0.8671875 0.67969,-0.9960937 1.89844,-0.984375 l -1.14844,4.2304688 c -0.12891,0.421875 -0.32812,0.5507812 -0.85547,0.5859375 v 0.1289062 h 2.32031 v -0.1289062 c -0.67968,-0.058594 -0.71484,-0.070312 -0.71484,-0.3632813 0,-0.1054687 0.0117,-0.1757812 0.0937,-0.46875 l 1.11328,-3.984375 h 0.44531 c 0.57422,0 0.83204,0.1992188 0.83204,0.6445313 0,0.1054687 -0.0117,0.2226562 -0.0234,0.3632812 l 0.1289,0.011719 z m 2.02148,8.2265625 h 2.23828 V -0.416875 h -0.14062 c -0.38672,0 -0.55078,-0.0703125 -0.55078,-0.2578125 0,-0.0703125 0.0234,-0.1875 0.0937,-0.421875 0.0234,-0.046875 0.0352,-0.09375 0.0586,-0.1757812 l 1.13672,-4.1484375 c 0.0469,-0.140625 0.0469,-0.1992188 0.0469,-0.234375 0,-0.035156 -0.0117,-0.058594 -0.0352,-0.058594 0,0 -0.22266,0.046875 -0.65625,0.1289063 l -0.7265,0.1523439 c -0.0117,0 -0.0703,0.011719 -0.16407,0.023437 v 0.1171875 l 0.45703,-0.011719 c 0.1875,-0.011719 0.30469,0.09375 0.30469,0.2460937 0,0.058594 -0.0117,0.1171875 -0.0586,0.28125 l -1.10156,3.9375 c -0.0937,0.29296875 -0.26954,0.375 -0.90235,0.421875 z M 2.0636719,5.9727734 h -4.2539063 l -0.3398437,1.2304688 0.1523437,0.035156 c 0.421875,-0.8671875 0.6796875,-0.9960937 1.89843753,-0.984375 L -1.6277344,10.484492 c -0.1289062,0.421875 -0.328125,0.550781 -0.8554687,0.585938 v 0.128906 h 2.32031248 V 11.07043 c -0.6796875,-0.05859 -0.71484375,-0.07031 -0.71484375,-0.363282 0,-0.105468 0.0117188,-0.175781 0.09375,-0.46875 L 0.32929688,6.2540234 h 0.4453125 c 0.57421872,0 0.83203122,0.1992188 0.83203122,0.6445313 0,0.1054687 -0.011719,0.2226562 -0.023437,0.3632812 l 0.1289063,0.011719 z m 4.836914,7.1132816 c -0.1875,0.398437 -0.3398437,0.492187 -0.7851562,0.503906 H 4.5919922 v -0.03516 l 1.5351562,-1.535157 c 0.9375,-0.9375 1.1953125,-1.347656 1.1953125,-1.875 0,-0.7617183 -0.5742187,-1.3593746 -1.3007812,-1.3593746 -0.2929688,0 -0.5859375,0.070312 -0.8203125,0.2109375 C 4.7912109,9.2188672 4.5685547,9.4883984 4.3458984,10.074336 l 0.1640625,0.04687 c 0.2929688,-0.5156251 0.6445313,-0.7500001 1.125,-0.7500001 0.5742188,0 0.9960938,0.421875 0.9960938,0.9726561 0,0.175781 -0.023437,0.328125 -0.070312,0.433594 -0.1992188,0.433594 -0.5625,0.9375 -1.078125,1.488281 l -1.6875,1.792969 v 0.140625 H 6.6427734 L 7.0412109,13.144648 Z M -51.836719,-108.12684 h -4.253906 l -0.339844,1.23047 0.152344,0.0352 c 0.421875,-0.86719 0.679688,-0.99609 1.898438,-0.98438 l -1.148438,4.23047 c -0.128906,0.42188 -0.328125,0.55078 -0.855469,0.58594 v 0.12891 h 2.320313 v -0.12891 c -0.679688,-0.0586 -0.714844,-0.0703 -0.714844,-0.36328 0,-0.10547 0.01172,-0.17578 0.09375,-0.46875 l 1.113281,-3.98438 h 0.445313 c 0.574219,0 0.832031,0.19922 0.832031,0.64454 0,0.10546 -0.01172,0.22265 -0.02344,0.36328 l 0.128906,0.0117 z m 5.938477,2.97657 -0.04687,-0.082 h -3 l -0.65625,1.08984 0.117187,0.0703 c 0.363282,-0.44531 0.585938,-0.5625 1.066407,-0.57422 h 1.769531 l 0.02344,0.0234 -2.941406,4.78125 h 0.5625 z m 72.459961,44.724606 h -4.253906 l -0.339844,1.230469 0.152344,0.03516 C 22.542188,-60.027223 22.8,-60.156129 24.01875,-60.14441 l -1.148437,4.230469 c -0.128907,0.421875 -0.328125,0.550781 -0.855469,0.585937 v 0.128906 h 2.320312 v -0.128906 c -0.679687,-0.05859 -0.714843,-0.07031 -0.714843,-0.363281 0,-0.105469 0.01172,-0.175781 0.09375,-0.46875 l 1.113281,-3.984375 h 0.445312 c 0.574219,0 0.832032,0.199219 0.832032,0.644531 0,0.105469 -0.01172,0.222656 -0.02344,0.363281 l 0.128906,0.01172 z m 5.797851,2.730469 c -1.066406,0.128906 -1.605468,0.328125 -2.296875,0.832031 -1.007812,0.75 -1.628906,1.886719 -1.628906,3.035156 0,1.019531 0.585938,1.6875 1.464844,1.6875 1.078125,0 1.992187,-1.019531 1.992187,-2.226562 0,-0.820313 -0.574218,-1.40625 -1.359375,-1.40625 -0.222656,0 -0.492187,0.05859 -0.703125,0.164062 l -0.03516,-0.01172 c 0.550781,-1.019531 1.640625,-1.828125 2.578125,-1.945312 z m -2.085937,2.203125 c 0.550781,0 0.902344,0.398437 0.902344,1.019531 0,0.539062 -0.1875,1.171875 -0.492188,1.59375 -0.234375,0.363281 -0.515625,0.527344 -0.855469,0.527344 -0.492187,0 -0.785156,-0.386719 -0.785156,-1.042969 0,-0.550781 0.164063,-1.21875 0.375,-1.570313 0.210938,-0.363281 0.480469,-0.527343 0.855469,-0.527343 z m -142.209963,-0.03516 h -4.2539 l -0.33985,1.230469 0.15235,0.03516 c 0.42187,-0.867187 0.67968,-0.996093 1.89843,-0.984375 l -1.14843,4.230469 c -0.12891,0.421875 -0.32813,0.550781 -0.85547,0.585938 v 0.128906 h 2.32031 v -0.128906 c -0.67969,-0.05859 -0.71484,-0.07031 -0.71484,-0.363282 0,-0.105468 0.0117,-0.175781 0.0937,-0.46875 l 1.11328,-3.984375 h 0.44531 c 0.57422,0 0.83203,0.199219 0.83203,0.644532 0,0.105468 -0.0117,0.222656 -0.0234,0.363281 l 0.12891,0.01172 z m 4.27442,5.167969 c 0.94921,-0.316406 1.3125,-0.65625 1.3125,-1.21875 0,-0.667969 -0.58594,-1.136719 -1.40625,-1.136719 -0.85547,0 -1.44141,0.492188 -1.44141,1.207032 0,0.433593 0.16406,0.738281 0.70312,1.324218 -1.00781,0.316407 -1.57031,0.890625 -1.57031,1.59375 0,0.210938 0.0703,0.457032 0.1875,0.65625 0.26953,0.457032 0.75,0.691407 1.40625,0.691407 0.9961,0 1.72266,-0.621094 1.72266,-1.441407 0,-0.539062 -0.23438,-0.972656 -0.91406,-1.675781 z m -0.65625,0.304688 c 0.8789,0.914062 0.97265,1.054687 0.97265,1.511718 0,0.644532 -0.45703,1.125 -1.08984,1.125 -0.63281,0 -1.07813,-0.46875 -1.07813,-1.125 0,-0.667968 0.4336,-1.21875 1.19532,-1.511718 z m 0.5039,-0.445313 c -0.62109,-0.585937 -0.75,-0.785156 -0.75,-1.125 0,-0.5625 0.29297,-0.902344 0.8086,-0.902344 0.51562,0 0.85546,0.375 0.85546,0.949219 0,0.503906 -0.21093,0.75 -0.91406,1.078125 z m 57.875979,43.3740236 h -4.253906 l -0.339844,1.2304688 0.152344,0.035156 c 0.421875,-0.8671875 0.679687,-0.9960937 1.898437,-0.984375 l -1.148437,4.2304688 c -0.128907,0.421875 -0.328125,0.5507812 -0.855469,0.5859375 v 0.1289062 h 2.320312 v -0.1289062 c -0.679687,-0.058594 -0.714843,-0.070312 -0.714843,-0.3632813 0,-0.1054687 0.01172,-0.1757812 0.09375,-0.46875 l 1.113281,-3.984375 h 0.445312 c 0.574219,0 0.832032,0.1992188 0.832032,0.6445313 0,0.1054687 -0.01172,0.2226562 -0.02344,0.3632812 l 0.128906,0.011719 z m 3.547851,3.46875 h 1.839844 l 0.175781,-0.5742187 h -2.039062 l -0.84375,1.7460937 v 0.1171875 c 0.785156,0.1757813 1.042969,0.2695313 1.335937,0.5039063 0.257813,0.1992187 0.421875,0.609375 0.421875,1.03124998 0,0.8671875 -0.644531,1.65234375 -1.371093,1.65234375 -0.164063,0 -0.304688,-0.0585938 -0.539063,-0.234375 -0.199219,-0.15234375 -0.328125,-0.19921875 -0.445312,-0.19921875 -0.1875,0 -0.328125,0.12890625 -0.328125,0.31640625 0,0.28125 0.316406,0.45703127 0.855468,0.45703127 1.3125,0 2.378907,-1.03125002 2.378907,-2.296875 0,-0.5039063 -0.1875,-0.9257813 -0.527344,-1.2539063 -0.304688,-0.28125 -0.585938,-0.4101562 -1.230469,-0.5625 z m 0,0"
         style="fill:#231f20;fill-opacity:1;fill-rule:nonzero;stroke:none" />
    </g>
  </g>
</svg>
