<?xml version="1.0" encoding="UTF-8" standalone="no"?>
<!-- Created with Inkscape (http://www.inkscape.org/) -->

<svg
   version="1.1"
   id="svg1"
   width="274.60001"
   height="155.75999"
   viewBox="0 0 274.60001 155.75999"
   sodipodi:docname="FLW2T.EPS"
   xmlns:inkscape="http://www.inkscape.org/namespaces/inkscape"
   xmlns:sodipodi="http://sodipodi.sourceforge.net/DTD/sodipodi-0.dtd"
   xmlns="http://www.w3.org/2000/svg"
   xmlns:svg="http://www.w3.org/2000/svg">
  <defs
     id="defs1" />
  <sodipodi:namedview
     id="namedview1"
     pagecolor="#ffffff"
     bordercolor="#000000"
     borderopacity="0.25"
     inkscape:showpageshadow="2"
     inkscape:pageopacity="0.0"
     inkscape:pagecheckerboard="0"
     inkscape:deskcolor="#d1d1d1">
    <inkscape:page
       x="0"
       y="0"
       inkscape:label="1"
       id="page1"
       width="274.60001"
       height="155.75999"
       margin="0"
       bleed="0" />
  </sodipodi:namedview>
  <g
     id="g1"
     inkscape:groupmode="layer"
     inkscape:label="1">
    <path
       id="path1"
       d="m 258.25,73.25 1610,283 -1242,567 z"
       style="fill:none;stroke:#231f20;stroke-width:5;stroke-linecap:butt;stroke-linejoin:miter;stroke-miterlimit:3.8637;stroke-dasharray:none;stroke-opacity:1"
       transform="matrix(0.13333333,0,0,-0.13333333,0,155.76)" />
    <path
       id="path2"
       d="M 0.56210938,1.171875e-4 V -6.4920703 H 3.9371094 V 1.171875e-4 Z M 1.1246094,-0.56238281 h 2.25 V -5.9295703 h -2.25 z m 0,0"
       style="fill:#231f20;fill-opacity:1;fill-rule:nonzero;stroke:none"
       aria-label="●"
       transform="matrix(1.3333333,0,0,1.3333333,29.633333,150.66)" />
    <path
       id="path3"
       d="M 0.56367188,7.0324453e-4 V -6.4925879 H 3.9386719 V 7.0324453e-4 Z M 1.1261719,-0.56189238 h 2.25 V -5.9299923 h -2.25 z m 0,0"
       style="fill:#231f20;fill-opacity:1;fill-rule:nonzero;stroke:none"
       aria-label="●"
       transform="matrix(1.3333333,0,0,1.3331067,79.1,37.46)" />
    <g
       id="g3"
       aria-label="●&#10;T&#10;2&#10;T&#10;3&#10;T&#10;1"
       transform="matrix(1.3333333,0,0,1.3333333,244.43333,113.06)">
      <path
         id="path4"
         d="M 0.56269531,-0.00105469 V -6.4932422 H 3.9376953 v 6.49218751 z m 0.56249999,-0.5625 h 2.25 V -5.9307422 h -2.25 z m 0,0"
         style="fill:#231f20;fill-opacity:1;fill-rule:nonzero;stroke:none" />
      <path
         id="path5"
         d="M 10.661328,-17.227617 H 6.4074219 l -0.3398438,1.230469 0.1523438,0.03516 c 0.421875,-0.867188 0.6796875,-0.996094 1.8984375,-0.984375 l -1.1484375,4.230469 c -0.1289063,0.421875 -0.328125,0.550781 -0.8554688,0.585937 v 0.128906 h 2.3203125 v -0.128906 c -0.6796875,-0.05859 -0.7148437,-0.07031 -0.7148437,-0.363281 0,-0.105469 0.011719,-0.175781 0.09375,-0.46875 l 1.1132812,-3.984375 h 0.4453125 c 0.5742188,0 0.8320314,0.199219 0.8320314,0.644531 0,0.105469 -0.01172,0.222656 -0.02344,0.363281 l 0.128907,0.01172 z m 4.836914,7.113281 c -0.1875,0.3984376 -0.339844,0.4921876 -0.785156,0.5039063 h -1.523438 v -0.035156 l 1.535157,-1.5351563 c 0.9375,-0.9375 1.195312,-1.347656 1.195312,-1.875 0,-0.761719 -0.574219,-1.359375 -1.300781,-1.359375 -0.292969,0 -0.585938,0.07031 -0.820313,0.210937 -0.410156,0.222657 -0.632812,0.492188 -0.855468,1.078125 l 0.164062,0.04687 c 0.292969,-0.515625 0.644531,-0.75 1.125,-0.75 0.574219,0 0.996094,0.421875 0.996094,0.972657 0,0.175781 -0.02344,0.328125 -0.07031,0.433593 -0.199218,0.433594 -0.5625,0.9375 -1.078125,1.488282 l -1.6875,1.7929685 v 0.140625 h 2.847657 l 0.398437,-1.0546875 z m -130.236332,-67.3125 h -4.2539 l -0.33985,1.230469 0.15235,0.03516 c 0.42187,-0.867187 0.67969,-0.996094 1.89844,-0.984375 l -1.14844,4.230469 c -0.12891,0.421875 -0.32813,0.550781 -0.85547,0.585937 v 0.128907 h 2.32031 v -0.128907 c -0.67969,-0.05859 -0.71484,-0.07031 -0.71484,-0.363281 0,-0.105469 0.0117,-0.175781 0.0937,-0.46875 l 1.11328,-3.984375 h 0.44531 c 0.57422,0 0.83203,0.199219 0.83203,0.644531 0,0.105469 -0.0117,0.222657 -0.0234,0.363282 l 0.1289,0.01172 z m 3.06739,3.691406 c 0.26953,-0.375 0.55078,-0.539062 0.8789,-0.539062 0.4336,0 0.71485,0.292969 0.71485,0.726562 0,0.339844 -0.16407,0.621094 -0.51563,0.855469 -0.33984,0.234375 -0.67969,0.351563 -1.39453,0.480469 l 0.0117,0.117187 c 0.44531,0 0.52734,0.01172 0.72656,0.08203 0.49219,0.1875 0.75,0.621093 0.75,1.253906 0,0.28125 -0.0586,0.574219 -0.17578,0.761719 -0.1875,0.328125 -0.53906,0.550781 -0.86719,0.550781 -0.15234,0 -0.33984,-0.08203 -0.57422,-0.257813 -0.23437,-0.164062 -0.36328,-0.222656 -0.51562,-0.222656 -0.22266,0 -0.35156,0.105469 -0.35156,0.304688 0,0.304687 0.32812,0.480468 0.90234,0.480468 0.44531,0 0.86719,-0.105468 1.19531,-0.292968 0.6211,-0.375 1.03125,-1.042969 1.03125,-1.757813 0,-0.585937 -0.23437,-0.949219 -0.76172,-1.195312 v -0.02344 c 0.96094,-0.375 1.24219,-0.644531 1.24219,-1.183594 0,-0.585937 -0.48047,-1.019531 -1.125,-1.019531 -0.55078,0 -1.04297,0.316406 -1.30078,0.832031 z m -63.56543,89.308594 h -4.25391 l -0.33984,1.230469 0.15234,0.03516 c 0.42188,-0.867187 0.67969,-0.996094 1.89844,-0.984375 l -1.14844,4.230469 c -0.12891,0.421875 -0.32812,0.550781 -0.85547,0.585937 v 0.128907 h 2.32031 V 20.67082 c -0.67968,-0.05859 -0.71484,-0.07031 -0.71484,-0.363281 0,-0.105469 0.0117,-0.175781 0.0937,-0.46875 l 1.11328,-3.984375 h 0.44531 c 0.57422,0 0.83204,0.199219 0.83204,0.644531 0,0.105469 -0.0117,0.222657 -0.0234,0.363282 l 0.1289,0.01172 z m 2.02148,8.226563 h 2.23828 v -0.117188 h -0.14062 c -0.38672,0 -0.55078,-0.07031 -0.55078,-0.257812 0,-0.07031 0.0234,-0.1875 0.0937,-0.421875 0.0234,-0.04687 0.0351,-0.09375 0.0586,-0.175782 l 1.13672,-4.148437 c 0.0469,-0.140625 0.0469,-0.199219 0.0469,-0.234375 0,-0.03516 -0.0117,-0.05859 -0.0351,-0.05859 0,0 -0.22266,0.04687 -0.65625,0.128906 l -0.72656,0.152344 c -0.0117,0 -0.0703,0.01172 -0.16407,0.02344 v 0.117187 l 0.45703,-0.01172 c 0.1875,-0.01172 0.30469,0.09375 0.30469,0.246094 0,0.05859 -0.0117,0.117188 -0.0586,0.28125 l -1.10156,3.9375 c -0.0937,0.292969 -0.26954,0.375 -0.90235,0.421875 z m 0,0"
         style="fill:#231f20;fill-opacity:1;fill-rule:nonzero;stroke:none" />
    </g>
  </g>
</svg>
