<?xml version="1.0" encoding="UTF-8" standalone="no"?>
<!-- Created with Inkscape (http://www.inkscape.org/) -->

<svg
   version="1.1"
   id="svg1"
   width="309.72"
   height="203.73334"
   viewBox="0 0 309.72 203.73334"
   sodipodi:docname="FLW3I8E.EPS"
   xmlns:inkscape="http://www.inkscape.org/namespaces/inkscape"
   xmlns:sodipodi="http://sodipodi.sourceforge.net/DTD/sodipodi-0.dtd"
   xmlns="http://www.w3.org/2000/svg"
   xmlns:svg="http://www.w3.org/2000/svg">
  <defs
     id="defs1" />
  <sodipodi:namedview
     id="namedview1"
     pagecolor="#ffffff"
     bordercolor="#000000"
     borderopacity="0.25"
     inkscape:showpageshadow="2"
     inkscape:pageopacity="0.0"
     inkscape:pagecheckerboard="0"
     inkscape:deskcolor="#d1d1d1">
    <inkscape:page
       x="0"
       y="0"
       inkscape:label="1"
       id="page1"
       width="309.72"
       height="203.73334"
       margin="0"
       bleed="0" />
  </sodipodi:namedview>
  <g
     id="g1"
     inkscape:groupmode="layer"
     inkscape:label="1">
    <path
       id="path1"
       d="M 0.97402344,-3.7027344 C 1.2083984,-4.3003906 1.3958984,-4.4292969 1.9466797,-4.4175781 h 1.7460937 l -3.71484371,4.46484372 0.10546875,0.10546875 c 0.19921875,-0.152343745 0.3515625,-0.2109375 0.5390625,-0.2109375 0.31640625,0 0.70312496,0.15234375 1.26562496,0.50390625 0.5976563,0.375 0.9960938,0.52734375 1.3359375,0.52734375 0.609375,0 1.1367188,-0.43359375 1.1367188,-0.9140625 0,-0.2578125 -0.1757813,-0.43359375 -0.421875,-0.43359375 -0.2460938,0 -0.4101563,0.1640625 -0.4101563,0.38671875 0,0.09375 0.035156,0.19921875 0.1054688,0.3515625 0.035156,0.0703125 0.058594,0.140625 0.058594,0.17578125 0,0.10546875 -0.1289062,0.17578125 -0.3164062,0.17578125 -0.3046875,0 -0.4453125,-0.10546875 -0.84375,-0.59765625 -0.5273438,-0.6796875 -0.75,-0.83203125 -1.453125,-0.99609375 L 4.5599609,-5.0035156 V -5.1324219 H 1.1498047 L 0.78652344,-3.7613281 Z M 117.22695,-13.136328 c -0.10547,0.117187 -0.16406,0.1875 -0.26953,0.328125 -0.26953,0.363281 -0.42187,0.480469 -0.5625,0.480469 -0.16406,0 -0.28125,-0.152344 -0.36328,-0.492188 -0.0352,-0.128906 -0.0352,-0.152344 -0.0469,-0.1875 -0.29297,-1.230469 -0.4336,-1.78125 -0.4336,-1.957031 0.53906,-0.9375 0.96094,-1.453125 1.1836,-1.453125 0.0703,0 0.17578,0.03516 0.28125,0.09375 0.15234,0.08203 0.23437,0.105469 0.33984,0.105469 0.23437,0 0.41016,-0.175782 0.41016,-0.433594 0,-0.257813 -0.21094,-0.445313 -0.49219,-0.445313 -0.52735,0 -0.97266,0.433594 -1.81641,1.722657 l -0.1289,-0.65625 c -0.16407,-0.820313 -0.30469,-1.066407 -0.6211,-1.066407 -0.28125,0 -0.66797,0.105469 -1.40625,0.351563 -0.0703,0.02344 -0.0703,0.02344 -0.1289,0.04687 l 0.0469,0.1875 c 0.46875,-0.128906 0.55078,-0.140625 0.66797,-0.140625 0.30469,0 0.375,0.117187 0.53906,0.832031 l 0.35156,1.476563 -0.98437,1.40625 c -0.25781,0.351562 -0.48047,0.574218 -0.60938,0.574218 -0.082,0 -0.19921,-0.03516 -0.3164,-0.105468 -0.15235,-0.09375 -0.28125,-0.128907 -0.38672,-0.128907 -0.23438,0 -0.41016,0.1875 -0.41016,0.421875 0,0.316407 0.23438,0.503907 0.60938,0.503907 0.36328,0 0.51562,-0.105469 1.11328,-0.820313 0.31641,-0.398437 0.58594,-0.761719 1.07812,-1.417969 l 0.36329,1.441407 c 0.15234,0.621093 0.30468,0.796875 0.6914,0.796875 0.45703,0 0.77344,-0.28125 1.46485,-1.359375 z M 32.274805,-96.904883 c 0.152343,-0.03516 0.246093,-0.04687 0.375,-0.04687 0.492187,0 0.726562,0.199219 0.960937,0.84375 0.328125,0.890625 0.949219,3.457031 0.949219,3.914063 0,0.1875 -0.08203,0.386718 -0.257813,0.609375 -0.328125,0.445312 -0.609375,0.785156 -0.75,0.9375 -0.257812,0.257812 -0.386718,0.363281 -0.539062,0.363281 -0.08203,0 -0.152344,-0.03516 -0.292969,-0.140625 -0.175781,-0.140625 -0.292969,-0.199219 -0.445312,-0.199219 -0.257813,0 -0.46875,0.199219 -0.46875,0.46875 0,0.316406 0.257812,0.527344 0.621093,0.527344 0.761719,0 2.320313,-1.792969 3.632813,-4.171875 0.820312,-1.476563 1.148437,-2.34375 1.148437,-2.929688 0,-0.363281 -0.292968,-0.667968 -0.65625,-0.667968 -0.28125,0 -0.46875,0.1875 -0.46875,0.445312 0,0.199219 0.09375,0.316406 0.339844,0.46875 0.222656,0.140625 0.304688,0.246094 0.304688,0.410156 0,0.480469 -0.433594,1.40625 -1.464844,3.105469 l -0.234375,-1.394531 c -0.1875,-1.066406 -0.855469,-3.035156 -1.03125,-3.035156 h -0.04687 c -0.02344,0.01172 -0.05859,0.01172 -0.117188,0.01172 -0.09375,0.01172 -0.539062,0.09375 -1.171875,0.210938 -0.05859,0.01172 -0.210937,0.04687 -0.386718,0.07031 z m 0,0"
       style="fill:#231f20;fill-opacity:1;fill-rule:nonzero;stroke:none"
       aria-label="z&#10;x&#10;y"
       transform="matrix(1.3333333,0,0,1.3333333,4.0333333,194.36667)" />
    <path
       id="path2"
       d="m 485.25,310.25 -372,-289"
       style="fill:none;stroke:#231f20;stroke-width:2.5;stroke-linecap:butt;stroke-linejoin:miter;stroke-miterlimit:3.8637;stroke-dasharray:none;stroke-opacity:1"
       transform="matrix(0.13333333,0,0,-0.13333333,0,203.73333)" />
    <path
       id="path3"
       d="m 115.25,23.25 10,-12 -39,-11 20,35 9,-12"
       style="fill:#231f20;fill-opacity:1;fill-rule:evenodd;stroke:none"
       transform="matrix(0.13333333,0,0,-0.13333333,0,203.73333)" />
    <path
       id="path4"
       d="m 485.25,1024.25 v -714"
       style="fill:none;stroke:#231f20;stroke-width:2.5;stroke-linecap:butt;stroke-linejoin:miter;stroke-miterlimit:3.8637;stroke-dasharray:none;stroke-opacity:1"
       transform="matrix(0.13333333,0,0,-0.13333333,0,203.73333)" />
    <path
       id="path5"
       d="m 485.25,1022.25 h -15 l 15,37 15,-37 h -15"
       style="fill:#231f20;fill-opacity:1;fill-rule:evenodd;stroke:none"
       transform="matrix(0.13333333,0,0,-0.13333333,0,203.73333)" />
    <path
       id="path6"
       d="m 485.25,310.25 h 714"
       style="fill:none;stroke:#231f20;stroke-width:2.5;stroke-linecap:butt;stroke-linejoin:miter;stroke-miterlimit:3.8637;stroke-dasharray:none;stroke-opacity:1"
       transform="matrix(0.13333333,0,0,-0.13333333,0,203.73333)" />
    <path
       id="path7"
       d="m 1197.25,310.25 v 15 l 37,-15 -37,-15 v 15"
       style="fill:#231f20;fill-opacity:1;fill-rule:evenodd;stroke:none"
       transform="matrix(0.13333333,0,0,-0.13333333,0,203.73333)" />
    <path
       id="path8"
       d="M 0.56113281,7.8125e-4 V -6.4914063 H 3.9361328 V 7.8125e-4 Z m 0.56249999,-0.5625 h 2.25 V -5.9289063 h -2.25 z M -147.43789,12.999805 V 6.5076172 h 3.375 v 6.4921878 z m 0.5625,-0.5625 h 2.25 V 7.0701172 h -2.25 z M -119.63809,-61.3 v -6.492188 h 3.375 V -61.3 Z m 0.5625,-0.5625 h 2.25 v -5.367188 h -2.25 z m 91.53809,8.463867 v -6.492187 h 3.375 v 6.492187 z m 0.5625,-0.5625 h 2.25 v -5.367187 h -2.25 z m 0,0"
       style="fill:#231f20;fill-opacity:1;fill-rule:nonzero;stroke:none"
       aria-label="●&#10;●&#10;●&#10;●"
       transform="matrix(1.3333333,0,0,1.3333333,284.96667,112.23333)" />
    <path
       id="path9"
       d="m 793.25,1231.25 961,-153 170,-635 -1235,143 z"
       style="fill:none;stroke:#231f20;stroke-width:5;stroke-linecap:butt;stroke-linejoin:miter;stroke-miterlimit:3.8637;stroke-dasharray:none;stroke-opacity:1"
       transform="matrix(0.13333333,0,0,-0.13333333,0,203.73333)" />
    <path
       id="path10"
       d="m 2187.25,717.25 -1181,47 -39,573"
       style="fill:none;stroke:#231f20;stroke-width:5;stroke-linecap:butt;stroke-linejoin:miter;stroke-miterlimit:3.8637;stroke-dasharray:20, 20;stroke-dashoffset:0;stroke-opacity:1"
       transform="matrix(0.13333333,0,0,-0.13333333,0,203.73333)" />
    <path
       id="path11"
       d="m 967.25,1337.25 929,-78 291,-542"
       style="fill:none;stroke:#231f20;stroke-width:5;stroke-linecap:butt;stroke-linejoin:miter;stroke-miterlimit:3.8637;stroke-dasharray:none;stroke-opacity:1"
       transform="matrix(0.13333333,0,0,-0.13333333,0,203.73333)" />
    <path
       id="path12"
       d="m 793.25,1231.25 174,106"
       style="fill:none;stroke:#231f20;stroke-width:5;stroke-linecap:butt;stroke-linejoin:miter;stroke-miterlimit:3.8637;stroke-dasharray:none;stroke-opacity:1"
       transform="matrix(0.13333333,0,0,-0.13333333,0,203.73333)" />
    <path
       id="path13"
       d="m 1754.25,1078.25 142,181"
       style="fill:none;stroke:#231f20;stroke-width:5;stroke-linecap:butt;stroke-linejoin:miter;stroke-miterlimit:3.8637;stroke-dasharray:none;stroke-opacity:1"
       transform="matrix(0.13333333,0,0,-0.13333333,0,203.73333)" />
    <path
       id="path14"
       d="m 689.25,586.25 317,178"
       style="fill:none;stroke:#231f20;stroke-width:5;stroke-linecap:butt;stroke-linejoin:miter;stroke-miterlimit:3.8637;stroke-dasharray:20, 20;stroke-dashoffset:0;stroke-opacity:1"
       transform="matrix(0.13333333,0,0,-0.13333333,0,203.73333)" />
    <path
       id="path15"
       d="m 1924.25,443.25 263,274"
       style="fill:none;stroke:#231f20;stroke-width:5;stroke-linecap:butt;stroke-linejoin:miter;stroke-miterlimit:3.8637;stroke-dasharray:none;stroke-opacity:1"
       transform="matrix(0.13333333,0,0,-0.13333333,0,203.73333)" />
    <path
       id="path16"
       d="M 0.56210938,7.8125e-4 V -6.4914063 H 3.9371094 V 7.8125e-4 Z m 0.56250002,-0.5625 h 2.25 V -5.9289063 h -2.25 z M 16.862891,62.699023 v -6.492187 h 3.375 v 6.492187 z m 0.5625,-0.5625 h 2.25 v -5.367187 h -2.25 z m 0,0"
       style="fill:#231f20;fill-opacity:1;fill-rule:nonzero;stroke:none"
       aria-label="●&#10;●"
       transform="matrix(1.3333333,0,0,1.3333333,229.63333,64.233333)" />
    <path
       id="path17"
       d="M 0.56132813,0.00117207 V -6.4921191 H 3.9363281 V 0.00117207 Z M 1.1238281,-0.56142355 h 2.25 V -5.9295235 h -2.25 z m 0,0"
       style="fill:#7b7979;fill-opacity:1;fill-rule:nonzero;stroke:none"
       aria-label="●"
       transform="matrix(1.3333333,0,0,1.3331067,129.9,106.1)" />
    <g
       id="g17"
       aria-label="●&#10;T&#10;4&#10;T&#10;3&#10;T&#10;1&#10;T&#10;2&#10;T&#10;7&#10;T&#10;6&#10;T&#10;8&#10;T&#10;5"
       transform="matrix(1.3333333,0,0,1.3333333,102.16667,43.833333)">
      <path
         id="path18"
         d="M 0.56347656,-9.765625e-4 V -6.4931641 H 3.9384766 V -9.765625e-4 Z M 1.1259766,-0.56347656 h 2.25 V -5.9306641 h -2.25 z m 0,0"
         style="fill:#231f20;fill-opacity:1;fill-rule:nonzero;stroke:none" />
      <path
         id="path19"
         d="M 23.063477,-25.427734 H 18.80957 l -0.339843,1.230468 0.152343,0.03516 c 0.421875,-0.867188 0.679688,-0.996094 1.898438,-0.984375 l -1.148438,4.230468 c -0.128906,0.421875 -0.328125,0.550782 -0.855468,0.585938 v 0.128906 h 2.320312 v -0.128906 c -0.679687,-0.05859 -0.714844,-0.07031 -0.714844,-0.363281 0,-0.105469 0.01172,-0.175782 0.09375,-0.46875 l 1.113282,-3.984375 h 0.445312 c 0.574219,0 0.832031,0.199218 0.832031,0.644531 0,0.105469 -0.01172,0.222656 -0.02344,0.363281 l 0.128906,0.01172 z m 5.258789,6.292968 h -0.75 l 0.960937,-3.480468 h -0.328125 l -3.339844,3.457031 -0.152343,0.527344 h 2.097656 l -0.398438,1.429687 h 0.632813 l 0.375,-1.40625 h 0.796875 z m -1.40625,0 h -1.699219 v -0.02344 l 2.4375,-2.554688 h 0.03516 z m 86.745114,1.708008 h -4.2539 l -0.33985,1.230469 0.15235,0.03516 c 0.42187,-0.867187 0.67968,-0.996094 1.89843,-0.984375 l -1.14843,4.230469 c -0.12891,0.421875 -0.32813,0.550781 -0.85547,0.585937 v 0.128907 h 2.32031 v -0.128907 c -0.67969,-0.05859 -0.71484,-0.07031 -0.71484,-0.363281 0,-0.105469 0.0117,-0.175781 0.0937,-0.46875 l 1.11328,-3.984375 h 0.44531 c 0.57422,0 0.83203,0.199219 0.83203,0.644531 0,0.105469 -0.0117,0.222657 -0.0234,0.363282 l 0.12891,0.01172 z m 3.06739,3.691406 c 0.26953,-0.375 0.55078,-0.539062 0.8789,-0.539062 0.4336,0 0.71485,0.292969 0.71485,0.726562 0,0.339844 -0.16407,0.621094 -0.51563,0.855469 -0.33984,0.234375 -0.67969,0.351563 -1.39453,0.480469 l 0.0117,0.117187 c 0.44531,0 0.52734,0.01172 0.72656,0.08203 0.49219,0.1875 0.75,0.621093 0.75,1.253906 0,0.28125 -0.0586,0.574219 -0.17578,0.7617187 -0.1875,0.328125 -0.53906,0.5507812 -0.86719,0.5507812 -0.15234,0 -0.33984,-0.082031 -0.57422,-0.2578125 -0.23437,-0.1640625 -0.36328,-0.2226562 -0.51562,-0.2226562 -0.22266,0 -0.35156,0.1054687 -0.35156,0.3046875 0,0.3046875 0.32812,0.4804687 0.90234,0.4804687 0.44531,0 0.86719,-0.1054687 1.19531,-0.2929687 0.6211,-0.375 1.03125,-1.0429687 1.03125,-1.7578127 0,-0.585937 -0.23437,-0.949219 -0.76172,-1.195312 v -0.02344 c 0.96094,-0.375 1.24219,-0.644531 1.24219,-1.183594 0,-0.585937 -0.48047,-1.019531 -1.125,-1.019531 -0.55078,0 -1.04297,0.316406 -1.30078,0.832031 z m -90.764653,65.90918 h -4.253906 l -0.339844,1.230469 0.152344,0.03516 c 0.421875,-0.867187 0.679687,-0.996094 1.898437,-0.984375 l -1.148437,4.230469 c -0.128906,0.421875 -0.328125,0.550781 -0.855469,0.585937 v 0.128907 h 2.320313 v -0.128907 c -0.679688,-0.05859 -0.714844,-0.07031 -0.714844,-0.363281 0,-0.105469 0.01172,-0.175781 0.09375,-0.46875 l 1.113281,-3.984375 h 0.445313 c 0.574218,0 0.832031,0.199219 0.832031,0.644531 0,0.105469 -0.01172,0.222657 -0.02344,0.363282 l 0.128907,0.01172 z m 2.021485,8.226563 h 2.238281 v -0.117188 h -0.140625 c -0.386719,0 -0.550781,-0.07031 -0.550781,-0.257812 0,-0.07031 0.02344,-0.1875 0.09375,-0.421875 0.02344,-0.04687 0.03516,-0.09375 0.05859,-0.175782 l 1.136719,-4.148437 c 0.04687,-0.140625 0.04687,-0.199219 0.04687,-0.234375 0,-0.03516 -0.01172,-0.05859 -0.03516,-0.05859 0,0 -0.222656,0.04687 -0.65625,0.128906 l -0.726563,0.152344 c -0.01172,0 -0.07031,0.01172 -0.164062,0.02344 v 0.117187 l 0.457031,-0.01172 c 0.1875,-0.01172 0.304688,0.09375 0.304688,0.246094 0,0.05859 -0.01172,0.117188 -0.05859,0.28125 l -1.101563,3.9375 c -0.09375,0.292969 -0.269531,0.375 -0.902343,0.421875 z M 143.66113,58.273437 h -4.2539 l -0.33985,1.230469 0.15235,0.03516 c 0.42187,-0.867187 0.67968,-0.996093 1.89843,-0.984375 l -1.14843,4.230469 c -0.12891,0.421875 -0.32813,0.550781 -0.85547,0.585938 V 63.5 h 2.32031 v -0.128906 c -0.67969,-0.05859 -0.71484,-0.07031 -0.71484,-0.363282 0,-0.105468 0.0117,-0.175781 0.0937,-0.46875 l 1.11328,-3.984375 h 0.44531 c 0.57422,0 0.83203,0.199219 0.83203,0.644532 0,0.105468 -0.0117,0.222656 -0.0234,0.363281 l 0.12891,0.01172 z m 4.83692,7.113282 c -0.1875,0.398437 -0.33985,0.492187 -0.78516,0.503906 h -1.52344 v -0.03516 l 1.53516,-1.535157 c 0.9375,-0.9375 1.19531,-1.347656 1.19531,-1.875 0,-0.761718 -0.57422,-1.359375 -1.30078,-1.359375 -0.29297,0 -0.58594,0.07031 -0.82031,0.210938 -0.41016,0.222656 -0.63281,0.492187 -0.85547,1.078125 l 0.16406,0.04687 c 0.29297,-0.515625 0.64453,-0.75 1.125,-0.75 0.57422,0 0.9961,0.421875 0.9961,0.972656 0,0.175781 -0.0234,0.328125 -0.0703,0.433594 -0.19922,0.433594 -0.5625,0.9375 -1.07812,1.488281 l -1.6875,1.792969 V 66.5 h 2.84765 l 0.39844,-1.054688 z M 95.561523,-0.72753906 h -4.253906 l -0.339844,1.23046875 0.152344,0.0351563 c 0.421875,-0.8671875 0.679688,-0.99609375 1.898438,-0.984375 L 91.870117,3.7841797 c -0.128906,0.421875 -0.328125,0.5507812 -0.855469,0.5859375 v 0.1289062 h 2.320313 V 4.3701172 c -0.679688,-0.058594 -0.714844,-0.070312 -0.714844,-0.3632813 0,-0.1054687 0.01172,-0.1757812 0.09375,-0.46875 l 1.113281,-3.98437496 h 0.445313 c 0.574219,0 0.832031,0.19921875 0.832031,0.64453125 0,0.10546875 -0.01172,0.22265625 -0.02344,0.36328125 l 0.128906,0.0117188 z M 101.5,2.2490234 101.4531,2.1669924 h -3.000005 l -0.65625,1.0898437 0.117188,0.070312 C 98.277344,2.8818359 98.5,2.7646484 98.980469,2.7529297 H 100.75 l 0.0234,0.023437 -2.941409,4.78125 h 0.5625 z m 12.36328,82.0253906 h -4.2539 l -0.33985,1.230469 0.15235,0.03516 c 0.42187,-0.867187 0.67968,-0.996094 1.89843,-0.984375 l -1.14843,4.230469 c -0.12891,0.421875 -0.32813,0.550781 -0.85547,0.585937 v 0.128907 h 2.32031 V 89.37207 c -0.67969,-0.05859 -0.71484,-0.07031 -0.71484,-0.363281 0,-0.105469 0.0117,-0.175781 0.0937,-0.46875 l 1.11328,-3.984375 h 0.44531 c 0.57422,0 0.83203,0.199219 0.83203,0.644531 0,0.105469 -0.0117,0.222657 -0.0234,0.363282 l 0.12891,0.01172 z m 5.79785,2.730469 c -1.0664,0.128906 -1.60547,0.328125 -2.29687,0.832031 -1.00781,0.75 -1.62891,1.886719 -1.62891,3.035156 0,1.019532 0.58594,1.6875 1.46485,1.6875 1.07812,0 1.99218,-1.019531 1.99218,-2.226562 0,-0.820313 -0.57422,-1.40625 -1.35937,-1.40625 -0.22266,0 -0.49219,0.05859 -0.70313,0.164062 l -0.0352,-0.01172 c 0.55078,-1.019532 1.64062,-1.828125 2.57812,-1.945313 z m -2.08593,2.203125 c 0.55078,0 0.90234,0.398437 0.90234,1.019531 0,0.539063 -0.1875,1.171875 -0.49219,1.59375 -0.23437,0.363281 -0.51562,0.527344 -0.85547,0.527344 -0.49218,0 -0.78515,-0.386719 -0.78515,-1.042969 0,-0.550781 0.16406,-1.21875 0.375,-1.570312 0.21093,-0.363282 0.48047,-0.527344 0.85547,-0.527344 z M 3.9619141,-17.12793 h -4.25390629 l -0.33984375,1.230469 0.15234375,0.03516 c 0.421875,-0.867187 0.6796875,-0.996093 1.89843749,-0.984375 l -1.14843749,4.230469 c -0.12890625,0.421875 -0.328125,0.550781 -0.85546875,0.585938 v 0.128906 H 1.7353516 v -0.128906 c -0.6796875,-0.05859 -0.7148438,-0.07031 -0.7148438,-0.363282 0,-0.105468 0.011719,-0.175781 0.09375,-0.46875 l 1.1132813,-3.984375 h 0.4453125 c 0.5742187,0 0.8320312,0.199219 0.8320312,0.644532 0,0.105468 -0.011719,0.222656 -0.023437,0.363281 l 0.1289063,0.01172 z m 4.274414,5.167969 c 0.9492188,-0.316406 1.3125,-0.65625 1.3125,-1.21875 0,-0.667969 -0.5859375,-1.136719 -1.40625,-1.136719 -0.8554687,0 -1.4414062,0.492188 -1.4414062,1.207032 0,0.433593 0.1640625,0.738281 0.703125,1.324218 -1.0078125,0.316407 -1.5703125,0.890625 -1.5703125,1.59375 0,0.2109378 0.070312,0.4570316 0.1875,0.6562503 0.2695312,0.4570313 0.75,0.6914063 1.40625,0.6914063 0.9960937,0 1.7226562,-0.6210938 1.7226562,-1.4414066 0,-0.539062 -0.234375,-0.972656 -0.9140625,-1.675781 z m -0.65625,0.304688 c 0.8789063,0.914062 0.9726563,1.054687 0.9726563,1.511718 0,0.6445316 -0.4570313,1.1250003 -1.0898438,1.1250003 -0.6328125,0 -1.078125,-0.46875 -1.078125,-1.1250003 0,-0.667968 0.4335938,-1.21875 1.1953125,-1.511718 z m 0.5039063,-0.445313 c -0.6210938,-0.585937 -0.75,-0.785156 -0.75,-1.125 0,-0.5625 0.2929687,-0.902344 0.8085937,-0.902344 0.515625,0 0.8554688,0.375 0.8554688,0.949219 0,0.503906 -0.2109375,0.75 -0.9140625,1.078125 z M -6.0371094,69.174805 h -4.2539066 l -0.339843,1.230468 0.152343,0.03516 c 0.421875,-0.867188 0.6796879,-0.996094 1.8984379,-0.984375 l -1.1484375,4.230468 c -0.1289063,0.421875 -0.3281254,0.550782 -0.8554684,0.585938 v 0.128906 h 2.3203121 v -0.128906 c -0.6796875,-0.05859 -0.7148437,-0.07031 -0.7148437,-0.363281 0,-0.105469 0.011719,-0.175782 0.09375,-0.46875 l 1.1132812,-3.984375 h 0.4453125 c 0.5742188,0 0.8320313,0.199218 0.8320313,0.644531 0,0.105469 -0.011719,0.222656 -0.023437,0.363281 l 0.1289062,0.01172 z m 3.5478516,3.46875 h 1.83984374 l 0.17578125,-0.574219 H -2.5126953 l -0.84375,1.746094 v 0.117187 c 0.7851562,0.175781 1.0429687,0.269531 1.3359375,0.503906 0.2578125,0.199219 0.421875,0.609375 0.421875,1.03125 0,0.867188 -0.6445313,1.652344 -1.3710938,1.652344 -0.1640625,0 -0.3046875,-0.05859 -0.5390625,-0.234375 -0.1992187,-0.152344 -0.328125,-0.199219 -0.4453125,-0.199219 -0.1875,0 -0.328125,0.128907 -0.328125,0.316407 0,0.28125 0.3164063,0.457031 0.8554688,0.457031 1.3125,0 2.3789062,-1.03125 2.3789062,-2.296875 0,-0.503906 -0.1875,-0.925781 -0.5273437,-1.253906 -0.3046875,-0.28125 -0.5859375,-0.410157 -1.2304688,-0.5625 z m 0,0"
         style="fill:#231f20;fill-opacity:1;fill-rule:nonzero;stroke:none" />
    </g>
  </g>
</svg>
