<?xml version="1.0" encoding="UTF-8" standalone="no"?>
<!-- Created with Inkscape (http://www.inkscape.org/) -->

<svg
   version="1.1"
   id="svg1"
   width="226.37334"
   height="173.25333"
   viewBox="0 0 226.37334 173.25333"
   sodipodi:docname="FLW3I8.EPS"
   xmlns:inkscape="http://www.inkscape.org/namespaces/inkscape"
   xmlns:sodipodi="http://sodipodi.sourceforge.net/DTD/sodipodi-0.dtd"
   xmlns="http://www.w3.org/2000/svg"
   xmlns:svg="http://www.w3.org/2000/svg">
  <defs
     id="defs1" />
  <sodipodi:namedview
     id="namedview1"
     pagecolor="#ffffff"
     bordercolor="#000000"
     borderopacity="0.25"
     inkscape:showpageshadow="2"
     inkscape:pageopacity="0.0"
     inkscape:pagecheckerboard="0"
     inkscape:deskcolor="#d1d1d1">
    <inkscape:page
       x="0"
       y="0"
       inkscape:label="1"
       id="page1"
       width="226.37334"
       height="173.25333"
       margin="0"
       bleed="0" />
  </sodipodi:namedview>
  <g
     id="g1"
     inkscape:groupmode="layer"
     inkscape:label="1">
    <path
       id="path1"
       d="M 0.56210938,-0.00113281 V -6.4933203 H 3.9371094 v 6.49218749 z m 0.56250002,-0.5625 h 2.25 V -5.9308203 h -2.25 z M -147.43691,12.901211 V 6.4090234 h 3.375 v 6.4921876 z m 0.5625,-0.5625 h 2.25 V 6.9715234 h -2.25 z m 27.2373,-73.637695 v -6.492188 h 3.375 v 6.492188 z m 0.5625,-0.5625 h 2.25 v -5.367188 h -2.25 z m 91.538087,8.361328 v -6.492188 h 3.375 v 6.492188 z m 0.5625,-0.5625 h 2.25 v -5.367188 h -2.25 z m 0,0"
       style="fill:#231f20;fill-opacity:1;fill-rule:nonzero;stroke:none"
       aria-label="●&#10;●&#10;●&#10;●"
       transform="matrix(1.3333333,0,0,1.3333333,201.63333,112.28667)" />
    <path
       id="path2"
       d="m 168.25,1002.25 961,-153 170,-635 -1235,143 z"
       style="fill:none;stroke:#231f20;stroke-width:5;stroke-linecap:butt;stroke-linejoin:miter;stroke-miterlimit:3.8637;stroke-dasharray:none;stroke-opacity:1"
       transform="matrix(0.13333333,0,0,-0.13333333,0,173.25333)" />
    <path
       id="path3"
       d="m 1562.25,489.25 -1181,47 -39,572"
       style="fill:none;stroke:#231f20;stroke-width:5;stroke-linecap:butt;stroke-linejoin:miter;stroke-miterlimit:3.8637;stroke-dasharray:20, 20;stroke-dashoffset:0;stroke-opacity:1"
       transform="matrix(0.13333333,0,0,-0.13333333,0,173.25333)" />
    <path
       id="path4"
       d="m 342.25,1108.25 929,-78 291,-541"
       style="fill:none;stroke:#231f20;stroke-width:5;stroke-linecap:butt;stroke-linejoin:miter;stroke-miterlimit:3.8637;stroke-dasharray:none;stroke-opacity:1"
       transform="matrix(0.13333333,0,0,-0.13333333,0,173.25333)" />
    <path
       id="path5"
       d="m 168.25,1002.25 174,106"
       style="fill:none;stroke:#231f20;stroke-width:5;stroke-linecap:butt;stroke-linejoin:miter;stroke-miterlimit:3.8637;stroke-dasharray:none;stroke-opacity:1"
       transform="matrix(0.13333333,0,0,-0.13333333,0,173.25333)" />
    <path
       id="path6"
       d="m 1129.25,849.25 142,181"
       style="fill:none;stroke:#231f20;stroke-width:5;stroke-linecap:butt;stroke-linejoin:miter;stroke-miterlimit:3.8637;stroke-dasharray:none;stroke-opacity:1"
       transform="matrix(0.13333333,0,0,-0.13333333,0,173.25333)" />
    <path
       id="path7"
       d="m 64.25,357.25 317,179"
       style="fill:none;stroke:#231f20;stroke-width:5;stroke-linecap:butt;stroke-linejoin:miter;stroke-miterlimit:3.8637;stroke-dasharray:20, 20;stroke-dashoffset:0;stroke-opacity:1"
       transform="matrix(0.13333333,0,0,-0.13333333,0,173.25333)" />
    <path
       id="path8"
       d="m 1299.25,214.25 263,275"
       style="fill:none;stroke:#231f20;stroke-width:5;stroke-linecap:butt;stroke-linejoin:miter;stroke-miterlimit:3.8637;stroke-dasharray:none;stroke-opacity:1"
       transform="matrix(0.13333333,0,0,-0.13333333,0,173.25333)" />
    <path
       id="path9"
       d="M 0.56308594,-7.421875e-4 V -6.4929297 H 3.9380859 V -7.421875e-4 Z M 1.1255859,-0.56324219 h 2.25 V -5.9304297 h -2.25 z M 16.863867,62.800039 v -6.492187 h 3.375 v 6.492187 z m 0.5625,-0.5625 h 2.25 v -5.367187 h -2.25 z m 0,0"
       style="fill:#231f20;fill-opacity:1;fill-rule:nonzero;stroke:none"
       aria-label="●&#10;●"
       transform="matrix(1.3333333,0,0,1.3333333,146.3,64.153333)" />
    <path
       id="path10"
       d="M 0.56230469,-3.5162227e-4 V -6.4936428 H 3.9373047 V -3.5162227e-4 Z M 1.1248047,-0.56294725 h 2.25 V -5.9310472 h -2.25 z m 0,0"
       style="fill:#231f20;fill-opacity:1;fill-rule:nonzero;stroke:none"
       aria-label="●"
       transform="matrix(1.3333333,0,0,1.3331067,46.566667,106.02)" />
    <g
       id="g10"
       aria-label="●&#10;T&#10;4&#10;T&#10;3&#10;T&#10;1&#10;T&#10;2&#10;T&#10;7&#10;T&#10;6&#10;T&#10;8&#10;T&#10;5"
       transform="matrix(1.3333333,0,0,1.3333333,18.833333,43.886667)">
      <path
         id="path11"
         d="M 0.56152344,3.90625e-5 V -6.4921484 H 3.9365234 V 3.90625e-5 Z M 1.1240234,-0.56246094 h 2.25 V -5.9296484 h -2.25 z m 0,0"
         style="fill:#231f20;fill-opacity:1;fill-rule:nonzero;stroke:none" />
      <path
         id="path12"
         d="m 23.061523,-25.526328 h -4.253906 l -0.339844,1.230469 0.152344,0.03516 c 0.421875,-0.867188 0.679688,-0.996094 1.898438,-0.984375 l -1.148438,4.230469 c -0.128906,0.421875 -0.328125,0.550781 -0.855469,0.585937 v 0.128906 h 2.320313 v -0.128906 c -0.679688,-0.05859 -0.714844,-0.07031 -0.714844,-0.363281 0,-0.105469 0.01172,-0.175781 0.09375,-0.46875 l 1.113281,-3.984375 h 0.445313 c 0.574219,0 0.832031,0.199219 0.832031,0.644531 0,0.105469 -0.01172,0.222656 -0.02344,0.363281 l 0.128906,0.01172 z m 5.258789,6.292969 h -0.75 l 0.960938,-3.480469 h -0.328125 l -3.339844,3.457031 -0.152344,0.527344 h 2.097657 l -0.398438,1.429687 h 0.632813 l 0.375,-1.40625 h 0.796875 z m -1.40625,0 h -1.699218 v -0.02344 l 2.4375,-2.554687 h 0.03516 z m 86.748048,1.708007 h -4.25391 l -0.33984,1.230469 0.15234,0.03516 c 0.42188,-0.867187 0.67969,-0.996093 1.89844,-0.984375 l -1.14844,4.230469 c -0.1289,0.421875 -0.32812,0.550781 -0.85547,0.585938 v 0.128906 h 2.32032 v -0.128906 c -0.67969,-0.05859 -0.71485,-0.07031 -0.71485,-0.363282 0,-0.105468 0.0117,-0.175781 0.0937,-0.46875 l 1.11328,-3.984375 h 0.44532 c 0.57422,0 0.83203,0.199219 0.83203,0.644532 0,0.105468 -0.0117,0.222656 -0.0234,0.363281 l 0.12891,0.01172 z m 3.06738,3.691407 c 0.26953,-0.375 0.55078,-0.539063 0.87891,-0.539063 0.43359,0 0.71484,0.292969 0.71484,0.726563 0,0.339843 -0.16406,0.621093 -0.51562,0.855468 -0.33985,0.234375 -0.67969,0.351563 -1.39453,0.480469 l 0.0117,0.117188 c 0.44532,0 0.52735,0.01172 0.72657,0.08203 0.49218,0.1875 0.75,0.621094 0.75,1.253906 0,0.28125 -0.0586,0.574219 -0.17578,0.761719 -0.1875,0.3281249 -0.53907,0.5507812 -0.86719,0.5507812 -0.15235,0 -0.33985,-0.082031 -0.57422,-0.2578125 -0.23438,-0.1640625 -0.36328,-0.2226567 -0.51563,-0.2226567 -0.22265,0 -0.35156,0.1054692 -0.35156,0.3046879 0,0.3046875 0.32813,0.4804688 0.90235,0.4804688 0.44531,0 0.86718,-0.1054688 1.19531,-0.2929688 0.62109,-0.375 1.03125,-1.0429689 1.03125,-1.7578129 0,-0.585937 -0.23438,-0.949218 -0.76172,-1.195312 v -0.02344 c 0.96094,-0.375 1.24219,-0.644531 1.24219,-1.183593 0,-0.585938 -0.48047,-1.019532 -1.125,-1.019532 -0.55078,0 -1.04297,0.316407 -1.30078,0.832032 z M 25.961914,52.174844 h -4.253906 l -0.339844,1.230468 0.152344,0.03516 c 0.421875,-0.867188 0.679687,-0.996094 1.898437,-0.984375 l -1.148437,4.230468 c -0.128906,0.421875 -0.328125,0.550782 -0.855469,0.585938 v 0.128906 h 2.320313 V 57.2725 c -0.679688,-0.05859 -0.714844,-0.07031 -0.714844,-0.363281 0,-0.105469 0.01172,-0.175782 0.09375,-0.46875 l 1.113281,-3.984375 h 0.445313 c 0.574218,0 0.832031,0.199218 0.832031,0.644531 0,0.105469 -0.01172,0.222656 -0.02344,0.363281 l 0.128907,0.01172 z m 2.024414,8.226562 h 2.238281 v -0.117187 h -0.140625 c -0.386718,0 -0.550781,-0.07031 -0.550781,-0.257813 0,-0.07031 0.02344,-0.1875 0.09375,-0.421875 0.02344,-0.04687 0.03516,-0.09375 0.05859,-0.175781 l 1.136719,-4.148438 c 0.04687,-0.140625 0.04687,-0.199218 0.04687,-0.234375 0,-0.03516 -0.01172,-0.05859 -0.03516,-0.05859 0,0 -0.222656,0.04687 -0.65625,0.128906 l -0.726562,0.152344 c -0.01172,0 -0.07031,0.01172 -0.164063,0.02344 v 0.117188 l 0.457032,-0.01172 c 0.1875,-0.01172 0.304687,0.09375 0.304687,0.246094 0,0.05859 -0.01172,0.117187 -0.05859,0.28125 l -1.101562,3.9375 c -0.09375,0.292968 -0.269531,0.375 -0.902344,0.421875 z M 143.66211,58.274453 h -4.25391 l -0.33984,1.230469 0.15234,0.03516 c 0.42188,-0.867187 0.67969,-0.996094 1.89844,-0.984375 l -1.14844,4.230469 c -0.1289,0.421875 -0.32812,0.550781 -0.85547,0.585937 v 0.128907 h 2.32032 v -0.128907 c -0.67969,-0.05859 -0.71485,-0.07031 -0.71485,-0.363281 0,-0.105469 0.0117,-0.175781 0.0937,-0.46875 l 1.11328,-3.984375 h 0.44532 c 0.57422,0 0.83203,0.199219 0.83203,0.644531 0,0.105469 -0.0117,0.222657 -0.0234,0.363282 l 0.12891,0.01172 z m 4.83691,7.113281 c -0.1875,0.398438 -0.33984,0.492188 -0.78515,0.503907 h -1.52344 v -0.03516 l 1.53516,-1.535156 c 0.9375,-0.9375 1.19531,-1.347656 1.19531,-1.875 0,-0.761719 -0.57422,-1.359375 -1.30078,-1.359375 -0.29297,0 -0.58594,0.07031 -0.82032,0.210938 -0.41015,0.222656 -0.63281,0.492187 -0.85546,1.078125 l 0.16406,0.04687 c 0.29297,-0.515625 0.64453,-0.75 1.125,-0.75 0.57422,0 0.99609,0.421875 0.99609,0.972656 0,0.175781 -0.0234,0.328125 -0.0703,0.433594 -0.19922,0.433593 -0.5625,0.9375 -1.07813,1.488281 l -1.6875,1.792969 v 0.140625 h 2.84766 l 0.39844,-1.054688 z M 95.5625,-0.82613281 h -4.253906 l -0.339844,1.23046875 0.152344,0.0351563 c 0.421875,-0.8671875 0.679687,-0.99609375 1.898437,-0.984375 L 91.871094,3.6855859 c -0.128907,0.421875 -0.328125,0.5507813 -0.855469,0.5859375 v 0.1289063 h 2.320312 V 4.2715234 c -0.679687,-0.058594 -0.714843,-0.070312 -0.714843,-0.3632812 0,-0.1054688 0.01172,-0.1757813 0.09375,-0.46875 l 1.113281,-3.98437501 h 0.445312 c 0.574219,0 0.832032,0.19921875 0.832032,0.64453125 0,0.10546875 -0.01172,0.22265625 -0.02344,0.36328125 l 0.128906,0.0117188 z m 5.93848,2.97656251 -0.0469,-0.082031 h -2.999998 l -0.65625,1.0898438 0.117187,0.070312 c 0.363281,-0.4453125 0.585938,-0.5625 1.066406,-0.5742188 h 1.769535 l 0.0234,0.023437 -2.941402,4.78125 h 0.5625 z M 113.86133,84.2725 h -4.25391 l -0.33984,1.230469 0.15234,0.03516 c 0.42188,-0.867188 0.67969,-0.996094 1.89844,-0.984375 l -1.14844,4.230469 c -0.1289,0.421875 -0.32812,0.550781 -0.85547,0.585937 v 0.128906 h 2.32032 V 89.37016 c -0.67969,-0.05859 -0.71485,-0.07031 -0.71485,-0.363281 0,-0.105469 0.0117,-0.175781 0.0937,-0.46875 l 1.11328,-3.984375 h 0.44532 c 0.57421,0 0.83203,0.199219 0.83203,0.644531 0,0.105469 -0.0117,0.222656 -0.0234,0.363281 l 0.12891,0.01172 z m 5.79785,2.730469 c -1.06641,0.128906 -1.60547,0.328125 -2.29688,0.832031 -1.00781,0.75 -1.6289,1.886719 -1.6289,3.035156 0,1.019531 0.58594,1.6875 1.46484,1.6875 1.07813,0 1.99219,-1.019531 1.99219,-2.226562 0,-0.820313 -0.57422,-1.40625 -1.35938,-1.40625 -0.22265,0 -0.49218,0.05859 -0.70312,0.164062 l -0.0352,-0.01172 c 0.55078,-1.019531 1.64063,-1.828125 2.57813,-1.945312 z m -2.08594,2.203125 c 0.55078,0 0.90235,0.398437 0.90235,1.019531 0,0.539062 -0.1875,1.171875 -0.49219,1.59375 -0.23438,0.363281 -0.51563,0.527344 -0.85547,0.527344 -0.49219,0 -0.78516,-0.386719 -0.78516,-1.042969 0,-0.550781 0.16407,-1.21875 0.375,-1.570313 0.21094,-0.363281 0.48047,-0.527343 0.85547,-0.527343 z M 3.9628906,-17.126914 h -4.25390623 l -0.33984374,1.230469 0.15234374,0.03516 c 0.42187501,-0.867188 0.67968751,-0.996094 1.89843753,-0.984375 l -1.14843752,4.230469 c -0.12890626,0.421875 -0.328125,0.550781 -0.85546875,0.585937 v 0.128906 H 1.7363281 v -0.128906 c -0.6796875,-0.05859 -0.7148437,-0.07031 -0.7148437,-0.363281 0,-0.105469 0.011719,-0.175781 0.09375,-0.46875 l 1.1132812,-3.984375 h 0.4453125 c 0.5742188,0 0.8320313,0.199219 0.8320313,0.644531 0,0.105469 -0.011719,0.222656 -0.023437,0.363281 l 0.1289062,0.01172 z m 4.2744141,5.167969 c 0.9492187,-0.316407 1.3125,-0.65625 1.3125,-1.21875 0,-0.667969 -0.5859375,-1.136719 -1.40625,-1.136719 -0.8554688,0 -1.4414063,0.492187 -1.4414063,1.207031 0,0.433594 0.1640625,0.738281 0.703125,1.324219 -1.0078125,0.316406 -1.5703125,0.890625 -1.5703125,1.59375 0,0.2109374 0.070312,0.4570312 0.1875,0.6562499 0.2695313,0.4570313 0.75,0.6914063 1.40625,0.6914063 0.9960938,0 1.7226563,-0.6210938 1.7226563,-1.4414062 0,-0.539063 -0.234375,-0.972656 -0.9140625,-1.675781 z m -0.65625,0.304687 c 0.8789062,0.914063 0.9726562,1.054688 0.9726562,1.511719 0,0.6445312 -0.4570312,1.1249999 -1.0898437,1.1249999 -0.6328125,0 -1.078125,-0.46875 -1.078125,-1.1249999 0,-0.667969 0.4335937,-1.21875 1.1953125,-1.511719 z m 0.5039062,-0.445312 c -0.6210937,-0.585938 -0.75,-0.785157 -0.75,-1.125 0,-0.5625 0.2929688,-0.902344 0.8085938,-0.902344 0.515625,0 0.8554687,0.375 0.8554687,0.949219 0,0.503906 -0.2109375,0.75 -0.9140625,1.078125 z M -6.0361328,69.172891 h -4.2539062 l -0.339844,1.230468 0.152344,0.03516 c 0.421875,-0.867188 0.6796874,-0.996094 1.8984374,-0.984375 l -1.1484375,4.230468 c -0.1289062,0.421875 -0.3281249,0.550782 -0.8554689,0.585938 v 0.128906 h 2.3203127 V 74.27055 c -0.6796875,-0.05859 -0.7148438,-0.07031 -0.7148438,-0.363281 0,-0.105469 0.011719,-0.175782 0.09375,-0.46875 l 1.1132813,-3.984375 h 0.4453125 c 0.5742187,0 0.8320312,0.199218 0.8320312,0.644531 0,0.105469 -0.011719,0.222656 -0.023437,0.363281 l 0.1289063,0.01172 z m 3.5449219,3.46875 h 1.83984371 l 0.17578125,-0.574219 H -2.5146484 l -0.84375,1.746094 v 0.117187 c 0.7851562,0.175781 1.0429687,0.269531 1.3359375,0.503906 0.2578125,0.199219 0.421875,0.609375 0.421875,1.03125 0,0.867188 -0.6445313,1.652344 -1.3710938,1.652344 -0.1640625,0 -0.3046875,-0.05859 -0.5390625,-0.234375 -0.1992187,-0.152344 -0.328125,-0.199219 -0.4453125,-0.199219 -0.1875,0 -0.328125,0.128907 -0.328125,0.316407 0,0.28125 0.3164063,0.457031 0.8554688,0.457031 1.3125,0 2.3789062,-1.03125 2.3789062,-2.296875 0,-0.503906 -0.1875,-0.925781 -0.5273437,-1.253906 -0.3046875,-0.28125 -0.5859375,-0.410157 -1.2304688,-0.5625 z m 0,0"
         style="fill:#231f20;fill-opacity:1;fill-rule:nonzero;stroke:none" />
    </g>
  </g>
</svg>
