<?xml version="1.0" encoding="UTF-8" standalone="no"?>
<!-- Created with Inkscape (http://www.inkscape.org/) -->

<svg
   version="1.1"
   id="svg1"
   width="153.33333"
   height="245.33333"
   viewBox="0 0 153.33333 245.33333"
   sodipodi:docname="INSER.EPS"
   xmlns:inkscape="http://www.inkscape.org/namespaces/inkscape"
   xmlns:sodipodi="http://sodipodi.sourceforge.net/DTD/sodipodi-0.dtd"
   xmlns="http://www.w3.org/2000/svg"
   xmlns:svg="http://www.w3.org/2000/svg">
  <defs
     id="defs1" />
  <sodipodi:namedview
     id="namedview1"
     pagecolor="#ffffff"
     bordercolor="#000000"
     borderopacity="0.25"
     inkscape:showpageshadow="2"
     inkscape:pageopacity="0.0"
     inkscape:pagecheckerboard="0"
     inkscape:deskcolor="#d1d1d1">
    <inkscape:page
       x="0"
       y="0"
       inkscape:label="1"
       id="page1"
       width="153.33333"
       height="245.33333"
       margin="0"
       bleed="0" />
  </sodipodi:namedview>
  <g
     id="g1"
     inkscape:groupmode="layer"
     inkscape:label="1">
    <path
       id="path1"
       d="M 810.023,1834.14 H 782.031 L 779.199,187.5 h 27.989"
       style="fill:none;stroke:#231f20;stroke-width:5;stroke-linecap:butt;stroke-linejoin:miter;stroke-miterlimit:3.86369;stroke-dasharray:none;stroke-opacity:1"
       transform="matrix(0.13333333,0,0,-0.13333333,0,245.33333)" />
    <path
       id="path2"
       d="m 1108.85,187.5 h 36.82 l -1.66,1646.64 h -30.83"
       style="fill:none;stroke:#231f20;stroke-width:5;stroke-linecap:butt;stroke-linejoin:miter;stroke-miterlimit:3.86369;stroke-dasharray:none;stroke-opacity:1"
       transform="matrix(0.13333333,0,0,-0.13333333,0,245.33333)" />
    <path
       id="path3"
       d="m 331.535,900.055 c 56.016,19.687 113.828,28.097 187.672,23.988 47.5,-2.645 84.875,-7.512 116.313,-14.93"
       style="fill:none;stroke:#231f20;stroke-width:2.5;stroke-linecap:butt;stroke-linejoin:miter;stroke-miterlimit:3.86371;stroke-dasharray:none;stroke-opacity:1"
       transform="matrix(0.13333333,0,0,-0.13333333,0,245.33333)" />
    <path
       id="path4"
       d="m 633.086,909.68 3.375,14.613 33.164,-23.051 -39.914,-6.179 3.375,14.617"
       style="fill:#231f20;fill-opacity:1;fill-rule:evenodd;stroke:none"
       transform="matrix(0.13333333,0,0,-0.13333333,0,245.33333)" />
    <path
       id="path5"
       d="M 107.363,1096.68 H 79.3633 V 719.895 h 27.9997"
       style="fill:none;stroke:#231f20;stroke-width:5;stroke-linecap:butt;stroke-linejoin:miter;stroke-miterlimit:3.86369;stroke-dasharray:none;stroke-opacity:1"
       transform="matrix(0.13333333,0,0,-0.13333333,0,245.33333)" />
    <path
       id="path6"
       d="m 238.711,719.895 h 27.996 v 376.785 h -27.996"
       style="fill:none;stroke:#231f20;stroke-width:5;stroke-linecap:butt;stroke-linejoin:miter;stroke-miterlimit:3.86369;stroke-dasharray:none;stroke-opacity:1"
       transform="matrix(0.13333333,0,0,-0.13333333,0,245.33333)" />
    <g
       id="g6"
       aria-label="f&#10;i&#10;f&#10;j&#10;e&#10;e&#10;f&#10;e&#10;i = dof&#10;i&#10;j = dofj&#10;f&#10;1&#10;f&#10;2&#10;.&#10;.&#10;.&#10;.&#10;f&#10;i &#10;+ f&#10;i&#10;e&#10;f&#10;j &#10;+ f&#10;j&#10;e&#10;.&#10;.&#10;.&#10;.&#10;f&#10;n&#10;f"
       transform="matrix(1.3333333,0,0,1.3333333,17,114.49067)">
      <path
         id="path7"
         d="m 2.4726563,-3.4441719 -0.070312,0.2460938 H 1.828125 l -0.4804688,1.734375 C 1.1484375,-0.71370312 0.94921875,-0.13948437 0.75,0.27067188 0.46875,0.85660938 0.17578125,1.2550469 -0.140625,1.4777031 c -0.24609375,0.1640625 -0.48046875,0.2578125 -0.7265625,0.2578125 -0.1523437,0 -0.28125,-0.058594 -0.3984375,-0.1523437 -0.082031,-0.058594 -0.1171875,-0.140625 -0.1171875,-0.2460938 0,-0.082031 0.035156,-0.1640625 0.09375,-0.2226562 0.070312,-0.058594 0.1523438,-0.09375 0.2460938,-0.09375 0.0703125,0 0.1289062,0.023437 0.1757812,0.070312 0.046875,0.046875 0.0703125,0.09375 0.0703125,0.1523437 0,0.058594 -0.0234375,0.1054688 -0.0703125,0.1640625 -0.046875,0.035156 -0.0703125,0.058594 -0.0703125,0.082031 0,0.023437 0.0117188,0.035156 0.0234375,0.058594 0.0234375,0.011719 0.0703125,0.023437 0.1171875,0.023437 0.10546875,0 0.22265625,-0.035156 0.3515625,-0.1054687 0.1171875,-0.070312 0.234375,-0.1757813 0.328125,-0.3164063 0.09375,-0.140625 0.17578125,-0.33984372 0.2578125,-0.60937497 0.046875,-0.10546875 0.15234375,-0.46875 0.31640625,-1.078125 L 1.21875,-3.1980781 H 0.4453125 l 0.0585938,-0.2460938 c 0.24609375,0 0.41015625,-0.023437 0.5039063,-0.046875 0.09375,-0.035156 0.1875,-0.09375 0.2695312,-0.1757812 0.070312,-0.082031 0.1757813,-0.234375 0.28125,-0.46875 0.1523438,-0.3164063 0.2929688,-0.5625 0.421875,-0.7265625 0.1992188,-0.234375 0.3867188,-0.4101563 0.5976563,-0.5273438 0.1992188,-0.1171875 0.3867188,-0.1757812 0.5742188,-0.1757812 0.1875,0 0.3398437,0.046875 0.4570312,0.1523437 0.1171875,0.1054688 0.1757813,0.2109375 0.1757813,0.328125 0,0.09375 -0.035156,0.1757813 -0.082031,0.234375 -0.070312,0.070312 -0.140625,0.09375 -0.234375,0.09375 -0.082031,0 -0.1523437,-0.023437 -0.1992187,-0.070312 -0.046875,-0.046875 -0.070312,-0.1054687 -0.070312,-0.1640625 0,-0.046875 0.011719,-0.09375 0.046875,-0.1523437 0.023437,-0.070312 0.046875,-0.1054688 0.046875,-0.1289063 0,-0.035156 -0.011719,-0.070312 -0.035156,-0.082031 -0.035156,-0.023437 -0.082031,-0.035156 -0.140625,-0.035156 -0.1523437,0 -0.28125,0.046875 -0.3984375,0.1523438 -0.1640625,0.1523437 -0.3046875,0.375 -0.4335937,0.6796875 -0.070312,0.1523437 -0.1992188,0.5273437 -0.3867188,1.1132812 z m 2.6572265,1.1689453 c 0.1171875,0 0.1992188,0.046875 0.28125,0.1171875 0.070312,0.082031 0.1054688,0.1640625 0.1054688,0.28125 0,0.1054688 -0.035156,0.1992188 -0.1054688,0.28125 -0.082031,0.070312 -0.1757812,0.1054688 -0.28125,0.1054688 -0.1054687,0 -0.1992187,-0.035156 -0.28125,-0.1054688 -0.070312,-0.082031 -0.1054687,-0.1757812 -0.1054687,-0.28125 0,-0.1171875 0.035156,-0.1992187 0.1054687,-0.28125 0.082031,-0.070312 0.1640625,-0.1171875 0.28125,-0.1171875 z M 5.2939453,-0.71663281 4.4853516,2.0489922 c -0.058594,0.1875 -0.09375,0.3046875 -0.09375,0.3398437 0,0.035156 0.023437,0.070312 0.046875,0.09375 0.011719,0.035156 0.046875,0.035156 0.070312,0.035156 0.035156,0 0.082031,-0.011719 0.1289062,-0.046875 0.1289063,-0.1289063 0.2695313,-0.28125 0.3984375,-0.5039063 l 0.140625,0.09375 C 5.0126953,2.3185234 4.8134766,2.5411797 4.5908203,2.7169609 4.4150391,2.8575859 4.2509766,2.9278984 4.0986328,2.9278984 c -0.1054687,0 -0.1875,-0.035156 -0.2460937,-0.1054687 -0.070312,-0.058594 -0.09375,-0.1289063 -0.09375,-0.2226563 0,-0.1054687 0.023437,-0.2695312 0.09375,-0.4921875 L 4.4033203,0.33805469 c 0.082031,-0.29296875 0.1171875,-0.46875 0.1289063,-0.5390625 0,-0.0585938 -0.023437,-0.10546875 -0.070312,-0.140625 -0.035156,-0.0351563 -0.09375,-0.046875 -0.1640625,-0.046875 -0.058594,0 -0.1757813,0 -0.3515625,0.0351563 v -0.1523438 z M 2.4726563,16.706219 2.4023438,16.952313 H 1.828125 L 1.3476562,18.686688 C 1.1484375,19.436688 0.94921875,20.010906 0.75,20.421063 0.46875,21.007 0.17578125,21.405438 -0.140625,21.628094 c -0.24609375,0.164062 -0.48046875,0.257812 -0.7265625,0.257812 -0.1523437,0 -0.28125,-0.05859 -0.3984375,-0.152343 -0.082031,-0.05859 -0.1171875,-0.140625 -0.1171875,-0.246094 0,-0.08203 0.035156,-0.164063 0.09375,-0.222656 0.070312,-0.05859 0.1523438,-0.09375 0.2460938,-0.09375 0.0703125,0 0.1289062,0.02344 0.1757812,0.07031 0.046875,0.04687 0.0703125,0.09375 0.0703125,0.152344 0,0.05859 -0.0234375,0.105469 -0.0703125,0.164062 -0.046875,0.03516 -0.0703125,0.05859 -0.0703125,0.08203 0,0.02344 0.0117188,0.03516 0.0234375,0.05859 0.0234375,0.01172 0.0703125,0.02344 0.1171875,0.02344 0.10546875,0 0.22265625,-0.03516 0.3515625,-0.105469 0.1171875,-0.07031 0.234375,-0.175781 0.328125,-0.316406 0.09375,-0.140625 0.17578125,-0.339844 0.2578125,-0.609375 C 0.1875,20.58512 0.29296875,20.221839 0.45703125,19.612464 L 1.21875,16.952313 H 0.4453125 l 0.0585938,-0.246094 c 0.24609375,0 0.41015625,-0.02344 0.5039063,-0.04687 0.09375,-0.03516 0.1875,-0.09375 0.2695312,-0.175781 0.070312,-0.08203 0.1757813,-0.234375 0.28125,-0.46875 0.1523438,-0.316407 0.2929688,-0.5625 0.421875,-0.726563 0.1992188,-0.234375 0.3867188,-0.410156 0.5976563,-0.527344 0.1992188,-0.117187 0.3867188,-0.175781 0.5742188,-0.175781 0.1875,0 0.3398437,0.04687 0.4570312,0.152344 0.1171875,0.105469 0.1757813,0.210937 0.1757813,0.328125 0,0.09375 -0.035156,0.175781 -0.082031,0.234375 -0.070312,0.07031 -0.140625,0.09375 -0.234375,0.09375 -0.082031,0 -0.1523437,-0.02344 -0.1992187,-0.07031 -0.046875,-0.04687 -0.070312,-0.105468 -0.070312,-0.164062 0,-0.04687 0.011719,-0.09375 0.046875,-0.152344 0.023437,-0.07031 0.046875,-0.105469 0.046875,-0.128906 0,-0.03516 -0.011719,-0.07031 -0.035156,-0.08203 -0.035156,-0.02344 -0.082031,-0.03516 -0.140625,-0.03516 -0.1523437,0 -0.28125,0.04687 -0.3984375,0.152344 -0.1640625,0.152344 -0.3046875,0.375 -0.4335937,0.679688 -0.070312,0.152343 -0.1992188,0.527343 -0.3867188,1.113281 z m 2.7041015,1.192383 c 0.1054688,0 0.1992188,0.03516 0.28125,0.105468 0.070312,0.08203 0.1171875,0.175782 0.1171875,0.28125 0,0.117188 -0.046875,0.210938 -0.1171875,0.292969 -0.082031,0.07031 -0.1757812,0.105469 -0.28125,0.105469 -0.1054687,0 -0.2109375,-0.03516 -0.28125,-0.105469 -0.082031,-0.08203 -0.1171875,-0.175781 -0.1171875,-0.292969 0,-0.105468 0.035156,-0.199218 0.1171875,-0.28125 0.070312,-0.07031 0.1757813,-0.105468 0.28125,-0.105468 z m 0.046875,1.546875 -1.0078125,3.503906 c -0.1757812,0.621094 -0.421875,1.078125 -0.7382812,1.347656 -0.3046875,0.28125 -0.6445313,0.421875 -1.0078125,0.421875 -0.1640625,0 -0.2929688,-0.04687 -0.375,-0.117187 -0.082031,-0.08203 -0.1289063,-0.164063 -0.1289063,-0.269532 0,-0.08203 0.035156,-0.152343 0.09375,-0.222656 0.070312,-0.04687 0.140625,-0.08203 0.2226563,-0.08203 0.082031,0 0.140625,0.02344 0.1992187,0.07031 0.046875,0.03516 0.070312,0.08203 0.070312,0.140625 0,0.05859 -0.035156,0.117188 -0.09375,0.175782 -0.046875,0.02344 -0.058594,0.04687 -0.058594,0.07031 l 0.011719,0.01172 c 0,0.01172 0.011719,0.01172 0.035156,0.02344 0.011719,0.01172 0.035156,0.01172 0.070312,0.01172 0.1992187,0 0.3867187,-0.07031 0.5390625,-0.199219 0.140625,-0.140625 0.28125,-0.398437 0.3984375,-0.808593 l 0.8671875,-3 c 0.09375,-0.292969 0.1289062,-0.457032 0.1289062,-0.480469 0,-0.07031 -0.035156,-0.128906 -0.09375,-0.175781 -0.046875,-0.04687 -0.1171875,-0.07031 -0.1992187,-0.07031 -0.035156,0 -0.070312,0 -0.1289063,0.01172 -0.023437,0.01172 -0.070312,0.01172 -0.140625,0.02344 V 19.69157 Z M 7.0722656,-7.0271797 c -0.023437,0.1289063 -0.023437,0.2460938 -0.023437,0.328125 0,0.2226563 0.082031,0.421875 0.2460938,0.5859375 0.1640625,0.1640625 0.375,0.2460938 0.609375,0.2460938 0.1875,0 0.375,-0.046875 0.5507812,-0.1171875 0.1757813,-0.082031 0.4453125,-0.2460938 0.796875,-0.515625 l 0.070312,0.1171875 c -0.6210937,0.6210937 -1.2070312,0.9257812 -1.7578125,0.9257812 -0.3867187,0 -0.6796875,-0.1289062 -0.8671875,-0.3632812 -0.1992187,-0.2460938 -0.2929687,-0.5039063 -0.2929687,-0.796875 0,-0.3867188 0.1171875,-0.7851563 0.3632812,-1.1953125 0.234375,-0.3984375 0.5390625,-0.7148438 0.9023438,-0.9375 0.3632812,-0.2226563 0.7382812,-0.3398438 1.1132812,-0.3398438 0.28125,0 0.4804688,0.058594 0.6210938,0.1640625 0.1289062,0.1171875 0.1992187,0.2578125 0.1992187,0.4101563 0,0.2109375 -0.09375,0.421875 -0.2695312,0.6210937 -0.234375,0.2578125 -0.5625,0.4570313 -1.0195313,0.6210938 -0.2929687,0.1054687 -0.703125,0.1992187 -1.2421875,0.2460937 z m 0.035156,-0.1875 c 0.3867187,-0.046875 0.703125,-0.1171875 0.9609375,-0.2226562 0.328125,-0.140625 0.5742187,-0.328125 0.7265625,-0.5273438 0.1757812,-0.1992187 0.2578125,-0.375 0.2578125,-0.5625 0,-0.1171875 -0.035156,-0.1992187 -0.1054688,-0.2695312 -0.070312,-0.070312 -0.1757812,-0.09375 -0.3046875,-0.09375 -0.2695312,0 -0.5625,0.140625 -0.8671875,0.421875 -0.3046875,0.28125 -0.5273437,0.703125 -0.6679687,1.2539062 z M 7.4150391,13.216961 c -0.023437,0.128906 -0.023437,0.246094 -0.023437,0.328125 0,0.222656 0.082031,0.421875 0.2460937,0.585937 0.1640625,0.164063 0.375,0.246094 0.609375,0.246094 0.1875,0 0.375,-0.04687 0.5507813,-0.117187 0.1757812,-0.08203 0.4453125,-0.246094 0.796875,-0.515625 l 0.070312,0.117187 c -0.6210938,0.621094 -1.2070313,0.925781 -1.7578125,0.925781 -0.3867188,0 -0.6796875,-0.128906 -0.8671875,-0.363281 -0.1992188,-0.246094 -0.2929688,-0.503906 -0.2929688,-0.796875 0,-0.386719 0.1171875,-0.785156 0.3632813,-1.195312 0.234375,-0.398438 0.5390625,-0.714844 0.9023437,-0.9375 0.3632813,-0.222657 0.7382813,-0.339844 1.1132813,-0.339844 0.28125,0 0.4804687,0.05859 0.6210937,0.164062 0.1289063,0.117188 0.1992188,0.257813 0.1992188,0.410157 0,0.210937 -0.09375,0.421875 -0.2695313,0.621093 -0.234375,0.257813 -0.5625,0.457032 -1.0195312,0.621094 -0.2929688,0.105469 -0.703125,0.199219 -1.2421875,0.246094 z m 0.035156,-0.1875 c 0.3867188,-0.04687 0.703125,-0.117188 0.9609375,-0.222656 0.328125,-0.140625 0.5742188,-0.328125 0.7265625,-0.527344 0.1757813,-0.199219 0.2578125,-0.375 0.2578125,-0.5625 0,-0.117188 -0.035156,-0.199219 -0.1054687,-0.269531 -0.070312,-0.07031 -0.1757813,-0.09375 -0.3046875,-0.09375 -0.2695313,0 -0.5625,0.140625 -0.8671875,0.421875 -0.3046875,0.28125 -0.5273438,0.703125 -0.6679688,1.253906 z m 0,0"
         style="fill:#231f20;fill-opacity:1;fill-rule:nonzero;stroke:none" />
      <path
         id="path8"
         d="m 3.7998047,36.713055 0.011719,3.808593 c 0,0.375 0.035156,0.597657 0.1171875,0.691407 0.1171875,0.140625 0.3515625,0.222656 0.6796875,0.210937 v 0.199219 H 1.3857422 v -0.199219 c 0.2460937,0 0.421875,-0.03516 0.5273437,-0.09375 0.1054688,-0.05859 0.1757813,-0.128906 0.2109375,-0.222656 0.035156,-0.09375 0.058594,-0.292969 0.058594,-0.585938 L 2.1708984,36.713055 H 1.4091797 v -0.574219 h 0.7617187 v -0.667969 c 0,-0.5625 0.2109375,-1.042969 0.6210938,-1.417969 0.3984375,-0.375 0.9726562,-0.5625 1.6640625,-0.5625 0.4804687,0 0.84375,0.08203 1.0664062,0.257813 0.234375,0.1875 0.3515625,0.386719 0.3515625,0.597656 0,0.1875 -0.070312,0.328125 -0.2226562,0.457031 -0.140625,0.140625 -0.328125,0.199219 -0.5742188,0.199219 -0.1992187,0 -0.3632812,-0.04687 -0.4804687,-0.164062 -0.1171875,-0.105469 -0.1757813,-0.222657 -0.1757813,-0.339844 0,-0.03516 0.011719,-0.105469 0.035156,-0.222656 0.011719,-0.07031 0.023437,-0.128907 0.023437,-0.1875 0,-0.07031 -0.023437,-0.128907 -0.070312,-0.175782 -0.058594,-0.07031 -0.1289063,-0.09375 -0.234375,-0.09375 -0.1054688,0 -0.1992188,0.04687 -0.28125,0.152344 -0.070312,0.09375 -0.1054688,0.234375 -0.1054688,0.457031 v 1.710938 h 0.8203125 v 0.574219 z m 0,0"
         style="fill:#231f20;fill-opacity:1;fill-rule:nonzero;stroke:none" />
      <path
         id="path9"
         d="m 7.8955078,34.255047 c -0.023437,0.128906 -0.023437,0.246094 -0.023437,0.328125 0,0.222656 0.082031,0.421875 0.2460938,0.585937 0.1640625,0.164063 0.375,0.246094 0.609375,0.246094 0.1875,0 0.375,-0.04687 0.5507812,-0.117187 0.1757813,-0.08203 0.4453125,-0.246094 0.7968752,-0.515625 l 0.07031,0.117187 c -0.6210934,0.621094 -1.2070309,0.925781 -1.7578122,0.925781 -0.3867187,0 -0.6796875,-0.128906 -0.8671875,-0.363281 -0.1992187,-0.246094 -0.2929687,-0.503906 -0.2929687,-0.796875 0,-0.386719 0.1171875,-0.785156 0.3632812,-1.195312 0.234375,-0.398438 0.5390625,-0.714844 0.9023438,-0.9375 0.3632812,-0.222657 0.7382812,-0.339844 1.1132812,-0.339844 0.28125,0 0.4804682,0.05859 0.6210932,0.164062 0.128906,0.117188 0.199219,0.257813 0.199219,0.410157 0,0.210937 -0.09375,0.421875 -0.269531,0.621093 -0.2343749,0.257813 -0.5624999,0.457032 -1.0195312,0.621094 -0.2929687,0.105469 -0.703125,0.199219 -1.2421875,0.246094 z m 0.035156,-0.1875 c 0.3867187,-0.04687 0.703125,-0.117188 0.9609375,-0.222656 0.328125,-0.140625 0.5742187,-0.328125 0.7265625,-0.527344 0.1757812,-0.199219 0.2578125,-0.375 0.2578125,-0.5625 0,-0.117188 -0.035156,-0.199219 -0.1054688,-0.269531 -0.070312,-0.07031 -0.1757812,-0.09375 -0.3046875,-0.09375 -0.2695312,0 -0.5625,0.140625 -0.8671875,0.421875 -0.3046875,0.28125 -0.5273437,0.703125 -0.6679687,1.253906 z M -9.7060547,59.06657 c 0.1171875,0 0.1992188,0.04687 0.28125,0.117188 0.070312,0.08203 0.1054688,0.164062 0.1054688,0.28125 0,0.105469 -0.035156,0.199219 -0.1054688,0.28125 -0.082031,0.07031 -0.1757812,0.105469 -0.28125,0.105469 -0.1054687,0 -0.1992187,-0.03516 -0.28125,-0.105469 -0.070312,-0.08203 -0.1054683,-0.175781 -0.1054683,-0.28125 0,-0.117188 0.03516,-0.199219 0.1054683,-0.28125 0.082031,-0.07031 0.1640625,-0.117188 0.28125,-0.117188 z m 0.1640625,1.558594 -0.8085938,2.765625 c -0.05859,0.1875 -0.09375,0.304688 -0.09375,0.339844 0,0.03516 0.02344,0.07031 0.04687,0.09375 0.01172,0.03516 0.04687,0.03516 0.07031,0.03516 0.03516,0 0.08203,-0.01172 0.128906,-0.04687 0.128906,-0.128906 0.2695311,-0.28125 0.3984373,-0.503906 l 0.140625,0.09375 c -0.1640625,0.257812 -0.3632813,0.480469 -0.5859373,0.65625 -0.175781,0.140625 -0.339844,0.210937 -0.492188,0.210937 -0.105468,0 -0.1875,-0.03516 -0.246093,-0.105468 -0.07031,-0.05859 -0.09375,-0.128907 -0.09375,-0.222657 0,-0.105468 0.02344,-0.269531 0.09375,-0.492187 l 0.550781,-1.769531 c 0.08203,-0.292969 0.117187,-0.46875 0.128906,-0.539063 0,-0.05859 -0.02344,-0.105469 -0.07031,-0.140625 -0.03516,-0.03516 -0.09375,-0.04687 -0.164063,-0.04687 -0.05859,0 -0.175781,0 -0.351562,0.03516 V 60.83612 Z m 5.1621094,0.105469 h 4.21874999 v 0.316406 H -4.3798828 Z m 0,1.265625 h 4.21874999 v 0.328125 H -4.3798828 Z M 10.541016,58.574383 9.1582031,63.28532 c -0.070312,0.257813 -0.1054687,0.421875 -0.1054687,0.503907 0,0.02344 0,0.04687 0.023437,0.07031 0.011719,0.01172 0.023437,0.02344 0.046875,0.02344 0.023437,0 0.046875,-0.01172 0.082031,-0.04687 0.046875,-0.04687 0.1523438,-0.210938 0.2929688,-0.457032 l 0.140625,0.08203 c -0.1523438,0.246093 -0.3046875,0.445312 -0.46875,0.597656 -0.1640625,0.128906 -0.3046875,0.210937 -0.4453125,0.210937 -0.070312,0 -0.1289063,-0.03516 -0.1757813,-0.105468 -0.058594,-0.04687 -0.09375,-0.140625 -0.09375,-0.257813 0,-0.152344 0.046875,-0.351562 0.1171875,-0.597656 l 0.1523438,-0.480469 c -0.4101563,0.574219 -0.796875,0.984375 -1.1367188,1.207031 -0.234375,0.152344 -0.4570312,0.234375 -0.6796875,0.234375 -0.2109375,0 -0.4101562,-0.09375 -0.5742187,-0.269531 -0.1640625,-0.175781 -0.234375,-0.421875 -0.234375,-0.714844 0,-0.386718 0.1289062,-0.808593 0.3984375,-1.242187 0.2695312,-0.433594 0.6210937,-0.796875 1.0664062,-1.078125 0.3515625,-0.210938 0.6679688,-0.328125 0.9609375,-0.328125 0.1523438,0 0.28125,0.03516 0.3867188,0.09375 0.1171875,0.04687 0.2226562,0.152344 0.328125,0.28125 L 9.6035156,59.72282 c 0.058594,-0.152343 0.082031,-0.269531 0.1054688,-0.351562 0.035156,-0.105469 0.046875,-0.199219 0.046875,-0.257813 0,-0.05859 -0.011719,-0.105468 -0.046875,-0.140625 -0.058594,-0.04687 -0.1289063,-0.05859 -0.2226563,-0.05859 -0.058594,0 -0.1523437,0 -0.2929687,0.02344 v -0.15235 z m -1.5117191,2.8125 c 0,-0.164063 -0.046875,-0.304688 -0.1640625,-0.410156 -0.1054688,-0.09375 -0.2460938,-0.140625 -0.3984375,-0.140625 -0.375,0 -0.75,0.269531 -1.1367188,0.808593 -0.3984375,0.550782 -0.5976562,1.066407 -0.5976562,1.558594 0,0.199219 0.046875,0.351563 0.1523437,0.457031 0.09375,0.09375 0.2226563,0.152344 0.3632813,0.152344 0.3164062,0 0.6914062,-0.304687 1.125,-0.890625 0.4335937,-0.585937 0.65625,-1.101562 0.65625,-1.535156 z m 6.6093751,0.480469 c 0,0.375 -0.105469,0.773437 -0.316406,1.148437 -0.210938,0.386719 -0.492188,0.691406 -0.867188,0.914063 -0.363281,0.222656 -0.726562,0.339843 -1.078125,0.339843 -0.351562,0 -0.644531,-0.117187 -0.878906,-0.351562 -0.222656,-0.222656 -0.328125,-0.515625 -0.328125,-0.878906 0,-0.386719 0.105469,-0.773438 0.328125,-1.148438 0.222656,-0.386719 0.515625,-0.691406 0.890625,-0.914062 0.363281,-0.222657 0.714844,-0.339844 1.054687,-0.339844 0.351563,0 0.632813,0.117187 0.855469,0.339844 0.222656,0.234375 0.339844,0.515625 0.339844,0.890625 z m -0.644531,-0.28125 c 0,-0.246094 -0.05859,-0.433594 -0.175782,-0.5625 -0.117187,-0.128907 -0.269531,-0.1875 -0.46875,-0.1875 -0.386718,0 -0.738281,0.269531 -1.054687,0.820312 -0.328125,0.550781 -0.492188,1.089844 -0.492188,1.640625 0,0.246094 0.07031,0.433594 0.199219,0.574219 0.117188,0.140625 0.28125,0.199219 0.46875,0.199219 0.375,0 0.714844,-0.269532 1.03125,-0.820313 0.328125,-0.550781 0.492188,-1.101562 0.492188,-1.664062 z m 5.414062,-0.855469 -0.07031,0.246094 h -0.574219 l -0.480469,1.734375 c -0.199219,0.75 -0.398437,1.324218 -0.597656,1.734375 -0.28125,0.585937 -0.574219,0.984375 -0.890625,1.207031 -0.246094,0.164062 -0.480469,0.257812 -0.726563,0.257812 -0.152343,0 -0.28125,-0.05859 -0.398437,-0.152343 -0.08203,-0.05859 -0.117188,-0.140625 -0.117188,-0.246094 0,-0.08203 0.03516,-0.164063 0.09375,-0.222656 0.07031,-0.05859 0.152344,-0.09375 0.246094,-0.09375 0.07031,0 0.128906,0.02344 0.175781,0.07031 0.04687,0.04687 0.07031,0.09375 0.07031,0.152344 0,0.05859 -0.02344,0.105469 -0.07031,0.164062 -0.04687,0.03516 -0.07031,0.05859 -0.07031,0.08203 0,0.02344 0.01172,0.03516 0.02344,0.05859 0.02344,0.01172 0.07031,0.02344 0.117188,0.02344 0.105469,0 0.222656,-0.03516 0.351562,-0.105469 0.117188,-0.07031 0.234375,-0.175781 0.328125,-0.316406 0.09375,-0.140625 0.175782,-0.339844 0.257813,-0.609375 0.04687,-0.105469 0.152344,-0.46875 0.316406,-1.078125 l 0.761719,-2.660156 h -0.773438 l 0.05859,-0.246094 c 0.246094,0 0.410156,-0.02344 0.503906,-0.04687 0.09375,-0.03516 0.1875,-0.09375 0.269532,-0.175781 0.07031,-0.08203 0.175781,-0.234375 0.28125,-0.46875 0.152343,-0.316407 0.292968,-0.5625 0.421875,-0.726563 0.199218,-0.234375 0.386718,-0.410156 0.597656,-0.527344 0.199219,-0.117187 0.386719,-0.175781 0.574219,-0.175781 0.1875,0 0.339843,0.04687 0.457031,0.152344 0.117187,0.105469 0.175781,0.210937 0.175781,0.328125 0,0.09375 -0.03516,0.175781 -0.08203,0.234375 -0.07031,0.07031 -0.140625,0.09375 -0.234375,0.09375 -0.08203,0 -0.152344,-0.02344 -0.199219,-0.07031 -0.04687,-0.04687 -0.07031,-0.105468 -0.07031,-0.164062 0,-0.04687 0.01172,-0.09375 0.04687,-0.152344 0.02344,-0.07031 0.04687,-0.105469 0.04687,-0.128906 0,-0.03516 -0.01172,-0.07031 -0.03516,-0.08203 -0.03516,-0.02344 -0.08203,-0.03516 -0.140625,-0.03516 -0.152343,0 -0.28125,0.04687 -0.398437,0.152344 -0.164063,0.152344 -0.304688,0.375 -0.433594,0.679688 -0.07031,0.152343 -0.199219,0.527343 -0.386719,1.113281 z m 2.657227,1.171875 c 0.117187,0 0.199218,0.04687 0.28125,0.117187 0.07031,0.08203 0.105468,0.164063 0.105468,0.28125 0,0.105469 -0.03516,0.199219 -0.105468,0.28125 -0.08203,0.07031 -0.175782,0.105469 -0.28125,0.105469 -0.105469,0 -0.199219,-0.03516 -0.28125,-0.105469 -0.07031,-0.08203 -0.105469,-0.175781 -0.105469,-0.28125 0,-0.117187 0.03516,-0.199218 0.105469,-0.28125 0.08203,-0.07031 0.164062,-0.117187 0.28125,-0.117187 z m 0.164062,1.558594 -0.808594,2.765625 c -0.05859,0.1875 -0.09375,0.304687 -0.09375,0.339843 0,0.03516 0.02344,0.07031 0.04687,0.09375 0.01172,0.03516 0.04687,0.03516 0.07031,0.03516 0.03516,0 0.08203,-0.01172 0.128906,-0.04687 0.128906,-0.128907 0.269531,-0.28125 0.398438,-0.503907 l 0.140625,0.09375 c -0.164063,0.257813 -0.363282,0.480469 -0.585938,0.65625 -0.175781,0.140625 -0.339844,0.210938 -0.492187,0.210938 -0.105469,0 -0.1875,-0.03516 -0.246094,-0.105469 -0.07031,-0.05859 -0.09375,-0.128906 -0.09375,-0.222656 0,-0.105469 0.02344,-0.269531 0.09375,-0.492188 l 0.550781,-1.769531 c 0.08203,-0.292969 0.117188,-0.46875 0.128906,-0.539062 0,-0.05859 -0.02344,-0.105469 -0.07031,-0.140625 -0.03516,-0.03516 -0.09375,-0.04687 -0.164063,-0.04687 -0.05859,0 -0.175781,0 -0.351562,0.03516 V 63.672039 Z M -9.5361328,76.249188 c 0.1054687,0 0.1992187,0.03516 0.28125,0.105468 0.070312,0.08203 0.1171875,0.175782 0.1171875,0.28125 0,0.117188 -0.046875,0.210938 -0.1171875,0.292969 -0.082031,0.07031 -0.1757813,0.105469 -0.28125,0.105469 -0.1054688,0 -0.2109375,-0.03516 -0.28125,-0.105469 -0.082031,-0.08203 -0.1171875,-0.175781 -0.1171875,-0.292969 0,-0.105468 0.035156,-0.199218 0.1171875,-0.28125 0.070312,-0.07031 0.1757812,-0.105468 0.28125,-0.105468 z m 0.046875,1.546875 -1.0078122,3.503906 c -0.175782,0.621094 -0.421875,1.078125 -0.738282,1.347656 -0.304687,0.28125 -0.644531,0.421875 -1.007812,0.421875 -0.164063,0 -0.292969,-0.04687 -0.375,-0.117187 -0.08203,-0.08203 -0.128906,-0.164063 -0.128906,-0.269532 0,-0.08203 0.03516,-0.152343 0.09375,-0.222656 0.07031,-0.04687 0.140625,-0.08203 0.222656,-0.08203 0.08203,0 0.140625,0.02344 0.199219,0.07031 0.04687,0.03516 0.07031,0.08203 0.07031,0.140625 0,0.05859 -0.03516,0.117188 -0.09375,0.175782 -0.04687,0.02344 -0.05859,0.04687 -0.05859,0.07031 l 0.01172,0.01172 c 0,0.01172 0.01172,0.01172 0.03516,0.02344 0.01172,0.01172 0.03516,0.01172 0.07031,0.01172 0.199219,0 0.386719,-0.07031 0.539062,-0.199219 0.140625,-0.140625 0.28125,-0.398437 0.398438,-0.808593 l 0.867187,-3 c 0.09375,-0.292969 0.128907,-0.457032 0.128907,-0.480469 0,-0.07031 -0.03516,-0.128906 -0.09375,-0.175781 -0.04687,-0.04687 -0.117188,-0.07031 -0.199219,-0.07031 -0.03516,0 -0.07031,0 -0.128906,0.01172 -0.02344,0.01172 -0.07031,0.01172 -0.140625,0.02344 v -0.140625 z m 5.2353516,0.09375 h 4.21874995 v 0.316406 H -4.2539062 Z m 0,1.265625 h 4.21874995 v 0.328125 H -4.2539062 Z M 10.666992,75.733563 9.2841797,80.4445 c -0.070312,0.257813 -0.1054688,0.421875 -0.1054688,0.503906 0,0.02344 0,0.04687 0.023437,0.07031 0.011719,0.01172 0.023437,0.02344 0.046875,0.02344 0.023437,0 0.046875,-0.01172 0.082031,-0.04687 0.046875,-0.04687 0.1523437,-0.210937 0.2929687,-0.457031 l 0.140625,0.08203 c -0.1523437,0.246094 -0.3046875,0.445313 -0.46875,0.597657 -0.1640625,0.128906 -0.3046875,0.210937 -0.4453125,0.210937 -0.070312,0 -0.1289062,-0.03516 -0.1757812,-0.105469 -0.058594,-0.04687 -0.09375,-0.140625 -0.09375,-0.257812 0,-0.152344 0.046875,-0.351563 0.1171875,-0.597656 l 0.1523437,-0.480469 c -0.4101562,0.574219 -0.796875,0.984375 -1.1367187,1.207031 -0.234375,0.152344 -0.4570313,0.234375 -0.6796875,0.234375 -0.2109375,0 -0.4101563,-0.09375 -0.5742188,-0.269531 -0.1640625,-0.175781 -0.234375,-0.421875 -0.234375,-0.714844 0,-0.386719 0.1289063,-0.808594 0.3984375,-1.242187 0.2695313,-0.433594 0.6210938,-0.796875 1.0664063,-1.078125 0.3515625,-0.210938 0.6679687,-0.328125 0.9609375,-0.328125 0.1523437,0 0.28125,0.03516 0.3867187,0.09375 0.1171875,0.04687 0.2226563,0.152343 0.328125,0.28125 L 9.7294922,76.882 c 0.058594,-0.152344 0.082031,-0.269531 0.1054687,-0.351562 0.035156,-0.105469 0.046875,-0.199219 0.046875,-0.257813 0,-0.05859 -0.011719,-0.105469 -0.046875,-0.140625 -0.058594,-0.04687 -0.1289062,-0.05859 -0.2226562,-0.05859 -0.058594,0 -0.1523438,0 -0.2929688,0.02344 V 75.9445 Z m -1.5117186,2.8125 c 0,-0.164063 -0.046875,-0.304688 -0.1640625,-0.410157 -0.1054687,-0.09375 -0.2460937,-0.140625 -0.3984375,-0.140625 -0.375,0 -0.75,0.269532 -1.1367187,0.808594 -0.3984375,0.550781 -0.5976563,1.066406 -0.5976563,1.558594 0,0.199219 0.046875,0.351562 0.1523438,0.457031 0.09375,0.09375 0.2226562,0.152344 0.3632812,0.152344 0.3164063,0 0.6914063,-0.304688 1.125,-0.890625 0.4335938,-0.585938 0.65625,-1.101563 0.65625,-1.535156 z m 6.6093746,0.480468 c 0,0.375 -0.105468,0.773438 -0.316406,1.148438 -0.210937,0.386719 -0.492187,0.691406 -0.867187,0.914062 -0.363282,0.222657 -0.726563,0.339844 -1.078125,0.339844 -0.351563,0 -0.644532,-0.117187 -0.878907,-0.351562 -0.222656,-0.222657 -0.328125,-0.515625 -0.328125,-0.878907 0,-0.386718 0.105469,-0.773437 0.328125,-1.148437 0.222657,-0.386719 0.515625,-0.691406 0.890625,-0.914063 0.363282,-0.222656 0.714844,-0.339843 1.054688,-0.339843 0.351562,0 0.632812,0.117187 0.855469,0.339843 0.222656,0.234375 0.339843,0.515625 0.339843,0.890625 z m -0.644531,-0.28125 c 0,-0.246093 -0.05859,-0.433593 -0.175781,-0.5625 -0.117188,-0.128906 -0.269531,-0.1875 -0.46875,-0.1875 -0.386719,0 -0.738281,0.269532 -1.054688,0.820313 -0.328125,0.550781 -0.492187,1.089844 -0.492187,1.640625 0,0.246094 0.07031,0.433594 0.199219,0.574219 0.117187,0.140625 0.28125,0.199218 0.46875,0.199218 0.375,0 0.714843,-0.269531 1.03125,-0.820312 0.328125,-0.550781 0.492187,-1.101563 0.492187,-1.664063 z m 5.414063,-0.855468 -0.07031,0.246093 h -0.574219 l -0.480468,1.734375 c -0.199219,0.75 -0.398438,1.324219 -0.597657,1.734375 -0.28125,0.585938 -0.574218,0.984375 -0.890625,1.207032 -0.246093,0.164062 -0.480468,0.257812 -0.726562,0.257812 -0.152344,0 -0.28125,-0.05859 -0.398438,-0.152344 -0.08203,-0.05859 -0.117187,-0.140625 -0.117187,-0.246093 0,-0.08203 0.03516,-0.164063 0.09375,-0.222657 0.07031,-0.05859 0.152344,-0.09375 0.246094,-0.09375 0.07031,0 0.128906,0.02344 0.175781,0.07031 0.04687,0.04687 0.07031,0.09375 0.07031,0.152344 0,0.05859 -0.02344,0.105468 -0.07031,0.164062 -0.04687,0.03516 -0.07031,0.05859 -0.07031,0.08203 0,0.02344 0.01172,0.03516 0.02344,0.05859 0.02344,0.01172 0.07031,0.02344 0.117187,0.02344 0.105469,0 0.222657,-0.03516 0.351563,-0.105469 0.117187,-0.07031 0.234375,-0.175781 0.328125,-0.316406 0.09375,-0.140625 0.175781,-0.339844 0.257812,-0.609375 0.04687,-0.105469 0.152344,-0.46875 0.316407,-1.078125 L 19.280281,78.1359 h -0.773437 l 0.05859,-0.246093 c 0.246093,0 0.410156,-0.02344 0.503906,-0.04687 0.09375,-0.03516 0.1875,-0.09375 0.269531,-0.175782 0.07031,-0.08203 0.175781,-0.234375 0.28125,-0.46875 0.152344,-0.316406 0.292969,-0.5625 0.421875,-0.726562 0.199219,-0.234375 0.386719,-0.410156 0.597656,-0.527344 0.199219,-0.117187 0.386719,-0.175781 0.574219,-0.175781 0.1875,0 0.339844,0.04687 0.457031,0.152344 0.117188,0.105468 0.175782,0.210937 0.175782,0.328125 0,0.09375 -0.03516,0.175781 -0.08203,0.234375 -0.07031,0.07031 -0.140625,0.09375 -0.234375,0.09375 -0.08203,0 -0.152343,-0.02344 -0.199218,-0.07031 -0.04687,-0.04687 -0.07031,-0.105469 -0.07031,-0.164062 0,-0.04687 0.01172,-0.09375 0.04687,-0.152344 0.02344,-0.07031 0.04687,-0.105469 0.04687,-0.128906 0,-0.03516 -0.01172,-0.07031 -0.03516,-0.08203 -0.03516,-0.02344 -0.08203,-0.03516 -0.140625,-0.03516 -0.152344,0 -0.28125,0.04687 -0.398438,0.152344 -0.164062,0.152344 -0.304687,0.375 -0.433593,0.679687 -0.07031,0.152344 -0.199219,0.527344 -0.386719,1.113282 z m 2.701172,-1.640625 c 0.105468,0 0.199218,0.03516 0.28125,0.105468 0.07031,0.08203 0.117187,0.175782 0.117187,0.28125 0,0.117188 -0.04687,0.210938 -0.117187,0.292969 -0.08203,0.07031 -0.175782,0.105469 -0.28125,0.105469 -0.105469,0 -0.210938,-0.03516 -0.28125,-0.105469 -0.08203,-0.08203 -0.117188,-0.175781 -0.117188,-0.292969 0,-0.105468 0.03516,-0.199218 0.117188,-0.28125 0.07031,-0.07031 0.175781,-0.105468 0.28125,-0.105468 z m 0.04687,1.546875 -1.007813,3.503906 c -0.175781,0.621094 -0.421875,1.078125 -0.738281,1.347656 -0.304688,0.28125 -0.644531,0.421875 -1.007813,0.421875 -0.164062,0 -0.292968,-0.04687 -0.375,-0.117187 -0.08203,-0.08203 -0.128906,-0.164063 -0.128906,-0.269532 0,-0.08203 0.03516,-0.152343 0.09375,-0.222656 0.07031,-0.04687 0.140625,-0.08203 0.222656,-0.08203 0.08203,0 0.140625,0.02344 0.199219,0.07031 0.04687,0.03516 0.07031,0.08203 0.07031,0.140625 0,0.05859 -0.03516,0.117188 -0.09375,0.175782 -0.04687,0.02344 -0.05859,0.04687 -0.05859,0.07031 l 0.01172,0.01172 c 0,0.01172 0.01172,0.01172 0.03516,0.02344 0.01172,0.01172 0.03516,0.01172 0.07031,0.01172 0.199219,0 0.386719,-0.07031 0.539063,-0.199219 0.140625,-0.140625 0.28125,-0.398437 0.398437,-0.808593 l 0.867188,-3 c 0.09375,-0.292969 0.128906,-0.457032 0.128906,-0.480469 0,-0.07031 -0.03516,-0.128906 -0.09375,-0.175781 -0.04687,-0.04687 -0.117187,-0.07031 -0.199219,-0.07031 -0.03516,0 -0.07031,0 -0.128906,0.01172 -0.02344,0.01172 -0.07031,0.01172 -0.140625,0.02344 V 78.042156 Z M 82.12793,-69.46468 l -0.07031,0.246094 h -0.574219 l -0.480468,1.734375 c -0.199219,0.75 -0.398438,1.324219 -0.597657,1.734375 -0.28125,0.585938 -0.574218,0.984375 -0.890625,1.207031 -0.246093,0.164063 -0.480468,0.257813 -0.726562,0.257813 -0.152344,0 -0.28125,-0.05859 -0.398438,-0.152344 -0.08203,-0.05859 -0.117187,-0.140625 -0.117187,-0.246094 0,-0.08203 0.03516,-0.164062 0.09375,-0.222656 0.07031,-0.05859 0.152344,-0.09375 0.246094,-0.09375 0.07031,0 0.128906,0.02344 0.175781,0.07031 0.04687,0.04687 0.07031,0.09375 0.07031,0.152343 0,0.05859 -0.02344,0.105469 -0.07031,0.164063 -0.04687,0.03516 -0.07031,0.05859 -0.07031,0.08203 0,0.02344 0.01172,0.03516 0.02344,0.05859 0.02344,0.01172 0.07031,0.02344 0.117187,0.02344 0.105469,0 0.222657,-0.03516 0.351563,-0.105468 0.117187,-0.07031 0.234375,-0.175782 0.328125,-0.316407 0.09375,-0.140625 0.175781,-0.339843 0.257812,-0.609375 0.04687,-0.105468 0.152344,-0.46875 0.316407,-1.078125 l 0.761718,-2.660156 h -0.773437 l 0.05859,-0.246094 c 0.246093,0 0.410156,-0.02344 0.503906,-0.04687 0.09375,-0.03516 0.1875,-0.09375 0.269531,-0.175781 0.07031,-0.08203 0.175781,-0.234375 0.28125,-0.46875 0.152344,-0.316406 0.292969,-0.5625 0.421875,-0.726562 0.199219,-0.234375 0.386719,-0.410157 0.597656,-0.527344 0.199219,-0.117188 0.386719,-0.175781 0.574219,-0.175781 0.1875,0 0.339844,0.04687 0.457031,0.152343 0.117188,0.105469 0.175782,0.210938 0.175782,0.328125 0,0.09375 -0.03516,0.175782 -0.08203,0.234375 -0.07031,0.07031 -0.140625,0.09375 -0.234375,0.09375 -0.08203,0 -0.152343,-0.02344 -0.199218,-0.07031 -0.04687,-0.04687 -0.07031,-0.105469 -0.07031,-0.164063 0,-0.04687 0.01172,-0.09375 0.04687,-0.152343 0.02344,-0.07031 0.04687,-0.105469 0.04687,-0.128907 0,-0.03516 -0.01172,-0.07031 -0.03516,-0.08203 -0.03516,-0.02344 -0.08203,-0.03516 -0.140625,-0.03516 -0.152344,0 -0.28125,0.04687 -0.398438,0.152344 -0.164062,0.152343 -0.304687,0.375 -0.433593,0.679687 -0.07031,0.152344 -0.199219,0.527344 -0.386719,1.113281 z m 4.201172,0.867188 -1.253907,4.394531 c -0.08203,0.246094 -0.117187,0.433594 -0.117187,0.550781 0,0.09375 0.03516,0.175782 0.09375,0.222657 0.07031,0.04687 0.222656,0.08203 0.480469,0.105468 l -0.04687,0.140625 H 83.48145 l 0.04687,-0.140625 c 0.210938,-0.01172 0.351563,-0.02344 0.421875,-0.04687 0.117188,-0.04687 0.1875,-0.117187 0.246094,-0.199218 0.09375,-0.117188 0.175781,-0.328125 0.269531,-0.632813 l 0.902344,-3.164062 c 0.05859,-0.1875 0.08203,-0.292969 0.08203,-0.328125 0.01172,-0.04687 0.02344,-0.09375 0.02344,-0.152344 0,-0.08203 -0.02344,-0.152344 -0.07031,-0.199219 -0.05859,-0.05859 -0.128906,-0.08203 -0.210937,-0.08203 -0.07031,0 -0.175781,0.01172 -0.316406,0.04687 l -0.05859,-0.140625 1.324219,-0.375 z m -4.201172,16.03418 -0.07031,0.246093 h -0.574219 l -0.480468,1.734375 c -0.199219,0.75 -0.398438,1.324219 -0.597657,1.734375 -0.28125,0.585938 -0.574218,0.984375 -0.890625,1.207032 -0.246093,0.164062 -0.480468,0.257812 -0.726562,0.257812 -0.152344,0 -0.28125,-0.05859 -0.398438,-0.152344 -0.08203,-0.05859 -0.117187,-0.140625 -0.117187,-0.246093 0,-0.08203 0.03516,-0.164063 0.09375,-0.222657 0.07031,-0.05859 0.152344,-0.09375 0.246094,-0.09375 0.07031,0 0.128906,0.02344 0.175781,0.07031 0.04687,0.04687 0.07031,0.09375 0.07031,0.152344 0,0.05859 -0.02344,0.105468 -0.07031,0.164062 -0.04687,0.03516 -0.07031,0.05859 -0.07031,0.08203 0,0.02344 0.01172,0.03516 0.02344,0.05859 0.02344,0.01172 0.07031,0.02344 0.117187,0.02344 0.105469,0 0.222657,-0.03516 0.351563,-0.105469 0.117187,-0.07031 0.234375,-0.175781 0.328125,-0.316406 0.09375,-0.140625 0.175781,-0.339844 0.257812,-0.609375 0.04687,-0.105469 0.152344,-0.46875 0.316407,-1.078125 l 0.761718,-2.660157 h -0.773437 l 0.05859,-0.246093 c 0.246093,0 0.410156,-0.02344 0.503906,-0.04687 0.09375,-0.03516 0.1875,-0.09375 0.269531,-0.175782 0.07031,-0.08203 0.175781,-0.234375 0.28125,-0.46875 0.152344,-0.316406 0.292969,-0.5625 0.421875,-0.726562 0.199219,-0.234375 0.386719,-0.410156 0.597656,-0.527344 0.199219,-0.117187 0.386719,-0.175781 0.574219,-0.175781 0.1875,0 0.339844,0.04687 0.457031,0.152344 0.117188,0.105468 0.175782,0.210937 0.175782,0.328125 0,0.09375 -0.03516,0.175781 -0.08203,0.234375 -0.07031,0.07031 -0.140625,0.09375 -0.234375,0.09375 -0.08203,0 -0.152343,-0.02344 -0.199218,-0.07031 -0.04687,-0.04687 -0.07031,-0.105469 -0.07031,-0.164062 0,-0.04687 0.01172,-0.09375 0.04687,-0.152344 0.02344,-0.07031 0.04687,-0.105469 0.04687,-0.128906 0,-0.03516 -0.01172,-0.07031 -0.03516,-0.08203 -0.03516,-0.02344 -0.08203,-0.03516 -0.140625,-0.03516 -0.152344,0 -0.28125,0.04687 -0.398438,0.152344 -0.164062,0.152344 -0.304687,0.375 -0.433593,0.679687 -0.07031,0.152344 -0.199219,0.527344 -0.386719,1.113282 z m 3.638672,6.27832 h -2.648438 v -0.140625 c 1.347656,-1.183594 2.226563,-2.109375 2.660156,-2.777344 0.199219,-0.304687 0.304688,-0.632812 0.304688,-0.972656 0,-0.269531 -0.08203,-0.492188 -0.257813,-0.667969 -0.164062,-0.164062 -0.375,-0.246094 -0.644531,-0.246094 -0.363281,0 -0.667969,0.175782 -0.902344,0.527344 l -0.140625,-0.07031 c 0.140625,-0.339844 0.328125,-0.597657 0.585938,-0.785157 0.257812,-0.1875 0.527344,-0.28125 0.832031,-0.28125 0.328125,0 0.609375,0.117188 0.84375,0.351563 0.234375,0.222656 0.339844,0.503906 0.339844,0.832031 0,0.234375 -0.03516,0.445313 -0.117188,0.644531 -0.128906,0.304688 -0.363281,0.644532 -0.691406,1.019532 -0.515625,0.585937 -1.195312,1.242187 -2.050781,2.003906 h 1.347656 c 0.210938,0 0.386719,-0.05859 0.527344,-0.140625 0.128906,-0.09375 0.234375,-0.199219 0.292969,-0.351563 h 0.164062 z m -3.911133,8.824219 c 0.105468,0 0.199218,0.03516 0.28125,0.105468 0.07031,0.08203 0.117187,0.175782 0.117187,0.28125 0,0.117188 -0.04687,0.210938 -0.117187,0.292969 -0.08203,0.07031 -0.175782,0.117188 -0.28125,0.117188 -0.105469,0 -0.199219,-0.04687 -0.28125,-0.117188 -0.07031,-0.08203 -0.117188,-0.175781 -0.117188,-0.292969 0,-0.105468 0.04687,-0.199218 0.117188,-0.28125 0.08203,-0.07031 0.175781,-0.105468 0.28125,-0.105468 z m 0,7.998046 c 0.105468,0 0.199218,0.03516 0.28125,0.105469 0.07031,0.08203 0.117187,0.175781 0.117187,0.28125 0,0.117188 -0.04687,0.210938 -0.117187,0.292969 -0.08203,0.07031 -0.175782,0.117187 -0.28125,0.117187 -0.105469,0 -0.199219,-0.04687 -0.28125,-0.117187 -0.07031,-0.08203 -0.117188,-0.175781 -0.117188,-0.292969 0,-0.105469 0.04687,-0.199219 0.117188,-0.28125 0.08203,-0.07031 0.175781,-0.105469 0.28125,-0.105469 z m 0,8.000977 c 0.105468,0 0.199218,0.03516 0.28125,0.105469 0.07031,0.08203 0.117187,0.175781 0.117187,0.28125 0,0.117187 -0.04687,0.210937 -0.117187,0.292969 -0.08203,0.07031 -0.175782,0.117187 -0.28125,0.117187 -0.105469,0 -0.199219,-0.04687 -0.28125,-0.117187 -0.07031,-0.08203 -0.117188,-0.175782 -0.117188,-0.292969 0,-0.105469 0.04687,-0.199219 0.117188,-0.28125 0.08203,-0.07031 0.175781,-0.105469 0.28125,-0.105469 z m 0,8.000977 c 0.105468,0 0.199218,0.03516 0.28125,0.105468 0.07031,0.08203 0.117187,0.175782 0.117187,0.28125 0,0.117188 -0.04687,0.210938 -0.117187,0.292969 -0.08203,0.07031 -0.175782,0.117188 -0.28125,0.117188 -0.105469,0 -0.199219,-0.04687 -0.28125,-0.117188 -0.07031,-0.08203 -0.117188,-0.175781 -0.117188,-0.292969 0,-0.105468 0.04687,-0.199218 0.117188,-0.28125 0.08203,-0.07031 0.175781,-0.105468 0.28125,-0.105468 z m -9.363282,10.0957027 -0.07031,0.2460937 h -0.574219 l -0.480469,1.734375 c -0.199218,0.75000004 -0.398437,1.32421879 -0.597656,1.73437504 -0.28125,0.5859375 -0.574219,0.98437496 -0.890625,1.20703126 -0.246094,0.1640625 -0.480469,0.2578125 -0.726562,0.2578125 -0.152344,0 -0.28125,-0.058594 -0.398438,-0.1523438 -0.08203,-0.058594 -0.117187,-0.140625 -0.117187,-0.2460937 0,-0.082031 0.03516,-0.1640625 0.09375,-0.2226563 0.07031,-0.058594 0.152343,-0.09375 0.246093,-0.09375 0.07031,0 0.128907,0.023437 0.175782,0.070312 0.04687,0.046875 0.07031,0.09375 0.07031,0.1523438 0,0.058594 -0.02344,0.1054687 -0.07031,0.1640625 -0.04687,0.035156 -0.07031,0.058594 -0.07031,0.082031 0,0.023437 0.01172,0.035156 0.02344,0.058594 0.02344,0.011719 0.07031,0.023437 0.117187,0.023437 0.105469,0 0.222656,-0.035156 0.351563,-0.1054688 0.117187,-0.070312 0.234375,-0.1757812 0.328125,-0.3164062 0.09375,-0.140625 0.175781,-0.33984376 0.257812,-0.60937501 0.04687,-0.10546875 0.152344,-0.46875 0.316406,-1.078125 l 0.761719,-2.66015629 h -0.773437 l 0.05859,-0.2460937 c 0.246094,0 0.410157,-0.023437 0.503907,-0.046875 0.09375,-0.035156 0.1875,-0.09375 0.269531,-0.1757813 0.07031,-0.082031 0.175781,-0.234375 0.28125,-0.46875 0.152344,-0.3164062 0.292969,-0.5625 0.421875,-0.7265625 0.199219,-0.234375 0.386719,-0.4101562 0.597656,-0.5273437 0.199219,-0.1171875 0.386719,-0.1757813 0.574219,-0.1757813 0.1875,0 0.339844,0.046875 0.457031,0.1523438 0.117188,0.1054687 0.175781,0.2109375 0.175781,0.328125 0,0.09375 -0.03516,0.1757812 -0.08203,0.234375 -0.07031,0.070312 -0.140625,0.09375 -0.234375,0.09375 -0.08203,0 -0.152344,-0.023437 -0.199219,-0.070312 -0.04687,-0.046875 -0.07031,-0.1054688 -0.07031,-0.1640625 0,-0.046875 0.01172,-0.09375 0.04687,-0.1523438 0.02344,-0.070312 0.04687,-0.1054687 0.04687,-0.1289062 0,-0.035156 -0.01172,-0.070312 -0.03516,-0.082031 -0.03516,-0.023437 -0.08203,-0.035156 -0.140625,-0.035156 -0.152344,0 -0.28125,0.046875 -0.398438,0.1523437 -0.164062,0.1523438 -0.304687,0.375 -0.433594,0.6796875 -0.07031,0.1523438 -0.199218,0.5273438 -0.386718,1.1132813 z m 2.657227,1.171875 c 0.117188,0 0.199219,0.046875 0.28125,0.1171875 0.07031,0.082031 0.105469,0.1640625 0.105469,0.28125 0,0.1054687 -0.03516,0.1992187 -0.105469,0.28125 -0.08203,0.070312 -0.175781,0.1054687 -0.28125,0.1054687 -0.105469,0 -0.199219,-0.035156 -0.28125,-0.1054687 -0.07031,-0.082031 -0.105469,-0.1757813 -0.105469,-0.28125 0,-0.1171875 0.03516,-0.1992188 0.105469,-0.28125 0.08203,-0.070312 0.164063,-0.1171875 0.28125,-0.1171875 z m 0.164063,1.55859374 -0.808594,2.76562496 c -0.05859,0.1875 -0.09375,0.3046875 -0.09375,0.3398438 0,0.035156 0.02344,0.070312 0.04687,0.09375 0.01172,0.035156 0.04687,0.035156 0.07031,0.035156 0.03516,0 0.08203,-0.011719 0.128907,-0.046875 0.128906,-0.1289062 0.269531,-0.28125 0.398437,-0.5039062 l 0.140625,0.09375 c -0.164062,0.2578125 -0.363281,0.4804687 -0.585937,0.65625 -0.175782,0.140625 -0.339844,0.2109375 -0.492188,0.2109375 -0.105469,0 -0.1875,-0.035156 -0.246094,-0.1054688 -0.07031,-0.058594 -0.09375,-0.1289062 -0.09375,-0.2226562 0,-0.1054688 0.02344,-0.2695313 0.09375,-0.4921875 l 0.550782,-1.76953126 c 0.08203,-0.29296875 0.117187,-0.46875 0.128906,-0.5390625 0,-0.0585938 -0.02344,-0.10546875 -0.07031,-0.140625 -0.03516,-0.0351563 -0.09375,-0.046875 -0.164062,-0.046875 -0.05859,0 -0.175781,0 -0.351563,0.0351563 v -0.15234375 z m 5.950195,0.1640625 V -2.4275703 h -1.933594 v -0.3164063 h 1.933594 v -1.9453125 h 0.328125 v 1.9453125 h 1.945312 v 0.3164063 h -1.945312 v 1.95703124 z M 92.15332,-3.3650703 92.08301,-3.1189766 h -0.574219 l -0.480469,1.734375 c -0.199218,0.75000004 -0.398437,1.32421879 -0.597656,1.73437504 -0.28125,0.5859375 -0.574219,0.98437496 -0.890625,1.20703126 -0.246094,0.1640625 -0.480469,0.2578125 -0.726562,0.2578125 -0.152344,0 -0.28125,-0.058594 -0.398438,-0.1523438 -0.08203,-0.058594 -0.117187,-0.140625 -0.117187,-0.2460937 0,-0.082031 0.03516,-0.1640625 0.09375,-0.2226563 0.07031,-0.058594 0.152343,-0.09375 0.246093,-0.09375 0.07031,0 0.128907,0.023437 0.175782,0.070312 0.04687,0.046875 0.07031,0.09375 0.07031,0.1523438 0,0.058594 -0.02344,0.1054687 -0.07031,0.1640625 -0.04687,0.035156 -0.07031,0.058594 -0.07031,0.082031 0,0.023437 0.01172,0.035156 0.02344,0.058594 0.02344,0.011719 0.07031,0.023437 0.117187,0.023437 0.105469,0 0.222656,-0.035156 0.351563,-0.1054688 0.117187,-0.070312 0.234375,-0.1757812 0.328125,-0.3164062 0.09375,-0.140625 0.175781,-0.33984376 0.257812,-0.60937501 0.04687,-0.10546875 0.152344,-0.46875 0.316406,-1.078125 l 0.761719,-2.66015629 h -0.773437 l 0.05859,-0.2460937 c 0.246094,0 0.410157,-0.023437 0.503907,-0.046875 0.09375,-0.035156 0.1875,-0.09375 0.269531,-0.1757813 0.07031,-0.082031 0.175781,-0.234375 0.28125,-0.46875 0.152344,-0.3164062 0.292969,-0.5625 0.421875,-0.7265625 0.199219,-0.234375 0.386719,-0.4101562 0.597656,-0.5273437 0.199219,-0.1171875 0.386719,-0.1757813 0.574219,-0.1757813 0.1875,0 0.339844,0.046875 0.457031,0.1523438 0.117188,0.1054687 0.175781,0.2109375 0.175781,0.328125 0,0.09375 -0.03516,0.1757812 -0.08203,0.234375 -0.07031,0.070312 -0.140625,0.09375 -0.234375,0.09375 -0.08203,0 -0.152344,-0.023437 -0.199219,-0.070312 -0.04687,-0.046875 -0.07031,-0.1054688 -0.07031,-0.1640625 0,-0.046875 0.01172,-0.09375 0.04687,-0.1523438 0.02344,-0.070312 0.04687,-0.1054687 0.04687,-0.1289062 0,-0.035156 -0.01172,-0.070312 -0.03516,-0.082031 -0.03516,-0.023437 -0.08203,-0.035156 -0.140625,-0.035156 -0.152344,0 -0.28125,0.046875 -0.398438,0.1523437 -0.164062,0.1523438 -0.304687,0.375 -0.433594,0.6796875 -0.07031,0.1523438 -0.199218,0.5273438 -0.386718,1.1132813 z m 2.654297,1.171875 c 0.117188,0 0.199219,0.046875 0.28125,0.1171875 0.07031,0.082031 0.105469,0.1640625 0.105469,0.28125 0,0.1054687 -0.03516,0.1992187 -0.105469,0.28125 -0.08203,0.070312 -0.175781,0.1054687 -0.28125,0.1054687 -0.105469,0 -0.199219,-0.035156 -0.28125,-0.1054687 -0.07031,-0.082031 -0.105469,-0.1757813 -0.105469,-0.28125 0,-0.1171875 0.03516,-0.1992188 0.105469,-0.28125 0.08203,-0.070312 0.164063,-0.1171875 0.28125,-0.1171875 z m 0.164063,1.55859374 -0.808594,2.76562496 c -0.05859,0.1875 -0.09375,0.3046875 -0.09375,0.3398438 0,0.035156 0.02344,0.070312 0.04687,0.09375 0.01172,0.035156 0.04687,0.035156 0.07031,0.035156 0.03516,0 0.08203,-0.011719 0.128907,-0.046875 0.128906,-0.1289062 0.269531,-0.28125 0.398437,-0.5039062 l 0.140625,0.09375 c -0.164062,0.2578125 -0.363281,0.4804687 -0.585937,0.65625 -0.175782,0.140625 -0.339844,0.2109375 -0.492188,0.2109375 -0.105469,0 -0.1875,-0.035156 -0.246094,-0.1054688 -0.07031,-0.058594 -0.09375,-0.1289062 -0.09375,-0.2226562 0,-0.1054688 0.02344,-0.2695313 0.09375,-0.4921875 l 0.550782,-1.76953126 c 0.08203,-0.29296875 0.117187,-0.46875 0.128906,-0.5390625 0,-0.0585938 -0.02344,-0.10546875 -0.07031,-0.140625 -0.03516,-0.0351563 -0.09375,-0.046875 -0.164062,-0.046875 -0.05859,0 -0.175781,0 -0.351563,0.0351563 v -0.15234375 z m 2.094726,-6.28710934 c -0.02344,0.1289062 -0.02344,0.2460937 -0.02344,0.328125 0,0.2226562 0.08203,0.421875 0.246093,0.5859375 0.164063,0.1640625 0.375,0.2460937 0.609375,0.2460937 0.1875,0 0.375,-0.046875 0.550782,-0.1171875 0.175781,-0.082031 0.445312,-0.2460937 0.796875,-0.515625 l 0.07031,0.1171875 c -0.621094,0.6210938 -1.207031,0.9257813 -1.757812,0.9257813 -0.386719,0 -0.679688,-0.1289063 -0.867188,-0.3632813 -0.199219,-0.2460937 -0.292969,-0.5039062 -0.292969,-0.796875 0,-0.3867187 0.117188,-0.7851562 0.363282,-1.1953125 0.234375,-0.3984375 0.539062,-0.7148437 0.902343,-0.9375 0.363282,-0.2226562 0.738282,-0.3398437 1.113282,-0.3398437 0.28125,0 0.480468,0.058594 0.621093,0.1640625 0.128907,0.1171875 0.199219,0.2578125 0.199219,0.4101562 0,0.2109375 -0.09375,0.421875 -0.269531,0.6210938 -0.234375,0.2578125 -0.5625,0.4570312 -1.019531,0.6210937 -0.292969,0.1054688 -0.703125,0.1992188 -1.242188,0.2460938 z m 0.03516,-0.1875 c 0.386719,-0.046875 0.703125,-0.1171875 0.960938,-0.2226563 0.328125,-0.140625 0.574219,-0.328125 0.726562,-0.5273437 0.175782,-0.1992188 0.257813,-0.375 0.257813,-0.5625 0,-0.1171875 -0.03516,-0.1992188 -0.105469,-0.2695313 -0.07031,-0.070312 -0.175781,-0.09375 -0.304687,-0.09375 -0.269532,0 -0.5625,0.140625 -0.867188,0.421875 -0.304687,0.28125 -0.527344,0.703125 -0.667969,1.2539063 z M 73.40625,16.386883 73.33594,16.632977 h -0.574218 l -0.480469,1.734375 c -0.199219,0.75 -0.398438,1.324218 -0.597656,1.734375 -0.28125,0.585937 -0.574219,0.984375 -0.890625,1.207031 -0.246094,0.164062 -0.480469,0.257812 -0.726563,0.257812 -0.152344,0 -0.28125,-0.05859 -0.398437,-0.152343 -0.08203,-0.05859 -0.117188,-0.140625 -0.117188,-0.246094 0,-0.08203 0.03516,-0.164063 0.09375,-0.222656 0.07031,-0.05859 0.152344,-0.09375 0.246094,-0.09375 0.07031,0 0.128906,0.02344 0.175781,0.07031 0.04687,0.04687 0.07031,0.09375 0.07031,0.152344 0,0.05859 -0.02344,0.105469 -0.07031,0.164062 -0.04687,0.03516 -0.07031,0.05859 -0.07031,0.08203 0,0.02344 0.01172,0.03516 0.02344,0.05859 0.02344,0.01172 0.07031,0.02344 0.117188,0.02344 0.105468,0 0.222656,-0.03516 0.351562,-0.105469 0.117188,-0.07031 0.234375,-0.175781 0.328125,-0.316406 0.09375,-0.140625 0.175781,-0.339844 0.257813,-0.609375 0.04687,-0.105469 0.152343,-0.46875 0.316406,-1.078125 l 0.761719,-2.660156 h -0.773438 l 0.05859,-0.246094 c 0.246094,0 0.410156,-0.02344 0.503906,-0.04687 0.09375,-0.03516 0.1875,-0.09375 0.269531,-0.175781 0.07031,-0.08203 0.175782,-0.234375 0.28125,-0.46875 0.152344,-0.316407 0.292969,-0.5625 0.421875,-0.726563 0.199219,-0.234375 0.386719,-0.410156 0.597657,-0.527344 0.199218,-0.117187 0.386718,-0.175781 0.574218,-0.175781 0.1875,0 0.339844,0.04687 0.457032,0.152344 0.117187,0.105469 0.175781,0.210937 0.175781,0.328125 0,0.09375 -0.03516,0.175781 -0.08203,0.234375 -0.07031,0.07031 -0.140625,0.09375 -0.234375,0.09375 -0.08203,0 -0.152344,-0.02344 -0.199219,-0.07031 -0.04687,-0.04687 -0.07031,-0.105468 -0.07031,-0.164062 0,-0.04687 0.01172,-0.09375 0.04687,-0.152344 0.02344,-0.07031 0.04687,-0.105469 0.04687,-0.128906 0,-0.03516 -0.01172,-0.07031 -0.03516,-0.08203 -0.03516,-0.02344 -0.08203,-0.03516 -0.140625,-0.03516 -0.152344,0 -0.28125,0.04687 -0.398437,0.152344 -0.164063,0.152344 -0.304688,0.375 -0.433594,0.679688 -0.07031,0.152343 -0.199219,0.527343 -0.386719,1.113281 z m 2.704102,1.192383 c 0.105468,0 0.199218,0.03516 0.28125,0.105468 0.07031,0.08203 0.117187,0.175782 0.117187,0.28125 0,0.117188 -0.04687,0.210938 -0.117187,0.292969 -0.08203,0.07031 -0.175782,0.105469 -0.28125,0.105469 -0.105469,0 -0.210938,-0.03516 -0.28125,-0.105469 -0.08203,-0.08203 -0.117188,-0.175781 -0.117188,-0.292969 0,-0.105468 0.03516,-0.199218 0.117188,-0.28125 0.07031,-0.07031 0.175781,-0.105468 0.28125,-0.105468 z m 0.04687,1.546875 -1.007813,3.503906 c -0.175781,0.621094 -0.421875,1.078125 -0.738281,1.347656 -0.304688,0.28125 -0.644531,0.421875 -1.007813,0.421875 -0.164062,0 -0.292968,-0.04687 -0.375,-0.117187 -0.08203,-0.08203 -0.128906,-0.164063 -0.128906,-0.269532 0,-0.08203 0.03516,-0.152343 0.09375,-0.222656 0.07031,-0.04687 0.140625,-0.08203 0.222656,-0.08203 0.08203,0 0.140625,0.02344 0.199219,0.07031 0.04687,0.03516 0.07031,0.08203 0.07031,0.140625 0,0.05859 -0.03516,0.117188 -0.09375,0.175782 -0.04687,0.02344 -0.05859,0.04687 -0.05859,0.07031 l 0.01172,0.01172 c 0,0.01172 0.01172,0.01172 0.03516,0.02344 0.01172,0.01172 0.03516,0.01172 0.07031,0.01172 0.199219,0 0.386719,-0.07031 0.539063,-0.199219 0.140625,-0.140625 0.28125,-0.398437 0.398437,-0.808593 l 0.867188,-3 c 0.09375,-0.292969 0.128906,-0.457032 0.128906,-0.480469 0,-0.07031 -0.03516,-0.128906 -0.09375,-0.175781 -0.04687,-0.04687 -0.117187,-0.07031 -0.199219,-0.07031 -0.03516,0 -0.07031,0 -0.128906,0.01172 -0.02344,0.01172 -0.07031,0.01172 -0.140625,0.02344 v -0.140625 z m 5.018554,0.155273 v -1.957031 h -1.933594 v -0.316406 h 1.933594 v -1.945313 h 0.328125 v 1.945313 h 1.945313 v 0.316406 h -1.945313 v 1.957031 z m 10.889649,-2.894531 -0.07031,0.246094 h -0.574219 l -0.480468,1.734375 c -0.199219,0.75 -0.398438,1.324218 -0.597657,1.734375 -0.28125,0.585937 -0.574218,0.984375 -0.890625,1.207031 -0.246093,0.164062 -0.480468,0.257812 -0.726562,0.257812 -0.152344,0 -0.28125,-0.05859 -0.398438,-0.152343 -0.08203,-0.05859 -0.117187,-0.140625 -0.117187,-0.246094 0,-0.08203 0.03516,-0.164063 0.09375,-0.222656 0.07031,-0.05859 0.152344,-0.09375 0.246094,-0.09375 0.07031,0 0.128906,0.02344 0.175781,0.07031 0.04687,0.04687 0.07031,0.09375 0.07031,0.152344 0,0.05859 -0.02344,0.105469 -0.07031,0.164062 -0.04687,0.03516 -0.07031,0.05859 -0.07031,0.08203 0,0.02344 0.01172,0.03516 0.02344,0.05859 0.02344,0.01172 0.07031,0.02344 0.117187,0.02344 0.105469,0 0.222657,-0.03516 0.351563,-0.105469 0.117187,-0.07031 0.234375,-0.175781 0.328125,-0.316406 0.09375,-0.140625 0.175781,-0.339844 0.257812,-0.609375 0.04687,-0.105469 0.152344,-0.46875 0.316407,-1.078125 l 0.761718,-2.660156 h -0.773437 l 0.05859,-0.246094 c 0.246093,0 0.410156,-0.02344 0.503906,-0.04687 0.09375,-0.03516 0.1875,-0.09375 0.269531,-0.175781 0.07031,-0.08203 0.175781,-0.234375 0.28125,-0.46875 0.152344,-0.316407 0.292969,-0.5625 0.421875,-0.726563 0.199219,-0.234375 0.386719,-0.410156 0.597656,-0.527344 0.199219,-0.117187 0.386719,-0.175781 0.574219,-0.175781 0.1875,0 0.339844,0.04687 0.457031,0.152344 0.117188,0.105469 0.175782,0.210937 0.175782,0.328125 0,0.09375 -0.03516,0.175781 -0.08203,0.234375 -0.07031,0.07031 -0.140625,0.09375 -0.234375,0.09375 -0.08203,0 -0.152343,-0.02344 -0.199218,-0.07031 -0.04687,-0.04687 -0.07031,-0.105468 -0.07031,-0.164062 0,-0.04687 0.01172,-0.09375 0.04687,-0.152344 0.02344,-0.07031 0.04687,-0.105469 0.04687,-0.128906 0,-0.03516 -0.01172,-0.07031 -0.03516,-0.08203 -0.03516,-0.02344 -0.08203,-0.03516 -0.140625,-0.03516 -0.152344,0 -0.28125,0.04687 -0.398438,0.152344 -0.164062,0.152344 -0.304687,0.375 -0.433593,0.679688 -0.07031,0.152343 -0.199219,0.527343 -0.386719,1.113281 z m 2.704101,1.192383 c 0.105469,0 0.199219,0.03516 0.28125,0.105468 0.07031,0.08203 0.117188,0.175782 0.117188,0.28125 0,0.117188 -0.04687,0.210938 -0.117188,0.292969 -0.08203,0.07031 -0.175781,0.105469 -0.28125,0.105469 -0.105469,0 -0.210937,-0.03516 -0.28125,-0.105469 -0.08203,-0.08203 -0.117187,-0.175781 -0.117187,-0.292969 0,-0.105468 0.03516,-0.199218 0.117187,-0.28125 0.07031,-0.07031 0.175781,-0.105468 0.28125,-0.105468 z m 0.04687,1.546875 -1.007812,3.503906 c -0.175782,0.621094 -0.421875,1.078125 -0.738282,1.347656 -0.304687,0.28125 -0.644531,0.421875 -1.007812,0.421875 -0.164063,0 -0.292969,-0.04687 -0.375,-0.117187 -0.08203,-0.08203 -0.128906,-0.164063 -0.128906,-0.269532 0,-0.08203 0.03516,-0.152343 0.09375,-0.222656 0.07031,-0.04687 0.140625,-0.08203 0.222656,-0.08203 0.08203,0 0.140625,0.02344 0.199219,0.07031 0.04687,0.03516 0.07031,0.08203 0.07031,0.140625 0,0.05859 -0.03516,0.117188 -0.09375,0.175782 -0.04687,0.02344 -0.05859,0.04687 -0.05859,0.07031 l 0.01172,0.01172 c 0,0.01172 0.01172,0.01172 0.03516,0.02344 0.01172,0.01172 0.03516,0.01172 0.07031,0.01172 0.199219,0 0.386719,-0.07031 0.539062,-0.199219 0.140625,-0.140625 0.28125,-0.398437 0.398438,-0.808593 l 0.867187,-3 c 0.09375,-0.292969 0.128907,-0.457032 0.128907,-0.480469 0,-0.07031 -0.03516,-0.128906 -0.09375,-0.175781 -0.04687,-0.04687 -0.117188,-0.07031 -0.199219,-0.07031 -0.03516,0 -0.07031,0 -0.128906,0.01172 -0.02344,0.01172 -0.07031,0.01172 -0.140625,0.02344 v -0.140625 z m 2.34375,-7.081055 c -0.02344,0.128906 -0.02344,0.246094 -0.02344,0.328125 0,0.222656 0.08203,0.421875 0.246093,0.585937 0.164063,0.164063 0.375,0.246094 0.609375,0.246094 0.1875,0 0.375,-0.04687 0.550782,-0.117187 0.175781,-0.08203 0.445312,-0.246094 0.796875,-0.515625 l 0.07031,0.117187 c -0.621094,0.621094 -1.207031,0.925781 -1.757812,0.925781 -0.386719,0 -0.679688,-0.128906 -0.867188,-0.363281 -0.199219,-0.246094 -0.292969,-0.503906 -0.292969,-0.796875 0,-0.386719 0.117188,-0.785156 0.363282,-1.195312 0.234375,-0.398438 0.539062,-0.714844 0.902343,-0.9375 0.363282,-0.222657 0.738282,-0.3398441 1.113282,-0.3398441 0.28125,0 0.480468,0.058594 0.621093,0.1640621 0.128907,0.117188 0.199219,0.257813 0.199219,0.410157 0,0.210937 -0.09375,0.421875 -0.269531,0.621093 -0.234375,0.257813 -0.5625,0.457032 -1.019531,0.621094 -0.292969,0.105469 -0.703125,0.199219 -1.242188,0.246094 z m 0.03516,-0.1875 c 0.386719,-0.04687 0.703125,-0.117188 0.960938,-0.222656 0.328125,-0.140625 0.574219,-0.328125 0.726562,-0.527344 0.175782,-0.199219 0.257813,-0.375 0.257813,-0.5625 0,-0.117188 -0.03516,-0.199219 -0.105469,-0.269531 -0.07031,-0.07031 -0.175781,-0.09375 -0.304687,-0.09375 -0.269532,0 -0.5625,0.140625 -0.867188,0.421875 -0.304687,0.28125 -0.527344,0.703125 -0.667969,1.253906 z m -15.055664,18.09375 c 0.105469,0 0.199219,0.03516 0.28125,0.105469 0.07031,0.08203 0.117188,0.175781 0.117188,0.28125 0,0.117187 -0.04687,0.210937 -0.117188,0.292968 -0.08203,0.07031 -0.175781,0.117188 -0.28125,0.117188 -0.105468,0 -0.199218,-0.04687 -0.28125,-0.117188 -0.07031,-0.08203 -0.117187,-0.175781 -0.117187,-0.292968 0,-0.105469 0.04687,-0.199219 0.117187,-0.28125 0.08203,-0.07031 0.175782,-0.105469 0.28125,-0.105469 z m 0,7.998047 c 0.105469,0 0.199219,0.03516 0.28125,0.105469 0.07031,0.08203 0.117188,0.175781 0.117188,0.28125 0,0.117187 -0.04687,0.210937 -0.117188,0.292968 -0.08203,0.07031 -0.175781,0.117188 -0.28125,0.117188 -0.105468,0 -0.199218,-0.04687 -0.28125,-0.117188 -0.07031,-0.08203 -0.117187,-0.175781 -0.117187,-0.292968 0,-0.105469 0.04687,-0.199219 0.117187,-0.28125 0.08203,-0.07031 0.175782,-0.105469 0.28125,-0.105469 z m 0,8.000976 c 0.105469,0 0.199219,0.03516 0.28125,0.105469 0.07031,0.08203 0.117188,0.175781 0.117188,0.28125 0,0.117188 -0.04687,0.210938 -0.117188,0.292969 -0.08203,0.07031 -0.175781,0.117187 -0.28125,0.117187 -0.105468,0 -0.199218,-0.04687 -0.28125,-0.117187 -0.07031,-0.08203 -0.117187,-0.175781 -0.117187,-0.292969 0,-0.105469 0.04687,-0.199219 0.117187,-0.28125 0.08203,-0.07031 0.175782,-0.105469 0.28125,-0.105469 z m 0,8.000977 c 0.105469,0 0.199219,0.03516 0.28125,0.105469 0.07031,0.08203 0.117188,0.175781 0.117188,0.28125 0,0.117187 -0.04687,0.210937 -0.117188,0.292968 -0.08203,0.07031 -0.175781,0.117188 -0.28125,0.117188 -0.105468,0 -0.199218,-0.04687 -0.28125,-0.117188 -0.07031,-0.08203 -0.117187,-0.175781 -0.117187,-0.292968 0,-0.105469 0.04687,-0.199219 0.117187,-0.28125 0.08203,-0.07031 0.175782,-0.105469 0.28125,-0.105469 z m 0.333985,12.486328 -0.07031,0.246094 h -0.574218 l -0.480469,1.734375 c -0.199219,0.75 -0.398438,1.324219 -0.597656,1.734375 -0.28125,0.585937 -0.574219,0.984375 -0.890625,1.207031 -0.246094,0.164063 -0.480469,0.257813 -0.726563,0.257813 -0.152344,0 -0.28125,-0.05859 -0.398437,-0.152344 -0.08203,-0.05859 -0.117188,-0.140625 -0.117188,-0.246094 0,-0.08203 0.03516,-0.164062 0.09375,-0.222656 0.07031,-0.05859 0.152344,-0.09375 0.246094,-0.09375 0.07031,0 0.128906,0.02344 0.175781,0.07031 0.04687,0.04687 0.07031,0.09375 0.07031,0.152344 0,0.05859 -0.02344,0.105469 -0.07031,0.164063 -0.04687,0.03516 -0.07031,0.05859 -0.07031,0.08203 0,0.02344 0.01172,0.03516 0.02344,0.05859 0.02344,0.01172 0.07031,0.02344 0.117188,0.02344 0.105468,0 0.222656,-0.03516 0.351562,-0.105469 0.117188,-0.07031 0.234375,-0.175781 0.328125,-0.316406 0.09375,-0.140625 0.175781,-0.339844 0.257813,-0.609375 0.04687,-0.105469 0.152343,-0.46875 0.316406,-1.078125 l 0.761719,-2.660156 h -0.773438 l 0.05859,-0.246094 c 0.246094,0 0.410156,-0.02344 0.503906,-0.04687 0.09375,-0.03516 0.1875,-0.09375 0.269531,-0.175781 0.07031,-0.08203 0.175782,-0.234375 0.28125,-0.46875 0.152344,-0.316406 0.292969,-0.5625 0.421875,-0.726563 0.199219,-0.234375 0.386719,-0.410156 0.597657,-0.527343 0.199218,-0.117188 0.386718,-0.175782 0.574218,-0.175782 0.1875,0 0.339844,0.04687 0.457032,0.152344 0.117187,0.105469 0.175781,0.210938 0.175781,0.328125 0,0.09375 -0.03516,0.175781 -0.08203,0.234375 -0.07031,0.07031 -0.140625,0.09375 -0.234375,0.09375 -0.08203,0 -0.152344,-0.02344 -0.199219,-0.07031 -0.04687,-0.04687 -0.07031,-0.105469 -0.07031,-0.164063 0,-0.04687 0.01172,-0.09375 0.04687,-0.152344 0.02344,-0.07031 0.04687,-0.105468 0.04687,-0.128906 0,-0.03516 -0.01172,-0.07031 -0.03516,-0.08203 -0.03516,-0.02344 -0.08203,-0.03516 -0.140625,-0.03516 -0.152344,0 -0.28125,0.04687 -0.398437,0.152343 -0.164063,0.152344 -0.304688,0.375 -0.433594,0.679688 -0.07031,0.152344 -0.199219,0.527344 -0.386719,1.113281 z m 2.61914,2.739258 -0.503906,1.769531 c 0.527344,-0.714844 0.914063,-1.195312 1.195313,-1.429687 0.28125,-0.222657 0.539062,-0.339844 0.796875,-0.339844 0.140625,0 0.257812,0.04687 0.351562,0.140625 0.08203,0.105469 0.128906,0.222656 0.128906,0.375 0,0.152344 -0.04687,0.363281 -0.128906,0.609375 l -0.527344,1.640625 c -0.07031,0.1875 -0.105468,0.304687 -0.105468,0.339844 0,0.03516 0.01172,0.07031 0.03516,0.09375 0.01172,0.02344 0.04687,0.02344 0.05859,0.02344 0.03516,0 0.05859,-0.01172 0.105468,-0.04687 0.117188,-0.105469 0.257813,-0.269531 0.398438,-0.492187 l 0.117187,0.08203 c -0.234375,0.328125 -0.445312,0.574219 -0.65625,0.714844 -0.140625,0.09375 -0.269531,0.152343 -0.386718,0.152343 -0.09375,0 -0.164063,-0.03516 -0.210938,-0.09375 -0.05859,-0.05859 -0.09375,-0.140625 -0.09375,-0.234375 0,-0.117187 0.05859,-0.328125 0.152344,-0.632812 l 0.527344,-1.570313 c 0.05859,-0.199218 0.105468,-0.351562 0.105468,-0.457031 0,-0.05859 -0.02344,-0.09375 -0.05859,-0.128906 -0.04687,-0.03516 -0.09375,-0.04687 -0.140625,-0.04687 -0.08203,0 -0.175782,0.02344 -0.28125,0.09375 -0.210938,0.105469 -0.421875,0.304687 -0.65625,0.574219 -0.222657,0.269531 -0.46875,0.621093 -0.714844,1.03125 -0.140625,0.222656 -0.246094,0.46875 -0.339844,0.726562 l -0.175781,0.644531 H 83.49902 l 0.703125,-2.460937 c 0.08203,-0.28125 0.128907,-0.457031 0.128907,-0.515625 0,-0.05859 -0.02344,-0.117188 -0.07031,-0.152344 -0.04687,-0.03516 -0.105469,-0.07031 -0.175781,-0.07031 -0.02344,0 -0.08203,0.01172 -0.152344,0.02344 l -0.152344,0.02344 -0.03516,-0.140625 z m 0,0"
         style="fill:#231f20;fill-opacity:1;fill-rule:nonzero;stroke:none" />
      <path
         id="path10"
         d="m 83.551758,89.837078 0.01172,3.808594 c 0,0.375 0.03516,0.597656 0.117187,0.691406 0.117188,0.140625 0.351563,0.222656 0.679688,0.210938 v 0.199218 h -3.222657 v -0.199218 c 0.246094,0 0.421875,-0.03516 0.527344,-0.09375 0.105469,-0.05859 0.175781,-0.128907 0.210938,-0.222657 0.03516,-0.09375 0.05859,-0.292968 0.05859,-0.585937 l -0.01172,-3.808594 h -0.761719 v -0.574219 h 0.761719 v -0.667968 c 0,-0.5625 0.210937,-1.042969 0.621093,-1.417969 0.398438,-0.375 0.972657,-0.5625 1.664063,-0.5625 0.480469,0 0.84375,0.08203 1.066406,0.257812 0.234375,0.1875 0.351563,0.386719 0.351563,0.597657 0,0.1875 -0.07031,0.328125 -0.222657,0.457031 -0.140625,0.140625 -0.328125,0.199219 -0.574218,0.199219 -0.199219,0 -0.363282,-0.04687 -0.480469,-0.164063 -0.117188,-0.105469 -0.175781,-0.222656 -0.175781,-0.339844 0,-0.03516 0.01172,-0.105468 0.03516,-0.222656 0.01172,-0.07031 0.02344,-0.128906 0.02344,-0.1875 0,-0.07031 -0.02344,-0.128906 -0.07031,-0.175781 -0.05859,-0.07031 -0.128906,-0.09375 -0.234375,-0.09375 -0.105469,0 -0.199219,0.04687 -0.28125,0.152344 -0.07031,0.09375 -0.105469,0.234375 -0.105469,0.457031 v 1.710937 h 0.820313 v 0.574219 z m 0,0"
         style="fill:#231f20;fill-opacity:1;fill-rule:nonzero;stroke:none" />
    </g>
  </g>
</svg>
