<?xml version="1.0" encoding="UTF-8" standalone="no"?>
<!-- Created with Inkscape (http://www.inkscape.org/) -->

<svg
   version="1.1"
   id="svg1"
   width="273.38666"
   height="201.2"
   viewBox="0 0 273.38666 201.2"
   sodipodi:docname="PLANTR.EPS"
   xmlns:inkscape="http://www.inkscape.org/namespaces/inkscape"
   xmlns:sodipodi="http://sodipodi.sourceforge.net/DTD/sodipodi-0.dtd"
   xmlns="http://www.w3.org/2000/svg"
   xmlns:svg="http://www.w3.org/2000/svg">
  <defs
     id="defs1" />
  <sodipodi:namedview
     id="namedview1"
     pagecolor="#ffffff"
     bordercolor="#000000"
     borderopacity="0.25"
     inkscape:showpageshadow="2"
     inkscape:pageopacity="0.0"
     inkscape:pagecheckerboard="0"
     inkscape:deskcolor="#d1d1d1">
    <inkscape:page
       x="0"
       y="0"
       inkscape:label="1"
       id="page1"
       width="273.38666"
       height="201.2"
       margin="0"
       bleed="0" />
  </sodipodi:namedview>
  <g
     id="g1"
     inkscape:groupmode="layer"
     inkscape:label="1">
    <path
       id="path1"
       d="m 253.25,227.25 h 68 c 15.887,0.094 28.578,-12.598 29,-28 v -74 c -0.422,-15.219 -13.113,-27.9062 -29,-28 h -68 c -15.73,0.0938 -28.422,12.781 -28,28 v 74 c -0.422,15.402 12.27,28.094 28,28"
       style="fill:#ffffff;fill-opacity:1;fill-rule:nonzero;stroke:none"
       transform="matrix(0.13333333,0,0,-0.13333333,0,201.2)" />
    <path
       id="path2"
       d="m 146.25,407.25 h 68 c 15.859,0.258 28.551,-12.434 29,-28 v -73 c -0.449,-16.055 -13.141,-28.742 -29,-29 h -68 c -15.758,0.258 -28.449,12.945 -28,29 v 73 c -0.449,15.566 12.242,28.258 28,28"
       style="fill:#ffffff;fill-opacity:1;fill-rule:nonzero;stroke:none"
       transform="matrix(0.13333333,0,0,-0.13333333,0,201.2)" />
    <path
       id="path3"
       d="m 60.25,1105.25 h 1601 v -1034 h -1601 z"
       style="fill:none;stroke:#231f20;stroke-width:5;stroke-linecap:butt;stroke-linejoin:miter;stroke-miterlimit:3.8637;stroke-dasharray:none;stroke-opacity:1"
       transform="matrix(0.13333333,0,0,-0.13333333,0,201.2)" />
    <path
       id="path4"
       d="m 1707.25,1107.25 h 253"
       style="fill:none;stroke:#ffffff;stroke-width:40;stroke-linecap:round;stroke-linejoin:miter;stroke-miterlimit:3.8637;stroke-dasharray:none;stroke-opacity:1"
       transform="matrix(0.13333333,0,0,-0.13333333,0,201.2)" />
    <path
       id="path5"
       d="m 1659.25,1151.25 v 254"
       style="fill:none;stroke:#ffffff;stroke-width:40;stroke-linecap:round;stroke-linejoin:miter;stroke-miterlimit:3.8637;stroke-dasharray:none;stroke-opacity:1"
       transform="matrix(0.13333333,0,0,-0.13333333,0,201.2)" />
    <path
       id="path6"
       d="m 1659.25,1365.25 v -259"
       style="fill:none;stroke:#231f20;stroke-width:2.5;stroke-linecap:butt;stroke-linejoin:miter;stroke-miterlimit:3.8637;stroke-dasharray:none;stroke-opacity:1"
       transform="matrix(0.13333333,0,0,-0.13333333,0,201.2)" />
    <path
       id="path7"
       d="m 1659.25,1363.25 h -15 l 15,37 15,-37 h -15"
       style="fill:#231f20;fill-opacity:1;fill-rule:evenodd;stroke:none"
       transform="matrix(0.13333333,0,0,-0.13333333,0,201.2)" />
    <path
       id="path8"
       d="m 1659.25,1106.25 h 259"
       style="fill:none;stroke:#231f20;stroke-width:2.5;stroke-linecap:butt;stroke-linejoin:miter;stroke-miterlimit:3.8637;stroke-dasharray:none;stroke-opacity:1"
       transform="matrix(0.13333333,0,0,-0.13333333,0,201.2)" />
    <path
       id="path9"
       d="m 1916.25,1106.25 v 15 l 37,-15 -37,-15 v 15"
       style="fill:#231f20;fill-opacity:1;fill-rule:evenodd;stroke:none"
       transform="matrix(0.13333333,0,0,-0.13333333,0,201.2)" />
    <path
       id="path10"
       d="m 1706.25,76.25 h 254"
       style="fill:none;stroke:#ffffff;stroke-width:40;stroke-linecap:round;stroke-linejoin:miter;stroke-miterlimit:3.8637;stroke-dasharray:none;stroke-opacity:1"
       transform="matrix(0.13333333,0,0,-0.13333333,0,201.2)" />
    <path
       id="path11"
       d="m 1659.25,120.25 v 253"
       style="fill:none;stroke:#ffffff;stroke-width:40;stroke-linecap:round;stroke-linejoin:miter;stroke-miterlimit:3.8637;stroke-dasharray:none;stroke-opacity:1"
       transform="matrix(0.13333333,0,0,-0.13333333,0,201.2)" />
    <path
       id="path12"
       d="m 1658.25,334.25 v -260"
       style="fill:none;stroke:#231f20;stroke-width:2.5;stroke-linecap:butt;stroke-linejoin:miter;stroke-miterlimit:3.8637;stroke-dasharray:none;stroke-opacity:1"
       transform="matrix(0.13333333,0,0,-0.13333333,0,201.2)" />
    <path
       id="path13"
       d="m 1658.25,331.25 h -15 l 15,38 15,-38 h -15"
       style="fill:#231f20;fill-opacity:1;fill-rule:evenodd;stroke:none"
       transform="matrix(0.13333333,0,0,-0.13333333,0,201.2)" />
    <path
       id="path14"
       d="m 1658.25,74.25 h 260"
       style="fill:none;stroke:#231f20;stroke-width:2.5;stroke-linecap:butt;stroke-linejoin:miter;stroke-miterlimit:3.8637;stroke-dasharray:none;stroke-opacity:1"
       transform="matrix(0.13333333,0,0,-0.13333333,0,201.2)" />
    <path
       id="path15"
       d="m 1916.25,74.25 v 15 l 37,-15 -37,-15 v 15"
       style="fill:#231f20;fill-opacity:1;fill-rule:evenodd;stroke:none"
       transform="matrix(0.13333333,0,0,-0.13333333,0,201.2)" />
    <path
       id="path16"
       d="m 105.25,70.25 h 254"
       style="fill:none;stroke:#ffffff;stroke-width:40;stroke-linecap:round;stroke-linejoin:miter;stroke-miterlimit:3.8637;stroke-dasharray:none;stroke-opacity:1"
       transform="matrix(0.13333333,0,0,-0.13333333,0,201.2)" />
    <path
       id="path17"
       d="m 57.25,114.25 v 253"
       style="fill:none;stroke:#ffffff;stroke-width:40;stroke-linecap:round;stroke-linejoin:miter;stroke-miterlimit:3.8637;stroke-dasharray:none;stroke-opacity:1"
       transform="matrix(0.13333333,0,0,-0.13333333,0,201.2)" />
    <path
       id="path18"
       d="m 57.25,328.25 v -260"
       style="fill:none;stroke:#231f20;stroke-width:2.5;stroke-linecap:butt;stroke-linejoin:miter;stroke-miterlimit:3.8637;stroke-dasharray:none;stroke-opacity:1"
       transform="matrix(0.13333333,0,0,-0.13333333,0,201.2)" />
    <path
       id="path19"
       d="m 57.25,325.25 h -15 l 15,38 15,-38 h -15"
       style="fill:#231f20;fill-opacity:1;fill-rule:evenodd;stroke:none"
       transform="matrix(0.13333333,0,0,-0.13333333,0,201.2)" />
    <path
       id="path20"
       d="m 57.25,68.25 h 260"
       style="fill:none;stroke:#231f20;stroke-width:2.5;stroke-linecap:butt;stroke-linejoin:miter;stroke-miterlimit:3.8637;stroke-dasharray:none;stroke-opacity:1"
       transform="matrix(0.13333333,0,0,-0.13333333,0,201.2)" />
    <path
       id="path21"
       d="m 314.25,68.25 v 15 l 38,-15 -38,-15 v 15"
       style="fill:#231f20;fill-opacity:1;fill-rule:evenodd;stroke:none"
       transform="matrix(0.13333333,0,0,-0.13333333,0,201.2)" />
    <path
       id="path22"
       d="m 105.25,1105.25 h 254"
       style="fill:none;stroke:#ffffff;stroke-width:40;stroke-linecap:round;stroke-linejoin:miter;stroke-miterlimit:3.8637;stroke-dasharray:none;stroke-opacity:1"
       transform="matrix(0.13333333,0,0,-0.13333333,0,201.2)" />
    <path
       id="path23"
       d="m 57.25,1149.25 v 253"
       style="fill:none;stroke:#ffffff;stroke-width:40;stroke-linecap:round;stroke-linejoin:miter;stroke-miterlimit:3.8637;stroke-dasharray:none;stroke-opacity:1"
       transform="matrix(0.13333333,0,0,-0.13333333,0,201.2)" />
    <path
       id="path24"
       d="m 57.25,1363.25 v -260"
       style="fill:none;stroke:#231f20;stroke-width:2.5;stroke-linecap:butt;stroke-linejoin:miter;stroke-miterlimit:3.8637;stroke-dasharray:none;stroke-opacity:1"
       transform="matrix(0.13333333,0,0,-0.13333333,0,201.2)" />
    <path
       id="path25"
       d="m 57.25,1360.25 h -15 l 15,38 15,-38 h -15"
       style="fill:#231f20;fill-opacity:1;fill-rule:evenodd;stroke:none"
       transform="matrix(0.13333333,0,0,-0.13333333,0,201.2)" />
    <path
       id="path26"
       d="m 57.25,1103.25 h 260"
       style="fill:none;stroke:#231f20;stroke-width:2.5;stroke-linecap:butt;stroke-linejoin:miter;stroke-miterlimit:3.8637;stroke-dasharray:none;stroke-opacity:1"
       transform="matrix(0.13333333,0,0,-0.13333333,0,201.2)" />
    <path
       id="path27"
       d="m 314.25,1103.25 v 15 l 38,-15 -38,-15 v 15"
       style="fill:#231f20;fill-opacity:1;fill-rule:evenodd;stroke:none"
       transform="matrix(0.13333333,0,0,-0.13333333,0,201.2)" />
    <g
       id="g27"
       aria-label="●&#10;●&#10;●&#10;●&#10;u&#10;7&#10;u&#10;8&#10;u&#10;1&#10;u&#10;2&#10;u&#10;5&#10;u&#10;6&#10;u&#10;3&#10;u&#10;4"
       transform="matrix(1.3333333,0,0,1.3333333,3.3666667,58.366667)">
      <path
         id="path28"
         d="M 0.56289063,3.90625e-4 V -6.4917969 H 3.9378906 V 3.90625e-4 Z M 1.1253906,-0.56210938 h 2.25 V -5.9292969 h -2.25 z M 0.26113281,103.30117 V 96.808984 H 3.6361328 v 6.492186 z m 0.5625,-0.5625 H 3.0736328 V 97.371484 H 0.82363281 Z M 160.56191,-0.19882813 V -6.6910156 h 3.375 v 6.49218747 z m 0.5625,-0.5625 h 2.25 V -6.1285156 h -2.25 z M 160.56191,103.30117 v -6.492186 h 3.375 v 6.492186 z m 0.5625,-0.5625 h 2.25 v -5.367186 h -2.25 z m 0,0"
         style="fill:#231f20;fill-opacity:1;fill-rule:nonzero;stroke:none" />
      <path
         id="path29"
         d="m 30.990625,-14.536719 c -0.421875,0.527344 -0.539062,0.632813 -0.667969,0.632813 -0.05859,0 -0.08203,-0.04687 -0.08203,-0.140625 0,-0.04687 0,-0.04687 0.152344,-0.621094 l 0.632812,-2.390625 h -0.597656 c -0.433594,1.183594 -0.515625,1.382812 -0.878906,1.957031 -0.480469,0.75 -0.878906,1.160156 -1.125,1.160156 -0.105469,0 -0.175781,-0.08203 -0.175781,-0.199218 0,-0.02344 0,-0.04687 0.01172,-0.07031 l 0.726563,-2.90625 -0.02344,-0.01172 c -0.46875,0.105469 -0.761718,0.152344 -1.195312,0.210938 v 0.117187 c 0.316406,0 0.316406,0 0.398437,0.04687 0.03516,0.01172 0.08203,0.08203 0.08203,0.140625 0,0.07031 -0.04687,0.269532 -0.117188,0.539063 l -0.292969,1.136719 c -0.152343,0.585937 -0.199218,0.84375 -0.199218,0.984375 0,0.292968 0.140625,0.445312 0.421875,0.445312 0.5625,0 0.996093,-0.433594 1.910156,-1.980469 -0.234375,0.867188 -0.363281,1.394532 -0.363281,1.570313 0,0.257812 0.152343,0.386719 0.386718,0.386719 0.375,0 0.550782,-0.152344 1.101563,-0.9375 z m 6.609375,-1.3125 -0.04687,-0.08203 h -3 l -0.65625,1.089844 0.117188,0.07031 c 0.363281,-0.445312 0.585937,-0.5625 1.066406,-0.574219 H 36.85 l 0.02344,0.02344 -2.941407,4.78125 h 0.5625 z M 14.692773,-32.038672 c -0.421875,0.527344 -0.539062,0.632813 -0.667968,0.632813 -0.05859,0 -0.08203,-0.04687 -0.08203,-0.140625 0,-0.04687 0,-0.04687 0.152344,-0.621094 l 0.632813,-2.390625 h -0.597657 c -0.433593,1.183594 -0.515625,1.382812 -0.878906,1.957031 -0.480469,0.75 -0.878906,1.160156 -1.125,1.160156 -0.105469,0 -0.175781,-0.08203 -0.175781,-0.199218 0,-0.02344 0,-0.04687 0.01172,-0.07031 l 0.726562,-2.90625 -0.02344,-0.01172 c -0.46875,0.105469 -0.761719,0.152344 -1.195313,0.210938 v 0.117187 c 0.316406,0 0.316406,0 0.398438,0.04687 0.03516,0.01172 0.08203,0.08203 0.08203,0.140625 0,0.07031 -0.04687,0.269532 -0.117188,0.539063 l -0.292968,1.136719 c -0.152344,0.585937 -0.199219,0.84375 -0.199219,0.984375 0,0.292968 0.140625,0.445312 0.421875,0.445312 0.5625,0 0.996094,-0.433594 1.910156,-1.980469 -0.234375,0.867188 -0.363281,1.394532 -0.363281,1.570313 0,0.257812 0.152344,0.386719 0.386719,0.386719 0.375,0 0.550781,-0.152344 1.101562,-0.9375 z m 4.945313,0.878906 c 0.949219,-0.316406 1.3125,-0.65625 1.3125,-1.21875 0,-0.667968 -0.585938,-1.136718 -1.40625,-1.136718 -0.855469,0 -1.441406,0.492187 -1.441406,1.207031 0,0.433594 0.164062,0.738281 0.703125,1.324219 -1.007813,0.316406 -1.570313,0.890625 -1.570313,1.59375 0,0.210937 0.07031,0.457031 0.1875,0.65625 0.269531,0.457031 0.75,0.691406 1.40625,0.691406 0.996094,0 1.722656,-0.621094 1.722656,-1.441406 0,-0.539063 -0.234375,-0.972657 -0.914062,-1.675782 z m -0.65625,0.304688 c 0.878906,0.914062 0.972656,1.054687 0.972656,1.511719 0,0.644531 -0.457031,1.125 -1.089844,1.125 -0.632812,0 -1.078125,-0.46875 -1.078125,-1.125 0,-0.667969 0.433594,-1.21875 1.195313,-1.511719 z m 0.503906,-0.445313 c -0.621094,-0.585937 -0.75,-0.785156 -0.75,-1.125 0,-0.5625 0.292969,-0.902343 0.808594,-0.902343 0.515625,0 0.855469,0.375 0.855469,0.949218 0,0.503907 -0.210938,0.75 -0.914063,1.078125 z m 5.504883,123.263672 c -0.421875,0.527344 -0.539062,0.632813 -0.667969,0.632813 -0.05859,0 -0.08203,-0.04687 -0.08203,-0.140625 0,-0.04687 0,-0.04687 0.152344,-0.621094 l 0.632812,-2.390625 h -0.597656 c -0.433594,1.183594 -0.515625,1.382812 -0.878906,1.957031 -0.480469,0.75 -0.878906,1.160156 -1.125,1.160156 -0.105469,0 -0.175781,-0.08203 -0.175781,-0.199218 0,-0.02344 0,-0.04687 0.01172,-0.07031 l 0.726563,-2.90625 -0.02344,-0.01172 c -0.46875,0.105469 -0.761718,0.152344 -1.195312,0.210938 v 0.117187 c 0.316406,0 0.316406,0 0.398437,0.04687 0.03516,0.01172 0.08203,0.08203 0.08203,0.140625 0,0.07031 -0.04687,0.269532 -0.117188,0.539063 l -0.292969,1.136719 c -0.152343,0.585937 -0.199218,0.84375 -0.199218,0.984375 0,0.292968 0.140625,0.445312 0.421875,0.445312 0.5625,0 0.996093,-0.433594 1.910156,-1.980469 -0.234375,0.867188 -0.363281,1.394532 -0.363281,1.570313 0,0.257812 0.152343,0.386719 0.386718,0.386719 0.375,0 0.550782,-0.152344 1.101563,-0.9375 z m 2.695313,3.9375 h 2.238281 v -0.117187 h -0.140625 c -0.386719,0 -0.550781,-0.07031 -0.550781,-0.257813 0,-0.07031 0.02344,-0.1875 0.09375,-0.421875 0.02344,-0.04687 0.03516,-0.09375 0.05859,-0.175781 l 1.136719,-4.148438 c 0.04687,-0.140625 0.04687,-0.199218 0.04687,-0.234375 0,-0.03516 -0.01172,-0.05859 -0.03516,-0.05859 0,0 -0.222656,0.04687 -0.65625,0.128906 l -0.726563,0.152344 c -0.01172,0 -0.07031,0.01172 -0.164062,0.02344 V 90.9086 l 0.457031,-0.01172 c 0.1875,-0.01172 0.304688,0.09375 0.304688,0.246094 0,0.05859 -0.01172,0.117187 -0.05859,0.28125 l -1.101563,3.9375 c -0.09375,0.292968 -0.269531,0.375 -0.902343,0.421875 z M 14.092188,73.863672 c -0.421875,0.527344 -0.539063,0.632812 -0.667969,0.632812 -0.05859,0 -0.08203,-0.04687 -0.08203,-0.140625 0,-0.04687 0,-0.04687 0.152343,-0.621093 l 0.632813,-2.390625 h -0.597656 c -0.433594,1.183593 -0.515625,1.382812 -0.878907,1.957031 -0.480468,0.75 -0.878906,1.160156 -1.125,1.160156 -0.105468,0 -0.175781,-0.08203 -0.175781,-0.199219 0,-0.02344 0,-0.04687 0.01172,-0.07031 l 0.726562,-2.90625 -0.02344,-0.01172 c -0.46875,0.105469 -0.761719,0.152344 -1.195313,0.210938 v 0.117187 c 0.316407,0 0.316407,0 0.398438,0.04687 0.03516,0.01172 0.08203,0.08203 0.08203,0.140625 0,0.07031 -0.04687,0.269531 -0.117187,0.539063 l -0.292969,1.136718 c -0.152344,0.585938 -0.199219,0.84375 -0.199219,0.984375 0,0.292969 0.140625,0.445313 0.421875,0.445313 0.5625,0 0.996094,-0.433594 1.910156,-1.980469 -0.234375,0.867188 -0.363281,1.394531 -0.363281,1.570313 0,0.257812 0.152344,0.386718 0.386719,0.386718 0.375,0 0.550781,-0.152343 1.101562,-0.9375 z M 19.6,76.687891 c -0.1875,0.398437 -0.339844,0.492187 -0.785156,0.503906 h -1.523438 v -0.03516 l 1.535157,-1.535157 c 0.9375,-0.9375 1.195312,-1.347656 1.195312,-1.875 0,-0.761718 -0.574219,-1.359375 -1.300781,-1.359375 -0.292969,0 -0.585938,0.07031 -0.820313,0.210938 -0.410156,0.222656 -0.632812,0.492187 -0.855468,1.078125 l 0.164062,0.04687 c 0.292969,-0.515625 0.644531,-0.75 1.125,-0.75 0.574219,0 0.996094,0.421875 0.996094,0.972656 0,0.175781 -0.02344,0.328125 -0.07031,0.433594 -0.199218,0.433594 -0.5625,0.9375 -1.078125,1.488281 l -1.6875,1.792969 v 0.140625 h 2.847657 l 0.398437,-1.054688 z m 170.0918,-87.826172 c -0.42188,0.527343 -0.53907,0.632812 -0.66797,0.632812 -0.0586,0 -0.082,-0.04687 -0.082,-0.140625 0,-0.04687 0,-0.04687 0.15234,-0.621094 l 0.63281,-2.390625 h -0.59765 c -0.4336,1.183594 -0.51563,1.382813 -0.87891,1.957032 -0.48047,0.75 -0.87891,1.160156 -1.125,1.160156 -0.10547,0 -0.17578,-0.08203 -0.17578,-0.199219 0,-0.02344 0,-0.04687 0.0117,-0.07031 l 0.72656,-2.90625 -0.0234,-0.01172 c -0.46875,0.105469 -0.76172,0.152344 -1.19531,0.210937 V -13.4 c 0.31641,0 0.31641,0 0.39844,0.04687 0.0351,0.01172 0.082,0.08203 0.082,0.140625 0,0.07031 -0.0469,0.269531 -0.11719,0.539062 l -0.29297,1.136719 c -0.15234,0.585938 -0.19922,0.84375 -0.19922,0.984375 0,0.292969 0.14063,0.445313 0.42188,0.445313 0.5625,0 0.99609,-0.433594 1.91016,-1.980469 -0.23438,0.867187 -0.36329,1.394531 -0.36329,1.570312 0,0.257813 0.15235,0.386719 0.38672,0.386719 0.375,0 0.55078,-0.152344 1.10157,-0.9375 z m 4.21875,-0.820313 h 1.83984 l 0.17578,-0.574219 h -2.03906 l -0.84375,1.746094 v 0.117188 c 0.78516,0.175781 1.04297,0.269531 1.33594,0.503906 0.25781,0.1992187 0.42187,0.609375 0.42187,1.03125 0,0.8671875 -0.64453,1.6523437 -1.37109,1.6523437 -0.16406,0 -0.30469,-0.058594 -0.53906,-0.234375 -0.19922,-0.1523437 -0.32813,-0.1992187 -0.44532,-0.1992187 -0.1875,0 -0.32812,0.1289062 -0.32812,0.3164062 0,0.28125 0.3164,0.4570313 0.85547,0.4570313 1.3125,0 2.3789,-1.03125 2.3789,-2.296875 0,-0.5039063 -0.1875,-0.9257815 -0.52734,-1.2539065 -0.30469,-0.28125 -0.58594,-0.410156 -1.23047,-0.5625 z m -21.02051,-16.379883 c -0.42188,0.527344 -0.53906,0.632813 -0.66797,0.632813 -0.0586,0 -0.082,-0.04687 -0.082,-0.140625 0,-0.04687 0,-0.04687 0.15234,-0.621094 l 0.63282,-2.390625 h -0.59766 c -0.43359,1.183594 -0.51563,1.382813 -0.87891,1.957031 -0.48047,0.75 -0.8789,1.160157 -1.125,1.160157 -0.10547,0 -0.17578,-0.08203 -0.17578,-0.199219 0,-0.02344 0,-0.04687 0.0117,-0.07031 l 0.72656,-2.90625 -0.0234,-0.01172 c -0.46875,0.105468 -0.76172,0.152343 -1.19532,0.210937 v 0.117188 c 0.31641,0 0.31641,0 0.39844,0.04687 0.0352,0.01172 0.082,0.08203 0.082,0.140625 0,0.07031 -0.0469,0.269531 -0.11719,0.539062 l -0.29296,1.136719 c -0.15235,0.585937 -0.19922,0.84375 -0.19922,0.984375 0,0.292969 0.14062,0.445312 0.42187,0.445312 0.5625,0 0.9961,-0.433593 1.91016,-1.980468 -0.23438,0.867187 -0.36328,1.394531 -0.36328,1.570312 0,0.257813 0.15234,0.386719 0.38672,0.386719 0.375,0 0.55078,-0.152344 1.10156,-0.9375 z m 6.46875,-1.558593 c -1.06641,0.128906 -1.60547,0.328125 -2.29688,0.832031 -1.00781,0.75 -1.6289,1.886719 -1.6289,3.035156 0,1.019531 0.58594,1.6875 1.46484,1.6875 1.07813,0 1.99219,-1.019531 1.99219,-2.226562 0,-0.820313 -0.57422,-1.40625 -1.35938,-1.40625 -0.22265,0 -0.49218,0.05859 -0.70312,0.164062 l -0.0352,-0.01172 c 0.55078,-1.019531 1.64063,-1.828125 2.57813,-1.945312 z m -2.08594,2.203125 c 0.55078,0 0.90235,0.398437 0.90235,1.019531 0,0.539062 -0.1875,1.171875 -0.49219,1.59375 -0.23438,0.363281 -0.51563,0.527344 -0.85547,0.527344 -0.49219,0 -0.78516,-0.386719 -0.78516,-1.042969 0,-0.550781 0.16407,-1.21875 0.375,-1.570313 0.21094,-0.363281 0.48047,-0.527343 0.85547,-0.527343 z m 12.71777,119.455078 c -0.42187,0.527344 -0.53906,0.632812 -0.66796,0.632812 -0.0586,0 -0.082,-0.04687 -0.082,-0.140625 0,-0.04687 0,-0.04687 0.15235,-0.621093 l 0.63281,-2.390625 h -0.59766 c -0.43359,1.183593 -0.51562,1.382812 -0.8789,1.957031 -0.48047,0.75 -0.87891,1.160156 -1.125,1.160156 -0.10547,0 -0.17578,-0.08203 -0.17578,-0.199219 0,-0.02344 0,-0.04687 0.0117,-0.07031 l 0.72656,-2.90625 -0.0234,-0.01172 c -0.46875,0.105469 -0.76172,0.152344 -1.19531,0.210938 v 0.117187 c 0.3164,0 0.3164,0 0.39844,0.04687 0.0351,0.01172 0.082,0.08203 0.082,0.140625 0,0.07031 -0.0469,0.269531 -0.11719,0.539063 l -0.29297,1.136718 c -0.15234,0.585938 -0.19922,0.84375 -0.19922,0.984375 0,0.292969 0.14063,0.445313 0.42188,0.445313 0.5625,0 0.99609,-0.433594 1.91015,-1.980469 -0.23437,0.867188 -0.36328,1.394531 -0.36328,1.570313 0,0.257812 0.15235,0.386718 0.38672,0.386718 0.375,0 0.55078,-0.152343 1.10156,-0.9375 z m 3.73829,-0.597656 c 0.26953,-0.375 0.55078,-0.539063 0.8789,-0.539063 0.4336,0 0.71485,0.292969 0.71485,0.726563 0,0.339843 -0.16407,0.621093 -0.51563,0.855468 -0.33984,0.234375 -0.67969,0.351563 -1.39453,0.480469 l 0.0117,0.117188 c 0.44531,0 0.52734,0.01172 0.72656,0.08203 0.49219,0.1875 0.75,0.621094 0.75,1.253906 0,0.28125 -0.0586,0.574219 -0.17578,0.761719 -0.1875,0.328125 -0.53906,0.550781 -0.86719,0.550781 -0.15234,0 -0.33984,-0.08203 -0.57422,-0.257812 -0.23437,-0.164063 -0.36328,-0.222657 -0.51562,-0.222657 -0.22266,0 -0.35156,0.105469 -0.35156,0.304688 0,0.304687 0.32812,0.480469 0.90234,0.480469 0.44531,0 0.86719,-0.105469 1.19531,-0.292969 0.6211,-0.375 1.03125,-1.042969 1.03125,-1.757813 0,-0.585937 -0.23437,-0.949218 -0.76172,-1.195312 v -0.02344 c 0.96094,-0.375 1.24219,-0.644531 1.24219,-1.183593 0,-0.585938 -0.48047,-1.019532 -1.125,-1.019532 -0.55078,0 -1.04297,0.316407 -1.30078,0.832032 z M 176.69277,74.461328 c -0.42187,0.527344 -0.53906,0.632813 -0.66797,0.632813 -0.0586,0 -0.082,-0.04687 -0.082,-0.140625 0,-0.04687 0,-0.04687 0.15235,-0.621094 l 0.63281,-2.390625 h -0.59766 c -0.43359,1.183594 -0.51562,1.382812 -0.8789,1.957031 -0.48047,0.75 -0.87891,1.160156 -1.125,1.160156 -0.10547,0 -0.17578,-0.08203 -0.17578,-0.199218 0,-0.02344 0,-0.04687 0.0117,-0.07031 l 0.72657,-2.90625 -0.0234,-0.01172 c -0.46875,0.105469 -0.76172,0.152344 -1.19531,0.210938 v 0.117187 c 0.3164,0 0.3164,0 0.39843,0.04687 0.0352,0.01172 0.082,0.08203 0.082,0.140625 0,0.07031 -0.0469,0.269532 -0.11719,0.539063 l -0.29297,1.136719 c -0.15234,0.585937 -0.19922,0.84375 -0.19922,0.984375 0,0.292968 0.14063,0.445312 0.42188,0.445312 0.5625,0 0.99609,-0.433594 1.91015,-1.980469 -0.23437,0.867188 -0.36328,1.394532 -0.36328,1.570313 0,0.257812 0.15234,0.386719 0.38672,0.386719 0.375,0 0.55078,-0.152344 1.10156,-0.9375 z m 5.92969,2.003906 h -0.75 l 0.96094,-3.480468 h -0.32813 l -3.33984,3.457031 -0.15234,0.527344 h 2.09765 l -0.39844,1.429687 h 0.63282 l 0.375,-1.40625 h 0.79687 z m -1.40625,0 h -1.69922 v -0.02344 l 2.4375,-2.554688 h 0.0352 z m 0,0"
         style="fill:#231f20;fill-opacity:1;fill-rule:nonzero;stroke:none" />
    </g>
  </g>
</svg>
