<?xml version="1.0" encoding="UTF-8" standalone="no"?>
<!-- Created with Inkscape (http://www.inkscape.org/) -->

<svg
   version="1.1"
   id="svg1"
   width="275.14667"
   height="177.58667"
   viewBox="0 0 275.14667 177.58667"
   sodipodi:docname="PLANT.EPS"
   xmlns:inkscape="http://www.inkscape.org/namespaces/inkscape"
   xmlns:sodipodi="http://sodipodi.sourceforge.net/DTD/sodipodi-0.dtd"
   xmlns="http://www.w3.org/2000/svg"
   xmlns:svg="http://www.w3.org/2000/svg">
  <defs
     id="defs1" />
  <sodipodi:namedview
     id="namedview1"
     pagecolor="#ffffff"
     bordercolor="#000000"
     borderopacity="0.25"
     inkscape:showpageshadow="2"
     inkscape:pageopacity="0.0"
     inkscape:pagecheckerboard="0"
     inkscape:deskcolor="#d1d1d1">
    <inkscape:page
       x="0"
       y="0"
       inkscape:label="1"
       id="page1"
       width="275.14667"
       height="177.58667"
       margin="0"
       bleed="0" />
  </sodipodi:namedview>
  <g
     id="g1"
     inkscape:groupmode="layer"
     inkscape:label="1">
    <path
       id="path1"
       d="m 57.25,73.25 1611,283 -1242,567 z"
       style="fill:none;stroke:#231f20;stroke-width:5;stroke-linecap:butt;stroke-linejoin:miter;stroke-miterlimit:3.8637;stroke-dasharray:none;stroke-opacity:1"
       transform="matrix(0.13333333,0,0,-0.13333333,0,177.58667)" />
    <path
       id="path2"
       d="m 131.25,423.25 h 69 c 15.34,-0.418 28.027,-13.109 28,-29 v -73 c 0.027,-15.73 -12.66,-28.418 -28,-28 h -69 c -15.281,-0.418 -27.973,12.27 -28,28 v 73 c 0.027,15.891 12.719,28.582 28,29"
       style="fill:#ffffff;fill-opacity:1;fill-rule:nonzero;stroke:none"
       transform="matrix(0.13333333,0,0,-0.13333333,0,177.58667)" />
    <path
       id="path3"
       d="m 334.25,217.25 h 68 c 15.621,0.41 28.313,-12.281 28,-28 v -73 c 0.313,-15.902 -12.379,-28.5898 -28,-29 h -68 c -15.996,0.4102 -28.687,13.098 -29,29 v 73 c 0.313,15.719 13.004,28.41 29,28"
       style="fill:#ffffff;fill-opacity:1;fill-rule:nonzero;stroke:none"
       transform="matrix(0.13333333,0,0,-0.13333333,0,177.58667)" />
    <g
       id="g3"
       aria-label="u&#10;1&#10;●&#10;●&#10;●&#10;u&#10;2&#10;u&#10;5&#10;u&#10;6&#10;u&#10;3&#10;u&#10;4"
       transform="matrix(1.3333333,0,0,1.3333333,41.5,159.55333)">
      <path
         id="path4"
         d="m 3.6914063,-0.93648437 c -0.421875,0.52734375 -0.5390625,0.6328125 -0.6679688,0.6328125 -0.058594,0 -0.082031,-0.046875 -0.082031,-0.140625 0,-0.046875 0,-0.046875 0.1523437,-0.62109373 l 0.6328125,-2.390625 H 3.1289063 C 2.6953125,-2.2724219 2.6132813,-2.0732031 2.25,-1.4989844 c -0.4804688,0.75000003 -0.8789063,1.16015628 -1.125,1.16015628 -0.1054688,0 -0.17578125,-0.0820313 -0.17578125,-0.19921875 0,-0.0234375 0,-0.046875 0.0117188,-0.0703125 L 1.6875,-3.5146094 1.6640625,-3.5263281 c -0.46875,0.1054687 -0.76171875,0.1523437 -1.1953125,0.2109375 v 0.1171875 c 0.31640625,0 0.31640625,0 0.3984375,0.046875 0.0351563,0.011719 0.0820313,0.082031 0.0820313,0.140625 0,0.070312 -0.046875,0.2695312 -0.1171875,0.5390625 l -0.2929688,1.1367187 c -0.15234375,0.58593753 -0.19921875,0.84375003 -0.19921875,0.98437503 0,0.29296875 0.140625,0.4453125 0.421875,0.4453125 0.56249995,0 0.99609375,-0.43359375 1.91015625,-1.98046873 -0.234375,0.8671875 -0.3632812,1.39453123 -0.3632812,1.57031248 0,0.2578125 0.1523437,0.38671875 0.3867187,0.38671875 0.375,0 0.5507813,-0.15234375 1.1015625,-0.9375 z M 6.3867187,3.0010156 H 8.625 V 2.8838281 H 8.484375 c -0.3867187,0 -0.5507813,-0.070312 -0.5507813,-0.2578125 0,-0.070312 0.023437,-0.1875 0.09375,-0.421875 0.023437,-0.046875 0.035156,-0.09375 0.058594,-0.1757812 l 1.1367188,-4.1484375 c 0.046875,-0.140625 0.046875,-0.1992188 0.046875,-0.234375 0,-0.035156 -0.011719,-0.058594 -0.035156,-0.058594 0,0 -0.2226562,0.046875 -0.65625,0.1289063 L 7.851563,-2.1317971 c -0.011719,0 -0.070312,0.011719 -0.1640625,0.023437 v 0.1171875 l 0.4570313,-0.011719 c 0.1875,-0.011719 0.3046875,0.09375 0.3046875,0.2460937 0,0.058594 -0.011719,0.1171875 -0.058594,0.28125 l -1.1015625,3.9375 c -0.09375,0.2929688 -0.2695313,0.375 -0.9023438,0.421875 z m 0,0"
         style="fill:#231f20;fill-opacity:1;fill-rule:nonzero;stroke:none" />
      <path
         id="path5"
         d="M -28.338867,9.7012109 V 3.2090234 h 3.375 v 6.4921875 z m 0.5625,-0.5625 h 2.25 V 3.7715234 h -2.25 z M 8.7626953,-75.201133 v -6.492187 h 3.3749997 v 6.492187 z m 0.5625,-0.5625 H 11.575195 V -81.13082 H 9.3251953 Z M 132.66211,-18.499961 v -6.492187 h 3.375 v 6.492187 z m 0.5625,-0.5625 h 2.25 v -5.367187 h -2.25 z m 0,0"
         style="fill:#231f20;fill-opacity:1;fill-rule:nonzero;stroke:none" />
      <path
         id="path6"
         d="m -15.908203,-22.238242 c -0.421875,0.527344 -0.539063,0.632812 -0.667969,0.632812 -0.05859,0 -0.08203,-0.04687 -0.08203,-0.140625 0,-0.04687 0,-0.04687 0.152344,-0.621093 l 0.632812,-2.390625 h -0.597656 c -0.433594,1.183593 -0.515625,1.382812 -0.878906,1.957031 -0.480469,0.75 -0.878907,1.160156 -1.125,1.160156 -0.105469,0 -0.175782,-0.08203 -0.175782,-0.199219 0,-0.02344 0,-0.04687 0.01172,-0.07031 l 0.726563,-2.90625 -0.02344,-0.01172 c -0.46875,0.105469 -0.761719,0.152344 -1.195312,0.210938 v 0.117187 c 0.316406,0 0.316406,0 0.398437,0.04687 0.03516,0.01172 0.08203,0.08203 0.08203,0.140625 0,0.07031 -0.04687,0.269531 -0.117187,0.539063 l -0.292969,1.136718 c -0.152344,0.585938 -0.199219,0.84375 -0.199219,0.984375 0,0.292969 0.140625,0.445313 0.421875,0.445313 0.5625,0 0.996094,-0.433594 1.910157,-1.980469 -0.234375,0.867188 -0.363282,1.394531 -0.363282,1.570313 0,0.257812 0.152344,0.386718 0.386719,0.386718 0.375,0 0.550781,-0.152343 1.101563,-0.9375 z m 5.507812,2.824219 c -0.1875,0.398437 -0.339843,0.492187 -0.785156,0.503906 h -1.523437 v -0.03516 l 1.535156,-1.535157 c 0.9375,-0.9375 1.1953124,-1.347656 1.1953124,-1.875 0,-0.761718 -0.5742184,-1.359375 -1.3007814,-1.359375 -0.292969,0 -0.585937,0.07031 -0.820312,0.210938 -0.410157,0.222656 -0.632813,0.492187 -0.855469,1.078125 l 0.164062,0.04687 c 0.292969,-0.515625 0.644532,-0.75 1.125,-0.75 0.574219,0 0.996094,0.421875 0.996094,0.972656 0,0.175781 -0.02344,0.328125 -0.07031,0.433594 -0.199219,0.433594 -0.5625,0.9375 -1.078125,1.488281 l -1.6875,1.792969 v 0.140625 h 2.847656 l 0.398437,-1.054688 z m 49.792969,-67.324219 c -0.421875,0.527344 -0.539062,0.632812 -0.667969,0.632812 -0.05859,0 -0.08203,-0.04687 -0.08203,-0.140625 0,-0.04687 0,-0.04687 0.152344,-0.621093 l 0.632812,-2.390625 h -0.597656 c -0.433594,1.183593 -0.515625,1.382812 -0.878906,1.957031 -0.480469,0.75 -0.878906,1.160156 -1.125,1.160156 -0.105469,0 -0.175781,-0.08203 -0.175781,-0.199219 0,-0.02344 0,-0.04687 0.01172,-0.07031 l 0.726563,-2.90625 -0.02344,-0.01172 c -0.46875,0.105469 -0.761718,0.152344 -1.195312,0.210938 v 0.117187 c 0.316406,0 0.316406,0 0.398437,0.04687 0.03516,0.01172 0.08203,0.08203 0.08203,0.140625 0,0.07031 -0.04687,0.269531 -0.117188,0.539063 l -0.292969,1.136718 c -0.152343,0.585938 -0.199218,0.84375 -0.199218,0.984375 0,0.292969 0.140625,0.445313 0.421875,0.445313 0.5625,0 0.996093,-0.433594 1.910156,-1.980469 -0.234375,0.867188 -0.363281,1.394531 -0.363281,1.570313 0,0.257812 0.152343,0.386718 0.386718,0.386718 0.375,0 0.550782,-0.152343 1.101563,-0.9375 z m 4.21875,-0.820313 h 1.839844 l 0.175781,-0.574218 h -2.039062 l -0.84375,1.746093 v 0.117188 c 0.785156,0.175781 1.042968,0.269531 1.335937,0.503906 0.257813,0.199219 0.421875,0.609375 0.421875,1.03125 0,0.867188 -0.644531,1.652344 -1.371094,1.652344 -0.164062,0 -0.304687,-0.05859 -0.539062,-0.234375 -0.199219,-0.152344 -0.328125,-0.199219 -0.445313,-0.199219 -0.1875,0 -0.328125,0.128906 -0.328125,0.316406 0,0.28125 0.316407,0.457032 0.855469,0.457032 1.3125,0 2.378906,-1.03125 2.378906,-2.296875 0,-0.503907 -0.1875,-0.925782 -0.527343,-1.253907 -0.304688,-0.28125 -0.585938,-0.410156 -1.230469,-0.5625 z M 20.692383,-107.93746 c -0.421875,0.52734 -0.539063,0.63281 -0.667969,0.63281 -0.05859,0 -0.08203,-0.0469 -0.08203,-0.14062 0,-0.0469 0,-0.0469 0.152344,-0.6211 l 0.632812,-2.39062 h -0.597656 c -0.433594,1.18359 -0.515625,1.38281 -0.878906,1.95703 -0.480469,0.75 -0.878907,1.16016 -1.125,1.16016 -0.105469,0 -0.175782,-0.082 -0.175782,-0.19922 0,-0.0234 0,-0.0469 0.01172,-0.0703 l 0.726563,-2.90625 -0.02344,-0.0117 c -0.46875,0.10546 -0.761719,0.15234 -1.195312,0.21093 v 0.11719 c 0.316406,0 0.316406,0 0.398437,0.0469 0.03516,0.0117 0.08203,0.082 0.08203,0.14062 0,0.0703 -0.04687,0.26953 -0.117187,0.53906 l -0.292969,1.13672 c -0.152344,0.58594 -0.199219,0.84375 -0.199219,0.98438 0,0.29297 0.140625,0.44531 0.421875,0.44531 0.5625,0 0.996094,-0.43359 1.910157,-1.98047 -0.234375,0.86719 -0.363282,1.39453 -0.363282,1.57031 0,0.25782 0.152344,0.38672 0.386719,0.38672 0.375,0 0.550781,-0.15234 1.101563,-0.9375 z m 6.46875,-1.55859 c -1.066406,0.1289 -1.605469,0.32812 -2.296875,0.83203 -1.007813,0.75 -1.628906,1.88672 -1.628906,3.03515 0,1.01953 0.585937,1.6875 1.464843,1.6875 1.078125,0 1.992188,-1.01953 1.992188,-2.22656 0,-0.82031 -0.574219,-1.40625 -1.359375,-1.40625 -0.222656,0 -0.492188,0.0586 -0.703125,0.16406 l -0.03516,-0.0117 c 0.550781,-1.01953 1.640625,-1.82812 2.578125,-1.94531 z m -2.085938,2.20312 c 0.550782,0 0.902344,0.39844 0.902344,1.01953 0,0.53906 -0.1875,1.17188 -0.492187,1.59375 -0.234375,0.36328 -0.515625,0.52735 -0.855469,0.52735 -0.492188,0 -0.785156,-0.38672 -0.785156,-1.04297 0,-0.55078 0.164062,-1.21875 0.375,-1.57032 0.210937,-0.36328 0.480468,-0.52734 0.855468,-0.52734 z m 137.616215,78.454102 c -0.42188,0.527344 -0.53907,0.632812 -0.66797,0.632812 -0.0586,0 -0.082,-0.04687 -0.082,-0.140625 0,-0.04687 0,-0.04687 0.15234,-0.621093 l 0.63281,-2.390625 h -0.59765 c -0.4336,1.183593 -0.51563,1.382812 -0.87891,1.957031 -0.48047,0.75 -0.87891,1.160156 -1.125,1.160156 -0.10547,0 -0.17578,-0.08203 -0.17578,-0.199219 0,-0.02344 0,-0.04687 0.0117,-0.07031 l 0.72656,-2.90625 -0.0234,-0.01172 c -0.46875,0.105469 -0.76172,0.152344 -1.19531,0.210938 v 0.117187 c 0.31641,0 0.31641,0 0.39844,0.04687 0.0352,0.01172 0.082,0.08203 0.082,0.140625 0,0.07031 -0.0469,0.269531 -0.11719,0.539063 l -0.29297,1.136718 c -0.15234,0.585938 -0.19922,0.84375 -0.19922,0.984375 0,0.292969 0.14063,0.445313 0.42188,0.445313 0.5625,0 0.99609,-0.433594 1.91015,-1.980469 -0.23437,0.867188 -0.36328,1.394531 -0.36328,1.570313 0,0.257812 0.15235,0.386718 0.38672,0.386718 0.375,0 0.55078,-0.152343 1.10156,-0.9375 z m 3.73828,-0.597656 c 0.26953,-0.375 0.55078,-0.539063 0.8789,-0.539063 0.4336,0 0.71485,0.292969 0.71485,0.726563 0,0.339843 -0.16407,0.621093 -0.51563,0.855468 -0.33984,0.234375 -0.67969,0.351563 -1.39453,0.480469 l 0.0117,0.117188 c 0.44531,0 0.52734,0.01172 0.72656,0.08203 0.49219,0.1875 0.75,0.621094 0.75,1.253906 0,0.28125 -0.0586,0.574219 -0.17578,0.761719 -0.1875,0.328125 -0.53906,0.550781 -0.86719,0.550781 -0.15234,0 -0.33984,-0.08203 -0.57422,-0.257812 -0.23437,-0.164063 -0.36328,-0.222657 -0.51562,-0.222657 -0.22266,0 -0.35156,0.105469 -0.35156,0.304688 0,0.304687 0.32812,0.480469 0.90234,0.480469 0.44531,0 0.86719,-0.105469 1.19531,-0.292969 0.6211,-0.375 1.03125,-1.042969 1.03125,-1.757813 0,-0.585937 -0.23437,-0.949218 -0.76172,-1.195312 v -0.02344 c 0.96094,-0.375 1.24219,-0.644531 1.24219,-1.183593 0,-0.585938 -0.48047,-1.019532 -1.125,-1.019532 -0.55078,0 -1.04297,0.316407 -1.30078,0.832032 z m -22.03711,-20.601563 c -0.42188,0.527344 -0.53906,0.632813 -0.66797,0.632813 -0.0586,0 -0.082,-0.04687 -0.082,-0.140625 0,-0.04687 0,-0.04687 0.15234,-0.621094 l 0.63281,-2.390625 h -0.59765 c -0.4336,1.183594 -0.51563,1.382812 -0.87891,1.957031 -0.48047,0.75 -0.8789,1.160156 -1.125,1.160156 -0.10547,0 -0.17578,-0.08203 -0.17578,-0.199218 0,-0.02344 0,-0.04687 0.0117,-0.07031 l 0.72656,-2.90625 -0.0234,-0.01172 c -0.46875,0.105469 -0.76171,0.152344 -1.19531,0.210938 v 0.117187 c 0.31641,0 0.31641,0 0.39844,0.04687 0.0352,0.01172 0.082,0.08203 0.082,0.140625 0,0.07031 -0.0469,0.269532 -0.11719,0.539063 l -0.29297,1.136719 c -0.15234,0.585937 -0.19921,0.84375 -0.19921,0.984375 0,0.292968 0.14062,0.445312 0.42187,0.445312 0.5625,0 0.99609,-0.433594 1.91016,-1.980469 -0.23438,0.867188 -0.36328,1.394532 -0.36328,1.570313 0,0.257812 0.15234,0.386719 0.38671,0.386719 0.375,0 0.55079,-0.152344 1.10157,-0.9375 z m 5.92969,2.003906 h -0.75 l 0.96093,-3.480468 h -0.32812 l -3.33985,3.457031 -0.15234,0.527344 h 2.09766 l -0.39844,1.429687 h 0.63281 l 0.375,-1.40625 h 0.79688 z m -1.40625,0 h -1.69922 v -0.02344 l 2.4375,-2.554688 h 0.0351 z m 0,0"
         style="fill:#231f20;fill-opacity:1;fill-rule:nonzero;stroke:none" />
    </g>
    <path
       id="path7"
       d="m 1667.25,610.25 v -259"
       style="fill:none;stroke:#231f20;stroke-width:2.5;stroke-linecap:butt;stroke-linejoin:miter;stroke-miterlimit:3.8637;stroke-dasharray:none;stroke-opacity:1"
       transform="matrix(0.13333333,0,0,-0.13333333,0,177.58667)" />
    <path
       id="path8"
       d="m 1667.25,608.25 h -15 l 15,37 15,-37 h -15"
       style="fill:#231f20;fill-opacity:1;fill-rule:evenodd;stroke:none"
       transform="matrix(0.13333333,0,0,-0.13333333,0,177.58667)" />
    <path
       id="path9"
       d="m 1667.25,351.25 h 260"
       style="fill:none;stroke:#231f20;stroke-width:2.5;stroke-linecap:butt;stroke-linejoin:miter;stroke-miterlimit:3.8637;stroke-dasharray:none;stroke-opacity:1"
       transform="matrix(0.13333333,0,0,-0.13333333,0,177.58667)" />
    <path
       id="path10"
       d="m 1924.25,351.25 v 15 l 38,-15 -38,-15 v 15"
       style="fill:#231f20;fill-opacity:1;fill-rule:evenodd;stroke:none"
       transform="matrix(0.13333333,0,0,-0.13333333,0,177.58667)" />
    <path
       id="path11"
       d="m 426.25,1185.25 v -260"
       style="fill:none;stroke:#231f20;stroke-width:2.5;stroke-linecap:butt;stroke-linejoin:miter;stroke-miterlimit:3.8637;stroke-dasharray:none;stroke-opacity:1"
       transform="matrix(0.13333333,0,0,-0.13333333,0,177.58667)" />
    <path
       id="path12"
       d="m 426.25,1182.25 h -15 l 15,38 15,-38 h -15"
       style="fill:#231f20;fill-opacity:1;fill-rule:evenodd;stroke:none"
       transform="matrix(0.13333333,0,0,-0.13333333,0,177.58667)" />
    <path
       id="path13"
       d="m 426.25,925.25 h 260"
       style="fill:none;stroke:#231f20;stroke-width:2.5;stroke-linecap:butt;stroke-linejoin:miter;stroke-miterlimit:3.8637;stroke-dasharray:none;stroke-opacity:1"
       transform="matrix(0.13333333,0,0,-0.13333333,0,177.58667)" />
    <path
       id="path14"
       d="m 683.25,925.25 v 15 l 38,-15 -38,-15 v 15"
       style="fill:#231f20;fill-opacity:1;fill-rule:evenodd;stroke:none"
       transform="matrix(0.13333333,0,0,-0.13333333,0,177.58667)" />
    <path
       id="path15"
       d="m 58.25,330.25 v -259"
       style="fill:none;stroke:#231f20;stroke-width:2.5;stroke-linecap:butt;stroke-linejoin:miter;stroke-miterlimit:3.8637;stroke-dasharray:none;stroke-opacity:1"
       transform="matrix(0.13333333,0,0,-0.13333333,0,177.58667)" />
    <path
       id="path16"
       d="m 58.25,328.25 h -15 l 15,37 15,-37 h -15"
       style="fill:#231f20;fill-opacity:1;fill-rule:evenodd;stroke:none"
       transform="matrix(0.13333333,0,0,-0.13333333,0,177.58667)" />
    <path
       id="path17"
       d="m 58.25,71.25 h 259"
       style="fill:none;stroke:#231f20;stroke-width:2.5;stroke-linecap:butt;stroke-linejoin:miter;stroke-miterlimit:3.8637;stroke-dasharray:none;stroke-opacity:1"
       transform="matrix(0.13333333,0,0,-0.13333333,0,177.58667)" />
    <path
       id="path18"
       d="m 315.25,71.25 v 15 l 37,-15 -37,-15 v 15"
       style="fill:#231f20;fill-opacity:1;fill-rule:evenodd;stroke:none"
       transform="matrix(0.13333333,0,0,-0.13333333,0,177.58667)" />
  </g>
</svg>
