<?xml version="1.0" encoding="UTF-8" standalone="no"?>
<!-- Created with Inkscape (http://www.inkscape.org/) -->

<svg
   version="1.1"
   id="svg1"
   width="564.77332"
   height="236.25333"
   viewBox="0 0 564.77332 236.25333"
   sodipodi:docname="PLANTS.EPS"
   xmlns:inkscape="http://www.inkscape.org/namespaces/inkscape"
   xmlns:sodipodi="http://sodipodi.sourceforge.net/DTD/sodipodi-0.dtd"
   xmlns="http://www.w3.org/2000/svg"
   xmlns:svg="http://www.w3.org/2000/svg">
  <defs
     id="defs1" />
  <sodipodi:namedview
     id="namedview1"
     pagecolor="#ffffff"
     bordercolor="#000000"
     borderopacity="0.25"
     inkscape:showpageshadow="2"
     inkscape:pageopacity="0.0"
     inkscape:pagecheckerboard="0"
     inkscape:deskcolor="#d1d1d1">
    <inkscape:page
       x="0"
       y="0"
       inkscape:label="1"
       id="page1"
       width="564.77332"
       height="236.25333"
       margin="0"
       bleed="0" />
  </sodipodi:namedview>
  <g
     id="g1"
     inkscape:groupmode="layer"
     inkscape:label="1">
    <path
       id="path1"
       d="m 534.25,513.25 1610,283 -1241,567 z"
       style="fill:none;stroke:#231f20;stroke-width:5;stroke-linecap:butt;stroke-linejoin:miter;stroke-miterlimit:3.8637;stroke-dasharray:none;stroke-opacity:1"
       transform="matrix(0.13333333,0,0,-0.13333333,0,236.25333)" />
    <path
       id="path2"
       d="m 608.25,863.25 h 68 c 16.039,-0.414 28.727,-13.105 29,-29 v -73 c -0.273,-15.723 -12.961,-28.414 -29,-28 h -68 c -15.582,-0.414 -28.273,12.277 -28,28 v 73 c -0.273,15.895 12.418,28.586 28,29"
       style="fill:#ffffff;fill-opacity:1;fill-rule:nonzero;stroke:none"
       transform="matrix(0.13333333,0,0,-0.13333333,0,236.25333)" />
    <path
       id="path3"
       d="m 810.25,657.25 h 69 c 15.32,0.414 28.012,-12.273 28,-28 v -73 c 0.012,-15.895 -12.68,-28.586 -28,-29 h -69 c -15.297,0.414 -27.988,13.105 -28,29 v 73 c 0.012,15.727 12.703,28.414 28,28"
       style="fill:#ffffff;fill-opacity:1;fill-rule:nonzero;stroke:none"
       transform="matrix(0.13333333,0,0,-0.13333333,0,236.25333)" />
    <g
       id="g3"
       aria-label="u&#10;1&#10;●&#10;●&#10;●&#10;u&#10;2&#10;u&#10;5&#10;u&#10;6&#10;u&#10;3&#10;u&#10;4"
       transform="matrix(1.3333333,0,0,1.3333333,105.1,159.55333)">
      <path
         id="path4"
         d="m 3.6925781,-0.93648438 c -0.421875,0.52734375 -0.5390625,0.6328125 -0.6679687,0.6328125 -0.058594,0 -0.082031,-0.046875 -0.082031,-0.140625 0,-0.046875 0,-0.046875 0.1523438,-0.62109372 l 0.6328125,-2.390625 H 3.1300781 c -0.4335937,1.1835937 -0.515625,1.3828125 -0.8789062,1.9570312 -0.4804688,0.75000002 -0.8789063,1.16015627 -1.125,1.16015627 -0.1054688,0 -0.17578127,-0.0820313 -0.17578127,-0.19921875 0,-0.0234375 0,-0.046875 0.0117188,-0.0703125 L 1.6886719,-3.5146094 1.6652344,-3.5263281 c -0.46875,0.1054687 -0.76171877,0.1523437 -1.19531252,0.2109375 v 0.1171875 c 0.31640625,0 0.31640625,0 0.3984375,0.046875 0.0351563,0.011719 0.0820313,0.082031 0.0820313,0.140625 0,0.070312 -0.046875,0.2695312 -0.1171875,0.5390625 l -0.29296875,1.1367187 c -0.15234375,0.58593752 -0.19921875,0.84375002 -0.19921875,0.98437502 0,0.29296875 0.140625,0.4453125 0.421875,0.4453125 0.56249992,0 0.99609372,-0.43359375 1.91015622,-1.98046872 -0.234375,0.8671875 -0.3632813,1.39453122 -0.3632813,1.57031247 0,0.2578125 0.1523438,0.38671875 0.3867188,0.38671875 0.375,0 0.5507812,-0.15234375 1.1015625,-0.9375 z M 6.3878906,3.0010156 H 8.6261719 V 2.8838281 h -0.140625 c -0.3867188,0 -0.5507813,-0.070312 -0.5507813,-0.2578125 0,-0.070312 0.023437,-0.1875 0.09375,-0.421875 0.023437,-0.046875 0.035156,-0.09375 0.058594,-0.1757812 l 1.1367187,-4.1484375 c 0.046875,-0.140625 0.046875,-0.1992188 0.046875,-0.234375 0,-0.035156 -0.011719,-0.058594 -0.035156,-0.058594 0,0 -0.2226563,0.046875 -0.65625,0.1289063 l -0.7265625,0.1523437 c -0.011719,0 -0.070312,0.011719 -0.1640625,0.023437 v 0.1171875 l 0.4570312,-0.011719 c 0.1875,-0.011719 0.3046875,0.09375 0.3046875,0.2460937 0,0.058594 -0.011719,0.1171875 -0.058594,0.28125 l -1.1015625,3.9375 c -0.09375,0.2929688 -0.2695313,0.375 -0.9023438,0.421875 z m 0,0"
         style="fill:#231f20;fill-opacity:1;fill-rule:nonzero;stroke:none" />
      <path
         id="path5"
         d="M -28.337695,9.7012109 V 3.2090234 h 3.375 v 6.4921875 z m 0.5625,-0.5625 h 2.25 V 3.7715234 h -2.25 z M 8.7638672,-75.201133 v -6.492187 h 3.3749998 v 6.492187 z m 0.5625,-0.5625 H 11.576367 V -81.13082 H 9.3263672 Z M 132.66328,-18.499961 v -6.492187 h 3.375 v 6.492187 z m 0.5625,-0.5625 h 2.25 v -5.367187 h -2.25 z m 0,0"
         style="fill:#231f20;fill-opacity:1;fill-rule:nonzero;stroke:none" />
      <path
         id="path6"
         d="m -16.00957,-22.238242 c -0.421875,0.527344 -0.539063,0.632812 -0.667969,0.632812 -0.05859,0 -0.08203,-0.04687 -0.08203,-0.140625 0,-0.04687 0,-0.04687 0.152343,-0.621093 l 0.632813,-2.390625 h -0.597656 c -0.433594,1.183593 -0.515625,1.382812 -0.878907,1.957031 -0.480468,0.75 -0.878906,1.160156 -1.125,1.160156 -0.105468,0 -0.175781,-0.08203 -0.175781,-0.199219 0,-0.02344 0,-0.04687 0.01172,-0.07031 l 0.726562,-2.90625 -0.02344,-0.01172 c -0.46875,0.105469 -0.761719,0.152344 -1.195313,0.210938 v 0.117187 c 0.316407,0 0.316407,0 0.398438,0.04687 0.03516,0.01172 0.08203,0.08203 0.08203,0.140625 0,0.07031 -0.04687,0.269531 -0.117187,0.539063 l -0.292969,1.136718 c -0.152344,0.585938 -0.199219,0.84375 -0.199219,0.984375 0,0.292969 0.140625,0.445313 0.421875,0.445313 0.5625,0 0.996094,-0.433594 1.910156,-1.980469 -0.234375,0.867188 -0.363281,1.394531 -0.363281,1.570313 0,0.257812 0.152344,0.386718 0.386719,0.386718 0.375,0 0.550781,-0.152343 1.101562,-0.9375 z m 5.607422,2.824219 c -0.1875,0.398437 -0.339844,0.492187 -0.785157,0.503906 h -1.523437 v -0.03516 l 1.535156,-1.535157 c 0.9375,-0.9375 1.1953126,-1.347656 1.1953126,-1.875 0,-0.761718 -0.5742186,-1.359375 -1.3007816,-1.359375 -0.292968,0 -0.585937,0.07031 -0.820312,0.210938 -0.410156,0.222656 -0.632813,0.492187 -0.855469,1.078125 l 0.164063,0.04687 c 0.292968,-0.515625 0.644531,-0.75 1.125,-0.75 0.574218,0 0.996093,0.421875 0.996093,0.972656 0,0.175781 -0.02344,0.328125 -0.07031,0.433594 -0.199219,0.433594 -0.5625,0.9375 -1.078125,1.488281 l -1.6875,1.792969 v 0.140625 h 2.847656 l 0.398438,-1.054688 z M 39.39082,-86.738242 c -0.421875,0.527344 -0.539062,0.632812 -0.667968,0.632812 -0.05859,0 -0.08203,-0.04687 -0.08203,-0.140625 0,-0.04687 0,-0.04687 0.152344,-0.621093 l 0.632813,-2.390625 H 38.82832 c -0.433593,1.183593 -0.515625,1.382812 -0.878906,1.957031 -0.480469,0.75 -0.878906,1.160156 -1.125,1.160156 -0.105469,0 -0.175781,-0.08203 -0.175781,-0.199219 0,-0.02344 0,-0.04687 0.01172,-0.07031 l 0.726562,-2.90625 -0.02344,-0.01172 c -0.46875,0.105469 -0.761719,0.152344 -1.195313,0.210938 v 0.117187 c 0.316406,0 0.316406,0 0.398438,0.04687 0.03516,0.01172 0.08203,0.08203 0.08203,0.140625 0,0.07031 -0.04687,0.269531 -0.117188,0.539063 l -0.292968,1.136718 c -0.152344,0.585938 -0.199219,0.84375 -0.199219,0.984375 0,0.292969 0.140625,0.445313 0.421875,0.445313 0.5625,0 0.996094,-0.433594 1.910156,-1.980469 -0.234375,0.867188 -0.363281,1.394531 -0.363281,1.570313 0,0.257812 0.152344,0.386718 0.386719,0.386718 0.375,0 0.550781,-0.152343 1.101562,-0.9375 z m 4.21875,-0.820313 h 1.839844 l 0.175781,-0.574218 h -2.039062 l -0.84375,1.746093 v 0.117188 c 0.785156,0.175781 1.042969,0.269531 1.335937,0.503906 0.257813,0.199219 0.421875,0.609375 0.421875,1.03125 0,0.867188 -0.644531,1.652344 -1.371093,1.652344 -0.164063,0 -0.304688,-0.05859 -0.539063,-0.234375 -0.199219,-0.152344 -0.328125,-0.199219 -0.445312,-0.199219 -0.1875,0 -0.328125,0.128906 -0.328125,0.316406 0,0.28125 0.316406,0.457032 0.855468,0.457032 1.3125,0 2.378907,-1.03125 2.378907,-2.296875 0,-0.503907 -0.1875,-0.925782 -0.527344,-1.253907 -0.304688,-0.28125 -0.585938,-0.410156 -1.230469,-0.5625 z M 20.690625,-107.93746 c -0.421875,0.52734 -0.539062,0.63281 -0.667969,0.63281 -0.05859,0 -0.08203,-0.0469 -0.08203,-0.14062 0,-0.0469 0,-0.0469 0.152344,-0.6211 l 0.632812,-2.39062 h -0.597656 c -0.433594,1.18359 -0.515625,1.38281 -0.878906,1.95703 -0.480469,0.75 -0.878906,1.16016 -1.125,1.16016 -0.105469,0 -0.175781,-0.082 -0.175781,-0.19922 0,-0.0234 0,-0.0469 0.01172,-0.0703 l 0.726563,-2.90625 -0.02344,-0.0117 c -0.46875,0.10546 -0.761718,0.15234 -1.195312,0.21093 v 0.11719 c 0.316406,0 0.316406,0 0.398437,0.0469 0.03516,0.0117 0.08203,0.082 0.08203,0.14062 0,0.0703 -0.04687,0.26953 -0.117188,0.53906 l -0.292969,1.13672 c -0.152343,0.58594 -0.199218,0.84375 -0.199218,0.98438 0,0.29297 0.140625,0.44531 0.421875,0.44531 0.5625,0 0.996093,-0.43359 1.910156,-1.98047 -0.234375,0.86719 -0.363281,1.39453 -0.363281,1.57031 0,0.25782 0.152343,0.38672 0.386718,0.38672 0.375,0 0.550782,-0.15234 1.101563,-0.9375 z m 6.46875,-1.55859 c -1.066406,0.1289 -1.605469,0.32812 -2.296875,0.83203 -1.007812,0.75 -1.628906,1.88672 -1.628906,3.03515 0,1.01953 0.585937,1.6875 1.464844,1.6875 1.078125,0 1.992187,-1.01953 1.992187,-2.22656 0,-0.82031 -0.574219,-1.40625 -1.359375,-1.40625 -0.222656,0 -0.492187,0.0586 -0.703125,0.16406 l -0.03516,-0.0117 c 0.550781,-1.01953 1.640625,-1.82812 2.578125,-1.94531 z m -2.085937,2.20312 c 0.550781,0 0.902343,0.39844 0.902343,1.01953 0,0.53906 -0.1875,1.17188 -0.492187,1.59375 -0.234375,0.36328 -0.515625,0.52735 -0.855469,0.52735 -0.492187,0 -0.785156,-0.38672 -0.785156,-1.04297 0,-0.55078 0.164062,-1.21875 0.375,-1.57032 0.210937,-0.36328 0.480469,-0.52734 0.855469,-0.52734 z m 137.619142,78.454102 c -0.42188,0.527344 -0.53906,0.632812 -0.66797,0.632812 -0.0586,0 -0.082,-0.04687 -0.082,-0.140625 0,-0.04687 0,-0.04687 0.15234,-0.621093 l 0.63281,-2.390625 h -0.59765 c -0.4336,1.183593 -0.51563,1.382812 -0.87891,1.957031 -0.48047,0.75 -0.8789,1.160156 -1.125,1.160156 -0.10547,0 -0.17578,-0.08203 -0.17578,-0.199219 0,-0.02344 0,-0.04687 0.0117,-0.07031 l 0.72656,-2.90625 -0.0234,-0.01172 c -0.46875,0.105469 -0.76171,0.152344 -1.19531,0.210938 v 0.117187 c 0.31641,0 0.31641,0 0.39844,0.04687 0.0352,0.01172 0.082,0.08203 0.082,0.140625 0,0.07031 -0.0469,0.269531 -0.11719,0.539063 l -0.29297,1.136718 c -0.15234,0.585938 -0.19921,0.84375 -0.19921,0.984375 0,0.292969 0.14062,0.445313 0.42187,0.445313 0.5625,0 0.99609,-0.433594 1.91016,-1.980469 -0.23438,0.867188 -0.36328,1.394531 -0.36328,1.570313 0,0.257812 0.15234,0.386718 0.38671,0.386718 0.375,0 0.55079,-0.152343 1.10157,-0.9375 z m 3.73828,-0.597656 c 0.26953,-0.375 0.55078,-0.539063 0.87891,-0.539063 0.43359,0 0.71484,0.292969 0.71484,0.726563 0,0.339843 -0.16406,0.621093 -0.51563,0.855468 -0.33984,0.234375 -0.67968,0.351563 -1.39453,0.480469 l 0.0117,0.117188 c 0.44531,0 0.52735,0.01172 0.72656,0.08203 0.49219,0.1875 0.75,0.621094 0.75,1.253906 0,0.28125 -0.0586,0.574219 -0.17578,0.761719 -0.1875,0.328125 -0.53906,0.550781 -0.86718,0.550781 -0.15235,0 -0.33985,-0.08203 -0.57422,-0.257812 -0.23438,-0.164063 -0.36328,-0.222657 -0.51563,-0.222657 -0.22265,0 -0.35156,0.105469 -0.35156,0.304688 0,0.304687 0.32812,0.480469 0.90234,0.480469 0.44532,0 0.86719,-0.105469 1.19532,-0.292969 0.62109,-0.375 1.03125,-1.042969 1.03125,-1.757813 0,-0.585937 -0.23438,-0.949218 -0.76172,-1.195312 v -0.02344 c 0.96093,-0.375 1.24218,-0.644531 1.24218,-1.183593 0,-0.585938 -0.48046,-1.019532 -1.125,-1.019532 -0.55078,0 -1.04296,0.316407 -1.30078,0.832032 z m -22.04004,-20.601563 c -0.42187,0.527344 -0.53906,0.632813 -0.66797,0.632813 -0.0586,0 -0.082,-0.04687 -0.082,-0.140625 0,-0.04687 0,-0.04687 0.15234,-0.621094 l 0.63282,-2.390625 h -0.59766 c -0.43359,1.183594 -0.51562,1.382812 -0.87891,1.957031 -0.48046,0.75 -0.8789,1.160156 -1.125,1.160156 -0.10546,0 -0.17578,-0.08203 -0.17578,-0.199218 0,-0.02344 0,-0.04687 0.0117,-0.07031 l 0.72656,-2.90625 -0.0234,-0.01172 c -0.46875,0.105469 -0.76172,0.152344 -1.19532,0.210938 v 0.117187 c 0.31641,0 0.31641,0 0.39844,0.04687 0.0352,0.01172 0.082,0.08203 0.082,0.140625 0,0.07031 -0.0469,0.269532 -0.11718,0.539063 l -0.29297,1.136719 c -0.15235,0.585937 -0.19922,0.84375 -0.19922,0.984375 0,0.292968 0.14062,0.445312 0.42187,0.445312 0.5625,0 0.9961,-0.433594 1.91016,-1.980469 -0.23438,0.867188 -0.36328,1.394532 -0.36328,1.570313 0,0.257812 0.15234,0.386719 0.38672,0.386719 0.375,0 0.55078,-0.152344 1.10156,-0.9375 z m 5.92969,2.003906 h -0.75 l 0.96094,-3.480468 h -0.32813 l -3.33984,3.457031 -0.15235,0.527344 h 2.09766 l -0.39844,1.429687 h 0.63281 l 0.375,-1.40625 h 0.79688 z m -1.40625,0 h -1.69922 v -0.02344 l 2.4375,-2.554688 h 0.0352 z m 0,0"
         style="fill:#231f20;fill-opacity:1;fill-rule:nonzero;stroke:none" />
    </g>
    <path
       id="path7"
       d="m 2144.25,1050.25 v -259"
       style="fill:none;stroke:#231f20;stroke-width:2.5;stroke-linecap:butt;stroke-linejoin:miter;stroke-miterlimit:3.8637;stroke-dasharray:none;stroke-opacity:1"
       transform="matrix(0.13333333,0,0,-0.13333333,0,236.25333)" />
    <path
       id="path8"
       d="m 2144.25,1048.25 h -15 l 15,37 15,-37 h -15"
       style="fill:#231f20;fill-opacity:1;fill-rule:evenodd;stroke:none"
       transform="matrix(0.13333333,0,0,-0.13333333,0,236.25333)" />
    <path
       id="path9"
       d="m 2144.25,791.25 h 260"
       style="fill:none;stroke:#231f20;stroke-width:2.5;stroke-linecap:butt;stroke-linejoin:miter;stroke-miterlimit:3.8637;stroke-dasharray:none;stroke-opacity:1"
       transform="matrix(0.13333333,0,0,-0.13333333,0,236.25333)" />
    <path
       id="path10"
       d="m 2401.25,791.25 v 15 l 38,-15 -38,-15 v 15"
       style="fill:#231f20;fill-opacity:1;fill-rule:evenodd;stroke:none"
       transform="matrix(0.13333333,0,0,-0.13333333,0,236.25333)" />
    <path
       id="path11"
       d="m 903.25,1625.25 v -260"
       style="fill:none;stroke:#231f20;stroke-width:2.5;stroke-linecap:butt;stroke-linejoin:miter;stroke-miterlimit:3.8637;stroke-dasharray:none;stroke-opacity:1"
       transform="matrix(0.13333333,0,0,-0.13333333,0,236.25333)" />
    <path
       id="path12"
       d="m 903.25,1622.25 h -15 l 15,38 15,-38 h -15"
       style="fill:#231f20;fill-opacity:1;fill-rule:evenodd;stroke:none"
       transform="matrix(0.13333333,0,0,-0.13333333,0,236.25333)" />
    <path
       id="path13"
       d="m 903.25,1365.25 h 260"
       style="fill:none;stroke:#231f20;stroke-width:2.5;stroke-linecap:butt;stroke-linejoin:miter;stroke-miterlimit:3.8637;stroke-dasharray:none;stroke-opacity:1"
       transform="matrix(0.13333333,0,0,-0.13333333,0,236.25333)" />
    <path
       id="path14"
       d="m 1160.25,1365.25 v 15 l 38,-15 -38,-15 v 15"
       style="fill:#231f20;fill-opacity:1;fill-rule:evenodd;stroke:none"
       transform="matrix(0.13333333,0,0,-0.13333333,0,236.25333)" />
    <path
       id="path15"
       d="m 534.25,770.25 v -259"
       style="fill:none;stroke:#231f20;stroke-width:2.5;stroke-linecap:butt;stroke-linejoin:miter;stroke-miterlimit:3.8637;stroke-dasharray:none;stroke-opacity:1"
       transform="matrix(0.13333333,0,0,-0.13333333,0,236.25333)" />
    <path
       id="path16"
       d="m 534.25,768.25 h -15 l 15,37 15,-37 h -15"
       style="fill:#231f20;fill-opacity:1;fill-rule:evenodd;stroke:none"
       transform="matrix(0.13333333,0,0,-0.13333333,0,236.25333)" />
    <path
       id="path17"
       d="m 534.25,511.25 h 260"
       style="fill:none;stroke:#231f20;stroke-width:2.5;stroke-linecap:butt;stroke-linejoin:miter;stroke-miterlimit:3.8637;stroke-dasharray:none;stroke-opacity:1"
       transform="matrix(0.13333333,0,0,-0.13333333,0,236.25333)" />
    <path
       id="path18"
       d="m 792.25,511.25 v 15 l 37,-15 -37,-15 v 15"
       style="fill:#231f20;fill-opacity:1;fill-rule:evenodd;stroke:none"
       transform="matrix(0.13333333,0,0,-0.13333333,0,236.25333)" />
    <g
       id="g18"
       aria-label="σ&#10;xx&#10;σ&#10;xy&#10;σ&#10;yy&#10;σ&#10;xx&#10;σ&#10;xy&#10;σ&#10;yy"
       transform="matrix(1.3333333,0,0,1.3333333,539.23333,141.42)">
      <path
         id="path19"
         d="M 0.61015625,0.00140625 V -7.4985938 H 6.6101563 v 7.50000005 z m 0.1875,-0.1875 H 6.4226563 V -7.3110938 H 0.79765625 Z m 0,0"
         style="fill:#231f20;fill-opacity:1;fill-rule:nonzero;stroke:none" />
      <path
         id="path20"
         d="m 11.318164,1.888125 c -0.08203,0.09375 -0.128906,0.1523437 -0.222656,0.2695312 -0.222656,0.3046875 -0.351563,0.3984375 -0.46875,0.3984375 -0.140625,0 -0.234375,-0.1289062 -0.304688,-0.4101562 C 10.298633,2.0404687 10.298633,2.0170312 10.286914,1.9935937 10.04082,0.9740625 9.9236328,0.51703125 9.9236328,0.3646875 c 0.4570312,-0.78515625 0.8085942,-1.20703125 0.9843752,-1.20703125 0.05859,0 0.152344,0.0234375 0.234375,0.0703125 0.128906,0.0703125 0.199219,0.09375 0.28125,0.09375 0.199219,0 0.339844,-0.15234375 0.339844,-0.36328125 0,-0.2109375 -0.164063,-0.3632813 -0.410157,-0.3632813 -0.433593,0 -0.808593,0.3632813 -1.4999997,1.42968755 L 9.7361328,-0.5259375 c -0.140625,-0.6796875 -0.2460937,-0.8789063 -0.515625,-0.8789063 -0.234375,0 -0.5507812,0.082031 -1.171875,0.2929688 -0.058594,0.011719 -0.058594,0.011719 -0.1054687,0.035156 l 0.035156,0.1523438 c 0.3867188,-0.1054688 0.4570313,-0.1171875 0.5625,-0.1171875 0.2460938,0 0.3046875,0.09375 0.4453125,0.69140625 L 9.2791016,0.8803125 8.4587891,2.0521875 C 8.2478516,2.356875 8.0603516,2.5326562 7.9431641,2.5326562 c -0.058594,0 -0.1523438,-0.035156 -0.2578125,-0.09375 -0.1289063,-0.070312 -0.2226563,-0.09375 -0.3164063,-0.09375 -0.1992187,0 -0.3398437,0.140625 -0.3398437,0.3515625 0,0.2578125 0.1875,0.4101563 0.5039062,0.4101563 0.3046875,0 0.421875,-0.082031 0.9257813,-0.6796875 C 8.7283203,2.0873437 8.9509766,1.794375 9.3611328,1.2435937 L 9.6541016,2.4389062 C 9.7830078,2.96625 9.9119141,3.106875 10.240039,3.106875 c 0.375,0 0.632813,-0.234375 1.21875,-1.1367188 z m 4.441406,0 c -0.08203,0.09375 -0.128906,0.1523437 -0.222656,0.2695312 -0.222656,0.3046875 -0.351562,0.3984375 -0.46875,0.3984375 -0.140625,0 -0.234375,-0.1289062 -0.304687,-0.4101562 -0.02344,-0.1054688 -0.02344,-0.1289063 -0.03516,-0.1523438 -0.246093,-1.0195312 -0.363281,-1.47656245 -0.363281,-1.6289062 0.457031,-0.78515625 0.808594,-1.20703125 0.984375,-1.20703125 0.05859,0 0.152344,0.0234375 0.234375,0.0703125 0.128906,0.0703125 0.199219,0.09375 0.28125,0.09375 0.199219,0 0.339844,-0.15234375 0.339844,-0.36328125 0,-0.2109375 -0.164063,-0.3632813 -0.410156,-0.3632813 -0.433594,0 -0.808594,0.3632813 -1.5,1.42968755 L 14.177539,-0.5259375 c -0.140625,-0.6796875 -0.246094,-0.8789063 -0.515625,-0.8789063 -0.234375,0 -0.550781,0.082031 -1.171875,0.2929688 -0.05859,0.011719 -0.05859,0.011719 -0.105469,0.035156 l 0.03516,0.1523438 c 0.386718,-0.1054688 0.457031,-0.1171875 0.5625,-0.1171875 0.246093,0 0.304687,0.09375 0.445312,0.69140625 l 0.292969,1.23046875 -0.820313,1.171875 c -0.210937,0.3046875 -0.398437,0.4804687 -0.515625,0.4804687 -0.05859,0 -0.152343,-0.035156 -0.257812,-0.09375 -0.128906,-0.070312 -0.222656,-0.09375 -0.316406,-0.09375 -0.199219,0 -0.339844,0.140625 -0.339844,0.3515625 0,0.2578125 0.1875,0.4101563 0.503906,0.4101563 0.304688,0 0.421875,-0.082031 0.925781,-0.6796875 0.269532,-0.3398438 0.492188,-0.6328125 0.902344,-1.1835938 l 0.292969,1.1953125 c 0.128906,0.5273438 0.257812,0.6679688 0.585937,0.6679688 0.375,0 0.632813,-0.234375 1.21875,-1.1367188 z m 0,0"
         style="fill:#231f20;fill-opacity:1;fill-rule:nonzero;stroke:none" />
      <path
         id="path21"
         d="m -27.591016,-41.699766 v -7.5 h 6 v 7.5 z m 0.1875,-0.1875 h 5.625 v -7.125 h -5.625 z m 0,0"
         style="fill:#231f20;fill-opacity:1;fill-rule:nonzero;stroke:none" />
      <path
         id="path22"
         d="m -16.979687,-39.813047 c -0.08203,0.09375 -0.128907,0.152344 -0.222657,0.269531 -0.222656,0.304688 -0.351562,0.398438 -0.46875,0.398438 -0.140625,0 -0.234375,-0.128906 -0.304687,-0.410156 -0.02344,-0.105469 -0.02344,-0.128907 -0.03516,-0.152344 -0.246094,-1.019531 -0.363282,-1.476563 -0.363282,-1.628906 0.457032,-0.785157 0.808594,-1.207032 0.984375,-1.207032 0.05859,0 0.152344,0.02344 0.234375,0.07031 0.128907,0.07031 0.199219,0.09375 0.28125,0.09375 0.199219,0 0.339844,-0.152344 0.339844,-0.363281 0,-0.210938 -0.164062,-0.363282 -0.410156,-0.363282 -0.433594,0 -0.808594,0.363282 -1.5,1.429688 l -0.117188,-0.550781 c -0.140625,-0.679688 -0.246093,-0.878907 -0.515625,-0.878907 -0.234375,0 -0.550781,0.08203 -1.171875,0.292969 -0.05859,0.01172 -0.05859,0.01172 -0.105468,0.03516 l 0.03516,0.152344 c 0.386719,-0.105469 0.457031,-0.117187 0.5625,-0.117187 0.246094,0 0.304687,0.09375 0.445312,0.691406 l 0.292969,1.230469 -0.820312,1.171875 c -0.210938,0.304687 -0.398438,0.480468 -0.515625,0.480468 -0.05859,0 -0.152344,-0.03516 -0.257813,-0.09375 -0.128906,-0.07031 -0.222656,-0.09375 -0.316406,-0.09375 -0.199219,0 -0.339844,0.140625 -0.339844,0.351563 0,0.257812 0.1875,0.410156 0.503906,0.410156 0.304688,0 0.421875,-0.08203 0.925782,-0.679687 0.269531,-0.339844 0.492187,-0.632813 0.902343,-1.183594 l 0.292969,1.195312 c 0.128906,0.527344 0.257813,0.667969 0.585938,0.667969 0.375,0 0.632812,-0.234375 1.21875,-1.136719 z m 0.571289,-2.882812 c 0.117187,-0.03516 0.199218,-0.04687 0.304687,-0.04687 0.410156,0 0.597656,0.164062 0.796875,0.703125 0.28125,0.738281 0.796875,2.882812 0.796875,3.257812 0,0.164063 -0.07031,0.316406 -0.210937,0.515625 -0.28125,0.363281 -0.515625,0.644531 -0.632813,0.773438 -0.210937,0.222656 -0.316406,0.304687 -0.445312,0.304687 -0.07031,0 -0.128907,-0.03516 -0.246094,-0.117187 -0.140625,-0.117188 -0.246094,-0.164063 -0.363281,-0.164063 -0.222657,0 -0.386719,0.164063 -0.386719,0.386719 0,0.257812 0.199219,0.445312 0.503906,0.445312 0.644531,0 1.945313,-1.488281 3.023438,-3.480468 0.679687,-1.230469 0.960937,-1.945313 0.960937,-2.4375 0,-0.304688 -0.246094,-0.550782 -0.550781,-0.550782 -0.222656,0 -0.386719,0.152344 -0.386719,0.363282 0,0.164062 0.08203,0.269531 0.28125,0.398437 0.1875,0.105469 0.257813,0.199219 0.257813,0.339844 0,0.398437 -0.351563,1.160156 -1.21875,2.589844 l -0.199219,-1.160157 c -0.152344,-0.890625 -0.703125,-2.53125 -0.855469,-2.53125 h -0.04687 c -0.01172,0.01172 -0.04687,0.01172 -0.08203,0.01172 -0.08203,0.01172 -0.457031,0.07031 -0.984375,0.164063 -0.04687,0.01172 -0.175781,0.04687 -0.316406,0.05859 z m 0,0"
         style="fill:#231f20;fill-opacity:1;fill-rule:nonzero;stroke:none" />
      <path
         id="path23"
         d="m -50.290234,57.499453 v -7.5 h 6 v 7.5 z m 0.1875,-0.1875 h 5.625 v -7.125 h -5.625 z m 0,0"
         style="fill:#231f20;fill-opacity:1;fill-rule:nonzero;stroke:none" />
      <path
         id="path24"
         d="m -43.446484,56.503359 c 0.117187,-0.03516 0.199218,-0.04687 0.304687,-0.04687 0.410156,0 0.597656,0.164063 0.796875,0.703125 0.28125,0.738282 0.796875,2.882813 0.796875,3.257813 0,0.164062 -0.07031,0.316406 -0.210937,0.515625 -0.28125,0.363281 -0.515625,0.644531 -0.632813,0.773437 -0.210937,0.222657 -0.316406,0.304688 -0.445312,0.304688 -0.07031,0 -0.128907,-0.03516 -0.246094,-0.117188 -0.140625,-0.117187 -0.246094,-0.164062 -0.363281,-0.164062 -0.222657,0 -0.386719,0.164062 -0.386719,0.386719 0,0.257812 0.199219,0.445312 0.503906,0.445312 0.644531,0 1.945313,-1.488281 3.023438,-3.480469 0.679687,-1.230468 0.960937,-1.945312 0.960937,-2.4375 0,-0.304687 -0.246094,-0.550781 -0.550781,-0.550781 -0.222656,0 -0.386719,0.152344 -0.386719,0.363281 0,0.164063 0.08203,0.269532 0.28125,0.398438 0.1875,0.105469 0.257813,0.199219 0.257813,0.339844 0,0.398437 -0.351563,1.160156 -1.21875,2.589843 l -0.199219,-1.160156 c -0.152344,-0.890625 -0.703125,-2.53125 -0.855469,-2.53125 h -0.04687 c -0.01172,0.01172 -0.04687,0.01172 -0.08203,0.01172 -0.08203,0.01172 -0.457031,0.07031 -0.984375,0.164062 -0.04687,0.01172 -0.175781,0.04687 -0.316406,0.05859 z m 4.438476,0 c 0.117188,-0.03516 0.199219,-0.04687 0.304688,-0.04687 0.410156,0 0.597656,0.164063 0.796875,0.703125 0.28125,0.738282 0.796875,2.882813 0.796875,3.257813 0,0.164062 -0.07031,0.316406 -0.210938,0.515625 -0.28125,0.363281 -0.515625,0.644531 -0.632812,0.773437 -0.210938,0.222657 -0.316407,0.304688 -0.445313,0.304688 -0.07031,0 -0.128906,-0.03516 -0.246094,-0.117188 -0.140625,-0.117187 -0.246093,-0.164062 -0.363281,-0.164062 -0.222656,0 -0.386719,0.164062 -0.386719,0.386719 0,0.257812 0.199219,0.445312 0.503907,0.445312 0.644531,0 1.945312,-1.488281 3.023437,-3.480469 0.679688,-1.230468 0.960938,-1.945312 0.960938,-2.4375 0,-0.304687 -0.246094,-0.550781 -0.550782,-0.550781 -0.222656,0 -0.386718,0.152344 -0.386718,0.363281 0,0.164063 0.08203,0.269532 0.28125,0.398438 0.1875,0.105469 0.257812,0.199219 0.257812,0.339844 0,0.398437 -0.351562,1.160156 -1.21875,2.589843 l -0.199219,-1.160156 c -0.152343,-0.890625 -0.703125,-2.53125 -0.855468,-2.53125 h -0.04687 c -0.01172,0.01172 -0.04687,0.01172 -0.08203,0.01172 -0.08203,0.01172 -0.457031,0.07031 -0.984375,0.164062 -0.04687,0.01172 -0.175781,0.04687 -0.316406,0.05859 z m 0,0"
         style="fill:#231f20;fill-opacity:1;fill-rule:nonzero;stroke:none" />
      <path
         id="path25"
         d="M -126.49141,0.39984375 V -7.1001563 h 6 v 7.50000005 z m 0.1875,-0.1875 h 5.625 V -6.9126563 h -5.625 z m 0,0"
         style="fill:#231f20;fill-opacity:1;fill-rule:nonzero;stroke:none" />
      <path
         id="path26"
         d="m -115.78047,2.2865625 c -0.082,0.09375 -0.1289,0.1523437 -0.22265,0.2695312 -0.22266,0.3046875 -0.35157,0.3984375 -0.46875,0.3984375 -0.14063,0 -0.23438,-0.1289062 -0.30469,-0.4101562 C -116.8,2.4389062 -116.8,2.4154687 -116.81172,2.3920312 -117.05781,1.3725 -117.175,0.91546875 -117.175,0.763125 c 0.45703,-0.78515625 0.80859,-1.20703125 0.98438,-1.20703125 0.0586,0 0.15234,0.0234375 0.23437,0.0703125 0.12891,0.0703125 0.19922,0.09375 0.28125,0.09375 0.19922,0 0.33984,-0.15234375 0.33984,-0.36328125 0,-0.2109375 -0.16406,-0.3632813 -0.41015,-0.3632813 -0.4336,0 -0.8086,0.3632813 -1.5,1.42968755 L -117.3625,-0.1275 c -0.14062,-0.6796875 -0.24609,-0.8789063 -0.51562,-0.8789063 -0.23438,0 -0.55079,0.0820313 -1.17188,0.2929688 -0.0586,0.0117188 -0.0586,0.0117188 -0.10547,0.0351563 l 0.0352,0.15234375 c 0.38672,-0.10546875 0.45703,-0.1171875 0.5625,-0.1171875 0.24609,0 0.30469,0.09375 0.44531,0.69140625 l 0.29297,1.2304687 -0.82031,1.171875 c -0.21094,0.3046875 -0.39844,0.4804687 -0.51563,0.4804687 -0.0586,0 -0.15234,-0.035156 -0.25781,-0.09375 -0.12891,-0.070312 -0.22266,-0.09375 -0.31641,-0.09375 -0.19922,0 -0.33984,0.140625 -0.33984,0.3515625 0,0.2578125 0.1875,0.4101563 0.50391,0.4101563 0.30468,0 0.42187,-0.082031 0.92578,-0.6796875 0.26953,-0.3398438 0.49218,-0.6328125 0.90234,-1.1835938 l 0.29297,1.1953125 c 0.12891,0.5273438 0.25781,0.6679688 0.58594,0.6679688 0.375,0 0.63281,-0.234375 1.21875,-1.1367188 z m 4.44141,0 c -0.082,0.09375 -0.12891,0.1523437 -0.22266,0.2695312 -0.22265,0.3046875 -0.35156,0.3984375 -0.46875,0.3984375 -0.14062,0 -0.23437,-0.1289062 -0.30469,-0.4101562 -0.0234,-0.1054688 -0.0234,-0.1289063 -0.0352,-0.1523438 -0.2461,-1.0195312 -0.36328,-1.47656245 -0.36328,-1.6289062 0.45703,-0.78515625 0.80859,-1.20703125 0.98437,-1.20703125 0.0586,0 0.15235,0.0234375 0.23438,0.0703125 0.1289,0.0703125 0.19922,0.09375 0.28125,0.09375 0.19922,0 0.33984,-0.15234375 0.33984,-0.36328125 0,-0.2109375 -0.16406,-0.3632813 -0.41016,-0.3632813 -0.43359,0 -0.80859,0.3632813 -1.5,1.42968755 L -112.92109,-0.1275 c -0.14063,-0.6796875 -0.2461,-0.8789063 -0.51563,-0.8789063 -0.23437,0 -0.55078,0.0820313 -1.17187,0.2929688 -0.0586,0.0117188 -0.0586,0.0117188 -0.10547,0.0351563 l 0.0352,0.15234375 c 0.38672,-0.10546875 0.45704,-0.1171875 0.5625,-0.1171875 0.2461,0 0.30469,0.09375 0.44532,0.69140625 l 0.29297,1.2304687 -0.82032,1.171875 c -0.21093,0.3046875 -0.39843,0.4804687 -0.51562,0.4804687 -0.0586,0 -0.15235,-0.035156 -0.25781,-0.09375 -0.12891,-0.070312 -0.22266,-0.09375 -0.31641,-0.09375 -0.19922,0 -0.33984,0.140625 -0.33984,0.3515625 0,0.2578125 0.1875,0.4101563 0.5039,0.4101563 0.30469,0 0.42188,-0.082031 0.92578,-0.6796875 0.26953,-0.3398438 0.49219,-0.6328125 0.90235,-1.1835938 l 0.29297,1.1953125 c 0.1289,0.5273438 0.25781,0.6679688 0.58593,0.6679688 0.375,0 0.63282,-0.234375 1.21875,-1.1367188 z m 0,0"
         style="fill:#231f20;fill-opacity:1;fill-rule:nonzero;stroke:none" />
      <path
         id="path27"
         d="m -100.29121,22.501406 v -7.5 h 5.999999 v 7.5 z m 0.1875,-0.1875 h 5.624999 v -7.125 h -5.624999 z m 0,0"
         style="fill:#231f20;fill-opacity:1;fill-rule:nonzero;stroke:none" />
      <path
         id="path28"
         d="m -89.580273,24.388125 c -0.08203,0.09375 -0.128907,0.152344 -0.222657,0.269531 -0.222656,0.304688 -0.351562,0.398438 -0.46875,0.398438 -0.140625,0 -0.234375,-0.128907 -0.304687,-0.410157 -0.02344,-0.105468 -0.02344,-0.128906 -0.03516,-0.152343 -0.246094,-1.019532 -0.363282,-1.476563 -0.363282,-1.628907 0.457032,-0.785156 0.808594,-1.207031 0.984375,-1.207031 0.05859,0 0.152344,0.02344 0.234375,0.07031 0.128907,0.07031 0.199219,0.09375 0.28125,0.09375 0.199219,0 0.339844,-0.152344 0.339844,-0.363282 0,-0.210937 -0.164062,-0.363281 -0.410156,-0.363281 -0.433594,0 -0.808594,0.363281 -1.5,1.429688 l -0.117188,-0.550782 c -0.140625,-0.679687 -0.246093,-0.878906 -0.515625,-0.878906 -0.234375,0 -0.550781,0.08203 -1.171875,0.292969 -0.05859,0.01172 -0.05859,0.01172 -0.105468,0.03516 l 0.03516,0.152344 c 0.386719,-0.105469 0.457031,-0.117188 0.5625,-0.117188 0.246094,0 0.304687,0.09375 0.445312,0.691407 l 0.292969,1.230468 -0.820312,1.171875 c -0.210938,0.304688 -0.398438,0.480469 -0.515625,0.480469 -0.05859,0 -0.152344,-0.03516 -0.257813,-0.09375 -0.128906,-0.07031 -0.222656,-0.09375 -0.316406,-0.09375 -0.199219,0 -0.339844,0.140625 -0.339844,0.351563 0,0.257812 0.1875,0.410156 0.503906,0.410156 0.304688,0 0.421875,-0.08203 0.925782,-0.679688 0.269531,-0.339843 0.492187,-0.632812 0.902343,-1.183593 l 0.292969,1.195312 c 0.128906,0.527344 0.257813,0.667969 0.585938,0.667969 0.375,0 0.632812,-0.234375 1.21875,-1.136719 z m 0.571289,-2.882813 c 0.117187,-0.03516 0.199218,-0.04687 0.304687,-0.04687 0.410156,0 0.597656,0.164063 0.796875,0.703125 0.28125,0.738282 0.796875,2.882813 0.796875,3.257813 0,0.164062 -0.07031,0.316406 -0.210937,0.515625 -0.28125,0.363281 -0.515625,0.644531 -0.632813,0.773437 -0.210937,0.222657 -0.316406,0.304688 -0.445312,0.304688 -0.07031,0 -0.128907,-0.03516 -0.246094,-0.117188 -0.140625,-0.117187 -0.246094,-0.164062 -0.363281,-0.164062 -0.222657,0 -0.386719,0.164062 -0.386719,0.386719 0,0.257812 0.199219,0.445312 0.503906,0.445312 0.644531,0 1.945313,-1.488281 3.023438,-3.480469 0.679687,-1.230468 0.960937,-1.945312 0.960937,-2.4375 0,-0.304687 -0.246094,-0.550781 -0.550781,-0.550781 -0.222656,0 -0.386719,0.152344 -0.386719,0.363281 0,0.164063 0.08203,0.269532 0.28125,0.398438 0.1875,0.105469 0.257813,0.199219 0.257813,0.339844 0,0.398437 -0.351563,1.160156 -1.21875,2.589843 l -0.199219,-1.160156 c -0.152344,-0.890625 -0.703125,-2.53125 -0.855469,-2.53125 h -0.04687 c -0.01172,0.01172 -0.04687,0.01172 -0.08203,0.01172 -0.08203,0.01172 -0.457031,0.07031 -0.984375,0.164062 -0.04687,0.01172 -0.175781,0.04687 -0.316406,0.05859 z m 0,0"
         style="fill:#231f20;fill-opacity:1;fill-rule:nonzero;stroke:none" />
      <path
         id="path29"
         d="m -49.291211,-70.700742 v -7.5 h 6 v 7.5 z m 0.1875,-0.1875 h 5.625 v -7.125 h -5.625 z m 0,0"
         style="fill:#231f20;fill-opacity:1;fill-rule:nonzero;stroke:none" />
      <path
         id="path30"
         d="m -42.54707,-71.696836 c 0.117187,-0.03516 0.199218,-0.04687 0.304687,-0.04687 0.410156,0 0.597656,0.164063 0.796875,0.703125 0.28125,0.738281 0.796875,2.882813 0.796875,3.257813 0,0.164062 -0.07031,0.316406 -0.210937,0.515625 -0.28125,0.363281 -0.515625,0.644531 -0.632813,0.773437 -0.210937,0.222656 -0.316406,0.304688 -0.445312,0.304688 -0.07031,0 -0.128907,-0.03516 -0.246094,-0.117188 -0.140625,-0.117187 -0.246094,-0.164062 -0.363281,-0.164062 -0.222657,0 -0.386719,0.164062 -0.386719,0.386718 0,0.257813 0.199219,0.445313 0.503906,0.445313 0.644531,0 1.945313,-1.488281 3.023438,-3.480469 0.679687,-1.230469 0.960937,-1.945312 0.960937,-2.4375 0,-0.304687 -0.246094,-0.550781 -0.550781,-0.550781 -0.222656,0 -0.386719,0.152344 -0.386719,0.363281 0,0.164063 0.08203,0.269531 0.28125,0.398438 0.1875,0.105468 0.257813,0.199218 0.257813,0.339843 0,0.398438 -0.351563,1.160157 -1.21875,2.589844 l -0.199219,-1.160156 c -0.152344,-0.890625 -0.703125,-2.53125 -0.855469,-2.53125 h -0.04687 c -0.01172,0.01172 -0.04687,0.01172 -0.08203,0.01172 -0.08203,0.01172 -0.457031,0.07031 -0.984375,0.164062 -0.04687,0.01172 -0.175781,0.04687 -0.316406,0.05859 z m 4.438476,0 c 0.117188,-0.03516 0.199219,-0.04687 0.304688,-0.04687 0.410156,0 0.597656,0.164063 0.796875,0.703125 0.28125,0.738281 0.796875,2.882813 0.796875,3.257813 0,0.164062 -0.07031,0.316406 -0.210938,0.515625 -0.28125,0.363281 -0.515625,0.644531 -0.632812,0.773437 -0.210938,0.222656 -0.316406,0.304688 -0.445313,0.304688 -0.07031,0 -0.128906,-0.03516 -0.246093,-0.117188 -0.140625,-0.117187 -0.246094,-0.164062 -0.363282,-0.164062 -0.222656,0 -0.386718,0.164062 -0.386718,0.386718 0,0.257813 0.199218,0.445313 0.503906,0.445313 0.644531,0 1.945312,-1.488281 3.023437,-3.480469 0.679688,-1.230469 0.960938,-1.945312 0.960938,-2.4375 0,-0.304687 -0.246094,-0.550781 -0.550781,-0.550781 -0.222657,0 -0.386719,0.152344 -0.386719,0.363281 0,0.164063 0.08203,0.269531 0.28125,0.398438 0.1875,0.105468 0.257812,0.199218 0.257812,0.339843 0,0.398438 -0.351562,1.160157 -1.21875,2.589844 l -0.199218,-1.160156 c -0.152344,-0.890625 -0.703125,-2.53125 -0.855469,-2.53125 h -0.04687 c -0.01172,0.01172 -0.04687,0.01172 -0.08203,0.01172 -0.08203,0.01172 -0.457032,0.07031 -0.984375,0.164062 -0.04687,0.01172 -0.175782,0.04687 -0.316407,0.05859 z m 0,0"
         style="fill:#231f20;fill-opacity:1;fill-rule:nonzero;stroke:none" />
    </g>
    <path
       id="path31"
       d="m 3487.25,1483.25 v -351"
       style="fill:none;stroke:#231f20;stroke-width:2.5;stroke-linecap:butt;stroke-linejoin:miter;stroke-miterlimit:3.8637;stroke-dasharray:none;stroke-opacity:1"
       transform="matrix(0.13333333,0,0,-0.13333333,0,236.25333)" />
    <path
       id="path32"
       d="m 3487.25,1481.25 h -15 l 15,37 15,-37 h -15"
       style="fill:#231f20;fill-opacity:1;fill-rule:evenodd;stroke:none"
       transform="matrix(0.13333333,0,0,-0.13333333,0,236.25333)" />
    <path
       id="path33"
       d="m 3161.25,812.25 h -352"
       style="fill:none;stroke:#231f20;stroke-width:2.5;stroke-linecap:butt;stroke-linejoin:miter;stroke-miterlimit:3.8637;stroke-dasharray:none;stroke-opacity:1"
       transform="matrix(0.13333333,0,0,-0.13333333,0,236.25333)" />
    <path
       id="path34"
       d="m 2812.25,812.25 v -15 l -38,15 38,15 v -15"
       style="fill:#231f20;fill-opacity:1;fill-rule:evenodd;stroke:none"
       transform="matrix(0.13333333,0,0,-0.13333333,0,236.25333)" />
    <path
       id="path35"
       d="m 3487.25,132.25 v 351"
       style="fill:none;stroke:#231f20;stroke-width:2.5;stroke-linecap:butt;stroke-linejoin:miter;stroke-miterlimit:3.8637;stroke-dasharray:none;stroke-opacity:1"
       transform="matrix(0.13333333,0,0,-0.13333333,0,236.25333)" />
    <path
       id="path36"
       d="m 3487.25,135.25 h 15 l -15,-38 -15,38 h 15"
       style="fill:#231f20;fill-opacity:1;fill-rule:evenodd;stroke:none"
       transform="matrix(0.13333333,0,0,-0.13333333,0,236.25333)" />
    <path
       id="path37"
       d="m 3825.25,814.25 h 351"
       style="fill:none;stroke:#231f20;stroke-width:2.5;stroke-linecap:butt;stroke-linejoin:miter;stroke-miterlimit:3.8637;stroke-dasharray:none;stroke-opacity:1"
       transform="matrix(0.13333333,0,0,-0.13333333,0,236.25333)" />
    <path
       id="path38"
       d="m 4173.25,814.25 v 15 l 38,-15 -38,-15 v 15"
       style="fill:#231f20;fill-opacity:1;fill-rule:evenodd;stroke:none"
       transform="matrix(0.13333333,0,0,-0.13333333,0,236.25333)" />
    <path
       id="path39"
       d="m 3794.25,986.25 v -351"
       style="fill:none;stroke:#231f20;stroke-width:2.5;stroke-linecap:butt;stroke-linejoin:miter;stroke-miterlimit:3.8637;stroke-dasharray:none;stroke-opacity:1"
       transform="matrix(0.13333333,0,0,-0.13333333,0,236.25333)" />
    <path
       id="path40"
       d="m 3794.25,984.25 h -15 l 15,37 15,-37 h -15"
       style="fill:#231f20;fill-opacity:1;fill-rule:evenodd;stroke:none"
       transform="matrix(0.13333333,0,0,-0.13333333,0,236.25333)" />
    <path
       id="path41"
       d="m 3674.25,513.25 h -351"
       style="fill:none;stroke:#231f20;stroke-width:2.5;stroke-linecap:butt;stroke-linejoin:miter;stroke-miterlimit:3.8637;stroke-dasharray:none;stroke-opacity:1"
       transform="matrix(0.13333333,0,0,-0.13333333,0,236.25333)" />
    <path
       id="path42"
       d="m 3325.25,513.25 v -15 l -37,15 37,15 v -15"
       style="fill:#231f20;fill-opacity:1;fill-rule:evenodd;stroke:none"
       transform="matrix(0.13333333,0,0,-0.13333333,0,236.25333)" />
    <path
       id="path43"
       d="m 3181.25,645.25 v 351"
       style="fill:none;stroke:#231f20;stroke-width:2.5;stroke-linecap:butt;stroke-linejoin:miter;stroke-miterlimit:3.8637;stroke-dasharray:none;stroke-opacity:1"
       transform="matrix(0.13333333,0,0,-0.13333333,0,236.25333)" />
    <path
       id="path44"
       d="m 3181.25,648.25 h 15 l -15,-38 -15,38 h 15"
       style="fill:#231f20;fill-opacity:1;fill-rule:evenodd;stroke:none"
       transform="matrix(0.13333333,0,0,-0.13333333,0,236.25333)" />
    <path
       id="path45"
       d="m 3310.25,1113.25 h 352"
       style="fill:none;stroke:#231f20;stroke-width:2.5;stroke-linecap:butt;stroke-linejoin:miter;stroke-miterlimit:3.8637;stroke-dasharray:none;stroke-opacity:1"
       transform="matrix(0.13333333,0,0,-0.13333333,0,236.25333)" />
    <path
       id="path46"
       d="m 3659.25,1113.25 v 15 l 38,-15 -38,-15 v 15"
       style="fill:#231f20;fill-opacity:1;fill-rule:evenodd;stroke:none"
       transform="matrix(0.13333333,0,0,-0.13333333,0,236.25333)" />
    <path
       id="path47"
       d="m 3219.25,1084.25 h 538 v -539 h -538 v 539"
       style="fill:#e9e9e9;fill-opacity:1;fill-rule:nonzero;stroke:none"
       transform="matrix(0.13333333,0,0,-0.13333333,0,236.25333)" />
    <path
       id="path48"
       d="m 3219.25,1084.25 h 538 v -539 h -538 z"
       style="fill:none;stroke:#231f20;stroke-width:5;stroke-linecap:butt;stroke-linejoin:miter;stroke-miterlimit:3.8637;stroke-dasharray:none;stroke-opacity:1"
       transform="matrix(0.13333333,0,0,-0.13333333,0,236.25333)" />
    <path
       id="path49"
       d="m 1058.25,986.25 h 162 v -161 h -162 v 161"
       style="fill:#e9e9e9;fill-opacity:1;fill-rule:nonzero;stroke:none"
       transform="matrix(0.13333333,0,0,-0.13333333,0,236.25333)" />
    <path
       id="path50"
       d="m 1058.25,986.25 h 162 v -161 h -162 z"
       style="fill:none;stroke:#231f20;stroke-width:5;stroke-linecap:butt;stroke-linejoin:miter;stroke-miterlimit:3.8637;stroke-dasharray:none;stroke-opacity:1"
       transform="matrix(0.13333333,0,0,-0.13333333,0,236.25333)" />
    <path
       id="path51"
       d="m 1304.25,1023.25 c 259.24,166.46 553.31,264.76 867,275 296.25,9.84 579.85,-59.62 837,-193"
       style="fill:none;stroke:#231f20;stroke-width:2.5;stroke-linecap:butt;stroke-linejoin:miter;stroke-miterlimit:3.8637;stroke-dasharray:none;stroke-opacity:1"
       transform="matrix(0.13333333,0,0,-0.13333333,0,236.25333)" />
    <path
       id="path52"
       d="m 3006.25,1107.25 7,13 26,-30 -40,3 7,14"
       style="fill:#231f20;fill-opacity:1;fill-rule:evenodd;stroke:none"
       transform="matrix(0.13333333,0,0,-0.13333333,0,236.25333)" />
    <path
       id="path53"
       d="m 4.8279297,-1.3366797 c -0.1054688,0.1171875 -0.1640625,0.1875 -0.2695313,0.328125 -0.2695312,0.36328126 -0.421875,0.48046876 -0.5625,0.48046876 -0.1640625,0 -0.28125,-0.15234375 -0.3632812,-0.49218746 -0.035156,-0.1289063 -0.035156,-0.1523438 -0.046875,-0.1875 -0.2929688,-1.2304688 -0.4335938,-1.78125 -0.4335938,-1.9570313 0.5390625,-0.9375 0.9609375,-1.453125 1.1835938,-1.453125 0.070312,0 0.1757812,0.035156 0.28125,0.09375 0.1523437,0.082031 0.234375,0.1054688 0.3398437,0.1054688 0.234375,0 0.4101563,-0.1757813 0.4101563,-0.4335938 0,-0.2578125 -0.2109375,-0.4453125 -0.4921875,-0.4453125 -0.5273438,0 -0.9726563,0.4335938 -1.8164063,1.7226563 l -0.1289062,-0.65625 C 2.7654297,-5.0515234 2.6248047,-5.2976172 2.3083984,-5.2976172 c -0.28125,0 -0.6679687,0.1054688 -1.40624996,0.3515625 -0.0703125,0.023437 -0.0703125,0.023437 -0.12890625,0.046875 l 0.046875,0.1875 c 0.46875001,-0.1289062 0.55078121,-0.140625 0.66796871,-0.140625 0.3046875,0 0.375,0.1171875 0.5390625,0.8320313 l 0.3515625,1.4765625 -0.984375,1.40625 c -0.2578125,0.35156246 -0.48046871,0.57421871 -0.60937496,0.57421871 -0.0820313,0 -0.19921875,-0.0351563 -0.31640625,-0.10546875 -0.15234375,-0.09375 -0.28125,-0.12890625 -0.38671875,-0.12890625 -0.234375,0 -0.41015625,0.1875 -0.41015625,0.421875 0,0.31640625 0.234375,0.50390625 0.609375,0.50390625 0.36328125,0 0.515625,-0.10546875 1.11328121,-0.8203125 0.3164063,-0.39843746 0.5859375,-0.76171876 1.078125,-1.41796876 l 0.3632813,1.44140626 c 0.1523437,0.62109375 0.3046875,0.796875 0.6914062,0.796875 0.4570313,0 0.7734375,-0.28125 1.4648438,-1.35937496 z M -79.722852,-84.803477 c 0.152344,-0.03516 0.246094,-0.04687 0.375,-0.04687 0.492188,0 0.726563,0.199219 0.960938,0.84375 0.328125,0.890625 0.949219,3.457032 0.949219,3.914063 0,0.1875 -0.08203,0.386719 -0.257813,0.609375 -0.328125,0.445312 -0.609375,0.785156 -0.75,0.9375 -0.257812,0.257812 -0.386719,0.363281 -0.539062,0.363281 -0.08203,0 -0.152344,-0.03516 -0.292969,-0.140625 -0.175781,-0.140625 -0.292969,-0.199219 -0.445313,-0.199219 -0.257812,0 -0.46875,0.199219 -0.46875,0.46875 0,0.316407 0.257813,0.527344 0.621094,0.527344 0.761719,0 2.320313,-1.792969 3.632813,-4.171875 0.820312,-1.476562 1.148437,-2.34375 1.148437,-2.929687 0,-0.363282 -0.292969,-0.667969 -0.65625,-0.667969 -0.28125,0 -0.46875,0.1875 -0.46875,0.445312 0,0.199219 0.09375,0.316407 0.339844,0.46875 0.222656,0.140625 0.304687,0.246094 0.304687,0.410157 0,0.480468 -0.433593,1.40625 -1.464843,3.105468 l -0.234375,-1.394531 c -0.1875,-1.066406 -0.855469,-3.035156 -1.03125,-3.035156 h -0.04687 c -0.02344,0.01172 -0.05859,0.01172 -0.117188,0.01172 -0.09375,0.01172 -0.539062,0.09375 -1.171875,0.210937 -0.05859,0.01172 -0.210937,0.04687 -0.386719,0.07031 z m 0,0"
       style="fill:#231f20;fill-opacity:1;fill-rule:nonzero;stroke:none"
       aria-label="x&#10;y"
       transform="matrix(1.3333333,0,0,1.3333333,110.56667,229.15333)" />
    <path
       id="path54"
       d="m 161.25,889.25 v -714"
       style="fill:none;stroke:#231f20;stroke-width:2.5;stroke-linecap:butt;stroke-linejoin:miter;stroke-miterlimit:3.8637;stroke-dasharray:none;stroke-opacity:1"
       transform="matrix(0.13333333,0,0,-0.13333333,0,236.25333)" />
    <path
       id="path55"
       d="m 161.25,886.25 h -15 l 15,38 15,-38 h -15"
       style="fill:#231f20;fill-opacity:1;fill-rule:evenodd;stroke:none"
       transform="matrix(0.13333333,0,0,-0.13333333,0,236.25333)" />
    <path
       id="path56"
       d="m 161.25,175.25 h 714"
       style="fill:none;stroke:#231f20;stroke-width:2.5;stroke-linecap:butt;stroke-linejoin:miter;stroke-miterlimit:3.8637;stroke-dasharray:none;stroke-opacity:1"
       transform="matrix(0.13333333,0,0,-0.13333333,0,236.25333)" />
    <path
       id="path57"
       d="m 872.25,175.25 v 15 l 38,-15 -38,-15 v 15"
       style="fill:#231f20;fill-opacity:1;fill-rule:evenodd;stroke:none"
       transform="matrix(0.13333333,0,0,-0.13333333,0,236.25333)" />
  </g>
</svg>
