<?xml version="1.0" encoding="UTF-8" standalone="no"?>
<!-- Created with Inkscape (http://www.inkscape.org/) -->

<svg
   version="1.1"
   id="svg1"
   width="272.60001"
   height="199.30667"
   viewBox="0 0 272.60001 199.30667"
   sodipodi:docname="PLANQ.EPS"
   xmlns:inkscape="http://www.inkscape.org/namespaces/inkscape"
   xmlns:sodipodi="http://sodipodi.sourceforge.net/DTD/sodipodi-0.dtd"
   xmlns="http://www.w3.org/2000/svg"
   xmlns:svg="http://www.w3.org/2000/svg">
  <defs
     id="defs1" />
  <sodipodi:namedview
     id="namedview1"
     pagecolor="#ffffff"
     bordercolor="#000000"
     borderopacity="0.25"
     inkscape:showpageshadow="2"
     inkscape:pageopacity="0.0"
     inkscape:pagecheckerboard="0"
     inkscape:deskcolor="#d1d1d1">
    <inkscape:page
       x="0"
       y="0"
       inkscape:label="1"
       id="page1"
       width="272.60001"
       height="199.30667"
       margin="0"
       bleed="0" />
  </sodipodi:namedview>
  <g
     id="g1"
     inkscape:groupmode="layer"
     inkscape:label="1">
    <path
       id="path1"
       d="m 1465.25,1061.25 -1049,29 -359,-741 1607,-280 z"
       style="fill:none;stroke:#231f20;stroke-width:5;stroke-linecap:butt;stroke-linejoin:miter;stroke-miterlimit:3.8637;stroke-dasharray:none;stroke-opacity:1"
       transform="matrix(0.13333333,0,0,-0.13333333,0,199.30667)" />
    <path
       id="path2"
       d="m 147.25,715.25 h 77 c 16.125,0.004 28.816,-12.687 29,-28 v -86 c -0.184,-15.809 -12.875,-28.496 -29,-28 h -77 c -15.242,-0.496 -27.934,12.191 -28,28 v 86 c 0.066,15.313 12.758,28.004 28,28"
       style="fill:#ffffff;fill-opacity:1;fill-rule:nonzero;stroke:none"
       transform="matrix(0.13333333,0,0,-0.13333333,0,199.30667)" />
    <g
       id="g2"
       aria-label="●&#10;●&#10;●&#10;u&#10;7&#10;u&#10;8&#10;u&#10;1&#10;u&#10;2&#10;u&#10;5&#10;u&#10;6&#10;u&#10;3&#10;u&#10;4"
       transform="matrix(1.3333333,0,0,1.3333333,50.966667,58.606667)">
      <path
         id="path3"
         d="M 0.56113281,-8.984375e-4 V -6.4930859 H 3.9361328 V -8.984375e-4 Z M 1.1236328,-0.56339844 h 2.25 V -5.9305859 h -2.25 z M 125.06113,101.70027 v -6.492184 h 3.375 v 6.492184 z m 0.5625,-0.5625 h 2.25 v -5.367184 h -2.25 z M 105.1627,2.1992969 v -6.4921875 h 3.375 v 6.4921875 z m 0.5625,-0.5625 h 2.25 v -5.3671875 h -2.25 z m 0,0"
         style="fill:#231f20;fill-opacity:1;fill-rule:nonzero;stroke:none" />
      <path
         id="path4"
         d="m 31.592383,-11.737227 c -0.421875,0.527344 -0.539063,0.632813 -0.667969,0.632813 -0.05859,0 -0.08203,-0.04687 -0.08203,-0.140625 0,-0.04687 0,-0.04687 0.152344,-0.621094 l 0.632812,-2.390625 h -0.597656 c -0.433594,1.183594 -0.515625,1.382813 -0.878906,1.957031 -0.480469,0.75 -0.878907,1.160157 -1.125,1.160157 -0.105469,0 -0.175782,-0.08203 -0.175782,-0.199219 0,-0.02344 0,-0.04687 0.01172,-0.07031 l 0.726563,-2.90625 -0.02344,-0.01172 c -0.46875,0.105468 -0.761719,0.152343 -1.195312,0.210937 v 0.117188 c 0.316406,0 0.316406,0 0.398437,0.04687 0.03516,0.01172 0.08203,0.08203 0.08203,0.140625 0,0.07031 -0.04687,0.269531 -0.117187,0.539062 l -0.292969,1.136719 c -0.152344,0.585937 -0.199219,0.84375 -0.199219,0.984375 0,0.292969 0.140625,0.445312 0.421875,0.445312 0.5625,0 0.996094,-0.433593 1.910157,-1.980468 -0.234375,0.867187 -0.363282,1.394531 -0.363282,1.570312 0,0.257813 0.152344,0.386719 0.386719,0.386719 0.375,0 0.550781,-0.152344 1.101563,-0.9375 z m 6.609375,-1.3125 -0.04687,-0.08203 h -3 l -0.65625,1.089844 0.117187,0.07031 c 0.363282,-0.445312 0.585938,-0.5625 1.066407,-0.574218 h 1.769531 l 0.02344,0.02344 -2.941406,4.7812502 h 0.5625 z M 15.792578,-32.23625 c -0.421875,0.527344 -0.539062,0.632812 -0.667969,0.632812 -0.05859,0 -0.08203,-0.04687 -0.08203,-0.140625 0,-0.04687 0,-0.04687 0.152344,-0.621093 l 0.632812,-2.390625 h -0.597656 c -0.433594,1.183593 -0.515625,1.382812 -0.878906,1.957031 -0.480469,0.75 -0.878906,1.160156 -1.125,1.160156 -0.105469,0 -0.175781,-0.08203 -0.175781,-0.199219 0,-0.02344 0,-0.04687 0.01172,-0.07031 l 0.726563,-2.90625 -0.02344,-0.01172 c -0.46875,0.105469 -0.761718,0.152344 -1.195312,0.210938 v 0.117187 c 0.316406,0 0.316406,0 0.398437,0.04687 0.03516,0.01172 0.08203,0.08203 0.08203,0.140625 0,0.07031 -0.04687,0.269531 -0.117188,0.539063 l -0.292969,1.136718 c -0.152343,0.585938 -0.199218,0.84375 -0.199218,0.984375 0,0.292969 0.140625,0.445313 0.421875,0.445313 0.5625,0 0.996093,-0.433594 1.910156,-1.980469 -0.234375,0.867188 -0.363281,1.394531 -0.363281,1.570313 0,0.257812 0.152343,0.386718 0.386718,0.386718 0.375,0 0.550782,-0.152343 1.101563,-0.9375 z m 4.945313,0.878906 c 0.949218,-0.316406 1.3125,-0.65625 1.3125,-1.21875 0,-0.667969 -0.585938,-1.136719 -1.40625,-1.136719 -0.855469,0 -1.441407,0.492188 -1.441407,1.207032 0,0.433593 0.164063,0.738281 0.703125,1.324218 -1.007812,0.316407 -1.570312,0.890625 -1.570312,1.59375 0,0.210938 0.07031,0.457032 0.1875,0.65625 0.269531,0.457032 0.75,0.691407 1.40625,0.691407 0.996094,0 1.722656,-0.621094 1.722656,-1.441407 0,-0.539062 -0.234375,-0.972656 -0.914062,-1.675781 z m -0.65625,0.304688 c 0.878906,0.914062 0.972656,1.054687 0.972656,1.511718 0,0.644532 -0.457031,1.125 -1.089844,1.125 -0.632812,0 -1.078125,-0.46875 -1.078125,-1.125 0,-0.667968 0.433594,-1.21875 1.195313,-1.511718 z m 0.503906,-0.445313 c -0.621094,-0.585937 -0.75,-0.785156 -0.75,-1.125 0,-0.5625 0.292969,-0.902344 0.808594,-0.902344 0.515625,0 0.855468,0.375 0.855468,0.949219 0,0.503906 -0.210937,0.75 -0.914062,1.078125 z M -3.7074219,60.461992 c -0.421875,0.527344 -0.5390625,0.632813 -0.6679687,0.632813 -0.058594,0 -0.082031,-0.04687 -0.082031,-0.140625 0,-0.04687 0,-0.04687 0.1523438,-0.621094 l 0.6328125,-2.390625 h -0.5976563 c -0.4335937,1.183594 -0.515625,1.382812 -0.8789062,1.957031 -0.4804688,0.75 -0.8789063,1.160156 -1.125,1.160156 -0.1054688,0 -0.1757813,-0.08203 -0.1757813,-0.199218 0,-0.02344 0,-0.04687 0.011719,-0.07031 l 0.7265625,-2.90625 -0.023437,-0.01172 c -0.46875,0.105469 -0.7617188,0.152344 -1.1953125,0.210938 v 0.117187 c 0.3164062,0 0.3164062,0 0.3984375,0.04687 0.035156,0.01172 0.082031,0.08203 0.082031,0.140625 0,0.07031 -0.046875,0.269532 -0.1171875,0.539063 l -0.2929687,1.136719 c -0.1523438,0.585937 -0.1992188,0.84375 -0.1992188,0.984375 0,0.292968 0.140625,0.445312 0.421875,0.445312 0.5625,0 0.9960938,-0.433594 1.9101563,-1.980469 -0.234375,0.867188 -0.3632813,1.394532 -0.3632813,1.570313 0,0.257812 0.1523438,0.386719 0.3867188,0.386719 0.375,0 0.5507812,-0.152344 1.1015625,-0.9375 z m 2.6953125,3.9375 h 2.2382813 v -0.117187 h -0.140625 c -0.38671878,0 -0.55078128,-0.07031 -0.55078128,-0.257813 0,-0.07031 0.0234375,-0.1875 0.09375,-0.421875 0.0234375,-0.04687 0.0351563,-0.09375 0.0585938,-0.175781 L 1.8238281,59.278398 c 0.046875,-0.140625 0.046875,-0.199218 0.046875,-0.234375 0,-0.03516 -0.011719,-0.05859 -0.035156,-0.05859 0,0 -0.2226563,0.04687 -0.65625,0.128906 L 0.45273437,59.26668 c -0.0117188,0 -0.0703125,0.01172 -0.1640625,0.02344 v 0.117188 l 0.45703125,-0.01172 c 0.1875,-0.01172 0.30468748,0.09375 0.30468748,0.246094 0,0.05859 -0.011719,0.117187 -0.0585937,0.28125 l -1.1015625,3.9375 c -0.09375,0.292968 -0.26953125,0.375 -0.9023438,0.421875 z M -21.809961,42.063555 c -0.421875,0.527343 -0.539062,0.632812 -0.667969,0.632812 -0.05859,0 -0.08203,-0.04687 -0.08203,-0.140625 0,-0.04687 0,-0.04687 0.152344,-0.621094 l 0.632812,-2.390625 h -0.597656 c -0.433594,1.183594 -0.515625,1.382813 -0.878906,1.957032 -0.480469,0.75 -0.878906,1.160156 -1.125,1.160156 -0.105469,0 -0.175781,-0.08203 -0.175781,-0.199219 0,-0.02344 0,-0.04687 0.01172,-0.07031 l 0.726563,-2.90625 -0.02344,-0.01172 c -0.46875,0.105469 -0.761718,0.152344 -1.195312,0.210937 v 0.117188 c 0.316406,0 0.316406,0 0.398437,0.04687 0.03516,0.01172 0.08203,0.08203 0.08203,0.140625 0,0.07031 -0.04687,0.269531 -0.117188,0.539062 l -0.292969,1.136719 c -0.152343,0.585938 -0.199218,0.84375 -0.199218,0.984375 0,0.292969 0.140625,0.445313 0.421875,0.445313 0.5625,0 0.996093,-0.433594 1.910156,-1.980469 -0.234375,0.867187 -0.363281,1.394531 -0.363281,1.570312 0,0.257813 0.152343,0.386719 0.386718,0.386719 0.375,0 0.550782,-0.152344 1.101563,-0.9375 z m 5.507813,2.824218 c -0.1875,0.398438 -0.339844,0.492188 -0.785157,0.503907 h -1.523437 v -0.03516 l 1.535156,-1.535156 c 0.9375,-0.9375 1.195313,-1.347656 1.195313,-1.875 0,-0.761719 -0.574219,-1.359375 -1.300782,-1.359375 -0.292968,0 -0.585937,0.07031 -0.820312,0.210938 -0.410156,0.222656 -0.632813,0.492187 -0.855469,1.078125 l 0.164063,0.04687 c 0.292968,-0.515625 0.644531,-0.75 1.125,-0.75 0.574218,0 0.996093,0.421875 0.996093,0.972656 0,0.175781 -0.02344,0.328125 -0.07031,0.433594 -0.199219,0.433593 -0.5625,0.9375 -1.078125,1.488281 l -1.6875,1.792969 v 0.140625 h 2.847656 l 0.398438,-1.054688 z M 137.89023,-8.9364453 c -0.42187,0.5273437 -0.53906,0.6328125 -0.66796,0.6328125 -0.0586,0 -0.082,-0.046875 -0.082,-0.140625 0,-0.046875 0,-0.046875 0.15235,-0.6210938 l 0.63281,-2.3906254 h -0.59766 c -0.43359,1.183594 -0.51562,1.382813 -0.8789,1.9570317 -0.48047,0.75 -0.87891,1.1601562 -1.125,1.1601562 -0.10547,0 -0.17578,-0.082031 -0.17578,-0.1992187 0,-0.023437 0,-0.046875 0.0117,-0.070312 l 0.72656,-2.9062502 -0.0234,-0.01172 c -0.46875,0.105469 -0.76172,0.152344 -1.19531,0.210937 v 0.117188 c 0.3164,0 0.3164,0 0.39844,0.04687 0.0351,0.01172 0.082,0.08203 0.082,0.140625 0,0.07031 -0.0469,0.269531 -0.11719,0.539062 l -0.29297,1.1367197 c -0.15234,0.5859375 -0.19922,0.84375 -0.19922,0.984375 0,0.2929687 0.14063,0.4453125 0.42188,0.4453125 0.5625,0 0.99609,-0.4335938 1.91015,-1.9804688 -0.23437,0.8671875 -0.36328,1.3945313 -0.36328,1.5703125 0,0.2578125 0.15235,0.3867188 0.38672,0.3867188 0.375,0 0.55078,-0.1523438 1.10156,-0.9375 z m 4.32129,-0.8203125 h 1.83985 l 0.17578,-0.5742192 h -2.03906 l -0.84375,1.7460942 v 0.1171875 c 0.78515,0.1757812 1.04296,0.2695312 1.33593,0.5039062 0.25782,0.1992188 0.42188,0.609375 0.42188,1.03125 0,0.8671875 -0.64453,1.6523438 -1.3711,1.6523438 -0.16406,0 -0.30468,-0.058594 -0.53906,-0.234375 -0.19922,-0.1523438 -0.32812,-0.1992188 -0.44531,-0.1992188 -0.1875,0 -0.32813,0.1289063 -0.32813,0.3164063 0,0.28125 0.31641,0.4570312 0.85547,0.4570312 1.3125,0 2.37891,-1.03125 2.37891,-2.296875 0,-0.5039062 -0.1875,-0.9257812 -0.52734,-1.2539062 -0.30469,-0.28125 -0.58594,-0.4101563 -1.23047,-0.5625 z M 117.2916,-30.337813 c -0.42187,0.527344 -0.53906,0.632813 -0.66797,0.632813 -0.0586,0 -0.082,-0.04687 -0.082,-0.140625 0,-0.04687 0,-0.04687 0.15235,-0.621094 l 0.63281,-2.390625 h -0.59766 c -0.43359,1.183594 -0.51562,1.382813 -0.8789,1.957031 -0.48047,0.75 -0.87891,1.160157 -1.125,1.160157 -0.10547,0 -0.17579,-0.08203 -0.17579,-0.199219 0,-0.02344 0,-0.04687 0.0117,-0.07031 l 0.72657,-2.90625 -0.0234,-0.01172 c -0.46875,0.105468 -0.76172,0.152343 -1.19531,0.210937 v 0.117188 c 0.3164,0 0.3164,0 0.39843,0.04687 0.0352,0.01172 0.082,0.08203 0.082,0.140625 0,0.07031 -0.0469,0.269531 -0.11718,0.539062 l -0.29297,1.136719 c -0.15235,0.585937 -0.19922,0.84375 -0.19922,0.984375 0,0.292969 0.14062,0.445312 0.42187,0.445312 0.5625,0 0.9961,-0.433593 1.91016,-1.980468 -0.23437,0.867187 -0.36328,1.394531 -0.36328,1.570312 0,0.257813 0.15234,0.386719 0.38672,0.386719 0.375,0 0.55078,-0.152344 1.10156,-0.9375 z m 6.46875,-1.558593 c -1.0664,0.128906 -1.60547,0.328125 -2.29687,0.832031 -1.00782,0.75 -1.62891,1.886719 -1.62891,3.035156 0,1.019531 0.58594,1.6875 1.46484,1.6875 1.07813,0 1.99219,-1.019531 1.99219,-2.226562 0,-0.820313 -0.57422,-1.40625 -1.35937,-1.40625 -0.22266,0 -0.49219,0.05859 -0.70313,0.164062 l -0.0352,-0.01172 c 0.55078,-1.019531 1.64062,-1.828125 2.57812,-1.945312 z m -2.08594,2.203125 c 0.55079,0 0.90235,0.398437 0.90235,1.019531 0,0.539062 -0.1875,1.171875 -0.49219,1.59375 -0.23437,0.363281 -0.51562,0.527344 -0.85547,0.527344 -0.49219,0 -0.78515,-0.386719 -0.78515,-1.042969 0,-0.550781 0.16406,-1.21875 0.375,-1.570313 0.21093,-0.363281 0.48046,-0.527343 0.85546,-0.527343 z m 32.01563,119.657226 c -0.42188,0.527344 -0.53906,0.632813 -0.66797,0.632813 -0.0586,0 -0.082,-0.04687 -0.082,-0.140625 0,-0.04687 0,-0.04687 0.15234,-0.621094 l 0.63282,-2.390625 h -0.59766 c -0.43359,1.183594 -0.51563,1.382813 -0.87891,1.957031 -0.48047,0.75 -0.8789,1.160157 -1.125,1.160157 -0.10547,0 -0.17578,-0.08203 -0.17578,-0.199219 0,-0.02344 0,-0.04687 0.0117,-0.07031 l 0.72656,-2.90625 -0.0234,-0.01172 c -0.46875,0.105468 -0.76172,0.152343 -1.19532,0.210937 v 0.117188 c 0.31641,0 0.31641,0 0.39844,0.04687 0.0352,0.01172 0.082,0.08203 0.082,0.140625 0,0.07031 -0.0469,0.269531 -0.11719,0.539062 l -0.29296,1.136719 c -0.15235,0.585937 -0.19922,0.84375 -0.19922,0.984375 0,0.292969 0.14062,0.445312 0.42187,0.445312 0.5625,0 0.9961,-0.433593 1.91016,-1.980468 -0.23438,0.867187 -0.36328,1.394531 -0.36328,1.570312 0,0.257813 0.15234,0.386719 0.38672,0.386719 0.375,0 0.55078,-0.152344 1.10156,-0.9375 z m 3.73828,-0.597656 c 0.26953,-0.375 0.55078,-0.539062 0.87891,-0.539062 0.43359,0 0.71484,0.292968 0.71484,0.726562 0,0.339844 -0.16406,0.621094 -0.51562,0.855469 -0.33985,0.234375 -0.67969,0.351562 -1.39454,0.480469 l 0.0117,0.117187 c 0.44532,0 0.52735,0.01172 0.72657,0.08203 0.49218,0.1875 0.75,0.621094 0.75,1.253907 0,0.28125 -0.0586,0.574218 -0.17579,0.761718 -0.1875,0.328125 -0.53906,0.550782 -0.86718,0.550782 -0.15235,0 -0.33985,-0.08203 -0.57422,-0.257813 -0.23438,-0.164062 -0.36328,-0.222656 -0.51563,-0.222656 -0.22265,0 -0.35156,0.105469 -0.35156,0.304687 0,0.304688 0.32813,0.480469 0.90234,0.480469 0.44532,0 0.86719,-0.105469 1.19532,-0.292969 0.62109,-0.375 1.03125,-1.042968 1.03125,-1.757812 0,-0.585938 -0.23438,-0.949219 -0.76172,-1.195313 v -0.02344 c 0.96094,-0.375 1.24219,-0.644531 1.24219,-1.183594 0,-0.585937 -0.48047,-1.019531 -1.125,-1.019531 -0.55079,0 -1.04297,0.316406 -1.30079,0.832031 z M 136.39023,70.563555 c -0.42187,0.527343 -0.53906,0.632812 -0.66796,0.632812 -0.0586,0 -0.082,-0.04687 -0.082,-0.140625 0,-0.04687 0,-0.04687 0.15235,-0.621094 l 0.63281,-2.390625 h -0.59766 c -0.43359,1.183594 -0.51562,1.382813 -0.8789,1.957032 -0.48047,0.75 -0.87891,1.160156 -1.125,1.160156 -0.10547,0 -0.17578,-0.08203 -0.17578,-0.199219 0,-0.02344 0,-0.04687 0.0117,-0.07031 l 0.72656,-2.90625 -0.0234,-0.01172 c -0.46875,0.105469 -0.76172,0.152344 -1.19531,0.210937 v 0.117188 c 0.3164,0 0.3164,0 0.39844,0.04687 0.0351,0.01172 0.082,0.08203 0.082,0.140625 0,0.07031 -0.0469,0.269531 -0.11719,0.539062 l -0.29297,1.136719 c -0.15234,0.585938 -0.19922,0.84375 -0.19922,0.984375 0,0.292969 0.14063,0.445313 0.42188,0.445313 0.5625,0 0.99609,-0.433594 1.91015,-1.980469 -0.23437,0.867187 -0.36328,1.394531 -0.36328,1.570312 0,0.257813 0.15235,0.386719 0.38672,0.386719 0.375,0 0.55078,-0.152344 1.10156,-0.9375 z m 5.92969,2.003906 h -0.75 l 0.96094,-3.480469 h -0.32813 l -3.33984,3.457031 -0.15234,0.527344 h 2.09765 l -0.39843,1.429688 h 0.63281 l 0.375,-1.40625 h 0.79687 z m -1.40625,0 h -1.69922 v -0.02344 l 2.4375,-2.554687 h 0.0352 z m 0,0"
         style="fill:#231f20;fill-opacity:1;fill-rule:nonzero;stroke:none" />
    </g>
    <path
       id="path5"
       d="m 1462.25,1323.25 v -260"
       style="fill:none;stroke:#231f20;stroke-width:2.5;stroke-linecap:butt;stroke-linejoin:miter;stroke-miterlimit:3.8637;stroke-dasharray:none;stroke-opacity:1"
       transform="matrix(0.13333333,0,0,-0.13333333,0,199.30667)" />
    <path
       id="path6"
       d="m 1462.25,1320.25 h -15 l 15,38 15,-38 h -15"
       style="fill:#231f20;fill-opacity:1;fill-rule:evenodd;stroke:none"
       transform="matrix(0.13333333,0,0,-0.13333333,0,199.30667)" />
    <path
       id="path7"
       d="m 1462.25,1063.25 h 259"
       style="fill:none;stroke:#231f20;stroke-width:2.5;stroke-linecap:butt;stroke-linejoin:miter;stroke-miterlimit:3.8637;stroke-dasharray:none;stroke-opacity:1"
       transform="matrix(0.13333333,0,0,-0.13333333,0,199.30667)" />
    <path
       id="path8"
       d="m 1719.25,1063.25 v 15 l 37,-15 -37,-15 v 15"
       style="fill:#231f20;fill-opacity:1;fill-rule:evenodd;stroke:none"
       transform="matrix(0.13333333,0,0,-0.13333333,0,199.30667)" />
    <path
       id="path9"
       d="m 485.25,1091.25 h 237"
       style="fill:none;stroke:#ffffff;stroke-width:40;stroke-linecap:round;stroke-linejoin:miter;stroke-miterlimit:3.8637;stroke-dasharray:none;stroke-opacity:1"
       transform="matrix(0.13333333,0,0,-0.13333333,0,199.30667)" />
    <path
       id="path10"
       d="m 1662.25,332.25 v -260"
       style="fill:none;stroke:#231f20;stroke-width:2.5;stroke-linecap:butt;stroke-linejoin:miter;stroke-miterlimit:3.8637;stroke-dasharray:none;stroke-opacity:1"
       transform="matrix(0.13333333,0,0,-0.13333333,0,199.30667)" />
    <path
       id="path11"
       d="m 1662.25,329.25 h -15 l 15,38 15,-38 h -15"
       style="fill:#231f20;fill-opacity:1;fill-rule:evenodd;stroke:none"
       transform="matrix(0.13333333,0,0,-0.13333333,0,199.30667)" />
    <path
       id="path12"
       d="m 1662.25,72.25 h 259"
       style="fill:none;stroke:#231f20;stroke-width:2.5;stroke-linecap:butt;stroke-linejoin:miter;stroke-miterlimit:3.8637;stroke-dasharray:none;stroke-opacity:1"
       transform="matrix(0.13333333,0,0,-0.13333333,0,199.30667)" />
    <path
       id="path13"
       d="m 1919.25,72.25 v 15 l 37,-15 -37,-15 v 15"
       style="fill:#231f20;fill-opacity:1;fill-rule:evenodd;stroke:none"
       transform="matrix(0.13333333,0,0,-0.13333333,0,199.30667)" />
    <path
       id="path14"
       d="m 415.25,1351.25 v -260"
       style="fill:none;stroke:#231f20;stroke-width:2.5;stroke-linecap:butt;stroke-linejoin:miter;stroke-miterlimit:3.8637;stroke-dasharray:none;stroke-opacity:1"
       transform="matrix(0.13333333,0,0,-0.13333333,0,199.30667)" />
    <path
       id="path15"
       d="m 415.25,1349.25 h -15 l 15,37 15,-37 h -15"
       style="fill:#231f20;fill-opacity:1;fill-rule:evenodd;stroke:none"
       transform="matrix(0.13333333,0,0,-0.13333333,0,199.30667)" />
    <path
       id="path16"
       d="m 415.25,1091.25 h 259"
       style="fill:none;stroke:#231f20;stroke-width:2.5;stroke-linecap:butt;stroke-linejoin:miter;stroke-miterlimit:3.8637;stroke-dasharray:none;stroke-opacity:1"
       transform="matrix(0.13333333,0,0,-0.13333333,0,199.30667)" />
    <path
       id="path17"
       d="m 672.25,1091.25 v 15 l 37,-15 -37,-15 v 15"
       style="fill:#231f20;fill-opacity:1;fill-rule:evenodd;stroke:none"
       transform="matrix(0.13333333,0,0,-0.13333333,0,199.30667)" />
    <path
       id="path18"
       d="m 105.25,348.25 h 254"
       style="fill:none;stroke:#ffffff;stroke-width:40;stroke-linecap:round;stroke-linejoin:miter;stroke-miterlimit:3.8637;stroke-dasharray:none;stroke-opacity:1"
       transform="matrix(0.13333333,0,0,-0.13333333,0,199.30667)" />
    <path
       id="path19"
       d="m 60.25,607.25 v -260"
       style="fill:none;stroke:#231f20;stroke-width:2.5;stroke-linecap:butt;stroke-linejoin:miter;stroke-miterlimit:3.8637;stroke-dasharray:none;stroke-opacity:1"
       transform="matrix(0.13333333,0,0,-0.13333333,0,199.30667)" />
    <path
       id="path20"
       d="m 60.25,604.25 h -15 l 15,38 15,-38 h -15"
       style="fill:#231f20;fill-opacity:1;fill-rule:evenodd;stroke:none"
       transform="matrix(0.13333333,0,0,-0.13333333,0,199.30667)" />
    <path
       id="path21"
       d="m 60.25,347.25 h 259"
       style="fill:none;stroke:#231f20;stroke-width:2.5;stroke-linecap:butt;stroke-linejoin:miter;stroke-miterlimit:3.8637;stroke-dasharray:none;stroke-opacity:1"
       transform="matrix(0.13333333,0,0,-0.13333333,0,199.30667)" />
    <path
       id="path22"
       d="m 317.25,347.25 v 15 l 37,-15 -37,-15 v 15"
       style="fill:#231f20;fill-opacity:1;fill-rule:evenodd;stroke:none"
       transform="matrix(0.13333333,0,0,-0.13333333,0,199.30667)" />
    <path
       id="path23"
       d="M 0.56113281,7.8125e-5 V -6.4921094 H 3.9361328 V 7.8125e-5 Z M 1.1236328,-0.56242188 h 2.25 V -5.9296094 h -2.25 z m 0,0"
       style="fill:#231f20;fill-opacity:1;fill-rule:nonzero;stroke:none"
       aria-label="●"
       transform="matrix(1.3333333,0,0,1.3333333,2.9666667,157.27333)" />
  </g>
</svg>
