<?xml version="1.0" encoding="UTF-8" standalone="no"?>
<!-- Created with Inkscape (http://www.inkscape.org/) -->

<svg
   version="1.1"
   id="svg1"
   width="242.49333"
   height="179.66667"
   viewBox="0 0 242.49333 179.66667"
   sodipodi:docname="PLANI8.EPS"
   xmlns:inkscape="http://www.inkscape.org/namespaces/inkscape"
   xmlns:sodipodi="http://sodipodi.sourceforge.net/DTD/sodipodi-0.dtd"
   xmlns="http://www.w3.org/2000/svg"
   xmlns:svg="http://www.w3.org/2000/svg">
  <defs
     id="defs1" />
  <sodipodi:namedview
     id="namedview1"
     pagecolor="#ffffff"
     bordercolor="#000000"
     borderopacity="0.25"
     inkscape:showpageshadow="2"
     inkscape:pageopacity="0.0"
     inkscape:pagecheckerboard="0"
     inkscape:deskcolor="#d1d1d1">
    <inkscape:page
       x="0"
       y="0"
       inkscape:label="1"
       id="page1"
       width="242.49333"
       height="179.66667"
       margin="0"
       bleed="0" />
  </sodipodi:namedview>
  <g
     id="g1"
     inkscape:groupmode="layer"
     inkscape:label="1">
    <path
       id="path1"
       d="m 948.25,371.25 h 69 c 15.41,-0.125 28.11,-12.816 28,-28 v -74 c 0.11,-15.434 -12.59,-28.125 -28,-28 h -69 c -15.203,-0.125 -27.895,12.566 -28,28 v 74 c 0.105,15.184 12.797,27.875 28,28"
       style="fill:#ffffff;fill-opacity:1;fill-rule:nonzero;stroke:none"
       transform="matrix(0.13333333,0,0,-0.13333333,0,179.66667)" />
    <path
       id="path2"
       d="m 426.25,721.25 h 68 c 15.789,-0.219 28.48,-12.91 28,-29 v -73 c 0.48,-15.527 -12.211,-28.219 -28,-28 h -68 c -15.832,-0.219 -28.52,12.473 -29,28 v 73 c 0.48,16.09 13.168,28.781 29,29"
       style="fill:#ffffff;fill-opacity:1;fill-rule:nonzero;stroke:none"
       transform="matrix(0.13333333,0,0,-0.13333333,0,179.66667)" />
    <path
       id="path3"
       d="m 386.25,822.25 c 0.016,0.469 305.34,141.883 514,181 152.83,27.84 397.12,27.93 397,28 0.12,-0.07 182.35,-202.617 199,-397 27.89,-340.078 -113.84,-566.8516 -114,-567 0.16,0.1484 -254.96,85.191 -567,142 -254.105,46.125 -623.395,-0.117 -623,0 -0.395,-0.117 84.645,169.961 141,312 44.051,108.98 53.016,301.469 53,301 z"
       style="fill:none;stroke:#231f20;stroke-width:5;stroke-linecap:butt;stroke-linejoin:miter;stroke-miterlimit:3.8637;stroke-dasharray:none;stroke-opacity:1"
       transform="matrix(0.13333333,0,0,-0.13333333,0,179.66667)" />
    <path
       id="path4"
       d="m 1429.25,74.25 h 253"
       style="fill:none;stroke:#ffffff;stroke-width:40;stroke-linecap:round;stroke-linejoin:miter;stroke-miterlimit:3.8637;stroke-dasharray:none;stroke-opacity:1"
       transform="matrix(0.13333333,0,0,-0.13333333,0,179.66667)" />
    <path
       id="path5"
       d="m 1381.25,118.25 v 253"
       style="fill:none;stroke:#ffffff;stroke-width:40;stroke-linecap:round;stroke-linejoin:miter;stroke-miterlimit:3.8637;stroke-dasharray:none;stroke-opacity:1"
       transform="matrix(0.13333333,0,0,-0.13333333,0,179.66667)" />
    <path
       id="path6"
       d="m 1381.25,332.25 v -260"
       style="fill:none;stroke:#231f20;stroke-width:2.5;stroke-linecap:butt;stroke-linejoin:miter;stroke-miterlimit:3.8637;stroke-dasharray:none;stroke-opacity:1"
       transform="matrix(0.13333333,0,0,-0.13333333,0,179.66667)" />
    <path
       id="path7"
       d="m 1381.25,329.25 h -15 l 15,38 15,-38 h -15"
       style="fill:#231f20;fill-opacity:1;fill-rule:evenodd;stroke:none"
       transform="matrix(0.13333333,0,0,-0.13333333,0,179.66667)" />
    <path
       id="path8"
       d="m 1381.25,72.25 h 259"
       style="fill:none;stroke:#231f20;stroke-width:2.5;stroke-linecap:butt;stroke-linejoin:miter;stroke-miterlimit:3.8637;stroke-dasharray:none;stroke-opacity:1"
       transform="matrix(0.13333333,0,0,-0.13333333,0,179.66667)" />
    <path
       id="path9"
       d="m 1638.25,72.25 v 15 l 37,-15 -37,-15 v 15"
       style="fill:#231f20;fill-opacity:1;fill-rule:evenodd;stroke:none"
       transform="matrix(0.13333333,0,0,-0.13333333,0,179.66667)" />
    <path
       id="path10"
       d="m 919.25,200.25 h 254"
       style="fill:none;stroke:#ffffff;stroke-width:40;stroke-linecap:round;stroke-linejoin:miter;stroke-miterlimit:3.8637;stroke-dasharray:none;stroke-opacity:1"
       transform="matrix(0.13333333,0,0,-0.13333333,0,179.66667)" />
    <path
       id="path11"
       d="m 871.25,244.25 v 253"
       style="fill:none;stroke:#ffffff;stroke-width:40;stroke-linecap:round;stroke-linejoin:miter;stroke-miterlimit:3.8637;stroke-dasharray:none;stroke-opacity:1"
       transform="matrix(0.13333333,0,0,-0.13333333,0,179.66667)" />
    <path
       id="path12"
       d="m 871.25,458.25 v -260"
       style="fill:none;stroke:#231f20;stroke-width:2.5;stroke-linecap:butt;stroke-linejoin:miter;stroke-miterlimit:3.8637;stroke-dasharray:none;stroke-opacity:1"
       transform="matrix(0.13333333,0,0,-0.13333333,0,179.66667)" />
    <path
       id="path13"
       d="m 871.25,455.25 h -15 l 15,38 15,-38 h -15"
       style="fill:#231f20;fill-opacity:1;fill-rule:evenodd;stroke:none"
       transform="matrix(0.13333333,0,0,-0.13333333,0,179.66667)" />
    <path
       id="path14"
       d="m 871.25,198.25 h 260"
       style="fill:none;stroke:#231f20;stroke-width:2.5;stroke-linecap:butt;stroke-linejoin:miter;stroke-miterlimit:3.8637;stroke-dasharray:none;stroke-opacity:1"
       transform="matrix(0.13333333,0,0,-0.13333333,0,179.66667)" />
    <path
       id="path15"
       d="m 1128.25,198.25 v 15 l 38,-15 -38,-15 v 15"
       style="fill:#231f20;fill-opacity:1;fill-rule:evenodd;stroke:none"
       transform="matrix(0.13333333,0,0,-0.13333333,0,179.66667)" />
    <path
       id="path16"
       d="m 247.25,215.25 h 254"
       style="fill:none;stroke:#ffffff;stroke-width:40;stroke-linecap:round;stroke-linejoin:miter;stroke-miterlimit:3.8637;stroke-dasharray:none;stroke-opacity:1"
       transform="matrix(0.13333333,0,0,-0.13333333,0,179.66667)" />
    <path
       id="path17"
       d="m 199.25,259.25 v 253"
       style="fill:none;stroke:#ffffff;stroke-width:40;stroke-linecap:round;stroke-linejoin:miter;stroke-miterlimit:3.8637;stroke-dasharray:none;stroke-opacity:1"
       transform="matrix(0.13333333,0,0,-0.13333333,0,179.66667)" />
    <path
       id="path18"
       d="m 199.25,473.25 v -260"
       style="fill:none;stroke:#231f20;stroke-width:2.5;stroke-linecap:butt;stroke-linejoin:miter;stroke-miterlimit:3.8637;stroke-dasharray:none;stroke-opacity:1"
       transform="matrix(0.13333333,0,0,-0.13333333,0,179.66667)" />
    <path
       id="path19"
       d="m 199.25,470.25 h -15 l 15,38 15,-38 h -15"
       style="fill:#231f20;fill-opacity:1;fill-rule:evenodd;stroke:none"
       transform="matrix(0.13333333,0,0,-0.13333333,0,179.66667)" />
    <path
       id="path20"
       d="m 199.25,213.25 h 260"
       style="fill:none;stroke:#231f20;stroke-width:2.5;stroke-linecap:butt;stroke-linejoin:miter;stroke-miterlimit:3.8637;stroke-dasharray:none;stroke-opacity:1"
       transform="matrix(0.13333333,0,0,-0.13333333,0,179.66667)" />
    <path
       id="path21"
       d="m 456.25,213.25 v 15 l 38,-15 -38,-15 v 15"
       style="fill:#231f20;fill-opacity:1;fill-rule:evenodd;stroke:none"
       transform="matrix(0.13333333,0,0,-0.13333333,0,179.66667)" />
    <path
       id="path22"
       d="m 397.25,552.25 h 254"
       style="fill:none;stroke:#ffffff;stroke-width:40;stroke-linecap:round;stroke-linejoin:miter;stroke-miterlimit:3.8637;stroke-dasharray:none;stroke-opacity:1"
       transform="matrix(0.13333333,0,0,-0.13333333,0,179.66667)" />
    <path
       id="path23"
       d="m 349.25,596.25 v 253"
       style="fill:none;stroke:#ffffff;stroke-width:40;stroke-linecap:round;stroke-linejoin:miter;stroke-miterlimit:3.8637;stroke-dasharray:none;stroke-opacity:1"
       transform="matrix(0.13333333,0,0,-0.13333333,0,179.66667)" />
    <path
       id="path24"
       d="m 349.25,810.25 v -260"
       style="fill:none;stroke:#231f20;stroke-width:2.5;stroke-linecap:butt;stroke-linejoin:miter;stroke-miterlimit:3.8637;stroke-dasharray:none;stroke-opacity:1"
       transform="matrix(0.13333333,0,0,-0.13333333,0,179.66667)" />
    <path
       id="path25"
       d="m 349.25,807.25 h -15 l 15,38 15,-38 h -15"
       style="fill:#231f20;fill-opacity:1;fill-rule:evenodd;stroke:none"
       transform="matrix(0.13333333,0,0,-0.13333333,0,179.66667)" />
    <path
       id="path26"
       d="m 349.25,550.25 h 260"
       style="fill:none;stroke:#231f20;stroke-width:2.5;stroke-linecap:butt;stroke-linejoin:miter;stroke-miterlimit:3.8637;stroke-dasharray:none;stroke-opacity:1"
       transform="matrix(0.13333333,0,0,-0.13333333,0,179.66667)" />
    <path
       id="path27"
       d="m 606.25,550.25 v 15 l 38,-15 -38,-15 v 15"
       style="fill:#231f20;fill-opacity:1;fill-rule:evenodd;stroke:none"
       transform="matrix(0.13333333,0,0,-0.13333333,0,179.66667)" />
    <path
       id="path28"
       d="m 440.25,821.25 h 254"
       style="fill:none;stroke:#ffffff;stroke-width:40;stroke-linecap:round;stroke-linejoin:miter;stroke-miterlimit:3.8637;stroke-dasharray:none;stroke-opacity:1"
       transform="matrix(0.13333333,0,0,-0.13333333,0,179.66667)" />
    <path
       id="path29"
       d="m 392.25,865.25 v 253"
       style="fill:none;stroke:#ffffff;stroke-width:40;stroke-linecap:round;stroke-linejoin:miter;stroke-miterlimit:3.8637;stroke-dasharray:none;stroke-opacity:1"
       transform="matrix(0.13333333,0,0,-0.13333333,0,179.66667)" />
    <path
       id="path30"
       d="m 392.25,1079.25 v -260"
       style="fill:none;stroke:#231f20;stroke-width:2.5;stroke-linecap:butt;stroke-linejoin:miter;stroke-miterlimit:3.8637;stroke-dasharray:none;stroke-opacity:1"
       transform="matrix(0.13333333,0,0,-0.13333333,0,179.66667)" />
    <path
       id="path31"
       d="m 392.25,1076.25 h -15 l 15,38 15,-38 h -15"
       style="fill:#231f20;fill-opacity:1;fill-rule:evenodd;stroke:none"
       transform="matrix(0.13333333,0,0,-0.13333333,0,179.66667)" />
    <path
       id="path32"
       d="m 392.25,819.25 h 260"
       style="fill:none;stroke:#231f20;stroke-width:2.5;stroke-linecap:butt;stroke-linejoin:miter;stroke-miterlimit:3.8637;stroke-dasharray:none;stroke-opacity:1"
       transform="matrix(0.13333333,0,0,-0.13333333,0,179.66667)" />
    <path
       id="path33"
       d="m 649.25,819.25 v 15 l 38,-15 -38,-15 v 15"
       style="fill:#231f20;fill-opacity:1;fill-rule:evenodd;stroke:none"
       transform="matrix(0.13333333,0,0,-0.13333333,0,179.66667)" />
    <path
       id="path34"
       d="m 869.25,982.25 h 253"
       style="fill:none;stroke:#ffffff;stroke-width:40;stroke-linecap:round;stroke-linejoin:miter;stroke-miterlimit:3.8637;stroke-dasharray:none;stroke-opacity:1"
       transform="matrix(0.13333333,0,0,-0.13333333,0,179.66667)" />
    <path
       id="path35"
       d="m 821.25,1026.25 v 254"
       style="fill:none;stroke:#ffffff;stroke-width:40;stroke-linecap:round;stroke-linejoin:miter;stroke-miterlimit:3.8637;stroke-dasharray:none;stroke-opacity:1"
       transform="matrix(0.13333333,0,0,-0.13333333,0,179.66667)" />
    <path
       id="path36"
       d="m 821.25,1240.25 v -259"
       style="fill:none;stroke:#231f20;stroke-width:2.5;stroke-linecap:butt;stroke-linejoin:miter;stroke-miterlimit:3.8637;stroke-dasharray:none;stroke-opacity:1"
       transform="matrix(0.13333333,0,0,-0.13333333,0,179.66667)" />
    <path
       id="path37"
       d="m 821.25,1238.25 h -15 l 15,37 15,-37 h -15"
       style="fill:#231f20;fill-opacity:1;fill-rule:evenodd;stroke:none"
       transform="matrix(0.13333333,0,0,-0.13333333,0,179.66667)" />
    <path
       id="path38"
       d="m 821.25,981.25 h 259"
       style="fill:none;stroke:#231f20;stroke-width:2.5;stroke-linecap:butt;stroke-linejoin:miter;stroke-miterlimit:3.8637;stroke-dasharray:none;stroke-opacity:1"
       transform="matrix(0.13333333,0,0,-0.13333333,0,179.66667)" />
    <path
       id="path39"
       d="m 1078.25,981.25 v 15 l 37,-15 -37,-15 v 15"
       style="fill:#231f20;fill-opacity:1;fill-rule:evenodd;stroke:none"
       transform="matrix(0.13333333,0,0,-0.13333333,0,179.66667)" />
    <path
       id="path40"
       d="m 1335.25,1030.25 h 254"
       style="fill:none;stroke:#ffffff;stroke-width:40;stroke-linecap:round;stroke-linejoin:miter;stroke-miterlimit:3.8637;stroke-dasharray:none;stroke-opacity:1"
       transform="matrix(0.13333333,0,0,-0.13333333,0,179.66667)" />
    <path
       id="path41"
       d="m 1287.25,1074.25 v 253"
       style="fill:none;stroke:#ffffff;stroke-width:40;stroke-linecap:round;stroke-linejoin:miter;stroke-miterlimit:3.8637;stroke-dasharray:none;stroke-opacity:1"
       transform="matrix(0.13333333,0,0,-0.13333333,0,179.66667)" />
    <path
       id="path42"
       d="m 1287.25,1288.25 v -260"
       style="fill:none;stroke:#231f20;stroke-width:2.5;stroke-linecap:butt;stroke-linejoin:miter;stroke-miterlimit:3.8637;stroke-dasharray:none;stroke-opacity:1"
       transform="matrix(0.13333333,0,0,-0.13333333,0,179.66667)" />
    <path
       id="path43"
       d="m 1287.25,1285.25 h -15 l 15,38 15,-38 h -15"
       style="fill:#231f20;fill-opacity:1;fill-rule:evenodd;stroke:none"
       transform="matrix(0.13333333,0,0,-0.13333333,0,179.66667)" />
    <path
       id="path44"
       d="m 1287.25,1028.25 h 260"
       style="fill:none;stroke:#231f20;stroke-width:2.5;stroke-linecap:butt;stroke-linejoin:miter;stroke-miterlimit:3.8637;stroke-dasharray:none;stroke-opacity:1"
       transform="matrix(0.13333333,0,0,-0.13333333,0,179.66667)" />
    <path
       id="path45"
       d="m 1544.25,1028.25 v 15 l 38,-15 -38,-15 v 15"
       style="fill:#231f20;fill-opacity:1;fill-rule:evenodd;stroke:none"
       transform="matrix(0.13333333,0,0,-0.13333333,0,179.66667)" />
    <path
       id="path46"
       d="m 1545.25,628.25 h 253"
       style="fill:none;stroke:#ffffff;stroke-width:40;stroke-linecap:round;stroke-linejoin:miter;stroke-miterlimit:3.8637;stroke-dasharray:none;stroke-opacity:1"
       transform="matrix(0.13333333,0,0,-0.13333333,0,179.66667)" />
    <path
       id="path47"
       d="m 1497.25,672.25 v 254"
       style="fill:none;stroke:#ffffff;stroke-width:40;stroke-linecap:round;stroke-linejoin:miter;stroke-miterlimit:3.8637;stroke-dasharray:none;stroke-opacity:1"
       transform="matrix(0.13333333,0,0,-0.13333333,0,179.66667)" />
    <path
       id="path48"
       d="m 1497.25,886.25 v -259"
       style="fill:none;stroke:#231f20;stroke-width:2.5;stroke-linecap:butt;stroke-linejoin:miter;stroke-miterlimit:3.8637;stroke-dasharray:none;stroke-opacity:1"
       transform="matrix(0.13333333,0,0,-0.13333333,0,179.66667)" />
    <path
       id="path49"
       d="m 1497.25,884.25 h -15 l 15,37 15,-37 h -15"
       style="fill:#231f20;fill-opacity:1;fill-rule:evenodd;stroke:none"
       transform="matrix(0.13333333,0,0,-0.13333333,0,179.66667)" />
    <path
       id="path50"
       d="m 1497.25,627.25 h 259"
       style="fill:none;stroke:#231f20;stroke-width:2.5;stroke-linecap:butt;stroke-linejoin:miter;stroke-miterlimit:3.8637;stroke-dasharray:none;stroke-opacity:1"
       transform="matrix(0.13333333,0,0,-0.13333333,0,179.66667)" />
    <path
       id="path51"
       d="m 1754.25,627.25 v 15 l 37,-15 -37,-15 v 15"
       style="fill:#231f20;fill-opacity:1;fill-rule:evenodd;stroke:none"
       transform="matrix(0.13333333,0,0,-0.13333333,0,179.66667)" />
    <g
       id="g51"
       aria-label="u&#10;1&#10;u&#10;2&#10;●&#10;●&#10;●&#10;●&#10;●&#10;●&#10;●&#10;●&#10;2&#10;3&#10;4&#10;6&#10;7&#10;8&#10;5"
       transform="matrix(1.3333333,0,0,1.3333333,55.766667,166.56667)">
      <path
         id="path52"
         d="m 3.690625,-0.93769531 c -0.421875,0.52734375 -0.5390625,0.6328125 -0.6679688,0.6328125 -0.058594,0 -0.082031,-0.046875 -0.082031,-0.140625 0,-0.046875 0,-0.046875 0.1523437,-0.62109379 l 0.6328125,-2.390625 H 3.128125 c -0.4335938,1.1835938 -0.515625,1.3828125 -0.8789063,1.9570313 -0.4804687,0.74999999 -0.8789062,1.16015624 -1.125,1.16015624 -0.1054687,0 -0.1757812,-0.0820313 -0.1757812,-0.19921875 0,-0.0234375 0,-0.046875 0.0117188,-0.0703125 l 0.7265624,-2.90624999 -0.023437,-0.011719 c -0.46875,0.1054688 -0.7617187,0.1523438 -1.19531245,0.2109375 v 0.1171875 c 0.31640625,0 0.31640625,0 0.3984375,0.046875 0.0351563,0.011719 0.0820313,0.082031 0.0820313,0.140625 0,0.070312 -0.046875,0.2695313 -0.1171875,0.5390625 l -0.2929688,1.1367188 C 0.3859375,-0.75019531 0.3390625,-0.49238281 0.3390625,-0.35175781 c 0,0.29296875 0.140625,0.4453125 0.421875,0.4453125 0.5625,0 0.9960937,-0.43359375 1.9101562,-1.98046879 -0.234375,0.8671875 -0.3632812,1.39453129 -0.3632812,1.57031254 0,0.2578125 0.1523437,0.38671875 0.3867187,0.38671875 0.375,0 0.5507813,-0.15234375 1.1015625,-0.9375 z M 6.3859375,2.9998047 H 8.6242187 V 2.8826172 h -0.140625 c -0.3867187,0 -0.5507812,-0.070312 -0.5507812,-0.2578125 0,-0.070312 0.023437,-0.1875 0.09375,-0.421875 C 8.05,2.1560547 8.0617187,2.1091797 8.0851562,2.0271484 L 9.221875,-2.1212891 c 0.046875,-0.140625 0.046875,-0.1992187 0.046875,-0.234375 0,-0.035156 -0.011719,-0.058594 -0.035156,-0.058594 0,0 -0.2226562,0.046875 -0.65625,0.1289062 l -0.7265625,0.1523438 c -0.011719,0 -0.070312,0.011719 -0.1640625,0.023437 v 0.1171875 l 0.457031,-0.011718 c 0.1875,-0.011719 0.3046875,0.09375 0.3046875,0.2460938 0,0.058594 -0.011719,0.1171875 -0.058594,0.28125 l -1.1015625,3.9375 c -0.09375,0.2929687 -0.2695312,0.375 -0.9023437,0.421875 z M -35.107227,-33.738477 c -0.421875,0.527344 -0.539062,0.632813 -0.667968,0.632813 -0.05859,0 -0.08203,-0.04687 -0.08203,-0.140625 0,-0.04687 0,-0.04687 0.152344,-0.621094 l 0.632813,-2.390625 h -0.597657 c -0.433593,1.183594 -0.515625,1.382813 -0.878906,1.957031 -0.480469,0.75 -0.878906,1.160157 -1.125,1.160157 -0.105469,0 -0.175781,-0.08203 -0.175781,-0.199219 0,-0.02344 0,-0.04687 0.01172,-0.07031 l 0.726562,-2.90625 -0.02344,-0.01172 c -0.46875,0.105468 -0.761719,0.152343 -1.195313,0.210937 v 0.117188 c 0.316406,0 0.316406,0 0.398438,0.04687 0.03516,0.01172 0.08203,0.08203 0.08203,0.140625 0,0.07031 -0.04687,0.269531 -0.117188,0.539062 l -0.292968,1.136719 c -0.152344,0.585937 -0.199219,0.84375 -0.199219,0.984375 0,0.292969 0.140625,0.445312 0.421875,0.445312 0.5625,0 0.996094,-0.433593 1.910156,-1.980468 -0.234375,0.867187 -0.363281,1.394531 -0.363281,1.570312 0,0.257813 0.152344,0.386719 0.386719,0.386719 0.375,0 0.550781,-0.152344 1.101562,-0.9375 z m 5.507813,2.824219 c -0.1875,0.398438 -0.339844,0.492188 -0.785156,0.503906 h -1.523438 v -0.03516 l 1.535156,-1.535156 c 0.9375,-0.9375 1.195313,-1.347656 1.195313,-1.875 0,-0.761719 -0.574219,-1.359375 -1.300781,-1.359375 -0.292969,0 -0.585938,0.07031 -0.820313,0.210937 -0.410156,0.222657 -0.632812,0.492188 -0.855469,1.078125 l 0.164063,0.04687 c 0.292969,-0.515625 0.644531,-0.75 1.125,-0.75 0.574219,0 0.996094,0.421875 0.996094,0.972657 0,0.175781 -0.02344,0.328125 -0.07031,0.433593 -0.199219,0.433594 -0.5625,0.9375 -1.078125,1.488282 l -1.6875,1.792968 v 0.140625 h 2.847656 l 0.398438,-1.054687 z m 0,0"
         style="fill:#231f20;fill-opacity:1;fill-rule:nonzero;stroke:none" />
      <path
         id="path53"
         d="m 93.262891,5.9998047 v -6.49218751 h 3.375 V 5.9998047 Z m 0.5625,-0.5625 h 2.25 V 0.07011719 h -2.25 z M -25.037891,-8.2003906 v -6.4921874 h 3.375 v 6.4921874 z m 0.5625,-0.5625 h 2.25 v -5.3671874 h -2.25 z M -5.5378906,-68.701367 v -6.492188 h 3.375 v 6.492188 z m 0.5625,-0.5625 h 2.25 v -5.367188 h -2.25 z m 88.7373046,-20.4375 v -6.492188 h 3.375 v 6.492188 z m 0.5625,-0.5625 h 2.25 v -5.367188 h -2.25 z m 20.437496,40.664062 v -6.492187 h 3.375 v 6.492187 z m 0.5625,-0.5625 h 2.25 v -5.367187 h -2.25 z M 37.261914,-85.098828 v -6.492188 h 3.375 v 6.492188 z m 0.5625,-0.5625 h 2.25 v -5.367188 h -2.25 z M 42.163281,-6.8 v -6.492187 h 3.375 V -6.8 Z m 0.5625,-0.5625 h 2.25 v -5.367187 h -2.25 z m -52.763672,-34.637695 v -6.492188 h 3.3750004 v 6.492188 z m 0.5625004,-0.5625 h 2.25 v -5.367188 h -2.25 z m 0,0"
         style="fill:#231f20;fill-opacity:1;fill-rule:nonzero;stroke:none" />
      <path
         id="path54"
         d="m 109.77168,-4.3419922 h -4.47656 c 0.10547,-0.7265625 0.49218,-1.171875 1.53515,-1.8164062 l 1.20703,-0.6679688 c 1.1836,-0.65625 1.79297,-1.546875 1.79297,-2.6132812 0,-0.7265626 -0.28125,-1.3945316 -0.78515,-1.8632816 -0.50391,-0.457031 -1.13672,-0.667968 -1.9336,-0.667968 -1.07812,0 -1.88672,0.375 -2.35547,1.125 -0.29296,0.457031 -0.43359,0.9960933 -0.45703,1.8749996 h 1.05469 c 0.0352,-0.5976563 0.11719,-0.9375 0.25781,-1.2304686 0.26953,-0.527344 0.82032,-0.855469 1.46485,-0.855469 0.96093,0 1.67578,0.703125 1.67578,1.6406251 0,0.6914062 -0.39844,1.2890625 -1.14844,1.7226562 l -1.10156,0.65625 c -1.78125,1.0195313 -2.29688,1.828125 -2.39063,3.7265625 h 5.66016 z M 93.848828,-103.99531 h 0.574219 c 1.160156,0 1.769531,0.53906 1.769531,1.58203 0,1.08984 -0.65625,1.75781 -1.757812,1.75781 -1.160157,0 -1.722657,-0.58594 -1.792969,-1.86328 h -1.054688 c 0.04687,0.69141 0.164063,1.14844 0.375,1.53516 0.433594,0.84375 1.265625,1.265621 2.425782,1.265621 1.757812,0 2.882812,-1.066401 2.882812,-2.707031 0,-1.10156 -0.421875,-1.69922 -1.441406,-2.0625 0.796875,-0.32812 1.195312,-0.92578 1.195312,-1.80469 0,-1.48828 -0.972656,-2.3789 -2.601562,-2.3789 -1.710938,0 -2.625,0.96093 -2.660156,2.78906 h 1.054687 c 0.01172,-0.52734 0.05859,-0.82031 0.199219,-1.08984 0.234375,-0.49219 0.761719,-0.78516 1.417969,-0.78516 0.9375,0 1.5,0.57422 1.5,1.5 0,0.62109 -0.210938,0.98437 -0.679688,1.19531 -0.28125,0.11719 -0.667969,0.16406 -1.40625,0.17578 z M 6.3244141,-82.497266 v 2.097657 h 1.0546875 v -2.097657 h 1.2539062 v -0.949218 H 7.3791016 v -5.625 H 6.5939453 l -3.8554687,5.460937 v 1.113281 z m 0,-0.949218 H 3.6642578 l 2.6601563,-3.832032 z M 119.07637,-66.42207 c -0.19922,-1.417969 -1.11328,-2.25 -2.41407,-2.25 -0.9375,0 -1.76953,0.457031 -2.27343,1.230468 -0.55078,0.855469 -0.77344,1.910157 -0.77344,3.480469 0,1.464844 0.19922,2.390625 0.71484,3.152344 0.45703,0.714844 1.20703,1.089844 2.14453,1.089844 1.61719,0 2.77735,-1.21875 2.77735,-2.90625 0,-1.59375 -1.07813,-2.730469 -2.60156,-2.730469 -0.84375,0 -1.5,0.316406 -1.95704,0.949219 0.0117,-2.144532 0.69141,-3.328125 1.89844,-3.328125 0.73828,0 1.26563,0.46875 1.42969,1.3125 z m -2.55469,2.003906 c 1.01953,0 1.65234,0.726562 1.65234,1.875 0,1.089844 -0.71484,1.886719 -1.6875,1.886719 -0.98437,0 -1.73437,-0.832032 -1.73437,-1.933594 0,-1.078125 0.72656,-1.828125 1.76953,-1.828125 z m -64.6875,-39.190426 h -5.683594 v 1.04297 h 4.59375 c -2.027344,2.894526 -2.847656,4.664058 -3.492188,7.464839 h 1.136719 c 0.46875,-2.71875 1.535156,-5.062499 3.445313,-7.617189 z M 4.7863281,-56.370312 c 0.890625,-0.539063 1.171875,-0.972657 1.171875,-1.792969 0,-1.359375 -1.0429687,-2.308594 -2.5546875,-2.308594 -1.5,0 -2.56640623,0.949219 -2.56640623,2.296875 0,0.832031 0.28125003,1.253906 1.16015623,1.804688 -0.9726562,0.492187 -1.45312498,1.195312 -1.45312498,2.15625 0,1.582031 1.16015628,2.695312 2.85937498,2.695312 1.6757813,0 2.8476563,-1.113281 2.8476563,-2.695312 0,-0.960938 -0.4804688,-1.664063 -1.4648438,-2.15625 z m -1.3828125,-3.164063 c 0.890625,0 1.4765625,0.539063 1.4765625,1.394531 0,0.820313 -0.5976562,1.359375 -1.4765625,1.359375 -0.9023437,0 -1.4765625,-0.539062 -1.4765625,-1.382812 0,-0.832031 0.5742188,-1.371094 1.4765625,-1.371094 z m 0,3.644531 c 1.0546875,0 1.7695313,0.691407 1.7695313,1.699219 0,1.042969 -0.703125,1.734375 -1.7929688,1.734375 -1.0429687,0 -1.7578125,-0.714844 -1.7578125,-1.722656 0,-1.03125 0.703125,-1.710938 1.78125,-1.710938 z M 58.20625,-24.908398 h -4.382813 l -0.644531,4.628906 h 0.972656 c 0.492188,-0.585938 0.902344,-0.785156 1.570313,-0.785156 1.148437,0 1.851562,0.773437 1.851562,2.039062 0,1.21875 -0.703125,1.96875 -1.863281,1.96875 -0.914062,0 -1.488281,-0.46875 -1.734375,-1.429687 h -1.054687 c 0.140625,0.691406 0.257812,1.03125 0.515625,1.347656 0.480468,0.644531 1.347656,1.019531 2.296875,1.019531 1.722656,0 2.917968,-1.253906 2.917968,-3.058594 0,-1.675781 -1.113281,-2.824218 -2.742187,-2.824218 -0.597656,0 -1.078125,0.152343 -1.570313,0.515625 l 0.328125,-2.378907 h 3.539063 z m 0,0"
         style="fill:#231f20;fill-opacity:1;fill-rule:nonzero;stroke:none" />
    </g>
    <path
       id="path55"
       d="m 281.25,396.25 h 68 c 16.012,0.051 28.699,-12.641 29,-28 v -74 c -0.301,-15.258 -12.988,-27.949 -29,-28 h -68 c -15.609,0.051 -28.301,12.742 -28,28 v 74 c -0.301,15.359 12.391,28.051 28,28"
       style="fill:#ffffff;fill-opacity:1;fill-rule:nonzero;stroke:none"
       transform="matrix(0.13333333,0,0,-0.13333333,0,179.66667)" />
    <path
       id="path56"
       d="M 3.1048828,-6.1753906 V 3.90625e-4 H 4.1595703 V -8.6714844 H 3.4681641 c -0.375,1.3242188 -0.609375,1.5117188 -2.25,1.7226563 v 0.7734375 z m 0,0"
       style="fill:#231f20;fill-opacity:1;fill-rule:nonzero;stroke:none"
       aria-label="1"
       transform="matrix(1.3333333,0,0,1.3333333,36.7,141.36667)" />
  </g>
</svg>
