<?xml version="1.0" encoding="UTF-8" standalone="no"?>
<!-- Created with Inkscape (http://www.inkscape.org/) -->

<svg
   version="1.1"
   id="svg1"
   width="282.66666"
   height="196.08"
   viewBox="0 0 282.66666 196.08"
   sodipodi:docname="PLANI4.EPS"
   xmlns:inkscape="http://www.inkscape.org/namespaces/inkscape"
   xmlns:sodipodi="http://sodipodi.sourceforge.net/DTD/sodipodi-0.dtd"
   xmlns="http://www.w3.org/2000/svg"
   xmlns:svg="http://www.w3.org/2000/svg">
  <defs
     id="defs1" />
  <sodipodi:namedview
     id="namedview1"
     pagecolor="#ffffff"
     bordercolor="#000000"
     borderopacity="0.25"
     inkscape:showpageshadow="2"
     inkscape:pageopacity="0.0"
     inkscape:pagecheckerboard="0"
     inkscape:deskcolor="#d1d1d1">
    <inkscape:page
       x="0"
       y="0"
       inkscape:label="1"
       id="page1"
       width="282.66666"
       height="196.08"
       margin="0"
       bleed="0" />
  </sodipodi:namedview>
  <g
     id="g1"
     inkscape:groupmode="layer"
     inkscape:label="1">
    <path
       id="path1"
       d="m 284.25,940.25 1077,170 397,-1049 -1701,256 z"
       style="fill:none;stroke:#231f20;stroke-width:5;stroke-linecap:butt;stroke-linejoin:miter;stroke-miterlimit:3.8637;stroke-dasharray:none;stroke-opacity:1"
       transform="matrix(0.13333333,0,0,-0.13333333,0,196.08)" />
    <path
       id="path2"
       d="m 141.25,679.25 h 68 c 15.566,-0.496 28.258,-13.187 28,-29 v -73 c 0.258,-15.809 -12.434,-28.496 -28,-28 h -68 c -16.051,-0.496 -28.742,12.191 -29,28 v 73 c 0.258,15.813 12.949,28.504 29,29"
       style="fill:#ffffff;fill-opacity:1;fill-rule:nonzero;stroke:none"
       transform="matrix(0.13333333,0,0,-0.13333333,0,196.08)" />
    <path
       id="path3"
       d="m 3.6927734,-0.93753906 c -0.421875,0.52734375 -0.5390625,0.6328125 -0.6679687,0.6328125 -0.058594,0 -0.082031,-0.046875 -0.082031,-0.140625 0,-0.046875 0,-0.046875 0.1523438,-0.62109374 L 3.72793,-3.4570703 H 3.1302734 c -0.4335937,1.1835937 -0.515625,1.3828125 -0.8789062,1.9570312 -0.4804688,0.75000004 -0.8789063,1.16015629 -1.125,1.16015629 -0.1054688,0 -0.17578126,-0.0820313 -0.17578126,-0.19921875 0,-0.0234375 0,-0.046875 0.0117188,-0.0703125 L 1.6888672,-3.5156641 1.6654297,-3.5273828 c -0.46875,0.1054687 -0.76171876,0.1523437 -1.19531251,0.2109375 v 0.1171875 c 0.31640625,0 0.31640625,0 0.3984375,0.046875 0.0351563,0.011719 0.0820313,0.082031 0.0820313,0.140625 0,0.070312 -0.046875,0.2695312 -0.1171875,0.5390625 l -0.29296875,1.1367187 c -0.15234375,0.58593754 -0.19921875,0.84375004 -0.19921875,0.98437504 0,0.29296875 0.140625,0.4453125 0.421875,0.4453125 0.56250001,0 0.99609381,-0.43359375 1.91015631,-1.98046874 -0.234375,0.8671875 -0.3632814,1.39453124 -0.3632814,1.57031249 0,0.2578125 0.1523439,0.38671875 0.3867189,0.38671875 0.375,0 0.5507811,-0.15234375 1.1015625,-0.9375 z m 6.7089846,-1.31250004 -0.04687,-0.082031 H 7.3548828 l -0.65625,1.0898437 0.1171875,0.070312 c 0.3632813,-0.4453125 0.5859375,-0.5625 1.0664063,-0.5742187 h 1.7695312 l 0.023437,0.023437 -2.9414062,4.78125 h 0.5625 z M -10.208594,-16.236367 c -0.421875,0.527344 -0.539062,0.632812 -0.667968,0.632812 -0.05859,0 -0.08203,-0.04687 -0.08203,-0.140625 0,-0.04687 0,-0.04687 0.152344,-0.621093 l 0.632813,-2.390625 h -0.597657 c -0.433593,1.183593 -0.515625,1.382812 -0.878906,1.957031 -0.480469,0.75 -0.878906,1.160156 -1.125,1.160156 -0.105469,0 -0.175781,-0.08203 -0.175781,-0.199219 0,-0.02344 0,-0.04687 0.01172,-0.07031 l 0.726562,-2.90625 -0.02344,-0.01172 c -0.46875,0.105469 -0.761719,0.152344 -1.195313,0.210938 v 0.117187 c 0.316406,0 0.316406,0 0.398438,0.04687 0.03516,0.01172 0.08203,0.08203 0.08203,0.140625 0,0.07031 -0.04687,0.269531 -0.117188,0.539063 l -0.292968,1.136718 c -0.152344,0.585938 -0.199219,0.84375 -0.199219,0.984375 0,0.292969 0.140625,0.445313 0.421875,0.445313 0.5625,0 0.996094,-0.433594 1.910156,-1.980469 -0.234375,0.867188 -0.363281,1.394531 -0.363281,1.570313 0,0.257812 0.152344,0.386718 0.386719,0.386718 0.375,0 0.550781,-0.152343 1.101562,-0.9375 z m 4.9453128,0.878906 c 0.9492187,-0.316406 1.3125,-0.65625 1.3125,-1.21875 0,-0.667969 -0.5859375,-1.136719 -1.40625,-1.136719 -0.8554688,0 -1.4414063,0.492188 -1.4414063,1.207032 0,0.433593 0.1640625,0.738281 0.703125,1.324218 -1.0078125,0.316407 -1.5703125,0.890625 -1.5703125,1.59375 0,0.210938 0.070312,0.457032 0.1875,0.65625 0.2695313,0.457032 0.75,0.691407 1.40625,0.691407 0.9960938,0 1.7226563,-0.621094 1.7226563,-1.441407 0,-0.539062 -0.234375,-0.972656 -0.9140625,-1.675781 z m -0.65625,0.304688 c 0.8789062,0.914062 0.9726562,1.054687 0.9726562,1.511718 0,0.644532 -0.4570312,1.125 -1.0898437,1.125 -0.6328125,0 -1.078125,-0.46875 -1.078125,-1.125 0,-0.667968 0.4335937,-1.21875 1.1953125,-1.511718 z m 0.5039062,-0.445313 c -0.6210937,-0.585937 -0.75,-0.785156 -0.75,-1.125 0,-0.5625 0.2929688,-0.902344 0.8085938,-0.902344 0.515625,0 0.8554687,0.375 0.8554687,0.949219 0,0.503906 -0.2109375,0.75 -0.9140625,1.078125 z m -29.194336,56.961914 c -0.421875,0.527344 -0.539062,0.632813 -0.667969,0.632813 -0.05859,0 -0.08203,-0.04687 -0.08203,-0.140625 0,-0.04687 0,-0.04687 0.152344,-0.621094 l 0.632812,-2.390625 h -0.597656 c -0.433594,1.183594 -0.515625,1.382812 -0.878906,1.957031 -0.480469,0.75 -0.878906,1.160156 -1.125,1.160156 -0.105469,0 -0.175781,-0.08203 -0.175781,-0.199218 0,-0.02344 0,-0.04687 0.01172,-0.07031 l 0.726563,-2.90625 -0.02344,-0.01172 c -0.46875,0.105469 -0.761718,0.152344 -1.195312,0.210938 v 0.117187 c 0.316406,0 0.316406,0 0.398437,0.04687 0.03516,0.01172 0.08203,0.08203 0.08203,0.140625 0,0.07031 -0.04687,0.269532 -0.117188,0.539063 l -0.292969,1.136719 c -0.152343,0.585937 -0.199218,0.84375 -0.199218,0.984375 0,0.292968 0.140625,0.445312 0.421875,0.445312 0.5625,0 0.996093,-0.433594 1.910156,-1.980469 -0.234375,0.867188 -0.363281,1.394532 -0.363281,1.570313 0,0.257812 0.152343,0.386719 0.386718,0.386719 0.375,0 0.550782,-0.152344 1.101563,-0.9375 z m 5.507813,2.824219 c -0.1875,0.398437 -0.339844,0.492187 -0.785157,0.503906 h -1.523437 v -0.03516 l 1.535156,-1.535156 c 0.9375,-0.9375 1.195313,-1.347657 1.195313,-1.875 0,-0.761719 -0.574219,-1.359375 -1.300782,-1.359375 -0.292968,0 -0.585937,0.07031 -0.820312,0.210937 -0.410156,0.222656 -0.632813,0.492188 -0.855469,1.078125 l 0.164063,0.04687 c 0.292968,-0.515625 0.644531,-0.75 1.125,-0.75 0.574218,0 0.996093,0.421875 0.996093,0.972656 0,0.175782 -0.02344,0.328125 -0.07031,0.433594 -0.199219,0.433594 -0.5625,0.9375 -1.078125,1.488281 l -1.6875,1.792969 v 0.140625 h 2.847656 l 0.398438,-1.054687 z m 141.594728,-59.72461 c -0.42188,0.527344 -0.53906,0.632813 -0.66797,0.632813 -0.0586,0 -0.082,-0.04687 -0.082,-0.140625 0,-0.04687 0,-0.04687 0.15234,-0.621094 l 0.63281,-2.390625 h -0.59765 c -0.4336,1.183594 -0.51563,1.382813 -0.87891,1.957031 -0.48047,0.75 -0.8789,1.160157 -1.125,1.160157 -0.10547,0 -0.17578,-0.08203 -0.17578,-0.199219 0,-0.02344 0,-0.04687 0.0117,-0.07031 l 0.72656,-2.90625 -0.0234,-0.01172 c -0.46875,0.105468 -0.76171,0.152343 -1.19531,0.210937 v 0.117188 c 0.31641,0 0.31641,0 0.39844,0.04687 0.0352,0.01172 0.082,0.08203 0.082,0.140625 0,0.07031 -0.0469,0.269531 -0.11719,0.539062 l -0.29297,1.136719 c -0.15234,0.585937 -0.19921,0.84375 -0.19921,0.984375 0,0.292969 0.14062,0.445312 0.42187,0.445312 0.5625,0 0.99609,-0.433593 1.91016,-1.980468 -0.23438,0.867187 -0.36328,1.394531 -0.36328,1.570312 0,0.257813 0.15234,0.386719 0.38671,0.386719 0.375,0 0.55079,-0.152344 1.10157,-0.9375 z m 4.21875,-0.820312 h 1.83984 l 0.17578,-0.574219 h -2.03906 l -0.84375,1.746094 v 0.117187 c 0.78516,0.175782 1.04297,0.269532 1.33594,0.503907 0.25781,0.199218 0.42187,0.609375 0.42187,1.03125 0,0.867187 -0.64453,1.652343 -1.37109,1.652343 -0.16406,0 -0.30469,-0.05859 -0.53906,-0.234375 -0.19922,-0.152343 -0.32813,-0.199218 -0.44532,-0.199218 -0.1875,0 -0.32812,0.128906 -0.32812,0.316406 0,0.28125 0.31641,0.457031 0.85547,0.457031 1.3125,0 2.3789,-1.03125 2.3789,-2.296875 0,-0.503906 -0.1875,-0.925781 -0.52734,-1.253906 -0.30469,-0.28125 -0.58594,-0.410156 -1.23047,-0.5625 z M 95.090234,-32.636758 c -0.421875,0.527344 -0.539062,0.632813 -0.667968,0.632813 -0.05859,0 -0.08203,-0.04687 -0.08203,-0.140625 0,-0.04687 0,-0.04687 0.152344,-0.621094 l 0.632813,-2.390625 h -0.597657 c -0.433593,1.183594 -0.515625,1.382812 -0.878906,1.957031 -0.480469,0.75 -0.878906,1.160156 -1.125,1.160156 -0.105469,0 -0.175781,-0.08203 -0.175781,-0.199218 0,-0.02344 0,-0.04687 0.01172,-0.07031 l 0.726562,-2.90625 -0.02344,-0.01172 c -0.46875,0.105469 -0.761719,0.152344 -1.195313,0.210938 v 0.117187 c 0.316406,0 0.316406,0 0.398438,0.04687 0.03516,0.01172 0.08203,0.08203 0.08203,0.140625 0,0.07031 -0.04687,0.269532 -0.117188,0.539063 l -0.292968,1.136719 c -0.152344,0.585937 -0.199219,0.84375 -0.199219,0.984375 0,0.292968 0.140625,0.445312 0.421875,0.445312 0.5625,0 0.996094,-0.433594 1.910156,-1.980469 -0.234375,0.867188 -0.363281,1.394532 -0.363281,1.570313 0,0.257812 0.152344,0.386719 0.386719,0.386719 0.375,0 0.550781,-0.152344 1.101562,-0.9375 z m 6.468746,-1.558594 c -1.0664,0.128907 -1.605464,0.328125 -2.296871,0.832032 -1.007812,0.75 -1.628906,1.886718 -1.628906,3.035156 0,1.019531 0.585938,1.6875 1.464844,1.6875 1.078123,0 1.992183,-1.019531 1.992183,-2.226563 0,-0.820312 -0.57421,-1.40625 -1.359371,-1.40625 -0.222656,0 -0.492187,0.05859 -0.703125,0.164063 l -0.03516,-0.01172 c 0.550781,-1.019531 1.640626,-1.828125 2.578126,-1.945312 z m -2.085933,2.203125 c 0.550783,0 0.902343,0.398438 0.902343,1.019532 0,0.539062 -0.1875,1.171875 -0.492187,1.59375 -0.234375,0.363281 -0.515625,0.527343 -0.855469,0.527343 -0.492187,0 -0.785156,-0.386718 -0.785156,-1.042968 0,-0.550782 0.164063,-1.21875 0.375,-1.570313 0.210938,-0.363281 0.480469,-0.527344 0.855469,-0.527344 z M 149.89004,87.861289 c -0.42188,0.527344 -0.53906,0.632813 -0.66797,0.632813 -0.0586,0 -0.082,-0.04687 -0.082,-0.140625 0,-0.04687 0,-0.04687 0.15234,-0.621094 l 0.63282,-2.390625 h -0.59766 c -0.43359,1.183594 -0.51563,1.382812 -0.87891,1.957031 -0.48047,0.75 -0.8789,1.160156 -1.125,1.160156 -0.10547,0 -0.17578,-0.08203 -0.17578,-0.199218 0,-0.02344 0,-0.04687 0.0117,-0.07031 l 0.72656,-2.90625 -0.0234,-0.01172 c -0.46875,0.105469 -0.76172,0.152344 -1.19532,0.210938 v 0.117187 c 0.31641,0 0.31641,0 0.39844,0.04687 0.0352,0.01172 0.082,0.08203 0.082,0.140625 0,0.07031 -0.0469,0.269532 -0.11719,0.539063 l -0.29296,1.136719 c -0.15235,0.585937 -0.19922,0.84375 -0.19922,0.984375 0,0.292968 0.14062,0.445312 0.42187,0.445312 0.5625,0 0.9961,-0.433594 1.91016,-1.980469 -0.23438,0.867188 -0.36328,1.394532 -0.36328,1.570313 0,0.257812 0.15234,0.386719 0.38672,0.386719 0.375,0 0.55078,-0.152344 1.10156,-0.9375 z m 3.84082,-0.597656 c 0.26953,-0.375 0.55078,-0.539063 0.87891,-0.539063 0.43359,0 0.71484,0.292969 0.71484,0.726563 0,0.339844 -0.16406,0.621094 -0.51563,0.855469 -0.33984,0.234375 -0.67968,0.351562 -1.39453,0.480468 l 0.0117,0.117188 c 0.44531,0 0.52735,0.01172 0.72656,0.08203 0.49219,0.1875 0.75,0.621094 0.75,1.253906 0,0.28125 -0.0586,0.574219 -0.17578,0.761719 -0.1875,0.328125 -0.53906,0.550781 -0.86718,0.550781 -0.15235,0 -0.33985,-0.08203 -0.57422,-0.257812 -0.23438,-0.164063 -0.36328,-0.222656 -0.51563,-0.222656 -0.22265,0 -0.35156,0.105468 -0.35156,0.304687 0,0.304688 0.32812,0.480469 0.90234,0.480469 0.44532,0 0.86719,-0.105469 1.19532,-0.292969 0.62109,-0.375 1.03125,-1.042969 1.03125,-1.757812 0,-0.585938 -0.23438,-0.949219 -0.76172,-1.195313 v -0.02344 c 0.96093,-0.375 1.24218,-0.644532 1.24218,-1.183594 0,-0.585938 -0.48046,-1.019531 -1.125,-1.019531 -0.55078,0 -1.04296,0.316406 -1.30078,0.832031 z M 134.4916,69.562461 c -0.42187,0.527344 -0.53906,0.632812 -0.66797,0.632812 -0.0586,0 -0.082,-0.04687 -0.082,-0.140625 0,-0.04687 0,-0.04687 0.15235,-0.621093 l 0.63281,-2.390625 h -0.59766 c -0.43359,1.183593 -0.51562,1.382812 -0.8789,1.957031 -0.48047,0.75 -0.87891,1.160156 -1.125,1.160156 -0.10547,0 -0.17579,-0.08203 -0.17579,-0.199219 0,-0.02344 0,-0.04687 0.0117,-0.07031 l 0.72657,-2.90625 -0.0234,-0.01172 c -0.46875,0.105469 -0.76172,0.152344 -1.19531,0.210938 v 0.117187 c 0.3164,0 0.3164,0 0.39843,0.04687 0.0352,0.01172 0.082,0.08203 0.082,0.140625 0,0.07031 -0.0469,0.269531 -0.11718,0.539063 l -0.29297,1.136718 c -0.15235,0.585938 -0.19922,0.84375 -0.19922,0.984375 0,0.292969 0.14062,0.445313 0.42187,0.445313 0.5625,0 0.9961,-0.433594 1.91016,-1.980469 -0.23437,0.867188 -0.36328,1.394531 -0.36328,1.570313 0,0.257812 0.15234,0.386718 0.38672,0.386718 0.375,0 0.55078,-0.152343 1.10156,-0.9375 z m 5.92969,2.003906 h -0.75 l 0.96094,-3.480469 h -0.32813 l -3.33984,3.457032 -0.15235,0.527343 h 2.09766 l -0.39844,1.429688 h 0.63282 l 0.375,-1.40625 h 0.79687 z m -1.40625,0 h -1.69922 v -0.02344 l 2.4375,-2.554688 h 0.0352 z m 0,0"
       style="fill:#231f20;fill-opacity:1;fill-rule:nonzero;stroke:none"
       aria-label="u&#10;7&#10;u&#10;8&#10;u&#10;2&#10;u&#10;5&#10;u&#10;6&#10;u&#10;3&#10;u&#10;4"
       transform="matrix(1.3333333,0,0,1.3333333,66.033333,59.113333)" />
    <path
       id="path4"
       d="m 1751.25,331.25 v -259"
       style="fill:none;stroke:#231f20;stroke-width:2.5;stroke-linecap:butt;stroke-linejoin:miter;stroke-miterlimit:3.8637;stroke-dasharray:none;stroke-opacity:1"
       transform="matrix(0.13333333,0,0,-0.13333333,0,196.08)" />
    <path
       id="path5"
       d="m 1751.25,329.25 h -15 l 15,37 15,-37 h -15"
       style="fill:#231f20;fill-opacity:1;fill-rule:evenodd;stroke:none"
       transform="matrix(0.13333333,0,0,-0.13333333,0,196.08)" />
    <path
       id="path6"
       d="m 1751.25,72.25 h 260"
       style="fill:none;stroke:#231f20;stroke-width:2.5;stroke-linecap:butt;stroke-linejoin:miter;stroke-miterlimit:3.8637;stroke-dasharray:none;stroke-opacity:1"
       transform="matrix(0.13333333,0,0,-0.13333333,0,196.08)" />
    <path
       id="path7"
       d="m 2009.25,72.25 v 15 l 37,-15 -37,-15 v 15"
       style="fill:#231f20;fill-opacity:1;fill-rule:evenodd;stroke:none"
       transform="matrix(0.13333333,0,0,-0.13333333,0,196.08)" />
    <path
       id="path8"
       d="m 339.25,935.25 h 253"
       style="fill:none;stroke:#ffffff;stroke-width:40;stroke-linecap:round;stroke-linejoin:miter;stroke-miterlimit:3.8637;stroke-dasharray:none;stroke-opacity:1"
       transform="matrix(0.13333333,0,0,-0.13333333,0,196.08)" />
    <path
       id="path9"
       d="m 1350.25,1363.25 v -260"
       style="fill:none;stroke:#231f20;stroke-width:2.5;stroke-linecap:butt;stroke-linejoin:miter;stroke-miterlimit:3.8637;stroke-dasharray:none;stroke-opacity:1"
       transform="matrix(0.13333333,0,0,-0.13333333,0,196.08)" />
    <path
       id="path10"
       d="m 1350.25,1360.25 h -15 l 15,38 15,-38 h -15"
       style="fill:#231f20;fill-opacity:1;fill-rule:evenodd;stroke:none"
       transform="matrix(0.13333333,0,0,-0.13333333,0,196.08)" />
    <path
       id="path11"
       d="m 1350.25,1103.25 h 260"
       style="fill:none;stroke:#231f20;stroke-width:2.5;stroke-linecap:butt;stroke-linejoin:miter;stroke-miterlimit:3.8637;stroke-dasharray:none;stroke-opacity:1"
       transform="matrix(0.13333333,0,0,-0.13333333,0,196.08)" />
    <path
       id="path12"
       d="m 1608.25,1103.25 v 15 l 37,-15 -37,-15 v 15"
       style="fill:#231f20;fill-opacity:1;fill-rule:evenodd;stroke:none"
       transform="matrix(0.13333333,0,0,-0.13333333,0,196.08)" />
    <path
       id="path13"
       d="m 106.25,321.25 h 254"
       style="fill:none;stroke:#ffffff;stroke-width:40;stroke-linecap:round;stroke-linejoin:miter;stroke-miterlimit:3.8637;stroke-dasharray:none;stroke-opacity:1"
       transform="matrix(0.13333333,0,0,-0.13333333,0,196.08)" />
    <path
       id="path14"
       d="m 291.25,1196.25 v -259"
       style="fill:none;stroke:#231f20;stroke-width:2.5;stroke-linecap:butt;stroke-linejoin:miter;stroke-miterlimit:3.8637;stroke-dasharray:none;stroke-opacity:1"
       transform="matrix(0.13333333,0,0,-0.13333333,0,196.08)" />
    <path
       id="path15"
       d="m 291.25,1194.25 h -15 l 15,37 15,-37 h -15"
       style="fill:#231f20;fill-opacity:1;fill-rule:evenodd;stroke:none"
       transform="matrix(0.13333333,0,0,-0.13333333,0,196.08)" />
    <path
       id="path16"
       d="m 291.25,937.25 h 260"
       style="fill:none;stroke:#231f20;stroke-width:2.5;stroke-linecap:butt;stroke-linejoin:miter;stroke-miterlimit:3.8637;stroke-dasharray:none;stroke-opacity:1"
       transform="matrix(0.13333333,0,0,-0.13333333,0,196.08)" />
    <path
       id="path17"
       d="m 548.25,937.25 v 15 l 38,-15 -38,-15 v 15"
       style="fill:#231f20;fill-opacity:1;fill-rule:evenodd;stroke:none"
       transform="matrix(0.13333333,0,0,-0.13333333,0,196.08)" />
    <path
       id="path18"
       d="m 58.25,580.25 v -259"
       style="fill:none;stroke:#231f20;stroke-width:2.5;stroke-linecap:butt;stroke-linejoin:miter;stroke-miterlimit:3.8637;stroke-dasharray:none;stroke-opacity:1"
       transform="matrix(0.13333333,0,0,-0.13333333,0,196.08)" />
    <path
       id="path19"
       d="m 58.25,578.25 h -15 l 15,37 15,-37 h -15"
       style="fill:#231f20;fill-opacity:1;fill-rule:evenodd;stroke:none"
       transform="matrix(0.13333333,0,0,-0.13333333,0,196.08)" />
    <path
       id="path20"
       d="m 58.25,321.25 h 259"
       style="fill:none;stroke:#231f20;stroke-width:2.5;stroke-linecap:butt;stroke-linejoin:miter;stroke-miterlimit:3.8637;stroke-dasharray:none;stroke-opacity:1"
       transform="matrix(0.13333333,0,0,-0.13333333,0,196.08)" />
    <path
       id="path21"
       d="m 315.25,321.25 v 15 l 37,-15 -37,-15 v 15"
       style="fill:#231f20;fill-opacity:1;fill-rule:evenodd;stroke:none"
       transform="matrix(0.13333333,0,0,-0.13333333,0,196.08)" />
    <path
       id="path22"
       d="m 311.25,498.25 h 69 c 15.441,-0.176 28.133,-12.867 28,-29 v -73 c 0.133,-15.484 -12.559,-28.176 -28,-28 h -69 c -15.176,-0.176 -27.867,12.516 -28,28 v 73 c 0.133,16.133 12.824,28.824 28,29"
       style="fill:#ffffff;fill-opacity:1;fill-rule:nonzero;stroke:none"
       transform="matrix(0.13333333,0,0,-0.13333333,0,196.08)" />
    <g
       id="g22"
       aria-label="u&#10;1&#10;●&#10;●&#10;●&#10;●"
       transform="matrix(1.3333333,0,0,1.3333333,39.633333,140.58)">
      <path
         id="path23"
         d="m 3.6910156,-0.93890625 c -0.421875,0.52734375 -0.5390625,0.6328125 -0.6679687,0.6328125 -0.058594,0 -0.082031,-0.046875 -0.082031,-0.140625 0,-0.046875 0,-0.046875 0.1523438,-0.62109375 l 0.6328125,-2.390625 H 3.1285156 c -0.4335937,1.1835938 -0.515625,1.3828125 -0.8789062,1.9570313 -0.4804688,0.74999995 -0.8789063,1.1601562 -1.125,1.1601562 -0.1054688,0 -0.17578127,-0.0820313 -0.17578127,-0.19921875 0,-0.0234375 0,-0.046875 0.0117188,-0.0703125 L 1.6871094,-3.5170312 1.6636719,-3.52875 c -0.46875,0.1054688 -0.76171877,0.1523438 -1.19531252,0.2109375 v 0.1171875 c 0.31640625,0 0.31640625,0 0.3984375,0.046875 0.0351563,0.011719 0.0820313,0.082031 0.0820313,0.140625 0,0.070312 -0.046875,0.2695313 -0.1171875,0.5390625 l -0.29296875,1.1367188 c -0.15234375,0.58593745 -0.19921875,0.84374995 -0.19921875,0.98437495 0,0.29296875 0.140625,0.4453125 0.421875,0.4453125 0.56249992,0 0.99609372,-0.43359375 1.91015632,-1.98046875 -0.234375,0.8671875 -0.3632814,1.39453125 -0.3632814,1.5703125 0,0.2578125 0.1523439,0.38671875 0.3867189,0.38671875 0.375,0 0.5507811,-0.15234375 1.1015625,-0.9375 z M 6.3863281,2.9985938 H 8.6246094 V 2.8814063 h -0.140625 c -0.3867188,0 -0.5507813,-0.070312 -0.5507813,-0.2578125 0,-0.070312 0.023437,-0.1875 0.09375,-0.421875 0.023437,-0.046875 0.035156,-0.09375 0.058594,-0.1757813 L 9.2222656,-2.1225 c 0.046875,-0.140625 0.046875,-0.1992187 0.046875,-0.234375 0,-0.035156 -0.011719,-0.058594 -0.035156,-0.058594 0,0 -0.2226563,0.046875 -0.65625,0.1289062 L 7.8511721,-2.134219 c -0.011719,0 -0.070312,0.011719 -0.1640625,0.023437 v 0.1171875 l 0.4570312,-0.011719 c 0.1875,-0.011719 0.3046875,0.09375 0.3046875,0.2460938 0,0.058594 -0.011719,0.1171875 -0.058594,0.28125 l -1.1015625,3.9375 c -0.09375,0.2929687 -0.2695313,0.375 -0.9023438,0.421875 z m 0,0"
         style="fill:#231f20;fill-opacity:1;fill-rule:nonzero;stroke:none" />
      <path
         id="path24"
         d="M -26.938867,12.801328 V 6.3091406 h 3.375 v 6.4921874 z m 0.5625,-0.5625 h 2.25 V 6.8716406 h -2.25 z m 22.7402342,-60.9375 v -6.492187 h 3.37499999 v 6.492187 z m 0.5625,-0.5625 h 2.24999999 v -5.367187 H -3.0736328 Z M 102.36289,-65.40082 v -6.492188 h 3.375 v 6.492188 z m 0.5625,-0.5625 h 2.25 v -5.367188 h -2.25 z m 39.43652,103.763672 v -6.492188 h 3.375 v 6.492188 z m 0.5625,-0.5625 h 2.25 v -5.367188 h -2.25 z m 0,0"
         style="fill:#231f20;fill-opacity:1;fill-rule:nonzero;stroke:none" />
    </g>
  </g>
</svg>
