<?xml version="1.0" encoding="UTF-8" standalone="no"?>
<!-- Created with Inkscape (http://www.inkscape.org/) -->

<svg
   version="1.1"
   id="svg1"
   width="592.49335"
   height="264.76001"
   viewBox="0 0 592.49335 264.76001"
   sodipodi:docname="PLANTRS.EPS"
   xmlns:inkscape="http://www.inkscape.org/namespaces/inkscape"
   xmlns:sodipodi="http://sodipodi.sourceforge.net/DTD/sodipodi-0.dtd"
   xmlns="http://www.w3.org/2000/svg"
   xmlns:svg="http://www.w3.org/2000/svg">
  <defs
     id="defs1" />
  <sodipodi:namedview
     id="namedview1"
     pagecolor="#ffffff"
     bordercolor="#000000"
     borderopacity="0.25"
     inkscape:showpageshadow="2"
     inkscape:pageopacity="0.0"
     inkscape:pagecheckerboard="0"
     inkscape:deskcolor="#d1d1d1">
    <inkscape:page
       x="0"
       y="0"
       inkscape:label="1"
       id="page1"
       width="592.49335"
       height="264.76001"
       margin="0"
       bleed="0" />
  </sodipodi:namedview>
  <g
     id="g1"
     inkscape:groupmode="layer"
     inkscape:label="1">
    <path
       id="path1"
       d="m 925.25,704.25 h 68 c 16.05,-0.223 28.74,-12.91 29,-29 v -73 c -0.26,-15.531 -12.95,-28.223 -29,-28 h -68 c -15.57,-0.223 -28.262,12.469 -28,28 v 73 c -0.262,16.09 12.43,28.777 28,29"
       style="fill:#ffffff;fill-opacity:1;fill-rule:nonzero;stroke:none"
       transform="matrix(0.13333333,0,0,-0.13333333,0,264.76)" />
    <path
       id="path2"
       d="m 818.25,884.25 h 68 c 16.023,-0.059 28.715,-12.746 29,-28 v -74 c -0.285,-15.367 -12.977,-28.059 -29,-28 h -68 c -15.598,-0.059 -28.285,12.633 -28,28 v 74 c -0.285,15.254 12.402,27.941 28,28"
       style="fill:#ffffff;fill-opacity:1;fill-rule:nonzero;stroke:none"
       transform="matrix(0.13333333,0,0,-0.13333333,0,264.76)" />
    <path
       id="path3"
       d="m 732.25,1582.25 h 1601 v -1034 h -1601 z"
       style="fill:none;stroke:#231f20;stroke-width:5;stroke-linecap:butt;stroke-linejoin:miter;stroke-miterlimit:3.8637;stroke-dasharray:none;stroke-opacity:1"
       transform="matrix(0.13333333,0,0,-0.13333333,0,264.76)" />
    <path
       id="path4"
       d="m 2379.25,1584.25 h 254"
       style="fill:none;stroke:#ffffff;stroke-width:40;stroke-linecap:round;stroke-linejoin:miter;stroke-miterlimit:3.8637;stroke-dasharray:none;stroke-opacity:1"
       transform="matrix(0.13333333,0,0,-0.13333333,0,264.76)" />
    <path
       id="path5"
       d="m 2331.25,1628.25 v 254"
       style="fill:none;stroke:#ffffff;stroke-width:40;stroke-linecap:round;stroke-linejoin:miter;stroke-miterlimit:3.8637;stroke-dasharray:none;stroke-opacity:1"
       transform="matrix(0.13333333,0,0,-0.13333333,0,264.76)" />
    <path
       id="path6"
       d="m 2331.25,1842.25 v -259"
       style="fill:none;stroke:#231f20;stroke-width:2.5;stroke-linecap:butt;stroke-linejoin:miter;stroke-miterlimit:3.8637;stroke-dasharray:none;stroke-opacity:1"
       transform="matrix(0.13333333,0,0,-0.13333333,0,264.76)" />
    <path
       id="path7"
       d="m 2331.25,1840.25 h -15 l 15,37 15,-37 h -15"
       style="fill:#231f20;fill-opacity:1;fill-rule:evenodd;stroke:none"
       transform="matrix(0.13333333,0,0,-0.13333333,0,264.76)" />
    <path
       id="path8"
       d="m 2331.25,1583.25 h 260"
       style="fill:none;stroke:#231f20;stroke-width:2.5;stroke-linecap:butt;stroke-linejoin:miter;stroke-miterlimit:3.8637;stroke-dasharray:none;stroke-opacity:1"
       transform="matrix(0.13333333,0,0,-0.13333333,0,264.76)" />
    <path
       id="path9"
       d="m 2588.25,1583.25 v 15 l 38,-15 -38,-15 v 15"
       style="fill:#231f20;fill-opacity:1;fill-rule:evenodd;stroke:none"
       transform="matrix(0.13333333,0,0,-0.13333333,0,264.76)" />
    <path
       id="path10"
       d="m 2379.25,552.25 h 253"
       style="fill:none;stroke:#ffffff;stroke-width:40;stroke-linecap:round;stroke-linejoin:miter;stroke-miterlimit:3.8637;stroke-dasharray:none;stroke-opacity:1"
       transform="matrix(0.13333333,0,0,-0.13333333,0,264.76)" />
    <path
       id="path11"
       d="m 2331.25,596.25 v 254"
       style="fill:none;stroke:#ffffff;stroke-width:40;stroke-linecap:round;stroke-linejoin:miter;stroke-miterlimit:3.8637;stroke-dasharray:none;stroke-opacity:1"
       transform="matrix(0.13333333,0,0,-0.13333333,0,264.76)" />
    <path
       id="path12"
       d="m 2331.25,810.25 v -259"
       style="fill:none;stroke:#231f20;stroke-width:2.5;stroke-linecap:butt;stroke-linejoin:miter;stroke-miterlimit:3.8637;stroke-dasharray:none;stroke-opacity:1"
       transform="matrix(0.13333333,0,0,-0.13333333,0,264.76)" />
    <path
       id="path13"
       d="m 2331.25,808.25 h -15 l 15,37 15,-37 h -15"
       style="fill:#231f20;fill-opacity:1;fill-rule:evenodd;stroke:none"
       transform="matrix(0.13333333,0,0,-0.13333333,0,264.76)" />
    <path
       id="path14"
       d="m 2331.25,551.25 h 259"
       style="fill:none;stroke:#231f20;stroke-width:2.5;stroke-linecap:butt;stroke-linejoin:miter;stroke-miterlimit:3.8637;stroke-dasharray:none;stroke-opacity:1"
       transform="matrix(0.13333333,0,0,-0.13333333,0,264.76)" />
    <path
       id="path15"
       d="m 2588.25,551.25 v 15 l 37,-15 -37,-15 v 15"
       style="fill:#231f20;fill-opacity:1;fill-rule:evenodd;stroke:none"
       transform="matrix(0.13333333,0,0,-0.13333333,0,264.76)" />
    <path
       id="path16"
       d="m 777.25,546.25 h 254"
       style="fill:none;stroke:#ffffff;stroke-width:40;stroke-linecap:round;stroke-linejoin:miter;stroke-miterlimit:3.8637;stroke-dasharray:none;stroke-opacity:1"
       transform="matrix(0.13333333,0,0,-0.13333333,0,264.76)" />
    <path
       id="path17"
       d="m 729.25,590.25 v 254"
       style="fill:none;stroke:#ffffff;stroke-width:40;stroke-linecap:round;stroke-linejoin:miter;stroke-miterlimit:3.8637;stroke-dasharray:none;stroke-opacity:1"
       transform="matrix(0.13333333,0,0,-0.13333333,0,264.76)" />
    <path
       id="path18"
       d="m 729.25,805.25 v -260"
       style="fill:none;stroke:#231f20;stroke-width:2.5;stroke-linecap:butt;stroke-linejoin:miter;stroke-miterlimit:3.8637;stroke-dasharray:none;stroke-opacity:1"
       transform="matrix(0.13333333,0,0,-0.13333333,0,264.76)" />
    <path
       id="path19"
       d="m 729.25,802.25 h -15 l 15,38 15,-38 h -15"
       style="fill:#231f20;fill-opacity:1;fill-rule:evenodd;stroke:none"
       transform="matrix(0.13333333,0,0,-0.13333333,0,264.76)" />
    <path
       id="path20"
       d="m 729.25,545.25 h 260"
       style="fill:none;stroke:#231f20;stroke-width:2.5;stroke-linecap:butt;stroke-linejoin:miter;stroke-miterlimit:3.8637;stroke-dasharray:none;stroke-opacity:1"
       transform="matrix(0.13333333,0,0,-0.13333333,0,264.76)" />
    <path
       id="path21"
       d="m 986.25,545.25 v 15 l 38,-15 -38,-15 v 15"
       style="fill:#231f20;fill-opacity:1;fill-rule:evenodd;stroke:none"
       transform="matrix(0.13333333,0,0,-0.13333333,0,264.76)" />
    <path
       id="path22"
       d="m 777.25,1581.25 h 254"
       style="fill:none;stroke:#ffffff;stroke-width:40;stroke-linecap:round;stroke-linejoin:miter;stroke-miterlimit:3.8637;stroke-dasharray:none;stroke-opacity:1"
       transform="matrix(0.13333333,0,0,-0.13333333,0,264.76)" />
    <path
       id="path23"
       d="m 729.25,1625.25 v 254"
       style="fill:none;stroke:#ffffff;stroke-width:40;stroke-linecap:round;stroke-linejoin:miter;stroke-miterlimit:3.8637;stroke-dasharray:none;stroke-opacity:1"
       transform="matrix(0.13333333,0,0,-0.13333333,0,264.76)" />
    <path
       id="path24"
       d="m 729.25,1839.25 v -259"
       style="fill:none;stroke:#231f20;stroke-width:2.5;stroke-linecap:butt;stroke-linejoin:miter;stroke-miterlimit:3.8637;stroke-dasharray:none;stroke-opacity:1"
       transform="matrix(0.13333333,0,0,-0.13333333,0,264.76)" />
    <path
       id="path25"
       d="m 729.25,1837.25 h -15 l 15,37 15,-37 h -15"
       style="fill:#231f20;fill-opacity:1;fill-rule:evenodd;stroke:none"
       transform="matrix(0.13333333,0,0,-0.13333333,0,264.76)" />
    <path
       id="path26"
       d="m 729.25,1580.25 h 260"
       style="fill:none;stroke:#231f20;stroke-width:2.5;stroke-linecap:butt;stroke-linejoin:miter;stroke-miterlimit:3.8637;stroke-dasharray:none;stroke-opacity:1"
       transform="matrix(0.13333333,0,0,-0.13333333,0,264.76)" />
    <path
       id="path27"
       d="m 986.25,1580.25 v 15 l 38,-15 -38,-15 v 15"
       style="fill:#231f20;fill-opacity:1;fill-rule:evenodd;stroke:none"
       transform="matrix(0.13333333,0,0,-0.13333333,0,264.76)" />
    <g
       id="g27"
       aria-label="●&#10;●&#10;●&#10;●&#10;u&#10;7&#10;u&#10;8&#10;u&#10;1&#10;u&#10;2&#10;u&#10;5&#10;u&#10;6&#10;u&#10;3&#10;u&#10;4&#10;σ&#10;xx&#10;σ&#10;xy&#10;σ&#10;yy&#10;σ&#10;xx&#10;σ&#10;xy&#10;σ&#10;yy"
       transform="matrix(1.3333333,0,0,1.3333333,92.966667,58.46)">
      <path
         id="path28"
         d="M 0.56113281,7.03125e-4 V -6.4914844 H 3.9361328 V 7.03125e-4 Z M 1.1236328,-0.56179688 h 2.25 V -5.9289844 h -2.25 z M 0.26230469,103.19895 V 96.706758 H 3.6373047 v 6.492192 z m 0.5625,-0.5625 H 3.0748047 V 97.269258 H 0.82480469 Z M 160.56309,-0.30105469 V -6.7932422 h 3.375 v 6.49218751 z m 0.5625,-0.5625 h 2.25 V -6.2307422 h -2.25 z M 160.56309,103.19895 v -6.492192 h 3.375 v 6.492192 z m 0.5625,-0.5625 h 2.25 v -5.367192 h -2.25 z m 0,0"
         style="fill:#231f20;fill-opacity:1;fill-rule:nonzero;stroke:none" />
      <path
         id="path29"
         d="m 30.991797,-14.536406 c -0.421875,0.527343 -0.539063,0.632812 -0.667969,0.632812 -0.05859,0 -0.08203,-0.04687 -0.08203,-0.140625 0,-0.04687 0,-0.04687 0.152344,-0.621094 l 0.632812,-2.390625 h -0.597656 c -0.433594,1.183594 -0.515625,1.382813 -0.878906,1.957032 -0.480469,0.75 -0.878907,1.160156 -1.125,1.160156 -0.105469,0 -0.175782,-0.08203 -0.175782,-0.199219 0,-0.02344 0,-0.04687 0.01172,-0.07031 l 0.726563,-2.90625 -0.02344,-0.01172 c -0.46875,0.105469 -0.761719,0.152344 -1.195312,0.210937 v 0.117188 c 0.316406,0 0.316406,0 0.398437,0.04687 0.03516,0.01172 0.08203,0.08203 0.08203,0.140625 0,0.07031 -0.04687,0.269531 -0.117187,0.539062 l -0.292969,1.136719 c -0.152344,0.585938 -0.199219,0.84375 -0.199219,0.984375 0,0.292969 0.140625,0.445313 0.421875,0.445313 0.5625,0 0.996094,-0.433594 1.910157,-1.980469 -0.234375,0.867187 -0.363282,1.394531 -0.363282,1.570312 0,0.257813 0.152344,0.386719 0.386719,0.386719 0.375,0 0.550781,-0.152344 1.101563,-0.9375 z m 6.708984,-1.3125 -0.04687,-0.08203 h -3 l -0.65625,1.089844 0.117188,0.07031 c 0.363281,-0.445313 0.585937,-0.5625 1.066406,-0.574219 h 1.769531 l 0.02344,0.02344 -2.941406,4.78125 h 0.5625 z M 14.691016,-32.137969 c -0.421875,0.527344 -0.539063,0.632813 -0.667969,0.632813 -0.05859,0 -0.08203,-0.04687 -0.08203,-0.140625 0,-0.04687 0,-0.04687 0.152343,-0.621094 l 0.632813,-2.390625 h -0.597656 c -0.433594,1.183594 -0.515625,1.382812 -0.878907,1.957031 -0.480468,0.75 -0.878906,1.160156 -1.125,1.160156 -0.105468,0 -0.175781,-0.08203 -0.175781,-0.199218 0,-0.02344 0,-0.04687 0.01172,-0.07031 l 0.726562,-2.90625 -0.02344,-0.01172 c -0.46875,0.105469 -0.761719,0.152344 -1.195313,0.210938 v 0.117187 c 0.316407,0 0.316407,0 0.398438,0.04687 0.03516,0.01172 0.08203,0.08203 0.08203,0.140625 0,0.07031 -0.04687,0.269532 -0.117187,0.539063 l -0.292969,1.136719 c -0.152344,0.585937 -0.199219,0.84375 -0.199219,0.984375 0,0.292968 0.140625,0.445312 0.421875,0.445312 0.5625,0 0.996094,-0.433594 1.910156,-1.980469 -0.234375,0.867188 -0.363281,1.394532 -0.363281,1.570313 0,0.257812 0.152344,0.386719 0.386719,0.386719 0.375,0 0.550781,-0.152344 1.101562,-0.9375 z m 5.044922,0.878906 c 0.949218,-0.316406 1.3125,-0.65625 1.3125,-1.21875 0,-0.667968 -0.585938,-1.136718 -1.40625,-1.136718 -0.855469,0 -1.441407,0.492187 -1.441407,1.207031 0,0.433594 0.164063,0.738281 0.703125,1.324219 -1.007812,0.316406 -1.570312,0.890625 -1.570312,1.59375 0,0.210937 0.07031,0.457031 0.1875,0.65625 0.269531,0.457031 0.75,0.691406 1.40625,0.691406 0.996094,0 1.722656,-0.621094 1.722656,-1.441406 0,-0.539063 -0.234375,-0.972657 -0.914062,-1.675782 z m -0.65625,0.304688 c 0.878906,0.914062 0.972656,1.054687 0.972656,1.511719 0,0.644531 -0.457031,1.125 -1.089844,1.125 -0.632812,0 -1.078125,-0.46875 -1.078125,-1.125 0,-0.667969 0.433594,-1.21875 1.195313,-1.511719 z m 0.503906,-0.445313 c -0.621094,-0.585937 -0.75,-0.785156 -0.75,-1.125 0,-0.5625 0.292969,-0.902343 0.808594,-0.902343 0.515625,0 0.855468,0.375 0.855468,0.949218 0,0.503907 -0.210937,0.75 -0.914062,1.078125 z m 5.408203,123.260743 c -0.421875,0.527343 -0.539063,0.632812 -0.667969,0.632812 -0.05859,0 -0.08203,-0.04687 -0.08203,-0.140625 0,-0.04687 0,-0.04687 0.152344,-0.621094 l 0.632812,-2.390625 h -0.597656 c -0.433594,1.183594 -0.515625,1.382813 -0.878906,1.957032 -0.480469,0.75 -0.878907,1.160156 -1.125,1.160156 -0.105469,0 -0.175782,-0.08203 -0.175782,-0.199219 0,-0.02344 0,-0.04687 0.01172,-0.07031 l 0.726563,-2.90625 -0.02344,-0.01172 c -0.46875,0.105469 -0.761719,0.152344 -1.195312,0.210937 v 0.117188 c 0.316406,0 0.316406,0 0.398437,0.04687 0.03516,0.01172 0.08203,0.08203 0.08203,0.140625 0,0.07031 -0.04687,0.269531 -0.117187,0.539062 l -0.292969,1.136719 c -0.152344,0.585938 -0.199219,0.84375 -0.199219,0.984375 0,0.292969 0.140625,0.445313 0.421875,0.445313 0.5625,0 0.996094,-0.433594 1.910157,-1.980469 -0.234375,0.867187 -0.363282,1.394531 -0.363282,1.570312 0,0.257813 0.152344,0.386719 0.386719,0.386719 0.375,0 0.550781,-0.152344 1.101563,-0.9375 z m 2.695312,3.9375 h 2.238282 v -0.117188 h -0.140625 c -0.386719,0 -0.550782,-0.07031 -0.550782,-0.257812 0,-0.07031 0.02344,-0.1875 0.09375,-0.421875 0.02344,-0.04687 0.03516,-0.09375 0.05859,-0.175782 l 1.136719,-4.148437 c 0.04687,-0.140625 0.04687,-0.199219 0.04687,-0.234375 0,-0.03516 -0.01172,-0.05859 -0.03516,-0.05859 0,0 -0.222657,0.04687 -0.65625,0.128906 l -0.726563,0.152344 c -0.01172,0 -0.07031,0.01172 -0.164062,0.02344 v 0.117187 l 0.457031,-0.01172 c 0.1875,-0.01172 0.304687,0.09375 0.304687,0.246094 0,0.05859 -0.01172,0.117188 -0.05859,0.28125 l -1.101563,3.9375 c -0.09375,0.292969 -0.269531,0.375 -0.902344,0.421875 z M 14.09043,73.761445 c -0.421875,0.527344 -0.539063,0.632813 -0.667969,0.632813 -0.05859,0 -0.08203,-0.04687 -0.08203,-0.140625 0,-0.04687 0,-0.04687 0.152343,-0.621094 l 0.632813,-2.390625 H 13.52793 c -0.433594,1.183594 -0.515625,1.382813 -0.878907,1.957031 -0.480468,0.75 -0.878906,1.160157 -1.125,1.160157 -0.105468,0 -0.175781,-0.08203 -0.175781,-0.199219 0,-0.02344 0,-0.04687 0.01172,-0.07031 l 0.726562,-2.90625 -0.02344,-0.01172 c -0.46875,0.105468 -0.761719,0.152343 -1.195313,0.210937 v 0.117188 c 0.316407,0 0.316407,0 0.398438,0.04687 0.03516,0.01172 0.08203,0.08203 0.08203,0.140625 0,0.07031 -0.04687,0.269531 -0.117187,0.539062 l -0.292969,1.136719 c -0.152344,0.585937 -0.199219,0.84375 -0.199219,0.984375 0,0.292969 0.140625,0.445312 0.421875,0.445312 0.5625,0 0.996094,-0.433593 1.910156,-1.980468 -0.234375,0.867187 -0.363281,1.394531 -0.363281,1.570312 0,0.257813 0.152344,0.386719 0.386719,0.386719 0.375,0 0.550781,-0.152344 1.101562,-0.9375 z m 5.507812,2.824219 c -0.1875,0.398438 -0.339844,0.492188 -0.785156,0.503906 h -1.523438 v -0.03516 l 1.535157,-1.535156 c 0.9375,-0.9375 1.195312,-1.347656 1.195312,-1.875 0,-0.761719 -0.574219,-1.359375 -1.300781,-1.359375 -0.292969,0 -0.585938,0.07031 -0.820313,0.210937 -0.410156,0.222657 -0.632812,0.492188 -0.855468,1.078125 l 0.164062,0.04687 c 0.292969,-0.515625 0.644531,-0.75 1.125,-0.75 0.574219,0 0.996094,0.421875 0.996094,0.972657 0,0.175781 -0.02344,0.328125 -0.07031,0.433593 -0.199218,0.433594 -0.5625,0.9375 -1.078125,1.488282 l -1.6875,1.792968 v 0.140625 h 2.847657 L 19.73887,76.644249 Z M 189.69004,-11.237578 c -0.42188,0.527344 -0.53906,0.632812 -0.66797,0.632812 -0.0586,0 -0.082,-0.04687 -0.082,-0.140625 0,-0.04687 0,-0.04687 0.15234,-0.621093 l 0.63282,-2.390625 h -0.59766 c -0.43359,1.183593 -0.51563,1.382812 -0.87891,1.957031 -0.48047,0.75 -0.8789,1.160156 -1.125,1.160156 -0.10547,0 -0.17578,-0.08203 -0.17578,-0.199219 0,-0.02344 0,-0.04687 0.0117,-0.07031 l 0.72656,-2.90625 -0.0234,-0.01172 c -0.46875,0.105469 -0.76172,0.152344 -1.19532,0.210938 v 0.117187 c 0.31641,0 0.31641,0 0.39844,0.04687 0.0352,0.01172 0.082,0.08203 0.082,0.140625 0,0.07031 -0.0469,0.269531 -0.11719,0.539063 l -0.29296,1.136718 c -0.15235,0.585938 -0.19922,0.84375 -0.19922,0.984375 0,0.292969 0.14062,0.445313 0.42187,0.445313 0.5625,0 0.9961,-0.433594 1.91016,-1.980469 -0.23438,0.867188 -0.36328,1.394531 -0.36328,1.570313 0,0.257812 0.15234,0.386718 0.38672,0.386718 0.375,0 0.55078,-0.152343 1.10156,-0.9375 z m 4.21875,-0.820313 h 1.83984 l 0.17578,-0.574218 h -2.03906 l -0.84375,1.746093 v 0.117188 c 0.78516,0.175781 1.04297,0.269531 1.33594,0.503906 0.25781,0.199219 0.42187,0.6093751 0.42187,1.0312501 0,0.8671875 -0.64453,1.6523438 -1.37109,1.6523438 -0.16406,0 -0.30469,-0.058594 -0.53906,-0.234375 -0.19922,-0.1523438 -0.32813,-0.1992188 -0.44531,-0.1992188 -0.1875,0 -0.32813,0.1289063 -0.32813,0.3164063 0,0.28125 0.31641,0.4570312 0.85547,0.4570312 1.3125,0 2.37891,-1.03125 2.37891,-2.296875 0,-0.5039066 -0.1875,-0.9257816 -0.52735,-1.2539066 -0.30469,-0.28125 -0.58594,-0.410156 -1.23047,-0.5625 z m -21.01758,-16.379882 c -0.42187,0.527343 -0.53906,0.632812 -0.66797,0.632812 -0.0586,0 -0.082,-0.04687 -0.082,-0.140625 0,-0.04687 0,-0.04687 0.15234,-0.621094 l 0.63282,-2.390625 h -0.59766 c -0.43359,1.183594 -0.51562,1.382813 -0.87891,1.957032 -0.48046,0.75 -0.8789,1.160156 -1.125,1.160156 -0.10546,0 -0.17578,-0.08203 -0.17578,-0.199219 0,-0.02344 0,-0.04687 0.0117,-0.07031 l 0.72656,-2.90625 -0.0234,-0.01172 c -0.46875,0.105469 -0.76172,0.152344 -1.19532,0.210937 v 0.117188 c 0.31641,0 0.31641,0 0.39844,0.04687 0.0352,0.01172 0.082,0.08203 0.082,0.140625 0,0.07031 -0.0469,0.269531 -0.11718,0.539062 l -0.29297,1.136719 c -0.15235,0.585938 -0.19922,0.84375 -0.19922,0.984375 0,0.292969 0.14062,0.445313 0.42187,0.445313 0.5625,0 0.9961,-0.433594 1.91016,-1.980469 -0.23438,0.867187 -0.36328,1.394531 -0.36328,1.570312 0,0.257813 0.15234,0.386719 0.38672,0.386719 0.375,0 0.55078,-0.152344 1.10156,-0.9375 z m 6.46875,-1.558594 c -1.06641,0.128906 -1.60547,0.328125 -2.29687,0.832031 -1.00782,0.75 -1.62891,1.886719 -1.62891,3.035156 0,1.019532 0.58594,1.6875 1.46484,1.6875 1.07813,0 1.99219,-1.019531 1.99219,-2.226562 0,-0.820313 -0.57422,-1.40625 -1.35937,-1.40625 -0.22266,0 -0.49219,0.05859 -0.70313,0.164062 l -0.0352,-0.01172 c 0.55079,-1.019532 1.64063,-1.828125 2.57813,-1.945313 z m -2.08594,2.203125 c 0.55078,0 0.90235,0.398437 0.90235,1.019531 0,0.539063 -0.1875,1.171875 -0.49219,1.59375 -0.23438,0.363281 -0.51563,0.527344 -0.85547,0.527344 -0.49219,0 -0.78516,-0.386719 -0.78516,-1.042969 0,-0.550781 0.16407,-1.21875 0.375,-1.570312 0.21094,-0.363282 0.48047,-0.527344 0.85547,-0.527344 z M 189.9918,91.661836 c -0.42188,0.527344 -0.53907,0.632812 -0.66797,0.632812 -0.0586,0 -0.082,-0.04687 -0.082,-0.140625 0,-0.04687 0,-0.04687 0.15234,-0.621093 l 0.63281,-2.390625 h -0.59765 c -0.4336,1.183593 -0.51563,1.382812 -0.87891,1.957031 -0.48047,0.75 -0.87891,1.160156 -1.125,1.160156 -0.10547,0 -0.17578,-0.08203 -0.17578,-0.199219 0,-0.02344 0,-0.04687 0.0117,-0.07031 l 0.72656,-2.90625 -0.0234,-0.01172 c -0.46875,0.105469 -0.76172,0.152344 -1.19531,0.210938 v 0.117187 c 0.31641,0 0.31641,0 0.39844,0.04687 0.0352,0.01172 0.082,0.08203 0.082,0.140625 0,0.07031 -0.0469,0.269531 -0.11719,0.539063 l -0.29297,1.136718 c -0.15234,0.585938 -0.19922,0.84375 -0.19922,0.984375 0,0.292969 0.14063,0.445313 0.42188,0.445313 0.5625,0 0.99609,-0.433594 1.91016,-1.980469 -0.23438,0.867188 -0.36329,1.394531 -0.36329,1.570313 0,0.257812 0.15235,0.386718 0.38672,0.386718 0.375,0 0.55078,-0.152343 1.10157,-0.9375 z m 3.73828,-0.597656 c 0.26953,-0.375 0.55078,-0.539063 0.8789,-0.539063 0.4336,0 0.71485,0.292969 0.71485,0.726563 0,0.339843 -0.16406,0.621093 -0.51563,0.855468 -0.33984,0.234375 -0.67968,0.351563 -1.39453,0.480469 l 0.0117,0.117188 c 0.44531,0 0.52734,0.01172 0.72656,0.08203 0.49219,0.1875 0.75,0.621094 0.75,1.253906 0,0.28125 -0.0586,0.574219 -0.17578,0.761719 -0.1875,0.328125 -0.53906,0.550781 -0.86719,0.550781 -0.15234,0 -0.33984,-0.08203 -0.57421,-0.257812 -0.23438,-0.164063 -0.36329,-0.222657 -0.51563,-0.222657 -0.22266,0 -0.35156,0.105469 -0.35156,0.304688 0,0.304687 0.32812,0.480469 0.90234,0.480469 0.44531,0 0.86719,-0.105469 1.19531,-0.292969 0.6211,-0.375 1.03125,-1.042969 1.03125,-1.757813 0,-0.585937 -0.23437,-0.949218 -0.76171,-1.195312 v -0.02344 c 0.96093,-0.375 1.24218,-0.644531 1.24218,-1.183593 0,-0.585938 -0.48047,-1.019532 -1.125,-1.019532 -0.55078,0 -1.04297,0.316407 -1.30078,0.832032 z M 176.69102,74.461641 c -0.42188,0.527343 -0.53907,0.632812 -0.66797,0.632812 -0.0586,0 -0.082,-0.04687 -0.082,-0.140625 0,-0.04687 0,-0.04687 0.15234,-0.621094 l 0.63281,-2.390625 h -0.59765 c -0.4336,1.183594 -0.51563,1.382813 -0.87891,1.957032 -0.48047,0.75 -0.87891,1.160156 -1.125,1.160156 -0.10547,0 -0.17578,-0.08203 -0.17578,-0.199219 0,-0.02344 0,-0.04687 0.0117,-0.07031 l 0.72656,-2.90625 -0.0234,-0.01172 c -0.46875,0.105469 -0.76172,0.152344 -1.19531,0.210937 v 0.117188 c 0.31641,0 0.31641,0 0.39844,0.04687 0.0351,0.01172 0.082,0.08203 0.082,0.140625 0,0.07031 -0.0469,0.269531 -0.11719,0.539062 l -0.29297,1.136719 c -0.15234,0.585938 -0.19922,0.84375 -0.19922,0.984375 0,0.292969 0.14063,0.445313 0.42188,0.445313 0.5625,0 0.99609,-0.433594 1.91015,-1.980469 -0.23437,0.867187 -0.36328,1.394531 -0.36328,1.570312 0,0.257813 0.15235,0.386719 0.38672,0.386719 0.375,0 0.55078,-0.152344 1.10156,-0.9375 z m 5.92968,2.003906 h -0.75 l 0.96094,-3.480469 h -0.32812 l -3.33985,3.457031 -0.15234,0.527344 h 2.09765 l -0.39843,1.429688 h 0.63281 l 0.375,-1.40625 h 0.79687 z m -1.40625,0 h -1.69922 v -0.02344 l 2.4375,-2.554687 h 0.0352 z m 0,0"
         style="fill:#231f20;fill-opacity:1;fill-rule:nonzero;stroke:none" />
      <path
         id="path30"
         d="m 356.10801,73.899141 v -7.5 h 6 v 7.5 z m 0.1875,-0.1875 h 5.625 v -7.125 h -5.625 z m 0,0"
         style="fill:#231f20;fill-opacity:1;fill-rule:nonzero;stroke:none" />
      <path
         id="path31"
         d="m 366.81895,75.785859 c -0.082,0.09375 -0.12891,0.152344 -0.22266,0.269532 -0.22266,0.304687 -0.35156,0.398437 -0.46875,0.398437 -0.14063,0 -0.23438,-0.128906 -0.30469,-0.410156 -0.0234,-0.105469 -0.0234,-0.128906 -0.0352,-0.152344 -0.2461,-1.019531 -0.36329,-1.476562 -0.36329,-1.628906 0.45704,-0.785156 0.8086,-1.207031 0.98438,-1.207031 0.0586,0 0.15234,0.02344 0.23437,0.07031 0.12891,0.07031 0.19922,0.09375 0.28125,0.09375 0.19922,0 0.33985,-0.152344 0.33985,-0.363281 0,-0.210938 -0.16406,-0.363281 -0.41016,-0.363281 -0.43359,0 -0.80859,0.363281 -1.5,1.429687 l -0.11719,-0.550781 c -0.14062,-0.679688 -0.24609,-0.878906 -0.51562,-0.878906 -0.23438,0 -0.55078,0.08203 -1.17188,0.292968 -0.0586,0.01172 -0.0586,0.01172 -0.10546,0.03516 l 0.0352,0.152343 c 0.38672,-0.105468 0.45703,-0.117187 0.5625,-0.117187 0.2461,0 0.30469,0.09375 0.44531,0.691406 l 0.29297,1.230469 -0.82031,1.171875 c -0.21094,0.304687 -0.39844,0.480469 -0.51562,0.480469 -0.0586,0 -0.15235,-0.03516 -0.25782,-0.09375 -0.1289,-0.07031 -0.22265,-0.09375 -0.3164,-0.09375 -0.19922,0 -0.33985,0.140625 -0.33985,0.351562 0,0.257813 0.1875,0.410156 0.50391,0.410156 0.30469,0 0.42187,-0.08203 0.92578,-0.679687 0.26953,-0.339844 0.49219,-0.632813 0.90234,-1.183594 l 0.29297,1.195313 c 0.12891,0.527343 0.25782,0.667968 0.58594,0.667968 0.375,0 0.63281,-0.234375 1.21875,-1.136718 z m 4.4414,0 c -0.082,0.09375 -0.1289,0.152344 -0.22265,0.269532 -0.22266,0.304687 -0.35157,0.398437 -0.46875,0.398437 -0.14063,0 -0.23438,-0.128906 -0.30469,-0.410156 -0.0234,-0.105469 -0.0234,-0.128906 -0.0352,-0.152344 -0.24609,-1.019531 -0.36328,-1.476562 -0.36328,-1.628906 0.45703,-0.785156 0.80859,-1.207031 0.98438,-1.207031 0.0586,0 0.15234,0.02344 0.23437,0.07031 0.12891,0.07031 0.19922,0.09375 0.28125,0.09375 0.19922,0 0.33984,-0.152344 0.33984,-0.363281 0,-0.210938 -0.16406,-0.363281 -0.41015,-0.363281 -0.4336,0 -0.8086,0.363281 -1.5,1.429687 l -0.11719,-0.550781 c -0.14062,-0.679688 -0.24609,-0.878906 -0.51562,-0.878906 -0.23438,0 -0.55079,0.08203 -1.17188,0.292968 -0.0586,0.01172 -0.0586,0.01172 -0.10547,0.03516 l 0.0352,0.152343 c 0.38672,-0.105468 0.45703,-0.117187 0.5625,-0.117187 0.24609,0 0.30469,0.09375 0.44531,0.691406 l 0.29297,1.230469 -0.82031,1.171875 c -0.21094,0.304687 -0.39844,0.480469 -0.51563,0.480469 -0.0586,0 -0.15234,-0.03516 -0.25781,-0.09375 -0.12891,-0.07031 -0.22266,-0.09375 -0.31641,-0.09375 -0.19922,0 -0.33984,0.140625 -0.33984,0.351562 0,0.257813 0.1875,0.410156 0.50391,0.410156 0.30468,0 0.42187,-0.08203 0.92578,-0.679687 0.26953,-0.339844 0.49218,-0.632813 0.90234,-1.183594 l 0.29297,1.195313 c 0.12891,0.527343 0.25781,0.667968 0.58594,0.667968 0.375,0 0.63281,-0.234375 1.21875,-1.136718 z m 0,0"
         style="fill:#231f20;fill-opacity:1;fill-rule:nonzero;stroke:none" />
      <path
         id="path32"
         d="m 327.90977,32.200898 v -7.5 h 6 v 7.5 z m 0.1875,-0.1875 h 5.625 v -7.125 h -5.625 z m 0,0"
         style="fill:#231f20;fill-opacity:1;fill-rule:nonzero;stroke:none" />
      <path
         id="path33"
         d="m 338.51816,34.087617 c -0.082,0.09375 -0.1289,0.152344 -0.22265,0.269531 -0.22266,0.304688 -0.35156,0.398438 -0.46875,0.398438 -0.14063,0 -0.23438,-0.128906 -0.30469,-0.410156 -0.0234,-0.105469 -0.0234,-0.128907 -0.0352,-0.152344 -0.24609,-1.019531 -0.36328,-1.476563 -0.36328,-1.628906 0.45703,-0.785157 0.8086,-1.207032 0.98438,-1.207032 0.0586,0 0.15234,0.02344 0.23437,0.07031 0.12891,0.07031 0.19922,0.09375 0.28125,0.09375 0.19922,0 0.33985,-0.152344 0.33985,-0.363281 0,-0.210938 -0.16407,-0.363282 -0.41016,-0.363282 -0.43359,0 -0.80859,0.363282 -1.5,1.429688 l -0.11719,-0.550781 c -0.14062,-0.679688 -0.24609,-0.878907 -0.51562,-0.878907 -0.23438,0 -0.55078,0.08203 -1.17188,0.292969 -0.0586,0.01172 -0.0586,0.01172 -0.10547,0.03516 l 0.0352,0.152344 c 0.38672,-0.105469 0.45703,-0.117187 0.5625,-0.117187 0.24609,0 0.30469,0.09375 0.44531,0.691406 l 0.29297,1.230469 -0.82031,1.171875 c -0.21094,0.304687 -0.39844,0.480468 -0.51563,0.480468 -0.0586,0 -0.15234,-0.03516 -0.25781,-0.09375 -0.1289,-0.07031 -0.22265,-0.09375 -0.3164,-0.09375 -0.19922,0 -0.33985,0.140625 -0.33985,0.351563 0,0.257812 0.1875,0.410156 0.50391,0.410156 0.30469,0 0.42187,-0.08203 0.92578,-0.679687 0.26953,-0.339844 0.49219,-0.632813 0.90234,-1.183594 l 0.29297,1.195312 c 0.12891,0.527344 0.25781,0.667969 0.58594,0.667969 0.375,0 0.63281,-0.234375 1.21875,-1.136719 z m 0.57422,-2.882812 c 0.11719,-0.03516 0.19922,-0.04687 0.30469,-0.04687 0.41016,0 0.59766,0.164062 0.79688,0.703125 0.28125,0.738281 0.79687,2.882812 0.79687,3.257812 0,0.164063 -0.0703,0.316406 -0.21094,0.515625 -0.28125,0.363281 -0.51562,0.644531 -0.63281,0.773438 -0.21094,0.222656 -0.31641,0.304687 -0.44531,0.304687 -0.0703,0 -0.12891,-0.03516 -0.2461,-0.117187 -0.14062,-0.117188 -0.24609,-0.164063 -0.36328,-0.164063 -0.22265,0 -0.38672,0.164063 -0.38672,0.386719 0,0.257812 0.19922,0.445312 0.50391,0.445312 0.64453,0 1.94531,-1.488281 3.02344,-3.480468 0.67969,-1.230469 0.96094,-1.945313 0.96094,-2.4375 0,-0.304688 -0.2461,-0.550782 -0.55079,-0.550782 -0.22265,0 -0.38671,0.152344 -0.38671,0.363282 0,0.164062 0.082,0.269531 0.28125,0.398437 0.1875,0.105469 0.25781,0.199219 0.25781,0.339844 0,0.398437 -0.35156,1.160156 -1.21875,2.589844 l -0.19922,-1.160157 c -0.15234,-0.890625 -0.70313,-2.53125 -0.85547,-2.53125 h -0.0469 c -0.0117,0.01172 -0.0469,0.01172 -0.082,0.01172 -0.082,0.01172 -0.45703,0.07031 -0.98437,0.164063 -0.0469,0.01172 -0.17578,0.04687 -0.31641,0.05859 z m 0,0"
         style="fill:#231f20;fill-opacity:1;fill-rule:nonzero;stroke:none" />
      <path
         id="path34"
         d="m 305.21055,131.40012 v -7.5 h 6 v 7.5 z m 0.1875,-0.1875 h 5.625 v -7.125 h -5.625 z m 0,0"
         style="fill:#231f20;fill-opacity:1;fill-rule:nonzero;stroke:none" />
      <path
         id="path35"
         d="m 312.05137,130.40402 c 0.11718,-0.0352 0.19922,-0.0469 0.30468,-0.0469 0.41016,0 0.59766,0.16406 0.79688,0.70312 0.28125,0.73828 0.79687,2.88282 0.79687,3.25782 0,0.16406 -0.0703,0.3164 -0.21093,0.51562 -0.28125,0.36328 -0.51563,0.64453 -0.63282,0.77344 -0.21093,0.22265 -0.3164,0.30469 -0.44531,0.30469 -0.0703,0 -0.1289,-0.0352 -0.24609,-0.11719 -0.14063,-0.11719 -0.2461,-0.16406 -0.36328,-0.16406 -0.22266,0 -0.38672,0.16406 -0.38672,0.38671 0,0.25782 0.19922,0.44532 0.5039,0.44532 0.64454,0 1.94532,-1.48828 3.02344,-3.48047 0.67969,-1.23047 0.96094,-1.94531 0.96094,-2.4375 0,-0.30469 -0.24609,-0.55078 -0.55078,-0.55078 -0.22266,0 -0.38672,0.15234 -0.38672,0.36328 0,0.16406 0.082,0.26953 0.28125,0.39844 0.1875,0.10546 0.25781,0.19921 0.25781,0.33984 0,0.39844 -0.35156,1.16016 -1.21875,2.58984 l -0.19922,-1.16015 c -0.15234,-0.89063 -0.70312,-2.53125 -0.85547,-2.53125 h -0.0469 c -0.0117,0.0117 -0.0469,0.0117 -0.082,0.0117 -0.082,0.0117 -0.45703,0.0703 -0.98438,0.16406 -0.0469,0.0117 -0.17578,0.0469 -0.3164,0.0586 z m 4.4414,0 c 0.11719,-0.0352 0.19922,-0.0469 0.30469,-0.0469 0.41016,0 0.59766,0.16406 0.79688,0.70312 0.28125,0.73828 0.79687,2.88282 0.79687,3.25782 0,0.16406 -0.0703,0.3164 -0.21094,0.51562 -0.28125,0.36328 -0.51562,0.64453 -0.63281,0.77344 -0.21094,0.22265 -0.31641,0.30469 -0.44531,0.30469 -0.0703,0 -0.12891,-0.0352 -0.2461,-0.11719 -0.14062,-0.11719 -0.24609,-0.16406 -0.36328,-0.16406 -0.22265,0 -0.38672,0.16406 -0.38672,0.38671 0,0.25782 0.19922,0.44532 0.50391,0.44532 0.64453,0 1.94531,-1.48828 3.02344,-3.48047 0.67969,-1.23047 0.96094,-1.94531 0.96094,-2.4375 0,-0.30469 -0.2461,-0.55078 -0.55079,-0.55078 -0.22265,0 -0.38671,0.15234 -0.38671,0.36328 0,0.16406 0.082,0.26953 0.28125,0.39844 0.1875,0.10546 0.25781,0.19921 0.25781,0.33984 0,0.39844 -0.35156,1.16016 -1.21875,2.58984 l -0.19922,-1.16015 c -0.15234,-0.89063 -0.70313,-2.53125 -0.85547,-2.53125 h -0.0469 c -0.0117,0.0117 -0.0469,0.0117 -0.082,0.0117 -0.082,0.0117 -0.45703,0.0703 -0.98437,0.16406 -0.0469,0.0117 -0.17578,0.0469 -0.31641,0.0586 z m 0,0"
         style="fill:#231f20;fill-opacity:1;fill-rule:nonzero;stroke:none" />
      <path
         id="path36"
         d="m 229.00937,74.300508 v -7.5 h 6 v 7.5 z m 0.1875,-0.1875 h 5.625 v -7.125 h -5.625 z m 0,0"
         style="fill:#231f20;fill-opacity:1;fill-rule:nonzero;stroke:none" />
      <path
         id="path37"
         d="m 239.72031,76.187227 c -0.082,0.09375 -0.1289,0.152343 -0.22265,0.269531 -0.22266,0.304687 -0.35157,0.398437 -0.46875,0.398437 -0.14063,0 -0.23438,-0.128906 -0.30469,-0.410156 -0.0234,-0.105469 -0.0234,-0.128906 -0.0352,-0.152344 -0.24609,-1.019531 -0.36328,-1.476562 -0.36328,-1.628906 0.45703,-0.785156 0.80859,-1.207031 0.98438,-1.207031 0.0586,0 0.15234,0.02344 0.23437,0.07031 0.12891,0.07031 0.19922,0.09375 0.28125,0.09375 0.19922,0 0.33984,-0.152343 0.33984,-0.363281 0,-0.210937 -0.16406,-0.363281 -0.41015,-0.363281 -0.4336,0 -0.8086,0.363281 -1.5,1.429687 l -0.11719,-0.550781 c -0.14062,-0.679687 -0.24609,-0.878906 -0.51562,-0.878906 -0.23438,0 -0.55079,0.08203 -1.17188,0.292969 -0.0586,0.01172 -0.0586,0.01172 -0.10547,0.03516 l 0.0352,0.152344 c 0.38672,-0.105469 0.45703,-0.117188 0.5625,-0.117188 0.24609,0 0.30469,0.09375 0.44531,0.691406 l 0.29297,1.230469 -0.82031,1.171875 c -0.21094,0.304688 -0.39844,0.480469 -0.51563,0.480469 -0.0586,0 -0.15234,-0.03516 -0.25781,-0.09375 -0.12891,-0.07031 -0.22266,-0.09375 -0.31641,-0.09375 -0.19922,0 -0.33984,0.140625 -0.33984,0.351562 0,0.257813 0.1875,0.410157 0.50391,0.410157 0.30468,0 0.42187,-0.08203 0.92578,-0.679688 0.26953,-0.339844 0.49218,-0.632812 0.90234,-1.183594 l 0.29297,1.195313 c 0.12891,0.527344 0.25781,0.667969 0.58594,0.667969 0.375,0 0.63281,-0.234375 1.21875,-1.136719 z m 4.43848,0 c -0.082,0.09375 -0.12891,0.152343 -0.22266,0.269531 -0.22265,0.304687 -0.35156,0.398437 -0.46875,0.398437 -0.14062,0 -0.23437,-0.128906 -0.30468,-0.410156 -0.0234,-0.105469 -0.0234,-0.128906 -0.0352,-0.152344 -0.24609,-1.019531 -0.36328,-1.476562 -0.36328,-1.628906 0.45703,-0.785156 0.80859,-1.207031 0.98437,-1.207031 0.0586,0 0.15235,0.02344 0.23438,0.07031 0.1289,0.07031 0.19922,0.09375 0.28125,0.09375 0.19922,0 0.33984,-0.152343 0.33984,-0.363281 0,-0.210937 -0.16406,-0.363281 -0.41015,-0.363281 -0.4336,0 -0.8086,0.363281 -1.5,1.429687 l -0.11719,-0.550781 c -0.14063,-0.679687 -0.2461,-0.878906 -0.51563,-0.878906 -0.23437,0 -0.55078,0.08203 -1.17187,0.292969 -0.0586,0.01172 -0.0586,0.01172 -0.10547,0.03516 l 0.0352,0.152344 c 0.38671,-0.105469 0.45703,-0.117188 0.5625,-0.117188 0.24609,0 0.30468,0.09375 0.44531,0.691406 l 0.29297,1.230469 -0.82032,1.171875 c -0.21093,0.304688 -0.39843,0.480469 -0.51562,0.480469 -0.0586,0 -0.15234,-0.03516 -0.25781,-0.09375 -0.12891,-0.07031 -0.22266,-0.09375 -0.31641,-0.09375 -0.19922,0 -0.33984,0.140625 -0.33984,0.351562 0,0.257813 0.1875,0.410157 0.5039,0.410157 0.30469,0 0.42188,-0.08203 0.92578,-0.679688 0.26954,-0.339844 0.49219,-0.632812 0.90235,-1.183594 l 0.29297,1.195313 c 0.1289,0.527344 0.25781,0.667969 0.58593,0.667969 0.375,0 0.63282,-0.234375 1.21875,-1.136719 z m 0,0"
         style="fill:#231f20;fill-opacity:1;fill-rule:nonzero;stroke:none" />
      <path
         id="path38"
         d="m 255.20957,96.399141 v -7.5 h 6 v 7.5 z m 0.1875,-0.1875 h 5.625 v -7.125 h -5.625 z m 0,0"
         style="fill:#231f20;fill-opacity:1;fill-rule:nonzero;stroke:none" />
      <path
         id="path39"
         d="m 265.92051,98.285859 c -0.082,0.09375 -0.12891,0.152344 -0.22266,0.269532 -0.22265,0.304687 -0.35156,0.398437 -0.46875,0.398437 -0.14062,0 -0.23437,-0.128906 -0.30469,-0.410156 -0.0234,-0.105469 -0.0234,-0.128906 -0.0352,-0.152344 -0.2461,-1.019531 -0.36328,-1.476562 -0.36328,-1.628906 0.45703,-0.785156 0.80859,-1.207031 0.98437,-1.207031 0.0586,0 0.15235,0.02344 0.23438,0.07031 0.1289,0.07031 0.19922,0.09375 0.28125,0.09375 0.19922,0 0.33984,-0.152344 0.33984,-0.363281 0,-0.210938 -0.16406,-0.363281 -0.41016,-0.363281 -0.43359,0 -0.80859,0.363281 -1.5,1.429687 l -0.11718,-0.550781 c -0.14063,-0.679688 -0.2461,-0.878906 -0.51563,-0.878906 -0.23437,0 -0.55078,0.08203 -1.17187,0.292968 -0.0586,0.01172 -0.0586,0.01172 -0.10547,0.03516 l 0.0352,0.152343 c 0.38672,-0.105468 0.45704,-0.117187 0.5625,-0.117187 0.2461,0 0.30469,0.09375 0.44532,0.691406 l 0.29297,1.230469 -0.82032,1.171875 c -0.21093,0.304687 -0.39843,0.480469 -0.51562,0.480469 -0.0586,0 -0.15235,-0.03516 -0.25781,-0.09375 -0.12891,-0.07031 -0.22266,-0.09375 -0.31641,-0.09375 -0.19922,0 -0.33984,0.140625 -0.33984,0.351562 0,0.257813 0.1875,0.410156 0.5039,0.410156 0.30469,0 0.42188,-0.08203 0.92578,-0.679687 0.26953,-0.339844 0.49219,-0.632813 0.90235,-1.183594 l 0.29297,1.195313 c 0.1289,0.527343 0.25781,0.667968 0.58593,0.667968 0.375,0 0.63282,-0.234375 1.21875,-1.136718 z m 0.57129,-2.882812 c 0.11718,-0.03516 0.19922,-0.04687 0.30468,-0.04687 0.41016,0 0.59766,0.164062 0.79688,0.703125 0.28125,0.738281 0.79687,2.882812 0.79687,3.257812 0,0.164063 -0.0703,0.316407 -0.21093,0.515625 -0.28125,0.363291 -0.51563,0.644541 -0.63282,0.773441 -0.21093,0.22266 -0.3164,0.30469 -0.44531,0.30469 -0.0703,0 -0.1289,-0.0352 -0.24609,-0.11719 -0.14063,-0.11719 -0.2461,-0.16406 -0.36328,-0.16406 -0.22266,0 -0.38672,0.16406 -0.38672,0.38671 0,0.25782 0.19922,0.44532 0.5039,0.44532 0.64454,0 1.94532,-1.488286 3.02344,-3.480473 0.67969,-1.230469 0.96094,-1.945313 0.96094,-2.4375 0,-0.304688 -0.24609,-0.550781 -0.55078,-0.550781 -0.22266,0 -0.38672,0.152343 -0.38672,0.363281 0,0.164062 0.082,0.269531 0.28125,0.398437 0.1875,0.105469 0.25781,0.199219 0.25781,0.339844 0,0.398438 -0.35156,1.160156 -1.21875,2.589844 l -0.19922,-1.160156 c -0.15234,-0.890625 -0.70312,-2.53125 -0.85547,-2.53125 h -0.0469 c -0.0117,0.01172 -0.0469,0.01172 -0.082,0.01172 -0.082,0.01172 -0.45703,0.07031 -0.98438,0.164063 -0.0469,0.01172 -0.17578,0.04687 -0.3164,0.05859 z m 0,0"
         style="fill:#231f20;fill-opacity:1;fill-rule:nonzero;stroke:none" />
      <path
         id="path40"
         d="m 306.20957,3.1003125 v -7.5 h 6 v 7.5 z m 0.1875,-0.1875 h 5.625 v -7.125 h -5.625 z m 0,0"
         style="fill:#231f20;fill-opacity:1;fill-rule:nonzero;stroke:none" />
      <path
         id="path41"
         d="m 312.95371,2.1042187 c 0.11719,-0.035156 0.19922,-0.046875 0.30469,-0.046875 0.41015,0 0.59765,0.1640625 0.79687,0.703125 0.28125,0.7382813 0.79688,2.8828125 0.79688,3.2578125 0,0.1640625 -0.0703,0.3164063 -0.21094,0.515625 -0.28125,0.3632813 -0.51562,0.6445313 -0.63281,0.7734375 -0.21094,0.2226563 -0.31641,0.3046875 -0.44531,0.3046875 -0.0703,0 -0.12891,-0.035156 -0.2461,-0.1171875 -0.14062,-0.1171875 -0.24609,-0.1640625 -0.36328,-0.1640625 -0.22266,0 -0.38672,0.1640625 -0.38672,0.3867188 0,0.2578125 0.19922,0.4453125 0.50391,0.4453125 0.64453,0 1.94531,-1.4882813 3.02344,-3.4804688 0.67968,-1.2304687 0.96093,-1.9453125 0.96093,-2.4375 0,-0.3046875 -0.24609,-0.5507812 -0.55078,-0.5507812 -0.22265,0 -0.38672,0.1523437 -0.38672,0.3632812 0,0.1640625 0.082,0.2695313 0.28125,0.3984375 0.1875,0.1054688 0.25782,0.1992188 0.25782,0.3398438 0,0.3984375 -0.35157,1.1601562 -1.21875,2.5898437 l -0.19922,-1.1601562 c -0.15235,-0.890625 -0.70313,-2.53125 -0.85547,-2.53125 h -0.0469 c -0.0117,0.011719 -0.0469,0.011719 -0.082,0.011719 -0.082,0.011719 -0.45703,0.070312 -0.98437,0.1640625 -0.0469,0.011719 -0.17578,0.046875 -0.31641,0.058594 z m 4.43848,0 c 0.11718,-0.035156 0.19922,-0.046875 0.30468,-0.046875 0.41016,0 0.59766,0.1640625 0.79688,0.703125 0.28125,0.7382813 0.79687,2.8828125 0.79687,3.2578125 0,0.1640625 -0.0703,0.3164063 -0.21093,0.515625 -0.28125,0.3632813 -0.51563,0.6445313 -0.63282,0.7734375 -0.21093,0.2226563 -0.3164,0.3046875 -0.44531,0.3046875 -0.0703,0 -0.1289,-0.035156 -0.24609,-0.1171875 -0.14063,-0.1171875 -0.2461,-0.1640625 -0.36328,-0.1640625 -0.22266,0 -0.38672,0.1640625 -0.38672,0.3867188 0,0.2578125 0.19922,0.4453125 0.5039,0.4453125 0.64454,0 1.94532,-1.4882813 3.02344,-3.4804688 0.67969,-1.2304687 0.96094,-1.9453125 0.96094,-2.4375 0,-0.3046875 -0.24609,-0.5507812 -0.55078,-0.5507812 -0.22266,0 -0.38672,0.1523437 -0.38672,0.3632812 0,0.1640625 0.082,0.2695313 0.28125,0.3984375 0.1875,0.1054688 0.25781,0.1992188 0.25781,0.3398438 0,0.3984375 -0.35156,1.1601562 -1.21875,2.5898437 l -0.19922,-1.1601562 c -0.15234,-0.890625 -0.70312,-2.53125 -0.85547,-2.53125 h -0.0469 c -0.0117,0.011719 -0.0469,0.011719 -0.082,0.011719 -0.082,0.011719 -0.45703,0.070312 -0.98438,0.1640625 -0.0469,0.011719 -0.17578,0.046875 -0.3164,0.058594 z m 0,0"
         style="fill:#231f20;fill-opacity:1;fill-rule:nonzero;stroke:none" />
    </g>
    <path
       id="path42"
       d="m 3695.25,1580.25 v -351"
       style="fill:none;stroke:#231f20;stroke-width:2.5;stroke-linecap:butt;stroke-linejoin:miter;stroke-miterlimit:3.8637;stroke-dasharray:none;stroke-opacity:1"
       transform="matrix(0.13333333,0,0,-0.13333333,0,264.76)" />
    <path
       id="path43"
       d="m 3695.25,1578.25 h -15 l 15,37 15,-37 h -15"
       style="fill:#231f20;fill-opacity:1;fill-rule:evenodd;stroke:none"
       transform="matrix(0.13333333,0,0,-0.13333333,0,264.76)" />
    <path
       id="path44"
       d="m 3369.25,909.25 h -352"
       style="fill:none;stroke:#231f20;stroke-width:2.5;stroke-linecap:butt;stroke-linejoin:miter;stroke-miterlimit:3.8637;stroke-dasharray:none;stroke-opacity:1"
       transform="matrix(0.13333333,0,0,-0.13333333,0,264.76)" />
    <path
       id="path45"
       d="m 3020.25,909.25 v -15 l -38,15 38,15 v -15"
       style="fill:#231f20;fill-opacity:1;fill-rule:evenodd;stroke:none"
       transform="matrix(0.13333333,0,0,-0.13333333,0,264.76)" />
    <path
       id="path46"
       d="m 3695.25,229.25 v 351"
       style="fill:none;stroke:#231f20;stroke-width:2.5;stroke-linecap:butt;stroke-linejoin:miter;stroke-miterlimit:3.8637;stroke-dasharray:none;stroke-opacity:1"
       transform="matrix(0.13333333,0,0,-0.13333333,0,264.76)" />
    <path
       id="path47"
       d="m 3695.25,232.25 h 15 l -15,-38 -15,38 h 15"
       style="fill:#231f20;fill-opacity:1;fill-rule:evenodd;stroke:none"
       transform="matrix(0.13333333,0,0,-0.13333333,0,264.76)" />
    <path
       id="path48"
       d="m 4033.25,911.25 h 351"
       style="fill:none;stroke:#231f20;stroke-width:2.5;stroke-linecap:butt;stroke-linejoin:miter;stroke-miterlimit:3.8637;stroke-dasharray:none;stroke-opacity:1"
       transform="matrix(0.13333333,0,0,-0.13333333,0,264.76)" />
    <path
       id="path49"
       d="m 4381.25,911.25 v 15 l 38,-15 -38,-15 v 15"
       style="fill:#231f20;fill-opacity:1;fill-rule:evenodd;stroke:none"
       transform="matrix(0.13333333,0,0,-0.13333333,0,264.76)" />
    <path
       id="path50"
       d="m 4002.25,1083.25 v -351"
       style="fill:none;stroke:#231f20;stroke-width:2.5;stroke-linecap:butt;stroke-linejoin:miter;stroke-miterlimit:3.8637;stroke-dasharray:none;stroke-opacity:1"
       transform="matrix(0.13333333,0,0,-0.13333333,0,264.76)" />
    <path
       id="path51"
       d="m 4002.25,1081.25 h -15 l 15,37 15,-37 h -15"
       style="fill:#231f20;fill-opacity:1;fill-rule:evenodd;stroke:none"
       transform="matrix(0.13333333,0,0,-0.13333333,0,264.76)" />
    <path
       id="path52"
       d="m 3882.25,610.25 h -351"
       style="fill:none;stroke:#231f20;stroke-width:2.5;stroke-linecap:butt;stroke-linejoin:miter;stroke-miterlimit:3.8637;stroke-dasharray:none;stroke-opacity:1"
       transform="matrix(0.13333333,0,0,-0.13333333,0,264.76)" />
    <path
       id="path53"
       d="m 3533.25,610.25 v -15 l -37,15 37,15 v -15"
       style="fill:#231f20;fill-opacity:1;fill-rule:evenodd;stroke:none"
       transform="matrix(0.13333333,0,0,-0.13333333,0,264.76)" />
    <path
       id="path54"
       d="m 3389.25,742.25 v 351"
       style="fill:none;stroke:#231f20;stroke-width:2.5;stroke-linecap:butt;stroke-linejoin:miter;stroke-miterlimit:3.8637;stroke-dasharray:none;stroke-opacity:1"
       transform="matrix(0.13333333,0,0,-0.13333333,0,264.76)" />
    <path
       id="path55"
       d="m 3389.25,745.25 h 15 l -15,-38 -15,38 h 15"
       style="fill:#231f20;fill-opacity:1;fill-rule:evenodd;stroke:none"
       transform="matrix(0.13333333,0,0,-0.13333333,0,264.76)" />
    <path
       id="path56"
       d="m 3518.25,1210.25 h 352"
       style="fill:none;stroke:#231f20;stroke-width:2.5;stroke-linecap:butt;stroke-linejoin:miter;stroke-miterlimit:3.8637;stroke-dasharray:none;stroke-opacity:1"
       transform="matrix(0.13333333,0,0,-0.13333333,0,264.76)" />
    <path
       id="path57"
       d="m 3867.25,1210.25 v 15 l 38,-15 -38,-15 v 15"
       style="fill:#231f20;fill-opacity:1;fill-rule:evenodd;stroke:none"
       transform="matrix(0.13333333,0,0,-0.13333333,0,264.76)" />
    <path
       id="path58"
       d="m 3427.25,1181.25 h 538 v -538 h -538 v 538"
       style="fill:#e9e9e9;fill-opacity:1;fill-rule:nonzero;stroke:none"
       transform="matrix(0.13333333,0,0,-0.13333333,0,264.76)" />
    <path
       id="path59"
       d="m 3427.25,1181.25 h 538 v -538 h -538 z"
       style="fill:none;stroke:#231f20;stroke-width:5;stroke-linecap:butt;stroke-linejoin:miter;stroke-miterlimit:3.8637;stroke-dasharray:none;stroke-opacity:1"
       transform="matrix(0.13333333,0,0,-0.13333333,0,264.76)" />
    <path
       id="path60"
       d="m 1452.25,1145.25 h 161 v -161 h -161 v 161"
       style="fill:#e9e9e9;fill-opacity:1;fill-rule:nonzero;stroke:none"
       transform="matrix(0.13333333,0,0,-0.13333333,0,264.76)" />
    <path
       id="path61"
       d="m 1452.25,1145.25 h 161 v -161 h -161 z"
       style="fill:none;stroke:#231f20;stroke-width:5;stroke-linecap:butt;stroke-linejoin:miter;stroke-miterlimit:3.8637;stroke-dasharray:none;stroke-opacity:1"
       transform="matrix(0.13333333,0,0,-0.13333333,0,264.76)" />
    <path
       id="path62"
       d="m 1749.25,1222.25 c 235.18,94.86 494.93,138.43 765,117 254.9,-19.27 493.1,-94.39 704,-212"
       style="fill:none;stroke:#231f20;stroke-width:2.5;stroke-linecap:butt;stroke-linejoin:miter;stroke-miterlimit:3.8637;stroke-dasharray:none;stroke-opacity:1"
       transform="matrix(0.13333333,0,0,-0.13333333,0,264.76)" />
    <path
       id="path63"
       d="m 3216.25,1128.25 7,13 26,-31 -40,5 7,13"
       style="fill:#231f20;fill-opacity:1;fill-rule:evenodd;stroke:none"
       transform="matrix(0.13333333,0,0,-0.13333333,0,264.76)" />
    <path
       id="path64"
       d="m 4.8279297,-1.3358203 c -0.1054688,0.1171875 -0.1640625,0.1875 -0.2695313,0.328125 -0.2695312,0.36328124 -0.421875,0.48046874 -0.5625,0.48046874 -0.1640625,0 -0.28125,-0.15234375 -0.3632812,-0.49218754 -0.035156,-0.1289062 -0.035156,-0.1523437 -0.046875,-0.1875 -0.2929688,-1.2304687 -0.4335938,-1.78125 -0.4335938,-1.9570312 0.5390625,-0.9375 0.9609375,-1.453125 1.1835938,-1.453125 0.070312,0 0.1757812,0.035156 0.28125,0.09375 0.1523437,0.082031 0.234375,0.1054687 0.3398437,0.1054687 0.234375,0 0.4101563,-0.1757812 0.4101563,-0.4335937 0,-0.2578125 -0.2109375,-0.4453125 -0.4921875,-0.4453125 -0.5273438,0 -0.9726563,0.4335937 -1.8164063,1.7226562 l -0.1289062,-0.65625 C 2.7654297,-5.0506641 2.6248047,-5.2967578 2.3083984,-5.2967578 c -0.28125,0 -0.6679687,0.1054687 -1.40624996,0.3515625 -0.0703125,0.023437 -0.0703125,0.023437 -0.12890625,0.046875 l 0.046875,0.1875 c 0.46875001,-0.1289063 0.55078121,-0.140625 0.66796871,-0.140625 0.3046875,0 0.375,0.1171875 0.5390625,0.8320312 l 0.3515625,1.4765625 -0.984375,1.40625 c -0.2578125,0.35156254 -0.48046871,0.57421879 -0.60937496,0.57421879 -0.0820313,0 -0.19921875,-0.0351563 -0.31640625,-0.10546875 -0.15234375,-0.09375 -0.28125,-0.12890625 -0.38671875,-0.12890625 -0.234375,0 -0.41015625,0.1875 -0.41015625,0.421875 0,0.31640625 0.234375,0.50390625 0.609375,0.50390625 0.36328125,0 0.515625,-0.10546875 1.11328121,-0.8203125 0.3164063,-0.39843754 0.5859375,-0.76171874 1.078125,-1.41796874 l 0.3632813,1.44140624 c 0.1523437,0.62109375 0.3046875,0.796875 0.6914062,0.796875 0.4570313,0 0.7734375,-0.28125 1.4648438,-1.35937504 z M -79.722852,-84.805547 c 0.152344,-0.03516 0.246094,-0.04687 0.375,-0.04687 0.492188,0 0.726563,0.199219 0.960938,0.84375 0.328125,0.890625 0.949219,3.457031 0.949219,3.914063 0,0.1875 -0.08203,0.386718 -0.257813,0.609375 -0.328125,0.445312 -0.609375,0.785156 -0.75,0.9375 -0.257812,0.257812 -0.386719,0.363281 -0.539062,0.363281 -0.08203,0 -0.152344,-0.03516 -0.292969,-0.140625 -0.175781,-0.140625 -0.292969,-0.199219 -0.445313,-0.199219 -0.257812,0 -0.46875,0.199219 -0.46875,0.46875 0,0.316406 0.257813,0.527344 0.621094,0.527344 0.761719,0 2.320313,-1.792969 3.632813,-4.171875 0.820312,-1.476563 1.148437,-2.34375 1.148437,-2.929688 0,-0.363281 -0.292969,-0.667968 -0.65625,-0.667968 -0.28125,0 -0.46875,0.1875 -0.46875,0.445312 0,0.199219 0.09375,0.316406 0.339844,0.46875 0.222656,0.140625 0.304687,0.246094 0.304687,0.410156 0,0.480469 -0.433593,1.40625 -1.464843,3.105469 l -0.234375,-1.394531 c -0.1875,-1.066406 -0.855469,-3.035156 -1.03125,-3.035156 h -0.04687 c -0.02344,0.01172 -0.05859,0.01172 -0.117188,0.01172 -0.09375,0.01172 -0.539062,0.09375 -1.171875,0.210938 -0.05859,0.01172 -0.210937,0.04687 -0.386719,0.07031 z m 0,0"
       style="fill:#231f20;fill-opacity:1;fill-rule:nonzero;stroke:none"
       aria-label="x&#10;y"
       transform="matrix(1.3333333,0,0,1.3333333,110.56667,257.66)" />
    <path
       id="path65"
       d="m 161.25,889.25 v -714"
       style="fill:none;stroke:#231f20;stroke-width:2.5;stroke-linecap:butt;stroke-linejoin:miter;stroke-miterlimit:3.8637;stroke-dasharray:none;stroke-opacity:1"
       transform="matrix(0.13333333,0,0,-0.13333333,0,264.76)" />
    <path
       id="path66"
       d="m 161.25,886.25 h -15 l 15,38 15,-38 h -15"
       style="fill:#231f20;fill-opacity:1;fill-rule:evenodd;stroke:none"
       transform="matrix(0.13333333,0,0,-0.13333333,0,264.76)" />
    <path
       id="path67"
       d="m 161.25,175.25 h 714"
       style="fill:none;stroke:#231f20;stroke-width:2.5;stroke-linecap:butt;stroke-linejoin:miter;stroke-miterlimit:3.8637;stroke-dasharray:none;stroke-opacity:1"
       transform="matrix(0.13333333,0,0,-0.13333333,0,264.76)" />
    <path
       id="path68"
       d="m 872.25,175.25 v 15 l 38,-15 -38,-15 v 15"
       style="fill:#231f20;fill-opacity:1;fill-rule:evenodd;stroke:none"
       transform="matrix(0.13333333,0,0,-0.13333333,0,264.76)" />
  </g>
</svg>
