<?xml version="1.0" encoding="UTF-8" standalone="no"?>
<!-- Created with Inkscape (http://www.inkscape.org/) -->

<svg
   version="1.1"
   id="svg1"
   width="377.33334"
   height="256"
   viewBox="0 0 377.33334 256"
   sodipodi:docname="PLATRE.EPS"
   xmlns:inkscape="http://www.inkscape.org/namespaces/inkscape"
   xmlns:sodipodi="http://sodipodi.sourceforge.net/DTD/sodipodi-0.dtd"
   xmlns="http://www.w3.org/2000/svg"
   xmlns:svg="http://www.w3.org/2000/svg">
  <defs
     id="defs1" />
  <sodipodi:namedview
     id="namedview1"
     pagecolor="#ffffff"
     bordercolor="#000000"
     borderopacity="0.25"
     inkscape:showpageshadow="2"
     inkscape:pageopacity="0.0"
     inkscape:pagecheckerboard="0"
     inkscape:deskcolor="#d1d1d1">
    <inkscape:page
       x="0"
       y="0"
       inkscape:label="1"
       id="page1"
       width="377.33334"
       height="256"
       margin="0"
       bleed="0" />
  </sodipodi:namedview>
  <g
     id="g1"
     inkscape:groupmode="layer"
     inkscape:label="1">
    <path
       id="path1"
       d="m 1.0078094,-5.1669891 h 3.7148437 v 0.140625 L 0.66796562,-0.79589531 H 2.4023406 c 0.4101563,0 0.65625,-0.0117188 0.7617188,-0.046875 0.1171875,-0.0234375 0.2226562,-0.09375 0.3046875,-0.18749999 0.09375,-0.1054688 0.1992187,-0.2929688 0.3164062,-0.5507813 H 3.9960906 L 3.4804656,9.796875e-4 H -0.33984688 V -0.16308281 L 3.7148406,-4.4052703 h -1.6875 c -0.3632812,0 -0.5742187,0.011719 -0.6445312,0.023437 -0.1054688,0.023437 -0.2226563,0.09375 -0.328125,0.1992187 -0.10546878,0.09375 -0.22265628,0.2578125 -0.33984378,0.4921875 H 0.50390312 Z M 114.46582,-17.111325 c 0.19922,0.210938 0.33984,0.410156 0.43359,0.621094 0.0703,0.140625 0.17578,0.503906 0.33984,1.101562 l 0.51563,-0.773437 c 0.14062,-0.1875 0.30469,-0.363281 0.50391,-0.539063 0.19921,-0.164062 0.36328,-0.28125 0.52734,-0.339843 0.0937,-0.04687 0.1875,-0.07031 0.30469,-0.07031 0.17578,0 0.30468,0.04687 0.39843,0.140625 0.10547,0.09375 0.16407,0.199219 0.16407,0.316406 0,0.164063 -0.0352,0.257813 -0.0937,0.316407 -0.11719,0.09375 -0.23438,0.140625 -0.375,0.140625 -0.0937,0 -0.17578,-0.01172 -0.26953,-0.04687 -0.1875,-0.05859 -0.31641,-0.09375 -0.375,-0.09375 -0.0937,0 -0.21094,0.05859 -0.32813,0.164062 -0.25781,0.210938 -0.53906,0.585938 -0.87891,1.183594 l 0.48047,2.015625 c 0.0703,0.304687 0.14063,0.492187 0.1875,0.550781 0.0469,0.05859 0.10547,0.08203 0.16407,0.08203 0.082,0 0.17578,-0.03516 0.28125,-0.128906 0.22265,-0.1875 0.41015,-0.410156 0.5625,-0.703125 l 0.21093,0.105469 c -0.25781,0.457031 -0.5625,0.84375 -0.94922,1.148437 -0.22265,0.164063 -0.39843,0.246094 -0.53906,0.246094 -0.23437,0 -0.39844,-0.117187 -0.52734,-0.351562 -0.0937,-0.164063 -0.25781,-0.820313 -0.50391,-1.980469 -0.62109,1.054687 -1.11328,1.734375 -1.46484,2.050781 -0.2461,0.1875 -0.46875,0.28125 -0.70313,0.28125 -0.15234,0 -0.29297,-0.05859 -0.42187,-0.164062 -0.0937,-0.08203 -0.14063,-0.199219 -0.14063,-0.351563 0,-0.128906 0.0469,-0.234375 0.12891,-0.316406 0.0937,-0.09375 0.19922,-0.140625 0.31641,-0.140625 0.11718,0 0.25781,0.05859 0.39843,0.199219 0.0937,0.08203 0.17578,0.128906 0.22266,0.128906 0.0469,0 0.11719,-0.03516 0.1875,-0.09375 0.1875,-0.152344 0.43359,-0.457031 0.75,-0.949219 0.31641,-0.492187 0.51562,-0.84375 0.60937,-1.054687 -0.23437,-0.949219 -0.35156,-1.453125 -0.375,-1.511719 -0.0937,-0.257813 -0.21093,-0.433594 -0.35156,-0.539063 -0.14062,-0.117187 -0.35156,-0.164062 -0.62109,-0.164062 -0.10547,0 -0.19922,0 -0.31641,0.01172 v -0.210938 z M 34.081052,-97.332028 c 0.128906,0.234375 0.222656,0.445312 0.269531,0.644531 0.04687,0.1875 0.105469,0.585938 0.164062,1.160156 l 0.246094,2.882813 c 0.246094,-0.292969 0.574219,-0.738281 1.019531,-1.335938 0.222657,-0.304687 0.492188,-0.703125 0.808594,-1.207031 0.1875,-0.316406 0.304688,-0.539062 0.363281,-0.667969 0.02344,-0.05859 0.03516,-0.128906 0.03516,-0.1875 0,-0.04687 -0.01172,-0.08203 -0.04687,-0.105468 -0.03516,-0.02344 -0.105469,-0.05859 -0.222657,-0.09375 -0.105468,-0.04687 -0.199218,-0.117188 -0.269531,-0.210938 -0.09375,-0.09375 -0.128906,-0.210937 -0.128906,-0.351562 0,-0.152344 0.04687,-0.28125 0.152344,-0.375 0.09375,-0.105469 0.199218,-0.152344 0.339843,-0.152344 0.175782,0 0.328125,0.08203 0.445313,0.222656 0.117187,0.140625 0.1875,0.328125 0.1875,0.585938 0,0.316406 -0.117188,0.65625 -0.328125,1.054687 -0.210938,0.398438 -0.609375,1.007813 -1.230469,1.828125 -0.597656,0.820313 -1.324219,1.710938 -2.179687,2.683594 -0.585938,0.667969 -1.019532,1.089844 -1.3125,1.265625 -0.28125,0.175781 -0.527344,0.257812 -0.726563,0.257812 -0.117187,0 -0.222656,-0.04687 -0.328125,-0.128906 -0.08203,-0.09375 -0.128906,-0.199219 -0.128906,-0.328125 0,-0.152344 0.05859,-0.28125 0.1875,-0.410156 0.128906,-0.128906 0.269531,-0.1875 0.410156,-0.1875 0.08203,0 0.152344,0.01172 0.199219,0.04687 0.03516,0.02344 0.07031,0.08203 0.105469,0.175781 0.03516,0.09375 0.07031,0.152344 0.09375,0.1875 0.02344,0.01172 0.04687,0.02344 0.07031,0.02344 0.02344,0 0.07031,-0.02344 0.117188,-0.05859 0.222656,-0.128906 0.46875,-0.351563 0.761718,-0.632813 0.375,-0.386718 0.644532,-0.714843 0.832032,-0.960937 l -0.328125,-3.714844 c -0.05859,-0.597656 -0.140625,-0.972656 -0.257813,-1.101562 -0.105469,-0.128907 -0.28125,-0.199219 -0.539062,-0.199219 -0.08203,0 -0.222657,0.01172 -0.433594,0.03516 l -0.05859,-0.222656 z m 0,0"
       style="fill:#231f20;fill-opacity:1;fill-rule:nonzero;stroke:none"
       aria-label="z&#10;x&#10;y"
       transform="matrix(1.3333333,0,0,1.3333333,2.6640667,246.3776)" />
    <path
       id="path2"
       d="M 474.867,312.219 103.527,23.082"
       style="fill:none;stroke:#231f20;stroke-width:2.5;stroke-linecap:butt;stroke-linejoin:miter;stroke-miterlimit:3.86371;stroke-dasharray:none;stroke-opacity:1"
       transform="matrix(0.13333333,0,0,-0.13333333,0,256)" />
    <path
       id="path3"
       d="M 105.5,24.6211 114.73,12.8008 75.9453,1.53516 96.2617,36.4414 105.5,24.6211"
       style="fill:#231f20;fill-opacity:1;fill-rule:evenodd;stroke:none"
       transform="matrix(0.13333333,0,0,-0.13333333,0,256)" />
    <path
       id="path4"
       d="M 475.41,1025.88 V 311.883"
       style="fill:none;stroke:#231f20;stroke-width:2.5;stroke-linecap:butt;stroke-linejoin:miter;stroke-miterlimit:3.86371;stroke-dasharray:none;stroke-opacity:1"
       transform="matrix(0.13333333,0,0,-0.13333333,0,256)" />
    <path
       id="path5"
       d="m 475.41,1023.38 h -15 l 15,37.5 15,-37.5 h -15"
       style="fill:#231f20;fill-opacity:1;fill-rule:evenodd;stroke:none"
       transform="matrix(0.13333333,0,0,-0.13333333,0,256)" />
    <path
       id="path6"
       d="m 475.41,311.883 h 714"
       style="fill:none;stroke:#231f20;stroke-width:2.5;stroke-linecap:butt;stroke-linejoin:miter;stroke-miterlimit:3.86371;stroke-dasharray:none;stroke-opacity:1"
       transform="matrix(0.13333333,0,0,-0.13333333,0,256)" />
    <path
       id="path7"
       d="m 1186.91,311.883 v 15 l 37.5,-15 -37.5,-15 v 15"
       style="fill:#231f20;fill-opacity:1;fill-rule:evenodd;stroke:none"
       transform="matrix(0.13333333,0,0,-0.13333333,0,256)" />
    <path
       id="path8"
       d="m 2.2614984,2.4597344 -0.2109375,0.09375 C 1.5818109,1.6628594 1.2419672,0.88942188 1.0544672,0.19801563 0.90212344,-0.32932812 0.82009219,-0.86839062 0.82009219,-1.4074531 c 0,-1.2421875 0.28125001,-2.3789063 0.86718751,-3.375 0.7148437,-1.21875 1.875,-2.4023438 3.46875,-3.5625 l 0.140625,0.2109375 c -0.7265625,0.5390625 -1.3125,1.1367187 -1.7695313,1.7929687 -0.5742187,0.8320313 -1.03125,1.828125 -1.40625,3 -0.3515625,1.1835938 -0.5390625,2.2382813 -0.5390625,3.19921878 0,0.73828125 0.234375,1.60546872 0.6796875,2.60156252 z m 3.6826172,-7.7695313 c 0.1992188,0.2109375 0.3398438,0.4101563 0.4335938,0.6210938 0.070312,0.140625 0.1757812,0.5039062 0.3398437,1.1015625 l 0.515625,-0.7734375 c 0.140625,-0.1875 0.3046875,-0.3632813 0.5039063,-0.5390625 0.1992187,-0.1640625 0.3632812,-0.28125 0.5273437,-0.3398438 0.09375,-0.046875 0.1875,-0.070312 0.3046875,-0.070312 0.1757813,0 0.3046875,0.046875 0.3984375,0.140625 0.1054688,0.09375 0.1640625,0.1992188 0.1640625,0.3164063 0,0.1640625 -0.035156,0.2578125 -0.09375,0.3164062 -0.1171875,0.09375 -0.234375,0.140625 -0.375,0.140625 -0.09375,0 -0.1757812,-0.011719 -0.2695312,-0.046875 -0.1875,-0.058594 -0.3164063,-0.09375 -0.375,-0.09375 -0.09375,0 -0.2109375,0.058594 -0.328125,0.1640625 -0.2578125,0.2109375 -0.5390625,0.5859375 -0.8789063,1.1835938 l 0.4804688,2.015625 c 0.070312,0.30468748 0.140625,0.49218748 0.1875,0.55078123 0.046875,0.0585938 0.1054687,0.0820313 0.1640625,0.0820313 0.082031,0 0.1757812,-0.0351563 0.28125,-0.12890625 0.2226562,-0.1875 0.4101562,-0.41015628 0.5625,-0.70312508 l 0.2109375,0.1054688 c -0.2578125,0.45703128 -0.5625,0.84375003 -0.9492188,1.14843753 -0.2226562,0.1640625 -0.3984375,0.24609375 -0.5390625,0.24609375 -0.234375,0 -0.3984375,-0.1171875 -0.5273437,-0.3515625 -0.09375,-0.1640625 -0.2578125,-0.82031258 -0.5039063,-1.98046878 -0.6210937,1.0546875 -1.1132812,1.73437503 -1.4648437,2.05078128 -0.2460938,0.1875 -0.46875,0.28125 -0.703125,0.28125 -0.1523438,0 -0.2929688,-0.05859375 -0.421875,-0.1640625 -0.09375,-0.08203125 -0.140625,-0.19921875 -0.140625,-0.3515625 0,-0.12890625 0.046875,-0.234375 0.1289062,-0.31640625 0.09375,-0.09375 0.1992188,-0.140625 0.3164063,-0.140625 0.1171875,0 0.2578125,0.0585938 0.3984375,0.19921875 0.09375,0.0820313 0.1757812,0.12890625 0.2226562,0.12890625 0.046875,0 0.1171875,-0.0351563 0.1875,-0.09375 0.1875,-0.15234375 0.4335938,-0.45703133 0.75,-0.94921883 0.3164063,-0.4921875 0.515625,-0.84375 0.609375,-1.0546875 -0.234375,-0.9492187 -0.3515625,-1.453125 -0.375,-1.5117187 -0.09375,-0.2578125 -0.2109375,-0.4335938 -0.3515625,-0.5390625 -0.140625,-0.1171875 -0.3515625,-0.1640625 -0.6210937,-0.1640625 -0.1054688,0 -0.1992188,0 -0.3164063,0.011719 v -0.2109375 z m 8.9765624,0.3515625 -1.511719,5.22656253 h 0.9375 l -0.210937,0.7265625 H 13.186303 L 12.576928,3.1277031 H 11.709741 L 12.342553,0.99489063 H 9.4480219 L 9.6941156,0.16285938 14.463647,-4.9582344 Z m -1.3125,1.5117188 -3.410156,3.71484373 h 2.34375 z m 0.969727,4.7578125 c 0.28125,-0.140625 0.527343,-0.3046875 0.703125,-0.50390627 0.140625,-0.1640625 0.222656,-0.3046875 0.222656,-0.4453125 0,-0.0703125 -0.01172,-0.140625 -0.03516,-0.19921875 -0.01172,-0.0351563 -0.08203,-0.09375 -0.164063,-0.1875 -0.09375,-0.09375 -0.152344,-0.15234375 -0.164062,-0.1875 -0.02344,-0.0703125 -0.03516,-0.15234375 -0.03516,-0.234375 0,-0.1640625 0.05859,-0.31640625 0.164063,-0.43359375 0.117187,-0.1171875 0.257812,-0.17578123 0.410156,-0.17578123 0.164063,0 0.304688,0.0585937 0.433594,0.18749998 0.117187,0.140625 0.175781,0.29296875 0.175781,0.4921875 0,0.33984375 -0.128906,0.703125 -0.410156,1.04296875 C 15.609155,1.0300469 15.210717,1.3112969 14.695092,1.4987969 Z m 4.904297,-6.6210938 c 0.128906,0.234375 0.222656,0.4453125 0.269531,0.6445313 0.04687,0.1875 0.105469,0.5859375 0.164062,1.1601562 l 0.246094,2.88281253 c 0.246094,-0.29296875 0.574219,-0.73828123 1.019531,-1.33593753 0.222657,-0.3046875 0.492188,-0.703125 0.808594,-1.2070312 0.1875,-0.3164063 0.304688,-0.5390625 0.363281,-0.6679688 0.02344,-0.058594 0.03516,-0.1289062 0.03516,-0.1875 0,-0.046875 -0.01172,-0.082031 -0.04687,-0.1054687 -0.03516,-0.023437 -0.105469,-0.058594 -0.222657,-0.09375 -0.105468,-0.046875 -0.199218,-0.1171875 -0.269531,-0.2109375 -0.09375,-0.09375 -0.128906,-0.2109375 -0.128906,-0.3515625 0,-0.1523438 0.04687,-0.28125 0.152344,-0.375 0.09375,-0.1054688 0.199218,-0.1523438 0.339843,-0.1523438 0.175782,0 0.328125,0.082031 0.445313,0.2226563 0.117187,0.140625 0.1875,0.328125 0.1875,0.5859375 0,0.3164062 -0.117188,0.65625 -0.328125,1.0546875 -0.210938,0.3984375 -0.609375,1.0078125 -1.230469,1.828125 -0.597656,0.82031248 -1.324219,1.71093748 -2.179687,2.6835937 -0.585938,0.6679688 -1.019532,1.0898438 -1.3125,1.265625 -0.28125,0.1757813 -0.527344,0.2578125 -0.726563,0.2578125 -0.117187,0 -0.222656,-0.046875 -0.328125,-0.1289062 -0.08203,-0.09375 -0.128906,-0.1992188 -0.128906,-0.328125 0,-0.1523438 0.05859,-0.28125 0.1875,-0.4101563 0.128906,-0.1289062 0.269531,-0.1875 0.410156,-0.1875 0.08203,0 0.152344,0.011719 0.199219,0.046875 0.03516,0.023437 0.07031,0.082031 0.105469,0.1757813 0.03516,0.09375 0.07031,0.1523437 0.09375,0.1875 0.02344,0.011719 0.04687,0.023437 0.07031,0.023437 0.02344,0 0.07031,-0.023437 0.117188,-0.058594 0.222656,-0.1289062 0.46875,-0.3515625 0.761718,-0.6328125 0.375,-0.38671872 0.644532,-0.71484372 0.832032,-0.96093747 L 19.060327,-3.3996406 c -0.05859,-0.5976563 -0.140625,-0.9726563 -0.257813,-1.1015625 -0.105469,-0.1289063 -0.28125,-0.1992188 -0.539062,-0.1992188 -0.08203,0 -0.222657,0.011719 -0.433594,0.035156 l -0.05859,-0.2226563 z m 9.137695,0.3515625 -1.511719,5.22656253 h 0.9375 l -0.210937,0.7265625 H 26.885522 L 26.276147,3.1277031 h -0.867188 l 0.632813,-2.13281247 h -2.894531 l 0.246093,-0.83203125 4.769532,-5.12109378 z m -1.3125,1.5117188 -3.410156,3.71484373 h 2.34375 z m 1.075195,-4.78125 0.210938,-0.1171875 c 0.46875,0.890625 0.785156,1.6757812 0.996093,2.34375 0.152344,0.5390625 0.234375,1.0664062 0.234375,1.6054687 0,1.265625 -0.28125,2.390625 -0.867187,3.3867188 -0.726563,1.21874998 -1.875,2.4140625 -3.46875,3.5625 L 25.347436,2.3777031 c 0.726562,-0.5390625 1.3125,-1.1484375 1.769531,-1.80468747 0.574219,-0.83203125 1.03125,-1.81640623 1.40625,-3.00000003 0.351563,-1.171875 0.539063,-2.2382812 0.539063,-3.1992187 0,-0.7382813 -0.234375,-1.59375 -0.679688,-2.6015625 z M 2.1238031,92.12282 1.9128656,92.21657 c -0.46875,-0.890625 -0.8085937,-1.664062 -0.99609372,-2.355468 -0.15234375,-0.527344 -0.234375,-1.066407 -0.234375,-1.605469 0,-1.242188 0.28125,-2.378906 0.86718752,-3.375 0.7148437,-1.21875 1.875,-2.402344 3.46875,-3.5625 l 0.140625,0.210937 c -0.7265625,0.539063 -1.3125,1.136719 -1.7695313,1.792969 -0.5742187,0.832031 -1.03125,1.828125 -1.40625,3 -0.3515625,1.183594 -0.5390625,2.238281 -0.5390625,3.199219 0,0.738281 0.234375,1.605469 0.6796875,2.601562 z m 3.6826172,-7.769531 c 0.1992188,0.210938 0.3398438,0.410156 0.4335938,0.621094 0.070312,0.140625 0.1757812,0.503906 0.3398437,1.101562 l 0.515625,-0.773437 c 0.140625,-0.1875 0.3046875,-0.363281 0.5039063,-0.539063 0.1992187,-0.164062 0.3632812,-0.28125 0.5273437,-0.339843 0.09375,-0.04687 0.1875,-0.07031 0.3046875,-0.07031 0.1757813,0 0.3046875,0.04687 0.3984375,0.140625 0.1054688,0.09375 0.1640625,0.199219 0.1640625,0.316406 0,0.164063 -0.035156,0.257813 -0.09375,0.316407 -0.1171875,0.09375 -0.234375,0.140625 -0.375,0.140625 -0.09375,0 -0.1757812,-0.01172 -0.2695312,-0.04687 -0.1875,-0.05859 -0.3164063,-0.09375 -0.375,-0.09375 -0.09375,0 -0.2109375,0.05859 -0.328125,0.164062 -0.2578125,0.210938 -0.5390625,0.585938 -0.8789063,1.183594 l 0.4804688,2.015625 c 0.070312,0.304687 0.140625,0.492187 0.1875,0.550781 0.046875,0.05859 0.1054687,0.08203 0.1640625,0.08203 0.082031,0 0.1757812,-0.03516 0.28125,-0.128906 0.2226562,-0.1875 0.4101562,-0.410156 0.5625,-0.703125 l 0.2109375,0.105469 c -0.2578125,0.457031 -0.5625,0.84375 -0.9492188,1.148437 -0.2226562,0.164063 -0.3984375,0.246094 -0.5390625,0.246094 -0.234375,0 -0.3984375,-0.117187 -0.5273437,-0.351562 -0.09375,-0.164063 -0.2578125,-0.820313 -0.5039063,-1.980469 -0.6210937,1.054687 -1.1132812,1.734375 -1.4648437,2.050781 -0.2460938,0.1875 -0.46875,0.28125 -0.703125,0.28125 -0.1523438,0 -0.2929688,-0.05859 -0.421875,-0.164062 -0.09375,-0.08203 -0.140625,-0.199219 -0.140625,-0.351563 0,-0.128906 0.046875,-0.234375 0.1289062,-0.316406 0.09375,-0.09375 0.1992188,-0.140625 0.3164063,-0.140625 0.1171875,0 0.2578125,0.05859 0.3984375,0.199219 0.09375,0.08203 0.1757812,0.128906 0.2226562,0.128906 0.046875,0 0.1171875,-0.03516 0.1875,-0.09375 0.1875,-0.152344 0.4335938,-0.457031 0.75,-0.949219 0.3164063,-0.492187 0.515625,-0.84375 0.609375,-1.054687 -0.234375,-0.949219 -0.3515625,-1.453125 -0.375,-1.511719 -0.09375,-0.25782 -0.2109375,-0.433601 -0.3515625,-0.53907 -0.140625,-0.117187 -0.3515625,-0.164062 -0.6210937,-0.164062 -0.1054688,0 -0.1992188,0 -0.3164063,0.01172 V 84.63454 Z m 8.1328127,0.199219 -1.886719,6.574219 c -0.105469,0.386718 -0.164062,0.65625 -0.164062,0.832031 0,0.140625 0.04687,0.257812 0.140625,0.328125 0.105468,0.07031 0.339843,0.140625 0.714843,0.164062 l -0.07031,0.210938 H 9.6618891 l 0.09375,-0.210938 c 0.3046879,-0.01172 0.5273439,-0.04687 0.6210939,-0.08203 0.164062,-0.07031 0.28125,-0.164062 0.375,-0.28125 0.128906,-0.1875 0.257812,-0.503906 0.386719,-0.960937 l 1.359375,-4.734375 c 0.08203,-0.28125 0.128906,-0.433594 0.128906,-0.492188 0.01172,-0.07031 0.02344,-0.140625 0.02344,-0.222656 0,-0.128906 -0.03516,-0.234375 -0.105468,-0.316406 -0.08203,-0.08203 -0.175782,-0.117188 -0.304688,-0.117188 -0.105469,0 -0.269531,0.02344 -0.480469,0.07031 l -0.08203,-0.210938 1.980469,-0.550781 z m 0.500976,6.421875 c 0.28125,-0.140625 0.527344,-0.304688 0.703125,-0.503906 0.140625,-0.164063 0.222657,-0.304688 0.222657,-0.445313 0,-0.07031 -0.01172,-0.140625 -0.03516,-0.199219 -0.01172,-0.03516 -0.08203,-0.09375 -0.164062,-0.1875 -0.09375,-0.09375 -0.152344,-0.152343 -0.164063,-0.1875 -0.02344,-0.07031 -0.03516,-0.152343 -0.03516,-0.234375 0,-0.164062 0.05859,-0.316406 0.164063,-0.433593 0.117187,-0.117188 0.257812,-0.175782 0.410156,-0.175782 0.164062,0 0.304687,0.05859 0.433594,0.1875 0.117187,0.140625 0.175781,0.292969 0.175781,0.492188 0,0.339844 -0.128906,0.703125 -0.410156,1.042969 -0.269532,0.363281 -0.667969,0.644531 -1.183594,0.832031 z m 4.901368,-6.621094 c 0.128906,0.234375 0.222656,0.445313 0.269531,0.644531 0.04687,0.1875 0.105469,0.585938 0.164062,1.160157 l 0.246094,2.882812 c 0.246094,-0.292969 0.574219,-0.738281 1.019531,-1.335937 0.222657,-0.304688 0.492188,-0.703125 0.808594,-1.207032 0.1875,-0.316406 0.304688,-0.539062 0.363281,-0.667968 0.02344,-0.05859 0.03516,-0.128907 0.03516,-0.1875 0,-0.04687 -0.01172,-0.08203 -0.04687,-0.105469 -0.03516,-0.02344 -0.105469,-0.05859 -0.222657,-0.09375 -0.105468,-0.04687 -0.199218,-0.117188 -0.269531,-0.210938 -0.09375,-0.09375 -0.128906,-0.210937 -0.128906,-0.351562 0,-0.152344 0.04687,-0.28125 0.152344,-0.375 0.09375,-0.105469 0.199218,-0.152344 0.339843,-0.152344 0.175782,0 0.328125,0.08203 0.445313,0.222656 0.117187,0.140625 0.1875,0.328125 0.1875,0.585938 0,0.316406 -0.117188,0.65625 -0.328125,1.054687 -0.210938,0.398438 -0.609375,1.007813 -1.230469,1.828125 -0.597656,0.820313 -1.324219,1.710938 -2.179687,2.683594 -0.585938,0.667969 -1.019532,1.089844 -1.3125,1.265625 -0.28125,0.175781 -0.527344,0.257813 -0.726563,0.257813 -0.117187,0 -0.222656,-0.04687 -0.328125,-0.128907 -0.08203,-0.09375 -0.128906,-0.199218 -0.128906,-0.328125 0,-0.152343 0.05859,-0.28125 0.1875,-0.410156 0.128906,-0.128906 0.269531,-0.1875 0.410156,-0.1875 0.08203,0 0.152344,0.01172 0.199219,0.04687 0.03516,0.02344 0.07031,0.08203 0.105469,0.175781 0.03516,0.09375 0.07031,0.152344 0.09375,0.1875 0.02344,0.01172 0.04687,0.02344 0.07031,0.02344 0.02344,0 0.07031,-0.02344 0.117188,-0.05859 0.222656,-0.128906 0.46875,-0.351562 0.761718,-0.632812 0.375,-0.386719 0.644532,-0.714844 0.832032,-0.960938 l -0.328125,-3.714844 c -0.05859,-0.597656 -0.140625,-0.972656 -0.257813,-1.101562 -0.105469,-0.128906 -0.28125,-0.199219 -0.539062,-0.199219 -0.08203,0 -0.222657,0.01172 -0.433594,0.03516 l -0.05859,-0.222656 z m 8.296875,0.199219 -1.886719,6.574219 c -0.105469,0.386718 -0.164063,0.65625 -0.164063,0.832031 0,0.140625 0.04687,0.257812 0.140625,0.328125 0.105469,0.07031 0.339844,0.140625 0.714844,0.164062 l -0.07031,0.210938 H 23.36111 l 0.09375,-0.210938 c 0.304687,-0.01172 0.527344,-0.04687 0.621094,-0.08203 0.164062,-0.07031 0.28125,-0.164062 0.375,-0.28125 0.128906,-0.1875 0.257812,-0.503906 0.386718,-0.960937 l 1.359375,-4.734375 c 0.08203,-0.28125 0.128907,-0.433594 0.128907,-0.492188 0.01172,-0.07031 0.02344,-0.140625 0.02344,-0.222656 0,-0.128906 -0.03516,-0.234375 -0.105469,-0.316406 -0.08203,-0.08203 -0.175781,-0.117188 -0.304687,-0.117188 -0.105469,0 -0.269531,0.02344 -0.480469,0.07031 l -0.08203,-0.210938 1.980469,-0.550781 z m 0.606445,-3.117188 0.210937,-0.117187 c 0.46875,0.890625 0.785157,1.675781 0.996094,2.34375 0.152344,0.539062 0.234375,1.066406 0.234375,1.605469 0,1.265625 -0.28125,2.390625 -0.867187,3.386718 -0.726563,1.21875 -1.875,2.414063 -3.46875,3.5625 l -0.140625,-0.175781 c 0.726562,-0.539062 1.3125,-1.148437 1.769531,-1.804687 0.574219,-0.832032 1.03125,-1.816407 1.40625,-3 0.351562,-1.171875 0.539062,-2.238282 0.539062,-3.199219 0,-0.738281 -0.234375,-1.59375 -0.679687,-2.601563 z m 164.449223,-57.878906 -0.21094,0.09375 c -0.46875,-0.890625 -0.8086,-1.664062 -0.9961,-2.355469 -0.15234,-0.527343 -0.23437,-1.066406 -0.23437,-1.605468 0,-1.242188 0.28125,-2.378907 0.86719,-3.375 0.71484,-1.21875 1.875,-2.402344 3.46875,-3.5625 l 0.14062,0.210937 c -0.72656,0.539063 -1.3125,1.136719 -1.76953,1.792969 -0.57422,0.832031 -1.03125,1.828125 -1.40625,3 -0.35156,1.183594 -0.53906,2.238281 -0.53906,3.199219 0,0.738281 0.23437,1.605468 0.67969,2.601562 z m 3.68261,-7.769531 c 0.19922,0.210937 0.33985,0.410156 0.4336,0.621094 0.0703,0.140625 0.17578,0.503906 0.33984,1.101562 l 0.51563,-0.773437 c 0.14062,-0.1875 0.30468,-0.363282 0.5039,-0.539063 0.19922,-0.164062 0.36328,-0.28125 0.52735,-0.339844 0.0937,-0.04687 0.1875,-0.07031 0.30468,-0.07031 0.17578,0 0.30469,0.04687 0.39844,0.140625 0.10547,0.09375 0.16406,0.199219 0.16406,0.316406 0,0.164063 -0.0352,0.257813 -0.0937,0.316406 -0.11718,0.09375 -0.23437,0.140625 -0.375,0.140625 -0.0937,0 -0.17578,-0.01172 -0.26953,-0.04687 -0.1875,-0.05859 -0.3164,-0.09375 -0.375,-0.09375 -0.0937,0 -0.21094,0.05859 -0.32812,0.164063 -0.25782,0.210937 -0.53907,0.585937 -0.87891,1.183594 l 0.48047,2.015625 c 0.0703,0.304687 0.14062,0.492187 0.1875,0.550781 0.0469,0.05859 0.10547,0.08203 0.16406,0.08203 0.082,0 0.17578,-0.03516 0.28125,-0.128906 0.22266,-0.1875 0.41016,-0.410156 0.5625,-0.703125 l 0.21094,0.105469 c -0.25781,0.457031 -0.5625,0.84375 -0.94922,1.148437 -0.22266,0.164063 -0.39844,0.246094 -0.53906,0.246094 -0.23438,0 -0.39844,-0.117188 -0.52735,-0.351563 -0.0937,-0.164062 -0.25781,-0.820312 -0.5039,-1.980468 -0.6211,1.054687 -1.11328,1.734375 -1.46485,2.050781 -0.24609,0.1875 -0.46875,0.28125 -0.70312,0.28125 -0.15234,0 -0.29297,-0.05859 -0.42188,-0.164063 -0.0937,-0.08203 -0.14062,-0.199218 -0.14062,-0.351562 0,-0.128906 0.0469,-0.234375 0.12891,-0.316406 0.0937,-0.09375 0.19921,-0.140625 0.3164,-0.140625 0.11719,0 0.25781,0.05859 0.39844,0.199218 0.0937,0.08203 0.17578,0.128907 0.22266,0.128907 0.0469,0 0.11718,-0.03516 0.1875,-0.09375 0.1875,-0.152344 0.43359,-0.457032 0.75,-0.949219 0.3164,-0.492188 0.51562,-0.84375 0.60937,-1.054688 -0.23437,-0.949218 -0.35156,-1.453125 -0.375,-1.511718 -0.0937,-0.257813 -0.21094,-0.433594 -0.35156,-0.539063 -0.14063,-0.117187 -0.35156,-0.164062 -0.6211,-0.164062 -0.10546,0 -0.19921,0 -0.3164,0.01172 v -0.210937 z m 4.96875,3.960937 v -0.164062 c 0.94922,-0.140625 1.64063,-0.433594 2.10938,-0.84375 0.33984,-0.292969 0.5039,-0.65625 0.5039,-1.066406 0,-0.304688 -0.0937,-0.5625 -0.29296,-0.761719 -0.19922,-0.210938 -0.4336,-0.304688 -0.70313,-0.304688 -0.44531,0 -0.83203,0.269532 -1.16016,0.808594 l -0.22265,-0.05859 c 0.21094,-0.457031 0.46875,-0.796875 0.78515,-1.03125 0.31641,-0.222656 0.66797,-0.339843 1.04297,-0.339843 0.46875,0 0.83203,0.128906 1.11328,0.410156 0.29297,0.269531 0.4336,0.621094 0.4336,1.042969 0,0.351562 -0.12891,0.703125 -0.39844,1.042968 -0.26953,0.316407 -0.72656,0.621094 -1.39453,0.890625 0.41016,0.164063 0.72656,0.398438 0.92578,0.714844 0.21094,0.316406 0.31641,0.691406 0.31641,1.136719 0,0.480469 -0.14063,0.972656 -0.42188,1.464844 -0.29297,0.492187 -0.66797,0.867187 -1.16015,1.136718 -0.49219,0.269532 -1.00782,0.398438 -1.54688,0.398438 -0.49219,0 -0.86719,-0.08203 -1.125,-0.246094 -0.16406,-0.117187 -0.24609,-0.269531 -0.24609,-0.421875 0,-0.128906 0.0469,-0.257812 0.14062,-0.351562 0.10547,-0.09375 0.23438,-0.140625 0.375,-0.140625 0.10547,0 0.19922,0.01172 0.29297,0.04687 0.082,0.02344 0.22266,0.09375 0.46875,0.246093 0.24609,0.128907 0.43359,0.222657 0.58594,0.257813 0.1289,0.04687 0.26953,0.07031 0.41015,0.07031 0.35157,0 0.64454,-0.199218 0.86719,-0.609375 0.23438,-0.410156 0.35156,-0.84375 0.35156,-1.3125 0,-0.363281 -0.0703,-0.703125 -0.23437,-0.996093 -0.15234,-0.28125 -0.38672,-0.527344 -0.72656,-0.703125 -0.33985,-0.1875 -0.70313,-0.292969 -1.08985,-0.316407 z m 3.66504,2.660157 c 0.28125,-0.140625 0.52735,-0.304688 0.70313,-0.503907 0.14062,-0.164062 0.22265,-0.304687 0.22265,-0.445312 0,-0.07031 -0.0117,-0.140625 -0.0351,-0.199219 -0.0117,-0.03516 -0.082,-0.09375 -0.16407,-0.1875 -0.0937,-0.09375 -0.15234,-0.152344 -0.16406,-0.1875 -0.0234,-0.07031 -0.0352,-0.152344 -0.0352,-0.234375 0,-0.164062 0.0586,-0.316406 0.16406,-0.433594 0.11719,-0.117187 0.25781,-0.175781 0.41015,-0.175781 0.16407,0 0.30469,0.05859 0.4336,0.1875 0.11719,0.140625 0.17578,0.292969 0.17578,0.492188 0,0.339843 -0.12891,0.703125 -0.41016,1.042968 -0.26953,0.363282 -0.66797,0.644532 -1.18359,0.832032 z m 4.9043,-6.621094 c 0.1289,0.234375 0.22265,0.445312 0.26953,0.644531 0.0469,0.1875 0.10547,0.585938 0.16406,1.160156 l 0.2461,2.882813 c 0.24609,-0.292969 0.57421,-0.738281 1.01953,-1.335938 0.22265,-0.304687 0.49218,-0.703125 0.80859,-1.207031 0.1875,-0.316406 0.30469,-0.539062 0.36328,-0.667969 0.0234,-0.05859 0.0352,-0.128906 0.0352,-0.1875 0,-0.04687 -0.0117,-0.08203 -0.0469,-0.105468 -0.0352,-0.02344 -0.10547,-0.05859 -0.22265,-0.09375 -0.10547,-0.04687 -0.19922,-0.117188 -0.26953,-0.210938 -0.0937,-0.09375 -0.12891,-0.210937 -0.12891,-0.351562 0,-0.152344 0.0469,-0.28125 0.15234,-0.375 0.0937,-0.105469 0.19922,-0.152344 0.33985,-0.152344 0.17578,0 0.32812,0.08203 0.44531,0.222656 0.11719,0.140625 0.1875,0.328125 0.1875,0.585938 0,0.316406 -0.11719,0.65625 -0.32813,1.054687 -0.21093,0.398438 -0.60937,1.007813 -1.23046,1.828125 -0.59766,0.820313 -1.32422,1.710938 -2.17969,2.683594 -0.58594,0.667969 -1.01953,1.089844 -1.3125,1.265625 -0.28125,0.175781 -0.52735,0.257812 -0.72656,0.257812 -0.11719,0 -0.22266,-0.04687 -0.32813,-0.128906 -0.082,-0.09375 -0.12891,-0.199219 -0.12891,-0.328125 0,-0.152344 0.0586,-0.28125 0.1875,-0.410156 0.12891,-0.128906 0.26954,-0.1875 0.41016,-0.1875 0.082,0 0.15234,0.01172 0.19922,0.04687 0.0352,0.02344 0.0703,0.08203 0.10547,0.175781 0.0352,0.09375 0.0703,0.152344 0.0937,0.1875 0.0234,0.01172 0.0469,0.02344 0.0703,0.02344 0.0234,0 0.0703,-0.02344 0.11719,-0.05859 0.22265,-0.128906 0.46875,-0.351563 0.76172,-0.632813 0.375,-0.386718 0.64453,-0.714843 0.83203,-0.960937 L 209.4929,17.69704 c -0.0586,-0.597656 -0.14062,-0.972656 -0.25781,-1.101562 -0.10547,-0.128907 -0.28125,-0.199219 -0.53906,-0.199219 -0.082,0 -0.22266,0.01172 -0.4336,0.03516 l -0.0586,-0.222656 z m 5.12988,3.960937 v -0.164062 c 0.94922,-0.140625 1.64063,-0.433594 2.10938,-0.84375 0.33984,-0.292969 0.5039,-0.65625 0.5039,-1.066406 0,-0.304688 -0.0937,-0.5625 -0.29297,-0.761719 -0.19921,-0.210938 -0.43359,-0.304688 -0.70312,-0.304688 -0.44531,0 -0.83203,0.269532 -1.16016,0.808594 l -0.22265,-0.05859 c 0.21093,-0.457031 0.46875,-0.796875 0.78515,-1.03125 0.31641,-0.222656 0.66797,-0.339843 1.04297,-0.339843 0.46875,0 0.83203,0.128906 1.11328,0.410156 0.29297,0.269531 0.4336,0.621094 0.4336,1.042969 0,0.351562 -0.12891,0.703125 -0.39844,1.042968 -0.26953,0.316407 -0.72656,0.621094 -1.39453,0.890625 0.41015,0.164063 0.72656,0.398438 0.92578,0.714844 0.21094,0.316406 0.31641,0.691406 0.31641,1.136719 0,0.480469 -0.14063,0.972656 -0.42188,1.464844 -0.29297,0.492187 -0.66797,0.867187 -1.16016,1.136718 -0.49218,0.269532 -1.00781,0.398438 -1.54687,0.398438 -0.49219,0 -0.86719,-0.08203 -1.125,-0.246094 -0.16406,-0.117187 -0.24609,-0.269531 -0.24609,-0.421875 0,-0.128906 0.0469,-0.257812 0.14062,-0.351562 0.10547,-0.09375 0.23438,-0.140625 0.375,-0.140625 0.10547,0 0.19922,0.01172 0.29297,0.04687 0.082,0.02344 0.22266,0.09375 0.46875,0.246093 0.24609,0.128907 0.43359,0.222657 0.58594,0.257813 0.1289,0.04687 0.26953,0.07031 0.41015,0.07031 0.35157,0 0.64453,-0.199218 0.86719,-0.609375 0.23438,-0.410156 0.35156,-0.84375 0.35156,-1.3125 0,-0.363281 -0.0703,-0.703125 -0.23437,-0.996093 -0.15235,-0.28125 -0.38672,-0.527344 -0.72656,-0.703125 -0.33985,-0.1875 -0.70313,-0.292969 -1.08985,-0.316407 z m 3.77051,-6.878906 0.21094,-0.117187 c 0.46875,0.890625 0.78515,1.675781 0.99609,2.34375 0.15234,0.539062 0.23438,1.066406 0.23438,1.605468 0,1.265625 -0.28125,2.390625 -0.86719,3.386719 -0.72656,1.21875 -1.875,2.414063 -3.46875,3.5625 l -0.14063,-0.175781 c 0.72657,-0.539063 1.3125,-1.148438 1.76953,-1.804688 0.57422,-0.832031 1.03125,-1.816406 1.40625,-3 0.35157,-1.171875 0.53907,-2.238281 0.53907,-3.199218 0,-0.738282 -0.23438,-1.59375 -0.67969,-2.601563 z m -26.52832,93.433596 -0.21094,0.0937 c -0.46875,-0.89063 -0.80859,-1.66406 -0.99609,-2.35547 -0.15235,-0.52734 -0.23438,-1.06641 -0.23438,-1.60547 0,-1.24219 0.28125,-2.37891 0.86719,-3.375 0.71484,-1.21875 1.875,-2.402343 3.46875,-3.5625 l 0.14063,0.210938 c -0.72657,0.539062 -1.3125,1.136719 -1.76954,1.792969 -0.57421,0.832031 -1.03125,1.828125 -1.40625,3.000003 -0.35156,1.18359 -0.53906,2.23828 -0.53906,3.19922 0,0.73828 0.23438,1.60546 0.67969,2.60156 z m 3.68262,-7.769533 c 0.19921,0.210937 0.33984,0.410156 0.43359,0.621093 0.0703,0.140625 0.17578,0.503907 0.33984,1.10156 l 0.51563,-0.773435 c 0.14062,-0.1875 0.30469,-0.363281 0.5039,-0.539062 0.19922,-0.164063 0.36329,-0.28125 0.52735,-0.339844 0.0937,-0.04687 0.1875,-0.07031 0.30469,-0.07031 0.17578,0 0.30468,0.04687 0.39843,0.140625 0.10547,0.09375 0.16407,0.199218 0.16407,0.316406 0,0.164062 -0.0352,0.257812 -0.0937,0.316406 -0.11719,0.09375 -0.23438,0.140625 -0.375,0.140625 -0.0937,0 -0.17579,-0.01172 -0.26954,-0.04687 -0.1875,-0.05859 -0.3164,-0.09375 -0.375,-0.09375 -0.0937,0 -0.21093,0.05859 -0.32812,0.164063 -0.25781,0.210937 -0.53906,0.585936 -0.87891,1.183596 l 0.48047,2.01563 c 0.0703,0.30468 0.14063,0.49218 0.1875,0.55078 0.0469,0.0586 0.10547,0.082 0.16406,0.082 0.082,0 0.17579,-0.0352 0.28125,-0.12891 0.22266,-0.1875 0.41016,-0.41015 0.5625,-0.70312 l 0.21094,0.10547 c -0.25781,0.45703 -0.5625,0.84375 -0.94922,1.14843 -0.22265,0.16407 -0.39843,0.2461 -0.53906,0.2461 -0.23437,0 -0.39844,-0.11719 -0.52734,-0.35157 -0.0937,-0.16406 -0.25782,-0.82031 -0.50391,-1.98046 -0.62109,1.05468 -1.11328,1.73437 -1.46484,2.05078 -0.2461,0.1875 -0.46875,0.28125 -0.70313,0.28125 -0.15234,0 -0.29297,-0.0586 -0.42187,-0.16407 -0.0937,-0.082 -0.14063,-0.19921 -0.14063,-0.35156 0,-0.1289 0.0469,-0.23437 0.12891,-0.3164 0.0937,-0.0937 0.19922,-0.14063 0.3164,-0.14063 0.11719,0 0.25782,0.0586 0.39844,0.19922 0.0937,0.082 0.17578,0.12891 0.22266,0.12891 0.0469,0 0.11719,-0.0352 0.1875,-0.0937 0.1875,-0.15235 0.43359,-0.45704 0.75,-0.94922 0.3164,-0.49219 0.51562,-0.84375 0.60937,-1.05469 -0.23437,-0.94922 -0.35156,-1.453129 -0.375,-1.511723 -0.0937,-0.257812 -0.21093,-0.433593 -0.35156,-0.539062 -0.14062,-0.117188 -0.35156,-0.164063 -0.62109,-0.164063 -0.10547,0 -0.19922,0 -0.31641,0.01172 v -0.210937 z m 7.28906,8.308593 h -3.97266 v -0.21094 c 2.01563,-1.76953 3.35156,-3.16406 3.98438,-4.16015 0.30468,-0.46875 0.45703,-0.96094 0.45703,-1.46485 0,-0.39843 -0.11719,-0.73828 -0.36328,-0.99609 -0.25782,-0.246095 -0.58594,-0.375001 -0.97266,-0.375001 -0.5625,0 -0.99609,0.257813 -1.35937,0.785161 l -0.21094,-0.0937 c 0.21094,-0.503911 0.49219,-0.902348 0.8789,-1.17188 0.38672,-0.28125 0.79688,-0.421875 1.24219,-0.421875 0.50391,0 0.92578,0.164063 1.26563,0.515625 0.35156,0.351563 0.51562,0.76172 0.51562,1.25391 0,0.35156 -0.0586,0.66797 -0.17578,0.96093 -0.1875,0.45704 -0.53906,0.96094 -1.04297,1.53516 -0.77344,0.86719 -1.79297,1.86328 -3.05859,2.98828 h 2.0039 c 0.31641,0 0.58594,-0.0703 0.78516,-0.19922 0.21094,-0.1289 0.36328,-0.30468 0.44531,-0.52734 h 0.2461 z m 1.34473,-1.6875 c 0.28125,-0.14062 0.52734,-0.30469 0.70312,-0.50391 0.14063,-0.16406 0.22266,-0.30468 0.22266,-0.44531 0,-0.0703 -0.0117,-0.14062 -0.0352,-0.19922 -0.0117,-0.0352 -0.082,-0.0937 -0.16406,-0.1875 -0.0937,-0.0937 -0.15235,-0.15234 -0.16406,-0.1875 -0.0234,-0.0703 -0.0352,-0.15234 -0.0352,-0.23437 0,-0.16406 0.0586,-0.31641 0.16406,-0.4336 0.11719,-0.11718 0.25781,-0.17578 0.41016,-0.17578 0.16406,0 0.30469,0.0586 0.43359,0.1875 0.11719,0.14063 0.17578,0.29297 0.17578,0.49219 0,0.33984 -0.1289,0.70313 -0.41015,1.04297 -0.26953,0.36328 -0.66797,0.64453 -1.1836,0.83203 z m 4.90136,-6.621093 c 0.12891,0.234375 0.22266,0.445312 0.26953,0.644531 0.0469,0.1875 0.10547,0.585937 0.16407,1.160152 l 0.24609,2.88282 c 0.24609,-0.29297 0.57422,-0.73828 1.01953,-1.33594 0.22266,-0.30469 0.49219,-0.70313 0.80859,-1.20703 0.1875,-0.31641 0.30469,-0.53906 0.36329,-0.66797 0.0234,-0.05859 0.0351,-0.128907 0.0351,-0.187501 0,-0.04687 -0.0117,-0.08203 -0.0469,-0.105469 -0.0352,-0.02344 -0.10547,-0.05859 -0.22266,-0.09375 -0.10547,-0.04687 -0.19922,-0.117187 -0.26953,-0.210937 -0.0937,-0.09375 -0.12891,-0.210938 -0.12891,-0.351563 0,-0.152343 0.0469,-0.28125 0.15235,-0.375 0.0937,-0.105468 0.19922,-0.152343 0.33984,-0.152343 0.17578,0 0.32813,0.08203 0.44531,0.222656 0.11719,0.140625 0.1875,0.328125 0.1875,0.585937 0,0.316407 -0.11718,0.65625 -0.32812,1.05469 -0.21094,0.39844 -0.60938,1.00781 -1.23047,1.82812 -0.59766,0.82032 -1.32422,1.71094 -2.17969,2.6836 -0.58594,0.66797 -1.01953,1.08984 -1.3125,1.26562 -0.28125,0.17578 -0.52734,0.25781 -0.72656,0.25781 -0.11719,0 -0.22266,-0.0469 -0.32813,-0.1289 -0.082,-0.0937 -0.1289,-0.19922 -0.1289,-0.32813 0,-0.15234 0.0586,-0.28125 0.1875,-0.41015 0.1289,-0.12891 0.26953,-0.1875 0.41015,-0.1875 0.082,0 0.15235,0.0117 0.19922,0.0469 0.0352,0.0234 0.0703,0.082 0.10547,0.17578 0.0352,0.0937 0.0703,0.15235 0.0937,0.1875 0.0234,0.0117 0.0469,0.0234 0.0703,0.0234 0.0234,0 0.0703,-0.0234 0.11719,-0.0586 0.22266,-0.12891 0.46875,-0.35157 0.76172,-0.63282 0.375,-0.38671 0.64453,-0.71484 0.83203,-0.96093 l -0.32812,-3.71485 c -0.0586,-0.597653 -0.14063,-0.972653 -0.25782,-1.10156 -0.10546,-0.128906 -0.28125,-0.199218 -0.53906,-0.199218 -0.082,0 -0.22265,0.01172 -0.43359,0.03516 l -0.0586,-0.222656 z m 7.45313,8.308593 h -3.97266 v -0.21094 c 2.01563,-1.76953 3.35156,-3.16406 3.98438,-4.16015 0.30468,-0.46875 0.45703,-0.96094 0.45703,-1.46485 0,-0.39843 -0.11719,-0.73828 -0.36328,-0.99609 -0.25782,-0.246095 -0.58594,-0.375001 -0.97266,-0.375001 -0.5625,0 -0.99609,0.257813 -1.35938,0.785161 l -0.21093,-0.0937 c 0.21093,-0.503911 0.49218,-0.902348 0.8789,-1.17188 0.38672,-0.28125 0.79688,-0.421875 1.24219,-0.421875 0.50391,0 0.92578,0.164063 1.26563,0.515625 0.35156,0.351563 0.51562,0.76172 0.51562,1.25391 0,0.35156 -0.0586,0.66797 -0.17578,0.96093 -0.1875,0.45704 -0.53906,0.96094 -1.04297,1.53516 -0.77344,0.86719 -1.79297,1.86328 -3.05859,2.98828 h 2.0039 c 0.31641,0 0.58594,-0.0703 0.78516,-0.19922 0.21094,-0.1289 0.36328,-0.30468 0.44531,-0.52734 h 0.2461 z m 1.45019,-11.226562 0.21094,-0.117188 c 0.46875,0.890625 0.78516,1.675782 0.99609,2.34375 0.15235,0.539063 0.23438,1.066407 0.23438,1.605469 0,1.265621 -0.28125,2.390621 -0.86719,3.386721 -0.72656,1.21875 -1.875,2.41406 -3.46875,3.5625 l -0.14062,-0.17578 c 0.72656,-0.53907 1.3125,-1.14844 1.76953,-1.80469 0.57422,-0.83203 1.03125,-1.81641 1.40625,-3 0.35156,-1.17188 0.53906,-2.238282 0.53906,-3.19922 0,-0.738281 -0.23437,-1.59375 -0.67969,-2.601562 z m -53.31738,38.578122 -0.45703,1.59375 h 0.79687 l -0.0937,0.36328 h -0.83203 l -1.05469,3.45704 c -0.14062,0.39843 -0.19921,0.65625 -0.19921,0.77343 0,0.0586 0.0117,0.10547 0.0351,0.14063 0.0352,0.0234 0.0586,0.0469 0.10547,0.0469 0.082,0 0.1875,-0.0586 0.33984,-0.1875 0.082,-0.082 0.26954,-0.32812 0.5625,-0.72656 l 0.1875,0.15234 c -0.32812,0.51563 -0.65625,0.86719 -0.96093,1.07813 -0.19922,0.12891 -0.42188,0.19922 -0.6211,0.19922 -0.16406,0 -0.30468,-0.0469 -0.39843,-0.15235 -0.10547,-0.10546 -0.15235,-0.24609 -0.15235,-0.41015 0,-0.21094 0.0586,-0.53906 0.1875,-0.97266 l 1.03125,-3.39844 h -0.89062 l 0.0586,-0.22265 c 0.43359,-0.11719 0.78516,-0.30469 1.08984,-0.52735 0.30469,-0.23437 0.63282,-0.62109 1.01954,-1.20703 z m 0,0"
       style="fill:#231f20;fill-opacity:1;fill-rule:nonzero;stroke:none"
       aria-label="(x&#10;4 &#10;,y&#10;4&#10;)&#10;(x&#10;1 &#10;,y&#10;1&#10;)&#10;(x&#10;3 &#10;,y&#10;3&#10;)&#10;(x&#10;2 &#10;,y&#10;2&#10;)&#10;t"
       transform="matrix(1.3333333,0,0,1.3333333,80.6292,39.790667)" />
    <path
       id="path9"
       d="M 2629.89,485.48 2495.42,380.77"
       style="fill:none;stroke:#231f20;stroke-width:2.5;stroke-linecap:butt;stroke-linejoin:miter;stroke-miterlimit:3.86371;stroke-dasharray:none;stroke-opacity:1"
       transform="matrix(0.13333333,0,0,-0.13333333,0,256)" />
    <path
       id="path10"
       d="m 2497.39,382.313 9.24,-11.821 -38.79,-11.269 20.32,34.91 9.23,-11.82"
       style="fill:#231f20;fill-opacity:1;fill-rule:evenodd;stroke:none"
       transform="matrix(0.13333333,0,0,-0.13333333,0,256)" />
    <path
       id="path11"
       d="m 2208.79,157.738 134.48,104.707"
       style="fill:none;stroke:#231f20;stroke-width:2.5;stroke-linecap:butt;stroke-linejoin:miter;stroke-miterlimit:3.86371;stroke-dasharray:none;stroke-opacity:1"
       transform="matrix(0.13333333,0,0,-0.13333333,0,256)" />
    <path
       id="path12"
       d="m 2341.3,260.906 -9.23,11.824 38.78,11.266 -20.31,-34.91 -9.24,11.82"
       style="fill:#231f20;fill-opacity:1;fill-rule:evenodd;stroke:none"
       transform="matrix(0.13333333,0,0,-0.13333333,0,256)" />
    <path
       id="path13"
       d="M 2468.32,478.57 V 225.695"
       style="fill:none;stroke:#231f20;stroke-width:2.815;stroke-linecap:butt;stroke-linejoin:miter;stroke-miterlimit:3.86371;stroke-dasharray:none;stroke-opacity:1"
       transform="matrix(0.13333333,0,0,-0.13333333,0,256)" />
    <path
       id="path14"
       d="M 2371.54,403.082 V 150.203"
       style="fill:none;stroke:#231f20;stroke-width:2.815;stroke-linecap:butt;stroke-linejoin:miter;stroke-miterlimit:3.86371;stroke-dasharray:none;stroke-opacity:1"
       transform="matrix(0.13333333,0,0,-0.13333333,0,256)" />
    <path
       id="path15"
       d="m 3.8544375,-3.4446094 -0.7148437,2.3671875 c -0.09375,0.35156252 -0.1523438,0.57421877 -0.1523438,0.66796877 0,0.046875 0,0.0703125 0.011719,0.09375 0.011719,0.0234375 0.035156,0.0234375 0.058594,0.0234375 0.035156,0 0.070312,-0.0117188 0.1054688,-0.046875 0.046875,-0.0351563 0.1523437,-0.19921875 0.3164062,-0.48046875 l 0.1171875,0.09375 c -0.1757812,0.3046875 -0.3632812,0.5390625 -0.5507812,0.6796875 -0.1289063,0.08203125 -0.2578125,0.140625 -0.3632813,0.140625 -0.09375,0 -0.1640625,-0.03515625 -0.2226562,-0.093749995 -0.046875,-0.058593755 -0.070312,-0.128906255 -0.070312,-0.210937505 0,-0.09375 0.011719,-0.2109375 0.046875,-0.3515625 0.046875,-0.1875 0.1757812,-0.59765622 0.375,-1.24218752 C 2.3427188,-1.0774219 1.956,-0.58523438 1.6513125,-0.31570313 1.346625,-0.04617188 1.0536563,0.09445312 0.79584375,0.09445312 c -0.12890625,0 -0.234375,-0.046875 -0.3046875,-0.12890625 -0.09375,-0.08203125 -0.12890625,-0.1875 -0.12890625,-0.3046875 0,-0.19921875 0.0585938,-0.50390625 0.19921875,-0.91406247 L 0.971625,-2.4602344 c 0.1054688,-0.28125 0.1523438,-0.4570312 0.1523438,-0.5273437 0,-0.035156 -0.023437,-0.058594 -0.046875,-0.082031 -0.023437,-0.023437 -0.058594,-0.035156 -0.0820313,-0.035156 -0.0703125,0 -0.12890625,0.011719 -0.19921875,0.058594 -0.0585938,0.035156 -0.2109375,0.1757813 -0.4453125,0.4335938 l -0.1171875,-0.082031 c 0.2109375,-0.3046875 0.43359375,-0.5273437 0.66796875,-0.6796875 0.1875,-0.1054687 0.3515625,-0.1640625 0.5039063,-0.1640625 0.1054687,0 0.1992187,0.046875 0.2578125,0.1171875 0.070312,0.070312 0.09375,0.1640625 0.09375,0.28125 0,0.140625 -0.058594,0.3867188 -0.1757813,0.7382813 l -0.4335937,1.2539062 c -0.1054688,0.33984377 -0.1757813,0.55078127 -0.1757813,0.64453127 0,0.046875 0.0234375,0.0820313 0.0585938,0.1171875 0.035156,0.0234375 0.070312,0.046875 0.140625,0.046875 0.082031,0 0.1992187,-0.046875 0.3398437,-0.12890625 0.140625,-0.09375 0.3398438,-0.28125 0.5742188,-0.57421872 C 2.331,-1.3469531 2.5185,-1.6282031 2.6825625,-1.8860156 2.8349063,-2.1321094 2.9989688,-2.5539844 3.1630313,-3.1164844 L 3.2685,-3.4446094 Z m 4.8398438,3.48046877 c 0.2578125,0.26953125 0.4453125,0.515625 0.5507812,0.75 0.1289063,0.24609373 0.1757813,0.48046873 0.1757813,0.71484373 0,0.421875 -0.1523438,0.796875 -0.4804688,1.1132813 -0.328125,0.3164062 -0.7265625,0.4804687 -1.1953125,0.4804687 -0.421875,0 -0.7734375,-0.1289062 -1.0429687,-0.3867187 -0.2578125,-0.2695313 -0.3984375,-0.5625 -0.3984375,-0.9023438 0,-0.3046875 0.1171875,-0.5859375 0.328125,-0.87890623 0.2109375,-0.28125 0.6210937,-0.55078125 1.21875,-0.8203125 -0.2226563,-0.26953125 -0.375,-0.515625 -0.46875,-0.703125 C 7.29975,-0.77273438 7.2645938,-0.96023438 7.2645938,-1.1477344 c 0,-0.3398437 0.1289062,-0.6328125 0.3867187,-0.890625 0.2578125,-0.2460937 0.5859375,-0.375 0.984375,-0.375 0.375,0 0.6796875,0.1054688 0.9140625,0.328125 0.2460938,0.2109375 0.3632813,0.46875 0.3632813,0.75 0,0.2929688 -0.09375,0.55078127 -0.2929688,0.78515627 -0.1875,0.234375 -0.4921875,0.43359375 -0.9257812,0.5859375 z M 8.5419375,-0.13992188 c 0.28125,-0.09375 0.5039063,-0.2578125 0.65625,-0.46875 0.1523438,-0.2109375 0.234375,-0.46875002 0.234375,-0.75000002 0,-0.2695312 -0.070312,-0.4804687 -0.2226562,-0.6328125 -0.1523438,-0.140625 -0.3398438,-0.2226562 -0.5976563,-0.2226562 -0.2226562,0 -0.4101562,0.070312 -0.5507812,0.2109375 -0.1523438,0.1523437 -0.2226563,0.3398437 -0.2226563,0.5742187 0,0.1757813 0.046875,0.328125 0.1171875,0.48046877 0.1054688,0.22265625 0.3046875,0.4921875 0.5859375,0.80859375 z M 8.002875,0.27023437 C 7.6161563,0.43429687 7.3231875,0.66867187 7.1239688,0.97335937 6.92475,1.2780469 6.8192813,1.6061719 6.8192813,1.9577344 c 0,0.28125 0.09375,0.515625 0.2695312,0.6914062 0.1757813,0.1640625 0.4101563,0.2578125 0.6914063,0.2578125 0.3046875,0 0.5507812,-0.1054687 0.7617187,-0.3164062 C 8.7411563,2.3796094 8.8349063,2.1335156 8.8349063,1.8522656 8.8349063,1.6296094 8.7880313,1.3952344 8.659125,1.1608594 8.5419375,0.91476562 8.3192813,0.62179687 8.002875,0.27023437 Z M -9.3086484,-19.241484 l -0.7148436,2.367187 c -0.09375,0.351563 -0.152344,0.574219 -0.152344,0.667969 0,0.04687 0,0.07031 0.01172,0.09375 0.01172,0.02344 0.03516,0.02344 0.05859,0.02344 0.03516,0 0.07031,-0.01172 0.105468,-0.04687 0.046875,-0.03516 0.1523441,-0.199218 0.3164066,-0.480468 l 0.1171875,0.09375 c -0.1757813,0.304687 -0.3632813,0.539062 -0.5507811,0.679687 -0.128906,0.08203 -0.257813,0.140625 -0.363281,0.140625 -0.09375,0 -0.164063,-0.03516 -0.222657,-0.09375 -0.04687,-0.05859 -0.07031,-0.128906 -0.07031,-0.210937 0,-0.09375 0.01172,-0.210938 0.04687,-0.351563 0.04687,-0.1875 0.175781,-0.597656 0.375,-1.242187 -0.46875,0.726562 -0.855469,1.21875 -1.160156,1.488281 -0.304688,0.269531 -0.597657,0.410156 -0.855469,0.410156 -0.128906,0 -0.234375,-0.04687 -0.304688,-0.128906 -0.09375,-0.08203 -0.128906,-0.1875 -0.128906,-0.304688 0,-0.199218 0.05859,-0.503906 0.199219,-0.914062 l 0.410156,-1.207031 c 0.105469,-0.28125 0.152344,-0.457032 0.152344,-0.527344 0,-0.03516 -0.02344,-0.05859 -0.04687,-0.08203 -0.02344,-0.02344 -0.05859,-0.03516 -0.08203,-0.03516 -0.07031,0 -0.128907,0.01172 -0.199219,0.05859 -0.05859,0.03516 -0.210938,0.175781 -0.445313,0.433594 l -0.117187,-0.08203 c 0.210937,-0.304688 0.433594,-0.527344 0.667969,-0.679688 0.1875,-0.105469 0.351562,-0.164062 0.503906,-0.164062 0.105469,0 0.199219,0.04687 0.257812,0.117187 0.07031,0.07031 0.09375,0.164063 0.09375,0.28125 0,0.140625 -0.05859,0.386719 -0.175781,0.738281 l -0.433594,1.253907 c -0.105468,0.339843 -0.175781,0.550781 -0.175781,0.644531 0,0.04687 0.02344,0.08203 0.05859,0.117187 0.03516,0.02344 0.07031,0.04687 0.140625,0.04687 0.08203,0 0.199219,-0.04687 0.339844,-0.128906 0.140625,-0.09375 0.339843,-0.28125 0.574218,-0.574219 0.246094,-0.304687 0.433594,-0.585937 0.597657,-0.84375 0.152343,-0.246093 0.316406,-0.667968 0.480468,-1.230468 l 0.1054691,-0.328125 z m 2.3789062,6.539062 v -0.128906 c 0.2695313,-0.05859 0.5039063,-0.140625 0.703125,-0.257813 0.3515625,-0.1875 0.6679688,-0.421875 0.9492188,-0.714843 0.2695312,-0.28125 0.5273437,-0.609375 0.75,-0.984375 -0.1640625,0.08203 -0.2929688,0.128906 -0.375,0.152343 -0.09375,0.02344 -0.1875,0.03516 -0.3046875,0.03516 -0.3867188,0 -0.6914063,-0.140625 -0.9023438,-0.410157 -0.2109375,-0.269531 -0.3046875,-0.574218 -0.3046875,-0.925781 0,-0.632812 0.1992188,-1.160156 0.5976563,-1.605469 0.4101562,-0.445312 0.8320312,-0.667968 1.2890625,-0.667968 0.421875,0 0.7382812,0.152343 0.9609375,0.46875 0.2226562,0.316406 0.328125,0.679687 0.328125,1.089843 0,0.539063 -0.1171875,1.054688 -0.3632813,1.570313 -0.2460937,0.515625 -0.5742187,0.960937 -0.9960937,1.335937 -0.421875,0.363282 -0.8671875,0.644532 -1.3242188,0.820313 -0.2695312,0.105469 -0.609375,0.175781 -1.0078125,0.222656 z m 2.5898438,-2.402344 c 0.375,-0.75 0.5507812,-1.417968 0.5507812,-1.992187 0,-0.292969 -0.070312,-0.503906 -0.2109375,-0.667969 -0.140625,-0.152344 -0.2929687,-0.234375 -0.4804687,-0.234375 -0.3046875,0 -0.5976563,0.210938 -0.84375,0.644531 -0.2578125,0.433594 -0.3867188,0.9375 -0.3867188,1.535157 0,0.304687 0.070312,0.539062 0.2226563,0.703125 0.140625,0.164062 0.328125,0.234375 0.5390625,0.234375 0.1054687,0 0.1992187,-0.01172 0.28125,-0.04687 0.082031,-0.02344 0.1875,-0.08203 0.328125,-0.175782 z M -130.1231,77.760469 l -0.71485,2.367187 c -0.0937,0.351563 -0.15234,0.574219 -0.15234,0.667969 0,0.04687 0,0.07031 0.0117,0.09375 0.0117,0.02344 0.0352,0.02344 0.0586,0.02344 0.0352,0 0.0703,-0.01172 0.10547,-0.04687 0.0469,-0.03516 0.15235,-0.199218 0.31641,-0.480468 l 0.11719,0.09375 c -0.17579,0.304687 -0.36329,0.539062 -0.55079,0.679687 -0.1289,0.08203 -0.25781,0.140625 -0.36328,0.140625 -0.0937,0 -0.16406,-0.03516 -0.22265,-0.09375 -0.0469,-0.05859 -0.0703,-0.128906 -0.0703,-0.210937 0,-0.09375 0.0117,-0.210938 0.0469,-0.351563 0.0469,-0.1875 0.17578,-0.597656 0.375,-1.242187 -0.46875,0.726562 -0.85547,1.21875 -1.16016,1.488281 -0.30468,0.269531 -0.59765,0.410156 -0.85547,0.410156 -0.1289,0 -0.23437,-0.04687 -0.30468,-0.128906 -0.0937,-0.08203 -0.12891,-0.1875 -0.12891,-0.304688 0,-0.199218 0.0586,-0.503906 0.19922,-0.914062 l 0.41016,-1.207031 c 0.10546,-0.28125 0.15234,-0.457032 0.15234,-0.527344 0,-0.03516 -0.0234,-0.05859 -0.0469,-0.08203 -0.0234,-0.02344 -0.0586,-0.03516 -0.082,-0.03516 -0.0703,0 -0.1289,0.01172 -0.19922,0.05859 -0.0586,0.03516 -0.21093,0.175781 -0.44531,0.433594 l -0.11719,-0.08203 c 0.21094,-0.304688 0.4336,-0.527344 0.66797,-0.679688 0.1875,-0.105469 0.35157,-0.164062 0.50391,-0.164062 0.10547,0 0.19922,0.04687 0.25781,0.117187 0.0703,0.07031 0.0937,0.164063 0.0937,0.28125 0,0.140625 -0.0586,0.386719 -0.17578,0.738281 l -0.43359,1.253907 c -0.10547,0.339843 -0.17578,0.550781 -0.17578,0.644531 0,0.04687 0.0234,0.08203 0.0586,0.117187 0.0352,0.02344 0.0703,0.04687 0.14062,0.04687 0.082,0 0.19922,-0.04687 0.33985,-0.128906 0.14062,-0.09375 0.33984,-0.28125 0.57422,-0.574219 0.24609,-0.304687 0.43359,-0.585937 0.59765,-0.84375 0.15235,-0.246093 0.31641,-0.667968 0.48047,-1.230468 l 0.10547,-0.328125 z m 4.92187,6.445312 h -2.64843 v -0.140625 c 1.34765,-1.183594 2.22656,-2.109375 2.66015,-2.777344 0.19922,-0.304687 0.30469,-0.632812 0.30469,-0.972656 0,-0.269531 -0.082,-0.492187 -0.25781,-0.667969 -0.16407,-0.164062 -0.375,-0.246093 -0.64453,-0.246093 -0.36329,0 -0.66797,0.175781 -0.90235,0.527343 l -0.14062,-0.07031 c 0.14062,-0.339844 0.32812,-0.597656 0.58593,-0.785156 0.25782,-0.1875 0.52735,-0.28125 0.83204,-0.28125 0.32812,0 0.60937,0.117187 0.84375,0.351562 0.23437,0.222656 0.33984,0.503906 0.33984,0.832031 0,0.234375 -0.0352,0.445313 -0.11719,0.644532 -0.1289,0.304687 -0.36328,0.644531 -0.6914,1.019531 -0.51563,0.585937 -1.19532,1.242187 -2.05079,2.003906 h 1.34766 c 0.21094,0 0.38672,-0.05859 0.52734,-0.140625 0.12891,-0.09375 0.23438,-0.199219 0.29297,-0.351562 h 0.16407 z m -20.90625,-21.380859 -0.71484,2.367187 c -0.0937,0.351563 -0.15234,0.574219 -0.15234,0.667969 0,0.04687 0,0.07031 0.0117,0.09375 0.0117,0.02344 0.0352,0.02344 0.0586,0.02344 0.0351,0 0.0703,-0.01172 0.10547,-0.04687 0.0469,-0.03516 0.15234,-0.199219 0.3164,-0.480469 l 0.11719,0.09375 c -0.17578,0.304687 -0.36328,0.539062 -0.55078,0.679687 -0.12891,0.08203 -0.25781,0.140625 -0.36328,0.140625 -0.0937,0 -0.16406,-0.03516 -0.22266,-0.09375 -0.0469,-0.05859 -0.0703,-0.128906 -0.0703,-0.210937 0,-0.09375 0.0117,-0.210938 0.0469,-0.351563 0.0469,-0.1875 0.17579,-0.597656 0.375,-1.242187 -0.46875,0.726562 -0.85546,1.21875 -1.16015,1.488281 -0.30469,0.269531 -0.59766,0.410156 -0.85547,0.410156 -0.12891,0 -0.23438,-0.04687 -0.30469,-0.128906 -0.0937,-0.08203 -0.1289,-0.1875 -0.1289,-0.304687 0,-0.199219 0.0586,-0.503907 0.19921,-0.914063 l 0.41016,-1.207031 c 0.10547,-0.28125 0.15234,-0.457031 0.15234,-0.527344 0,-0.03516 -0.0234,-0.05859 -0.0469,-0.08203 -0.0234,-0.02344 -0.0586,-0.03516 -0.082,-0.03516 -0.0703,0 -0.12891,0.01172 -0.19922,0.05859 -0.0586,0.03516 -0.21094,0.175782 -0.44531,0.433594 l -0.11719,-0.08203 c 0.21094,-0.304688 0.43359,-0.527344 0.66797,-0.679688 0.1875,-0.105468 0.35156,-0.164062 0.5039,-0.164062 0.10547,0 0.19922,0.04687 0.25782,0.117187 0.0703,0.07031 0.0937,0.164063 0.0937,0.28125 0,0.140625 -0.0586,0.386719 -0.17578,0.738282 l -0.4336,1.253906 c -0.10547,0.339844 -0.17578,0.550781 -0.17578,0.644531 0,0.04687 0.0234,0.08203 0.0586,0.117188 0.0352,0.02344 0.0703,0.04687 0.14063,0.04687 0.082,0 0.19922,-0.04687 0.33984,-0.128907 0.14063,-0.09375 0.33985,-0.28125 0.57422,-0.574218 0.2461,-0.304688 0.4336,-0.585938 0.59766,-0.84375 0.15234,-0.246094 0.3164,-0.667969 0.48047,-1.230469 l 0.10547,-0.328125 z m 3.36328,3.550781 v -0.117187 c 0.63282,-0.09375 1.10157,-0.28125 1.41797,-0.5625 0.22266,-0.199219 0.32813,-0.433594 0.32813,-0.703125 0,-0.210938 -0.0586,-0.386719 -0.1875,-0.515625 -0.14063,-0.140625 -0.29297,-0.199219 -0.46875,-0.199219 -0.30469,0 -0.55078,0.175781 -0.78516,0.539062 l -0.14062,-0.04687 c 0.14062,-0.304687 0.3164,-0.527343 0.52734,-0.679687 0.21094,-0.152344 0.44531,-0.234375 0.69141,-0.234375 0.3164,0 0.5625,0.09375 0.73828,0.28125 0.19922,0.175781 0.29297,0.410156 0.29297,0.691406 0,0.234375 -0.082,0.46875 -0.25782,0.691406 -0.1875,0.222657 -0.49218,0.421875 -0.9375,0.597657 0.28125,0.105468 0.48047,0.269531 0.6211,0.480468 0.14062,0.210938 0.21094,0.457032 0.21094,0.761719 0,0.316406 -0.10547,0.644531 -0.28125,0.972656 -0.19922,0.328125 -0.44532,0.574219 -0.77344,0.761719 -0.32813,0.175781 -0.67969,0.269531 -1.04297,0.269531 -0.32813,0 -0.57422,-0.05859 -0.73828,-0.175781 -0.11719,-0.08203 -0.16406,-0.175781 -0.16406,-0.28125 0,-0.08203 0.0234,-0.164062 0.0937,-0.234375 0.0703,-0.05859 0.15234,-0.09375 0.24609,-0.09375 0.0703,0 0.14062,0.01172 0.19922,0.03516 0.0469,0.01172 0.14062,0.05859 0.3164,0.164063 0.15235,0.08203 0.28125,0.152344 0.375,0.175781 0.0937,0.02344 0.1875,0.04687 0.28125,0.04687 0.23438,0 0.4336,-0.140625 0.57422,-0.410156 0.15235,-0.269531 0.23438,-0.5625 0.23438,-0.878906 0,-0.246094 -0.0469,-0.46875 -0.15235,-0.65625 -0.10546,-0.199219 -0.25781,-0.351563 -0.48046,-0.46875 -0.22266,-0.128907 -0.46875,-0.199219 -0.73829,-0.210938 z M -8.919,63.03 -9.6338437,65.397187 c -0.09375,0.351563 -0.1523438,0.574219 -0.1523438,0.667969 0,0.04687 0,0.07031 0.011719,0.09375 0.011719,0.02344 0.035156,0.02344 0.058594,0.02344 0.035156,0 0.070312,-0.01172 0.1054688,-0.04687 C -9.5635312,66.100312 -9.4580625,65.93625 -9.294,65.655 l 0.1171875,0.09375 c -0.1757812,0.304687 -0.3632812,0.539062 -0.5507812,0.679687 -0.1289063,0.08203 -0.2578125,0.140625 -0.3632813,0.140625 -0.09375,0 -0.164062,-0.03516 -0.222656,-0.09375 -0.04687,-0.05859 -0.07031,-0.128906 -0.07031,-0.210937 0,-0.09375 0.01172,-0.210938 0.04687,-0.351563 0.04687,-0.1875 0.175782,-0.597656 0.3750003,-1.242187 -0.4687503,0.726562 -0.8554683,1.21875 -1.1601563,1.488281 -0.304687,0.269531 -0.597656,0.410156 -0.855469,0.410156 -0.128906,0 -0.234375,-0.04687 -0.304687,-0.128906 -0.09375,-0.08203 -0.128906,-0.1875 -0.128906,-0.304687 0,-0.199219 0.05859,-0.503907 0.199218,-0.914063 l 0.410157,-1.207031 c 0.105468,-0.28125 0.152343,-0.457031 0.152343,-0.527344 0,-0.03516 -0.02344,-0.05859 -0.04687,-0.08203 -0.02344,-0.02344 -0.05859,-0.03516 -0.08203,-0.03516 -0.07031,0 -0.128906,0.01172 -0.199219,0.05859 -0.05859,0.03516 -0.210937,0.175782 -0.445312,0.433594 L -12.540094,63.78 c 0.210938,-0.304688 0.433594,-0.527344 0.667969,-0.679688 0.1875,-0.105468 0.351563,-0.164062 0.503906,-0.164062 0.105469,0 0.199219,0.04687 0.257813,0.117187 0.07031,0.07031 0.09375,0.164063 0.09375,0.28125 0,0.140625 -0.05859,0.386719 -0.175781,0.738282 l -0.433594,1.253906 c -0.105469,0.339844 -0.175781,0.550781 -0.175781,0.644531 0,0.04687 0.02344,0.08203 0.05859,0.117188 0.03516,0.02344 0.07031,0.04687 0.140625,0.04687 0.08203,0 0.199219,-0.04687 0.339844,-0.128907 0.140625,-0.09375 0.339844,-0.28125 0.574219,-0.574218 0.246094,-0.304688 0.433594,-0.585938 0.597656,-0.84375 0.1523438,-0.246094 0.3164063,-0.667969 0.4804688,-1.230469 L -9.5049375,63.03 Z m 6.3515625,1.03125 v 0.152344 c -0.4570312,0.105468 -0.890625,0.328125 -1.3007812,0.65625 -0.421875,0.339843 -0.7851563,0.773437 -1.1015625,1.289062 0.28125,-0.117187 0.5039062,-0.175781 0.6796875,-0.175781 0.3398437,0 0.6210937,0.117187 0.8554687,0.363281 0.234375,0.234375 0.3515625,0.5625 0.3515625,0.972656 0,0.609375 -0.1992187,1.148438 -0.5976562,1.59375 -0.4101563,0.433594 -0.8320313,0.65625 -1.3007813,0.65625 -0.421875,0 -0.75,-0.152343 -0.9609375,-0.46875 -0.2109375,-0.316406 -0.328125,-0.667968 -0.328125,-1.078125 0,-0.539062 0.1171875,-1.066406 0.3632813,-1.59375 0.2578125,-0.503906 0.5859375,-0.949218 1.0195312,-1.335937 0.421875,-0.363281 0.8554688,-0.644531 1.3125,-0.820313 0.2695313,-0.105468 0.5976563,-0.164062 1.0078125,-0.210937 z m -2.5898437,2.425781 c -0.375,0.796875 -0.5625,1.464844 -0.5625,1.992188 0,0.28125 0.070312,0.503906 0.2109375,0.65625 0.140625,0.164062 0.3046875,0.246093 0.4921875,0.246093 0.3046875,0 0.5742187,-0.222656 0.8320312,-0.65625 0.2695313,-0.433593 0.3984375,-0.9375 0.3984375,-1.511718 0,-0.304688 -0.070312,-0.539063 -0.2226562,-0.703125 -0.1523438,-0.175782 -0.3398438,-0.257813 -0.5507813,-0.257813 -0.1054687,0 -0.1875,0.02344 -0.2695312,0.05859 -0.082031,0.02344 -0.1875,0.08203 -0.328125,0.175781 z m -21.2138668,39.506839 -0.714844,2.36718 c -0.09375,0.35157 -0.152344,0.57422 -0.152344,0.66797 0,0.0469 0,0.0703 0.01172,0.0937 0.01172,0.0234 0.03516,0.0234 0.05859,0.0234 0.03516,0 0.07031,-0.0117 0.105468,-0.0469 0.04687,-0.0352 0.152344,-0.19922 0.316407,-0.48047 l 0.117187,0.0937 c -0.175781,0.30468 -0.363281,0.53906 -0.550781,0.67968 -0.128906,0.082 -0.257813,0.14063 -0.363281,0.14063 -0.09375,0 -0.164063,-0.0352 -0.222657,-0.0937 -0.04687,-0.0586 -0.07031,-0.12891 -0.07031,-0.21094 0,-0.0937 0.01172,-0.21094 0.04687,-0.35156 0.04687,-0.1875 0.175781,-0.59766 0.375,-1.24219 -0.46875,0.72656 -0.855469,1.21875 -1.160156,1.48828 -0.304688,0.26953 -0.597657,0.41016 -0.855469,0.41016 -0.128906,0 -0.234375,-0.0469 -0.304688,-0.12891 -0.09375,-0.082 -0.128906,-0.1875 -0.128906,-0.30468 0,-0.19922 0.05859,-0.50391 0.199219,-0.91407 l 0.410156,-1.20703 c 0.105469,-0.28125 0.152344,-0.45703 0.152344,-0.52734 0,-0.0352 -0.02344,-0.0586 -0.04687,-0.082 -0.02344,-0.0234 -0.05859,-0.0352 -0.08203,-0.0352 -0.07031,0 -0.128907,0.0117 -0.199219,0.0586 -0.05859,0.0352 -0.210938,0.17579 -0.445313,0.4336 l -0.117187,-0.082 c 0.210937,-0.30469 0.433594,-0.52735 0.667969,-0.67969 0.1875,-0.10547 0.351562,-0.16406 0.503906,-0.16406 0.105469,0 0.199219,0.0469 0.257812,0.11718 0.07031,0.0703 0.09375,0.16407 0.09375,0.28125 0,0.14063 -0.05859,0.38672 -0.175781,0.73829 l -0.433594,1.2539 c -0.105468,0.33985 -0.175781,0.55078 -0.175781,0.64453 0,0.0469 0.02344,0.082 0.05859,0.11719 0.03516,0.0234 0.07031,0.0469 0.140625,0.0469 0.08203,0 0.199219,-0.0469 0.339844,-0.12891 0.140625,-0.0937 0.339843,-0.28125 0.574218,-0.57422 0.246094,-0.30469 0.433594,-0.58594 0.597657,-0.84375 0.152343,-0.24609 0.316406,-0.66797 0.480468,-1.23047 l 0.105469,-0.32812 z m 6.046875,1.13672 -1.007813,3.48046 h 0.621094 l -0.140625,0.49219 h -0.632813 l -0.410156,1.42969 h -0.574219 l 0.421875,-1.42969 h -1.933593 l 0.175781,-0.55078 3.175781,-3.42187 z m -0.878907,1.00781 -2.273437,2.47265 h 1.558594 z m -144.14648,-1.83985 -0.71485,2.36719 c -0.0937,0.35156 -0.15234,0.57422 -0.15234,0.66797 0,0.0469 0,0.0703 0.0117,0.0937 0.0117,0.0234 0.0351,0.0234 0.0586,0.0234 0.0352,0 0.0703,-0.0117 0.10547,-0.0469 0.0469,-0.0352 0.15234,-0.19922 0.31641,-0.48047 l 0.11718,0.0937 c -0.17578,0.30469 -0.36328,0.53907 -0.55078,0.67969 -0.1289,0.082 -0.25781,0.14063 -0.36328,0.14063 -0.0937,0 -0.16406,-0.0352 -0.22266,-0.0937 -0.0469,-0.0586 -0.0703,-0.12891 -0.0703,-0.21094 0,-0.0937 0.0117,-0.21094 0.0469,-0.35156 0.0469,-0.1875 0.17578,-0.59766 0.375,-1.24219 -0.46875,0.72656 -0.85547,1.21875 -1.16016,1.48828 -0.30469,0.26953 -0.59766,0.41016 -0.85547,0.41016 -0.1289,0 -0.23437,-0.0469 -0.30469,-0.12891 -0.0937,-0.082 -0.1289,-0.1875 -0.1289,-0.30469 0,-0.19922 0.0586,-0.5039 0.19922,-0.91406 l 0.41015,-1.20703 c 0.10547,-0.28125 0.15235,-0.45703 0.15235,-0.52734 0,-0.0352 -0.0234,-0.0586 -0.0469,-0.082 -0.0234,-0.0234 -0.0586,-0.0352 -0.082,-0.0352 -0.0703,0 -0.12891,0.0117 -0.19922,0.0586 -0.0586,0.0352 -0.21094,0.17578 -0.44531,0.4336 l -0.11719,-0.082 c 0.21094,-0.30468 0.4336,-0.52734 0.66797,-0.67968 0.1875,-0.10547 0.35156,-0.16407 0.50391,-0.16407 0.10547,0 0.19922,0.0469 0.25781,0.11719 0.0703,0.0703 0.0937,0.16406 0.0937,0.28125 0,0.14063 -0.0586,0.38672 -0.17578,0.73828 l -0.4336,1.25391 c -0.10546,0.33984 -0.17578,0.55078 -0.17578,0.64453 0,0.0469 0.0234,0.082 0.0586,0.11719 0.0351,0.0234 0.0703,0.0469 0.14062,0.0469 0.082,0 0.19922,-0.0469 0.33985,-0.1289 0.14062,-0.0937 0.33984,-0.28125 0.57421,-0.57422 0.2461,-0.30469 0.4336,-0.58594 0.59766,-0.84375 0.15234,-0.2461 0.31641,-0.66797 0.48047,-1.23047 l 0.10547,-0.32813 z m 5.48437,1.03125 -1.25391,4.39454 c -0.082,0.24609 -0.11718,0.43359 -0.11718,0.55078 0,0.0937 0.0351,0.17578 0.0937,0.22265 0.0703,0.0469 0.22265,0.082 0.48047,0.10547 l -0.0469,0.14063 h -2.00391 l 0.0469,-0.14063 c 0.21094,-0.0117 0.35156,-0.0234 0.42187,-0.0469 0.11719,-0.0469 0.1875,-0.11719 0.2461,-0.19922 0.0937,-0.11719 0.17578,-0.32813 0.26953,-0.63281 l 0.90234,-3.16407 c 0.0586,-0.1875 0.082,-0.29297 0.082,-0.32812 0.0117,-0.0469 0.0234,-0.0937 0.0234,-0.15235 0,-0.082 -0.0234,-0.15234 -0.0703,-0.19921 -0.0586,-0.0586 -0.12891,-0.082 -0.21094,-0.082 -0.0703,0 -0.17578,0.0117 -0.3164,0.0469 l -0.0586,-0.14063 1.32422,-0.375 z M 3.9452578,81.709687 3.2304141,84.076875 c -0.09375,0.351562 -0.1523438,0.574219 -0.1523438,0.667969 0,0.04687 0,0.07031 0.011719,0.09375 0.011719,0.02344 0.035156,0.02344 0.058594,0.02344 0.035156,0 0.070312,-0.01172 0.1054688,-0.04687 0.046875,-0.03516 0.1523437,-0.199219 0.3164062,-0.480469 l 0.1171875,0.09375 c -0.1757817,0.30468 -0.3632817,0.539055 -0.5507817,0.67968 -0.1289063,0.08203 -0.2578125,0.140625 -0.3632813,0.140625 -0.09375,0 -0.1640625,-0.03516 -0.2226562,-0.09375 -0.046875,-0.05859 -0.070312,-0.128906 -0.070312,-0.210938 0,-0.09375 0.011719,-0.210937 0.046875,-0.351562 0.046875,-0.1875 0.1757812,-0.597656 0.375,-1.242188 -0.46875,0.726563 -0.8554688,1.21875 -1.1601563,1.488282 -0.3046875,0.269531 -0.5976562,0.410156 -0.85546874,0.410156 -0.12890625,0 -0.234375,-0.04687 -0.3046875,-0.128906 -0.09375,-0.08203 -0.12890625,-0.1875 -0.12890625,-0.304688 0,-0.199219 0.0585938,-0.503906 0.19921875,-0.914062 L 1.0624453,82.694062 c 0.1054688,-0.28125 0.1523438,-0.457031 0.1523438,-0.527343 0,-0.03516 -0.023437,-0.05859 -0.046875,-0.08203 -0.023437,-0.02344 -0.058594,-0.03516 -0.082031,-0.03516 -0.070312,0 -0.12890624,0.01172 -0.19921874,0.05859 -0.0585938,0.03516 -0.2109375,0.175781 -0.4453125,0.433594 l -0.1171875,-0.08203 C 0.53510156,82.155 0.75775781,81.932344 0.99213281,81.78 1.1796328,81.674531 1.3436953,81.615937 1.4960391,81.615937 c 0.1054687,0 0.1992187,0.04687 0.2578125,0.117188 0.070312,0.07031 0.09375,0.164062 0.09375,0.28125 0,0.140625 -0.058594,0.386719 -0.1757813,0.738281 l -0.4335937,1.253906 c -0.1054688,0.339844 -0.1757813,0.550782 -0.1757813,0.644532 0,0.04687 0.023437,0.08203 0.058594,0.117187 0.035156,0.02344 0.070312,0.04687 0.140625,0.04687 0.082031,0 0.1992187,-0.04687 0.3398437,-0.128906 0.140625,-0.09375 0.3398438,-0.28125 0.5742188,-0.574219 0.2460937,-0.304687 0.4335937,-0.585937 0.5976562,-0.84375 0.1523438,-0.246094 0.3164063,-0.667969 0.4804688,-1.230469 l 0.1054687,-0.328125 z m 4.2070313,1.136719 h 1.7695312 l -0.1875,0.644531 h -1.59375 l -0.2929687,0.65625 c 0.421875,0.05859 0.75,0.199219 0.9960937,0.386719 0.3632813,0.304688 0.5390625,0.738281 0.5390625,1.289063 0,0.351562 -0.058594,0.679687 -0.1992187,0.984375 -0.1289063,0.292968 -0.2929688,0.527343 -0.4921875,0.726562 -0.1875,0.199219 -0.3984375,0.351563 -0.6210938,0.480469 -0.3046875,0.152344 -0.609375,0.234375 -0.9023437,0.234375 -0.2695313,0 -0.4804688,-0.05859 -0.6328125,-0.175781 C 6.4296328,87.990937 6.3827578,87.897187 6.3827578,87.78 c 0,-0.09375 0.023437,-0.175781 0.09375,-0.246094 0.070312,-0.07031 0.1523438,-0.09375 0.2578125,-0.09375 0.1289063,0 0.28125,0.07031 0.4570313,0.199219 0.1054687,0.09375 0.1875,0.152344 0.2578125,0.175781 0.058594,0.02344 0.1171875,0.03516 0.1992187,0.03516 0.2929688,0 0.5625,-0.140625 0.8085938,-0.445312 0.2460937,-0.292969 0.375,-0.667969 0.375,-1.136719 0,-0.328125 -0.070312,-0.597656 -0.1992188,-0.832031 C 8.5038516,85.201875 8.3280703,85.037812 8.1288516,84.944062 7.9179141,84.862031 7.6483828,84.791719 7.3085391,84.756562 Z m -42.9580081,-58.013672 -0.714843,2.367188 c -0.09375,0.351562 -0.152344,0.574219 -0.152344,0.667969 0,0.04687 0,0.07031 0.01172,0.09375 0.01172,0.02344 0.03516,0.02344 0.05859,0.02344 0.03516,0 0.07031,-0.01172 0.105469,-0.04687 0.04687,-0.03516 0.152344,-0.199219 0.316406,-0.480469 l 0.117188,0.09375 c -0.175781,0.304688 -0.363281,0.539063 -0.550781,0.679688 -0.128907,0.08203 -0.257813,0.140625 -0.363282,0.140625 -0.09375,0 -0.164062,-0.03516 -0.222656,-0.09375 -0.04687,-0.05859 -0.07031,-0.128906 -0.07031,-0.210938 0,-0.09375 0.01172,-0.210937 0.04687,-0.351562 0.04687,-0.1875 0.175781,-0.597656 0.375,-1.242188 -0.46875,0.726563 -0.855469,1.21875 -1.160157,1.488282 -0.304687,0.269531 -0.597656,0.410156 -0.855468,0.410156 -0.128907,0 -0.234375,-0.04687 -0.304688,-0.128906 -0.09375,-0.08203 -0.128906,-0.1875 -0.128906,-0.304688 0,-0.199219 0.05859,-0.503906 0.199219,-0.914062 l 0.410156,-1.207032 c 0.105469,-0.28125 0.152344,-0.457031 0.152344,-0.527343 0,-0.03516 -0.02344,-0.05859 -0.04687,-0.08203 -0.02344,-0.02344 -0.05859,-0.03516 -0.08203,-0.03516 -0.07031,0 -0.128906,0.01172 -0.199218,0.05859 -0.05859,0.03516 -0.210938,0.175781 -0.445313,0.433594 l -0.117187,-0.08203 c 0.210937,-0.304687 0.433593,-0.527343 0.667968,-0.679687 0.1875,-0.105469 0.351563,-0.164063 0.503907,-0.164063 0.105468,0 0.199218,0.04687 0.257812,0.117188 0.07031,0.07031 0.09375,0.164062 0.09375,0.28125 0,0.140625 -0.05859,0.386719 -0.175781,0.738281 l -0.433594,1.253906 c -0.105469,0.339844 -0.175781,0.550782 -0.175781,0.644532 0,0.04687 0.02344,0.08203 0.05859,0.117187 0.03516,0.02344 0.07031,0.04687 0.140625,0.04687 0.08203,0 0.199218,-0.04687 0.339843,-0.128906 0.140625,-0.09375 0.339844,-0.28125 0.574219,-0.574219 0.246094,-0.304687 0.433594,-0.585937 0.597656,-0.84375 0.152344,-0.246094 0.316407,-0.667969 0.480469,-1.230469 l 0.105469,-0.328125 z m 3.703125,1.136719 h 2.625 v 0.140625 l -2.964843,5.261719 -0.316407,-0.152344 2.601563,-4.628906 h -1.253906 c -0.351563,0 -0.585938,0.03516 -0.714844,0.09375 -0.128906,0.05859 -0.269531,0.210937 -0.433594,0.445312 h -0.164062 z m -99.852536,-31.7871093 -0.71485,2.3671875 c -0.0937,0.3515625 -0.15234,0.5742188 -0.15234,0.6679688 0,0.046875 0,0.070312 0.0117,0.09375 0.0117,0.023437 0.0351,0.023437 0.0586,0.023437 0.0352,0 0.0703,-0.011719 0.10547,-0.046875 0.0469,-0.035156 0.15234,-0.1992188 0.31641,-0.4804688 l 0.11718,0.09375 c -0.17578,0.3046875 -0.36328,0.5390625 -0.55078,0.6796875 -0.1289,0.082031 -0.25781,0.140625 -0.36328,0.140625 -0.0937,0 -0.16406,-0.035156 -0.22265,-0.09375 -0.0469,-0.058594 -0.0703,-0.1289062 -0.0703,-0.2109375 0,-0.09375 0.0117,-0.2109375 0.0469,-0.3515625 0.0469,-0.1875 0.17578,-0.5976562 0.375,-1.2421875 -0.46875,0.7265625 -0.85547,1.21875 -1.16016,1.4882813 -0.30469,0.2695312 -0.59765,0.4101562 -0.85547,0.4101562 -0.1289,0 -0.23437,-0.046875 -0.30468,-0.1289062 -0.0937,-0.082031 -0.12891,-0.1875 -0.12891,-0.3046875 0,-0.1992188 0.0586,-0.5039063 0.19922,-0.9140625 l 0.41015,-1.2070313 c 0.10547,-0.28125 0.15235,-0.4570312 0.15235,-0.5273437 0,-0.035156 -0.0234,-0.058594 -0.0469,-0.082031 -0.0234,-0.023437 -0.0586,-0.035156 -0.082,-0.035156 -0.0703,0 -0.1289,0.011719 -0.19922,0.058594 -0.0586,0.035156 -0.21093,0.1757813 -0.44531,0.4335938 l -0.11719,-0.082031 c 0.21094,-0.3046875 0.4336,-0.5273437 0.66797,-0.6796875 0.1875,-0.1054687 0.35156,-0.1640625 0.50391,-0.1640625 0.10547,0 0.19922,0.046875 0.25781,0.1171875 0.0703,0.070312 0.0937,0.1640625 0.0937,0.28125 0,0.140625 -0.0586,0.3867188 -0.17578,0.7382813 l -0.43359,1.2539062 c -0.10547,0.3398438 -0.17579,0.5507813 -0.17579,0.6445313 0,0.046875 0.0234,0.082031 0.0586,0.1171875 0.0351,0.023437 0.0703,0.046875 0.14062,0.046875 0.082,0 0.19922,-0.046875 0.33985,-0.1289063 0.14062,-0.09375 0.33984,-0.28125 0.57422,-0.5742187 0.24609,-0.3046875 0.43359,-0.5859375 0.59765,-0.84375 0.15235,-0.2460938 0.31641,-0.6679688 0.48047,-1.2304688 l 0.10547,-0.328125 z m 5.48437,1.03125 -1.2539,4.3945313 c -0.082,0.24609375 -0.11719,0.43359375 -0.11719,0.55078125 0,0.09375 0.0351,0.17578125 0.0937,0.22265625 0.0703,0.046875 0.22265,0.0820313 0.48047,0.10546875 l -0.0469,0.140625 h -2.0039 l 0.0469,-0.140625 c 0.21094,-0.0117188 0.35156,-0.0234375 0.42188,-0.046875 0.11718,-0.046875 0.1875,-0.1171875 0.24609,-0.19921875 0.0937,-0.1171875 0.17578,-0.328125 0.26953,-0.6328125 l 0.90234,-3.1640625 c 0.0586,-0.1875 0.082,-0.2929688 0.082,-0.328125 0.0117,-0.046875 0.0234,-0.09375 0.0234,-0.1523438 0,-0.082031 -0.0234,-0.1523437 -0.0703,-0.1992187 -0.0586,-0.058594 -0.12891,-0.082031 -0.21094,-0.082031 -0.0703,0 -0.17578,0.011719 -0.3164,0.046875 l -0.0586,-0.140625 1.32422,-0.375 z m 3.45703,0 -1.2539,4.3945313 c -0.082,0.24609375 -0.11719,0.43359375 -0.11719,0.55078125 0,0.09375 0.0352,0.17578125 0.0937,0.22265625 0.0703,0.046875 0.22266,0.0820313 0.48047,0.10546875 l -0.0469,0.140625 h -2.0039 l 0.0469,-0.140625 c 0.21094,-0.0117188 0.35156,-0.0234375 0.42188,-0.046875 0.11718,-0.046875 0.1875,-0.1171875 0.24609,-0.19921875 0.0937,-0.1171875 0.17578,-0.328125 0.26953,-0.6328125 l 0.90235,-3.1640625 c 0.0586,-0.1875 0.082,-0.2929688 0.082,-0.328125 0.0117,-0.046875 0.0234,-0.09375 0.0234,-0.1523438 0,-0.082031 -0.0234,-0.1523437 -0.0703,-0.1992187 -0.0586,-0.058594 -0.1289,-0.082031 -0.21094,-0.082031 -0.0703,0 -0.17578,0.011719 -0.3164,0.046875 l -0.0586,-0.140625 1.32422,-0.375 z m -55.12207,29.4345703 -0.71484,2.367188 c -0.0937,0.351562 -0.15234,0.574218 -0.15234,0.667968 0,0.04687 0,0.07031 0.0117,0.09375 0.0117,0.02344 0.0352,0.02344 0.0586,0.02344 0.0352,0 0.0703,-0.01172 0.10547,-0.04687 0.0469,-0.03516 0.15234,-0.199219 0.3164,-0.480469 l 0.11719,0.09375 c -0.17578,0.304688 -0.36328,0.539063 -0.55078,0.679688 -0.12891,0.08203 -0.25781,0.140625 -0.36328,0.140625 -0.0937,0 -0.16406,-0.03516 -0.22266,-0.09375 -0.0469,-0.05859 -0.0703,-0.128907 -0.0703,-0.210938 0,-0.09375 0.0117,-0.210937 0.0469,-0.351562 0.0469,-0.1875 0.17579,-0.597657 0.375,-1.242188 -0.46875,0.726563 -0.85546,1.21875 -1.16015,1.488281 -0.30469,0.269532 -0.59766,0.410157 -0.85547,0.410157 -0.12891,0 -0.23438,-0.04687 -0.30469,-0.128907 -0.0937,-0.08203 -0.1289,-0.1875 -0.1289,-0.304687 0,-0.199219 0.0586,-0.503906 0.19921,-0.914063 l 0.41016,-1.207031 c 0.10547,-0.28125 0.15234,-0.457031 0.15234,-0.527344 0,-0.03516 -0.0234,-0.05859 -0.0469,-0.08203 -0.0234,-0.02344 -0.0586,-0.03516 -0.082,-0.03516 -0.0703,0 -0.12891,0.01172 -0.19922,0.05859 -0.0586,0.03516 -0.21094,0.175781 -0.44531,0.433593 l -0.11719,-0.08203 c 0.21094,-0.304687 0.43359,-0.527344 0.66797,-0.679687 0.1875,-0.105469 0.35156,-0.164063 0.5039,-0.164063 0.10547,0 0.19922,0.04687 0.25782,0.117188 0.0703,0.07031 0.0937,0.164062 0.0937,0.28125 0,0.140625 -0.0586,0.386718 -0.17578,0.738281 l -0.4336,1.253906 c -0.10547,0.339844 -0.17578,0.550781 -0.17578,0.644531 0,0.04687 0.0234,0.08203 0.0586,0.117188 0.0352,0.02344 0.0703,0.04687 0.14063,0.04687 0.082,0 0.19922,-0.04687 0.33984,-0.128906 0.14063,-0.09375 0.33985,-0.28125 0.57422,-0.574219 0.2461,-0.304688 0.4336,-0.585938 0.59766,-0.84375 0.15234,-0.246094 0.3164,-0.667969 0.48047,-1.230469 l 0.10547,-0.328125 z m 5.48438,1.03125 -1.25391,4.394531 c -0.082,0.246094 -0.11719,0.433594 -0.11719,0.550782 0,0.09375 0.0352,0.175781 0.0937,0.222656 0.0703,0.04687 0.22266,0.08203 0.48047,0.105469 l -0.0469,0.140625 h -2.00391 l 0.0469,-0.140625 c 0.21093,-0.01172 0.35156,-0.02344 0.42187,-0.04687 0.11719,-0.04687 0.1875,-0.117188 0.2461,-0.199219 0.0937,-0.117188 0.17578,-0.328125 0.26953,-0.632813 l 0.90234,-3.164062 c 0.0586,-0.1875 0.082,-0.292969 0.082,-0.328125 0.0117,-0.04687 0.0234,-0.09375 0.0234,-0.152344 0,-0.08203 -0.0234,-0.152344 -0.0703,-0.199219 -0.0586,-0.05859 -0.12891,-0.08203 -0.21094,-0.08203 -0.0703,0 -0.17578,0.01172 -0.31641,0.04687 l -0.0586,-0.140625 1.32422,-0.375 z m 3.4248,0 c 0.33985,0 0.6211,0.140625 0.84375,0.421875 0.23438,0.28125 0.33985,0.714844 0.33985,1.324219 0,0.515625 -0.082,1.03125 -0.2461,1.570312 -0.17578,0.539063 -0.41015,0.996094 -0.71484,1.394532 -0.24609,0.316406 -0.50391,0.539062 -0.77344,0.667968 -0.15234,0.08203 -0.32812,0.128907 -0.53906,0.128907 -0.33984,0 -0.63281,-0.140625 -0.85547,-0.421875 -0.22266,-0.28125 -0.33984,-0.714844 -0.33984,-1.324219 0,-0.597656 0.11718,-1.195313 0.33984,-1.792969 0.26953,-0.703125 0.60938,-1.242187 1.03125,-1.605469 0.28125,-0.234375 0.58594,-0.363281 0.91406,-0.363281 z m 0.0117,0.199219 c -0.15234,0 -0.30469,0.05859 -0.46875,0.175781 -0.15234,0.128906 -0.30469,0.375 -0.48047,0.75 -0.15234,0.375 -0.3164,0.855469 -0.46875,1.453125 -0.19922,0.773438 -0.29297,1.429688 -0.29297,1.96875 0,0.269531 0.0586,0.480469 0.17579,0.609375 0.11718,0.140625 0.25781,0.199219 0.42187,0.199219 0.16406,0 0.29297,-0.05859 0.41016,-0.152344 0.30468,-0.28125 0.5625,-0.761719 0.77343,-1.441406 0.35157,-1.113281 0.52735,-2.015625 0.52735,-2.71875 0,-0.292969 -0.0586,-0.492188 -0.17578,-0.632813 -0.12891,-0.128906 -0.25782,-0.210937 -0.42188,-0.210937 z m 21.26074,-45.404297 -0.71484,2.367187 c -0.0937,0.351563 -0.15234,0.574219 -0.15234,0.667969 0,0.04687 0,0.07031 0.0117,0.09375 0.0117,0.02344 0.0351,0.02344 0.0586,0.02344 0.0352,0 0.0703,-0.01172 0.10547,-0.04687 0.0469,-0.03516 0.15234,-0.199219 0.3164,-0.480469 l 0.11719,0.09375 c -0.17578,0.304687 -0.36328,0.539062 -0.55078,0.679687 -0.12891,0.08203 -0.25781,0.140625 -0.36328,0.140625 -0.0937,0 -0.16406,-0.03516 -0.22266,-0.09375 -0.0469,-0.05859 -0.0703,-0.128906 -0.0703,-0.210937 0,-0.09375 0.0117,-0.210938 0.0469,-0.351563 0.0469,-0.1875 0.17578,-0.597656 0.375,-1.242187 -0.46875,0.726562 -0.85547,1.21875 -1.16016,1.488281 -0.30469,0.269531 -0.59766,0.410156 -0.85547,0.410156 -0.12891,0 -0.23437,-0.04688 -0.30469,-0.128906 -0.0937,-0.08203 -0.1289,-0.1875 -0.1289,-0.304687 0,-0.199219 0.0586,-0.503907 0.19922,-0.914063 l 0.41015,-1.207031 c 0.10547,-0.28125 0.15235,-0.457031 0.15235,-0.527344 0,-0.03516 -0.0234,-0.05859 -0.0469,-0.08203 -0.0234,-0.02344 -0.0586,-0.03516 -0.082,-0.03516 -0.0703,0 -0.12891,0.01172 -0.19922,0.05859 -0.0586,0.03516 -0.21094,0.175782 -0.44531,0.433594 l -0.11719,-0.08203 c 0.21094,-0.304688 0.43359,-0.527344 0.66797,-0.679688 0.1875,-0.105468 0.35156,-0.164062 0.50391,-0.164062 0.10546,0 0.19921,0.04687 0.25781,0.117187 0.0703,0.07031 0.0937,0.164063 0.0937,0.28125 0,0.140625 -0.0586,0.386719 -0.17578,0.738282 l -0.4336,1.253906 c -0.10547,0.339844 -0.17578,0.550781 -0.17578,0.644531 0,0.04687 0.0234,0.08203 0.0586,0.117188 0.0351,0.02344 0.0703,0.04687 0.14062,0.04687 0.082,0 0.19922,-0.04687 0.33984,-0.128907 0.14063,-0.09375 0.33985,-0.28125 0.57422,-0.574218 0.2461,-0.304688 0.4336,-0.585938 0.59766,-0.84375 0.15234,-0.246094 0.31641,-0.667969 0.48047,-1.230469 l 0.10547,-0.328125 z m 5.48438,1.03125 -1.25391,4.394531 c -0.082,0.246094 -0.11718,0.433594 -0.11718,0.550781 0,0.09375 0.0351,0.175782 0.0937,0.222657 0.0703,0.04687 0.22265,0.08203 0.48046,0.105468 l -0.0469,0.140625 h -2.00391 l 0.0469,-0.140625 c 0.21094,-0.01172 0.35156,-0.02344 0.42187,-0.04687 0.11719,-0.04687 0.1875,-0.117187 0.2461,-0.199218 0.0937,-0.117188 0.17578,-0.328125 0.26953,-0.632813 l 0.90234,-3.164062 c 0.0586,-0.1875 0.082,-0.292969 0.082,-0.328125 0.0117,-0.04687 0.0234,-0.09375 0.0234,-0.152344 0,-0.08203 -0.0234,-0.152344 -0.0703,-0.199219 -0.0586,-0.05859 -0.12891,-0.08203 -0.21094,-0.08203 -0.0703,0 -0.17578,0.01172 -0.31641,0.04687 l -0.0586,-0.140625 1.32422,-0.375 z m 3.43652,5.414062 h -2.64844 v -0.140625 c 1.34766,-1.183593 2.22657,-2.109375 2.66016,-2.777343 0.19922,-0.304688 0.30469,-0.632813 0.30469,-0.972657 0,-0.269531 -0.082,-0.492187 -0.25781,-0.667968 -0.16407,-0.164063 -0.375,-0.246094 -0.64454,-0.246094 -0.36328,0 -0.66796,0.175781 -0.90234,0.527344 l -0.14062,-0.07031 c 0.14062,-0.339844 0.32812,-0.597656 0.58593,-0.785156 0.25782,-0.1875 0.52735,-0.28125 0.83203,-0.28125 0.32813,0 0.60938,0.117187 0.84375,0.351562 0.23438,0.222657 0.33985,0.503907 0.33985,0.832032 0,0.234375 -0.0352,0.445312 -0.11719,0.644531 -0.12891,0.304687 -0.36328,0.644531 -0.69141,1.019531 -0.51562,0.585938 -1.19531,1.242188 -2.05078,2.003906 h 1.34766 c 0.21094,0 0.38672,-0.05859 0.52734,-0.140625 0.12891,-0.09375 0.23438,-0.199218 0.29297,-0.351562 h 0.16406 z m 0,0"
       style="fill:#231f20;fill-opacity:1;fill-rule:nonzero;stroke:none"
       aria-label="u&#10;8&#10;u&#10;9&#10;u&#10;2&#10;u&#10;3&#10;u&#10;6&#10;u&#10;4&#10;u&#10;1&#10;u&#10;5&#10;u&#10;7&#10;u&#10;11&#10;u&#10;10&#10;u&#10;12"
       transform="matrix(1.3333333,0,0,1.3333333,350.392,37.46)" />
    <path
       id="path16"
       d="M 1000.81,1548.63 H 2373.29 V 692.016 H 1000.81 Z"
       style="fill:none;stroke:#231f20;stroke-width:5;stroke-linecap:butt;stroke-linejoin:miter;stroke-miterlimit:3.86371;stroke-dasharray:none;stroke-opacity:1"
       transform="matrix(0.13333333,0,0,-0.13333333,0,256)" />
    <path
       id="path17"
       d="M 2473.27,1616.05 V 782.078"
       style="fill:none;stroke:#231f20;stroke-width:5;stroke-linecap:butt;stroke-linejoin:miter;stroke-miterlimit:3.86371;stroke-dasharray:none;stroke-opacity:1"
       transform="matrix(0.13333333,0,0,-0.13333333,0,256)" />
    <path
       id="path18"
       d="M 1094.96,1616.05 H 2473.27"
       style="fill:none;stroke:#231f20;stroke-width:5;stroke-linecap:butt;stroke-linejoin:miter;stroke-miterlimit:3.86371;stroke-dasharray:none;stroke-opacity:1"
       transform="matrix(0.13333333,0,0,-0.13333333,0,256)" />
    <path
       id="path19"
       d="M 2473.27,782.078 H 1094.96"
       style="fill:none;stroke:#231f20;stroke-width:5;stroke-linecap:butt;stroke-linejoin:miter;stroke-miterlimit:3.86371;stroke-dasharray:20, 20;stroke-dashoffset:0;stroke-opacity:1"
       transform="matrix(0.13333333,0,0,-0.13333333,0,256)" />
    <path
       id="path20"
       d="M 1094.96,782.078 V 1616.05"
       style="fill:none;stroke:#231f20;stroke-width:5;stroke-linecap:butt;stroke-linejoin:miter;stroke-miterlimit:3.86371;stroke-dasharray:20, 20;stroke-dashoffset:0;stroke-opacity:1"
       transform="matrix(0.13333333,0,0,-0.13333333,0,256)" />
    <path
       id="path21"
       d="m 1094.96,782.078 -94.15,-90.062"
       style="fill:none;stroke:#231f20;stroke-width:6.046;stroke-linecap:butt;stroke-linejoin:miter;stroke-miterlimit:3.86371;stroke-dasharray:20, 20;stroke-dashoffset:0;stroke-opacity:1"
       transform="matrix(0.13333333,0,0,-0.13333333,0,256)" />
    <path
       id="path22"
       d="m 1000.81,1548.63 94.15,67.42"
       style="fill:none;stroke:#231f20;stroke-width:6.046;stroke-linecap:butt;stroke-linejoin:miter;stroke-miterlimit:3.86371;stroke-dasharray:none;stroke-opacity:1"
       transform="matrix(0.13333333,0,0,-0.13333333,0,256)" />
    <path
       id="path23"
       d="m 2373.29,1548.63 99.98,67.42"
       style="fill:none;stroke:#231f20;stroke-width:6.046;stroke-linecap:butt;stroke-linejoin:miter;stroke-miterlimit:3.86371;stroke-dasharray:none;stroke-opacity:1"
       transform="matrix(0.13333333,0,0,-0.13333333,0,256)" />
    <path
       id="path24"
       d="m 2473.27,782.078 -99.98,-90.062"
       style="fill:none;stroke:#231f20;stroke-width:6.046;stroke-linecap:butt;stroke-linejoin:miter;stroke-miterlimit:3.86371;stroke-dasharray:none;stroke-opacity:1"
       transform="matrix(0.13333333,0,0,-0.13333333,0,256)" />
    <path
       id="path25"
       d="m 1055.02,1807.54 v -10.78"
       style="fill:none;stroke:#231f20;stroke-width:2.5;stroke-linecap:butt;stroke-linejoin:miter;stroke-miterlimit:3.86371;stroke-dasharray:none;stroke-opacity:1"
       transform="matrix(0.13333333,0,0,-0.13333333,0,256)" />
    <path
       id="path26"
       d="m 1055.02,1805.04 h -15 l 15,37.5 15,-37.5 h -15"
       style="fill:#231f20;fill-opacity:1;fill-rule:evenodd;stroke:none"
       transform="matrix(0.13333333,0,0,-0.13333333,0,256)" />
    <path
       id="path27"
       d="m 1265.9,1583.97 h 13.14"
       style="fill:none;stroke:#231f20;stroke-width:2.5;stroke-linecap:butt;stroke-linejoin:miter;stroke-miterlimit:3.86371;stroke-dasharray:none;stroke-opacity:1"
       transform="matrix(0.13333333,0,0,-0.13333333,0,256)" />
    <path
       id="path28"
       d="m 1276.54,1583.97 v 15 l 37.5,-15 -37.5,-15 v 15"
       style="fill:#231f20;fill-opacity:1;fill-rule:evenodd;stroke:none"
       transform="matrix(0.13333333,0,0,-0.13333333,0,256)" />
    <path
       id="path29"
       d="M 1054.21,1584.18 919.73,1479.47"
       style="fill:none;stroke:#231f20;stroke-width:2.5;stroke-linecap:butt;stroke-linejoin:miter;stroke-miterlimit:3.86371;stroke-dasharray:none;stroke-opacity:1"
       transform="matrix(0.13333333,0,0,-0.13333333,0,256)" />
    <path
       id="path30"
       d="m 921.699,1481.01 9.239,-11.82 -38.79,-11.26 20.317,34.9 9.234,-11.82"
       style="fill:#231f20;fill-opacity:1;fill-rule:evenodd;stroke:none"
       transform="matrix(0.13333333,0,0,-0.13333333,0,256)" />
    <path
       id="path31"
       d="M 1054.4,1842.63 V 1584.06"
       style="fill:none;stroke:#231f20;stroke-width:2.5;stroke-linecap:butt;stroke-linejoin:miter;stroke-miterlimit:3.86371;stroke-dasharray:none;stroke-opacity:1"
       transform="matrix(0.13333333,0,0,-0.13333333,0,256)" />
    <path
       id="path32"
       d="m 1054.4,1840.13 h -15 l 15,37.5 15,-37.5 h -15"
       style="fill:#231f20;fill-opacity:1;fill-rule:evenodd;stroke:none"
       transform="matrix(0.13333333,0,0,-0.13333333,0,256)" />
    <path
       id="path33"
       d="m 1054.4,1584.06 h 258.57"
       style="fill:none;stroke:#231f20;stroke-width:2.5;stroke-linecap:butt;stroke-linejoin:miter;stroke-miterlimit:3.86371;stroke-dasharray:none;stroke-opacity:1"
       transform="matrix(0.13333333,0,0,-0.13333333,0,256)" />
    <path
       id="path34"
       d="m 1310.47,1584.06 v 15 l 37.5,-15 -37.5,-15 v 15"
       style="fill:#231f20;fill-opacity:1;fill-rule:evenodd;stroke:none"
       transform="matrix(0.13333333,0,0,-0.13333333,0,256)" />
    <path
       id="path35"
       d="M 1054.85,960.984 V 950.203"
       style="fill:none;stroke:#231f20;stroke-width:2.5;stroke-linecap:butt;stroke-linejoin:miter;stroke-miterlimit:3.86371;stroke-dasharray:none;stroke-opacity:1"
       transform="matrix(0.13333333,0,0,-0.13333333,0,256)" />
    <path
       id="path36"
       d="m 1054.85,958.484 h -15 l 15,37.5 15,-37.5 h -15"
       style="fill:#231f20;fill-opacity:1;fill-rule:evenodd;stroke:none"
       transform="matrix(0.13333333,0,0,-0.13333333,0,256)" />
    <path
       id="path37"
       d="m 1265.73,737.418 h 13.14"
       style="fill:none;stroke:#231f20;stroke-width:2.5;stroke-linecap:butt;stroke-linejoin:miter;stroke-miterlimit:3.86371;stroke-dasharray:none;stroke-opacity:1"
       transform="matrix(0.13333333,0,0,-0.13333333,0,256)" />
    <path
       id="path38"
       d="m 1276.37,737.418 v 15 l 37.5,-15 -37.5,-15 v 15"
       style="fill:#231f20;fill-opacity:1;fill-rule:evenodd;stroke:none"
       transform="matrix(0.13333333,0,0,-0.13333333,0,256)" />
    <path
       id="path39"
       d="M 1054.04,737.625 919.563,632.918"
       style="fill:none;stroke:#231f20;stroke-width:2.5;stroke-linecap:butt;stroke-linejoin:miter;stroke-miterlimit:3.86371;stroke-dasharray:none;stroke-opacity:1"
       transform="matrix(0.13333333,0,0,-0.13333333,0,256)" />
    <path
       id="path40"
       d="m 921.531,634.457 9.235,-11.82 -38.786,-11.266 20.317,34.906 9.234,-11.82"
       style="fill:#231f20;fill-opacity:1;fill-rule:evenodd;stroke:none"
       transform="matrix(0.13333333,0,0,-0.13333333,0,256)" />
    <path
       id="path41"
       d="M 1054.24,996.074 V 737.504"
       style="fill:none;stroke:#231f20;stroke-width:2.5;stroke-linecap:butt;stroke-linejoin:miter;stroke-miterlimit:3.86371;stroke-dasharray:none;stroke-opacity:1"
       transform="matrix(0.13333333,0,0,-0.13333333,0,256)" />
    <path
       id="path42"
       d="m 1054.24,993.574 h -15 l 15,37.496 15,-37.496 h -15"
       style="fill:#231f20;fill-opacity:1;fill-rule:evenodd;stroke:none"
       transform="matrix(0.13333333,0,0,-0.13333333,0,256)" />
    <path
       id="path43"
       d="M 1054.24,737.504 H 1312.8"
       style="fill:none;stroke:#231f20;stroke-width:2.5;stroke-linecap:butt;stroke-linejoin:miter;stroke-miterlimit:3.86371;stroke-dasharray:none;stroke-opacity:1"
       transform="matrix(0.13333333,0,0,-0.13333333,0,256)" />
    <path
       id="path44"
       d="m 1310.3,737.504 v 15 l 37.5,-15 -37.5,-15 v 15"
       style="fill:#231f20;fill-opacity:1;fill-rule:evenodd;stroke:none"
       transform="matrix(0.13333333,0,0,-0.13333333,0,256)" />
    <path
       id="path45"
       d="M 2406.84,1792.08 V 1781.3"
       style="fill:none;stroke:#231f20;stroke-width:2.5;stroke-linecap:butt;stroke-linejoin:miter;stroke-miterlimit:3.86371;stroke-dasharray:none;stroke-opacity:1"
       transform="matrix(0.13333333,0,0,-0.13333333,0,256)" />
    <path
       id="path46"
       d="m 2406.84,1789.58 h -15 l 15,37.5 15,-37.5 h -15"
       style="fill:#231f20;fill-opacity:1;fill-rule:evenodd;stroke:none"
       transform="matrix(0.13333333,0,0,-0.13333333,0,256)" />
    <path
       id="path47"
       d="m 2617.72,1568.52 h 13.13"
       style="fill:none;stroke:#231f20;stroke-width:2.5;stroke-linecap:butt;stroke-linejoin:miter;stroke-miterlimit:3.86371;stroke-dasharray:none;stroke-opacity:1"
       transform="matrix(0.13333333,0,0,-0.13333333,0,256)" />
    <path
       id="path48"
       d="m 2628.35,1568.52 v 15 l 37.5,-15 -37.5,-15 v 15"
       style="fill:#231f20;fill-opacity:1;fill-rule:evenodd;stroke:none"
       transform="matrix(0.13333333,0,0,-0.13333333,0,256)" />
    <path
       id="path49"
       d="m 2406.02,1568.72 -134.47,-104.7"
       style="fill:none;stroke:#231f20;stroke-width:2.5;stroke-linecap:butt;stroke-linejoin:miter;stroke-miterlimit:3.86371;stroke-dasharray:none;stroke-opacity:1"
       transform="matrix(0.13333333,0,0,-0.13333333,0,256)" />
    <path
       id="path50"
       d="m 2273.52,1465.55 9.23,-11.82 -38.78,-11.26 20.31,34.91 9.24,-11.83"
       style="fill:#231f20;fill-opacity:1;fill-rule:evenodd;stroke:none"
       transform="matrix(0.13333333,0,0,-0.13333333,0,256)" />
    <path
       id="path51"
       d="M 2406.22,1827.17 V 1568.6"
       style="fill:none;stroke:#231f20;stroke-width:2.5;stroke-linecap:butt;stroke-linejoin:miter;stroke-miterlimit:3.86371;stroke-dasharray:none;stroke-opacity:1"
       transform="matrix(0.13333333,0,0,-0.13333333,0,256)" />
    <path
       id="path52"
       d="m 2406.22,1824.67 h -15 l 15,37.5 15,-37.5 h -15"
       style="fill:#231f20;fill-opacity:1;fill-rule:evenodd;stroke:none"
       transform="matrix(0.13333333,0,0,-0.13333333,0,256)" />
    <path
       id="path53"
       d="m 2406.22,1568.6 h 258.57"
       style="fill:none;stroke:#231f20;stroke-width:2.5;stroke-linecap:butt;stroke-linejoin:miter;stroke-miterlimit:3.86371;stroke-dasharray:none;stroke-opacity:1"
       transform="matrix(0.13333333,0,0,-0.13333333,0,256)" />
    <path
       id="path54"
       d="m 2662.29,1568.6 v 15 l 37.5,-15 -37.5,-15 v 15"
       style="fill:#231f20;fill-opacity:1;fill-rule:evenodd;stroke:none"
       transform="matrix(0.13333333,0,0,-0.13333333,0,256)" />
    <path
       id="path55"
       d="M 2418.01,956.867 V 946.086"
       style="fill:none;stroke:#231f20;stroke-width:2.5;stroke-linecap:butt;stroke-linejoin:miter;stroke-miterlimit:3.86371;stroke-dasharray:none;stroke-opacity:1"
       transform="matrix(0.13333333,0,0,-0.13333333,0,256)" />
    <path
       id="path56"
       d="m 2418.01,954.367 h -15 l 15,37.5 15,-37.5 h -15"
       style="fill:#231f20;fill-opacity:1;fill-rule:evenodd;stroke:none"
       transform="matrix(0.13333333,0,0,-0.13333333,0,256)" />
    <path
       id="path57"
       d="m 2628.89,733.301 h 13.13"
       style="fill:none;stroke:#231f20;stroke-width:2.5;stroke-linecap:butt;stroke-linejoin:miter;stroke-miterlimit:3.86371;stroke-dasharray:none;stroke-opacity:1"
       transform="matrix(0.13333333,0,0,-0.13333333,0,256)" />
    <path
       id="path58"
       d="m 2639.52,733.301 v 15 l 37.5,-15 -37.5,-15 v 15"
       style="fill:#231f20;fill-opacity:1;fill-rule:evenodd;stroke:none"
       transform="matrix(0.13333333,0,0,-0.13333333,0,256)" />
    <path
       id="path59"
       d="M 2417.2,733.508 2282.72,628.801"
       style="fill:none;stroke:#231f20;stroke-width:2.5;stroke-linecap:butt;stroke-linejoin:miter;stroke-miterlimit:3.86371;stroke-dasharray:none;stroke-opacity:1"
       transform="matrix(0.13333333,0,0,-0.13333333,0,256)" />
    <path
       id="path60"
       d="m 2284.69,630.34 9.24,-11.82 -38.79,-11.266 20.31,34.906 9.24,-11.82"
       style="fill:#231f20;fill-opacity:1;fill-rule:evenodd;stroke:none"
       transform="matrix(0.13333333,0,0,-0.13333333,0,256)" />
    <path
       id="path61"
       d="M 2417.39,991.957 V 733.391"
       style="fill:none;stroke:#231f20;stroke-width:2.5;stroke-linecap:butt;stroke-linejoin:miter;stroke-miterlimit:3.86371;stroke-dasharray:none;stroke-opacity:1"
       transform="matrix(0.13333333,0,0,-0.13333333,0,256)" />
    <path
       id="path62"
       d="m 2417.39,989.457 h -15 l 15,37.503 15,-37.503 h -15"
       style="fill:#231f20;fill-opacity:1;fill-rule:evenodd;stroke:none"
       transform="matrix(0.13333333,0,0,-0.13333333,0,256)" />
    <path
       id="path63"
       d="m 2417.39,733.391 h 258.57"
       style="fill:none;stroke:#231f20;stroke-width:2.5;stroke-linecap:butt;stroke-linejoin:miter;stroke-miterlimit:3.86371;stroke-dasharray:none;stroke-opacity:1"
       transform="matrix(0.13333333,0,0,-0.13333333,0,256)" />
    <path
       id="path64"
       d="m 2673.46,733.391 v 15 l 37.5,-15 -37.5,-15 v 15"
       style="fill:#231f20;fill-opacity:1;fill-rule:evenodd;stroke:none"
       transform="matrix(0.13333333,0,0,-0.13333333,0,256)" />
  </g>
</svg>
