<?xml version="1.0" encoding="UTF-8" standalone="no"?>
<!-- Created with Inkscape (http://www.inkscape.org/) -->

<svg
   version="1.1"
   id="svg1"
   width="261.33334"
   height="190.66667"
   viewBox="0 0 261.33334 190.66667"
   sodipodi:docname="PLATR.EPS"
   xmlns:inkscape="http://www.inkscape.org/namespaces/inkscape"
   xmlns:sodipodi="http://sodipodi.sourceforge.net/DTD/sodipodi-0.dtd"
   xmlns="http://www.w3.org/2000/svg"
   xmlns:svg="http://www.w3.org/2000/svg">
  <defs
     id="defs1" />
  <sodipodi:namedview
     id="namedview1"
     pagecolor="#ffffff"
     bordercolor="#000000"
     borderopacity="0.25"
     inkscape:showpageshadow="2"
     inkscape:pageopacity="0.0"
     inkscape:pagecheckerboard="0"
     inkscape:deskcolor="#d1d1d1">
    <inkscape:page
       x="0"
       y="0"
       inkscape:label="1"
       id="page1"
       width="261.33334"
       height="190.66667"
       margin="0"
       bleed="0" />
  </sodipodi:namedview>
  <g
     id="g1"
     inkscape:groupmode="layer"
     inkscape:label="1">
    <path
       id="path1"
       d="m 3.8563906,-3.4446094 -0.7148437,2.3671875 c -0.09375,0.35156252 -0.1523438,0.57421877 -0.1523438,0.66796877 0,0.046875 0,0.0703125 0.011719,0.09375 0.011719,0.0234375 0.035156,0.0234375 0.058594,0.0234375 0.035156,0 0.070312,-0.0117188 0.1054688,-0.046875 0.046875,-0.0351563 0.1523437,-0.19921875 0.3164062,-0.48046875 l 0.1171875,0.09375 c -0.1757812,0.3046875 -0.3632812,0.5390625 -0.5507812,0.6796875 -0.1289063,0.08203125 -0.2578125,0.140625 -0.3632813,0.140625 -0.09375,0 -0.1640625,-0.03515625 -0.2226562,-0.093749995 -0.046875,-0.058593755 -0.070312,-0.128906255 -0.070312,-0.210937505 0,-0.09375 0.011719,-0.2109375 0.046875,-0.3515625 0.046875,-0.1875 0.1757812,-0.59765622 0.375,-1.24218752 -0.46875,0.7265625 -0.8554688,1.21875002 -1.1601563,1.48828127 -0.3046875,0.26953125 -0.5976562,0.41015625 -0.85546872,0.41015625 -0.12890625,0 -0.234375,-0.046875 -0.3046875,-0.12890625 -0.09375,-0.08203125 -0.12890625,-0.1875 -0.12890625,-0.3046875 0,-0.19921875 0.0585938,-0.50390625 0.19921875,-0.91406247 l 0.41015625,-1.2070313 c 0.10546877,-0.28125 0.15234377,-0.4570312 0.15234377,-0.5273437 0,-0.035156 -0.023437,-0.058594 -0.046875,-0.082031 -0.023437,-0.023437 -0.058594,-0.035156 -0.0820313,-0.035156 -0.0703125,0 -0.12890625,0.011719 -0.19921875,0.058594 -0.0585938,0.035156 -0.2109375,0.1757813 -0.4453125,0.4335938 l -0.1171875,-0.082031 c 0.2109375,-0.3046875 0.43359375,-0.5273437 0.66796875,-0.6796875 0.1875,-0.1054687 0.3515625,-0.1640625 0.5039063,-0.1640625 0.1054687,0 0.1992187,0.046875 0.2578125,0.1171875 0.070312,0.070312 0.09375,0.1640625 0.09375,0.28125 0,0.140625 -0.058594,0.3867188 -0.1757813,0.7382813 l -0.4335937,1.2539062 c -0.1054688,0.33984377 -0.1757813,0.55078127 -0.1757813,0.64453127 0,0.046875 0.0234375,0.0820313 0.0585938,0.1171875 0.035156,0.0234375 0.070312,0.046875 0.140625,0.046875 0.082031,0 0.1992187,-0.046875 0.3398437,-0.12890625 0.140625,-0.09375 0.3398438,-0.28125 0.5742188,-0.57421872 0.2460937,-0.3046875 0.4335937,-0.5859375 0.5976562,-0.84375 0.1523438,-0.2460938 0.3164063,-0.6679688 0.4804688,-1.2304688 l 0.1054687,-0.328125 z m 4.8398438,3.48046877 c 0.2578125,0.26953125 0.4453125,0.515625 0.5507812,0.75 0.1289063,0.24609373 0.1757813,0.48046873 0.1757813,0.71484373 0,0.421875 -0.1523438,0.796875 -0.4804688,1.1132813 -0.328125,0.3164062 -0.7265625,0.4804687 -1.1953125,0.4804687 -0.421875,0 -0.7734375,-0.1289062 -1.0429687,-0.3867187 -0.2578125,-0.2695313 -0.3984375,-0.5625 -0.3984375,-0.9023438 0,-0.3046875 0.1171875,-0.5859375 0.328125,-0.87890623 0.2109375,-0.28125 0.6210937,-0.55078125 1.21875,-0.8203125 -0.2226563,-0.26953125 -0.375,-0.515625 -0.46875,-0.703125 -0.082031,-0.17578125 -0.1171875,-0.36328125 -0.1171875,-0.55078127 0,-0.3398437 0.1289062,-0.6328125 0.3867187,-0.890625 0.2578125,-0.2460937 0.5859375,-0.375 0.984375,-0.375 0.375,0 0.6796875,0.1054688 0.9140625,0.328125 0.2460938,0.2109375 0.3632813,0.46875 0.3632813,0.75 0,0.2929688 -0.09375,0.55078127 -0.2929688,0.78515627 -0.1875,0.234375 -0.4921875,0.43359375 -0.9257812,0.5859375 z M 8.5438906,-0.13992188 c 0.28125,-0.09375 0.5039063,-0.2578125 0.65625,-0.46875 0.1523438,-0.2109375 0.234375,-0.46875002 0.234375,-0.75000002 0,-0.2695312 -0.070312,-0.4804687 -0.2226562,-0.6328125 -0.1523438,-0.140625 -0.3398438,-0.2226562 -0.5976563,-0.2226562 -0.2226562,0 -0.4101562,0.070312 -0.5507812,0.2109375 -0.1523438,0.1523437 -0.2226563,0.3398437 -0.2226563,0.5742187 0,0.1757813 0.046875,0.328125 0.1171875,0.48046877 0.1054688,0.22265625 0.3046875,0.4921875 0.5859375,0.80859375 z M 8.0048281,0.27023437 C 7.6181094,0.43429687 7.3251406,0.66867187 7.1259219,0.97335937 6.9267031,1.2780469 6.8212344,1.6061719 6.8212344,1.9577344 c 0,0.28125 0.09375,0.515625 0.2695312,0.6914062 0.1757813,0.1640625 0.4101563,0.2578125 0.6914063,0.2578125 0.3046875,0 0.5507812,-0.1054687 0.7617187,-0.3164062 0.1992188,-0.2109375 0.2929688,-0.4570313 0.2929688,-0.7382813 0,-0.2226562 -0.046875,-0.4570312 -0.1757813,-0.6914062 C 8.5438906,0.91476562 8.3212344,0.62179687 8.0048281,0.27023437 Z M -9.309625,-19.241484 l -0.714844,2.367187 c -0.09375,0.351563 -0.152343,0.574219 -0.152343,0.667969 0,0.04687 0,0.07031 0.01172,0.09375 0.01172,0.02344 0.03516,0.02344 0.05859,0.02344 0.03516,0 0.07031,-0.01172 0.105469,-0.04687 0.046875,-0.03516 0.1523435,-0.199218 0.316406,-0.480468 l 0.1171875,0.09375 c -0.1757812,0.304687 -0.3632812,0.539062 -0.5507815,0.679687 -0.128906,0.08203 -0.257812,0.140625 -0.363281,0.140625 -0.09375,0 -0.164062,-0.03516 -0.222656,-0.09375 -0.04687,-0.05859 -0.07031,-0.128906 -0.07031,-0.210937 0,-0.09375 0.01172,-0.210938 0.04687,-0.351563 0.04687,-0.1875 0.175782,-0.597656 0.375,-1.242187 -0.46875,0.726562 -0.855468,1.21875 -1.160156,1.488281 -0.304687,0.269531 -0.597656,0.410156 -0.855469,0.410156 -0.128906,0 -0.234375,-0.04687 -0.304687,-0.128906 -0.09375,-0.08203 -0.128906,-0.1875 -0.128906,-0.304688 0,-0.199218 0.05859,-0.503906 0.199218,-0.914062 l 0.410157,-1.207031 c 0.105468,-0.28125 0.152343,-0.457032 0.152343,-0.527344 0,-0.03516 -0.02344,-0.05859 -0.04687,-0.08203 -0.02344,-0.02344 -0.05859,-0.03516 -0.08203,-0.03516 -0.07031,0 -0.128906,0.01172 -0.199219,0.05859 -0.05859,0.03516 -0.210937,0.175781 -0.445312,0.433594 l -0.117188,-0.08203 c 0.210938,-0.304688 0.433594,-0.527344 0.667969,-0.679688 0.1875,-0.105469 0.351563,-0.164062 0.503906,-0.164062 0.105469,0 0.199219,0.04687 0.257813,0.117187 0.07031,0.07031 0.09375,0.164063 0.09375,0.28125 0,0.140625 -0.05859,0.386719 -0.175781,0.738281 l -0.433594,1.253907 c -0.105469,0.339843 -0.175781,0.550781 -0.175781,0.644531 0,0.04687 0.02344,0.08203 0.05859,0.117187 0.03516,0.02344 0.07031,0.04687 0.140625,0.04687 0.08203,0 0.199219,-0.04687 0.339844,-0.128906 0.140625,-0.09375 0.339844,-0.28125 0.574219,-0.574219 0.246094,-0.304687 0.433594,-0.585937 0.597656,-0.84375 0.152344,-0.246093 0.316406,-0.667968 0.480469,-1.230468 l 0.1054685,-0.328125 z m 2.3789063,6.539062 v -0.128906 c 0.2695312,-0.05859 0.5039062,-0.140625 0.703125,-0.257813 0.3515625,-0.1875 0.6679687,-0.421875 0.9492187,-0.714843 0.2695313,-0.28125 0.5273438,-0.609375 0.75,-0.984375 -0.1640625,0.08203 -0.2929687,0.128906 -0.375,0.152343 -0.09375,0.02344 -0.1875,0.03516 -0.3046875,0.03516 -0.3867187,0 -0.6914062,-0.140625 -0.9023437,-0.410157 -0.2109375,-0.269531 -0.3046875,-0.574218 -0.3046875,-0.925781 0,-0.632812 0.1992187,-1.160156 0.5976562,-1.605469 0.4101563,-0.445312 0.8320313,-0.667968 1.2890625,-0.667968 0.421875,0 0.7382813,0.152343 0.9609375,0.46875 0.2226563,0.316406 0.328125,0.679687 0.328125,1.089843 0,0.539063 -0.1171875,1.054688 -0.3632812,1.570313 -0.2460938,0.515625 -0.5742188,0.960937 -0.9960938,1.335937 -0.421875,0.363282 -0.8671875,0.644532 -1.3242187,0.820313 -0.2695313,0.105469 -0.609375,0.175781 -1.0078125,0.222656 z m 2.5898437,-2.402344 c 0.375,-0.75 0.5507813,-1.417968 0.5507813,-1.992187 0,-0.292969 -0.070312,-0.503906 -0.2109375,-0.667969 -0.140625,-0.152344 -0.2929688,-0.234375 -0.4804688,-0.234375 -0.3046875,0 -0.5976562,0.210938 -0.84375,0.644531 -0.2578125,0.433594 -0.3867187,0.9375 -0.3867187,1.535157 0,0.304687 0.070312,0.539062 0.2226562,0.703125 0.140625,0.164062 0.328125,0.234375 0.5390625,0.234375 0.1054688,0 0.1992188,-0.01172 0.28125,-0.04687 0.082031,-0.02344 0.1875,-0.08203 0.328125,-0.175782 z m -125.783205,92.865235 -0.71484,2.367187 c -0.0937,0.351563 -0.15235,0.574219 -0.15235,0.667969 0,0.04687 0,0.07031 0.0117,0.09375 0.0117,0.02344 0.0352,0.02344 0.0586,0.02344 0.0352,0 0.0703,-0.01172 0.10547,-0.04687 0.0469,-0.03516 0.15234,-0.199218 0.3164,-0.480468 l 0.11719,0.09375 c -0.17578,0.304687 -0.36328,0.539062 -0.55078,0.679687 -0.12891,0.08203 -0.25781,0.140625 -0.36328,0.140625 -0.0937,0 -0.16407,-0.03516 -0.22266,-0.09375 -0.0469,-0.05859 -0.0703,-0.128906 -0.0703,-0.210937 0,-0.09375 0.0117,-0.210938 0.0469,-0.351563 0.0469,-0.1875 0.17578,-0.597656 0.375,-1.242187 -0.46875,0.726562 -0.85547,1.21875 -1.16015,1.488281 -0.30469,0.269531 -0.59766,0.410156 -0.85547,0.410156 -0.12891,0 -0.23438,-0.04687 -0.30469,-0.128906 -0.0937,-0.08203 -0.12891,-0.1875 -0.12891,-0.304688 0,-0.199218 0.0586,-0.503906 0.19922,-0.914062 l 0.41016,-1.207031 c 0.10547,-0.28125 0.15234,-0.457032 0.15234,-0.527344 0,-0.03516 -0.0234,-0.05859 -0.0469,-0.08203 -0.0234,-0.02344 -0.0586,-0.03516 -0.082,-0.03516 -0.0703,0 -0.12891,0.01172 -0.19922,0.05859 -0.0586,0.03516 -0.21094,0.175781 -0.44531,0.433594 l -0.11719,-0.08203 c 0.21094,-0.304688 0.43359,-0.527344 0.66797,-0.679688 0.1875,-0.105469 0.35156,-0.164062 0.5039,-0.164062 0.10547,0 0.19922,0.04687 0.25782,0.117187 0.0703,0.07031 0.0937,0.164063 0.0937,0.28125 0,0.140625 -0.0586,0.386719 -0.17579,0.738281 l -0.43359,1.253907 c -0.10547,0.339843 -0.17578,0.550781 -0.17578,0.644531 0,0.04687 0.0234,0.08203 0.0586,0.117187 0.0352,0.02344 0.0703,0.04687 0.14063,0.04687 0.082,0 0.19922,-0.04687 0.33984,-0.128906 0.14063,-0.09375 0.33985,-0.28125 0.57422,-0.574219 0.24609,-0.304687 0.43359,-0.585937 0.59766,-0.84375 0.15234,-0.246093 0.3164,-0.667968 0.48047,-1.230468 l 0.10546,-0.328125 z m 4.92188,6.445312 h -2.64844 v -0.140625 c 1.34766,-1.183594 2.22656,-2.109375 2.66016,-2.777344 0.19921,-0.304687 0.30468,-0.632812 0.30468,-0.972656 0,-0.269531 -0.082,-0.492187 -0.25781,-0.667969 -0.16406,-0.164062 -0.375,-0.246093 -0.64453,-0.246093 -0.36328,0 -0.66797,0.175781 -0.90234,0.527343 l -0.14063,-0.07031 c 0.14063,-0.339844 0.32813,-0.597656 0.58594,-0.785156 0.25781,-0.1875 0.52734,-0.28125 0.83203,-0.28125 0.32812,0 0.60937,0.117187 0.84375,0.351562 0.23437,0.222656 0.33984,0.503906 0.33984,0.832031 0,0.234375 -0.0352,0.445313 -0.11718,0.644532 -0.12891,0.304687 -0.36329,0.644531 -0.69141,1.019531 -0.51563,0.585937 -1.19531,1.242187 -2.05078,2.003906 h 1.34765 c 0.21094,0 0.38672,-0.05859 0.52735,-0.140625 0.1289,-0.09375 0.23437,-0.199219 0.29297,-0.351562 h 0.16406 z m -20.90625,-21.380859 -0.71485,2.367187 c -0.0937,0.351563 -0.15234,0.574219 -0.15234,0.667969 0,0.04687 0,0.07031 0.0117,0.09375 0.0117,0.02344 0.0352,0.02344 0.0586,0.02344 0.0352,0 0.0703,-0.01172 0.10547,-0.04687 0.0469,-0.03516 0.15234,-0.199219 0.31641,-0.480469 l 0.11718,0.09375 c -0.17578,0.304687 -0.36328,0.539062 -0.55078,0.679687 -0.1289,0.08203 -0.25781,0.140625 -0.36328,0.140625 -0.0937,0 -0.16406,-0.03516 -0.22265,-0.09375 -0.0469,-0.05859 -0.0703,-0.128906 -0.0703,-0.210937 0,-0.09375 0.0117,-0.210938 0.0469,-0.351563 0.0469,-0.1875 0.17578,-0.597656 0.375,-1.242187 -0.46875,0.726562 -0.85547,1.21875 -1.16016,1.488281 -0.30469,0.269531 -0.59765,0.410156 -0.85547,0.410156 -0.1289,0 -0.23437,-0.04687 -0.30468,-0.128906 -0.0937,-0.08203 -0.12891,-0.1875 -0.12891,-0.304687 0,-0.199219 0.0586,-0.503907 0.19922,-0.914063 l 0.41015,-1.207031 c 0.10547,-0.28125 0.15235,-0.457031 0.15235,-0.527344 0,-0.03516 -0.0234,-0.05859 -0.0469,-0.08203 -0.0234,-0.02344 -0.0586,-0.03516 -0.082,-0.03516 -0.0703,0 -0.1289,0.01172 -0.19922,0.05859 -0.0586,0.03516 -0.21093,0.175782 -0.44531,0.433594 l -0.11719,-0.08203 c 0.21094,-0.304688 0.4336,-0.527344 0.66797,-0.679688 0.1875,-0.105468 0.35156,-0.164062 0.50391,-0.164062 0.10547,0 0.19922,0.04687 0.25781,0.117187 0.0703,0.07031 0.0937,0.164063 0.0937,0.28125 0,0.140625 -0.0586,0.386719 -0.17578,0.738282 l -0.43359,1.253906 c -0.10547,0.339844 -0.17579,0.550781 -0.17579,0.644531 0,0.04687 0.0234,0.08203 0.0586,0.117188 0.0352,0.02344 0.0703,0.04687 0.14062,0.04687 0.082,0 0.19922,-0.04687 0.33985,-0.128907 0.14062,-0.09375 0.33984,-0.28125 0.57422,-0.574218 0.24609,-0.304688 0.43359,-0.585938 0.59765,-0.84375 0.15235,-0.246094 0.31641,-0.667969 0.48047,-1.230469 l 0.10547,-0.328125 z m 3.36328,3.550781 v -0.117187 c 0.63281,-0.09375 1.10156,-0.28125 1.41797,-0.5625 0.22265,-0.199219 0.32812,-0.433594 0.32812,-0.703125 0,-0.210938 -0.0586,-0.386719 -0.1875,-0.515625 -0.14062,-0.140625 -0.29297,-0.199219 -0.46875,-0.199219 -0.30469,0 -0.55078,0.175781 -0.78515,0.539062 l -0.14063,-0.04687 c 0.14063,-0.304687 0.31641,-0.527343 0.52734,-0.679687 0.21094,-0.152344 0.44532,-0.234375 0.69141,-0.234375 0.31641,0 0.5625,0.09375 0.73828,0.28125 0.19922,0.175781 0.29297,0.410156 0.29297,0.691406 0,0.234375 -0.082,0.46875 -0.25781,0.691406 -0.1875,0.222657 -0.49219,0.421875 -0.9375,0.597657 0.28125,0.105468 0.48047,0.269531 0.62109,0.480468 0.14063,0.210938 0.21094,0.457032 0.21094,0.761719 0,0.316406 -0.10547,0.644531 -0.28125,0.972656 -0.19922,0.328125 -0.44531,0.574219 -0.77344,0.761719 -0.32812,0.175781 -0.67969,0.269531 -1.04297,0.269531 -0.32812,0 -0.57422,-0.05859 -0.73828,-0.175781 -0.11719,-0.08203 -0.16406,-0.175781 -0.16406,-0.28125 0,-0.08203 0.0234,-0.164062 0.0937,-0.234375 0.0703,-0.05859 0.15234,-0.09375 0.24609,-0.09375 0.0703,0 0.14063,0.01172 0.19922,0.03516 0.0469,0.01172 0.14063,0.05859 0.31641,0.164063 0.15234,0.08203 0.28125,0.152344 0.375,0.175781 0.0937,0.02344 0.1875,0.04687 0.28125,0.04687 0.23437,0 0.43359,-0.140625 0.57422,-0.410156 0.15234,-0.269531 0.23437,-0.5625 0.23437,-0.878906 0,-0.246094 -0.0469,-0.46875 -0.15234,-0.65625 -0.10547,-0.199219 -0.25781,-0.351563 -0.48047,-0.46875 -0.22266,-0.128907 -0.46875,-0.199219 -0.73828,-0.210938 z M -8.9170469,63.03 -9.6318906,65.397187 c -0.09375,0.351563 -0.1523438,0.574219 -0.1523438,0.667969 0,0.04687 0,0.07031 0.011719,0.09375 0.011719,0.02344 0.035156,0.02344 0.058594,0.02344 0.035156,0 0.070312,-0.01172 0.1054688,-0.04687 0.046875,-0.03516 0.1523437,-0.199219 0.3164062,-0.480469 l 0.1171875,0.09375 c -0.1757812,0.304687 -0.3632812,0.539062 -0.5507812,0.679687 -0.1289063,0.08203 -0.2578125,0.140625 -0.3632819,0.140625 -0.09375,0 -0.164062,-0.03516 -0.222656,-0.09375 -0.04687,-0.05859 -0.07031,-0.128906 -0.07031,-0.210937 0,-0.09375 0.01172,-0.210938 0.04687,-0.351563 0.04687,-0.1875 0.175782,-0.597656 0.3750009,-1.242187 -0.4687509,0.726562 -0.8554689,1.21875 -1.1601569,1.488281 -0.304687,0.269531 -0.597656,0.410156 -0.855469,0.410156 -0.128906,0 -0.234375,-0.04687 -0.304687,-0.128906 -0.09375,-0.08203 -0.128906,-0.1875 -0.128906,-0.304687 0,-0.199219 0.05859,-0.503907 0.199218,-0.914063 l 0.410157,-1.207031 c 0.105468,-0.28125 0.152343,-0.457031 0.152343,-0.527344 0,-0.03516 -0.02344,-0.05859 -0.04687,-0.08203 -0.02344,-0.02344 -0.05859,-0.03516 -0.08203,-0.03516 -0.07031,0 -0.128906,0.01172 -0.199219,0.05859 -0.05859,0.03516 -0.210937,0.175782 -0.445312,0.433594 L -12.538141,63.78 c 0.210938,-0.304688 0.433594,-0.527344 0.667969,-0.679688 0.1875,-0.105468 0.351563,-0.164062 0.503906,-0.164062 0.105469,0 0.199219,0.04687 0.257813,0.117187 0.07031,0.07031 0.09375,0.164063 0.09375,0.28125 0,0.140625 -0.05859,0.386719 -0.175781,0.738282 l -0.433594,1.253906 c -0.105469,0.339844 -0.175781,0.550781 -0.175781,0.644531 0,0.04687 0.02344,0.08203 0.05859,0.117188 0.03516,0.02344 0.07031,0.04687 0.140625,0.04687 0.08203,0 0.199219,-0.04687 0.339844,-0.128907 0.140625,-0.09375 0.339844,-0.28125 0.574219,-0.574218 0.246094,-0.304688 0.433594,-0.585938 0.597656,-0.84375 0.1523439,-0.246094 0.3164064,-0.667969 0.4804689,-1.230469 L -9.5029844,63.03 Z m 6.3515625,1.03125 v 0.152344 c -0.4570312,0.105468 -0.890625,0.328125 -1.3007812,0.65625 -0.421875,0.339843 -0.7851563,0.773437 -1.1015625,1.289062 0.28125,-0.117187 0.5039062,-0.175781 0.6796875,-0.175781 0.3398437,0 0.6210937,0.117187 0.8554687,0.363281 0.234375,0.234375 0.3515625,0.5625 0.3515625,0.972656 0,0.609375 -0.1992187,1.148438 -0.5976562,1.59375 -0.4101563,0.433594 -0.8320313,0.65625 -1.3007813,0.65625 -0.421875,0 -0.75,-0.152343 -0.9609375,-0.46875 -0.2109375,-0.316406 -0.328125,-0.667968 -0.328125,-1.078125 0,-0.539062 0.1171875,-1.066406 0.3632813,-1.59375 0.2578125,-0.503906 0.5859375,-0.949218 1.0195312,-1.335937 0.421875,-0.363281 0.8554688,-0.644531 1.3125,-0.820313 0.2695313,-0.105468 0.5976563,-0.164062 1.0078125,-0.210937 z m -2.5898437,2.425781 c -0.375,0.796875 -0.5625,1.464844 -0.5625,1.992188 0,0.28125 0.070312,0.503906 0.2109375,0.65625 0.140625,0.164062 0.3046875,0.246093 0.4921875,0.246093 0.3046875,0 0.5742187,-0.222656 0.8320312,-0.65625 0.2695313,-0.433593 0.3984375,-0.9375 0.3984375,-1.511718 0,-0.304688 -0.070312,-0.539063 -0.2226562,-0.703125 -0.1523438,-0.175782 -0.3398438,-0.257813 -0.5507813,-0.257813 -0.1054687,0 -0.1875,0.02344 -0.2695312,0.05859 -0.082031,0.02344 -0.1875,0.08203 -0.328125,0.175781 z m -21.2167969,39.506839 -0.714844,2.36718 c -0.09375,0.35157 -0.152343,0.57422 -0.152343,0.66797 0,0.0469 0,0.0703 0.01172,0.0937 0.01172,0.0234 0.03516,0.0234 0.05859,0.0234 0.03516,0 0.07031,-0.0117 0.105469,-0.0469 0.04687,-0.0352 0.152344,-0.19922 0.316406,-0.48047 l 0.117188,0.0937 c -0.175782,0.30468 -0.363282,0.53906 -0.550782,0.67968 -0.128906,0.082 -0.257812,0.14063 -0.363281,0.14063 -0.09375,0 -0.164062,-0.0352 -0.222656,-0.0937 -0.04687,-0.0586 -0.07031,-0.12891 -0.07031,-0.21094 0,-0.0937 0.01172,-0.21094 0.04687,-0.35156 0.04687,-0.1875 0.175782,-0.59766 0.375,-1.24219 -0.46875,0.72656 -0.855468,1.21875 -1.160156,1.48828 -0.304687,0.26953 -0.597656,0.41016 -0.855469,0.41016 -0.128906,0 -0.234375,-0.0469 -0.304687,-0.12891 -0.09375,-0.082 -0.128906,-0.1875 -0.128906,-0.30468 0,-0.19922 0.05859,-0.50391 0.199218,-0.91407 l 0.410157,-1.20703 c 0.105468,-0.28125 0.152343,-0.45703 0.152343,-0.52734 0,-0.0352 -0.02344,-0.0586 -0.04687,-0.082 -0.02344,-0.0234 -0.05859,-0.0352 -0.08203,-0.0352 -0.07031,0 -0.128906,0.0117 -0.199219,0.0586 -0.05859,0.0352 -0.210937,0.17579 -0.445312,0.4336 l -0.117188,-0.082 c 0.210938,-0.30469 0.433594,-0.52735 0.667969,-0.67969 0.1875,-0.10547 0.351563,-0.16406 0.503906,-0.16406 0.105469,0 0.199219,0.0469 0.257813,0.11718 0.07031,0.0703 0.09375,0.16407 0.09375,0.28125 0,0.14063 -0.05859,0.38672 -0.175781,0.73829 l -0.433594,1.2539 c -0.105469,0.33985 -0.175781,0.55078 -0.175781,0.64453 0,0.0469 0.02344,0.082 0.05859,0.11719 0.03516,0.0234 0.07031,0.0469 0.140625,0.0469 0.08203,0 0.199219,-0.0469 0.339844,-0.12891 0.140625,-0.0937 0.339844,-0.28125 0.574219,-0.57422 0.246094,-0.30469 0.433594,-0.58594 0.597656,-0.84375 0.152344,-0.24609 0.316406,-0.66797 0.480469,-1.23047 l 0.105469,-0.32812 z m 6.046875,1.13672 -1.007812,3.48046 h 0.621093 l -0.140625,0.49219 h -0.632812 l -0.410156,1.42969 h -0.574219 l 0.421875,-1.42969 H -23.9815 l 0.175781,-0.55078 3.175782,-3.42187 z m -0.878906,1.00781 -2.273438,2.47265 H -21.919 Z m -144.146484,-1.83985 -0.71484,2.36719 c -0.0937,0.35156 -0.15235,0.57422 -0.15235,0.66797 0,0.0469 0,0.0703 0.0117,0.0937 0.0117,0.0234 0.0352,0.0234 0.0586,0.0234 0.0352,0 0.0703,-0.0117 0.10547,-0.0469 0.0469,-0.0352 0.15235,-0.19922 0.31641,-0.48047 l 0.11719,0.0937 c -0.17578,0.30469 -0.36328,0.53907 -0.55078,0.67969 -0.12891,0.082 -0.25782,0.14063 -0.36329,0.14063 -0.0937,0 -0.16406,-0.0352 -0.22265,-0.0937 -0.0469,-0.0586 -0.0703,-0.12891 -0.0703,-0.21094 0,-0.0937 0.0117,-0.21094 0.0469,-0.35156 0.0469,-0.1875 0.17578,-0.59766 0.375,-1.24219 -0.46875,0.72656 -0.85547,1.21875 -1.16016,1.48828 -0.30468,0.26953 -0.59765,0.41016 -0.85546,0.41016 -0.12891,0 -0.23438,-0.0469 -0.30469,-0.12891 -0.0937,-0.082 -0.12891,-0.1875 -0.12891,-0.30469 0,-0.19922 0.0586,-0.5039 0.19922,-0.91406 l 0.41016,-1.20703 c 0.10547,-0.28125 0.15234,-0.45703 0.15234,-0.52734 0,-0.0352 -0.0234,-0.0586 -0.0469,-0.082 -0.0234,-0.0234 -0.0586,-0.0352 -0.082,-0.0352 -0.0703,0 -0.1289,0.0117 -0.19921,0.0586 -0.0586,0.0352 -0.21094,0.17578 -0.44532,0.4336 l -0.11718,-0.082 c 0.21093,-0.30468 0.43359,-0.52734 0.66796,-0.67968 0.1875,-0.10547 0.35157,-0.16407 0.50391,-0.16407 0.10547,0 0.19922,0.0469 0.25781,0.11719 0.0703,0.0703 0.0937,0.16406 0.0937,0.28125 0,0.14063 -0.0586,0.38672 -0.17578,0.73828 l -0.43359,1.25391 c -0.10547,0.33984 -0.17578,0.55078 -0.17578,0.64453 0,0.0469 0.0234,0.082 0.0586,0.11719 0.0352,0.0234 0.0703,0.0469 0.14063,0.0469 0.082,0 0.19921,-0.0469 0.33984,-0.1289 0.14062,-0.0937 0.33984,-0.28125 0.57422,-0.57422 0.24609,-0.30469 0.43359,-0.58594 0.59765,-0.84375 0.15235,-0.2461 0.31641,-0.66797 0.48047,-1.23047 l 0.10547,-0.32813 z m 5.48437,1.03125 -1.2539,4.39454 c -0.082,0.24609 -0.11719,0.43359 -0.11719,0.55078 0,0.0937 0.0352,0.17578 0.0937,0.22265 0.0703,0.0469 0.22266,0.082 0.48047,0.10547 l -0.0469,0.14063 h -2.0039 l 0.0469,-0.14063 c 0.21094,-0.0117 0.35157,-0.0234 0.42188,-0.0469 0.11719,-0.0469 0.1875,-0.11719 0.24609,-0.19922 0.0937,-0.11719 0.17578,-0.32813 0.26953,-0.63281 l 0.90235,-3.16407 c 0.0586,-0.1875 0.082,-0.29297 0.082,-0.32812 0.0117,-0.0469 0.0234,-0.0937 0.0234,-0.15235 0,-0.082 -0.0234,-0.15234 -0.0703,-0.19921 -0.0586,-0.0586 -0.1289,-0.082 -0.21093,-0.082 -0.0703,0 -0.17579,0.0117 -0.31641,0.0469 l -0.0586,-0.14063 1.32421,-0.375 z M 3.9442813,81.709687 3.2294375,84.076875 c -0.09375,0.351562 -0.1523437,0.574219 -0.1523437,0.667969 0,0.04687 0,0.07031 0.011719,0.09375 0.011719,0.02344 0.035156,0.02344 0.058594,0.02344 0.035156,0 0.070312,-0.01172 0.1054687,-0.04687 C 3.29975,84.78 3.4052188,84.615937 3.5692813,84.334687 l 0.1171875,0.09375 C 3.5106875,84.733125 3.3231875,84.9675 3.1356875,85.108125 3.0067813,85.190156 2.877875,85.24875 2.7724063,85.24875 2.6786563,85.24875 2.6083438,85.21359 2.54975,85.155 2.502875,85.09641 2.479438,85.026094 2.479438,84.944062 c 0,-0.09375 0.011719,-0.210937 0.046875,-0.351562 0.046875,-0.1875 0.1757813,-0.597656 0.375,-1.242188 -0.46875,0.726563 -0.8554687,1.21875 -1.1601562,1.488282 -0.304688,0.269531 -0.5976568,0.410156 -0.8554693,0.410156 -0.12890625,0 -0.234375,-0.04687 -0.3046875,-0.128906 -0.09375,-0.08203 -0.12890625,-0.1875 -0.12890625,-0.304688 0,-0.199219 0.0585937,-0.503906 0.19921875,-0.914062 l 0.4101563,-1.207032 c 0.1054687,-0.28125 0.1523437,-0.457031 0.1523437,-0.527343 0,-0.03516 -0.023437,-0.05859 -0.046875,-0.08203 -0.023437,-0.02344 -0.058594,-0.03516 -0.082031,-0.03516 -0.070312,0 -0.1289063,0.01172 -0.1992188,0.05859 -0.0585938,0.03516 -0.2109375,0.175781 -0.4453125,0.433594 L 0.3231875,82.459687 C 0.534125,82.155 0.75678125,81.932344 0.99115625,81.78 1.1786563,81.674531 1.3427188,81.615937 1.4950625,81.615937 c 0.1054688,0 0.1992188,0.04687 0.2578125,0.117188 0.070312,0.07031 0.09375,0.164062 0.09375,0.28125 0,0.140625 -0.058594,0.386719 -0.1757812,0.738281 L 1.23725,84.006562 c -0.1054687,0.339844 -0.1757812,0.550782 -0.1757812,0.644532 0,0.04687 0.023437,0.08203 0.058594,0.117187 0.035156,0.02344 0.070312,0.04687 0.140625,0.04687 0.082031,0 0.1992188,-0.04687 0.3398438,-0.128906 C 1.7411563,84.5925 1.940375,84.405 2.17475,84.112031 2.4208438,83.807344 2.6083438,83.526094 2.7724063,83.268281 2.92475,83.022187 3.0888125,82.600312 3.252875,82.037812 l 0.1054688,-0.328125 z m 4.2070312,1.136719 h 1.7695313 l -0.1875,0.644531 h -1.59375 l -0.2929688,0.65625 c 0.421875,0.05859 0.75,0.199219 0.9960938,0.386719 0.3632812,0.304688 0.5390625,0.738281 0.5390625,1.289063 0,0.351562 -0.058594,0.679687 -0.1992188,0.984375 -0.1289062,0.292968 -0.2929687,0.527343 -0.4921875,0.726562 -0.1875,0.199219 -0.3984375,0.351563 -0.6210937,0.480469 -0.3046875,0.152344 -0.609375,0.234375 -0.9023438,0.234375 -0.2695312,0 -0.4804687,-0.05859 -0.6328125,-0.175781 C 6.4286563,87.990937 6.3817813,87.897187 6.3817813,87.78 c 0,-0.09375 0.023437,-0.175781 0.09375,-0.246094 0.070312,-0.07031 0.1523437,-0.09375 0.2578125,-0.09375 0.1289062,0 0.28125,0.07031 0.4570312,0.199219 0.1054688,0.09375 0.1875,0.152344 0.2578125,0.175781 0.058594,0.02344 0.1171875,0.03516 0.1992188,0.03516 0.2929687,0 0.5625,-0.140625 0.8085937,-0.445312 0.2460938,-0.292969 0.375,-0.667969 0.375,-1.136719 0,-0.328125 -0.070312,-0.597656 -0.1992187,-0.832031 C 8.502875,85.201875 8.3270938,85.037812 8.127875,84.944062 7.9169375,84.862031 7.6474063,84.791719 7.3075625,84.756562 Z m -42.9580075,-58.013672 -0.714844,2.367188 c -0.09375,0.351562 -0.152344,0.574219 -0.152344,0.667969 0,0.04687 0,0.07031 0.01172,0.09375 0.01172,0.02344 0.03516,0.02344 0.05859,0.02344 0.03516,0 0.07031,-0.01172 0.105468,-0.04687 0.04687,-0.03516 0.152344,-0.199219 0.316407,-0.480469 l 0.117187,0.09375 c -0.175781,0.304688 -0.363281,0.539063 -0.550781,0.679688 -0.128906,0.08203 -0.257813,0.140625 -0.363281,0.140625 -0.09375,0 -0.164063,-0.03516 -0.222657,-0.09375 -0.04687,-0.05859 -0.07031,-0.128906 -0.07031,-0.210938 0,-0.09375 0.01172,-0.210937 0.04687,-0.351562 0.04687,-0.1875 0.175781,-0.597656 0.375,-1.242188 -0.46875,0.726563 -0.855469,1.21875 -1.160156,1.488282 -0.304688,0.269531 -0.597657,0.410156 -0.855469,0.410156 -0.128906,0 -0.234375,-0.04687 -0.304688,-0.128906 -0.09375,-0.08203 -0.128906,-0.1875 -0.128906,-0.304688 0,-0.199219 0.05859,-0.503906 0.199219,-0.914062 l 0.410156,-1.207032 c 0.105469,-0.28125 0.152344,-0.457031 0.152344,-0.527343 0,-0.03516 -0.02344,-0.05859 -0.04687,-0.08203 -0.02344,-0.02344 -0.05859,-0.03516 -0.08203,-0.03516 -0.07031,0 -0.128907,0.01172 -0.199219,0.05859 -0.05859,0.03516 -0.210938,0.175781 -0.445313,0.433594 l -0.117187,-0.08203 c 0.210937,-0.304687 0.433594,-0.527343 0.667969,-0.679687 0.1875,-0.105469 0.351562,-0.164063 0.503906,-0.164063 0.105469,0 0.199219,0.04687 0.257812,0.117188 0.07031,0.07031 0.09375,0.164062 0.09375,0.28125 0,0.140625 -0.05859,0.386719 -0.175781,0.738281 l -0.433594,1.253906 c -0.105468,0.339844 -0.175781,0.550782 -0.175781,0.644532 0,0.04687 0.02344,0.08203 0.05859,0.117187 0.03516,0.02344 0.07031,0.04687 0.140625,0.04687 0.08203,0 0.199219,-0.04687 0.339844,-0.128906 0.140625,-0.09375 0.339843,-0.28125 0.574218,-0.574219 0.246094,-0.304687 0.433594,-0.585937 0.597657,-0.84375 0.152343,-0.246094 0.316406,-0.667969 0.480468,-1.230469 l 0.105469,-0.328125 z m 3.703125,1.136719 h 2.625 v 0.140625 l -2.964844,5.261719 -0.316406,-0.152344 2.601562,-4.628906 h -1.253906 c -0.351563,0 -0.585938,0.03516 -0.714844,0.09375 -0.128906,0.05859 -0.269531,0.210937 -0.433594,0.445312 h -0.164062 z m -99.85254,-31.7871093 -0.71484,2.3671875 c -0.0937,0.3515625 -0.15235,0.5742188 -0.15235,0.6679688 0,0.046875 0,0.070312 0.0117,0.09375 0.0117,0.023437 0.0352,0.023437 0.0586,0.023437 0.0352,0 0.0703,-0.011719 0.10546,-0.046875 0.0469,-0.035156 0.15235,-0.1992188 0.31641,-0.4804688 l 0.11719,0.09375 c -0.17578,0.3046875 -0.36328,0.5390625 -0.55078,0.6796875 -0.12891,0.082031 -0.25782,0.140625 -0.36328,0.140625 -0.0937,0 -0.16407,-0.035156 -0.22266,-0.09375 -0.0469,-0.058594 -0.0703,-0.1289062 -0.0703,-0.2109375 0,-0.09375 0.0117,-0.2109375 0.0469,-0.3515625 0.0469,-0.1875 0.17578,-0.5976562 0.375,-1.2421875 -0.46875,0.7265625 -0.85547,1.21875 -1.16015,1.4882813 -0.30469,0.2695312 -0.59766,0.4101562 -0.85547,0.4101562 -0.12891,0 -0.23438,-0.046875 -0.30469,-0.1289062 -0.0937,-0.082031 -0.12891,-0.1875 -0.12891,-0.3046875 0,-0.1992188 0.0586,-0.5039063 0.19922,-0.9140625 l 0.41016,-1.2070313 c 0.10547,-0.28125 0.15234,-0.4570312 0.15234,-0.5273437 0,-0.035156 -0.0234,-0.058594 -0.0469,-0.082031 -0.0234,-0.023437 -0.0586,-0.035156 -0.082,-0.035156 -0.0703,0 -0.12891,0.011719 -0.19922,0.058594 -0.0586,0.035156 -0.21094,0.1757813 -0.44532,0.4335938 l -0.11718,-0.082031 c 0.21093,-0.3046875 0.43359,-0.5273437 0.66797,-0.6796875 0.1875,-0.1054687 0.35156,-0.1640625 0.5039,-0.1640625 0.10547,0 0.19922,0.046875 0.25781,0.1171875 0.0703,0.070312 0.0937,0.1640625 0.0937,0.28125 0,0.140625 -0.0586,0.3867188 -0.17578,0.7382813 l -0.43359,1.2539062 c -0.10547,0.3398438 -0.17578,0.5507813 -0.17578,0.6445313 0,0.046875 0.0234,0.082031 0.0586,0.1171875 0.0352,0.023437 0.0703,0.046875 0.14063,0.046875 0.082,0 0.19922,-0.046875 0.33984,-0.1289063 0.14063,-0.09375 0.33984,-0.28125 0.57422,-0.5742187 0.24609,-0.3046875 0.43359,-0.5859375 0.59766,-0.84375 0.15234,-0.2460938 0.3164,-0.6679688 0.48046,-1.2304688 l 0.10547,-0.328125 z m 5.48438,1.03125 -1.25391,4.3945313 c -0.082,0.24609375 -0.11719,0.43359375 -0.11719,0.55078125 0,0.09375 0.0352,0.17578125 0.0937,0.22265625 0.0703,0.046875 0.22266,0.0820313 0.48047,0.10546875 l -0.0469,0.140625 h -2.00391 l 0.0469,-0.140625 c 0.21094,-0.0117188 0.35157,-0.0234375 0.42188,-0.046875 0.11719,-0.046875 0.1875,-0.1171875 0.24609,-0.19921875 0.0937,-0.1171875 0.17578,-0.328125 0.26953,-0.6328125 l 0.90235,-3.1640625 c 0.0586,-0.1875 0.082,-0.2929688 0.082,-0.328125 0.0117,-0.046875 0.0234,-0.09375 0.0234,-0.1523438 0,-0.082031 -0.0234,-0.1523437 -0.0703,-0.1992187 -0.0586,-0.058594 -0.1289,-0.082031 -0.21093,-0.082031 -0.0703,0 -0.17578,0.011719 -0.31641,0.046875 l -0.0586,-0.140625 1.32422,-0.375 z m 3.45703,0 -1.25391,4.3945313 c -0.082,0.24609375 -0.11719,0.43359375 -0.11719,0.55078125 0,0.09375 0.0352,0.17578125 0.0937,0.22265625 0.0703,0.046875 0.22266,0.0820313 0.48047,0.10546875 l -0.0469,0.140625 h -2.00391 l 0.0469,-0.140625 c 0.21093,-0.0117188 0.35156,-0.0234375 0.42187,-0.046875 0.11719,-0.046875 0.1875,-0.1171875 0.24609,-0.19921875 0.0937,-0.1171875 0.17579,-0.328125 0.26954,-0.6328125 l 0.90234,-3.1640625 c 0.0586,-0.1875 0.082,-0.2929688 0.082,-0.328125 0.0117,-0.046875 0.0234,-0.09375 0.0234,-0.1523438 0,-0.082031 -0.0234,-0.1523437 -0.0703,-0.1992187 -0.0586,-0.058594 -0.12891,-0.082031 -0.21094,-0.082031 -0.0703,0 -0.17578,0.011719 -0.31641,0.046875 l -0.0586,-0.140625 1.32422,-0.375 z m -55.12207,29.4345703 -0.71485,2.367188 c -0.0937,0.351562 -0.15234,0.574218 -0.15234,0.667968 0,0.04687 0,0.07031 0.0117,0.09375 0.0117,0.02344 0.0352,0.02344 0.0586,0.02344 0.0352,0 0.0703,-0.01172 0.10547,-0.04687 0.0469,-0.03516 0.15234,-0.199219 0.31641,-0.480469 l 0.11718,0.09375 c -0.17578,0.304688 -0.36328,0.539063 -0.55078,0.679688 -0.1289,0.08203 -0.25781,0.140625 -0.36328,0.140625 -0.0937,0 -0.16406,-0.03516 -0.22265,-0.09375 -0.0469,-0.05859 -0.0703,-0.128907 -0.0703,-0.210938 0,-0.09375 0.0117,-0.210937 0.0469,-0.351562 0.0469,-0.1875 0.17578,-0.597657 0.375,-1.242188 -0.46875,0.726563 -0.85547,1.21875 -1.16016,1.488281 -0.30469,0.269532 -0.59765,0.410157 -0.85547,0.410157 -0.1289,0 -0.23437,-0.04687 -0.30468,-0.128907 -0.0937,-0.08203 -0.12891,-0.1875 -0.12891,-0.304687 0,-0.199219 0.0586,-0.503906 0.19922,-0.914063 l 0.41015,-1.207031 c 0.10547,-0.28125 0.15235,-0.457031 0.15235,-0.527344 0,-0.03516 -0.0234,-0.05859 -0.0469,-0.08203 -0.0234,-0.02344 -0.0586,-0.03516 -0.082,-0.03516 -0.0703,0 -0.1289,0.01172 -0.19922,0.05859 -0.0586,0.03516 -0.21093,0.175781 -0.44531,0.433593 l -0.11719,-0.08203 c 0.21094,-0.304687 0.4336,-0.527344 0.66797,-0.679687 0.1875,-0.105469 0.35156,-0.164063 0.50391,-0.164063 0.10547,0 0.19922,0.04687 0.25781,0.117188 0.0703,0.07031 0.0937,0.164062 0.0937,0.28125 0,0.140625 -0.0586,0.386718 -0.17578,0.738281 l -0.43359,1.253906 c -0.10547,0.339844 -0.17579,0.550781 -0.17579,0.644531 0,0.04687 0.0234,0.08203 0.0586,0.117188 0.0352,0.02344 0.0703,0.04687 0.14062,0.04687 0.082,0 0.19922,-0.04687 0.33985,-0.128906 0.14062,-0.09375 0.33984,-0.28125 0.57422,-0.574219 0.24609,-0.304688 0.43359,-0.585938 0.59765,-0.84375 0.15235,-0.246094 0.31641,-0.667969 0.48047,-1.230469 l 0.10547,-0.328125 z m 5.48437,1.03125 -1.2539,4.394531 c -0.082,0.246094 -0.11719,0.433594 -0.11719,0.550782 0,0.09375 0.0352,0.175781 0.0937,0.222656 0.0703,0.04687 0.22265,0.08203 0.48047,0.105469 l -0.0469,0.140625 h -2.0039 l 0.0469,-0.140625 c 0.21094,-0.01172 0.35156,-0.02344 0.42188,-0.04687 0.11718,-0.04687 0.1875,-0.117188 0.24609,-0.199219 0.0937,-0.117188 0.17578,-0.328125 0.26953,-0.632813 l 0.90234,-3.164062 c 0.0586,-0.1875 0.082,-0.292969 0.082,-0.328125 0.0117,-0.04687 0.0234,-0.09375 0.0234,-0.152344 0,-0.08203 -0.0234,-0.152344 -0.0703,-0.199219 -0.0586,-0.05859 -0.12891,-0.08203 -0.21094,-0.08203 -0.0703,0 -0.17578,0.01172 -0.3164,0.04687 l -0.0586,-0.140625 1.32422,-0.375 z m 3.42481,0 c 0.33984,0 0.62109,0.140625 0.84375,0.421875 0.23437,0.28125 0.33984,0.714844 0.33984,1.324219 0,0.515625 -0.082,1.03125 -0.24609,1.570312 -0.17578,0.539063 -0.41016,0.996094 -0.71485,1.394532 -0.24609,0.316406 -0.5039,0.539062 -0.77343,0.667968 -0.15235,0.08203 -0.32813,0.128907 -0.53907,0.128907 -0.33984,0 -0.63281,-0.140625 -0.85547,-0.421875 -0.22265,-0.28125 -0.33984,-0.714844 -0.33984,-1.324219 0,-0.597656 0.11719,-1.195313 0.33984,-1.792969 0.26954,-0.703125 0.60938,-1.242187 1.03125,-1.605469 0.28125,-0.234375 0.58594,-0.363281 0.91407,-0.363281 z m 0.0117,0.199219 c -0.15235,0 -0.30469,0.05859 -0.46875,0.175781 -0.15235,0.128906 -0.30469,0.375 -0.48047,0.75 -0.15235,0.375 -0.31641,0.855469 -0.46875,1.453125 -0.19922,0.773438 -0.29297,1.429688 -0.29297,1.96875 0,0.269531 0.0586,0.480469 0.17578,0.609375 0.11719,0.140625 0.25781,0.199219 0.42187,0.199219 0.16407,0 0.29297,-0.05859 0.41016,-0.152344 0.30469,-0.28125 0.5625,-0.761719 0.77344,-1.441406 0.35156,-1.113281 0.52734,-2.015625 0.52734,-2.71875 0,-0.292969 -0.0586,-0.492188 -0.17578,-0.632813 -0.12891,-0.128906 -0.25781,-0.210937 -0.42187,-0.210937 z m 21.26074,-45.404297 -0.71485,2.367187 c -0.0937,0.351563 -0.15234,0.574219 -0.15234,0.667969 0,0.04687 0,0.07031 0.0117,0.09375 0.0117,0.02344 0.0351,0.02344 0.0586,0.02344 0.0352,0 0.0703,-0.01172 0.10547,-0.04687 0.0469,-0.03516 0.15234,-0.199219 0.31641,-0.480469 l 0.11718,0.09375 c -0.17578,0.304687 -0.36328,0.539062 -0.55078,0.679687 -0.1289,0.08203 -0.25781,0.140625 -0.36328,0.140625 -0.0937,0 -0.16406,-0.03516 -0.22265,-0.09375 -0.0469,-0.05859 -0.0703,-0.128906 -0.0703,-0.210937 0,-0.09375 0.0117,-0.210938 0.0469,-0.351563 0.0469,-0.1875 0.17578,-0.597656 0.375,-1.242187 -0.46875,0.726562 -0.85547,1.21875 -1.16016,1.488281 -0.30469,0.269531 -0.59765,0.410156 -0.85547,0.410156 -0.1289,0 -0.23437,-0.04688 -0.30468,-0.128906 -0.0937,-0.08203 -0.12891,-0.1875 -0.12891,-0.304687 0,-0.199219 0.0586,-0.503907 0.19922,-0.914063 l 0.41015,-1.207031 c 0.10547,-0.28125 0.15235,-0.457031 0.15235,-0.527344 0,-0.03516 -0.0234,-0.05859 -0.0469,-0.08203 -0.0234,-0.02344 -0.0586,-0.03516 -0.082,-0.03516 -0.0703,0 -0.1289,0.01172 -0.19922,0.05859 -0.0586,0.03516 -0.21093,0.175782 -0.44531,0.433594 l -0.11719,-0.08203 c 0.21094,-0.304688 0.4336,-0.527344 0.66797,-0.679688 0.1875,-0.105468 0.35156,-0.164062 0.50391,-0.164062 0.10547,0 0.19922,0.04687 0.25781,0.117187 0.0703,0.07031 0.0937,0.164063 0.0937,0.28125 0,0.140625 -0.0586,0.386719 -0.17578,0.738282 l -0.43359,1.253906 c -0.10547,0.339844 -0.17579,0.550781 -0.17579,0.644531 0,0.04687 0.0234,0.08203 0.0586,0.117188 0.0351,0.02344 0.0703,0.04687 0.14062,0.04687 0.082,0 0.19922,-0.04687 0.33985,-0.128907 0.14062,-0.09375 0.33984,-0.28125 0.57422,-0.574218 0.24609,-0.304688 0.43359,-0.585938 0.59765,-0.84375 0.15235,-0.246094 0.31641,-0.667969 0.48047,-1.230469 l 0.10547,-0.328125 z m 5.48437,1.03125 -1.2539,4.394531 c -0.082,0.246094 -0.11719,0.433594 -0.11719,0.550781 0,0.09375 0.0351,0.175782 0.0937,0.222657 0.0703,0.04687 0.22265,0.08203 0.48047,0.105468 l -0.0469,0.140625 h -2.0039 l 0.0469,-0.140625 c 0.21094,-0.01172 0.35156,-0.02344 0.42188,-0.04687 0.11718,-0.04687 0.1875,-0.117187 0.24609,-0.199218 0.0937,-0.117188 0.17578,-0.328125 0.26953,-0.632813 l 0.90234,-3.164062 c 0.0586,-0.1875 0.082,-0.292969 0.082,-0.328125 0.0117,-0.04687 0.0234,-0.09375 0.0234,-0.152344 0,-0.08203 -0.0234,-0.152344 -0.0703,-0.199219 -0.0586,-0.05859 -0.12891,-0.08203 -0.21094,-0.08203 -0.0703,0 -0.17578,0.01172 -0.3164,0.04687 l -0.0586,-0.140625 1.32422,-0.375 z m 3.43653,5.414062 h -2.64844 v -0.140625 c 1.34765,-1.183593 2.22656,-2.109375 2.66015,-2.777343 0.19922,-0.304688 0.30469,-0.632813 0.30469,-0.972657 0,-0.269531 -0.082,-0.492187 -0.25781,-0.667968 -0.16406,-0.164063 -0.375,-0.246094 -0.64453,-0.246094 -0.36328,0 -0.66797,0.175781 -0.90235,0.527344 l -0.14062,-0.07031 c 0.14062,-0.339844 0.32812,-0.597656 0.58594,-0.785156 0.25781,-0.1875 0.52734,-0.28125 0.83203,-0.28125 0.32812,0 0.60937,0.117187 0.84375,0.351562 0.23437,0.222657 0.33984,0.503907 0.33984,0.832032 0,0.234375 -0.0352,0.445312 -0.11719,0.644531 -0.1289,0.304687 -0.36328,0.644531 -0.6914,1.019531 -0.51563,0.585938 -1.19531,1.242188 -2.05078,2.003906 h 1.34765 c 0.21094,0 0.38672,-0.05859 0.52735,-0.140625 0.1289,-0.09375 0.23437,-0.199218 0.29297,-0.351562 h 0.16406 z m 0,0"
       style="fill:#231f20;fill-opacity:1;fill-rule:nonzero;stroke:none"
       aria-label="u&#10;8&#10;u&#10;9&#10;u&#10;2&#10;u&#10;3&#10;u&#10;6&#10;u&#10;4&#10;u&#10;1&#10;u&#10;5&#10;u&#10;7&#10;u&#10;11&#10;u&#10;10&#10;u&#10;12"
       transform="matrix(1.3333333,0,0,1.3333333,243.72533,37.46)" />
    <path
       id="path2"
       d="M 200.809,1058.63 H 1573.29 V 202.016 H 200.809 Z"
       style="fill:none;stroke:#231f20;stroke-width:5;stroke-linecap:butt;stroke-linejoin:miter;stroke-miterlimit:3.86371;stroke-dasharray:none;stroke-opacity:1"
       transform="matrix(0.13333333,0,0,-0.13333333,0,190.66667)" />
    <path
       id="path3"
       d="M 1673.27,1126.05 V 292.078"
       style="fill:none;stroke:#231f20;stroke-width:5;stroke-linecap:butt;stroke-linejoin:miter;stroke-miterlimit:3.86371;stroke-dasharray:none;stroke-opacity:1"
       transform="matrix(0.13333333,0,0,-0.13333333,0,190.66667)" />
    <path
       id="path4"
       d="M 294.961,1126.05 H 1673.27"
       style="fill:none;stroke:#231f20;stroke-width:5;stroke-linecap:butt;stroke-linejoin:miter;stroke-miterlimit:3.86371;stroke-dasharray:none;stroke-opacity:1"
       transform="matrix(0.13333333,0,0,-0.13333333,0,190.66667)" />
    <path
       id="path5"
       d="M 1673.27,292.078 H 294.961"
       style="fill:none;stroke:#231f20;stroke-width:5;stroke-linecap:butt;stroke-linejoin:miter;stroke-miterlimit:3.86371;stroke-dasharray:20, 20;stroke-dashoffset:0;stroke-opacity:1"
       transform="matrix(0.13333333,0,0,-0.13333333,0,190.66667)" />
    <path
       id="path6"
       d="M 294.961,292.078 V 1126.05"
       style="fill:none;stroke:#231f20;stroke-width:5;stroke-linecap:butt;stroke-linejoin:miter;stroke-miterlimit:3.86371;stroke-dasharray:20, 20;stroke-dashoffset:0;stroke-opacity:1"
       transform="matrix(0.13333333,0,0,-0.13333333,0,190.66667)" />
    <path
       id="path7"
       d="M 294.961,292.078 200.809,202.016"
       style="fill:none;stroke:#231f20;stroke-width:6.046;stroke-linecap:butt;stroke-linejoin:miter;stroke-miterlimit:3.86371;stroke-dasharray:20, 20;stroke-dashoffset:0;stroke-opacity:1"
       transform="matrix(0.13333333,0,0,-0.13333333,0,190.66667)" />
    <path
       id="path8"
       d="m 200.809,1058.63 94.152,67.42"
       style="fill:none;stroke:#231f20;stroke-width:6.046;stroke-linecap:butt;stroke-linejoin:miter;stroke-miterlimit:3.86371;stroke-dasharray:none;stroke-opacity:1"
       transform="matrix(0.13333333,0,0,-0.13333333,0,190.66667)" />
    <path
       id="path9"
       d="m 1573.29,1058.63 99.98,67.42"
       style="fill:none;stroke:#231f20;stroke-width:6.046;stroke-linecap:butt;stroke-linejoin:miter;stroke-miterlimit:3.86371;stroke-dasharray:none;stroke-opacity:1"
       transform="matrix(0.13333333,0,0,-0.13333333,0,190.66667)" />
    <path
       id="path10"
       d="m 1673.27,292.078 -99.98,-90.062"
       style="fill:none;stroke:#231f20;stroke-width:6.046;stroke-linecap:butt;stroke-linejoin:miter;stroke-miterlimit:3.86371;stroke-dasharray:none;stroke-opacity:1"
       transform="matrix(0.13333333,0,0,-0.13333333,0,190.66667)" />
    <path
       id="path11"
       d="m 255.02,1317.54 v -10.78"
       style="fill:none;stroke:#231f20;stroke-width:2.5;stroke-linecap:butt;stroke-linejoin:miter;stroke-miterlimit:3.86371;stroke-dasharray:none;stroke-opacity:1"
       transform="matrix(0.13333333,0,0,-0.13333333,0,190.66667)" />
    <path
       id="path12"
       d="m 255.02,1315.04 h -15 l 15,37.5 15,-37.5 h -15"
       style="fill:#231f20;fill-opacity:1;fill-rule:evenodd;stroke:none"
       transform="matrix(0.13333333,0,0,-0.13333333,0,190.66667)" />
    <path
       id="path13"
       d="m 465.902,1093.97 h 13.133"
       style="fill:none;stroke:#231f20;stroke-width:2.5;stroke-linecap:butt;stroke-linejoin:miter;stroke-miterlimit:3.86371;stroke-dasharray:none;stroke-opacity:1"
       transform="matrix(0.13333333,0,0,-0.13333333,0,190.66667)" />
    <path
       id="path14"
       d="m 476.535,1093.97 v 15 l 37.5,-15 -37.5,-15 v 15"
       style="fill:#231f20;fill-opacity:1;fill-rule:evenodd;stroke:none"
       transform="matrix(0.13333333,0,0,-0.13333333,0,190.66667)" />
    <path
       id="path15"
       d="M 254.207,1094.18 119.73,989.473"
       style="fill:none;stroke:#231f20;stroke-width:2.5;stroke-linecap:butt;stroke-linejoin:miter;stroke-miterlimit:3.86371;stroke-dasharray:none;stroke-opacity:1"
       transform="matrix(0.13333333,0,0,-0.13333333,0,190.66667)" />
    <path
       id="path16"
       d="m 121.699,991.012 9.239,-11.821 -38.7896,-11.265 20.3166,34.904 9.234,-11.818"
       style="fill:#231f20;fill-opacity:1;fill-rule:evenodd;stroke:none"
       transform="matrix(0.13333333,0,0,-0.13333333,0,190.66667)" />
    <path
       id="path17"
       d="M 254.402,1352.63 V 1094.06"
       style="fill:none;stroke:#231f20;stroke-width:2.5;stroke-linecap:butt;stroke-linejoin:miter;stroke-miterlimit:3.86371;stroke-dasharray:none;stroke-opacity:1"
       transform="matrix(0.13333333,0,0,-0.13333333,0,190.66667)" />
    <path
       id="path18"
       d="m 254.402,1350.13 h -15 l 15,37.5 15,-37.5 h -15"
       style="fill:#231f20;fill-opacity:1;fill-rule:evenodd;stroke:none"
       transform="matrix(0.13333333,0,0,-0.13333333,0,190.66667)" />
    <path
       id="path19"
       d="M 254.402,1094.06 H 512.973"
       style="fill:none;stroke:#231f20;stroke-width:2.5;stroke-linecap:butt;stroke-linejoin:miter;stroke-miterlimit:3.86371;stroke-dasharray:none;stroke-opacity:1"
       transform="matrix(0.13333333,0,0,-0.13333333,0,190.66667)" />
    <path
       id="path20"
       d="m 510.473,1094.06 v 15 l 37.5,-15 -37.5,-15 v 15"
       style="fill:#231f20;fill-opacity:1;fill-rule:evenodd;stroke:none"
       transform="matrix(0.13333333,0,0,-0.13333333,0,190.66667)" />
    <path
       id="path21"
       d="M 254.852,470.984 V 460.203"
       style="fill:none;stroke:#231f20;stroke-width:2.5;stroke-linecap:butt;stroke-linejoin:miter;stroke-miterlimit:3.86371;stroke-dasharray:none;stroke-opacity:1"
       transform="matrix(0.13333333,0,0,-0.13333333,0,190.66667)" />
    <path
       id="path22"
       d="m 254.852,468.484 h -15 l 15,37.5 15,-37.5 h -15"
       style="fill:#231f20;fill-opacity:1;fill-rule:evenodd;stroke:none"
       transform="matrix(0.13333333,0,0,-0.13333333,0,190.66667)" />
    <path
       id="path23"
       d="m 465.734,247.418 h 13.133"
       style="fill:none;stroke:#231f20;stroke-width:2.5;stroke-linecap:butt;stroke-linejoin:miter;stroke-miterlimit:3.86371;stroke-dasharray:none;stroke-opacity:1"
       transform="matrix(0.13333333,0,0,-0.13333333,0,190.66667)" />
    <path
       id="path24"
       d="m 476.367,247.418 v 15 l 37.5,-15 -37.5,-15 v 15"
       style="fill:#231f20;fill-opacity:1;fill-rule:evenodd;stroke:none"
       transform="matrix(0.13333333,0,0,-0.13333333,0,190.66667)" />
    <path
       id="path25"
       d="M 254.039,247.625 119.563,142.918"
       style="fill:none;stroke:#231f20;stroke-width:2.5;stroke-linecap:butt;stroke-linejoin:miter;stroke-miterlimit:3.86371;stroke-dasharray:none;stroke-opacity:1"
       transform="matrix(0.13333333,0,0,-0.13333333,0,190.66667)" />
    <path
       id="path26"
       d="m 121.531,144.457 9.235,-11.82 -38.7855,-11.266 20.3165,34.906 9.234,-11.82"
       style="fill:#231f20;fill-opacity:1;fill-rule:evenodd;stroke:none"
       transform="matrix(0.13333333,0,0,-0.13333333,0,190.66667)" />
    <path
       id="path27"
       d="M 254.238,506.074 V 247.504"
       style="fill:none;stroke:#231f20;stroke-width:2.5;stroke-linecap:butt;stroke-linejoin:miter;stroke-miterlimit:3.86371;stroke-dasharray:none;stroke-opacity:1"
       transform="matrix(0.13333333,0,0,-0.13333333,0,190.66667)" />
    <path
       id="path28"
       d="m 254.238,503.574 h -15 l 15,37.5 15,-37.5 h -15"
       style="fill:#231f20;fill-opacity:1;fill-rule:evenodd;stroke:none"
       transform="matrix(0.13333333,0,0,-0.13333333,0,190.66667)" />
    <path
       id="path29"
       d="M 254.238,247.504 H 512.805"
       style="fill:none;stroke:#231f20;stroke-width:2.5;stroke-linecap:butt;stroke-linejoin:miter;stroke-miterlimit:3.86371;stroke-dasharray:none;stroke-opacity:1"
       transform="matrix(0.13333333,0,0,-0.13333333,0,190.66667)" />
    <path
       id="path30"
       d="m 510.305,247.504 v 15 l 37.5,-15 -37.5,-15 v 15"
       style="fill:#231f20;fill-opacity:1;fill-rule:evenodd;stroke:none"
       transform="matrix(0.13333333,0,0,-0.13333333,0,190.66667)" />
    <path
       id="path31"
       d="M 1606.84,1302.08 V 1291.3"
       style="fill:none;stroke:#231f20;stroke-width:2.5;stroke-linecap:butt;stroke-linejoin:miter;stroke-miterlimit:3.86371;stroke-dasharray:none;stroke-opacity:1"
       transform="matrix(0.13333333,0,0,-0.13333333,0,190.66667)" />
    <path
       id="path32"
       d="m 1606.84,1299.58 h -15 l 15,37.5 15,-37.5 h -15"
       style="fill:#231f20;fill-opacity:1;fill-rule:evenodd;stroke:none"
       transform="matrix(0.13333333,0,0,-0.13333333,0,190.66667)" />
    <path
       id="path33"
       d="m 1817.72,1078.52 h 13.13"
       style="fill:none;stroke:#231f20;stroke-width:2.5;stroke-linecap:butt;stroke-linejoin:miter;stroke-miterlimit:3.86371;stroke-dasharray:none;stroke-opacity:1"
       transform="matrix(0.13333333,0,0,-0.13333333,0,190.66667)" />
    <path
       id="path34"
       d="m 1828.35,1078.52 v 15 l 37.5,-15 -37.5,-15 v 15"
       style="fill:#231f20;fill-opacity:1;fill-rule:evenodd;stroke:none"
       transform="matrix(0.13333333,0,0,-0.13333333,0,190.66667)" />
    <path
       id="path35"
       d="M 1606.02,1078.72 1471.55,974.016"
       style="fill:none;stroke:#231f20;stroke-width:2.5;stroke-linecap:butt;stroke-linejoin:miter;stroke-miterlimit:3.86371;stroke-dasharray:none;stroke-opacity:1"
       transform="matrix(0.13333333,0,0,-0.13333333,0,190.66667)" />
    <path
       id="path36"
       d="m 1473.52,975.555 9.23,-11.821 -38.78,-11.265 20.31,34.906 9.24,-11.82"
       style="fill:#231f20;fill-opacity:1;fill-rule:evenodd;stroke:none"
       transform="matrix(0.13333333,0,0,-0.13333333,0,190.66667)" />
    <path
       id="path37"
       d="M 1606.22,1337.17 V 1078.6"
       style="fill:none;stroke:#231f20;stroke-width:2.5;stroke-linecap:butt;stroke-linejoin:miter;stroke-miterlimit:3.86371;stroke-dasharray:none;stroke-opacity:1"
       transform="matrix(0.13333333,0,0,-0.13333333,0,190.66667)" />
    <path
       id="path38"
       d="m 1606.22,1334.67 h -15 l 15,37.5 15,-37.5 h -15"
       style="fill:#231f20;fill-opacity:1;fill-rule:evenodd;stroke:none"
       transform="matrix(0.13333333,0,0,-0.13333333,0,190.66667)" />
    <path
       id="path39"
       d="m 1606.22,1078.6 h 258.57"
       style="fill:none;stroke:#231f20;stroke-width:2.5;stroke-linecap:butt;stroke-linejoin:miter;stroke-miterlimit:3.86371;stroke-dasharray:none;stroke-opacity:1"
       transform="matrix(0.13333333,0,0,-0.13333333,0,190.66667)" />
    <path
       id="path40"
       d="m 1862.29,1078.6 v 15 l 37.5,-15 -37.5,-15 v 15"
       style="fill:#231f20;fill-opacity:1;fill-rule:evenodd;stroke:none"
       transform="matrix(0.13333333,0,0,-0.13333333,0,190.66667)" />
    <path
       id="path41"
       d="M 1618.01,466.867 V 456.086"
       style="fill:none;stroke:#231f20;stroke-width:2.5;stroke-linecap:butt;stroke-linejoin:miter;stroke-miterlimit:3.86371;stroke-dasharray:none;stroke-opacity:1"
       transform="matrix(0.13333333,0,0,-0.13333333,0,190.66667)" />
    <path
       id="path42"
       d="m 1618.01,464.367 h -15 l 15,37.5 15,-37.5 h -15"
       style="fill:#231f20;fill-opacity:1;fill-rule:evenodd;stroke:none"
       transform="matrix(0.13333333,0,0,-0.13333333,0,190.66667)" />
    <path
       id="path43"
       d="m 1828.89,243.301 h 13.13"
       style="fill:none;stroke:#231f20;stroke-width:2.5;stroke-linecap:butt;stroke-linejoin:miter;stroke-miterlimit:3.86371;stroke-dasharray:none;stroke-opacity:1"
       transform="matrix(0.13333333,0,0,-0.13333333,0,190.66667)" />
    <path
       id="path44"
       d="m 1839.52,243.301 v 15 l 37.5,-15 -37.5,-15 v 15"
       style="fill:#231f20;fill-opacity:1;fill-rule:evenodd;stroke:none"
       transform="matrix(0.13333333,0,0,-0.13333333,0,190.66667)" />
    <path
       id="path45"
       d="M 1617.2,243.508 1482.72,138.801"
       style="fill:none;stroke:#231f20;stroke-width:2.5;stroke-linecap:butt;stroke-linejoin:miter;stroke-miterlimit:3.86371;stroke-dasharray:none;stroke-opacity:1"
       transform="matrix(0.13333333,0,0,-0.13333333,0,190.66667)" />
    <path
       id="path46"
       d="m 1484.69,140.34 9.24,-11.82 -38.79,-11.266 20.31,34.906 9.24,-11.82"
       style="fill:#231f20;fill-opacity:1;fill-rule:evenodd;stroke:none"
       transform="matrix(0.13333333,0,0,-0.13333333,0,190.66667)" />
    <path
       id="path47"
       d="M 1617.39,501.957 V 243.391"
       style="fill:none;stroke:#231f20;stroke-width:2.5;stroke-linecap:butt;stroke-linejoin:miter;stroke-miterlimit:3.86371;stroke-dasharray:none;stroke-opacity:1"
       transform="matrix(0.13333333,0,0,-0.13333333,0,190.66667)" />
    <path
       id="path48"
       d="m 1617.39,499.457 h -15 l 15,37.5 15,-37.5 h -15"
       style="fill:#231f20;fill-opacity:1;fill-rule:evenodd;stroke:none"
       transform="matrix(0.13333333,0,0,-0.13333333,0,190.66667)" />
    <path
       id="path49"
       d="m 1617.39,243.391 h 258.57"
       style="fill:none;stroke:#231f20;stroke-width:2.5;stroke-linecap:butt;stroke-linejoin:miter;stroke-miterlimit:3.86371;stroke-dasharray:none;stroke-opacity:1"
       transform="matrix(0.13333333,0,0,-0.13333333,0,190.66667)" />
    <path
       id="path50"
       d="m 1873.46,243.391 v 15 l 37.5,-15 -37.5,-15 v 15"
       style="fill:#231f20;fill-opacity:1;fill-rule:evenodd;stroke:none"
       transform="matrix(0.13333333,0,0,-0.13333333,0,190.66667)" />
  </g>
</svg>
