<?xml version="1.0" encoding="UTF-8" standalone="no"?>
<!-- Created with Inkscape (http://www.inkscape.org/) -->

<svg
   version="1.1"
   id="svg1"
   width="384.60001"
   height="256.64001"
   viewBox="0 0 384.60001 256.64001"
   sodipodi:docname="PLATRE.KG.EPS"
   xmlns:inkscape="http://www.inkscape.org/namespaces/inkscape"
   xmlns:sodipodi="http://sodipodi.sourceforge.net/DTD/sodipodi-0.dtd"
   xmlns="http://www.w3.org/2000/svg"
   xmlns:svg="http://www.w3.org/2000/svg">
  <defs
     id="defs1" />
  <sodipodi:namedview
     id="namedview1"
     pagecolor="#ffffff"
     bordercolor="#000000"
     borderopacity="0.25"
     inkscape:showpageshadow="2"
     inkscape:pageopacity="0.0"
     inkscape:pagecheckerboard="0"
     inkscape:deskcolor="#d1d1d1">
    <inkscape:page
       x="0"
       y="0"
       inkscape:label="1"
       id="page1"
       width="384.60001"
       height="256.64001"
       margin="0"
       bleed="0" />
  </sodipodi:namedview>
  <g
     id="g1"
     inkscape:groupmode="layer"
     inkscape:label="1">
    <path
       id="path1"
       d="M 0.97402344,-3.7030469 C 1.2083984,-4.3007031 1.3958984,-4.4296094 1.9466797,-4.4178906 h 1.7460937 l -3.71484371,4.46484373 0.10546875,0.10546875 c 0.19921875,-0.152343755 0.3515625,-0.2109375 0.5390625,-0.2109375 0.31640625,0 0.70312496,0.15234375 1.26562496,0.50390625 0.5976563,0.375 0.9960938,0.52734375 1.3359375,0.52734375 0.609375,0 1.1367188,-0.43359375 1.1367188,-0.9140625 0,-0.2578125 -0.1757813,-0.43359375 -0.421875,-0.43359375 -0.2460938,0 -0.4101563,0.1640625 -0.4101563,0.38671875 0,0.09375 0.035156,0.19921875 0.1054688,0.3515625 0.035156,0.0703125 0.058594,0.140625 0.058594,0.17578125 0,0.10546875 -0.1289062,0.17578125 -0.3164062,0.17578125 -0.3046875,0 -0.4453125,-0.10546875 -0.84375,-0.59765625 -0.5273438,-0.6796875 -0.75,-0.83203125 -1.453125,-0.99609375 L 4.5599609,-5.0038281 V -5.1327344 H 1.1498047 L 0.78652344,-3.7616406 Z M 117.22695,-13.136641 c -0.10547,0.117188 -0.16406,0.1875 -0.26953,0.328125 -0.26953,0.363282 -0.42187,0.480469 -0.5625,0.480469 -0.16406,0 -0.28125,-0.152344 -0.36328,-0.492187 -0.0352,-0.128907 -0.0352,-0.152344 -0.0469,-0.1875 -0.29297,-1.230469 -0.4336,-1.78125 -0.4336,-1.957032 0.53906,-0.9375 0.96094,-1.453125 1.1836,-1.453125 0.0703,0 0.17578,0.03516 0.28125,0.09375 0.15234,0.08203 0.23437,0.105469 0.33984,0.105469 0.23437,0 0.41016,-0.175781 0.41016,-0.433594 0,-0.257812 -0.21094,-0.445312 -0.49219,-0.445312 -0.52735,0 -0.97266,0.433594 -1.81641,1.722656 l -0.1289,-0.65625 c -0.16407,-0.820312 -0.30469,-1.066406 -0.6211,-1.066406 -0.28125,0 -0.66797,0.105469 -1.40625,0.351562 -0.0703,0.02344 -0.0703,0.02344 -0.1289,0.04687 l 0.0469,0.1875 c 0.46875,-0.128906 0.55078,-0.140625 0.66797,-0.140625 0.30469,0 0.375,0.117188 0.53906,0.832032 l 0.35156,1.476562 -0.98437,1.40625 c -0.25781,0.351563 -0.48047,0.574219 -0.60938,0.574219 -0.082,0 -0.19921,-0.03516 -0.3164,-0.105469 -0.15235,-0.09375 -0.28125,-0.128906 -0.38672,-0.128906 -0.23438,0 -0.41016,0.1875 -0.41016,0.421875 0,0.316406 0.23438,0.503906 0.60938,0.503906 0.36328,0 0.51562,-0.105469 1.11328,-0.820312 0.31641,-0.398438 0.58594,-0.761719 1.07812,-1.417969 l 0.36329,1.441406 c 0.15234,0.621094 0.30468,0.796875 0.6914,0.796875 0.45703,0 0.77344,-0.28125 1.46485,-1.359375 z M 32.274805,-96.905195 c 0.152343,-0.03516 0.246093,-0.04687 0.375,-0.04687 0.492187,0 0.726562,0.199218 0.960937,0.84375 0.328125,0.890625 0.949219,3.457031 0.949219,3.914062 0,0.1875 -0.08203,0.386719 -0.257813,0.609375 -0.328125,0.445313 -0.609375,0.785156 -0.75,0.9375 -0.257812,0.257813 -0.386718,0.363281 -0.539062,0.363281 -0.08203,0 -0.152344,-0.03516 -0.292969,-0.140625 -0.175781,-0.140625 -0.292969,-0.199218 -0.445312,-0.199218 -0.257813,0 -0.46875,0.199218 -0.46875,0.46875 0,0.316406 0.257812,0.527343 0.621093,0.527343 0.761719,0 2.320313,-1.792968 3.632813,-4.171875 0.820312,-1.476562 1.148437,-2.34375 1.148437,-2.929687 0,-0.363281 -0.292968,-0.667969 -0.65625,-0.667969 -0.28125,0 -0.46875,0.1875 -0.46875,0.445313 0,0.199218 0.09375,0.316406 0.339844,0.46875 0.222656,0.140625 0.304688,0.246093 0.304688,0.410156 0,0.480469 -0.433594,1.40625 -1.464844,3.105469 l -0.234375,-1.394532 c -0.1875,-1.066406 -0.855469,-3.035156 -1.03125,-3.035156 h -0.04687 c -0.02344,0.01172 -0.05859,0.01172 -0.117188,0.01172 -0.09375,0.01172 -0.539062,0.09375 -1.171875,0.210937 -0.05859,0.01172 -0.210937,0.04687 -0.386718,0.07031 z m 0,0"
       style="fill:#231f20;fill-opacity:1;fill-rule:nonzero;stroke:none"
       aria-label="z&#10;x&#10;y"
       transform="matrix(1.3333333,0,0,1.3333333,4.0333333,247.27333)" />
    <path
       id="path2"
       d="m 485.25,310.25 -372,-289"
       style="fill:none;stroke:#231f20;stroke-width:2.5;stroke-linecap:butt;stroke-linejoin:miter;stroke-miterlimit:3.8637;stroke-dasharray:none;stroke-opacity:1"
       transform="matrix(0.13333333,0,0,-0.13333333,0,256.64)" />
    <path
       id="path3"
       d="m 115.25,23.25 10,-12 -39,-11 20,35 9,-12"
       style="fill:#231f20;fill-opacity:1;fill-rule:evenodd;stroke:none"
       transform="matrix(0.13333333,0,0,-0.13333333,0,256.64)" />
    <path
       id="path4"
       d="m 485.25,1024.25 v -714"
       style="fill:none;stroke:#231f20;stroke-width:2.5;stroke-linecap:butt;stroke-linejoin:miter;stroke-miterlimit:3.8637;stroke-dasharray:none;stroke-opacity:1"
       transform="matrix(0.13333333,0,0,-0.13333333,0,256.64)" />
    <path
       id="path5"
       d="m 485.25,1022.25 h -15 l 15,37 15,-37 h -15"
       style="fill:#231f20;fill-opacity:1;fill-rule:evenodd;stroke:none"
       transform="matrix(0.13333333,0,0,-0.13333333,0,256.64)" />
    <path
       id="path6"
       d="m 485.25,310.25 h 714"
       style="fill:none;stroke:#231f20;stroke-width:2.5;stroke-linecap:butt;stroke-linejoin:miter;stroke-miterlimit:3.8637;stroke-dasharray:none;stroke-opacity:1"
       transform="matrix(0.13333333,0,0,-0.13333333,0,256.64)" />
    <path
       id="path7"
       d="m 1197.25,310.25 v 15 l 37,-15 -37,-15 v 15"
       style="fill:#231f20;fill-opacity:1;fill-rule:evenodd;stroke:none"
       transform="matrix(0.13333333,0,0,-0.13333333,0,256.64)" />
    <path
       id="path8"
       d="M 1.9089844,2.0967578 C 1.4636719,0.87800781 1.3347656,0.13972656 1.3347656,-1.0204297 c 0,-1.453125 0.328125,-3.1640625 0.890625,-4.5 0.3984375,-0.9492187 0.7734375,-1.5117187 1.5585938,-2.3320312 L 3.6199219,-8.0282422 c -1.5585938,1.4179688 -2.1679688,2.203125 -2.67187503,3.4570313 -0.31640625,0.75 -0.4453125,1.4882812 -0.4453125,2.4140625 0,0.9257812 0.140625,1.81640621 0.41015625,2.64843746 C 1.0769531,0.99519531 1.2644531,1.3819141 1.6863281,2.1670703 Z m 6.9140625,-3.4335937 c -0.1054688,0.1171875 -0.1640625,0.1875 -0.2695313,0.328125 -0.2695312,0.36328121 -0.421875,0.48046871 -0.5625,0.48046871 -0.1640625,0 -0.28125,-0.15234375 -0.3632812,-0.49218751 -0.035156,-0.1289062 -0.035156,-0.1523437 -0.046875,-0.1875 -0.2929688,-1.2304687 -0.4335938,-1.78125 -0.4335938,-1.9570312 0.5390625,-0.9375 0.9609375,-1.453125 1.1835938,-1.453125 0.070312,0 0.1757812,0.035156 0.28125,0.09375 0.1523437,0.082031 0.234375,0.1054687 0.3398437,0.1054687 0.234375,0 0.4101563,-0.1757812 0.4101563,-0.4335937 0,-0.2578125 -0.2109375,-0.4453125 -0.4921875,-0.4453125 -0.5273438,0 -0.9726563,0.4335937 -1.8164063,1.7226562 l -0.1289062,-0.65625 C 6.7605469,-5.0516797 6.6199219,-5.2977734 6.3035156,-5.2977734 c -0.28125,0 -0.6679687,0.1054687 -1.40625,0.3515625 -0.070312,0.023437 -0.070312,0.023437 -0.1289062,0.046875 l 0.046875,0.1875 c 0.46875,-0.1289063 0.5507812,-0.140625 0.6679687,-0.140625 0.3046875,0 0.375,0.1171875 0.5390625,0.8320312 l 0.3515625,1.4765625 -0.984375,1.40625 c -0.2578125,0.35156251 -0.4804687,0.57421876 -0.609375,0.57421876 -0.082031,0 -0.1992187,-0.0351563 -0.3164062,-0.10546875 -0.1523438,-0.09375 -0.28125,-0.12890625 -0.3867188,-0.12890625 -0.234375,0 -0.4101562,0.1875 -0.4101562,0.421875 0,0.31640625 0.234375,0.50390625 0.609375,0.50390625 0.3632812,0 0.515625,-0.10546875 1.1132812,-0.8203125 0.3164063,-0.39843751 0.5859375,-0.76171871 1.078125,-1.41796871 l 0.3632813,1.44140621 c 0.1523437,0.62109375 0.3046875,0.796875 0.6914062,0.796875 0.4570313,0 0.7734375,-0.28125 1.4648438,-1.35937501 z M 14.837695,0.10457031 H 13.700977 L 15.142383,-5.1102734 H 14.661914 L 9.6580078,0.05769531 9.4119141,0.86628906 H 12.552539 L 11.966602,2.9991016 h 0.949218 l 0.550782,-2.10937504 h 1.207031 z m -2.109375,0 h -2.542968 v -0.046875 l 3.644531,-3.82031251 h 0.04687 z m 0.729492,1.44140629 c 1.019532,-0.56250004 1.558594,-1.23046879 1.558594,-1.91015629 0,-0.48046875 -0.292969,-0.84375001 -0.691406,-0.84375001 -0.351563,0 -0.609375,0.23437501 -0.609375,0.55078126 0,0.22265625 0.07031,0.33984375 0.292969,0.55078125 0.1875,0.1640625 0.246093,0.2578125 0.246093,0.38671875 0,0.31640625 -0.269531,0.64453125 -0.902343,1.06640624 z M 16.575,-4.8055859 c 0.152344,-0.035156 0.246094,-0.046875 0.375,-0.046875 0.492187,0 0.726562,0.1992187 0.960937,0.84375 0.328125,0.890625 0.949219,3.45703121 0.949219,3.91406246 0,0.1875 -0.08203,0.38671875 -0.257812,0.609375 -0.328125,0.4453125 -0.609375,0.78515624 -0.75,0.93750004 -0.257813,0.2578125 -0.386719,0.3632812 -0.539063,0.3632812 -0.08203,0 -0.152344,-0.035156 -0.292969,-0.140625 C 16.844531,1.5342578 16.727344,1.4756641 16.575,1.4756641 c -0.257813,0 -0.46875,0.1992187 -0.46875,0.46875 0,0.3164062 0.257812,0.5273437 0.621094,0.5273437 0.761718,0 2.320312,-1.79296874 3.632812,-4.171875 0.820313,-1.4765625 1.148438,-2.34375 1.148438,-2.9296875 0,-0.3632812 -0.292969,-0.6679687 -0.65625,-0.6679687 -0.28125,0 -0.46875,0.1875 -0.46875,0.4453125 0,0.1992187 0.09375,0.3164062 0.339843,0.46875 0.222657,0.140625 0.304688,0.2460937 0.304688,0.4101562 0,0.4804688 -0.433594,1.40625 -1.464844,3.10546876 L 19.328906,-2.2626172 c -0.1875,-1.0664062 -0.855469,-3.0351562 -1.03125,-3.0351562 h -0.04687 c -0.02344,0.011719 -0.05859,0.011719 -0.117187,0.011719 -0.09375,0.011719 -0.539063,0.09375 -1.171875,0.2109375 -0.05859,0.011719 -0.210938,0.046875 -0.386719,0.070312 z m 10.561523,4.91015621 h -1.136718 l 1.441406,-5.21484371 h -0.480469 l -5.003906,5.16796871 -0.246094,0.80859375 h 3.140625 L 24.26543,2.9991016 h 0.949218 L 25.76543,0.88972656 h 1.207031 z m -2.109375,0 H 22.48418 v -0.046875 l 3.644531,-3.82031251 h 0.04687 z m 1.025391,2.05078129 c 1.488281,-1.28906254 2.097656,-2.07421879 2.636719,-3.3632813 0.339844,-0.796875 0.480469,-1.5585937 0.480469,-2.4492187 0,-0.6914063 -0.09375,-1.4414063 -0.269532,-2.1679688 -0.199218,-0.8085937 -0.375,-1.2421875 -0.914062,-2.203125 l -0.234375,0.058594 c 0.410156,0.9726562 0.585937,1.9453125 0.585937,3.140625 0,1.5234375 -0.410156,3.4570312 -1.007812,4.75781246 C 26.990039,0.70222676 26.626758,1.206133 25.888477,1.9795705 Z M 1.809375,91.79793 C 1.3640625,90.57918 1.2351562,89.840898 1.2351562,88.680742 c 0,-1.453125 0.328125,-3.164062 0.890625,-4.5 0.3984375,-0.949219 0.7734375,-1.511719 1.5585938,-2.332031 L 3.5203125,81.67293 c -1.5585938,1.417968 -2.1679688,2.203125 -2.671875,3.457031 -0.31640625,0.75 -0.4453125,1.488281 -0.4453125,2.414062 0,0.925782 0.140625,1.816407 0.41015625,2.648438 0.1640625,0.503906 0.35156245,0.890625 0.77343745,1.675781 z m 6.9140625,-3.433594 c -0.1054688,0.117187 -0.1640625,0.1875 -0.2695313,0.328125 -0.2695312,0.363281 -0.421875,0.480469 -0.5625,0.480469 -0.1640625,0 -0.28125,-0.152344 -0.3632812,-0.492188 -0.035156,-0.128906 -0.035156,-0.152344 -0.046875,-0.1875 -0.2929688,-1.230469 -0.4335938,-1.78125 -0.4335938,-1.957031 0.5390625,-0.9375 0.9609375,-1.453125 1.1835938,-1.453125 0.070312,0 0.1757812,0.03516 0.28125,0.09375 0.1523437,0.08203 0.234375,0.105469 0.3398437,0.105469 0.234375,0 0.4101563,-0.175782 0.4101563,-0.433594 0,-0.257813 -0.2109375,-0.445313 -0.4921875,-0.445313 -0.5273438,0 -0.9726563,0.433594 -1.8164063,1.722657 L 6.825,85.469805 C 6.6609375,84.649492 6.5203125,84.403398 6.2039062,84.403398 c -0.28125,0 -0.6679687,0.105469 -1.40625,0.351563 -0.070312,0.02344 -0.070312,0.02344 -0.1289062,0.04687 l 0.046875,0.1875 c 0.46875,-0.128906 0.5507812,-0.140625 0.6679687,-0.140625 0.3046875,0 0.375,0.117187 0.5390625,0.832031 l 0.3515625,1.476563 -0.984375,1.40625 c -0.2578125,0.351562 -0.4804687,0.574218 -0.609375,0.574218 -0.082031,0 -0.1992187,-0.03516 -0.3164062,-0.105468 -0.1523438,-0.09375 -0.28125,-0.128907 -0.3867188,-0.128907 -0.234375,0 -0.4101562,0.1875 -0.4101562,0.421875 0,0.316407 0.234375,0.503907 0.609375,0.503907 0.3632812,0 0.515625,-0.105469 1.1132812,-0.820313 C 5.60625,88.61043 5.8757812,88.247148 6.3679687,87.590898 L 6.73125,89.032305 c 0.1523437,0.621093 0.3046875,0.796875 0.6914062,0.796875 0.4570313,0 0.7734375,-0.28125 1.4648438,-1.359375 z m 1.0634766,4.335937 h 3.3515629 v -0.175781 h -0.210938 c -0.585937,0 -0.820312,-0.117187 -0.820312,-0.386719 0,-0.105468 0.03516,-0.292968 0.140625,-0.621093 0.02344,-0.09375 0.03516,-0.152344 0.07031,-0.269532 l 1.722656,-6.222656 c 0.05859,-0.222656 0.07031,-0.292969 0.07031,-0.351562 0,-0.04687 -0.02344,-0.08203 -0.05859,-0.08203 0,0 -0.339844,0.05859 -0.984375,0.1875 l -1.078125,0.222657 c -0.02344,0.01172 -0.117187,0.02344 -0.257812,0.04687 v 0.175781 l 0.679687,-0.02344 c 0.28125,-0.01172 0.457031,0.128907 0.457031,0.375 0,0.08203 -0.02344,0.164063 -0.08203,0.410157 l -1.652344,5.894531 c -0.140625,0.445312 -0.398437,0.5625 -1.3476559,0.65625 z m 3.4716799,-1.453125 c 1.019531,-0.5625 1.558593,-1.230468 1.558593,-1.910156 0,-0.480469 -0.292968,-0.84375 -0.691406,-0.84375 -0.351562,0 -0.609375,0.234375 -0.609375,0.550781 0,0.222657 0.07031,0.339844 0.292969,0.550782 0.1875,0.164062 0.246094,0.257812 0.246094,0.386718 0,0.316407 -0.269532,0.644532 -0.902344,1.066407 z m 3.117187,-6.351562 c 0.152344,-0.03516 0.246094,-0.04687 0.375,-0.04687 0.492188,0 0.726563,0.199219 0.960938,0.84375 0.328125,0.890625 0.949218,3.457031 0.949218,3.914062 0,0.1875 -0.08203,0.386719 -0.257812,0.609375 -0.328125,0.445313 -0.609375,0.785157 -0.75,0.9375 -0.257813,0.257813 -0.386719,0.363282 -0.539063,0.363282 -0.08203,0 -0.152343,-0.03516 -0.292968,-0.140625 -0.175782,-0.140625 -0.292969,-0.199219 -0.445313,-0.199219 -0.257812,0 -0.46875,0.199219 -0.46875,0.46875 0,0.316406 0.257813,0.527344 0.621094,0.527344 0.761719,0 2.320312,-1.792969 3.632812,-4.171875 0.820313,-1.476563 1.148438,-2.34375 1.148438,-2.929688 0,-0.363281 -0.292969,-0.667969 -0.65625,-0.667969 -0.28125,0 -0.46875,0.1875 -0.46875,0.445313 0,0.199219 0.09375,0.316406 0.339844,0.46875 0.222656,0.140625 0.304687,0.246094 0.304687,0.410156 0,0.480469 -0.433594,1.40625 -1.464844,3.105469 L 19.129687,87.43856 c -0.1875,-1.066407 -0.855468,-3.035157 -1.03125,-3.035157 h -0.04687 c -0.02344,0.01172 -0.05859,0.01172 -0.117187,0.01172 -0.09375,0.01172 -0.539063,0.09375 -1.171875,0.210938 -0.05859,0.01172 -0.210938,0.04687 -0.386719,0.07031 z m 5.809571,7.804687 h 3.351562 v -0.175781 h -0.210937 c -0.585938,0 -0.820313,-0.117187 -0.820313,-0.386719 0,-0.105468 0.03516,-0.292968 0.140625,-0.621093 0.02344,-0.09375 0.03516,-0.152344 0.07031,-0.269532 l 1.722656,-6.222656 c 0.05859,-0.222656 0.07031,-0.292969 0.07031,-0.351562 0,-0.04687 -0.02344,-0.08203 -0.05859,-0.08203 0,0 -0.339844,0.05859 -0.984375,0.1875 l -1.078125,0.222657 c -0.02344,0.01172 -0.117188,0.02344 -0.257813,0.04687 v 0.175781 l 0.679688,-0.02344 c 0.28125,-0.01172 0.457031,0.128907 0.457031,0.375 0,0.08203 -0.02344,0.164063 -0.08203,0.410157 l -1.652344,5.894531 c -0.140625,0.445312 -0.398438,0.5625 -1.347656,0.65625 z m 3.767578,-0.84375 c 1.488281,-1.289062 2.097656,-2.074218 2.636718,-3.363281 0.339844,-0.796875 0.480469,-1.558594 0.480469,-2.449219 0,-0.691406 -0.09375,-1.441406 -0.269531,-2.167968 -0.199219,-0.808594 -0.375,-1.242188 -0.914063,-2.203125 l -0.234375,0.05859 c 0.410157,0.972657 0.585938,1.945313 0.585938,3.140625 0,1.523438 -0.410156,3.457032 -1.007813,4.757813 -0.339843,0.773437 -0.703125,1.277344 -1.441406,2.050781 z M 192.40898,23.196367 c -0.44531,-1.21875 -0.57421,-1.957031 -0.57421,-3.117187 0,-1.453125 0.32812,-3.164063 0.89062,-4.5 0.39844,-0.949219 0.77344,-1.511719 1.55859,-2.332032 l -0.16406,-0.175781 c -1.55859,1.417969 -2.16797,2.203125 -2.67187,3.457031 -0.31641,0.75 -0.44532,1.488282 -0.44532,2.414063 0,0.925781 0.14063,1.816406 0.41016,2.648437 0.16406,0.503907 0.35156,0.890625 0.77344,1.675782 z m 6.91407,-3.433594 c -0.10547,0.117188 -0.16407,0.1875 -0.26953,0.328125 -0.26954,0.363282 -0.42188,0.480469 -0.5625,0.480469 -0.16407,0 -0.28125,-0.152344 -0.36329,-0.492187 -0.0352,-0.128907 -0.0352,-0.152344 -0.0469,-0.1875 -0.29297,-1.230469 -0.43359,-1.78125 -0.43359,-1.957032 0.53906,-0.9375 0.96093,-1.453125 1.18359,-1.453125 0.0703,0 0.17578,0.03516 0.28125,0.09375 0.15234,0.08203 0.23437,0.105469 0.33984,0.105469 0.23438,0 0.41016,-0.175781 0.41016,-0.433594 0,-0.257812 -0.21094,-0.445312 -0.49219,-0.445312 -0.52734,0 -0.97265,0.433594 -1.8164,1.722656 l -0.12891,-0.65625 c -0.16406,-0.820312 -0.30469,-1.066406 -0.62109,-1.066406 -0.28125,0 -0.66797,0.105469 -1.40625,0.351562 -0.0703,0.02344 -0.0703,0.02344 -0.12891,0.04687 l 0.0469,0.1875 c 0.46875,-0.128906 0.55079,-0.140625 0.66797,-0.140625 0.30469,0 0.375,0.117188 0.53907,0.832032 l 0.35156,1.476562 -0.98438,1.40625 c -0.25781,0.351563 -0.48047,0.574219 -0.60937,0.574219 -0.082,0 -0.19922,-0.03516 -0.31641,-0.105469 -0.15234,-0.09375 -0.28125,-0.128906 -0.38672,-0.128906 -0.23437,0 -0.41015,0.1875 -0.41015,0.421875 0,0.316406 0.23437,0.503906 0.60937,0.503906 0.36328,0 0.51563,-0.105469 1.11328,-0.820312 0.31641,-0.398438 0.58594,-0.761719 1.07813,-1.417969 l 0.36328,1.441406 c 0.15234,0.621094 0.30469,0.796875 0.69141,0.796875 0.45703,0 0.77343,-0.28125 1.46484,-1.359375 z m 2.61035,-2.472656 c 0.42187,-0.5625 0.83203,-0.796875 1.33594,-0.796875 0.64453,0 1.0664,0.433594 1.0664,1.089844 0,0.503906 -0.24609,0.9375 -0.76172,1.289062 -0.51562,0.339844 -1.04297,0.527344 -2.10937,0.703125 l 0.0117,0.1875 c 0.67968,0 0.79687,0.01172 1.11328,0.128907 0.72656,0.269531 1.11328,0.914062 1.11328,1.875 0,0.421875 -0.0937,0.855468 -0.26953,1.148437 -0.26953,0.480469 -0.8086,0.808594 -1.30078,0.808594 -0.23438,0 -0.49219,-0.117188 -0.85547,-0.386719 -0.35156,-0.246094 -0.53906,-0.328125 -0.77344,-0.328125 -0.32812,0 -0.52734,0.164063 -0.52734,0.46875 0,0.457031 0.48047,0.703125 1.34765,0.703125 0.66797,0 1.30078,-0.152344 1.79297,-0.445312 0.94922,-0.550782 1.54688,-1.558594 1.54688,-2.625 0,-0.878907 -0.35157,-1.417969 -1.14844,-1.792969 v -0.03516 c 1.44141,-0.5625 1.86328,-0.960938 1.86328,-1.769532 0,-0.878906 -0.70312,-1.523437 -1.67578,-1.523437 -0.83203,0 -1.57031,0.46875 -1.95703,1.242187 z m 1.9248,5.355469 c 1.01953,-0.5625 1.5586,-1.230469 1.5586,-1.910156 0,-0.480469 -0.29297,-0.84375 -0.69141,-0.84375 -0.35156,0 -0.60937,0.234375 -0.60937,0.550781 0,0.222656 0.0703,0.339844 0.29296,0.550781 0.1875,0.164063 0.2461,0.257813 0.2461,0.386719 0,0.316406 -0.26953,0.644531 -0.90235,1.066406 z m 3.11719,-6.351563 c 0.15234,-0.03516 0.24609,-0.04687 0.375,-0.04687 0.49219,0 0.72656,0.199219 0.96094,0.84375 0.32812,0.890625 0.94922,3.457032 0.94922,3.914063 0,0.1875 -0.082,0.386719 -0.25782,0.609375 -0.32812,0.445312 -0.60937,0.785156 -0.75,0.9375 -0.25781,0.257812 -0.38671,0.363281 -0.53906,0.363281 -0.082,0 -0.15234,-0.03516 -0.29297,-0.140625 -0.17578,-0.140625 -0.29297,-0.199219 -0.44531,-0.199219 -0.25781,0 -0.46875,0.199219 -0.46875,0.46875 0,0.316407 0.25781,0.527344 0.62109,0.527344 0.76172,0 2.32032,-1.792969 3.63282,-4.171875 0.82031,-1.476562 1.14843,-2.34375 1.14843,-2.929687 0,-0.363282 -0.29296,-0.667969 -0.65625,-0.667969 -0.28125,0 -0.46875,0.1875 -0.46875,0.445312 0,0.199219 0.0937,0.316407 0.33985,0.46875 0.22265,0.140625 0.30469,0.246094 0.30469,0.410157 0,0.480468 -0.4336,1.40625 -1.46485,3.105468 l -0.23437,-1.394531 c -0.1875,-1.066406 -0.85547,-3.035156 -1.03125,-3.035156 h -0.0469 c -0.0234,0.01172 -0.0586,0.01172 -0.11719,0.01172 -0.0937,0.01172 -0.53906,0.09375 -1.17187,0.210937 -0.0586,0.01172 -0.21094,0.04687 -0.38672,0.07031 z m 7.25684,0.996094 c 0.42187,-0.5625 0.83203,-0.796875 1.33593,-0.796875 0.64454,0 1.06641,0.433594 1.06641,1.089844 0,0.503906 -0.24609,0.9375 -0.76172,1.289062 -0.51562,0.339844 -1.04297,0.527344 -2.10937,0.703125 l 0.0117,0.1875 c 0.67968,0 0.79687,0.01172 1.11328,0.128907 0.72656,0.269531 1.11328,0.914062 1.11328,1.875 0,0.421875 -0.0937,0.855468 -0.26953,1.148437 -0.26953,0.480469 -0.8086,0.808594 -1.30078,0.808594 -0.23438,0 -0.49219,-0.117188 -0.85547,-0.386719 -0.35157,-0.246094 -0.53907,-0.328125 -0.77344,-0.328125 -0.32813,0 -0.52734,0.164063 -0.52734,0.46875 0,0.457031 0.48046,0.703125 1.34765,0.703125 0.66797,0 1.30078,-0.152344 1.79297,-0.445312 0.94922,-0.550782 1.54688,-1.558594 1.54688,-2.625 0,-0.878907 -0.35157,-1.417969 -1.14844,-1.792969 v -0.03516 c 1.4414,-0.5625 1.86328,-0.960938 1.86328,-1.769532 0,-0.878906 -0.70313,-1.523437 -1.67578,-1.523437 -0.83203,0 -1.57031,0.46875 -1.95703,1.242187 z m 2.2207,5.964844 c 1.48828,-1.289063 2.09766,-2.074219 2.63672,-3.363281 0.33984,-0.796875 0.48047,-1.558594 0.48047,-2.449219 0,-0.691406 -0.0937,-1.441406 -0.26953,-2.167969 -0.19922,-0.808594 -0.375,-1.242187 -0.91407,-2.203125 l -0.23437,0.05859 c 0.41015,0.972656 0.58594,1.945312 0.58594,3.140625 0,1.523437 -0.41016,3.457031 -1.00782,4.757812 -0.33984,0.773438 -0.70312,1.277344 -1.4414,2.050782 z m -24.44238,82.743169 c -0.44532,-1.21875 -0.57422,-1.95704 -0.57422,-3.11719 0,-1.45313 0.32812,-3.164065 0.89062,-4.500002 0.39844,-0.949219 0.77344,-1.511719 1.5586,-2.332032 l -0.16407,-0.175781 c -1.55859,1.417969 -2.16796,2.203125 -2.67187,3.457031 -0.31641,0.750004 -0.44531,1.488284 -0.44531,2.414064 0,0.92578 0.14062,1.81641 0.41015,2.64844 0.16407,0.5039 0.35157,0.89062 0.77344,1.67578 z m 6.91406,-3.4336 c -0.10547,0.11719 -0.16406,0.1875 -0.26953,0.32813 -0.26953,0.36328 -0.42188,0.48047 -0.5625,0.48047 -0.16406,0 -0.28125,-0.15235 -0.36328,-0.49219 -0.0352,-0.12891 -0.0352,-0.15235 -0.0469,-0.1875 -0.29297,-1.23047 -0.43359,-1.78125 -0.43359,-1.95703 0.53906,-0.937504 0.96094,-1.453129 1.18359,-1.453129 0.0703,0 0.17578,0.03516 0.28125,0.09375 0.15235,0.08203 0.23438,0.105469 0.33985,0.105469 0.23437,0 0.41015,-0.175781 0.41015,-0.433594 0,-0.257812 -0.21094,-0.445312 -0.49219,-0.445312 -0.52734,0 -0.97265,0.433594 -1.8164,1.722656 L 197.02617,99.67 c -0.16406,-0.820312 -0.30469,-1.066406 -0.62109,-1.066406 -0.28125,0 -0.66797,0.105469 -1.40625,0.351562 -0.0703,0.02344 -0.0703,0.02344 -0.12891,0.04687 l 0.0469,0.1875 c 0.46875,-0.128906 0.55078,-0.140625 0.66797,-0.140625 0.30468,0 0.375,0.117188 0.53906,0.832032 l 0.35156,1.476567 -0.98437,1.40625 c -0.25782,0.35156 -0.48047,0.57421 -0.60938,0.57421 -0.082,0 -0.19922,-0.0352 -0.31641,-0.10546 -0.15234,-0.0937 -0.28125,-0.12892 -0.38671,-0.12892 -0.23438,0 -0.41016,0.1875 -0.41016,0.42188 0,0.31642 0.23437,0.50392 0.60937,0.50392 0.36329,0 0.51563,-0.10547 1.11329,-0.82032 0.3164,-0.39843 0.58593,-0.76172 1.07812,-1.41797 l 0.36328,1.44141 c 0.15235,0.62109 0.30469,0.79688 0.69141,0.79688 0.45703,0 0.77344,-0.28125 1.46484,-1.35938 z m 5.2793,2.67188 c -0.28125,0.58593 -0.51563,0.72656 -1.19532,0.75 h -2.27343 v -0.0586 l 2.29687,-2.30859 c 1.40625,-1.39453 1.79297,-2.00391 1.79297,-2.80078 0,-1.136721 -0.85547,-2.027346 -1.94531,-2.027346 -0.4336,0 -0.87891,0.105469 -1.24219,0.304687 -0.60938,0.339844 -0.92578,0.75 -1.27734,1.617189 l 0.24609,0.082 c 0.44531,-0.78516 0.96094,-1.125 1.6875,-1.125 0.86719,0 1.5,0.62109 1.5,1.45313 0,0.25781 -0.0352,0.48046 -0.10547,0.64453 -0.29297,0.64453 -0.84375,1.40625 -1.62891,2.23828 l -2.51953,2.69531 v 0.19922 h 4.26563 l 0.59765,-1.58203 z m -0.74414,0.21093 c 1.01953,-0.5625 1.55859,-1.23046 1.55859,-1.91015 0,-0.48047 -0.29297,-0.84375 -0.69141,-0.84375 -0.35156,0 -0.60937,0.23437 -0.60937,0.55078 0,0.22266 0.0703,0.33984 0.29297,0.55078 0.1875,0.16406 0.24609,0.25781 0.24609,0.38672 0,0.31641 -0.26953,0.64453 -0.90234,1.06641 z m 3.11718,-6.351559 c 0.15235,-0.03516 0.2461,-0.04687 0.375,-0.04687 0.49219,0 0.72657,0.199219 0.96094,0.84375 0.32813,0.890629 0.94922,3.457029 0.94922,3.914069 0,0.1875 -0.082,0.38671 -0.25781,0.60937 -0.32813,0.44531 -0.60938,0.78516 -0.75,0.9375 -0.25782,0.25781 -0.38672,0.36329 -0.53907,0.36329 -0.082,0 -0.15234,-0.0352 -0.29296,-0.14063 -0.17579,-0.14062 -0.29297,-0.19922 -0.44532,-0.19922 -0.25781,0 -0.46875,0.19922 -0.46875,0.46875 0,0.31641 0.25782,0.52735 0.6211,0.52735 0.76172,0 2.32031,-1.79297 3.63281,-4.17188 0.82031,-1.47657 1.14844,-2.343755 1.14844,-2.929692 0,-0.363282 -0.29297,-0.667969 -0.65625,-0.667969 -0.28125,0 -0.46875,0.1875 -0.46875,0.445312 0,0.199219 0.0937,0.316407 0.33984,0.46875 0.22266,0.140625 0.30469,0.246094 0.30469,0.410157 0,0.480472 -0.4336,1.406242 -1.46485,3.105472 l -0.23437,-1.39453 c -0.1875,-1.06641 -0.85547,-3.035161 -1.03125,-3.035161 h -0.0469 c -0.0234,0.01172 -0.0586,0.01172 -0.11718,0.01172 -0.0937,0.01172 -0.53907,0.09375 -1.17188,0.210937 -0.0586,0.01172 -0.21094,0.04687 -0.38672,0.07031 z m 9.92871,6.140629 c -0.28125,0.58593 -0.51562,0.72656 -1.19531,0.75 h -2.27344 v -0.0586 l 2.29688,-2.30859 c 1.40625,-1.39453 1.79297,-2.00391 1.79297,-2.80078 0,-1.136721 -0.85547,-2.027346 -1.94531,-2.027346 -0.4336,0 -0.87891,0.105469 -1.24219,0.304687 -0.60938,0.339844 -0.92578,0.75 -1.27735,1.617189 l 0.2461,0.082 c 0.44531,-0.78516 0.96094,-1.125 1.6875,-1.125 0.86719,0 1.5,0.62109 1.5,1.45313 0,0.25781 -0.0352,0.48046 -0.10547,0.64453 -0.29297,0.64453 -0.84375,1.40625 -1.62891,2.23828 l -2.51953,2.69531 v 0.19922 h 4.26563 l 0.59765,-1.58203 z m -0.4541,0.82031 c 1.48828,-1.28906 2.09766,-2.07422 2.63672,-3.36328 0.33984,-0.79688 0.48047,-1.5586 0.48047,-2.44922 0,-0.691407 -0.0937,-1.441407 -0.26953,-2.16797 -0.19922,-0.808594 -0.375,-1.242187 -0.91406,-2.203125 l -0.23438,0.05859 c 0.41016,0.972656 0.58594,1.945312 0.58594,3.140625 0,1.52344 -0.41016,3.45704 -1.00781,4.75782 -0.33985,0.77343 -0.70313,1.27734 -1.44141,2.05078 z M 165.45,135.86629 h -0.96094 l 0.33985,-1.24219 c 0.0117,-0.0234 0.0117,-0.0469 0.0117,-0.0703 0,-0.0703 -0.0234,-0.10547 -0.0937,-0.10547 -0.0703,0 -0.11718,0.0117 -0.1875,0.10547 -0.46875,0.59766 -1.20703,1.21875 -1.59375,1.32422 -0.29296,0.0937 -0.38671,0.16406 -0.38671,0.29297 0,0.0117 0,0.0352 0.0117,0.0703 h 0.89063 l -0.86719,3.30469 c -0.0234,0.10547 -0.0351,0.15234 -0.0703,0.25781 -0.11719,0.38672 -0.19922,0.76172 -0.19922,0.87891 0,0.25781 0.24609,0.44531 0.57422,0.44531 0.55078,0 0.94922,-0.32813 1.69922,-1.45313 l -0.15235,-0.082 c -0.58593,0.76172 -0.77343,0.94922 -0.97265,0.94922 -0.10547,0 -0.17578,-0.082 -0.17578,-0.23437 0,-0.0117 0,-0.0117 0.0117,-0.0703 l 1.05468,-3.99609 h 1.00782 z m 0,0"
       style="fill:#231f20;fill-opacity:1;fill-rule:nonzero;stroke:none"
       aria-label="(x&#10;4&#10;,y&#10;4&#10;)&#10;(x&#10;1&#10;,y&#10;1&#10;)&#10;(x&#10;3&#10;,y&#10;3&#10;)&#10;(x&#10;2&#10;,y&#10;2&#10;)&#10;t"
       transform="matrix(1.3333333,0,0,1.3333333,81.9,40.606667)" />
    <path
       id="path9"
       d="m 2640.25,484.25 -135,-105"
       style="fill:none;stroke:#231f20;stroke-width:2.5;stroke-linecap:butt;stroke-linejoin:miter;stroke-miterlimit:3.8637;stroke-dasharray:none;stroke-opacity:1"
       transform="matrix(0.13333333,0,0,-0.13333333,0,256.64)" />
    <path
       id="path10"
       d="m 2507.25,381.25 9,-12 -38,-12 20,35 9,-11"
       style="fill:#231f20;fill-opacity:1;fill-rule:evenodd;stroke:none"
       transform="matrix(0.13333333,0,0,-0.13333333,0,256.64)" />
    <path
       id="path11"
       d="m 2219.25,156.25 134,105"
       style="fill:none;stroke:#231f20;stroke-width:2.5;stroke-linecap:butt;stroke-linejoin:miter;stroke-miterlimit:3.8637;stroke-dasharray:none;stroke-opacity:1"
       transform="matrix(0.13333333,0,0,-0.13333333,0,256.64)" />
    <path
       id="path12"
       d="m 2351.25,259.25 -9,12 39,11 -21,-35 -9,12"
       style="fill:#231f20;fill-opacity:1;fill-rule:evenodd;stroke:none"
       transform="matrix(0.13333333,0,0,-0.13333333,0,256.64)" />
    <path
       id="path13"
       d="m 2478.25,477.25 v -253"
       style="fill:none;stroke:#231f20;stroke-width:2.815;stroke-linecap:butt;stroke-linejoin:miter;stroke-miterlimit:3.8637;stroke-dasharray:none;stroke-opacity:1"
       transform="matrix(0.13333333,0,0,-0.13333333,0,256.64)" />
    <path
       id="path14"
       d="m 2381.25,401.25 v -253"
       style="fill:none;stroke:#231f20;stroke-width:2.815;stroke-linecap:butt;stroke-linejoin:miter;stroke-miterlimit:3.8637;stroke-dasharray:none;stroke-opacity:1"
       transform="matrix(0.13333333,0,0,-0.13333333,0,256.64)" />
    <path
       id="path15"
       d="m 3.690625,-0.93761719 c -0.421875,0.52734375 -0.5390625,0.6328125 -0.6679687,0.6328125 -0.058594,0 -0.082031,-0.046875 -0.082031,-0.140625 0,-0.046875 0,-0.046875 0.1523438,-0.62109371 l 0.6328125,-2.390625 H 3.128125 c -0.4335937,1.1835937 -0.515625,1.3828125 -0.8789062,1.9570312 -0.4804688,0.75000001 -0.8789063,1.16015626 -1.125,1.16015626 -0.1054688,0 -0.1757813,-0.0820313 -0.1757813,-0.19921875 0,-0.0234375 0,-0.046875 0.0117188,-0.0703125 l 0.7265625,-2.90625001 -0.023437,-0.011719 c -0.46875,0.1054687 -0.7617188,0.1523437 -1.19531255,0.2109375 v 0.1171875 c 0.31640625,0 0.31640625,0 0.3984375,0.046875 0.0351563,0.011719 0.0820313,0.082031 0.0820313,0.140625 0,0.070312 -0.046875,0.2695312 -0.1171875,0.5390625 l -0.2929688,1.1367187 C 0.3859375,-0.75011719 0.3390625,-0.49230469 0.3390625,-0.35167969 c 0,0.29296875 0.140625,0.4453125 0.421875,0.4453125 0.5625,0 0.9960938,-0.43359375 1.9101563,-1.98046871 -0.234375,0.8671875 -0.3632813,1.39453121 -0.3632813,1.57031246 0,0.2578125 0.1523438,0.38671875 0.3867188,0.38671875 0.375,0 0.5507812,-0.15234375 1.1015625,-0.9375 z M 10.3,-2.2501172 10.25313,-2.3321482 h -3 l -0.65625,1.0898437 0.1171875,0.070312 C 7.0773438,-1.6173047 7.3,-1.7344922 7.7804688,-1.7462109 H 9.55 l 0.023437,0.023437 -2.9414062,4.78125 h 0.5625 z M -9.5076172,-16.737422 c -0.421875,0.527344 -0.5390628,0.632813 -0.6679688,0.632813 -0.05859,0 -0.08203,-0.04687 -0.08203,-0.140625 0,-0.04687 0,-0.04687 0.152344,-0.621094 l 0.6328121,-2.390625 h -0.5976561 c -0.433594,1.183594 -0.515625,1.382812 -0.878906,1.957031 -0.480469,0.75 -0.878907,1.160156 -1.125,1.160156 -0.105469,0 -0.175782,-0.08203 -0.175782,-0.199218 0,-0.02344 0,-0.04687 0.01172,-0.07031 l 0.726563,-2.90625 -0.02344,-0.01172 c -0.46875,0.105469 -0.761719,0.152344 -1.195312,0.210938 v 0.117187 c 0.316406,0 0.316406,0 0.398437,0.04687 0.03516,0.01172 0.08203,0.08203 0.08203,0.140625 0,0.07031 -0.04687,0.269532 -0.117187,0.539063 l -0.292969,1.136719 c -0.152344,0.585937 -0.199219,0.84375 -0.199219,0.984375 0,0.292968 0.140625,0.445312 0.421875,0.445312 0.5625,0 0.996094,-0.433594 1.910157,-1.980469 -0.234375,0.867188 -0.363282,1.394532 -0.363282,1.570313 0,0.257812 0.152344,0.386719 0.386719,0.386719 0.375,0 0.5507813,-0.152344 1.1015626,-0.9375 z m 4.9453125,0.878906 c 0.9492188,-0.316406 1.3125,-0.65625 1.3125,-1.21875 0,-0.667968 -0.5859375,-1.136718 -1.40625,-1.136718 -0.8554687,0 -1.4414062,0.492187 -1.4414062,1.207031 0,0.433594 0.1640625,0.738281 0.703125,1.324219 -1.0078125,0.316406 -1.5703125,0.890625 -1.5703125,1.59375 0,0.210937 0.070312,0.457031 0.1875,0.65625 0.2695312,0.457031 0.75,0.691406 1.40625,0.691406 0.9960937,0 1.7226562,-0.621094 1.7226562,-1.441406 0,-0.539063 -0.234375,-0.972657 -0.9140625,-1.675782 z m -0.65625,0.304688 c 0.8789063,0.914062 0.9726563,1.054687 0.9726563,1.511719 0,0.644531 -0.4570313,1.125 -1.0898438,1.125 -0.6328125,0 -1.078125,-0.46875 -1.078125,-1.125 0,-0.667969 0.4335938,-1.21875 1.1953125,-1.511719 z m 0.5039063,-0.445313 c -0.6210938,-0.585937 -0.75,-0.785156 -0.75,-1.125 0,-0.5625 0.2929687,-0.902343 0.8085937,-0.902343 0.515625,0 0.8554688,0.375 0.8554688,0.949218 0,0.503907 -0.2109375,0.75 -0.9140625,1.078125 z M -130.30742,80.261602 c -0.42188,0.527343 -0.53906,0.632812 -0.66797,0.632812 -0.0586,0 -0.082,-0.04687 -0.082,-0.140625 0,-0.04687 0,-0.04687 0.15234,-0.621094 l 0.63281,-2.390625 h -0.59765 c -0.4336,1.183594 -0.51563,1.382813 -0.87891,1.957032 -0.48047,0.75 -0.8789,1.160156 -1.125,1.160156 -0.10547,0 -0.17578,-0.08203 -0.17578,-0.199219 0,-0.02344 0,-0.04687 0.0117,-0.07031 l 0.72656,-2.90625 -0.0234,-0.01172 c -0.46875,0.105469 -0.76171,0.152344 -1.19531,0.210937 v 0.117188 c 0.31641,0 0.31641,0 0.39844,0.04687 0.0352,0.01172 0.082,0.08203 0.082,0.140625 0,0.07031 -0.0469,0.269531 -0.11719,0.539062 l -0.29297,1.136719 c -0.15234,0.585938 -0.19921,0.84375 -0.19921,0.984375 0,0.292969 0.14062,0.445313 0.42187,0.445313 0.5625,0 0.99609,-0.433594 1.91016,-1.980469 -0.23438,0.867187 -0.36328,1.394531 -0.36328,1.570312 0,0.257813 0.15234,0.386719 0.38671,0.386719 0.375,0 0.55079,-0.152344 1.10157,-0.9375 z m 2.69531,3.9375 h 2.23828 v -0.117188 h -0.14062 c -0.38672,0 -0.55078,-0.07031 -0.55078,-0.257812 0,-0.07031 0.0234,-0.1875 0.0937,-0.421875 0.0234,-0.04687 0.0352,-0.09375 0.0586,-0.175782 l 1.13672,-4.148437 c 0.0469,-0.140625 0.0469,-0.199219 0.0469,-0.234375 0,-0.03516 -0.0117,-0.05859 -0.0352,-0.05859 0,0 -0.22266,0.04687 -0.65625,0.128906 l -0.72657,0.152344 c -0.0117,0 -0.0703,0.01172 -0.16406,0.02344 v 0.117187 l 0.45703,-0.01172 c 0.1875,-0.01172 0.30469,0.09375 0.30469,0.246094 0,0.05859 -0.0117,0.117188 -0.0586,0.28125 l -1.10157,3.9375 c -0.0937,0.292969 -0.26953,0.375 -0.90234,0.421875 z m -18.69726,-18.9375 c -0.42188,0.527343 -0.53907,0.632812 -0.66797,0.632812 -0.0586,0 -0.082,-0.04687 -0.082,-0.140625 0,-0.04687 0,-0.04687 0.15234,-0.621094 l 0.63281,-2.390625 h -0.59765 c -0.4336,1.183594 -0.51563,1.382813 -0.87891,1.957032 -0.48047,0.75 -0.87891,1.160156 -1.125,1.160156 -0.10547,0 -0.17578,-0.08203 -0.17578,-0.199219 0,-0.02344 0,-0.04687 0.0117,-0.07031 l 0.72656,-2.90625 -0.0234,-0.01172 c -0.46875,0.105469 -0.76172,0.152344 -1.19531,0.210937 v 0.117188 c 0.31641,0 0.31641,0 0.39844,0.04687 0.0351,0.01172 0.082,0.08203 0.082,0.140625 0,0.07031 -0.0469,0.269531 -0.11719,0.539062 l -0.29297,1.136719 c -0.15234,0.585938 -0.19922,0.84375 -0.19922,0.984375 0,0.292969 0.14063,0.445313 0.42188,0.445313 0.5625,0 0.99609,-0.433594 1.91015,-1.980469 -0.23437,0.867187 -0.36328,1.394531 -0.36328,1.570312 0,0.257813 0.15235,0.386719 0.38672,0.386719 0.375,0 0.55078,-0.152344 1.10156,-0.9375 z m 5.50781,2.824218 c -0.1875,0.398438 -0.33985,0.492188 -0.78516,0.503907 h -1.52344 v -0.03516 l 1.53516,-1.535156 c 0.9375,-0.9375 1.19531,-1.347656 1.19531,-1.875 0,-0.761719 -0.57422,-1.359375 -1.30078,-1.359375 -0.29297,0 -0.58594,0.07031 -0.82031,0.210938 -0.41016,0.222656 -0.63281,0.492187 -0.85547,1.078125 l 0.16406,0.04687 c 0.29297,-0.515625 0.64453,-0.75 1.125,-0.75 0.57422,0 0.9961,0.421875 0.9961,0.972656 0,0.175781 -0.0234,0.328125 -0.0703,0.433594 -0.19921,0.433593 -0.5625,0.9375 -1.07812,1.488281 l -1.6875,1.792969 v 0.140625 h 2.84766 l 0.39843,-1.054688 z M -9.1091797,65.46375 c -0.421875,0.527344 -0.5390625,0.632813 -0.6679687,0.632813 -0.058594,0 -0.082031,-0.04687 -0.082031,-0.140625 0,-0.04687 0,-0.04687 0.1523438,-0.621094 l 0.6328125,-2.390625 h -0.5976563 c -0.4335936,1.183594 -0.5156256,1.382812 -0.8789066,1.957031 -0.480469,0.75 -0.878906,1.160156 -1.125,1.160156 -0.105469,0 -0.175781,-0.08203 -0.175781,-0.199218 0,-0.02344 0,-0.04687 0.01172,-0.07031 l 0.726562,-2.90625 -0.02344,-0.01172 c -0.46875,0.105469 -0.761719,0.152344 -1.195313,0.210938 v 0.117187 c 0.316406,0 0.316406,0 0.398438,0.04687 0.03516,0.01172 0.08203,0.08203 0.08203,0.140625 0,0.07031 -0.04687,0.269531 -0.117188,0.539063 l -0.292968,1.136719 c -0.152344,0.585937 -0.199219,0.84375 -0.199219,0.984375 0,0.292968 0.140625,0.445312 0.421875,0.445312 0.5625,0 0.996094,-0.433594 1.910156,-1.980469 -0.234375,0.867188 -0.363281,1.394532 -0.363281,1.570313 0,0.257812 0.152344,0.386719 0.386719,0.386719 0.3749999,0 0.5507811,-0.152344 1.1015624,-0.9375 z m 4.21875,-0.820312 h 1.8398438 l 0.1757812,-0.574219 h -2.0390625 l -0.84375,1.746094 V 65.9325 c 0.7851563,0.175781 1.0429688,0.269531 1.3359375,0.503906 0.2578125,0.199219 0.421875,0.609375 0.421875,1.03125 0,0.867188 -0.6445312,1.652344 -1.3710937,1.652344 -0.1640625,0 -0.3046875,-0.05859 -0.5390625,-0.234375 -0.1992188,-0.152344 -0.328125,-0.199219 -0.4453125,-0.199219 -0.1875,0 -0.328125,0.128907 -0.328125,0.316407 0,0.28125 0.3164062,0.457031 0.8554687,0.457031 1.3125,0 2.3789063,-1.03125 2.3789063,-2.296875 0,-0.503906 -0.1875,-0.925781 -0.5273438,-1.253906 -0.3046875,-0.28125 -0.5859375,-0.410157 -1.2304687,-0.5625 z M -26.608203,108.46277 c -0.421875,0.52735 -0.539063,0.63282 -0.667969,0.63282 -0.05859,0 -0.08203,-0.0469 -0.08203,-0.14063 0,-0.0469 0,-0.0469 0.152344,-0.62109 l 0.632812,-2.39063 h -0.597656 c -0.433594,1.1836 -0.515625,1.38281 -0.878906,1.95703 -0.480469,0.75 -0.878907,1.16016 -1.125,1.16016 -0.105469,0 -0.175782,-0.082 -0.175782,-0.19922 0,-0.0234 0,-0.0469 0.01172,-0.0703 l 0.726563,-2.90625 -0.02344,-0.0117 c -0.46875,0.10547 -0.761719,0.15234 -1.195312,0.21094 v 0.11718 c 0.316406,0 0.316406,0 0.398437,0.0469 0.03516,0.0117 0.08203,0.082 0.08203,0.14062 0,0.0703 -0.04687,0.26954 -0.117187,0.53907 l -0.292969,1.13672 c -0.152344,0.58593 -0.199219,0.84375 -0.199219,0.98437 0,0.29297 0.140625,0.44531 0.421875,0.44531 0.5625,0 0.996094,-0.43359 1.910157,-1.98047 -0.234375,0.86719 -0.363282,1.39454 -0.363282,1.57032 0,0.25781 0.152344,0.38672 0.386719,0.38672 0.375,0 0.550781,-0.15235 1.101563,-0.9375 z m 6.568359,-1.55859 c -1.066406,0.12891 -1.605468,0.32812 -2.296875,0.83203 -1.007812,0.75 -1.628906,1.88672 -1.628906,3.03516 0,1.01953 0.585938,1.6875 1.464844,1.6875 1.078125,0 1.992187,-1.01953 1.992187,-2.22657 0,-0.82031 -0.574218,-1.40625 -1.359375,-1.40625 -0.222656,0 -0.492187,0.0586 -0.703125,0.16407 l -0.03516,-0.0117 c 0.550781,-1.01953 1.640625,-1.82813 2.578125,-1.94531 z m -2.085937,2.20312 c 0.550781,0 0.902344,0.39844 0.902344,1.01954 0,0.53906 -0.1875,1.17187 -0.492188,1.59375 -0.234375,0.36328 -0.515625,0.52734 -0.855469,0.52734 -0.492187,0 -0.785156,-0.38672 -0.785156,-1.04297 0,-0.55078 0.164063,-1.21875 0.375,-1.57031 0.210938,-0.36328 0.480469,-0.52735 0.855469,-0.52735 z m -143.381839,-0.3457 c -0.42187,0.52735 -0.53906,0.63281 -0.66797,0.63281 -0.0586,0 -0.082,-0.0469 -0.082,-0.14062 0,-0.0469 0,-0.0469 0.15235,-0.62109 l 0.63281,-2.39063 h -0.59766 c -0.43359,1.18359 -0.51562,1.38281 -0.8789,1.95703 -0.48047,0.75 -0.87891,1.16016 -1.125,1.16016 -0.10547,0 -0.17578,-0.082 -0.17578,-0.19922 0,-0.0234 0,-0.0469 0.0117,-0.0703 l 0.72657,-2.90625 -0.0234,-0.0117 c -0.46875,0.10547 -0.76172,0.15234 -1.19531,0.21094 v 0.11718 c 0.3164,0 0.3164,0 0.39843,0.0469 0.0352,0.0117 0.082,0.082 0.082,0.14062 0,0.0703 -0.0469,0.26953 -0.11719,0.53907 l -0.29297,1.13671 c -0.15234,0.58594 -0.19922,0.84375 -0.19922,0.98438 0,0.29297 0.14063,0.44531 0.42188,0.44531 0.5625,0 0.99609,-0.43359 1.91015,-1.98047 -0.23437,0.86719 -0.36328,1.39453 -0.36328,1.57032 0,0.25781 0.15234,0.38671 0.38672,0.38671 0.375,0 0.55078,-0.15234 1.10156,-0.9375 z m 3.73828,-0.59765 c 0.26954,-0.375 0.55079,-0.53907 0.87891,-0.53907 0.43359,0 0.71484,0.29297 0.71484,0.72657 0,0.33984 -0.16406,0.62109 -0.51562,0.85546 -0.33984,0.23438 -0.67969,0.35157 -1.39453,0.48047 l 0.0117,0.11719 c 0.44531,0 0.52734,0.0117 0.72656,0.082 0.49219,0.1875 0.75,0.6211 0.75,1.25391 0,0.28125 -0.0586,0.57422 -0.17578,0.76172 -0.1875,0.32812 -0.53906,0.55078 -0.86719,0.55078 -0.15234,0 -0.33984,-0.082 -0.57422,-0.25781 -0.23437,-0.16407 -0.36328,-0.22266 -0.51562,-0.22266 -0.22266,0 -0.35157,0.10547 -0.35157,0.30469 0,0.30468 0.32813,0.48047 0.90235,0.48047 0.44531,0 0.86719,-0.10547 1.19531,-0.29297 0.62109,-0.375 1.03125,-1.04297 1.03125,-1.75782 0,-0.58593 -0.23437,-0.94921 -0.76172,-1.19531 v -0.0234 c 0.96094,-0.375 1.24219,-0.64453 1.24219,-1.18359 0,-0.58594 -0.48047,-1.01953 -1.125,-1.01953 -0.55078,0 -1.04297,0.31641 -1.30078,0.83203 z M 3.7902344,84.163945 c -0.421875,0.527344 -0.5390625,0.632813 -0.6679688,0.632813 -0.058594,0 -0.082031,-0.04687 -0.082031,-0.140625 0,-0.04687 0,-0.04687 0.1523437,-0.621094 L 3.8253906,81.644414 H 3.2277344 c -0.4335938,1.183594 -0.515625,1.382813 -0.8789063,1.957031 -0.4804687,0.75 -0.8789062,1.160157 -1.125,1.160157 -0.1054687,0 -0.1757812,-0.08203 -0.1757812,-0.199219 0,-0.02344 0,-0.04687 0.011719,-0.07031 l 0.7265625,-2.90625 -0.023437,-0.01172 c -0.46875,0.105468 -0.7617187,0.152343 -1.19531247,0.210937 v 0.117188 c 0.31640625,0 0.31640625,0 0.3984375,0.04687 0.0351563,0.01172 0.0820313,0.08203 0.0820313,0.140625 0,0.07031 -0.046875,0.269531 -0.11718749,0.539062 l -0.29296875,1.136719 c -0.15234375,0.585937 -0.19921875,0.84375 -0.19921875,0.984375 0,0.292969 0.140625,0.445312 0.421875,0.445312 0.56249999,0 0.99609369,-0.433593 1.91015619,-1.980468 -0.234375,0.867187 -0.3632812,1.394531 -0.3632812,1.570312 0,0.257813 0.1523437,0.386719 0.3867187,0.386719 0.375,0 0.5507813,-0.152344 1.1015625,-0.9375 z m 5.9296875,2.003907 h -0.75 l 0.9609375,-3.480469 h -0.328125 l -3.3398438,3.457031 -0.1523437,0.527344 h 2.0976562 l -0.3984375,1.429687 h 0.6328125 l 0.375,-1.40625 h 0.796875 z m -1.40625,0 H 6.6144531 v -0.02344 l 2.4375,-2.554687 h 0.035156 z M -35.007617,27.363164 c -0.421875,0.527344 -0.539063,0.632813 -0.667969,0.632813 -0.05859,0 -0.08203,-0.04687 -0.08203,-0.140625 0,-0.04687 0,-0.04687 0.152344,-0.621094 l 0.632812,-2.390625 h -0.597656 c -0.433594,1.183594 -0.515625,1.382812 -0.878906,1.957031 -0.480469,0.75 -0.878907,1.160156 -1.125,1.160156 -0.105469,0 -0.175782,-0.08203 -0.175782,-0.199218 0,-0.02344 0,-0.04687 0.01172,-0.07031 l 0.726563,-2.90625 -0.02344,-0.01172 c -0.46875,0.105469 -0.761719,0.152344 -1.195312,0.210938 v 0.117187 c 0.316406,0 0.316406,0 0.398437,0.04687 0.03516,0.01172 0.08203,0.08203 0.08203,0.140625 0,0.07031 -0.04687,0.269532 -0.117187,0.539063 l -0.292969,1.136719 c -0.152344,0.585937 -0.199219,0.84375 -0.199219,0.984375 0,0.292968 0.140625,0.445312 0.421875,0.445312 0.5625,0 0.996094,-0.433594 1.910157,-1.980469 -0.234375,0.867188 -0.363282,1.394532 -0.363282,1.570313 0,0.257812 0.152344,0.386719 0.386719,0.386719 0.375,0 0.550781,-0.152344 1.101563,-0.9375 z m 2.496094,4.078125 c 1.078125,-0.1875 1.617187,-0.410156 2.273437,-0.925781 0.9375,-0.738281 1.476563,-1.804688 1.476563,-2.882813 0,-1.054687 -0.574219,-1.746093 -1.453125,-1.746093 -1.007813,0 -1.933594,1.03125 -1.933594,2.144531 0,0.84375 0.492187,1.441406 1.207031,1.441406 0.328125,0 0.597656,-0.105469 1.03125,-0.363281 l 0.02344,0.01172 c -0.128907,0.375 -0.527344,0.890625 -1.019532,1.335937 -0.585937,0.492188 -0.972656,0.703125 -1.605468,0.832031 z m 2.355468,-5.34375 c 0.503907,0 0.796875,0.398438 0.796875,1.054688 0,0.621093 -0.199218,1.371093 -0.445312,1.605468 -0.210938,0.210938 -0.539063,0.339844 -0.832031,0.339844 -0.515625,0 -0.808594,-0.398437 -0.808594,-1.113281 0,-0.585938 0.234375,-1.230469 0.574219,-1.582031 0.199218,-0.199219 0.445312,-0.304688 0.714843,-0.304688 z M -131.10723,-3.3370313 c -0.42187,0.5273438 -0.53906,0.6328125 -0.66797,0.6328125 -0.0586,0 -0.082,-0.046875 -0.082,-0.140625 0,-0.046875 0,-0.046875 0.15235,-0.6210937 l 0.63281,-2.390625 h -0.59766 c -0.43359,1.1835937 -0.51562,1.3828125 -0.8789,1.9570312 -0.48047,0.75 -0.87891,1.1601563 -1.125,1.1601563 -0.10547,0 -0.17578,-0.082031 -0.17578,-0.1992188 0,-0.023437 0,-0.046875 0.0117,-0.070312 l 0.72657,-2.90625 -0.0234,-0.011719 c -0.46875,0.1054687 -0.76172,0.1523437 -1.19531,0.2109375 V -5.59875 c 0.3164,0 0.3164,0 0.39843,0.046875 0.0352,0.011719 0.082,0.082031 0.082,0.140625 0,0.070312 -0.0469,0.2695312 -0.11719,0.5390625 l -0.29297,1.1367187 c -0.15234,0.5859375 -0.19922,0.84375 -0.19922,0.984375 0,0.2929688 0.14063,0.4453125 0.42188,0.4453125 0.5625,0 0.99609,-0.4335937 1.91015,-1.9804687 -0.23437,0.8671875 -0.36328,1.3945312 -0.36328,1.5703125 0,0.2578125 0.15234,0.3867187 0.38672,0.3867187 0.375,0 0.55078,-0.1523437 1.10156,-0.9375 z m 2.69532,3.93750005 h 2.23828 v -0.1171875 h -0.14063 c -0.38672,0 -0.55078,-0.0703125 -0.55078,-0.2578125 0,-0.0703125 0.0234,-0.1875 0.0937,-0.421875 0.0234,-0.046875 0.0352,-0.09375 0.0586,-0.17578125 l 1.13672,-4.1484375 c 0.0469,-0.140625 0.0469,-0.1992188 0.0469,-0.234375 0,-0.035156 -0.0117,-0.058594 -0.0352,-0.058594 0,0 -0.22265,0.046875 -0.65625,0.1289063 l -0.72656,0.1523437 c -0.0117,0 -0.0703,0.011719 -0.16406,0.023437 v 0.1171875 l 0.45703,-0.011719 c 0.1875,-0.011719 0.30469,0.09375 0.30469,0.2460937 0,0.058594 -0.0117,0.1171875 -0.0586,0.28125 l -1.10156,3.93750005 c -0.0937,0.29296875 -0.26953,0.375 -0.90234,0.421875 z m 6.34277,-5.41406255 c -1.25391,0 -2.47266,1.828125 -2.47266,3.7148438 0,1.0546875 0.51563,1.7578125 1.28907,1.7578125 0.33984,0 0.67968,-0.1171875 1.01953,-0.375 0.80859,-0.5859375 1.40625,-1.921875 1.40625,-3.0703125 0,-1.265625 -0.46875,-2.0273438 -1.24219,-2.0273438 z m -0.0469,0.2226563 c 0.42188,0 0.65625,0.375 0.65625,1.0078125 0,1.078125 -0.3164,2.4023437 -0.77343,3.2109375 -0.30469,0.52734375 -0.63282,0.80859375 -0.9961,0.80859375 -0.42187,0 -0.67968,-0.3984375 -0.67968,-1.08984375 0,-0.8554688 0.41015,-2.4257813 0.82031,-3.1757813 0.29297,-0.5039062 0.59765,-0.7617187 0.97265,-0.7617187 z M -177.3084,27.163945 c -0.42187,0.527344 -0.53906,0.632813 -0.66797,0.632813 -0.0586,0 -0.082,-0.04687 -0.082,-0.140625 0,-0.04687 0,-0.04687 0.15235,-0.621094 l 0.63281,-2.390625 h -0.59766 c -0.43359,1.183594 -0.51562,1.382813 -0.8789,1.957031 -0.48047,0.75 -0.87891,1.160157 -1.125,1.160157 -0.10547,0 -0.17579,-0.08203 -0.17579,-0.199219 0,-0.02344 0,-0.04687 0.0117,-0.07031 l 0.72657,-2.90625 -0.0234,-0.01172 c -0.46875,0.105468 -0.76172,0.152343 -1.19531,0.210937 v 0.117188 c 0.3164,0 0.3164,0 0.39843,0.04687 0.0352,0.01172 0.082,0.08203 0.082,0.140625 0,0.07031 -0.0469,0.269531 -0.11718,0.539062 l -0.29297,1.136719 c -0.15235,0.585937 -0.19922,0.84375 -0.19922,0.984375 0,0.292969 0.14062,0.445312 0.42187,0.445312 0.5625,0 0.9961,-0.433593 1.91016,-1.980468 -0.23437,0.867187 -0.36328,1.394531 -0.36328,1.570312 0,0.257813 0.15234,0.386719 0.38672,0.386719 0.375,0 0.55078,-0.152344 1.10156,-0.9375 z m 2.69531,3.9375 h 2.23829 v -0.117187 h -0.14063 c -0.38672,0 -0.55078,-0.07031 -0.55078,-0.257813 0,-0.07031 0.0234,-0.1875 0.0937,-0.421875 0.0234,-0.04687 0.0352,-0.09375 0.0586,-0.175781 l 1.13672,-4.148437 c 0.0469,-0.140625 0.0469,-0.199219 0.0469,-0.234375 0,-0.03516 -0.0117,-0.05859 -0.0352,-0.05859 0,0 -0.22266,0.04687 -0.65625,0.128906 l -0.72656,0.152344 c -0.0117,0 -0.0703,0.01172 -0.16406,0.02344 v 0.117188 l 0.45703,-0.01172 c 0.1875,-0.01172 0.30468,0.09375 0.30468,0.246094 0,0.05859 -0.0117,0.117187 -0.0586,0.28125 l -1.10156,3.9375 c -0.0937,0.292969 -0.26953,0.375 -0.90235,0.421875 z m 6.81153,-1.113281 c -0.1875,0.398438 -0.33985,0.492188 -0.78516,0.503906 h -1.52344 v -0.03516 l 1.53516,-1.535156 c 0.9375,-0.9375 1.19531,-1.347656 1.19531,-1.875 0,-0.761719 -0.57422,-1.359375 -1.30078,-1.359375 -0.29297,0 -0.58594,0.07031 -0.82031,0.210937 -0.41016,0.222657 -0.63281,0.492188 -0.85547,1.078125 l 0.16406,0.04687 c 0.29297,-0.515625 0.64453,-0.75 1.125,-0.75 0.57422,0 0.9961,0.421875 0.9961,0.972657 0,0.175781 -0.0234,0.328125 -0.0703,0.433593 -0.19921,0.433594 -0.5625,0.9375 -1.07812,1.488282 l -1.6875,1.792968 v 0.140625 h 2.84766 l 0.39843,-1.054687 z m 20.69238,-47.024414 c -0.42187,0.527344 -0.53906,0.632812 -0.66797,0.632812 -0.0586,0 -0.082,-0.04687 -0.082,-0.140625 0,-0.04687 0,-0.04687 0.15234,-0.621093 l 0.63282,-2.390625 h -0.59766 c -0.43359,1.183593 -0.51562,1.382812 -0.87891,1.957031 -0.48046,0.75 -0.8789,1.160156 -1.125,1.160156 -0.10546,0 -0.17578,-0.08203 -0.17578,-0.199219 0,-0.02344 0,-0.04687 0.0117,-0.07031 l 0.72656,-2.90625 -0.0234,-0.01172 c -0.46875,0.105469 -0.76172,0.152344 -1.19532,0.210938 v 0.117187 c 0.31641,0 0.31641,0 0.39844,0.04687 0.0352,0.01172 0.082,0.08203 0.082,0.140625 0,0.07031 -0.0469,0.269531 -0.11718,0.539063 l -0.29297,1.136718 c -0.15235,0.585938 -0.19922,0.84375 -0.19922,0.984375 0,0.292969 0.14062,0.445313 0.42187,0.445313 0.5625,0 0.9961,-0.433594 1.91016,-1.980469 -0.23438,0.867188 -0.36328,1.394531 -0.36328,1.570313 0,0.257812 0.15234,0.386718 0.38672,0.386718 0.375,0 0.55078,-0.152343 1.10156,-0.9375 z m 2.69531,3.9375 h 2.23828 v -0.117188 h -0.14062 c -0.38672,0 -0.55078,-0.07031 -0.55078,-0.257812 0,-0.07031 0.0234,-0.1875 0.0937,-0.421875 0.0234,-0.04687 0.0351,-0.09375 0.0586,-0.175781 l 1.13672,-4.148438 c 0.0469,-0.140625 0.0469,-0.199219 0.0469,-0.234375 0,-0.03516 -0.0117,-0.05859 -0.0352,-0.05859 0,0 -0.22266,0.04687 -0.65625,0.128907 l -0.72656,0.152343 c -0.0117,0 -0.0703,0.01172 -0.16407,0.02344 v 0.117187 l 0.45704,-0.01172 c 0.1875,-0.01172 0.30468,0.09375 0.30468,0.246093 0,0.05859 -0.0117,0.117188 -0.0586,0.28125 l -1.10156,3.9375 c -0.0937,0.292969 -0.26953,0.375 -0.90235,0.421875 z m 3.50098,0 h 2.23828 v -0.117188 h -0.14062 c -0.38672,0 -0.55079,-0.07031 -0.55079,-0.257812 0,-0.07031 0.0234,-0.1875 0.0937,-0.421875 0.0234,-0.04687 0.0352,-0.09375 0.0586,-0.175781 l 1.13672,-4.148438 c 0.0469,-0.140625 0.0469,-0.199219 0.0469,-0.234375 0,-0.03516 -0.0117,-0.05859 -0.0352,-0.05859 0,0 -0.22266,0.04687 -0.65625,0.128907 l -0.72657,0.152343 c -0.0117,0 -0.0703,0.01172 -0.16406,0.02344 v 0.117187 l 0.45703,-0.01172 c 0.1875,-0.01172 0.30469,0.09375 0.30469,0.246093 0,0.05859 -0.0117,0.117188 -0.0586,0.28125 l -1.10157,3.9375 c -0.0937,0.292969 -0.26953,0.375 -0.90234,0.421875 z m 0,0"
       style="fill:#231f20;fill-opacity:1;fill-rule:nonzero;stroke:none"
       aria-label="u&#10;7&#10;u&#10;8&#10;u&#10;1&#10;u&#10;2&#10;u&#10;5&#10;u&#10;6&#10;u&#10;3&#10;u&#10;4&#10;u&#10;9&#10;u&#10;10&#10;u&#10;12&#10;u&#10;11"
       transform="matrix(1.3333333,0,0,1.3333333,351.76667,38.34)" />
    <path
       id="path16"
       d="m 1011.25,1547.25 h 1372 v -857 h -1372 z"
       style="fill:none;stroke:#231f20;stroke-width:5;stroke-linecap:butt;stroke-linejoin:miter;stroke-miterlimit:3.8637;stroke-dasharray:none;stroke-opacity:1"
       transform="matrix(0.13333333,0,0,-0.13333333,0,256.64)" />
    <path
       id="path17"
       d="m 2483.25,1614.25 v -834"
       style="fill:none;stroke:#231f20;stroke-width:5;stroke-linecap:butt;stroke-linejoin:miter;stroke-miterlimit:3.8637;stroke-dasharray:none;stroke-opacity:1"
       transform="matrix(0.13333333,0,0,-0.13333333,0,256.64)" />
    <path
       id="path18"
       d="m 1105.25,1614.25 h 1378"
       style="fill:none;stroke:#231f20;stroke-width:5;stroke-linecap:butt;stroke-linejoin:miter;stroke-miterlimit:3.8637;stroke-dasharray:none;stroke-opacity:1"
       transform="matrix(0.13333333,0,0,-0.13333333,0,256.64)" />
    <path
       id="path19"
       d="m 2483.25,780.25 h -1378"
       style="fill:none;stroke:#231f20;stroke-width:5;stroke-linecap:butt;stroke-linejoin:miter;stroke-miterlimit:3.8637;stroke-dasharray:20, 20;stroke-dashoffset:0;stroke-opacity:1"
       transform="matrix(0.13333333,0,0,-0.13333333,0,256.64)" />
    <path
       id="path20"
       d="m 1105.25,780.25 v 834"
       style="fill:none;stroke:#231f20;stroke-width:5;stroke-linecap:butt;stroke-linejoin:miter;stroke-miterlimit:3.8637;stroke-dasharray:20, 20;stroke-dashoffset:0;stroke-opacity:1"
       transform="matrix(0.13333333,0,0,-0.13333333,0,256.64)" />
    <path
       id="path21"
       d="m 1105.25,780.25 -94,-90"
       style="fill:none;stroke:#231f20;stroke-width:6.046;stroke-linecap:butt;stroke-linejoin:miter;stroke-miterlimit:3.8637;stroke-dasharray:20, 20;stroke-dashoffset:0;stroke-opacity:1"
       transform="matrix(0.13333333,0,0,-0.13333333,0,256.64)" />
    <path
       id="path22"
       d="m 1011.25,1547.25 94,67"
       style="fill:none;stroke:#231f20;stroke-width:6.046;stroke-linecap:butt;stroke-linejoin:miter;stroke-miterlimit:3.8637;stroke-dasharray:none;stroke-opacity:1"
       transform="matrix(0.13333333,0,0,-0.13333333,0,256.64)" />
    <path
       id="path23"
       d="m 2383.25,1547.25 100,67"
       style="fill:none;stroke:#231f20;stroke-width:6.046;stroke-linecap:butt;stroke-linejoin:miter;stroke-miterlimit:3.8637;stroke-dasharray:none;stroke-opacity:1"
       transform="matrix(0.13333333,0,0,-0.13333333,0,256.64)" />
    <path
       id="path24"
       d="m 2483.25,780.25 -100,-90"
       style="fill:none;stroke:#231f20;stroke-width:6.046;stroke-linecap:butt;stroke-linejoin:miter;stroke-miterlimit:3.8637;stroke-dasharray:none;stroke-opacity:1"
       transform="matrix(0.13333333,0,0,-0.13333333,0,256.64)" />
    <path
       id="path25"
       d="m 1065.25,1806.25 v -11"
       style="fill:none;stroke:#231f20;stroke-width:2.5;stroke-linecap:butt;stroke-linejoin:miter;stroke-miterlimit:3.8637;stroke-dasharray:none;stroke-opacity:1"
       transform="matrix(0.13333333,0,0,-0.13333333,0,256.64)" />
    <path
       id="path26"
       d="m 1065.25,1803.25 h -15 l 15,38 15,-38 h -15"
       style="fill:#231f20;fill-opacity:1;fill-rule:evenodd;stroke:none"
       transform="matrix(0.13333333,0,0,-0.13333333,0,256.64)" />
    <path
       id="path27"
       d="m 1276.25,1582.25 h 13"
       style="fill:none;stroke:#231f20;stroke-width:2.5;stroke-linecap:butt;stroke-linejoin:miter;stroke-miterlimit:3.8637;stroke-dasharray:none;stroke-opacity:1"
       transform="matrix(0.13333333,0,0,-0.13333333,0,256.64)" />
    <path
       id="path28"
       d="m 1286.25,1582.25 v 15 l 38,-15 -38,-15 v 15"
       style="fill:#231f20;fill-opacity:1;fill-rule:evenodd;stroke:none"
       transform="matrix(0.13333333,0,0,-0.13333333,0,256.64)" />
    <path
       id="path29"
       d="m 1064.25,1582.25 -135,-104"
       style="fill:none;stroke:#231f20;stroke-width:2.5;stroke-linecap:butt;stroke-linejoin:miter;stroke-miterlimit:3.8637;stroke-dasharray:none;stroke-opacity:1"
       transform="matrix(0.13333333,0,0,-0.13333333,0,256.64)" />
    <path
       id="path30"
       d="m 931.25,1479.25 10,-12 -39,-11 20,35 9,-12"
       style="fill:#231f20;fill-opacity:1;fill-rule:evenodd;stroke:none"
       transform="matrix(0.13333333,0,0,-0.13333333,0,256.64)" />
    <path
       id="path31"
       d="m 1064.25,1841.25 v -259"
       style="fill:none;stroke:#231f20;stroke-width:2.5;stroke-linecap:butt;stroke-linejoin:miter;stroke-miterlimit:3.8637;stroke-dasharray:none;stroke-opacity:1"
       transform="matrix(0.13333333,0,0,-0.13333333,0,256.64)" />
    <path
       id="path32"
       d="m 1064.25,1838.25 h -15 l 15,38 15,-38 h -15"
       style="fill:#231f20;fill-opacity:1;fill-rule:evenodd;stroke:none"
       transform="matrix(0.13333333,0,0,-0.13333333,0,256.64)" />
    <path
       id="path33"
       d="m 1064.25,1582.25 h 259"
       style="fill:none;stroke:#231f20;stroke-width:2.5;stroke-linecap:butt;stroke-linejoin:miter;stroke-miterlimit:3.8637;stroke-dasharray:none;stroke-opacity:1"
       transform="matrix(0.13333333,0,0,-0.13333333,0,256.64)" />
    <path
       id="path34"
       d="m 1320.25,1582.25 v 15 l 38,-15 -38,-15 v 15"
       style="fill:#231f20;fill-opacity:1;fill-rule:evenodd;stroke:none"
       transform="matrix(0.13333333,0,0,-0.13333333,0,256.64)" />
    <path
       id="path35"
       d="m 1065.25,959.25 v -11"
       style="fill:none;stroke:#231f20;stroke-width:2.5;stroke-linecap:butt;stroke-linejoin:miter;stroke-miterlimit:3.8637;stroke-dasharray:none;stroke-opacity:1"
       transform="matrix(0.13333333,0,0,-0.13333333,0,256.64)" />
    <path
       id="path36"
       d="m 1065.25,957.25 h -15 l 15,37 15,-37 h -15"
       style="fill:#231f20;fill-opacity:1;fill-rule:evenodd;stroke:none"
       transform="matrix(0.13333333,0,0,-0.13333333,0,256.64)" />
    <path
       id="path37"
       d="m 1276.25,736.25 h 13"
       style="fill:none;stroke:#231f20;stroke-width:2.5;stroke-linecap:butt;stroke-linejoin:miter;stroke-miterlimit:3.8637;stroke-dasharray:none;stroke-opacity:1"
       transform="matrix(0.13333333,0,0,-0.13333333,0,256.64)" />
    <path
       id="path38"
       d="m 1286.25,736.25 v 15 l 38,-15 -38,-15 v 15"
       style="fill:#231f20;fill-opacity:1;fill-rule:evenodd;stroke:none"
       transform="matrix(0.13333333,0,0,-0.13333333,0,256.64)" />
    <path
       id="path39"
       d="m 1064.25,736.25 -135,-105"
       style="fill:none;stroke:#231f20;stroke-width:2.5;stroke-linecap:butt;stroke-linejoin:miter;stroke-miterlimit:3.8637;stroke-dasharray:none;stroke-opacity:1"
       transform="matrix(0.13333333,0,0,-0.13333333,0,256.64)" />
    <path
       id="path40"
       d="m 931.25,633.25 10,-12 -39,-11 20,34 9,-11"
       style="fill:#231f20;fill-opacity:1;fill-rule:evenodd;stroke:none"
       transform="matrix(0.13333333,0,0,-0.13333333,0,256.64)" />
    <path
       id="path41"
       d="m 1064.25,994.25 v -258"
       style="fill:none;stroke:#231f20;stroke-width:2.5;stroke-linecap:butt;stroke-linejoin:miter;stroke-miterlimit:3.8637;stroke-dasharray:none;stroke-opacity:1"
       transform="matrix(0.13333333,0,0,-0.13333333,0,256.64)" />
    <path
       id="path42"
       d="m 1064.25,992.25 h -15 l 15,37 15,-37 h -15"
       style="fill:#231f20;fill-opacity:1;fill-rule:evenodd;stroke:none"
       transform="matrix(0.13333333,0,0,-0.13333333,0,256.64)" />
    <path
       id="path43"
       d="m 1064.25,736.25 h 259"
       style="fill:none;stroke:#231f20;stroke-width:2.5;stroke-linecap:butt;stroke-linejoin:miter;stroke-miterlimit:3.8637;stroke-dasharray:none;stroke-opacity:1"
       transform="matrix(0.13333333,0,0,-0.13333333,0,256.64)" />
    <path
       id="path44"
       d="m 1320.25,736.25 v 15 l 38,-15 -38,-15 v 15"
       style="fill:#231f20;fill-opacity:1;fill-rule:evenodd;stroke:none"
       transform="matrix(0.13333333,0,0,-0.13333333,0,256.64)" />
    <path
       id="path45"
       d="m 2417.25,1790.25 v -10"
       style="fill:none;stroke:#231f20;stroke-width:2.5;stroke-linecap:butt;stroke-linejoin:miter;stroke-miterlimit:3.8637;stroke-dasharray:none;stroke-opacity:1"
       transform="matrix(0.13333333,0,0,-0.13333333,0,256.64)" />
    <path
       id="path46"
       d="m 2417.25,1788.25 h -15 l 15,37 15,-37 h -15"
       style="fill:#231f20;fill-opacity:1;fill-rule:evenodd;stroke:none"
       transform="matrix(0.13333333,0,0,-0.13333333,0,256.64)" />
    <path
       id="path47"
       d="m 2627.25,1567.25 h 14"
       style="fill:none;stroke:#231f20;stroke-width:2.5;stroke-linecap:butt;stroke-linejoin:miter;stroke-miterlimit:3.8637;stroke-dasharray:none;stroke-opacity:1"
       transform="matrix(0.13333333,0,0,-0.13333333,0,256.64)" />
    <path
       id="path48"
       d="m 2638.25,1567.25 v 15 l 38,-15 -38,-15 v 15"
       style="fill:#231f20;fill-opacity:1;fill-rule:evenodd;stroke:none"
       transform="matrix(0.13333333,0,0,-0.13333333,0,256.64)" />
    <path
       id="path49"
       d="m 2416.25,1567.25 -135,-105"
       style="fill:none;stroke:#231f20;stroke-width:2.5;stroke-linecap:butt;stroke-linejoin:miter;stroke-miterlimit:3.8637;stroke-dasharray:none;stroke-opacity:1"
       transform="matrix(0.13333333,0,0,-0.13333333,0,256.64)" />
    <path
       id="path50"
       d="m 2283.25,1464.25 10,-12 -39,-11 20,35 9,-12"
       style="fill:#231f20;fill-opacity:1;fill-rule:evenodd;stroke:none"
       transform="matrix(0.13333333,0,0,-0.13333333,0,256.64)" />
    <path
       id="path51"
       d="m 2416.25,1825.25 v -258"
       style="fill:none;stroke:#231f20;stroke-width:2.5;stroke-linecap:butt;stroke-linejoin:miter;stroke-miterlimit:3.8637;stroke-dasharray:none;stroke-opacity:1"
       transform="matrix(0.13333333,0,0,-0.13333333,0,256.64)" />
    <path
       id="path52"
       d="m 2416.25,1823.25 h -15 l 15,37 15,-37 h -15"
       style="fill:#231f20;fill-opacity:1;fill-rule:evenodd;stroke:none"
       transform="matrix(0.13333333,0,0,-0.13333333,0,256.64)" />
    <path
       id="path53"
       d="m 2416.25,1567.25 h 259"
       style="fill:none;stroke:#231f20;stroke-width:2.5;stroke-linecap:butt;stroke-linejoin:miter;stroke-miterlimit:3.8637;stroke-dasharray:none;stroke-opacity:1"
       transform="matrix(0.13333333,0,0,-0.13333333,0,256.64)" />
    <path
       id="path54"
       d="m 2672.25,1567.25 v 15 l 38,-15 -38,-15 v 15"
       style="fill:#231f20;fill-opacity:1;fill-rule:evenodd;stroke:none"
       transform="matrix(0.13333333,0,0,-0.13333333,0,256.64)" />
    <path
       id="path55"
       d="m 2428.25,955.25 v -11"
       style="fill:none;stroke:#231f20;stroke-width:2.5;stroke-linecap:butt;stroke-linejoin:miter;stroke-miterlimit:3.8637;stroke-dasharray:none;stroke-opacity:1"
       transform="matrix(0.13333333,0,0,-0.13333333,0,256.64)" />
    <path
       id="path56"
       d="m 2428.25,953.25 h -15 l 15,37 15,-37 h -15"
       style="fill:#231f20;fill-opacity:1;fill-rule:evenodd;stroke:none"
       transform="matrix(0.13333333,0,0,-0.13333333,0,256.64)" />
    <path
       id="path57"
       d="m 2639.25,732.25 h 13"
       style="fill:none;stroke:#231f20;stroke-width:2.5;stroke-linecap:butt;stroke-linejoin:miter;stroke-miterlimit:3.8637;stroke-dasharray:none;stroke-opacity:1"
       transform="matrix(0.13333333,0,0,-0.13333333,0,256.64)" />
    <path
       id="path58"
       d="m 2649.25,732.25 v 15 l 38,-15 -38,-15 v 15"
       style="fill:#231f20;fill-opacity:1;fill-rule:evenodd;stroke:none"
       transform="matrix(0.13333333,0,0,-0.13333333,0,256.64)" />
    <path
       id="path59"
       d="m 2427.25,732.25 -135,-105"
       style="fill:none;stroke:#231f20;stroke-width:2.5;stroke-linecap:butt;stroke-linejoin:miter;stroke-miterlimit:3.8637;stroke-dasharray:none;stroke-opacity:1"
       transform="matrix(0.13333333,0,0,-0.13333333,0,256.64)" />
    <path
       id="path60"
       d="m 2294.25,629.25 10,-12 -39,-12 20,35 9,-11"
       style="fill:#231f20;fill-opacity:1;fill-rule:evenodd;stroke:none"
       transform="matrix(0.13333333,0,0,-0.13333333,0,256.64)" />
    <path
       id="path61"
       d="m 2427.25,990.25 v -258"
       style="fill:none;stroke:#231f20;stroke-width:2.5;stroke-linecap:butt;stroke-linejoin:miter;stroke-miterlimit:3.8637;stroke-dasharray:none;stroke-opacity:1"
       transform="matrix(0.13333333,0,0,-0.13333333,0,256.64)" />
    <path
       id="path62"
       d="m 2427.25,988.25 h -15 l 15,37 15,-37 h -15"
       style="fill:#231f20;fill-opacity:1;fill-rule:evenodd;stroke:none"
       transform="matrix(0.13333333,0,0,-0.13333333,0,256.64)" />
    <path
       id="path63"
       d="m 2427.25,732.25 h 259"
       style="fill:none;stroke:#231f20;stroke-width:2.5;stroke-linecap:butt;stroke-linejoin:miter;stroke-miterlimit:3.8637;stroke-dasharray:none;stroke-opacity:1"
       transform="matrix(0.13333333,0,0,-0.13333333,0,256.64)" />
    <path
       id="path64"
       d="m 2683.25,732.25 v 15 l 38,-15 -38,-15 v 15"
       style="fill:#231f20;fill-opacity:1;fill-rule:evenodd;stroke:none"
       transform="matrix(0.13333333,0,0,-0.13333333,0,256.64)" />
  </g>
</svg>
