<?xml version="1.0" encoding="UTF-8" standalone="no"?>
<!-- Created with Inkscape (http://www.inkscape.org/) -->

<svg
   version="1.1"
   id="svg1"
   width="258.17334"
   height="173.49333"
   viewBox="0 0 258.17334 173.49333"
   sodipodi:docname="SOLI8.EPS"
   xmlns:inkscape="http://www.inkscape.org/namespaces/inkscape"
   xmlns:sodipodi="http://sodipodi.sourceforge.net/DTD/sodipodi-0.dtd"
   xmlns="http://www.w3.org/2000/svg"
   xmlns:svg="http://www.w3.org/2000/svg">
  <defs
     id="defs1" />
  <sodipodi:namedview
     id="namedview1"
     pagecolor="#ffffff"
     bordercolor="#000000"
     borderopacity="0.25"
     inkscape:showpageshadow="2"
     inkscape:pageopacity="0.0"
     inkscape:pagecheckerboard="0"
     inkscape:deskcolor="#d1d1d1">
    <inkscape:page
       x="0"
       y="0"
       inkscape:label="1"
       id="page1"
       width="258.17334"
       height="173.49333"
       margin="0"
       bleed="0" />
  </sodipodi:namedview>
  <g
     id="g1"
     inkscape:groupmode="layer"
     inkscape:label="1">
    <path
       id="path1"
       d="M 0.56386719,3.125e-4 V -6.491875 H 3.9388672 V 3.125e-4 Z m 0.56250001,-0.5625 h 2.25 V -5.929375 h -2.25 z M -147.43809,12.899727 V 6.4075391 h 3.375 v 6.4921879 z m 0.5625,-0.5625 h 2.25 V 6.9700391 h -2.25 z m 27.23731,-73.637696 v -6.492187 h 3.375 v 6.492187 z m 0.5625,-0.5625 h 2.25 v -5.367187 h -2.25 z m 91.538085,8.364258 v -6.492187 h 3.375 v 6.492187 z m 0.5625,-0.5625 h 2.25 v -5.367187 h -2.25 z m 0,0"
       style="fill:#231f20;fill-opacity:1;fill-rule:nonzero;stroke:none"
       aria-label="●&#10;●&#10;●&#10;●"
       transform="matrix(1.3333333,0,0,1.3333333,214.03333,125.59333)" />
    <path
       id="path2"
       d="m 261.25,905.25 961,-153 170,-636 -1235,143 z"
       style="fill:none;stroke:#231f20;stroke-width:5;stroke-linecap:butt;stroke-linejoin:miter;stroke-miterlimit:3.8637;stroke-dasharray:none;stroke-opacity:1"
       transform="matrix(0.13333333,0,0,-0.13333333,0,173.49333)" />
    <path
       id="path3"
       d="m 1655.25,391.25 -1181,47 -39,572"
       style="fill:none;stroke:#231f20;stroke-width:5;stroke-linecap:butt;stroke-linejoin:miter;stroke-miterlimit:3.8637;stroke-dasharray:20, 20;stroke-dashoffset:0;stroke-opacity:1"
       transform="matrix(0.13333333,0,0,-0.13333333,0,173.49333)" />
    <path
       id="path4"
       d="m 435.25,1010.25 929,-78 291,-541"
       style="fill:none;stroke:#231f20;stroke-width:5;stroke-linecap:butt;stroke-linejoin:miter;stroke-miterlimit:3.8637;stroke-dasharray:none;stroke-opacity:1"
       transform="matrix(0.13333333,0,0,-0.13333333,0,173.49333)" />
    <path
       id="path5"
       d="m 261.25,905.25 174,105"
       style="fill:none;stroke:#231f20;stroke-width:5;stroke-linecap:butt;stroke-linejoin:miter;stroke-miterlimit:3.8637;stroke-dasharray:none;stroke-opacity:1"
       transform="matrix(0.13333333,0,0,-0.13333333,0,173.49333)" />
    <path
       id="path6"
       d="m 1222.25,752.25 142,180"
       style="fill:none;stroke:#231f20;stroke-width:5;stroke-linecap:butt;stroke-linejoin:miter;stroke-miterlimit:3.8637;stroke-dasharray:none;stroke-opacity:1"
       transform="matrix(0.13333333,0,0,-0.13333333,0,173.49333)" />
    <path
       id="path7"
       d="m 157.25,259.25 317,179"
       style="fill:none;stroke:#231f20;stroke-width:5;stroke-linecap:butt;stroke-linejoin:miter;stroke-miterlimit:3.8637;stroke-dasharray:20, 20;stroke-dashoffset:0;stroke-opacity:1"
       transform="matrix(0.13333333,0,0,-0.13333333,0,173.49333)" />
    <path
       id="path8"
       d="m 1392.25,116.25 263,275"
       style="fill:none;stroke:#231f20;stroke-width:5;stroke-linecap:butt;stroke-linejoin:miter;stroke-miterlimit:3.8637;stroke-dasharray:none;stroke-opacity:1"
       transform="matrix(0.13333333,0,0,-0.13333333,0,173.49333)" />
    <path
       id="path9"
       d="M 0.56191406,7.03125e-4 V -6.4914844 H 3.9369141 V 7.03125e-4 Z M 1.1244141,-0.56179688 h 2.25 V -5.9289844 h -2.25 z M 16.862695,62.698945 v -6.492187 h 3.375 v 6.492187 z m 0.5625,-0.5625 h 2.25 v -5.367187 h -2.25 z m 0,0"
       style="fill:#231f20;fill-opacity:1;fill-rule:nonzero;stroke:none"
       aria-label="●&#10;●"
       transform="matrix(1.3333333,0,0,1.3333333,158.7,77.46)" />
    <path
       id="path10"
       d="M 0.56113281,0.00109394 V -6.4921972 H 3.9361328 V 0.00109394 Z M 1.1236328,-0.56150169 h 2.25 V -5.9296016 h -2.25 z m 0,0"
       style="fill:#7b7979;fill-opacity:1;fill-rule:nonzero;stroke:none"
       aria-label="●"
       transform="matrix(1.3333333,0,0,1.3331067,58.966667,119.32667)" />
    <path
       id="path11"
       d="M 0.56367188,-0.00105469 V -6.4932422 H 3.9386719 v 6.49218751 z m 0.56250002,-0.5625 h 2.25 V -5.9307422 h -2.25 z m 0,0"
       style="fill:#231f20;fill-opacity:1;fill-rule:nonzero;stroke:none"
       aria-label="●"
       transform="matrix(1.3333333,0,0,1.3333333,31.1,57.06)" />
    <path
       id="path12"
       d="m 1067.25,628.25 122,95"
       style="fill:none;stroke:#ffffff;stroke-width:40;stroke-linecap:round;stroke-linejoin:miter;stroke-miterlimit:3.8637;stroke-dasharray:none;stroke-opacity:1"
       transform="matrix(0.13333333,0,0,-0.13333333,0,173.49333)" />
    <path
       id="path13"
       d="m 1276.25,755.25 h 253"
       style="fill:none;stroke:#ffffff;stroke-width:40;stroke-linecap:round;stroke-linejoin:miter;stroke-miterlimit:3.8637;stroke-dasharray:none;stroke-opacity:1"
       transform="matrix(0.13333333,0,0,-0.13333333,0,173.49333)" />
    <path
       id="path14"
       d="m 1228.25,799.25 v 253"
       style="fill:none;stroke:#ffffff;stroke-width:40;stroke-linecap:round;stroke-linejoin:miter;stroke-miterlimit:3.8637;stroke-dasharray:none;stroke-opacity:1"
       transform="matrix(0.13333333,0,0,-0.13333333,0,173.49333)" />
    <path
       id="path15"
       d="m 1228.25,1013.25 v -260"
       style="fill:none;stroke:#231f20;stroke-width:2.5;stroke-linecap:butt;stroke-linejoin:miter;stroke-miterlimit:3.8637;stroke-dasharray:none;stroke-opacity:1"
       transform="matrix(0.13333333,0,0,-0.13333333,0,173.49333)" />
    <path
       id="path16"
       d="m 1228.25,1010.25 h -15 l 15,38 15,-38 h -15"
       style="fill:#231f20;fill-opacity:1;fill-rule:evenodd;stroke:none"
       transform="matrix(0.13333333,0,0,-0.13333333,0,173.49333)" />
    <path
       id="path17"
       d="m 1228.25,753.25 h 259"
       style="fill:none;stroke:#231f20;stroke-width:2.5;stroke-linecap:butt;stroke-linejoin:miter;stroke-miterlimit:3.8637;stroke-dasharray:none;stroke-opacity:1"
       transform="matrix(0.13333333,0,0,-0.13333333,0,173.49333)" />
    <path
       id="path18"
       d="m 1485.25,753.25 v 15 l 37,-15 -37,-15 v 15"
       style="fill:#231f20;fill-opacity:1;fill-rule:evenodd;stroke:none"
       transform="matrix(0.13333333,0,0,-0.13333333,0,173.49333)" />
    <path
       id="path19"
       d="m 1226.25,754.25 -134,-105"
       style="fill:none;stroke:#231f20;stroke-width:2.5;stroke-linecap:butt;stroke-linejoin:miter;stroke-miterlimit:3.8637;stroke-dasharray:none;stroke-opacity:1"
       transform="matrix(0.13333333,0,0,-0.13333333,0,173.49333)" />
    <path
       id="path20"
       d="m 1094.25,650.25 9,-11 -39,-12 21,35 9,-12"
       style="fill:#231f20;fill-opacity:1;fill-rule:evenodd;stroke:none"
       transform="matrix(0.13333333,0,0,-0.13333333,0,173.49333)" />
    <path
       id="path21"
       d="m 1199.25,801.25 122,96"
       style="fill:none;stroke:#ffffff;stroke-width:40;stroke-linecap:round;stroke-linejoin:miter;stroke-miterlimit:3.8637;stroke-dasharray:none;stroke-opacity:1"
       transform="matrix(0.13333333,0,0,-0.13333333,0,173.49333)" />
    <path
       id="path22"
       d="m 1408.25,928.25 h 253"
       style="fill:none;stroke:#ffffff;stroke-width:40;stroke-linecap:round;stroke-linejoin:miter;stroke-miterlimit:3.8637;stroke-dasharray:none;stroke-opacity:1"
       transform="matrix(0.13333333,0,0,-0.13333333,0,173.49333)" />
    <path
       id="path23"
       d="m 1360.25,972.25 v 254"
       style="fill:none;stroke:#ffffff;stroke-width:40;stroke-linecap:round;stroke-linejoin:miter;stroke-miterlimit:3.8637;stroke-dasharray:none;stroke-opacity:1"
       transform="matrix(0.13333333,0,0,-0.13333333,0,173.49333)" />
    <path
       id="path24"
       d="m 1360.25,1187.25 v -260"
       style="fill:none;stroke:#231f20;stroke-width:2.5;stroke-linecap:butt;stroke-linejoin:miter;stroke-miterlimit:3.8637;stroke-dasharray:none;stroke-opacity:1"
       transform="matrix(0.13333333,0,0,-0.13333333,0,173.49333)" />
    <path
       id="path25"
       d="m 1360.25,1184.25 h -15 l 15,38 15,-38 h -15"
       style="fill:#231f20;fill-opacity:1;fill-rule:evenodd;stroke:none"
       transform="matrix(0.13333333,0,0,-0.13333333,0,173.49333)" />
    <path
       id="path26"
       d="m 1360.25,927.25 h 259"
       style="fill:none;stroke:#231f20;stroke-width:2.5;stroke-linecap:butt;stroke-linejoin:miter;stroke-miterlimit:3.8637;stroke-dasharray:none;stroke-opacity:1"
       transform="matrix(0.13333333,0,0,-0.13333333,0,173.49333)" />
    <path
       id="path27"
       d="m 1617.25,927.25 v 15 l 37,-15 -37,-15 v 15"
       style="fill:#231f20;fill-opacity:1;fill-rule:evenodd;stroke:none"
       transform="matrix(0.13333333,0,0,-0.13333333,0,173.49333)" />
    <path
       id="path28"
       d="m 1358.25,927.25 -134,-105"
       style="fill:none;stroke:#231f20;stroke-width:2.5;stroke-linecap:butt;stroke-linejoin:miter;stroke-miterlimit:3.8637;stroke-dasharray:none;stroke-opacity:1"
       transform="matrix(0.13333333,0,0,-0.13333333,0,173.49333)" />
    <path
       id="path29"
       d="m 1226.25,824.25 9,-12 -39,-11 21,35 9,-12"
       style="fill:#231f20;fill-opacity:1;fill-rule:evenodd;stroke:none"
       transform="matrix(0.13333333,0,0,-0.13333333,0,173.49333)" />
    <path
       id="path30"
       d="m 438.25,1266.25 v -260"
       style="fill:none;stroke:#231f20;stroke-width:2.5;stroke-linecap:butt;stroke-linejoin:miter;stroke-miterlimit:3.8637;stroke-dasharray:none;stroke-opacity:1"
       transform="matrix(0.13333333,0,0,-0.13333333,0,173.49333)" />
    <path
       id="path31"
       d="m 438.25,1263.25 h -15 l 15,38 15,-38 h -15"
       style="fill:#231f20;fill-opacity:1;fill-rule:evenodd;stroke:none"
       transform="matrix(0.13333333,0,0,-0.13333333,0,173.49333)" />
    <path
       id="path32"
       d="m 438.25,1006.25 h 260"
       style="fill:none;stroke:#231f20;stroke-width:2.5;stroke-linecap:butt;stroke-linejoin:miter;stroke-miterlimit:3.8637;stroke-dasharray:none;stroke-opacity:1"
       transform="matrix(0.13333333,0,0,-0.13333333,0,173.49333)" />
    <path
       id="path33"
       d="m 695.25,1006.25 v 15 l 38,-15 -38,-15 v 15"
       style="fill:#231f20;fill-opacity:1;fill-rule:evenodd;stroke:none"
       transform="matrix(0.13333333,0,0,-0.13333333,0,173.49333)" />
    <path
       id="path34"
       d="m 437.25,1007.25 -134,-105"
       style="fill:none;stroke:#231f20;stroke-width:2.5;stroke-linecap:butt;stroke-linejoin:miter;stroke-miterlimit:3.8637;stroke-dasharray:none;stroke-opacity:1"
       transform="matrix(0.13333333,0,0,-0.13333333,0,173.49333)" />
    <path
       id="path35"
       d="m 304.25,903.25 10,-11 -39,-12 20,35 9,-12"
       style="fill:#231f20;fill-opacity:1;fill-rule:evenodd;stroke:none"
       transform="matrix(0.13333333,0,0,-0.13333333,0,173.49333)" />
    <path
       id="path36"
       d="m 269.25,1165.25 v -260"
       style="fill:none;stroke:#231f20;stroke-width:2.5;stroke-linecap:butt;stroke-linejoin:miter;stroke-miterlimit:3.8637;stroke-dasharray:none;stroke-opacity:1"
       transform="matrix(0.13333333,0,0,-0.13333333,0,173.49333)" />
    <path
       id="path37"
       d="m 269.25,1162.25 h -15 l 15,38 15,-38 h -15"
       style="fill:#231f20;fill-opacity:1;fill-rule:evenodd;stroke:none"
       transform="matrix(0.13333333,0,0,-0.13333333,0,173.49333)" />
    <path
       id="path38"
       d="m 269.25,905.25 h 260"
       style="fill:none;stroke:#231f20;stroke-width:2.5;stroke-linecap:butt;stroke-linejoin:miter;stroke-miterlimit:3.8637;stroke-dasharray:none;stroke-opacity:1"
       transform="matrix(0.13333333,0,0,-0.13333333,0,173.49333)" />
    <path
       id="path39"
       d="m 527.25,905.25 v 15 l 37,-15 -37,-15 v 15"
       style="fill:#231f20;fill-opacity:1;fill-rule:evenodd;stroke:none"
       transform="matrix(0.13333333,0,0,-0.13333333,0,173.49333)" />
    <path
       id="path40"
       d="m 268.25,905.25 -134,-105"
       style="fill:none;stroke:#231f20;stroke-width:2.5;stroke-linecap:butt;stroke-linejoin:miter;stroke-miterlimit:3.8637;stroke-dasharray:none;stroke-opacity:1"
       transform="matrix(0.13333333,0,0,-0.13333333,0,173.49333)" />
    <path
       id="path41"
       d="m 136.25,802.25 9,-12 -39,-11 20,35 10,-12"
       style="fill:#231f20;fill-opacity:1;fill-rule:evenodd;stroke:none"
       transform="matrix(0.13333333,0,0,-0.13333333,0,173.49333)" />
    <path
       id="path42"
       d="m 477.25,698.25 v -260"
       style="fill:none;stroke:#231f20;stroke-width:2.5;stroke-linecap:butt;stroke-linejoin:miter;stroke-miterlimit:3.8637;stroke-dasharray:none;stroke-opacity:1"
       transform="matrix(0.13333333,0,0,-0.13333333,0,173.49333)" />
    <path
       id="path43"
       d="m 477.25,695.25 h -15 l 15,38 15,-38 h -15"
       style="fill:#231f20;fill-opacity:1;fill-rule:evenodd;stroke:none"
       transform="matrix(0.13333333,0,0,-0.13333333,0,173.49333)" />
    <path
       id="path44"
       d="m 477.25,438.25 h 259"
       style="fill:none;stroke:#231f20;stroke-width:2.5;stroke-linecap:butt;stroke-linejoin:miter;stroke-miterlimit:3.8637;stroke-dasharray:none;stroke-opacity:1"
       transform="matrix(0.13333333,0,0,-0.13333333,0,173.49333)" />
    <path
       id="path45"
       d="m 734.25,438.25 v 15 l 37,-15 -37,-15 v 15"
       style="fill:#231f20;fill-opacity:1;fill-rule:evenodd;stroke:none"
       transform="matrix(0.13333333,0,0,-0.13333333,0,173.49333)" />
    <path
       id="path46"
       d="m 475.25,438.25 -134,-105"
       style="fill:none;stroke:#231f20;stroke-width:2.5;stroke-linecap:butt;stroke-linejoin:miter;stroke-miterlimit:3.8637;stroke-dasharray:none;stroke-opacity:1"
       transform="matrix(0.13333333,0,0,-0.13333333,0,173.49333)" />
    <path
       id="path47"
       d="m 343.25,335.25 9,-12 -39,-11 21,35 9,-12"
       style="fill:#231f20;fill-opacity:1;fill-rule:evenodd;stroke:none"
       transform="matrix(0.13333333,0,0,-0.13333333,0,173.49333)" />
    <path
       id="path48"
       d="m 1641.25,651.25 v -260"
       style="fill:none;stroke:#231f20;stroke-width:2.5;stroke-linecap:butt;stroke-linejoin:miter;stroke-miterlimit:3.8637;stroke-dasharray:none;stroke-opacity:1"
       transform="matrix(0.13333333,0,0,-0.13333333,0,173.49333)" />
    <path
       id="path49"
       d="m 1641.25,648.25 h -15 l 15,38 15,-38 h -15"
       style="fill:#231f20;fill-opacity:1;fill-rule:evenodd;stroke:none"
       transform="matrix(0.13333333,0,0,-0.13333333,0,173.49333)" />
    <path
       id="path50"
       d="m 1641.25,391.25 h 260"
       style="fill:none;stroke:#231f20;stroke-width:2.5;stroke-linecap:butt;stroke-linejoin:miter;stroke-miterlimit:3.8637;stroke-dasharray:none;stroke-opacity:1"
       transform="matrix(0.13333333,0,0,-0.13333333,0,173.49333)" />
    <path
       id="path51"
       d="m 1899.25,391.25 v 15 l 37,-15 -37,-15 v 15"
       style="fill:#231f20;fill-opacity:1;fill-rule:evenodd;stroke:none"
       transform="matrix(0.13333333,0,0,-0.13333333,0,173.49333)" />
    <path
       id="path52"
       d="m 1640.25,391.25 -134,-105"
       style="fill:none;stroke:#231f20;stroke-width:2.5;stroke-linecap:butt;stroke-linejoin:miter;stroke-miterlimit:3.8637;stroke-dasharray:none;stroke-opacity:1"
       transform="matrix(0.13333333,0,0,-0.13333333,0,173.49333)" />
    <path
       id="path53"
       d="m 1508.25,288.25 9,-12 -39,-11 20,35 10,-12"
       style="fill:#231f20;fill-opacity:1;fill-rule:evenodd;stroke:none"
       transform="matrix(0.13333333,0,0,-0.13333333,0,173.49333)" />
    <path
       id="path54"
       d="m 163.25,523.25 v -259"
       style="fill:none;stroke:#231f20;stroke-width:2.5;stroke-linecap:butt;stroke-linejoin:miter;stroke-miterlimit:3.8637;stroke-dasharray:none;stroke-opacity:1"
       transform="matrix(0.13333333,0,0,-0.13333333,0,173.49333)" />
    <path
       id="path55"
       d="m 163.25,521.25 h -15 l 15,37 15,-37 h -15"
       style="fill:#231f20;fill-opacity:1;fill-rule:evenodd;stroke:none"
       transform="matrix(0.13333333,0,0,-0.13333333,0,173.49333)" />
    <path
       id="path56"
       d="m 163.25,264.25 h 260"
       style="fill:none;stroke:#231f20;stroke-width:2.5;stroke-linecap:butt;stroke-linejoin:miter;stroke-miterlimit:3.8637;stroke-dasharray:none;stroke-opacity:1"
       transform="matrix(0.13333333,0,0,-0.13333333,0,173.49333)" />
    <path
       id="path57"
       d="m 420.25,264.25 v 15 l 38,-15 -38,-15 v 15"
       style="fill:#231f20;fill-opacity:1;fill-rule:evenodd;stroke:none"
       transform="matrix(0.13333333,0,0,-0.13333333,0,173.49333)" />
    <path
       id="path58"
       d="m 162.25,264.25 -135,-105"
       style="fill:none;stroke:#231f20;stroke-width:2.5;stroke-linecap:butt;stroke-linejoin:miter;stroke-miterlimit:3.8637;stroke-dasharray:none;stroke-opacity:1"
       transform="matrix(0.13333333,0,0,-0.13333333,0,173.49333)" />
    <path
       id="path59"
       d="m 29.25,161.25 10,-12 -39,-11 20,35 9,-12"
       style="fill:#231f20;fill-opacity:1;fill-rule:evenodd;stroke:none"
       transform="matrix(0.13333333,0,0,-0.13333333,0,173.49333)" />
    <path
       id="path60"
       d="m 1389.25,385.25 v -259"
       style="fill:none;stroke:#231f20;stroke-width:2.5;stroke-linecap:butt;stroke-linejoin:miter;stroke-miterlimit:3.8637;stroke-dasharray:none;stroke-opacity:1"
       transform="matrix(0.13333333,0,0,-0.13333333,0,173.49333)" />
    <path
       id="path61"
       d="m 1389.25,383.25 h -15 l 15,37 15,-37 h -15"
       style="fill:#231f20;fill-opacity:1;fill-rule:evenodd;stroke:none"
       transform="matrix(0.13333333,0,0,-0.13333333,0,173.49333)" />
    <path
       id="path62"
       d="m 1389.25,126.25 h 259"
       style="fill:none;stroke:#231f20;stroke-width:2.5;stroke-linecap:butt;stroke-linejoin:miter;stroke-miterlimit:3.8637;stroke-dasharray:none;stroke-opacity:1"
       transform="matrix(0.13333333,0,0,-0.13333333,0,173.49333)" />
    <path
       id="path63"
       d="m 1646.25,126.25 v 15 l 37,-15 -37,-15 v 15"
       style="fill:#231f20;fill-opacity:1;fill-rule:evenodd;stroke:none"
       transform="matrix(0.13333333,0,0,-0.13333333,0,173.49333)" />
    <path
       id="path64"
       d="m 1387.25,126.25 -134,-105"
       style="fill:none;stroke:#231f20;stroke-width:2.5;stroke-linecap:butt;stroke-linejoin:miter;stroke-miterlimit:3.8637;stroke-dasharray:none;stroke-opacity:1"
       transform="matrix(0.13333333,0,0,-0.13333333,0,173.49333)" />
    <path
       id="path65"
       d="m 1255.25,23.25 9,-12 -39,-11 20,35 10,-12"
       style="fill:#231f20;fill-opacity:1;fill-rule:evenodd;stroke:none"
       transform="matrix(0.13333333,0,0,-0.13333333,0,173.49333)" />
    <path
       id="path66"
       d="m 3.6912109,-0.93757813 c -0.421875,0.52734375 -0.5390625,0.6328125 -0.6679687,0.6328125 -0.058594,0 -0.082031,-0.046875 -0.082031,-0.140625 0,-0.046875 0,-0.046875 0.1523438,-0.62109377 l 0.6328125,-2.390625 H 3.1287109 c -0.4335937,1.1835938 -0.515625,1.3828125 -0.8789062,1.9570313 -0.4804688,0.74999997 -0.8789063,1.16015622 -1.125,1.16015622 -0.1054688,0 -0.17578126,-0.0820313 -0.17578126,-0.19921875 0,-0.0234375 0,-0.046875 0.0117188,-0.0703125 L 1.6873047,-3.5157031 1.6638672,-3.5274219 c -0.46875,0.1054688 -0.76171876,0.1523438 -1.19531251,0.2109375 v 0.1171875 c 0.31640625,0 0.31640625,0 0.3984375,0.046875 0.0351563,0.011719 0.0820313,0.082031 0.0820313,0.140625 0,0.070312 -0.046875,0.2695313 -0.1171875,0.5390625 l -0.29296875,1.1367188 c -0.15234375,0.58593747 -0.19921875,0.84374997 -0.19921875,0.98437497 0,0.29296875 0.140625,0.4453125 0.421875,0.4453125 0.56250001,0 0.99609381,-0.43359375 1.91015631,-1.98046877 -0.234375,0.8671875 -0.3632813,1.39453127 -0.3632813,1.57031252 0,0.2578125 0.1523438,0.38671875 0.3867188,0.38671875 0.375,0 0.5507812,-0.15234375 1.1015625,-0.9375 z M 7.4294922,-1.5352344 c 0.2695312,-0.375 0.5507812,-0.5390625 0.8789062,-0.5390625 0.4335938,0 0.7148438,0.2929688 0.7148438,0.7265625 0,0.3398438 -0.1640625,0.62109377 -0.515625,0.85546877 -0.3398438,0.234375 -0.6796875,0.3515625 -1.3945313,0.48046875 l 0.011719,0.1171875 c 0.4453125,0 0.5273437,0.0117188 0.7265625,0.0820312 0.4921875,0.1875 0.75,0.62109375 0.75,1.25390618 0,0.28125 -0.058594,0.5742188 -0.1757813,0.7617188 -0.1875,0.328125 -0.5390625,0.5507812 -0.8671875,0.5507812 -0.1523437,0 -0.3398437,-0.082031 -0.5742187,-0.2578125 C 6.7498049,2.331953 6.6208986,2.2733593 6.4685549,2.2733593 c -0.2226563,0 -0.3515625,0.1054687 -0.3515625,0.3046875 0,0.3046876 0.328125,0.4804687 0.9023437,0.4804687 0.4453125,0 0.8671875,-0.1054686 1.1953125,-0.2929687 0.6210938,-0.375 1.03125,-1.0429688 1.03125,-1.7578125 0,-0.58593748 -0.234375,-0.94921873 -0.7617187,-1.19531248 v -0.0234375 c 0.9609375,-0.375 1.2421875,-0.64453125 1.2421875,-1.18359382 0,-0.5859375 -0.4804688,-1.0195312 -1.125,-1.0195312 -0.5507813,0 -1.0429688,0.3164062 -1.3007813,0.8320312 z M 44.692188,-10.438555 c -0.421875,0.5273441 -0.539063,0.6328128 -0.667969,0.6328128 -0.05859,0 -0.08203,-0.046875 -0.08203,-0.140625 0,-0.046875 0,-0.046875 0.152343,-0.6210938 l 0.632813,-2.390625 h -0.597656 c -0.433594,1.183594 -0.515625,1.382813 -0.878907,1.957031 -0.480468,0.75 -0.878906,1.1601566 -1.125,1.1601566 -0.105468,0 -0.175781,-0.082031 -0.175781,-0.1992186 0,-0.02344 0,-0.04687 0.01172,-0.07031 l 0.726562,-2.90625 -0.02344,-0.01172 c -0.46875,0.105468 -0.761719,0.152343 -1.195313,0.210937 v 0.117188 c 0.316407,0 0.316407,0 0.398438,0.04687 0.03516,0.01172 0.08203,0.08203 0.08203,0.140625 0,0.07031 -0.04687,0.269531 -0.117187,0.539062 l -0.292969,1.136719 c -0.152344,0.585937 -0.199219,0.8437498 -0.199219,0.9843748 0,0.2929688 0.140625,0.4453125 0.421875,0.4453125 0.5625,0 0.996094,-0.4335937 1.910156,-1.9804683 -0.234375,0.867187 -0.363281,1.3945308 -0.363281,1.5703121 0,0.2578125 0.152344,0.3867187 0.386719,0.3867187 0.375,0 0.550781,-0.1523437 1.101562,-0.9374998 z m 2.695312,3.9375003 h 2.238281 v -0.1171875 h -0.140625 c -0.386718,0 -0.550781,-0.070312 -0.550781,-0.2578125 0,-0.070312 0.02344,-0.1875 0.09375,-0.421875 0.02344,-0.046875 0.03516,-0.09375 0.05859,-0.1757812 l 1.136719,-4.1484371 c 0.04687,-0.140625 0.04687,-0.199219 0.04687,-0.234375 0,-0.03516 -0.01172,-0.05859 -0.03516,-0.05859 0,0 -0.222656,0.04687 -0.65625,0.128906 l -0.726562,0.152344 c -0.01172,0 -0.07031,0.01172 -0.164063,0.02344 v 0.117188 l 0.457032,-0.01172 c 0.1875,-0.01172 0.304687,0.09375 0.304687,0.246094 0,0.05859 -0.01172,0.117187 -0.05859,0.28125 l -1.101562,3.9374998 c -0.09375,0.2929688 -0.269531,0.375 -0.902344,0.421875 z M 31.391406,-27.738359 c -0.421875,0.527343 -0.539062,0.632812 -0.667968,0.632812 -0.05859,0 -0.08203,-0.04687 -0.08203,-0.140625 0,-0.04687 0,-0.04687 0.152344,-0.621094 l 0.632813,-2.390625 h -0.597657 c -0.433593,1.183594 -0.515625,1.382813 -0.878906,1.957032 -0.480469,0.75 -0.878906,1.160156 -1.125,1.160156 -0.105469,0 -0.175781,-0.08203 -0.175781,-0.199219 0,-0.02344 0,-0.04687 0.01172,-0.07031 l 0.726562,-2.90625 -0.02344,-0.01172 c -0.46875,0.105469 -0.761719,0.152344 -1.195313,0.210937 v 0.117188 c 0.316406,0 0.316406,0 0.398438,0.04687 0.03516,0.01172 0.08203,0.08203 0.08203,0.140625 0,0.07031 -0.04687,0.269531 -0.117188,0.539062 l -0.292968,1.136719 c -0.152344,0.585938 -0.199219,0.84375 -0.199219,0.984375 0,0.292969 0.140625,0.445313 0.421875,0.445313 0.5625,0 0.996094,-0.433594 1.910156,-1.980469 -0.234375,0.867187 -0.363281,1.394531 -0.363281,1.570312 0,0.257813 0.152344,0.386719 0.386719,0.386719 0.375,0 0.550781,-0.152344 1.101562,-0.9375 z m 5.507813,2.824218 c -0.1875,0.398438 -0.339844,0.492188 -0.785156,0.503907 h -1.523438 v -0.03516 l 1.535156,-1.535156 c 0.9375,-0.9375 1.195313,-1.347656 1.195313,-1.875 0,-0.761719 -0.574219,-1.359375 -1.300781,-1.359375 -0.292969,0 -0.585938,0.07031 -0.820313,0.210938 -0.410156,0.222656 -0.632812,0.492187 -0.855469,1.078125 l 0.164063,0.04687 c 0.292969,-0.515625 0.644531,-0.75 1.125,-0.75 0.574219,0 0.996094,0.421875 0.996094,0.972656 0,0.175781 -0.02344,0.328125 -0.07031,0.433594 -0.199219,0.433593 -0.5625,0.9375 -1.078125,1.488281 l -1.6875,1.792969 v 0.140625 h 2.847656 l 0.398438,-1.054688 z m 0,0"
       style="fill:#231f20;fill-opacity:1;fill-rule:nonzero;stroke:none"
       aria-label="u&#10;3&#10;u&#10;1&#10;u&#10;2"
       transform="matrix(1.3333333,0,0,1.3333333,34.566667,117.72667)" />
  </g>
</svg>
