<?xml version="1.0" encoding="UTF-8" standalone="no"?>
<!-- Created with Inkscape (http://www.inkscape.org/) -->

<svg
   version="1.1"
   id="svg1"
   width="583.44"
   height="229.44"
   viewBox="0 0 583.44 229.44"
   sodipodi:docname="SOLI8S.EPS"
   xmlns:inkscape="http://www.inkscape.org/namespaces/inkscape"
   xmlns:sodipodi="http://sodipodi.sourceforge.net/DTD/sodipodi-0.dtd"
   xmlns="http://www.w3.org/2000/svg"
   xmlns:svg="http://www.w3.org/2000/svg">
  <defs
     id="defs1" />
  <sodipodi:namedview
     id="namedview1"
     pagecolor="#ffffff"
     bordercolor="#000000"
     borderopacity="0.25"
     inkscape:showpageshadow="2"
     inkscape:pageopacity="0.0"
     inkscape:pagecheckerboard="0"
     inkscape:deskcolor="#d1d1d1">
    <inkscape:page
       x="0"
       y="0"
       inkscape:label="1"
       id="page1"
       width="583.44"
       height="229.44"
       margin="0"
       bleed="0" />
  </sodipodi:namedview>
  <g
     id="g1"
     inkscape:groupmode="layer"
     inkscape:label="1">
    <path
       id="path1"
       d="m 2957.25,1221.25 h 850 v -850 h -850 z"
       style="fill:none;stroke:#231f20;stroke-width:5;stroke-linecap:butt;stroke-linejoin:miter;stroke-miterlimit:3.8637;stroke-dasharray:none;stroke-opacity:1"
       transform="matrix(0.13333333,0,0,-0.13333333,0,229.44)" />
    <path
       id="path2"
       d="m 3807.25,1217.25 303,232 v -788 l -303,-289 z"
       style="fill:none;stroke:#231f20;stroke-width:6.046;stroke-linecap:butt;stroke-linejoin:miter;stroke-miterlimit:3.8637;stroke-dasharray:none;stroke-opacity:1"
       transform="matrix(0.13333333,0,0,-0.13333333,0,229.44)" />
    <path
       id="path3"
       d="m 3317.25,662.25 -360,-289"
       style="fill:none;stroke:#231f20;stroke-width:6.046;stroke-linecap:butt;stroke-linejoin:miter;stroke-miterlimit:3.8637;stroke-dasharray:20, 20;stroke-dashoffset:0;stroke-opacity:1"
       transform="matrix(0.13333333,0,0,-0.13333333,0,229.44)" />
    <path
       id="path4"
       d="m 2957.25,1223.25 360,229"
       style="fill:none;stroke:#231f20;stroke-width:6.046;stroke-linecap:butt;stroke-linejoin:miter;stroke-miterlimit:3.8637;stroke-dasharray:none;stroke-opacity:1"
       transform="matrix(0.13333333,0,0,-0.13333333,0,229.44)" />
    <path
       id="path5"
       d="m 4110.25,660.25 h -794"
       style="fill:none;stroke:#231f20;stroke-width:5;stroke-linecap:butt;stroke-linejoin:miter;stroke-miterlimit:3.8637;stroke-dasharray:20, 20;stroke-dashoffset:0;stroke-opacity:1"
       transform="matrix(0.13333333,0,0,-0.13333333,0,229.44)" />
    <path
       id="path6"
       d="m 4110.25,1454.25 v -794"
       style="fill:none;stroke:#231f20;stroke-width:5;stroke-linecap:butt;stroke-linejoin:miter;stroke-miterlimit:3.8637;stroke-dasharray:none;stroke-opacity:1"
       transform="matrix(0.13333333,0,0,-0.13333333,0,229.44)" />
    <path
       id="path7"
       d="m 3316.25,1454.25 h 794"
       style="fill:none;stroke:#231f20;stroke-width:5;stroke-linecap:butt;stroke-linejoin:miter;stroke-miterlimit:3.8637;stroke-dasharray:none;stroke-opacity:1"
       transform="matrix(0.13333333,0,0,-0.13333333,0,229.44)" />
    <path
       id="path8"
       d="m 3316.25,660.25 v 794"
       style="fill:none;stroke:#231f20;stroke-width:5;stroke-linecap:butt;stroke-linejoin:miter;stroke-miterlimit:3.8637;stroke-dasharray:20, 20;stroke-dashoffset:0;stroke-opacity:1"
       transform="matrix(0.13333333,0,0,-0.13333333,0,229.44)" />
    <path
       id="path9"
       d="m 3293.25,773.25 h 53 v -64 h -53 v 64"
       style="fill:#ffffff;fill-opacity:1;fill-rule:nonzero;stroke:none"
       transform="matrix(0.13333333,0,0,-0.13333333,0,229.44)" />
    <path
       id="path10"
       d="m 3293.25,773.25 h 53 v -64 h -53 z"
       style="fill:none;stroke:#ffffff;stroke-width:2.5;stroke-linecap:butt;stroke-linejoin:miter;stroke-miterlimit:3.8637;stroke-dasharray:none;stroke-opacity:1"
       transform="matrix(0.13333333,0,0,-0.13333333,0,229.44)" />
    <path
       id="path11"
       d="m 3528.25,1484.25 h 53 v -64 h -53 v 64"
       style="fill:#ffffff;fill-opacity:1;fill-rule:nonzero;stroke:none"
       transform="matrix(0.13333333,0,0,-0.13333333,0,229.44)" />
    <path
       id="path12"
       d="m 3528.25,1484.25 h 53 v -64 h -53 z"
       style="fill:none;stroke:#ffffff;stroke-width:2.5;stroke-linecap:butt;stroke-linejoin:miter;stroke-miterlimit:3.8637;stroke-dasharray:none;stroke-opacity:1"
       transform="matrix(0.13333333,0,0,-0.13333333,0,229.44)" />
    <path
       id="path13"
       d="m 4083.25,958.25 h 53 v -64 h -53 v 64"
       style="fill:#ffffff;fill-opacity:1;fill-rule:nonzero;stroke:none"
       transform="matrix(0.13333333,0,0,-0.13333333,0,229.44)" />
    <path
       id="path14"
       d="m 4083.25,958.25 h 53 v -64 h -53 z"
       style="fill:none;stroke:#ffffff;stroke-width:2.5;stroke-linecap:butt;stroke-linejoin:miter;stroke-miterlimit:3.8637;stroke-dasharray:none;stroke-opacity:1"
       transform="matrix(0.13333333,0,0,-0.13333333,0,229.44)" />
    <path
       id="path15"
       d="m 3935.25,1411.25 h 100 v -107 h -100 v 107"
       style="fill:#ffffff;fill-opacity:1;fill-rule:nonzero;stroke:none"
       transform="matrix(0.13333333,0,0,-0.13333333,0,229.44)" />
    <path
       id="path16"
       d="m 3935.25,1411.25 h 100 v -107 h -100 z"
       style="fill:none;stroke:#ffffff;stroke-width:2.5;stroke-linecap:butt;stroke-linejoin:miter;stroke-miterlimit:3.8637;stroke-dasharray:none;stroke-opacity:1"
       transform="matrix(0.13333333,0,0,-0.13333333,0,229.44)" />
    <path
       id="path17"
       d="m 4087.25,1223.25 h 53 v -87 h -53 v 87"
       style="fill:#ffffff;fill-opacity:1;fill-rule:nonzero;stroke:none"
       transform="matrix(0.13333333,0,0,-0.13333333,0,229.44)" />
    <path
       id="path18"
       d="m 4087.25,1223.25 h 53 v -87 h -53 z"
       style="fill:none;stroke:#ffffff;stroke-width:2.5;stroke-linecap:butt;stroke-linejoin:miter;stroke-miterlimit:3.8637;stroke-dasharray:none;stroke-opacity:1"
       transform="matrix(0.13333333,0,0,-0.13333333,0,229.44)" />
    <path
       id="path19"
       d="m 3268.25,1362.25 h 80 v -119 h -80 v 119"
       style="fill:#ffffff;fill-opacity:1;fill-rule:nonzero;stroke:none"
       transform="matrix(0.13333333,0,0,-0.13333333,0,229.44)" />
    <path
       id="path20"
       d="m 3268.25,1362.25 h 80 v -119 h -80 z"
       style="fill:none;stroke:#ffffff;stroke-width:2.5;stroke-linecap:butt;stroke-linejoin:miter;stroke-miterlimit:3.8637;stroke-dasharray:none;stroke-opacity:1"
       transform="matrix(0.13333333,0,0,-0.13333333,0,229.44)" />
    <g
       id="g20"
       aria-label="σ&#10;zz"
       transform="matrix(1.3333333,0,0,1.3333333,407.9,133.94)">
      <path
         id="path21"
         d="M 0.60820313,0.00105469 V -7.4989453 H 6.6082031 v 7.49999999 z m 0.1875,-0.1875 H 6.4207031 V -7.3114453 H 0.79570313 Z m 0,0"
         style="fill:#231f20;fill-opacity:1;fill-rule:nonzero;stroke:none" />
      <path
         id="path22"
         d="m 8.0085938,-0.09269531 c 0.1992187,-0.48046875 0.3515625,-0.59765625 0.8085937,-0.5859375 h 1.4648435 l -3.1054685,3.71484371 0.09375,0.09375 C 7.434375,3.0010547 7.5632813,2.9541797 7.715625,2.9541797 c 0.2695313,0 0.5859375,0.1289062 1.0546875,0.421875 0.5039063,0.3046875 0.8320313,0.4335937 1.1132813,0.4335937 0.5039062,0 0.9492192,-0.3632812 0.9492192,-0.7617187 0,-0.2226563 -0.140625,-0.3515625 -0.351563,-0.3515625 -0.199219,0 -0.339844,0.1289062 -0.339844,0.3164062 0,0.082031 0.02344,0.1640625 0.08203,0.2929688 0.03516,0.058594 0.05859,0.1171875 0.05859,0.140625 0,0.09375 -0.117187,0.1523437 -0.269531,0.1523437 -0.2578125,0 -0.375,-0.082031 -0.703125,-0.4921875 C 8.8640625,2.5323047 8.6765625,2.4033984 8.1023438,2.2744922 L 10.996875,-1.1708203 V -1.2762891 H 8.1609375 l -0.3164062,1.14843754 z m 3.8906252,0 c 0.199219,-0.48046875 0.351562,-0.59765625 0.808594,-0.5859375 h 1.464843 l -3.105468,3.71484371 0.09375,0.09375 C 11.325,3.0010547 11.453906,2.9541797 11.60625,2.9541797 c 0.269531,0 0.585938,0.1289062 1.054688,0.421875 0.503906,0.3046875 0.832031,0.4335937 1.113281,0.4335937 0.503906,0 0.949219,-0.3632812 0.949219,-0.7617187 0,-0.2226563 -0.140625,-0.3515625 -0.351563,-0.3515625 -0.199219,0 -0.339844,0.1289062 -0.339844,0.3164062 0,0.082031 0.02344,0.1640625 0.08203,0.2929688 0.03516,0.058594 0.05859,0.1171875 0.05859,0.140625 0,0.09375 -0.117187,0.1523437 -0.269531,0.1523437 -0.257812,0 -0.375,-0.082031 -0.703125,-0.4921875 C 12.754688,2.5323047 12.567188,2.4033984 11.992969,2.2744922 L 14.8875,-1.1708203 v -0.1054688 h -2.835937 l -0.316407,1.14843754 z m 0,0"
         style="fill:#231f20;fill-opacity:1;fill-rule:nonzero;stroke:none" />
    </g>
    <path
       id="path23"
       d="m 3783.25,830.25 h 53 v -63 h -53 v 63"
       style="fill:#ffffff;fill-opacity:1;fill-rule:nonzero;stroke:none"
       transform="matrix(0.13333333,0,0,-0.13333333,0,229.44)" />
    <path
       id="path24"
       d="m 3783.25,830.25 h 53 v -63 h -53 z"
       style="fill:none;stroke:#ffffff;stroke-width:2.5;stroke-linecap:butt;stroke-linejoin:miter;stroke-miterlimit:3.8637;stroke-dasharray:none;stroke-opacity:1"
       transform="matrix(0.13333333,0,0,-0.13333333,0,229.44)" />
    <g
       id="g24"
       aria-label="σ&#10;zx&#10;σ&#10;xx"
       transform="matrix(1.3333333,0,0,1.3333333,481.5,115.14)">
      <path
         id="path25"
         d="M 0.609375,4.6875e-4 V -7.4995313 h 6 V 4.6875e-4 Z m 0.1875,-0.1875 h 5.625 V -7.3120313 h -5.625 z m 0,0"
         style="fill:#231f20;fill-opacity:1;fill-rule:nonzero;stroke:none" />
      <path
         id="path26"
         d="M 8.0097656,-0.09328125 C 8.2089844,-0.57375 8.3613281,-0.6909375 8.8183594,-0.67921875 H 10.283203 L 7.1777344,3.035625 l 0.09375,0.09375 C 7.4355469,3.0004687 7.5644531,2.9535937 7.7167969,2.9535937 c 0.2695312,0 0.5859375,0.1289063 1.0546875,0.421875 0.5039062,0.3046875 0.8320312,0.4335938 1.1132812,0.4335938 0.5039064,0 0.9492184,-0.3632813 0.9492184,-0.7617188 0,-0.2226562 -0.140625,-0.3515625 -0.351562,-0.3515625 -0.199219,0 -0.339844,0.1289063 -0.339844,0.3164063 0,0.082031 0.02344,0.1640625 0.08203,0.2929687 0.03516,0.058594 0.05859,0.1171875 0.05859,0.140625 0,0.09375 -0.117187,0.1523438 -0.269531,0.1523438 -0.2578126,0 -0.3750001,-0.082031 -0.7031251,-0.4921875 C 8.8652344,2.5317187 8.6777344,2.4028125 8.1035156,2.2739062 L 10.998047,-1.1714063 V -1.276875 H 8.1621094 L 7.8457031,-0.1284375 Z M 15.108398,1.8871875 c -0.08203,0.09375 -0.128906,0.1523437 -0.222656,0.2695312 C 14.663086,2.4614062 14.53418,2.5551562 14.416992,2.5551562 14.276367,2.5551562 14.182617,2.42625 14.112305,2.145 14.088867,2.0395312 14.088867,2.0160937 14.077148,1.9926562 13.831055,0.973125 13.713867,0.51609375 13.713867,0.36375 c 0.457031,-0.78515625 0.808594,-1.20703125 0.984375,-1.20703125 0.05859,0 0.152344,0.0234375 0.234375,0.0703125 0.128906,0.0703125 0.199219,0.09375 0.28125,0.09375 0.199219,0 0.339844,-0.15234375 0.339844,-0.36328125 0,-0.2109375 -0.164063,-0.3632813 -0.410156,-0.3632813 -0.433594,0 -0.808594,0.3632813 -1.5,1.42968755 L 13.526367,-0.526875 c -0.140625,-0.6796875 -0.246094,-0.8789063 -0.515625,-0.8789063 -0.234375,0 -0.550781,0.082031 -1.171875,0.2929688 -0.05859,0.011719 -0.05859,0.011719 -0.105469,0.035156 l 0.03516,0.1523438 c 0.386718,-0.1054688 0.457031,-0.1171875 0.5625,-0.1171875 0.246093,0 0.304687,0.09375 0.445312,0.69140625 L 13.069336,0.879375 12.249023,2.05125 c -0.210937,0.3046875 -0.398437,0.4804687 -0.515625,0.4804687 -0.05859,0 -0.152343,-0.035156 -0.257812,-0.09375 -0.128906,-0.070312 -0.222656,-0.09375 -0.316406,-0.09375 -0.199219,0 -0.339844,0.140625 -0.339844,0.3515625 0,0.2578125 0.1875,0.4101563 0.503906,0.4101563 0.304688,0 0.421875,-0.082031 0.925781,-0.6796875 0.269532,-0.3398438 0.492188,-0.6328125 0.902344,-1.1835938 l 0.292969,1.1953125 c 0.128906,0.5273438 0.257812,0.6679688 0.585937,0.6679688 0.375,0 0.632813,-0.234375 1.21875,-1.1367188 z m 0,0"
         style="fill:#231f20;fill-opacity:1;fill-rule:nonzero;stroke:none" />
      <path
         id="path27"
         d="m 57.908203,-14.299336 v -7.5 h 6 v 7.5 z m 0.1875,-0.1875 h 5.625 v -7.125 h -5.625 z m 0,0"
         style="fill:#231f20;fill-opacity:1;fill-rule:nonzero;stroke:none" />
      <path
         id="path28"
         d="m 68.619141,-12.412617 c -0.08203,0.09375 -0.128907,0.152344 -0.222657,0.269531 -0.222656,0.304688 -0.351562,0.398438 -0.46875,0.398438 -0.140625,0 -0.234375,-0.128907 -0.304687,-0.410157 -0.02344,-0.105468 -0.02344,-0.128906 -0.03516,-0.152343 -0.246094,-1.019532 -0.363282,-1.476563 -0.363282,-1.628907 0.457032,-0.785156 0.808594,-1.207031 0.984375,-1.207031 0.05859,0 0.152344,0.02344 0.234375,0.07031 0.128907,0.07031 0.199219,0.09375 0.28125,0.09375 0.199219,0 0.339844,-0.152344 0.339844,-0.363282 0,-0.210937 -0.164062,-0.363281 -0.410156,-0.363281 -0.433594,0 -0.808594,0.363281 -1.5,1.429688 l -0.117188,-0.550782 c -0.140625,-0.679687 -0.246093,-0.878906 -0.515625,-0.878906 -0.234375,0 -0.550781,0.08203 -1.171875,0.292969 -0.05859,0.01172 -0.05859,0.01172 -0.105468,0.03516 l 0.03516,0.152344 c 0.386719,-0.105469 0.457031,-0.117188 0.5625,-0.117188 0.246094,0 0.304687,0.09375 0.445312,0.691407 l 0.292969,1.230468 -0.820312,1.171875 c -0.210938,0.304688 -0.398438,0.480469 -0.515625,0.480469 -0.05859,0 -0.152344,-0.03516 -0.257813,-0.09375 -0.128906,-0.07031 -0.222656,-0.09375 -0.316406,-0.09375 -0.199219,0 -0.339844,0.140625 -0.339844,0.351563 0,0.257812 0.1875,0.410156 0.503906,0.410156 0.304688,0 0.421875,-0.08203 0.925782,-0.679688 0.269531,-0.339843 0.492187,-0.632812 0.902343,-1.183593 l 0.292969,1.195312 c 0.128906,0.527344 0.257813,0.667969 0.585938,0.667969 0.375,0 0.632812,-0.234375 1.21875,-1.136719 z m 4.441406,0 c -0.08203,0.09375 -0.128906,0.152344 -0.222656,0.269531 -0.222657,0.304688 -0.351563,0.398438 -0.46875,0.398438 -0.140625,0 -0.234375,-0.128907 -0.304688,-0.410157 -0.02344,-0.105468 -0.02344,-0.128906 -0.03516,-0.152343 -0.246094,-1.019532 -0.363281,-1.476563 -0.363281,-1.628907 0.457031,-0.785156 0.808593,-1.207031 0.984375,-1.207031 0.05859,0 0.152343,0.02344 0.234375,0.07031 0.128906,0.07031 0.199218,0.09375 0.28125,0.09375 0.199218,0 0.339843,-0.152344 0.339843,-0.363282 0,-0.210937 -0.164062,-0.363281 -0.410156,-0.363281 -0.433594,0 -0.808594,0.363281 -1.5,1.429688 l -0.117187,-0.550782 c -0.140625,-0.679687 -0.246094,-0.878906 -0.515625,-0.878906 -0.234375,0 -0.550782,0.08203 -1.171875,0.292969 -0.05859,0.01172 -0.05859,0.01172 -0.105469,0.03516 l 0.03516,0.152344 c 0.386719,-0.105469 0.457031,-0.117188 0.5625,-0.117188 0.246094,0 0.304688,0.09375 0.445313,0.691407 l 0.292968,1.230468 -0.820312,1.171875 c -0.210938,0.304688 -0.398438,0.480469 -0.515625,0.480469 -0.05859,0 -0.152344,-0.03516 -0.257813,-0.09375 -0.128906,-0.07031 -0.222656,-0.09375 -0.316406,-0.09375 -0.199219,0 -0.339844,0.140625 -0.339844,0.351563 0,0.257812 0.1875,0.410156 0.503907,0.410156 0.304687,0 0.421875,-0.08203 0.925781,-0.679688 0.269531,-0.339843 0.492187,-0.632812 0.902344,-1.183593 l 0.292968,1.195312 c 0.128907,0.527344 0.257813,0.667969 0.585938,0.667969 0.375,0 0.632812,-0.234375 1.21875,-1.136719 z m 0,0"
         style="fill:#231f20;fill-opacity:1;fill-rule:nonzero;stroke:none" />
    </g>
    <path
       id="path29"
       d="m 3382.25,1092.25 v -296"
       style="fill:none;stroke:#231f20;stroke-width:2.5;stroke-linecap:butt;stroke-linejoin:miter;stroke-miterlimit:3.8637;stroke-dasharray:none;stroke-opacity:1"
       transform="matrix(0.13333333,0,0,-0.13333333,0,229.44)" />
    <path
       id="path30"
       d="m 3382.25,1089.25 h -15 l 15,38 15,-38 h -15"
       style="fill:#231f20;fill-opacity:1;fill-rule:evenodd;stroke:none"
       transform="matrix(0.13333333,0,0,-0.13333333,0,229.44)" />
    <path
       id="path31"
       d="m 3382.25,793.25 h 295"
       style="fill:none;stroke:#231f20;stroke-width:2.5;stroke-linecap:butt;stroke-linejoin:miter;stroke-miterlimit:3.8637;stroke-dasharray:none;stroke-opacity:1"
       transform="matrix(0.13333333,0,0,-0.13333333,0,229.44)" />
    <path
       id="path32"
       d="m 3675.25,793.25 v 15 l 37,-15 -37,-15 v 15"
       style="fill:#231f20;fill-opacity:1;fill-rule:evenodd;stroke:none"
       transform="matrix(0.13333333,0,0,-0.13333333,0,229.44)" />
    <path
       id="path33"
       d="m 3210.25,659.25 172,137"
       style="fill:none;stroke:#231f20;stroke-width:2.5;stroke-linecap:butt;stroke-linejoin:miter;stroke-miterlimit:3.8637;stroke-dasharray:none;stroke-opacity:1"
       transform="matrix(0.13333333,0,0,-0.13333333,0,229.44)" />
    <path
       id="path34"
       d="m 3212.25,661.25 10,-12 -39,-12 20,36 9,-12"
       style="fill:#231f20;fill-opacity:1;fill-rule:evenodd;stroke:none"
       transform="matrix(0.13333333,0,0,-0.13333333,0,229.44)" />
    <path
       id="path35"
       d="m 3964.25,1225.25 v -296"
       style="fill:none;stroke:#231f20;stroke-width:2.5;stroke-linecap:butt;stroke-linejoin:miter;stroke-miterlimit:3.8637;stroke-dasharray:none;stroke-opacity:1"
       transform="matrix(0.13333333,0,0,-0.13333333,0,229.44)" />
    <path
       id="path36"
       d="m 3964.25,1222.25 h -15 l 15,38 15,-38 h -15"
       style="fill:#231f20;fill-opacity:1;fill-rule:evenodd;stroke:none"
       transform="matrix(0.13333333,0,0,-0.13333333,0,229.44)" />
    <path
       id="path37"
       d="m 3964.25,926.25 h 295"
       style="fill:none;stroke:#231f20;stroke-width:2.5;stroke-linecap:butt;stroke-linejoin:miter;stroke-miterlimit:3.8637;stroke-dasharray:none;stroke-opacity:1"
       transform="matrix(0.13333333,0,0,-0.13333333,0,229.44)" />
    <path
       id="path38"
       d="m 4257.25,926.25 v 15 l 37,-15 -37,-15 v 15"
       style="fill:#231f20;fill-opacity:1;fill-rule:evenodd;stroke:none"
       transform="matrix(0.13333333,0,0,-0.13333333,0,229.44)" />
    <path
       id="path39"
       d="m 3792.25,792.25 172,137"
       style="fill:none;stroke:#231f20;stroke-width:2.5;stroke-linecap:butt;stroke-linejoin:miter;stroke-miterlimit:3.8637;stroke-dasharray:none;stroke-opacity:1"
       transform="matrix(0.13333333,0,0,-0.13333333,0,229.44)" />
    <path
       id="path40"
       d="m 3794.25,794.25 10,-12 -39,-12 20,36 9,-12"
       style="fill:#231f20;fill-opacity:1;fill-rule:evenodd;stroke:none"
       transform="matrix(0.13333333,0,0,-0.13333333,0,229.44)" />
    <path
       id="path41"
       d="m 3366.25,1243.25 h 69 v -34 h -69 v 34"
       style="fill:#ffffff;fill-opacity:1;fill-rule:nonzero;stroke:none"
       transform="matrix(0.13333333,0,0,-0.13333333,0,229.44)" />
    <path
       id="path42"
       d="m 3366.25,1243.25 h 69 v -34 h -69 z"
       style="fill:none;stroke:#ffffff;stroke-width:2.5;stroke-linecap:butt;stroke-linejoin:miter;stroke-miterlimit:3.8637;stroke-dasharray:none;stroke-opacity:1"
       transform="matrix(0.13333333,0,0,-0.13333333,0,229.44)" />
    <path
       id="path43"
       d="m 3553.25,1637.25 v -295"
       style="fill:none;stroke:#231f20;stroke-width:2.5;stroke-linecap:butt;stroke-linejoin:miter;stroke-miterlimit:3.8637;stroke-dasharray:none;stroke-opacity:1"
       transform="matrix(0.13333333,0,0,-0.13333333,0,229.44)" />
    <path
       id="path44"
       d="m 3553.25,1635.25 h -15 l 15,37 15,-37 h -15"
       style="fill:#231f20;fill-opacity:1;fill-rule:evenodd;stroke:none"
       transform="matrix(0.13333333,0,0,-0.13333333,0,229.44)" />
    <path
       id="path45"
       d="m 3553.25,1339.25 h 296"
       style="fill:none;stroke:#231f20;stroke-width:2.5;stroke-linecap:butt;stroke-linejoin:miter;stroke-miterlimit:3.8637;stroke-dasharray:none;stroke-opacity:1"
       transform="matrix(0.13333333,0,0,-0.13333333,0,229.44)" />
    <path
       id="path46"
       d="m 3847.25,1339.25 v 15 l 37,-15 -37,-15 v 15"
       style="fill:#231f20;fill-opacity:1;fill-rule:evenodd;stroke:none"
       transform="matrix(0.13333333,0,0,-0.13333333,0,229.44)" />
    <path
       id="path47"
       d="m 3382.25,1205.25 171,136"
       style="fill:none;stroke:#231f20;stroke-width:2.5;stroke-linecap:butt;stroke-linejoin:miter;stroke-miterlimit:3.8637;stroke-dasharray:none;stroke-opacity:1"
       transform="matrix(0.13333333,0,0,-0.13333333,0,229.44)" />
    <path
       id="path48"
       d="m 3384.25,1207.25 9,-12 -38,-12 19,35 10,-11"
       style="fill:#231f20;fill-opacity:1;fill-rule:evenodd;stroke:none"
       transform="matrix(0.13333333,0,0,-0.13333333,0,229.44)" />
    <g
       id="g48"
       aria-label="σ&#10;xy&#10;σ&#10;zy&#10;σ&#10;yy&#10;σ&#10;yx&#10;σ&#10;yz&#10;σ&#10;xz"
       transform="matrix(1.3333333,0,0,1.3333333,533.5,71.406667)">
      <path
         id="path49"
         d="m 0.609375,-3.125e-4 v -7.5 h 6 v 7.5 z m 0.1875,-0.1875 h 5.625 v -7.125 h -5.625 z m 0,0"
         style="fill:#231f20;fill-opacity:1;fill-rule:nonzero;stroke:none" />
      <path
         id="path50"
         d="M 11.320313,1.8864062 C 11.238281,1.9801562 11.191406,2.03875 11.097656,2.1559375 10.875,2.460625 10.746094,2.554375 10.628906,2.554375 c -0.140625,0 -0.234375,-0.1289063 -0.304687,-0.4101563 C 10.300781,2.03875 10.300781,2.0153125 10.289063,1.991875 10.042969,0.97234375 9.9257813,0.5153125 9.9257813,0.36296875 10.382813,-0.4221875 10.734375,-0.8440625 10.910156,-0.8440625 c 0.05859,0 0.152344,0.0234375 0.234375,0.0703125 0.128907,0.0703125 0.199219,0.09375 0.28125,0.09375 0.199219,0 0.339844,-0.15234375 0.339844,-0.3632813 0,-0.2109375 -0.164062,-0.3632812 -0.410156,-0.3632812 -0.433594,0 -0.808594,0.3632812 -1.5000002,1.4296875 L 9.7382813,-0.52765625 C 9.5976563,-1.2073438 9.4921875,-1.4065625 9.2226563,-1.4065625 c -0.234375,0 -0.5507813,0.082031 -1.171875,0.2929687 -0.058594,0.011719 -0.058594,0.011719 -0.1054688,0.035156 l 0.035156,0.15234375 C 8.3671875,-1.0315625 8.4375,-1.0432813 8.5429688,-1.0432813 c 0.2460937,0 0.3046875,0.0937501 0.4453125,0.6914063 L 9.28125,0.87859375 8.4609375,2.0504687 C 8.25,2.3551562 8.0625,2.5309375 7.9453125,2.5309375 7.8867187,2.5309375 7.7929687,2.4957812 7.6875,2.4371875 7.5585937,2.366875 7.4648437,2.3434375 7.3710937,2.3434375 7.171875,2.3434375 7.03125,2.4840625 7.03125,2.695 c 0,0.2578125 0.1875,0.4101562 0.5039062,0.4101562 0.3046875,0 0.421875,-0.082031 0.9257813,-0.6796875 C 8.7304688,2.085625 8.953125,1.7926562 9.3632813,1.241875 L 9.65625,2.4371875 c 0.1289063,0.5273437 0.2578125,0.6679687 0.585938,0.6679687 0.375,0 0.632812,-0.234375 1.21875,-1.1367187 z m 0.571289,-2.88281245 c 0.117187,-0.0351562 0.199218,-0.0468751 0.304687,-0.0468751 0.410156,0 0.597656,0.1640625 0.796875,0.703125 0.28125,0.73828125 0.796875,2.8828125 0.796875,3.2578125 0,0.1640625 -0.07031,0.3164063 -0.210937,0.515625 -0.28125,0.3632813 -0.515625,0.6445312 -0.632813,0.7734374 -0.210937,0.2226563 -0.316406,0.3046875 -0.445312,0.3046875 -0.07031,0 -0.128907,-0.035156 -0.246094,-0.1171875 -0.140625,-0.1171875 -0.246094,-0.1640625 -0.363281,-0.1640625 -0.222657,0 -0.386719,0.1640625 -0.386719,0.3867188 0,0.2578125 0.199219,0.4453125 0.503906,0.4453125 0.644531,0 1.945313,-1.4882812 3.023438,-3.4804688 0.679687,-1.23046865 0.960937,-1.9453124 0.960937,-2.4374999 0,-0.3046876 -0.246094,-0.5507813 -0.550781,-0.5507813 -0.222656,0 -0.386719,0.1523437 -0.386719,0.3632812 0,0.1640626 0.08203,0.26953135 0.28125,0.3984376 0.1875,0.10546875 0.257813,0.19921875 0.257813,0.33984375 0,0.3984375 -0.351563,1.16015625 -1.21875,2.58984365 L 14.176758,1.1246875 c -0.152344,-0.890625 -0.703125,-2.53125 -0.855469,-2.53125 h -0.04687 c -0.01172,0.011719 -0.04687,0.011719 -0.08203,0.011719 -0.08203,0.011719 -0.457031,0.070312 -0.984375,0.1640625 -0.04687,0.011719 -0.175781,0.046875 -0.316406,0.058594 z m 0,0"
         style="fill:#231f20;fill-opacity:1;fill-rule:nonzero;stroke:none" />
      <path
         id="path51"
         d="M -56.689453,13.801445 V 6.3014453 h 6 v 7.4999997 z m 0.1875,-0.1875 h 5.625 V 6.4889453 h -5.625 z m 0,0"
         style="fill:#231f20;fill-opacity:1;fill-rule:nonzero;stroke:none" />
      <path
         id="path52"
         d="m -49.291992,13.707695 c 0.199219,-0.480468 0.351562,-0.597656 0.808594,-0.585937 h 1.464843 l -3.105468,3.714844 0.09375,0.09375 c 0.164062,-0.128907 0.292968,-0.175782 0.445312,-0.175782 0.269531,0 0.585938,0.128907 1.054688,0.421875 0.503906,0.304688 0.832031,0.433594 1.113281,0.433594 0.503906,0 0.949219,-0.363281 0.949219,-0.761719 0,-0.222656 -0.140625,-0.351562 -0.351563,-0.351562 -0.199219,0 -0.339844,0.128906 -0.339844,0.316406 0,0.08203 0.02344,0.164063 0.08203,0.292969 0.03516,0.05859 0.05859,0.117187 0.05859,0.140625 0,0.09375 -0.117187,0.152344 -0.269531,0.152344 -0.257812,0 -0.375,-0.08203 -0.703125,-0.492188 -0.445312,-0.574219 -0.632812,-0.703125 -1.207031,-0.832031 l 2.894531,-3.445313 v -0.105468 h -2.835937 l -0.316407,1.148437 z m 3.234375,-0.902343 c 0.117187,-0.03516 0.199219,-0.04687 0.304687,-0.04687 0.410157,0 0.597657,0.164062 0.796875,0.703125 0.28125,0.738281 0.796875,2.882812 0.796875,3.257812 0,0.164063 -0.07031,0.316406 -0.210937,0.515625 -0.28125,0.363281 -0.515625,0.644531 -0.632813,0.773438 -0.210937,0.222656 -0.316406,0.304687 -0.445312,0.304687 -0.07031,0 -0.128906,-0.03516 -0.246094,-0.117187 -0.140625,-0.117188 -0.246094,-0.164063 -0.363281,-0.164063 -0.222656,0 -0.386719,0.164063 -0.386719,0.386719 0,0.257812 0.199219,0.445312 0.503906,0.445312 0.644532,0 1.945313,-1.488281 3.023438,-3.480468 0.679687,-1.230469 0.960937,-1.945313 0.960937,-2.4375 0,-0.304688 -0.246093,-0.550782 -0.550781,-0.550782 -0.222656,0 -0.386719,0.152344 -0.386719,0.363282 0,0.164062 0.08203,0.269531 0.28125,0.398437 0.1875,0.105469 0.257813,0.199219 0.257813,0.339844 0,0.398437 -0.351563,1.160156 -1.21875,2.589844 l -0.199219,-1.160157 c -0.152344,-0.890625 -0.703125,-2.53125 -0.855469,-2.53125 h -0.04687 c -0.01172,0.01172 -0.04687,0.01172 -0.08203,0.01172 -0.08203,0.01172 -0.457031,0.07031 -0.984375,0.164063 -0.04687,0.01172 -0.175781,0.04687 -0.316406,0.05859 z m 0,0"
         style="fill:#231f20;fill-opacity:1;fill-rule:nonzero;stroke:none" />
      <path
         id="path53"
         d="m -39.691406,-41.200508 v -7.5 h 6 v 7.5 z m 0.1875,-0.1875 h 5.625 v -7.125 h -5.625 z m 0,0"
         style="fill:#231f20;fill-opacity:1;fill-rule:nonzero;stroke:none" />
      <path
         id="path54"
         d="m -32.947266,-42.196602 c 0.117188,-0.03516 0.199219,-0.04687 0.304688,-0.04687 0.410156,0 0.597656,0.164063 0.796875,0.703125 0.28125,0.738282 0.796875,2.882813 0.796875,3.257813 0,0.164062 -0.07031,0.316406 -0.210938,0.515625 -0.28125,0.363281 -0.515625,0.644531 -0.632812,0.773437 -0.210938,0.222657 -0.316406,0.304688 -0.445313,0.304688 -0.07031,0 -0.128906,-0.03516 -0.246093,-0.117188 -0.140625,-0.117187 -0.246094,-0.164062 -0.363282,-0.164062 -0.222656,0 -0.386718,0.164062 -0.386718,0.386719 0,0.257812 0.199218,0.445312 0.503906,0.445312 0.644531,0 1.945312,-1.488281 3.023437,-3.480469 0.679688,-1.230468 0.960938,-1.945312 0.960938,-2.4375 0,-0.304687 -0.246094,-0.550781 -0.550781,-0.550781 -0.222657,0 -0.386719,0.152344 -0.386719,0.363281 0,0.164063 0.08203,0.269532 0.28125,0.398438 0.1875,0.105469 0.257812,0.199219 0.257812,0.339844 0,0.398437 -0.351562,1.160156 -1.21875,2.589843 l -0.199218,-1.160156 c -0.152344,-0.890625 -0.703125,-2.53125 -0.855469,-2.53125 h -0.04687 c -0.01172,0.01172 -0.04687,0.01172 -0.08203,0.01172 -0.08203,0.01172 -0.457032,0.07031 -0.984375,0.164062 -0.04687,0.01172 -0.175782,0.04687 -0.316407,0.05859 z m 4.438477,0 c 0.117187,-0.03516 0.199219,-0.04687 0.304687,-0.04687 0.410157,0 0.597657,0.164063 0.796875,0.703125 0.28125,0.738282 0.796875,2.882813 0.796875,3.257813 0,0.164062 -0.07031,0.316406 -0.210937,0.515625 -0.28125,0.363281 -0.515625,0.644531 -0.632813,0.773437 -0.210937,0.222657 -0.316406,0.304688 -0.445312,0.304688 -0.07031,0 -0.128906,-0.03516 -0.246094,-0.117188 -0.140625,-0.117187 -0.246094,-0.164062 -0.363281,-0.164062 -0.222656,0 -0.386719,0.164062 -0.386719,0.386719 0,0.257812 0.199219,0.445312 0.503906,0.445312 0.644532,0 1.945313,-1.488281 3.023438,-3.480469 0.679687,-1.230468 0.960937,-1.945312 0.960937,-2.4375 0,-0.304687 -0.246093,-0.550781 -0.550781,-0.550781 -0.222656,0 -0.386719,0.152344 -0.386719,0.363281 0,0.164063 0.08203,0.269532 0.28125,0.398438 0.1875,0.105469 0.257813,0.199219 0.257813,0.339844 0,0.398437 -0.351563,1.160156 -1.21875,2.589843 l -0.199219,-1.160156 c -0.152344,-0.890625 -0.703125,-2.53125 -0.855469,-2.53125 h -0.04687 c -0.01172,0.01172 -0.04687,0.01172 -0.08203,0.01172 -0.08203,0.01172 -0.457031,0.07031 -0.984375,0.164062 -0.04687,0.01172 -0.175781,0.04687 -0.316406,0.05859 z m 0,0"
         style="fill:#231f20;fill-opacity:1;fill-rule:nonzero;stroke:none" />
      <path
         id="path55"
         d="m -13.59082,-18.299141 v -7.5 h 5.9999997 v 7.5 z m 0.1875,-0.1875 h 5.6249997 v -7.125 H -13.40332 Z m 0,0"
         style="fill:#231f20;fill-opacity:1;fill-rule:nonzero;stroke:none" />
      <path
         id="path56"
         d="m -6.6474609,-19.295234 c 0.1171875,-0.03516 0.1992187,-0.04687 0.3046875,-0.04687 0.4101562,0 0.5976562,0.164062 0.796875,0.703125 0.28125,0.738281 0.796875,2.882812 0.796875,3.257812 0,0.164063 -0.070312,0.316406 -0.2109375,0.515625 -0.28125,0.363281 -0.515625,0.644531 -0.6328125,0.773438 -0.2109375,0.222656 -0.3164063,0.304687 -0.4453125,0.304687 -0.070312,0 -0.1289063,-0.03516 -0.2460938,-0.117187 -0.140625,-0.117188 -0.2460937,-0.164063 -0.3632812,-0.164063 -0.2226563,0 -0.3867188,0.164063 -0.3867188,0.386719 0,0.257812 0.1992188,0.445312 0.5039063,0.445312 0.6445312,0 1.9453125,-1.488281 3.0234375,-3.480468 0.6796875,-1.230469 0.9609375,-1.945313 0.9609375,-2.4375 0,-0.304688 -0.2460938,-0.550782 -0.5507813,-0.550782 -0.2226562,0 -0.3867187,0.152344 -0.3867187,0.363282 0,0.164062 0.082031,0.269531 0.28125,0.398437 0.1875,0.105469 0.2578125,0.199219 0.2578125,0.339844 0,0.398437 -0.3515625,1.160156 -1.21875,2.589844 l -0.1992188,-1.160157 c -0.1523437,-0.890625 -0.703125,-2.53125 -0.8554687,-2.53125 h -0.046875 c -0.011719,0.01172 -0.046875,0.01172 -0.082031,0.01172 -0.082031,0.01172 -0.4570312,0.07031 -0.984375,0.164063 -0.046875,0.01172 -0.1757812,0.04687 -0.3164062,0.05859 z m 8.4521484,2.882812 c -0.082031,0.09375 -0.1289063,0.152344 -0.2226563,0.269531 -0.2226562,0.304688 -0.3515625,0.398438 -0.46875,0.398438 -0.14062495,0 -0.23437495,-0.128906 -0.30468745,-0.410156 -0.0234375,-0.105469 -0.0234375,-0.128907 -0.0351563,-0.152344 -0.24609375,-1.019531 -0.36328125,-1.476563 -0.36328125,-1.628906 0.45703125,-0.785157 0.8085938,-1.207032 0.984375,-1.207032 0.058594,0 0.1523438,0.02344 0.234375,0.07031 0.1289063,0.07031 0.1992188,0.09375 0.28125,0.09375 0.1992188,0 0.3398438,-0.152344 0.3398438,-0.363281 0,-0.210938 -0.1640625,-0.363282 -0.4101563,-0.363282 -0.4335937,0 -0.8085937,0.363282 -1.5,1.429688 l -0.1171875,-0.550781 c -0.140625,-0.679688 -0.24609375,-0.878907 -0.515625,-0.878907 -0.234375,0 -0.55078125,0.08203 -1.1718749,0.292969 -0.058594,0.01172 -0.058594,0.01172 -0.1054688,0.03516 l 0.035156,0.152344 c 0.3867187,-0.105469 0.4570312,-0.117187 0.5624999,-0.117187 0.24609375,0 0.3046875,0.09375 0.4453125,0.691406 l 0.29296875,1.230469 -0.82031245,1.171875 c -0.2109375,0.304687 -0.3984375,0.480468 -0.515625,0.480468 -0.058594,0 -0.1523437,-0.03516 -0.2578125,-0.09375 -0.1289062,-0.07031 -0.2226563,-0.09375 -0.3164063,-0.09375 -0.1992187,0 -0.3398437,0.140625 -0.3398437,0.351563 0,0.257812 0.1875,0.410156 0.5039063,0.410156 0.3046875,0 0.421875,-0.08203 0.9257812,-0.679687 0.2695312,-0.339844 0.49218745,-0.632813 0.9023437,-1.183594 l 0.29296875,1.195312 c 0.12890625,0.527344 0.2578125,0.667969 0.5859375,0.667969 0.37500005,0 0.63281255,-0.234375 1.21875005,-1.136719 z m 0,0"
         style="fill:#231f20;fill-opacity:1;fill-rule:nonzero;stroke:none" />
      <path
         id="path57"
         d="m -73.391602,-9.0999219 v -7.5000001 h 6 v 7.5000001 z m 0.1875,-0.1875 h 5.625 v -7.1250001 h -5.625 z m 0,0"
         style="fill:#231f20;fill-opacity:1;fill-rule:nonzero;stroke:none" />
      <path
         id="path58"
         d="m -66.647461,-10.096016 c 0.117188,-0.03516 0.199219,-0.04687 0.304688,-0.04687 0.410156,0 0.597656,0.1640629 0.796875,0.7031254 0.28125,0.7382812 0.796875,2.8828125 0.796875,3.2578125 0,0.1640625 -0.07031,0.3164062 -0.210938,0.515625 -0.28125,0.3632812 -0.515625,0.6445312 -0.632812,0.7734375 -0.210938,0.2226562 -0.316407,0.3046875 -0.445313,0.3046875 -0.07031,0 -0.128906,-0.035156 -0.246094,-0.1171875 -0.140625,-0.1171875 -0.246093,-0.1640625 -0.363281,-0.1640625 -0.222656,0 -0.386719,0.1640625 -0.386719,0.3867187 0,0.2578125 0.199219,0.4453125 0.503907,0.4453125 0.644531,0 1.945312,-1.4882812 3.023437,-3.4804687 0.679688,-1.2304688 0.960938,-1.9453125 0.960938,-2.4375 0,-0.3046874 -0.246094,-0.5507814 -0.550782,-0.5507814 -0.222656,0 -0.386718,0.152344 -0.386718,0.363281 0,0.1640629 0.08203,0.2695316 0.28125,0.3984379 0.1875,0.1054687 0.257812,0.1992187 0.257812,0.3398437 0,0.3984375 -0.351562,1.1601563 -1.21875,2.5898438 l -0.199219,-1.1601563 c -0.152343,-0.890625 -0.703125,-2.5312501 -0.855468,-2.5312501 h -0.04687 c -0.01172,0.01172 -0.04687,0.01172 -0.08203,0.01172 -0.08203,0.01172 -0.457031,0.07031 -0.984375,0.164062 -0.04687,0.01172 -0.175781,0.04687 -0.316406,0.05859 z m 5.094727,0.9023441 c 0.199218,-0.4804687 0.351562,-0.5976562 0.808593,-0.5859375 h 1.464844 l -3.105469,3.7148438 0.09375,0.09375 c 0.164063,-0.1289063 0.292969,-0.1757813 0.445313,-0.1757813 0.269531,0 0.585937,0.1289063 1.054687,0.421875 0.503907,0.3046875 0.832032,0.4335938 1.113282,0.4335938 0.503906,0 0.949218,-0.3632813 0.949218,-0.7617188 0,-0.2226562 -0.140625,-0.3515625 -0.351562,-0.3515625 -0.199219,0 -0.339844,0.1289063 -0.339844,0.3164063 0,0.082031 0.02344,0.1640625 0.08203,0.2929687 0.03516,0.058594 0.05859,0.1171875 0.05859,0.140625 0,0.09375 -0.117187,0.1523438 -0.269531,0.1523438 -0.257813,0 -0.375,-0.082031 -0.703125,-0.4921875 -0.445313,-0.5742188 -0.632813,-0.703125 -1.207031,-0.8320313 l 2.894531,-3.4453126 v -0.105469 h -2.835938 l -0.316406,1.1484379 z m 0,0"
         style="fill:#231f20;fill-opacity:1;fill-rule:nonzero;stroke:none" />
      <path
         id="path59"
         d="m -14.791992,45.600273 v -7.5 h 5.9999998 v 7.5 z m 0.1875,-0.1875 h 5.6249998 v -7.125 h -5.6249998 z m 0,0"
         style="fill:#231f20;fill-opacity:1;fill-rule:nonzero;stroke:none" />
      <path
         id="path60"
         d="m -4.0810547,47.486992 c -0.082031,0.09375 -0.1289062,0.152344 -0.2226562,0.269531 -0.2226563,0.304688 -0.3515625,0.398438 -0.46875,0.398438 -0.140625,0 -0.234375,-0.128906 -0.3046875,-0.410156 -0.023437,-0.105469 -0.023437,-0.128907 -0.035156,-0.152344 -0.2460937,-1.019531 -0.3632812,-1.476563 -0.3632812,-1.628906 0.4570312,-0.785157 0.8085937,-1.207032 0.984375,-1.207032 0.058594,0 0.1523437,0.02344 0.234375,0.07031 0.1289062,0.07031 0.1992187,0.09375 0.28125,0.09375 0.1992187,0 0.3398437,-0.152344 0.3398437,-0.363281 0,-0.210938 -0.1640625,-0.363282 -0.4101562,-0.363282 -0.4335938,0 -0.8085938,0.363282 -1.5,1.429688 L -5.6630859,45.07293 c -0.140625,-0.679688 -0.2460938,-0.878907 -0.515625,-0.878907 -0.234375,0 -0.5507813,0.08203 -1.171875,0.292969 -0.058594,0.01172 -0.058594,0.01172 -0.1054688,0.03516 l 0.035156,0.152344 c 0.3867187,-0.105469 0.4570312,-0.117187 0.5625,-0.117187 0.2460937,0 0.3046875,0.09375 0.4453125,0.691406 l 0.2929687,1.230469 -0.8203125,1.171875 c -0.2109375,0.304687 -0.3984375,0.480468 -0.515625,0.480468 -0.058594,0 -0.1523437,-0.03516 -0.2578125,-0.09375 -0.1289062,-0.07031 -0.2226562,-0.09375 -0.3164062,-0.09375 -0.1992188,0 -0.3398438,0.140625 -0.3398438,0.351563 0,0.257812 0.1875,0.410156 0.5039063,0.410156 0.3046875,0 0.421875,-0.08203 0.9257812,-0.679687 0.2695313,-0.339844 0.4921875,-0.632813 0.9023438,-1.183594 l 0.2929687,1.195312 c 0.1289063,0.527344 0.2578125,0.667969 0.5859375,0.667969 0.375,0 0.6328125,-0.234375 1.21875,-1.136719 z m 1.2304688,-1.980469 c 0.1992187,-0.480468 0.3515625,-0.597656 0.8085937,-0.585937 h 1.46484376 l -3.10546876,3.714844 0.09375,0.09375 c 0.1640625,-0.128907 0.2929688,-0.175782 0.4453125,-0.175782 0.2695313,0 0.5859375,0.128907 1.0546875,0.421875 0.5039063,0.304688 0.8320313,0.433594 1.11328126,0.433594 0.50390625,0 0.94921875,-0.363281 0.94921875,-0.761719 0,-0.222656 -0.140625,-0.351562 -0.3515625,-0.351562 -0.19921875,0 -0.33984375,0.128906 -0.33984375,0.316406 0,0.08203 0.0234375,0.164063 0.0820313,0.292969 0.0351563,0.05859 0.0585938,0.117187 0.0585938,0.140625 0,0.09375 -0.1171875,0.152344 -0.26953125,0.152344 -0.25781251,0 -0.37500001,-0.08203 -0.70312501,-0.492188 -0.4453125,-0.574219 -0.6328125,-0.703125 -1.2070312,-0.832031 L 0.13769531,44.428398 V 44.32293 H -2.6982422 l -0.3164062,1.148437 z m 0,0"
         style="fill:#231f20;fill-opacity:1;fill-rule:nonzero;stroke:none" />
    </g>
    <path
       id="path61"
       d="m 1371.25,935.25 h 147 v -146 h -147 z"
       style="fill:none;stroke:#231f20;stroke-width:5;stroke-linecap:butt;stroke-linejoin:miter;stroke-miterlimit:3.8637;stroke-dasharray:none;stroke-opacity:1"
       transform="matrix(0.13333333,0,0,-0.13333333,0,229.44)" />
    <path
       id="path62"
       d="m 1518.25,935.25 52,40 v -136 l -52,-50 z"
       style="fill:none;stroke:#231f20;stroke-width:6.046;stroke-linecap:butt;stroke-linejoin:miter;stroke-miterlimit:3.8637;stroke-dasharray:none;stroke-opacity:1"
       transform="matrix(0.13333333,0,0,-0.13333333,0,229.44)" />
    <path
       id="path63"
       d="m 1433.25,839.25 -62,-50"
       style="fill:none;stroke:#231f20;stroke-width:6.046;stroke-linecap:butt;stroke-linejoin:miter;stroke-miterlimit:3.8637;stroke-dasharray:20, 20;stroke-dashoffset:0;stroke-opacity:1"
       transform="matrix(0.13333333,0,0,-0.13333333,0,229.44)" />
    <path
       id="path64"
       d="m 1371.25,936.25 62,39"
       style="fill:none;stroke:#231f20;stroke-width:6.046;stroke-linecap:butt;stroke-linejoin:miter;stroke-miterlimit:3.8637;stroke-dasharray:none;stroke-opacity:1"
       transform="matrix(0.13333333,0,0,-0.13333333,0,229.44)" />
    <path
       id="path65"
       d="m 1570.25,838.25 h -137"
       style="fill:none;stroke:#231f20;stroke-width:5;stroke-linecap:butt;stroke-linejoin:miter;stroke-miterlimit:3.8637;stroke-dasharray:20, 20;stroke-dashoffset:0;stroke-opacity:1"
       transform="matrix(0.13333333,0,0,-0.13333333,0,229.44)" />
    <path
       id="path66"
       d="m 1570.25,975.25 v -137"
       style="fill:none;stroke:#231f20;stroke-width:5;stroke-linecap:butt;stroke-linejoin:miter;stroke-miterlimit:3.8637;stroke-dasharray:none;stroke-opacity:1"
       transform="matrix(0.13333333,0,0,-0.13333333,0,229.44)" />
    <path
       id="path67"
       d="m 1433.25,975.25 h 137"
       style="fill:none;stroke:#231f20;stroke-width:5;stroke-linecap:butt;stroke-linejoin:miter;stroke-miterlimit:3.8637;stroke-dasharray:none;stroke-opacity:1"
       transform="matrix(0.13333333,0,0,-0.13333333,0,229.44)" />
    <path
       id="path68"
       d="m 1433.25,838.25 v 137"
       style="fill:none;stroke:#231f20;stroke-width:5;stroke-linecap:butt;stroke-linejoin:miter;stroke-miterlimit:3.8637;stroke-dasharray:20, 20;stroke-dashoffset:0;stroke-opacity:1"
       transform="matrix(0.13333333,0,0,-0.13333333,0,229.44)" />
    <path
       id="path69"
       d="m 1587.25,908.25 c 196.15,88.121 418.87,140.17 657,146 223.8,4.8 438.6,-31.98 634,-102"
       style="fill:none;stroke:#231f20;stroke-width:2.5;stroke-linecap:butt;stroke-linejoin:miter;stroke-miterlimit:3.8637;stroke-dasharray:none;stroke-opacity:1"
       transform="matrix(0.13333333,0,0,-0.13333333,0,229.44)" />
    <path
       id="path70"
       d="m 2875.25,952.25 5,15 30,-27 -40,-2 5,14"
       style="fill:#231f20;fill-opacity:1;fill-rule:evenodd;stroke:none"
       transform="matrix(0.13333333,0,0,-0.13333333,0,229.44)" />
    <path
       id="path71"
       d="m 1761.25,998.25 h 33 v -23 h -33 v 23"
       style="fill:#ffffff;fill-opacity:1;fill-rule:nonzero;stroke:none"
       transform="matrix(0.13333333,0,0,-0.13333333,0,229.44)" />
    <path
       id="path72"
       d="m 1761.25,998.25 h 33 v -23 h -33 z"
       style="fill:none;stroke:#ffffff;stroke-width:10;stroke-linecap:butt;stroke-linejoin:miter;stroke-miterlimit:3.8637;stroke-dasharray:none;stroke-opacity:1"
       transform="matrix(0.13333333,0,0,-0.13333333,0,229.44)" />
    <path
       id="path73"
       d="M 0.97402344,-3.7024609 C 1.2083984,-4.3001172 1.3958984,-4.4290234 1.9466797,-4.4173047 h 1.7460937 l -3.71484371,4.46484376 0.10546875,0.10546875 c 0.19921875,-0.1523437475 0.3515625,-0.2109375 0.5390625,-0.2109375 0.31640625,0 0.70312496,0.15234375 1.26562496,0.50390625 0.5976563,0.375 0.9960938,0.52734375 1.3359375,0.52734375 0.609375,0 1.1367188,-0.43359375 1.1367188,-0.9140625 0,-0.2578125 -0.1757813,-0.43359375 -0.421875,-0.43359375 -0.2460938,0 -0.4101563,0.1640625 -0.4101563,0.38671875 0,0.09375 0.035156,0.19921875 0.1054688,0.3515625 0.035156,0.0703125 0.058594,0.140625 0.058594,0.17578125 0,0.10546875 -0.1289062,0.17578125 -0.3164062,0.17578125 -0.3046875,0 -0.4453125,-0.10546875 -0.84375,-0.59765625 -0.5273438,-0.6796875 -0.75,-0.83203125 -1.453125,-0.99609375 L 4.5599609,-5.0032422 V -5.1321484 H 1.1498047 L 0.78652344,-3.7610547 Z M 117.22695,-13.136055 c -0.10547,0.117188 -0.16406,0.1875 -0.26953,0.328125 -0.26953,0.363282 -0.42187,0.480469 -0.5625,0.480469 -0.16406,0 -0.28125,-0.152344 -0.36328,-0.492187 -0.0352,-0.128907 -0.0352,-0.152344 -0.0469,-0.1875 -0.29297,-1.230469 -0.4336,-1.78125 -0.4336,-1.957032 0.53906,-0.9375 0.96094,-1.453125 1.1836,-1.453125 0.0703,0 0.17578,0.03516 0.28125,0.09375 0.15234,0.08203 0.23437,0.105469 0.33984,0.105469 0.23437,0 0.41016,-0.175781 0.41016,-0.433594 0,-0.257812 -0.21094,-0.445312 -0.49219,-0.445312 -0.52735,0 -0.97266,0.433594 -1.81641,1.722656 l -0.1289,-0.65625 c -0.16407,-0.820312 -0.30469,-1.066406 -0.6211,-1.066406 -0.28125,0 -0.66797,0.105469 -1.40625,0.351562 -0.0703,0.02344 -0.0703,0.02344 -0.1289,0.04687 l 0.0469,0.1875 c 0.46875,-0.128906 0.55078,-0.140625 0.66797,-0.140625 0.30469,0 0.375,0.117188 0.53906,0.832032 l 0.35156,1.476562 -0.98437,1.40625 c -0.25781,0.351563 -0.48047,0.574219 -0.60938,0.574219 -0.082,0 -0.19921,-0.03516 -0.3164,-0.105469 -0.15235,-0.09375 -0.28125,-0.128906 -0.38672,-0.128906 -0.23438,0 -0.41016,0.1875 -0.41016,0.421875 0,0.316406 0.23438,0.503906 0.60938,0.503906 0.36328,0 0.51562,-0.105469 1.11328,-0.820312 0.31641,-0.398438 0.58594,-0.761719 1.07812,-1.417969 l 0.36329,1.441406 c 0.15234,0.621094 0.30468,0.796875 0.6914,0.796875 0.45703,0 0.77344,-0.28125 1.46485,-1.359375 z M 32.274805,-96.904609 c 0.152343,-0.03516 0.246093,-0.04687 0.375,-0.04687 0.492187,0 0.726562,0.199218 0.960937,0.84375 0.328125,0.890625 0.949219,3.457031 0.949219,3.914062 0,0.1875 -0.08203,0.386719 -0.257813,0.609375 -0.328125,0.445313 -0.609375,0.785156 -0.75,0.9375 -0.257812,0.257813 -0.386718,0.363281 -0.539062,0.363281 -0.08203,0 -0.152344,-0.03516 -0.292969,-0.140625 -0.175781,-0.140625 -0.292969,-0.199218 -0.445312,-0.199218 -0.257813,0 -0.46875,0.199218 -0.46875,0.46875 0,0.316406 0.257812,0.527343 0.621093,0.527343 0.761719,0 2.320313,-1.792968 3.632813,-4.171875 0.820312,-1.476562 1.148437,-2.34375 1.148437,-2.929687 0,-0.363281 -0.292968,-0.667969 -0.65625,-0.667969 -0.28125,0 -0.46875,0.1875 -0.46875,0.445313 0,0.199218 0.09375,0.316406 0.339844,0.46875 0.222656,0.140625 0.304688,0.246093 0.304688,0.410156 0,0.480469 -0.433594,1.40625 -1.464844,3.105469 l -0.234375,-1.394532 c -0.1875,-1.066406 -0.855469,-3.035156 -1.03125,-3.035156 h -0.04687 c -0.02344,0.01172 -0.05859,0.01172 -0.117188,0.01172 -0.09375,0.01172 -0.539062,0.09375 -1.171875,0.210937 -0.05859,0.01172 -0.210937,0.04687 -0.386718,0.07031 z m 0,0"
       style="fill:#231f20;fill-opacity:1;fill-rule:nonzero;stroke:none"
       aria-label="z&#10;x&#10;y"
       transform="matrix(1.3333333,0,0,1.3333333,4.0333333,220.07333)" />
    <path
       id="path74"
       d="m 485.25,310.25 -372,-289"
       style="fill:none;stroke:#231f20;stroke-width:2.5;stroke-linecap:butt;stroke-linejoin:miter;stroke-miterlimit:3.8637;stroke-dasharray:none;stroke-opacity:1"
       transform="matrix(0.13333333,0,0,-0.13333333,0,229.44)" />
    <path
       id="path75"
       d="m 115.25,23.25 10,-12 -39,-11 20,35 9,-12"
       style="fill:#231f20;fill-opacity:1;fill-rule:evenodd;stroke:none"
       transform="matrix(0.13333333,0,0,-0.13333333,0,229.44)" />
    <path
       id="path76"
       d="m 485.25,1024.25 v -714"
       style="fill:none;stroke:#231f20;stroke-width:2.5;stroke-linecap:butt;stroke-linejoin:miter;stroke-miterlimit:3.8637;stroke-dasharray:none;stroke-opacity:1"
       transform="matrix(0.13333333,0,0,-0.13333333,0,229.44)" />
    <path
       id="path77"
       d="m 485.25,1022.25 h -15 l 15,37 15,-37 h -15"
       style="fill:#231f20;fill-opacity:1;fill-rule:evenodd;stroke:none"
       transform="matrix(0.13333333,0,0,-0.13333333,0,229.44)" />
    <path
       id="path78"
       d="m 485.25,310.25 h 714"
       style="fill:none;stroke:#231f20;stroke-width:2.5;stroke-linecap:butt;stroke-linejoin:miter;stroke-miterlimit:3.8637;stroke-dasharray:none;stroke-opacity:1"
       transform="matrix(0.13333333,0,0,-0.13333333,0,229.44)" />
    <path
       id="path79"
       d="m 1197.25,310.25 v 15 l 37,-15 -37,-15 v 15"
       style="fill:#231f20;fill-opacity:1;fill-rule:evenodd;stroke:none"
       transform="matrix(0.13333333,0,0,-0.13333333,0,229.44)" />
    <g
       id="g79"
       aria-label="2&#10;3&#10;4&#10;6&#10;7&#10;8&#10;5&#10;(x&#10;1&#10;,y&#10;1&#10;,z&#10;1&#10;)&#10;●&#10;●&#10;●&#10;●"
       transform="matrix(1.3333333,0,0,1.3333333,285.1,152.87333)">
      <path
         id="path80"
         d="M 6.0714844,-1.0417188 H 1.5949219 c 0.1054687,-0.7265625 0.4921875,-1.171875 1.5351562,-1.8164062 l 1.2070313,-0.6679688 c 1.1835937,-0.65625 1.7929687,-1.546875 1.7929687,-2.6132812 0,-0.7265625 -0.28125,-1.3945313 -0.7851562,-1.8632813 C 4.8410156,-8.4596875 4.2082031,-8.670625 3.4113281,-8.670625 c -1.078125,0 -1.8867187,0.375 -2.3554687,1.125 -0.29296878,0.4570312 -0.43359378,0.9960937 -0.45703128,1.875 H 1.6535156 c 0.035156,-0.5976563 0.1171875,-0.9375 0.2578125,-1.2304688 0.2695313,-0.5273437 0.8203125,-0.8554687 1.4648438,-0.8554687 0.9609375,0 1.6757812,0.703125 1.6757812,1.640625 0,0.6914062 -0.3984375,1.2890625 -1.1484375,1.7226562 l -1.1015625,0.65625 C 1.0207031,-2.7175 0.50507812,-1.9089063 0.41132812,-0.01046875 H 6.0714844 Z M -31.750781,-77.696992 h 0.574218 c 1.160157,0 1.769532,0.539062 1.769532,1.582031 0,1.089844 -0.65625,1.757813 -1.757813,1.757813 -1.160156,0 -1.722656,-0.585938 -1.792969,-1.863282 H -34.0125 c 0.04687,0.691407 0.164062,1.148438 0.375,1.535157 0.433594,0.84375 1.265625,1.265625 2.425781,1.265625 1.757813,0 2.882813,-1.066407 2.882813,-2.707032 0,-1.101562 -0.421875,-1.699218 -1.441407,-2.0625 0.796875,-0.328125 1.195313,-0.925781 1.195313,-1.804687 0,-1.488281 -0.972656,-2.378906 -2.601563,-2.378906 -1.710937,0 -2.625,0.960937 -2.660156,2.789062 h 1.054688 c 0.01172,-0.527344 0.05859,-0.820312 0.199218,-1.089844 0.234375,-0.492187 0.761719,-0.785156 1.417969,-0.785156 0.9375,0 1.5,0.574219 1.5,1.5 0,0.621094 -0.210937,0.984375 -0.679687,1.195313 -0.28125,0.117187 -0.667969,0.164062 -1.40625,0.175781 z m -90.922849,-5.100586 v 2.097656 h 1.05468 v -2.097656 h 1.25391 v -0.949219 h -1.25391 v -5.625 h -0.78515 l -3.85547,5.460938 v 1.113281 z m 0,-0.949219 h -2.66016 l 2.66016,-3.832031 z m 103.649411,104.625 c -0.199219,-1.417969 -1.113281,-2.25 -2.414062,-2.25 -0.9375,0 -1.769532,0.457031 -2.273438,1.230469 -0.550781,0.855469 -0.773437,1.910156 -0.773437,3.480469 0,1.464843 0.199218,2.390625 0.714843,3.152343 0.457032,0.714844 1.207032,1.089844 2.144532,1.089844 1.617187,0 2.777343,-1.21875 2.777343,-2.90625 0,-1.59375 -1.078125,-2.730469 -2.601562,-2.730469 -0.84375,0 -1.5,0.316407 -1.957031,0.949219 0.01172,-2.144531 0.691406,-3.328125 1.898437,-3.328125 0.738281,0 1.265625,0.46875 1.429688,1.3125 z m -2.554687,2.003906 c 1.019531,0 1.652343,0.726563 1.652343,1.875 0,1.089844 -0.714843,1.886719 -1.6875,1.886719 -0.984375,0 -1.734375,-0.832031 -1.734375,-1.933594 0,-1.078125 0.726563,-1.828125 1.769532,-1.828125 z m -18.788086,-86.589843 h -5.683594 v 1.042968 h 4.59375 c -2.027344,2.894532 -2.847656,4.664063 -3.492187,7.464844 h 1.136718 c 0.46875,-2.71875 1.535157,-5.0625 3.445313,-7.617187 z m -99.046878,-10.063477 c 0.89063,-0.539062 1.17188,-0.972656 1.17188,-1.792969 0,-1.359375 -1.04297,-2.308593 -2.55469,-2.308593 -1.5,0 -2.56641,0.949218 -2.56641,2.296875 0,0.832031 0.28125,1.253906 1.16016,1.804687 -0.97266,0.492188 -1.45312,1.195313 -1.45312,2.15625 0,1.582031 1.16015,2.695313 2.85937,2.695313 1.67578,0 2.84766,-1.113282 2.84766,-2.695313 0,-0.960937 -0.48047,-1.664062 -1.46485,-2.15625 z m -1.38281,-3.164062 c 0.89063,0 1.47656,0.539062 1.47656,1.394531 0,0.820312 -0.59765,1.359375 -1.47656,1.359375 -0.90234,0 -1.47656,-0.539063 -1.47656,-1.382813 0,-0.832031 0.57422,-1.371093 1.47656,-1.371093 z m 0,3.644531 c 1.05469,0 1.76953,0.691406 1.76953,1.699219 0,1.042968 -0.70312,1.734375 -1.79297,1.734375 -1.04297,0 -1.75781,-0.714844 -1.75781,-1.722657 0,-1.03125 0.70313,-1.710937 1.78125,-1.710937 z m 0.003,78.0820311 h -4.38281 l -0.64453,4.6289062 h 0.97265 c 0.49219,-0.5859375 0.90235,-0.7851562 1.57031,-0.7851562 1.14844,0 1.85157,0.7734375 1.85157,2.0390629 0,1.21875 -0.70313,1.96875 -1.86328,1.96875 -0.91407,0 -1.48829,-0.46875 -1.73438,-1.429688 h -1.05469 c 0.14063,0.691406 0.25782,1.03125 0.51563,1.347656 0.48047,0.644532 1.34765,1.019532 2.29687,1.019532 1.72266,0 2.91797,-1.253907 2.91797,-3.058594 0,-1.6757814 -1.11328,-2.8242189 -2.74219,-2.8242189 -0.59765,0 -1.07812,0.1523437 -1.57031,0.515625 l 0.32813,-2.3789063 h 3.53906 z m 0,0"
         style="fill:#231f20;fill-opacity:1;fill-rule:nonzero;stroke:none" />
      <path
         id="path81"
         d="m -112.58965,-6.1012891 c -0.44531,-1.21875 -0.57422,-1.9570312 -0.57422,-3.1171875 0,-1.4531254 0.32813,-3.1640624 0.89063,-4.5000004 0.39844,-0.949218 0.77344,-1.511718 1.55859,-2.332031 l -0.16406,-0.175781 c -1.55859,1.417969 -2.16797,2.203125 -2.67188,3.457031 -0.3164,0.75 -0.44531,1.488281 -0.44531,2.414063 0,0.9257809 0.14063,1.8164059 0.41016,2.6484372 0.16406,0.5039062 0.35156,0.890625 0.77344,1.6757812 z m 6.91406,-3.4335937 c -0.10546,0.1171875 -0.16406,0.1875 -0.26953,0.328125 -0.26953,0.3632812 -0.42187,0.4804687 -0.5625,0.4804687 -0.16406,0 -0.28125,-0.1523437 -0.36328,-0.4921875 -0.0351,-0.1289062 -0.0351,-0.1523437 -0.0469,-0.1875 -0.29297,-1.2304684 -0.4336,-1.7812504 -0.4336,-1.9570314 0.53907,-0.9375 0.96094,-1.453125 1.1836,-1.453125 0.0703,0 0.17578,0.03516 0.28125,0.09375 0.15234,0.08203 0.23437,0.105469 0.33984,0.105469 0.23438,0 0.41016,-0.175781 0.41016,-0.433594 0,-0.257812 -0.21094,-0.445312 -0.49219,-0.445312 -0.52734,0 -0.97266,0.433593 -1.81641,1.722656 l -0.1289,-0.65625 c -0.16407,-0.820313 -0.30469,-1.066406 -0.6211,-1.066406 -0.28125,0 -0.66797,0.105468 -1.40625,0.351562 -0.0703,0.02344 -0.0703,0.02344 -0.1289,0.04687 l 0.0469,0.1875 c 0.46875,-0.128906 0.55078,-0.140625 0.66797,-0.140625 0.30469,0 0.375,0.117188 0.53906,0.832031 l 0.35157,1.476563 -0.98438,1.4062499 c -0.25781,0.3515625 -0.48047,0.5742188 -0.60937,0.5742188 -0.082,0 -0.19922,-0.035156 -0.31641,-0.1054688 -0.15234,-0.09375 -0.28125,-0.1289062 -0.38672,-0.1289062 -0.23437,0 -0.41016,0.1875 -0.41016,0.421875 0,0.3164062 0.23438,0.5039062 0.60938,0.5039062 0.36328,0 0.51562,-0.1054687 1.11328,-0.8203125 0.31641,-0.3984375 0.58594,-0.7617187 1.07813,-1.4179684 l 0.36328,1.4414059 c 0.15234,0.6210938 0.30468,0.796875 0.6914,0.796875 0.45703,0 0.77344,-0.28125 1.46485,-1.359375 z m 1.06055,4.3359375 h 3.35156 v -0.1757813 h -0.21093 c -0.58594,0 -0.82032,-0.1171875 -0.82032,-0.3867187 0,-0.1054688 0.0352,-0.2929688 0.14063,-0.6210938 0.0234,-0.09375 0.0352,-0.1523437 0.0703,-0.2695312 l 1.72266,-6.2226567 c 0.0586,-0.222656 0.0703,-0.292968 0.0703,-0.351562 0,-0.04687 -0.0234,-0.08203 -0.0586,-0.08203 0,0 -0.33985,0.05859 -0.98438,0.1875 l -1.07812,0.222656 c -0.0234,0.01172 -0.11719,0.02344 -0.25782,0.04687 v 0.175781 l 0.67969,-0.02344 c 0.28125,-0.01172 0.45703,0.128906 0.45703,0.375 0,0.08203 -0.0234,0.164062 -0.082,0.410156 l -1.65234,5.8945312 c -0.14063,0.4453125 -0.39844,0.5625 -1.34766,0.65625 z m 3.47461,-1.453125 c 1.01953,-0.5625 1.558594,-1.2304688 1.558594,-1.9101563 0,-0.4804687 -0.292969,-0.84375 -0.691404,-0.84375 -0.35156,0 -0.60938,0.234375 -0.60938,0.5507813 0,0.2226562 0.0703,0.3398437 0.29297,0.5507812 0.1875,0.1640625 0.2461,0.2578125 0.2461,0.3867188 0,0.3164062 -0.26954,0.6445312 -0.90235,1.0664062 z m 3.117188,-6.3515627 c 0.152344,-0.03516 0.246094,-0.04687 0.375,-0.04687 0.492187,0 0.726562,0.199219 0.960937,0.84375 0.328125,0.890625 0.949219,3.4570314 0.949219,3.9140627 0,0.1875 -0.08203,0.3867187 -0.257812,0.609375 -0.328125,0.4453125 -0.609375,0.7851562 -0.75,0.9375 -0.257813,0.2578125 -0.386719,0.3632812 -0.539063,0.3632812 -0.08203,0 -0.152344,-0.035156 -0.292969,-0.140625 -0.175781,-0.140625 -0.292968,-0.1992187 -0.445312,-0.1992187 -0.257813,0 -0.46875,0.1992187 -0.46875,0.46875 0,0.3164062 0.257812,0.5273437 0.621094,0.5273437 0.761718,0 2.320312,-1.7929687 3.632812,-4.171875 0.820313,-1.4765629 1.148438,-2.3437499 1.148438,-2.9296879 0,-0.363281 -0.292969,-0.667968 -0.65625,-0.667968 -0.28125,0 -0.46875,0.1875 -0.46875,0.445312 0,0.199219 0.09375,0.316406 0.339843,0.46875 0.222657,0.140625 0.304688,0.246094 0.304688,0.410156 0,0.480469 -0.433594,1.40625 -1.464844,3.1054692 l -0.234375,-1.3945312 c -0.1875,-1.066406 -0.855469,-3.035156 -1.03125,-3.035156 h -0.04687 c -0.02344,0.01172 -0.05859,0.01172 -0.117187,0.01172 -0.09375,0.01172 -0.539063,0.09375 -1.171875,0.210938 -0.05859,0.01172 -0.210938,0.04687 -0.386719,0.07031 z m 5.709961,7.8046877 h 3.351562 v -0.1757813 h -0.210937 c -0.585938,0 -0.820313,-0.1171875 -0.820313,-0.3867187 0,-0.1054688 0.03516,-0.2929688 0.140625,-0.6210938 0.02344,-0.09375 0.03516,-0.1523437 0.07031,-0.2695312 l 1.722656,-6.2226567 c 0.05859,-0.222656 0.07031,-0.292968 0.07031,-0.351562 0,-0.04687 -0.02344,-0.08203 -0.05859,-0.08203 0,0 -0.339844,0.05859 -0.984375,0.1875 l -1.078125,0.222656 c -0.02344,0.01172 -0.117188,0.02344 -0.257813,0.04687 v 0.175781 l 0.679688,-0.02344 c 0.28125,-0.01172 0.457031,0.128906 0.457031,0.375 0,0.08203 -0.02344,0.164062 -0.08203,0.410156 l -1.652344,5.8945312 c -0.140625,0.4453125 -0.398438,0.5625 -1.347656,0.65625 z m 3.471679,-1.453125 c 1.019532,-0.5625 1.558594,-1.2304688 1.558594,-1.9101563 0,-0.4804687 -0.292969,-0.84375 -0.691406,-0.84375 -0.351563,0 -0.609375,0.234375 -0.609375,0.5507813 0,0.2226562 0.07031,0.3398437 0.292969,0.5507812 0.1875,0.1640625 0.246093,0.2578125 0.246093,0.3867188 0,0.3164062 -0.269531,0.6445312 -0.902343,1.0664062 z m 3.914063,-5.2499997 c 0.234375,-0.597657 0.421875,-0.726563 0.972656,-0.714844 h 1.746094 l -3.714844,4.4648437 0.105469,0.1054687 c 0.199219,-0.1523437 0.351562,-0.2109375 0.539062,-0.2109375 0.316407,0 0.703125,0.1523438 1.265625,0.5039063 0.597657,0.375 0.996094,0.5273437 1.335938,0.5273437 0.609375,0 1.136719,-0.4335937 1.136719,-0.9140625 0,-0.2578125 -0.175782,-0.4335937 -0.421875,-0.4335937 -0.246094,0 -0.410157,0.1640625 -0.410157,0.3867187 0,0.09375 0.03516,0.1992188 0.105469,0.3515625 0.03516,0.070312 0.05859,0.140625 0.05859,0.1757813 0,0.1054687 -0.128906,0.1757812 -0.316406,0.1757812 -0.304688,0 -0.445313,-0.1054687 -0.84375,-0.5976562 -0.527344,-0.6796875 -0.75,-0.8320313 -1.453125,-0.9960938 l 3.480468,-4.1250004 v -0.128906 h -3.410156 l -0.363281,1.371094 z m 4.3125,6.7031247 h 3.351562 v -0.1757813 h -0.210937 c -0.585938,0 -0.820313,-0.1171875 -0.820313,-0.3867187 0,-0.1054688 0.03516,-0.2929688 0.140625,-0.6210938 0.02344,-0.09375 0.03516,-0.1523437 0.07031,-0.2695312 l 1.722656,-6.2226567 c 0.05859,-0.222656 0.07031,-0.292968 0.07031,-0.351562 0,-0.04687 -0.02344,-0.08203 -0.05859,-0.08203 0,0 -0.339844,0.05859 -0.984375,0.1875 l -1.078125,0.222656 c -0.02344,0.01172 -0.117188,0.02344 -0.257813,0.04687 v 0.175781 l 0.679688,-0.02344 c 0.28125,-0.01172 0.457031,0.128906 0.457031,0.375 0,0.08203 -0.02344,0.164062 -0.08203,0.410156 l -1.652344,5.8945312 c -0.140625,0.4453125 -0.398437,0.5625 -1.347656,0.65625 z m 3.767578,-0.84375 c 1.488281,-1.2890625 2.097656,-2.0742188 2.636719,-3.3632813 0.339844,-0.7968754 0.480469,-1.5585934 0.480469,-2.4492184 0,-0.691407 -0.09375,-1.441407 -0.269532,-2.167969 -0.199218,-0.808594 -0.375,-1.242188 -0.914062,-2.203125 l -0.234375,0.05859 c 0.410156,0.972656 0.585937,1.945312 0.585937,3.140625 0,1.523437 -0.410156,3.4570309 -1.007812,4.7578122 -0.339844,0.7734375 -0.703125,1.2773437 -1.441406,2.0507812 z m 0,0"
         style="fill:#231f20;fill-opacity:1;fill-rule:nonzero;stroke:none" />
      <path
         id="path82"
         d="m 0.46113281,-11.401094 v -6.492187 H 3.8361328 v 6.492187 z m 0.56249999,-0.5625 h 2.25 v -5.367187 h -2.25 z M -147.53789,1.50125 v -6.4921875 h 3.375 V 1.50125 Z m 0.5625,-0.5625 h 2.25 v -5.3671875 h -2.25 z m 27.2373,-73.637695 v -6.492188 h 3.375 v 6.492188 z m 0.5625,-0.5625 h 2.25 v -5.367188 h -2.25 z m 91.53809,8.361328 v -6.492188 h 3.375 v 6.492188 z m 0.5625,-0.5625 h 2.25 v -5.367188 h -2.25 z m 0,0"
         style="fill:#231f20;fill-opacity:1;fill-rule:nonzero;stroke:none" />
    </g>
    <path
       id="path83"
       d="m 793.25,1234.25 961,-153 170,-636 -1235,144 z"
       style="fill:none;stroke:#231f20;stroke-width:5;stroke-linecap:butt;stroke-linejoin:miter;stroke-miterlimit:3.8637;stroke-dasharray:none;stroke-opacity:1"
       transform="matrix(0.13333333,0,0,-0.13333333,0,229.44)" />
    <path
       id="path84"
       d="m 2187.25,720.25 -1181,47 -39,572"
       style="fill:none;stroke:#231f20;stroke-width:5;stroke-linecap:butt;stroke-linejoin:miter;stroke-miterlimit:3.8637;stroke-dasharray:20, 20;stroke-dashoffset:0;stroke-opacity:1"
       transform="matrix(0.13333333,0,0,-0.13333333,0,229.44)" />
    <path
       id="path85"
       d="m 967.25,1339.25 929,-78 291,-541"
       style="fill:none;stroke:#231f20;stroke-width:5;stroke-linecap:butt;stroke-linejoin:miter;stroke-miterlimit:3.8637;stroke-dasharray:none;stroke-opacity:1"
       transform="matrix(0.13333333,0,0,-0.13333333,0,229.44)" />
    <path
       id="path86"
       d="m 793.25,1234.25 174,105"
       style="fill:none;stroke:#231f20;stroke-width:5;stroke-linecap:butt;stroke-linejoin:miter;stroke-miterlimit:3.8637;stroke-dasharray:none;stroke-opacity:1"
       transform="matrix(0.13333333,0,0,-0.13333333,0,229.44)" />
    <path
       id="path87"
       d="m 1754.25,1081.25 142,180"
       style="fill:none;stroke:#231f20;stroke-width:5;stroke-linecap:butt;stroke-linejoin:miter;stroke-miterlimit:3.8637;stroke-dasharray:none;stroke-opacity:1"
       transform="matrix(0.13333333,0,0,-0.13333333,0,229.44)" />
    <path
       id="path88"
       d="m 689.25,589.25 317,178"
       style="fill:none;stroke:#231f20;stroke-width:5;stroke-linecap:butt;stroke-linejoin:miter;stroke-miterlimit:3.8637;stroke-dasharray:20, 20;stroke-dashoffset:0;stroke-opacity:1"
       transform="matrix(0.13333333,0,0,-0.13333333,0,229.44)" />
    <path
       id="path89"
       d="m 1924.25,445.25 263,275"
       style="fill:none;stroke:#231f20;stroke-width:5;stroke-linecap:butt;stroke-linejoin:miter;stroke-miterlimit:3.8637;stroke-dasharray:none;stroke-opacity:1"
       transform="matrix(0.13333333,0,0,-0.13333333,0,229.44)" />
    <path
       id="path90"
       d="M 0.56210938,-7.03125e-4 V -6.4928906 H 3.9371094 V -7.03125e-4 Z M 1.1246094,-0.56320313 h 2.25 V -5.9303906 h -2.25 z M 16.862891,62.700469 v -6.492188 h 3.375 v 6.492188 z m 0.5625,-0.5625 h 2.25 v -5.367188 h -2.25 z m 0,0"
       style="fill:#231f20;fill-opacity:1;fill-rule:nonzero;stroke:none"
       aria-label="●&#10;●"
       transform="matrix(1.3333333,0,0,1.3333333,229.63333,89.54)" />
    <path
       id="path91"
       d="M 0.56132813,-3.1255313e-4 V -6.4936037 H 3.9363281 V -3.1255313e-4 Z M 1.1238281,-0.56290818 h 2.25 V -5.9310081 h -2.25 z m 0,0"
       style="fill:#7b7979;fill-opacity:1;fill-rule:nonzero;stroke:none"
       aria-label="●"
       transform="matrix(1.3333333,0,0,1.3331067,129.9,131.40667)" />
    <path
       id="path92"
       d="M 0.56347656,4.6875e-4 V -6.4917188 H 3.9384766 V 4.6875e-4 Z m 0.56250004,-0.5625 h 2.25 V -5.9292188 h -2.25 z m 0,0"
       style="fill:#231f20;fill-opacity:1;fill-rule:nonzero;stroke:none"
       aria-label="●"
       transform="matrix(1.3333333,0,0,1.3333333,102.16667,69.14)" />
    <path
       id="path93"
       d="m 1599.25,957.25 122,95"
       style="fill:none;stroke:#ffffff;stroke-width:40;stroke-linecap:round;stroke-linejoin:miter;stroke-miterlimit:3.8637;stroke-dasharray:none;stroke-opacity:1"
       transform="matrix(0.13333333,0,0,-0.13333333,0,229.44)" />
    <path
       id="path94"
       d="m 1808.25,1084.25 h 253"
       style="fill:none;stroke:#ffffff;stroke-width:40;stroke-linecap:round;stroke-linejoin:miter;stroke-miterlimit:3.8637;stroke-dasharray:none;stroke-opacity:1"
       transform="matrix(0.13333333,0,0,-0.13333333,0,229.44)" />
    <path
       id="path95"
       d="m 1760.25,1128.25 v 254"
       style="fill:none;stroke:#ffffff;stroke-width:40;stroke-linecap:round;stroke-linejoin:miter;stroke-miterlimit:3.8637;stroke-dasharray:none;stroke-opacity:1"
       transform="matrix(0.13333333,0,0,-0.13333333,0,229.44)" />
    <path
       id="path96"
       d="m 1760.25,1342.25 v -260"
       style="fill:none;stroke:#231f20;stroke-width:2.5;stroke-linecap:butt;stroke-linejoin:miter;stroke-miterlimit:3.8637;stroke-dasharray:none;stroke-opacity:1"
       transform="matrix(0.13333333,0,0,-0.13333333,0,229.44)" />
    <path
       id="path97"
       d="m 1760.25,1340.25 h -15 l 15,37 15,-37 h -15"
       style="fill:#231f20;fill-opacity:1;fill-rule:evenodd;stroke:none"
       transform="matrix(0.13333333,0,0,-0.13333333,0,229.44)" />
    <path
       id="path98"
       d="m 1760.25,1082.25 h 260"
       style="fill:none;stroke:#231f20;stroke-width:2.5;stroke-linecap:butt;stroke-linejoin:miter;stroke-miterlimit:3.8637;stroke-dasharray:none;stroke-opacity:1"
       transform="matrix(0.13333333,0,0,-0.13333333,0,229.44)" />
    <path
       id="path99"
       d="m 2017.25,1082.25 v 15 l 38,-15 -38,-15 v 15"
       style="fill:#231f20;fill-opacity:1;fill-rule:evenodd;stroke:none"
       transform="matrix(0.13333333,0,0,-0.13333333,0,229.44)" />
    <path
       id="path100"
       d="m 1759.25,1083.25 -135,-105"
       style="fill:none;stroke:#231f20;stroke-width:2.5;stroke-linecap:butt;stroke-linejoin:miter;stroke-miterlimit:3.8637;stroke-dasharray:none;stroke-opacity:1"
       transform="matrix(0.13333333,0,0,-0.13333333,0,229.44)" />
    <path
       id="path101"
       d="m 1626.25,979.25 9,-11 -39,-12 21,35 9,-12"
       style="fill:#231f20;fill-opacity:1;fill-rule:evenodd;stroke:none"
       transform="matrix(0.13333333,0,0,-0.13333333,0,229.44)" />
    <path
       id="path102"
       d="m 1731.25,1131.25 122,95"
       style="fill:none;stroke:#ffffff;stroke-width:40;stroke-linecap:round;stroke-linejoin:miter;stroke-miterlimit:3.8637;stroke-dasharray:none;stroke-opacity:1"
       transform="matrix(0.13333333,0,0,-0.13333333,0,229.44)" />
    <path
       id="path103"
       d="m 1940.25,1257.25 h 253"
       style="fill:none;stroke:#ffffff;stroke-width:40;stroke-linecap:round;stroke-linejoin:miter;stroke-miterlimit:3.8637;stroke-dasharray:none;stroke-opacity:1"
       transform="matrix(0.13333333,0,0,-0.13333333,0,229.44)" />
    <path
       id="path104"
       d="m 1892.25,1302.25 v 253"
       style="fill:none;stroke:#ffffff;stroke-width:40;stroke-linecap:round;stroke-linejoin:miter;stroke-miterlimit:3.8637;stroke-dasharray:none;stroke-opacity:1"
       transform="matrix(0.13333333,0,0,-0.13333333,0,229.44)" />
    <path
       id="path105"
       d="m 1892.25,1516.25 v -260"
       style="fill:none;stroke:#231f20;stroke-width:2.5;stroke-linecap:butt;stroke-linejoin:miter;stroke-miterlimit:3.8637;stroke-dasharray:none;stroke-opacity:1"
       transform="matrix(0.13333333,0,0,-0.13333333,0,229.44)" />
    <path
       id="path106"
       d="m 1892.25,1513.25 h -15 l 15,38 15,-38 h -15"
       style="fill:#231f20;fill-opacity:1;fill-rule:evenodd;stroke:none"
       transform="matrix(0.13333333,0,0,-0.13333333,0,229.44)" />
    <path
       id="path107"
       d="m 1892.25,1256.25 h 260"
       style="fill:none;stroke:#231f20;stroke-width:2.5;stroke-linecap:butt;stroke-linejoin:miter;stroke-miterlimit:3.8637;stroke-dasharray:none;stroke-opacity:1"
       transform="matrix(0.13333333,0,0,-0.13333333,0,229.44)" />
    <path
       id="path108"
       d="m 2149.25,1256.25 v 15 l 38,-15 -38,-15 v 15"
       style="fill:#231f20;fill-opacity:1;fill-rule:evenodd;stroke:none"
       transform="matrix(0.13333333,0,0,-0.13333333,0,229.44)" />
    <path
       id="path109"
       d="m 1891.25,1256.25 -135,-104"
       style="fill:none;stroke:#231f20;stroke-width:2.5;stroke-linecap:butt;stroke-linejoin:miter;stroke-miterlimit:3.8637;stroke-dasharray:none;stroke-opacity:1"
       transform="matrix(0.13333333,0,0,-0.13333333,0,229.44)" />
    <path
       id="path110"
       d="m 1758.25,1153.25 9,-12 -39,-11 21,35 9,-12"
       style="fill:#231f20;fill-opacity:1;fill-rule:evenodd;stroke:none"
       transform="matrix(0.13333333,0,0,-0.13333333,0,229.44)" />
    <path
       id="path111"
       d="m 970.25,1595.25 v -260"
       style="fill:none;stroke:#231f20;stroke-width:2.5;stroke-linecap:butt;stroke-linejoin:miter;stroke-miterlimit:3.8637;stroke-dasharray:none;stroke-opacity:1"
       transform="matrix(0.13333333,0,0,-0.13333333,0,229.44)" />
    <path
       id="path112"
       d="m 970.25,1593.25 h -15 l 15,37 15,-37 h -15"
       style="fill:#231f20;fill-opacity:1;fill-rule:evenodd;stroke:none"
       transform="matrix(0.13333333,0,0,-0.13333333,0,229.44)" />
    <path
       id="path113"
       d="m 970.25,1335.25 h 260"
       style="fill:none;stroke:#231f20;stroke-width:2.5;stroke-linecap:butt;stroke-linejoin:miter;stroke-miterlimit:3.8637;stroke-dasharray:none;stroke-opacity:1"
       transform="matrix(0.13333333,0,0,-0.13333333,0,229.44)" />
    <path
       id="path114"
       d="m 1228.25,1335.25 v 15 l 37,-15 -37,-15 v 15"
       style="fill:#231f20;fill-opacity:1;fill-rule:evenodd;stroke:none"
       transform="matrix(0.13333333,0,0,-0.13333333,0,229.44)" />
    <path
       id="path115"
       d="m 969.25,1336.25 -134,-105"
       style="fill:none;stroke:#231f20;stroke-width:2.5;stroke-linecap:butt;stroke-linejoin:miter;stroke-miterlimit:3.8637;stroke-dasharray:none;stroke-opacity:1"
       transform="matrix(0.13333333,0,0,-0.13333333,0,229.44)" />
    <path
       id="path116"
       d="m 837.25,1233.25 9,-12 -39,-12 20,35 10,-11"
       style="fill:#231f20;fill-opacity:1;fill-rule:evenodd;stroke:none"
       transform="matrix(0.13333333,0,0,-0.13333333,0,229.44)" />
    <path
       id="path117"
       d="m 802.25,1494.25 v -260"
       style="fill:none;stroke:#231f20;stroke-width:2.5;stroke-linecap:butt;stroke-linejoin:miter;stroke-miterlimit:3.8637;stroke-dasharray:none;stroke-opacity:1"
       transform="matrix(0.13333333,0,0,-0.13333333,0,229.44)" />
    <path
       id="path118"
       d="m 802.25,1491.25 h -15 l 15,38 15,-38 h -15"
       style="fill:#231f20;fill-opacity:1;fill-rule:evenodd;stroke:none"
       transform="matrix(0.13333333,0,0,-0.13333333,0,229.44)" />
    <path
       id="path119"
       d="m 802.25,1234.25 h 259"
       style="fill:none;stroke:#231f20;stroke-width:2.5;stroke-linecap:butt;stroke-linejoin:miter;stroke-miterlimit:3.8637;stroke-dasharray:none;stroke-opacity:1"
       transform="matrix(0.13333333,0,0,-0.13333333,0,229.44)" />
    <path
       id="path120"
       d="m 1059.25,1234.25 v 15 l 37,-15 -37,-15 v 15"
       style="fill:#231f20;fill-opacity:1;fill-rule:evenodd;stroke:none"
       transform="matrix(0.13333333,0,0,-0.13333333,0,229.44)" />
    <path
       id="path121"
       d="m 800.25,1234.25 -134,-104"
       style="fill:none;stroke:#231f20;stroke-width:2.5;stroke-linecap:butt;stroke-linejoin:miter;stroke-miterlimit:3.8637;stroke-dasharray:none;stroke-opacity:1"
       transform="matrix(0.13333333,0,0,-0.13333333,0,229.44)" />
    <path
       id="path122"
       d="m 668.25,1131.25 9,-12 -39,-11 20,35 10,-12"
       style="fill:#231f20;fill-opacity:1;fill-rule:evenodd;stroke:none"
       transform="matrix(0.13333333,0,0,-0.13333333,0,229.44)" />
    <path
       id="path123"
       d="m 1009.25,1027.25 v -260"
       style="fill:none;stroke:#231f20;stroke-width:2.5;stroke-linecap:butt;stroke-linejoin:miter;stroke-miterlimit:3.8637;stroke-dasharray:none;stroke-opacity:1"
       transform="matrix(0.13333333,0,0,-0.13333333,0,229.44)" />
    <path
       id="path124"
       d="m 1009.25,1024.25 h -15 l 15,38 15,-38 h -15"
       style="fill:#231f20;fill-opacity:1;fill-rule:evenodd;stroke:none"
       transform="matrix(0.13333333,0,0,-0.13333333,0,229.44)" />
    <path
       id="path125"
       d="m 1009.25,767.25 h 260"
       style="fill:none;stroke:#231f20;stroke-width:2.5;stroke-linecap:butt;stroke-linejoin:miter;stroke-miterlimit:3.8637;stroke-dasharray:none;stroke-opacity:1"
       transform="matrix(0.13333333,0,0,-0.13333333,0,229.44)" />
    <path
       id="path126"
       d="m 1266.25,767.25 v 15 l 38,-15 -38,-15 v 15"
       style="fill:#231f20;fill-opacity:1;fill-rule:evenodd;stroke:none"
       transform="matrix(0.13333333,0,0,-0.13333333,0,229.44)" />
    <path
       id="path127"
       d="m 1008.25,767.25 -135,-104"
       style="fill:none;stroke:#231f20;stroke-width:2.5;stroke-linecap:butt;stroke-linejoin:miter;stroke-miterlimit:3.8637;stroke-dasharray:none;stroke-opacity:1"
       transform="matrix(0.13333333,0,0,-0.13333333,0,229.44)" />
    <path
       id="path128"
       d="m 875.25,664.25 9,-12 -38,-11 20,35 9,-12"
       style="fill:#231f20;fill-opacity:1;fill-rule:evenodd;stroke:none"
       transform="matrix(0.13333333,0,0,-0.13333333,0,229.44)" />
    <path
       id="path129"
       d="m 2174.25,980.25 v -260"
       style="fill:none;stroke:#231f20;stroke-width:2.5;stroke-linecap:butt;stroke-linejoin:miter;stroke-miterlimit:3.8637;stroke-dasharray:none;stroke-opacity:1"
       transform="matrix(0.13333333,0,0,-0.13333333,0,229.44)" />
    <path
       id="path130"
       d="m 2174.25,977.25 h -15 l 15,38 15,-38 h -15"
       style="fill:#231f20;fill-opacity:1;fill-rule:evenodd;stroke:none"
       transform="matrix(0.13333333,0,0,-0.13333333,0,229.44)" />
    <path
       id="path131"
       d="m 2174.25,720.25 h 259"
       style="fill:none;stroke:#231f20;stroke-width:2.5;stroke-linecap:butt;stroke-linejoin:miter;stroke-miterlimit:3.8637;stroke-dasharray:none;stroke-opacity:1"
       transform="matrix(0.13333333,0,0,-0.13333333,0,229.44)" />
    <path
       id="path132"
       d="m 2431.25,720.25 v 15 l 37,-15 -37,-15 v 15"
       style="fill:#231f20;fill-opacity:1;fill-rule:evenodd;stroke:none"
       transform="matrix(0.13333333,0,0,-0.13333333,0,229.44)" />
    <path
       id="path133"
       d="m 2172.25,720.25 -134,-104"
       style="fill:none;stroke:#231f20;stroke-width:2.5;stroke-linecap:butt;stroke-linejoin:miter;stroke-miterlimit:3.8637;stroke-dasharray:none;stroke-opacity:1"
       transform="matrix(0.13333333,0,0,-0.13333333,0,229.44)" />
    <path
       id="path134"
       d="m 2040.25,617.25 9,-12 -39,-11 20,35 10,-12"
       style="fill:#231f20;fill-opacity:1;fill-rule:evenodd;stroke:none"
       transform="matrix(0.13333333,0,0,-0.13333333,0,229.44)" />
    <path
       id="path135"
       d="m 695.25,852.25 v -259"
       style="fill:none;stroke:#231f20;stroke-width:2.5;stroke-linecap:butt;stroke-linejoin:miter;stroke-miterlimit:3.8637;stroke-dasharray:none;stroke-opacity:1"
       transform="matrix(0.13333333,0,0,-0.13333333,0,229.44)" />
    <path
       id="path136"
       d="m 695.25,850.25 h -15 l 15,37 15,-37 h -15"
       style="fill:#231f20;fill-opacity:1;fill-rule:evenodd;stroke:none"
       transform="matrix(0.13333333,0,0,-0.13333333,0,229.44)" />
    <path
       id="path137"
       d="m 695.25,593.25 h 260"
       style="fill:none;stroke:#231f20;stroke-width:2.5;stroke-linecap:butt;stroke-linejoin:miter;stroke-miterlimit:3.8637;stroke-dasharray:none;stroke-opacity:1"
       transform="matrix(0.13333333,0,0,-0.13333333,0,229.44)" />
    <path
       id="path138"
       d="m 952.25,593.25 v 15 l 38,-15 -38,-15 v 15"
       style="fill:#231f20;fill-opacity:1;fill-rule:evenodd;stroke:none"
       transform="matrix(0.13333333,0,0,-0.13333333,0,229.44)" />
    <path
       id="path139"
       d="m 694.25,593.25 -135,-105"
       style="fill:none;stroke:#231f20;stroke-width:2.5;stroke-linecap:butt;stroke-linejoin:miter;stroke-miterlimit:3.8637;stroke-dasharray:none;stroke-opacity:1"
       transform="matrix(0.13333333,0,0,-0.13333333,0,229.44)" />
    <path
       id="path140"
       d="m 561.25,490.25 10,-12 -39,-11 20,35 9,-12"
       style="fill:#231f20;fill-opacity:1;fill-rule:evenodd;stroke:none"
       transform="matrix(0.13333333,0,0,-0.13333333,0,229.44)" />
    <path
       id="path141"
       d="m 1921.25,715.25 v -260"
       style="fill:none;stroke:#231f20;stroke-width:2.5;stroke-linecap:butt;stroke-linejoin:miter;stroke-miterlimit:3.8637;stroke-dasharray:none;stroke-opacity:1"
       transform="matrix(0.13333333,0,0,-0.13333333,0,229.44)" />
    <path
       id="path142"
       d="m 1921.25,712.25 h -15 l 15,38 15,-38 h -15"
       style="fill:#231f20;fill-opacity:1;fill-rule:evenodd;stroke:none"
       transform="matrix(0.13333333,0,0,-0.13333333,0,229.44)" />
    <path
       id="path143"
       d="m 1921.25,455.25 h 259"
       style="fill:none;stroke:#231f20;stroke-width:2.5;stroke-linecap:butt;stroke-linejoin:miter;stroke-miterlimit:3.8637;stroke-dasharray:none;stroke-opacity:1"
       transform="matrix(0.13333333,0,0,-0.13333333,0,229.44)" />
    <path
       id="path144"
       d="m 2178.25,455.25 v 15 l 37,-15 -37,-15 v 15"
       style="fill:#231f20;fill-opacity:1;fill-rule:evenodd;stroke:none"
       transform="matrix(0.13333333,0,0,-0.13333333,0,229.44)" />
    <path
       id="path145"
       d="m 1919.25,455.25 -134,-105"
       style="fill:none;stroke:#231f20;stroke-width:2.5;stroke-linecap:butt;stroke-linejoin:miter;stroke-miterlimit:3.8637;stroke-dasharray:none;stroke-opacity:1"
       transform="matrix(0.13333333,0,0,-0.13333333,0,229.44)" />
    <path
       id="path146"
       d="m 1787.25,352.25 9,-12 -39,-11 21,35 9,-12"
       style="fill:#231f20;fill-opacity:1;fill-rule:evenodd;stroke:none"
       transform="matrix(0.13333333,0,0,-0.13333333,0,229.44)" />
    <path
       id="path147"
       d="m 3.6914063,-0.93605469 c -0.421875,0.52734375 -0.5390625,0.6328125 -0.6679688,0.6328125 -0.058594,0 -0.082031,-0.046875 -0.082031,-0.140625 0,-0.046875 0,-0.046875 0.1523437,-0.62109371 l 0.6328125,-2.390625 H 3.1289063 C 2.6953125,-2.2719922 2.6132813,-2.0727734 2.25,-1.4985547 c -0.4804687,0.75000001 -0.8789062,1.16015626 -1.125,1.16015626 -0.1054687,0 -0.17578125,-0.0820313 -0.17578125,-0.19921875 0,-0.0234375 0,-0.046875 0.0117188,-0.0703125 L 1.6875,-3.5141797 1.6640625,-3.5258984 c -0.46875,0.1054687 -0.76171875,0.1523437 -1.1953125,0.2109375 v 0.1171875 c 0.31640625,0 0.31640625,0 0.3984375,0.046875 0.0351563,0.011719 0.0820313,0.082031 0.0820313,0.140625 0,0.070312 -0.046875,0.2695312 -0.1171875,0.5390625 l -0.2929688,1.1367187 c -0.15234375,0.58593751 -0.19921875,0.84375001 -0.19921875,0.98437501 0,0.29296875 0.140625,0.4453125 0.421875,0.4453125 0.56250005,0 0.99609375,-0.43359375 1.91015625,-1.98046871 -0.234375,0.8671875 -0.3632812,1.39453121 -0.3632812,1.57031246 0,0.2578125 0.1523437,0.38671875 0.3867187,0.38671875 0.375,0 0.5507813,-0.15234375 1.1015625,-0.9375 z M 7.5292969,-1.5337109 c 0.2695312,-0.375 0.5507812,-0.5390625 0.8789062,-0.5390625 0.4335938,0 0.7148438,0.2929687 0.7148438,0.7265625 0,0.3398437 -0.1640625,0.62109371 -0.515625,0.85546871 -0.3398438,0.234375 -0.6796875,0.3515625 -1.3945313,0.48046875 l 0.011719,0.1171875 c 0.4453125,0 0.5273437,0.0117188 0.7265625,0.0820313 0.4921875,0.1875 0.75,0.62109375 0.75,1.25390624 0,0.28125 -0.058594,0.5742188 -0.1757813,0.7617188 -0.1875,0.328125 -0.5390625,0.5507813 -0.8671875,0.5507813 -0.1523437,0 -0.3398437,-0.082031 -0.5742187,-0.2578125 -0.234375,-0.1640625 -0.3632813,-0.2226563 -0.515625,-0.2226563 -0.2226563,0 -0.3515625,0.1054688 -0.3515625,0.3046875 0,0.3046875 0.328125,0.4804688 0.9023437,0.4804688 0.4453125,0 0.8671875,-0.1054688 1.1953125,-0.2929688 0.6210938,-0.375 1.03125,-1.0429688 1.03125,-1.7578126 0,-0.58593744 -0.234375,-0.94921869 -0.7617187,-1.19531244 v -0.0234375 c 0.9609375,-0.375 1.2421875,-0.64453125 1.2421875,-1.18359366 0,-0.5859375 -0.4804688,-1.0195314 -1.125,-1.0195314 -0.5507813,0 -1.0429688,0.3164064 -1.3007813,0.8320314 z M 44.692383,-10.437031 c -0.421875,0.5273435 -0.539063,0.6328122 -0.667969,0.6328122 -0.05859,0 -0.08203,-0.046875 -0.08203,-0.140625 0,-0.046875 0,-0.046875 0.152344,-0.6210942 l 0.632812,-2.390625 h -0.597656 c -0.433594,1.183594 -0.515625,1.382813 -0.878906,1.957032 -0.480469,0.75 -0.878907,1.160156 -1.125,1.160156 -0.105469,0 -0.175782,-0.082031 -0.175782,-0.199219 0,-0.02344 0,-0.04687 0.01172,-0.07031 l 0.726563,-2.90625 -0.02344,-0.01172 c -0.46875,0.105469 -0.761719,0.152344 -1.195312,0.210937 v 0.117188 c 0.316406,0 0.316406,0 0.398437,0.04687 0.03516,0.01172 0.08203,0.08203 0.08203,0.140625 0,0.07031 -0.04687,0.269531 -0.117187,0.539062 l -0.292969,1.136719 c -0.152344,0.585938 -0.199219,0.8437502 -0.199219,0.9843752 0,0.2929688 0.140625,0.4453125 0.421875,0.4453125 0.5625,0 0.996094,-0.4335937 1.910157,-1.9804687 -0.234375,0.867187 -0.363282,1.3945312 -0.363282,1.5703125 0,0.2578125 0.152344,0.3867187 0.386719,0.3867187 0.375,0 0.550781,-0.1523437 1.101563,-0.9375002 z m 5.507812,2.8242185 c -0.1875,0.3984375 -0.339843,0.4921875 -0.785156,0.5039062 h -1.523437 v -0.035156 l 1.535156,-1.5351563 c 0.9375,-0.9375 1.195312,-1.3476564 1.195312,-1.8750004 0,-0.761719 -0.574218,-1.359375 -1.300781,-1.359375 -0.292969,0 -0.585937,0.07031 -0.820312,0.210938 -0.410157,0.222656 -0.632813,0.492187 -0.855469,1.078125 l 0.164062,0.04687 c 0.292969,-0.515625 0.644532,-0.75 1.125,-0.75 0.574219,0 0.996094,0.421875 0.996094,0.972656 0,0.175781 -0.02344,0.328125 -0.07031,0.4335939 -0.199219,0.4335938 -0.5625,0.9375 -1.078125,1.4882813 l -1.6875,1.7929687 v 0.140625 h 2.847656 L 50.34082,-7.5542188 Z M 31.391602,-27.736836 c -0.421875,0.527344 -0.539063,0.632813 -0.667969,0.632813 -0.05859,0 -0.08203,-0.04687 -0.08203,-0.140625 0,-0.04687 0,-0.04687 0.152343,-0.621094 l 0.632813,-2.390625 h -0.597656 c -0.433594,1.183594 -0.515625,1.382812 -0.878907,1.957031 -0.480468,0.75 -0.878906,1.160156 -1.125,1.160156 -0.105468,0 -0.175781,-0.08203 -0.175781,-0.199218 0,-0.02344 0,-0.04687 0.01172,-0.07031 l 0.726562,-2.90625 -0.02344,-0.01172 c -0.46875,0.105469 -0.761719,0.152344 -1.195313,0.210938 v 0.117187 c 0.316407,0 0.316407,0 0.398438,0.04687 0.03516,0.01172 0.08203,0.08203 0.08203,0.140625 0,0.07031 -0.04687,0.269532 -0.117187,0.539063 l -0.292969,1.136719 c -0.152344,0.585937 -0.199219,0.84375 -0.199219,0.984375 0,0.292968 0.140625,0.445312 0.421875,0.445312 0.5625,0 0.996094,-0.433594 1.910156,-1.980469 -0.234375,0.867188 -0.363281,1.394532 -0.363281,1.570313 0,0.257812 0.152344,0.386719 0.386719,0.386719 0.375,0 0.550781,-0.152344 1.101562,-0.9375 z m 2.695312,3.9375 h 2.238281 v -0.117187 H 36.18457 c -0.386718,0 -0.550781,-0.07031 -0.550781,-0.257813 0,-0.07031 0.02344,-0.1875 0.09375,-0.421875 0.02344,-0.04687 0.03516,-0.09375 0.05859,-0.175781 l 1.136719,-4.148438 c 0.04687,-0.140625 0.04687,-0.199218 0.04687,-0.234375 0,-0.03516 -0.01172,-0.05859 -0.03516,-0.05859 0,0 -0.222656,0.04687 -0.65625,0.128906 l -0.726562,0.152344 c -0.01172,0 -0.07031,0.01172 -0.164063,0.02344 v 0.117188 l 0.457032,-0.01172 c 0.1875,-0.01172 0.304687,0.09375 0.304687,0.246094 0,0.05859 -0.01172,0.117187 -0.05859,0.28125 l -1.101562,3.9375 c -0.09375,0.292968 -0.269531,0.375 -0.902344,0.421875 z m 0,0"
       style="fill:#231f20;fill-opacity:1;fill-rule:nonzero;stroke:none"
       aria-label="u&#10;3&#10;u&#10;2&#10;u&#10;1"
       transform="matrix(1.3333333,0,0,1.3333333,105.5,129.80667)" />
  </g>
</svg>
