<?xml version="1.0" encoding="UTF-8" standalone="no"?>
<!-- Created with Inkscape (http://www.inkscape.org/) -->

<svg
   version="1.1"
   id="svg1"
   width="350.93332"
   height="72.533333"
   viewBox="0 0 350.93332 72.533333"
   sodipodi:docname="SPRING1.EPS"
   xmlns:inkscape="http://www.inkscape.org/namespaces/inkscape"
   xmlns:sodipodi="http://sodipodi.sourceforge.net/DTD/sodipodi-0.dtd"
   xmlns="http://www.w3.org/2000/svg"
   xmlns:svg="http://www.w3.org/2000/svg">
  <defs
     id="defs1" />
  <sodipodi:namedview
     id="namedview1"
     pagecolor="#ffffff"
     bordercolor="#000000"
     borderopacity="0.25"
     inkscape:showpageshadow="2"
     inkscape:pageopacity="0.0"
     inkscape:pagecheckerboard="0"
     inkscape:deskcolor="#d1d1d1">
    <inkscape:page
       x="0"
       y="0"
       inkscape:label="1"
       id="page1"
       width="350.93332"
       height="72.533333"
       margin="0"
       bleed="0" />
  </sodipodi:namedview>
  <g
     id="g1"
     inkscape:groupmode="layer"
     inkscape:label="1">
    <path
       id="path1"
       d="m 4.9675781,-1.3136719 c -0.4335937,0.75000003 -0.5039062,0.82031253 -0.7265625,0.82031253 -0.2460937,0 -0.5039062,-0.3984375 -0.9609375,-1.54687503 -0.070312,-0.1523437 -0.2460937,-0.5859375 -0.4453125,-1.0546875 1.7695313,-1.5703125 2.1210938,-1.8164062 2.6953125,-1.8515625 v -0.1875 H 3.3386719 v 0.1875 c 0.515625,0.011719 0.65625,0.058594 0.65625,0.2226563 0,0.234375 -0.5976563,0.8085937 -1.7109375,1.6757812 -0.1875,0.1289063 -0.3515625,0.2578125 -0.515625,0.3984375 l 1.4296875,-5.484375 -0.058594,-0.058594 c -0.7265625,0.1640625 -1.1835937,0.234375 -1.8632812,0.3164062 v 0.1992188 c 0.5859375,-0.011719 0.796875,0.070312 0.8085937,0.2929687 -0.023437,0.2109375 -0.1054687,0.5273438 -0.2578125,1.078125 -0.046875,0.1757813 -0.09375,0.3046875 -0.1171875,0.3984375 l -0.023437,0.1054688 -1.52343747,5.80078123 H 1.0652344 L 1.6394531,-2.1574219 2.1433594,-2.5441406 c 0.1992187,0.5273437 0.5039062,1.265625 0.7265625,1.68749998 0.3867187,0.76171875 0.5976562,0.984375 0.9492187,0.984375 0.4804688,0 0.7734375,-0.29296875 1.3242188,-1.30078128 z m 0,0"
       style="fill:#231f20;fill-opacity:1;fill-rule:nonzero;stroke:none"
       aria-label="k"
       transform="matrix(1.3333333,0,0,1.3333333,149.9,16.9)" />
    <path
       id="path2"
       d="m 57.25,195.25 h 334"
       style="fill:none;stroke:#231f20;stroke-width:2.5;stroke-linecap:butt;stroke-linejoin:miter;stroke-miterlimit:3.8637;stroke-dasharray:none;stroke-opacity:1"
       transform="matrix(0.13333333,0,0,-0.13333333,0,72.533333)" />
    <path
       id="path3"
       d="m 389.25,195.25 v 15 l 37,-15 -37,-15 v 15"
       style="fill:#231f20;fill-opacity:1;fill-rule:evenodd;stroke:none"
       transform="matrix(0.13333333,0,0,-0.13333333,0,72.533333)" />
    <path
       id="path4"
       d="m 3.6908203,-0.9375 c -0.421875,0.52734375 -0.5390625,0.6328125 -0.6679687,0.6328125 -0.058594,0 -0.082031,-0.046875 -0.082031,-0.140625 0,-0.046875 0,-0.046875 0.1523438,-0.6210937 L 3.7259766,-3.4570313 H 3.1283203 C 2.6947266,-2.2734375 2.6126953,-2.0742188 2.2494141,-1.5 c -0.4804688,0.75 -0.8789063,1.16015625 -1.125,1.16015625 -0.1054688,0 -0.17578129,-0.0820313 -0.17578129,-0.19921875 0,-0.0234375 0,-0.046875 0.0117188,-0.0703125 L 1.6869142,-3.515625 1.6634772,-3.527344 C 1.1947266,-3.421875 0.90175781,-3.375 0.46816406,-3.3164063 v 0.1171875 c 0.31640625,0 0.31640625,0 0.3984375,0.046875 0.0351563,0.011719 0.0820313,0.082031 0.0820313,0.140625 0,0.070312 -0.046875,0.2695313 -0.1171875,0.5390625 l -0.29296875,1.1367188 c -0.15234375,0.5859375 -0.19921875,0.84375 -0.19921875,0.984375 0,0.29296875 0.140625,0.4453125 0.421875,0.4453125 0.56250004,0 0.99609374,-0.43359375 1.91015624,-1.9804687 -0.234375,0.8671875 -0.3632813,1.3945312 -0.3632813,1.57031245 0,0.2578125 0.1523438,0.38671875 0.3867188,0.38671875 0.375,0 0.5507812,-0.15234375 1.1015625,-0.9375 z M 6.3861328,3 H 8.6244141 V 2.8828125 H 8.4837891 C 8.0970703,2.8828125 7.9330078,2.8125 7.9330078,2.625 c 0,-0.070312 0.023437,-0.1875 0.09375,-0.421875 0.023437,-0.046875 0.035156,-0.09375 0.058594,-0.1757812 l 1.1367187,-4.1484376 c 0.046875,-0.140625 0.046875,-0.1992187 0.046875,-0.234375 0,-0.035156 -0.011719,-0.058594 -0.035156,-0.058594 0,0 -0.2226563,0.046875 -0.65625,0.1289062 L 7.850977,-2.1328128 c -0.011719,0 -0.070312,0.011719 -0.1640625,0.023437 v 0.1171875 l 0.4570312,-0.011719 c 0.1875,-0.011719 0.3046875,0.09375 0.3046875,0.2460938 0,0.058594 -0.011719,0.1171875 -0.058594,0.28125 l -1.1015625,3.9375 c -0.09375,0.2929688 -0.2695313,0.375 -0.9023438,0.421875 z M 219.39199,4.8632812 c -0.42187,0.5273438 -0.53906,0.6328125 -0.66797,0.6328125 -0.0586,0 -0.082,-0.046875 -0.082,-0.140625 0,-0.046875 0,-0.046875 0.15235,-0.6210937 l 0.63281,-2.390625 h -0.59766 c -0.43359,1.1835938 -0.51562,1.3828125 -0.8789,1.9570312 -0.48047,0.75 -0.87891,1.1601563 -1.125,1.1601563 -0.10547,0 -0.17579,-0.082031 -0.17579,-0.1992188 0,-0.023437 0,-0.046875 0.0117,-0.070312 l 0.72657,-2.9062499 -0.0234,-0.011719 c -0.46875,0.1054688 -0.76172,0.1523438 -1.19531,0.2109375 v 0.1171875 c 0.3164,0 0.3164,0 0.39843,0.046875 0.0352,0.011719 0.082,0.082031 0.082,0.140625 0,0.070312 -0.0469,0.2695313 -0.11718,0.5390625 l -0.29297,1.1367187 c -0.15235,0.5859375 -0.19922,0.84375 -0.19922,0.984375 0,0.2929688 0.14062,0.4453125 0.42187,0.4453125 0.5625,0 0.9961,-0.4335937 1.91016,-1.9804687 -0.23437,0.8671875 -0.36328,1.3945312 -0.36328,1.5703125 0,0.2578125 0.15234,0.3867187 0.38672,0.3867187 0.375,0 0.55078,-0.1523437 1.10156,-0.9375 z M 224.8998,7.6875 c -0.1875,0.3984375 -0.33984,0.4921875 -0.78515,0.5039063 h -1.52344 V 8.15625 l 1.53516,-1.5351563 c 0.9375,-0.9375 1.19531,-1.3476562 1.19531,-1.875 0,-0.7617187 -0.57422,-1.3593749 -1.30078,-1.3593749 -0.29297,0 -0.58594,0.070312 -0.82031,0.2109375 -0.41016,0.2226562 -0.63282,0.4921874 -0.85547,1.0781249 l 0.16406,0.046875 c 0.29297,-0.515625 0.64453,-0.7499999 1.125,-0.7499999 0.57422,0 0.99609,0.4218749 0.99609,0.9726562 0,0.1757812 -0.0234,0.328125 -0.0703,0.4335937 -0.19922,0.4335938 -0.5625,0.9375 -1.07812,1.4882813 l -1.6875,1.7929688 v 0.140625 h 2.84765 l 0.39844,-1.0546876 z m 0,0"
       style="fill:#231f20;fill-opacity:1;fill-rule:nonzero;stroke:none"
       aria-label="u&#10;1&#10;u&#10;2"
       transform="matrix(1.3333333,0,0,1.3333333,36.7,34.5)" />
    <path
       id="path5"
       d="m 890.25,294.25 c 14.527,63.41 46.648,90.117 100,120 39.23,22.57 56.26,28.449 113,28"
       style="fill:none;stroke:#231f20;stroke-width:2.5;stroke-linecap:butt;stroke-linejoin:miter;stroke-miterlimit:3.8637;stroke-dasharray:none;stroke-opacity:1"
       transform="matrix(0.13333333,0,0,-0.13333333,0,72.533333)" />
    <path
       id="path6"
       d="m 2225.25,132.25 h 334"
       style="fill:none;stroke:#231f20;stroke-width:2.5;stroke-linecap:butt;stroke-linejoin:miter;stroke-miterlimit:3.8637;stroke-dasharray:none;stroke-opacity:1"
       transform="matrix(0.13333333,0,0,-0.13333333,0,72.533333)" />
    <path
       id="path7"
       d="m 2557.25,132.25 v 15 l 37,-15 -37,-15 v 15"
       style="fill:#231f20;fill-opacity:1;fill-rule:evenodd;stroke:none"
       transform="matrix(0.13333333,0,0,-0.13333333,0,72.533333)" />
    <path
       id="path8"
       d="M 0.56289062,-1.953125e-4 V -6.4923828 H 3.9378906 V -1.953125e-4 Z M 1.1253906,-0.56269531 h 2.25 V -5.9298828 h -2.25 z M -209.73887,-0.19941406 V -6.6916016 h 3.375 v 6.49218754 z m 0.5625,-0.5625 h 2.25 V -6.1291016 h -2.25 z m 0,0"
       style="fill:#231f20;fill-opacity:1;fill-rule:nonzero;stroke:none"
       aria-label="●&#10;●"
       transform="matrix(1.3333333,0,0,1.3333333,283.36667,59.566667)" />
    <path
       id="path9"
       d="m 52.25,136.25 h 423"
       style="fill:none;stroke:#231f20;stroke-width:5;stroke-linecap:butt;stroke-linejoin:miter;stroke-miterlimit:3.8637;stroke-dasharray:none;stroke-opacity:1"
       transform="matrix(0.13333333,0,0,-0.13333333,0,72.533333)" />
    <path
       id="path10"
       d="m 477.25,138.25 31,136"
       style="fill:none;stroke:#231f20;stroke-width:5;stroke-linecap:butt;stroke-linejoin:miter;stroke-miterlimit:3.8637;stroke-dasharray:none;stroke-opacity:1"
       transform="matrix(0.13333333,0,0,-0.13333333,0,72.533333)" />
    <path
       id="path11"
       d="m 508.25,274.25 63,-272"
       style="fill:none;stroke:#231f20;stroke-width:5;stroke-linecap:butt;stroke-linejoin:miter;stroke-miterlimit:3.8637;stroke-dasharray:none;stroke-opacity:1"
       transform="matrix(0.13333333,0,0,-0.13333333,0,72.533333)" />
    <path
       id="path12"
       d="m 571.25,2.25 63,272"
       style="fill:none;stroke:#231f20;stroke-width:5;stroke-linecap:butt;stroke-linejoin:miter;stroke-miterlimit:3.8637;stroke-dasharray:none;stroke-opacity:1"
       transform="matrix(0.13333333,0,0,-0.13333333,0,72.533333)" />
    <path
       id="path13"
       d="m 634.25,274.25 64,-272"
       style="fill:none;stroke:#231f20;stroke-width:5;stroke-linecap:butt;stroke-linejoin:miter;stroke-miterlimit:3.8637;stroke-dasharray:none;stroke-opacity:1"
       transform="matrix(0.13333333,0,0,-0.13333333,0,72.533333)" />
    <path
       id="path14"
       d="m 698.25,2.25 63,272"
       style="fill:none;stroke:#231f20;stroke-width:5;stroke-linecap:butt;stroke-linejoin:miter;stroke-miterlimit:3.8637;stroke-dasharray:none;stroke-opacity:1"
       transform="matrix(0.13333333,0,0,-0.13333333,0,72.533333)" />
    <path
       id="path15"
       d="m 761.25,274.25 63,-272"
       style="fill:none;stroke:#231f20;stroke-width:5;stroke-linecap:butt;stroke-linejoin:miter;stroke-miterlimit:3.8637;stroke-dasharray:none;stroke-opacity:1"
       transform="matrix(0.13333333,0,0,-0.13333333,0,72.533333)" />
    <path
       id="path16"
       d="m 824.25,2.25 63,272"
       style="fill:none;stroke:#231f20;stroke-width:5;stroke-linecap:butt;stroke-linejoin:miter;stroke-miterlimit:3.8637;stroke-dasharray:none;stroke-opacity:1"
       transform="matrix(0.13333333,0,0,-0.13333333,0,72.533333)" />
    <path
       id="path17"
       d="m 887.25,274.25 63,-272"
       style="fill:none;stroke:#231f20;stroke-width:5;stroke-linecap:butt;stroke-linejoin:miter;stroke-miterlimit:3.8637;stroke-dasharray:none;stroke-opacity:1"
       transform="matrix(0.13333333,0,0,-0.13333333,0,72.533333)" />
    <path
       id="path18"
       d="m 950.25,2.25 64,272"
       style="fill:none;stroke:#231f20;stroke-width:5;stroke-linecap:butt;stroke-linejoin:miter;stroke-miterlimit:3.8637;stroke-dasharray:none;stroke-opacity:1"
       transform="matrix(0.13333333,0,0,-0.13333333,0,72.533333)" />
    <path
       id="path19"
       d="m 1014.25,274.25 63,-272"
       style="fill:none;stroke:#231f20;stroke-width:5;stroke-linecap:butt;stroke-linejoin:miter;stroke-miterlimit:3.8637;stroke-dasharray:none;stroke-opacity:1"
       transform="matrix(0.13333333,0,0,-0.13333333,0,72.533333)" />
    <path
       id="path20"
       d="m 1077.25,2.25 63,272"
       style="fill:none;stroke:#231f20;stroke-width:5;stroke-linecap:butt;stroke-linejoin:miter;stroke-miterlimit:3.8637;stroke-dasharray:none;stroke-opacity:1"
       transform="matrix(0.13333333,0,0,-0.13333333,0,72.533333)" />
    <path
       id="path21"
       d="m 1140.25,274.25 63,-272"
       style="fill:none;stroke:#231f20;stroke-width:5;stroke-linecap:butt;stroke-linejoin:miter;stroke-miterlimit:3.8637;stroke-dasharray:none;stroke-opacity:1"
       transform="matrix(0.13333333,0,0,-0.13333333,0,72.533333)" />
    <path
       id="path22"
       d="m 1203.25,2.25 63,272"
       style="fill:none;stroke:#231f20;stroke-width:5;stroke-linecap:butt;stroke-linejoin:miter;stroke-miterlimit:3.8637;stroke-dasharray:none;stroke-opacity:1"
       transform="matrix(0.13333333,0,0,-0.13333333,0,72.533333)" />
    <path
       id="path23"
       d="m 1266.25,274.25 63,-272"
       style="fill:none;stroke:#231f20;stroke-width:5;stroke-linecap:butt;stroke-linejoin:miter;stroke-miterlimit:3.8637;stroke-dasharray:none;stroke-opacity:1"
       transform="matrix(0.13333333,0,0,-0.13333333,0,72.533333)" />
    <path
       id="path24"
       d="m 1329.25,2.25 64,272"
       style="fill:none;stroke:#231f20;stroke-width:5;stroke-linecap:butt;stroke-linejoin:miter;stroke-miterlimit:3.8637;stroke-dasharray:none;stroke-opacity:1"
       transform="matrix(0.13333333,0,0,-0.13333333,0,72.533333)" />
    <path
       id="path25"
       d="m 1393.25,274.25 63,-272"
       style="fill:none;stroke:#231f20;stroke-width:5;stroke-linecap:butt;stroke-linejoin:miter;stroke-miterlimit:3.8637;stroke-dasharray:none;stroke-opacity:1"
       transform="matrix(0.13333333,0,0,-0.13333333,0,72.533333)" />
    <path
       id="path26"
       d="m 1456.25,2.25 63,272"
       style="fill:none;stroke:#231f20;stroke-width:5;stroke-linecap:butt;stroke-linejoin:miter;stroke-miterlimit:3.8637;stroke-dasharray:none;stroke-opacity:1"
       transform="matrix(0.13333333,0,0,-0.13333333,0,72.533333)" />
    <path
       id="path27"
       d="m 1519.25,274.25 63,-272"
       style="fill:none;stroke:#231f20;stroke-width:5;stroke-linecap:butt;stroke-linejoin:miter;stroke-miterlimit:3.8637;stroke-dasharray:none;stroke-opacity:1"
       transform="matrix(0.13333333,0,0,-0.13333333,0,72.533333)" />
    <path
       id="path28"
       d="m 1582.25,2.25 63,272"
       style="fill:none;stroke:#231f20;stroke-width:5;stroke-linecap:butt;stroke-linejoin:miter;stroke-miterlimit:3.8637;stroke-dasharray:none;stroke-opacity:1"
       transform="matrix(0.13333333,0,0,-0.13333333,0,72.533333)" />
    <path
       id="path29"
       d="m 1645.25,274.25 64,-272"
       style="fill:none;stroke:#231f20;stroke-width:5;stroke-linecap:butt;stroke-linejoin:miter;stroke-miterlimit:3.8637;stroke-dasharray:none;stroke-opacity:1"
       transform="matrix(0.13333333,0,0,-0.13333333,0,72.533333)" />
    <path
       id="path30"
       d="m 1709.25,2.25 31,136"
       style="fill:none;stroke:#231f20;stroke-width:5;stroke-linecap:butt;stroke-linejoin:miter;stroke-miterlimit:3.8637;stroke-dasharray:none;stroke-opacity:1"
       transform="matrix(0.13333333,0,0,-0.13333333,0,72.533333)" />
    <path
       id="path31"
       d="m 1744.25,135.25 h 422"
       style="fill:none;stroke:#231f20;stroke-width:5;stroke-linecap:butt;stroke-linejoin:miter;stroke-miterlimit:3.8637;stroke-dasharray:none;stroke-opacity:1"
       transform="matrix(0.13333333,0,0,-0.13333333,0,72.533333)" />
  </g>
</svg>
