<?xml version="1.0" encoding="UTF-8" standalone="no"?>
<!-- Created with Inkscape (http://www.inkscape.org/) -->

<svg
   version="1.1"
   id="svg1"
   width="393.88"
   height="45.119999"
   viewBox="0 0 393.88 45.119999"
   sodipodi:docname="SPRING3.EPS"
   xmlns:inkscape="http://www.inkscape.org/namespaces/inkscape"
   xmlns:sodipodi="http://sodipodi.sourceforge.net/DTD/sodipodi-0.dtd"
   xmlns="http://www.w3.org/2000/svg"
   xmlns:svg="http://www.w3.org/2000/svg">
  <defs
     id="defs1" />
  <sodipodi:namedview
     id="namedview1"
     pagecolor="#ffffff"
     bordercolor="#000000"
     borderopacity="0.25"
     inkscape:showpageshadow="2"
     inkscape:pageopacity="0.0"
     inkscape:pagecheckerboard="0"
     inkscape:deskcolor="#d1d1d1">
    <inkscape:page
       x="0"
       y="0"
       inkscape:label="1"
       id="page1"
       width="393.88"
       height="45.119999"
       margin="0"
       bleed="0" />
  </sodipodi:namedview>
  <g
     id="g1"
     inkscape:groupmode="layer"
     inkscape:label="1">
    <path
       id="path1"
       d="m 2584.25,135.25 h 335"
       style="fill:none;stroke:#231f20;stroke-width:2.5;stroke-linecap:butt;stroke-linejoin:miter;stroke-miterlimit:3.8637;stroke-dasharray:none;stroke-opacity:1"
       transform="matrix(0.13333333,0,0,-0.13333333,0,45.12)" />
    <path
       id="path2"
       d="m 2916.25,135.25 v 15 l 38,-15 -38,-15 v 15"
       style="fill:#231f20;fill-opacity:1;fill-rule:evenodd;stroke:none"
       transform="matrix(0.13333333,0,0,-0.13333333,0,45.12)" />
    <path
       id="path3"
       d="m 369.25,129.25 h -334"
       style="fill:none;stroke:#231f20;stroke-width:2.5;stroke-linecap:butt;stroke-linejoin:miter;stroke-miterlimit:3.8637;stroke-dasharray:none;stroke-opacity:1"
       transform="matrix(0.13333333,0,0,-0.13333333,0,45.12)" />
    <path
       id="path4"
       d="m 37.25,129.25 v -15 l -37,15 37,15 v -15"
       style="fill:#231f20;fill-opacity:1;fill-rule:evenodd;stroke:none"
       transform="matrix(0.13333333,0,0,-0.13333333,0,45.12)" />
    <g
       id="g4"
       aria-label="N&#10;N&#10;●&#10;●"
       transform="matrix(1.3333333,0,0,1.3333333,11.233333,17.753333)">
      <path
         id="path5"
         d="M 8.7195312,-7.8394141 H 6.340625 v 0.1992188 c 0.6796875,0.058594 0.8320312,0.1757812 0.8320312,0.609375 0,0.140625 -0.023437,0.2695312 -0.1054687,0.5273437 -0.011719,0.035156 -0.023437,0.082031 -0.023437,0.09375 L 5.825,-1.8511328 3.3289062,-7.8394141 H 1.3953125 v 0.1992188 c 0.5625,0.046875 0.796875,0.1992187 1.03125,0.6679687 L 0.996875,-1.9683203 c -0.45703125,1.53515624 -0.55078125,1.67578124 -1.23046875,1.78124999 V 4.296875e-4 H 2.1335937 V -0.18707031 c -0.6210937,-0.046875 -0.8320312,-0.1875 -0.8320312,-0.515625 0,-0.1640625 0.035156,-0.39843749 0.1054687,-0.65624999 l 1.3710938,-5.0625 2.7539062,6.59765624 h 0.2109375 l 1.734375,-6.03515624 c 0.4453125,-1.5585938 0.4921875,-1.6171875 1.2421875,-1.78125 z M 277.11992,-8.5396094 h -2.3789 v 0.1992188 c 0.67968,0.058594 0.83203,0.1757812 0.83203,0.609375 0,0.140625 -0.0234,0.2695312 -0.10547,0.5273437 -0.0117,0.035156 -0.0234,0.082031 -0.0234,0.09375 l -1.21875,4.5585938 -2.49609,-5.9882813 h -1.9336 v 0.1992188 c 0.5625,0.046875 0.79688,0.1992187 1.03125,0.6679687 l -1.42968,5.0039063 c -0.45704,1.5351562 -0.55079,1.67578123 -1.23047,1.78124998 v 0.1875 h 2.36718 v -0.1875 c -0.62109,-0.046875 -0.83203,-0.18749998 -0.83203,-0.51562498 0,-0.1640625 0.0352,-0.3984375 0.10547,-0.65625 l 1.3711,-5.0625 2.7539,6.59765623 h 0.21094 l 1.73437,-6.03515623 c 0.44532,-1.5585938 0.49219,-1.6171875 1.24219,-1.78125 z m 0,0"
         style="fill:#231f20;fill-opacity:1;fill-rule:nonzero;stroke:none" />
      <path
         id="path6"
         d="M 241.26348,10.799258 V 4.3070703 h 3.375 v 6.4921877 z m 0.5625,-0.5625 h 2.25 V 4.8695703 h -2.25 z M 31.061328,10.600039 V 4.1078516 h 3.375 v 6.4921874 z m 0.5625,-0.5625 h 2.25 V 4.6703516 h -2.25 z m 0,0"
         style="fill:#231f20;fill-opacity:1;fill-rule:nonzero;stroke:none" />
    </g>
    <path
       id="path7"
       d="m 419.25,136.25 h 423"
       style="fill:none;stroke:#231f20;stroke-width:5;stroke-linecap:butt;stroke-linejoin:miter;stroke-miterlimit:3.8637;stroke-dasharray:none;stroke-opacity:1"
       transform="matrix(0.13333333,0,0,-0.13333333,0,45.12)" />
    <path
       id="path8"
       d="m 843.25,138.25 32,136"
       style="fill:none;stroke:#231f20;stroke-width:5;stroke-linecap:butt;stroke-linejoin:miter;stroke-miterlimit:3.8637;stroke-dasharray:none;stroke-opacity:1"
       transform="matrix(0.13333333,0,0,-0.13333333,0,45.12)" />
    <path
       id="path9"
       d="m 875.25,274.25 63,-272"
       style="fill:none;stroke:#231f20;stroke-width:5;stroke-linecap:butt;stroke-linejoin:miter;stroke-miterlimit:3.8637;stroke-dasharray:none;stroke-opacity:1"
       transform="matrix(0.13333333,0,0,-0.13333333,0,45.12)" />
    <path
       id="path10"
       d="m 938.25,2.25 63,272"
       style="fill:none;stroke:#231f20;stroke-width:5;stroke-linecap:butt;stroke-linejoin:miter;stroke-miterlimit:3.8637;stroke-dasharray:none;stroke-opacity:1"
       transform="matrix(0.13333333,0,0,-0.13333333,0,45.12)" />
    <path
       id="path11"
       d="m 1001.25,274.25 63,-272"
       style="fill:none;stroke:#231f20;stroke-width:5;stroke-linecap:butt;stroke-linejoin:miter;stroke-miterlimit:3.8637;stroke-dasharray:none;stroke-opacity:1"
       transform="matrix(0.13333333,0,0,-0.13333333,0,45.12)" />
    <path
       id="path12"
       d="m 1064.25,2.25 64,272"
       style="fill:none;stroke:#231f20;stroke-width:5;stroke-linecap:butt;stroke-linejoin:miter;stroke-miterlimit:3.8637;stroke-dasharray:none;stroke-opacity:1"
       transform="matrix(0.13333333,0,0,-0.13333333,0,45.12)" />
    <path
       id="path13"
       d="m 1128.25,274.25 63,-272"
       style="fill:none;stroke:#231f20;stroke-width:5;stroke-linecap:butt;stroke-linejoin:miter;stroke-miterlimit:3.8637;stroke-dasharray:none;stroke-opacity:1"
       transform="matrix(0.13333333,0,0,-0.13333333,0,45.12)" />
    <path
       id="path14"
       d="m 1191.25,2.25 63,272"
       style="fill:none;stroke:#231f20;stroke-width:5;stroke-linecap:butt;stroke-linejoin:miter;stroke-miterlimit:3.8637;stroke-dasharray:none;stroke-opacity:1"
       transform="matrix(0.13333333,0,0,-0.13333333,0,45.12)" />
    <path
       id="path15"
       d="m 1254.25,274.25 63,-272"
       style="fill:none;stroke:#231f20;stroke-width:5;stroke-linecap:butt;stroke-linejoin:miter;stroke-miterlimit:3.8637;stroke-dasharray:none;stroke-opacity:1"
       transform="matrix(0.13333333,0,0,-0.13333333,0,45.12)" />
    <path
       id="path16"
       d="m 1317.25,2.25 63,272"
       style="fill:none;stroke:#231f20;stroke-width:5;stroke-linecap:butt;stroke-linejoin:miter;stroke-miterlimit:3.8637;stroke-dasharray:none;stroke-opacity:1"
       transform="matrix(0.13333333,0,0,-0.13333333,0,45.12)" />
    <path
       id="path17"
       d="m 1380.25,274.25 64,-272"
       style="fill:none;stroke:#231f20;stroke-width:5;stroke-linecap:butt;stroke-linejoin:miter;stroke-miterlimit:3.8637;stroke-dasharray:none;stroke-opacity:1"
       transform="matrix(0.13333333,0,0,-0.13333333,0,45.12)" />
    <path
       id="path18"
       d="m 1444.25,2.25 63,272"
       style="fill:none;stroke:#231f20;stroke-width:5;stroke-linecap:butt;stroke-linejoin:miter;stroke-miterlimit:3.8637;stroke-dasharray:none;stroke-opacity:1"
       transform="matrix(0.13333333,0,0,-0.13333333,0,45.12)" />
    <path
       id="path19"
       d="m 1507.25,274.25 63,-272"
       style="fill:none;stroke:#231f20;stroke-width:5;stroke-linecap:butt;stroke-linejoin:miter;stroke-miterlimit:3.8637;stroke-dasharray:none;stroke-opacity:1"
       transform="matrix(0.13333333,0,0,-0.13333333,0,45.12)" />
    <path
       id="path20"
       d="m 1570.25,2.25 63,272"
       style="fill:none;stroke:#231f20;stroke-width:5;stroke-linecap:butt;stroke-linejoin:miter;stroke-miterlimit:3.8637;stroke-dasharray:none;stroke-opacity:1"
       transform="matrix(0.13333333,0,0,-0.13333333,0,45.12)" />
    <path
       id="path21"
       d="m 1633.25,274.25 63,-272"
       style="fill:none;stroke:#231f20;stroke-width:5;stroke-linecap:butt;stroke-linejoin:miter;stroke-miterlimit:3.8637;stroke-dasharray:none;stroke-opacity:1"
       transform="matrix(0.13333333,0,0,-0.13333333,0,45.12)" />
    <path
       id="path22"
       d="m 1696.25,2.25 63,272"
       style="fill:none;stroke:#231f20;stroke-width:5;stroke-linecap:butt;stroke-linejoin:miter;stroke-miterlimit:3.8637;stroke-dasharray:none;stroke-opacity:1"
       transform="matrix(0.13333333,0,0,-0.13333333,0,45.12)" />
    <path
       id="path23"
       d="m 1759.25,274.25 64,-272"
       style="fill:none;stroke:#231f20;stroke-width:5;stroke-linecap:butt;stroke-linejoin:miter;stroke-miterlimit:3.8637;stroke-dasharray:none;stroke-opacity:1"
       transform="matrix(0.13333333,0,0,-0.13333333,0,45.12)" />
    <path
       id="path24"
       d="m 1823.25,2.25 63,272"
       style="fill:none;stroke:#231f20;stroke-width:5;stroke-linecap:butt;stroke-linejoin:miter;stroke-miterlimit:3.8637;stroke-dasharray:none;stroke-opacity:1"
       transform="matrix(0.13333333,0,0,-0.13333333,0,45.12)" />
    <path
       id="path25"
       d="m 1886.25,274.25 63,-272"
       style="fill:none;stroke:#231f20;stroke-width:5;stroke-linecap:butt;stroke-linejoin:miter;stroke-miterlimit:3.8637;stroke-dasharray:none;stroke-opacity:1"
       transform="matrix(0.13333333,0,0,-0.13333333,0,45.12)" />
    <path
       id="path26"
       d="m 1949.25,2.25 63,272"
       style="fill:none;stroke:#231f20;stroke-width:5;stroke-linecap:butt;stroke-linejoin:miter;stroke-miterlimit:3.8637;stroke-dasharray:none;stroke-opacity:1"
       transform="matrix(0.13333333,0,0,-0.13333333,0,45.12)" />
    <path
       id="path27"
       d="m 2012.25,274.25 63,-272"
       style="fill:none;stroke:#231f20;stroke-width:5;stroke-linecap:butt;stroke-linejoin:miter;stroke-miterlimit:3.8637;stroke-dasharray:none;stroke-opacity:1"
       transform="matrix(0.13333333,0,0,-0.13333333,0,45.12)" />
    <path
       id="path28"
       d="m 2075.25,2.25 32,136"
       style="fill:none;stroke:#231f20;stroke-width:5;stroke-linecap:butt;stroke-linejoin:miter;stroke-miterlimit:3.8637;stroke-dasharray:none;stroke-opacity:1"
       transform="matrix(0.13333333,0,0,-0.13333333,0,45.12)" />
    <path
       id="path29"
       d="m 2110.25,135.25 h 423"
       style="fill:none;stroke:#231f20;stroke-width:5;stroke-linecap:butt;stroke-linejoin:miter;stroke-miterlimit:3.8637;stroke-dasharray:none;stroke-opacity:1"
       transform="matrix(0.13333333,0,0,-0.13333333,0,45.12)" />
  </g>
</svg>
